<?xml version="1.0" encoding="UTF-8" standalone="no"?>
<!DOCTYPE svg PUBLIC "-//W3C//DTD SVG 1.1//EN"
 "http://www.w3.org/Graphics/SVG/1.1/DTD/svg11.dtd">
<!-- Generated by graphviz version 2.36.0 (20140111.2315)
 -->
<!-- Title: osg_material_manager::OsgMaterialManager Pages: 1 -->
<svg width="486pt" height="162pt"
 viewBox="0.00 0.00 486.00 162.00" xmlns="http://www.w3.org/2000/svg" xmlns:xlink="http://www.w3.org/1999/xlink">
<g id="graph0" class="graph" transform="scale(1 1) rotate(0) translate(4 158)">
<title>osg_material_manager::OsgMaterialManager</title>
<polygon fill="white" stroke="none" points="-4,4 -4,-158 482,-158 482,4 -4,4"/>
<!-- Node1 -->
<g id="node1" class="node"><title>Node1</title>
<polygon fill="#bfbfbf" stroke="black" points="362.5,-69 362.5,-99 477.5,-99 477.5,-69 362.5,-69"/>
<text text-anchor="start" x="370.5" y="-87" font-family="Helvetica,sans-Serif" font-size="10.00">osg_material_manager</text>
<text text-anchor="middle" x="420" y="-76" font-family="Helvetica,sans-Serif" font-size="10.00">::OsgMaterialManager</text>
</g>
<!-- Node2 -->
<g id="node2" class="node"><title>Node2</title>
<polygon fill="white" stroke="#bfbfbf" points="0,-134.5 0,-153.5 68,-153.5 68,-134.5 0,-134.5"/>
<text text-anchor="middle" x="34" y="-141.5" font-family="Helvetica,sans-Serif" font-size="10.00">LibInterface</text>
</g>
<!-- Node2&#45;&gt;Node1 -->
<g id="edge1" class="edge"><title>Node2&#45;&gt;Node1</title>
<path fill="none" stroke="midnightblue" d="M78.4881,-146.499C139.443,-148.638 253.021,-147.609 344,-118 359.498,-112.956 376.066,-105.662 389.677,-99.1224"/>
<polygon fill="midnightblue" stroke="midnightblue" points="78.5831,-143 68.4522,-146.101 78.3055,-149.995 78.5831,-143"/>
</g>
<!-- Node6 -->
<g id="node6" class="node"><title>Node6</title>
<g id="a_node6"><a xlink:href="../../d4/da6/classmars_1_1cfg__manager_1_1_c_f_g_manager_interface.html" target="_top" xlink:title="mars::cfg_manager::\lCFGManagerInterface">
<polygon fill="white" stroke="black" points="138.5,-98 138.5,-128 251.5,-128 251.5,-98 138.5,-98"/>
<text text-anchor="start" x="146.5" y="-116" font-family="Helvetica,sans-Serif" font-size="10.00">mars::cfg_manager::</text>
<text text-anchor="middle" x="195" y="-105" font-family="Helvetica,sans-Serif" font-size="10.00">CFGManagerInterface</text>
</a>
</g>
</g>
<!-- Node2&#45;&gt;Node6 -->
<g id="edge6" class="edge"><title>Node2&#45;&gt;Node6</title>
<path fill="none" stroke="midnightblue" d="M78.2658,-135.565C96.8317,-131.945 118.752,-127.671 138.493,-123.822"/>
<polygon fill="midnightblue" stroke="midnightblue" points="77.477,-132.152 68.3316,-137.501 78.8166,-139.023 77.477,-132.152"/>
</g>
<!-- Node3 -->
<g id="node3" class="node"><title>Node3</title>
<g id="a_node3"><a xlink:href="../../d4/d1a/classmars_1_1cfg__manager_1_1_c_f_g_client.html" target="_top" xlink:title="mars::cfg_manager::\lCFGClient">
<polygon fill="white" stroke="black" points="141.5,-49 141.5,-79 248.5,-79 248.5,-49 141.5,-49"/>
<text text-anchor="start" x="149.5" y="-67" font-family="Helvetica,sans-Serif" font-size="10.00">mars::cfg_manager::</text>
<text text-anchor="middle" x="195" y="-56" font-family="Helvetica,sans-Serif" font-size="10.00">CFGClient</text>
</a>
</g>
</g>
<!-- Node3&#45;&gt;Node1 -->
<g id="edge2" class="edge"><title>Node3&#45;&gt;Node1</title>
<path fill="none" stroke="midnightblue" d="M258.879,-69.6394C291.449,-72.5604 330.901,-76.0988 362.495,-78.9323"/>
<polygon fill="midnightblue" stroke="midnightblue" points="258.838,-66.1218 248.566,-68.7144 258.213,-73.0938 258.838,-66.1218"/>
</g>
<!-- Node4 -->
<g id="node4" class="node"><title>Node4</title>
<g id="a_node4"><a xlink:href="../../dc/dc3/structmars_1_1cfg__manager_1_1cfg_property_struct.html" target="_top" xlink:title="mars::cfg_manager::\lcfgPropertyStruct">
<polygon fill="white" stroke="black" points="141.5,-0 141.5,-30 248.5,-30 248.5,-0 141.5,-0"/>
<text text-anchor="start" x="149.5" y="-18" font-family="Helvetica,sans-Serif" font-size="10.00">mars::cfg_manager::</text>
<text text-anchor="middle" x="195" y="-7" font-family="Helvetica,sans-Serif" font-size="10.00">cfgPropertyStruct</text>
</a>
</g>
</g>
<!-- Node4&#45;&gt;Node1 -->
<g id="edge3" class="edge"><title>Node4&#45;&gt;Node1</title>
<path fill="none" stroke="#9a32cd" stroke-dasharray="5,2" d="M258.632,-24.3583C285.372,-29.3119 316.656,-36.3974 344,-46 361.078,-51.9972 379.208,-61.1001 393.364,-68.8931"/>
<polygon fill="#9a32cd" stroke="#9a32cd" points="259.085,-20.8837 248.624,-22.5633 257.849,-27.7737 259.085,-20.8837"/>
<text text-anchor="middle" x="307" y="-60" font-family="Helvetica,sans-Serif" font-size="10.00"> resPath</text>
<text text-anchor="middle" x="307" y="-49" font-family="Helvetica,sans-Serif" font-size="10.00">shadowSamples</text>
</g>
<!-- Node5 -->
<g id="node5" class="node"><title>Node5</title>
<polygon fill="white" stroke="#bfbfbf" points="13.5,-5.5 13.5,-24.5 54.5,-24.5 54.5,-5.5 13.5,-5.5"/>
<text text-anchor="middle" x="34" y="-12.5" font-family="Helvetica,sans-Serif" font-size="10.00">string</text>
</g>
<!-- Node5&#45;&gt;Node4 -->
<g id="edge4" class="edge"><title>Node5&#45;&gt;Node4</title>
<path fill="none" stroke="#9a32cd" stroke-dasharray="5,2" d="M64.9709,-15C86.4808,-15 116.031,-15 141.425,-15"/>
<polygon fill="#9a32cd" stroke="#9a32cd" points="64.816,-11.5001 54.816,-15 64.8159,-18.5001 64.816,-11.5001"/>
<text text-anchor="middle" x="103" y="-18" font-family="Helvetica,sans-Serif" font-size="10.00"> sValue</text>
</g>
<!-- Node6&#45;&gt;Node1 -->
<g id="edge5" class="edge"><title>Node6&#45;&gt;Node1</title>
<path fill="none" stroke="#9a32cd" stroke-dasharray="5,2" d="M261.846,-104.437C293.812,-100.28 331.829,-95.3361 362.464,-91.3522"/>
<polygon fill="#9a32cd" stroke="#9a32cd" points="261.162,-100.996 251.697,-105.757 262.065,-107.938 261.162,-100.996"/>
<text text-anchor="middle" x="307" y="-106" font-family="Helvetica,sans-Serif" font-size="10.00"> cfg</text>
</g>
</g>
</svg>
