<?xml version="1.0" encoding="UTF-8" standalone="no"?>
<!DOCTYPE svg PUBLIC "-//W3C//DTD SVG 1.1//EN"
 "http://www.w3.org/Graphics/SVG/1.1/DTD/svg11.dtd">
<!-- Generated by graphviz version 2.26.3 (20100126.1600)
 -->
<!-- Title: /home/kavonszadkowski/limes&#45;dev/simulation/mars/graphics/src/3d_objects/CoordsPrimitive.h Pages: 1 -->
<svg width="366pt" height="168pt"
 viewBox="0.00 0.00 366.00 168.00" xmlns="http://www.w3.org/2000/svg" xmlns:xlink="http://www.w3.org/1999/xlink">
<g id="graph1" class="graph" transform="scale(1 1) rotate(0) translate(4 164)">
<title>/home/kavonszadkowski/limes&#45;dev/simulation/mars/graphics/src/3d_objects/CoordsPrimitive.h</title>
<polygon fill="white" stroke="white" points="-4,5 -4,-164 363,-164 363,5 -4,5"/>
<!-- Node1 -->
<g id="node1" class="node"><title>Node1</title>
<polygon fill="#bfbfbf" stroke="black" points="99,-99 99,-159 233,-159 233,-99 99,-99"/>
<text text-anchor="start" x="107" y="-146" font-family="Helvetica,sans-Serif" font-size="10.00">/home/kavonszadkowski</text>
<text text-anchor="start" x="107" y="-133" font-family="Helvetica,sans-Serif" font-size="10.00">/limes&#45;dev/simulation</text>
<text text-anchor="start" x="107" y="-120" font-family="Helvetica,sans-Serif" font-size="10.00">/mars/graphics/src/3d</text>
<text text-anchor="middle" x="166" y="-107" font-family="Helvetica,sans-Serif" font-size="10.00">_objects/CoordsPrimitive.h</text>
</g>
<!-- Node2 -->
<g id="node3" class="node"><title>Node2</title>
<a xlink:href="../../d1/d38/_coords_primitive_8cpp.html" target="_top" xlink:title="/home/kavonszadkowski\l/limes&#45;dev/simulation\l/mars/graphics/src/3d\l_objects/CoordsPrimitive.cpp">
<polygon fill="white" stroke="black" points="-0.5,-1 -0.5,-61 144.5,-61 144.5,-1 -0.5,-1"/>
<text text-anchor="start" x="7.5" y="-48" font-family="Helvetica,sans-Serif" font-size="10.00">/home/kavonszadkowski</text>
<text text-anchor="start" x="7.5" y="-35" font-family="Helvetica,sans-Serif" font-size="10.00">/limes&#45;dev/simulation</text>
<text text-anchor="start" x="7.5" y="-22" font-family="Helvetica,sans-Serif" font-size="10.00">/mars/graphics/src/3d</text>
<text text-anchor="middle" x="72" y="-9" font-family="Helvetica,sans-Serif" font-size="10.00">_objects/CoordsPrimitive.cpp</text>
</a>
</g>
<!-- Node1&#45;&gt;Node2 -->
<g id="edge2" class="edge"><title>Node1&#45;&gt;Node2</title>
<path fill="none" stroke="midnightblue" d="M129.881,-91.3443C120.335,-81.3916 110.155,-70.7782 101.036,-61.2718"/>
<polygon fill="midnightblue" stroke="midnightblue" points="127.582,-94.0031 137.03,-98.7971 132.634,-89.1575 127.582,-94.0031"/>
</g>
<!-- Node3 -->
<g id="node5" class="node"><title>Node3</title>
<a xlink:href="../../d7/d19/_graphics_manager_8cpp.html" target="_top" xlink:title="/home/kavonszadkowski\l/limes&#45;dev/simulation\l/mars/graphics/src/GraphicsManager.cpp">
<polygon fill="white" stroke="black" points="162,-7.5 162,-54.5 358,-54.5 358,-7.5 162,-7.5"/>
<text text-anchor="start" x="170" y="-41.5" font-family="Helvetica,sans-Serif" font-size="10.00">/home/kavonszadkowski</text>
<text text-anchor="start" x="170" y="-28.5" font-family="Helvetica,sans-Serif" font-size="10.00">/limes&#45;dev/simulation</text>
<text text-anchor="middle" x="260" y="-15.5" font-family="Helvetica,sans-Serif" font-size="10.00">/mars/graphics/src/GraphicsManager.cpp</text>
</a>
</g>
<!-- Node1&#45;&gt;Node3 -->
<g id="edge4" class="edge"><title>Node1&#45;&gt;Node3</title>
<path fill="none" stroke="midnightblue" d="M202.161,-91.3001C213.956,-79.0032 226.714,-65.7021 237.24,-54.7289"/>
<polygon fill="midnightblue" stroke="midnightblue" points="199.366,-89.1575 194.97,-98.7971 204.418,-94.0031 199.366,-89.1575"/>
</g>
</g>
</svg>
