<?xml version="1.0" encoding="UTF-8" standalone="no"?>
<!DOCTYPE svg PUBLIC "-//W3C//DTD SVG 1.1//EN"
 "http://www.w3.org/Graphics/SVG/1.1/DTD/svg11.dtd">
<!-- Generated by graphviz version 2.36.0 (20140111.2315)
 -->
<!-- Title: /media/kavonszadkowski/work/marsdocs/mars/interfaces/src/LightData.h Pages: 1 -->
<svg width="424pt" height="106pt"
 viewBox="0.00 0.00 424.00 106.00" xmlns="http://www.w3.org/2000/svg" xmlns:xlink="http://www.w3.org/1999/xlink">
<g id="graph0" class="graph" transform="scale(1 1) rotate(0) translate(4 102)">
<title>/media/kavonszadkowski/work/marsdocs/mars/interfaces/src/LightData.h</title>
<polygon fill="white" stroke="none" points="-4,4 -4,-102 420,-102 420,4 -4,4"/>
<!-- Node1 -->
<g id="node1" class="node"><title>Node1</title>
<polygon fill="#bfbfbf" stroke="black" points="163.5,-56.5 163.5,-97.5 320.5,-97.5 320.5,-56.5 163.5,-56.5"/>
<text text-anchor="start" x="171.5" y="-85.5" font-family="Helvetica,sans-Serif" font-size="10.00">/media/kavonszadkowski</text>
<text text-anchor="start" x="171.5" y="-74.5" font-family="Helvetica,sans-Serif" font-size="10.00">/work/marsdocs/mars/interfaces</text>
<text text-anchor="middle" x="242" y="-63.5" font-family="Helvetica,sans-Serif" font-size="10.00">/src/LightData.h</text>
</g>
<!-- Node2 -->
<g id="node2" class="node"><title>Node2</title>
<polygon fill="white" stroke="#bfbfbf" points="0,-0.5 0,-19.5 94,-19.5 94,-0.5 0,-0.5"/>
<text text-anchor="middle" x="47" y="-7.5" font-family="Helvetica,sans-Serif" font-size="10.00">mars/utils/Color.h</text>
</g>
<!-- Node1&#45;&gt;Node2 -->
<g id="edge1" class="edge"><title>Node1&#45;&gt;Node2</title>
<path fill="none" stroke="midnightblue" d="M183.494,-56.4979C150.622,-45.5406 110.67,-32.2233 82.5082,-22.8361"/>
<polygon fill="midnightblue" stroke="midnightblue" points="83.2949,-19.409 72.7012,-19.5671 81.0812,-26.0498 83.2949,-19.409"/>
</g>
<!-- Node3 -->
<g id="node3" class="node"><title>Node3</title>
<polygon fill="white" stroke="#bfbfbf" points="112,-0.5 112,-19.5 240,-19.5 240,-0.5 112,-0.5"/>
<text text-anchor="middle" x="176" y="-7.5" font-family="Helvetica,sans-Serif" font-size="10.00">configmaps/ConfigData.h</text>
</g>
<!-- Node1&#45;&gt;Node3 -->
<g id="edge2" class="edge"><title>Node1&#45;&gt;Node3</title>
<path fill="none" stroke="midnightblue" d="M222.198,-56.4979C212.565,-47.0113 201.137,-35.7557 192.056,-26.8131"/>
<polygon fill="midnightblue" stroke="midnightblue" points="194.366,-24.1757 184.786,-19.6525 189.455,-29.1631 194.366,-24.1757"/>
</g>
<!-- Node4 -->
<g id="node4" class="node"><title>Node4</title>
<polygon fill="white" stroke="#bfbfbf" points="258.5,-0.5 258.5,-19.5 357.5,-19.5 357.5,-0.5 258.5,-0.5"/>
<text text-anchor="middle" x="308" y="-7.5" font-family="Helvetica,sans-Serif" font-size="10.00">mars/utils/Vector.h</text>
</g>
<!-- Node1&#45;&gt;Node4 -->
<g id="edge3" class="edge"><title>Node1&#45;&gt;Node4</title>
<path fill="none" stroke="midnightblue" d="M261.802,-56.4979C271.435,-47.0113 282.863,-35.7557 291.944,-26.8131"/>
<polygon fill="midnightblue" stroke="midnightblue" points="294.545,-29.1631 299.214,-19.6525 289.634,-24.1757 294.545,-29.1631"/>
</g>
<!-- Node5 -->
<g id="node5" class="node"><title>Node5</title>
<polygon fill="white" stroke="#bfbfbf" points="375.5,-0.5 375.5,-19.5 416.5,-19.5 416.5,-0.5 375.5,-0.5"/>
<text text-anchor="middle" x="396" y="-7.5" font-family="Helvetica,sans-Serif" font-size="10.00">string</text>
</g>
<!-- Node1&#45;&gt;Node5 -->
<g id="edge4" class="edge"><title>Node1&#45;&gt;Node5</title>
<path fill="none" stroke="midnightblue" d="M288.205,-56.4979C313.519,-45.8135 344.149,-32.8851 366.279,-23.5446"/>
<polygon fill="midnightblue" stroke="midnightblue" points="367.648,-26.7657 375.5,-19.6525 364.926,-20.3166 367.648,-26.7657"/>
</g>
</g>
</svg>
