<?xml version="1.0" encoding="UTF-8" standalone="no"?>
<!DOCTYPE svg PUBLIC "-//W3C//DTD SVG 1.1//EN"
 "http://www.w3.org/Graphics/SVG/1.1/DTD/svg11.dtd">
<!-- Generated by graphviz version 2.36.0 (20140111.2315)
 -->
<!-- Title: /media/kavonszadkowski/work/marsdocs/mars/interfaces/src/graphics/draw_structs.h Pages: 1 -->
<svg width="654pt" height="206pt"
 viewBox="0.00 0.00 654.00 206.00" xmlns="http://www.w3.org/2000/svg" xmlns:xlink="http://www.w3.org/1999/xlink">
<g id="graph0" class="graph" transform="scale(1 1) rotate(0) translate(4 202)">
<title>/media/kavonszadkowski/work/marsdocs/mars/interfaces/src/graphics/draw_structs.h</title>
<polygon fill="white" stroke="none" points="-4,4 -4,-202 650,-202 650,4 -4,4"/>
<!-- Node1 -->
<g id="node1" class="node"><title>Node1</title>
<polygon fill="#bfbfbf" stroke="black" points="97.5,-156.5 97.5,-197.5 254.5,-197.5 254.5,-156.5 97.5,-156.5"/>
<text text-anchor="start" x="105.5" y="-185.5" font-family="Helvetica,sans-Serif" font-size="10.00">/media/kavonszadkowski</text>
<text text-anchor="start" x="105.5" y="-174.5" font-family="Helvetica,sans-Serif" font-size="10.00">/work/marsdocs/mars/interfaces</text>
<text text-anchor="middle" x="176" y="-163.5" font-family="Helvetica,sans-Serif" font-size="10.00">/src/graphics/draw_structs.h</text>
</g>
<!-- Node2 -->
<g id="node2" class="node"><title>Node2</title>
<g id="a_node2"><a xlink:href="../../dd/dd2/_draw_interface_8h.html" target="_top" xlink:title="/media/kavonszadkowski\l/work/marsdocs/mars/interfaces\l/src/graphics/DrawInterface.h">
<polygon fill="white" stroke="black" points="-0.5,-78.5 -0.5,-119.5 156.5,-119.5 156.5,-78.5 -0.5,-78.5"/>
<text text-anchor="start" x="7.5" y="-107.5" font-family="Helvetica,sans-Serif" font-size="10.00">/media/kavonszadkowski</text>
<text text-anchor="start" x="7.5" y="-96.5" font-family="Helvetica,sans-Serif" font-size="10.00">/work/marsdocs/mars/interfaces</text>
<text text-anchor="middle" x="78" y="-85.5" font-family="Helvetica,sans-Serif" font-size="10.00">/src/graphics/DrawInterface.h</text>
</a>
</g>
</g>
<!-- Node1&#45;&gt;Node2 -->
<g id="edge1" class="edge"><title>Node1&#45;&gt;Node2</title>
<path fill="none" stroke="midnightblue" d="M136.503,-150.35C122.954,-140.272 108.428,-128.893 97.1696,-119.506"/>
<polygon fill="midnightblue" stroke="midnightblue" points="134.643,-153.327 144.774,-156.428 138.788,-147.686 134.643,-153.327"/>
</g>
<!-- Node3 -->
<g id="node3" class="node"><title>Node3</title>
<g id="a_node3"><a xlink:href="../../d7/d84/_graphics_manager_interface_8h.html" target="_top" xlink:title="/media/kavonszadkowski\l/work/marsdocs/mars/interfaces\l/src/graphics/GraphicsManagerInterface.h">
<polygon fill="white" stroke="black" points="174.5,-78.5 174.5,-119.5 373.5,-119.5 373.5,-78.5 174.5,-78.5"/>
<text text-anchor="start" x="182.5" y="-107.5" font-family="Helvetica,sans-Serif" font-size="10.00">/media/kavonszadkowski</text>
<text text-anchor="start" x="182.5" y="-96.5" font-family="Helvetica,sans-Serif" font-size="10.00">/work/marsdocs/mars/interfaces</text>
<text text-anchor="middle" x="274" y="-85.5" font-family="Helvetica,sans-Serif" font-size="10.00">/src/graphics/GraphicsManagerInterface.h</text>
</a>
</g>
</g>
<!-- Node1&#45;&gt;Node3 -->
<g id="edge3" class="edge"><title>Node1&#45;&gt;Node3</title>
<path fill="none" stroke="midnightblue" d="M209.443,-150.065C222.347,-140.057 236.857,-128.804 248.848,-119.506"/>
<polygon fill="midnightblue" stroke="midnightblue" points="206.995,-147.534 201.237,-156.428 211.285,-153.066 206.995,-147.534"/>
</g>
<!-- Node4 -->
<g id="node4" class="node"><title>Node4</title>
<g id="a_node4"><a xlink:href="../../d0/d74/_simulator_interface_8h.html" target="_top" xlink:title="&quot;SimulatorInterface&quot; provides an interface for using the Simulator class ">
<polygon fill="white" stroke="black" points="391.5,-78.5 391.5,-119.5 548.5,-119.5 548.5,-78.5 391.5,-78.5"/>
<text text-anchor="start" x="399.5" y="-107.5" font-family="Helvetica,sans-Serif" font-size="10.00">/media/kavonszadkowski</text>
<text text-anchor="start" x="399.5" y="-96.5" font-family="Helvetica,sans-Serif" font-size="10.00">/work/marsdocs/mars/interfaces</text>
<text text-anchor="middle" x="470" y="-85.5" font-family="Helvetica,sans-Serif" font-size="10.00">/src/sim/SimulatorInterface.h</text>
</a>
</g>
</g>
<!-- Node1&#45;&gt;Node4 -->
<g id="edge4" class="edge"><title>Node1&#45;&gt;Node4</title>
<path fill="none" stroke="midnightblue" d="M261.396,-153.925C303.51,-143.038 353.862,-130.022 394.544,-119.506"/>
<polygon fill="midnightblue" stroke="midnightblue" points="260.518,-150.537 251.712,-156.428 262.27,-157.314 260.518,-150.537"/>
</g>
<!-- Node2&#45;&gt;Node1 -->
<g id="edge2" class="edge"><title>Node2&#45;&gt;Node1</title>
<path fill="none" stroke="midnightblue" d="M117.401,-125.579C130.945,-135.651 145.477,-147.031 156.751,-156.428"/>
<polygon fill="midnightblue" stroke="midnightblue" points="119.266,-122.605 109.134,-119.506 115.121,-128.246 119.266,-122.605"/>
</g>
<!-- Node5 -->
<g id="node5" class="node"><title>Node5</title>
<g id="a_node5"><a xlink:href="../../dd/d91/_mars_plugin_template_8h.html" target="_top" xlink:title="/media/kavonszadkowski\l/work/marsdocs/mars/interfaces\l/src/sim/MarsPluginTemplate.h">
<polygon fill="white" stroke="black" points="300.5,-0.5 300.5,-41.5 457.5,-41.5 457.5,-0.5 300.5,-0.5"/>
<text text-anchor="start" x="308.5" y="-29.5" font-family="Helvetica,sans-Serif" font-size="10.00">/media/kavonszadkowski</text>
<text text-anchor="start" x="308.5" y="-18.5" font-family="Helvetica,sans-Serif" font-size="10.00">/work/marsdocs/mars/interfaces</text>
<text text-anchor="middle" x="379" y="-7.5" font-family="Helvetica,sans-Serif" font-size="10.00">/src/sim/MarsPluginTemplate.h</text>
</a>
</g>
</g>
<!-- Node4&#45;&gt;Node5 -->
<g id="edge5" class="edge"><title>Node4&#45;&gt;Node5</title>
<path fill="none" stroke="midnightblue" d="M438.603,-71.7785C426.707,-61.8432 413.384,-50.7159 402.355,-41.5056"/>
<polygon fill="midnightblue" stroke="midnightblue" points="436.646,-74.7043 446.565,-78.4281 441.133,-69.3316 436.646,-74.7043"/>
</g>
<!-- Node6 -->
<g id="node6" class="node"><title>Node6</title>
<g id="a_node6"><a xlink:href="../../d4/d96/_mars_plugin_template_g_u_i_8h.html" target="_top" xlink:title="/media/kavonszadkowski\l/work/marsdocs/mars/interfaces\l/src/sim/MarsPluginTemplateGUI.h">
<polygon fill="white" stroke="black" points="476,-0.5 476,-41.5 646,-41.5 646,-0.5 476,-0.5"/>
<text text-anchor="start" x="484" y="-29.5" font-family="Helvetica,sans-Serif" font-size="10.00">/media/kavonszadkowski</text>
<text text-anchor="start" x="484" y="-18.5" font-family="Helvetica,sans-Serif" font-size="10.00">/work/marsdocs/mars/interfaces</text>
<text text-anchor="middle" x="561" y="-7.5" font-family="Helvetica,sans-Serif" font-size="10.00">/src/sim/MarsPluginTemplateGUI.h</text>
</a>
</g>
</g>
<!-- Node4&#45;&gt;Node6 -->
<g id="edge6" class="edge"><title>Node4&#45;&gt;Node6</title>
<path fill="none" stroke="midnightblue" d="M501.397,-71.7785C513.293,-61.8432 526.616,-50.7159 537.645,-41.5056"/>
<polygon fill="midnightblue" stroke="midnightblue" points="498.867,-69.3316 493.435,-78.4281 503.354,-74.7043 498.867,-69.3316"/>
</g>
</g>
</svg>
