<?xml version="1.0" encoding="UTF-8" standalone="no"?>
<!DOCTYPE svg PUBLIC "-//W3C//DTD SVG 1.1//EN"
 "http://www.w3.org/Graphics/SVG/1.1/DTD/svg11.dtd">
<!-- Generated by graphviz version 2.26.3 (20100126.1600)
 -->
<!-- Title: /home/kavonszadkowski/limes&#45;dev/simulation/mars/sim/src/core/SimEntity.h Pages: 1 -->
<svg width="370pt" height="140pt"
 viewBox="0.00 0.00 370.00 140.00" xmlns="http://www.w3.org/2000/svg" xmlns:xlink="http://www.w3.org/1999/xlink">
<g id="graph1" class="graph" transform="scale(1 1) rotate(0) translate(4 136)">
<title>/home/kavonszadkowski/limes&#45;dev/simulation/mars/sim/src/core/SimEntity.h</title>
<polygon fill="white" stroke="white" points="-4,5 -4,-136 367,-136 367,5 -4,5"/>
<!-- Node1 -->
<g id="node1" class="node"><title>Node1</title>
<polygon fill="#bfbfbf" stroke="black" points="110,-84.5 110,-131.5 262,-131.5 262,-84.5 110,-84.5"/>
<text text-anchor="start" x="118" y="-118.5" font-family="Helvetica,sans-Serif" font-size="10.00">/home/kavonszadkowski</text>
<text text-anchor="start" x="118" y="-105.5" font-family="Helvetica,sans-Serif" font-size="10.00">/limes&#45;dev/simulation</text>
<text text-anchor="middle" x="186" y="-92.5" font-family="Helvetica,sans-Serif" font-size="10.00">/mars/sim/src/core/SimEntity.h</text>
</g>
<!-- Node2 -->
<g id="node3" class="node"><title>Node2</title>
<a xlink:href="../../de/db2/_entity_manager_8cpp.html" target="_top" xlink:title="/home/kavonszadkowski\l/limes&#45;dev/simulation\l/mars/sim/src/core/EntityManager.cpp">
<polygon fill="white" stroke="black" points="-0.5,-0.5 -0.5,-47.5 182.5,-47.5 182.5,-0.5 -0.5,-0.5"/>
<text text-anchor="start" x="7.5" y="-34.5" font-family="Helvetica,sans-Serif" font-size="10.00">/home/kavonszadkowski</text>
<text text-anchor="start" x="7.5" y="-21.5" font-family="Helvetica,sans-Serif" font-size="10.00">/limes&#45;dev/simulation</text>
<text text-anchor="middle" x="91" y="-8.5" font-family="Helvetica,sans-Serif" font-size="10.00">/mars/sim/src/core/EntityManager.cpp</text>
</a>
</g>
<!-- Node1&#45;&gt;Node2 -->
<g id="edge2" class="edge"><title>Node1&#45;&gt;Node2</title>
<path fill="none" stroke="midnightblue" d="M151.762,-77.7264C140.602,-67.859 128.381,-57.0529 117.844,-47.736"/>
<polygon fill="midnightblue" stroke="midnightblue" points="149.474,-80.3757 159.284,-84.3778 154.111,-75.1317 149.474,-80.3757"/>
</g>
<!-- Node3 -->
<g id="node5" class="node"><title>Node3</title>
<a xlink:href="../../d2/d7d/_sim_entity_8cpp.html" target="_top" xlink:title="/home/kavonszadkowski\l/limes&#45;dev/simulation\l/mars/sim/src/core/SimEntity.cpp">
<polygon fill="white" stroke="black" points="199.5,-0.5 199.5,-47.5 362.5,-47.5 362.5,-0.5 199.5,-0.5"/>
<text text-anchor="start" x="207.5" y="-34.5" font-family="Helvetica,sans-Serif" font-size="10.00">/home/kavonszadkowski</text>
<text text-anchor="start" x="207.5" y="-21.5" font-family="Helvetica,sans-Serif" font-size="10.00">/limes&#45;dev/simulation</text>
<text text-anchor="middle" x="281" y="-8.5" font-family="Helvetica,sans-Serif" font-size="10.00">/mars/sim/src/core/SimEntity.cpp</text>
</a>
</g>
<!-- Node1&#45;&gt;Node3 -->
<g id="edge4" class="edge"><title>Node1&#45;&gt;Node3</title>
<path fill="none" stroke="midnightblue" d="M220.238,-77.7264C231.398,-67.859 243.619,-57.0529 254.156,-47.736"/>
<polygon fill="midnightblue" stroke="midnightblue" points="217.889,-75.1317 212.716,-84.3778 222.526,-80.3757 217.889,-75.1317"/>
</g>
</g>
</svg>
