<?xml version="1.0" encoding="UTF-8" standalone="no"?>
<!DOCTYPE svg PUBLIC "-//W3C//DTD SVG 1.1//EN"
 "http://www.w3.org/Graphics/SVG/1.1/DTD/svg11.dtd">
<!-- Generated by graphviz version 2.26.3 (20100126.1600)
 -->
<!-- Title: /home/kavonszadkowski/limes&#45;dev/simulation/mars/plugins/mars_plugin_collection/EOBillboards/src/EOBillboards.h Pages: 1 -->
<svg width="372pt" height="154pt"
 viewBox="0.00 0.00 372.00 154.00" xmlns="http://www.w3.org/2000/svg" xmlns:xlink="http://www.w3.org/1999/xlink">
<g id="graph1" class="graph" transform="scale(1 1) rotate(0) translate(4 150)">
<title>/home/kavonszadkowski/limes&#45;dev/simulation/mars/plugins/mars_plugin_collection/EOBillboards/src/EOBillboards.h</title>
<polygon fill="white" stroke="white" points="-4,5 -4,-150 369,-150 369,5 -4,5"/>
<!-- Node1 -->
<g id="node1" class="node"><title>Node1</title>
<polygon fill="#bfbfbf" stroke="black" points="135.5,-72.5 135.5,-145.5 266.5,-145.5 266.5,-72.5 135.5,-72.5"/>
<text text-anchor="start" x="143.5" y="-132.5" font-family="Helvetica,sans-Serif" font-size="10.00">/home/kavonszadkowski</text>
<text text-anchor="start" x="143.5" y="-119.5" font-family="Helvetica,sans-Serif" font-size="10.00">/limes&#45;dev/simulation</text>
<text text-anchor="start" x="143.5" y="-106.5" font-family="Helvetica,sans-Serif" font-size="10.00">/mars/plugins/mars_plugin</text>
<text text-anchor="start" x="143.5" y="-93.5" font-family="Helvetica,sans-Serif" font-size="10.00">_collection/EOBillboards</text>
<text text-anchor="middle" x="201" y="-80.5" font-family="Helvetica,sans-Serif" font-size="10.00">/src/EOBillboards.h</text>
</g>
<!-- Node2 -->
<g id="node3" class="node"><title>Node2</title>
<polygon fill="white" stroke="#bfbfbf" points="-0.5,-1 -0.5,-35 116.5,-35 116.5,-1 -0.5,-1"/>
<text text-anchor="start" x="7.5" y="-22" font-family="Helvetica,sans-Serif" font-size="10.00">mars/interfaces/sim</text>
<text text-anchor="middle" x="58" y="-9" font-family="Helvetica,sans-Serif" font-size="10.00">/MarsPluginTemplate.h</text>
</g>
<!-- Node1&#45;&gt;Node2 -->
<g id="edge2" class="edge"><title>Node1&#45;&gt;Node2</title>
<path fill="none" stroke="midnightblue" d="M143.249,-72.2491C126.401,-61.528 108.495,-50.1334 93.4657,-40.5691"/>
<polygon fill="midnightblue" stroke="midnightblue" points="95.2943,-37.5842 84.9786,-35.1682 91.5361,-43.4898 95.2943,-37.5842"/>
</g>
<!-- Node3 -->
<g id="node5" class="node"><title>Node3</title>
<polygon fill="white" stroke="#bfbfbf" points="134,-1 134,-35 268,-35 268,-1 134,-1"/>
<text text-anchor="start" x="142" y="-22" font-family="Helvetica,sans-Serif" font-size="10.00">mars/data_broker/Receiver</text>
<text text-anchor="middle" x="201" y="-9" font-family="Helvetica,sans-Serif" font-size="10.00">Interface.h</text>
</g>
<!-- Node1&#45;&gt;Node3 -->
<g id="edge4" class="edge"><title>Node1&#45;&gt;Node3</title>
<path fill="none" stroke="midnightblue" d="M201,-72.2491C201,-63.2314 201,-53.7372 201,-45.2564"/>
<polygon fill="midnightblue" stroke="midnightblue" points="204.5,-45.1682 201,-35.1682 197.5,-45.1682 204.5,-45.1682"/>
</g>
<!-- Node4 -->
<g id="node7" class="node"><title>Node4</title>
<polygon fill="white" stroke="#bfbfbf" points="286,-7.5 286,-28.5 364,-28.5 364,-7.5 286,-7.5"/>
<text text-anchor="middle" x="325" y="-15.5" font-family="Helvetica,sans-Serif" font-size="10.00">osg/Geometry</text>
</g>
<!-- Node1&#45;&gt;Node4 -->
<g id="edge6" class="edge"><title>Node1&#45;&gt;Node4</title>
<path fill="none" stroke="midnightblue" d="M251.078,-72.2491C268.89,-59.1772 288.067,-45.1042 302.424,-34.5681"/>
<polygon fill="midnightblue" stroke="midnightblue" points="304.694,-37.2437 310.685,-28.5055 300.552,-31.6003 304.694,-37.2437"/>
</g>
</g>
</svg>
