<?xml version="1.0" encoding="UTF-8" standalone="no"?>
<!DOCTYPE svg PUBLIC "-//W3C//DTD SVG 1.1//EN"
 "http://www.w3.org/Graphics/SVG/1.1/DTD/svg11.dtd">
<!-- Generated by graphviz version 2.26.3 (20100126.1600)
 -->
<!-- Title: /home/kavonszadkowski/limes&#45;dev/simulation/mars/graphics/src/wrapper/OSGLightStruct.h Pages: 1 -->
<svg width="370pt" height="128pt"
 viewBox="0.00 0.00 370.00 128.00" xmlns="http://www.w3.org/2000/svg" xmlns:xlink="http://www.w3.org/1999/xlink">
<g id="graph1" class="graph" transform="scale(1 1) rotate(0) translate(4 124)">
<title>/home/kavonszadkowski/limes&#45;dev/simulation/mars/graphics/src/wrapper/OSGLightStruct.h</title>
<polygon fill="white" stroke="white" points="-4,5 -4,-124 367,-124 367,5 -4,5"/>
<!-- Node1 -->
<g id="node1" class="node"><title>Node1</title>
<polygon fill="#bfbfbf" stroke="black" points="129.5,-59 129.5,-119 264.5,-119 264.5,-59 129.5,-59"/>
<text text-anchor="start" x="137.5" y="-106" font-family="Helvetica,sans-Serif" font-size="10.00">/home/kavonszadkowski</text>
<text text-anchor="start" x="137.5" y="-93" font-family="Helvetica,sans-Serif" font-size="10.00">/limes&#45;dev/simulation</text>
<text text-anchor="start" x="137.5" y="-80" font-family="Helvetica,sans-Serif" font-size="10.00">/mars/graphics/src/wrapper</text>
<text text-anchor="middle" x="197" y="-67" font-family="Helvetica,sans-Serif" font-size="10.00">/OSGLightStruct.h</text>
</g>
<!-- Node2 -->
<g id="node3" class="node"><title>Node2</title>
<polygon fill="white" stroke="#bfbfbf" points="-0.5,-0.5 -0.5,-21.5 136.5,-21.5 136.5,-0.5 -0.5,-0.5"/>
<text text-anchor="middle" x="68" y="-8.5" font-family="Helvetica,sans-Serif" font-size="10.00">mars/interfaces/LightData.h</text>
</g>
<!-- Node1&#45;&gt;Node2 -->
<g id="edge2" class="edge"><title>Node1&#45;&gt;Node2</title>
<path fill="none" stroke="midnightblue" d="M147.125,-58.8432C129.159,-47.9798 109.594,-36.15 94.4146,-26.9716"/>
<polygon fill="midnightblue" stroke="midnightblue" points="95.9516,-23.8109 85.5833,-21.6317 92.3296,-29.801 95.9516,-23.8109"/>
</g>
<!-- Node3 -->
<g id="node5" class="node"><title>Node3</title>
<polygon fill="white" stroke="#bfbfbf" points="153.5,-0.5 153.5,-21.5 240.5,-21.5 240.5,-0.5 153.5,-0.5"/>
<text text-anchor="middle" x="197" y="-8.5" font-family="Helvetica,sans-Serif" font-size="10.00">osg/LightSource</text>
</g>
<!-- Node1&#45;&gt;Node3 -->
<g id="edge4" class="edge"><title>Node1&#45;&gt;Node3</title>
<path fill="none" stroke="midnightblue" d="M197,-58.6198C197,-49.6797 197,-40.1035 197,-31.9002"/>
<polygon fill="midnightblue" stroke="midnightblue" points="200.5,-31.7534 197,-21.7535 193.5,-31.7535 200.5,-31.7534"/>
</g>
<!-- Node4 -->
<g id="node7" class="node"><title>Node4</title>
<polygon fill="white" stroke="#bfbfbf" points="258,-0.5 258,-21.5 362,-21.5 362,-0.5 258,-0.5"/>
<text text-anchor="middle" x="310" y="-8.5" font-family="Helvetica,sans-Serif" font-size="10.00">osg/ShapeDrawable</text>
</g>
<!-- Node1&#45;&gt;Node4 -->
<g id="edge6" class="edge"><title>Node1&#45;&gt;Node4</title>
<path fill="none" stroke="midnightblue" d="M240.689,-58.8432C256.13,-48.1847 272.918,-36.5961 286.105,-27.494"/>
<polygon fill="midnightblue" stroke="midnightblue" points="288.356,-30.1929 294.598,-21.6317 284.38,-24.4321 288.356,-30.1929"/>
</g>
</g>
</svg>
