<?xml version="1.0" encoding="UTF-8" standalone="no"?>
<!DOCTYPE svg PUBLIC "-//W3C//DTD SVG 1.1//EN"
 "http://www.w3.org/Graphics/SVG/1.1/DTD/svg11.dtd">
<!-- Generated by graphviz version 2.26.3 (20100126.1600)
 -->
<!-- Title: /home/kavonszadkowski/limes&#45;dev/simulation/mars/gui/src/SensorHandler.h Pages: 1 -->
<svg width="735pt" height="186pt"
 viewBox="0.00 0.00 735.00 186.00" xmlns="http://www.w3.org/2000/svg" xmlns:xlink="http://www.w3.org/1999/xlink">
<g id="graph1" class="graph" transform="scale(1 1) rotate(0) translate(4 182)">
<title>/home/kavonszadkowski/limes&#45;dev/simulation/mars/gui/src/SensorHandler.h</title>
<polygon fill="white" stroke="white" points="-4,5 -4,-182 732,-182 732,5 -4,5"/>
<!-- Node1 -->
<g id="node1" class="node"><title>Node1</title>
<polygon fill="#bfbfbf" stroke="black" points="273.5,-130.5 273.5,-177.5 422.5,-177.5 422.5,-130.5 273.5,-130.5"/>
<text text-anchor="start" x="281.5" y="-164.5" font-family="Helvetica,sans-Serif" font-size="10.00">/home/kavonszadkowski</text>
<text text-anchor="start" x="281.5" y="-151.5" font-family="Helvetica,sans-Serif" font-size="10.00">/limes&#45;dev/simulation</text>
<text text-anchor="middle" x="348" y="-138.5" font-family="Helvetica,sans-Serif" font-size="10.00">/mars/gui/src/SensorHandler.h</text>
</g>
<!-- Node2 -->
<g id="node3" class="node"><title>Node2</title>
<polygon fill="white" stroke="#bfbfbf" points="0,-65.5 0,-86.5 156,-86.5 156,-65.5 0,-65.5"/>
<text text-anchor="middle" x="78" y="-73.5" font-family="Helvetica,sans-Serif" font-size="10.00">mars/main_gui/PropertyDialog.h</text>
</g>
<!-- Node1&#45;&gt;Node2 -->
<g id="edge2" class="edge"><title>Node1&#45;&gt;Node2</title>
<path fill="none" stroke="midnightblue" d="M273.149,-132.376C225.426,-118.59 165.098,-101.162 124.245,-89.3596"/>
<polygon fill="midnightblue" stroke="midnightblue" points="125.133,-85.9731 114.554,-86.5601 123.19,-92.6981 125.133,-85.9731"/>
</g>
<!-- Node3 -->
<g id="node5" class="node"><title>Node3</title>
<polygon fill="white" stroke="#bfbfbf" points="173.5,-59 173.5,-93 276.5,-93 276.5,-59 173.5,-59"/>
<text text-anchor="start" x="181.5" y="-80" font-family="Helvetica,sans-Serif" font-size="10.00">mars/interfaces/sim</text>
<text text-anchor="middle" x="225" y="-67" font-family="Helvetica,sans-Serif" font-size="10.00">/ControlCenter.h</text>
</g>
<!-- Node1&#45;&gt;Node3 -->
<g id="edge4" class="edge"><title>Node1&#45;&gt;Node3</title>
<path fill="none" stroke="midnightblue" d="M310.762,-130.386C294.922,-120.34 276.523,-108.673 260.839,-98.727"/>
<polygon fill="midnightblue" stroke="midnightblue" points="262.277,-95.4945 251.957,-93.0948 258.528,-101.406 262.277,-95.4945"/>
</g>
<!-- Node4 -->
<g id="node7" class="node"><title>Node4</title>
<polygon fill="white" stroke="#bfbfbf" points="293.5,-59 293.5,-93 402.5,-93 402.5,-59 293.5,-59"/>
<text text-anchor="start" x="301.5" y="-80" font-family="Helvetica,sans-Serif" font-size="10.00">mars/interfaces/core</text>
<text text-anchor="middle" x="348" y="-67" font-family="Helvetica,sans-Serif" font-size="10.00">_objects_exchange.h</text>
</g>
<!-- Node1&#45;&gt;Node4 -->
<g id="edge6" class="edge"><title>Node1&#45;&gt;Node4</title>
<path fill="none" stroke="midnightblue" d="M348,-130.174C348,-121.638 348,-111.952 348,-103.156"/>
<polygon fill="midnightblue" stroke="midnightblue" points="351.5,-103.003 348,-93.003 344.5,-103.003 351.5,-103.003"/>
</g>
<!-- Node5 -->
<g id="node9" class="node"><title>Node5</title>
<polygon fill="white" stroke="#bfbfbf" points="420,-59 420,-93 536,-93 536,-59 420,-59"/>
<text text-anchor="start" x="428" y="-80" font-family="Helvetica,sans-Serif" font-size="10.00">mars/interfaces/sensor</text>
<text text-anchor="middle" x="478" y="-67" font-family="Helvetica,sans-Serif" font-size="10.00">_bases.h</text>
</g>
<!-- Node1&#45;&gt;Node5 -->
<g id="edge8" class="edge"><title>Node1&#45;&gt;Node5</title>
<path fill="none" stroke="midnightblue" d="M387.357,-130.386C404.256,-120.247 423.908,-108.455 440.586,-98.4486"/>
<polygon fill="midnightblue" stroke="midnightblue" points="442.734,-101.241 449.509,-93.0948 439.133,-95.2386 442.734,-101.241"/>
</g>
<!-- Node6 -->
<g id="node11" class="node"><title>Node6</title>
<a xlink:href="../../d6/d43/_selection_dialog_8h.html" target="_top" xlink:title="The SelectionDialog class is used to select a sorted list of objects. ">
<polygon fill="white" stroke="black" points="553.5,-65.5 553.5,-86.5 646.5,-86.5 646.5,-65.5 553.5,-65.5"/>
<text text-anchor="middle" x="600" y="-73.5" font-family="Helvetica,sans-Serif" font-size="10.00">SelectionDialog.h</text>
</a>
</g>
<!-- Node1&#45;&gt;Node6 -->
<g id="edge10" class="edge"><title>Node1&#45;&gt;Node6</title>
<path fill="none" stroke="midnightblue" d="M422.95,-131.57C459.773,-120.448 504.771,-106.708 545,-94 549.32,-92.6353 553.825,-91.1929 558.315,-89.7425"/>
<polygon fill="midnightblue" stroke="midnightblue" points="559.615,-93.0003 568.044,-86.5816 557.452,-86.3428 559.615,-93.0003"/>
</g>
<!-- Node7 -->
<g id="node13" class="node"><title>Node7</title>
<polygon fill="white" stroke="#bfbfbf" points="505,-0.5 505,-21.5 547,-21.5 547,-0.5 505,-0.5"/>
<text text-anchor="middle" x="526" y="-8.5" font-family="Helvetica,sans-Serif" font-size="10.00">QtGui</text>
</g>
<!-- Node6&#45;&gt;Node7 -->
<g id="edge12" class="edge"><title>Node6&#45;&gt;Node7</title>
<path fill="none" stroke="midnightblue" d="M587.78,-65.2666C576.358,-55.2334 559.104,-40.078 545.731,-28.3311"/>
<polygon fill="midnightblue" stroke="midnightblue" points="547.815,-25.5035 537.992,-21.5337 543.196,-30.7628 547.815,-25.5035"/>
</g>
<!-- Node8 -->
<g id="node15" class="node"><title>Node8</title>
<polygon fill="white" stroke="#bfbfbf" points="564.5,-0.5 564.5,-21.5 635.5,-21.5 635.5,-0.5 564.5,-0.5"/>
<text text-anchor="middle" x="600" y="-8.5" font-family="Helvetica,sans-Serif" font-size="10.00">QListWidget</text>
</g>
<!-- Node6&#45;&gt;Node8 -->
<g id="edge14" class="edge"><title>Node6&#45;&gt;Node8</title>
<path fill="none" stroke="midnightblue" d="M600,-65.2666C600,-56.1799 600,-42.8919 600,-31.7395"/>
<polygon fill="midnightblue" stroke="midnightblue" points="603.5,-31.5337 600,-21.5337 596.5,-31.5337 603.5,-31.5337"/>
</g>
<!-- Node9 -->
<g id="node17" class="node"><title>Node9</title>
<polygon fill="white" stroke="#bfbfbf" points="652.5,-0.5 652.5,-21.5 727.5,-21.5 727.5,-0.5 652.5,-0.5"/>
<text text-anchor="middle" x="690" y="-8.5" font-family="Helvetica,sans-Serif" font-size="10.00">QPushButton</text>
</g>
<!-- Node6&#45;&gt;Node9 -->
<g id="edge16" class="edge"><title>Node6&#45;&gt;Node9</title>
<path fill="none" stroke="midnightblue" d="M614.862,-65.2666C629.016,-55.0441 650.533,-39.5043 666.919,-27.6699"/>
<polygon fill="midnightblue" stroke="midnightblue" points="669.357,-30.226 675.415,-21.5337 665.259,-24.5513 669.357,-30.226"/>
</g>
</g>
</svg>
