<?xml version="1.0" encoding="UTF-8" standalone="no"?>
<!DOCTYPE svg PUBLIC "-//W3C//DTD SVG 1.1//EN"
 "http://www.w3.org/Graphics/SVG/1.1/DTD/svg11.dtd">
<!-- Generated by graphviz version 2.36.0 (20140111.2315)
 -->
<!-- Title: mars::graphics::QtOsgMixGraphicsWidget Pages: 1 -->
<svg width="922pt" height="872pt"
 viewBox="0.00 0.00 922.00 871.62" xmlns="http://www.w3.org/2000/svg" xmlns:xlink="http://www.w3.org/1999/xlink">
<g id="graph0" class="graph" transform="scale(1 1) rotate(0) translate(4 867.615)">
<title>mars::graphics::QtOsgMixGraphicsWidget</title>
<polygon fill="white" stroke="none" points="-4,4 -4,-867.615 918,-867.615 918,4 -4,4"/>
<!-- Node1 -->
<g id="node1" class="node"><title>Node1</title>
<polygon fill="#bfbfbf" stroke="black" points="782.5,-747.615 782.5,-777.615 913.5,-777.615 913.5,-747.615 782.5,-747.615"/>
<text text-anchor="start" x="790.5" y="-765.615" font-family="Helvetica,sans-Serif" font-size="10.00">mars::graphics::QtOsgMix</text>
<text text-anchor="middle" x="848" y="-754.615" font-family="Helvetica,sans-Serif" font-size="10.00">GraphicsWidget</text>
</g>
<!-- Node2 -->
<g id="node2" class="node"><title>Node2</title>
<polygon fill="white" stroke="#bfbfbf" points="570.5,-766.115 570.5,-785.115 625.5,-785.115 625.5,-766.115 570.5,-766.115"/>
<text text-anchor="middle" x="598" y="-773.115" font-family="Helvetica,sans-Serif" font-size="10.00">QWidget</text>
</g>
<!-- Node2&#45;&gt;Node1 -->
<g id="edge1" class="edge"><title>Node2&#45;&gt;Node1</title>
<path fill="none" stroke="midnightblue" d="M635.774,-773.688C674.309,-771.668 735.615,-768.454 782.276,-766.008"/>
<polygon fill="midnightblue" stroke="midnightblue" points="635.343,-770.205 625.54,-774.224 635.71,-777.196 635.343,-770.205"/>
</g>
<!-- Node3 -->
<g id="node3" class="node"><title>Node3</title>
<g id="a_node3"><a xlink:href="../../d2/d46/classmars_1_1graphics_1_1_graphics_widget.html" target="_top" xlink:title="Widget with OpenGL context and event handling. ">
<polygon fill="white" stroke="black" points="535,-698.615 535,-728.615 661,-728.615 661,-698.615 535,-698.615"/>
<text text-anchor="start" x="543" y="-716.615" font-family="Helvetica,sans-Serif" font-size="10.00">mars::graphics::Graphics</text>
<text text-anchor="middle" x="598" y="-705.615" font-family="Helvetica,sans-Serif" font-size="10.00">Widget</text>
</a>
</g>
</g>
<!-- Node3&#45;&gt;Node1 -->
<g id="edge2" class="edge"><title>Node3&#45;&gt;Node1</title>
<path fill="none" stroke="midnightblue" d="M663.742,-731.077C671.883,-733.056 680.117,-734.956 688,-736.615 718.792,-743.098 753.227,-748.904 782.156,-753.376"/>
<polygon fill="midnightblue" stroke="midnightblue" points="664.437,-727.643 653.888,-728.632 662.752,-734.437 664.437,-727.643"/>
</g>
<!-- Node13 -->
<g id="node13" class="node"><title>Node13</title>
<g id="a_node13"><a xlink:href="../../dd/d00/classmars_1_1graphics_1_1_graphics_manager.html" target="_top" xlink:title="mars::graphics::Graphics\lManager">
<polygon fill="white" stroke="black" points="785,-423.615 785,-453.615 911,-453.615 911,-423.615 785,-423.615"/>
<text text-anchor="start" x="793" y="-441.615" font-family="Helvetica,sans-Serif" font-size="10.00">mars::graphics::Graphics</text>
<text text-anchor="middle" x="848" y="-430.615" font-family="Helvetica,sans-Serif" font-size="10.00">Manager</text>
</a>
</g>
</g>
<!-- Node3&#45;&gt;Node13 -->
<g id="edge17" class="edge"><title>Node3&#45;&gt;Node13</title>
<path fill="none" stroke="#9a32cd" stroke-dasharray="5,2" d="M671.665,-711.422C709.131,-708.852 749.878,-703.346 764,-691.615 838.851,-629.437 846.725,-498.454 847.16,-453.858"/>
<polygon fill="#9a32cd" stroke="#9a32cd" points="670.974,-707.958 661.21,-712.072 671.408,-714.945 670.974,-707.958"/>
<text text-anchor="middle" x="726" y="-724.615" font-family="Helvetica,sans-Serif" font-size="10.00"> activeWindow</text>
<text text-anchor="middle" x="726" y="-713.615" font-family="Helvetica,sans-Serif" font-size="10.00">osgWidget</text>
</g>
<!-- Node4 -->
<g id="node4" class="node"><title>Node4</title>
<polygon fill="white" stroke="#bfbfbf" points="232,-844.115 232,-863.115 362,-863.115 362,-844.115 232,-844.115"/>
<text text-anchor="middle" x="297" y="-851.115" font-family="Helvetica,sans-Serif" font-size="10.00">osgGA::GUIEventHandler</text>
</g>
<!-- Node4&#45;&gt;Node3 -->
<g id="edge3" class="edge"><title>Node4&#45;&gt;Node3</title>
<path fill="none" stroke="midnightblue" d="M350.505,-841.519C359.726,-839.102 369.187,-836.432 378,-833.615 437.117,-814.716 459.335,-821.135 508,-782.615 519.02,-773.892 515.764,-766.246 526,-756.615 537.755,-745.556 552.815,-735.943 566.037,-728.628"/>
<polygon fill="midnightblue" stroke="midnightblue" points="349.46,-838.173 340.636,-844.037 351.191,-844.956 349.46,-838.173"/>
</g>
<!-- Node5 -->
<g id="node5" class="node"><title>Node5</title>
<g id="a_node5"><a xlink:href="../../d9/d3b/classmars_1_1interfaces_1_1_graphics_window_interface.html" target="_top" xlink:title="mars::interfaces::Graphics\lWindowInterface">
<polygon fill="white" stroke="black" points="231,-794.615 231,-824.615 363,-824.615 363,-794.615 231,-794.615"/>
<text text-anchor="start" x="239" y="-812.615" font-family="Helvetica,sans-Serif" font-size="10.00">mars::interfaces::Graphics</text>
<text text-anchor="middle" x="297" y="-801.615" font-family="Helvetica,sans-Serif" font-size="10.00">WindowInterface</text>
</a>
</g>
</g>
<!-- Node5&#45;&gt;Node3 -->
<g id="edge4" class="edge"><title>Node5&#45;&gt;Node3</title>
<path fill="none" stroke="midnightblue" d="M371.009,-792.02C411.735,-781.566 463.144,-767.306 508,-751.615 527.03,-744.958 547.775,-736.193 564.446,-728.758"/>
<polygon fill="midnightblue" stroke="midnightblue" points="369.99,-788.667 361.163,-794.526 371.717,-795.451 369.99,-788.667"/>
</g>
<!-- Node6 -->
<g id="node6" class="node"><title>Node6</title>
<g id="a_node6"><a xlink:href="../../d5/d0e/classmars_1_1interfaces_1_1_graphics_gui_interface.html" target="_top" xlink:title="Interface for the osgWidget functionality. ">
<polygon fill="white" stroke="black" points="231,-745.615 231,-775.615 363,-775.615 363,-745.615 231,-745.615"/>
<text text-anchor="start" x="239" y="-763.615" font-family="Helvetica,sans-Serif" font-size="10.00">mars::interfaces::Graphics</text>
<text text-anchor="middle" x="297" y="-752.615" font-family="Helvetica,sans-Serif" font-size="10.00">GuiInterface</text>
</a>
</g>
</g>
<!-- Node6&#45;&gt;Node3 -->
<g id="edge5" class="edge"><title>Node6&#45;&gt;Node3</title>
<path fill="none" stroke="midnightblue" d="M373.265,-749.44C413.302,-743.421 463.354,-735.779 508,-728.615 516.664,-727.225 525.796,-725.725 534.777,-724.231"/>
<polygon fill="midnightblue" stroke="midnightblue" points="372.68,-745.988 363.311,-750.934 373.719,-752.911 372.68,-745.988"/>
</g>
<!-- Node7 -->
<g id="node7" class="node"><title>Node7</title>
<g id="a_node7"><a xlink:href="../../d7/dc9/classmars_1_1graphics_1_1_post_draw_callback.html" target="_top" xlink:title="mars::graphics::PostDraw\lCallback">
<polygon fill="white" stroke="black" points="231.5,-696.615 231.5,-726.615 362.5,-726.615 362.5,-696.615 231.5,-696.615"/>
<text text-anchor="start" x="239.5" y="-714.615" font-family="Helvetica,sans-Serif" font-size="10.00">mars::graphics::PostDraw</text>
<text text-anchor="middle" x="297" y="-703.615" font-family="Helvetica,sans-Serif" font-size="10.00">Callback</text>
</a>
</g>
</g>
<!-- Node7&#45;&gt;Node3 -->
<g id="edge6" class="edge"><title>Node7&#45;&gt;Node3</title>
<path fill="none" stroke="#9a32cd" stroke-dasharray="5,2" d="M372.622,-712.114C422.637,-712.449 487.724,-712.884 534.908,-713.2"/>
<polygon fill="#9a32cd" stroke="#9a32cd" points="372.534,-708.614 362.51,-712.047 372.487,-715.614 372.534,-708.614"/>
<text text-anchor="middle" x="452" y="-716.615" font-family="Helvetica,sans-Serif" font-size="10.00"> postDrawCallback</text>
</g>
<!-- Node8 -->
<g id="node8" class="node"><title>Node8</title>
<polygon fill="white" stroke="#bfbfbf" points="9.5,-718.615 9.5,-748.615 122.5,-748.615 122.5,-718.615 9.5,-718.615"/>
<text text-anchor="start" x="17.5" y="-736.615" font-family="Helvetica,sans-Serif" font-size="10.00">osg::Camera::Camera</text>
<text text-anchor="middle" x="66" y="-725.615" font-family="Helvetica,sans-Serif" font-size="10.00">::DrawCallback</text>
</g>
<!-- Node8&#45;&gt;Node7 -->
<g id="edge7" class="edge"><title>Node8&#45;&gt;Node7</title>
<path fill="none" stroke="midnightblue" d="M132.987,-727.276C163.95,-724.301 200.718,-720.769 231.492,-717.813"/>
<polygon fill="midnightblue" stroke="midnightblue" points="132.346,-723.821 122.727,-728.262 133.016,-730.789 132.346,-723.821"/>
</g>
<!-- Node9 -->
<g id="node9" class="node"><title>Node9</title>
<g id="a_node9"><a xlink:href="../../d7/d67/classmars_1_1graphics_1_1_graphics_camera.html" target="_top" xlink:title="mars::graphics::Graphics\lCamera">
<polygon fill="white" stroke="black" points="234,-647.615 234,-677.615 360,-677.615 360,-647.615 234,-647.615"/>
<text text-anchor="start" x="242" y="-665.615" font-family="Helvetica,sans-Serif" font-size="10.00">mars::graphics::Graphics</text>
<text text-anchor="middle" x="297" y="-654.615" font-family="Helvetica,sans-Serif" font-size="10.00">Camera</text>
</a>
</g>
</g>
<!-- Node9&#45;&gt;Node3 -->
<g id="edge8" class="edge"><title>Node9&#45;&gt;Node3</title>
<path fill="none" stroke="#9a32cd" stroke-dasharray="5,2" d="M370.119,-674.402C410.657,-681.086 462.172,-689.677 508,-697.615 516.663,-699.116 525.794,-700.725 534.775,-702.325"/>
<polygon fill="#9a32cd" stroke="#9a32cd" points="370.496,-670.917 360.06,-672.746 369.358,-677.824 370.496,-670.917"/>
<text text-anchor="middle" x="452" y="-700.615" font-family="Helvetica,sans-Serif" font-size="10.00"> graphicsCamera</text>
</g>
<!-- Node10 -->
<g id="node10" class="node"><title>Node10</title>
<g id="a_node10"><a xlink:href="../../db/dc3/classmars_1_1interfaces_1_1_graphics_camera_interface.html" target="_top" xlink:title="mars::interfaces::Graphics\lCameraInterface">
<polygon fill="white" stroke="black" points="0,-669.615 0,-699.615 132,-699.615 132,-669.615 0,-669.615"/>
<text text-anchor="start" x="8" y="-687.615" font-family="Helvetica,sans-Serif" font-size="10.00">mars::interfaces::Graphics</text>
<text text-anchor="middle" x="66" y="-676.615" font-family="Helvetica,sans-Serif" font-size="10.00">CameraInterface</text>
</a>
</g>
</g>
<!-- Node10&#45;&gt;Node9 -->
<g id="edge9" class="edge"><title>Node10&#45;&gt;Node9</title>
<path fill="none" stroke="midnightblue" d="M142.332,-677.378C172.031,-674.525 205.727,-671.288 233.982,-668.573"/>
<polygon fill="midnightblue" stroke="midnightblue" points="141.629,-673.929 132.01,-678.37 142.299,-680.897 141.629,-673.929"/>
</g>
<!-- Node11 -->
<g id="node11" class="node"><title>Node11</title>
<g id="a_node11"><a xlink:href="../../d1/de0/structmars_1_1interfaces_1_1local__settings.html" target="_top" xlink:title="mars::interfaces::local\l_settings">
<polygon fill="white" stroke="black" points="9.5,-620.615 9.5,-650.615 122.5,-650.615 122.5,-620.615 9.5,-620.615"/>
<text text-anchor="start" x="17.5" y="-638.615" font-family="Helvetica,sans-Serif" font-size="10.00">mars::interfaces::local</text>
<text text-anchor="middle" x="66" y="-627.615" font-family="Helvetica,sans-Serif" font-size="10.00">_settings</text>
</a>
</g>
</g>
<!-- Node11&#45;&gt;Node9 -->
<g id="edge10" class="edge"><title>Node11&#45;&gt;Node9</title>
<path fill="none" stroke="#9a32cd" stroke-dasharray="5,2" d="M132.828,-643.377C164.656,-647.129 202.65,-651.609 233.964,-655.301"/>
<polygon fill="#9a32cd" stroke="#9a32cd" points="133.068,-639.881 122.727,-642.186 132.248,-646.833 133.068,-639.881"/>
<text text-anchor="middle" x="174" y="-654.615" font-family="Helvetica,sans-Serif" font-size="10.00"> l_settings</text>
</g>
<!-- Node12 -->
<g id="node12" class="node"><title>Node12</title>
<polygon fill="white" stroke="#bfbfbf" points="45.5,-545.115 45.5,-564.115 86.5,-564.115 86.5,-545.115 45.5,-545.115"/>
<text text-anchor="middle" x="66" y="-552.115" font-family="Helvetica,sans-Serif" font-size="10.00">string</text>
</g>
<!-- Node12&#45;&gt;Node3 -->
<g id="edge11" class="edge"><title>Node12&#45;&gt;Node3</title>
<path fill="none" stroke="#9a32cd" stroke-dasharray="5,2" d="M96.7751,-556.936C194.549,-564.613 500.007,-589.072 508,-595.615 529.542,-613.251 510.542,-632.46 526,-655.615 537.754,-673.221 556.458,-688.188 571.719,-698.507"/>
<polygon fill="#9a32cd" stroke="#9a32cd" points="96.9243,-553.437 86.6814,-556.145 96.3775,-560.416 96.9243,-553.437"/>
<text text-anchor="middle" x="297" y="-583.615" font-family="Helvetica,sans-Serif" font-size="10.00"> name</text>
</g>
<!-- Node19 -->
<g id="node19" class="node"><title>Node19</title>
<g id="a_node19"><a xlink:href="../../d4/d71/classmars_1_1interfaces_1_1_light_data.html" target="_top" xlink:title="LightData is a struct to exchange light information between the Dialog_Add_Light, the MainWindow and ...">
<polygon fill="white" stroke="black" points="229.5,-519.115 229.5,-538.115 364.5,-538.115 364.5,-519.115 229.5,-519.115"/>
<text text-anchor="middle" x="297" y="-526.115" font-family="Helvetica,sans-Serif" font-size="10.00">mars::interfaces::LightData</text>
</a>
</g>
</g>
<!-- Node12&#45;&gt;Node19 -->
<g id="edge20" class="edge"><title>Node12&#45;&gt;Node19</title>
<path fill="none" stroke="#9a32cd" stroke-dasharray="5,2" d="M96.8713,-547.942C112.604,-544.66 132.264,-540.923 150,-538.615 175.824,-535.255 204.374,-532.982 229.328,-531.465"/>
<polygon fill="#9a32cd" stroke="#9a32cd" points="95.7275,-544.607 86.6788,-550.119 97.1893,-551.453 95.7275,-544.607"/>
<text text-anchor="middle" x="174" y="-552.615" font-family="Helvetica,sans-Serif" font-size="10.00"> node</text>
<text text-anchor="middle" x="174" y="-541.615" font-family="Helvetica,sans-Serif" font-size="10.00">name</text>
</g>
<!-- Node21 -->
<g id="node21" class="node"><title>Node21</title>
<g id="a_node21"><a xlink:href="../../dc/dc3/structmars_1_1cfg__manager_1_1cfg_property_struct.html" target="_top" xlink:title="mars::cfg_manager::\lcfgPropertyStruct">
<polygon fill="white" stroke="black" points="243.5,-356.615 243.5,-386.615 350.5,-386.615 350.5,-356.615 243.5,-356.615"/>
<text text-anchor="start" x="251.5" y="-374.615" font-family="Helvetica,sans-Serif" font-size="10.00">mars::cfg_manager::</text>
<text text-anchor="middle" x="297" y="-363.615" font-family="Helvetica,sans-Serif" font-size="10.00">cfgPropertyStruct</text>
</a>
</g>
</g>
<!-- Node12&#45;&gt;Node21 -->
<g id="edge23" class="edge"><title>Node12&#45;&gt;Node21</title>
<path fill="none" stroke="#9a32cd" stroke-dasharray="5,2" d="M85.7075,-537.927C113.539,-513.301 167.754,-466.099 216,-428.615 235.123,-413.758 257.646,-397.845 273.913,-386.619"/>
<polygon fill="#9a32cd" stroke="#9a32cd" points="83.1092,-535.553 77.9532,-544.809 87.7557,-540.789 83.1092,-535.553"/>
<text text-anchor="middle" x="174" y="-482.615" font-family="Helvetica,sans-Serif" font-size="10.00"> sValue</text>
</g>
<!-- Node24 -->
<g id="node24" class="node"><title>Node24</title>
<g id="a_node24"><a xlink:href="../../dc/d0d/structmars_1_1interfaces_1_1core__objects__exchange.html" target="_top" xlink:title="core_objects_exchange is a struct to exchange core objects information between the modules of the sim...">
<polygon fill="white" stroke="black" points="396,-605.615 396,-635.615 508,-635.615 508,-605.615 396,-605.615"/>
<text text-anchor="start" x="404" y="-623.615" font-family="Helvetica,sans-Serif" font-size="10.00">mars::interfaces::core</text>
<text text-anchor="middle" x="452" y="-612.615" font-family="Helvetica,sans-Serif" font-size="10.00">_objects_exchange</text>
</a>
</g>
</g>
<!-- Node12&#45;&gt;Node24 -->
<g id="edge29" class="edge"><title>Node12&#45;&gt;Node24</title>
<path fill="none" stroke="#9a32cd" stroke-dasharray="5,2" d="M95.1154,-568.461C110.881,-575.625 131.121,-583.848 150,-588.615 234.071,-609.845 334.811,-617.002 395.807,-619.407"/>
<polygon fill="#9a32cd" stroke="#9a32cd" points="96.4714,-565.231 85.9291,-564.177 93.5129,-571.576 96.4714,-565.231"/>
<text text-anchor="middle" x="174" y="-602.615" font-family="Helvetica,sans-Serif" font-size="10.00"> name</text>
</g>
<!-- Node13&#45;&gt;Node3 -->
<g id="edge12" class="edge"><title>Node13&#45;&gt;Node3</title>
<path fill="none" stroke="#9a32cd" stroke-dasharray="5,2" d="M844.581,-464.043C838.893,-509.484 820.554,-604.803 764,-657.615 738.207,-681.702 721.449,-669.364 688,-680.615 671.6,-686.132 653.68,-692.674 638.247,-698.474"/>
<polygon fill="#9a32cd" stroke="#9a32cd" points="848.085,-464.205 845.744,-453.872 841.13,-463.41 848.085,-464.205"/>
<text text-anchor="middle" x="726" y="-683.615" font-family="Helvetica,sans-Serif" font-size="10.00"> gm</text>
</g>
<!-- Node14 -->
<g id="node14" class="node"><title>Node14</title>
<g id="a_node14"><a xlink:href="../../d1/d93/classmars_1_1interfaces_1_1_graphics_manager_interface.html" target="_top" xlink:title="mars::interfaces::Graphics\lManagerInterface">
<polygon fill="white" stroke="black" points="231,-2.61523 231,-32.6152 363,-32.6152 363,-2.61523 231,-2.61523"/>
<text text-anchor="start" x="239" y="-20.6152" font-family="Helvetica,sans-Serif" font-size="10.00">mars::interfaces::Graphics</text>
<text text-anchor="middle" x="297" y="-9.61523" font-family="Helvetica,sans-Serif" font-size="10.00">ManagerInterface</text>
</a>
</g>
</g>
<!-- Node14&#45;&gt;Node13 -->
<g id="edge13" class="edge"><title>Node14&#45;&gt;Node13</title>
<path fill="none" stroke="midnightblue" d="M373.322,-5.75134C476.511,5.82963 660.764,9.01596 764,-93.6152 812.167,-141.5 838.935,-362.847 845.433,-423.315"/>
<polygon fill="midnightblue" stroke="midnightblue" points="372.811,-2.28721 363.289,-6.9326 373.63,-9.23919 372.811,-2.28721"/>
</g>
<!-- Node25 -->
<g id="node25" class="node"><title>Node25</title>
<g id="a_node25"><a xlink:href="../../d8/d13/classmars_1_1graphics_1_1_gui_helper.html" target="_top" xlink:title="mars::graphics::GuiHelper">
<polygon fill="white" stroke="black" points="532.5,-94.1152 532.5,-113.115 663.5,-113.115 663.5,-94.1152 532.5,-94.1152"/>
<text text-anchor="middle" x="598" y="-101.115" font-family="Helvetica,sans-Serif" font-size="10.00">mars::graphics::GuiHelper</text>
</a>
</g>
</g>
<!-- Node14&#45;&gt;Node25 -->
<g id="edge33" class="edge"><title>Node14&#45;&gt;Node25</title>
<path fill="none" stroke="#9a32cd" stroke-dasharray="5,2" d="M373.202,-31.405C413.629,-39.6655 464.062,-51.3406 508,-65.6152 532.447,-73.5577 559.463,-85.5798 577.244,-93.9681"/>
<polygon fill="#9a32cd" stroke="#9a32cd" points="373.643,-27.9237 363.149,-29.3789 372.26,-34.7857 373.643,-27.9237"/>
<text text-anchor="middle" x="452" y="-68.6152" font-family="Helvetica,sans-Serif" font-size="10.00"> gi</text>
</g>
<!-- Node15 -->
<g id="node15" class="node"><title>Node15</title>
<polygon fill="white" stroke="#bfbfbf" points="32,-155.115 32,-174.115 100,-174.115 100,-155.115 32,-155.115"/>
<text text-anchor="middle" x="66" y="-162.115" font-family="Helvetica,sans-Serif" font-size="10.00">LibInterface</text>
</g>
<!-- Node15&#45;&gt;Node14 -->
<g id="edge14" class="edge"><title>Node15&#45;&gt;Node14</title>
<path fill="none" stroke="midnightblue" d="M82.8241,-147.789C108.425,-121.503 161.574,-70.6996 216,-41.6152 222.267,-38.2665 229.065,-35.3204 235.962,-32.7455"/>
<polygon fill="midnightblue" stroke="midnightblue" points="80.1963,-145.473 75.7926,-155.109 85.2444,-150.322 80.1963,-145.473"/>
</g>
<!-- Node22 -->
<g id="node22" class="node"><title>Node22</title>
<g id="a_node22"><a xlink:href="../../d4/da6/classmars_1_1cfg__manager_1_1_c_f_g_manager_interface.html" target="_top" xlink:title="mars::cfg_manager::\lCFGManagerInterface">
<polygon fill="white" stroke="black" points="240.5,-149.615 240.5,-179.615 353.5,-179.615 353.5,-149.615 240.5,-149.615"/>
<text text-anchor="start" x="248.5" y="-167.615" font-family="Helvetica,sans-Serif" font-size="10.00">mars::cfg_manager::</text>
<text text-anchor="middle" x="297" y="-156.615" font-family="Helvetica,sans-Serif" font-size="10.00">CFGManagerInterface</text>
</a>
</g>
</g>
<!-- Node15&#45;&gt;Node22 -->
<g id="edge25" class="edge"><title>Node15&#45;&gt;Node22</title>
<path fill="none" stroke="midnightblue" d="M110.686,-164.615C147.439,-164.615 200.218,-164.615 240.057,-164.615"/>
<polygon fill="midnightblue" stroke="midnightblue" points="110.299,-161.115 100.299,-164.615 110.299,-168.115 110.299,-161.115"/>
</g>
<!-- Node28 -->
<g id="node28" class="node"><title>Node28</title>
<g id="a_node28"><a xlink:href="../../d4/d2e/classosg__material__manager_1_1_osg_material_manager.html" target="_top" xlink:title="osg_material_manager\l::OsgMaterialManager">
<polygon fill="white" stroke="black" points="540.5,-297.615 540.5,-327.615 655.5,-327.615 655.5,-297.615 540.5,-297.615"/>
<text text-anchor="start" x="548.5" y="-315.615" font-family="Helvetica,sans-Serif" font-size="10.00">osg_material_manager</text>
<text text-anchor="middle" x="598" y="-304.615" font-family="Helvetica,sans-Serif" font-size="10.00">::OsgMaterialManager</text>
</a>
</g>
</g>
<!-- Node15&#45;&gt;Node28 -->
<g id="edge36" class="edge"><title>Node15&#45;&gt;Node28</title>
<path fill="none" stroke="midnightblue" d="M110.076,-172.022C122.914,-174.191 137.02,-176.537 150,-178.615 179.295,-183.305 186.594,-184.677 216,-188.615 248.375,-192.951 482.968,-201.632 508,-222.615 529.336,-240.5 507.408,-261.892 526,-282.615 531.451,-288.691 538.336,-293.575 545.661,-297.49"/>
<polygon fill="midnightblue" stroke="midnightblue" points="110.542,-168.551 100.098,-170.328 109.371,-175.452 110.542,-168.551"/>
</g>
<!-- Node16 -->
<g id="node16" class="node"><title>Node16</title>
<g id="a_node16"><a xlink:href="../../d7/d0b/classmars_1_1interfaces_1_1_graphics_event_interface.html" target="_top" xlink:title="mars::interfaces::Graphics\lEventInterface">
<polygon fill="white" stroke="black" points="532,-580.615 532,-610.615 664,-610.615 664,-580.615 532,-580.615"/>
<text text-anchor="start" x="540" y="-598.615" font-family="Helvetica,sans-Serif" font-size="10.00">mars::interfaces::Graphics</text>
<text text-anchor="middle" x="598" y="-587.615" font-family="Helvetica,sans-Serif" font-size="10.00">EventInterface</text>
</a>
</g>
</g>
<!-- Node16&#45;&gt;Node13 -->
<g id="edge15" class="edge"><title>Node16&#45;&gt;Node13</title>
<path fill="none" stroke="midnightblue" d="M674.181,-594.021C704.167,-590.332 737.727,-582.093 764,-564.615 805.438,-537.049 831.087,-480.995 841.557,-453.925"/>
<polygon fill="midnightblue" stroke="midnightblue" points="673.731,-590.549 664.165,-595.104 674.484,-597.509 673.731,-590.549"/>
</g>
<!-- Node17 -->
<g id="node17" class="node"><title>Node17</title>
<g id="a_node17"><a xlink:href="../../d4/d1a/classmars_1_1cfg__manager_1_1_c_f_g_client.html" target="_top" xlink:title="mars::cfg_manager::\lCFGClient">
<polygon fill="white" stroke="black" points="243.5,-438.615 243.5,-468.615 350.5,-468.615 350.5,-438.615 243.5,-438.615"/>
<text text-anchor="start" x="251.5" y="-456.615" font-family="Helvetica,sans-Serif" font-size="10.00">mars::cfg_manager::</text>
<text text-anchor="middle" x="297" y="-445.615" font-family="Helvetica,sans-Serif" font-size="10.00">CFGClient</text>
</a>
</g>
</g>
<!-- Node17&#45;&gt;Node13 -->
<g id="edge16" class="edge"><title>Node17&#45;&gt;Node13</title>
<path fill="none" stroke="midnightblue" d="M360.633,-468.695C434.726,-484.451 561.697,-504.907 670,-489.615 718.131,-482.819 771.506,-466.114 806.93,-453.663"/>
<polygon fill="midnightblue" stroke="midnightblue" points="361.051,-465.204 350.536,-466.507 359.568,-472.045 361.051,-465.204"/>
</g>
<!-- Node17&#45;&gt;Node28 -->
<g id="edge37" class="edge"><title>Node17&#45;&gt;Node28</title>
<path fill="none" stroke="midnightblue" d="M356.396,-435.155C400.439,-419.6 461.075,-394.599 508,-361.615 517.517,-354.926 516.44,-349.242 526,-342.615 534.358,-336.822 544.012,-331.824 553.454,-327.66"/>
<polygon fill="midnightblue" stroke="midnightblue" points="354.999,-431.934 346.7,-438.521 357.295,-438.547 354.999,-431.934"/>
</g>
<!-- Node18 -->
<g id="node18" class="node"><title>Node18</title>
<g id="a_node18"><a xlink:href="../../d9/da6/structmars_1_1graphics_1_1lightmanager.html" target="_top" xlink:title="internal struct to manage lights ">
<polygon fill="white" stroke="black" points="526.5,-542.115 526.5,-561.115 669.5,-561.115 669.5,-542.115 526.5,-542.115"/>
<text text-anchor="middle" x="598" y="-549.115" font-family="Helvetica,sans-Serif" font-size="10.00">mars::graphics::lightmanager</text>
</a>
</g>
</g>
<!-- Node18&#45;&gt;Node13 -->
<g id="edge18" class="edge"><title>Node18&#45;&gt;Node13</title>
<path fill="none" stroke="#9a32cd" stroke-dasharray="5,2" d="M679.78,-550.676C707.723,-547.609 738.42,-541.009 764,-527.615 797.13,-510.268 824.125,-474.363 837.631,-453.855"/>
<polygon fill="#9a32cd" stroke="#9a32cd" points="679.244,-547.211 669.625,-551.652 679.914,-554.179 679.244,-547.211"/>
<text text-anchor="middle" x="726" y="-552.615" font-family="Helvetica,sans-Serif" font-size="10.00"> defaultLight</text>
</g>
<!-- Node19&#45;&gt;Node18 -->
<g id="edge19" class="edge"><title>Node19&#45;&gt;Node18</title>
<path fill="none" stroke="#9a32cd" stroke-dasharray="5,2" d="M374.8,-534.523C421.515,-538.116 480.748,-542.673 526.308,-546.177"/>
<polygon fill="#9a32cd" stroke="#9a32cd" points="374.968,-531.026 364.729,-533.748 374.431,-538.005 374.968,-531.026"/>
<text text-anchor="middle" x="452" y="-547.615" font-family="Helvetica,sans-Serif" font-size="10.00"> lStruct</text>
</g>
<!-- Node20 -->
<g id="node20" class="node"><title>Node20</title>
<g id="a_node20"><a xlink:href="../../d4/d7c/classmars_1_1utils_1_1_color.html" target="_top" xlink:title="mars::utils::Color">
<polygon fill="white" stroke="black" points="20,-297.115 20,-316.115 112,-316.115 112,-297.115 20,-297.115"/>
<text text-anchor="middle" x="66" y="-304.115" font-family="Helvetica,sans-Serif" font-size="10.00">mars::utils::Color</text>
</a>
</g>
</g>
<!-- Node20&#45;&gt;Node19 -->
<g id="edge21" class="edge"><title>Node20&#45;&gt;Node19</title>
<path fill="none" stroke="#9a32cd" stroke-dasharray="5,2" d="M95.4004,-321.298C125.427,-338.29 171.971,-369.077 198,-408.615 215.427,-435.087 197.348,-451.992 216,-477.615 230.056,-496.924 253.854,-510.722 271.849,-519.056"/>
<polygon fill="#9a32cd" stroke="#9a32cd" points="96.7265,-318.033 86.279,-316.273 93.3484,-324.164 96.7265,-318.033"/>
<text text-anchor="middle" x="174" y="-433.615" font-family="Helvetica,sans-Serif" font-size="10.00"> ambient</text>
<text text-anchor="middle" x="174" y="-422.615" font-family="Helvetica,sans-Serif" font-size="10.00">diffuse</text>
<text text-anchor="middle" x="174" y="-411.615" font-family="Helvetica,sans-Serif" font-size="10.00">specular</text>
</g>
<!-- Node23 -->
<g id="node23" class="node"><title>Node23</title>
<g id="a_node23"><a xlink:href="../../da/d84/classmars_1_1interfaces_1_1_graphic_data.html" target="_top" xlink:title="mars::interfaces::GraphicData">
<polygon fill="white" stroke="black" points="223,-252.115 223,-271.115 371,-271.115 371,-252.115 223,-252.115"/>
<text text-anchor="middle" x="297" y="-259.115" font-family="Helvetica,sans-Serif" font-size="10.00">mars::interfaces::GraphicData</text>
</a>
</g>
</g>
<!-- Node20&#45;&gt;Node23 -->
<g id="edge27" class="edge"><title>Node20&#45;&gt;Node23</title>
<path fill="none" stroke="#9a32cd" stroke-dasharray="5,2" d="M101.774,-293.657C116.476,-288.611 133.895,-283.193 150,-279.615 173.436,-274.409 199.345,-270.6 222.753,-267.863"/>
<polygon fill="#9a32cd" stroke="#9a32cd" points="100.353,-290.446 92.0789,-297.064 102.674,-297.05 100.353,-290.446"/>
<text text-anchor="middle" x="174" y="-293.615" font-family="Helvetica,sans-Serif" font-size="10.00"> clearColor</text>
<text text-anchor="middle" x="174" y="-282.615" font-family="Helvetica,sans-Serif" font-size="10.00">fogColor</text>
</g>
<!-- Node29 -->
<g id="node29" class="node"><title>Node29</title>
<g id="a_node29"><a xlink:href="../../df/da4/classmars_1_1graphics_1_1_h_u_d.html" target="_top" xlink:title="mars::graphics::HUD">
<polygon fill="white" stroke="black" points="242,-294.115 242,-313.115 352,-313.115 352,-294.115 242,-294.115"/>
<text text-anchor="middle" x="297" y="-301.115" font-family="Helvetica,sans-Serif" font-size="10.00">mars::graphics::HUD</text>
</a>
</g>
</g>
<!-- Node20&#45;&gt;Node29 -->
<g id="edge41" class="edge"><title>Node20&#45;&gt;Node29</title>
<path fill="none" stroke="#9a32cd" stroke-dasharray="5,2" d="M122.65,-305.886C158.931,-305.411 206.039,-304.794 241.988,-304.323"/>
<polygon fill="#9a32cd" stroke="#9a32cd" points="122.196,-302.392 112.243,-306.023 122.288,-309.391 122.196,-302.392"/>
<text text-anchor="middle" x="174" y="-308.615" font-family="Helvetica,sans-Serif" font-size="10.00"> myColor</text>
</g>
<!-- Node21&#45;&gt;Node13 -->
<g id="edge22" class="edge"><title>Node21&#45;&gt;Node13</title>
<path fill="none" stroke="#9a32cd" stroke-dasharray="5,2" d="M360.645,-367.183C450.845,-361.357 612.753,-353.13 670,-364.615 726.168,-375.884 786.761,-405.415 820.478,-423.582"/>
<polygon fill="#9a32cd" stroke="#9a32cd" points="360.296,-363.698 350.546,-367.845 360.753,-370.683 360.296,-363.698"/>
<text text-anchor="middle" x="598" y="-477.615" font-family="Helvetica,sans-Serif" font-size="10.00"> brightness</text>
<text text-anchor="middle" x="598" y="-466.615" font-family="Helvetica,sans-Serif" font-size="10.00">shadowTextureSize</text>
<text text-anchor="middle" x="598" y="-455.615" font-family="Helvetica,sans-Serif" font-size="10.00">configPath</text>
<text text-anchor="middle" x="598" y="-444.615" font-family="Helvetica,sans-Serif" font-size="10.00">marsShader</text>
<text text-anchor="middle" x="598" y="-433.615" font-family="Helvetica,sans-Serif" font-size="10.00">grab_frames</text>
<text text-anchor="middle" x="598" y="-422.615" font-family="Helvetica,sans-Serif" font-size="10.00">showCoordsProp</text>
<text text-anchor="middle" x="598" y="-411.615" font-family="Helvetica,sans-Serif" font-size="10.00">cfgW_width</text>
<text text-anchor="middle" x="598" y="-400.615" font-family="Helvetica,sans-Serif" font-size="10.00">drawMainCamera</text>
<text text-anchor="middle" x="598" y="-389.615" font-family="Helvetica,sans-Serif" font-size="10.00">cfgW_top</text>
<text text-anchor="middle" x="598" y="-378.615" font-family="Helvetica,sans-Serif" font-size="10.00">draw_normals</text>
<text text-anchor="middle" x="598" y="-367.615" font-family="Helvetica,sans-Serif" font-size="10.00">...</text>
</g>
<!-- Node21&#45;&gt;Node28 -->
<g id="edge38" class="edge"><title>Node21&#45;&gt;Node28</title>
<path fill="none" stroke="#9a32cd" stroke-dasharray="5,2" d="M342.203,-352.838C358.806,-346.464 378.014,-339.883 396,-335.615 444.015,-324.221 499.87,-318.406 540.496,-315.478"/>
<polygon fill="#9a32cd" stroke="#9a32cd" points="340.786,-349.634 332.758,-356.547 343.345,-356.149 340.786,-349.634"/>
<text text-anchor="middle" x="452" y="-349.615" font-family="Helvetica,sans-Serif" font-size="10.00"> resPath</text>
<text text-anchor="middle" x="452" y="-338.615" font-family="Helvetica,sans-Serif" font-size="10.00">shadowSamples</text>
</g>
<!-- Node22&#45;&gt;Node13 -->
<g id="edge24" class="edge"><title>Node22&#45;&gt;Node13</title>
<path fill="none" stroke="#9a32cd" stroke-dasharray="5,2" d="M363.891,-163.851C374.623,-163.753 385.62,-163.668 396,-163.615 445.777,-163.361 459.294,-153.344 508,-163.615 629.692,-189.279 673.554,-191.251 764,-276.615 809.274,-319.346 834.019,-392.244 843.021,-423.576"/>
<polygon fill="#9a32cd" stroke="#9a32cd" points="363.678,-160.352 353.712,-163.948 363.745,-167.352 363.678,-160.352"/>
<text text-anchor="middle" x="598" y="-210.615" font-family="Helvetica,sans-Serif" font-size="10.00"> cfg</text>
</g>
<!-- Node22&#45;&gt;Node28 -->
<g id="edge39" class="edge"><title>Node22&#45;&gt;Node28</title>
<path fill="none" stroke="#9a32cd" stroke-dasharray="5,2" d="M363.694,-162.18C417.323,-161.667 487.472,-164.849 508,-183.615 541.008,-213.79 498.039,-247.713 526,-282.615 530.936,-288.777 537.369,-293.692 544.345,-297.608"/>
<polygon fill="#9a32cd" stroke="#9a32cd" points="363.498,-158.682 353.549,-162.322 363.597,-165.682 363.498,-158.682"/>
<text text-anchor="middle" x="452" y="-186.615" font-family="Helvetica,sans-Serif" font-size="10.00"> cfg</text>
</g>
<!-- Node23&#45;&gt;Node13 -->
<g id="edge26" class="edge"><title>Node23&#45;&gt;Node13</title>
<path fill="none" stroke="#9a32cd" stroke-dasharray="5,2" d="M381.2,-257.316C457.211,-255.188 572.302,-256.503 670,-276.615 713.818,-285.636 729.13,-284.589 764,-312.615 802.588,-343.631 829.438,-397.527 840.85,-423.614"/>
<polygon fill="#9a32cd" stroke="#9a32cd" points="381.091,-253.818 371.203,-257.622 381.305,-260.814 381.091,-253.818"/>
<text text-anchor="middle" x="598" y="-279.615" font-family="Helvetica,sans-Serif" font-size="10.00"> graphicOptions</text>
</g>
<!-- Node23&#45;&gt;Node25 -->
<g id="edge34" class="edge"><title>Node23&#45;&gt;Node25</title>
<path fill="none" stroke="#9a32cd" stroke-dasharray="5,2" d="M359.902,-250.059C414.161,-238.714 487.49,-220.03 508,-198.615 530.517,-175.105 503.892,-151.511 526,-127.615 531.832,-121.312 539.376,-116.663 547.362,-113.235"/>
<polygon fill="#9a32cd" stroke="#9a32cd" points="359.101,-246.65 350.009,-252.091 360.509,-253.507 359.101,-246.65"/>
<text text-anchor="middle" x="452" y="-245.615" font-family="Helvetica,sans-Serif" font-size="10.00"> gs</text>
</g>
<!-- Node24&#45;&gt;Node13 -->
<g id="edge28" class="edge"><title>Node24&#45;&gt;Node13</title>
<path fill="none" stroke="#9a32cd" stroke-dasharray="5,2" d="M518.304,-634.049C587.126,-644.212 694.93,-648.251 764,-592.615 810.36,-555.272 834.384,-484.839 843.099,-453.874"/>
<polygon fill="#9a32cd" stroke="#9a32cd" points="518.444,-630.528 508.024,-632.442 517.363,-637.444 518.444,-630.528"/>
<text text-anchor="middle" x="598" y="-643.615" font-family="Helvetica,sans-Serif" font-size="10.00"> myNode</text>
</g>
<!-- Node25&#45;&gt;Node13 -->
<g id="edge30" class="edge"><title>Node25&#45;&gt;Node13</title>
<path fill="none" stroke="#9a32cd" stroke-dasharray="5,2" d="M673.889,-95.845C705.119,-96.6312 739.698,-103.323 764,-124.615 810.44,-165.304 838.166,-366.17 845.21,-423.383"/>
<polygon fill="#9a32cd" stroke="#9a32cd" points="673.905,-92.3451 663.884,-95.7862 673.864,-99.345 673.905,-92.3451"/>
<text text-anchor="middle" x="726" y="-127.615" font-family="Helvetica,sans-Serif" font-size="10.00"> guiHelper</text>
</g>
<!-- Node26 -->
<g id="node26" class="node"><title>Node26</title>
<g id="a_node26"><a xlink:href="../../d7/d02/classmars_1_1interfaces_1_1_load_mesh_interface.html" target="_top" xlink:title="mars::interfaces::LoadMesh\lInterface">
<polygon fill="white" stroke="black" points="228,-100.615 228,-130.615 366,-130.615 366,-100.615 228,-100.615"/>
<text text-anchor="start" x="236" y="-118.615" font-family="Helvetica,sans-Serif" font-size="10.00">mars::interfaces::LoadMesh</text>
<text text-anchor="middle" x="297" y="-107.615" font-family="Helvetica,sans-Serif" font-size="10.00">Interface</text>
</a>
</g>
</g>
<!-- Node26&#45;&gt;Node25 -->
<g id="edge31" class="edge"><title>Node26&#45;&gt;Node25</title>
<path fill="none" stroke="midnightblue" d="M376.382,-112.469C424.971,-110.519 486.628,-108.045 532.401,-106.208"/>
<polygon fill="midnightblue" stroke="midnightblue" points="376.073,-108.979 366.222,-112.877 376.354,-115.973 376.073,-108.979"/>
</g>
<!-- Node27 -->
<g id="node27" class="node"><title>Node27</title>
<g id="a_node27"><a xlink:href="../../d1/d51/classmars_1_1interfaces_1_1_load_heightmap_interface.html" target="_top" xlink:title="mars::interfaces::LoadHeightmap\lInterface">
<polygon fill="white" stroke="black" points="216.5,-51.6152 216.5,-81.6152 377.5,-81.6152 377.5,-51.6152 216.5,-51.6152"/>
<text text-anchor="start" x="224.5" y="-69.6152" font-family="Helvetica,sans-Serif" font-size="10.00">mars::interfaces::LoadHeightmap</text>
<text text-anchor="middle" x="297" y="-58.6152" font-family="Helvetica,sans-Serif" font-size="10.00">Interface</text>
</a>
</g>
</g>
<!-- Node27&#45;&gt;Node25 -->
<g id="edge32" class="edge"><title>Node27&#45;&gt;Node25</title>
<path fill="none" stroke="midnightblue" d="M387.798,-77.7274C434.236,-83.4739 489.87,-90.3584 532.089,-95.5828"/>
<polygon fill="midnightblue" stroke="midnightblue" points="388.088,-74.2366 377.734,-76.4819 387.228,-81.1836 388.088,-74.2366"/>
</g>
<!-- Node28&#45;&gt;Node13 -->
<g id="edge35" class="edge"><title>Node28&#45;&gt;Node13</title>
<path fill="none" stroke="#9a32cd" stroke-dasharray="5,2" d="M665.761,-312.967C697.294,-315.689 734.411,-322.766 764,-339.615 799.278,-359.703 826.162,-400.875 838.886,-423.275"/>
<polygon fill="#9a32cd" stroke="#9a32cd" points="665.966,-309.472 655.736,-312.229 665.452,-316.453 665.966,-309.472"/>
<text text-anchor="middle" x="726" y="-342.615" font-family="Helvetica,sans-Serif" font-size="10.00"> materialManager</text>
</g>
<!-- Node29&#45;&gt;Node3 -->
<g id="edge40" class="edge"><title>Node29&#45;&gt;Node3</title>
<path fill="none" stroke="#9a32cd" stroke-dasharray="5,2" d="M362.429,-294.324C416.387,-288.166 487.742,-284.348 508,-303.615 536.94,-331.14 506.888,-627.546 526,-662.615 534.425,-678.074 549.792,-689.994 564.081,-698.409"/>
<polygon fill="#9a32cd" stroke="#9a32cd" points="361.747,-290.881 352.231,-295.539 362.575,-297.832 361.747,-290.881"/>
<text text-anchor="middle" x="452" y="-306.615" font-family="Helvetica,sans-Serif" font-size="10.00"> myHUD</text>
</g>
</g>
</svg>
