<?xml version="1.0" encoding="UTF-8" standalone="no"?>
<!DOCTYPE svg PUBLIC "-//W3C//DTD SVG 1.1//EN"
 "http://www.w3.org/Graphics/SVG/1.1/DTD/svg11.dtd">
<!-- Generated by graphviz version 2.36.0 (20140111.2315)
 -->
<!-- Title: /media/kavonszadkowski/work/marsdocs/mars/common/graphics/osg_terrain/src/Terrain.h Pages: 1 -->
<svg width="995pt" height="242pt"
 viewBox="0.00 0.00 995.00 242.00" xmlns="http://www.w3.org/2000/svg" xmlns:xlink="http://www.w3.org/1999/xlink">
<g id="graph0" class="graph" transform="scale(1 1) rotate(0) translate(4 238)">
<title>/media/kavonszadkowski/work/marsdocs/mars/common/graphics/osg_terrain/src/Terrain.h</title>
<polygon fill="white" stroke="none" points="-4,4 -4,-238 991,-238 991,4 -4,4"/>
<!-- Node1 -->
<g id="node1" class="node"><title>Node1</title>
<polygon fill="#bfbfbf" stroke="black" points="249,-181 249,-233 401,-233 401,-181 249,-181"/>
<text text-anchor="start" x="257" y="-221" font-family="Helvetica,sans-Serif" font-size="10.00">/media/kavonszadkowski</text>
<text text-anchor="start" x="257" y="-210" font-family="Helvetica,sans-Serif" font-size="10.00">/work/marsdocs/mars/common</text>
<text text-anchor="start" x="257" y="-199" font-family="Helvetica,sans-Serif" font-size="10.00">/graphics/osg_terrain/src</text>
<text text-anchor="middle" x="325" y="-188" font-family="Helvetica,sans-Serif" font-size="10.00">/Terrain.h</text>
</g>
<!-- Node2 -->
<g id="node2" class="node"><title>Node2</title>
<polygon fill="white" stroke="#bfbfbf" points="0,-118.5 0,-137.5 62,-137.5 62,-118.5 0,-118.5"/>
<text text-anchor="middle" x="31" y="-125.5" font-family="Helvetica,sans-Serif" font-size="10.00">osg/Group</text>
</g>
<!-- Node1&#45;&gt;Node2 -->
<g id="edge1" class="edge"><title>Node1&#45;&gt;Node2</title>
<path fill="none" stroke="midnightblue" d="M248.777,-189.893C197.991,-178.551 129.992,-162.19 71,-144 68.0477,-143.09 64.997,-142.078 61.9582,-141.023"/>
<polygon fill="midnightblue" stroke="midnightblue" points="63.0212,-137.686 52.4269,-137.573 60.6383,-144.268 63.0212,-137.686"/>
</g>
<!-- Node3 -->
<g id="node3" class="node"><title>Node3</title>
<polygon fill="white" stroke="#bfbfbf" points="80,-118.5 80,-137.5 158,-137.5 158,-118.5 80,-118.5"/>
<text text-anchor="middle" x="119" y="-125.5" font-family="Helvetica,sans-Serif" font-size="10.00">osg/Geometry</text>
</g>
<!-- Node1&#45;&gt;Node3 -->
<g id="edge2" class="edge"><title>Node1&#45;&gt;Node3</title>
<path fill="none" stroke="midnightblue" d="M257.833,-180.894C222.123,-167.546 179.849,-151.745 151.41,-141.114"/>
<polygon fill="midnightblue" stroke="midnightblue" points="152.554,-137.806 141.961,-137.583 150.103,-144.362 152.554,-137.806"/>
</g>
<!-- Node4 -->
<g id="node4" class="node"><title>Node4</title>
<polygon fill="white" stroke="#bfbfbf" points="176,-113 176,-143 316,-143 316,-113 176,-113"/>
<text text-anchor="start" x="184" y="-131" font-family="Helvetica,sans-Serif" font-size="10.00">mars/osg_material_manager</text>
<text text-anchor="middle" x="246" y="-120" font-family="Helvetica,sans-Serif" font-size="10.00">/OsgMaterialManager.h</text>
</g>
<!-- Node1&#45;&gt;Node4 -->
<g id="edge3" class="edge"><title>Node1&#45;&gt;Node4</title>
<path fill="none" stroke="midnightblue" d="M299.132,-180.787C289.048,-170.959 277.613,-159.813 267.941,-150.386"/>
<polygon fill="midnightblue" stroke="midnightblue" points="270.226,-147.726 260.622,-143.252 265.34,-152.738 270.226,-147.726"/>
</g>
<!-- Node5 -->
<g id="node5" class="node"><title>Node5</title>
<polygon fill="white" stroke="#bfbfbf" points="334,-113 334,-143 474,-143 474,-113 334,-113"/>
<text text-anchor="start" x="342" y="-131" font-family="Helvetica,sans-Serif" font-size="10.00">mars/osg_material_manager</text>
<text text-anchor="middle" x="404" y="-120" font-family="Helvetica,sans-Serif" font-size="10.00">/MaterialNode.h</text>
</g>
<!-- Node1&#45;&gt;Node5 -->
<g id="edge4" class="edge"><title>Node1&#45;&gt;Node5</title>
<path fill="none" stroke="midnightblue" d="M350.868,-180.787C360.952,-170.959 372.387,-159.813 382.059,-150.386"/>
<polygon fill="midnightblue" stroke="midnightblue" points="384.66,-152.738 389.378,-143.252 379.774,-147.726 384.66,-152.738"/>
</g>
<!-- Node6 -->
<g id="node6" class="node"><title>Node6</title>
<polygon fill="white" stroke="#bfbfbf" points="492.5,-118.5 492.5,-137.5 591.5,-137.5 591.5,-118.5 492.5,-118.5"/>
<text text-anchor="middle" x="542" y="-125.5" font-family="Helvetica,sans-Serif" font-size="10.00">mars/utils/Vector.h</text>
</g>
<!-- Node1&#45;&gt;Node6 -->
<g id="edge5" class="edge"><title>Node1&#45;&gt;Node6</title>
<path fill="none" stroke="midnightblue" d="M395.754,-180.894C433.534,-167.488 478.291,-151.607 508.251,-140.975"/>
<polygon fill="midnightblue" stroke="midnightblue" points="509.559,-144.225 517.813,-137.583 507.218,-137.628 509.559,-144.225"/>
</g>
<!-- Node7 -->
<g id="node7" class="node"><title>Node7</title>
<g id="a_node7"><a xlink:href="../../d8/d84/common_2graphics_2osg__terrain_2src_2_vertex_buffer_terrain_8h.html" target="_top" xlink:title="VertexBufferTerrain.h">
<polygon fill="white" stroke="black" points="610,-118.5 610,-137.5 720,-137.5 720,-118.5 610,-118.5"/>
<text text-anchor="middle" x="665" y="-125.5" font-family="Helvetica,sans-Serif" font-size="10.00">VertexBufferTerrain.h</text>
</a>
</g>
</g>
<!-- Node1&#45;&gt;Node7 -->
<g id="edge6" class="edge"><title>Node1&#45;&gt;Node7</title>
<path fill="none" stroke="midnightblue" d="M401.188,-188.931C456.401,-176.536 532.84,-159.32 600,-144 605.859,-142.663 612.014,-141.252 618.103,-139.852"/>
<polygon fill="midnightblue" stroke="midnightblue" points="619.267,-143.176 628.226,-137.52 617.695,-136.354 619.267,-143.176"/>
</g>
<!-- Node8 -->
<g id="node8" class="node"><title>Node8</title>
<g id="a_node8"><a xlink:href="../../d4/d36/common_2graphics_2osg__terrain_2src_2_multi_res_height_map_renderer_8h.html" target="_top" xlink:title="MultiResHeightMapRenderer.h">
<polygon fill="white" stroke="black" points="457.5,-56.5 457.5,-75.5 608.5,-75.5 608.5,-56.5 457.5,-56.5"/>
<text text-anchor="middle" x="533" y="-63.5" font-family="Helvetica,sans-Serif" font-size="10.00">MultiResHeightMapRenderer.h</text>
</a>
</g>
</g>
<!-- Node7&#45;&gt;Node8 -->
<g id="edge7" class="edge"><title>Node7&#45;&gt;Node8</title>
<path fill="none" stroke="midnightblue" d="M646.088,-118.403C623.837,-108.29 586.688,-91.4036 561.074,-79.761"/>
<polygon fill="midnightblue" stroke="midnightblue" points="562.429,-76.5324 551.877,-75.5806 559.533,-82.905 562.429,-76.5324"/>
</g>
<!-- Node18 -->
<g id="node18" class="node"><title>Node18</title>
<polygon fill="white" stroke="#bfbfbf" points="626.5,-56.5 626.5,-75.5 703.5,-75.5 703.5,-56.5 626.5,-56.5"/>
<text text-anchor="middle" x="665" y="-63.5" font-family="Helvetica,sans-Serif" font-size="10.00">osg/Drawable</text>
</g>
<!-- Node7&#45;&gt;Node18 -->
<g id="edge17" class="edge"><title>Node7&#45;&gt;Node18</title>
<path fill="none" stroke="midnightblue" d="M665,-118.403C665,-109.938 665,-96.7283 665,-85.8199"/>
<polygon fill="midnightblue" stroke="midnightblue" points="668.5,-85.5806 665,-75.5806 661.5,-85.5806 668.5,-85.5806"/>
</g>
<!-- Node19 -->
<g id="node19" class="node"><title>Node19</title>
<polygon fill="white" stroke="#bfbfbf" points="721.5,-56.5 721.5,-75.5 764.5,-75.5 764.5,-56.5 721.5,-56.5"/>
<text text-anchor="middle" x="743" y="-63.5" font-family="Helvetica,sans-Serif" font-size="10.00">cstdio</text>
</g>
<!-- Node7&#45;&gt;Node19 -->
<g id="edge18" class="edge"><title>Node7&#45;&gt;Node19</title>
<path fill="none" stroke="midnightblue" d="M676.175,-118.403C688.571,-108.869 708.79,-93.3154 723.746,-81.8106"/>
<polygon fill="midnightblue" stroke="midnightblue" points="726.053,-84.4519 731.845,-75.5806 721.785,-78.9035 726.053,-84.4519"/>
</g>
<!-- Node9 -->
<g id="node9" class="node"><title>Node9</title>
<polygon fill="white" stroke="#bfbfbf" points="265,-0.5 265,-19.5 313,-19.5 313,-0.5 265,-0.5"/>
<text text-anchor="middle" x="289" y="-7.5" font-family="Helvetica,sans-Serif" font-size="10.00">GL/gl.h</text>
</g>
<!-- Node8&#45;&gt;Node9 -->
<g id="edge8" class="edge"><title>Node8&#45;&gt;Node9</title>
<path fill="none" stroke="midnightblue" d="M489.599,-56.4852C448.917,-48.3379 386.19,-35.3531 322.864,-20.1085"/>
<polygon fill="midnightblue" stroke="midnightblue" points="323.653,-16.6985 313.11,-17.7433 322.004,-23.5013 323.653,-16.6985"/>
</g>
<!-- Node10 -->
<g id="node10" class="node"><title>Node10</title>
<polygon fill="white" stroke="#bfbfbf" points="331,-0.5 331,-19.5 393,-19.5 393,-0.5 331,-0.5"/>
<text text-anchor="middle" x="362" y="-7.5" font-family="Helvetica,sans-Serif" font-size="10.00">GL/glext.h</text>
</g>
<!-- Node8&#45;&gt;Node10 -->
<g id="edge9" class="edge"><title>Node8&#45;&gt;Node10</title>
<path fill="none" stroke="midnightblue" d="M505.905,-56.4435C477.012,-47.3196 431.075,-32.8133 398.895,-22.6509"/>
<polygon fill="midnightblue" stroke="midnightblue" points="399.559,-19.1903 388.969,-19.5164 397.451,-25.8654 399.559,-19.1903"/>
</g>
<!-- Node11 -->
<g id="node11" class="node"><title>Node11</title>
<polygon fill="white" stroke="#bfbfbf" points="411.5,-0.5 411.5,-19.5 446.5,-19.5 446.5,-0.5 411.5,-0.5"/>
<text text-anchor="middle" x="429" y="-7.5" font-family="Helvetica,sans-Serif" font-size="10.00">map</text>
</g>
<!-- Node8&#45;&gt;Node11 -->
<g id="edge10" class="edge"><title>Node8&#45;&gt;Node11</title>
<path fill="none" stroke="midnightblue" d="M516.291,-56.324C499.688,-47.7034 473.998,-34.3643 454.78,-24.3855"/>
<polygon fill="midnightblue" stroke="midnightblue" points="456.156,-21.1565 445.668,-19.6545 452.93,-27.3689 456.156,-21.1565"/>
</g>
<!-- Node12 -->
<g id="node12" class="node"><title>Node12</title>
<polygon fill="white" stroke="#bfbfbf" points="464.5,-0.5 464.5,-19.5 493.5,-19.5 493.5,-0.5 464.5,-0.5"/>
<text text-anchor="middle" x="479" y="-7.5" font-family="Helvetica,sans-Serif" font-size="10.00">list</text>
</g>
<!-- Node8&#45;&gt;Node12 -->
<g id="edge11" class="edge"><title>Node8&#45;&gt;Node12</title>
<path fill="none" stroke="midnightblue" d="M524.083,-56.083C516.22,-48.2195 504.569,-36.5688 495.081,-27.0813"/>
<polygon fill="midnightblue" stroke="midnightblue" points="497.297,-24.3473 487.751,-19.7511 492.347,-29.2971 497.297,-24.3473"/>
</g>
<!-- Node13 -->
<g id="node13" class="node"><title>Node13</title>
<polygon fill="white" stroke="#bfbfbf" points="511,-0.5 511,-19.5 555,-19.5 555,-0.5 511,-0.5"/>
<text text-anchor="middle" x="533" y="-7.5" font-family="Helvetica,sans-Serif" font-size="10.00">vector</text>
</g>
<!-- Node8&#45;&gt;Node13 -->
<g id="edge12" class="edge"><title>Node8&#45;&gt;Node13</title>
<path fill="none" stroke="midnightblue" d="M533,-56.083C533,-49.0059 533,-38.8611 533,-29.9865"/>
<polygon fill="midnightblue" stroke="midnightblue" points="536.5,-29.751 533,-19.7511 529.5,-29.7511 536.5,-29.751"/>
</g>
<!-- Node14 -->
<g id="node14" class="node"><title>Node14</title>
<polygon fill="white" stroke="#bfbfbf" points="573,-0.5 573,-19.5 643,-19.5 643,-0.5 573,-0.5"/>
<text text-anchor="middle" x="608" y="-7.5" font-family="Helvetica,sans-Serif" font-size="10.00">opencv/cv.h</text>
</g>
<!-- Node8&#45;&gt;Node14 -->
<g id="edge13" class="edge"><title>Node8&#45;&gt;Node14</title>
<path fill="none" stroke="midnightblue" d="M545.05,-56.324C556.463,-48.1066 573.831,-35.6017 587.435,-25.8069"/>
<polygon fill="midnightblue" stroke="midnightblue" points="589.66,-28.5174 595.731,-19.8339 585.57,-22.8366 589.66,-28.5174"/>
</g>
<!-- Node15 -->
<g id="node15" class="node"><title>Node15</title>
<polygon fill="white" stroke="#bfbfbf" points="661,-0.5 661,-19.5 751,-19.5 751,-0.5 661,-0.5"/>
<text text-anchor="middle" x="706" y="-7.5" font-family="Helvetica,sans-Serif" font-size="10.00">opencv/highgui.h</text>
</g>
<!-- Node8&#45;&gt;Node15 -->
<g id="edge14" class="edge"><title>Node8&#45;&gt;Node15</title>
<path fill="none" stroke="midnightblue" d="M560.412,-56.4435C589.769,-47.2801 636.519,-32.6876 669.096,-22.5192"/>
<polygon fill="midnightblue" stroke="midnightblue" points="670.213,-25.8371 678.716,-19.5164 668.127,-19.1551 670.213,-25.8371"/>
</g>
<!-- Node16 -->
<g id="node16" class="node"><title>Node16</title>
<polygon fill="white" stroke="#bfbfbf" points="769.5,-0.5 769.5,-19.5 870.5,-19.5 870.5,-0.5 769.5,-0.5"/>
<text text-anchor="middle" x="820" y="-7.5" font-family="Helvetica,sans-Serif" font-size="10.00">mars/utils/Thread.h</text>
</g>
<!-- Node8&#45;&gt;Node16 -->
<g id="edge15" class="edge"><title>Node8&#45;&gt;Node16</title>
<path fill="none" stroke="midnightblue" d="M578.476,-56.4435C628.962,-46.9444 710.456,-31.611 764.62,-21.4198"/>
<polygon fill="midnightblue" stroke="midnightblue" points="765.556,-24.8052 774.737,-19.5164 764.262,-17.9259 765.556,-24.8052"/>
</g>
<!-- Node17 -->
<g id="node17" class="node"><title>Node17</title>
<polygon fill="white" stroke="#bfbfbf" points="889,-0.5 889,-19.5 987,-19.5 987,-0.5 889,-0.5"/>
<text text-anchor="middle" x="938" y="-7.5" font-family="Helvetica,sans-Serif" font-size="10.00">mars/utils/Mutex.h</text>
</g>
<!-- Node8&#45;&gt;Node17 -->
<g id="edge16" class="edge"><title>Node8&#45;&gt;Node17</title>
<path fill="none" stroke="midnightblue" d="M601.99,-56.4817C669.684,-48.02 776.125,-34.44 878.83,-19.9952"/>
<polygon fill="midnightblue" stroke="midnightblue" points="879.344,-23.4575 888.757,-18.5947 878.366,-16.5261 879.344,-23.4575"/>
</g>
</g>
</svg>
