<?xml version="1.0" encoding="UTF-8" standalone="no"?>
<!DOCTYPE svg PUBLIC "-//W3C//DTD SVG 1.1//EN"
 "http://www.w3.org/Graphics/SVG/1.1/DTD/svg11.dtd">
<!-- Generated by graphviz version 2.36.0 (20140111.2315)
 -->
<!-- Title: /media/kavonszadkowski/work/marsdocs/mars/sim/src/sensors/MotorPositionSensor.cpp Pages: 1 -->
<svg width="618pt" height="186pt"
 viewBox="0.00 0.00 618.00 186.00" xmlns="http://www.w3.org/2000/svg" xmlns:xlink="http://www.w3.org/1999/xlink">
<g id="graph0" class="graph" transform="scale(1 1) rotate(0) translate(4 182)">
<title>/media/kavonszadkowski/work/marsdocs/mars/sim/src/sensors/MotorPositionSensor.cpp</title>
<polygon fill="white" stroke="none" points="-4,4 -4,-182 614,-182 614,4 -4,4"/>
<!-- Node1 -->
<g id="node1" class="node"><title>Node1</title>
<polygon fill="#bfbfbf" stroke="black" points="322.5,-136.5 322.5,-177.5 505.5,-177.5 505.5,-136.5 322.5,-136.5"/>
<text text-anchor="start" x="330.5" y="-165.5" font-family="Helvetica,sans-Serif" font-size="10.00">/media/kavonszadkowski</text>
<text text-anchor="start" x="330.5" y="-154.5" font-family="Helvetica,sans-Serif" font-size="10.00">/work/marsdocs/mars/sim</text>
<text text-anchor="middle" x="414" y="-143.5" font-family="Helvetica,sans-Serif" font-size="10.00">/src/sensors/MotorPositionSensor.cpp</text>
</g>
<!-- Node2 -->
<g id="node2" class="node"><title>Node2</title>
<g id="a_node2"><a xlink:href="../../d9/de4/_motor_position_sensor_8h.html" target="_top" xlink:title="MotorPositionSensor.h">
<polygon fill="white" stroke="black" points="61,-74.5 61,-93.5 177,-93.5 177,-74.5 61,-74.5"/>
<text text-anchor="middle" x="119" y="-81.5" font-family="Helvetica,sans-Serif" font-size="10.00">MotorPositionSensor.h</text>
</a>
</g>
</g>
<!-- Node1&#45;&gt;Node2 -->
<g id="edge1" class="edge"><title>Node1&#45;&gt;Node2</title>
<path fill="none" stroke="midnightblue" d="M332.609,-136.411C278.34,-123.35 209.017,-106.665 164.315,-95.9062"/>
<polygon fill="midnightblue" stroke="midnightblue" points="164.877,-92.4417 154.335,-93.5045 163.239,-99.2473 164.877,-92.4417"/>
</g>
<!-- Node5 -->
<g id="node5" class="node"><title>Node5</title>
<polygon fill="white" stroke="#bfbfbf" points="195,-69 195,-99 323,-99 323,-69 195,-69"/>
<text text-anchor="start" x="203" y="-87" font-family="Helvetica,sans-Serif" font-size="10.00">mars/interfaces/sim</text>
<text text-anchor="middle" x="259" y="-76" font-family="Helvetica,sans-Serif" font-size="10.00">/MotorManagerInterface.h</text>
</g>
<!-- Node1&#45;&gt;Node5 -->
<g id="edge4" class="edge"><title>Node1&#45;&gt;Node5</title>
<path fill="none" stroke="midnightblue" d="M371.235,-136.411C348.654,-126.067 321.112,-113.452 298.964,-103.306"/>
<polygon fill="midnightblue" stroke="midnightblue" points="300.381,-100.105 289.832,-99.1228 297.466,-106.469 300.381,-100.105"/>
</g>
<!-- Node6 -->
<g id="node6" class="node"><title>Node6</title>
<polygon fill="white" stroke="#bfbfbf" points="341.5,-69 341.5,-99 486.5,-99 486.5,-69 341.5,-69"/>
<text text-anchor="start" x="349.5" y="-87" font-family="Helvetica,sans-Serif" font-size="10.00">mars/data_broker/DataBroker</text>
<text text-anchor="middle" x="414" y="-76" font-family="Helvetica,sans-Serif" font-size="10.00">Interface.h</text>
</g>
<!-- Node1&#45;&gt;Node6 -->
<g id="edge5" class="edge"><title>Node1&#45;&gt;Node6</title>
<path fill="none" stroke="midnightblue" d="M414,-136.223C414,-127.821 414,-117.948 414,-109.123"/>
<polygon fill="midnightblue" stroke="midnightblue" points="417.5,-109.048 414,-99.0485 410.5,-109.049 417.5,-109.048"/>
</g>
<!-- Node7 -->
<g id="node7" class="node"><title>Node7</title>
<polygon fill="white" stroke="#bfbfbf" points="504.5,-74.5 504.5,-93.5 547.5,-93.5 547.5,-74.5 504.5,-74.5"/>
<text text-anchor="middle" x="526" y="-81.5" font-family="Helvetica,sans-Serif" font-size="10.00">cstdio</text>
</g>
<!-- Node1&#45;&gt;Node7 -->
<g id="edge6" class="edge"><title>Node1&#45;&gt;Node7</title>
<path fill="none" stroke="midnightblue" d="M444.901,-136.411C463.585,-124.567 486.969,-109.743 503.82,-99.0603"/>
<polygon fill="midnightblue" stroke="midnightblue" points="505.867,-101.907 512.439,-93.5968 502.119,-95.9949 505.867,-101.907"/>
</g>
<!-- Node8 -->
<g id="node8" class="node"><title>Node8</title>
<polygon fill="white" stroke="#bfbfbf" points="565.5,-74.5 565.5,-93.5 610.5,-93.5 610.5,-74.5 565.5,-74.5"/>
<text text-anchor="middle" x="588" y="-81.5" font-family="Helvetica,sans-Serif" font-size="10.00">cstdlib</text>
</g>
<!-- Node1&#45;&gt;Node8 -->
<g id="edge7" class="edge"><title>Node1&#45;&gt;Node8</title>
<path fill="none" stroke="midnightblue" d="M465.918,-136.424C492.944,-126.007 526.432,-112.746 556,-100 557.588,-99.3154 559.215,-98.5997 560.852,-97.868"/>
<polygon fill="midnightblue" stroke="midnightblue" points="562.516,-100.956 570.15,-93.6087 559.6,-94.5915 562.516,-100.956"/>
</g>
<!-- Node3 -->
<g id="node3" class="node"><title>Node3</title>
<polygon fill="white" stroke="#bfbfbf" points="-0.5,-1 -0.5,-31 102.5,-31 102.5,-1 -0.5,-1"/>
<text text-anchor="start" x="7.5" y="-19" font-family="Helvetica,sans-Serif" font-size="10.00">mars/interfaces/sim</text>
<text text-anchor="middle" x="51" y="-8" font-family="Helvetica,sans-Serif" font-size="10.00">/SensorInterface.h</text>
</g>
<!-- Node2&#45;&gt;Node3 -->
<g id="edge2" class="edge"><title>Node2&#45;&gt;Node3</title>
<path fill="none" stroke="midnightblue" d="M110.11,-74.3717C100.749,-65.2858 85.6498,-50.6306 73.0555,-38.4068"/>
<polygon fill="midnightblue" stroke="midnightblue" points="75.2247,-35.6347 65.6112,-31.1815 70.3494,-40.6578 75.2247,-35.6347"/>
</g>
<!-- Node4 -->
<g id="node4" class="node"><title>Node4</title>
<polygon fill="white" stroke="#bfbfbf" points="121,-1 121,-31 255,-31 255,-1 121,-1"/>
<text text-anchor="start" x="129" y="-19" font-family="Helvetica,sans-Serif" font-size="10.00">mars/data_broker/Receiver</text>
<text text-anchor="middle" x="188" y="-8" font-family="Helvetica,sans-Serif" font-size="10.00">Interface.h</text>
</g>
<!-- Node2&#45;&gt;Node4 -->
<g id="edge3" class="edge"><title>Node2&#45;&gt;Node4</title>
<path fill="none" stroke="midnightblue" d="M128.021,-74.3717C137.519,-65.2858 152.841,-50.6306 165.62,-38.4068"/>
<polygon fill="midnightblue" stroke="midnightblue" points="168.367,-40.623 173.174,-31.1815 163.528,-35.5645 168.367,-40.623"/>
</g>
</g>
</svg>
