<?xml version="1.0" encoding="UTF-8" standalone="no"?>
<!DOCTYPE svg PUBLIC "-//W3C//DTD SVG 1.1//EN"
 "http://www.w3.org/Graphics/SVG/1.1/DTD/svg11.dtd">
<!-- Generated by graphviz version 2.26.3 (20100126.1600)
 -->
<!-- Title: /home/kavonszadkowski/limes&#45;dev/simulation/mars/common/data_broker/src/DataItem.cpp Pages: 1 -->
<svg width="163pt" height="186pt"
 viewBox="0.00 0.00 163.00 186.00" xmlns="http://www.w3.org/2000/svg" xmlns:xlink="http://www.w3.org/1999/xlink">
<g id="graph1" class="graph" transform="scale(1 1) rotate(0) translate(4 182)">
<title>/home/kavonszadkowski/limes&#45;dev/simulation/mars/common/data_broker/src/DataItem.cpp</title>
<polygon fill="white" stroke="white" points="-4,5 -4,-182 160,-182 160,5 -4,5"/>
<!-- Node1 -->
<g id="node1" class="node"><title>Node1</title>
<polygon fill="#bfbfbf" stroke="black" points="19,-117 19,-177 155,-177 155,-117 19,-117"/>
<text text-anchor="start" x="27" y="-164" font-family="Helvetica,sans-Serif" font-size="10.00">/home/kavonszadkowski</text>
<text text-anchor="start" x="27" y="-151" font-family="Helvetica,sans-Serif" font-size="10.00">/limes&#45;dev/simulation</text>
<text text-anchor="start" x="27" y="-138" font-family="Helvetica,sans-Serif" font-size="10.00">/mars/common/data_broker</text>
<text text-anchor="middle" x="87" y="-125" font-family="Helvetica,sans-Serif" font-size="10.00">/src/DataItem.cpp</text>
</g>
<!-- Node2 -->
<g id="node3" class="node"><title>Node2</title>
<a xlink:href="../../da/d5a/_data_item_8h.html" target="_top" xlink:title="DataItem.h">
<polygon fill="white" stroke="black" points="19.5,-58.5 19.5,-79.5 84.5,-79.5 84.5,-58.5 19.5,-58.5"/>
<text text-anchor="middle" x="52" y="-66.5" font-family="Helvetica,sans-Serif" font-size="10.00">DataItem.h</text>
</a>
</g>
<!-- Node1&#45;&gt;Node2 -->
<g id="edge2" class="edge"><title>Node1&#45;&gt;Node2</title>
<path fill="none" stroke="midnightblue" d="M73.3679,-116.62C69.2195,-107.375 64.7659,-97.4498 61.004,-89.0661"/>
<polygon fill="midnightblue" stroke="midnightblue" points="64.1125,-87.4442 56.8253,-79.7535 57.726,-90.3099 64.1125,-87.4442"/>
</g>
<!-- Node5 -->
<g id="node9" class="node"><title>Node5</title>
<polygon fill="white" stroke="#bfbfbf" points="101.5,-58.5 101.5,-79.5 144.5,-79.5 144.5,-58.5 101.5,-58.5"/>
<text text-anchor="middle" x="123" y="-66.5" font-family="Helvetica,sans-Serif" font-size="10.00">cstdio</text>
</g>
<!-- Node1&#45;&gt;Node5 -->
<g id="edge8" class="edge"><title>Node1&#45;&gt;Node5</title>
<path fill="none" stroke="midnightblue" d="M101.022,-116.62C105.288,-107.375 109.869,-97.4498 113.739,-89.0661"/>
<polygon fill="midnightblue" stroke="midnightblue" points="117.024,-90.2998 118.037,-79.7535 110.668,-87.3663 117.024,-90.2998"/>
</g>
<!-- Node3 -->
<g id="node5" class="node"><title>Node3</title>
<polygon fill="white" stroke="#bfbfbf" points="0,-0.5 0,-21.5 44,-21.5 44,-0.5 0,-0.5"/>
<text text-anchor="middle" x="22" y="-8.5" font-family="Helvetica,sans-Serif" font-size="10.00">vector</text>
</g>
<!-- Node2&#45;&gt;Node3 -->
<g id="edge4" class="edge"><title>Node2&#45;&gt;Node3</title>
<path fill="none" stroke="midnightblue" d="M46.4975,-58.3619C42.4801,-50.5949 36.9186,-39.8426 32.1099,-30.5458"/>
<polygon fill="midnightblue" stroke="midnightblue" points="35.1706,-28.8448 27.4676,-21.5707 28.9531,-32.0608 35.1706,-28.8448"/>
</g>
<!-- Node4 -->
<g id="node7" class="node"><title>Node4</title>
<polygon fill="white" stroke="#bfbfbf" points="61.5,-0.5 61.5,-21.5 102.5,-21.5 102.5,-0.5 61.5,-0.5"/>
<text text-anchor="middle" x="82" y="-8.5" font-family="Helvetica,sans-Serif" font-size="10.00">string</text>
</g>
<!-- Node2&#45;&gt;Node4 -->
<g id="edge6" class="edge"><title>Node2&#45;&gt;Node4</title>
<path fill="none" stroke="midnightblue" d="M57.5025,-58.3619C61.5199,-50.5949 67.0814,-39.8426 71.8901,-30.5458"/>
<polygon fill="midnightblue" stroke="midnightblue" points="75.0469,-32.0608 76.5324,-21.5707 68.8294,-28.8448 75.0469,-32.0608"/>
</g>
</g>
</svg>
