<?xml version="1.0" encoding="UTF-8" standalone="no"?>
<!DOCTYPE svg PUBLIC "-//W3C//DTD SVG 1.1//EN"
 "http://www.w3.org/Graphics/SVG/1.1/DTD/svg11.dtd">
<!-- Generated by graphviz version 2.26.3 (20100126.1600)
 -->
<!-- Title: /home/kavonszadkowski/limes&#45;dev/simulation/mars/plugins/mars_plugin_collection/cave_camera_display/src/MarsVideoPlayer.cpp Pages: 1 -->
<svg width="1717pt" height="284pt"
 viewBox="0.00 0.00 1717.00 284.00" xmlns="http://www.w3.org/2000/svg" xmlns:xlink="http://www.w3.org/1999/xlink">
<g id="graph1" class="graph" transform="scale(1 1) rotate(0) translate(4 280)">
<title>/home/kavonszadkowski/limes&#45;dev/simulation/mars/plugins/mars_plugin_collection/cave_camera_display/src/MarsVideoPlayer.cpp</title>
<polygon fill="white" stroke="white" points="-4,5 -4,-280 1714,-280 1714,5 -4,5"/>
<!-- Node1 -->
<g id="node1" class="node"><title>Node1</title>
<polygon fill="#bfbfbf" stroke="black" points="1072.5,-202.5 1072.5,-275.5 1233.5,-275.5 1233.5,-202.5 1072.5,-202.5"/>
<text text-anchor="start" x="1080.5" y="-262.5" font-family="Helvetica,sans-Serif" font-size="10.00">/home/kavonszadkowski</text>
<text text-anchor="start" x="1080.5" y="-249.5" font-family="Helvetica,sans-Serif" font-size="10.00">/limes&#45;dev/simulation</text>
<text text-anchor="start" x="1080.5" y="-236.5" font-family="Helvetica,sans-Serif" font-size="10.00">/mars/plugins/mars_plugin</text>
<text text-anchor="start" x="1080.5" y="-223.5" font-family="Helvetica,sans-Serif" font-size="10.00">_collection/cave_camera_display</text>
<text text-anchor="middle" x="1153" y="-210.5" font-family="Helvetica,sans-Serif" font-size="10.00">/src/MarsVideoPlayer.cpp</text>
</g>
<!-- Node2 -->
<g id="node3" class="node"><title>Node2</title>
<a xlink:href="../../d2/ddb/cave__camera__display_2src_2_mars_video_player_8h.html" target="_top" xlink:title="MarsVideoPlayer.h">
<polygon fill="white" stroke="black" points="698.5,-137.5 698.5,-158.5 797.5,-158.5 797.5,-137.5 698.5,-137.5"/>
<text text-anchor="middle" x="748" y="-145.5" font-family="Helvetica,sans-Serif" font-size="10.00">MarsVideoPlayer.h</text>
</a>
</g>
<!-- Node1&#45;&gt;Node2 -->
<g id="edge2" class="edge"><title>Node1&#45;&gt;Node2</title>
<path fill="none" stroke="midnightblue" d="M1072.22,-224.227C1001.57,-210.779 896.419,-189.487 806,-166 800.706,-164.625 795.177,-163.068 789.724,-161.46"/>
<polygon fill="midnightblue" stroke="midnightblue" points="790.644,-158.081 780.059,-158.536 788.617,-164.782 790.644,-158.081"/>
</g>
<!-- Node24 -->
<g id="node48" class="node"><title>Node24</title>
<polygon fill="white" stroke="#bfbfbf" points="815,-137.5 815,-158.5 915,-158.5 915,-137.5 815,-137.5"/>
<text text-anchor="middle" x="865" y="-145.5" font-family="Helvetica,sans-Serif" font-size="10.00">osg/AutoTransform</text>
</g>
<!-- Node1&#45;&gt;Node24 -->
<g id="edge48" class="edge"><title>Node1&#45;&gt;Node24</title>
<path fill="none" stroke="midnightblue" d="M1072.39,-213.53C1019.13,-196.701 951.413,-175.304 908.128,-161.627"/>
<polygon fill="midnightblue" stroke="midnightblue" points="909.066,-158.253 898.476,-158.577 906.956,-164.928 909.066,-158.253"/>
</g>
<!-- Node25 -->
<g id="node50" class="node"><title>Node25</title>
<polygon fill="white" stroke="#bfbfbf" points="933,-137.5 933,-158.5 1007,-158.5 1007,-137.5 933,-137.5"/>
<text text-anchor="middle" x="970" y="-145.5" font-family="Helvetica,sans-Serif" font-size="10.00">osg/StateSet</text>
</g>
<!-- Node1&#45;&gt;Node25 -->
<g id="edge50" class="edge"><title>Node1&#45;&gt;Node25</title>
<path fill="none" stroke="midnightblue" d="M1079.36,-202.38C1051.67,-188.613 1021.72,-173.718 1000.17,-163.004"/>
<polygon fill="midnightblue" stroke="midnightblue" points="1001.71,-159.858 991.194,-158.539 998.589,-166.125 1001.71,-159.858"/>
</g>
<!-- Node26 -->
<g id="node52" class="node"><title>Node26</title>
<polygon fill="white" stroke="#bfbfbf" points="1025,-137.5 1025,-158.5 1103,-158.5 1103,-137.5 1025,-137.5"/>
<text text-anchor="middle" x="1064" y="-145.5" font-family="Helvetica,sans-Serif" font-size="10.00">osg/Geometry</text>
</g>
<!-- Node1&#45;&gt;Node26 -->
<g id="edge52" class="edge"><title>Node1&#45;&gt;Node26</title>
<path fill="none" stroke="midnightblue" d="M1117.06,-202.249C1104.75,-189.671 1091.55,-176.165 1081.39,-165.776"/>
<polygon fill="midnightblue" stroke="midnightblue" points="1083.77,-163.207 1074.27,-158.506 1078.76,-168.102 1083.77,-163.207"/>
</g>
<!-- Node27 -->
<g id="node54" class="node"><title>Node27</title>
<polygon fill="white" stroke="#bfbfbf" points="1121,-137.5 1121,-158.5 1185,-158.5 1185,-137.5 1121,-137.5"/>
<text text-anchor="middle" x="1153" y="-145.5" font-family="Helvetica,sans-Serif" font-size="10.00">osg/Geode</text>
</g>
<!-- Node1&#45;&gt;Node27 -->
<g id="edge54" class="edge"><title>Node1&#45;&gt;Node27</title>
<path fill="none" stroke="midnightblue" d="M1153,-202.249C1153,-190.78 1153,-178.541 1153,-168.596"/>
<polygon fill="midnightblue" stroke="midnightblue" points="1156.5,-168.505 1153,-158.506 1149.5,-168.506 1156.5,-168.505"/>
</g>
<!-- Node28 -->
<g id="node56" class="node"><title>Node28</title>
<polygon fill="white" stroke="#bfbfbf" points="1202.5,-137.5 1202.5,-158.5 1351.5,-158.5 1351.5,-137.5 1202.5,-137.5"/>
<text text-anchor="middle" x="1277" y="-145.5" font-family="Helvetica,sans-Serif" font-size="10.00">osg/PositionAttitudeTransform</text>
</g>
<!-- Node1&#45;&gt;Node28 -->
<g id="edge56" class="edge"><title>Node1&#45;&gt;Node28</title>
<path fill="none" stroke="midnightblue" d="M1203.08,-202.249C1220.89,-189.177 1240.07,-175.104 1254.42,-164.568"/>
<polygon fill="midnightblue" stroke="midnightblue" points="1256.69,-167.244 1262.68,-158.506 1252.55,-161.6 1256.69,-167.244"/>
</g>
<!-- Node29 -->
<g id="node58" class="node"><title>Node29</title>
<polygon fill="white" stroke="#bfbfbf" points="1368.5,-137.5 1368.5,-158.5 1481.5,-158.5 1481.5,-137.5 1368.5,-137.5"/>
<text text-anchor="middle" x="1425" y="-145.5" font-family="Helvetica,sans-Serif" font-size="10.00">mars/utils/mathUtils.h</text>
</g>
<!-- Node1&#45;&gt;Node29 -->
<g id="edge58" class="edge"><title>Node1&#45;&gt;Node29</title>
<path fill="none" stroke="midnightblue" d="M1233.5,-212.066C1282.89,-195.543 1344.07,-175.076 1383.79,-161.787"/>
<polygon fill="midnightblue" stroke="midnightblue" points="1385.03,-165.063 1393.4,-158.571 1382.81,-158.424 1385.03,-165.063"/>
</g>
<!-- Node30 -->
<g id="node60" class="node"><title>Node30</title>
<polygon fill="white" stroke="#bfbfbf" points="1498.5,-131 1498.5,-165 1641.5,-165 1641.5,-131 1498.5,-131"/>
<text text-anchor="start" x="1506.5" y="-152" font-family="Helvetica,sans-Serif" font-size="10.00">mars/interfaces/graphics</text>
<text text-anchor="middle" x="1570" y="-139" font-family="Helvetica,sans-Serif" font-size="10.00">/GraphicsManagerInterface.h</text>
</g>
<!-- Node1&#45;&gt;Node30 -->
<g id="edge60" class="edge"><title>Node1&#45;&gt;Node30</title>
<path fill="none" stroke="midnightblue" d="M1233.73,-221.702C1299.69,-207.525 1395.63,-186.804 1488.62,-166.298"/>
<polygon fill="midnightblue" stroke="midnightblue" points="1489.47,-169.695 1498.48,-164.122 1487.96,-162.86 1489.47,-169.695"/>
</g>
<!-- Node31 -->
<g id="node62" class="node"><title>Node31</title>
<polygon fill="white" stroke="#bfbfbf" points="1659,-137.5 1659,-158.5 1709,-158.5 1709,-137.5 1659,-137.5"/>
<text text-anchor="middle" x="1684" y="-145.5" font-family="Helvetica,sans-Serif" font-size="10.00">fstream</text>
</g>
<!-- Node1&#45;&gt;Node31 -->
<g id="edge62" class="edge"><title>Node1&#45;&gt;Node31</title>
<path fill="none" stroke="midnightblue" d="M1233.68,-235.573C1333.62,-229.431 1508.06,-212.465 1650,-166 1652.59,-165.153 1655.22,-164.118 1657.8,-162.978"/>
<polygon fill="midnightblue" stroke="midnightblue" points="1659.43,-166.081 1666.86,-158.531 1656.34,-159.798 1659.43,-166.081"/>
</g>
<!-- Node3 -->
<g id="node5" class="node"><title>Node3</title>
<polygon fill="white" stroke="#bfbfbf" points="-0.5,-59 -0.5,-93 116.5,-93 116.5,-59 -0.5,-59"/>
<text text-anchor="start" x="7.5" y="-80" font-family="Helvetica,sans-Serif" font-size="10.00">mars/interfaces/sim</text>
<text text-anchor="middle" x="58" y="-67" font-family="Helvetica,sans-Serif" font-size="10.00">/MarsPluginTemplate.h</text>
</g>
<!-- Node2&#45;&gt;Node3 -->
<g id="edge4" class="edge"><title>Node2&#45;&gt;Node3</title>
<path fill="none" stroke="midnightblue" d="M698.351,-146.66C593.915,-143.203 343.882,-131.577 126.685,-94.1398"/>
<polygon fill="midnightblue" stroke="midnightblue" points="127.148,-90.6676 116.695,-92.3953 125.944,-97.5633 127.148,-90.6676"/>
</g>
<!-- Node4 -->
<g id="node7" class="node"><title>Node4</title>
<polygon fill="white" stroke="#bfbfbf" points="133.5,-59 133.5,-93 270.5,-93 270.5,-59 133.5,-59"/>
<text text-anchor="start" x="141.5" y="-80" font-family="Helvetica,sans-Serif" font-size="10.00">mars/interfaces/graphics</text>
<text text-anchor="middle" x="202" y="-67" font-family="Helvetica,sans-Serif" font-size="10.00">/GraphicsUpdateInterface.h</text>
</g>
<!-- Node2&#45;&gt;Node4 -->
<g id="edge6" class="edge"><title>Node2&#45;&gt;Node4</title>
<path fill="none" stroke="midnightblue" d="M698.44,-144.181C614.345,-137.288 438.226,-121.077 280.64,-94.1913"/>
<polygon fill="midnightblue" stroke="midnightblue" points="281.216,-90.7391 270.767,-92.4885 280.026,-97.6373 281.216,-90.7391"/>
</g>
<!-- Node5 -->
<g id="node9" class="node"><title>Node5</title>
<polygon fill="white" stroke="#bfbfbf" points="287.5,-65.5 287.5,-86.5 388.5,-86.5 388.5,-65.5 287.5,-65.5"/>
<text text-anchor="middle" x="338" y="-73.5" font-family="Helvetica,sans-Serif" font-size="10.00">mars/utils/Thread.h</text>
</g>
<!-- Node2&#45;&gt;Node5 -->
<g id="edge8" class="edge"><title>Node2&#45;&gt;Node5</title>
<path fill="none" stroke="midnightblue" d="M698.458,-142.65C630.098,-134.754 503.242,-118.247 397,-94 391.248,-92.6872 385.239,-91.1058 379.35,-89.4322"/>
<polygon fill="midnightblue" stroke="midnightblue" points="380.202,-86.0343 369.62,-86.5597 378.22,-92.7478 380.202,-86.0343"/>
</g>
<!-- Node6 -->
<g id="node11" class="node"><title>Node6</title>
<polygon fill="white" stroke="#bfbfbf" points="406,-65.5 406,-86.5 504,-86.5 504,-65.5 406,-65.5"/>
<text text-anchor="middle" x="455" y="-73.5" font-family="Helvetica,sans-Serif" font-size="10.00">mars/utils/Mutex.h</text>
</g>
<!-- Node2&#45;&gt;Node6 -->
<g id="edge10" class="edge"><title>Node2&#45;&gt;Node6</title>
<path fill="none" stroke="midnightblue" d="M698.218,-137.696C650.466,-127.545 576.457,-111.112 513,-94 507.913,-92.6284 502.603,-91.1064 497.349,-89.545"/>
<polygon fill="midnightblue" stroke="midnightblue" points="497.977,-86.0778 487.391,-86.5231 495.944,-92.7762 497.977,-86.0778"/>
</g>
<!-- Node7 -->
<g id="node13" class="node"><title>Node7</title>
<polygon fill="white" stroke="#bfbfbf" points="522,-65.5 522,-86.5 668,-86.5 668,-65.5 522,-65.5"/>
<text text-anchor="middle" x="595" y="-73.5" font-family="Helvetica,sans-Serif" font-size="10.00">mars/interfaces/MARSDefs.h</text>
</g>
<!-- Node2&#45;&gt;Node7 -->
<g id="edge12" class="edge"><title>Node2&#45;&gt;Node7</title>
<path fill="none" stroke="midnightblue" d="M725.424,-137.376C699.435,-125.146 656.551,-104.965 627.098,-91.105"/>
<polygon fill="midnightblue" stroke="midnightblue" points="628.207,-87.7586 617.668,-86.6674 625.226,-94.0923 628.207,-87.7586"/>
</g>
<!-- Node8 -->
<g id="node15" class="node"><title>Node8</title>
<polygon fill="white" stroke="#bfbfbf" points="778.5,-0.5 778.5,-21.5 827.5,-21.5 827.5,-0.5 778.5,-0.5"/>
<text text-anchor="middle" x="803" y="-8.5" font-family="Helvetica,sans-Serif" font-size="10.00">string.h</text>
</g>
<!-- Node2&#45;&gt;Node8 -->
<g id="edge14" class="edge"><title>Node2&#45;&gt;Node8</title>
<path fill="none" stroke="midnightblue" d="M738.377,-137.447C723.715,-120.029 699.082,-84.548 715,-58 726.605,-38.646 749.191,-26.8181 768.575,-19.8687"/>
<polygon fill="midnightblue" stroke="midnightblue" points="769.933,-23.1069 778.345,-16.6653 767.752,-16.4553 769.933,-23.1069"/>
</g>
<!-- Node9 -->
<g id="node17" class="node"><title>Node9</title>
<polygon fill="white" stroke="#bfbfbf" points="723.5,-65.5 723.5,-86.5 878.5,-86.5 878.5,-65.5 723.5,-65.5"/>
<text text-anchor="middle" x="801" y="-73.5" font-family="Helvetica,sans-Serif" font-size="10.00">video_capture_vlc/VlcCapture.h</text>
</g>
<!-- Node2&#45;&gt;Node9 -->
<g id="edge16" class="edge"><title>Node2&#45;&gt;Node9</title>
<path fill="none" stroke="midnightblue" d="M755.82,-137.376C764.04,-126.209 777.139,-108.415 787.121,-94.8547"/>
<polygon fill="midnightblue" stroke="midnightblue" points="790.038,-96.7957 793.148,-86.6674 784.401,-92.6459 790.038,-96.7957"/>
</g>
<!-- Node10 -->
<g id="node19" class="node"><title>Node10</title>
<polygon fill="white" stroke="#bfbfbf" points="896,-65.5 896,-86.5 966,-86.5 966,-65.5 896,-65.5"/>
<text text-anchor="middle" x="931" y="-73.5" font-family="Helvetica,sans-Serif" font-size="10.00">opencv/cv.h</text>
</g>
<!-- Node2&#45;&gt;Node10 -->
<g id="edge18" class="edge"><title>Node2&#45;&gt;Node10</title>
<path fill="none" stroke="midnightblue" d="M775.485,-137.488C803.567,-126.709 848.403,-109.39 887,-94 889.896,-92.845 892.896,-91.6389 895.906,-90.4219"/>
<polygon fill="midnightblue" stroke="midnightblue" points="897.492,-93.5553 905.438,-86.5469 894.856,-87.0706 897.492,-93.5553"/>
</g>
<!-- Node11 -->
<g id="node21" class="node"><title>Node11</title>
<polygon fill="white" stroke="#bfbfbf" points="984,-65.5 984,-86.5 1074,-86.5 1074,-65.5 984,-65.5"/>
<text text-anchor="middle" x="1029" y="-73.5" font-family="Helvetica,sans-Serif" font-size="10.00">opencv/highgui.h</text>
</g>
<!-- Node2&#45;&gt;Node11 -->
<g id="edge20" class="edge"><title>Node2&#45;&gt;Node11</title>
<path fill="none" stroke="midnightblue" d="M780.063,-137.478C788.459,-134.88 797.533,-132.211 806,-130 880.305,-110.599 900.901,-114.174 975,-94 979.756,-92.7052 984.708,-91.2318 989.6,-89.6984"/>
<polygon fill="midnightblue" stroke="midnightblue" points="991.036,-92.9125 999.473,-86.5047 988.881,-86.2522 991.036,-92.9125"/>
</g>
<!-- Node12 -->
<g id="node23" class="node"><title>Node12</title>
<polygon fill="white" stroke="#bfbfbf" points="1092,-65.5 1092,-86.5 1154,-86.5 1154,-65.5 1092,-65.5"/>
<text text-anchor="middle" x="1123" y="-73.5" font-family="Helvetica,sans-Serif" font-size="10.00">osg/Group</text>
</g>
<!-- Node2&#45;&gt;Node12 -->
<g id="edge22" class="edge"><title>Node2&#45;&gt;Node12</title>
<path fill="none" stroke="midnightblue" d="M778.44,-137.477C787.25,-134.726 796.936,-131.98 806,-130 927.286,-103.504 963.554,-127.837 1083,-94 1086.4,-93.0368 1089.88,-91.8313 1093.3,-90.5031"/>
<polygon fill="midnightblue" stroke="midnightblue" points="1094.83,-93.6574 1102.67,-86.5338 1092.1,-87.212 1094.83,-93.6574"/>
</g>
<!-- Node13 -->
<g id="node25" class="node"><title>Node13</title>
<polygon fill="white" stroke="#bfbfbf" points="1171.5,-65.5 1171.5,-86.5 1252.5,-86.5 1252.5,-65.5 1171.5,-65.5"/>
<text text-anchor="middle" x="1212" y="-73.5" font-family="Helvetica,sans-Serif" font-size="10.00">osg/Texture2D</text>
</g>
<!-- Node2&#45;&gt;Node13 -->
<g id="edge24" class="edge"><title>Node2&#45;&gt;Node13</title>
<path fill="none" stroke="midnightblue" d="M777.806,-137.496C786.773,-134.678 796.702,-131.892 806,-130 962.27,-98.2069 1007.59,-129.777 1163,-94 1167.72,-92.9135 1172.6,-91.4963 1177.38,-89.9338"/>
<polygon fill="midnightblue" stroke="midnightblue" points="1178.66,-93.1939 1186.94,-86.5818 1176.34,-86.5883 1178.66,-93.1939"/>
</g>
<!-- Node14 -->
<g id="node27" class="node"><title>Node14</title>
<a xlink:href="../../d8/da6/cave__camera__display_2src_2_my_sock_8h.html" target="_top" xlink:title="MySock.h">
<polygon fill="white" stroke="black" points="1269.5,-65.5 1269.5,-86.5 1330.5,-86.5 1330.5,-65.5 1269.5,-65.5"/>
<text text-anchor="middle" x="1300" y="-73.5" font-family="Helvetica,sans-Serif" font-size="10.00">MySock.h</text>
</a>
</g>
<!-- Node2&#45;&gt;Node14 -->
<g id="edge26" class="edge"><title>Node2&#45;&gt;Node14</title>
<path fill="none" stroke="midnightblue" d="M777.482,-137.464C786.526,-134.609 796.578,-131.811 806,-130 1005.21,-91.7015 1064.74,-145.303 1261,-94 1264.42,-93.1053 1267.92,-91.9242 1271.34,-90.5934"/>
<polygon fill="midnightblue" stroke="midnightblue" points="1272.87,-93.7421 1280.66,-86.5605 1270.09,-87.317 1272.87,-93.7421"/>
</g>
<!-- Node14&#45;&gt;Node8 -->
<g id="edge42" class="edge"><title>Node14&#45;&gt;Node8</title>
<path fill="none" stroke="midnightblue" d="M1280.24,-65.3463C1274.22,-62.524 1267.47,-59.7729 1261,-58 1220.46,-46.897 937.357,-22.3108 837.649,-13.893"/>
<polygon fill="midnightblue" stroke="midnightblue" points="837.76,-10.39 827.501,-13.0386 837.172,-17.3653 837.76,-10.39"/>
</g>
<!-- Node15 -->
<g id="node29" class="node"><title>Node15</title>
<polygon fill="white" stroke="#bfbfbf" points="953,-0.5 953,-21.5 999,-21.5 999,-0.5 953,-0.5"/>
<text text-anchor="middle" x="976" y="-8.5" font-family="Helvetica,sans-Serif" font-size="10.00">dlfcn.h</text>
</g>
<!-- Node14&#45;&gt;Node15 -->
<g id="edge28" class="edge"><title>Node14&#45;&gt;Node15</title>
<path fill="none" stroke="midnightblue" d="M1279.79,-65.3176C1273.87,-62.5641 1267.29,-59.8569 1261,-58 1155.15,-26.7727 1120.39,-47.3376 1009.19,-21.9124"/>
<polygon fill="midnightblue" stroke="midnightblue" points="1009.8,-18.4615 999.267,-19.5697 1008.2,-25.2742 1009.8,-18.4615"/>
</g>
<!-- Node16 -->
<g id="node31" class="node"><title>Node16</title>
<polygon fill="white" stroke="#bfbfbf" points="1017,-0.5 1017,-21.5 1085,-21.5 1085,-0.5 1017,-0.5"/>
<text text-anchor="middle" x="1051" y="-8.5" font-family="Helvetica,sans-Serif" font-size="10.00">sys/types.h</text>
</g>
<!-- Node14&#45;&gt;Node16 -->
<g id="edge30" class="edge"><title>Node14&#45;&gt;Node16</title>
<path fill="none" stroke="midnightblue" d="M1279.29,-65.4172C1273.48,-62.7298 1267.08,-60.0318 1261,-58 1191.94,-34.9322 1169.72,-39.0131 1095.11,-22.1645"/>
<polygon fill="midnightblue" stroke="midnightblue" points="1095.77,-18.7254 1085.24,-19.884 1094.19,-25.5457 1095.77,-18.7254"/>
</g>
<!-- Node17 -->
<g id="node33" class="node"><title>Node17</title>
<polygon fill="white" stroke="#bfbfbf" points="1102.5,-0.5 1102.5,-21.5 1175.5,-21.5 1175.5,-0.5 1102.5,-0.5"/>
<text text-anchor="middle" x="1139" y="-8.5" font-family="Helvetica,sans-Serif" font-size="10.00">sys/socket.h</text>
</g>
<!-- Node14&#45;&gt;Node17 -->
<g id="edge32" class="edge"><title>Node14&#45;&gt;Node17</title>
<path fill="none" stroke="midnightblue" d="M1277.84,-65.4695C1272.36,-62.9527 1266.49,-60.3235 1261,-58 1233.44,-46.3452 1201.91,-34.2297 1177.81,-25.2189"/>
<polygon fill="midnightblue" stroke="midnightblue" points="1178.89,-21.8878 1168.3,-21.6806 1176.45,-28.4483 1178.89,-21.8878"/>
</g>
<!-- Node18 -->
<g id="node35" class="node"><title>Node18</title>
<polygon fill="white" stroke="#bfbfbf" points="1192.5,-0.5 1192.5,-21.5 1257.5,-21.5 1257.5,-0.5 1192.5,-0.5"/>
<text text-anchor="middle" x="1225" y="-8.5" font-family="Helvetica,sans-Serif" font-size="10.00">netinet/in.h</text>
</g>
<!-- Node14&#45;&gt;Node18 -->
<g id="edge34" class="edge"><title>Node14&#45;&gt;Node18</title>
<path fill="none" stroke="midnightblue" d="M1287.62,-65.2666C1276.04,-55.2334 1258.55,-40.078 1245,-28.3311"/>
<polygon fill="midnightblue" stroke="midnightblue" points="1247,-25.4381 1237.15,-21.5337 1242.42,-30.728 1247,-25.4381"/>
</g>
<!-- Node19 -->
<g id="node37" class="node"><title>Node19</title>
<polygon fill="white" stroke="#bfbfbf" points="1274.5,-0.5 1274.5,-21.5 1325.5,-21.5 1325.5,-0.5 1274.5,-0.5"/>
<text text-anchor="middle" x="1300" y="-8.5" font-family="Helvetica,sans-Serif" font-size="10.00">unistd.h</text>
</g>
<!-- Node14&#45;&gt;Node19 -->
<g id="edge36" class="edge"><title>Node14&#45;&gt;Node19</title>
<path fill="none" stroke="midnightblue" d="M1300,-65.2666C1300,-56.1799 1300,-42.8919 1300,-31.7395"/>
<polygon fill="midnightblue" stroke="midnightblue" points="1303.5,-31.5337 1300,-21.5337 1296.5,-31.5337 1303.5,-31.5337"/>
</g>
<!-- Node20 -->
<g id="node39" class="node"><title>Node20</title>
<polygon fill="white" stroke="#bfbfbf" points="1342.5,-0.5 1342.5,-21.5 1391.5,-21.5 1391.5,-0.5 1342.5,-0.5"/>
<text text-anchor="middle" x="1367" y="-8.5" font-family="Helvetica,sans-Serif" font-size="10.00">netdb.h</text>
</g>
<!-- Node14&#45;&gt;Node20 -->
<g id="edge38" class="edge"><title>Node14&#45;&gt;Node20</title>
<path fill="none" stroke="midnightblue" d="M1311.06,-65.2666C1321.31,-55.328 1336.73,-40.3635 1348.79,-28.6645"/>
<polygon fill="midnightblue" stroke="midnightblue" points="1351.4,-31.009 1356.14,-21.5337 1346.53,-25.9848 1351.4,-31.009"/>
</g>
<!-- Node21 -->
<g id="node41" class="node"><title>Node21</title>
<polygon fill="white" stroke="#bfbfbf" points="1409,-0.5 1409,-21.5 1453,-21.5 1453,-0.5 1409,-0.5"/>
<text text-anchor="middle" x="1431" y="-8.5" font-family="Helvetica,sans-Serif" font-size="10.00">fcntl.h</text>
</g>
<!-- Node14&#45;&gt;Node21 -->
<g id="edge40" class="edge"><title>Node14&#45;&gt;Node21</title>
<path fill="none" stroke="midnightblue" d="M1321.34,-65.412C1342.84,-54.7413 1376.24,-38.1717 1400.53,-26.1198"/>
<polygon fill="midnightblue" stroke="midnightblue" points="1402.27,-29.1636 1409.67,-21.5835 1399.16,-22.8931 1402.27,-29.1636"/>
</g>
<!-- Node22 -->
<g id="node44" class="node"><title>Node22</title>
<polygon fill="white" stroke="#bfbfbf" points="1471,-0.5 1471,-21.5 1519,-21.5 1519,-0.5 1471,-0.5"/>
<text text-anchor="middle" x="1495" y="-8.5" font-family="Helvetica,sans-Serif" font-size="10.00">stdlib.h</text>
</g>
<!-- Node14&#45;&gt;Node22 -->
<g id="edge44" class="edge"><title>Node14&#45;&gt;Node22</title>
<path fill="none" stroke="midnightblue" d="M1330.9,-65.7006C1366.34,-53.8883 1424.26,-34.5812 1460.96,-22.3462"/>
<polygon fill="midnightblue" stroke="midnightblue" points="1462.34,-25.5777 1470.72,-19.095 1460.12,-18.9369 1462.34,-25.5777"/>
</g>
<!-- Node23 -->
<g id="node46" class="node"><title>Node23</title>
<polygon fill="white" stroke="#bfbfbf" points="1537,-0.5 1537,-21.5 1583,-21.5 1583,-0.5 1537,-0.5"/>
<text text-anchor="middle" x="1560" y="-8.5" font-family="Helvetica,sans-Serif" font-size="10.00">stdio.h</text>
</g>
<!-- Node14&#45;&gt;Node23 -->
<g id="edge46" class="edge"><title>Node14&#45;&gt;Node23</title>
<path fill="none" stroke="midnightblue" d="M1330.86,-69.7017C1373.11,-60.8587 1451.48,-43.6787 1527,-22.1095"/>
<polygon fill="midnightblue" stroke="midnightblue" points="1528.03,-25.4543 1536.67,-19.3182 1526.09,-18.7288 1528.03,-25.4543"/>
</g>
</g>
</svg>
