<?xml version="1.0" encoding="UTF-8" standalone="no"?>
<!DOCTYPE svg PUBLIC "-//W3C//DTD SVG 1.1//EN"
 "http://www.w3.org/Graphics/SVG/1.1/DTD/svg11.dtd">
<!-- Generated by graphviz version 2.26.3 (20100126.1600)
 -->
<!-- Title: /home/kavonszadkowski/limes&#45;dev/simulation/mars/sim/src/core/NodeManager.cpp Pages: 1 -->
<svg width="2417pt" height="330pt"
 viewBox="0.00 0.00 2417.00 330.00" xmlns="http://www.w3.org/2000/svg" xmlns:xlink="http://www.w3.org/1999/xlink">
<g id="graph1" class="graph" transform="scale(1 1) rotate(0) translate(4 326)">
<title>/home/kavonszadkowski/limes&#45;dev/simulation/mars/sim/src/core/NodeManager.cpp</title>
<polygon fill="white" stroke="white" points="-4,5 -4,-326 2414,-326 2414,5 -4,5"/>
<!-- Node1 -->
<g id="node1" class="node"><title>Node1</title>
<polygon fill="#bfbfbf" stroke="black" points="1372.5,-274.5 1372.5,-321.5 1553.5,-321.5 1553.5,-274.5 1372.5,-274.5"/>
<text text-anchor="start" x="1380.5" y="-308.5" font-family="Helvetica,sans-Serif" font-size="10.00">/home/kavonszadkowski</text>
<text text-anchor="start" x="1380.5" y="-295.5" font-family="Helvetica,sans-Serif" font-size="10.00">/limes&#45;dev/simulation</text>
<text text-anchor="middle" x="1463" y="-282.5" font-family="Helvetica,sans-Serif" font-size="10.00">/mars/sim/src/core/NodeManager.cpp</text>
</g>
<!-- Node2 -->
<g id="node3" class="node"><title>Node2</title>
<a xlink:href="../../df/d73/_sim_node_8h.html" target="_top" xlink:title="SimNode.h">
<polygon fill="white" stroke="black" points="824.5,-144.5 824.5,-165.5 889.5,-165.5 889.5,-144.5 824.5,-144.5"/>
<text text-anchor="middle" x="857" y="-152.5" font-family="Helvetica,sans-Serif" font-size="10.00">SimNode.h</text>
</a>
</g>
<!-- Node1&#45;&gt;Node2 -->
<g id="edge2" class="edge"><title>Node1&#45;&gt;Node2</title>
<path fill="none" stroke="midnightblue" d="M1372.47,-289.188C1293.76,-280.275 1177.12,-264.043 1078,-238 1009.23,-219.932 932.174,-188.235 889.645,-169.679"/>
<polygon fill="midnightblue" stroke="midnightblue" points="890.918,-166.415 880.355,-165.594 888.101,-172.823 890.918,-166.415"/>
</g>
<!-- Node10 -->
<g id="node19" class="node"><title>Node10</title>
<a xlink:href="../../d0/ddc/_sim_joint_8h.html" target="_top" xlink:title="SimJoint.h">
<polygon fill="white" stroke="black" points="1049.5,-144.5 1049.5,-165.5 1112.5,-165.5 1112.5,-144.5 1049.5,-144.5"/>
<text text-anchor="middle" x="1081" y="-152.5" font-family="Helvetica,sans-Serif" font-size="10.00">SimJoint.h</text>
</a>
</g>
<!-- Node1&#45;&gt;Node10 -->
<g id="edge18" class="edge"><title>Node1&#45;&gt;Node10</title>
<path fill="none" stroke="midnightblue" d="M1372.13,-294.306C1277.66,-288.55 1138.33,-274.05 1100,-238 1083.17,-222.168 1079.81,-194.723 1079.74,-175.751"/>
<polygon fill="midnightblue" stroke="midnightblue" points="1083.24,-175.8 1080.01,-165.711 1076.24,-175.615 1083.24,-175.8"/>
</g>
<!-- Node12 -->
<g id="node25" class="node"><title>Node12</title>
<a xlink:href="../../d1/ddd/_node_manager_8h.html" target="_top" xlink:title="&quot;NodeManager&quot; is the class that manage all nodes and their operations and communication between the d...">
<polygon fill="white" stroke="black" points="280,-79.5 280,-100.5 366,-100.5 366,-79.5 280,-79.5"/>
<text text-anchor="middle" x="323" y="-87.5" font-family="Helvetica,sans-Serif" font-size="10.00">NodeManager.h</text>
</a>
</g>
<!-- Node1&#45;&gt;Node12 -->
<g id="edge26" class="edge"><title>Node1&#45;&gt;Node12</title>
<path fill="none" stroke="midnightblue" d="M1372.31,-295.246C1245.96,-290.138 1010.25,-275.993 813,-238 640.196,-204.715 441.529,-134.364 360.415,-104.21"/>
<polygon fill="midnightblue" stroke="midnightblue" points="361.257,-100.788 350.664,-100.567 358.807,-107.345 361.257,-100.788"/>
</g>
<!-- Node16 -->
<g id="node34" class="node"><title>Node16</title>
<a xlink:href="../../d3/d28/_joint_manager_8h.html" target="_top" xlink:title="&quot;JointManager&quot; is the class that manage all joints and their operations and communication between the...">
<polygon fill="white" stroke="black" points="383.5,-79.5 383.5,-100.5 466.5,-100.5 466.5,-79.5 383.5,-79.5"/>
<text text-anchor="middle" x="425" y="-87.5" font-family="Helvetica,sans-Serif" font-size="10.00">JointManager.h</text>
</a>
</g>
<!-- Node1&#45;&gt;Node16 -->
<g id="edge36" class="edge"><title>Node1&#45;&gt;Node16</title>
<path fill="none" stroke="midnightblue" d="M1372.24,-290.944C1272.68,-282.285 1108.47,-265.293 969,-238 778.97,-200.813 557.768,-132.716 467.059,-103.69"/>
<polygon fill="midnightblue" stroke="midnightblue" points="468.008,-100.319 457.417,-100.594 465.868,-106.984 468.008,-100.319"/>
</g>
<!-- Node18 -->
<g id="node40" class="node"><title>Node18</title>
<a xlink:href="../../df/d11/_physics_mapper_8h.html" target="_top" xlink:title="&quot;PhysicsMapper&quot; connects the implemented interface classes to the interface objects that are handled ...">
<polygon fill="white" stroke="black" points="1109,-209.5 1109,-230.5 1201,-230.5 1201,-209.5 1109,-209.5"/>
<text text-anchor="middle" x="1155" y="-217.5" font-family="Helvetica,sans-Serif" font-size="10.00">PhysicsMapper.h</text>
</a>
</g>
<!-- Node1&#45;&gt;Node18 -->
<g id="edge44" class="edge"><title>Node1&#45;&gt;Node18</title>
<path fill="none" stroke="midnightblue" d="M1372.37,-278.433C1323.94,-267.494 1263.44,-253.054 1210,-238 1205.29,-236.674 1200.38,-235.201 1195.53,-233.685"/>
<polygon fill="midnightblue" stroke="midnightblue" points="1196.29,-230.254 1185.7,-230.547 1194.16,-236.923 1196.29,-230.254"/>
</g>
<!-- Node27 -->
<g id="node66" class="node"><title>Node27</title>
<polygon fill="white" stroke="#bfbfbf" points="1218.5,-203 1218.5,-237 1321.5,-237 1321.5,-203 1218.5,-203"/>
<text text-anchor="start" x="1226.5" y="-224" font-family="Helvetica,sans-Serif" font-size="10.00">mars/interfaces/sim</text>
<text text-anchor="middle" x="1270" y="-211" font-family="Helvetica,sans-Serif" font-size="10.00">/LoadCenter.h</text>
</g>
<!-- Node1&#45;&gt;Node27 -->
<g id="edge78" class="edge"><title>Node1&#45;&gt;Node27</title>
<path fill="none" stroke="midnightblue" d="M1404.83,-274.492C1378.36,-263.792 1347.29,-251.235 1321.65,-240.873"/>
<polygon fill="midnightblue" stroke="midnightblue" points="1322.69,-237.52 1312.11,-237.018 1320.07,-244.01 1322.69,-237.52"/>
</g>
<!-- Node28 -->
<g id="node68" class="node"><title>Node28</title>
<polygon fill="white" stroke="#bfbfbf" points="1338.5,-203 1338.5,-237 1445.5,-237 1445.5,-203 1338.5,-203"/>
<text text-anchor="start" x="1346.5" y="-224" font-family="Helvetica,sans-Serif" font-size="10.00">mars/interfaces/sim</text>
<text text-anchor="middle" x="1392" y="-211" font-family="Helvetica,sans-Serif" font-size="10.00">/SimulatorInterface.h</text>
</g>
<!-- Node1&#45;&gt;Node28 -->
<g id="edge80" class="edge"><title>Node1&#45;&gt;Node28</title>
<path fill="none" stroke="midnightblue" d="M1441.31,-274.174C1432.77,-264.793 1422.97,-254.026 1414.37,-244.574"/>
<polygon fill="midnightblue" stroke="midnightblue" points="1416.8,-242.042 1407.48,-237.003 1411.62,-246.754 1416.8,-242.042"/>
</g>
<!-- Node29 -->
<g id="node70" class="node"><title>Node29</title>
<polygon fill="white" stroke="#bfbfbf" points="1462.5,-203 1462.5,-237 1605.5,-237 1605.5,-203 1462.5,-203"/>
<text text-anchor="start" x="1470.5" y="-224" font-family="Helvetica,sans-Serif" font-size="10.00">mars/interfaces/graphics</text>
<text text-anchor="middle" x="1534" y="-211" font-family="Helvetica,sans-Serif" font-size="10.00">/GraphicsManagerInterface.h</text>
</g>
<!-- Node1&#45;&gt;Node29 -->
<g id="edge82" class="edge"><title>Node1&#45;&gt;Node29</title>
<path fill="none" stroke="midnightblue" d="M1484.69,-274.174C1493.23,-264.793 1503.03,-254.026 1511.63,-244.574"/>
<polygon fill="midnightblue" stroke="midnightblue" points="1514.38,-246.754 1518.52,-237.003 1509.2,-242.042 1514.38,-246.754"/>
</g>
<!-- Node30 -->
<g id="node72" class="node"><title>Node30</title>
<polygon fill="white" stroke="#bfbfbf" points="1622.5,-209.5 1622.5,-230.5 1771.5,-230.5 1771.5,-209.5 1622.5,-209.5"/>
<text text-anchor="middle" x="1697" y="-217.5" font-family="Helvetica,sans-Serif" font-size="10.00">mars/interfaces/terrainStruct.h</text>
</g>
<!-- Node1&#45;&gt;Node30 -->
<g id="edge84" class="edge"><title>Node1&#45;&gt;Node30</title>
<path fill="none" stroke="midnightblue" d="M1533.53,-274.492C1573.45,-261.182 1622,-244.999 1655.77,-233.742"/>
<polygon fill="midnightblue" stroke="midnightblue" points="1656.94,-237.042 1665.32,-230.56 1654.73,-230.402 1656.94,-237.042"/>
</g>
<!-- Node31 -->
<g id="node74" class="node"><title>Node31</title>
<polygon fill="white" stroke="#bfbfbf" points="1789,-209.5 1789,-230.5 1929,-230.5 1929,-209.5 1789,-209.5"/>
<text text-anchor="middle" x="1859" y="-217.5" font-family="Helvetica,sans-Serif" font-size="10.00">mars/interfaces/Logging.hpp</text>
</g>
<!-- Node1&#45;&gt;Node31 -->
<g id="edge86" class="edge"><title>Node1&#45;&gt;Node31</title>
<path fill="none" stroke="midnightblue" d="M1553.7,-281.752C1617.19,-270.155 1703.92,-253.862 1780,-238 1787.83,-236.367 1796.08,-234.571 1804.18,-232.766"/>
<polygon fill="midnightblue" stroke="midnightblue" points="1804.96,-236.179 1813.94,-230.568 1803.42,-229.35 1804.96,-236.179"/>
</g>
<!-- Node32 -->
<g id="node76" class="node"><title>Node32</title>
<polygon fill="white" stroke="#bfbfbf" points="1946.5,-209.5 1946.5,-230.5 2059.5,-230.5 2059.5,-209.5 1946.5,-209.5"/>
<text text-anchor="middle" x="2003" y="-217.5" font-family="Helvetica,sans-Serif" font-size="10.00">mars/interfaces/utils.h</text>
</g>
<!-- Node1&#45;&gt;Node32 -->
<g id="edge88" class="edge"><title>Node1&#45;&gt;Node32</title>
<path fill="none" stroke="midnightblue" d="M1553.81,-290.463C1649.87,-281.574 1805.57,-264.557 1938,-238 1944.71,-236.654 1951.75,-234.985 1958.61,-233.209"/>
<polygon fill="midnightblue" stroke="midnightblue" points="1959.73,-236.532 1968.48,-230.558 1957.91,-229.772 1959.73,-236.532"/>
</g>
<!-- Node33 -->
<g id="node78" class="node"><title>Node33</title>
<polygon fill="white" stroke="#bfbfbf" points="2076.5,-209.5 2076.5,-230.5 2189.5,-230.5 2189.5,-209.5 2076.5,-209.5"/>
<text text-anchor="middle" x="2133" y="-217.5" font-family="Helvetica,sans-Serif" font-size="10.00">mars/utils/mathUtils.h</text>
</g>
<!-- Node1&#45;&gt;Node33 -->
<g id="edge90" class="edge"><title>Node1&#45;&gt;Node33</title>
<path fill="none" stroke="midnightblue" d="M1553.63,-293.861C1672.54,-287.326 1887.33,-271.717 2068,-238 2074.88,-236.715 2082.1,-235.049 2089.11,-233.249"/>
<polygon fill="midnightblue" stroke="midnightblue" points="2090.43,-236.518 2099.18,-230.545 2088.62,-229.757 2090.43,-236.518"/>
</g>
<!-- Node34 -->
<g id="node80" class="node"><title>Node34</title>
<polygon fill="white" stroke="#bfbfbf" points="2206.5,-209.5 2206.5,-230.5 2265.5,-230.5 2265.5,-209.5 2206.5,-209.5"/>
<text text-anchor="middle" x="2236" y="-217.5" font-family="Helvetica,sans-Serif" font-size="10.00">stdexcept</text>
</g>
<!-- Node1&#45;&gt;Node34 -->
<g id="edge92" class="edge"><title>Node1&#45;&gt;Node34</title>
<path fill="none" stroke="midnightblue" d="M1553.61,-294.673C1722.43,-287.801 2078.82,-269.949 2198,-238 2201.24,-237.131 2204.55,-235.992 2207.79,-234.71"/>
<polygon fill="midnightblue" stroke="midnightblue" points="2209.45,-237.801 2217.18,-230.556 2206.62,-231.399 2209.45,-237.801"/>
</g>
<!-- Node35 -->
<g id="node82" class="node"><title>Node35</title>
<polygon fill="white" stroke="#bfbfbf" points="2282.5,-209.5 2282.5,-230.5 2409.5,-230.5 2409.5,-209.5 2282.5,-209.5"/>
<text text-anchor="middle" x="2346" y="-217.5" font-family="Helvetica,sans-Serif" font-size="10.00">mars/utils/MutexLocker.h</text>
</g>
<!-- Node1&#45;&gt;Node35 -->
<g id="edge94" class="edge"><title>Node1&#45;&gt;Node35</title>
<path fill="none" stroke="midnightblue" d="M1553.59,-296.345C1704.09,-292.47 2014.73,-279.685 2274,-238 2282.14,-236.691 2290.71,-234.912 2298.98,-232.98"/>
<polygon fill="midnightblue" stroke="midnightblue" points="2299.99,-236.336 2308.88,-230.568 2298.34,-229.535 2299.99,-236.336"/>
</g>
<!-- Node3 -->
<g id="node5" class="node"><title>Node3</title>
<polygon fill="white" stroke="#bfbfbf" points="560,-7.5 560,-28.5 658,-28.5 658,-7.5 560,-7.5"/>
<text text-anchor="middle" x="609" y="-15.5" font-family="Helvetica,sans-Serif" font-size="10.00">mars/utils/Mutex.h</text>
</g>
<!-- Node2&#45;&gt;Node3 -->
<g id="edge4" class="edge"><title>Node2&#45;&gt;Node3</title>
<path fill="none" stroke="midnightblue" d="M824.499,-152.959C742.701,-147.491 533.361,-131.332 513,-108 502.48,-95.9448 504.922,-85.8114 513,-72 523.819,-53.5015 543.562,-40.8506 562.344,-32.4726"/>
<polygon fill="midnightblue" stroke="midnightblue" points="563.833,-35.6442 571.733,-28.5844 561.154,-29.1768 563.833,-35.6442"/>
</g>
<!-- Node4 -->
<g id="node7" class="node"><title>Node4</title>
<polygon fill="white" stroke="#bfbfbf" points="885.5,-7.5 885.5,-28.5 984.5,-28.5 984.5,-7.5 885.5,-7.5"/>
<text text-anchor="middle" x="935" y="-15.5" font-family="Helvetica,sans-Serif" font-size="10.00">mars/utils/Vector.h</text>
</g>
<!-- Node2&#45;&gt;Node4 -->
<g id="edge6" class="edge"><title>Node2&#45;&gt;Node4</title>
<path fill="none" stroke="midnightblue" d="M824.045,-151.501C763.593,-143.798 644.707,-121.926 685,-72 708.427,-42.9725 808.785,-28.7871 875.004,-22.4651"/>
<polygon fill="midnightblue" stroke="midnightblue" points="875.684,-25.9175 885.322,-21.5169 875.044,-18.9468 875.684,-25.9175"/>
</g>
<!-- Node5 -->
<g id="node9" class="node"><title>Node5</title>
<polygon fill="white" stroke="#bfbfbf" points="852,-73 852,-107 986,-107 986,-73 852,-73"/>
<text text-anchor="start" x="860" y="-94" font-family="Helvetica,sans-Serif" font-size="10.00">mars/data_broker/Producer</text>
<text text-anchor="middle" x="919" y="-81" font-family="Helvetica,sans-Serif" font-size="10.00">Interface.h</text>
</g>
<!-- Node2&#45;&gt;Node5 -->
<g id="edge8" class="edge"><title>Node2&#45;&gt;Node5</title>
<path fill="none" stroke="midnightblue" d="M867.238,-144.267C874.987,-136.142 885.94,-124.659 895.777,-114.347"/>
<polygon fill="midnightblue" stroke="midnightblue" points="898.31,-116.762 902.68,-107.11 893.245,-111.93 898.31,-116.762"/>
</g>
<!-- Node6 -->
<g id="node11" class="node"><title>Node6</title>
<polygon fill="white" stroke="#bfbfbf" points="1003.5,-73 1003.5,-107 1158.5,-107 1158.5,-73 1003.5,-73"/>
<text text-anchor="start" x="1011.5" y="-94" font-family="Helvetica,sans-Serif" font-size="10.00">mars/data_broker/DataPackage</text>
<text text-anchor="middle" x="1081" y="-81" font-family="Helvetica,sans-Serif" font-size="10.00">Mapping.h</text>
</g>
<!-- Node2&#45;&gt;Node6 -->
<g id="edge10" class="edge"><title>Node2&#45;&gt;Node6</title>
<path fill="none" stroke="midnightblue" d="M889.572,-145.548C921.699,-136.226 971.792,-121.69 1012.68,-109.826"/>
<polygon fill="midnightblue" stroke="midnightblue" points="1013.69,-113.176 1022.32,-107.028 1011.74,-106.454 1013.69,-113.176"/>
</g>
<!-- Node7 -->
<g id="node13" class="node"><title>Node7</title>
<polygon fill="white" stroke="#bfbfbf" points="522,-73 522,-107 638,-107 638,-73 522,-73"/>
<text text-anchor="start" x="530" y="-94" font-family="Helvetica,sans-Serif" font-size="10.00">mars/interfaces/sensor</text>
<text text-anchor="middle" x="580" y="-81" font-family="Helvetica,sans-Serif" font-size="10.00">_bases.h</text>
</g>
<!-- Node2&#45;&gt;Node7 -->
<g id="edge12" class="edge"><title>Node2&#45;&gt;Node7</title>
<path fill="none" stroke="midnightblue" d="M824.289,-147.708C783.789,-138.632 712.72,-122.549 652,-108 650.731,-107.696 649.45,-107.388 648.16,-107.077"/>
<polygon fill="midnightblue" stroke="midnightblue" points="648.679,-103.601 638.135,-104.638 647.024,-110.402 648.679,-103.601"/>
</g>
<!-- Node8 -->
<g id="node15" class="node"><title>Node8</title>
<polygon fill="white" stroke="#bfbfbf" points="694,-79.5 694,-100.5 834,-100.5 834,-79.5 694,-79.5"/>
<text text-anchor="middle" x="764" y="-87.5" font-family="Helvetica,sans-Serif" font-size="10.00">mars/interfaces/nodeState.h</text>
</g>
<!-- Node2&#45;&gt;Node8 -->
<g id="edge14" class="edge"><title>Node2&#45;&gt;Node8</title>
<path fill="none" stroke="midnightblue" d="M841.643,-144.267C826.881,-133.949 804.371,-118.216 787.382,-106.342"/>
<polygon fill="midnightblue" stroke="midnightblue" points="789.273,-103.394 779.071,-100.534 785.263,-109.131 789.273,-103.394"/>
</g>
<!-- Node9 -->
<g id="node17" class="node"><title>Node9</title>
<polygon fill="white" stroke="#bfbfbf" points="1295.5,-73 1295.5,-107 1398.5,-107 1398.5,-73 1295.5,-73"/>
<text text-anchor="start" x="1303.5" y="-94" font-family="Helvetica,sans-Serif" font-size="10.00">mars/interfaces/sim</text>
<text text-anchor="middle" x="1347" y="-81" font-family="Helvetica,sans-Serif" font-size="10.00">/NodeInterface.h</text>
</g>
<!-- Node2&#45;&gt;Node9 -->
<g id="edge16" class="edge"><title>Node2&#45;&gt;Node9</title>
<path fill="none" stroke="midnightblue" d="M889.677,-153.467C960.394,-149.715 1132.92,-138.222 1285.43,-108.129"/>
<polygon fill="midnightblue" stroke="midnightblue" points="1286.33,-111.518 1295.44,-106.119 1284.95,-104.655 1286.33,-111.518"/>
</g>
<!-- Node10&#45;&gt;Node5 -->
<g id="edge22" class="edge"><title>Node10&#45;&gt;Node5</title>
<path fill="none" stroke="midnightblue" d="M1054.61,-144.412C1032.07,-135.37 998.981,-122.091 971.127,-110.915"/>
<polygon fill="midnightblue" stroke="midnightblue" points="972.104,-107.536 961.52,-107.06 969.497,-114.033 972.104,-107.536"/>
</g>
<!-- Node10&#45;&gt;Node6 -->
<g id="edge24" class="edge"><title>Node10&#45;&gt;Node6</title>
<path fill="none" stroke="midnightblue" d="M1081,-144.267C1081,-136.931 1081,-126.857 1081,-117.38"/>
<polygon fill="midnightblue" stroke="midnightblue" points="1084.5,-117.11 1081,-107.11 1077.5,-117.11 1084.5,-117.11"/>
</g>
<!-- Node11 -->
<g id="node21" class="node"><title>Node11</title>
<polygon fill="white" stroke="#bfbfbf" points="1175.5,-73 1175.5,-107 1278.5,-107 1278.5,-73 1175.5,-73"/>
<text text-anchor="start" x="1183.5" y="-94" font-family="Helvetica,sans-Serif" font-size="10.00">mars/interfaces/sim</text>
<text text-anchor="middle" x="1227" y="-81" font-family="Helvetica,sans-Serif" font-size="10.00">/JointInterface.h</text>
</g>
<!-- Node10&#45;&gt;Node11 -->
<g id="edge20" class="edge"><title>Node10&#45;&gt;Node11</title>
<path fill="none" stroke="midnightblue" d="M1104.78,-144.412C1124.92,-135.448 1154.4,-122.323 1179.36,-111.209"/>
<polygon fill="midnightblue" stroke="midnightblue" points="1180.97,-114.325 1188.68,-107.06 1178.12,-107.93 1180.97,-114.325"/>
</g>
<!-- Node12&#45;&gt;Node3 -->
<g id="edge28" class="edge"><title>Node12&#45;&gt;Node3</title>
<path fill="none" stroke="midnightblue" d="M351.397,-79.4147C359.002,-76.7883 367.261,-74.1212 375,-72 452.002,-50.8959 473.667,-55.8569 551,-36 556.297,-34.6398 561.83,-33.0917 567.284,-31.4878"/>
<polygon fill="midnightblue" stroke="midnightblue" points="568.388,-34.8104 576.949,-28.5688 566.365,-28.1093 568.388,-34.8104"/>
</g>
<!-- Node13 -->
<g id="node28" class="node"><title>Node13</title>
<polygon fill="white" stroke="#bfbfbf" points="143.5,-1 143.5,-35 280.5,-35 280.5,-1 143.5,-1"/>
<text text-anchor="start" x="151.5" y="-22" font-family="Helvetica,sans-Serif" font-size="10.00">mars/interfaces/graphics</text>
<text text-anchor="middle" x="212" y="-9" font-family="Helvetica,sans-Serif" font-size="10.00">/GraphicsUpdateInterface.h</text>
</g>
<!-- Node12&#45;&gt;Node13 -->
<g id="edge30" class="edge"><title>Node12&#45;&gt;Node13</title>
<path fill="none" stroke="midnightblue" d="M306.622,-79.3762C290.967,-69.2219 266.864,-53.5872 246.903,-40.6395"/>
<polygon fill="midnightblue" stroke="midnightblue" points="248.648,-37.6 238.354,-35.0944 244.839,-43.4727 248.648,-37.6"/>
</g>
<!-- Node14 -->
<g id="node30" class="node"><title>Node14</title>
<polygon fill="white" stroke="#bfbfbf" points="439.5,-1 439.5,-35 542.5,-35 542.5,-1 439.5,-1"/>
<text text-anchor="start" x="447.5" y="-22" font-family="Helvetica,sans-Serif" font-size="10.00">mars/interfaces/sim</text>
<text text-anchor="middle" x="491" y="-9" font-family="Helvetica,sans-Serif" font-size="10.00">/ControlCenter.h</text>
</g>
<!-- Node12&#45;&gt;Node14 -->
<g id="edge32" class="edge"><title>Node12&#45;&gt;Node14</title>
<path fill="none" stroke="midnightblue" d="M347.789,-79.3762C372.439,-68.8121 410.929,-52.3163 441.801,-39.0855"/>
<polygon fill="midnightblue" stroke="midnightblue" points="443.3,-42.2506 451.113,-35.0944 440.543,-35.8166 443.3,-42.2506"/>
</g>
<!-- Node15 -->
<g id="node32" class="node"><title>Node15</title>
<polygon fill="white" stroke="#bfbfbf" points="-0.5,-1 -0.5,-35 126.5,-35 126.5,-1 -0.5,-1"/>
<text text-anchor="start" x="7.5" y="-22" font-family="Helvetica,sans-Serif" font-size="10.00">mars/interfaces/sim</text>
<text text-anchor="middle" x="63" y="-9" font-family="Helvetica,sans-Serif" font-size="10.00">/NodeManagerInterface.h</text>
</g>
<!-- Node12&#45;&gt;Node15 -->
<g id="edge34" class="edge"><title>Node12&#45;&gt;Node15</title>
<path fill="none" stroke="midnightblue" d="M284.915,-79.4535C245.526,-68.5456 183.086,-51.2546 134.459,-37.7886"/>
<polygon fill="midnightblue" stroke="midnightblue" points="135.189,-34.3591 124.617,-35.0633 133.321,-41.1052 135.189,-34.3591"/>
</g>
<!-- Node16&#45;&gt;Node3 -->
<g id="edge42" class="edge"><title>Node16&#45;&gt;Node3</title>
<path fill="none" stroke="midnightblue" d="M452.15,-79.3762C484.04,-66.8975 537.081,-46.1422 572.537,-32.2682"/>
<polygon fill="midnightblue" stroke="midnightblue" points="574.002,-35.4536 582.039,-28.5501 571.451,-28.9348 574.002,-35.4536"/>
</g>
<!-- Node16&#45;&gt;Node14 -->
<g id="edge38" class="edge"><title>Node16&#45;&gt;Node14</title>
<path fill="none" stroke="midnightblue" d="M434.739,-79.3762C443.587,-69.7228 456.977,-55.1163 468.474,-42.5741"/>
<polygon fill="midnightblue" stroke="midnightblue" points="471.153,-44.831 475.33,-35.0944 465.993,-40.1009 471.153,-44.831"/>
</g>
<!-- Node17 -->
<g id="node37" class="node"><title>Node17</title>
<polygon fill="white" stroke="#bfbfbf" points="297.5,-1 297.5,-35 422.5,-35 422.5,-1 297.5,-1"/>
<text text-anchor="start" x="305.5" y="-22" font-family="Helvetica,sans-Serif" font-size="10.00">mars/interfaces/sim</text>
<text text-anchor="middle" x="360" y="-9" font-family="Helvetica,sans-Serif" font-size="10.00">/JointManagerInterface.h</text>
</g>
<!-- Node16&#45;&gt;Node17 -->
<g id="edge40" class="edge"><title>Node16&#45;&gt;Node17</title>
<path fill="none" stroke="midnightblue" d="M415.409,-79.3762C406.694,-69.7228 393.508,-55.1163 382.185,-42.5741"/>
<polygon fill="midnightblue" stroke="midnightblue" points="384.731,-40.1717 375.432,-35.0944 379.536,-44.8624 384.731,-40.1717"/>
</g>
<!-- Node19 -->
<g id="node42" class="node"><title>Node19</title>
<a xlink:href="../../d6/d89/_world_physics_8h.html" target="_top" xlink:title="&quot;WorldPhysics&quot; includes the methods to handle the physically world. ">
<polygon fill="white" stroke="black" points="1416,-79.5 1416,-100.5 1502,-100.5 1502,-79.5 1416,-79.5"/>
<text text-anchor="middle" x="1459" y="-87.5" font-family="Helvetica,sans-Serif" font-size="10.00">WorldPhysics.h</text>
</a>
</g>
<!-- Node18&#45;&gt;Node19 -->
<g id="edge46" class="edge"><title>Node18&#45;&gt;Node19</title>
<path fill="none" stroke="midnightblue" d="M1184.77,-209.499C1192.89,-206.843 1201.73,-204.14 1210,-202 1291.94,-180.795 1324.33,-209.395 1397,-166 1419.82,-152.372 1437.86,-127.108 1448.47,-109.464"/>
<polygon fill="midnightblue" stroke="midnightblue" points="1451.63,-110.982 1453.58,-100.568 1445.56,-107.495 1451.63,-110.982"/>
</g>
<!-- Node25 -->
<g id="node57" class="node"><title>Node25</title>
<a xlink:href="../../d7/d43/_node_physics_8h.html" target="_top" xlink:title="&quot;NodePhysics&quot; implements the physical ode stuff for the nodes. ">
<polygon fill="white" stroke="black" points="1305.5,-144.5 1305.5,-165.5 1388.5,-165.5 1388.5,-144.5 1305.5,-144.5"/>
<text text-anchor="middle" x="1347" y="-152.5" font-family="Helvetica,sans-Serif" font-size="10.00">NodePhysics.h</text>
</a>
</g>
<!-- Node18&#45;&gt;Node25 -->
<g id="edge64" class="edge"><title>Node18&#45;&gt;Node25</title>
<path fill="none" stroke="midnightblue" d="M1186.28,-209.412C1218.91,-198.364 1270.23,-180.991 1306.07,-168.857"/>
<polygon fill="midnightblue" stroke="midnightblue" points="1307.39,-172.105 1315.74,-165.584 1305.14,-165.475 1307.39,-172.105"/>
</g>
<!-- Node26 -->
<g id="node61" class="node"><title>Node26</title>
<a xlink:href="../../dd/dbe/_joint_physics_8h.html" target="_top" xlink:title="JointPhysics.h">
<polygon fill="white" stroke="black" points="1196.5,-144.5 1196.5,-165.5 1277.5,-165.5 1277.5,-144.5 1196.5,-144.5"/>
<text text-anchor="middle" x="1237" y="-152.5" font-family="Helvetica,sans-Serif" font-size="10.00">JointPhysics.h</text>
</a>
</g>
<!-- Node18&#45;&gt;Node26 -->
<g id="edge70" class="edge"><title>Node18&#45;&gt;Node26</title>
<path fill="none" stroke="midnightblue" d="M1168.54,-209.267C1181.32,-199.139 1200.68,-183.792 1215.55,-172"/>
<polygon fill="midnightblue" stroke="midnightblue" points="1218.05,-174.488 1223.71,-165.534 1213.7,-169.003 1218.05,-174.488"/>
</g>
<!-- Node19&#45;&gt;Node3 -->
<g id="edge48" class="edge"><title>Node19&#45;&gt;Node3</title>
<path fill="none" stroke="midnightblue" d="M1432.93,-79.4574C1424.75,-76.5664 1415.61,-73.7496 1407,-72 1404.73,-71.5395 852.67,-34.3863 668.219,-21.9815"/>
<polygon fill="midnightblue" stroke="midnightblue" points="668.37,-18.4839 658.158,-21.3049 667.9,-25.4681 668.37,-18.4839"/>
</g>
<!-- Node19&#45;&gt;Node4 -->
<g id="edge50" class="edge"><title>Node19&#45;&gt;Node4</title>
<path fill="none" stroke="midnightblue" d="M1432.07,-79.4207C1424.1,-76.6351 1415.29,-73.8852 1407,-72 1261.02,-38.8078 1084.77,-25.5373 994.56,-20.6247"/>
<polygon fill="midnightblue" stroke="midnightblue" points="994.691,-17.1268 984.52,-20.0933 994.321,-24.117 994.691,-17.1268"/>
</g>
<!-- Node19&#45;&gt;Node14 -->
<g id="edge54" class="edge"><title>Node19&#45;&gt;Node14</title>
<path fill="none" stroke="midnightblue" d="M1433.22,-79.4163C1424.98,-76.486 1415.73,-73.6573 1407,-72 1036.19,-1.59395 928.391,-97.4855 552.577,-36.0167"/>
<polygon fill="midnightblue" stroke="midnightblue" points="552.955,-32.5316 542.517,-34.3443 551.807,-39.4369 552.955,-32.5316"/>
</g>
<!-- Node20 -->
<g id="node46" class="node"><title>Node20</title>
<polygon fill="white" stroke="#bfbfbf" points="1287.5,-1 1287.5,-35 1390.5,-35 1390.5,-1 1287.5,-1"/>
<text text-anchor="start" x="1295.5" y="-22" font-family="Helvetica,sans-Serif" font-size="10.00">mars/interfaces/sim</text>
<text text-anchor="middle" x="1339" y="-9" font-family="Helvetica,sans-Serif" font-size="10.00">_common.h</text>
</g>
<!-- Node19&#45;&gt;Node20 -->
<g id="edge52" class="edge"><title>Node19&#45;&gt;Node20</title>
<path fill="none" stroke="midnightblue" d="M1441.29,-79.3762C1424.22,-69.1308 1397.84,-53.3063 1376.15,-40.2918"/>
<polygon fill="midnightblue" stroke="midnightblue" points="1377.87,-37.2381 1367.49,-35.0944 1374.26,-43.2406 1377.87,-37.2381"/>
</g>
<!-- Node21 -->
<g id="node49" class="node"><title>Node21</title>
<polygon fill="white" stroke="#bfbfbf" points="1407.5,-1 1407.5,-35 1510.5,-35 1510.5,-1 1407.5,-1"/>
<text text-anchor="start" x="1415.5" y="-22" font-family="Helvetica,sans-Serif" font-size="10.00">mars/interfaces/sim</text>
<text text-anchor="middle" x="1459" y="-9" font-family="Helvetica,sans-Serif" font-size="10.00">/PhysicsInterface.h</text>
</g>
<!-- Node19&#45;&gt;Node21 -->
<g id="edge56" class="edge"><title>Node19&#45;&gt;Node21</title>
<path fill="none" stroke="midnightblue" d="M1459,-79.3762C1459,-70.4513 1459,-57.2928 1459,-45.4461"/>
<polygon fill="midnightblue" stroke="midnightblue" points="1462.5,-45.0943 1459,-35.0944 1455.5,-45.0944 1462.5,-45.0943"/>
</g>
<!-- Node22 -->
<g id="node51" class="node"><title>Node22</title>
<polygon fill="white" stroke="#bfbfbf" points="1528,-1 1528,-35 1652,-35 1652,-1 1528,-1"/>
<text text-anchor="start" x="1536" y="-22" font-family="Helvetica,sans-Serif" font-size="10.00">mars/interfaces/graphics</text>
<text text-anchor="middle" x="1590" y="-9" font-family="Helvetica,sans-Serif" font-size="10.00">/draw_structs.h</text>
</g>
<!-- Node19&#45;&gt;Node22 -->
<g id="edge58" class="edge"><title>Node19&#45;&gt;Node22</title>
<path fill="none" stroke="midnightblue" d="M1478.33,-79.3762C1497.14,-69.0397 1526.27,-53.0246 1550.07,-39.9454"/>
<polygon fill="midnightblue" stroke="midnightblue" points="1551.82,-42.9783 1558.9,-35.0944 1548.45,-36.8438 1551.82,-42.9783"/>
</g>
<!-- Node23 -->
<g id="node53" class="node"><title>Node23</title>
<polygon fill="white" stroke="#bfbfbf" points="1670,-7.5 1670,-28.5 1714,-28.5 1714,-7.5 1670,-7.5"/>
<text text-anchor="middle" x="1692" y="-15.5" font-family="Helvetica,sans-Serif" font-size="10.00">vector</text>
</g>
<!-- Node19&#45;&gt;Node23 -->
<g id="edge60" class="edge"><title>Node19&#45;&gt;Node23</title>
<path fill="none" stroke="midnightblue" d="M1502.25,-81.9083C1543.91,-73.315 1608.2,-57.9293 1661,-36 1662.85,-35.2302 1664.73,-34.3687 1666.6,-33.4508"/>
<polygon fill="midnightblue" stroke="midnightblue" points="1668.54,-36.3803 1675.68,-28.5549 1665.22,-30.2183 1668.54,-36.3803"/>
</g>
<!-- Node24 -->
<g id="node55" class="node"><title>Node24</title>
<polygon fill="white" stroke="#bfbfbf" points="1211.5,-7.5 1211.5,-28.5 1270.5,-28.5 1270.5,-7.5 1211.5,-7.5"/>
<text text-anchor="middle" x="1241" y="-15.5" font-family="Helvetica,sans-Serif" font-size="10.00">ode/ode.h</text>
</g>
<!-- Node19&#45;&gt;Node24 -->
<g id="edge62" class="edge"><title>Node19&#45;&gt;Node24</title>
<path fill="none" stroke="midnightblue" d="M1429.4,-79.4157C1422.11,-76.9005 1414.29,-74.2856 1407,-72 1350.61,-54.3268 1334.34,-56.7224 1279,-36 1276.31,-34.9921 1273.55,-33.8684 1270.8,-32.6884"/>
<polygon fill="midnightblue" stroke="midnightblue" points="1272.19,-29.4762 1261.63,-28.5459 1269.3,-35.8546 1272.19,-29.4762"/>
</g>
<!-- Node25&#45;&gt;Node9 -->
<g id="edge68" class="edge"><title>Node25&#45;&gt;Node9</title>
<path fill="none" stroke="midnightblue" d="M1347,-144.267C1347,-136.931 1347,-126.857 1347,-117.38"/>
<polygon fill="midnightblue" stroke="midnightblue" points="1350.5,-117.11 1347,-107.11 1343.5,-117.11 1350.5,-117.11"/>
</g>
<!-- Node25&#45;&gt;Node19 -->
<g id="edge66" class="edge"><title>Node25&#45;&gt;Node19</title>
<path fill="none" stroke="midnightblue" d="M1365.49,-144.267C1383.6,-133.76 1411.38,-117.637 1431.96,-105.692"/>
<polygon fill="midnightblue" stroke="midnightblue" points="1433.96,-108.58 1440.85,-100.534 1430.44,-102.526 1433.96,-108.58"/>
</g>
<!-- Node26&#45;&gt;Node9 -->
<g id="edge76" class="edge"><title>Node26&#45;&gt;Node9</title>
<path fill="none" stroke="midnightblue" d="M1255.16,-144.267C1269.85,-135.59 1291.01,-123.083 1309.33,-112.262"/>
<polygon fill="midnightblue" stroke="midnightblue" points="1311.22,-115.21 1318.04,-107.11 1307.66,-109.184 1311.22,-115.21"/>
</g>
<!-- Node26&#45;&gt;Node11 -->
<g id="edge74" class="edge"><title>Node26&#45;&gt;Node11</title>
<path fill="none" stroke="midnightblue" d="M1235.35,-144.267C1234.21,-136.852 1232.64,-126.64 1231.17,-117.074"/>
<polygon fill="midnightblue" stroke="midnightblue" points="1234.61,-116.461 1229.63,-107.11 1227.69,-117.526 1234.61,-116.461"/>
</g>
<!-- Node26&#45;&gt;Node19 -->
<g id="edge72" class="edge"><title>Node26&#45;&gt;Node19</title>
<path fill="none" stroke="midnightblue" d="M1277.74,-144.514C1312.31,-135.431 1363.14,-121.639 1407,-108 1411.27,-106.672 1415.72,-105.227 1420.14,-103.753"/>
<polygon fill="midnightblue" stroke="midnightblue" points="1421.34,-107.042 1429.68,-100.513 1419.09,-100.414 1421.34,-107.042"/>
</g>
</g>
</svg>
