<?xml version="1.0" encoding="UTF-8" standalone="no"?>
<!DOCTYPE svg PUBLIC "-//W3C//DTD SVG 1.1//EN"
 "http://www.w3.org/Graphics/SVG/1.1/DTD/svg11.dtd">
<!-- Generated by graphviz version 2.26.3 (20100126.1600)
 -->
<!-- Title: mars::sim::JointArraySensor Pages: 1 -->
<svg width="516pt" height="226pt"
 viewBox="0.00 0.00 516.00 226.00" xmlns="http://www.w3.org/2000/svg" xmlns:xlink="http://www.w3.org/1999/xlink">
<g id="graph1" class="graph" transform="scale(1 1) rotate(0) translate(4 222)">
<title>mars::sim::JointArraySensor</title>
<polygon fill="white" stroke="white" points="-4,5 -4,-222 513,-222 513,5 -4,5"/>
<!-- Node1 -->
<g id="node1" class="node"><title>Node1</title>
<polygon fill="#bfbfbf" stroke="black" points="182.5,-98.5 182.5,-119.5 323.5,-119.5 323.5,-98.5 182.5,-98.5"/>
<text text-anchor="middle" x="253" y="-106.5" font-family="Helvetica,sans-Serif" font-size="10.00">mars::sim::JointArraySensor</text>
</g>
<!-- Node5 -->
<g id="node9" class="node"><title>Node5</title>
<a xlink:href="../../d1/dae/classmars_1_1sim_1_1_joint_a_v_g_torque_sensor.html" target="_top" xlink:title="mars::sim::JointAVGTorque\lSensor">
<polygon fill="white" stroke="black" points="365,-184 365,-218 503,-218 503,-184 365,-184"/>
<text text-anchor="start" x="373" y="-205" font-family="Helvetica,sans-Serif" font-size="10.00">mars::sim::JointAVGTorque</text>
<text text-anchor="middle" x="434" y="-192" font-family="Helvetica,sans-Serif" font-size="10.00">Sensor</text>
</a>
</g>
<!-- Node1&#45;&gt;Node5 -->
<g id="edge8" class="edge"><title>Node1&#45;&gt;Node5</title>
<path fill="none" stroke="midnightblue" d="M276.338,-125.435C297.476,-139.817 329.838,-160.605 360,-175 366.636,-178.167 373.765,-181.155 380.884,-183.898"/>
<polygon fill="midnightblue" stroke="midnightblue" points="278.227,-122.486 268.005,-119.7 274.258,-128.252 278.227,-122.486"/>
</g>
<!-- Node6 -->
<g id="node11" class="node"><title>Node6</title>
<a xlink:href="../../d0/dc1/classmars_1_1sim_1_1_joint_load_sensor.html" target="_top" xlink:title="mars::sim::JointLoadSensor">
<polygon fill="white" stroke="black" points="364.5,-144.5 364.5,-165.5 503.5,-165.5 503.5,-144.5 364.5,-144.5"/>
<text text-anchor="middle" x="434" y="-152.5" font-family="Helvetica,sans-Serif" font-size="10.00">mars::sim::JointLoadSensor</text>
</a>
</g>
<!-- Node1&#45;&gt;Node6 -->
<g id="edge10" class="edge"><title>Node1&#45;&gt;Node6</title>
<path fill="none" stroke="midnightblue" d="M304.512,-122.091C332.44,-129.189 366.494,-137.844 392.668,-144.496"/>
<polygon fill="midnightblue" stroke="midnightblue" points="305.079,-118.624 294.525,-119.553 303.355,-125.409 305.079,-118.624"/>
</g>
<!-- Node7 -->
<g id="node13" class="node"><title>Node7</title>
<a xlink:href="../../d5/d5e/classmars_1_1sim_1_1_joint_position_sensor.html" target="_top" xlink:title="mars::sim::JointPosition\lSensor">
<polygon fill="white" stroke="black" points="373,-92 373,-126 495,-126 495,-92 373,-92"/>
<text text-anchor="start" x="381" y="-113" font-family="Helvetica,sans-Serif" font-size="10.00">mars::sim::JointPosition</text>
<text text-anchor="middle" x="434" y="-100" font-family="Helvetica,sans-Serif" font-size="10.00">Sensor</text>
</a>
</g>
<!-- Node1&#45;&gt;Node7 -->
<g id="edge12" class="edge"><title>Node1&#45;&gt;Node7</title>
<path fill="none" stroke="midnightblue" d="M333.758,-109C346.931,-109 360.383,-109 372.98,-109"/>
<polygon fill="midnightblue" stroke="midnightblue" points="333.757,-105.5 323.757,-109 333.757,-112.5 333.757,-105.5"/>
</g>
<!-- Node8 -->
<g id="node15" class="node"><title>Node8</title>
<a xlink:href="../../d2/d73/classmars_1_1sim_1_1_joint_torque_sensor.html" target="_top" xlink:title="mars::sim::JointTorqueSensor">
<polygon fill="white" stroke="black" points="360,-52.5 360,-73.5 508,-73.5 508,-52.5 360,-52.5"/>
<text text-anchor="middle" x="434" y="-60.5" font-family="Helvetica,sans-Serif" font-size="10.00">mars::sim::JointTorqueSensor</text>
</a>
</g>
<!-- Node1&#45;&gt;Node8 -->
<g id="edge14" class="edge"><title>Node1&#45;&gt;Node8</title>
<path fill="none" stroke="midnightblue" d="M304.512,-95.9087C332.44,-88.8108 366.494,-80.1563 392.668,-73.5042"/>
<polygon fill="midnightblue" stroke="midnightblue" points="303.355,-92.5913 294.525,-98.4467 305.079,-99.3756 303.355,-92.5913"/>
</g>
<!-- Node9 -->
<g id="node17" class="node"><title>Node9</title>
<a xlink:href="../../d2/d77/classmars_1_1sim_1_1_joint_velocity_sensor.html" target="_top" xlink:title="mars::sim::JointVelocity\lSensor">
<polygon fill="white" stroke="black" points="373,-0 373,-34 495,-34 495,-0 373,-0"/>
<text text-anchor="start" x="381" y="-21" font-family="Helvetica,sans-Serif" font-size="10.00">mars::sim::JointVelocity</text>
<text text-anchor="middle" x="434" y="-8" font-family="Helvetica,sans-Serif" font-size="10.00">Sensor</text>
</a>
</g>
<!-- Node1&#45;&gt;Node9 -->
<g id="edge16" class="edge"><title>Node1&#45;&gt;Node9</title>
<path fill="none" stroke="midnightblue" d="M276.338,-92.5654C297.476,-78.1827 329.838,-57.3951 360,-43 366.636,-39.8328 373.765,-36.8449 380.884,-34.1016"/>
<polygon fill="midnightblue" stroke="midnightblue" points="274.258,-89.7477 268.005,-98.2999 278.227,-95.5142 274.258,-89.7477"/>
</g>
<!-- Node2 -->
<g id="node2" class="node"><title>Node2</title>
<a xlink:href="../../d3/d21/classmars_1_1interfaces_1_1_sensor_interface.html" target="_top" xlink:title="mars::interfaces::Sensor\lInterface">
<polygon fill="white" stroke="black" points="11,-138 11,-172 135,-172 135,-138 11,-138"/>
<text text-anchor="start" x="19" y="-159" font-family="Helvetica,sans-Serif" font-size="10.00">mars::interfaces::Sensor</text>
<text text-anchor="middle" x="73" y="-146" font-family="Helvetica,sans-Serif" font-size="10.00">Interface</text>
</a>
</g>
<!-- Node2&#45;&gt;Node1 -->
<g id="edge2" class="edge"><title>Node2&#45;&gt;Node1</title>
<path fill="none" stroke="midnightblue" d="M145.125,-136.568C167.764,-130.782 191.975,-124.595 211.713,-119.551"/>
<polygon fill="midnightblue" stroke="midnightblue" points="144.02,-133.238 135.198,-139.105 145.753,-140.02 144.02,-133.238"/>
</g>
<!-- Node3 -->
<g id="node4" class="node"><title>Node3</title>
<a xlink:href="../../da/d73/classmars_1_1interfaces_1_1_base_sensor.html" target="_top" xlink:title="mars::interfaces::BaseSensor">
<polygon fill="white" stroke="black" points="0,-98.5 0,-119.5 146,-119.5 146,-98.5 0,-98.5"/>
<text text-anchor="middle" x="73" y="-106.5" font-family="Helvetica,sans-Serif" font-size="10.00">mars::interfaces::BaseSensor</text>
</a>
</g>
<!-- Node3&#45;&gt;Node1 -->
<g id="edge4" class="edge"><title>Node3&#45;&gt;Node1</title>
<path fill="none" stroke="midnightblue" d="M156.392,-109C165.112,-109 173.916,-109 182.473,-109"/>
<polygon fill="midnightblue" stroke="midnightblue" points="156.213,-105.5 146.213,-109 156.213,-112.5 156.213,-105.5"/>
</g>
<!-- Node4 -->
<g id="node6" class="node"><title>Node4</title>
<a xlink:href="../../d0/d0e/classmars_1_1data__broker_1_1_receiver_interface.html" target="_top" xlink:title="Interface for classes that want to receive data from the DataBroker. ">
<polygon fill="white" stroke="black" points="22.5,-46 22.5,-80 123.5,-80 123.5,-46 22.5,-46"/>
<text text-anchor="start" x="30.5" y="-67" font-family="Helvetica,sans-Serif" font-size="10.00">mars::data_broker::</text>
<text text-anchor="middle" x="73" y="-54" font-family="Helvetica,sans-Serif" font-size="10.00">ReceiverInterface</text>
</a>
</g>
<!-- Node4&#45;&gt;Node1 -->
<g id="edge6" class="edge"><title>Node4&#45;&gt;Node1</title>
<path fill="none" stroke="midnightblue" d="M133.311,-78.4127C159.12,-85.0085 188.598,-92.5418 211.842,-98.4818"/>
<polygon fill="midnightblue" stroke="midnightblue" points="134.174,-75.021 123.619,-75.936 132.441,-81.8031 134.174,-75.021"/>
</g>
</g>
</svg>
