<?xml version="1.0" encoding="UTF-8" standalone="no"?>
<!DOCTYPE svg PUBLIC "-//W3C//DTD SVG 1.1//EN"
 "http://www.w3.org/Graphics/SVG/1.1/DTD/svg11.dtd">
<!-- Generated by graphviz version 2.36.0 (20140111.2315)
 -->
<!-- Title: /media/kavonszadkowski/work/marsdocs/mars/common/utils/src/misc.h Pages: 1 -->
<svg width="670pt" height="128pt"
 viewBox="0.00 0.00 670.00 128.00" xmlns="http://www.w3.org/2000/svg" xmlns:xlink="http://www.w3.org/1999/xlink">
<g id="graph0" class="graph" transform="scale(1 1) rotate(0) translate(4 124)">
<title>/media/kavonszadkowski/work/marsdocs/mars/common/utils/src/misc.h</title>
<polygon fill="white" stroke="none" points="-4,4 -4,-124 666,-124 666,4 -4,4"/>
<!-- Node1 -->
<g id="node1" class="node"><title>Node1</title>
<polygon fill="#bfbfbf" stroke="black" points="255,-78.5 255,-119.5 407,-119.5 407,-78.5 255,-78.5"/>
<text text-anchor="start" x="263" y="-107.5" font-family="Helvetica,sans-Serif" font-size="10.00">/media/kavonszadkowski</text>
<text text-anchor="start" x="263" y="-96.5" font-family="Helvetica,sans-Serif" font-size="10.00">/work/marsdocs/mars/common</text>
<text text-anchor="middle" x="331" y="-85.5" font-family="Helvetica,sans-Serif" font-size="10.00">/utils/src/misc.h</text>
</g>
<!-- Node2 -->
<g id="node2" class="node"><title>Node2</title>
<g id="a_node2"><a xlink:href="../../d8/d73/math_utils_8cpp.html" target="_top" xlink:title="/media/kavonszadkowski\l/work/marsdocs/mars/common\l/utils/src/mathUtils.cpp">
<polygon fill="white" stroke="black" points="0,-0.5 0,-41.5 152,-41.5 152,-0.5 0,-0.5"/>
<text text-anchor="start" x="8" y="-29.5" font-family="Helvetica,sans-Serif" font-size="10.00">/media/kavonszadkowski</text>
<text text-anchor="start" x="8" y="-18.5" font-family="Helvetica,sans-Serif" font-size="10.00">/work/marsdocs/mars/common</text>
<text text-anchor="middle" x="76" y="-7.5" font-family="Helvetica,sans-Serif" font-size="10.00">/utils/src/mathUtils.cpp</text>
</a>
</g>
</g>
<!-- Node1&#45;&gt;Node2 -->
<g id="edge1" class="edge"><title>Node1&#45;&gt;Node2</title>
<path fill="none" stroke="midnightblue" d="M255.313,-75.4423C219.119,-64.655 176.212,-51.8672 141.446,-41.5056"/>
<polygon fill="midnightblue" stroke="midnightblue" points="254.748,-78.926 265.331,-78.4281 256.747,-72.2176 254.748,-78.926"/>
</g>
<!-- Node3 -->
<g id="node3" class="node"><title>Node3</title>
<g id="a_node3"><a xlink:href="../../d7/d5f/misc_8cpp.html" target="_top" xlink:title="/media/kavonszadkowski\l/work/marsdocs/mars/common\l/utils/src/misc.cpp">
<polygon fill="white" stroke="black" points="170,-0.5 170,-41.5 322,-41.5 322,-0.5 170,-0.5"/>
<text text-anchor="start" x="178" y="-29.5" font-family="Helvetica,sans-Serif" font-size="10.00">/media/kavonszadkowski</text>
<text text-anchor="start" x="178" y="-18.5" font-family="Helvetica,sans-Serif" font-size="10.00">/work/marsdocs/mars/common</text>
<text text-anchor="middle" x="246" y="-7.5" font-family="Helvetica,sans-Serif" font-size="10.00">/utils/src/misc.cpp</text>
</a>
</g>
</g>
<!-- Node1&#45;&gt;Node3 -->
<g id="edge2" class="edge"><title>Node1&#45;&gt;Node3</title>
<path fill="none" stroke="midnightblue" d="M301.352,-71.4916C290.322,-61.6294 278.017,-50.6273 267.815,-41.5056"/>
<polygon fill="midnightblue" stroke="midnightblue" points="299.323,-74.3719 309.11,-78.4281 303.989,-69.1535 299.323,-74.3719"/>
</g>
<!-- Node4 -->
<g id="node4" class="node"><title>Node4</title>
<g id="a_node4"><a xlink:href="../../d9/dab/_socket_8cpp.html" target="_top" xlink:title="/media/kavonszadkowski\l/work/marsdocs/mars/common\l/utils/src/Socket.cpp">
<polygon fill="white" stroke="black" points="340,-0.5 340,-41.5 492,-41.5 492,-0.5 340,-0.5"/>
<text text-anchor="start" x="348" y="-29.5" font-family="Helvetica,sans-Serif" font-size="10.00">/media/kavonszadkowski</text>
<text text-anchor="start" x="348" y="-18.5" font-family="Helvetica,sans-Serif" font-size="10.00">/work/marsdocs/mars/common</text>
<text text-anchor="middle" x="416" y="-7.5" font-family="Helvetica,sans-Serif" font-size="10.00">/utils/src/Socket.cpp</text>
</a>
</g>
</g>
<!-- Node1&#45;&gt;Node4 -->
<g id="edge3" class="edge"><title>Node1&#45;&gt;Node4</title>
<path fill="none" stroke="midnightblue" d="M360.648,-71.4916C371.678,-61.6294 383.983,-50.6273 394.185,-41.5056"/>
<polygon fill="midnightblue" stroke="midnightblue" points="358.011,-69.1535 352.89,-78.4281 362.677,-74.3719 358.011,-69.1535"/>
</g>
<!-- Node5 -->
<g id="node5" class="node"><title>Node5</title>
<g id="a_node5"><a xlink:href="../../d9/d00/_thread_8cpp.html" target="_top" xlink:title="/media/kavonszadkowski\l/work/marsdocs/mars/common\l/utils/src/Thread.cpp">
<polygon fill="white" stroke="black" points="510,-0.5 510,-41.5 662,-41.5 662,-0.5 510,-0.5"/>
<text text-anchor="start" x="518" y="-29.5" font-family="Helvetica,sans-Serif" font-size="10.00">/media/kavonszadkowski</text>
<text text-anchor="start" x="518" y="-18.5" font-family="Helvetica,sans-Serif" font-size="10.00">/work/marsdocs/mars/common</text>
<text text-anchor="middle" x="586" y="-7.5" font-family="Helvetica,sans-Serif" font-size="10.00">/utils/src/Thread.cpp</text>
</a>
</g>
</g>
<!-- Node1&#45;&gt;Node5 -->
<g id="edge4" class="edge"><title>Node1&#45;&gt;Node5</title>
<path fill="none" stroke="midnightblue" d="M406.687,-75.4423C442.881,-64.655 485.788,-51.8672 520.554,-41.5056"/>
<polygon fill="midnightblue" stroke="midnightblue" points="405.253,-72.2176 396.669,-78.4281 407.252,-78.926 405.253,-72.2176"/>
</g>
</g>
</svg>
