<?xml version="1.0" encoding="UTF-8" standalone="no"?>
<!DOCTYPE svg PUBLIC "-//W3C//DTD SVG 1.1//EN"
 "http://www.w3.org/Graphics/SVG/1.1/DTD/svg11.dtd">
<!-- Generated by graphviz version 2.36.0 (20140111.2315)
 -->
<!-- Title: /media/kavonszadkowski/work/marsdocs/mars/common/graphics/osg_terrain/src/Terrain.cpp Pages: 1 -->
<svg width="1385pt" height="310pt"
 viewBox="0.00 0.00 1385.00 310.00" xmlns="http://www.w3.org/2000/svg" xmlns:xlink="http://www.w3.org/1999/xlink">
<g id="graph0" class="graph" transform="scale(1 1) rotate(0) translate(4 306)">
<title>/media/kavonszadkowski/work/marsdocs/mars/common/graphics/osg_terrain/src/Terrain.cpp</title>
<polygon fill="white" stroke="none" points="-4,4 -4,-306 1381,-306 1381,4 -4,4"/>
<!-- Node1 -->
<g id="node1" class="node"><title>Node1</title>
<polygon fill="#bfbfbf" stroke="black" points="765,-249 765,-301 917,-301 917,-249 765,-249"/>
<text text-anchor="start" x="773" y="-289" font-family="Helvetica,sans-Serif" font-size="10.00">/media/kavonszadkowski</text>
<text text-anchor="start" x="773" y="-278" font-family="Helvetica,sans-Serif" font-size="10.00">/work/marsdocs/mars/common</text>
<text text-anchor="start" x="773" y="-267" font-family="Helvetica,sans-Serif" font-size="10.00">/graphics/osg_terrain/src</text>
<text text-anchor="middle" x="841" y="-256" font-family="Helvetica,sans-Serif" font-size="10.00">/Terrain.cpp</text>
</g>
<!-- Node2 -->
<g id="node2" class="node"><title>Node2</title>
<g id="a_node2"><a xlink:href="../../d9/d2a/_terrain_8h.html" target="_top" xlink:title="Terrain.h">
<polygon fill="white" stroke="black" points="297.5,-186.5 297.5,-205.5 352.5,-205.5 352.5,-186.5 297.5,-186.5"/>
<text text-anchor="middle" x="325" y="-193.5" font-family="Helvetica,sans-Serif" font-size="10.00">Terrain.h</text>
</a>
</g>
</g>
<!-- Node1&#45;&gt;Node2 -->
<g id="edge1" class="edge"><title>Node1&#45;&gt;Node2</title>
<path fill="none" stroke="midnightblue" d="M764.768,-270.166C669.282,-263.995 501.291,-248.598 362,-212 359.013,-211.215 355.944,-210.249 352.913,-209.188"/>
<polygon fill="midnightblue" stroke="midnightblue" points="354.096,-205.893 343.505,-205.585 351.592,-212.43 354.096,-205.893"/>
</g>
<!-- Node21 -->
<g id="node21" class="node"><title>Node21</title>
<polygon fill="white" stroke="#bfbfbf" points="371,-186.5 371,-205.5 499,-205.5 499,-186.5 371,-186.5"/>
<text text-anchor="middle" x="435" y="-193.5" font-family="Helvetica,sans-Serif" font-size="10.00">configmaps/ConfigData.h</text>
</g>
<!-- Node1&#45;&gt;Node21 -->
<g id="edge20" class="edge"><title>Node1&#45;&gt;Node21</title>
<path fill="none" stroke="midnightblue" d="M764.787,-260.111C697.454,-247.759 596.627,-229.062 509,-212 501.664,-210.572 493.925,-209.035 486.326,-207.51"/>
<polygon fill="midnightblue" stroke="midnightblue" points="486.959,-204.067 476.464,-205.522 485.575,-210.929 486.959,-204.067"/>
</g>
<!-- Node22 -->
<g id="node22" class="node"><title>Node22</title>
<polygon fill="white" stroke="#bfbfbf" points="517.5,-181 517.5,-211 642.5,-211 642.5,-181 517.5,-181"/>
<text text-anchor="start" x="525.5" y="-199" font-family="Helvetica,sans-Serif" font-size="10.00">mars/graphics/gui_helper</text>
<text text-anchor="middle" x="580" y="-188" font-family="Helvetica,sans-Serif" font-size="10.00">_functions.h</text>
</g>
<!-- Node1&#45;&gt;Node22 -->
<g id="edge21" class="edge"><title>Node1&#45;&gt;Node22</title>
<path fill="none" stroke="midnightblue" d="M764.806,-251.521C724.061,-239.501 674.718,-224.944 637.271,-213.896"/>
<polygon fill="midnightblue" stroke="midnightblue" points="638.113,-210.495 627.531,-211.023 636.132,-217.209 638.113,-210.495"/>
</g>
<!-- Node23 -->
<g id="node23" class="node"><title>Node23</title>
<polygon fill="white" stroke="#bfbfbf" points="661,-186.5 661,-205.5 753,-205.5 753,-186.5 661,-186.5"/>
<text text-anchor="middle" x="707" y="-193.5" font-family="Helvetica,sans-Serif" font-size="10.00">mars/utils/misc.h</text>
</g>
<!-- Node1&#45;&gt;Node23 -->
<g id="edge22" class="edge"><title>Node1&#45;&gt;Node23</title>
<path fill="none" stroke="midnightblue" d="M797.123,-248.787C775.024,-236.088 749.099,-221.191 730.742,-210.643"/>
<polygon fill="midnightblue" stroke="midnightblue" points="732.307,-207.505 721.893,-205.558 728.819,-213.575 732.307,-207.505"/>
</g>
<!-- Node24 -->
<g id="node24" class="node"><title>Node24</title>
<polygon fill="white" stroke="#bfbfbf" points="771,-181 771,-211 911,-211 911,-181 771,-181"/>
<text text-anchor="start" x="779" y="-199" font-family="Helvetica,sans-Serif" font-size="10.00">mars/osg_material_manager</text>
<text text-anchor="middle" x="841" y="-188" font-family="Helvetica,sans-Serif" font-size="10.00">/OsgMaterial.h</text>
</g>
<!-- Node1&#45;&gt;Node24 -->
<g id="edge23" class="edge"><title>Node1&#45;&gt;Node24</title>
<path fill="none" stroke="midnightblue" d="M841,-248.787C841,-240.029 841,-230.225 841,-221.523"/>
<polygon fill="midnightblue" stroke="midnightblue" points="844.5,-221.252 841,-211.252 837.5,-221.252 844.5,-221.252"/>
</g>
<!-- Node25 -->
<g id="node25" class="node"><title>Node25</title>
<polygon fill="white" stroke="#bfbfbf" points="929,-186.5 929,-205.5 985,-205.5 985,-186.5 929,-186.5"/>
<text text-anchor="middle" x="957" y="-193.5" font-family="Helvetica,sans-Serif" font-size="10.00">osg/LOD</text>
</g>
<!-- Node1&#45;&gt;Node25 -->
<g id="edge24" class="edge"><title>Node1&#45;&gt;Node25</title>
<path fill="none" stroke="midnightblue" d="M878.983,-248.787C897.763,-236.321 919.734,-221.737 935.566,-211.228"/>
<polygon fill="midnightblue" stroke="midnightblue" points="937.712,-214.004 944.108,-205.558 933.841,-208.172 937.712,-214.004"/>
</g>
<!-- Node26 -->
<g id="node26" class="node"><title>Node26</title>
<polygon fill="white" stroke="#bfbfbf" points="1002.5,-186.5 1002.5,-205.5 1151.5,-205.5 1151.5,-186.5 1002.5,-186.5"/>
<text text-anchor="middle" x="1077" y="-193.5" font-family="Helvetica,sans-Serif" font-size="10.00">osg/PositionAttitudeTransform</text>
</g>
<!-- Node1&#45;&gt;Node26 -->
<g id="edge25" class="edge"><title>Node1&#45;&gt;Node26</title>
<path fill="none" stroke="midnightblue" d="M917.297,-249.107C958.914,-235.528 1008.47,-219.358 1041.23,-208.672"/>
<polygon fill="midnightblue" stroke="midnightblue" points="1042.4,-211.97 1050.82,-205.54 1040.23,-205.315 1042.4,-211.97"/>
</g>
<!-- Node27 -->
<g id="node27" class="node"><title>Node27</title>
<polygon fill="white" stroke="#bfbfbf" points="1169.5,-186.5 1169.5,-205.5 1264.5,-205.5 1264.5,-186.5 1169.5,-186.5"/>
<text text-anchor="middle" x="1217" y="-193.5" font-family="Helvetica,sans-Serif" font-size="10.00">osgUtil/CullVisitor</text>
</g>
<!-- Node1&#45;&gt;Node27 -->
<g id="edge26" class="edge"><title>Node1&#45;&gt;Node27</title>
<path fill="none" stroke="midnightblue" d="M917.026,-260.668C981.841,-248.958 1077.36,-230.883 1160,-212 1165.3,-210.789 1170.85,-209.435 1176.33,-208.049"/>
<polygon fill="midnightblue" stroke="midnightblue" points="1177.22,-211.433 1186.03,-205.544 1175.47,-204.656 1177.22,-211.433"/>
</g>
<!-- Node28 -->
<g id="node28" class="node"><title>Node28</title>
<polygon fill="white" stroke="#bfbfbf" points="1282.5,-186.5 1282.5,-205.5 1377.5,-205.5 1377.5,-186.5 1282.5,-186.5"/>
<text text-anchor="middle" x="1330" y="-193.5" font-family="Helvetica,sans-Serif" font-size="10.00">osg/PolygonMode</text>
</g>
<!-- Node1&#45;&gt;Node28 -->
<g id="edge27" class="edge"><title>Node1&#45;&gt;Node28</title>
<path fill="none" stroke="midnightblue" d="M917.149,-265.752C1003.81,-255.745 1149.36,-237.055 1273,-212 1278.72,-210.841 1284.72,-209.455 1290.59,-207.999"/>
<polygon fill="midnightblue" stroke="midnightblue" points="1291.46,-211.389 1300.27,-205.513 1289.72,-204.609 1291.46,-211.389"/>
</g>
<!-- Node3 -->
<g id="node3" class="node"><title>Node3</title>
<polygon fill="white" stroke="#bfbfbf" points="0,-118.5 0,-137.5 62,-137.5 62,-118.5 0,-118.5"/>
<text text-anchor="middle" x="31" y="-125.5" font-family="Helvetica,sans-Serif" font-size="10.00">osg/Group</text>
</g>
<!-- Node2&#45;&gt;Node3 -->
<g id="edge2" class="edge"><title>Node2&#45;&gt;Node3</title>
<path fill="none" stroke="midnightblue" d="M297.214,-190.921C250.123,-183.676 151.868,-167.119 71,-144 67.8624,-143.103 64.6217,-142.071 61.406,-140.977"/>
<polygon fill="midnightblue" stroke="midnightblue" points="62.5567,-137.672 51.9622,-137.583 60.1891,-144.259 62.5567,-137.672"/>
</g>
<!-- Node4 -->
<g id="node4" class="node"><title>Node4</title>
<polygon fill="white" stroke="#bfbfbf" points="80,-118.5 80,-137.5 158,-137.5 158,-118.5 80,-118.5"/>
<text text-anchor="middle" x="119" y="-125.5" font-family="Helvetica,sans-Serif" font-size="10.00">osg/Geometry</text>
</g>
<!-- Node2&#45;&gt;Node4 -->
<g id="edge3" class="edge"><title>Node2&#45;&gt;Node4</title>
<path fill="none" stroke="midnightblue" d="M298.069,-186.372C261.496,-174.654 196.012,-153.674 155.179,-140.591"/>
<polygon fill="midnightblue" stroke="midnightblue" points="156.202,-137.244 145.611,-137.526 154.066,-143.91 156.202,-137.244"/>
</g>
<!-- Node5 -->
<g id="node5" class="node"><title>Node5</title>
<polygon fill="white" stroke="#bfbfbf" points="176,-113 176,-143 316,-143 316,-113 176,-113"/>
<text text-anchor="start" x="184" y="-131" font-family="Helvetica,sans-Serif" font-size="10.00">mars/osg_material_manager</text>
<text text-anchor="middle" x="246" y="-120" font-family="Helvetica,sans-Serif" font-size="10.00">/OsgMaterialManager.h</text>
</g>
<!-- Node2&#45;&gt;Node5 -->
<g id="edge4" class="edge"><title>Node2&#45;&gt;Node5</title>
<path fill="none" stroke="midnightblue" d="M314.672,-186.372C303.591,-177.114 285.591,-162.076 270.798,-149.718"/>
<polygon fill="midnightblue" stroke="midnightblue" points="272.893,-146.907 262.975,-143.181 268.405,-152.279 272.893,-146.907"/>
</g>
<!-- Node6 -->
<g id="node6" class="node"><title>Node6</title>
<polygon fill="white" stroke="#bfbfbf" points="334,-113 334,-143 474,-143 474,-113 334,-113"/>
<text text-anchor="start" x="342" y="-131" font-family="Helvetica,sans-Serif" font-size="10.00">mars/osg_material_manager</text>
<text text-anchor="middle" x="404" y="-120" font-family="Helvetica,sans-Serif" font-size="10.00">/MaterialNode.h</text>
</g>
<!-- Node2&#45;&gt;Node6 -->
<g id="edge5" class="edge"><title>Node2&#45;&gt;Node6</title>
<path fill="none" stroke="midnightblue" d="M335.328,-186.372C346.409,-177.114 364.409,-162.076 379.202,-149.718"/>
<polygon fill="midnightblue" stroke="midnightblue" points="381.595,-152.279 387.025,-143.181 377.107,-146.907 381.595,-152.279"/>
</g>
<!-- Node7 -->
<g id="node7" class="node"><title>Node7</title>
<polygon fill="white" stroke="#bfbfbf" points="492.5,-118.5 492.5,-137.5 591.5,-137.5 591.5,-118.5 492.5,-118.5"/>
<text text-anchor="middle" x="542" y="-125.5" font-family="Helvetica,sans-Serif" font-size="10.00">mars/utils/Vector.h</text>
</g>
<!-- Node2&#45;&gt;Node7 -->
<g id="edge6" class="edge"><title>Node2&#45;&gt;Node7</title>
<path fill="none" stroke="midnightblue" d="M345.205,-186.345C350.616,-184.155 356.493,-181.89 362,-180 387.562,-171.226 455.953,-152.308 500.69,-140.142"/>
<polygon fill="midnightblue" stroke="midnightblue" points="501.671,-143.502 510.405,-137.505 499.837,-136.747 501.671,-143.502"/>
</g>
<!-- Node8 -->
<g id="node8" class="node"><title>Node8</title>
<g id="a_node8"><a xlink:href="../../d8/d84/common_2graphics_2osg__terrain_2src_2_vertex_buffer_terrain_8h.html" target="_top" xlink:title="VertexBufferTerrain.h">
<polygon fill="white" stroke="black" points="610,-118.5 610,-137.5 720,-137.5 720,-118.5 610,-118.5"/>
<text text-anchor="middle" x="665" y="-125.5" font-family="Helvetica,sans-Serif" font-size="10.00">VertexBufferTerrain.h</text>
</a>
</g>
</g>
<!-- Node2&#45;&gt;Node8 -->
<g id="edge7" class="edge"><title>Node2&#45;&gt;Node8</title>
<path fill="none" stroke="midnightblue" d="M343.527,-186.496C349.342,-184.098 355.85,-181.686 362,-180 465.172,-151.708 494.913,-164.043 600,-144 606.65,-142.732 613.652,-141.261 620.498,-139.745"/>
<polygon fill="midnightblue" stroke="midnightblue" points="621.379,-143.135 630.359,-137.512 619.833,-136.308 621.379,-143.135"/>
</g>
<!-- Node9 -->
<g id="node9" class="node"><title>Node9</title>
<g id="a_node9"><a xlink:href="../../d4/d36/common_2graphics_2osg__terrain_2src_2_multi_res_height_map_renderer_8h.html" target="_top" xlink:title="MultiResHeightMapRenderer.h">
<polygon fill="white" stroke="black" points="457.5,-56.5 457.5,-75.5 608.5,-75.5 608.5,-56.5 457.5,-56.5"/>
<text text-anchor="middle" x="533" y="-63.5" font-family="Helvetica,sans-Serif" font-size="10.00">MultiResHeightMapRenderer.h</text>
</a>
</g>
</g>
<!-- Node8&#45;&gt;Node9 -->
<g id="edge8" class="edge"><title>Node8&#45;&gt;Node9</title>
<path fill="none" stroke="midnightblue" d="M646.088,-118.403C623.837,-108.29 586.688,-91.4036 561.074,-79.761"/>
<polygon fill="midnightblue" stroke="midnightblue" points="562.429,-76.5324 551.877,-75.5806 559.533,-82.905 562.429,-76.5324"/>
</g>
<!-- Node19 -->
<g id="node19" class="node"><title>Node19</title>
<polygon fill="white" stroke="#bfbfbf" points="626.5,-56.5 626.5,-75.5 703.5,-75.5 703.5,-56.5 626.5,-56.5"/>
<text text-anchor="middle" x="665" y="-63.5" font-family="Helvetica,sans-Serif" font-size="10.00">osg/Drawable</text>
</g>
<!-- Node8&#45;&gt;Node19 -->
<g id="edge18" class="edge"><title>Node8&#45;&gt;Node19</title>
<path fill="none" stroke="midnightblue" d="M665,-118.403C665,-109.938 665,-96.7283 665,-85.8199"/>
<polygon fill="midnightblue" stroke="midnightblue" points="668.5,-85.5806 665,-75.5806 661.5,-85.5806 668.5,-85.5806"/>
</g>
<!-- Node20 -->
<g id="node20" class="node"><title>Node20</title>
<polygon fill="white" stroke="#bfbfbf" points="721.5,-56.5 721.5,-75.5 764.5,-75.5 764.5,-56.5 721.5,-56.5"/>
<text text-anchor="middle" x="743" y="-63.5" font-family="Helvetica,sans-Serif" font-size="10.00">cstdio</text>
</g>
<!-- Node8&#45;&gt;Node20 -->
<g id="edge19" class="edge"><title>Node8&#45;&gt;Node20</title>
<path fill="none" stroke="midnightblue" d="M676.175,-118.403C688.571,-108.869 708.79,-93.3154 723.746,-81.8106"/>
<polygon fill="midnightblue" stroke="midnightblue" points="726.053,-84.4519 731.845,-75.5806 721.785,-78.9035 726.053,-84.4519"/>
</g>
<!-- Node10 -->
<g id="node10" class="node"><title>Node10</title>
<polygon fill="white" stroke="#bfbfbf" points="265,-0.5 265,-19.5 313,-19.5 313,-0.5 265,-0.5"/>
<text text-anchor="middle" x="289" y="-7.5" font-family="Helvetica,sans-Serif" font-size="10.00">GL/gl.h</text>
</g>
<!-- Node9&#45;&gt;Node10 -->
<g id="edge9" class="edge"><title>Node9&#45;&gt;Node10</title>
<path fill="none" stroke="midnightblue" d="M489.599,-56.4852C448.917,-48.3379 386.19,-35.3531 322.864,-20.1085"/>
<polygon fill="midnightblue" stroke="midnightblue" points="323.653,-16.6985 313.11,-17.7433 322.004,-23.5013 323.653,-16.6985"/>
</g>
<!-- Node11 -->
<g id="node11" class="node"><title>Node11</title>
<polygon fill="white" stroke="#bfbfbf" points="331,-0.5 331,-19.5 393,-19.5 393,-0.5 331,-0.5"/>
<text text-anchor="middle" x="362" y="-7.5" font-family="Helvetica,sans-Serif" font-size="10.00">GL/glext.h</text>
</g>
<!-- Node9&#45;&gt;Node11 -->
<g id="edge10" class="edge"><title>Node9&#45;&gt;Node11</title>
<path fill="none" stroke="midnightblue" d="M505.905,-56.4435C477.012,-47.3196 431.075,-32.8133 398.895,-22.6509"/>
<polygon fill="midnightblue" stroke="midnightblue" points="399.559,-19.1903 388.969,-19.5164 397.451,-25.8654 399.559,-19.1903"/>
</g>
<!-- Node12 -->
<g id="node12" class="node"><title>Node12</title>
<polygon fill="white" stroke="#bfbfbf" points="411.5,-0.5 411.5,-19.5 446.5,-19.5 446.5,-0.5 411.5,-0.5"/>
<text text-anchor="middle" x="429" y="-7.5" font-family="Helvetica,sans-Serif" font-size="10.00">map</text>
</g>
<!-- Node9&#45;&gt;Node12 -->
<g id="edge11" class="edge"><title>Node9&#45;&gt;Node12</title>
<path fill="none" stroke="midnightblue" d="M516.291,-56.324C499.688,-47.7034 473.998,-34.3643 454.78,-24.3855"/>
<polygon fill="midnightblue" stroke="midnightblue" points="456.156,-21.1565 445.668,-19.6545 452.93,-27.3689 456.156,-21.1565"/>
</g>
<!-- Node13 -->
<g id="node13" class="node"><title>Node13</title>
<polygon fill="white" stroke="#bfbfbf" points="464.5,-0.5 464.5,-19.5 493.5,-19.5 493.5,-0.5 464.5,-0.5"/>
<text text-anchor="middle" x="479" y="-7.5" font-family="Helvetica,sans-Serif" font-size="10.00">list</text>
</g>
<!-- Node9&#45;&gt;Node13 -->
<g id="edge12" class="edge"><title>Node9&#45;&gt;Node13</title>
<path fill="none" stroke="midnightblue" d="M524.083,-56.083C516.22,-48.2195 504.569,-36.5688 495.081,-27.0813"/>
<polygon fill="midnightblue" stroke="midnightblue" points="497.297,-24.3473 487.751,-19.7511 492.347,-29.2971 497.297,-24.3473"/>
</g>
<!-- Node14 -->
<g id="node14" class="node"><title>Node14</title>
<polygon fill="white" stroke="#bfbfbf" points="511,-0.5 511,-19.5 555,-19.5 555,-0.5 511,-0.5"/>
<text text-anchor="middle" x="533" y="-7.5" font-family="Helvetica,sans-Serif" font-size="10.00">vector</text>
</g>
<!-- Node9&#45;&gt;Node14 -->
<g id="edge13" class="edge"><title>Node9&#45;&gt;Node14</title>
<path fill="none" stroke="midnightblue" d="M533,-56.083C533,-49.0059 533,-38.8611 533,-29.9865"/>
<polygon fill="midnightblue" stroke="midnightblue" points="536.5,-29.751 533,-19.7511 529.5,-29.7511 536.5,-29.751"/>
</g>
<!-- Node15 -->
<g id="node15" class="node"><title>Node15</title>
<polygon fill="white" stroke="#bfbfbf" points="573,-0.5 573,-19.5 643,-19.5 643,-0.5 573,-0.5"/>
<text text-anchor="middle" x="608" y="-7.5" font-family="Helvetica,sans-Serif" font-size="10.00">opencv/cv.h</text>
</g>
<!-- Node9&#45;&gt;Node15 -->
<g id="edge14" class="edge"><title>Node9&#45;&gt;Node15</title>
<path fill="none" stroke="midnightblue" d="M545.05,-56.324C556.463,-48.1066 573.831,-35.6017 587.435,-25.8069"/>
<polygon fill="midnightblue" stroke="midnightblue" points="589.66,-28.5174 595.731,-19.8339 585.57,-22.8366 589.66,-28.5174"/>
</g>
<!-- Node16 -->
<g id="node16" class="node"><title>Node16</title>
<polygon fill="white" stroke="#bfbfbf" points="661,-0.5 661,-19.5 751,-19.5 751,-0.5 661,-0.5"/>
<text text-anchor="middle" x="706" y="-7.5" font-family="Helvetica,sans-Serif" font-size="10.00">opencv/highgui.h</text>
</g>
<!-- Node9&#45;&gt;Node16 -->
<g id="edge15" class="edge"><title>Node9&#45;&gt;Node16</title>
<path fill="none" stroke="midnightblue" d="M560.412,-56.4435C589.769,-47.2801 636.519,-32.6876 669.096,-22.5192"/>
<polygon fill="midnightblue" stroke="midnightblue" points="670.213,-25.8371 678.716,-19.5164 668.127,-19.1551 670.213,-25.8371"/>
</g>
<!-- Node17 -->
<g id="node17" class="node"><title>Node17</title>
<polygon fill="white" stroke="#bfbfbf" points="769.5,-0.5 769.5,-19.5 870.5,-19.5 870.5,-0.5 769.5,-0.5"/>
<text text-anchor="middle" x="820" y="-7.5" font-family="Helvetica,sans-Serif" font-size="10.00">mars/utils/Thread.h</text>
</g>
<!-- Node9&#45;&gt;Node17 -->
<g id="edge16" class="edge"><title>Node9&#45;&gt;Node17</title>
<path fill="none" stroke="midnightblue" d="M578.476,-56.4435C628.962,-46.9444 710.456,-31.611 764.62,-21.4198"/>
<polygon fill="midnightblue" stroke="midnightblue" points="765.556,-24.8052 774.737,-19.5164 764.262,-17.9259 765.556,-24.8052"/>
</g>
<!-- Node18 -->
<g id="node18" class="node"><title>Node18</title>
<polygon fill="white" stroke="#bfbfbf" points="889,-0.5 889,-19.5 987,-19.5 987,-0.5 889,-0.5"/>
<text text-anchor="middle" x="938" y="-7.5" font-family="Helvetica,sans-Serif" font-size="10.00">mars/utils/Mutex.h</text>
</g>
<!-- Node9&#45;&gt;Node18 -->
<g id="edge17" class="edge"><title>Node9&#45;&gt;Node18</title>
<path fill="none" stroke="midnightblue" d="M601.99,-56.4817C669.684,-48.02 776.125,-34.44 878.83,-19.9952"/>
<polygon fill="midnightblue" stroke="midnightblue" points="879.344,-23.4575 888.757,-18.5947 878.366,-16.5261 879.344,-23.4575"/>
</g>
</g>
</svg>
