<?xml version="1.0" encoding="UTF-8" standalone="no"?>
<!DOCTYPE svg PUBLIC "-//W3C//DTD SVG 1.1//EN"
 "http://www.w3.org/Graphics/SVG/1.1/DTD/svg11.dtd">
<!-- Generated by graphviz version 2.36.0 (20140111.2315)
 -->
<!-- Title: /media/kavonszadkowski/work/marsdocs/mars/plugins/obstacle_generator/src/ObstacleGenerator.h Pages: 1 -->
<svg width="743pt" height="118pt"
 viewBox="0.00 0.00 743.00 118.00" xmlns="http://www.w3.org/2000/svg" xmlns:xlink="http://www.w3.org/1999/xlink">
<g id="graph0" class="graph" transform="scale(1 1) rotate(0) translate(4 114)">
<title>/media/kavonszadkowski/work/marsdocs/mars/plugins/obstacle_generator/src/ObstacleGenerator.h</title>
<polygon fill="white" stroke="none" points="-4,4 -4,-114 739,-114 739,4 -4,4"/>
<!-- Node1 -->
<g id="node1" class="node"><title>Node1</title>
<polygon fill="#bfbfbf" stroke="black" points="346,-68.5 346,-109.5 558,-109.5 558,-68.5 346,-68.5"/>
<text text-anchor="start" x="354" y="-97.5" font-family="Helvetica,sans-Serif" font-size="10.00">/media/kavonszadkowski</text>
<text text-anchor="start" x="354" y="-86.5" font-family="Helvetica,sans-Serif" font-size="10.00">/work/marsdocs/mars/plugins</text>
<text text-anchor="middle" x="452" y="-75.5" font-family="Helvetica,sans-Serif" font-size="10.00">/obstacle_generator/src/ObstacleGenerator.h</text>
</g>
<!-- Node2 -->
<g id="node2" class="node"><title>Node2</title>
<polygon fill="white" stroke="#bfbfbf" points="-0.5,-1 -0.5,-31 116.5,-31 116.5,-1 -0.5,-1"/>
<text text-anchor="start" x="7.5" y="-19" font-family="Helvetica,sans-Serif" font-size="10.00">mars/interfaces/sim</text>
<text text-anchor="middle" x="58" y="-8" font-family="Helvetica,sans-Serif" font-size="10.00">/MarsPluginTemplate.h</text>
</g>
<!-- Node1&#45;&gt;Node2 -->
<g id="edge1" class="edge"><title>Node1&#45;&gt;Node2</title>
<path fill="none" stroke="midnightblue" d="M345.692,-71.0345C284.48,-60.9568 205.874,-47.4942 126.726,-32.0898"/>
<polygon fill="midnightblue" stroke="midnightblue" points="127.055,-28.5879 116.569,-30.1027 125.711,-35.4576 127.055,-28.5879"/>
</g>
<!-- Node3 -->
<g id="node3" class="node"><title>Node3</title>
<polygon fill="white" stroke="#bfbfbf" points="135,-1 135,-31 269,-31 269,-1 135,-1"/>
<text text-anchor="start" x="143" y="-19" font-family="Helvetica,sans-Serif" font-size="10.00">mars/data_broker/Receiver</text>
<text text-anchor="middle" x="202" y="-8" font-family="Helvetica,sans-Serif" font-size="10.00">Interface.h</text>
</g>
<!-- Node1&#45;&gt;Node3 -->
<g id="edge2" class="edge"><title>Node1&#45;&gt;Node3</title>
<path fill="none" stroke="midnightblue" d="M383.025,-68.411C344.845,-57.5681 297.874,-44.2283 261.347,-33.8545"/>
<polygon fill="midnightblue" stroke="midnightblue" points="261.913,-30.3769 251.337,-31.0117 260.001,-37.1106 261.913,-30.3769"/>
</g>
<!-- Node4 -->
<g id="node4" class="node"><title>Node4</title>
<polygon fill="white" stroke="#bfbfbf" points="287.5,-1 287.5,-31 446.5,-31 446.5,-1 287.5,-1"/>
<text text-anchor="start" x="295.5" y="-19" font-family="Helvetica,sans-Serif" font-size="10.00">mars/cfg_manager/CFGManager</text>
<text text-anchor="middle" x="367" y="-8" font-family="Helvetica,sans-Serif" font-size="10.00">Interface.h</text>
</g>
<!-- Node1&#45;&gt;Node4 -->
<g id="edge3" class="edge"><title>Node1&#45;&gt;Node4</title>
<path fill="none" stroke="midnightblue" d="M428.323,-68.2225C416.939,-58.7134 403.296,-47.3182 391.773,-37.6925"/>
<polygon fill="midnightblue" stroke="midnightblue" points="393.737,-34.7731 383.819,-31.0485 389.25,-40.1455 393.737,-34.7731"/>
</g>
<!-- Node5 -->
<g id="node5" class="node"><title>Node5</title>
<polygon fill="white" stroke="#bfbfbf" points="465,-6.5 465,-25.5 611,-25.5 611,-6.5 465,-6.5"/>
<text text-anchor="middle" x="538" y="-13.5" font-family="Helvetica,sans-Serif" font-size="10.00">mars/interfaces/MARSDefs.h</text>
</g>
<!-- Node1&#45;&gt;Node5 -->
<g id="edge4" class="edge"><title>Node1&#45;&gt;Node5</title>
<path fill="none" stroke="midnightblue" d="M475.956,-68.2225C489.686,-56.8875 506.662,-42.8725 519.384,-32.3692"/>
<polygon fill="midnightblue" stroke="midnightblue" points="521.936,-34.8005 527.42,-25.7349 517.48,-29.4024 521.936,-34.8005"/>
</g>
<!-- Node6 -->
<g id="node6" class="node"><title>Node6</title>
<polygon fill="white" stroke="#bfbfbf" points="629.5,-6.5 629.5,-25.5 670.5,-25.5 670.5,-6.5 629.5,-6.5"/>
<text text-anchor="middle" x="650" y="-13.5" font-family="Helvetica,sans-Serif" font-size="10.00">string</text>
</g>
<!-- Node1&#45;&gt;Node6 -->
<g id="edge5" class="edge"><title>Node1&#45;&gt;Node6</title>
<path fill="none" stroke="midnightblue" d="M517.812,-68.4469C549.144,-58.5355 586.909,-45.7066 620,-32 621.59,-31.3412 623.214,-30.6346 624.841,-29.8999"/>
<polygon fill="midnightblue" stroke="midnightblue" points="626.488,-32.9919 634.003,-25.5236 623.471,-26.6755 626.488,-32.9919"/>
</g>
<!-- Node7 -->
<g id="node7" class="node"><title>Node7</title>
<polygon fill="white" stroke="#bfbfbf" points="688.5,-6.5 688.5,-25.5 735.5,-25.5 735.5,-6.5 688.5,-6.5"/>
<text text-anchor="middle" x="712" y="-13.5" font-family="Helvetica,sans-Serif" font-size="10.00">math.h</text>
</g>
<!-- Node1&#45;&gt;Node7 -->
<g id="edge6" class="edge"><title>Node1&#45;&gt;Node7</title>
<path fill="none" stroke="midnightblue" d="M547.848,-68.4896C588.76,-59.1035 636.725,-46.6812 679,-32 681.125,-31.2619 683.301,-30.4375 685.47,-29.5651"/>
<polygon fill="midnightblue" stroke="midnightblue" points="686.979,-32.7264 694.777,-25.5539 684.208,-26.2981 686.979,-32.7264"/>
</g>
</g>
</svg>
