<?xml version="1.0" encoding="UTF-8" standalone="no"?>
<!DOCTYPE svg PUBLIC "-//W3C//DTD SVG 1.1//EN"
 "http://www.w3.org/Graphics/SVG/1.1/DTD/svg11.dtd">
<!-- Generated by graphviz version 2.36.0 (20140111.2315)
 -->
<!-- Title: /media/kavonszadkowski/work/marsdocs/mars/gui/src/dialogs/CaptureWindow/CaptureWindow.h Pages: 1 -->
<svg width="651pt" height="310pt"
 viewBox="0.00 0.00 651.00 310.00" xmlns="http://www.w3.org/2000/svg" xmlns:xlink="http://www.w3.org/1999/xlink">
<g id="graph0" class="graph" transform="scale(1 1) rotate(0) translate(4 306)">
<title>/media/kavonszadkowski/work/marsdocs/mars/gui/src/dialogs/CaptureWindow/CaptureWindow.h</title>
<polygon fill="white" stroke="none" points="-4,4 -4,-306 647,-306 647,4 -4,4"/>
<!-- Node1 -->
<g id="node1" class="node"><title>Node1</title>
<polygon fill="#bfbfbf" stroke="black" points="192,-249 192,-301 332,-301 332,-249 192,-249"/>
<text text-anchor="start" x="200" y="-289" font-family="Helvetica,sans-Serif" font-size="10.00">/media/kavonszadkowski</text>
<text text-anchor="start" x="200" y="-278" font-family="Helvetica,sans-Serif" font-size="10.00">/work/marsdocs/mars/gui</text>
<text text-anchor="start" x="200" y="-267" font-family="Helvetica,sans-Serif" font-size="10.00">/src/dialogs/CaptureWindow</text>
<text text-anchor="middle" x="262" y="-256" font-family="Helvetica,sans-Serif" font-size="10.00">/CaptureWindow.h</text>
</g>
<!-- Node2 -->
<g id="node2" class="node"><title>Node2</title>
<polygon fill="white" stroke="#bfbfbf" points="-0.5,-186.5 -0.5,-205.5 48.5,-205.5 48.5,-186.5 -0.5,-186.5"/>
<text text-anchor="middle" x="24" y="-193.5" font-family="Helvetica,sans-Serif" font-size="10.00">QTimer</text>
</g>
<!-- Node1&#45;&gt;Node2 -->
<g id="edge1" class="edge"><title>Node1&#45;&gt;Node2</title>
<path fill="none" stroke="midnightblue" d="M191.642,-253.3C153.397,-241.742 105.383,-226.735 63,-212 60.3919,-211.093 57.6973,-210.125 54.9994,-209.132"/>
<polygon fill="midnightblue" stroke="midnightblue" points="55.9559,-205.753 45.364,-205.505 53.4896,-212.304 55.9559,-205.753"/>
</g>
<!-- Node3 -->
<g id="node3" class="node"><title>Node3</title>
<polygon fill="white" stroke="#bfbfbf" points="146.5,-0.5 146.5,-19.5 197.5,-19.5 197.5,-0.5 146.5,-0.5"/>
<text text-anchor="middle" x="172" y="-7.5" font-family="Helvetica,sans-Serif" font-size="10.00">QMutex</text>
</g>
<!-- Node1&#45;&gt;Node3 -->
<g id="edge2" class="edge"><title>Node1&#45;&gt;Node3</title>
<path fill="none" stroke="midnightblue" d="M208.546,-248.787C169.409,-227.087 119.24,-191.719 96,-144 74.4855,-99.8245 123.614,-50.1361 152.622,-25.9029"/>
<polygon fill="midnightblue" stroke="midnightblue" points="154.963,-28.5107 160.537,-19.5004 150.561,-23.0684 154.963,-28.5107"/>
</g>
<!-- Node4 -->
<g id="node4" class="node"><title>Node4</title>
<g id="a_node4"><a xlink:href="../../d1/d69/_capture_g_u_i_8h.html" target="_top" xlink:title="&quot;CaptureGUI&quot; is a template for the widget interface of the MARS GUI ">
<polygon fill="white" stroke="black" points="223.5,-186.5 223.5,-205.5 300.5,-205.5 300.5,-186.5 223.5,-186.5"/>
<text text-anchor="middle" x="262" y="-193.5" font-family="Helvetica,sans-Serif" font-size="10.00">CaptureGUI.h</text>
</a>
</g>
</g>
<!-- Node1&#45;&gt;Node4 -->
<g id="edge3" class="edge"><title>Node1&#45;&gt;Node4</title>
<path fill="none" stroke="midnightblue" d="M262,-248.787C262,-238.069 262,-225.785 262,-215.871"/>
<polygon fill="midnightblue" stroke="midnightblue" points="265.5,-215.558 262,-205.558 258.5,-215.558 265.5,-215.558"/>
</g>
<!-- Node15 -->
<g id="node15" class="node"><title>Node15</title>
<polygon fill="white" stroke="#bfbfbf" points="319,-186.5 319,-205.5 473,-205.5 473,-186.5 319,-186.5"/>
<text text-anchor="middle" x="396" y="-193.5" font-family="Helvetica,sans-Serif" font-size="10.00">mars/main_gui/MenuInterface.h</text>
</g>
<!-- Node1&#45;&gt;Node15 -->
<g id="edge16" class="edge"><title>Node1&#45;&gt;Node15</title>
<path fill="none" stroke="midnightblue" d="M305.877,-248.787C327.976,-236.088 353.901,-221.191 372.258,-210.643"/>
<polygon fill="midnightblue" stroke="midnightblue" points="374.181,-213.575 381.107,-205.558 370.693,-207.505 374.181,-213.575"/>
</g>
<!-- Node16 -->
<g id="node16" class="node"><title>Node16</title>
<polygon fill="white" stroke="#bfbfbf" points="491.5,-181 491.5,-211 628.5,-211 628.5,-181 491.5,-181"/>
<text text-anchor="start" x="499.5" y="-199" font-family="Helvetica,sans-Serif" font-size="10.00">mars/interfaces/graphics</text>
<text text-anchor="middle" x="560" y="-188" font-family="Helvetica,sans-Serif" font-size="10.00">/GraphicsUpdateInterface.h</text>
</g>
<!-- Node1&#45;&gt;Node16 -->
<g id="edge17" class="edge"><title>Node1&#45;&gt;Node16</title>
<path fill="none" stroke="midnightblue" d="M332.244,-255.85C381.827,-243.038 447.738,-226.007 495.894,-213.564"/>
<polygon fill="midnightblue" stroke="midnightblue" points="496.777,-216.951 505.583,-211.061 495.026,-210.174 496.777,-216.951"/>
</g>
<!-- Node5 -->
<g id="node5" class="node"><title>Node5</title>
<polygon fill="white" stroke="#bfbfbf" points="105.5,-124.5 105.5,-143.5 250.5,-143.5 250.5,-124.5 105.5,-124.5"/>
<text text-anchor="middle" x="178" y="-131.5" font-family="Helvetica,sans-Serif" font-size="10.00">mars/main_gui/BaseWidget.h</text>
</g>
<!-- Node4&#45;&gt;Node5 -->
<g id="edge4" class="edge"><title>Node4&#45;&gt;Node5</title>
<path fill="none" stroke="midnightblue" d="M249.965,-186.403C236.492,-176.78 214.434,-161.024 198.285,-149.489"/>
<polygon fill="midnightblue" stroke="midnightblue" points="200.185,-146.545 190.013,-143.581 196.116,-152.241 200.185,-146.545"/>
</g>
<!-- Node6 -->
<g id="node6" class="node"><title>Node6</title>
<polygon fill="white" stroke="#bfbfbf" points="269,-124.5 269,-143.5 425,-143.5 425,-124.5 269,-124.5"/>
<text text-anchor="middle" x="347" y="-131.5" font-family="Helvetica,sans-Serif" font-size="10.00">mars/main_gui/PropertyDialog.h</text>
</g>
<!-- Node4&#45;&gt;Node6 -->
<g id="edge5" class="edge"><title>Node4&#45;&gt;Node6</title>
<path fill="none" stroke="midnightblue" d="M274.178,-186.403C287.812,-176.78 310.132,-161.024 326.474,-149.489"/>
<polygon fill="midnightblue" stroke="midnightblue" points="328.693,-152.207 334.844,-143.581 324.656,-146.488 328.693,-152.207"/>
</g>
<!-- Node7 -->
<g id="node7" class="node"><title>Node7</title>
<g id="a_node7"><a xlink:href="../../d3/d28/_capture_config_8h.html" target="_top" xlink:title="&quot;CaptureConfig&quot; ">
<polygon fill="white" stroke="black" points="553,-124.5 553,-143.5 641,-143.5 641,-124.5 553,-124.5"/>
<text text-anchor="middle" x="597" y="-131.5" font-family="Helvetica,sans-Serif" font-size="10.00">CaptureConfig.h</text>
</a>
</g>
</g>
<!-- Node4&#45;&gt;Node7 -->
<g id="edge6" class="edge"><title>Node4&#45;&gt;Node7</title>
<path fill="none" stroke="midnightblue" d="M286.718,-186.496C294.14,-184.155 302.345,-181.774 310,-180 409.403,-156.96 438.387,-160.558 542.762,-144.161"/>
<polygon fill="midnightblue" stroke="midnightblue" points="543.439,-147.597 552.762,-142.565 542.336,-140.684 543.439,-147.597"/>
</g>
<!-- Node14 -->
<g id="node14" class="node"><title>Node14</title>
<polygon fill="white" stroke="#bfbfbf" points="443,-124.5 443,-143.5 535,-143.5 535,-124.5 443,-124.5"/>
<text text-anchor="middle" x="489" y="-131.5" font-family="Helvetica,sans-Serif" font-size="10.00">QDoubleSpinBox</text>
</g>
<!-- Node4&#45;&gt;Node14 -->
<g id="edge15" class="edge"><title>Node4&#45;&gt;Node14</title>
<path fill="none" stroke="midnightblue" d="M288.328,-186.478C295.346,-184.287 302.941,-181.989 310,-180 354.826,-167.372 406.447,-154.579 442.701,-145.878"/>
<polygon fill="midnightblue" stroke="midnightblue" points="443.588,-149.265 452.5,-143.536 441.96,-142.456 443.588,-149.265"/>
</g>
<!-- Node8 -->
<g id="node8" class="node"><title>Node8</title>
<polygon fill="white" stroke="#bfbfbf" points="505.5,-57 505.5,-87 608.5,-87 608.5,-57 505.5,-57"/>
<text text-anchor="start" x="513.5" y="-75" font-family="Helvetica,sans-Serif" font-size="10.00">mars/interfaces/sim</text>
<text text-anchor="middle" x="557" y="-64" font-family="Helvetica,sans-Serif" font-size="10.00">/ControlCenter.h</text>
</g>
<!-- Node7&#45;&gt;Node8 -->
<g id="edge7" class="edge"><title>Node7&#45;&gt;Node8</title>
<path fill="none" stroke="midnightblue" d="M591.269,-124.403C586.257,-116.885 578.749,-105.624 572.038,-95.5565"/>
<polygon fill="midnightblue" stroke="midnightblue" points="574.886,-93.5199 566.427,-87.1408 569.062,-97.4028 574.886,-93.5199"/>
</g>
<!-- Node9 -->
<g id="node9" class="node"><title>Node9</title>
<polygon fill="white" stroke="#bfbfbf" points="589,-0.5 589,-19.5 643,-19.5 643,-0.5 589,-0.5"/>
<text text-anchor="middle" x="616" y="-7.5" font-family="Helvetica,sans-Serif" font-size="10.00">QThread</text>
</g>
<!-- Node7&#45;&gt;Node9 -->
<g id="edge8" class="edge"><title>Node7&#45;&gt;Node9</title>
<path fill="none" stroke="midnightblue" d="M602.13,-124.407C607.058,-115.614 614.16,-101.381 617,-88 621.154,-68.426 620.109,-45.4198 618.524,-29.6855"/>
<polygon fill="midnightblue" stroke="midnightblue" points="621.99,-29.1875 617.341,-19.6668 615.038,-30.0082 621.99,-29.1875"/>
</g>
<!-- Node10 -->
<g id="node10" class="node"><title>Node10</title>
<g id="a_node10"><a xlink:href="../../d9/d5d/_image_process_8h.html" target="_top" xlink:title="ImageProcess.h">
<polygon fill="white" stroke="black" points="399,-62.5 399,-81.5 487,-81.5 487,-62.5 399,-62.5"/>
<text text-anchor="middle" x="443" y="-69.5" font-family="Helvetica,sans-Serif" font-size="10.00">ImageProcess.h</text>
</a>
</g>
</g>
<!-- Node7&#45;&gt;Node10 -->
<g id="edge9" class="edge"><title>Node7&#45;&gt;Node10</title>
<path fill="none" stroke="midnightblue" d="M574.936,-124.403C548.633,-114.156 504.487,-96.9561 474.575,-85.3021"/>
<polygon fill="midnightblue" stroke="midnightblue" points="475.612,-81.9497 465.024,-81.5806 473.071,-88.4722 475.612,-81.9497"/>
</g>
<!-- Node10&#45;&gt;Node3 -->
<g id="edge11" class="edge"><title>Node10&#45;&gt;Node3</title>
<path fill="none" stroke="midnightblue" d="M404.46,-62.4672C351.963,-50.8442 258.69,-30.1933 207.708,-18.9059"/>
<polygon fill="midnightblue" stroke="midnightblue" points="208.321,-15.4568 197.801,-16.7123 206.808,-22.2913 208.321,-15.4568"/>
</g>
<!-- Node10&#45;&gt;Node9 -->
<g id="edge10" class="edge"><title>Node10&#45;&gt;Node9</title>
<path fill="none" stroke="midnightblue" d="M467.787,-62.4035C497.591,-52.0668 547.791,-34.6564 581.402,-22.9994"/>
<polygon fill="midnightblue" stroke="midnightblue" points="582.958,-26.1642 591.259,-19.5806 580.665,-19.5506 582.958,-26.1642"/>
</g>
<!-- Node11 -->
<g id="node11" class="node"><title>Node11</title>
<polygon fill="white" stroke="#bfbfbf" points="506,-0.5 506,-19.5 550,-19.5 550,-0.5 506,-0.5"/>
<text text-anchor="middle" x="528" y="-7.5" font-family="Helvetica,sans-Serif" font-size="10.00">vector</text>
</g>
<!-- Node10&#45;&gt;Node11 -->
<g id="edge12" class="edge"><title>Node10&#45;&gt;Node11</title>
<path fill="none" stroke="midnightblue" d="M455.178,-62.4035C468.812,-52.7797 491.132,-37.0242 507.474,-25.4891"/>
<polygon fill="midnightblue" stroke="midnightblue" points="509.693,-28.2069 515.844,-19.5806 505.656,-22.4881 509.693,-28.2069"/>
</g>
<!-- Node12 -->
<g id="node12" class="node"><title>Node12</title>
<polygon fill="white" stroke="#bfbfbf" points="310,-0.5 310,-19.5 380,-19.5 380,-0.5 310,-0.5"/>
<text text-anchor="middle" x="345" y="-7.5" font-family="Helvetica,sans-Serif" font-size="10.00">opencv/cv.h</text>
</g>
<!-- Node10&#45;&gt;Node12 -->
<g id="edge13" class="edge"><title>Node10&#45;&gt;Node12</title>
<path fill="none" stroke="midnightblue" d="M428.959,-62.4035C412.949,-52.6014 386.55,-36.4385 367.626,-24.8526"/>
<polygon fill="midnightblue" stroke="midnightblue" points="369.371,-21.8172 359.015,-19.5806 365.716,-27.7872 369.371,-21.8172"/>
</g>
<!-- Node13 -->
<g id="node13" class="node"><title>Node13</title>
<polygon fill="white" stroke="#bfbfbf" points="398,-0.5 398,-19.5 488,-19.5 488,-0.5 398,-0.5"/>
<text text-anchor="middle" x="443" y="-7.5" font-family="Helvetica,sans-Serif" font-size="10.00">opencv/highgui.h</text>
</g>
<!-- Node10&#45;&gt;Node13 -->
<g id="edge14" class="edge"><title>Node10&#45;&gt;Node13</title>
<path fill="none" stroke="midnightblue" d="M443,-62.4035C443,-53.9381 443,-40.7283 443,-29.8199"/>
<polygon fill="midnightblue" stroke="midnightblue" points="446.5,-29.5806 443,-19.5806 439.5,-29.5806 446.5,-29.5806"/>
</g>
</g>
</svg>
