<?xml version="1.0" encoding="UTF-8" standalone="no"?>
<!DOCTYPE svg PUBLIC "-//W3C//DTD SVG 1.1//EN"
 "http://www.w3.org/Graphics/SVG/1.1/DTD/svg11.dtd">
<!-- Generated by graphviz version 2.36.0 (20140111.2315)
 -->
<!-- Title: mars::sim::JointLoadSensor Pages: 1 -->
<svg width="508pt" height="126pt"
 viewBox="0.00 0.00 508.00 126.00" xmlns="http://www.w3.org/2000/svg" xmlns:xlink="http://www.w3.org/1999/xlink">
<g id="graph0" class="graph" transform="scale(1 1) rotate(0) translate(4 122)">
<title>mars::sim::JointLoadSensor</title>
<polygon fill="white" stroke="none" points="-4,4 -4,-122 504,-122 504,4 -4,4"/>
<!-- Node1 -->
<g id="node1" class="node"><title>Node1</title>
<polygon fill="#bfbfbf" stroke="black" points="360.5,-27.5 360.5,-46.5 499.5,-46.5 499.5,-27.5 360.5,-27.5"/>
<text text-anchor="middle" x="430" y="-34.5" font-family="Helvetica,sans-Serif" font-size="10.00">mars::sim::JointLoadSensor</text>
</g>
<!-- Node2 -->
<g id="node2" class="node"><title>Node2</title>
<g id="a_node2"><a xlink:href="../../d0/d80/classmars_1_1sim_1_1_joint_array_sensor.html" target="_top" xlink:title="mars::sim::JointArraySensor">
<polygon fill="white" stroke="black" points="182.5,-49.5 182.5,-68.5 323.5,-68.5 323.5,-49.5 182.5,-49.5"/>
<text text-anchor="middle" x="253" y="-56.5" font-family="Helvetica,sans-Serif" font-size="10.00">mars::sim::JointArraySensor</text>
</a>
</g>
</g>
<!-- Node2&#45;&gt;Node1 -->
<g id="edge1" class="edge"><title>Node2&#45;&gt;Node1</title>
<path fill="none" stroke="midnightblue" d="M333.684,-48.9826C342.615,-47.8598 351.655,-46.7233 360.429,-45.6204"/>
<polygon fill="midnightblue" stroke="midnightblue" points="333.153,-45.5217 323.667,-50.2418 334.026,-52.4671 333.153,-45.5217"/>
</g>
<!-- Node3 -->
<g id="node3" class="node"><title>Node3</title>
<g id="a_node3"><a xlink:href="../../d3/d21/classmars_1_1interfaces_1_1_sensor_interface.html" target="_top" xlink:title="mars::interfaces::Sensor\lInterface">
<polygon fill="white" stroke="black" points="11,-88 11,-118 135,-118 135,-88 11,-88"/>
<text text-anchor="start" x="19" y="-106" font-family="Helvetica,sans-Serif" font-size="10.00">mars::interfaces::Sensor</text>
<text text-anchor="middle" x="73" y="-95" font-family="Helvetica,sans-Serif" font-size="10.00">Interface</text>
</a>
</g>
</g>
<!-- Node3&#45;&gt;Node2 -->
<g id="edge2" class="edge"><title>Node3&#45;&gt;Node2</title>
<path fill="none" stroke="midnightblue" d="M144.691,-85.5259C168.163,-79.7237 193.412,-73.4824 213.518,-68.5124"/>
<polygon fill="midnightblue" stroke="midnightblue" points="143.628,-82.1833 134.76,-87.9808 145.307,-88.9787 143.628,-82.1833"/>
</g>
<!-- Node4 -->
<g id="node4" class="node"><title>Node4</title>
<g id="a_node4"><a xlink:href="../../da/d73/classmars_1_1interfaces_1_1_base_sensor.html" target="_top" xlink:title="mars::interfaces::BaseSensor">
<polygon fill="white" stroke="black" points="0,-49.5 0,-68.5 146,-68.5 146,-49.5 0,-49.5"/>
<text text-anchor="middle" x="73" y="-56.5" font-family="Helvetica,sans-Serif" font-size="10.00">mars::interfaces::BaseSensor</text>
</a>
</g>
</g>
<!-- Node4&#45;&gt;Node2 -->
<g id="edge3" class="edge"><title>Node4&#45;&gt;Node2</title>
<path fill="none" stroke="midnightblue" d="M156.305,-59C165.013,-59 173.806,-59 182.35,-59"/>
<polygon fill="midnightblue" stroke="midnightblue" points="156.143,-55.5001 146.143,-59 156.143,-62.5001 156.143,-55.5001"/>
</g>
<!-- Node5 -->
<g id="node5" class="node"><title>Node5</title>
<g id="a_node5"><a xlink:href="../../d0/d0e/classmars_1_1data__broker_1_1_receiver_interface.html" target="_top" xlink:title="Interface for classes that want to receive data from the DataBroker. ">
<polygon fill="white" stroke="black" points="22.5,-0 22.5,-30 123.5,-30 123.5,-0 22.5,-0"/>
<text text-anchor="start" x="30.5" y="-18" font-family="Helvetica,sans-Serif" font-size="10.00">mars::data_broker::</text>
<text text-anchor="middle" x="73" y="-7" font-family="Helvetica,sans-Serif" font-size="10.00">ReceiverInterface</text>
</a>
</g>
</g>
<!-- Node5&#45;&gt;Node2 -->
<g id="edge4" class="edge"><title>Node5&#45;&gt;Node2</title>
<path fill="none" stroke="midnightblue" d="M133.467,-29.6998C159.814,-36.2125 190.055,-43.6878 213.397,-49.4577"/>
<polygon fill="midnightblue" stroke="midnightblue" points="134.131,-26.2585 123.583,-27.2565 132.451,-33.0539 134.131,-26.2585"/>
</g>
<!-- Node6 -->
<g id="node6" class="node"><title>Node6</title>
<g id="a_node6"><a xlink:href="../../d1/db0/classmars_1_1data__broker_1_1_producer_interface.html" target="_top" xlink:title="Interface for classes producing data to broadcast via a DataBroker. ">
<polygon fill="white" stroke="black" points="202.5,-0 202.5,-30 303.5,-30 303.5,-0 202.5,-0"/>
<text text-anchor="start" x="210.5" y="-18" font-family="Helvetica,sans-Serif" font-size="10.00">mars::data_broker::</text>
<text text-anchor="middle" x="253" y="-7" font-family="Helvetica,sans-Serif" font-size="10.00">ProducerInterface</text>
</a>
</g>
</g>
<!-- Node6&#45;&gt;Node1 -->
<g id="edge5" class="edge"><title>Node6&#45;&gt;Node1</title>
<path fill="none" stroke="midnightblue" d="M313.812,-22.5192C328.759,-24.3983 344.909,-26.4285 360.251,-28.3573"/>
<polygon fill="midnightblue" stroke="midnightblue" points="314.038,-19.0202 303.68,-21.2455 313.165,-25.9655 314.038,-19.0202"/>
</g>
</g>
</svg>
