<?xml version="1.0" encoding="UTF-8" standalone="no"?>
<!DOCTYPE svg PUBLIC "-//W3C//DTD SVG 1.1//EN"
 "http://www.w3.org/Graphics/SVG/1.1/DTD/svg11.dtd">
<!-- Generated by graphviz version 2.26.3 (20100126.1600)
 -->
<!-- Title: /home/kavonszadkowski/limes&#45;dev/simulation/mars/interfaces/src/GraphicData.h Pages: 1 -->
<svg width="340pt" height="128pt"
 viewBox="0.00 0.00 340.00 128.00" xmlns="http://www.w3.org/2000/svg" xmlns:xlink="http://www.w3.org/1999/xlink">
<g id="graph1" class="graph" transform="scale(1 1) rotate(0) translate(4 124)">
<title>/home/kavonszadkowski/limes&#45;dev/simulation/mars/interfaces/src/GraphicData.h</title>
<polygon fill="white" stroke="white" points="-4,5 -4,-124 337,-124 337,5 -4,5"/>
<!-- Node1 -->
<g id="node1" class="node"><title>Node1</title>
<polygon fill="#bfbfbf" stroke="black" points="69,-59 69,-119 209,-119 209,-59 69,-59"/>
<text text-anchor="start" x="77" y="-106" font-family="Helvetica,sans-Serif" font-size="10.00">/home/kavonszadkowski</text>
<text text-anchor="start" x="77" y="-93" font-family="Helvetica,sans-Serif" font-size="10.00">/limes&#45;dev/simulation</text>
<text text-anchor="start" x="77" y="-80" font-family="Helvetica,sans-Serif" font-size="10.00">/mars/interfaces/src/Graphic</text>
<text text-anchor="middle" x="139" y="-67" font-family="Helvetica,sans-Serif" font-size="10.00">Data.h</text>
</g>
<!-- Node2 -->
<g id="node3" class="node"><title>Node2</title>
<a xlink:href="../../dd/d9e/_m_a_r_s_defs_8h.html" target="_top" xlink:title="MARSDefs.h">
<polygon fill="white" stroke="black" points="-0.5,-0.5 -0.5,-21.5 74.5,-21.5 74.5,-0.5 -0.5,-0.5"/>
<text text-anchor="middle" x="37" y="-8.5" font-family="Helvetica,sans-Serif" font-size="10.00">MARSDefs.h</text>
</a>
</g>
<!-- Node1&#45;&gt;Node2 -->
<g id="edge2" class="edge"><title>Node1&#45;&gt;Node2</title>
<path fill="none" stroke="midnightblue" d="M99.5641,-58.8432C85.8504,-48.3562 70.9591,-36.9688 59.146,-27.9352"/>
<polygon fill="midnightblue" stroke="midnightblue" points="61.2189,-25.1142 51.1492,-21.8199 56.9667,-30.6747 61.2189,-25.1142"/>
</g>
<!-- Node3 -->
<g id="node5" class="node"><title>Node3</title>
<polygon fill="white" stroke="#bfbfbf" points="92,-0.5 92,-21.5 186,-21.5 186,-0.5 92,-0.5"/>
<text text-anchor="middle" x="139" y="-8.5" font-family="Helvetica,sans-Serif" font-size="10.00">mars/utils/Color.h</text>
</g>
<!-- Node1&#45;&gt;Node3 -->
<g id="edge4" class="edge"><title>Node1&#45;&gt;Node3</title>
<path fill="none" stroke="midnightblue" d="M139,-58.6198C139,-49.6797 139,-40.1035 139,-31.9002"/>
<polygon fill="midnightblue" stroke="midnightblue" points="142.5,-31.7534 139,-21.7535 135.5,-31.7535 142.5,-31.7534"/>
</g>
<!-- Node4 -->
<g id="node7" class="node"><title>Node4</title>
<polygon fill="white" stroke="#bfbfbf" points="204,-0.5 204,-21.5 332,-21.5 332,-0.5 204,-0.5"/>
<text text-anchor="middle" x="268" y="-8.5" font-family="Helvetica,sans-Serif" font-size="10.00">configmaps/ConfigData.h</text>
</g>
<!-- Node1&#45;&gt;Node4 -->
<g id="edge6" class="edge"><title>Node1&#45;&gt;Node4</title>
<path fill="none" stroke="midnightblue" d="M188.875,-58.8432C206.841,-47.9798 226.406,-36.15 241.585,-26.9716"/>
<polygon fill="midnightblue" stroke="midnightblue" points="243.67,-29.801 250.417,-21.6317 240.048,-23.8109 243.67,-29.801"/>
</g>
</g>
</svg>
