<?xml version="1.0" encoding="UTF-8" standalone="no"?>
<!DOCTYPE svg PUBLIC "-//W3C//DTD SVG 1.1//EN"
 "http://www.w3.org/Graphics/SVG/1.1/DTD/svg11.dtd">
<!-- Generated by graphviz version 2.26.3 (20100126.1600)
 -->
<!-- Title: DIPROPCPOINTS Pages: 1 -->
<svg width="184pt" height="102pt"
 viewBox="0.00 0.00 184.00 102.00" xmlns="http://www.w3.org/2000/svg" xmlns:xlink="http://www.w3.org/1999/xlink">
<g id="graph1" class="graph" transform="scale(1 1) rotate(0) translate(4 98)">
<title>DIPROPCPOINTS</title>
<polygon fill="white" stroke="white" points="-4,5 -4,-98 181,-98 181,5 -4,5"/>
<!-- Node1 -->
<g id="node1" class="node"><title>Node1</title>
<polygon fill="#bfbfbf" stroke="black" points="46.5,-0.5 46.5,-21.5 147.5,-21.5 147.5,-0.5 46.5,-0.5"/>
<text text-anchor="middle" x="97" y="-8.5" font-family="Helvetica,sans-Serif" font-size="10.00">DIPROPCPOINTS</text>
</g>
<!-- Node2 -->
<g id="node2" class="node"><title>Node2</title>
<a xlink:href="../../d9/daa/struct_d_i_p_r_o_p_h_e_a_d_e_r.html" target="_top" xlink:title="DIPROPHEADER">
<polygon fill="white" stroke="black" points="0,-72.5 0,-93.5 98,-93.5 98,-72.5 0,-72.5"/>
<text text-anchor="middle" x="49" y="-80.5" font-family="Helvetica,sans-Serif" font-size="10.00">DIPROPHEADER</text>
</a>
</g>
<!-- Node2&#45;&gt;Node1 -->
<g id="edge2" class="edge"><title>Node2&#45;&gt;Node1</title>
<path fill="none" stroke="#9a32cd" stroke-dasharray="5,2" d="M61.7934,-63.8099C70.7929,-50.3106 82.5034,-32.7449 89.8884,-21.6674"/>
<polygon fill="#9a32cd" stroke="#9a32cd" points="58.7174,-62.1142 56.0826,-72.3762 64.5418,-65.9971 58.7174,-62.1142"/>
<text text-anchor="middle" x="89" y="-44.5" font-family="Helvetica,sans-Serif" font-size="10.00"> diph</text>
</g>
<!-- Node3 -->
<g id="node4" class="node"><title>Node3</title>
<a xlink:href="../../d0/d4c/struct___c_p_o_i_n_t.html" target="_top" xlink:title="_CPOINT">
<polygon fill="white" stroke="black" points="116,-72.5 116,-93.5 176,-93.5 176,-72.5 116,-72.5"/>
<text text-anchor="middle" x="146" y="-80.5" font-family="Helvetica,sans-Serif" font-size="10.00">_CPOINT</text>
</a>
</g>
<!-- Node3&#45;&gt;Node1 -->
<g id="edge4" class="edge"><title>Node3&#45;&gt;Node1</title>
<path fill="none" stroke="#9a32cd" stroke-dasharray="5,2" d="M132.94,-63.8099C123.753,-50.3106 111.799,-32.7449 104.26,-21.6674"/>
<polygon fill="#9a32cd" stroke="#9a32cd" points="130.25,-66.0782 138.77,-72.3762 136.037,-62.1398 130.25,-66.0782"/>
<text text-anchor="middle" x="132" y="-44.5" font-family="Helvetica,sans-Serif" font-size="10.00"> cp</text>
</g>
</g>
</svg>
