<?xml version="1.0" encoding="UTF-8" standalone="no"?>
<!DOCTYPE svg PUBLIC "-//W3C//DTD SVG 1.1//EN"
 "http://www.w3.org/Graphics/SVG/1.1/DTD/svg11.dtd">
<!-- Generated by graphviz version 2.36.0 (20140111.2315)
 -->
<!-- Title: osg_material_manager::OsgMaterial Pages: 1 -->
<svg width="122pt" height="118pt"
 viewBox="0.00 0.00 122.00 118.00" xmlns="http://www.w3.org/2000/svg" xmlns:xlink="http://www.w3.org/1999/xlink">
<g id="graph0" class="graph" transform="scale(1 1) rotate(0) translate(4 114)">
<title>osg_material_manager::OsgMaterial</title>
<polygon fill="white" stroke="none" points="-4,4 -4,-114 118,-114 118,4 -4,4"/>
<!-- Node1 -->
<g id="node1" class="node"><title>Node1</title>
<polygon fill="#bfbfbf" stroke="black" points="-0.5,-1 -0.5,-31 114.5,-31 114.5,-1 -0.5,-1"/>
<text text-anchor="start" x="7.5" y="-19" font-family="Helvetica,sans-Serif" font-size="10.00">osg_material_manager</text>
<text text-anchor="middle" x="57" y="-8" font-family="Helvetica,sans-Serif" font-size="10.00">::OsgMaterial</text>
</g>
<!-- Node2 -->
<g id="node2" class="node"><title>Node2</title>
<polygon fill="white" stroke="#bfbfbf" points="5.5,-90.5 5.5,-109.5 48.5,-109.5 48.5,-90.5 5.5,-90.5"/>
<text text-anchor="middle" x="27" y="-97.5" font-family="Helvetica,sans-Serif" font-size="10.00">Group</text>
</g>
<!-- Node2&#45;&gt;Node1 -->
<g id="edge1" class="edge"><title>Node2&#45;&gt;Node1</title>
<path fill="none" stroke="midnightblue" d="M33.7497,-80.5508C39.2182,-65.6037 46.8102,-44.8523 51.8108,-31.1839"/>
<polygon fill="midnightblue" stroke="midnightblue" points="30.3595,-79.6308 30.2105,-90.2246 36.9333,-82.0359 30.3595,-79.6308"/>
</g>
<!-- Node3 -->
<g id="node3" class="node"><title>Node3</title>
<polygon fill="white" stroke="#bfbfbf" points="66.5,-90.5 66.5,-109.5 107.5,-109.5 107.5,-90.5 66.5,-90.5"/>
<text text-anchor="middle" x="87" y="-97.5" font-family="Helvetica,sans-Serif" font-size="10.00">string</text>
</g>
<!-- Node3&#45;&gt;Node1 -->
<g id="edge2" class="edge"><title>Node3&#45;&gt;Node1</title>
<path fill="none" stroke="#9a32cd" stroke-dasharray="5,2" d="M80.2503,-80.5508C74.7818,-65.6037 67.1898,-44.8523 62.1892,-31.1839"/>
<polygon fill="#9a32cd" stroke="#9a32cd" points="77.0667,-82.0359 83.7895,-90.2246 83.6405,-79.6308 77.0667,-82.0359"/>
<text text-anchor="middle" x="94.5" y="-64" font-family="Helvetica,sans-Serif" font-size="10.00"> resPath</text>
<text text-anchor="middle" x="94.5" y="-53" font-family="Helvetica,sans-Serif" font-size="10.00">name</text>
</g>
</g>
</svg>
