<?xml version="1.0" encoding="UTF-8" standalone="no"?>
<!DOCTYPE svg PUBLIC "-//W3C//DTD SVG 1.1//EN"
 "http://www.w3.org/Graphics/SVG/1.1/DTD/svg11.dtd">
<!-- Generated by graphviz version 2.36.0 (20140111.2315)
 -->
<!-- Title: /media/kavonszadkowski/work/marsdocs/mars/sim/src/sensors/Joint6DOFSensor.h Pages: 1 -->
<svg width="596pt" height="118pt"
 viewBox="0.00 0.00 596.00 118.00" xmlns="http://www.w3.org/2000/svg" xmlns:xlink="http://www.w3.org/1999/xlink">
<g id="graph0" class="graph" transform="scale(1 1) rotate(0) translate(4 114)">
<title>/media/kavonszadkowski/work/marsdocs/mars/sim/src/sensors/Joint6DOFSensor.h</title>
<polygon fill="white" stroke="none" points="-4,4 -4,-114 592,-114 592,4 -4,4"/>
<!-- Node1 -->
<g id="node1" class="node"><title>Node1</title>
<polygon fill="#bfbfbf" stroke="black" points="222,-68.5 222,-109.5 382,-109.5 382,-68.5 222,-68.5"/>
<text text-anchor="start" x="230" y="-97.5" font-family="Helvetica,sans-Serif" font-size="10.00">/media/kavonszadkowski</text>
<text text-anchor="start" x="230" y="-86.5" font-family="Helvetica,sans-Serif" font-size="10.00">/work/marsdocs/mars/sim</text>
<text text-anchor="middle" x="302" y="-75.5" font-family="Helvetica,sans-Serif" font-size="10.00">/src/sensors/Joint6DOFSensor.h</text>
</g>
<!-- Node2 -->
<g id="node2" class="node"><title>Node2</title>
<polygon fill="white" stroke="#bfbfbf" points="0,-1 0,-31 134,-31 134,-1 0,-1"/>
<text text-anchor="start" x="8" y="-19" font-family="Helvetica,sans-Serif" font-size="10.00">mars/data_broker/Producer</text>
<text text-anchor="middle" x="67" y="-8" font-family="Helvetica,sans-Serif" font-size="10.00">Interface.h</text>
</g>
<!-- Node1&#45;&gt;Node2 -->
<g id="edge1" class="edge"><title>Node1&#45;&gt;Node2</title>
<path fill="none" stroke="midnightblue" d="M237.163,-68.411C201.428,-57.6144 157.499,-44.3423 123.227,-33.9877"/>
<polygon fill="midnightblue" stroke="midnightblue" points="123.962,-30.5536 113.377,-31.0117 121.937,-37.2544 123.962,-30.5536"/>
</g>
<!-- Node3 -->
<g id="node3" class="node"><title>Node3</title>
<polygon fill="white" stroke="#bfbfbf" points="152,-1 152,-31 286,-31 286,-1 152,-1"/>
<text text-anchor="start" x="160" y="-19" font-family="Helvetica,sans-Serif" font-size="10.00">mars/data_broker/Receiver</text>
<text text-anchor="middle" x="219" y="-8" font-family="Helvetica,sans-Serif" font-size="10.00">Interface.h</text>
</g>
<!-- Node1&#45;&gt;Node3 -->
<g id="edge2" class="edge"><title>Node1&#45;&gt;Node3</title>
<path fill="none" stroke="midnightblue" d="M278.88,-68.2225C267.764,-58.7134 254.442,-47.3182 243.19,-37.6925"/>
<polygon fill="midnightblue" stroke="midnightblue" points="245.297,-34.8893 235.423,-31.0485 240.747,-40.2086 245.297,-34.8893"/>
</g>
<!-- Node4 -->
<g id="node4" class="node"><title>Node4</title>
<polygon fill="white" stroke="#bfbfbf" points="304.5,-6.5 304.5,-25.5 467.5,-25.5 467.5,-6.5 304.5,-6.5"/>
<text text-anchor="middle" x="386" y="-13.5" font-family="Helvetica,sans-Serif" font-size="10.00">mars/data_broker/DataPackage.h</text>
</g>
<!-- Node1&#45;&gt;Node4 -->
<g id="edge3" class="edge"><title>Node1&#45;&gt;Node4</title>
<path fill="none" stroke="midnightblue" d="M325.399,-68.2225C338.809,-56.8875 355.39,-42.8725 367.817,-32.3692"/>
<polygon fill="midnightblue" stroke="midnightblue" points="370.288,-34.8633 375.666,-25.7349 365.769,-29.5172 370.288,-34.8633"/>
</g>
<!-- Node5 -->
<g id="node5" class="node"><title>Node5</title>
<polygon fill="white" stroke="#bfbfbf" points="485.5,-1 485.5,-31 588.5,-31 588.5,-1 485.5,-1"/>
<text text-anchor="start" x="493.5" y="-19" font-family="Helvetica,sans-Serif" font-size="10.00">mars/interfaces/sim</text>
<text text-anchor="middle" x="537" y="-8" font-family="Helvetica,sans-Serif" font-size="10.00">/SensorInterface.h</text>
</g>
<!-- Node1&#45;&gt;Node5 -->
<g id="edge4" class="edge"><title>Node1&#45;&gt;Node5</title>
<path fill="none" stroke="midnightblue" d="M366.837,-68.411C402.572,-57.6144 446.501,-44.3423 480.773,-33.9877"/>
<polygon fill="midnightblue" stroke="midnightblue" points="482.063,-37.2544 490.623,-31.0117 480.038,-30.5536 482.063,-37.2544"/>
</g>
</g>
</svg>
