<?xml version="1.0" encoding="UTF-8" standalone="no"?>
<!DOCTYPE svg PUBLIC "-//W3C//DTD SVG 1.1//EN"
 "http://www.w3.org/Graphics/SVG/1.1/DTD/svg11.dtd">
<!-- Generated by graphviz version 2.26.3 (20100126.1600)
 -->
<!-- Title: /home/kavonszadkowski/limes&#45;dev/simulation/mars/sim/src/sensors/Joint6DOFSensor.h Pages: 1 -->
<svg width="594pt" height="142pt"
 viewBox="0.00 0.00 594.00 142.00" xmlns="http://www.w3.org/2000/svg" xmlns:xlink="http://www.w3.org/1999/xlink">
<g id="graph1" class="graph" transform="scale(1 1) rotate(0) translate(4 138)">
<title>/home/kavonszadkowski/limes&#45;dev/simulation/mars/sim/src/sensors/Joint6DOFSensor.h</title>
<polygon fill="white" stroke="white" points="-4,5 -4,-138 591,-138 591,5 -4,5"/>
<!-- Node1 -->
<g id="node1" class="node"><title>Node1</title>
<polygon fill="#bfbfbf" stroke="black" points="239.5,-73 239.5,-133 364.5,-133 364.5,-73 239.5,-73"/>
<text text-anchor="start" x="247.5" y="-120" font-family="Helvetica,sans-Serif" font-size="10.00">/home/kavonszadkowski</text>
<text text-anchor="start" x="247.5" y="-107" font-family="Helvetica,sans-Serif" font-size="10.00">/limes&#45;dev/simulation</text>
<text text-anchor="start" x="247.5" y="-94" font-family="Helvetica,sans-Serif" font-size="10.00">/mars/sim/src/sensors</text>
<text text-anchor="middle" x="302" y="-81" font-family="Helvetica,sans-Serif" font-size="10.00">/Joint6DOFSensor.h</text>
</g>
<!-- Node2 -->
<g id="node3" class="node"><title>Node2</title>
<polygon fill="white" stroke="#bfbfbf" points="0,-1 0,-35 134,-35 134,-1 0,-1"/>
<text text-anchor="start" x="8" y="-22" font-family="Helvetica,sans-Serif" font-size="10.00">mars/data_broker/Producer</text>
<text text-anchor="middle" x="67" y="-9" font-family="Helvetica,sans-Serif" font-size="10.00">Interface.h</text>
</g>
<!-- Node1&#45;&gt;Node2 -->
<g id="edge2" class="edge"><title>Node1&#45;&gt;Node2</title>
<path fill="none" stroke="midnightblue" d="M239.333,-80.3332C203.415,-67.3417 158.686,-51.1629 123.799,-38.5441"/>
<polygon fill="midnightblue" stroke="midnightblue" points="124.829,-35.1951 114.235,-35.085 122.448,-41.7778 124.829,-35.1951"/>
</g>
<!-- Node3 -->
<g id="node5" class="node"><title>Node3</title>
<polygon fill="white" stroke="#bfbfbf" points="152,-1 152,-35 286,-35 286,-1 152,-1"/>
<text text-anchor="start" x="160" y="-22" font-family="Helvetica,sans-Serif" font-size="10.00">mars/data_broker/Receiver</text>
<text text-anchor="middle" x="219" y="-9" font-family="Helvetica,sans-Serif" font-size="10.00">Interface.h</text>
</g>
<!-- Node1&#45;&gt;Node3 -->
<g id="edge4" class="edge"><title>Node1&#45;&gt;Node3</title>
<path fill="none" stroke="midnightblue" d="M272.504,-72.7928C262.797,-62.8527 252.132,-51.9309 242.896,-42.4717"/>
<polygon fill="midnightblue" stroke="midnightblue" points="245.331,-39.9553 235.84,-35.2458 240.322,-44.8458 245.331,-39.9553"/>
</g>
<!-- Node4 -->
<g id="node7" class="node"><title>Node4</title>
<polygon fill="white" stroke="#bfbfbf" points="303.5,-7.5 303.5,-28.5 466.5,-28.5 466.5,-7.5 303.5,-7.5"/>
<text text-anchor="middle" x="385" y="-15.5" font-family="Helvetica,sans-Serif" font-size="10.00">mars/data_broker/DataPackage.h</text>
</g>
<!-- Node1&#45;&gt;Node4 -->
<g id="edge6" class="edge"><title>Node1&#45;&gt;Node4</title>
<path fill="none" stroke="midnightblue" d="M331.496,-72.7928C343.378,-60.6248 356.696,-46.9859 367.072,-36.3595"/>
<polygon fill="midnightblue" stroke="midnightblue" points="369.879,-38.4949 374.361,-28.8949 364.871,-33.6044 369.879,-38.4949"/>
</g>
<!-- Node5 -->
<g id="node9" class="node"><title>Node5</title>
<polygon fill="white" stroke="#bfbfbf" points="483.5,-1 483.5,-35 586.5,-35 586.5,-1 483.5,-1"/>
<text text-anchor="start" x="491.5" y="-22" font-family="Helvetica,sans-Serif" font-size="10.00">mars/interfaces/sim</text>
<text text-anchor="middle" x="535" y="-9" font-family="Helvetica,sans-Serif" font-size="10.00">/SensorInterface.h</text>
</g>
<!-- Node1&#45;&gt;Node5 -->
<g id="edge8" class="edge"><title>Node1&#45;&gt;Node5</title>
<path fill="none" stroke="midnightblue" d="M364.746,-80.1097C400.229,-67.1654 444.233,-51.1126 478.614,-38.5698"/>
<polygon fill="midnightblue" stroke="midnightblue" points="479.847,-41.8459 488.042,-35.1307 477.448,-35.2699 479.847,-41.8459"/>
</g>
</g>
</svg>
