<?xml version="1.0" encoding="UTF-8" standalone="no"?>
<!DOCTYPE svg PUBLIC "-//W3C//DTD SVG 1.1//EN"
 "http://www.w3.org/Graphics/SVG/1.1/DTD/svg11.dtd">
<!-- Generated by graphviz version 2.26.3 (20100126.1600)
 -->
<!-- Title: /home/kavonszadkowski/limes&#45;dev/simulation/mars/interfaces/src/graphics/GuiEventInterface.h Pages: 1 -->
<svg width="199pt" height="364pt"
 viewBox="0.00 0.00 199.00 364.00" xmlns="http://www.w3.org/2000/svg" xmlns:xlink="http://www.w3.org/1999/xlink">
<g id="graph1" class="graph" transform="scale(1 1) rotate(0) translate(4 360)">
<title>/home/kavonszadkowski/limes&#45;dev/simulation/mars/interfaces/src/graphics/GuiEventInterface.h</title>
<polygon fill="white" stroke="white" points="-4,5 -4,-360 196,-360 196,5 -4,5"/>
<!-- Node1 -->
<g id="node1" class="node"><title>Node1</title>
<polygon fill="#bfbfbf" stroke="black" points="48.5,-295 48.5,-355 191.5,-355 191.5,-295 48.5,-295"/>
<text text-anchor="start" x="56.5" y="-342" font-family="Helvetica,sans-Serif" font-size="10.00">/home/kavonszadkowski</text>
<text text-anchor="start" x="56.5" y="-329" font-family="Helvetica,sans-Serif" font-size="10.00">/limes&#45;dev/simulation</text>
<text text-anchor="start" x="56.5" y="-316" font-family="Helvetica,sans-Serif" font-size="10.00">/mars/interfaces/src/graphics</text>
<text text-anchor="middle" x="120" y="-303" font-family="Helvetica,sans-Serif" font-size="10.00">/GuiEventInterface.h</text>
</g>
<!-- Node2 -->
<g id="node3" class="node"><title>Node2</title>
<a xlink:href="../../db/d67/_graphics_event_interface_8h.html" target="_top" xlink:title="/home/kavonszadkowski\l/limes&#45;dev/simulation\l/mars/interfaces/src/graphics\l/GraphicsEventInterface.h">
<polygon fill="white" stroke="black" points="-0.5,-197 -0.5,-257 142.5,-257 142.5,-197 -0.5,-197"/>
<text text-anchor="start" x="7.5" y="-244" font-family="Helvetica,sans-Serif" font-size="10.00">/home/kavonszadkowski</text>
<text text-anchor="start" x="7.5" y="-231" font-family="Helvetica,sans-Serif" font-size="10.00">/limes&#45;dev/simulation</text>
<text text-anchor="start" x="7.5" y="-218" font-family="Helvetica,sans-Serif" font-size="10.00">/mars/interfaces/src/graphics</text>
<text text-anchor="middle" x="71" y="-205" font-family="Helvetica,sans-Serif" font-size="10.00">/GraphicsEventInterface.h</text>
</a>
</g>
<!-- Node1&#45;&gt;Node2 -->
<g id="edge2" class="edge"><title>Node1&#45;&gt;Node2</title>
<path fill="none" stroke="midnightblue" d="M100.291,-285.581C95.5734,-276.147 90.6095,-266.219 86.1359,-257.272"/>
<polygon fill="midnightblue" stroke="midnightblue" points="97.2959,-287.418 104.899,-294.797 103.557,-284.288 97.2959,-287.418"/>
</g>
<!-- Node4 -->
<g id="node7" class="node"><title>Node4</title>
<a xlink:href="../../d7/d84/_graphics_manager_interface_8h.html" target="_top" xlink:title="/home/kavonszadkowski\l/limes&#45;dev/simulation\l/mars/interfaces/src/graphics\l/GraphicsManagerInterface.h">
<polygon fill="white" stroke="black" points="48.5,-1 48.5,-61 191.5,-61 191.5,-1 48.5,-1"/>
<text text-anchor="start" x="56.5" y="-48" font-family="Helvetica,sans-Serif" font-size="10.00">/home/kavonszadkowski</text>
<text text-anchor="start" x="56.5" y="-35" font-family="Helvetica,sans-Serif" font-size="10.00">/limes&#45;dev/simulation</text>
<text text-anchor="start" x="56.5" y="-22" font-family="Helvetica,sans-Serif" font-size="10.00">/mars/interfaces/src/graphics</text>
<text text-anchor="middle" x="120" y="-9" font-family="Helvetica,sans-Serif" font-size="10.00">/GraphicsManagerInterface.h</text>
</a>
</g>
<!-- Node1&#45;&gt;Node4 -->
<g id="edge8" class="edge"><title>Node1&#45;&gt;Node4</title>
<path fill="none" stroke="midnightblue" d="M141.608,-285.665C145.494,-276.813 148.956,-267.284 151,-258 166.288,-188.552 166.288,-167.448 151,-98 148.217,-85.3578 142.805,-72.2622 137.271,-61.0388"/>
<polygon fill="midnightblue" stroke="midnightblue" points="138.327,-284.419 137.271,-294.961 144.671,-287.379 138.327,-284.419"/>
</g>
<!-- Node3 -->
<g id="node5" class="node"><title>Node3</title>
<a xlink:href="../../de/d43/_graphics_window_interface_8h.html" target="_top" xlink:title="&quot;GraphicsWindowInterface&quot; ">
<polygon fill="white" stroke="black" points="-0.5,-99 -0.5,-159 142.5,-159 142.5,-99 -0.5,-99"/>
<text text-anchor="start" x="7.5" y="-146" font-family="Helvetica,sans-Serif" font-size="10.00">/home/kavonszadkowski</text>
<text text-anchor="start" x="7.5" y="-133" font-family="Helvetica,sans-Serif" font-size="10.00">/limes&#45;dev/simulation</text>
<text text-anchor="start" x="7.5" y="-120" font-family="Helvetica,sans-Serif" font-size="10.00">/mars/interfaces/src/graphics</text>
<text text-anchor="middle" x="71" y="-107" font-family="Helvetica,sans-Serif" font-size="10.00">/GraphicsWindowInterface.h</text>
</a>
</g>
<!-- Node2&#45;&gt;Node3 -->
<g id="edge4" class="edge"><title>Node2&#45;&gt;Node3</title>
<path fill="none" stroke="midnightblue" d="M71,-186.696C71,-177.527 71,-167.939 71,-159.272"/>
<polygon fill="midnightblue" stroke="midnightblue" points="67.5001,-186.797 71,-196.797 74.5001,-186.797 67.5001,-186.797"/>
</g>
<!-- Node3&#45;&gt;Node4 -->
<g id="edge6" class="edge"><title>Node3&#45;&gt;Node4</title>
<path fill="none" stroke="midnightblue" d="M90.7093,-89.5815C95.4266,-80.1468 100.39,-70.219 104.864,-61.2718"/>
<polygon fill="midnightblue" stroke="midnightblue" points="87.4431,-88.2876 86.1014,-98.7971 93.7041,-91.4181 87.4431,-88.2876"/>
</g>
</g>
</svg>
