<?xml version="1.0" encoding="UTF-8" standalone="no"?>
<!DOCTYPE svg PUBLIC "-//W3C//DTD SVG 1.1//EN"
 "http://www.w3.org/Graphics/SVG/1.1/DTD/svg11.dtd">
<!-- Generated by graphviz version 2.36.0 (20140111.2315)
 -->
<!-- Title: mars::sim::SimMotor Pages: 1 -->
<svg width="227pt" height="96pt"
 viewBox="0.00 0.00 227.00 96.00" xmlns="http://www.w3.org/2000/svg" xmlns:xlink="http://www.w3.org/1999/xlink">
<g id="graph0" class="graph" transform="scale(1 1) rotate(0) translate(4 92)">
<title>mars::sim::SimMotor</title>
<polygon fill="white" stroke="none" points="-4,4 -4,-92 223,-92 223,4 -4,4"/>
<!-- Node1 -->
<g id="node1" class="node"><title>Node1</title>
<polygon fill="#bfbfbf" stroke="black" points="55,-0.5 55,-19.5 163,-19.5 163,-0.5 55,-0.5"/>
<text text-anchor="middle" x="109" y="-7.5" font-family="Helvetica,sans-Serif" font-size="10.00">mars::sim::SimMotor</text>
</g>
<!-- Node2 -->
<g id="node2" class="node"><title>Node2</title>
<g id="a_node2"><a xlink:href="../../d1/db0/classmars_1_1data__broker_1_1_producer_interface.html" target="_top" xlink:title="Interface for classes producing data to broadcast via a DataBroker. ">
<polygon fill="white" stroke="black" points="-0.5,-57 -0.5,-87 100.5,-87 100.5,-57 -0.5,-57"/>
<text text-anchor="start" x="7.5" y="-75" font-family="Helvetica,sans-Serif" font-size="10.00">mars::data_broker::</text>
<text text-anchor="middle" x="50" y="-64" font-family="Helvetica,sans-Serif" font-size="10.00">ProducerInterface</text>
</a>
</g>
</g>
<!-- Node2&#45;&gt;Node1 -->
<g id="edge1" class="edge"><title>Node2&#45;&gt;Node1</title>
<path fill="none" stroke="midnightblue" d="M71.0217,-49.622C81.1479,-39.3242 92.7307,-27.5451 100.415,-19.7305"/>
<polygon fill="midnightblue" stroke="midnightblue" points="68.498,-47.1966 63.9822,-56.7808 73.4892,-52.1046 68.498,-47.1966"/>
</g>
<!-- Node3 -->
<g id="node3" class="node"><title>Node3</title>
<g id="a_node3"><a xlink:href="../../d0/d0e/classmars_1_1data__broker_1_1_receiver_interface.html" target="_top" xlink:title="Interface for classes that want to receive data from the DataBroker. ">
<polygon fill="white" stroke="black" points="118.5,-57 118.5,-87 219.5,-87 219.5,-57 118.5,-57"/>
<text text-anchor="start" x="126.5" y="-75" font-family="Helvetica,sans-Serif" font-size="10.00">mars::data_broker::</text>
<text text-anchor="middle" x="169" y="-64" font-family="Helvetica,sans-Serif" font-size="10.00">ReceiverInterface</text>
</a>
</g>
</g>
<!-- Node3&#45;&gt;Node1 -->
<g id="edge2" class="edge"><title>Node3&#45;&gt;Node1</title>
<path fill="none" stroke="midnightblue" d="M147.622,-49.622C137.324,-39.3242 125.545,-27.5451 117.731,-19.7305"/>
<polygon fill="midnightblue" stroke="midnightblue" points="145.235,-52.1846 154.781,-56.7808 150.185,-47.2349 145.235,-52.1846"/>
</g>
</g>
</svg>
