<?xml version="1.0" encoding="UTF-8" standalone="no"?>
<!DOCTYPE svg PUBLIC "-//W3C//DTD SVG 1.1//EN"
 "http://www.w3.org/Graphics/SVG/1.1/DTD/svg11.dtd">
<!-- Generated by graphviz version 2.26.3 (20100126.1600)
 -->
<!-- Title: /home/kavonszadkowski/limes&#45;dev/simulation/mars/common/graphics/osg_plot/src/CurveP.h Pages: 1 -->
<svg width="370pt" height="186pt"
 viewBox="0.00 0.00 370.00 186.00" xmlns="http://www.w3.org/2000/svg" xmlns:xlink="http://www.w3.org/1999/xlink">
<g id="graph1" class="graph" transform="scale(1 1) rotate(0) translate(4 182)">
<title>/home/kavonszadkowski/limes&#45;dev/simulation/mars/common/graphics/osg_plot/src/CurveP.h</title>
<polygon fill="white" stroke="white" points="-4,5 -4,-182 367,-182 367,5 -4,5"/>
<!-- Node1 -->
<g id="node1" class="node"><title>Node1</title>
<polygon fill="#bfbfbf" stroke="black" points="113.5,-117 113.5,-177 238.5,-177 238.5,-117 113.5,-117"/>
<text text-anchor="start" x="121.5" y="-164" font-family="Helvetica,sans-Serif" font-size="10.00">/home/kavonszadkowski</text>
<text text-anchor="start" x="121.5" y="-151" font-family="Helvetica,sans-Serif" font-size="10.00">/limes&#45;dev/simulation</text>
<text text-anchor="start" x="121.5" y="-138" font-family="Helvetica,sans-Serif" font-size="10.00">/mars/common/graphics</text>
<text text-anchor="middle" x="176" y="-125" font-family="Helvetica,sans-Serif" font-size="10.00">/osg_plot/src/CurveP.h</text>
</g>
<!-- Node2 -->
<g id="node3" class="node"><title>Node2</title>
<a xlink:href="../../da/de9/_curve_8h.html" target="_top" xlink:title="Curve.h">
<polygon fill="white" stroke="black" points="-0.5,-58.5 -0.5,-79.5 50.5,-79.5 50.5,-58.5 -0.5,-58.5"/>
<text text-anchor="middle" x="25" y="-66.5" font-family="Helvetica,sans-Serif" font-size="10.00">Curve.h</text>
</a>
</g>
<!-- Node1&#45;&gt;Node2 -->
<g id="edge2" class="edge"><title>Node1&#45;&gt;Node2</title>
<path fill="none" stroke="midnightblue" d="M117.619,-116.843C96.1922,-105.775 72.8231,-93.7033 54.9192,-84.455"/>
<polygon fill="midnightblue" stroke="midnightblue" points="56.0729,-81.1116 45.582,-79.6317 52.8603,-87.3309 56.0729,-81.1116"/>
</g>
<!-- Node4 -->
<g id="node7" class="node"><title>Node4</title>
<polygon fill="white" stroke="#bfbfbf" points="67.5,-58.5 67.5,-79.5 174.5,-79.5 174.5,-58.5 67.5,-58.5"/>
<text text-anchor="middle" x="121" y="-66.5" font-family="Helvetica,sans-Serif" font-size="10.00">osg/MatrixTransform</text>
</g>
<!-- Node1&#45;&gt;Node4 -->
<g id="edge6" class="edge"><title>Node1&#45;&gt;Node4</title>
<path fill="none" stroke="midnightblue" d="M154.578,-116.62C147.773,-106.969 140.445,-96.576 134.376,-87.9696"/>
<polygon fill="midnightblue" stroke="midnightblue" points="137.206,-85.9091 128.583,-79.7535 131.485,-89.943 137.206,-85.9091"/>
</g>
<!-- Node5 -->
<g id="node9" class="node"><title>Node5</title>
<polygon fill="white" stroke="#bfbfbf" points="192,-58.5 192,-79.5 270,-79.5 270,-58.5 192,-58.5"/>
<text text-anchor="middle" x="231" y="-66.5" font-family="Helvetica,sans-Serif" font-size="10.00">osg/Geometry</text>
</g>
<!-- Node1&#45;&gt;Node5 -->
<g id="edge8" class="edge"><title>Node1&#45;&gt;Node5</title>
<path fill="none" stroke="midnightblue" d="M197.422,-116.62C204.227,-106.969 211.555,-96.576 217.624,-87.9696"/>
<polygon fill="midnightblue" stroke="midnightblue" points="220.515,-89.943 223.417,-79.7535 214.794,-85.9091 220.515,-89.943"/>
</g>
<!-- Node6 -->
<g id="node11" class="node"><title>Node6</title>
<polygon fill="white" stroke="#bfbfbf" points="288,-58.5 288,-79.5 362,-79.5 362,-58.5 288,-58.5"/>
<text text-anchor="middle" x="325" y="-66.5" font-family="Helvetica,sans-Serif" font-size="10.00">osgText/Text</text>
</g>
<!-- Node1&#45;&gt;Node6 -->
<g id="edge10" class="edge"><title>Node1&#45;&gt;Node6</title>
<path fill="none" stroke="midnightblue" d="M233.607,-116.843C254.751,-105.775 277.81,-93.7033 295.477,-84.455"/>
<polygon fill="midnightblue" stroke="midnightblue" points="297.454,-87.3705 304.691,-79.6317 294.208,-81.1688 297.454,-87.3705"/>
</g>
<!-- Node3 -->
<g id="node5" class="node"><title>Node3</title>
<polygon fill="white" stroke="#bfbfbf" points="4.5,-0.5 4.5,-21.5 45.5,-21.5 45.5,-0.5 4.5,-0.5"/>
<text text-anchor="middle" x="25" y="-8.5" font-family="Helvetica,sans-Serif" font-size="10.00">string</text>
</g>
<!-- Node2&#45;&gt;Node3 -->
<g id="edge4" class="edge"><title>Node2&#45;&gt;Node3</title>
<path fill="none" stroke="midnightblue" d="M25,-58.3619C25,-50.9219 25,-40.7427 25,-31.7276"/>
<polygon fill="midnightblue" stroke="midnightblue" points="28.5001,-31.5706 25,-21.5707 21.5001,-31.5707 28.5001,-31.5706"/>
</g>
</g>
</svg>
