<?xml version="1.0" encoding="UTF-8" standalone="no"?>
<!DOCTYPE svg PUBLIC "-//W3C//DTD SVG 1.1//EN"
 "http://www.w3.org/Graphics/SVG/1.1/DTD/svg11.dtd">
<!-- Generated by graphviz version 2.26.3 (20100126.1600)
 -->
<!-- Title: mars::plugins::constraints_plugin::NodeConstraint Pages: 1 -->
<svg width="1066pt" height="550pt"
 viewBox="0.00 0.00 1066.00 550.00" xmlns="http://www.w3.org/2000/svg" xmlns:xlink="http://www.w3.org/1999/xlink">
<g id="graph1" class="graph" transform="scale(1 1) rotate(0) translate(4 546)">
<title>mars::plugins::constraints_plugin::NodeConstraint</title>
<polygon fill="white" stroke="white" points="-4,5 -4,-546 1063,-546 1063,5 -4,5"/>
<!-- Node1 -->
<g id="node1" class="node"><title>Node1</title>
<polygon fill="#bfbfbf" stroke="black" points="928.5,-294 928.5,-328 1057.5,-328 1057.5,-294 928.5,-294"/>
<text text-anchor="start" x="936.5" y="-315" font-family="Helvetica,sans-Serif" font-size="10.00">mars::plugins::constraints</text>
<text text-anchor="middle" x="993" y="-302" font-family="Helvetica,sans-Serif" font-size="10.00">_plugin::NodeConstraint</text>
</g>
<!-- Node2 -->
<g id="node2" class="node"><title>Node2</title>
<a xlink:href="../../d8/df7/classmars_1_1plugins_1_1constraints__plugin_1_1_base_constraint.html" target="_top" xlink:title="mars::plugins::constraints\l_plugin::BaseConstraint">
<polygon fill="white" stroke="black" points="760.5,-294 760.5,-328 889.5,-328 889.5,-294 760.5,-294"/>
<text text-anchor="start" x="768.5" y="-315" font-family="Helvetica,sans-Serif" font-size="10.00">mars::plugins::constraints</text>
<text text-anchor="middle" x="825" y="-302" font-family="Helvetica,sans-Serif" font-size="10.00">_plugin::BaseConstraint</text>
</a>
</g>
<!-- Node2&#45;&gt;Node1 -->
<g id="edge2" class="edge"><title>Node2&#45;&gt;Node1</title>
<path fill="none" stroke="midnightblue" d="M900.139,-311C909.602,-311 919.217,-311 928.496,-311"/>
<polygon fill="midnightblue" stroke="midnightblue" points="899.953,-307.5 889.953,-311 899.953,-314.5 899.953,-307.5"/>
</g>
<!-- Node3 -->
<g id="node4" class="node"><title>Node3</title>
<a xlink:href="../../d4/d1a/classmars_1_1cfg__manager_1_1_c_f_g_client.html" target="_top" xlink:title="mars::cfg_manager::\lCFGClient">
<polygon fill="white" stroke="black" points="533.5,-340 533.5,-374 640.5,-374 640.5,-340 533.5,-340"/>
<text text-anchor="start" x="541.5" y="-361" font-family="Helvetica,sans-Serif" font-size="10.00">mars::cfg_manager::</text>
<text text-anchor="middle" x="587" y="-348" font-family="Helvetica,sans-Serif" font-size="10.00">CFGClient</text>
</a>
</g>
<!-- Node3&#45;&gt;Node2 -->
<g id="edge4" class="edge"><title>Node3&#45;&gt;Node2</title>
<path fill="none" stroke="midnightblue" d="M650.9,-345.298C678.882,-340.108 712.091,-333.86 742,-328 747.918,-326.84 754.07,-325.616 760.228,-324.378"/>
<polygon fill="midnightblue" stroke="midnightblue" points="650.039,-341.898 640.843,-347.16 651.313,-348.781 650.039,-341.898"/>
</g>
<!-- Node4 -->
<g id="node6" class="node"><title>Node4</title>
<polygon fill="white" stroke="#bfbfbf" points="566.5,-300.5 566.5,-321.5 607.5,-321.5 607.5,-300.5 566.5,-300.5"/>
<text text-anchor="middle" x="587" y="-308.5" font-family="Helvetica,sans-Serif" font-size="10.00">string</text>
</g>
<!-- Node4&#45;&gt;Node2 -->
<g id="edge6" class="edge"><title>Node4&#45;&gt;Node2</title>
<path fill="none" stroke="#9a32cd" stroke-dasharray="5,2" d="M618.029,-311C653.934,-311 714.041,-311 760.256,-311"/>
<polygon fill="#9a32cd" stroke="#9a32cd" points="617.705,-307.5 607.705,-311 617.705,-314.5 617.705,-307.5"/>
<text text-anchor="middle" x="705" y="-315" font-family="Helvetica,sans-Serif" font-size="10.00"> parameterName</text>
</g>
<!-- Node5 -->
<g id="node8" class="node"><title>Node5</title>
<a xlink:href="../../d7/d4e/classmars_1_1interfaces_1_1_control_center.html" target="_top" xlink:title="The declaration of the ControlCenter. ">
<polygon fill="white" stroke="black" points="524.5,-248 524.5,-282 649.5,-282 649.5,-248 524.5,-248"/>
<text text-anchor="start" x="532.5" y="-269" font-family="Helvetica,sans-Serif" font-size="10.00">mars::interfaces::Control</text>
<text text-anchor="middle" x="587" y="-256" font-family="Helvetica,sans-Serif" font-size="10.00">Center</text>
</a>
</g>
<!-- Node5&#45;&gt;Node2 -->
<g id="edge8" class="edge"><title>Node5&#45;&gt;Node2</title>
<path fill="none" stroke="#9a32cd" stroke-dasharray="5,2" d="M659.784,-278.353C685.749,-283.186 715.199,-288.749 742,-294 747.918,-295.16 754.07,-296.384 760.228,-297.622"/>
<polygon fill="#9a32cd" stroke="#9a32cd" points="660.114,-274.854 649.643,-276.469 658.835,-281.736 660.114,-274.854"/>
<text text-anchor="middle" x="705" y="-298" font-family="Helvetica,sans-Serif" font-size="10.00"> control</text>
</g>
<!-- Node6 -->
<g id="node10" class="node"><title>Node6</title>
<a xlink:href="../../d1/d93/classmars_1_1interfaces_1_1_graphics_manager_interface.html" target="_top" xlink:title="mars::interfaces::Graphics\lManagerInterface">
<polygon fill="white" stroke="black" points="280,-508 280,-542 412,-542 412,-508 280,-508"/>
<text text-anchor="start" x="288" y="-529" font-family="Helvetica,sans-Serif" font-size="10.00">mars::interfaces::Graphics</text>
<text text-anchor="middle" x="346" y="-516" font-family="Helvetica,sans-Serif" font-size="10.00">ManagerInterface</text>
</a>
</g>
<!-- Node6&#45;&gt;Node5 -->
<g id="edge10" class="edge"><title>Node6&#45;&gt;Node5</title>
<path fill="none" stroke="#9a32cd" stroke-dasharray="5,2" d="M421.892,-518.744C452.604,-512.193 485.567,-499.26 506,-474 557.397,-410.459 475.278,-356.614 524,-291 526.539,-287.58 529.611,-284.608 533.014,-282.025"/>
<polygon fill="#9a32cd" stroke="#9a32cd" points="421.172,-515.318 412.019,-520.654 422.501,-522.191 421.172,-515.318"/>
<text text-anchor="middle" x="474" y="-517" font-family="Helvetica,sans-Serif" font-size="10.00"> graphics</text>
</g>
<!-- Node7 -->
<g id="node12" class="node"><title>Node7</title>
<polygon fill="white" stroke="#bfbfbf" points="47,-462.5 47,-483.5 115,-483.5 115,-462.5 47,-462.5"/>
<text text-anchor="middle" x="81" y="-470.5" font-family="Helvetica,sans-Serif" font-size="10.00">LibInterface</text>
</g>
<!-- Node7&#45;&gt;Node6 -->
<g id="edge12" class="edge"><title>Node7&#45;&gt;Node6</title>
<path fill="none" stroke="midnightblue" d="M125.064,-481.647C167.239,-489.922 231.411,-502.515 279.747,-511.999"/>
<polygon fill="midnightblue" stroke="midnightblue" points="125.588,-478.183 115.102,-479.692 124.241,-485.052 125.588,-478.183"/>
</g>
<!-- Node11 -->
<g id="node20" class="node"><title>Node11</title>
<a xlink:href="../../d4/da6/classmars_1_1cfg__manager_1_1_c_f_g_manager_interface.html" target="_top" xlink:title="mars::cfg_manager::\lCFGManagerInterface">
<polygon fill="white" stroke="black" points="289.5,-456 289.5,-490 402.5,-490 402.5,-456 289.5,-456"/>
<text text-anchor="start" x="297.5" y="-477" font-family="Helvetica,sans-Serif" font-size="10.00">mars::cfg_manager::</text>
<text text-anchor="middle" x="346" y="-464" font-family="Helvetica,sans-Serif" font-size="10.00">CFGManagerInterface</text>
</a>
</g>
<!-- Node7&#45;&gt;Node11 -->
<g id="edge22" class="edge"><title>Node7&#45;&gt;Node11</title>
<path fill="none" stroke="midnightblue" d="M125.147,-473C170.173,-473 240.21,-473 289.312,-473"/>
<polygon fill="midnightblue" stroke="midnightblue" points="125.102,-469.5 115.102,-473 125.102,-476.5 125.102,-469.5"/>
</g>
<!-- Node12 -->
<g id="node23" class="node"><title>Node12</title>
<a xlink:href="../../d6/d2e/classmars_1_1data__broker_1_1_data_broker_interface.html" target="_top" xlink:title="The interface every DataBroker should implement. ">
<polygon fill="white" stroke="black" points="294,-404 294,-438 398,-438 398,-404 294,-404"/>
<text text-anchor="start" x="302" y="-425" font-family="Helvetica,sans-Serif" font-size="10.00">mars::data_broker::</text>
<text text-anchor="middle" x="346" y="-412" font-family="Helvetica,sans-Serif" font-size="10.00">DataBrokerInterface</text>
</a>
</g>
<!-- Node7&#45;&gt;Node12 -->
<g id="edge26" class="edge"><title>Node7&#45;&gt;Node12</title>
<path fill="none" stroke="midnightblue" d="M125.155,-464.336C171.569,-455.228 244.55,-440.907 293.788,-431.245"/>
<polygon fill="midnightblue" stroke="midnightblue" points="124.241,-460.948 115.102,-466.308 125.588,-467.817 124.241,-460.948"/>
</g>
<!-- Node8 -->
<g id="node14" class="node"><title>Node8</title>
<a xlink:href="../../d2/da9/classmars_1_1interfaces_1_1_controller_manager_interface.html" target="_top" xlink:title="&quot;ControllerManagerInterface&quot; declares the interfaces for all controller operations that are used for ...">
<polygon fill="white" stroke="black" points="278.5,-352 278.5,-386 413.5,-386 413.5,-352 278.5,-352"/>
<text text-anchor="start" x="286.5" y="-373" font-family="Helvetica,sans-Serif" font-size="10.00">mars::interfaces::Controller</text>
<text text-anchor="middle" x="346" y="-360" font-family="Helvetica,sans-Serif" font-size="10.00">ManagerInterface</text>
</a>
</g>
<!-- Node8&#45;&gt;Node5 -->
<g id="edge14" class="edge"><title>Node8&#45;&gt;Node5</title>
<path fill="none" stroke="#9a32cd" stroke-dasharray="5,2" d="M407.92,-348.61C413.367,-346.741 418.788,-344.853 424,-343 460.711,-329.948 474.105,-334.378 506,-312 516.063,-304.94 514.044,-298.21 524,-291 528.6,-287.669 533.69,-284.673 538.924,-282.003"/>
<polygon fill="#9a32cd" stroke="#9a32cd" points="406.464,-345.408 398.125,-351.944 408.719,-352.035 406.464,-345.408"/>
<text text-anchor="middle" x="474" y="-340" font-family="Helvetica,sans-Serif" font-size="10.00"> controllers</text>
</g>
<!-- Node9 -->
<g id="node16" class="node"><title>Node9</title>
<a xlink:href="../../d6/d60/classmars_1_1interfaces_1_1_joint_manager_interface.html" target="_top" xlink:title="Interface class for the node organization. ">
<polygon fill="white" stroke="black" points="270,-300 270,-334 422,-334 422,-300 270,-300"/>
<text text-anchor="start" x="278" y="-321" font-family="Helvetica,sans-Serif" font-size="10.00">mars::interfaces::JointManager</text>
<text text-anchor="middle" x="346" y="-308" font-family="Helvetica,sans-Serif" font-size="10.00">Interface</text>
</a>
</g>
<!-- Node9&#45;&gt;Node5 -->
<g id="edge16" class="edge"><title>Node9&#45;&gt;Node5</title>
<path fill="none" stroke="#9a32cd" stroke-dasharray="5,2" d="M432.399,-298.358C462.705,-291.819 496.146,-284.603 524.152,-278.561"/>
<polygon fill="#9a32cd" stroke="#9a32cd" points="431.291,-295.016 422.254,-300.547 432.767,-301.859 431.291,-295.016"/>
<text text-anchor="middle" x="474" y="-299" font-family="Helvetica,sans-Serif" font-size="10.00"> joints</text>
</g>
<!-- Node10 -->
<g id="node18" class="node"><title>Node10</title>
<a xlink:href="../../df/d82/classmars_1_1interfaces_1_1_entity_manager_interface.html" target="_top" xlink:title="mars::interfaces::Entity\lManagerInterface">
<polygon fill="white" stroke="black" points="286.5,-248 286.5,-282 405.5,-282 405.5,-248 286.5,-248"/>
<text text-anchor="start" x="294.5" y="-269" font-family="Helvetica,sans-Serif" font-size="10.00">mars::interfaces::Entity</text>
<text text-anchor="middle" x="346" y="-256" font-family="Helvetica,sans-Serif" font-size="10.00">ManagerInterface</text>
</a>
</g>
<!-- Node10&#45;&gt;Node5 -->
<g id="edge18" class="edge"><title>Node10&#45;&gt;Node5</title>
<path fill="none" stroke="#9a32cd" stroke-dasharray="5,2" d="M415.972,-265C450.218,-265 491.113,-265 524.326,-265"/>
<polygon fill="#9a32cd" stroke="#9a32cd" points="415.573,-261.5 405.573,-265 415.573,-268.5 415.573,-261.5"/>
<text text-anchor="middle" x="474" y="-269" font-family="Helvetica,sans-Serif" font-size="10.00"> entities</text>
</g>
<!-- Node11&#45;&gt;Node5 -->
<g id="edge20" class="edge"><title>Node11&#45;&gt;Node5</title>
<path fill="none" stroke="#9a32cd" stroke-dasharray="5,2" d="M412.688,-466.421C445.692,-459.601 483.241,-445.811 506,-418 542.104,-373.881 489.043,-336.033 524,-291 526.612,-287.635 529.735,-284.703 533.174,-282.147"/>
<polygon fill="#9a32cd" stroke="#9a32cd" points="411.791,-463.028 402.613,-468.321 413.088,-469.907 411.791,-463.028"/>
<text text-anchor="middle" x="474" y="-461" font-family="Helvetica,sans-Serif" font-size="10.00"> cfg</text>
</g>
<!-- Node12&#45;&gt;Node5 -->
<g id="edge24" class="edge"><title>Node12&#45;&gt;Node5</title>
<path fill="none" stroke="#9a32cd" stroke-dasharray="5,2" d="M407.489,-401.483C413.113,-399.404 418.688,-397.23 424,-395 461.753,-379.147 479.936,-384.58 506,-353 524.264,-330.87 504.844,-312.363 524,-291 527.002,-287.652 530.5,-284.726 534.282,-282.169"/>
<polygon fill="#9a32cd" stroke="#9a32cd" points="406.244,-398.211 398.016,-404.885 408.61,-404.799 406.244,-398.211"/>
<text text-anchor="middle" x="474" y="-405" font-family="Helvetica,sans-Serif" font-size="10.00"> dataBroker</text>
<text text-anchor="middle" x="474" y="-392" font-family="Helvetica,sans-Serif" font-size="10.00">theDataBroker</text>
</g>
<!-- Node13 -->
<g id="node26" class="node"><title>Node13</title>
<a xlink:href="../../db/da9/classmars_1_1interfaces_1_1_sensor_manager_interface.html" target="_top" xlink:title="&quot;SensorManagerInterface&quot; declares the interfaces for all sensor operations that are used for the comm...">
<polygon fill="white" stroke="black" points="284,-196 284,-230 408,-230 408,-196 284,-196"/>
<text text-anchor="start" x="292" y="-217" font-family="Helvetica,sans-Serif" font-size="10.00">mars::interfaces::Sensor</text>
<text text-anchor="middle" x="346" y="-204" font-family="Helvetica,sans-Serif" font-size="10.00">ManagerInterface</text>
</a>
</g>
<!-- Node13&#45;&gt;Node5 -->
<g id="edge28" class="edge"><title>Node13&#45;&gt;Node5</title>
<path fill="none" stroke="#9a32cd" stroke-dasharray="5,2" d="M417.892,-228.512C451.733,-235.814 491.718,-244.441 524.309,-251.473"/>
<polygon fill="#9a32cd" stroke="#9a32cd" points="418.577,-225.079 408.063,-226.391 417.1,-231.922 418.577,-225.079"/>
<text text-anchor="middle" x="474" y="-250" font-family="Helvetica,sans-Serif" font-size="10.00"> sensors</text>
</g>
<!-- Node14 -->
<g id="node28" class="node"><title>Node14</title>
<a xlink:href="../../db/de9/classmars_1_1interfaces_1_1_motor_manager_interface.html" target="_top" xlink:title="&quot;MotorManagerInterface&quot; declares the interfaces for all motor operations that are used for the commun...">
<polygon fill="white" stroke="black" points="268.5,-144 268.5,-178 423.5,-178 423.5,-144 268.5,-144"/>
<text text-anchor="start" x="276.5" y="-165" font-family="Helvetica,sans-Serif" font-size="10.00">mars::interfaces::MotorManager</text>
<text text-anchor="middle" x="346" y="-152" font-family="Helvetica,sans-Serif" font-size="10.00">Interface</text>
</a>
</g>
<!-- Node14&#45;&gt;Node5 -->
<g id="edge30" class="edge"><title>Node14&#45;&gt;Node5</title>
<path fill="none" stroke="#9a32cd" stroke-dasharray="5,2" d="M407.898,-181.45C413.351,-183.307 418.778,-185.175 424,-187 460.634,-199.804 470.937,-200.371 506,-217 525.053,-226.036 545.471,-238.153 561.042,-247.953"/>
<polygon fill="#9a32cd" stroke="#9a32cd" points="408.692,-178.024 398.098,-178.133 406.448,-184.654 408.692,-178.024"/>
<text text-anchor="middle" x="474" y="-221" font-family="Helvetica,sans-Serif" font-size="10.00"> motors</text>
</g>
<!-- Node15 -->
<g id="node30" class="node"><title>Node15</title>
<a xlink:href="../../d9/d6a/classmars_1_1interfaces_1_1_load_center.html" target="_top" xlink:title="mars::interfaces::LoadCenter">
<polygon fill="white" stroke="black" points="274.5,-104.5 274.5,-125.5 417.5,-125.5 417.5,-104.5 274.5,-104.5"/>
<text text-anchor="middle" x="346" y="-112.5" font-family="Helvetica,sans-Serif" font-size="10.00">mars::interfaces::LoadCenter</text>
</a>
</g>
<!-- Node15&#45;&gt;Node5 -->
<g id="edge32" class="edge"><title>Node15&#45;&gt;Node5</title>
<path fill="none" stroke="#9a32cd" stroke-dasharray="5,2" d="M403.413,-128.322C435.799,-137.833 475.714,-153.07 506,-176 533.817,-197.061 559.811,-228.518 574.523,-247.845"/>
<polygon fill="#9a32cd" stroke="#9a32cd" points="404.198,-124.907 393.623,-125.552 402.292,-131.642 404.198,-124.907"/>
<text text-anchor="middle" x="474" y="-180" font-family="Helvetica,sans-Serif" font-size="10.00"> loadCenter</text>
</g>
<!-- Node16 -->
<g id="node32" class="node"><title>Node16</title>
<a xlink:href="../../d1/d51/classmars_1_1interfaces_1_1_load_heightmap_interface.html" target="_top" xlink:title="mars::interfaces::LoadHeightmap\lInterface">
<polygon fill="white" stroke="black" points="0.5,-124 0.5,-158 161.5,-158 161.5,-124 0.5,-124"/>
<text text-anchor="start" x="8.5" y="-145" font-family="Helvetica,sans-Serif" font-size="10.00">mars::interfaces::LoadHeightmap</text>
<text text-anchor="middle" x="81" y="-132" font-family="Helvetica,sans-Serif" font-size="10.00">Interface</text>
</a>
</g>
<!-- Node16&#45;&gt;Node15 -->
<g id="edge34" class="edge"><title>Node16&#45;&gt;Node15</title>
<path fill="none" stroke="#9a32cd" stroke-dasharray="5,2" d="M171.844,-132.087C205.335,-128.801 242.778,-125.127 274.339,-122.031"/>
<polygon fill="#9a32cd" stroke="#9a32cd" points="171.198,-128.633 161.588,-133.093 171.882,-135.6 171.198,-128.633"/>
<text text-anchor="middle" x="215" y="-135" font-family="Helvetica,sans-Serif" font-size="10.00"> loadHeightmap</text>
</g>
<!-- Node17 -->
<g id="node34" class="node"><title>Node17</title>
<a xlink:href="../../d7/d02/classmars_1_1interfaces_1_1_load_mesh_interface.html" target="_top" xlink:title="mars::interfaces::LoadMesh\lInterface">
<polygon fill="white" stroke="black" points="12,-72 12,-106 150,-106 150,-72 12,-72"/>
<text text-anchor="start" x="20" y="-93" font-family="Helvetica,sans-Serif" font-size="10.00">mars::interfaces::LoadMesh</text>
<text text-anchor="middle" x="81" y="-80" font-family="Helvetica,sans-Serif" font-size="10.00">Interface</text>
</a>
</g>
<!-- Node17&#45;&gt;Node15 -->
<g id="edge36" class="edge"><title>Node17&#45;&gt;Node15</title>
<path fill="none" stroke="#9a32cd" stroke-dasharray="5,2" d="M160.315,-96.7819C196.535,-100.336 239.113,-104.513 274.353,-107.971"/>
<polygon fill="#9a32cd" stroke="#9a32cd" points="160.573,-93.2905 150.279,-95.7972 159.89,-100.257 160.573,-93.2905"/>
<text text-anchor="middle" x="215" y="-109" font-family="Helvetica,sans-Serif" font-size="10.00"> loadMesh</text>
</g>
<!-- Node18 -->
<g id="node36" class="node"><title>Node18</title>
<a xlink:href="../../d7/d4c/classmars_1_1interfaces_1_1_node_manager_interface.html" target="_top" xlink:title="&quot;NodeManagerInterface&quot; declares the interfaces for all NodeOperations that are used for the communica...">
<polygon fill="white" stroke="black" points="269,-52 269,-86 423,-86 423,-52 269,-52"/>
<text text-anchor="start" x="277" y="-73" font-family="Helvetica,sans-Serif" font-size="10.00">mars::interfaces::NodeManager</text>
<text text-anchor="middle" x="346" y="-60" font-family="Helvetica,sans-Serif" font-size="10.00">Interface</text>
</a>
</g>
<!-- Node18&#45;&gt;Node5 -->
<g id="edge38" class="edge"><title>Node18&#45;&gt;Node5</title>
<path fill="none" stroke="#9a32cd" stroke-dasharray="5,2" d="M432.783,-86.8832C458.388,-95.2846 485.116,-107.463 506,-125 546.428,-158.949 571.161,-218.538 581.448,-247.8"/>
<polygon fill="#9a32cd" stroke="#9a32cd" points="433.627,-83.4803 423.038,-83.8448 431.543,-90.163 433.627,-83.4803"/>
<text text-anchor="middle" x="474" y="-129" font-family="Helvetica,sans-Serif" font-size="10.00"> nodes</text>
</g>
<!-- Node19 -->
<g id="node38" class="node"><title>Node19</title>
<a xlink:href="../../dc/de5/classmars_1_1interfaces_1_1_simulator_interface.html" target="_top" xlink:title="mars::interfaces::Simulator\lInterface">
<polygon fill="white" stroke="black" points="279,-0 279,-34 413,-34 413,-0 279,-0"/>
<text text-anchor="start" x="287" y="-21" font-family="Helvetica,sans-Serif" font-size="10.00">mars::interfaces::Simulator</text>
<text text-anchor="middle" x="346" y="-8" font-family="Helvetica,sans-Serif" font-size="10.00">Interface</text>
</a>
</g>
<!-- Node19&#45;&gt;Node5 -->
<g id="edge40" class="edge"><title>Node19&#45;&gt;Node5</title>
<path fill="none" stroke="#9a32cd" stroke-dasharray="5,2" d="M422.83,-30.3567C451.884,-38.7269 483.365,-52.2454 506,-74 557.548,-123.543 577.856,-211.091 584.378,-247.919"/>
<polygon fill="#9a32cd" stroke="#9a32cd" points="423.654,-26.9537 413.086,-27.711 421.819,-33.7091 423.654,-26.9537"/>
<text text-anchor="middle" x="474" y="-78" font-family="Helvetica,sans-Serif" font-size="10.00"> sim</text>
</g>
</g>
</svg>
