<?xml version="1.0" encoding="UTF-8" standalone="no"?>
<!DOCTYPE svg PUBLIC "-//W3C//DTD SVG 1.1//EN"
 "http://www.w3.org/Graphics/SVG/1.1/DTD/svg11.dtd">
<!-- Generated by graphviz version 2.26.3 (20100126.1600)
 -->
<!-- Title: /home/kavonszadkowski/limes&#45;dev/simulation/mars/graphics/src/2d_objects/HUDTexture.cpp Pages: 1 -->
<svg width="1488pt" height="244pt"
 viewBox="0.00 0.00 1488.00 244.00" xmlns="http://www.w3.org/2000/svg" xmlns:xlink="http://www.w3.org/1999/xlink">
<g id="graph1" class="graph" transform="scale(1 1) rotate(0) translate(4 240)">
<title>/home/kavonszadkowski/limes&#45;dev/simulation/mars/graphics/src/2d_objects/HUDTexture.cpp</title>
<polygon fill="white" stroke="white" points="-4,5 -4,-240 1485,-240 1485,5 -4,5"/>
<!-- Node1 -->
<g id="node1" class="node"><title>Node1</title>
<polygon fill="#bfbfbf" stroke="black" points="627.5,-175 627.5,-235 758.5,-235 758.5,-175 627.5,-175"/>
<text text-anchor="start" x="635.5" y="-222" font-family="Helvetica,sans-Serif" font-size="10.00">/home/kavonszadkowski</text>
<text text-anchor="start" x="635.5" y="-209" font-family="Helvetica,sans-Serif" font-size="10.00">/limes&#45;dev/simulation</text>
<text text-anchor="start" x="635.5" y="-196" font-family="Helvetica,sans-Serif" font-size="10.00">/mars/graphics/src/2d</text>
<text text-anchor="middle" x="693" y="-183" font-family="Helvetica,sans-Serif" font-size="10.00">_objects/HUDTexture.cpp</text>
</g>
<!-- Node2 -->
<g id="node3" class="node"><title>Node2</title>
<polygon fill="white" stroke="#bfbfbf" points="-0.5,-116.5 -0.5,-137.5 96.5,-137.5 96.5,-116.5 -0.5,-116.5"/>
<text text-anchor="middle" x="48" y="-124.5" font-family="Helvetica,sans-Serif" font-size="10.00">osg/GLExtensions</text>
</g>
<!-- Node1&#45;&gt;Node2 -->
<g id="edge2" class="edge"><title>Node1&#45;&gt;Node2</title>
<path fill="none" stroke="midnightblue" d="M627.083,-199.163C519.963,-189.31 301.283,-167.662 106.892,-138.213"/>
<polygon fill="midnightblue" stroke="midnightblue" points="107.188,-134.717 96.7746,-136.669 106.132,-141.637 107.188,-134.717"/>
</g>
<!-- Node3 -->
<g id="node5" class="node"><title>Node3</title>
<polygon fill="white" stroke="#bfbfbf" points="113.5,-116.5 113.5,-137.5 172.5,-137.5 172.5,-116.5 113.5,-116.5"/>
<text text-anchor="middle" x="143" y="-124.5" font-family="Helvetica,sans-Serif" font-size="10.00">osg/Node</text>
</g>
<!-- Node1&#45;&gt;Node3 -->
<g id="edge4" class="edge"><title>Node1&#45;&gt;Node3</title>
<path fill="none" stroke="midnightblue" d="M627.405,-199.625C531.398,-191.051 346.994,-171.902 182.565,-138.115"/>
<polygon fill="midnightblue" stroke="midnightblue" points="183.266,-134.686 172.763,-136.078 181.842,-141.54 183.266,-134.686"/>
</g>
<!-- Node4 -->
<g id="node7" class="node"><title>Node4</title>
<polygon fill="white" stroke="#bfbfbf" points="190,-116.5 190,-137.5 268,-137.5 268,-116.5 190,-116.5"/>
<text text-anchor="middle" x="229" y="-124.5" font-family="Helvetica,sans-Serif" font-size="10.00">osg/Geometry</text>
</g>
<!-- Node1&#45;&gt;Node4 -->
<g id="edge6" class="edge"><title>Node1&#45;&gt;Node4</title>
<path fill="none" stroke="midnightblue" d="M627.198,-195.764C547.078,-184.214 407.456,-163.106 278.318,-138.171"/>
<polygon fill="midnightblue" stroke="midnightblue" points="278.732,-134.686 268.248,-136.215 277.397,-141.558 278.732,-134.686"/>
</g>
<!-- Node5 -->
<g id="node9" class="node"><title>Node5</title>
<polygon fill="white" stroke="#bfbfbf" points="286,-116.5 286,-137.5 350,-137.5 350,-116.5 286,-116.5"/>
<text text-anchor="middle" x="318" y="-124.5" font-family="Helvetica,sans-Serif" font-size="10.00">osg/Geode</text>
</g>
<!-- Node1&#45;&gt;Node5 -->
<g id="edge8" class="edge"><title>Node1&#45;&gt;Node5</title>
<path fill="none" stroke="midnightblue" d="M627.452,-193.138C562.089,-181.018 458.641,-161.05 360.015,-138.141"/>
<polygon fill="midnightblue" stroke="midnightblue" points="360.714,-134.71 350.18,-135.843 359.121,-141.526 360.714,-134.71"/>
</g>
<!-- Node6 -->
<g id="node11" class="node"><title>Node6</title>
<polygon fill="white" stroke="#bfbfbf" points="368,-116.5 368,-137.5 430,-137.5 430,-116.5 368,-116.5"/>
<text text-anchor="middle" x="399" y="-124.5" font-family="Helvetica,sans-Serif" font-size="10.00">osg/Notify</text>
</g>
<!-- Node1&#45;&gt;Node6 -->
<g id="edge10" class="edge"><title>Node1&#45;&gt;Node6</title>
<path fill="none" stroke="midnightblue" d="M627.387,-187.592C570.034,-172.376 488.545,-150.757 439.999,-137.877"/>
<polygon fill="midnightblue" stroke="midnightblue" points="440.724,-134.448 430.16,-135.267 438.928,-141.214 440.724,-134.448"/>
</g>
<!-- Node7 -->
<g id="node13" class="node"><title>Node7</title>
<polygon fill="white" stroke="#bfbfbf" points="832.5,-58.5 832.5,-79.5 939.5,-79.5 939.5,-58.5 832.5,-58.5"/>
<text text-anchor="middle" x="886" y="-66.5" font-family="Helvetica,sans-Serif" font-size="10.00">osg/MatrixTransform</text>
</g>
<!-- Node1&#45;&gt;Node7 -->
<g id="edge12" class="edge"><title>Node1&#45;&gt;Node7</title>
<path fill="none" stroke="midnightblue" d="M627.283,-199.782C547.707,-191.05 429.83,-168.9 477,-116 499.522,-90.7415 712.572,-77.1321 821.915,-71.7599"/>
<polygon fill="midnightblue" stroke="midnightblue" points="822.343,-75.2434 832.163,-71.2656 822.006,-68.2515 822.343,-75.2434"/>
</g>
<!-- Node8 -->
<g id="node15" class="node"><title>Node8</title>
<polygon fill="white" stroke="#bfbfbf" points="485.5,-116.5 485.5,-137.5 566.5,-137.5 566.5,-116.5 485.5,-116.5"/>
<text text-anchor="middle" x="526" y="-124.5" font-family="Helvetica,sans-Serif" font-size="10.00">osg/Texture2D</text>
</g>
<!-- Node1&#45;&gt;Node8 -->
<g id="edge14" class="edge"><title>Node1&#45;&gt;Node8</title>
<path fill="none" stroke="midnightblue" d="M628.433,-174.843C604.297,-163.57 577.932,-151.256 557.996,-141.944"/>
<polygon fill="midnightblue" stroke="midnightblue" points="559.304,-138.692 548.763,-137.632 556.342,-145.035 559.304,-138.692"/>
</g>
<!-- Node9 -->
<g id="node17" class="node"><title>Node9</title>
<polygon fill="white" stroke="#bfbfbf" points="583.5,-116.5 583.5,-137.5 696.5,-137.5 696.5,-116.5 583.5,-116.5"/>
<text text-anchor="middle" x="640" y="-124.5" font-family="Helvetica,sans-Serif" font-size="10.00">osg/TextureRectangle</text>
</g>
<!-- Node1&#45;&gt;Node9 -->
<g id="edge16" class="edge"><title>Node1&#45;&gt;Node9</title>
<path fill="none" stroke="midnightblue" d="M672.357,-174.62C665.868,-165.07 658.886,-154.795 653.075,-146.242"/>
<polygon fill="midnightblue" stroke="midnightblue" points="655.822,-144.058 647.307,-137.753 650.032,-147.992 655.822,-144.058"/>
</g>
<!-- Node10 -->
<g id="node19" class="node"><title>Node10</title>
<polygon fill="white" stroke="#bfbfbf" points="713.5,-116.5 713.5,-137.5 778.5,-137.5 778.5,-116.5 713.5,-116.5"/>
<text text-anchor="middle" x="746" y="-124.5" font-family="Helvetica,sans-Serif" font-size="10.00">osg/Stencil</text>
</g>
<!-- Node1&#45;&gt;Node10 -->
<g id="edge18" class="edge"><title>Node1&#45;&gt;Node10</title>
<path fill="none" stroke="midnightblue" d="M713.643,-174.62C720.132,-165.07 727.114,-154.795 732.925,-146.242"/>
<polygon fill="midnightblue" stroke="midnightblue" points="735.968,-147.992 738.693,-137.753 730.178,-144.058 735.968,-147.992"/>
</g>
<!-- Node11 -->
<g id="node21" class="node"><title>Node11</title>
<polygon fill="white" stroke="#bfbfbf" points="795.5,-116.5 795.5,-137.5 878.5,-137.5 878.5,-116.5 795.5,-116.5"/>
<text text-anchor="middle" x="837" y="-124.5" font-family="Helvetica,sans-Serif" font-size="10.00">osg/ColorMask</text>
</g>
<!-- Node1&#45;&gt;Node11 -->
<g id="edge20" class="edge"><title>Node1&#45;&gt;Node11</title>
<path fill="none" stroke="midnightblue" d="M748.674,-174.843C769.108,-163.775 791.394,-151.703 808.468,-142.455"/>
<polygon fill="midnightblue" stroke="midnightblue" points="810.246,-145.472 817.372,-137.632 806.912,-139.317 810.246,-145.472"/>
</g>
<!-- Node12 -->
<g id="node23" class="node"><title>Node12</title>
<polygon fill="white" stroke="#bfbfbf" points="896,-116.5 896,-137.5 958,-137.5 958,-116.5 896,-116.5"/>
<text text-anchor="middle" x="927" y="-124.5" font-family="Helvetica,sans-Serif" font-size="10.00">osg/Depth</text>
</g>
<!-- Node1&#45;&gt;Node12 -->
<g id="edge22" class="edge"><title>Node1&#45;&gt;Node12</title>
<path fill="none" stroke="midnightblue" d="M758.805,-183.065C799.652,-169.449 850.869,-152.377 885.988,-140.671"/>
<polygon fill="midnightblue" stroke="midnightblue" points="887.513,-143.852 895.893,-137.369 885.299,-137.211 887.513,-143.852"/>
</g>
<!-- Node13 -->
<g id="node25" class="node"><title>Node13</title>
<polygon fill="white" stroke="#bfbfbf" points="976,-116.5 976,-137.5 1046,-137.5 1046,-116.5 976,-116.5"/>
<text text-anchor="middle" x="1011" y="-124.5" font-family="Helvetica,sans-Serif" font-size="10.00">osg/Material</text>
</g>
<!-- Node1&#45;&gt;Node13 -->
<g id="edge24" class="edge"><title>Node1&#45;&gt;Node13</title>
<path fill="none" stroke="midnightblue" d="M758.628,-189.053C811.872,-176.092 889.155,-157.227 966.074,-138.221"/>
<polygon fill="midnightblue" stroke="midnightblue" points="967.072,-141.58 975.94,-135.782 965.392,-134.785 967.072,-141.58"/>
</g>
<!-- Node14 -->
<g id="node27" class="node"><title>Node14</title>
<polygon fill="white" stroke="#bfbfbf" points="1063.5,-116.5 1063.5,-137.5 1142.5,-137.5 1142.5,-116.5 1063.5,-116.5"/>
<text text-anchor="middle" x="1103" y="-124.5" font-family="Helvetica,sans-Serif" font-size="10.00">osg/LineWidth</text>
</g>
<!-- Node1&#45;&gt;Node14 -->
<g id="edge26" class="edge"><title>Node1&#45;&gt;Node14</title>
<path fill="none" stroke="midnightblue" d="M758.559,-193.725C829.072,-181.405 944.71,-160.641 1053.63,-138.23"/>
<polygon fill="midnightblue" stroke="midnightblue" points="1054.39,-141.648 1063.48,-136.197 1052.97,-134.792 1054.39,-141.648"/>
</g>
<!-- Node15 -->
<g id="node29" class="node"><title>Node15</title>
<polygon fill="white" stroke="#bfbfbf" points="1159.5,-116.5 1159.5,-137.5 1308.5,-137.5 1308.5,-116.5 1159.5,-116.5"/>
<text text-anchor="middle" x="1234" y="-124.5" font-family="Helvetica,sans-Serif" font-size="10.00">osg/PositionAttitudeTransform</text>
</g>
<!-- Node1&#45;&gt;Node15 -->
<g id="edge28" class="edge"><title>Node1&#45;&gt;Node15</title>
<path fill="none" stroke="midnightblue" d="M758.527,-195.553C856.908,-181.368 1042.72,-154.578 1150.63,-139.02"/>
<polygon fill="midnightblue" stroke="midnightblue" points="1151.43,-142.442 1160.82,-137.55 1150.43,-135.513 1151.43,-142.442"/>
</g>
<!-- Node16 -->
<g id="node31" class="node"><title>Node16</title>
<polygon fill="white" stroke="#bfbfbf" points="1325.5,-116.5 1325.5,-137.5 1368.5,-137.5 1368.5,-116.5 1325.5,-116.5"/>
<text text-anchor="middle" x="1347" y="-124.5" font-family="Helvetica,sans-Serif" font-size="10.00">cstdio</text>
</g>
<!-- Node1&#45;&gt;Node16 -->
<g id="edge30" class="edge"><title>Node1&#45;&gt;Node16</title>
<path fill="none" stroke="midnightblue" d="M758.553,-203.215C871.414,-199 1109.4,-185.107 1315.45,-137.952"/>
<polygon fill="midnightblue" stroke="midnightblue" points="1316.28,-141.351 1325.23,-135.681 1314.7,-134.532 1316.28,-141.351"/>
</g>
<!-- Node17 -->
<g id="node33" class="node"><title>Node17</title>
<a xlink:href="../../de/d80/_h_u_d_texture_8h.html" target="_top" xlink:title="The &quot;HUDTexture&quot;. ">
<polygon fill="white" stroke="black" points="1386,-116.5 1386,-137.5 1466,-137.5 1466,-116.5 1386,-116.5"/>
<text text-anchor="middle" x="1426" y="-124.5" font-family="Helvetica,sans-Serif" font-size="10.00">HUDTexture.h</text>
</a>
</g>
<!-- Node1&#45;&gt;Node17 -->
<g id="edge32" class="edge"><title>Node1&#45;&gt;Node17</title>
<path fill="none" stroke="midnightblue" d="M758.897,-201.254C879.542,-193.804 1144.06,-174.734 1375.99,-138.003"/>
<polygon fill="midnightblue" stroke="midnightblue" points="1376.64,-141.443 1385.97,-136.409 1375.54,-134.531 1376.64,-141.443"/>
</g>
<!-- Node17&#45;&gt;Node7 -->
<g id="edge40" class="edge"><title>Node17&#45;&gt;Node7</title>
<path fill="none" stroke="midnightblue" d="M1385.97,-117.584C1382.94,-117.004 1379.93,-116.467 1377,-116 1224.78,-91.7271 1043.87,-78.3517 949.879,-72.5495"/>
<polygon fill="midnightblue" stroke="midnightblue" points="949.874,-69.0428 939.68,-71.9287 949.449,-76.0299 949.874,-69.0428"/>
</g>
<!-- Node18 -->
<g id="node35" class="node"><title>Node18</title>
<a xlink:href="../../dc/d75/_h_u_d_element_8h.html" target="_top" xlink:title="The &quot;HUDElement&quot;. ">
<polygon fill="white" stroke="black" points="1384.5,-58.5 1384.5,-79.5 1467.5,-79.5 1467.5,-58.5 1384.5,-58.5"/>
<text text-anchor="middle" x="1426" y="-66.5" font-family="Helvetica,sans-Serif" font-size="10.00">HUDElement.h</text>
</a>
</g>
<!-- Node17&#45;&gt;Node18 -->
<g id="edge34" class="edge"><title>Node17&#45;&gt;Node18</title>
<path fill="none" stroke="midnightblue" d="M1426,-116.362C1426,-108.922 1426,-98.7427 1426,-89.7276"/>
<polygon fill="midnightblue" stroke="midnightblue" points="1429.5,-89.5706 1426,-79.5707 1422.5,-89.5707 1429.5,-89.5706"/>
</g>
<!-- Node19 -->
<g id="node37" class="node"><title>Node19</title>
<polygon fill="white" stroke="#bfbfbf" points="1360,-0.5 1360,-21.5 1422,-21.5 1422,-0.5 1360,-0.5"/>
<text text-anchor="middle" x="1391" y="-8.5" font-family="Helvetica,sans-Serif" font-size="10.00">osg/Group</text>
</g>
<!-- Node18&#45;&gt;Node19 -->
<g id="edge36" class="edge"><title>Node18&#45;&gt;Node19</title>
<path fill="none" stroke="midnightblue" d="M1419.58,-58.3619C1414.84,-50.5131 1408.27,-39.6159 1402.62,-30.2527"/>
<polygon fill="midnightblue" stroke="midnightblue" points="1405.54,-28.3242 1397.38,-21.5707 1399.55,-31.9409 1405.54,-28.3242"/>
</g>
<!-- Node20 -->
<g id="node39" class="node"><title>Node20</title>
<polygon fill="white" stroke="#bfbfbf" points="1439.5,-0.5 1439.5,-21.5 1480.5,-21.5 1480.5,-0.5 1439.5,-0.5"/>
<text text-anchor="middle" x="1460" y="-8.5" font-family="Helvetica,sans-Serif" font-size="10.00">string</text>
</g>
<!-- Node18&#45;&gt;Node20 -->
<g id="edge38" class="edge"><title>Node18&#45;&gt;Node20</title>
<path fill="none" stroke="midnightblue" d="M1432.24,-58.3619C1436.84,-50.5131 1443.23,-39.6159 1448.71,-30.2527"/>
<polygon fill="midnightblue" stroke="midnightblue" points="1451.77,-31.9677 1453.8,-21.5707 1445.73,-28.4276 1451.77,-31.9677"/>
</g>
</g>
</svg>
