<?xml version="1.0" encoding="UTF-8" standalone="no"?>
<!DOCTYPE svg PUBLIC "-//W3C//DTD SVG 1.1//EN"
 "http://www.w3.org/Graphics/SVG/1.1/DTD/svg11.dtd">
<!-- Generated by graphviz version 2.36.0 (20140111.2315)
 -->
<!-- Title: /media/kavonszadkowski/work/marsdocs/mars/graphics/src/2d_objects/HUDTexture.cpp Pages: 1 -->
<svg width="1500pt" height="218pt"
 viewBox="0.00 0.00 1500.00 218.00" xmlns="http://www.w3.org/2000/svg" xmlns:xlink="http://www.w3.org/1999/xlink">
<g id="graph0" class="graph" transform="scale(1 1) rotate(0) translate(4 214)">
<title>/media/kavonszadkowski/work/marsdocs/mars/graphics/src/2d_objects/HUDTexture.cpp</title>
<polygon fill="white" stroke="none" points="-4,4 -4,-214 1496,-214 1496,4 -4,4"/>
<!-- Node1 -->
<g id="node1" class="node"><title>Node1</title>
<polygon fill="#bfbfbf" stroke="black" points="616.5,-168.5 616.5,-209.5 777.5,-209.5 777.5,-168.5 616.5,-168.5"/>
<text text-anchor="start" x="624.5" y="-197.5" font-family="Helvetica,sans-Serif" font-size="10.00">/media/kavonszadkowski</text>
<text text-anchor="start" x="624.5" y="-186.5" font-family="Helvetica,sans-Serif" font-size="10.00">/work/marsdocs/mars/graphics</text>
<text text-anchor="middle" x="697" y="-175.5" font-family="Helvetica,sans-Serif" font-size="10.00">/src/2d_objects/HUDTexture.cpp</text>
</g>
<!-- Node2 -->
<g id="node2" class="node"><title>Node2</title>
<polygon fill="white" stroke="#bfbfbf" points="-0.5,-112.5 -0.5,-131.5 96.5,-131.5 96.5,-112.5 -0.5,-112.5"/>
<text text-anchor="middle" x="48" y="-119.5" font-family="Helvetica,sans-Serif" font-size="10.00">osg/GLExtensions</text>
</g>
<!-- Node1&#45;&gt;Node2 -->
<g id="edge1" class="edge"><title>Node1&#45;&gt;Node2</title>
<path fill="none" stroke="midnightblue" d="M616.392,-181.976C504.313,-173.242 294.844,-155.627 106.859,-132.173"/>
<polygon fill="midnightblue" stroke="midnightblue" points="107.147,-128.682 96.7892,-130.908 106.275,-135.627 107.147,-128.682"/>
</g>
<!-- Node3 -->
<g id="node3" class="node"><title>Node3</title>
<polygon fill="white" stroke="#bfbfbf" points="114.5,-112.5 114.5,-131.5 173.5,-131.5 173.5,-112.5 114.5,-112.5"/>
<text text-anchor="middle" x="144" y="-119.5" font-family="Helvetica,sans-Serif" font-size="10.00">osg/Node</text>
</g>
<!-- Node1&#45;&gt;Node3 -->
<g id="edge2" class="edge"><title>Node1&#45;&gt;Node3</title>
<path fill="none" stroke="midnightblue" d="M616.466,-182.191C517.011,-174.351 342.567,-158.435 183.695,-131.923"/>
<polygon fill="midnightblue" stroke="midnightblue" points="184.18,-128.456 173.738,-130.244 183.016,-135.358 184.18,-128.456"/>
</g>
<!-- Node4 -->
<g id="node4" class="node"><title>Node4</title>
<polygon fill="white" stroke="#bfbfbf" points="192,-112.5 192,-131.5 270,-131.5 270,-112.5 192,-112.5"/>
<text text-anchor="middle" x="231" y="-119.5" font-family="Helvetica,sans-Serif" font-size="10.00">osg/Geometry</text>
</g>
<!-- Node1&#45;&gt;Node4 -->
<g id="edge3" class="edge"><title>Node1&#45;&gt;Node4</title>
<path fill="none" stroke="midnightblue" d="M616.294,-178.455C534.195,-168.457 403.069,-151.695 279.984,-132.088"/>
<polygon fill="midnightblue" stroke="midnightblue" points="280.431,-128.615 270.003,-130.489 279.323,-135.527 280.431,-128.615"/>
</g>
<!-- Node5 -->
<g id="node5" class="node"><title>Node5</title>
<polygon fill="white" stroke="#bfbfbf" points="288,-112.5 288,-131.5 352,-131.5 352,-112.5 288,-112.5"/>
<text text-anchor="middle" x="320" y="-119.5" font-family="Helvetica,sans-Serif" font-size="10.00">osg/Geode</text>
</g>
<!-- Node1&#45;&gt;Node5 -->
<g id="edge4" class="edge"><title>Node1&#45;&gt;Node5</title>
<path fill="none" stroke="midnightblue" d="M616.344,-175.739C550.483,-165.454 454.767,-149.887 362.03,-132.124"/>
<polygon fill="midnightblue" stroke="midnightblue" points="362.678,-128.685 352.197,-130.23 361.354,-135.558 362.678,-128.685"/>
</g>
<!-- Node6 -->
<g id="node6" class="node"><title>Node6</title>
<polygon fill="white" stroke="#bfbfbf" points="370,-112.5 370,-131.5 432,-131.5 432,-112.5 370,-112.5"/>
<text text-anchor="middle" x="401" y="-119.5" font-family="Helvetica,sans-Serif" font-size="10.00">osg/Notify</text>
</g>
<!-- Node1&#45;&gt;Node6 -->
<g id="edge5" class="edge"><title>Node1&#45;&gt;Node6</title>
<path fill="none" stroke="midnightblue" d="M616.117,-170.238C559.742,-157.859 486.884,-141.86 442.075,-132.02"/>
<polygon fill="midnightblue" stroke="midnightblue" points="442.653,-128.563 432.135,-129.837 441.152,-135.401 442.653,-128.563"/>
</g>
<!-- Node7 -->
<g id="node7" class="node"><title>Node7</title>
<polygon fill="white" stroke="#bfbfbf" points="838.5,-56.5 838.5,-75.5 945.5,-75.5 945.5,-56.5 838.5,-56.5"/>
<text text-anchor="middle" x="892" y="-63.5" font-family="Helvetica,sans-Serif" font-size="10.00">osg/MatrixTransform</text>
</g>
<!-- Node1&#45;&gt;Node7 -->
<g id="edge6" class="edge"><title>Node1&#45;&gt;Node7</title>
<path fill="none" stroke="midnightblue" d="M616.487,-184.624C537.543,-178.467 434.975,-161.082 479,-112 501.861,-86.5132 718.008,-74.0782 828.146,-69.3547"/>
<polygon fill="midnightblue" stroke="midnightblue" points="828.619,-72.838 838.463,-68.9215 828.325,-65.8442 828.619,-72.838"/>
</g>
<!-- Node8 -->
<g id="node8" class="node"><title>Node8</title>
<polygon fill="white" stroke="#bfbfbf" points="488.5,-112.5 488.5,-131.5 569.5,-131.5 569.5,-112.5 488.5,-112.5"/>
<text text-anchor="middle" x="529" y="-119.5" font-family="Helvetica,sans-Serif" font-size="10.00">osg/Texture2D</text>
</g>
<!-- Node1&#45;&gt;Node8 -->
<g id="edge7" class="edge"><title>Node1&#45;&gt;Node8</title>
<path fill="none" stroke="midnightblue" d="M646.594,-168.498C618.732,-157.718 584.965,-144.653 560.776,-135.294"/>
<polygon fill="midnightblue" stroke="midnightblue" points="561.953,-131.997 551.363,-131.652 559.427,-138.525 561.953,-131.997"/>
</g>
<!-- Node9 -->
<g id="node9" class="node"><title>Node9</title>
<polygon fill="white" stroke="#bfbfbf" points="587.5,-112.5 587.5,-131.5 700.5,-131.5 700.5,-112.5 587.5,-112.5"/>
<text text-anchor="middle" x="644" y="-119.5" font-family="Helvetica,sans-Serif" font-size="10.00">osg/TextureRectangle</text>
</g>
<!-- Node1&#45;&gt;Node9 -->
<g id="edge8" class="edge"><title>Node1&#45;&gt;Node9</title>
<path fill="none" stroke="midnightblue" d="M681.098,-168.498C673.597,-159.299 664.74,-148.436 657.562,-139.632"/>
<polygon fill="midnightblue" stroke="midnightblue" points="660.087,-137.191 651.055,-131.652 654.662,-141.614 660.087,-137.191"/>
</g>
<!-- Node10 -->
<g id="node10" class="node"><title>Node10</title>
<polygon fill="white" stroke="#bfbfbf" points="718.5,-112.5 718.5,-131.5 783.5,-131.5 783.5,-112.5 718.5,-112.5"/>
<text text-anchor="middle" x="751" y="-119.5" font-family="Helvetica,sans-Serif" font-size="10.00">osg/Stencil</text>
</g>
<!-- Node1&#45;&gt;Node10 -->
<g id="edge9" class="edge"><title>Node1&#45;&gt;Node10</title>
<path fill="none" stroke="midnightblue" d="M713.202,-168.498C720.924,-159.203 730.057,-148.21 737.41,-139.358"/>
<polygon fill="midnightblue" stroke="midnightblue" points="740.114,-141.581 743.812,-131.652 734.729,-137.108 740.114,-141.581"/>
</g>
<!-- Node11 -->
<g id="node11" class="node"><title>Node11</title>
<polygon fill="white" stroke="#bfbfbf" points="801.5,-112.5 801.5,-131.5 884.5,-131.5 884.5,-112.5 801.5,-112.5"/>
<text text-anchor="middle" x="843" y="-119.5" font-family="Helvetica,sans-Serif" font-size="10.00">osg/ColorMask</text>
</g>
<!-- Node1&#45;&gt;Node11 -->
<g id="edge10" class="edge"><title>Node1&#45;&gt;Node11</title>
<path fill="none" stroke="midnightblue" d="M740.805,-168.498C764.588,-157.909 793.322,-145.117 814.256,-135.797"/>
<polygon fill="midnightblue" stroke="midnightblue" points="815.853,-138.917 823.565,-131.652 813.006,-132.522 815.853,-138.917"/>
</g>
<!-- Node12 -->
<g id="node12" class="node"><title>Node12</title>
<polygon fill="white" stroke="#bfbfbf" points="903,-112.5 903,-131.5 965,-131.5 965,-112.5 903,-112.5"/>
<text text-anchor="middle" x="934" y="-119.5" font-family="Helvetica,sans-Serif" font-size="10.00">osg/Depth</text>
</g>
<!-- Node1&#45;&gt;Node12 -->
<g id="edge11" class="edge"><title>Node1&#45;&gt;Node12</title>
<path fill="none" stroke="midnightblue" d="M768.108,-168.498C808.936,-157.3 858.75,-143.638 893.075,-134.224"/>
<polygon fill="midnightblue" stroke="midnightblue" points="894.045,-137.587 902.763,-131.567 892.194,-130.837 894.045,-137.587"/>
</g>
<!-- Node13 -->
<g id="node13" class="node"><title>Node13</title>
<polygon fill="white" stroke="#bfbfbf" points="983,-112.5 983,-131.5 1053,-131.5 1053,-112.5 983,-112.5"/>
<text text-anchor="middle" x="1018" y="-119.5" font-family="Helvetica,sans-Serif" font-size="10.00">osg/Material</text>
</g>
<!-- Node1&#45;&gt;Node13 -->
<g id="edge12" class="edge"><title>Node1&#45;&gt;Node13</title>
<path fill="none" stroke="midnightblue" d="M777.588,-171.682C839.267,-159.192 922.086,-142.422 972.667,-132.18"/>
<polygon fill="midnightblue" stroke="midnightblue" points="973.538,-135.574 982.644,-130.159 972.149,-128.714 973.538,-135.574"/>
</g>
<!-- Node14 -->
<g id="node14" class="node"><title>Node14</title>
<polygon fill="white" stroke="#bfbfbf" points="1071.5,-112.5 1071.5,-131.5 1150.5,-131.5 1150.5,-112.5 1071.5,-112.5"/>
<text text-anchor="middle" x="1111" y="-119.5" font-family="Helvetica,sans-Serif" font-size="10.00">osg/LineWidth</text>
</g>
<!-- Node1&#45;&gt;Node14 -->
<g id="edge13" class="edge"><title>Node1&#45;&gt;Node14</title>
<path fill="none" stroke="midnightblue" d="M777.573,-176.333C849.291,-165.788 957.32,-149.515 1061.38,-132.062"/>
<polygon fill="midnightblue" stroke="midnightblue" points="1062.16,-135.481 1071.44,-130.37 1061,-128.578 1062.16,-135.481"/>
</g>
<!-- Node15 -->
<g id="node15" class="node"><title>Node15</title>
<polygon fill="white" stroke="#bfbfbf" points="1168.5,-112.5 1168.5,-131.5 1317.5,-131.5 1317.5,-112.5 1168.5,-112.5"/>
<text text-anchor="middle" x="1243" y="-119.5" font-family="Helvetica,sans-Serif" font-size="10.00">osg/PositionAttitudeTransform</text>
</g>
<!-- Node1&#45;&gt;Node15 -->
<g id="edge14" class="edge"><title>Node1&#45;&gt;Node15</title>
<path fill="none" stroke="midnightblue" d="M777.564,-178.409C880.482,-166.157 1057.64,-145.067 1161.16,-132.742"/>
<polygon fill="midnightblue" stroke="midnightblue" points="1161.74,-136.199 1171.26,-131.541 1160.91,-129.248 1161.74,-136.199"/>
</g>
<!-- Node16 -->
<g id="node16" class="node"><title>Node16</title>
<polygon fill="white" stroke="#bfbfbf" points="1335.5,-112.5 1335.5,-131.5 1378.5,-131.5 1378.5,-112.5 1335.5,-112.5"/>
<text text-anchor="middle" x="1357" y="-119.5" font-family="Helvetica,sans-Serif" font-size="10.00">cstdio</text>
</g>
<!-- Node1&#45;&gt;Node16 -->
<g id="edge15" class="edge"><title>Node1&#45;&gt;Node16</title>
<path fill="none" stroke="midnightblue" d="M777.61,-185.811C896.001,-181.494 1123.75,-168.994 1325.56,-131.688"/>
<polygon fill="midnightblue" stroke="midnightblue" points="1326.26,-135.117 1335.45,-129.836 1324.98,-128.236 1326.26,-135.117"/>
</g>
<!-- Node17 -->
<g id="node17" class="node"><title>Node17</title>
<g id="a_node17"><a xlink:href="../../de/d80/_h_u_d_texture_8h.html" target="_top" xlink:title="The &quot;HUDTexture&quot;. ">
<polygon fill="white" stroke="black" points="1397,-112.5 1397,-131.5 1477,-131.5 1477,-112.5 1397,-112.5"/>
<text text-anchor="middle" x="1437" y="-119.5" font-family="Helvetica,sans-Serif" font-size="10.00">HUDTexture.h</text>
</a>
</g>
</g>
<!-- Node1&#45;&gt;Node17 -->
<g id="edge16" class="edge"><title>Node1&#45;&gt;Node17</title>
<path fill="none" stroke="midnightblue" d="M777.738,-183.996C906.841,-177.02 1167.56,-160.585 1387,-132 1387.1,-131.987 1387.2,-131.974 1387.3,-131.96"/>
<polygon fill="midnightblue" stroke="midnightblue" points="1387.54,-135.462 1396.94,-130.565 1386.54,-128.535 1387.54,-135.462"/>
</g>
<!-- Node17&#45;&gt;Node7 -->
<g id="edge20" class="edge"><title>Node17&#45;&gt;Node7</title>
<path fill="none" stroke="midnightblue" d="M1396.93,-113.47C1393.58,-112.936 1390.23,-112.437 1387,-112 1232.87,-91.1626 1050.39,-77.3599 955.895,-71.0156"/>
<polygon fill="midnightblue" stroke="midnightblue" points="955.855,-67.5052 945.645,-70.3335 955.39,-74.4898 955.855,-67.5052"/>
</g>
<!-- Node18 -->
<g id="node18" class="node"><title>Node18</title>
<g id="a_node18"><a xlink:href="../../dc/d75/_h_u_d_element_8h.html" target="_top" xlink:title="The &quot;HUDElement&quot;. ">
<polygon fill="white" stroke="black" points="1395.5,-56.5 1395.5,-75.5 1478.5,-75.5 1478.5,-56.5 1395.5,-56.5"/>
<text text-anchor="middle" x="1437" y="-63.5" font-family="Helvetica,sans-Serif" font-size="10.00">HUDElement.h</text>
</a>
</g>
</g>
<!-- Node17&#45;&gt;Node18 -->
<g id="edge17" class="edge"><title>Node17&#45;&gt;Node18</title>
<path fill="none" stroke="midnightblue" d="M1437,-112.083C1437,-105.006 1437,-94.8611 1437,-85.9865"/>
<polygon fill="midnightblue" stroke="midnightblue" points="1440.5,-85.751 1437,-75.7511 1433.5,-85.7511 1440.5,-85.751"/>
</g>
<!-- Node19 -->
<g id="node19" class="node"><title>Node19</title>
<polygon fill="white" stroke="#bfbfbf" points="1371,-0.5 1371,-19.5 1433,-19.5 1433,-0.5 1371,-0.5"/>
<text text-anchor="middle" x="1402" y="-7.5" font-family="Helvetica,sans-Serif" font-size="10.00">osg/Group</text>
</g>
<!-- Node18&#45;&gt;Node19 -->
<g id="edge18" class="edge"><title>Node18&#45;&gt;Node19</title>
<path fill="none" stroke="midnightblue" d="M1431.22,-56.083C1426.33,-48.5341 1419.17,-37.4948 1413.17,-28.2298"/>
<polygon fill="midnightblue" stroke="midnightblue" points="1416.05,-26.239 1407.67,-19.7511 1410.17,-30.0463 1416.05,-26.239"/>
</g>
<!-- Node20 -->
<g id="node20" class="node"><title>Node20</title>
<polygon fill="white" stroke="#bfbfbf" points="1451.5,-0.5 1451.5,-19.5 1492.5,-19.5 1492.5,-0.5 1451.5,-0.5"/>
<text text-anchor="middle" x="1472" y="-7.5" font-family="Helvetica,sans-Serif" font-size="10.00">string</text>
</g>
<!-- Node18&#45;&gt;Node20 -->
<g id="edge19" class="edge"><title>Node18&#45;&gt;Node20</title>
<path fill="none" stroke="midnightblue" d="M1442.78,-56.083C1447.67,-48.5341 1454.83,-37.4948 1460.83,-28.2298"/>
<polygon fill="midnightblue" stroke="midnightblue" points="1463.83,-30.0463 1466.33,-19.7511 1457.95,-26.239 1463.83,-30.0463"/>
</g>
</g>
</svg>
