<?xml version="1.0" encoding="UTF-8" standalone="no"?>
<!DOCTYPE svg PUBLIC "-//W3C//DTD SVG 1.1//EN"
 "http://www.w3.org/Graphics/SVG/1.1/DTD/svg11.dtd">
<!-- Generated by graphviz version 2.36.0 (20140111.2315)
 -->
<!-- Title: mars::sim::Simulator Pages: 1 -->
<svg width="954pt" height="1134pt"
 viewBox="0.00 0.00 954.00 1134.00" xmlns="http://www.w3.org/2000/svg" xmlns:xlink="http://www.w3.org/1999/xlink">
<g id="graph0" class="graph" transform="scale(1 1) rotate(0) translate(4 1130)">
<title>mars::sim::Simulator</title>
<polygon fill="white" stroke="none" points="-4,4 -4,-1130 950,-1130 950,4 -4,4"/>
<!-- Node1 -->
<g id="node1" class="node"><title>Node1</title>
<polygon fill="#bfbfbf" stroke="black" points="838.5,-747.5 838.5,-766.5 945.5,-766.5 945.5,-747.5 838.5,-747.5"/>
<text text-anchor="middle" x="892" y="-754.5" font-family="Helvetica,sans-Serif" font-size="10.00">mars::sim::Simulator</text>
</g>
<!-- Node1&#45;&gt;Node1 -->
<g id="edge10" class="edge"><title>Node1&#45;&gt;Node1</title>
<path fill="none" stroke="#9a32cd" stroke-dasharray="5,2" d="M867.447,-776.029C868.786,-781.128 876.97,-785 892,-785 915.461,-785 922.243,-775.565 912.345,-766.757"/>
<polygon fill="#9a32cd" stroke="#9a32cd" points="870.709,-777.31 871.655,-766.757 864.335,-774.416 870.709,-777.31"/>
<text text-anchor="middle" x="892" y="-788" font-family="Helvetica,sans-Serif" font-size="10.00"> activeSimulator</text>
</g>
<!-- Node2 -->
<g id="node2" class="node"><title>Node2</title>
<g id="a_node2"><a xlink:href="../../d0/d76/classmars_1_1utils_1_1_thread.html" target="_top" xlink:title="mars::utils::Thread">
<polygon fill="white" stroke="black" points="565,-1101.5 565,-1120.5 663,-1120.5 663,-1101.5 565,-1101.5"/>
<text text-anchor="middle" x="614" y="-1108.5" font-family="Helvetica,sans-Serif" font-size="10.00">mars::utils::Thread</text>
</a>
</g>
</g>
<!-- Node2&#45;&gt;Node1 -->
<g id="edge1" class="edge"><title>Node2&#45;&gt;Node1</title>
<path fill="none" stroke="midnightblue" d="M673.22,-1103.12C719.54,-1093.78 782.591,-1073.7 820,-1031 891.401,-949.497 892.476,-805.119 891.402,-766.644"/>
<polygon fill="midnightblue" stroke="midnightblue" points="672.479,-1099.7 663.31,-1105.01 673.788,-1106.57 672.479,-1099.7"/>
</g>
<!-- Node3 -->
<g id="node3" class="node"><title>Node3</title>
<g id="a_node3"><a xlink:href="../../db/de7/structmars_1_1utils_1_1_pthread_thread_wrapper.html" target="_top" xlink:title="mars::utils::PthreadThread\lWrapper">
<polygon fill="white" stroke="black" points="280,-1096 280,-1126 412,-1126 412,-1096 280,-1096"/>
<text text-anchor="start" x="288" y="-1114" font-family="Helvetica,sans-Serif" font-size="10.00">mars::utils::PthreadThread</text>
<text text-anchor="middle" x="346" y="-1103" font-family="Helvetica,sans-Serif" font-size="10.00">Wrapper</text>
</a>
</g>
</g>
<!-- Node3&#45;&gt;Node2 -->
<g id="edge2" class="edge"><title>Node3&#45;&gt;Node2</title>
<path fill="none" stroke="#9a32cd" stroke-dasharray="5,2" d="M422.25,-1111C468.026,-1111 525.129,-1111 564.869,-1111"/>
<polygon fill="#9a32cd" stroke="#9a32cd" points="422.071,-1107.5 412.071,-1111 422.071,-1114.5 422.071,-1107.5"/>
<text text-anchor="middle" x="485" y="-1114" font-family="Helvetica,sans-Serif" font-size="10.00"> myThread</text>
</g>
<!-- Node4 -->
<g id="node4" class="node"><title>Node4</title>
<g id="a_node4"><a xlink:href="../../d6/d90/classmars_1_1utils_1_1_mutex.html" target="_top" xlink:title="mars::utils::Mutex">
<polygon fill="white" stroke="black" points="298.5,-1032.5 298.5,-1051.5 393.5,-1051.5 393.5,-1032.5 298.5,-1032.5"/>
<text text-anchor="middle" x="346" y="-1039.5" font-family="Helvetica,sans-Serif" font-size="10.00">mars::utils::Mutex</text>
</a>
</g>
</g>
<!-- Node4&#45;&gt;Node1 -->
<g id="edge14" class="edge"><title>Node4&#45;&gt;Node1</title>
<path fill="none" stroke="#9a32cd" stroke-dasharray="5,2" d="M404.195,-1037.02C526.6,-1026.14 804.171,-1000.16 820,-987 890.054,-928.76 892.284,-802.923 891.402,-766.849"/>
<polygon fill="#9a32cd" stroke="#9a32cd" points="403.55,-1033.56 393.898,-1037.93 404.168,-1040.54 403.55,-1033.56"/>
<text text-anchor="middle" x="614" y="-1081" font-family="Helvetica,sans-Serif" font-size="10.00"> getTimeMutex</text>
<text text-anchor="middle" x="614" y="-1070" font-family="Helvetica,sans-Serif" font-size="10.00">physicsCountMutex</text>
<text text-anchor="middle" x="614" y="-1059" font-family="Helvetica,sans-Serif" font-size="10.00">coreMutex</text>
<text text-anchor="middle" x="614" y="-1048" font-family="Helvetica,sans-Serif" font-size="10.00">externalMutex</text>
<text text-anchor="middle" x="614" y="-1037" font-family="Helvetica,sans-Serif" font-size="10.00">physicsMutex</text>
<text text-anchor="middle" x="614" y="-1026" font-family="Helvetica,sans-Serif" font-size="10.00">stepping_mutex</text>
</g>
<!-- Node4&#45;&gt;Node2 -->
<g id="edge3" class="edge"><title>Node4&#45;&gt;Node2</title>
<path fill="none" stroke="#9a32cd" stroke-dasharray="5,2" d="M393.673,-1054.11C445.666,-1067.59 528.652,-1089.12 576.243,-1101.47"/>
<polygon fill="#9a32cd" stroke="#9a32cd" points="394.265,-1050.64 383.707,-1051.52 392.508,-1057.42 394.265,-1050.64"/>
<text text-anchor="middle" x="485" y="-1091" font-family="Helvetica,sans-Serif" font-size="10.00"> threadListMutex</text>
</g>
<!-- Node5 -->
<g id="node5" class="node"><title>Node5</title>
<g id="a_node5"><a xlink:href="../../d6/d9e/structmars_1_1utils_1_1_pthread_mutex_wrapper.html" target="_top" xlink:title="mars::utils::PthreadMutex\lWrapper">
<polygon fill="white" stroke="black" points="16.5,-1027 16.5,-1057 145.5,-1057 145.5,-1027 16.5,-1027"/>
<text text-anchor="start" x="24.5" y="-1045" font-family="Helvetica,sans-Serif" font-size="10.00">mars::utils::PthreadMutex</text>
<text text-anchor="middle" x="81" y="-1034" font-family="Helvetica,sans-Serif" font-size="10.00">Wrapper</text>
</a>
</g>
</g>
<!-- Node5&#45;&gt;Node4 -->
<g id="edge4" class="edge"><title>Node5&#45;&gt;Node4</title>
<path fill="none" stroke="#9a32cd" stroke-dasharray="5,2" d="M155.83,-1042C201.568,-1042 258.913,-1042 298.407,-1042"/>
<polygon fill="#9a32cd" stroke="#9a32cd" points="155.665,-1038.5 145.665,-1042 155.665,-1045.5 155.665,-1038.5"/>
<text text-anchor="middle" x="215" y="-1045" font-family="Helvetica,sans-Serif" font-size="10.00"> myMutex</text>
</g>
<!-- Node6 -->
<g id="node6" class="node"><title>Node6</title>
<g id="a_node6"><a xlink:href="../../dc/de5/classmars_1_1interfaces_1_1_simulator_interface.html" target="_top" xlink:title="mars::interfaces::Simulator\lInterface">
<polygon fill="white" stroke="black" points="279,-566 279,-596 413,-596 413,-566 279,-566"/>
<text text-anchor="start" x="287" y="-584" font-family="Helvetica,sans-Serif" font-size="10.00">mars::interfaces::Simulator</text>
<text text-anchor="middle" x="346" y="-573" font-family="Helvetica,sans-Serif" font-size="10.00">Interface</text>
</a>
</g>
</g>
<!-- Node6&#45;&gt;Node1 -->
<g id="edge5" class="edge"><title>Node6&#45;&gt;Node1</title>
<path fill="none" stroke="midnightblue" d="M423.189,-571.615C540.358,-558.817 757.777,-542.051 820,-585 876.63,-624.088 888.176,-717.203 890.457,-747.38"/>
<polygon fill="midnightblue" stroke="midnightblue" points="422.76,-568.141 413.206,-572.722 423.531,-575.098 422.76,-568.141"/>
</g>
<!-- Node19 -->
<g id="node19" class="node"><title>Node19</title>
<g id="a_node19"><a xlink:href="../../d7/d4e/classmars_1_1interfaces_1_1_control_center.html" target="_top" xlink:title="The declaration of the ControlCenter. ">
<polygon fill="white" stroke="black" points="551.5,-370 551.5,-400 676.5,-400 676.5,-370 551.5,-370"/>
<text text-anchor="start" x="559.5" y="-388" font-family="Helvetica,sans-Serif" font-size="10.00">mars::interfaces::Control</text>
<text text-anchor="middle" x="614" y="-377" font-family="Helvetica,sans-Serif" font-size="10.00">Center</text>
</a>
</g>
</g>
<!-- Node6&#45;&gt;Node19 -->
<g id="edge37" class="edge"><title>Node6&#45;&gt;Node19</title>
<path fill="none" stroke="#9a32cd" stroke-dasharray="5,2" d="M412.373,-561.918C416.386,-560.093 420.296,-558.122 424,-556 433.287,-550.679 432.576,-545.075 442,-540 476.836,-521.24 496.03,-540.31 528,-517 570.066,-486.328 596.678,-427.946 607.479,-400.276"/>
<polygon fill="#9a32cd" stroke="#9a32cd" points="410.728,-558.813 402.867,-565.915 413.441,-565.266 410.728,-558.813"/>
<text text-anchor="middle" x="485" y="-543" font-family="Helvetica,sans-Serif" font-size="10.00"> sim</text>
</g>
<!-- Node7 -->
<g id="node7" class="node"><title>Node7</title>
<g id="a_node7"><a xlink:href="../../d8/d6e/classmars_1_1interfaces_1_1_graphics_update_interface.html" target="_top" xlink:title="The Interface to load controller dynamically into the simulation. ">
<polygon fill="white" stroke="black" points="548,-912 548,-942 680,-942 680,-912 548,-912"/>
<text text-anchor="start" x="556" y="-930" font-family="Helvetica,sans-Serif" font-size="10.00">mars::interfaces::Graphics</text>
<text text-anchor="middle" x="614" y="-919" font-family="Helvetica,sans-Serif" font-size="10.00">UpdateInterface</text>
</a>
</g>
</g>
<!-- Node7&#45;&gt;Node1 -->
<g id="edge6" class="edge"><title>Node7&#45;&gt;Node1</title>
<path fill="none" stroke="midnightblue" d="M690.416,-933.998C732.14,-934.06 782.896,-927.458 820,-901 867.205,-867.34 884.573,-793.315 889.426,-766.739"/>
<polygon fill="midnightblue" stroke="midnightblue" points="690.341,-930.497 680.293,-933.854 690.242,-937.496 690.341,-930.497"/>
</g>
<!-- Node8 -->
<g id="node8" class="node"><title>Node8</title>
<polygon fill="white" stroke="#bfbfbf" points="47,-201.5 47,-220.5 115,-220.5 115,-201.5 47,-201.5"/>
<text text-anchor="middle" x="81" y="-208.5" font-family="Helvetica,sans-Serif" font-size="10.00">LibInterface</text>
</g>
<!-- Node8&#45;&gt;Node1 -->
<g id="edge7" class="edge"><title>Node8&#45;&gt;Node1</title>
<path fill="none" stroke="midnightblue" d="M104.149,-195.336C137.715,-172.614 204.319,-131.437 268,-115 379.909,-86.115 419.154,-71.1345 528,-110 685.94,-166.395 735.423,-204.182 820,-349 861.698,-420.398 885.78,-692.836 890.242,-747.439"/>
<polygon fill="midnightblue" stroke="midnightblue" points="101.847,-192.671 95.5879,-201.219 105.812,-198.44 101.847,-192.671"/>
</g>
<!-- Node20 -->
<g id="node20" class="node"><title>Node20</title>
<g id="a_node20"><a xlink:href="../../d1/d93/classmars_1_1interfaces_1_1_graphics_manager_interface.html" target="_top" xlink:title="mars::interfaces::Graphics\lManagerInterface">
<polygon fill="white" stroke="black" points="280,-174 280,-204 412,-204 412,-174 280,-174"/>
<text text-anchor="start" x="288" y="-192" font-family="Helvetica,sans-Serif" font-size="10.00">mars::interfaces::Graphics</text>
<text text-anchor="middle" x="346" y="-181" font-family="Helvetica,sans-Serif" font-size="10.00">ManagerInterface</text>
</a>
</g>
</g>
<!-- Node8&#45;&gt;Node20 -->
<g id="edge23" class="edge"><title>Node8&#45;&gt;Node20</title>
<path fill="none" stroke="midnightblue" d="M125.223,-207.384C167.253,-203.869 231.637,-198.483 279.873,-194.448"/>
<polygon fill="midnightblue" stroke="midnightblue" points="124.716,-203.914 115.043,-208.236 125.3,-210.89 124.716,-203.914"/>
</g>
<!-- Node24 -->
<g id="node24" class="node"><title>Node24</title>
<g id="a_node24"><a xlink:href="../../d4/da6/classmars_1_1cfg__manager_1_1_c_f_g_manager_interface.html" target="_top" xlink:title="mars::cfg_manager::\lCFGManagerInterface">
<polygon fill="white" stroke="black" points="289.5,-419 289.5,-449 402.5,-449 402.5,-419 289.5,-419"/>
<text text-anchor="start" x="297.5" y="-437" font-family="Helvetica,sans-Serif" font-size="10.00">mars::cfg_manager::</text>
<text text-anchor="middle" x="346" y="-426" font-family="Helvetica,sans-Serif" font-size="10.00">CFGManagerInterface</text>
</a>
</g>
</g>
<!-- Node8&#45;&gt;Node24 -->
<g id="edge28" class="edge"><title>Node8&#45;&gt;Node24</title>
<path fill="none" stroke="midnightblue" d="M94.4668,-229.606C121.497,-268.55 189.43,-359.16 268,-409 274.528,-413.141 281.805,-416.656 289.208,-419.624"/>
<polygon fill="midnightblue" stroke="midnightblue" points="97.029,-227.152 88.4945,-220.874 91.2512,-231.104 97.029,-227.152"/>
</g>
<!-- Node25 -->
<g id="node25" class="node"><title>Node25</title>
<g id="a_node25"><a xlink:href="../../d6/d2e/classmars_1_1data__broker_1_1_data_broker_interface.html" target="_top" xlink:title="The interface every DataBroker should implement. ">
<polygon fill="white" stroke="black" points="294,-223 294,-253 398,-253 398,-223 294,-223"/>
<text text-anchor="start" x="302" y="-241" font-family="Helvetica,sans-Serif" font-size="10.00">mars::data_broker::</text>
<text text-anchor="middle" x="346" y="-230" font-family="Helvetica,sans-Serif" font-size="10.00">DataBrokerInterface</text>
</a>
</g>
</g>
<!-- Node8&#45;&gt;Node25 -->
<g id="edge30" class="edge"><title>Node8&#45;&gt;Node25</title>
<path fill="none" stroke="midnightblue" d="M125.041,-215.419C171.26,-220.164 244.664,-227.699 293.812,-232.745"/>
<polygon fill="midnightblue" stroke="midnightblue" points="125.348,-211.932 115.043,-214.392 124.633,-218.895 125.348,-211.932"/>
</g>
<!-- Node9 -->
<g id="node9" class="node"><title>Node9</title>
<g id="a_node9"><a xlink:href="../../d4/d1a/classmars_1_1cfg__manager_1_1_c_f_g_client.html" target="_top" xlink:title="mars::cfg_manager::\lCFGClient">
<polygon fill="white" stroke="black" points="560.5,-824 560.5,-854 667.5,-854 667.5,-824 560.5,-824"/>
<text text-anchor="start" x="568.5" y="-842" font-family="Helvetica,sans-Serif" font-size="10.00">mars::cfg_manager::</text>
<text text-anchor="middle" x="614" y="-831" font-family="Helvetica,sans-Serif" font-size="10.00">CFGClient</text>
</a>
</g>
</g>
<!-- Node9&#45;&gt;Node1 -->
<g id="edge8" class="edge"><title>Node9&#45;&gt;Node1</title>
<path fill="none" stroke="midnightblue" d="M677.666,-847.907C719.735,-851.148 775.406,-849.999 820,-830 850.488,-816.327 874.658,-783.054 885.221,-766.574"/>
<polygon fill="midnightblue" stroke="midnightblue" points="677.818,-844.407 667.551,-847.024 677.209,-851.38 677.818,-844.407"/>
</g>
<!-- Node10 -->
<g id="node10" class="node"><title>Node10</title>
<g id="a_node10"><a xlink:href="../../d0/d0e/classmars_1_1data__broker_1_1_receiver_interface.html" target="_top" xlink:title="Interface for classes that want to receive data from the DataBroker. ">
<polygon fill="white" stroke="black" points="563.5,-775 563.5,-805 664.5,-805 664.5,-775 563.5,-775"/>
<text text-anchor="start" x="571.5" y="-793" font-family="Helvetica,sans-Serif" font-size="10.00">mars::data_broker::</text>
<text text-anchor="middle" x="614" y="-782" font-family="Helvetica,sans-Serif" font-size="10.00">ReceiverInterface</text>
</a>
</g>
</g>
<!-- Node10&#45;&gt;Node1 -->
<g id="edge9" class="edge"><title>Node10&#45;&gt;Node1</title>
<path fill="none" stroke="midnightblue" d="M669.172,-807.688C711.319,-818.589 770.724,-827.61 820,-811 846.122,-802.195 870.244,-779.528 882.518,-766.532"/>
<polygon fill="midnightblue" stroke="midnightblue" points="669.948,-804.272 659.382,-805.042 668.122,-811.03 669.948,-804.272"/>
</g>
<!-- Node11 -->
<g id="node11" class="node"><title>Node11</title>
<g id="a_node11"><a xlink:href="../../dd/dbd/classmars_1_1utils_1_1_wait_condition.html" target="_top" xlink:title="mars::utils::WaitCondition">
<polygon fill="white" stroke="black" points="549,-961.5 549,-980.5 679,-980.5 679,-961.5 549,-961.5"/>
<text text-anchor="middle" x="614" y="-968.5" font-family="Helvetica,sans-Serif" font-size="10.00">mars::utils::WaitCondition</text>
</a>
</g>
</g>
<!-- Node11&#45;&gt;Node1 -->
<g id="edge11" class="edge"><title>Node11&#45;&gt;Node1</title>
<path fill="none" stroke="#9a32cd" stroke-dasharray="5,2" d="M689.469,-973.612C731.968,-971.322 783.816,-961.663 820,-932 873.755,-887.933 887.169,-796.839 890.193,-766.827"/>
<polygon fill="#9a32cd" stroke="#9a32cd" points="689.288,-970.117 679.441,-974.027 689.577,-977.111 689.288,-970.117"/>
<text text-anchor="middle" x="760" y="-975" font-family="Helvetica,sans-Serif" font-size="10.00"> stepping_wc</text>
</g>
<!-- Node12 -->
<g id="node12" class="node"><title>Node12</title>
<g id="a_node12"><a xlink:href="../../d1/ded/structmars_1_1utils_1_1_pthread_condition_wrapper.html" target="_top" xlink:title="mars::utils::PthreadCondition\lWrapper">
<polygon fill="white" stroke="black" points="274.5,-956 274.5,-986 417.5,-986 417.5,-956 274.5,-956"/>
<text text-anchor="start" x="282.5" y="-974" font-family="Helvetica,sans-Serif" font-size="10.00">mars::utils::PthreadCondition</text>
<text text-anchor="middle" x="346" y="-963" font-family="Helvetica,sans-Serif" font-size="10.00">Wrapper</text>
</a>
</g>
</g>
<!-- Node12&#45;&gt;Node11 -->
<g id="edge12" class="edge"><title>Node12&#45;&gt;Node11</title>
<path fill="none" stroke="#9a32cd" stroke-dasharray="5,2" d="M427.815,-971C466.649,-971 512.538,-971 548.92,-971"/>
<polygon fill="#9a32cd" stroke="#9a32cd" points="427.585,-967.5 417.585,-971 427.585,-974.5 427.585,-967.5"/>
<text text-anchor="middle" x="485" y="-974" font-family="Helvetica,sans-Serif" font-size="10.00"> myWaitCondition</text>
</g>
<!-- Node13 -->
<g id="node13" class="node"><title>Node13</title>
<g id="a_node13"><a xlink:href="../../da/d2f/classmars_1_1data__broker_1_1_data_package.html" target="_top" xlink:title="A collection of DataItems. ">
<polygon fill="white" stroke="black" points="563.5,-652 563.5,-682 664.5,-682 664.5,-652 563.5,-652"/>
<text text-anchor="start" x="571.5" y="-670" font-family="Helvetica,sans-Serif" font-size="10.00">mars::data_broker::</text>
<text text-anchor="middle" x="614" y="-659" font-family="Helvetica,sans-Serif" font-size="10.00">DataPackage</text>
</a>
</g>
</g>
<!-- Node13&#45;&gt;Node1 -->
<g id="edge13" class="edge"><title>Node13&#45;&gt;Node1</title>
<path fill="none" stroke="#9a32cd" stroke-dasharray="5,2" d="M661.791,-648.845C705.394,-635.045 770.886,-622.511 820,-649 859.894,-670.516 881.036,-725.32 888.181,-747.483"/>
<polygon fill="#9a32cd" stroke="#9a32cd" points="660.689,-645.523 652.29,-651.981 662.883,-652.17 660.689,-645.523"/>
<text text-anchor="middle" x="760" y="-663" font-family="Helvetica,sans-Serif" font-size="10.00"> dbPhysicsUpdatePackage</text>
<text text-anchor="middle" x="760" y="-652" font-family="Helvetica,sans-Serif" font-size="10.00">dbSimTimePackage</text>
</g>
<!-- Node14 -->
<g id="node14" class="node"><title>Node14</title>
<g id="a_node14"><a xlink:href="../../d2/d30/classmars_1_1utils_1_1_read_write_lock.html" target="_top" xlink:title="mars::utils::ReadWriteLock">
<polygon fill="white" stroke="black" points="546,-873.5 546,-892.5 682,-892.5 682,-873.5 546,-873.5"/>
<text text-anchor="middle" x="614" y="-880.5" font-family="Helvetica,sans-Serif" font-size="10.00">mars::utils::ReadWriteLock</text>
</a>
</g>
</g>
<!-- Node14&#45;&gt;Node1 -->
<g id="edge15" class="edge"><title>Node14&#45;&gt;Node1</title>
<path fill="none" stroke="#9a32cd" stroke-dasharray="5,2" d="M692.268,-886.071C732.845,-884.368 781.909,-876.819 820,-854 855.268,-832.872 878.301,-786.82 887.045,-766.715"/>
<polygon fill="#9a32cd" stroke="#9a32cd" points="692.033,-882.577 682.146,-886.384 692.25,-889.573 692.033,-882.577"/>
<text text-anchor="middle" x="760" y="-889" font-family="Helvetica,sans-Serif" font-size="10.00"> pluginLocker</text>
</g>
<!-- Node15 -->
<g id="node15" class="node"><title>Node15</title>
<g id="a_node15"><a xlink:href="../../d7/d15/structmars_1_1utils_1_1_pthread_read_write_lock_wrapper.html" target="_top" xlink:title="mars::utils::PthreadRead\lWriteLockWrapper">
<polygon fill="white" stroke="black" points="283.5,-868 283.5,-898 408.5,-898 408.5,-868 283.5,-868"/>
<text text-anchor="start" x="291.5" y="-886" font-family="Helvetica,sans-Serif" font-size="10.00">mars::utils::PthreadRead</text>
<text text-anchor="middle" x="346" y="-875" font-family="Helvetica,sans-Serif" font-size="10.00">WriteLockWrapper</text>
</a>
</g>
</g>
<!-- Node15&#45;&gt;Node14 -->
<g id="edge16" class="edge"><title>Node15&#45;&gt;Node14</title>
<path fill="none" stroke="#9a32cd" stroke-dasharray="5,2" d="M418.773,-883C458.213,-883 506.843,-883 545.576,-883"/>
<polygon fill="#9a32cd" stroke="#9a32cd" points="418.694,-879.5 408.694,-883 418.694,-886.5 418.694,-879.5"/>
<text text-anchor="middle" x="485" y="-886" font-family="Helvetica,sans-Serif" font-size="10.00"> myReadWriteLock</text>
</g>
<!-- Node16 -->
<g id="node16" class="node"><title>Node16</title>
<g id="a_node16"><a xlink:href="../../dc/dc3/structmars_1_1cfg__manager_1_1cfg_property_struct.html" target="_top" xlink:title="mars::cfg_manager::\lcfgPropertyStruct">
<polygon fill="white" stroke="black" points="560.5,-701 560.5,-731 667.5,-731 667.5,-701 560.5,-701"/>
<text text-anchor="start" x="568.5" y="-719" font-family="Helvetica,sans-Serif" font-size="10.00">mars::cfg_manager::</text>
<text text-anchor="middle" x="614" y="-708" font-family="Helvetica,sans-Serif" font-size="10.00">cfgPropertyStruct</text>
</a>
</g>
</g>
<!-- Node16&#45;&gt;Node1 -->
<g id="edge17" class="edge"><title>Node16&#45;&gt;Node1</title>
<path fill="none" stroke="#9a32cd" stroke-dasharray="5,2" d="M665.232,-697.5C681.307,-691.733 696.003,-686.685 700,-686 752.568,-676.996 770.726,-665.59 820,-686 850.278,-698.541 874.376,-730.953 885.042,-747.287"/>
<polygon fill="#9a32cd" stroke="#9a32cd" points="663.894,-694.262 655.678,-700.95 666.272,-700.845 663.894,-694.262"/>
<text text-anchor="middle" x="760" y="-799" font-family="Helvetica,sans-Serif" font-size="10.00"> cfgGZ</text>
<text text-anchor="middle" x="760" y="-788" font-family="Helvetica,sans-Serif" font-size="10.00">configPath</text>
<text text-anchor="middle" x="760" y="-777" font-family="Helvetica,sans-Serif" font-size="10.00">cfgVisRep</text>
<text text-anchor="middle" x="760" y="-766" font-family="Helvetica,sans-Serif" font-size="10.00">cfgSyncGui</text>
<text text-anchor="middle" x="760" y="-755" font-family="Helvetica,sans-Serif" font-size="10.00">cfgUseNow</text>
<text text-anchor="middle" x="760" y="-744" font-family="Helvetica,sans-Serif" font-size="10.00">cfgWorldErp</text>
<text text-anchor="middle" x="760" y="-733" font-family="Helvetica,sans-Serif" font-size="10.00">cfgDrawContact</text>
<text text-anchor="middle" x="760" y="-722" font-family="Helvetica,sans-Serif" font-size="10.00">cfgFaststep</text>
<text text-anchor="middle" x="760" y="-711" font-family="Helvetica,sans-Serif" font-size="10.00">cfgSyncTime</text>
<text text-anchor="middle" x="760" y="-700" font-family="Helvetica,sans-Serif" font-size="10.00">cfgRealtime</text>
<text text-anchor="middle" x="760" y="-689" font-family="Helvetica,sans-Serif" font-size="10.00">...</text>
</g>
<!-- Node17 -->
<g id="node17" class="node"><title>Node17</title>
<polygon fill="white" stroke="#bfbfbf" points="325.5,-642.5 325.5,-661.5 366.5,-661.5 366.5,-642.5 325.5,-642.5"/>
<text text-anchor="middle" x="346" y="-649.5" font-family="Helvetica,sans-Serif" font-size="10.00">string</text>
</g>
<!-- Node17&#45;&gt;Node1 -->
<g id="edge19" class="edge"><title>Node17&#45;&gt;Node1</title>
<path fill="none" stroke="#9a32cd" stroke-dasharray="5,2" d="M376.348,-639.937C455.361,-609.548 676.295,-538.561 820,-630 863.689,-657.799 882.936,-722.515 888.871,-747.197"/>
<polygon fill="#9a32cd" stroke="#9a32cd" points="374.615,-636.857 366.583,-643.766 377.171,-643.374 374.615,-636.857"/>
<text text-anchor="middle" x="614" y="-607" font-family="Helvetica,sans-Serif" font-size="10.00"> config_dir</text>
<text text-anchor="middle" x="614" y="-596" font-family="Helvetica,sans-Serif" font-size="10.00">scenename</text>
</g>
<!-- Node17&#45;&gt;Node16 -->
<g id="edge18" class="edge"><title>Node17&#45;&gt;Node16</title>
<path fill="none" stroke="#9a32cd" stroke-dasharray="5,2" d="M376.411,-659.076C420.752,-669.745 505.382,-690.107 560.48,-703.364"/>
<polygon fill="#9a32cd" stroke="#9a32cd" points="377.101,-655.643 366.56,-656.706 375.463,-662.448 377.101,-655.643"/>
<text text-anchor="middle" x="485" y="-699" font-family="Helvetica,sans-Serif" font-size="10.00"> sValue</text>
</g>
<!-- Node18 -->
<g id="node18" class="node"><title>Node18</title>
<g id="a_node18"><a xlink:href="../../d0/d22/classmars_1_1interfaces_1_1_physics_interface.html" target="_top" xlink:title="mars::interfaces::Physics\lInterface">
<polygon fill="white" stroke="black" points="550,-321 550,-351 678,-351 678,-321 550,-321"/>
<text text-anchor="start" x="558" y="-339" font-family="Helvetica,sans-Serif" font-size="10.00">mars::interfaces::Physics</text>
<text text-anchor="middle" x="614" y="-328" font-family="Helvetica,sans-Serif" font-size="10.00">Interface</text>
</a>
</g>
</g>
<!-- Node18&#45;&gt;Node1 -->
<g id="edge20" class="edge"><title>Node18&#45;&gt;Node1</title>
<path fill="none" stroke="#9a32cd" stroke-dasharray="5,2" d="M688.23,-347.867C732.888,-358.956 787.456,-380.097 820,-420 862.985,-472.707 885.642,-697.877 890.154,-747.359"/>
<polygon fill="#9a32cd" stroke="#9a32cd" points="688.817,-344.41 678.281,-345.52 687.21,-351.223 688.817,-344.41"/>
<text text-anchor="middle" x="760" y="-423" font-family="Helvetica,sans-Serif" font-size="10.00"> physics</text>
</g>
<!-- Node19&#45;&gt;Node1 -->
<g id="edge21" class="edge"><title>Node19&#45;&gt;Node1</title>
<path fill="none" stroke="#9a32cd" stroke-dasharray="5,2" d="M654.198,-404.961C700.275,-430.342 776.021,-478.371 820,-540 869.505,-609.371 885.936,-715.279 889.929,-747.423"/>
<polygon fill="#9a32cd" stroke="#9a32cd" points="655.856,-401.878 645.397,-400.189 652.52,-408.032 655.856,-401.878"/>
<text text-anchor="middle" x="760" y="-543" font-family="Helvetica,sans-Serif" font-size="10.00"> control</text>
</g>
<!-- Node20&#45;&gt;Node19 -->
<g id="edge22" class="edge"><title>Node20&#45;&gt;Node19</title>
<path fill="none" stroke="#9a32cd" stroke-dasharray="5,2" d="M422.295,-185.321C459.228,-187.73 501.383,-197.506 528,-226 569.019,-269.913 508.516,-313.034 546,-360 549.098,-363.881 552.863,-367.16 557.012,-369.93"/>
<polygon fill="#9a32cd" stroke="#9a32cd" points="422.19,-181.812 412.034,-184.828 421.854,-188.804 422.19,-181.812"/>
<text text-anchor="middle" x="485" y="-229" font-family="Helvetica,sans-Serif" font-size="10.00"> graphics</text>
</g>
<!-- Node21 -->
<g id="node21" class="node"><title>Node21</title>
<g id="a_node21"><a xlink:href="../../d2/da9/classmars_1_1interfaces_1_1_controller_manager_interface.html" target="_top" xlink:title="&quot;ControllerManagerInterface&quot; declares the interfaces for all controller operations that are used for ...">
<polygon fill="white" stroke="black" points="278.5,-125 278.5,-155 413.5,-155 413.5,-125 278.5,-125"/>
<text text-anchor="start" x="286.5" y="-143" font-family="Helvetica,sans-Serif" font-size="10.00">mars::interfaces::Controller</text>
<text text-anchor="middle" x="346" y="-132" font-family="Helvetica,sans-Serif" font-size="10.00">ManagerInterface</text>
</a>
</g>
</g>
<!-- Node21&#45;&gt;Node19 -->
<g id="edge24" class="edge"><title>Node21&#45;&gt;Node19</title>
<path fill="none" stroke="#9a32cd" stroke-dasharray="5,2" d="M423.744,-144.855C466.447,-149.257 513.793,-157.541 528,-173 556.249,-203.739 520.575,-326.887 546,-360 548.949,-363.84 552.554,-367.091 556.547,-369.842"/>
<polygon fill="#9a32cd" stroke="#9a32cd" points="423.874,-141.352 413.582,-143.87 423.198,-148.319 423.874,-141.352"/>
<text text-anchor="middle" x="485" y="-176" font-family="Helvetica,sans-Serif" font-size="10.00"> controllers</text>
</g>
<!-- Node22 -->
<g id="node22" class="node"><title>Node22</title>
<g id="a_node22"><a xlink:href="../../d6/d60/classmars_1_1interfaces_1_1_joint_manager_interface.html" target="_top" xlink:title="Interface class for the node organization. ">
<polygon fill="white" stroke="black" points="270,-517 270,-547 422,-547 422,-517 270,-517"/>
<text text-anchor="start" x="278" y="-535" font-family="Helvetica,sans-Serif" font-size="10.00">mars::interfaces::JointManager</text>
<text text-anchor="middle" x="346" y="-524" font-family="Helvetica,sans-Serif" font-size="10.00">Interface</text>
</a>
</g>
</g>
<!-- Node22&#45;&gt;Node19 -->
<g id="edge25" class="edge"><title>Node22&#45;&gt;Node19</title>
<path fill="none" stroke="#9a32cd" stroke-dasharray="5,2" d="M409.314,-514.06C457.439,-499.923 517.551,-481.544 528,-475 559.876,-455.037 587.892,-420.31 602.43,-400.333"/>
<polygon fill="#9a32cd" stroke="#9a32cd" points="408.172,-510.747 399.558,-516.916 410.138,-517.465 408.172,-510.747"/>
<text text-anchor="middle" x="485" y="-507" font-family="Helvetica,sans-Serif" font-size="10.00"> joints</text>
</g>
<!-- Node23 -->
<g id="node23" class="node"><title>Node23</title>
<g id="a_node23"><a xlink:href="../../df/d82/classmars_1_1interfaces_1_1_entity_manager_interface.html" target="_top" xlink:title="mars::interfaces::Entity\lManagerInterface">
<polygon fill="white" stroke="black" points="286.5,-468 286.5,-498 405.5,-498 405.5,-468 286.5,-468"/>
<text text-anchor="start" x="294.5" y="-486" font-family="Helvetica,sans-Serif" font-size="10.00">mars::interfaces::Entity</text>
<text text-anchor="middle" x="346" y="-475" font-family="Helvetica,sans-Serif" font-size="10.00">ManagerInterface</text>
</a>
</g>
</g>
<!-- Node23&#45;&gt;Node19 -->
<g id="edge26" class="edge"><title>Node23&#45;&gt;Node19</title>
<path fill="none" stroke="#9a32cd" stroke-dasharray="5,2" d="M415.494,-467.06C449.861,-458.129 491.776,-445.801 528,-431 549.124,-422.368 571.793,-409.926 588.404,-400.157"/>
<polygon fill="#9a32cd" stroke="#9a32cd" points="414.37,-463.735 405.55,-469.605 416.105,-470.516 414.37,-463.735"/>
<text text-anchor="middle" x="485" y="-463" font-family="Helvetica,sans-Serif" font-size="10.00"> entities</text>
</g>
<!-- Node24&#45;&gt;Node19 -->
<g id="edge27" class="edge"><title>Node24&#45;&gt;Node19</title>
<path fill="none" stroke="#9a32cd" stroke-dasharray="5,2" d="M412.694,-421.898C455.035,-414.099 509.734,-404.023 551.27,-396.371"/>
<polygon fill="#9a32cd" stroke="#9a32cd" points="411.963,-418.474 402.762,-423.728 413.231,-425.358 411.963,-418.474"/>
<text text-anchor="middle" x="485" y="-419" font-family="Helvetica,sans-Serif" font-size="10.00"> cfg</text>
</g>
<!-- Node25&#45;&gt;Node19 -->
<g id="edge29" class="edge"><title>Node25&#45;&gt;Node19</title>
<path fill="none" stroke="#9a32cd" stroke-dasharray="5,2" d="M408.117,-236.085C447.488,-238.236 496.941,-247.813 528,-279 554.023,-305.13 521.79,-332.182 546,-360 549.342,-363.84 553.332,-367.091 557.676,-369.843"/>
<polygon fill="#9a32cd" stroke="#9a32cd" points="408.216,-232.587 398.084,-235.683 407.936,-239.581 408.216,-232.587"/>
<text text-anchor="middle" x="485" y="-293" font-family="Helvetica,sans-Serif" font-size="10.00"> dataBroker</text>
<text text-anchor="middle" x="485" y="-282" font-family="Helvetica,sans-Serif" font-size="10.00">theDataBroker</text>
</g>
<!-- Node26 -->
<g id="node26" class="node"><title>Node26</title>
<g id="a_node26"><a xlink:href="../../db/da9/classmars_1_1interfaces_1_1_sensor_manager_interface.html" target="_top" xlink:title="&quot;SensorManagerInterface&quot; declares the interfaces for all sensor operations that are used for the comm...">
<polygon fill="white" stroke="black" points="284,-370 284,-400 408,-400 408,-370 284,-370"/>
<text text-anchor="start" x="292" y="-388" font-family="Helvetica,sans-Serif" font-size="10.00">mars::interfaces::Sensor</text>
<text text-anchor="middle" x="346" y="-377" font-family="Helvetica,sans-Serif" font-size="10.00">ManagerInterface</text>
</a>
</g>
</g>
<!-- Node26&#45;&gt;Node19 -->
<g id="edge31" class="edge"><title>Node26&#45;&gt;Node19</title>
<path fill="none" stroke="#9a32cd" stroke-dasharray="5,2" d="M418.077,-385C459.616,-385 511.531,-385 551.337,-385"/>
<polygon fill="#9a32cd" stroke="#9a32cd" points="418.026,-381.5 408.026,-385 418.026,-388.5 418.026,-381.5"/>
<text text-anchor="middle" x="485" y="-388" font-family="Helvetica,sans-Serif" font-size="10.00"> sensors</text>
</g>
<!-- Node27 -->
<g id="node27" class="node"><title>Node27</title>
<g id="a_node27"><a xlink:href="../../db/de9/classmars_1_1interfaces_1_1_motor_manager_interface.html" target="_top" xlink:title="&quot;MotorManagerInterface&quot; declares the interfaces for all motor operations that are used for the commun...">
<polygon fill="white" stroke="black" points="268.5,-321 268.5,-351 423.5,-351 423.5,-321 268.5,-321"/>
<text text-anchor="start" x="276.5" y="-339" font-family="Helvetica,sans-Serif" font-size="10.00">mars::interfaces::MotorManager</text>
<text text-anchor="middle" x="346" y="-328" font-family="Helvetica,sans-Serif" font-size="10.00">Interface</text>
</a>
</g>
</g>
<!-- Node27&#45;&gt;Node19 -->
<g id="edge32" class="edge"><title>Node27&#45;&gt;Node19</title>
<path fill="none" stroke="#9a32cd" stroke-dasharray="5,2" d="M433.715,-351.974C472.08,-359.041 516.316,-367.19 551.248,-373.625"/>
<polygon fill="#9a32cd" stroke="#9a32cd" points="434.05,-348.477 423.581,-350.107 432.782,-355.361 434.05,-348.477"/>
<text text-anchor="middle" x="485" y="-373" font-family="Helvetica,sans-Serif" font-size="10.00"> motors</text>
</g>
<!-- Node28 -->
<g id="node28" class="node"><title>Node28</title>
<g id="a_node28"><a xlink:href="../../d9/d6a/classmars_1_1interfaces_1_1_load_center.html" target="_top" xlink:title="mars::interfaces::LoadCenter">
<polygon fill="white" stroke="black" points="274.5,-48.5 274.5,-67.5 417.5,-67.5 417.5,-48.5 274.5,-48.5"/>
<text text-anchor="middle" x="346" y="-55.5" font-family="Helvetica,sans-Serif" font-size="10.00">mars::interfaces::LoadCenter</text>
</a>
</g>
</g>
<!-- Node28&#45;&gt;Node19 -->
<g id="edge33" class="edge"><title>Node28&#45;&gt;Node19</title>
<path fill="none" stroke="#9a32cd" stroke-dasharray="5,2" d="M423.699,-70.0844C461.26,-80.1507 503.557,-98.5273 528,-132 557.973,-173.045 515.395,-319.424 546,-360 548.916,-363.866 552.498,-367.134 556.476,-369.897"/>
<polygon fill="#9a32cd" stroke="#9a32cd" points="424.311,-66.6293 413.759,-67.58 422.601,-73.4172 424.311,-66.6293"/>
<text text-anchor="middle" x="485" y="-135" font-family="Helvetica,sans-Serif" font-size="10.00"> loadCenter</text>
</g>
<!-- Node29 -->
<g id="node29" class="node"><title>Node29</title>
<g id="a_node29"><a xlink:href="../../d1/d51/classmars_1_1interfaces_1_1_load_heightmap_interface.html" target="_top" xlink:title="mars::interfaces::LoadHeightmap\lInterface">
<polygon fill="white" stroke="black" points="0.5,-0 0.5,-30 161.5,-30 161.5,-0 0.5,-0"/>
<text text-anchor="start" x="8.5" y="-18" font-family="Helvetica,sans-Serif" font-size="10.00">mars::interfaces::LoadHeightmap</text>
<text text-anchor="middle" x="81" y="-7" font-family="Helvetica,sans-Serif" font-size="10.00">Interface</text>
</a>
</g>
</g>
<!-- Node29&#45;&gt;Node28 -->
<g id="edge34" class="edge"><title>Node29&#45;&gt;Node28</title>
<path fill="none" stroke="#9a32cd" stroke-dasharray="5,2" d="M171.664,-29.66C209.626,-35.8666 252.779,-42.9221 286.532,-48.4406"/>
<polygon fill="#9a32cd" stroke="#9a32cd" points="172.056,-26.1776 161.622,-28.0181 170.927,-33.0859 172.056,-26.1776"/>
<text text-anchor="middle" x="215" y="-45" font-family="Helvetica,sans-Serif" font-size="10.00"> loadHeightmap</text>
</g>
<!-- Node30 -->
<g id="node30" class="node"><title>Node30</title>
<g id="a_node30"><a xlink:href="../../d7/d02/classmars_1_1interfaces_1_1_load_mesh_interface.html" target="_top" xlink:title="mars::interfaces::LoadMesh\lInterface">
<polygon fill="white" stroke="black" points="12,-49 12,-79 150,-79 150,-49 12,-49"/>
<text text-anchor="start" x="20" y="-67" font-family="Helvetica,sans-Serif" font-size="10.00">mars::interfaces::LoadMesh</text>
<text text-anchor="middle" x="81" y="-56" font-family="Helvetica,sans-Serif" font-size="10.00">Interface</text>
</a>
</g>
</g>
<!-- Node30&#45;&gt;Node28 -->
<g id="edge35" class="edge"><title>Node30&#45;&gt;Node28</title>
<path fill="none" stroke="#9a32cd" stroke-dasharray="5,2" d="M160.116,-62.2179C196.387,-61.3904 239.183,-60.4141 274.462,-59.6092"/>
<polygon fill="#9a32cd" stroke="#9a32cd" points="159.989,-58.7198 150.071,-62.447 160.148,-65.718 159.989,-58.7198"/>
<text text-anchor="middle" x="215" y="-65" font-family="Helvetica,sans-Serif" font-size="10.00"> loadMesh</text>
</g>
<!-- Node31 -->
<g id="node31" class="node"><title>Node31</title>
<g id="a_node31"><a xlink:href="../../d7/d4c/classmars_1_1interfaces_1_1_node_manager_interface.html" target="_top" xlink:title="&quot;NodeManagerInterface&quot; declares the interfaces for all NodeOperations that are used for the communica...">
<polygon fill="white" stroke="black" points="269,-272 269,-302 423,-302 423,-272 269,-272"/>
<text text-anchor="start" x="277" y="-290" font-family="Helvetica,sans-Serif" font-size="10.00">mars::interfaces::NodeManager</text>
<text text-anchor="middle" x="346" y="-279" font-family="Helvetica,sans-Serif" font-size="10.00">Interface</text>
</a>
</g>
</g>
<!-- Node31&#45;&gt;Node19 -->
<g id="edge36" class="edge"><title>Node31&#45;&gt;Node19</title>
<path fill="none" stroke="#9a32cd" stroke-dasharray="5,2" d="M433.206,-301.956C464.665,-309.99 499.488,-322.068 528,-340 538.123,-346.367 536.114,-353.272 546,-360 551.543,-363.772 557.728,-367.065 564.038,-369.913"/>
<polygon fill="#9a32cd" stroke="#9a32cd" points="433.668,-298.466 423.123,-299.487 432.004,-305.265 433.668,-298.466"/>
<text text-anchor="middle" x="485" y="-343" font-family="Helvetica,sans-Serif" font-size="10.00"> nodes</text>
</g>
</g>
</svg>
