<?xml version="1.0" encoding="UTF-8" standalone="no"?>
<!DOCTYPE svg PUBLIC "-//W3C//DTD SVG 1.1//EN"
 "http://www.w3.org/Graphics/SVG/1.1/DTD/svg11.dtd">
<!-- Generated by graphviz version 2.36.0 (20140111.2315)
 -->
<!-- Title: /media/kavonszadkowski/work/marsdocs/mars/common/graphics/osg_material_manager/src/MaterialNode.h Pages: 1 -->
<svg width="784pt" height="118pt"
 viewBox="0.00 0.00 784.00 118.00" xmlns="http://www.w3.org/2000/svg" xmlns:xlink="http://www.w3.org/1999/xlink">
<g id="graph0" class="graph" transform="scale(1 1) rotate(0) translate(4 114)">
<title>/media/kavonszadkowski/work/marsdocs/mars/common/graphics/osg_material_manager/src/MaterialNode.h</title>
<polygon fill="white" stroke="none" points="-4,4 -4,-114 780,-114 780,4 -4,4"/>
<!-- Node1 -->
<g id="node1" class="node"><title>Node1</title>
<polygon fill="#bfbfbf" stroke="black" points="330,-57 330,-109 488,-109 488,-57 330,-57"/>
<text text-anchor="start" x="338" y="-97" font-family="Helvetica,sans-Serif" font-size="10.00">/media/kavonszadkowski</text>
<text text-anchor="start" x="338" y="-86" font-family="Helvetica,sans-Serif" font-size="10.00">/work/marsdocs/mars/common</text>
<text text-anchor="start" x="338" y="-75" font-family="Helvetica,sans-Serif" font-size="10.00">/graphics/osg_material_manager</text>
<text text-anchor="middle" x="409" y="-64" font-family="Helvetica,sans-Serif" font-size="10.00">/src/MaterialNode.h</text>
</g>
<!-- Node2 -->
<g id="node2" class="node"><title>Node2</title>
<polygon fill="white" stroke="#bfbfbf" points="-0.5,-0.5 -0.5,-19.5 98.5,-19.5 98.5,-0.5 -0.5,-0.5"/>
<text text-anchor="middle" x="49" y="-7.5" font-family="Helvetica,sans-Serif" font-size="10.00">mars/utils/Vector.h</text>
</g>
<!-- Node1&#45;&gt;Node2 -->
<g id="edge1" class="edge"><title>Node1&#45;&gt;Node2</title>
<path fill="none" stroke="midnightblue" d="M329.996,-66.4187C260.929,-52.7972 162.53,-33.3907 102.372,-21.5261"/>
<polygon fill="midnightblue" stroke="midnightblue" points="102.816,-18.0464 92.3279,-19.5452 101.462,-24.9141 102.816,-18.0464"/>
</g>
<!-- Node3 -->
<g id="node3" class="node"><title>Node3</title>
<polygon fill="white" stroke="#bfbfbf" points="116.5,-0.5 116.5,-19.5 253.5,-19.5 253.5,-0.5 116.5,-0.5"/>
<text text-anchor="middle" x="185" y="-7.5" font-family="Helvetica,sans-Serif" font-size="10.00">mars/interfaces/LightData.h</text>
</g>
<!-- Node1&#45;&gt;Node3 -->
<g id="edge2" class="edge"><title>Node1&#45;&gt;Node3</title>
<path fill="none" stroke="midnightblue" d="M330.026,-56.9681C293.182,-45.2897 251.1,-31.9514 221.792,-22.6617"/>
<polygon fill="midnightblue" stroke="midnightblue" points="222.578,-19.2392 211.987,-19.5541 220.462,-25.912 222.578,-19.2392"/>
</g>
<!-- Node4 -->
<g id="node4" class="node"><title>Node4</title>
<polygon fill="white" stroke="#bfbfbf" points="272,-0.5 272,-19.5 316,-19.5 316,-0.5 272,-0.5"/>
<text text-anchor="middle" x="294" y="-7.5" font-family="Helvetica,sans-Serif" font-size="10.00">vector</text>
</g>
<!-- Node1&#45;&gt;Node4 -->
<g id="edge3" class="edge"><title>Node1&#45;&gt;Node4</title>
<path fill="none" stroke="midnightblue" d="M368.455,-56.9681C351.162,-46.2914 331.622,-34.2274 316.899,-25.1379"/>
<polygon fill="midnightblue" stroke="midnightblue" points="318.34,-21.9141 307.993,-19.6389 314.663,-27.8704 318.34,-21.9141"/>
</g>
<!-- Node5 -->
<g id="node5" class="node"><title>Node5</title>
<polygon fill="white" stroke="#bfbfbf" points="334,-0.5 334,-19.5 396,-19.5 396,-0.5 334,-0.5"/>
<text text-anchor="middle" x="365" y="-7.5" font-family="Helvetica,sans-Serif" font-size="10.00">osg/Group</text>
</g>
<!-- Node1&#45;&gt;Node5 -->
<g id="edge4" class="edge"><title>Node1&#45;&gt;Node5</title>
<path fill="none" stroke="midnightblue" d="M393.363,-56.7681C387.549,-47.3853 381.085,-36.9553 375.798,-28.4245"/>
<polygon fill="midnightblue" stroke="midnightblue" points="378.67,-26.4136 370.427,-19.7572 372.72,-30.101 378.67,-26.4136"/>
</g>
<!-- Node6 -->
<g id="node6" class="node"><title>Node6</title>
<polygon fill="white" stroke="#bfbfbf" points="414,-0.5 414,-19.5 492,-19.5 492,-0.5 414,-0.5"/>
<text text-anchor="middle" x="453" y="-7.5" font-family="Helvetica,sans-Serif" font-size="10.00">osg/Geometry</text>
</g>
<!-- Node1&#45;&gt;Node6 -->
<g id="edge5" class="edge"><title>Node1&#45;&gt;Node6</title>
<path fill="none" stroke="midnightblue" d="M424.637,-56.7681C430.451,-47.3853 436.915,-36.9553 442.202,-28.4245"/>
<polygon fill="midnightblue" stroke="midnightblue" points="445.28,-30.101 447.573,-19.7572 439.33,-26.4136 445.28,-30.101"/>
</g>
<!-- Node7 -->
<g id="node7" class="node"><title>Node7</title>
<polygon fill="white" stroke="#bfbfbf" points="510,-0.5 510,-19.5 608,-19.5 608,-0.5 510,-0.5"/>
<text text-anchor="middle" x="559" y="-7.5" font-family="Helvetica,sans-Serif" font-size="10.00">osg/BlendEquation</text>
</g>
<!-- Node1&#45;&gt;Node7 -->
<g id="edge6" class="edge"><title>Node1&#45;&gt;Node7</title>
<path fill="none" stroke="midnightblue" d="M461.884,-56.9681C485.407,-45.8338 512.118,-33.1908 531.565,-23.986"/>
<polygon fill="midnightblue" stroke="midnightblue" points="533.208,-27.0807 540.749,-19.6389 530.213,-20.7537 533.208,-27.0807"/>
</g>
<!-- Node8 -->
<g id="node8" class="node"><title>Node8</title>
<polygon fill="white" stroke="#bfbfbf" points="626,-0.5 626,-19.5 696,-19.5 696,-0.5 626,-0.5"/>
<text text-anchor="middle" x="661" y="-7.5" font-family="Helvetica,sans-Serif" font-size="10.00">osg/Uniform</text>
</g>
<!-- Node1&#45;&gt;Node8 -->
<g id="edge7" class="edge"><title>Node1&#45;&gt;Node8</title>
<path fill="none" stroke="midnightblue" d="M488.043,-59.73C532.053,-47.3302 584.983,-32.4175 620.601,-22.3823"/>
<polygon fill="midnightblue" stroke="midnightblue" points="621.942,-25.6409 630.618,-19.5601 620.043,-18.9032 621.942,-25.6409"/>
</g>
<!-- Node9 -->
<g id="node9" class="node"><title>Node9</title>
<polygon fill="white" stroke="#bfbfbf" points="714,-0.5 714,-19.5 776,-19.5 776,-0.5 714,-0.5"/>
<text text-anchor="middle" x="745" y="-7.5" font-family="Helvetica,sans-Serif" font-size="10.00">osg/Depth</text>
</g>
<!-- Node1&#45;&gt;Node9 -->
<g id="edge8" class="edge"><title>Node1&#45;&gt;Node9</title>
<path fill="none" stroke="midnightblue" d="M488.217,-65.7399C545.422,-53.9207 624.8,-37.3623 703.477,-20.3092"/>
<polygon fill="midnightblue" stroke="midnightblue" points="704.537,-23.6607 713.567,-18.1187 703.052,-16.8201 704.537,-23.6607"/>
</g>
</g>
</svg>
