<?xml version="1.0" encoding="UTF-8" standalone="no"?>
<!DOCTYPE svg PUBLIC "-//W3C//DTD SVG 1.1//EN"
 "http://www.w3.org/Graphics/SVG/1.1/DTD/svg11.dtd">
<!-- Generated by graphviz version 2.26.3 (20100126.1600)
 -->
<!-- Title: /home/kavonszadkowski/limes&#45;dev/simulation/mars/viz/src/Viz.h Pages: 1 -->
<svg width="274pt" height="140pt"
 viewBox="0.00 0.00 274.00 140.00" xmlns="http://www.w3.org/2000/svg" xmlns:xlink="http://www.w3.org/1999/xlink">
<g id="graph1" class="graph" transform="scale(1 1) rotate(0) translate(4 136)">
<title>/home/kavonszadkowski/limes&#45;dev/simulation/mars/viz/src/Viz.h</title>
<polygon fill="white" stroke="white" points="-4,5 -4,-136 271,-136 271,5 -4,5"/>
<!-- Node1 -->
<g id="node1" class="node"><title>Node1</title>
<polygon fill="#bfbfbf" stroke="black" points="70.5,-84.5 70.5,-131.5 195.5,-131.5 195.5,-84.5 70.5,-84.5"/>
<text text-anchor="start" x="78.5" y="-118.5" font-family="Helvetica,sans-Serif" font-size="10.00">/home/kavonszadkowski</text>
<text text-anchor="start" x="78.5" y="-105.5" font-family="Helvetica,sans-Serif" font-size="10.00">/limes&#45;dev/simulation</text>
<text text-anchor="middle" x="133" y="-92.5" font-family="Helvetica,sans-Serif" font-size="10.00">/mars/viz/src/Viz.h</text>
</g>
<!-- Node2 -->
<g id="node3" class="node"><title>Node2</title>
<a xlink:href="../../d4/d55/viz_2src_2main_8cpp.html" target="_top" xlink:title="/home/kavonszadkowski\l/limes&#45;dev/simulation\l/mars/viz/src/main.cpp">
<polygon fill="white" stroke="black" points="-0.5,-0.5 -0.5,-47.5 124.5,-47.5 124.5,-0.5 -0.5,-0.5"/>
<text text-anchor="start" x="7.5" y="-34.5" font-family="Helvetica,sans-Serif" font-size="10.00">/home/kavonszadkowski</text>
<text text-anchor="start" x="7.5" y="-21.5" font-family="Helvetica,sans-Serif" font-size="10.00">/limes&#45;dev/simulation</text>
<text text-anchor="middle" x="62" y="-8.5" font-family="Helvetica,sans-Serif" font-size="10.00">/mars/viz/src/main.cpp</text>
</a>
</g>
<!-- Node1&#45;&gt;Node2 -->
<g id="edge2" class="edge"><title>Node1&#45;&gt;Node2</title>
<path fill="none" stroke="midnightblue" d="M106.264,-76.3687C98.2033,-66.8321 89.4994,-56.5345 81.9605,-47.6152"/>
<polygon fill="midnightblue" stroke="midnightblue" points="103.716,-78.7757 112.844,-84.1537 109.062,-74.2569 103.716,-78.7757"/>
</g>
<!-- Node3 -->
<g id="node5" class="node"><title>Node3</title>
<a xlink:href="../../d1/d8b/_viz_8cpp.html" target="_top" xlink:title="/home/kavonszadkowski\l/limes&#45;dev/simulation\l/mars/viz/src/Viz.cpp">
<polygon fill="white" stroke="black" points="141.5,-0.5 141.5,-47.5 266.5,-47.5 266.5,-0.5 141.5,-0.5"/>
<text text-anchor="start" x="149.5" y="-34.5" font-family="Helvetica,sans-Serif" font-size="10.00">/home/kavonszadkowski</text>
<text text-anchor="start" x="149.5" y="-21.5" font-family="Helvetica,sans-Serif" font-size="10.00">/limes&#45;dev/simulation</text>
<text text-anchor="middle" x="204" y="-8.5" font-family="Helvetica,sans-Serif" font-size="10.00">/mars/viz/src/Viz.cpp</text>
</a>
</g>
<!-- Node1&#45;&gt;Node3 -->
<g id="edge4" class="edge"><title>Node1&#45;&gt;Node3</title>
<path fill="none" stroke="midnightblue" d="M159.736,-76.3687C167.797,-66.8321 176.501,-56.5345 184.04,-47.6152"/>
<polygon fill="midnightblue" stroke="midnightblue" points="156.938,-74.2569 153.156,-84.1537 162.284,-78.7757 156.938,-74.2569"/>
</g>
</g>
</svg>
