<?xml version="1.0" encoding="UTF-8" standalone="no"?>
<!DOCTYPE svg PUBLIC "-//W3C//DTD SVG 1.1//EN"
 "http://www.w3.org/Graphics/SVG/1.1/DTD/svg11.dtd">
<!-- Generated by graphviz version 2.36.0 (20140111.2315)
 -->
<!-- Title: /media/kavonszadkowski/work/marsdocs/mars/common/graphics/osg_material_manager/src/shader/pixellight.cpp Pages: 1 -->
<svg width="424pt" height="286pt"
 viewBox="0.00 0.00 424.04 286.00" xmlns="http://www.w3.org/2000/svg" xmlns:xlink="http://www.w3.org/1999/xlink">
<g id="graph0" class="graph" transform="scale(1 1) rotate(0) translate(4 282)">
<title>/media/kavonszadkowski/work/marsdocs/mars/common/graphics/osg_material_manager/src/shader/pixellight.cpp</title>
<polygon fill="white" stroke="none" points="-4,4 -4,-282 420.04,-282 420.04,4 -4,4"/>
<!-- Node1 -->
<g id="node1" class="node"><title>Node1</title>
<polygon fill="#bfbfbf" stroke="black" points="206.04,-225 206.04,-277 364.04,-277 364.04,-225 206.04,-225"/>
<text text-anchor="start" x="214.04" y="-265" font-family="Helvetica,sans-Serif" font-size="10.00">/media/kavonszadkowski</text>
<text text-anchor="start" x="214.04" y="-254" font-family="Helvetica,sans-Serif" font-size="10.00">/work/marsdocs/mars/common</text>
<text text-anchor="start" x="214.04" y="-243" font-family="Helvetica,sans-Serif" font-size="10.00">/graphics/osg_material_manager</text>
<text text-anchor="middle" x="285.04" y="-232" font-family="Helvetica,sans-Serif" font-size="10.00">/src/shader/pixellight.cpp</text>
</g>
<!-- Node2 -->
<g id="node2" class="node"><title>Node2</title>
<g id="a_node2"><a xlink:href="../../d0/d27/pixellight_8h.html" target="_top" xlink:title="pixellight.h">
<polygon fill="white" stroke="black" points="142.54,-168.5 142.54,-187.5 205.54,-187.5 205.54,-168.5 142.54,-168.5"/>
<text text-anchor="middle" x="174.04" y="-175.5" font-family="Helvetica,sans-Serif" font-size="10.00">pixellight.h</text>
</a>
</g>
</g>
<!-- Node1&#45;&gt;Node2 -->
<g id="edge1" class="edge"><title>Node1&#45;&gt;Node2</title>
<path fill="none" stroke="midnightblue" d="M245.905,-224.968C229.214,-214.291 210.353,-202.227 196.143,-193.138"/>
<polygon fill="midnightblue" stroke="midnightblue" points="197.856,-190.079 187.546,-187.639 194.084,-195.976 197.856,-190.079"/>
</g>
<!-- Node12 -->
<g id="node12" class="node"><title>Node12</title>
<polygon fill="white" stroke="#bfbfbf" points="224.04,-168.5 224.04,-187.5 276.04,-187.5 276.04,-168.5 224.04,-168.5"/>
<text text-anchor="middle" x="250.04" y="-175.5" font-family="Helvetica,sans-Serif" font-size="10.00">sstream</text>
</g>
<!-- Node1&#45;&gt;Node12 -->
<g id="edge14" class="edge"><title>Node1&#45;&gt;Node12</title>
<path fill="none" stroke="midnightblue" d="M272.602,-224.768C268.076,-215.587 263.056,-205.403 258.902,-196.978"/>
<polygon fill="midnightblue" stroke="midnightblue" points="261.918,-195.179 254.357,-187.757 255.639,-198.274 261.918,-195.179"/>
</g>
<!-- Node13 -->
<g id="node13" class="node"><title>Node13</title>
<polygon fill="white" stroke="#bfbfbf" points="294.04,-168.5 294.04,-187.5 348.04,-187.5 348.04,-168.5 294.04,-168.5"/>
<text text-anchor="middle" x="321.04" y="-175.5" font-family="Helvetica,sans-Serif" font-size="10.00">iostream</text>
</g>
<!-- Node1&#45;&gt;Node13 -->
<g id="edge15" class="edge"><title>Node1&#45;&gt;Node13</title>
<path fill="none" stroke="midnightblue" d="M297.833,-224.768C302.54,-215.486 307.766,-205.179 312.065,-196.7"/>
<polygon fill="midnightblue" stroke="midnightblue" points="315.199,-198.259 316.6,-187.757 308.956,-195.093 315.199,-198.259"/>
</g>
<!-- Node14 -->
<g id="node14" class="node"><title>Node14</title>
<polygon fill="white" stroke="#bfbfbf" points="366.04,-168.5 366.04,-187.5 416.04,-187.5 416.04,-168.5 366.04,-168.5"/>
<text text-anchor="middle" x="391.04" y="-175.5" font-family="Helvetica,sans-Serif" font-size="10.00">fstream</text>
</g>
<!-- Node1&#45;&gt;Node14 -->
<g id="edge16" class="edge"><title>Node1&#45;&gt;Node14</title>
<path fill="none" stroke="midnightblue" d="M322.411,-224.968C338.2,-214.393 356.019,-202.457 369.544,-193.398"/>
<polygon fill="midnightblue" stroke="midnightblue" points="371.782,-196.112 378.142,-187.639 367.886,-190.296 371.782,-196.112"/>
</g>
<!-- Node3 -->
<g id="node3" class="node"><title>Node3</title>
<g id="a_node3"><a xlink:href="../../dc/d90/shader-function_8h.html" target="_top" xlink:title="shader&#45;function.h">
<polygon fill="white" stroke="black" points="128.04,-112.5 128.04,-131.5 220.04,-131.5 220.04,-112.5 128.04,-112.5"/>
<text text-anchor="middle" x="174.04" y="-119.5" font-family="Helvetica,sans-Serif" font-size="10.00">shader&#45;function.h</text>
</a>
</g>
</g>
<!-- Node2&#45;&gt;Node3 -->
<g id="edge2" class="edge"><title>Node2&#45;&gt;Node3</title>
<path fill="none" stroke="midnightblue" d="M174.04,-168.083C174.04,-161.006 174.04,-150.861 174.04,-141.986"/>
<polygon fill="midnightblue" stroke="midnightblue" points="177.54,-141.751 174.04,-131.751 170.54,-141.751 177.54,-141.751"/>
</g>
<!-- Node8 -->
<g id="node8" class="node"><title>Node8</title>
<polygon fill="white" stroke="#bfbfbf" points="103.54,-0.5 103.54,-19.5 144.54,-19.5 144.54,-0.5 103.54,-0.5"/>
<text text-anchor="middle" x="124.04" y="-7.5" font-family="Helvetica,sans-Serif" font-size="10.00">string</text>
</g>
<!-- Node2&#45;&gt;Node8 -->
<g id="edge13" class="edge"><title>Node2&#45;&gt;Node8</title>
<path fill="none" stroke="midnightblue" d="M142.329,-168.639C101.893,-156.079 33.6682,-128.066 4.03985,-76 -17.0797,-38.8868 51.0131,-21.8137 93.173,-14.9584"/>
<polygon fill="midnightblue" stroke="midnightblue" points="93.8999,-18.3882 103.263,-13.4296 92.8513,-11.4672 93.8999,-18.3882"/>
</g>
<!-- Node9 -->
<g id="node9" class="node"><title>Node9</title>
<polygon fill="white" stroke="#bfbfbf" points="362.04,-56.5 362.04,-75.5 406.04,-75.5 406.04,-56.5 362.04,-56.5"/>
<text text-anchor="middle" x="384.04" y="-63.5" font-family="Helvetica,sans-Serif" font-size="10.00">vector</text>
</g>
<!-- Node2&#45;&gt;Node9 -->
<g id="edge12" class="edge"><title>Node2&#45;&gt;Node9</title>
<path fill="none" stroke="midnightblue" d="M190.518,-168.368C227.014,-149.251 314.875,-103.229 358.533,-80.361"/>
<polygon fill="midnightblue" stroke="midnightblue" points="360.404,-83.332 367.638,-75.5914 357.156,-77.1311 360.404,-83.332"/>
</g>
<!-- Node4 -->
<g id="node4" class="node"><title>Node4</title>
<polygon fill="white" stroke="#bfbfbf" points="152.54,-56.5 152.54,-75.5 195.54,-75.5 195.54,-56.5 152.54,-56.5"/>
<text text-anchor="middle" x="174.04" y="-63.5" font-family="Helvetica,sans-Serif" font-size="10.00">cstdio</text>
</g>
<!-- Node3&#45;&gt;Node4 -->
<g id="edge3" class="edge"><title>Node3&#45;&gt;Node4</title>
<path fill="none" stroke="midnightblue" d="M174.04,-112.083C174.04,-105.006 174.04,-94.8611 174.04,-85.9865"/>
<polygon fill="midnightblue" stroke="midnightblue" points="177.54,-85.751 174.04,-75.7511 170.54,-85.7511 177.54,-85.751"/>
</g>
<!-- Node5 -->
<g id="node5" class="node"><title>Node5</title>
<polygon fill="white" stroke="#bfbfbf" points="214.04,-56.5 214.04,-75.5 244.04,-75.5 244.04,-56.5 214.04,-56.5"/>
<text text-anchor="middle" x="229.04" y="-63.5" font-family="Helvetica,sans-Serif" font-size="10.00">set</text>
</g>
<!-- Node3&#45;&gt;Node5 -->
<g id="edge4" class="edge"><title>Node3&#45;&gt;Node5</title>
<path fill="none" stroke="midnightblue" d="M183.122,-112.083C191.211,-104.141 203.235,-92.3354 212.95,-82.7973"/>
<polygon fill="midnightblue" stroke="midnightblue" points="215.443,-85.2545 220.127,-75.7511 210.539,-80.2595 215.443,-85.2545"/>
</g>
<!-- Node6 -->
<g id="node6" class="node"><title>Node6</title>
<polygon fill="white" stroke="#bfbfbf" points="13.5399,-56.5 13.5399,-75.5 42.5399,-75.5 42.5399,-56.5 13.5399,-56.5"/>
<text text-anchor="middle" x="28.0399" y="-63.5" font-family="Helvetica,sans-Serif" font-size="10.00">list</text>
</g>
<!-- Node3&#45;&gt;Node6 -->
<g id="edge5" class="edge"><title>Node3&#45;&gt;Node6</title>
<path fill="none" stroke="midnightblue" d="M149.941,-112.363C126.944,-104.081 91.1065,-91.0756 52.0675,-76.3385"/>
<polygon fill="midnightblue" stroke="midnightblue" points="53.2131,-73.0298 42.6216,-72.7623 50.7345,-79.5763 53.2131,-73.0298"/>
</g>
<!-- Node7 -->
<g id="node7" class="node"><title>Node7</title>
<polygon fill="white" stroke="#bfbfbf" points="60.5399,-56.5 60.5399,-75.5 95.5399,-75.5 95.5399,-56.5 60.5399,-56.5"/>
<text text-anchor="middle" x="78.0399" y="-63.5" font-family="Helvetica,sans-Serif" font-size="10.00">map</text>
</g>
<!-- Node3&#45;&gt;Node7 -->
<g id="edge6" class="edge"><title>Node3&#45;&gt;Node7</title>
<path fill="none" stroke="midnightblue" d="M158.616,-112.324C143.5,-103.822 120.224,-90.7288 102.569,-80.7975"/>
<polygon fill="midnightblue" stroke="midnightblue" points="103.857,-77.5066 93.4256,-75.6545 100.425,-83.6077 103.857,-77.5066"/>
</g>
<!-- Node3&#45;&gt;Node8 -->
<g id="edge7" class="edge"><title>Node3&#45;&gt;Node8</title>
<path fill="none" stroke="midnightblue" d="M166.719,-112.217C159.776,-103.506 149.476,-89.5371 143.04,-76 135.941,-61.0685 130.908,-42.9276 127.813,-29.6088"/>
<polygon fill="midnightblue" stroke="midnightblue" points="131.21,-28.7601 125.667,-19.7314 124.37,-30.2466 131.21,-28.7601"/>
</g>
<!-- Node3&#45;&gt;Node9 -->
<g id="edge8" class="edge"><title>Node3&#45;&gt;Node9</title>
<path fill="none" stroke="midnightblue" d="M208.9,-112.477C244.837,-103.623 302.458,-89.2374 352.04,-76 352.141,-75.973 352.242,-75.946 352.344,-75.9189"/>
<polygon fill="midnightblue" stroke="midnightblue" points="353.303,-79.2852 362.027,-73.2739 351.458,-72.5325 353.303,-79.2852"/>
</g>
<!-- Node10 -->
<g id="node10" class="node"><title>Node10</title>
<g id="a_node10"><a xlink:href="../../d0/d54/shader-types_8h.html" target="_top" xlink:title="shader&#45;types.h">
<polygon fill="white" stroke="black" points="262.54,-56.5 262.54,-75.5 343.54,-75.5 343.54,-56.5 262.54,-56.5"/>
<text text-anchor="middle" x="303.04" y="-63.5" font-family="Helvetica,sans-Serif" font-size="10.00">shader&#45;types.h</text>
</a>
</g>
</g>
<!-- Node3&#45;&gt;Node10 -->
<g id="edge9" class="edge"><title>Node3&#45;&gt;Node10</title>
<path fill="none" stroke="midnightblue" d="M194.48,-112.444C215.71,-103.557 249.139,-89.5632 273.295,-79.4514"/>
<polygon fill="midnightblue" stroke="midnightblue" points="274.822,-82.6064 282.695,-75.5164 272.119,-76.1493 274.822,-82.6064"/>
</g>
<!-- Node10&#45;&gt;Node8 -->
<g id="edge10" class="edge"><title>Node10&#45;&gt;Node8</title>
<path fill="none" stroke="midnightblue" d="M274.677,-56.4435C241.89,-46.5524 188.134,-30.3357 154.488,-20.1854"/>
<polygon fill="midnightblue" stroke="midnightblue" points="155.321,-16.7812 144.737,-17.2437 153.3,-23.4828 155.321,-16.7812"/>
</g>
<!-- Node11 -->
<g id="node11" class="node"><title>Node11</title>
<polygon fill="white" stroke="#bfbfbf" points="277.04,-0.5 277.04,-19.5 329.04,-19.5 329.04,-0.5 277.04,-0.5"/>
<text text-anchor="middle" x="303.04" y="-7.5" font-family="Helvetica,sans-Serif" font-size="10.00">ostream</text>
</g>
<!-- Node10&#45;&gt;Node11 -->
<g id="edge11" class="edge"><title>Node10&#45;&gt;Node11</title>
<path fill="none" stroke="midnightblue" d="M303.04,-56.083C303.04,-49.0059 303.04,-38.8611 303.04,-29.9865"/>
<polygon fill="midnightblue" stroke="midnightblue" points="306.54,-29.751 303.04,-19.7511 299.54,-29.7511 306.54,-29.751"/>
</g>
</g>
</svg>
