<?xml version="1.0" encoding="UTF-8" standalone="no"?>
<!DOCTYPE svg PUBLIC "-//W3C//DTD SVG 1.1//EN"
 "http://www.w3.org/Graphics/SVG/1.1/DTD/svg11.dtd">
<!-- Generated by graphviz version 2.26.3 (20100126.1600)
 -->
<!-- Title: /home/kavonszadkowski/limes&#45;dev/simulation/mars/sim/src/sensors/JointPositionSensor.cpp Pages: 1 -->
<svg width="828pt" height="330pt"
 viewBox="0.00 0.00 828.00 330.00" xmlns="http://www.w3.org/2000/svg" xmlns:xlink="http://www.w3.org/1999/xlink">
<g id="graph1" class="graph" transform="scale(1 1) rotate(0) translate(4 326)">
<title>/home/kavonszadkowski/limes&#45;dev/simulation/mars/sim/src/sensors/JointPositionSensor.cpp</title>
<polygon fill="white" stroke="white" points="-4,5 -4,-326 825,-326 825,5 -4,5"/>
<!-- Node1 -->
<g id="node1" class="node"><title>Node1</title>
<polygon fill="#bfbfbf" stroke="black" points="235.5,-261 235.5,-321 360.5,-321 360.5,-261 235.5,-261"/>
<text text-anchor="start" x="243.5" y="-308" font-family="Helvetica,sans-Serif" font-size="10.00">/home/kavonszadkowski</text>
<text text-anchor="start" x="243.5" y="-295" font-family="Helvetica,sans-Serif" font-size="10.00">/limes&#45;dev/simulation</text>
<text text-anchor="start" x="243.5" y="-282" font-family="Helvetica,sans-Serif" font-size="10.00">/mars/sim/src/sensors</text>
<text text-anchor="middle" x="298" y="-269" font-family="Helvetica,sans-Serif" font-size="10.00">/JointPositionSensor.cpp</text>
</g>
<!-- Node2 -->
<g id="node3" class="node"><title>Node2</title>
<a xlink:href="../../db/dde/_joint_position_sensor_8h.html" target="_top" xlink:title="JointPositionSensor.h">
<polygon fill="white" stroke="black" points="195,-202.5 195,-223.5 307,-223.5 307,-202.5 195,-202.5"/>
<text text-anchor="middle" x="251" y="-210.5" font-family="Helvetica,sans-Serif" font-size="10.00">JointPositionSensor.h</text>
</a>
</g>
<!-- Node1&#45;&gt;Node2 -->
<g id="edge2" class="edge"><title>Node1&#45;&gt;Node2</title>
<path fill="none" stroke="midnightblue" d="M279.694,-260.62C274.001,-251.172 267.88,-241.013 262.759,-232.516"/>
<polygon fill="midnightblue" stroke="midnightblue" points="265.639,-230.512 257.48,-223.753 259.643,-234.125 265.639,-230.512"/>
</g>
<!-- Node13 -->
<g id="node26" class="node"><title>Node13</title>
<polygon fill="white" stroke="#bfbfbf" points="324.5,-202.5 324.5,-223.5 367.5,-223.5 367.5,-202.5 324.5,-202.5"/>
<text text-anchor="middle" x="346" y="-210.5" font-family="Helvetica,sans-Serif" font-size="10.00">cstdio</text>
</g>
<!-- Node1&#45;&gt;Node13 -->
<g id="edge26" class="edge"><title>Node1&#45;&gt;Node13</title>
<path fill="none" stroke="midnightblue" d="M316.695,-260.62C322.51,-251.172 328.761,-241.013 333.99,-232.516"/>
<polygon fill="midnightblue" stroke="midnightblue" points="337.122,-234.104 339.382,-223.753 331.161,-230.436 337.122,-234.104"/>
</g>
<!-- Node3 -->
<g id="node5" class="node"><title>Node3</title>
<a xlink:href="../../d9/de3/_joint_array_sensor_8h.html" target="_top" xlink:title="JointArraySensor.h">
<polygon fill="white" stroke="black" points="201,-144.5 201,-165.5 301,-165.5 301,-144.5 201,-144.5"/>
<text text-anchor="middle" x="251" y="-152.5" font-family="Helvetica,sans-Serif" font-size="10.00">JointArraySensor.h</text>
</a>
</g>
<!-- Node2&#45;&gt;Node3 -->
<g id="edge4" class="edge"><title>Node2&#45;&gt;Node3</title>
<path fill="none" stroke="midnightblue" d="M251,-202.362C251,-194.922 251,-184.743 251,-175.728"/>
<polygon fill="midnightblue" stroke="midnightblue" points="254.5,-175.571 251,-165.571 247.5,-175.571 254.5,-175.571"/>
</g>
<!-- Node4 -->
<g id="node7" class="node"><title>Node4</title>
<polygon fill="white" stroke="#bfbfbf" points="0,-79.5 0,-100.5 128,-100.5 128,-79.5 0,-79.5"/>
<text text-anchor="middle" x="64" y="-87.5" font-family="Helvetica,sans-Serif" font-size="10.00">configmaps/ConfigData.h</text>
</g>
<!-- Node3&#45;&gt;Node4 -->
<g id="edge6" class="edge"><title>Node3&#45;&gt;Node4</title>
<path fill="none" stroke="midnightblue" d="M220.539,-144.412C188.889,-133.411 139.202,-116.14 104.315,-104.013"/>
<polygon fill="midnightblue" stroke="midnightblue" points="105.043,-100.561 94.4479,-100.584 102.744,-107.173 105.043,-100.561"/>
</g>
<!-- Node5 -->
<g id="node9" class="node"><title>Node5</title>
<polygon fill="white" stroke="#bfbfbf" points="132.5,-1 132.5,-35 235.5,-35 235.5,-1 132.5,-1"/>
<text text-anchor="start" x="140.5" y="-22" font-family="Helvetica,sans-Serif" font-size="10.00">mars/interfaces/sim</text>
<text text-anchor="middle" x="184" y="-9" font-family="Helvetica,sans-Serif" font-size="10.00">/SensorInterface.h</text>
</g>
<!-- Node3&#45;&gt;Node5 -->
<g id="edge8" class="edge"><title>Node3&#45;&gt;Node5</title>
<path fill="none" stroke="midnightblue" d="M219.862,-144.334C203.371,-136.911 184.592,-125.21 175,-108 164.292,-88.7885 167.996,-63.6584 173.546,-44.8369"/>
<polygon fill="midnightblue" stroke="midnightblue" points="176.946,-45.6999 176.74,-35.1071 170.295,-43.5168 176.946,-45.6999"/>
</g>
<!-- Node6 -->
<g id="node11" class="node"><title>Node6</title>
<polygon fill="white" stroke="#bfbfbf" points="184,-73 184,-107 318,-107 318,-73 184,-73"/>
<text text-anchor="start" x="192" y="-94" font-family="Helvetica,sans-Serif" font-size="10.00">mars/data_broker/Receiver</text>
<text text-anchor="middle" x="251" y="-81" font-family="Helvetica,sans-Serif" font-size="10.00">Interface.h</text>
</g>
<!-- Node3&#45;&gt;Node6 -->
<g id="edge10" class="edge"><title>Node3&#45;&gt;Node6</title>
<path fill="none" stroke="midnightblue" d="M251,-144.267C251,-136.931 251,-126.857 251,-117.38"/>
<polygon fill="midnightblue" stroke="midnightblue" points="254.5,-117.11 251,-107.11 247.5,-117.11 254.5,-117.11"/>
</g>
<!-- Node7 -->
<g id="node13" class="node"><title>Node7</title>
<polygon fill="white" stroke="#bfbfbf" points="335.5,-79.5 335.5,-100.5 498.5,-100.5 498.5,-79.5 335.5,-79.5"/>
<text text-anchor="middle" x="417" y="-87.5" font-family="Helvetica,sans-Serif" font-size="10.00">mars/data_broker/DataPackage.h</text>
</g>
<!-- Node3&#45;&gt;Node7 -->
<g id="edge12" class="edge"><title>Node3&#45;&gt;Node7</title>
<path fill="none" stroke="midnightblue" d="M278.04,-144.412C305.894,-133.505 349.487,-116.436 380.412,-104.327"/>
<polygon fill="midnightblue" stroke="midnightblue" points="381.936,-107.489 389.971,-100.584 379.384,-100.971 381.936,-107.489"/>
</g>
<!-- Node8 -->
<g id="node15" class="node"><title>Node8</title>
<a xlink:href="../../d5/df7/_i_d_list_config_8h.html" target="_top" xlink:title="IDListConfig.h">
<polygon fill="white" stroke="black" points="516,-79.5 516,-100.5 596,-100.5 596,-79.5 516,-79.5"/>
<text text-anchor="middle" x="556" y="-87.5" font-family="Helvetica,sans-Serif" font-size="10.00">IDListConfig.h</text>
</a>
</g>
<!-- Node3&#45;&gt;Node8 -->
<g id="edge14" class="edge"><title>Node3&#45;&gt;Node8</title>
<path fill="none" stroke="midnightblue" d="M301.12,-148.38C353.145,-140.91 436.605,-127.241 507,-108 511.346,-106.812 515.853,-105.407 520.293,-103.913"/>
<polygon fill="midnightblue" stroke="midnightblue" points="521.554,-107.179 529.82,-100.552 519.225,-100.578 521.554,-107.179"/>
</g>
<!-- Node8&#45;&gt;Node5 -->
<g id="edge24" class="edge"><title>Node8&#45;&gt;Node5</title>
<path fill="none" stroke="midnightblue" d="M530.096,-79.4623C522.723,-76.7435 514.622,-74.0182 507,-72 482.251,-65.4469 332.432,-41.3832 245.79,-27.6935"/>
<polygon fill="midnightblue" stroke="midnightblue" points="246.23,-24.2198 235.807,-26.1179 245.139,-31.1342 246.23,-24.2198"/>
</g>
<!-- Node9 -->
<g id="node17" class="node"><title>Node9</title>
<polygon fill="white" stroke="#bfbfbf" points="310,-7.5 310,-28.5 456,-28.5 456,-7.5 310,-7.5"/>
<text text-anchor="middle" x="383" y="-15.5" font-family="Helvetica,sans-Serif" font-size="10.00">mars/interfaces/MARSDefs.h</text>
</g>
<!-- Node8&#45;&gt;Node9 -->
<g id="edge16" class="edge"><title>Node8&#45;&gt;Node9</title>
<path fill="none" stroke="midnightblue" d="M530.473,-79.3762C500.618,-66.9508 451.045,-46.3194 417.712,-32.4465"/>
<polygon fill="midnightblue" stroke="midnightblue" points="418.927,-29.1612 408.35,-28.5501 416.237,-35.6239 418.927,-29.1612"/>
</g>
<!-- Node10 -->
<g id="node19" class="node"><title>Node10</title>
<polygon fill="white" stroke="#bfbfbf" points="473.5,-1 473.5,-35 580.5,-35 580.5,-1 473.5,-1"/>
<text text-anchor="start" x="481.5" y="-22" font-family="Helvetica,sans-Serif" font-size="10.00">mars/interfaces/sim</text>
<text text-anchor="middle" x="527" y="-9" font-family="Helvetica,sans-Serif" font-size="10.00">/SimulatorInterface.h</text>
</g>
<!-- Node8&#45;&gt;Node10 -->
<g id="edge18" class="edge"><title>Node8&#45;&gt;Node10</title>
<path fill="none" stroke="midnightblue" d="M551.721,-79.3762C548.053,-70.2692 542.609,-56.754 537.763,-44.7225"/>
<polygon fill="midnightblue" stroke="midnightblue" points="540.868,-43.0626 533.885,-35.0944 534.375,-45.6779 540.868,-43.0626"/>
</g>
<!-- Node11 -->
<g id="node21" class="node"><title>Node11</title>
<polygon fill="white" stroke="#bfbfbf" points="597.5,-1 597.5,-35 700.5,-35 700.5,-1 597.5,-1"/>
<text text-anchor="start" x="605.5" y="-22" font-family="Helvetica,sans-Serif" font-size="10.00">mars/interfaces/sim</text>
<text text-anchor="middle" x="649" y="-9" font-family="Helvetica,sans-Serif" font-size="10.00">/ControlCenter.h</text>
</g>
<!-- Node8&#45;&gt;Node11 -->
<g id="edge20" class="edge"><title>Node8&#45;&gt;Node11</title>
<path fill="none" stroke="midnightblue" d="M569.722,-79.3762C582.544,-69.4496 602.131,-54.2856 618.627,-41.5144"/>
<polygon fill="midnightblue" stroke="midnightblue" points="621.155,-43.9837 626.92,-35.0944 616.87,-38.4486 621.155,-43.9837"/>
</g>
<!-- Node12 -->
<g id="node23" class="node"><title>Node12</title>
<polygon fill="white" stroke="#bfbfbf" points="717.5,-1 717.5,-35 820.5,-35 820.5,-1 717.5,-1"/>
<text text-anchor="start" x="725.5" y="-22" font-family="Helvetica,sans-Serif" font-size="10.00">mars/interfaces/sim</text>
<text text-anchor="middle" x="769" y="-9" font-family="Helvetica,sans-Serif" font-size="10.00">/LoadCenter.h</text>
</g>
<!-- Node8&#45;&gt;Node12 -->
<g id="edge22" class="edge"><title>Node8&#45;&gt;Node12</title>
<path fill="none" stroke="midnightblue" d="M587.429,-79.3762C619.287,-68.6072 669.381,-51.6741 708.889,-38.3193"/>
<polygon fill="midnightblue" stroke="midnightblue" points="710.077,-41.6124 718.429,-35.0944 707.835,-34.981 710.077,-41.6124"/>
</g>
</g>
</svg>
