<?xml version="1.0" encoding="UTF-8" standalone="no"?>
<!DOCTYPE svg PUBLIC "-//W3C//DTD SVG 1.1//EN"
 "http://www.w3.org/Graphics/SVG/1.1/DTD/svg11.dtd">
<!-- Generated by graphviz version 2.36.0 (20140111.2315)
 -->
<!-- Title: /media/kavonszadkowski/work/marsdocs/mars/sim/src/sensors/NodeAngularVelocitySensor.h Pages: 1 -->
<svg width="335pt" height="152pt"
 viewBox="0.00 0.00 335.00 152.00" xmlns="http://www.w3.org/2000/svg" xmlns:xlink="http://www.w3.org/1999/xlink">
<g id="graph0" class="graph" transform="scale(1 1) rotate(0) translate(4 148)">
<title>/media/kavonszadkowski/work/marsdocs/mars/sim/src/sensors/NodeAngularVelocitySensor.h</title>
<polygon fill="white" stroke="none" points="-4,4 -4,-148 331,-148 331,4 -4,4"/>
<!-- Node1 -->
<g id="node1" class="node"><title>Node1</title>
<polygon fill="#bfbfbf" stroke="black" points="75.5,-91 75.5,-143 240.5,-143 240.5,-91 75.5,-91"/>
<text text-anchor="start" x="83.5" y="-131" font-family="Helvetica,sans-Serif" font-size="10.00">/media/kavonszadkowski</text>
<text text-anchor="start" x="83.5" y="-120" font-family="Helvetica,sans-Serif" font-size="10.00">/work/marsdocs/mars/sim</text>
<text text-anchor="start" x="83.5" y="-109" font-family="Helvetica,sans-Serif" font-size="10.00">/src/sensors/NodeAngularVelocity</text>
<text text-anchor="middle" x="158" y="-98" font-family="Helvetica,sans-Serif" font-size="10.00">Sensor.h</text>
</g>
<!-- Node2 -->
<g id="node2" class="node"><title>Node2</title>
<g id="a_node2"><a xlink:href="../../d4/d38/_sensor_manager_8cpp.html" target="_top" xlink:title="/media/kavonszadkowski\l/work/marsdocs/mars/sim\l/src/core/SensorManager.cpp">
<polygon fill="white" stroke="black" points="-0.5,-6.5 -0.5,-47.5 144.5,-47.5 144.5,-6.5 -0.5,-6.5"/>
<text text-anchor="start" x="7.5" y="-35.5" font-family="Helvetica,sans-Serif" font-size="10.00">/media/kavonszadkowski</text>
<text text-anchor="start" x="7.5" y="-24.5" font-family="Helvetica,sans-Serif" font-size="10.00">/work/marsdocs/mars/sim</text>
<text text-anchor="middle" x="72" y="-13.5" font-family="Helvetica,sans-Serif" font-size="10.00">/src/core/SensorManager.cpp</text>
</a>
</g>
</g>
<!-- Node1&#45;&gt;Node2 -->
<g id="edge1" class="edge"><title>Node1&#45;&gt;Node2</title>
<path fill="none" stroke="midnightblue" d="M125.999,-83.2545C114.254,-71.2371 101.337,-58.019 91.0812,-47.5249"/>
<polygon fill="midnightblue" stroke="midnightblue" points="123.633,-85.8411 133.125,-90.5468 128.639,-80.9486 123.633,-85.8411"/>
</g>
<!-- Node3 -->
<g id="node3" class="node"><title>Node3</title>
<g id="a_node3"><a xlink:href="../../d2/d5c/_node_angular_velocity_sensor_8cpp.html" target="_top" xlink:title="/media/kavonszadkowski\l/work/marsdocs/mars/sim\l/src/sensors/NodeAngularVelocity\lSensor.cpp">
<polygon fill="white" stroke="black" points="162.5,-1 162.5,-53 327.5,-53 327.5,-1 162.5,-1"/>
<text text-anchor="start" x="170.5" y="-41" font-family="Helvetica,sans-Serif" font-size="10.00">/media/kavonszadkowski</text>
<text text-anchor="start" x="170.5" y="-30" font-family="Helvetica,sans-Serif" font-size="10.00">/work/marsdocs/mars/sim</text>
<text text-anchor="start" x="170.5" y="-19" font-family="Helvetica,sans-Serif" font-size="10.00">/src/sensors/NodeAngularVelocity</text>
<text text-anchor="middle" x="245" y="-8" font-family="Helvetica,sans-Serif" font-size="10.00">Sensor.cpp</text>
</a>
</g>
</g>
<!-- Node1&#45;&gt;Node3 -->
<g id="edge2" class="edge"><title>Node1&#45;&gt;Node3</title>
<path fill="none" stroke="midnightblue" d="M190.199,-83.4308C200.109,-73.4069 210.86,-62.5325 220.193,-53.0921"/>
<polygon fill="midnightblue" stroke="midnightblue" points="187.706,-80.9747 183.164,-90.5468 192.684,-85.8961 187.706,-80.9747"/>
</g>
</g>
</svg>
