<?xml version="1.0" encoding="UTF-8" standalone="no"?>
<!DOCTYPE svg PUBLIC "-//W3C//DTD SVG 1.1//EN"
 "http://www.w3.org/Graphics/SVG/1.1/DTD/svg11.dtd">
<!-- Generated by graphviz version 2.36.0 (20140111.2315)
 -->
<!-- Title: /media/kavonszadkowski/work/marsdocs/mars/common/gui/gui_app/src/GuiApp.hpp Pages: 1 -->
<svg width="327pt" height="118pt"
 viewBox="0.00 0.00 327.00 118.00" xmlns="http://www.w3.org/2000/svg" xmlns:xlink="http://www.w3.org/1999/xlink">
<g id="graph0" class="graph" transform="scale(1 1) rotate(0) translate(4 114)">
<title>/media/kavonszadkowski/work/marsdocs/mars/common/gui/gui_app/src/GuiApp.hpp</title>
<polygon fill="white" stroke="none" points="-4,4 -4,-114 323,-114 323,4 -4,4"/>
<!-- Node1 -->
<g id="node1" class="node"><title>Node1</title>
<polygon fill="#bfbfbf" stroke="black" points="79,-68.5 79,-109.5 231,-109.5 231,-68.5 79,-68.5"/>
<text text-anchor="start" x="87" y="-97.5" font-family="Helvetica,sans-Serif" font-size="10.00">/media/kavonszadkowski</text>
<text text-anchor="start" x="87" y="-86.5" font-family="Helvetica,sans-Serif" font-size="10.00">/work/marsdocs/mars/common</text>
<text text-anchor="middle" x="155" y="-75.5" font-family="Helvetica,sans-Serif" font-size="10.00">/gui/gui_app/src/GuiApp.hpp</text>
</g>
<!-- Node2 -->
<g id="node2" class="node"><title>Node2</title>
<polygon fill="white" stroke="#bfbfbf" points="0,-6.5 0,-25.5 142,-25.5 142,-6.5 0,-6.5"/>
<text text-anchor="middle" x="71" y="-13.5" font-family="Helvetica,sans-Serif" font-size="10.00">lib_manager/LibInterface.hpp</text>
</g>
<!-- Node1&#45;&gt;Node2 -->
<g id="edge1" class="edge"><title>Node1&#45;&gt;Node2</title>
<path fill="none" stroke="midnightblue" d="M131.601,-68.2225C118.191,-56.8875 101.61,-42.8725 89.1833,-32.3692"/>
<polygon fill="midnightblue" stroke="midnightblue" points="91.231,-29.5172 81.3342,-25.7349 86.7122,-34.8633 91.231,-29.5172"/>
</g>
<!-- Node3 -->
<g id="node3" class="node"><title>Node3</title>
<polygon fill="white" stroke="#bfbfbf" points="160.5,-1 160.5,-31 319.5,-31 319.5,-1 160.5,-1"/>
<text text-anchor="start" x="168.5" y="-19" font-family="Helvetica,sans-Serif" font-size="10.00">mars/cfg_manager/CFGManager</text>
<text text-anchor="middle" x="240" y="-8" font-family="Helvetica,sans-Serif" font-size="10.00">Interface.h</text>
</g>
<!-- Node1&#45;&gt;Node3 -->
<g id="edge2" class="edge"><title>Node1&#45;&gt;Node3</title>
<path fill="none" stroke="midnightblue" d="M178.677,-68.2225C190.061,-58.7134 203.704,-47.3182 215.227,-37.6925"/>
<polygon fill="midnightblue" stroke="midnightblue" points="217.75,-40.1455 223.181,-31.0485 213.263,-34.7731 217.75,-40.1455"/>
</g>
</g>
</svg>
