<?xml version="1.0" encoding="UTF-8" standalone="no"?>
<!DOCTYPE svg PUBLIC "-//W3C//DTD SVG 1.1//EN"
 "http://www.w3.org/Graphics/SVG/1.1/DTD/svg11.dtd">
<!-- Generated by graphviz version 2.26.3 (20100126.1600)
 -->
<!-- Title: mars::gui::ControllerHandler Pages: 1 -->
<svg width="938pt" height="791pt"
 viewBox="0.00 0.00 938.00 791.00" xmlns="http://www.w3.org/2000/svg" xmlns:xlink="http://www.w3.org/1999/xlink">
<g id="graph1" class="graph" transform="scale(1 1) rotate(0) translate(4 787)">
<title>mars::gui::ControllerHandler</title>
<polygon fill="white" stroke="white" points="-4,5 -4,-787 935,-787 935,5 -4,5"/>
<!-- Node1 -->
<g id="node1" class="node"><title>Node1</title>
<polygon fill="#bfbfbf" stroke="black" points="790.5,-647.5 790.5,-668.5 929.5,-668.5 929.5,-647.5 790.5,-647.5"/>
<text text-anchor="middle" x="860" y="-655.5" font-family="Helvetica,sans-Serif" font-size="10.00">mars::gui::ControllerHandler</text>
</g>
<!-- Node2 -->
<g id="node2" class="node"><title>Node2</title>
<polygon fill="white" stroke="#bfbfbf" points="589.5,-761.5 589.5,-782.5 642.5,-782.5 642.5,-761.5 589.5,-761.5"/>
<text text-anchor="middle" x="616" y="-769.5" font-family="Helvetica,sans-Serif" font-size="10.00">QObject</text>
</g>
<!-- Node2&#45;&gt;Node1 -->
<g id="edge2" class="edge"><title>Node2&#45;&gt;Node1</title>
<path fill="none" stroke="midnightblue" d="M652.819,-773.794C685.795,-773.882 734.581,-770.169 772,-751 810.182,-731.44 840.81,-688.514 853.572,-668.571"/>
<polygon fill="midnightblue" stroke="midnightblue" points="652.753,-770.292 642.703,-773.646 652.651,-777.292 652.753,-770.292"/>
</g>
<!-- Node3 -->
<g id="node4" class="node"><title>Node3</title>
<a xlink:href="../../d7/d9d/classmars_1_1gui_1_1_selection_dialog.html" target="_top" xlink:title="mars::gui::SelectionDialog">
<polygon fill="white" stroke="black" points="550.5,-721.5 550.5,-742.5 681.5,-742.5 681.5,-721.5 550.5,-721.5"/>
<text text-anchor="middle" x="616" y="-729.5" font-family="Helvetica,sans-Serif" font-size="10.00">mars::gui::SelectionDialog</text>
</a>
</g>
<!-- Node3&#45;&gt;Node1 -->
<g id="edge4" class="edge"><title>Node3&#45;&gt;Node1</title>
<path fill="none" stroke="#9a32cd" stroke-dasharray="5,2" d="M670.947,-719.011C701.011,-711.541 738.793,-701.56 772,-691 793.147,-684.275 816.661,-675.382 834.059,-668.522"/>
<polygon fill="#9a32cd" stroke="#9a32cd" points="669.937,-715.655 661.065,-721.445 671.612,-722.452 669.937,-715.655"/>
<text text-anchor="middle" x="742" y="-738" font-family="Helvetica,sans-Serif" font-size="10.00"> nodeDialog</text>
<text text-anchor="middle" x="742" y="-725" font-family="Helvetica,sans-Serif" font-size="10.00">sensorDialog</text>
<text text-anchor="middle" x="742" y="-712" font-family="Helvetica,sans-Serif" font-size="10.00">motorDialog</text>
</g>
<!-- Node4 -->
<g id="node6" class="node"><title>Node4</title>
<polygon fill="white" stroke="#bfbfbf" points="318.5,-721.5 318.5,-742.5 373.5,-742.5 373.5,-721.5 318.5,-721.5"/>
<text text-anchor="middle" x="346" y="-729.5" font-family="Helvetica,sans-Serif" font-size="10.00">QWidget</text>
</g>
<!-- Node4&#45;&gt;Node3 -->
<g id="edge6" class="edge"><title>Node4&#45;&gt;Node3</title>
<path fill="none" stroke="midnightblue" d="M383.684,-732C426.781,-732 498.118,-732 550.392,-732"/>
<polygon fill="midnightblue" stroke="midnightblue" points="383.626,-728.5 373.626,-732 383.626,-735.5 383.626,-728.5"/>
</g>
<!-- Node5 -->
<g id="node8" class="node"><title>Node5</title>
<polygon fill="white" stroke="#bfbfbf" points="325.5,-663.5 325.5,-684.5 366.5,-684.5 366.5,-663.5 325.5,-663.5"/>
<text text-anchor="middle" x="346" y="-671.5" font-family="Helvetica,sans-Serif" font-size="10.00">string</text>
</g>
<!-- Node5&#45;&gt;Node1 -->
<g id="edge8" class="edge"><title>Node5&#45;&gt;Node1</title>
<path fill="none" stroke="#9a32cd" stroke-dasharray="5,2" d="M377.213,-673.525C447.645,-672.38 624.3,-669.101 772,-663 777.963,-662.754 784.151,-662.466 790.358,-662.156"/>
<polygon fill="#9a32cd" stroke="#9a32cd" points="376.785,-670.031 366.842,-673.69 376.896,-677.03 376.785,-670.031"/>
<text text-anchor="middle" x="616" y="-687" font-family="Helvetica,sans-Serif" font-size="10.00"> actualName</text>
<text text-anchor="middle" x="616" y="-674" font-family="Helvetica,sans-Serif" font-size="10.00">controllerName</text>
</g>
<!-- Node9 -->
<g id="node16" class="node"><title>Node9</title>
<a xlink:href="../../d5/d8e/classmars_1_1interfaces_1_1_controller_data.html" target="_top" xlink:title="mars::interfaces::ControllerData">
<polygon fill="white" stroke="black" points="538,-619.5 538,-640.5 694,-640.5 694,-619.5 538,-619.5"/>
<text text-anchor="middle" x="616" y="-627.5" font-family="Helvetica,sans-Serif" font-size="10.00">mars::interfaces::ControllerData</text>
</a>
</g>
<!-- Node5&#45;&gt;Node9 -->
<g id="edge18" class="edge"><title>Node5&#45;&gt;Node9</title>
<path fill="none" stroke="#9a32cd" stroke-dasharray="5,2" d="M376.569,-665.274C395.32,-660.192 419.894,-654.016 442,-650 473.114,-644.347 507.665,-639.987 537.725,-636.801"/>
<polygon fill="#9a32cd" stroke="#9a32cd" points="375.515,-661.933 366.803,-667.963 377.374,-668.682 375.515,-661.933"/>
<text text-anchor="middle" x="481" y="-654" font-family="Helvetica,sans-Serif" font-size="10.00"> dylib_path</text>
</g>
<!-- Node6 -->
<g id="node10" class="node"><title>Node6</title>
<a xlink:href="../../de/d11/classmars_1_1main__gui_1_1_property_dialog.html" target="_top" xlink:title="The PropertyDialog provides the QtProperty functionality. ">
<polygon fill="white" stroke="black" points="553,-567 553,-601 679,-601 679,-567 553,-567"/>
<text text-anchor="start" x="561" y="-588" font-family="Helvetica,sans-Serif" font-size="10.00">mars::main_gui::Property</text>
<text text-anchor="middle" x="616" y="-575" font-family="Helvetica,sans-Serif" font-size="10.00">Dialog</text>
</a>
</g>
<!-- Node6&#45;&gt;Node1 -->
<g id="edge10" class="edge"><title>Node6&#45;&gt;Node1</title>
<path fill="none" stroke="#9a32cd" stroke-dasharray="5,2" d="M689.016,-600.835C715.362,-607.404 745.201,-615.42 772,-624 793.526,-630.892 817.416,-640.233 834.866,-647.381"/>
<polygon fill="#9a32cd" stroke="#9a32cd" points="689.651,-597.386 679.104,-598.389 687.974,-604.183 689.651,-597.386"/>
<text text-anchor="middle" x="742" y="-628" font-family="Helvetica,sans-Serif" font-size="10.00"> pDialog</text>
</g>
<!-- Node7 -->
<g id="node12" class="node"><title>Node7</title>
<polygon fill="white" stroke="#bfbfbf" points="320,-612.5 320,-633.5 372,-633.5 372,-612.5 320,-612.5"/>
<text text-anchor="middle" x="346" y="-620.5" font-family="Helvetica,sans-Serif" font-size="10.00">QDialog</text>
</g>
<!-- Node7&#45;&gt;Node6 -->
<g id="edge12" class="edge"><title>Node7&#45;&gt;Node6</title>
<path fill="none" stroke="midnightblue" d="M382.507,-617.778C417.717,-612.735 472.509,-604.875 520,-598 530.585,-596.468 541.825,-594.834 552.745,-593.244"/>
<polygon fill="midnightblue" stroke="midnightblue" points="381.641,-614.366 372.238,-619.248 382.633,-621.295 381.641,-614.366"/>
</g>
<!-- Node8 -->
<g id="node14" class="node"><title>Node8</title>
<a xlink:href="../../dd/d38/classmars_1_1main__gui_1_1_property_callback.html" target="_top" xlink:title="Introduced for Windows compatibility. ">
<polygon fill="white" stroke="black" points="283,-560 283,-594 409,-594 409,-560 283,-560"/>
<text text-anchor="start" x="291" y="-581" font-family="Helvetica,sans-Serif" font-size="10.00">mars::main_gui::Property</text>
<text text-anchor="middle" x="346" y="-568" font-family="Helvetica,sans-Serif" font-size="10.00">Callback</text>
</a>
</g>
<!-- Node8&#45;&gt;Node6 -->
<g id="edge14" class="edge"><title>Node8&#45;&gt;Node6</title>
<path fill="none" stroke="#9a32cd" stroke-dasharray="5,2" d="M419.397,-578.903C461.075,-579.983 512.726,-581.323 552.626,-582.357"/>
<polygon fill="#9a32cd" stroke="#9a32cd" points="419.39,-575.402 409.303,-578.641 419.209,-582.399 419.39,-575.402"/>
<text text-anchor="middle" x="481" y="-585" font-family="Helvetica,sans-Serif" font-size="10.00"> propertyCallback</text>
</g>
<!-- Node9&#45;&gt;Node1 -->
<g id="edge16" class="edge"><title>Node9&#45;&gt;Node1</title>
<path fill="none" stroke="#9a32cd" stroke-dasharray="5,2" d="M704.507,-640.157C732.81,-643.404 763.719,-646.951 790.471,-650.021"/>
<polygon fill="#9a32cd" stroke="#9a32cd" points="704.544,-636.638 694.21,-638.975 703.746,-643.592 704.544,-636.638"/>
<text text-anchor="middle" x="742" y="-651" font-family="Helvetica,sans-Serif" font-size="10.00"> myController</text>
</g>
<!-- Node10 -->
<g id="node19" class="node"><title>Node10</title>
<a xlink:href="../../d7/d4e/classmars_1_1interfaces_1_1_control_center.html" target="_top" xlink:title="The declaration of the ControlCenter. ">
<polygon fill="white" stroke="black" points="553.5,-274 553.5,-308 678.5,-308 678.5,-274 553.5,-274"/>
<text text-anchor="start" x="561.5" y="-295" font-family="Helvetica,sans-Serif" font-size="10.00">mars::interfaces::Control</text>
<text text-anchor="middle" x="616" y="-282" font-family="Helvetica,sans-Serif" font-size="10.00">Center</text>
</a>
</g>
<!-- Node10&#45;&gt;Node1 -->
<g id="edge20" class="edge"><title>Node10&#45;&gt;Node1</title>
<path fill="none" stroke="#9a32cd" stroke-dasharray="5,2" d="M633.202,-316.873C682.029,-390.314 820.074,-597.947 852.922,-647.354"/>
<polygon fill="#9a32cd" stroke="#9a32cd" points="635.893,-314.599 627.441,-308.209 630.063,-318.474 635.893,-314.599"/>
<text text-anchor="middle" x="742" y="-522" font-family="Helvetica,sans-Serif" font-size="10.00"> control</text>
</g>
<!-- Node11 -->
<g id="node21" class="node"><title>Node11</title>
<a xlink:href="../../d1/d93/classmars_1_1interfaces_1_1_graphics_manager_interface.html" target="_top" xlink:title="mars::interfaces::Graphics\lManagerInterface">
<polygon fill="white" stroke="black" points="280,-508 280,-542 412,-542 412,-508 280,-508"/>
<text text-anchor="start" x="288" y="-529" font-family="Helvetica,sans-Serif" font-size="10.00">mars::interfaces::Graphics</text>
<text text-anchor="middle" x="346" y="-516" font-family="Helvetica,sans-Serif" font-size="10.00">ManagerInterface</text>
</a>
</g>
<!-- Node11&#45;&gt;Node10 -->
<g id="edge22" class="edge"><title>Node11&#45;&gt;Node10</title>
<path fill="none" stroke="#9a32cd" stroke-dasharray="5,2" d="M422.193,-514.652C455.14,-507.031 492.386,-493.832 520,-471 573.771,-426.541 601.634,-343.915 611.621,-308.191"/>
<polygon fill="#9a32cd" stroke="#9a32cd" points="421.149,-511.297 412.121,-516.842 422.637,-518.137 421.149,-511.297"/>
<text text-anchor="middle" x="481" y="-512" font-family="Helvetica,sans-Serif" font-size="10.00"> graphics</text>
</g>
<!-- Node12 -->
<g id="node23" class="node"><title>Node12</title>
<polygon fill="white" stroke="#bfbfbf" points="47,-462.5 47,-483.5 115,-483.5 115,-462.5 47,-462.5"/>
<text text-anchor="middle" x="81" y="-470.5" font-family="Helvetica,sans-Serif" font-size="10.00">LibInterface</text>
</g>
<!-- Node12&#45;&gt;Node11 -->
<g id="edge24" class="edge"><title>Node12&#45;&gt;Node11</title>
<path fill="none" stroke="midnightblue" d="M125.064,-481.647C167.239,-489.922 231.411,-502.515 279.747,-511.999"/>
<polygon fill="midnightblue" stroke="midnightblue" points="125.588,-478.183 115.102,-479.692 124.241,-485.052 125.588,-478.183"/>
</g>
<!-- Node16 -->
<g id="node31" class="node"><title>Node16</title>
<a xlink:href="../../d4/da6/classmars_1_1cfg__manager_1_1_c_f_g_manager_interface.html" target="_top" xlink:title="mars::cfg_manager::\lCFGManagerInterface">
<polygon fill="white" stroke="black" points="289.5,-456 289.5,-490 402.5,-490 402.5,-456 289.5,-456"/>
<text text-anchor="start" x="297.5" y="-477" font-family="Helvetica,sans-Serif" font-size="10.00">mars::cfg_manager::</text>
<text text-anchor="middle" x="346" y="-464" font-family="Helvetica,sans-Serif" font-size="10.00">CFGManagerInterface</text>
</a>
</g>
<!-- Node12&#45;&gt;Node16 -->
<g id="edge34" class="edge"><title>Node12&#45;&gt;Node16</title>
<path fill="none" stroke="midnightblue" d="M125.147,-473C170.173,-473 240.21,-473 289.312,-473"/>
<polygon fill="midnightblue" stroke="midnightblue" points="125.102,-469.5 115.102,-473 125.102,-476.5 125.102,-469.5"/>
</g>
<!-- Node17 -->
<g id="node34" class="node"><title>Node17</title>
<a xlink:href="../../d6/d2e/classmars_1_1data__broker_1_1_data_broker_interface.html" target="_top" xlink:title="The interface every DataBroker should implement. ">
<polygon fill="white" stroke="black" points="294,-404 294,-438 398,-438 398,-404 294,-404"/>
<text text-anchor="start" x="302" y="-425" font-family="Helvetica,sans-Serif" font-size="10.00">mars::data_broker::</text>
<text text-anchor="middle" x="346" y="-412" font-family="Helvetica,sans-Serif" font-size="10.00">DataBrokerInterface</text>
</a>
</g>
<!-- Node12&#45;&gt;Node17 -->
<g id="edge38" class="edge"><title>Node12&#45;&gt;Node17</title>
<path fill="none" stroke="midnightblue" d="M125.155,-464.336C171.569,-455.228 244.55,-440.907 293.788,-431.245"/>
<polygon fill="midnightblue" stroke="midnightblue" points="124.241,-460.948 115.102,-466.308 125.588,-467.817 124.241,-460.948"/>
</g>
<!-- Node13 -->
<g id="node25" class="node"><title>Node13</title>
<a xlink:href="../../d2/da9/classmars_1_1interfaces_1_1_controller_manager_interface.html" target="_top" xlink:title="&quot;ControllerManagerInterface&quot; declares the interfaces for all controller operations that are used for ...">
<polygon fill="white" stroke="black" points="278.5,-352 278.5,-386 413.5,-386 413.5,-352 278.5,-352"/>
<text text-anchor="start" x="286.5" y="-373" font-family="Helvetica,sans-Serif" font-size="10.00">mars::interfaces::Controller</text>
<text text-anchor="middle" x="346" y="-360" font-family="Helvetica,sans-Serif" font-size="10.00">ManagerInterface</text>
</a>
</g>
<!-- Node13&#45;&gt;Node10 -->
<g id="edge26" class="edge"><title>Node13&#45;&gt;Node10</title>
<path fill="none" stroke="#9a32cd" stroke-dasharray="5,2" d="M423.737,-350.275C453.937,-342.641 488.725,-333.404 520,-324 536.034,-319.179 553.387,-313.392 568.874,-308.019"/>
<polygon fill="#9a32cd" stroke="#9a32cd" points="422.529,-346.969 413.683,-352.8 424.234,-353.759 422.529,-346.969"/>
<text text-anchor="middle" x="481" y="-349" font-family="Helvetica,sans-Serif" font-size="10.00"> controllers</text>
</g>
<!-- Node14 -->
<g id="node27" class="node"><title>Node14</title>
<a xlink:href="../../d6/d60/classmars_1_1interfaces_1_1_joint_manager_interface.html" target="_top" xlink:title="Interface class for the node organization. ">
<polygon fill="white" stroke="black" points="270,-300 270,-334 422,-334 422,-300 270,-300"/>
<text text-anchor="start" x="278" y="-321" font-family="Helvetica,sans-Serif" font-size="10.00">mars::interfaces::JointManager</text>
<text text-anchor="middle" x="346" y="-308" font-family="Helvetica,sans-Serif" font-size="10.00">Interface</text>
</a>
</g>
<!-- Node14&#45;&gt;Node10 -->
<g id="edge28" class="edge"><title>Node14&#45;&gt;Node10</title>
<path fill="none" stroke="#9a32cd" stroke-dasharray="5,2" d="M432.381,-308.682C471.618,-304.903 517.18,-300.516 553.102,-297.057"/>
<polygon fill="#9a32cd" stroke="#9a32cd" points="431.907,-305.211 422.289,-309.654 432.578,-312.179 431.907,-305.211"/>
<text text-anchor="middle" x="481" y="-311" font-family="Helvetica,sans-Serif" font-size="10.00"> joints</text>
</g>
<!-- Node15 -->
<g id="node29" class="node"><title>Node15</title>
<a xlink:href="../../df/d82/classmars_1_1interfaces_1_1_entity_manager_interface.html" target="_top" xlink:title="mars::interfaces::Entity\lManagerInterface">
<polygon fill="white" stroke="black" points="286.5,-248 286.5,-282 405.5,-282 405.5,-248 286.5,-248"/>
<text text-anchor="start" x="294.5" y="-269" font-family="Helvetica,sans-Serif" font-size="10.00">mars::interfaces::Entity</text>
<text text-anchor="middle" x="346" y="-256" font-family="Helvetica,sans-Serif" font-size="10.00">ManagerInterface</text>
</a>
</g>
<!-- Node15&#45;&gt;Node10 -->
<g id="edge30" class="edge"><title>Node15&#45;&gt;Node10</title>
<path fill="none" stroke="#9a32cd" stroke-dasharray="5,2" d="M415.583,-271.701C458.113,-275.796 512.068,-280.992 553.278,-284.96"/>
<polygon fill="#9a32cd" stroke="#9a32cd" points="415.876,-268.213 405.587,-270.738 415.205,-275.181 415.876,-268.213"/>
<text text-anchor="middle" x="481" y="-285" font-family="Helvetica,sans-Serif" font-size="10.00"> entities</text>
</g>
<!-- Node16&#45;&gt;Node10 -->
<g id="edge32" class="edge"><title>Node16&#45;&gt;Node10</title>
<path fill="none" stroke="#9a32cd" stroke-dasharray="5,2" d="M412.84,-462.46C447.187,-454.633 488.355,-441.311 520,-419 562,-389.388 593.431,-335.729 607.635,-308.243"/>
<polygon fill="#9a32cd" stroke="#9a32cd" points="411.913,-459.079 402.883,-464.62 413.398,-465.92 411.913,-459.079"/>
<text text-anchor="middle" x="481" y="-458" font-family="Helvetica,sans-Serif" font-size="10.00"> cfg</text>
</g>
<!-- Node17&#45;&gt;Node10 -->
<g id="edge36" class="edge"><title>Node17&#45;&gt;Node10</title>
<path fill="none" stroke="#9a32cd" stroke-dasharray="5,2" d="M407.18,-400.667C412.868,-398.758 418.543,-396.847 424,-395 466.735,-380.533 480.064,-382.992 520,-362 548.625,-346.954 578.011,-323.88 596.602,-308.15"/>
<polygon fill="#9a32cd" stroke="#9a32cd" points="406,-397.371 397.629,-403.866 408.223,-404.009 406,-397.371"/>
<text text-anchor="middle" x="481" y="-406" font-family="Helvetica,sans-Serif" font-size="10.00"> dataBroker</text>
<text text-anchor="middle" x="481" y="-393" font-family="Helvetica,sans-Serif" font-size="10.00">theDataBroker</text>
</g>
<!-- Node18 -->
<g id="node37" class="node"><title>Node18</title>
<a xlink:href="../../db/da9/classmars_1_1interfaces_1_1_sensor_manager_interface.html" target="_top" xlink:title="&quot;SensorManagerInterface&quot; declares the interfaces for all sensor operations that are used for the comm...">
<polygon fill="white" stroke="black" points="284,-196 284,-230 408,-230 408,-196 284,-196"/>
<text text-anchor="start" x="292" y="-217" font-family="Helvetica,sans-Serif" font-size="10.00">mars::interfaces::Sensor</text>
<text text-anchor="middle" x="346" y="-204" font-family="Helvetica,sans-Serif" font-size="10.00">ManagerInterface</text>
</a>
</g>
<!-- Node18&#45;&gt;Node10 -->
<g id="edge40" class="edge"><title>Node18&#45;&gt;Node10</title>
<path fill="none" stroke="#9a32cd" stroke-dasharray="5,2" d="M418.381,-229.712C449.796,-237.375 486.901,-246.977 520,-257 536.584,-262.022 554.539,-268.181 570.385,-273.872"/>
<polygon fill="#9a32cd" stroke="#9a32cd" points="418.936,-226.246 408.393,-227.294 417.289,-233.049 418.936,-226.246"/>
<text text-anchor="middle" x="481" y="-261" font-family="Helvetica,sans-Serif" font-size="10.00"> sensors</text>
</g>
<!-- Node19 -->
<g id="node39" class="node"><title>Node19</title>
<a xlink:href="../../db/de9/classmars_1_1interfaces_1_1_motor_manager_interface.html" target="_top" xlink:title="&quot;MotorManagerInterface&quot; declares the interfaces for all motor operations that are used for the commun...">
<polygon fill="white" stroke="black" points="268.5,-144 268.5,-178 423.5,-178 423.5,-144 268.5,-144"/>
<text text-anchor="start" x="276.5" y="-165" font-family="Helvetica,sans-Serif" font-size="10.00">mars::interfaces::MotorManager</text>
<text text-anchor="middle" x="346" y="-152" font-family="Helvetica,sans-Serif" font-size="10.00">Interface</text>
</a>
</g>
<!-- Node19&#45;&gt;Node10 -->
<g id="edge42" class="edge"><title>Node19&#45;&gt;Node10</title>
<path fill="none" stroke="#9a32cd" stroke-dasharray="5,2" d="M423.61,-181.022C454.519,-190.478 489.841,-203.198 520,-219 548.972,-234.18 578.515,-257.821 597.032,-273.836"/>
<polygon fill="#9a32cd" stroke="#9a32cd" points="424.325,-177.582 413.741,-178.066 422.317,-184.288 424.325,-177.582"/>
<text text-anchor="middle" x="481" y="-223" font-family="Helvetica,sans-Serif" font-size="10.00"> motors</text>
</g>
<!-- Node20 -->
<g id="node41" class="node"><title>Node20</title>
<a xlink:href="../../d9/d6a/classmars_1_1interfaces_1_1_load_center.html" target="_top" xlink:title="mars::interfaces::LoadCenter">
<polygon fill="white" stroke="black" points="274.5,-104.5 274.5,-125.5 417.5,-125.5 417.5,-104.5 274.5,-104.5"/>
<text text-anchor="middle" x="346" y="-112.5" font-family="Helvetica,sans-Serif" font-size="10.00">mars::interfaces::LoadCenter</text>
</a>
</g>
<!-- Node20&#45;&gt;Node10 -->
<g id="edge44" class="edge"><title>Node20&#45;&gt;Node10</title>
<path fill="none" stroke="#9a32cd" stroke-dasharray="5,2" d="M420.413,-128.031C453.181,-136.397 490.781,-149.812 520,-171 559.309,-199.506 591.247,-248.132 606.427,-273.862"/>
<polygon fill="#9a32cd" stroke="#9a32cd" points="420.958,-124.561 410.414,-125.593 419.3,-131.362 420.958,-124.561"/>
<text text-anchor="middle" x="481" y="-175" font-family="Helvetica,sans-Serif" font-size="10.00"> loadCenter</text>
</g>
<!-- Node21 -->
<g id="node43" class="node"><title>Node21</title>
<a xlink:href="../../d1/d51/classmars_1_1interfaces_1_1_load_heightmap_interface.html" target="_top" xlink:title="mars::interfaces::LoadHeightmap\lInterface">
<polygon fill="white" stroke="black" points="0.5,-124 0.5,-158 161.5,-158 161.5,-124 0.5,-124"/>
<text text-anchor="start" x="8.5" y="-145" font-family="Helvetica,sans-Serif" font-size="10.00">mars::interfaces::LoadHeightmap</text>
<text text-anchor="middle" x="81" y="-132" font-family="Helvetica,sans-Serif" font-size="10.00">Interface</text>
</a>
</g>
<!-- Node21&#45;&gt;Node20 -->
<g id="edge46" class="edge"><title>Node21&#45;&gt;Node20</title>
<path fill="none" stroke="#9a32cd" stroke-dasharray="5,2" d="M171.844,-132.087C205.335,-128.801 242.778,-125.127 274.339,-122.031"/>
<polygon fill="#9a32cd" stroke="#9a32cd" points="171.198,-128.633 161.588,-133.093 171.882,-135.6 171.198,-128.633"/>
<text text-anchor="middle" x="215" y="-135" font-family="Helvetica,sans-Serif" font-size="10.00"> loadHeightmap</text>
</g>
<!-- Node22 -->
<g id="node45" class="node"><title>Node22</title>
<a xlink:href="../../d7/d02/classmars_1_1interfaces_1_1_load_mesh_interface.html" target="_top" xlink:title="mars::interfaces::LoadMesh\lInterface">
<polygon fill="white" stroke="black" points="12,-72 12,-106 150,-106 150,-72 12,-72"/>
<text text-anchor="start" x="20" y="-93" font-family="Helvetica,sans-Serif" font-size="10.00">mars::interfaces::LoadMesh</text>
<text text-anchor="middle" x="81" y="-80" font-family="Helvetica,sans-Serif" font-size="10.00">Interface</text>
</a>
</g>
<!-- Node22&#45;&gt;Node20 -->
<g id="edge48" class="edge"><title>Node22&#45;&gt;Node20</title>
<path fill="none" stroke="#9a32cd" stroke-dasharray="5,2" d="M160.315,-96.7819C196.535,-100.336 239.113,-104.513 274.353,-107.971"/>
<polygon fill="#9a32cd" stroke="#9a32cd" points="160.573,-93.2905 150.279,-95.7972 159.89,-100.257 160.573,-93.2905"/>
<text text-anchor="middle" x="215" y="-109" font-family="Helvetica,sans-Serif" font-size="10.00"> loadMesh</text>
</g>
<!-- Node23 -->
<g id="node47" class="node"><title>Node23</title>
<a xlink:href="../../d7/d4c/classmars_1_1interfaces_1_1_node_manager_interface.html" target="_top" xlink:title="&quot;NodeManagerInterface&quot; declares the interfaces for all NodeOperations that are used for the communica...">
<polygon fill="white" stroke="black" points="269,-52 269,-86 423,-86 423,-52 269,-52"/>
<text text-anchor="start" x="277" y="-73" font-family="Helvetica,sans-Serif" font-size="10.00">mars::interfaces::NodeManager</text>
<text text-anchor="middle" x="346" y="-60" font-family="Helvetica,sans-Serif" font-size="10.00">Interface</text>
</a>
</g>
<!-- Node23&#45;&gt;Node10 -->
<g id="edge50" class="edge"><title>Node23&#45;&gt;Node10</title>
<path fill="none" stroke="#9a32cd" stroke-dasharray="5,2" d="M433.125,-78.9999C463.065,-85.878 495.243,-97.4707 520,-117 573.227,-158.988 601.303,-239.034 611.479,-273.975"/>
<polygon fill="#9a32cd" stroke="#9a32cd" points="433.583,-75.5186 423.071,-76.8434 432.115,-82.3629 433.583,-75.5186"/>
<text text-anchor="middle" x="481" y="-121" font-family="Helvetica,sans-Serif" font-size="10.00"> nodes</text>
</g>
<!-- Node24 -->
<g id="node49" class="node"><title>Node24</title>
<a xlink:href="../../dc/de5/classmars_1_1interfaces_1_1_simulator_interface.html" target="_top" xlink:title="mars::interfaces::Simulator\lInterface">
<polygon fill="white" stroke="black" points="279,-0 279,-34 413,-34 413,-0 279,-0"/>
<text text-anchor="start" x="287" y="-21" font-family="Helvetica,sans-Serif" font-size="10.00">mars::interfaces::Simulator</text>
<text text-anchor="middle" x="346" y="-8" font-family="Helvetica,sans-Serif" font-size="10.00">Interface</text>
</a>
</g>
<!-- Node24&#45;&gt;Node10 -->
<g id="edge52" class="edge"><title>Node24&#45;&gt;Node10</title>
<path fill="none" stroke="#9a32cd" stroke-dasharray="5,2" d="M423.435,-23.3927C456.447,-29.6247 493.399,-41.7093 520,-65 585.429,-122.286 607.541,-231.785 613.825,-273.905"/>
<polygon fill="#9a32cd" stroke="#9a32cd" points="423.783,-19.9009 413.332,-21.6405 422.587,-26.7979 423.783,-19.9009"/>
<text text-anchor="middle" x="481" y="-69" font-family="Helvetica,sans-Serif" font-size="10.00"> sim</text>
</g>
</g>
</svg>
