<?xml version="1.0" encoding="UTF-8" standalone="no"?>
<!DOCTYPE svg PUBLIC "-//W3C//DTD SVG 1.1//EN"
 "http://www.w3.org/Graphics/SVG/1.1/DTD/svg11.dtd">
<!-- Generated by graphviz version 2.26.3 (20100126.1600)
 -->
<!-- Title: /home/kavonszadkowski/limes&#45;dev/simulation/mars/common/gui/data_broker_gui/src/DataWidget.h Pages: 1 -->
<svg width="1158pt" height="142pt"
 viewBox="0.00 0.00 1158.00 142.00" xmlns="http://www.w3.org/2000/svg" xmlns:xlink="http://www.w3.org/1999/xlink">
<g id="graph1" class="graph" transform="scale(1 1) rotate(0) translate(4 138)">
<title>/home/kavonszadkowski/limes&#45;dev/simulation/mars/common/gui/data_broker_gui/src/DataWidget.h</title>
<polygon fill="white" stroke="white" points="-4,5 -4,-138 1155,-138 1155,5 -4,5"/>
<!-- Node1 -->
<g id="node1" class="node"><title>Node1</title>
<polygon fill="#bfbfbf" stroke="black" points="714,-73 714,-133 860,-133 860,-73 714,-73"/>
<text text-anchor="start" x="722" y="-120" font-family="Helvetica,sans-Serif" font-size="10.00">/home/kavonszadkowski</text>
<text text-anchor="start" x="722" y="-107" font-family="Helvetica,sans-Serif" font-size="10.00">/limes&#45;dev/simulation</text>
<text text-anchor="start" x="722" y="-94" font-family="Helvetica,sans-Serif" font-size="10.00">/mars/common/gui/data</text>
<text text-anchor="middle" x="787" y="-81" font-family="Helvetica,sans-Serif" font-size="10.00">_broker_gui/src/DataWidget.h</text>
</g>
<!-- Node2 -->
<g id="node3" class="node"><title>Node2</title>
<polygon fill="white" stroke="#bfbfbf" points="0,-7.5 0,-28.5 156,-28.5 156,-7.5 0,-7.5"/>
<text text-anchor="middle" x="78" y="-15.5" font-family="Helvetica,sans-Serif" font-size="10.00">mars/main_gui/PropertyDialog.h</text>
</g>
<!-- Node1&#45;&gt;Node2 -->
<g id="edge2" class="edge"><title>Node1&#45;&gt;Node2</title>
<path fill="none" stroke="midnightblue" d="M713.923,-97.434C597.379,-88.0399 362.428,-66.9823 165,-36 155.172,-34.4577 144.773,-32.5499 134.716,-30.5587"/>
<polygon fill="midnightblue" stroke="midnightblue" points="135.302,-27.1063 124.806,-28.5501 133.911,-33.9668 135.302,-27.1063"/>
</g>
<!-- Node3 -->
<g id="node5" class="node"><title>Node3</title>
<polygon fill="white" stroke="#bfbfbf" points="173.5,-7.5 173.5,-28.5 318.5,-28.5 318.5,-7.5 173.5,-7.5"/>
<text text-anchor="middle" x="246" y="-15.5" font-family="Helvetica,sans-Serif" font-size="10.00">mars/main_gui/BaseWidget.h</text>
</g>
<!-- Node1&#45;&gt;Node3 -->
<g id="edge4" class="edge"><title>Node1&#45;&gt;Node3</title>
<path fill="none" stroke="midnightblue" d="M713.829,-94.0419C622.846,-82.5128 462.931,-60.9674 327,-36 318.456,-34.4306 309.442,-32.6018 300.654,-30.7228"/>
<polygon fill="midnightblue" stroke="midnightblue" points="301.382,-27.2992 290.866,-28.5913 299.892,-34.1389 301.382,-27.2992"/>
</g>
<!-- Node4 -->
<g id="node7" class="node"><title>Node4</title>
<polygon fill="white" stroke="#bfbfbf" points="336,-1 336,-35 470,-35 470,-1 336,-1"/>
<text text-anchor="start" x="344" y="-22" font-family="Helvetica,sans-Serif" font-size="10.00">mars/data_broker/Receiver</text>
<text text-anchor="middle" x="403" y="-9" font-family="Helvetica,sans-Serif" font-size="10.00">Interface.h</text>
</g>
<!-- Node1&#45;&gt;Node4 -->
<g id="edge6" class="edge"><title>Node1&#45;&gt;Node4</title>
<path fill="none" stroke="midnightblue" d="M713.795,-87.4709C653.655,-74.6223 565.977,-55.6827 480.047,-36.2199"/>
<polygon fill="midnightblue" stroke="midnightblue" points="480.648,-32.7674 470.121,-33.9677 479.099,-39.5939 480.648,-32.7674"/>
</g>
<!-- Node5 -->
<g id="node9" class="node"><title>Node5</title>
<polygon fill="white" stroke="#bfbfbf" points="487.5,-7.5 487.5,-28.5 628.5,-28.5 628.5,-7.5 487.5,-7.5"/>
<text text-anchor="middle" x="558" y="-15.5" font-family="Helvetica,sans-Serif" font-size="10.00">mars/data_broker/DataInfo.h</text>
</g>
<!-- Node1&#45;&gt;Node5 -->
<g id="edge8" class="edge"><title>Node1&#45;&gt;Node5</title>
<path fill="none" stroke="midnightblue" d="M713.913,-75.8718C674.649,-61.2976 627.875,-43.9362 595.869,-32.0561"/>
<polygon fill="midnightblue" stroke="midnightblue" points="597.028,-28.7529 586.435,-28.5543 594.592,-35.3155 597.028,-28.7529"/>
</g>
<!-- Node6 -->
<g id="node11" class="node"><title>Node6</title>
<polygon fill="white" stroke="#bfbfbf" points="645.5,-7.5 645.5,-28.5 808.5,-28.5 808.5,-7.5 645.5,-7.5"/>
<text text-anchor="middle" x="727" y="-15.5" font-family="Helvetica,sans-Serif" font-size="10.00">mars/data_broker/DataPackage.h</text>
</g>
<!-- Node1&#45;&gt;Node6 -->
<g id="edge10" class="edge"><title>Node1&#45;&gt;Node6</title>
<path fill="none" stroke="midnightblue" d="M765.677,-72.7928C757.341,-60.9827 748.026,-47.7869 740.627,-37.3048"/>
<polygon fill="midnightblue" stroke="midnightblue" points="743.317,-35.0462 734.691,-28.8949 737.598,-39.083 743.317,-35.0462"/>
</g>
<!-- Node7 -->
<g id="node13" class="node"><title>Node7</title>
<polygon fill="white" stroke="#bfbfbf" points="826,-7.5 826,-28.5 870,-28.5 870,-7.5 826,-7.5"/>
<text text-anchor="middle" x="848" y="-15.5" font-family="Helvetica,sans-Serif" font-size="10.00">vector</text>
</g>
<!-- Node1&#45;&gt;Node7 -->
<g id="edge12" class="edge"><title>Node1&#45;&gt;Node7</title>
<path fill="none" stroke="midnightblue" d="M808.678,-72.7928C817.154,-60.9827 826.623,-47.7869 834.146,-37.3048"/>
<polygon fill="midnightblue" stroke="midnightblue" points="837.194,-39.06 840.181,-28.8949 831.507,-34.9787 837.194,-39.06"/>
</g>
<!-- Node8 -->
<g id="node15" class="node"><title>Node8</title>
<polygon fill="white" stroke="#bfbfbf" points="888,-7.5 888,-28.5 918,-28.5 918,-7.5 888,-7.5"/>
<text text-anchor="middle" x="903" y="-15.5" font-family="Helvetica,sans-Serif" font-size="10.00">set</text>
</g>
<!-- Node1&#45;&gt;Node8 -->
<g id="edge14" class="edge"><title>Node1&#45;&gt;Node8</title>
<path fill="none" stroke="midnightblue" d="M828.767,-72.7724C844.544,-61.3048 862.633,-48.0962 879,-36 879.613,-35.5473 880.233,-35.0875 880.86,-34.623"/>
<polygon fill="midnightblue" stroke="midnightblue" points="883.142,-37.2875 889.065,-28.5031 878.956,-31.6764 883.142,-37.2875"/>
</g>
<!-- Node9 -->
<g id="node17" class="node"><title>Node9</title>
<polygon fill="white" stroke="#bfbfbf" points="935.5,-7.5 935.5,-28.5 990.5,-28.5 990.5,-7.5 935.5,-7.5"/>
<text text-anchor="middle" x="963" y="-15.5" font-family="Helvetica,sans-Serif" font-size="10.00">QWidget</text>
</g>
<!-- Node1&#45;&gt;Node9 -->
<g id="edge16" class="edge"><title>Node1&#45;&gt;Node9</title>
<path fill="none" stroke="midnightblue" d="M850.532,-72.8803C874.537,-61.4251 902.07,-48.1969 927,-36 928.989,-35.0269 931.037,-34.019 933.099,-32.9996"/>
<polygon fill="midnightblue" stroke="midnightblue" points="934.693,-36.116 942.09,-28.5312 931.578,-29.8475 934.693,-36.116"/>
</g>
<!-- Node10 -->
<g id="node19" class="node"><title>Node10</title>
<polygon fill="white" stroke="#bfbfbf" points="1007.5,-7.5 1007.5,-28.5 1082.5,-28.5 1082.5,-7.5 1007.5,-7.5"/>
<text text-anchor="middle" x="1045" y="-15.5" font-family="Helvetica,sans-Serif" font-size="10.00">QCloseEvent</text>
</g>
<!-- Node1&#45;&gt;Node10 -->
<g id="edge18" class="edge"><title>Node1&#45;&gt;Node10</title>
<path fill="none" stroke="midnightblue" d="M860.007,-81.2465C901.068,-68.6824 953.141,-52.1986 999,-36 1002.34,-34.8218 1005.79,-33.556 1009.24,-32.2613"/>
<polygon fill="midnightblue" stroke="midnightblue" points="1010.75,-35.4293 1018.84,-28.5852 1008.25,-28.892 1010.75,-35.4293"/>
</g>
<!-- Node11 -->
<g id="node21" class="node"><title>Node11</title>
<polygon fill="white" stroke="#bfbfbf" points="1099.5,-7.5 1099.5,-28.5 1150.5,-28.5 1150.5,-7.5 1099.5,-7.5"/>
<text text-anchor="middle" x="1125" y="-15.5" font-family="Helvetica,sans-Serif" font-size="10.00">QMutex</text>
</g>
<!-- Node1&#45;&gt;Node11 -->
<g id="edge20" class="edge"><title>Node1&#45;&gt;Node11</title>
<path fill="none" stroke="midnightblue" d="M860.122,-92.5777C922.698,-82.3248 1014.52,-64.0829 1091,-36 1093.27,-35.1647 1095.59,-34.2047 1097.88,-33.172"/>
<polygon fill="midnightblue" stroke="midnightblue" points="1099.64,-36.2079 1107.07,-28.6514 1096.55,-29.9274 1099.64,-36.2079"/>
</g>
</g>
</svg>
