<?xml version="1.0" encoding="UTF-8" standalone="no"?>
<!DOCTYPE svg PUBLIC "-//W3C//DTD SVG 1.1//EN"
 "http://www.w3.org/Graphics/SVG/1.1/DTD/svg11.dtd">
<!-- Generated by graphviz version 2.26.3 (20100126.1600)
 -->
<!-- Title: /home/kavonszadkowski/limes&#45;dev/simulation/mars/plugins/cartest/build/CMakeFiles Pages: 1 -->
<svg width="314pt" height="113pt"
 viewBox="0.00 0.00 314.00 113.00" xmlns="http://www.w3.org/2000/svg" xmlns:xlink="http://www.w3.org/1999/xlink">
<g id="graph1" class="graph" transform="scale(1 1) rotate(0) translate(4 109)">
<title>/home/kavonszadkowski/limes&#45;dev/simulation/mars/plugins/cartest/build/CMakeFiles</title>
<polygon fill="white" stroke="white" points="-4,5 -4,-109 311,-109 311,5 -4,5"/>
<g id="graph2" class="cluster"><title>clusterdir_68eee83f15bbb4d0f227ff90d5d9e3bb</title>
<a xlink:href="dir_68eee83f15bbb4d0f227ff90d5d9e3bb.html" target="_top" xlink:title="build">
<polygon fill="#ddddee" stroke="black" points="8,-8 8,-97 298,-97 298,-8 8,-8"/>
<text text-anchor="middle" x="153" y="-84" font-family="Helvetica,sans-Serif" font-size="10.00">build</text>
</a>
</g>
<g id="graph3" class="cluster"><title>clusterdir_3b8fcf0aa568c1c39c683a743c704104</title>
<a xlink:href="dir_3b8fcf0aa568c1c39c683a743c704104.html" target="_top">
<polygon fill="#eeeeff" stroke="black" points="16,-16 16,-68 290,-68 290,-16 16,-16"/>
</a>
</g>
<!-- dir_3b8fcf0aa568c1c39c683a743c704104 -->
<g id="node3" class="node"><title>dir_3b8fcf0aa568c1c39c683a743c704104</title>
<text text-anchor="middle" x="248" y="-39.5" font-family="Helvetica,sans-Serif" font-size="10.00">CMakeFiles</text>
</g>
<!-- dir_5d8c538616799201fe6f2bf117568672 -->
<g id="node4" class="node"><title>dir_5d8c538616799201fe6f2bf117568672</title>
<a xlink:href="dir_5d8c538616799201fe6f2bf117568672.html" target="_top" xlink:title="CompilerIdC">
<polygon fill="white" stroke="black" points="196,-60 126,-60 126,-24 196,-24 196,-60"/>
<text text-anchor="middle" x="161" y="-39.5" font-family="Helvetica,sans-Serif" font-size="10.00">CompilerIdC</text>
</a>
</g>
<!-- dir_a489d3ea1d2ffce3210d9a29d36c1b05 -->
<g id="node5" class="node"><title>dir_a489d3ea1d2ffce3210d9a29d36c1b05</title>
<a xlink:href="dir_a489d3ea1d2ffce3210d9a29d36c1b05.html" target="_top" xlink:title="CompilerIdCXX">
<polygon fill="white" stroke="black" points="108,-60 24,-60 24,-24 108,-24 108,-60"/>
<text text-anchor="middle" x="66" y="-39.5" font-family="Helvetica,sans-Serif" font-size="10.00">CompilerIdCXX</text>
</a>
</g>
</g>
</svg>
