<?xml version="1.0" encoding="UTF-8" standalone="no"?>
<!DOCTYPE svg PUBLIC "-//W3C//DTD SVG 1.1//EN"
 "http://www.w3.org/Graphics/SVG/1.1/DTD/svg11.dtd">
<!-- Generated by graphviz version 2.36.0 (20140111.2315)
 -->
<!-- Title: /media/kavonszadkowski/work/marsdocs/mars/plugins/plugin_template Pages: 1 -->
<svg width="330pt" height="111pt"
 viewBox="0.00 0.00 330.00 111.00" xmlns="http://www.w3.org/2000/svg" xmlns:xlink="http://www.w3.org/1999/xlink">
<g id="graph0" class="graph" transform="scale(1 1) rotate(0) translate(4 107)">
<title>/media/kavonszadkowski/work/marsdocs/mars/plugins/plugin_template</title>
<polygon fill="white" stroke="none" points="-4,4 -4,-107 326,-107 326,4 -4,4"/>
<g id="clust1" class="cluster"><title>clusterdir_38c8d24aef3972a7f87b834274e76e31</title>
<g id="a_clust1"><a xlink:href="dir_38c8d24aef3972a7f87b834274e76e31.html" target="_top" xlink:title="plugins">
<polygon fill="#ddddee" stroke="black" points="8,-8 8,-95 314,-95 314,-8 8,-8"/>
<text text-anchor="middle" x="161" y="-83" font-family="Helvetica,sans-Serif" font-size="10.00">plugins</text>
</a>
</g>
</g>
<g id="clust2" class="cluster"><title>clusterdir_78bb556c96634456eb435024c5fd7c91</title>
<g id="a_clust2"><a xlink:href="dir_78bb556c96634456eb435024c5fd7c91.html" target="_top">
<polygon fill="#eeeeff" stroke="black" points="16,-16 16,-68 306,-68 306,-16 16,-16"/>
</a>
</g>
</g>
<!-- dir_78bb556c96634456eb435024c5fd7c91 -->
<g id="node1" class="node"><title>dir_78bb556c96634456eb435024c5fd7c91</title>
<text text-anchor="middle" x="255" y="-39.5" font-family="Helvetica,sans-Serif" font-size="10.00">plugin_template</text>
</g>
<!-- dir_1f78d20481c0c81e3eaa5928873fa53e -->
<g id="node2" class="node"><title>dir_1f78d20481c0c81e3eaa5928873fa53e</title>
<g id="a_node2"><a xlink:href="dir_1f78d20481c0c81e3eaa5928873fa53e.html" target="_top" xlink:title="__gui_project__">
<polygon fill="white" stroke="red" points="194.25,-60 109.75,-60 109.75,-24 194.25,-24 194.25,-60"/>
<text text-anchor="middle" x="152" y="-39.5" font-family="Helvetica,sans-Serif" font-size="10.00">__gui_project__</text>
</a>
</g>
</g>
<!-- dir_0709272d8fc83a37a6c57ede87e83a25 -->
<g id="node3" class="node"><title>dir_0709272d8fc83a37a6c57ede87e83a25</title>
<g id="a_node3"><a xlink:href="dir_0709272d8fc83a37a6c57ede87e83a25.html" target="_top" xlink:title="__project__">
<polygon fill="white" stroke="red" points="91.25,-60 24.75,-60 24.75,-24 91.25,-24 91.25,-60"/>
<text text-anchor="middle" x="58" y="-39.5" font-family="Helvetica,sans-Serif" font-size="10.00">__project__</text>
</a>
</g>
</g>
</g>
</svg>
