<?xml version="1.0" encoding="UTF-8" standalone="no"?>
<!DOCTYPE svg PUBLIC "-//W3C//DTD SVG 1.1//EN"
 "http://www.w3.org/Graphics/SVG/1.1/DTD/svg11.dtd">
<!-- Generated by graphviz version 2.26.3 (20100126.1600)
 -->
<!-- Title: /home/kavonszadkowski/limes&#45;dev/simulation/mars/plugins/constraint_plugin Pages: 1 -->
<svg width="376pt" height="113pt"
 viewBox="0.00 0.00 376.00 113.00" xmlns="http://www.w3.org/2000/svg" xmlns:xlink="http://www.w3.org/1999/xlink">
<g id="graph1" class="graph" transform="scale(1 1) rotate(0) translate(4 109)">
<title>/home/kavonszadkowski/limes&#45;dev/simulation/mars/plugins/constraint_plugin</title>
<polygon fill="white" stroke="white" points="-4,5 -4,-109 373,-109 373,5 -4,5"/>
<g id="graph2" class="cluster"><title>clusterdir_dd074179a7b877640c997812ac8ac560</title>
<a xlink:href="dir_dd074179a7b877640c997812ac8ac560.html" target="_top" xlink:title="plugins">
<polygon fill="#ddddee" stroke="black" points="8,-8 8,-97 360,-97 360,-8 8,-8"/>
<text text-anchor="middle" x="184" y="-84" font-family="Helvetica,sans-Serif" font-size="10.00">plugins</text>
</a>
</g>
<g id="graph3" class="cluster"><title>clusterdir_2773bc16769eabeeb60af54596c9b844</title>
<a xlink:href="dir_2773bc16769eabeeb60af54596c9b844.html" target="_top">
<polygon fill="#eeeeff" stroke="black" points="16,-16 16,-68 352,-68 352,-16 16,-16"/>
</a>
</g>
<!-- dir_2773bc16769eabeeb60af54596c9b844 -->
<g id="node3" class="node"><title>dir_2773bc16769eabeeb60af54596c9b844</title>
<text text-anchor="middle" x="299" y="-39.5" font-family="Helvetica,sans-Serif" font-size="10.00">constraint_plugin</text>
</g>
<!-- dir_fcd6ac1e0f09c3b1e4f29b3b936f3de8 -->
<g id="node4" class="node"><title>dir_fcd6ac1e0f09c3b1e4f29b3b936f3de8</title>
<a xlink:href="dir_fcd6ac1e0f09c3b1e4f29b3b936f3de8.html" target="_top" xlink:title="build">
<polygon fill="white" stroke="red" points="236,-60 182,-60 182,-24 236,-24 236,-60"/>
<text text-anchor="middle" x="209" y="-39.5" font-family="Helvetica,sans-Serif" font-size="10.00">build</text>
</a>
</g>
<!-- dir_a39120f9cbe035758cfe3a0d34f9f5d1 -->
<g id="node5" class="node"><title>dir_a39120f9cbe035758cfe3a0d34f9f5d1</title>
<a xlink:href="dir_a39120f9cbe035758cfe3a0d34f9f5d1.html" target="_top" xlink:title="CMakeFiles">
<polygon fill="white" stroke="red" points="164,-60 96,-60 96,-24 164,-24 164,-60"/>
<text text-anchor="middle" x="130" y="-39.5" font-family="Helvetica,sans-Serif" font-size="10.00">CMakeFiles</text>
</a>
</g>
<!-- dir_e9d814795e913627b117f3dad98e9be1 -->
<g id="node6" class="node"><title>dir_e9d814795e913627b117f3dad98e9be1</title>
<a xlink:href="dir_e9d814795e913627b117f3dad98e9be1.html" target="_top" xlink:title="src">
<polygon fill="white" stroke="black" points="78,-60 24,-60 24,-24 78,-24 78,-60"/>
<text text-anchor="middle" x="51" y="-39.5" font-family="Helvetica,sans-Serif" font-size="10.00">src</text>
</a>
</g>
</g>
</svg>
