<?xml version="1.0" encoding="UTF-8" standalone="no"?>
<!DOCTYPE svg PUBLIC "-//W3C//DTD SVG 1.1//EN"
 "http://www.w3.org/Graphics/SVG/1.1/DTD/svg11.dtd">
<!-- Generated by graphviz version 2.26.3 (20100126.1600)
 -->
<!-- Title: /home/kavonszadkowski/limes&#45;dev/simulation/mars/common/graphics/osg_text Pages: 1 -->
<svg width="254pt" height="113pt"
 viewBox="0.00 0.00 254.00 113.00" xmlns="http://www.w3.org/2000/svg" xmlns:xlink="http://www.w3.org/1999/xlink">
<g id="graph1" class="graph" transform="scale(1 1) rotate(0) translate(4 109)">
<title>/home/kavonszadkowski/limes&#45;dev/simulation/mars/common/graphics/osg_text</title>
<polygon fill="white" stroke="white" points="-4,5 -4,-109 251,-109 251,5 -4,5"/>
<g id="graph2" class="cluster"><title>clusterdir_36c96955dd9f4de6e866efd626c1ff63</title>
<a xlink:href="dir_36c96955dd9f4de6e866efd626c1ff63.html" target="_top" xlink:title="graphics">
<polygon fill="#ddddee" stroke="black" points="8,-8 8,-97 238,-97 238,-8 8,-8"/>
<text text-anchor="middle" x="123" y="-84" font-family="Helvetica,sans-Serif" font-size="10.00">graphics</text>
</a>
</g>
<g id="graph3" class="cluster"><title>clusterdir_7d0ff5b9ff11f94dfe72a8229a61ec1e</title>
<a xlink:href="dir_7d0ff5b9ff11f94dfe72a8229a61ec1e.html" target="_top">
<polygon fill="#eeeeff" stroke="black" points="16,-16 16,-68 230,-68 230,-16 16,-16"/>
</a>
</g>
<!-- dir_7d0ff5b9ff11f94dfe72a8229a61ec1e -->
<g id="node3" class="node"><title>dir_7d0ff5b9ff11f94dfe72a8229a61ec1e</title>
<text text-anchor="middle" x="195" y="-39.5" font-family="Helvetica,sans-Serif" font-size="10.00">osg_text</text>
</g>
<!-- dir_66797a029788e725b623df49f4e73b0a -->
<g id="node4" class="node"><title>dir_66797a029788e725b623df49f4e73b0a</title>
<a xlink:href="dir_66797a029788e725b623df49f4e73b0a.html" target="_top" xlink:title="build">
<polygon fill="white" stroke="red" points="150,-60 96,-60 96,-24 150,-24 150,-60"/>
<text text-anchor="middle" x="123" y="-39.5" font-family="Helvetica,sans-Serif" font-size="10.00">build</text>
</a>
</g>
<!-- dir_88a21cbb88bb8b2250ec85f79c7d781b -->
<g id="node5" class="node"><title>dir_88a21cbb88bb8b2250ec85f79c7d781b</title>
<a xlink:href="dir_88a21cbb88bb8b2250ec85f79c7d781b.html" target="_top" xlink:title="src">
<polygon fill="white" stroke="black" points="78,-60 24,-60 24,-24 78,-24 78,-60"/>
<text text-anchor="middle" x="51" y="-39.5" font-family="Helvetica,sans-Serif" font-size="10.00">src</text>
</a>
</g>
</g>
</svg>
