<?xml version="1.0" encoding="UTF-8" standalone="no"?>
<!DOCTYPE svg PUBLIC "-//W3C//DTD SVG 1.1//EN"
 "http://www.w3.org/Graphics/SVG/1.1/DTD/svg11.dtd">
<!-- Generated by graphviz version 2.26.3 (20100126.1600)
 -->
<!-- Title: /home/kavonszadkowski/limes&#45;dev/simulation/mars/common/gui/data_broker_gui/build/CMakeFiles Pages: 1 -->
<svg width="314pt" height="113pt"
 viewBox="0.00 0.00 314.00 113.00" xmlns="http://www.w3.org/2000/svg" xmlns:xlink="http://www.w3.org/1999/xlink">
<g id="graph1" class="graph" transform="scale(1 1) rotate(0) translate(4 109)">
<title>/home/kavonszadkowski/limes&#45;dev/simulation/mars/common/gui/data_broker_gui/build/CMakeFiles</title>
<polygon fill="white" stroke="white" points="-4,5 -4,-109 311,-109 311,5 -4,5"/>
<g id="graph2" class="cluster"><title>clusterdir_e902195b7854cbef87fb681ba7360c67</title>
<a xlink:href="dir_e902195b7854cbef87fb681ba7360c67.html" target="_top" xlink:title="build">
<polygon fill="#ddddee" stroke="black" points="8,-8 8,-97 298,-97 298,-8 8,-8"/>
<text text-anchor="middle" x="153" y="-84" font-family="Helvetica,sans-Serif" font-size="10.00">build</text>
</a>
</g>
<g id="graph3" class="cluster"><title>clusterdir_d2127389a481f29ec484e97718d747c0</title>
<a xlink:href="dir_d2127389a481f29ec484e97718d747c0.html" target="_top">
<polygon fill="#eeeeff" stroke="black" points="16,-16 16,-68 290,-68 290,-16 16,-16"/>
</a>
</g>
<!-- dir_d2127389a481f29ec484e97718d747c0 -->
<g id="node3" class="node"><title>dir_d2127389a481f29ec484e97718d747c0</title>
<text text-anchor="middle" x="248" y="-39.5" font-family="Helvetica,sans-Serif" font-size="10.00">CMakeFiles</text>
</g>
<!-- dir_02214663073984b868a7d56e143019c0 -->
<g id="node4" class="node"><title>dir_02214663073984b868a7d56e143019c0</title>
<a xlink:href="dir_02214663073984b868a7d56e143019c0.html" target="_top" xlink:title="CompilerIdC">
<polygon fill="white" stroke="black" points="196,-60 126,-60 126,-24 196,-24 196,-60"/>
<text text-anchor="middle" x="161" y="-39.5" font-family="Helvetica,sans-Serif" font-size="10.00">CompilerIdC</text>
</a>
</g>
<!-- dir_987548527ef55453a9b55fbd6ba4a2fd -->
<g id="node5" class="node"><title>dir_987548527ef55453a9b55fbd6ba4a2fd</title>
<a xlink:href="dir_987548527ef55453a9b55fbd6ba4a2fd.html" target="_top" xlink:title="CompilerIdCXX">
<polygon fill="white" stroke="black" points="108,-60 24,-60 24,-24 108,-24 108,-60"/>
<text text-anchor="middle" x="66" y="-39.5" font-family="Helvetica,sans-Serif" font-size="10.00">CompilerIdCXX</text>
</a>
</g>
</g>
</svg>
