<?xml version="1.0" encoding="UTF-8" standalone="no"?>
<!DOCTYPE svg PUBLIC "-//W3C//DTD SVG 1.1//EN"
 "http://www.w3.org/Graphics/SVG/1.1/DTD/svg11.dtd">
<!-- Generated by graphviz version 2.26.3 (20100126.1600)
 -->
<!-- Title: /home/kavonszadkowski/limes&#45;dev/simulation/mars/scene_loader/build/CMakeFiles Pages: 1 -->
<svg width="314pt" height="113pt"
 viewBox="0.00 0.00 314.00 113.00" xmlns="http://www.w3.org/2000/svg" xmlns:xlink="http://www.w3.org/1999/xlink">
<g id="graph1" class="graph" transform="scale(1 1) rotate(0) translate(4 109)">
<title>/home/kavonszadkowski/limes&#45;dev/simulation/mars/scene_loader/build/CMakeFiles</title>
<polygon fill="white" stroke="white" points="-4,5 -4,-109 311,-109 311,5 -4,5"/>
<g id="graph2" class="cluster"><title>clusterdir_cc9a8321463d8ae13a9da5faab45565f</title>
<a xlink:href="dir_cc9a8321463d8ae13a9da5faab45565f.html" target="_top" xlink:title="build">
<polygon fill="#ddddee" stroke="black" points="8,-8 8,-97 298,-97 298,-8 8,-8"/>
<text text-anchor="middle" x="153" y="-84" font-family="Helvetica,sans-Serif" font-size="10.00">build</text>
</a>
</g>
<g id="graph3" class="cluster"><title>clusterdir_5fb952a31467311ceadedb8076e86e9a</title>
<a xlink:href="dir_5fb952a31467311ceadedb8076e86e9a.html" target="_top">
<polygon fill="#eeeeff" stroke="black" points="16,-16 16,-68 290,-68 290,-16 16,-16"/>
</a>
</g>
<!-- dir_5fb952a31467311ceadedb8076e86e9a -->
<g id="node3" class="node"><title>dir_5fb952a31467311ceadedb8076e86e9a</title>
<text text-anchor="middle" x="248" y="-39.5" font-family="Helvetica,sans-Serif" font-size="10.00">CMakeFiles</text>
</g>
<!-- dir_052b2857d50b2cea7b452b639c42f69a -->
<g id="node4" class="node"><title>dir_052b2857d50b2cea7b452b639c42f69a</title>
<a xlink:href="dir_052b2857d50b2cea7b452b639c42f69a.html" target="_top" xlink:title="CompilerIdC">
<polygon fill="white" stroke="black" points="196,-60 126,-60 126,-24 196,-24 196,-60"/>
<text text-anchor="middle" x="161" y="-39.5" font-family="Helvetica,sans-Serif" font-size="10.00">CompilerIdC</text>
</a>
</g>
<!-- dir_a2ee85948d5bbb4a1c8087c9bf7d9ab4 -->
<g id="node5" class="node"><title>dir_a2ee85948d5bbb4a1c8087c9bf7d9ab4</title>
<a xlink:href="dir_a2ee85948d5bbb4a1c8087c9bf7d9ab4.html" target="_top" xlink:title="CompilerIdCXX">
<polygon fill="white" stroke="black" points="108,-60 24,-60 24,-24 108,-24 108,-60"/>
<text text-anchor="middle" x="66" y="-39.5" font-family="Helvetica,sans-Serif" font-size="10.00">CompilerIdCXX</text>
</a>
</g>
</g>
</svg>
