<?xml version="1.0" encoding="UTF-8" standalone="no"?>
<!DOCTYPE svg PUBLIC "-//W3C//DTD SVG 1.1//EN"
 "http://www.w3.org/Graphics/SVG/1.1/DTD/svg11.dtd">
<!-- Generated by graphviz version 2.36.0 (20140111.2315)
 -->
<!-- Title: /media/kavonszadkowski/work/marsdocs/mars/plugins Pages: 1 -->
<svg width="1121pt" height="76pt"
 viewBox="0.00 0.00 1121.00 76.00" xmlns="http://www.w3.org/2000/svg" xmlns:xlink="http://www.w3.org/1999/xlink">
<g id="graph0" class="graph" transform="scale(1 1) rotate(0) translate(4 72)">
<title>/media/kavonszadkowski/work/marsdocs/mars/plugins</title>
<polygon fill="white" stroke="none" points="-4,4 -4,-72 1117,-72 1117,4 -4,4"/>
<g id="clust1" class="cluster"><title>clusterdir_38c8d24aef3972a7f87b834274e76e31</title>
<g id="a_clust1"><a xlink:href="dir_38c8d24aef3972a7f87b834274e76e31.html" target="_top">
<polygon fill="#eeeeff" stroke="black" points="8,-8 8,-60 1105,-60 1105,-8 8,-8"/>
</a>
</g>
</g>
<!-- dir_38c8d24aef3972a7f87b834274e76e31 -->
<g id="node1" class="node"><title>dir_38c8d24aef3972a7f87b834274e76e31</title>
<text text-anchor="middle" x="1070" y="-31.5" font-family="Helvetica,sans-Serif" font-size="10.00">plugins</text>
</g>
<!-- dir_d0bfb66e44902296e5e0ac5e2833978a -->
<g id="node2" class="node"><title>dir_d0bfb66e44902296e5e0ac5e2833978a</title>
<g id="a_node2"><a xlink:href="dir_d0bfb66e44902296e5e0ac5e2833978a.html" target="_top" xlink:title="connectors">
<polygon fill="white" stroke="red" points="1024.25,-52 959.75,-52 959.75,-16 1024.25,-16 1024.25,-52"/>
<text text-anchor="middle" x="992" y="-31.5" font-family="Helvetica,sans-Serif" font-size="10.00">connectors</text>
</a>
</g>
</g>
<!-- dir_907533e0aea6fbcef5b990c34944c1ab -->
<g id="node3" class="node"><title>dir_907533e0aea6fbcef5b990c34944c1ab</title>
<g id="a_node3"><a xlink:href="dir_907533e0aea6fbcef5b990c34944c1ab.html" target="_top" xlink:title="connexion_plugin">
<polygon fill="white" stroke="red" points="941,-52 849,-52 849,-16 941,-16 941,-52"/>
<text text-anchor="middle" x="895" y="-31.5" font-family="Helvetica,sans-Serif" font-size="10.00">connexion_plugin</text>
</a>
</g>
</g>
<!-- dir_13f1ea7157698c2dc085ecf7c095d2e8 -->
<g id="node4" class="node"><title>dir_13f1ea7157698c2dc085ecf7c095d2e8</title>
<g id="a_node4"><a xlink:href="dir_13f1ea7157698c2dc085ecf7c095d2e8.html" target="_top" xlink:title="constraint_plugin">
<polygon fill="white" stroke="red" points="831,-52 741,-52 741,-16 831,-16 831,-52"/>
<text text-anchor="middle" x="786" y="-31.5" font-family="Helvetica,sans-Serif" font-size="10.00">constraint_plugin</text>
</a>
</g>
</g>
<!-- dir_268798f51558b18065d1546c549dd5e2 -->
<g id="node5" class="node"><title>dir_268798f51558b18065d1546c549dd5e2</title>
<g id="a_node5"><a xlink:href="dir_268798f51558b18065d1546c549dd5e2.html" target="_top" xlink:title="entity_view">
<polygon fill="white" stroke="red" points="723,-52 657,-52 657,-16 723,-16 723,-52"/>
<text text-anchor="middle" x="690" y="-31.5" font-family="Helvetica,sans-Serif" font-size="10.00">entity_view</text>
</a>
</g>
</g>
<!-- dir_059f1d977c3c2a26714cfab93784324a -->
<g id="node6" class="node"><title>dir_059f1d977c3c2a26714cfab93784324a</title>
<g id="a_node6"><a xlink:href="dir_059f1d977c3c2a26714cfab93784324a.html" target="_top" xlink:title="obstacle_generator">
<polygon fill="white" stroke="red" points="638.25,-52 539.75,-52 539.75,-16 638.25,-16 638.25,-52"/>
<text text-anchor="middle" x="589" y="-31.5" font-family="Helvetica,sans-Serif" font-size="10.00">obstacle_generator</text>
</a>
</g>
</g>
<!-- dir_d790fb1738791c382a416994a51e74ec -->
<g id="node7" class="node"><title>dir_d790fb1738791c382a416994a51e74ec</title>
<g id="a_node7"><a xlink:href="dir_d790fb1738791c382a416994a51e74ec.html" target="_top" xlink:title="Plot3D">
<polygon fill="white" stroke="red" points="521,-52 467,-52 467,-16 521,-16 521,-52"/>
<text text-anchor="middle" x="494" y="-31.5" font-family="Helvetica,sans-Serif" font-size="10.00">Plot3D</text>
</a>
</g>
</g>
<!-- dir_78bb556c96634456eb435024c5fd7c91 -->
<g id="node8" class="node"><title>dir_78bb556c96634456eb435024c5fd7c91</title>
<g id="a_node8"><a xlink:href="dir_78bb556c96634456eb435024c5fd7c91.html" target="_top" xlink:title="plugin_template">
<polygon fill="white" stroke="red" points="448.25,-52 363.75,-52 363.75,-16 448.25,-16 448.25,-52"/>
<text text-anchor="middle" x="406" y="-31.5" font-family="Helvetica,sans-Serif" font-size="10.00">plugin_template</text>
</a>
</g>
</g>
<!-- dir_702ce5edea038b8b44d1ab06a7a4b600 -->
<g id="node9" class="node"><title>dir_702ce5edea038b8b44d1ab06a7a4b600</title>
<g id="a_node9"><a xlink:href="dir_702ce5edea038b8b44d1ab06a7a4b600.html" target="_top" xlink:title="SkyDomePlugin">
<polygon fill="white" stroke="red" points="345.25,-52 258.75,-52 258.75,-16 345.25,-16 345.25,-52"/>
<text text-anchor="middle" x="302" y="-31.5" font-family="Helvetica,sans-Serif" font-size="10.00">SkyDomePlugin</text>
</a>
</g>
</g>
<!-- dir_550bc38f8b35910a6b633c59a7572c71 -->
<g id="node10" class="node"><title>dir_550bc38f8b35910a6b633c59a7572c71</title>
<g id="a_node10"><a xlink:href="dir_550bc38f8b35910a6b633c59a7572c71.html" target="_top" xlink:title="TerrainPlugin">
<polygon fill="white" stroke="red" points="240,-52 166,-52 166,-16 240,-16 240,-52"/>
<text text-anchor="middle" x="203" y="-31.5" font-family="Helvetica,sans-Serif" font-size="10.00">TerrainPlugin</text>
</a>
</g>
</g>
<!-- dir_e17c689e5824d0256f989ebc51d42b49 -->
<g id="node11" class="node"><title>dir_e17c689e5824d0256f989ebc51d42b49</title>
<g id="a_node11"><a xlink:href="dir_e17c689e5824d0256f989ebc51d42b49.html" target="_top" xlink:title="Text3D">
<polygon fill="white" stroke="red" points="148,-52 94,-52 94,-16 148,-16 148,-52"/>
<text text-anchor="middle" x="121" y="-31.5" font-family="Helvetica,sans-Serif" font-size="10.00">Text3D</text>
</a>
</g>
</g>
<!-- dir_7dca2cbdf4636aba246f396a96607cc7 -->
<g id="node12" class="node"><title>dir_7dca2cbdf4636aba246f396a96607cc7</title>
<g id="a_node12"><a xlink:href="dir_7dca2cbdf4636aba246f396a96607cc7.html" target="_top" xlink:title="viz_plugin">
<polygon fill="white" stroke="red" points="75.5,-52 16.5,-52 16.5,-16 75.5,-16 75.5,-52"/>
<text text-anchor="middle" x="46" y="-31.5" font-family="Helvetica,sans-Serif" font-size="10.00">viz_plugin</text>
</a>
</g>
</g>
</g>
</svg>
