<?xml version="1.0" encoding="UTF-8" standalone="no"?>
<!DOCTYPE svg PUBLIC "-//W3C//DTD SVG 1.1//EN"
 "http://www.w3.org/Graphics/SVG/1.1/DTD/svg11.dtd">
<!-- Generated by graphviz version 2.36.0 (20140111.2315)
 -->
<!-- Title: /media/kavonszadkowski/work/marsdocs/mars/common/graphics Pages: 1 -->
<svg width="736pt" height="111pt"
 viewBox="0.00 0.00 736.00 111.00" xmlns="http://www.w3.org/2000/svg" xmlns:xlink="http://www.w3.org/1999/xlink">
<g id="graph0" class="graph" transform="scale(1 1) rotate(0) translate(4 107)">
<title>/media/kavonszadkowski/work/marsdocs/mars/common/graphics</title>
<polygon fill="white" stroke="none" points="-4,4 -4,-107 732,-107 732,4 -4,4"/>
<g id="clust1" class="cluster"><title>clusterdir_bdd9a5d540de89e9fe90efdfc6973a4f</title>
<g id="a_clust1"><a xlink:href="dir_bdd9a5d540de89e9fe90efdfc6973a4f.html" target="_top" xlink:title="common">
<polygon fill="#ddddee" stroke="black" points="8,-8 8,-95 720,-95 720,-8 8,-8"/>
<text text-anchor="middle" x="364" y="-83" font-family="Helvetica,sans-Serif" font-size="10.00">common</text>
</a>
</g>
</g>
<g id="clust2" class="cluster"><title>clusterdir_66415d2c8fd0b420a3afa0ec1d896874</title>
<g id="a_clust2"><a xlink:href="dir_66415d2c8fd0b420a3afa0ec1d896874.html" target="_top">
<polygon fill="#eeeeff" stroke="black" points="16,-16 16,-68 712,-68 712,-16 16,-16"/>
</a>
</g>
</g>
<!-- dir_66415d2c8fd0b420a3afa0ec1d896874 -->
<g id="node1" class="node"><title>dir_66415d2c8fd0b420a3afa0ec1d896874</title>
<text text-anchor="middle" x="677" y="-39.5" font-family="Helvetica,sans-Serif" font-size="10.00">graphics</text>
</g>
<!-- dir_1cd62bb89d17421c80540dd4a6b2b320 -->
<g id="node2" class="node"><title>dir_1cd62bb89d17421c80540dd4a6b2b320</title>
<g id="a_node2"><a xlink:href="dir_1cd62bb89d17421c80540dd4a6b2b320.html" target="_top" xlink:title="osg_lines">
<polygon fill="white" stroke="red" points="631.5,-60 574.5,-60 574.5,-24 631.5,-24 631.5,-60"/>
<text text-anchor="middle" x="603" y="-39.5" font-family="Helvetica,sans-Serif" font-size="10.00">osg_lines</text>
</a>
</g>
</g>
<!-- dir_1bef7ce728ea1d59053cf7001c8ae25a -->
<g id="node3" class="node"><title>dir_1bef7ce728ea1d59053cf7001c8ae25a</title>
<g id="a_node3"><a xlink:href="dir_1bef7ce728ea1d59053cf7001c8ae25a.html" target="_top" xlink:title="osg_material_manager">
<polygon fill="white" stroke="red" points="556.25,-60 441.75,-60 441.75,-24 556.25,-24 556.25,-60"/>
<text text-anchor="middle" x="499" y="-39.5" font-family="Helvetica,sans-Serif" font-size="10.00">osg_material_manager</text>
</a>
</g>
</g>
<!-- dir_605ac4f81434c003eba197dac9030218 -->
<g id="node4" class="node"><title>dir_605ac4f81434c003eba197dac9030218</title>
<g id="a_node4"><a xlink:href="dir_605ac4f81434c003eba197dac9030218.html" target="_top" xlink:title="osg_plot">
<polygon fill="white" stroke="red" points="423,-60 369,-60 369,-24 423,-24 423,-60"/>
<text text-anchor="middle" x="396" y="-39.5" font-family="Helvetica,sans-Serif" font-size="10.00">osg_plot</text>
</a>
</g>
</g>
<!-- dir_caa2a5f50f823c1b9f80c032d334000d -->
<g id="node5" class="node"><title>dir_caa2a5f50f823c1b9f80c032d334000d</title>
<g id="a_node5"><a xlink:href="dir_caa2a5f50f823c1b9f80c032d334000d.html" target="_top" xlink:title="osg_points">
<polygon fill="white" stroke="red" points="351,-60 287,-60 287,-24 351,-24 351,-60"/>
<text text-anchor="middle" x="319" y="-39.5" font-family="Helvetica,sans-Serif" font-size="10.00">osg_points</text>
</a>
</g>
</g>
<!-- dir_64f962507a676ca6b883383e4a8ee2a3 -->
<g id="node6" class="node"><title>dir_64f962507a676ca6b883383e4a8ee2a3</title>
<g id="a_node6"><a xlink:href="dir_64f962507a676ca6b883383e4a8ee2a3.html" target="_top" xlink:title="osg_terrain">
<polygon fill="white" stroke="red" points="268.25,-60 203.75,-60 203.75,-24 268.25,-24 268.25,-60"/>
<text text-anchor="middle" x="236" y="-39.5" font-family="Helvetica,sans-Serif" font-size="10.00">osg_terrain</text>
</a>
</g>
</g>
<!-- dir_6ca661ddefc6a286eb21b8c840b229a7 -->
<g id="node7" class="node"><title>dir_6ca661ddefc6a286eb21b8c840b229a7</title>
<g id="a_node7"><a xlink:href="dir_6ca661ddefc6a286eb21b8c840b229a7.html" target="_top" xlink:title="osg_text">
<polygon fill="white" stroke="red" points="185,-60 131,-60 131,-24 185,-24 185,-60"/>
<text text-anchor="middle" x="158" y="-39.5" font-family="Helvetica,sans-Serif" font-size="10.00">osg_text</text>
</a>
</g>
</g>
<!-- dir_29c198473240dcbc428a44b604cdcd00 -->
<g id="node8" class="node"><title>dir_29c198473240dcbc428a44b604cdcd00</title>
<g id="a_node8"><a xlink:href="dir_29c198473240dcbc428a44b604cdcd00.html" target="_top" xlink:title="osg_text_factory">
<polygon fill="white" stroke="red" points="112.25,-60 23.75,-60 23.75,-24 112.25,-24 112.25,-60"/>
<text text-anchor="middle" x="68" y="-39.5" font-family="Helvetica,sans-Serif" font-size="10.00">osg_text_factory</text>
</a>
</g>
</g>
</g>
</svg>
