<?xml version="1.0" encoding="UTF-8" standalone="no"?>
<!DOCTYPE svg PUBLIC "-//W3C//DTD SVG 1.1//EN"
 "http://www.w3.org/Graphics/SVG/1.1/DTD/svg11.dtd">
<!-- Generated by graphviz version 2.36.0 (20140111.2315)
 -->
<!-- Title: /media/kavonszadkowski/work/marsdocs/mars/sim/src/core Pages: 1 -->
<svg width="150pt" height="151pt"
 viewBox="0.00 0.00 150.00 151.00" xmlns="http://www.w3.org/2000/svg" xmlns:xlink="http://www.w3.org/1999/xlink">
<g id="graph0" class="graph" transform="scale(1 1) rotate(0) translate(4 147)">
<title>/media/kavonszadkowski/work/marsdocs/mars/sim/src/core</title>
<polygon fill="white" stroke="none" points="-4,4 -4,-147 146,-147 146,4 -4,4"/>
<g id="clust1" class="cluster"><title>clusterdir_bbe7e76ac704e498e556bc6c3d574345</title>
<g id="a_clust1"><a xlink:href="dir_bbe7e76ac704e498e556bc6c3d574345.html" target="_top" xlink:title="src">
<polygon fill="#ddddee" stroke="black" points="8,-64 8,-135 78,-135 78,-64 8,-64"/>
<text text-anchor="middle" x="43" y="-123" font-family="Helvetica,sans-Serif" font-size="10.00">src</text>
</a>
</g>
</g>
<!-- dir_bc14bb1aa0fb50c41ac8c0b66b7e15a2 -->
<g id="node1" class="node"><title>dir_bc14bb1aa0fb50c41ac8c0b66b7e15a2</title>
<g id="a_node1"><a xlink:href="dir_bc14bb1aa0fb50c41ac8c0b66b7e15a2.html" target="_top" xlink:title="core">
<polygon fill="#eeeeff" stroke="black" points="70,-108 16,-108 16,-72 70,-72 70,-108"/>
<text text-anchor="middle" x="43" y="-87.5" font-family="Helvetica,sans-Serif" font-size="10.00">core</text>
</a>
</g>
</g>
<!-- dir_b60d478dccbb5745c590c201945dabca -->
<g id="node2" class="node"><title>dir_b60d478dccbb5745c590c201945dabca</title>
<g id="a_node2"><a xlink:href="dir_b60d478dccbb5745c590c201945dabca.html" target="_top" xlink:title="physics">
<polygon fill="none" stroke="black" points="142,-108 88,-108 88,-72 142,-72 142,-108"/>
<text text-anchor="middle" x="115" y="-87.5" font-family="Helvetica,sans-Serif" font-size="10.00">physics</text>
</a>
</g>
</g>
<!-- dir_bc14bb1aa0fb50c41ac8c0b66b7e15a2&#45;&gt;dir_b60d478dccbb5745c590c201945dabca -->
<g id="edge2" class="edge"><title>dir_bc14bb1aa0fb50c41ac8c0b66b7e15a2&#45;&gt;dir_b60d478dccbb5745c590c201945dabca</title>
<path fill="none" stroke="black" d="M70.2812,-90C72.7377,-90 75.1942,-90 77.6507,-90"/>
<polygon fill="black" stroke="black" points="77.7495,-93.5001 87.7495,-90 77.7495,-86.5001 77.7495,-93.5001"/>
<g id="a_edge2&#45;headlabel"><a xlink:href="dir_000104_000107.html" target="_top" xlink:title="3">
<text text-anchor="middle" x="74.1549" y="-93.8393" font-family="Helvetica,sans-Serif" font-size="10.00">3</text>
</a>
</g>
</g>
<!-- dir_1c52a8a88909a5b73e396f5132e75e8b -->
<g id="node3" class="node"><title>dir_1c52a8a88909a5b73e396f5132e75e8b</title>
<g id="a_node3"><a xlink:href="dir_1c52a8a88909a5b73e396f5132e75e8b.html" target="_top" xlink:title="sensors">
<polygon fill="none" stroke="black" points="106,-36 52,-36 52,-0 106,-0 106,-36"/>
<text text-anchor="middle" x="79" y="-15.5" font-family="Helvetica,sans-Serif" font-size="10.00">sensors</text>
</a>
</g>
</g>
<!-- dir_bc14bb1aa0fb50c41ac8c0b66b7e15a2&#45;&gt;dir_1c52a8a88909a5b73e396f5132e75e8b -->
<g id="edge3" class="edge"><title>dir_bc14bb1aa0fb50c41ac8c0b66b7e15a2&#45;&gt;dir_1c52a8a88909a5b73e396f5132e75e8b</title>
<path fill="none" stroke="black" d="M45.9832,-71.6966C49.294,-63.6436 54.0975,-53.8945 59.0908,-44.9824"/>
<polygon fill="black" stroke="black" points="62.2591,-46.4991 64.3085,-36.1043 56.2242,-42.9523 62.2591,-46.4991"/>
<g id="a_edge3&#45;headlabel"><a xlink:href="dir_000104_000108.html" target="_top" xlink:title="21">
<text text-anchor="middle" x="62.8857" y="-48.5367" font-family="Helvetica,sans-Serif" font-size="10.00">21</text>
</a>
</g>
</g>
<!-- dir_b60d478dccbb5745c590c201945dabca&#45;&gt;dir_1c52a8a88909a5b73e396f5132e75e8b -->
<g id="edge1" class="edge"><title>dir_b60d478dccbb5745c590c201945dabca&#45;&gt;dir_1c52a8a88909a5b73e396f5132e75e8b</title>
<path fill="none" stroke="black" d="M106.101,-71.6966C102.003,-63.7284 97.0512,-54.0995 92.5073,-45.2641"/>
<polygon fill="black" stroke="black" points="95.4826,-43.3965 87.7965,-36.1043 89.2575,-46.598 95.4826,-43.3965"/>
<g id="a_edge1&#45;headlabel"><a xlink:href="dir_000107_000108.html" target="_top" xlink:title="1">
<text text-anchor="middle" x="99.6514" y="-42.7946" font-family="Helvetica,sans-Serif" font-size="10.00">1</text>
</a>
</g>
</g>
<!-- dir_1c52a8a88909a5b73e396f5132e75e8b&#45;&gt;dir_bc14bb1aa0fb50c41ac8c0b66b7e15a2 -->
<g id="edge4" class="edge"><title>dir_1c52a8a88909a5b73e396f5132e75e8b&#45;&gt;dir_bc14bb1aa0fb50c41ac8c0b66b7e15a2</title>
<path fill="none" stroke="black" d="M76.0985,-36.1043C72.8124,-44.1291 68.0229,-53.871 63.0328,-62.7967"/>
<polygon fill="black" stroke="black" points="59.8533,-61.2998 57.8146,-71.6966 65.8919,-64.8403 59.8533,-61.2998"/>
<g id="a_edge4&#45;headlabel"><a xlink:href="dir_000108_000104.html" target="_top" xlink:title="2">
<text text-anchor="middle" x="59.222" y="-54.2628" font-family="Helvetica,sans-Serif" font-size="10.00">2</text>
</a>
</g>
</g>
</g>
</svg>
