<?xml version="1.0" encoding="UTF-8" standalone="no"?>
<!DOCTYPE svg PUBLIC "-//W3C//DTD SVG 1.1//EN"
 "http://www.w3.org/Graphics/SVG/1.1/DTD/svg11.dtd">
<!-- Generated by graphviz version 2.26.3 (20100126.1600)
 -->
<!-- Title: /home/kavonszadkowski/limes&#45;dev/simulation/mars/common/gui/config_map_gui Pages: 1 -->
<svg width="284pt" height="113pt"
 viewBox="0.00 0.00 284.00 113.00" xmlns="http://www.w3.org/2000/svg" xmlns:xlink="http://www.w3.org/1999/xlink">
<g id="graph1" class="graph" transform="scale(1 1) rotate(0) translate(4 109)">
<title>/home/kavonszadkowski/limes&#45;dev/simulation/mars/common/gui/config_map_gui</title>
<polygon fill="white" stroke="white" points="-4,5 -4,-109 281,-109 281,5 -4,5"/>
<g id="graph2" class="cluster"><title>clusterdir_a2b2fbe9bd58d62a7c69a3ccd20870ad</title>
<a xlink:href="dir_a2b2fbe9bd58d62a7c69a3ccd20870ad.html" target="_top" xlink:title="gui">
<polygon fill="#ddddee" stroke="black" points="8,-8 8,-97 268,-97 268,-8 8,-8"/>
<text text-anchor="middle" x="138" y="-84" font-family="Helvetica,sans-Serif" font-size="10.00">gui</text>
</a>
</g>
<g id="graph3" class="cluster"><title>clusterdir_c5810f0000357ec0f2c6b8c3ac80d8f9</title>
<a xlink:href="dir_c5810f0000357ec0f2c6b8c3ac80d8f9.html" target="_top">
<polygon fill="#eeeeff" stroke="black" points="16,-16 16,-68 260,-68 260,-16 16,-16"/>
</a>
</g>
<!-- dir_c5810f0000357ec0f2c6b8c3ac80d8f9 -->
<g id="node3" class="node"><title>dir_c5810f0000357ec0f2c6b8c3ac80d8f9</title>
<text text-anchor="middle" x="210" y="-39.5" font-family="Helvetica,sans-Serif" font-size="10.00">config_map_gui</text>
</g>
<!-- dir_3d20eec931cd31a8b7b364708f7b4ac4 -->
<g id="node4" class="node"><title>dir_3d20eec931cd31a8b7b364708f7b4ac4</title>
<a xlink:href="dir_3d20eec931cd31a8b7b364708f7b4ac4.html" target="_top" xlink:title="build">
<polygon fill="white" stroke="red" points="150,-60 96,-60 96,-24 150,-24 150,-60"/>
<text text-anchor="middle" x="123" y="-39.5" font-family="Helvetica,sans-Serif" font-size="10.00">build</text>
</a>
</g>
<!-- dir_e7170e2e1ee7ac6b90d762873b4eb2bf -->
<g id="node5" class="node"><title>dir_e7170e2e1ee7ac6b90d762873b4eb2bf</title>
<a xlink:href="dir_e7170e2e1ee7ac6b90d762873b4eb2bf.html" target="_top" xlink:title="src">
<polygon fill="white" stroke="black" points="78,-60 24,-60 24,-24 78,-24 78,-60"/>
<text text-anchor="middle" x="51" y="-39.5" font-family="Helvetica,sans-Serif" font-size="10.00">src</text>
</a>
</g>
</g>
</svg>
