<?xml version="1.0" encoding="UTF-8" standalone="no"?>
<!DOCTYPE svg PUBLIC "-//W3C//DTD SVG 1.1//EN"
 "http://www.w3.org/Graphics/SVG/1.1/DTD/svg11.dtd">
<!-- Generated by graphviz version 2.26.3 (20100126.1600)
 -->
<!-- Title: /home/kavonszadkowski/limes&#45;dev/simulation/mars/sim/src Pages: 1 -->
<svg width="258pt" height="257pt"
 viewBox="0.00 0.00 258.00 257.00" xmlns="http://www.w3.org/2000/svg" xmlns:xlink="http://www.w3.org/1999/xlink">
<g id="graph1" class="graph" transform="scale(1 1) rotate(0) translate(4 253)">
<title>/home/kavonszadkowski/limes&#45;dev/simulation/mars/sim/src</title>
<polygon fill="white" stroke="white" points="-4,5 -4,-253 255,-253 255,5 -4,5"/>
<g id="graph2" class="cluster"><title>clusterdir_95ed74897c4a33f9b28a9e7d18ec7151</title>
<a xlink:href="dir_95ed74897c4a33f9b28a9e7d18ec7151.html" target="_top" xlink:title="sim">
<polygon fill="#ddddee" stroke="black" points="8,-8 8,-241 242,-241 242,-8 8,-8"/>
<text text-anchor="middle" x="125" y="-228" font-family="Helvetica,sans-Serif" font-size="10.00">sim</text>
</a>
</g>
<g id="graph3" class="cluster"><title>clusterdir_c70d98a9a9c5ea83d353f04f72053e55</title>
<a xlink:href="dir_c70d98a9a9c5ea83d353f04f72053e55.html" target="_top">
<polygon fill="#eeeeff" stroke="black" points="16,-16 16,-212 234,-212 234,-16 16,-16"/>
</a>
</g>
<!-- dir_c70d98a9a9c5ea83d353f04f72053e55 -->
<g id="node3" class="node"><title>dir_c70d98a9a9c5ea83d353f04f72053e55</title>
<text text-anchor="middle" x="199" y="-183.5" font-family="Helvetica,sans-Serif" font-size="10.00">src</text>
</g>
<!-- dir_953de810d1de7a29957f5321cc9bd767 -->
<g id="node4" class="node"><title>dir_953de810d1de7a29957f5321cc9bd767</title>
<a xlink:href="dir_953de810d1de7a29957f5321cc9bd767.html" target="_top" xlink:title="core">
<polygon fill="white" stroke="black" points="154,-204 100,-204 100,-168 154,-168 154,-204"/>
<text text-anchor="middle" x="127" y="-183.5" font-family="Helvetica,sans-Serif" font-size="10.00">core</text>
</a>
</g>
<!-- dir_25b6eee03c586e6977c502f246879129 -->
<g id="node6" class="node"><title>dir_25b6eee03c586e6977c502f246879129</title>
<a xlink:href="dir_25b6eee03c586e6977c502f246879129.html" target="_top" xlink:title="physics">
<polygon fill="white" stroke="black" points="108,-132 54,-132 54,-96 108,-96 108,-132"/>
<text text-anchor="middle" x="81" y="-111.5" font-family="Helvetica,sans-Serif" font-size="10.00">physics</text>
</a>
</g>
<!-- dir_953de810d1de7a29957f5321cc9bd767&#45;&gt;dir_25b6eee03c586e6977c502f246879129 -->
<g id="edge8" class="edge"><title>dir_953de810d1de7a29957f5321cc9bd767&#45;&gt;dir_25b6eee03c586e6977c502f246879129</title>
<path fill="none" stroke="black" d="M115.392,-167.831C110.202,-159.708 103.977,-149.964 98.2575,-141.012"/>
<polygon fill="black" stroke="black" points="101.097,-138.956 92.764,-132.413 95.1985,-142.725 101.097,-138.956"/>
<a xlink:href="dir_000352_000355.html" target="_top" xlink:title="3">
<text text-anchor="middle" x="105.425" y="-137.956" font-family="Helvetica,sans-Serif" font-size="10.00">3</text>
</a>
</g>
<!-- dir_2ba9134cf738c16e34eb1b7b70b5dc58 -->
<g id="node7" class="node"><title>dir_2ba9134cf738c16e34eb1b7b70b5dc58</title>
<a xlink:href="dir_2ba9134cf738c16e34eb1b7b70b5dc58.html" target="_top" xlink:title="sensors">
<polygon fill="white" stroke="black" points="154,-60 100,-60 100,-24 154,-24 154,-60"/>
<text text-anchor="middle" x="127" y="-39.5" font-family="Helvetica,sans-Serif" font-size="10.00">sensors</text>
</a>
</g>
<!-- dir_953de810d1de7a29957f5321cc9bd767&#45;&gt;dir_2ba9134cf738c16e34eb1b7b70b5dc58 -->
<g id="edge10" class="edge"><title>dir_953de810d1de7a29957f5321cc9bd767&#45;&gt;dir_2ba9134cf738c16e34eb1b7b70b5dc58</title>
<path fill="none" stroke="black" d="M122.327,-167.762C119.867,-143.201 119.592,-99.2474 121.503,-70.3541"/>
<polygon fill="black" stroke="black" points="125.015,-70.3416 122.342,-60.0896 118.038,-69.7712 125.015,-70.3416"/>
<a xlink:href="dir_000352_000356.html" target="_top" xlink:title="20">
<text text-anchor="middle" x="127.552" y="-71.6556" font-family="Helvetica,sans-Serif" font-size="10.00">20</text>
</a>
</g>
<!-- dir_6c1077e38c40f17639d8f7f9a408da14 -->
<g id="node5" class="node"><title>dir_6c1077e38c40f17639d8f7f9a408da14</title>
<a xlink:href="dir_6c1077e38c40f17639d8f7f9a408da14.html" target="_top" xlink:title="interfaces">
<polygon fill="white" stroke="red" points="82,-204 24,-204 24,-168 82,-168 82,-204"/>
<text text-anchor="middle" x="53" y="-183.5" font-family="Helvetica,sans-Serif" font-size="10.00">interfaces</text>
</a>
</g>
<!-- dir_25b6eee03c586e6977c502f246879129&#45;&gt;dir_2ba9134cf738c16e34eb1b7b70b5dc58 -->
<g id="edge4" class="edge"><title>dir_25b6eee03c586e6977c502f246879129&#45;&gt;dir_2ba9134cf738c16e34eb1b7b70b5dc58</title>
<path fill="none" stroke="black" d="M92.6077,-95.8314C97.7978,-87.7079 104.023,-77.9637 109.742,-69.0118"/>
<polygon fill="black" stroke="black" points="112.801,-70.7246 115.236,-60.4133 106.903,-66.9559 112.801,-70.7246"/>
<a xlink:href="dir_000355_000356.html" target="_top" xlink:title="1">
<text text-anchor="middle" x="113.259" y="-72.7824" font-family="Helvetica,sans-Serif" font-size="10.00">1</text>
</a>
</g>
<!-- dir_2ba9134cf738c16e34eb1b7b70b5dc58&#45;&gt;dir_953de810d1de7a29957f5321cc9bd767 -->
<g id="edge6" class="edge"><title>dir_2ba9134cf738c16e34eb1b7b70b5dc58&#45;&gt;dir_953de810d1de7a29957f5321cc9bd767</title>
<path fill="none" stroke="black" d="M131.658,-60.0896C134.127,-84.5727 134.41,-128.517 132.509,-157.471"/>
<polygon fill="black" stroke="black" points="128.994,-157.512 131.673,-167.762 135.971,-158.078 128.994,-157.512"/>
<a xlink:href="dir_000356_000352.html" target="_top" xlink:title="2">
<text text-anchor="middle" x="126.455" y="-151.199" font-family="Helvetica,sans-Serif" font-size="10.00">2</text>
</a>
</g>
</g>
</svg>
