<?xml version="1.0" encoding="UTF-8" standalone="no"?>
<!DOCTYPE svg PUBLIC "-//W3C//DTD SVG 1.1//EN"
 "http://www.w3.org/Graphics/SVG/1.1/DTD/svg11.dtd">
<!-- Generated by graphviz version 2.26.3 (20100126.1600)
 -->
<!-- Title: /home/kavonszadkowski/limes&#45;dev/simulation/mars/graphics/src/wrapper Pages: 1 -->
<svg width="154pt" height="153pt"
 viewBox="0.00 0.00 154.00 153.00" xmlns="http://www.w3.org/2000/svg" xmlns:xlink="http://www.w3.org/1999/xlink">
<g id="graph1" class="graph" transform="scale(1 1) rotate(0) translate(4 149)">
<title>/home/kavonszadkowski/limes&#45;dev/simulation/mars/graphics/src/wrapper</title>
<polygon fill="white" stroke="white" points="-4,5 -4,-149 151,-149 151,5 -4,5"/>
<g id="graph2" class="cluster"><title>clusterdir_b339196c334b57af40aa8a5683f16ac3</title>
<a xlink:href="dir_b339196c334b57af40aa8a5683f16ac3.html" target="_top" xlink:title="src">
<polygon fill="#ddddee" stroke="black" points="38,-64 38,-137 108,-137 108,-64 38,-64"/>
<text text-anchor="middle" x="73" y="-124" font-family="Helvetica,sans-Serif" font-size="10.00">src</text>
</a>
</g>
<!-- dir_73e09f0422ae28484fdc135fb0700268 -->
<g id="node2" class="node"><title>dir_73e09f0422ae28484fdc135fb0700268</title>
<a xlink:href="dir_73e09f0422ae28484fdc135fb0700268.html" target="_top" xlink:title="wrapper">
<polygon fill="#eeeeff" stroke="black" points="100,-108 46,-108 46,-72 100,-72 100,-108"/>
<text text-anchor="middle" x="73" y="-87.5" font-family="Helvetica,sans-Serif" font-size="10.00">wrapper</text>
</a>
</g>
<!-- dir_4021fb7707d74f51d33a13611a9182c3 -->
<g id="node3" class="node"><title>dir_4021fb7707d74f51d33a13611a9182c3</title>
<a xlink:href="dir_4021fb7707d74f51d33a13611a9182c3.html" target="_top" xlink:title="2d_objects">
<polygon fill="none" stroke="black" points="64,-36 3.19744e-14,-36 0,-1.77636e-14 64,-3.55271e-15 64,-36"/>
<text text-anchor="middle" x="32" y="-15.5" font-family="Helvetica,sans-Serif" font-size="10.00">2d_objects</text>
</a>
</g>
<!-- dir_73e09f0422ae28484fdc135fb0700268&#45;&gt;dir_4021fb7707d74f51d33a13611a9182c3 -->
<g id="edge3" class="edge"><title>dir_73e09f0422ae28484fdc135fb0700268&#45;&gt;dir_4021fb7707d74f51d33a13611a9182c3</title>
<path fill="none" stroke="black" d="M62.654,-71.8314C58.0763,-63.7925 52.5948,-54.1666 47.5412,-45.2918"/>
<polygon fill="black" stroke="black" points="50.4752,-43.3712 42.4853,-36.4133 44.3923,-46.8351 50.4752,-43.3712"/>
<a xlink:href="dir_000266_000262.html" target="_top" xlink:title="5">
<text text-anchor="middle" x="54.7212" y="-42.5899" font-family="Helvetica,sans-Serif" font-size="10.00">5</text>
</a>
</g>
<!-- dir_650920238d2587e0742dc59f13fd957a -->
<g id="node4" class="node"><title>dir_650920238d2587e0742dc59f13fd957a</title>
<a xlink:href="dir_650920238d2587e0742dc59f13fd957a.html" target="_top" xlink:title="3d_objects">
<polygon fill="none" stroke="black" points="146,-36 82,-36 82,-1.77636e-14 146,-3.55271e-15 146,-36"/>
<text text-anchor="middle" x="114" y="-15.5" font-family="Helvetica,sans-Serif" font-size="10.00">3d_objects</text>
</a>
</g>
<!-- dir_73e09f0422ae28484fdc135fb0700268&#45;&gt;dir_650920238d2587e0742dc59f13fd957a -->
<g id="edge5" class="edge"><title>dir_73e09f0422ae28484fdc135fb0700268&#45;&gt;dir_650920238d2587e0742dc59f13fd957a</title>
<path fill="none" stroke="black" d="M77.3936,-71.8314C81.2279,-63.7079 86.5743,-53.9637 92.0589,-45.0118"/>
<polygon fill="black" stroke="black" points="95.1158,-46.7274 97.5387,-36.4133 89.2127,-42.9653 95.1158,-46.7274"/>
<a xlink:href="dir_000266_000263.html" target="_top" xlink:title="8">
<text text-anchor="middle" x="95.5784" y="-48.7846" font-family="Helvetica,sans-Serif" font-size="10.00">8</text>
</a>
</g>
<!-- dir_650920238d2587e0742dc59f13fd957a&#45;&gt;dir_73e09f0422ae28484fdc135fb0700268 -->
<g id="edge7" class="edge"><title>dir_650920238d2587e0742dc59f13fd957a&#45;&gt;dir_73e09f0422ae28484fdc135fb0700268</title>
<path fill="none" stroke="black" d="M109.491,-36.4133C105.626,-44.569 100.263,-54.3212 94.7763,-63.257"/>
<polygon fill="black" stroke="black" points="91.7327,-61.52 89.2984,-71.8314 97.6317,-65.2886 91.7327,-61.52"/>
<a xlink:href="dir_000263_000266.html" target="_top" xlink:title="3">
<text text-anchor="middle" x="91.2753" y="-54.4622" font-family="Helvetica,sans-Serif" font-size="10.00">3</text>
</a>
</g>
</g>
</svg>
