<?xml version="1.0" encoding="UTF-8" standalone="no"?>
<!DOCTYPE svg PUBLIC "-//W3C//DTD SVG 1.1//EN"
 "http://www.w3.org/Graphics/SVG/1.1/DTD/svg11.dtd">
<!-- Generated by graphviz version 2.26.3 (20100126.1600)
 -->
<!-- Title: /home/kavonszadkowski/limes&#45;dev/simulation/mars/common/gui Pages: 1 -->
<svg width="806pt" height="113pt"
 viewBox="0.00 0.00 806.00 113.00" xmlns="http://www.w3.org/2000/svg" xmlns:xlink="http://www.w3.org/1999/xlink">
<g id="graph1" class="graph" transform="scale(1 1) rotate(0) translate(4 109)">
<title>/home/kavonszadkowski/limes&#45;dev/simulation/mars/common/gui</title>
<polygon fill="white" stroke="white" points="-4,5 -4,-109 803,-109 803,5 -4,5"/>
<g id="graph2" class="cluster"><title>clusterdir_0ab92c6f862ab1693038b78399076583</title>
<a xlink:href="dir_0ab92c6f862ab1693038b78399076583.html" target="_top" xlink:title="common">
<polygon fill="#ddddee" stroke="black" points="8,-8 8,-97 790,-97 790,-8 8,-8"/>
<text text-anchor="middle" x="399" y="-84" font-family="Helvetica,sans-Serif" font-size="10.00">common</text>
</a>
</g>
<g id="graph3" class="cluster"><title>clusterdir_a2b2fbe9bd58d62a7c69a3ccd20870ad</title>
<a xlink:href="dir_a2b2fbe9bd58d62a7c69a3ccd20870ad.html" target="_top">
<polygon fill="#eeeeff" stroke="black" points="16,-16 16,-68 782,-68 782,-16 16,-16"/>
</a>
</g>
<!-- dir_a2b2fbe9bd58d62a7c69a3ccd20870ad -->
<g id="node3" class="node"><title>dir_a2b2fbe9bd58d62a7c69a3ccd20870ad</title>
<text text-anchor="middle" x="747" y="-39.5" font-family="Helvetica,sans-Serif" font-size="10.00">gui</text>
</g>
<!-- dir_541023e4bec9d949660178bef176b37d -->
<g id="node4" class="node"><title>dir_541023e4bec9d949660178bef176b37d</title>
<a xlink:href="dir_541023e4bec9d949660178bef176b37d.html" target="_top" xlink:title="cfg_manager_gui">
<polygon fill="white" stroke="red" points="702,-60 612,-60 612,-24 702,-24 702,-60"/>
<text text-anchor="middle" x="657" y="-39.5" font-family="Helvetica,sans-Serif" font-size="10.00">cfg_manager_gui</text>
</a>
</g>
<!-- dir_c5810f0000357ec0f2c6b8c3ac80d8f9 -->
<g id="node5" class="node"><title>dir_c5810f0000357ec0f2c6b8c3ac80d8f9</title>
<a xlink:href="dir_c5810f0000357ec0f2c6b8c3ac80d8f9.html" target="_top" xlink:title="config_map_gui">
<polygon fill="white" stroke="red" points="594,-60 510,-60 510,-24 594,-24 594,-60"/>
<text text-anchor="middle" x="552" y="-39.5" font-family="Helvetica,sans-Serif" font-size="10.00">config_map_gui</text>
</a>
</g>
<!-- dir_27c40f202671cd429560371042b57968 -->
<g id="node6" class="node"><title>dir_27c40f202671cd429560371042b57968</title>
<a xlink:href="dir_27c40f202671cd429560371042b57968.html" target="_top" xlink:title="data_broker_gui">
<polygon fill="white" stroke="red" points="492,-60 406,-60 406,-24 492,-24 492,-60"/>
<text text-anchor="middle" x="449" y="-39.5" font-family="Helvetica,sans-Serif" font-size="10.00">data_broker_gui</text>
</a>
</g>
<!-- dir_a26c356a184c5a1eefad9f71ba2a11b4 -->
<g id="node7" class="node"><title>dir_a26c356a184c5a1eefad9f71ba2a11b4</title>
<a xlink:href="dir_a26c356a184c5a1eefad9f71ba2a11b4.html" target="_top" xlink:title="data_broker_plotter">
<polygon fill="white" stroke="red" points="388,-60 288,-60 288,-24 388,-24 388,-60"/>
<text text-anchor="middle" x="338" y="-39.5" font-family="Helvetica,sans-Serif" font-size="10.00">data_broker_plotter</text>
</a>
</g>
<!-- dir_4494dbab04fd72432b247496d9f39d08 -->
<g id="node8" class="node"><title>dir_4494dbab04fd72432b247496d9f39d08</title>
<a xlink:href="dir_4494dbab04fd72432b247496d9f39d08.html" target="_top" xlink:title="lib_manager_gui">
<polygon fill="white" stroke="red" points="270,-60 184,-60 184,-24 270,-24 270,-60"/>
<text text-anchor="middle" x="227" y="-39.5" font-family="Helvetica,sans-Serif" font-size="10.00">lib_manager_gui</text>
</a>
</g>
<!-- dir_8c0ab40136ee4792f44669677c16225f -->
<g id="node9" class="node"><title>dir_8c0ab40136ee4792f44669677c16225f</title>
<a xlink:href="dir_8c0ab40136ee4792f44669677c16225f.html" target="_top" xlink:title="log_console">
<polygon fill="white" stroke="red" points="166,-60 98,-60 98,-24 166,-24 166,-60"/>
<text text-anchor="middle" x="132" y="-39.5" font-family="Helvetica,sans-Serif" font-size="10.00">log_console</text>
</a>
</g>
<!-- dir_14dde18a7a62e3d57b53fd618deca720 -->
<g id="node10" class="node"><title>dir_14dde18a7a62e3d57b53fd618deca720</title>
<a xlink:href="dir_14dde18a7a62e3d57b53fd618deca720.html" target="_top" xlink:title="main_gui">
<polygon fill="white" stroke="red" points="80,-60 24,-60 24,-24 80,-24 80,-60"/>
<text text-anchor="middle" x="52" y="-39.5" font-family="Helvetica,sans-Serif" font-size="10.00">main_gui</text>
</a>
</g>
</g>
</svg>
