<?xml version="1.0" encoding="UTF-8" standalone="no"?>
<!DOCTYPE svg PUBLIC "-//W3C//DTD SVG 1.1//EN"
 "http://www.w3.org/Graphics/SVG/1.1/DTD/svg11.dtd">
<!-- Generated by graphviz version 2.36.0 (20140111.2315)
 -->
<!-- Title: /media/kavonszadkowski/work/marsdocs/mars/entity_generation Pages: 1 -->
<svg width="376pt" height="76pt"
 viewBox="0.00 0.00 376.00 76.00" xmlns="http://www.w3.org/2000/svg" xmlns:xlink="http://www.w3.org/1999/xlink">
<g id="graph0" class="graph" transform="scale(1 1) rotate(0) translate(4 72)">
<title>/media/kavonszadkowski/work/marsdocs/mars/entity_generation</title>
<polygon fill="white" stroke="none" points="-4,4 -4,-72 372,-72 372,4 -4,4"/>
<g id="clust1" class="cluster"><title>clusterdir_7ef73d313d10c46d70dc997f57546f50</title>
<g id="a_clust1"><a xlink:href="dir_7ef73d313d10c46d70dc997f57546f50.html" target="_top">
<polygon fill="#eeeeff" stroke="black" points="8,-8 8,-60 360,-60 360,-8 8,-8"/>
</a>
</g>
</g>
<!-- dir_7ef73d313d10c46d70dc997f57546f50 -->
<g id="node1" class="node"><title>dir_7ef73d313d10c46d70dc997f57546f50</title>
<text text-anchor="middle" x="306" y="-31.5" font-family="Helvetica,sans-Serif" font-size="10.00">entity_generation</text>
</g>
<!-- dir_2be7a477816ae81235e225fb18453602 -->
<g id="node2" class="node"><title>dir_2be7a477816ae81235e225fb18453602</title>
<g id="a_node2"><a xlink:href="dir_2be7a477816ae81235e225fb18453602.html" target="_top" xlink:title="entity_factory">
<polygon fill="white" stroke="red" points="242,-52 166,-52 166,-16 242,-16 242,-52"/>
<text text-anchor="middle" x="204" y="-31.5" font-family="Helvetica,sans-Serif" font-size="10.00">entity_factory</text>
</a>
</g>
</g>
<!-- dir_976610b6f76557fc0455420648d27322 -->
<g id="node3" class="node"><title>dir_976610b6f76557fc0455420648d27322</title>
<g id="a_node3"><a xlink:href="dir_976610b6f76557fc0455420648d27322.html" target="_top" xlink:title="primitives">
<polygon fill="white" stroke="red" points="147.25,-52 88.75,-52 88.75,-16 147.25,-16 147.25,-52"/>
<text text-anchor="middle" x="118" y="-31.5" font-family="Helvetica,sans-Serif" font-size="10.00">primitives</text>
</a>
</g>
</g>
<!-- dir_29902d73aea0c52c2a5d64d63aa3874c -->
<g id="node4" class="node"><title>dir_29902d73aea0c52c2a5d64d63aa3874c</title>
<g id="a_node4"><a xlink:href="dir_29902d73aea0c52c2a5d64d63aa3874c.html" target="_top" xlink:title="smurf">
<polygon fill="white" stroke="red" points="70,-52 16,-52 16,-16 70,-16 70,-52"/>
<text text-anchor="middle" x="43" y="-31.5" font-family="Helvetica,sans-Serif" font-size="10.00">smurf</text>
</a>
</g>
</g>
</g>
</svg>
