<?xml version="1.0" encoding="UTF-8" standalone="no"?>
<!DOCTYPE svg PUBLIC "-//W3C//DTD SVG 1.1//EN"
 "http://www.w3.org/Graphics/SVG/1.1/DTD/svg11.dtd">
<!-- Generated by graphviz version 2.40.1 (20161225.0304)
 -->
<!-- Title: Graph Legend Pages: 1 -->
<svg width="435pt" height="159pt"
 viewBox="0.00 0.00 435.00 159.00" xmlns="http://www.w3.org/2000/svg" xmlns:xlink="http://www.w3.org/1999/xlink">
<g id="graph0" class="graph" transform="scale(1 1) rotate(0) translate(4 155)">
<title>Graph Legend</title>
<polygon fill="#ffffff" stroke="transparent" points="-4,4 -4,-155 431,-155 431,4 -4,4"/>
<!-- Node9 -->
<g id="node1" class="node">
<title>Node9</title>
<polygon fill="#bfbfbf" stroke="#000000" points="248,-19 202,-19 202,0 248,0 248,-19"/>
<text text-anchor="middle" x="225" y="-7" font-family="Helvetica,sans-Serif" font-size="10.00" fill="#000000">Inherited</text>
</g>
<!-- Node10 -->
<g id="node2" class="node">
<title>Node10</title>
<g id="a_node2"><a xlink:href="$classPublicBase.html" xlink:title="PublicBase">
<polygon fill="none" stroke="#000000" points="54,-85 0,-85 0,-66 54,-66 54,-85"/>
<text text-anchor="middle" x="27" y="-73" font-family="Helvetica,sans-Serif" font-size="10.00" fill="#000000">PublicBase</text>
</a>
</g>
</g>
<!-- Node10&#45;&gt;Node9 -->
<g id="edge1" class="edge">
<title>Node10&#45;&gt;Node9</title>
<path fill="none" stroke="#191970" d="M63.6085,-63.2972C104.0374,-49.8209 167.8976,-28.5341 201.9009,-17.1997"/>
<polygon fill="#191970" stroke="#191970" points="62.4959,-59.9786 54.1159,-66.4614 64.7096,-66.6194 62.4959,-59.9786"/>
</g>
<!-- Node11 -->
<g id="node3" class="node">
<title>Node11</title>
<g id="a_node3"><a xlink:href="$classTruncated.html" xlink:title="Truncated">
<polygon fill="none" stroke="#ff0000" points="52,-151 2,-151 2,-132 52,-132 52,-151"/>
<text text-anchor="middle" x="27" y="-139" font-family="Helvetica,sans-Serif" font-size="10.00" fill="#000000">Truncated</text>
</a>
</g>
</g>
<!-- Node11&#45;&gt;Node10 -->
<g id="edge2" class="edge">
<title>Node11&#45;&gt;Node10</title>
<path fill="none" stroke="#191970" d="M27,-121.732C27,-109.6966 27,-94.847 27,-85.2785"/>
<polygon fill="#191970" stroke="#191970" points="23.5001,-121.7614 27,-131.7615 30.5001,-121.7615 23.5001,-121.7614"/>
</g>
<!-- Node13 -->
<g id="node4" class="node">
<title>Node13</title>
<g id="a_node4"><a xlink:href="$classProtectedBase.html" xlink:title="ProtectedBase">
<polygon fill="none" stroke="#000000" points="138,-85 72,-85 72,-66 138,-66 138,-85"/>
<text text-anchor="middle" x="105" y="-73" font-family="Helvetica,sans-Serif" font-size="10.00" fill="#000000">ProtectedBase</text>
</a>
</g>
</g>
<!-- Node13&#45;&gt;Node9 -->
<g id="edge3" class="edge">
<title>Node13&#45;&gt;Node9</title>
<path fill="none" stroke="#006400" d="M131.3942,-60.9832C154.5367,-48.2548 187.5246,-30.1114 207.5299,-19.1085"/>
<polygon fill="#006400" stroke="#006400" points="129.5245,-58.017 122.449,-65.903 132.8979,-64.1506 129.5245,-58.017"/>
</g>
<!-- Node14 -->
<g id="node5" class="node">
<title>Node14</title>
<g id="a_node5"><a xlink:href="$classPrivateBase.html" xlink:title="PrivateBase">
<polygon fill="none" stroke="#000000" points="213.5,-85 156.5,-85 156.5,-66 213.5,-66 213.5,-85"/>
<text text-anchor="middle" x="185" y="-73" font-family="Helvetica,sans-Serif" font-size="10.00" fill="#000000">PrivateBase</text>
</a>
</g>
</g>
<!-- Node14&#45;&gt;Node9 -->
<g id="edge4" class="edge">
<title>Node14&#45;&gt;Node9</title>
<path fill="none" stroke="#8b1a1a" d="M196.0963,-57.1911C203.5348,-44.9176 213.0379,-29.2375 219.0736,-19.2785"/>
<polygon fill="#8b1a1a" stroke="#8b1a1a" points="193.092,-55.3954 190.9021,-65.7615 199.0784,-59.0236 193.092,-55.3954"/>
</g>
<!-- Node15 -->
<g id="node6" class="node">
<title>Node15</title>
<polygon fill="none" stroke="#bfbfbf" points="298.5,-85 231.5,-85 231.5,-66 298.5,-66 298.5,-85"/>
<text text-anchor="middle" x="265" y="-73" font-family="Helvetica,sans-Serif" font-size="10.00" fill="#000000">Undocumented</text>
</g>
<!-- Node15&#45;&gt;Node9 -->
<g id="edge5" class="edge">
<title>Node15&#45;&gt;Node9</title>
<path fill="none" stroke="#191970" d="M253.9037,-57.1911C246.4652,-44.9176 236.9621,-29.2375 230.9264,-19.2785"/>
<polygon fill="#191970" stroke="#191970" points="250.9216,-59.0236 259.0979,-65.7615 256.908,-55.3954 250.9216,-59.0236"/>
</g>
<!-- Node16 -->
<g id="node7" class="node">
<title>Node16</title>
<g id="a_node7"><a xlink:href="$classTempl.html" xlink:title="Templ&lt; int &gt;">
<polygon fill="none" stroke="#000000" points="375,-85 317,-85 317,-66 375,-66 375,-85"/>
<text text-anchor="middle" x="346" y="-73" font-family="Helvetica,sans-Serif" font-size="10.00" fill="#000000">Templ&lt; int &gt;</text>
</a>
</g>
</g>
<!-- Node16&#45;&gt;Node9 -->
<g id="edge6" class="edge">
<title>Node16&#45;&gt;Node9</title>
<path fill="none" stroke="#191970" d="M319.3859,-60.9832C296.0505,-48.2548 262.7876,-30.1114 242.6157,-19.1085"/>
<polygon fill="#191970" stroke="#191970" points="317.9506,-64.1871 328.4056,-65.903 321.3026,-58.0418 317.9506,-64.1871"/>
</g>
<!-- Node17 -->
<g id="node8" class="node">
<title>Node17</title>
<g id="a_node8"><a xlink:href="$classTempl.html" xlink:title="Templ&lt; T &gt;">
<polygon fill="none" stroke="#000000" points="373.5,-151 318.5,-151 318.5,-132 373.5,-132 373.5,-151"/>
<text text-anchor="middle" x="346" y="-139" font-family="Helvetica,sans-Serif" font-size="10.00" fill="#000000">Templ&lt; T &gt;</text>
</a>
</g>
</g>
<!-- Node17&#45;&gt;Node16 -->
<g id="edge7" class="edge">
<title>Node17&#45;&gt;Node16</title>
<path fill="none" stroke="#ffa500" stroke-dasharray="5,2" d="M346,-121.732C346,-109.6966 346,-94.847 346,-85.2785"/>
<polygon fill="#ffa500" stroke="#ffa500" points="342.5001,-121.7614 346,-131.7615 349.5001,-121.7615 342.5001,-121.7614"/>
<text text-anchor="middle" x="356.5" y="-106" font-family="Helvetica,sans-Serif" font-size="10.00" fill="#000000">&lt; int &gt;</text>
</g>
<!-- Node18 -->
<g id="node9" class="node">
<title>Node18</title>
<g id="a_node9"><a xlink:href="$classUsed.html" xlink:title="Used">
<polygon fill="none" stroke="#000000" points="427,-85 393,-85 393,-66 427,-66 427,-85"/>
<text text-anchor="middle" x="410" y="-73" font-family="Helvetica,sans-Serif" font-size="10.00" fill="#000000">Used</text>
</a>
</g>
</g>
<!-- Node18&#45;&gt;Node9 -->
<g id="edge8" class="edge">
<title>Node18&#45;&gt;Node9</title>
<path fill="none" stroke="#9a32cd" stroke-dasharray="5,2" d="M383.2401,-65.7468C329.4409,-46.381 277.4234,-27.9801 248.1953,-17.6698"/>
<polygon fill="#9a32cd" stroke="#9a32cd" points="382.351,-69.1467 392.9454,-69.244 384.724,-62.5611 382.351,-69.1467"/>
<text text-anchor="middle" x="354" y="-40" font-family="Helvetica,sans-Serif" font-size="10.00" fill="#000000">m_usedClass</text>
</g>
</g>
</svg>
