<?xml version="1.0" encoding="UTF-8" standalone="no"?>
<!DOCTYPE svg PUBLIC "-//W3C//DTD SVG 1.1//EN"
 "http://www.w3.org/Graphics/SVG/1.1/DTD/svg11.dtd">
<!-- Generated by graphviz version 2.26.3 (20100126.1600)
 -->
<!-- Title: Graphical Class Hierarchy Pages: 1 -->
<svg width="346pt" height="190pt"
 viewBox="0.00 0.00 346.00 190.00" xmlns="http://www.w3.org/2000/svg" xmlns:xlink="http://www.w3.org/1999/xlink">
<g id="graph1" class="graph" transform="scale(1 1) rotate(0) translate(4 186)">
<title>Graphical Class Hierarchy</title>
<polygon fill="white" stroke="white" points="-4,5 -4,-186 343,-186 343,5 -4,5"/>
<!-- Node1 -->
<g id="node1" class="node"><title>Node1</title>
<a xlink:href="dd/dbd/classmars_1_1graphics_1_1_h_u_d_element.html" target="_top" xlink:title="mars::graphics::HUDElement">
<polygon fill="white" stroke="black" points="0,-80.5 0,-101.5 146,-101.5 146,-80.5 0,-80.5"/>
<text text-anchor="middle" x="73" y="-88.5" font-family="Helvetica,sans-Serif" font-size="10.00">mars::graphics::HUDElement</text>
</a>
</g>
<!-- Node2 -->
<g id="node3" class="node"><title>Node2</title>
<a xlink:href="dd/daa/classmars_1_1graphics_1_1_h_u_d_label.html" target="_top" xlink:title="mars::graphics::HUDLabel">
<polygon fill="white" stroke="black" points="193.5,-160.5 193.5,-181.5 326.5,-181.5 326.5,-160.5 193.5,-160.5"/>
<text text-anchor="middle" x="260" y="-168.5" font-family="Helvetica,sans-Serif" font-size="10.00">mars::graphics::HUDLabel</text>
</a>
</g>
<!-- Node1&#45;&gt;Node2 -->
<g id="edge2" class="edge"><title>Node1&#45;&gt;Node2</title>
<path fill="none" stroke="midnightblue" d="M97.8779,-107.072C119.415,-120.396 151.774,-139.029 182,-151 191.228,-154.655 201.337,-157.821 211.129,-160.488"/>
<polygon fill="midnightblue" stroke="midnightblue" points="99.6791,-104.07 89.3478,-101.722 95.9594,-110 99.6791,-104.07"/>
</g>
<!-- Node3 -->
<g id="node5" class="node"><title>Node3</title>
<a xlink:href="d5/d9d/classmars_1_1graphics_1_1_h_u_d_lines.html" target="_top" xlink:title="mars::graphics::HUDLines">
<polygon fill="white" stroke="black" points="193.5,-120.5 193.5,-141.5 326.5,-141.5 326.5,-120.5 193.5,-120.5"/>
<text text-anchor="middle" x="260" y="-128.5" font-family="Helvetica,sans-Serif" font-size="10.00">mars::graphics::HUDLines</text>
</a>
</g>
<!-- Node1&#45;&gt;Node3 -->
<g id="edge4" class="edge"><title>Node1&#45;&gt;Node3</title>
<path fill="none" stroke="midnightblue" d="M132.008,-103.622C157.384,-109.05 186.703,-115.321 210.872,-120.491"/>
<polygon fill="midnightblue" stroke="midnightblue" points="132.643,-100.179 122.132,-101.51 131.179,-107.024 132.643,-100.179"/>
</g>
<!-- Node4 -->
<g id="node7" class="node"><title>Node4</title>
<a xlink:href="d5/dbc/classmars_1_1graphics_1_1_h_u_d_o_s_g_node.html" target="_top" xlink:title="mars::graphics::HUDOSGNode">
<polygon fill="white" stroke="black" points="182.5,-80.5 182.5,-101.5 337.5,-101.5 337.5,-80.5 182.5,-80.5"/>
<text text-anchor="middle" x="260" y="-88.5" font-family="Helvetica,sans-Serif" font-size="10.00">mars::graphics::HUDOSGNode</text>
</a>
</g>
<!-- Node1&#45;&gt;Node4 -->
<g id="edge6" class="edge"><title>Node1&#45;&gt;Node4</title>
<path fill="none" stroke="midnightblue" d="M156.22,-91C164.901,-91 173.702,-91 182.318,-91"/>
<polygon fill="midnightblue" stroke="midnightblue" points="156.103,-87.5001 146.103,-91 156.102,-94.5001 156.103,-87.5001"/>
</g>
<!-- Node5 -->
<g id="node9" class="node"><title>Node5</title>
<a xlink:href="d9/d00/classmars_1_1graphics_1_1_h_u_d_terminal.html" target="_top" xlink:title="mars::graphics::HUDTerminal">
<polygon fill="white" stroke="black" points="186.5,-40.5 186.5,-61.5 333.5,-61.5 333.5,-40.5 186.5,-40.5"/>
<text text-anchor="middle" x="260" y="-48.5" font-family="Helvetica,sans-Serif" font-size="10.00">mars::graphics::HUDTerminal</text>
</a>
</g>
<!-- Node1&#45;&gt;Node5 -->
<g id="edge8" class="edge"><title>Node1&#45;&gt;Node5</title>
<path fill="none" stroke="midnightblue" d="M132.008,-78.378C157.384,-72.9499 186.703,-66.6785 210.872,-61.5087"/>
<polygon fill="midnightblue" stroke="midnightblue" points="131.179,-74.9761 122.132,-80.4905 132.643,-81.8212 131.179,-74.9761"/>
</g>
<!-- Node6 -->
<g id="node11" class="node"><title>Node6</title>
<a xlink:href="dd/da6/classmars_1_1graphics_1_1_h_u_d_texture.html" target="_top" xlink:title="mars::graphics::HUDTexture">
<polygon fill="white" stroke="black" points="188.5,-0.5 188.5,-21.5 331.5,-21.5 331.5,-0.5 188.5,-0.5"/>
<text text-anchor="middle" x="260" y="-8.5" font-family="Helvetica,sans-Serif" font-size="10.00">mars::graphics::HUDTexture</text>
</a>
</g>
<!-- Node1&#45;&gt;Node6 -->
<g id="edge10" class="edge"><title>Node1&#45;&gt;Node6</title>
<path fill="none" stroke="midnightblue" d="M97.8779,-74.9279C119.415,-61.6036 151.774,-42.9709 182,-31 191.228,-27.3451 201.337,-24.1792 211.129,-21.5121"/>
<polygon fill="midnightblue" stroke="midnightblue" points="95.9594,-71.9997 89.3478,-80.2784 99.6791,-77.9296 95.9594,-71.9997"/>
</g>
</g>
</svg>
