<?xml version="1.0" encoding="UTF-8" standalone="no"?>
<!DOCTYPE svg PUBLIC "-//W3C//DTD SVG 1.1//EN"
 "http://www.w3.org/Graphics/SVG/1.1/DTD/svg11.dtd">
<!-- Generated by graphviz version 2.36.0 (20140111.2315)
 -->
<!-- Title: Graphical Class Hierarchy Pages: 1 -->
<svg width="346pt" height="180pt"
 viewBox="0.00 0.00 346.00 180.00" xmlns="http://www.w3.org/2000/svg" xmlns:xlink="http://www.w3.org/1999/xlink">
<g id="graph0" class="graph" transform="scale(1 1) rotate(0) translate(4 176)">
<title>Graphical Class Hierarchy</title>
<polygon fill="white" stroke="none" points="-4,4 -4,-176 342,-176 342,4 -4,4"/>
<!-- Node1 -->
<g id="node1" class="node"><title>Node1</title>
<g id="a_node1"><a xlink:href="dd/dbd/classmars_1_1graphics_1_1_h_u_d_element.html" target="_top" xlink:title="mars::graphics::HUDElement">
<polygon fill="white" stroke="black" points="0,-76.5 0,-95.5 146,-95.5 146,-76.5 0,-76.5"/>
<text text-anchor="middle" x="73" y="-83.5" font-family="Helvetica,sans-Serif" font-size="10.00">mars::graphics::HUDElement</text>
</a>
</g>
</g>
<!-- Node2 -->
<g id="node2" class="node"><title>Node2</title>
<g id="a_node2"><a xlink:href="dd/daa/classmars_1_1graphics_1_1_h_u_d_label.html" target="_top" xlink:title="mars::graphics::HUDLabel">
<polygon fill="white" stroke="black" points="193.5,-152.5 193.5,-171.5 326.5,-171.5 326.5,-152.5 193.5,-152.5"/>
<text text-anchor="middle" x="260" y="-159.5" font-family="Helvetica,sans-Serif" font-size="10.00">mars::graphics::HUDLabel</text>
</a>
</g>
</g>
<!-- Node1&#45;&gt;Node2 -->
<g id="edge1" class="edge"><title>Node1&#45;&gt;Node2</title>
<path fill="none" stroke="midnightblue" d="M97.8931,-100.791C119.267,-113.485 151.796,-131.501 182,-143 191.651,-146.674 202.256,-149.826 212.428,-152.447"/>
<polygon fill="midnightblue" stroke="midnightblue" points="99.5526,-97.7046 89.1805,-95.5434 95.941,-103.701 99.5526,-97.7046"/>
</g>
<!-- Node3 -->
<g id="node3" class="node"><title>Node3</title>
<g id="a_node3"><a xlink:href="d5/d9d/classmars_1_1graphics_1_1_h_u_d_lines.html" target="_top" xlink:title="mars::graphics::HUDLines">
<polygon fill="white" stroke="black" points="193.5,-114.5 193.5,-133.5 326.5,-133.5 326.5,-114.5 193.5,-114.5"/>
<text text-anchor="middle" x="260" y="-121.5" font-family="Helvetica,sans-Serif" font-size="10.00">mars::graphics::HUDLines</text>
</a>
</g>
</g>
<!-- Node1&#45;&gt;Node3 -->
<g id="edge2" class="edge"><title>Node1&#45;&gt;Node3</title>
<path fill="none" stroke="midnightblue" d="M130.52,-97.6095C156.831,-103.014 187.743,-109.364 212.652,-114.48"/>
<polygon fill="midnightblue" stroke="midnightblue" points="131.183,-94.1727 120.683,-95.589 129.775,-101.03 131.183,-94.1727"/>
</g>
<!-- Node4 -->
<g id="node4" class="node"><title>Node4</title>
<g id="a_node4"><a xlink:href="d5/dbc/classmars_1_1graphics_1_1_h_u_d_o_s_g_node.html" target="_top" xlink:title="mars::graphics::HUDOSGNode">
<polygon fill="white" stroke="black" points="182.5,-76.5 182.5,-95.5 337.5,-95.5 337.5,-76.5 182.5,-76.5"/>
<text text-anchor="middle" x="260" y="-83.5" font-family="Helvetica,sans-Serif" font-size="10.00">mars::graphics::HUDOSGNode</text>
</a>
</g>
</g>
<!-- Node1&#45;&gt;Node4 -->
<g id="edge3" class="edge"><title>Node1&#45;&gt;Node4</title>
<path fill="none" stroke="midnightblue" d="M156.165,-86C164.84,-86 173.638,-86 182.249,-86"/>
<polygon fill="midnightblue" stroke="midnightblue" points="156.056,-82.5001 146.056,-86 156.056,-89.5001 156.056,-82.5001"/>
</g>
<!-- Node5 -->
<g id="node5" class="node"><title>Node5</title>
<g id="a_node5"><a xlink:href="d9/d00/classmars_1_1graphics_1_1_h_u_d_terminal.html" target="_top" xlink:title="mars::graphics::HUDTerminal">
<polygon fill="white" stroke="black" points="186.5,-38.5 186.5,-57.5 333.5,-57.5 333.5,-38.5 186.5,-38.5"/>
<text text-anchor="middle" x="260" y="-45.5" font-family="Helvetica,sans-Serif" font-size="10.00">mars::graphics::HUDTerminal</text>
</a>
</g>
</g>
<!-- Node1&#45;&gt;Node5 -->
<g id="edge4" class="edge"><title>Node1&#45;&gt;Node5</title>
<path fill="none" stroke="midnightblue" d="M130.52,-74.3905C156.831,-68.986 187.743,-62.6365 212.652,-57.5201"/>
<polygon fill="midnightblue" stroke="midnightblue" points="129.775,-70.9704 120.683,-76.411 131.183,-77.8273 129.775,-70.9704"/>
</g>
<!-- Node6 -->
<g id="node6" class="node"><title>Node6</title>
<g id="a_node6"><a xlink:href="dd/da6/classmars_1_1graphics_1_1_h_u_d_texture.html" target="_top" xlink:title="mars::graphics::HUDTexture">
<polygon fill="white" stroke="black" points="188.5,-0.5 188.5,-19.5 331.5,-19.5 331.5,-0.5 188.5,-0.5"/>
<text text-anchor="middle" x="260" y="-7.5" font-family="Helvetica,sans-Serif" font-size="10.00">mars::graphics::HUDTexture</text>
</a>
</g>
</g>
<!-- Node1&#45;&gt;Node6 -->
<g id="edge5" class="edge"><title>Node1&#45;&gt;Node6</title>
<path fill="none" stroke="midnightblue" d="M97.8931,-71.2091C119.267,-58.5151 151.796,-40.4993 182,-29 191.651,-25.3257 202.256,-22.1736 212.428,-19.553"/>
<polygon fill="midnightblue" stroke="midnightblue" points="95.941,-68.299 89.1805,-76.4566 99.5526,-74.2954 95.941,-68.299"/>
</g>
</g>
</svg>
