<?xml version="1.0" encoding="UTF-8" standalone="no"?>
<!DOCTYPE svg PUBLIC "-//W3C//DTD SVG 1.1//EN"
 "http://www.w3.org/Graphics/SVG/1.1/DTD/svg11.dtd">
<!-- Generated by graphviz version 2.26.3 (20100126.1600)
 -->
<!-- Title: Graphical Class Hierarchy Pages: 1 -->
<svg width="340pt" height="522pt"
 viewBox="0.00 0.00 340.00 522.00" xmlns="http://www.w3.org/2000/svg" xmlns:xlink="http://www.w3.org/1999/xlink">
<g id="graph1" class="graph" transform="scale(1 1) rotate(0) translate(4 518)">
<title>Graphical Class Hierarchy</title>
<polygon fill="white" stroke="white" points="-4,5 -4,-518 337,-518 337,5 -4,5"/>
<!-- Node1 -->
<g id="node1" class="node"><title>Node1</title>
<polygon fill="white" stroke="#bfbfbf" points="44.5,-240.5 44.5,-261.5 87.5,-261.5 87.5,-240.5 44.5,-240.5"/>
<text text-anchor="middle" x="66" y="-248.5" font-family="Helvetica,sans-Serif" font-size="10.00">Group</text>
</g>
<!-- Node2 -->
<g id="node3" class="node"><title>Node2</title>
<a xlink:href="d6/d01/classeo__billboards_1_1_my_board.html" target="_top" xlink:title="eo_billboards::MyBoard">
<polygon fill="white" stroke="black" points="190.5,-360.5 190.5,-381.5 309.5,-381.5 309.5,-360.5 190.5,-360.5"/>
<text text-anchor="middle" x="250" y="-368.5" font-family="Helvetica,sans-Serif" font-size="10.00">eo_billboards::MyBoard</text>
</a>
</g>
<!-- Node1&#45;&gt;Node2 -->
<g id="edge2" class="edge"><title>Node1&#45;&gt;Node2</title>
<path fill="none" stroke="midnightblue" d="M79.9259,-269.832C97.7737,-292.582 130.878,-330.364 168,-351 174.916,-354.845 182.563,-357.957 190.325,-360.476"/>
<polygon fill="midnightblue" stroke="midnightblue" points="82.5113,-267.452 73.6512,-261.642 76.9547,-271.709 82.5113,-267.452"/>
</g>
<!-- Node3 -->
<g id="node5" class="node"><title>Node3</title>
<a xlink:href="d3/ddd/classmars_1_1graphics_1_1_axis_primitive.html" target="_top" xlink:title="mars::graphics::AxisPrimitive">
<polygon fill="white" stroke="black" points="177.5,-320.5 177.5,-341.5 322.5,-341.5 322.5,-320.5 177.5,-320.5"/>
<text text-anchor="middle" x="250" y="-328.5" font-family="Helvetica,sans-Serif" font-size="10.00">mars::graphics::AxisPrimitive</text>
</a>
</g>
<!-- Node1&#45;&gt;Node3 -->
<g id="edge4" class="edge"><title>Node1&#45;&gt;Node3</title>
<path fill="none" stroke="midnightblue" d="M89.2841,-267.376C109.324,-280.799 139.44,-299.411 168,-311 177.097,-314.692 187.05,-317.821 196.786,-320.429"/>
<polygon fill="midnightblue" stroke="midnightblue" points="91.0631,-264.353 80.8275,-261.617 87.1231,-270.139 91.0631,-264.353"/>
</g>
<!-- Node4 -->
<g id="node7" class="node"><title>Node4</title>
<a xlink:href="d1/d9f/classmars_1_1graphics_1_1_clouds.html" target="_top" xlink:title="mars::graphics::Clouds">
<polygon fill="white" stroke="black" points="191,-280.5 191,-301.5 309,-301.5 309,-280.5 191,-280.5"/>
<text text-anchor="middle" x="250" y="-288.5" font-family="Helvetica,sans-Serif" font-size="10.00">mars::graphics::Clouds</text>
</a>
</g>
<!-- Node1&#45;&gt;Node4 -->
<g id="edge6" class="edge"><title>Node1&#45;&gt;Node4</title>
<path fill="none" stroke="midnightblue" d="M97.6985,-257.891C126.312,-264.111 168.833,-273.355 201.681,-280.496"/>
<polygon fill="midnightblue" stroke="midnightblue" points="98.3451,-254.45 87.8298,-255.746 96.858,-261.29 98.3451,-254.45"/>
</g>
<!-- Node5 -->
<g id="node9" class="node"><title>Node5</title>
<a xlink:href="d5/d0d/classmars_1_1graphics_1_1_coords_primitive.html" target="_top" xlink:title="mars::graphics::CoordsPrimitive">
<polygon fill="white" stroke="black" points="171.5,-240.5 171.5,-261.5 328.5,-261.5 328.5,-240.5 171.5,-240.5"/>
<text text-anchor="middle" x="250" y="-248.5" font-family="Helvetica,sans-Serif" font-size="10.00">mars::graphics::CoordsPrimitive</text>
</a>
</g>
<!-- Node1&#45;&gt;Node5 -->
<g id="edge8" class="edge"><title>Node1&#45;&gt;Node5</title>
<path fill="none" stroke="midnightblue" d="M98.0319,-251C118.277,-251 145.386,-251 171.102,-251"/>
<polygon fill="midnightblue" stroke="midnightblue" points="97.8298,-247.5 87.8298,-251 97.8297,-254.5 97.8298,-247.5"/>
</g>
<!-- Node6 -->
<g id="node11" class="node"><title>Node6</title>
<a xlink:href="d4/d47/classmars_1_1graphics_1_1_grid_primitive.html" target="_top" xlink:title="mars::graphics::GridPrimitive">
<polygon fill="white" stroke="black" points="178.5,-200.5 178.5,-221.5 321.5,-221.5 321.5,-200.5 178.5,-200.5"/>
<text text-anchor="middle" x="250" y="-208.5" font-family="Helvetica,sans-Serif" font-size="10.00">mars::graphics::GridPrimitive</text>
</a>
</g>
<!-- Node1&#45;&gt;Node6 -->
<g id="edge10" class="edge"><title>Node1&#45;&gt;Node6</title>
<path fill="none" stroke="midnightblue" d="M97.6985,-244.109C126.312,-237.889 168.833,-228.645 201.681,-221.504"/>
<polygon fill="midnightblue" stroke="midnightblue" points="96.858,-240.71 87.8298,-246.254 98.3451,-247.55 96.858,-240.71"/>
</g>
<!-- Node7 -->
<g id="node13" class="node"><title>Node7</title>
<a xlink:href="da/d4a/classmars_1_1graphics_1_1_o_s_g_draw_item.html" target="_top" xlink:title="Wraps draw_item in osg::Group. ">
<polygon fill="white" stroke="black" points="174,-160.5 174,-181.5 326,-181.5 326,-160.5 174,-160.5"/>
<text text-anchor="middle" x="250" y="-168.5" font-family="Helvetica,sans-Serif" font-size="10.00">mars::graphics::OSGDrawItem</text>
</a>
</g>
<!-- Node1&#45;&gt;Node7 -->
<g id="edge12" class="edge"><title>Node1&#45;&gt;Node7</title>
<path fill="none" stroke="midnightblue" d="M89.2841,-234.624C109.324,-221.201 139.44,-202.589 168,-191 177.097,-187.308 187.05,-184.179 196.786,-181.571"/>
<polygon fill="midnightblue" stroke="midnightblue" points="87.1231,-231.861 80.8275,-240.383 91.0631,-237.647 87.1231,-231.861"/>
</g>
<!-- Node8 -->
<g id="node15" class="node"><title>Node8</title>
<a xlink:href="d1/dfc/classmars_1_1graphics_1_1_o_s_g_hud_element_struct.html" target="_top" xlink:title="Wraps hudElementStruct in osg::Group. ">
<polygon fill="white" stroke="black" points="168.5,-480 168.5,-514 331.5,-514 331.5,-480 168.5,-480"/>
<text text-anchor="start" x="176.5" y="-501" font-family="Helvetica,sans-Serif" font-size="10.00">mars::graphics::OSGHudElement</text>
<text text-anchor="middle" x="250" y="-488" font-family="Helvetica,sans-Serif" font-size="10.00">Struct</text>
</a>
</g>
<!-- Node1&#45;&gt;Node8 -->
<g id="edge14" class="edge"><title>Node1&#45;&gt;Node8</title>
<path fill="none" stroke="midnightblue" d="M69.7293,-271.421C78.6911,-314.658 105.502,-415.979 168,-471 171.811,-474.355 176.057,-477.278 180.553,-479.824"/>
<polygon fill="midnightblue" stroke="midnightblue" points="73.1461,-270.656 67.783,-261.519 66.2775,-272.006 73.1461,-270.656"/>
</g>
<!-- Node9 -->
<g id="node17" class="node"><title>Node9</title>
<a xlink:href="dd/dd0/classmars_1_1graphics_1_1_o_s_g_node_struct.html" target="_top" xlink:title="Wraps a NodeData in a osg::Group. ">
<polygon fill="white" stroke="black" points="171,-440.5 171,-461.5 329,-461.5 329,-440.5 171,-440.5"/>
<text text-anchor="middle" x="250" y="-448.5" font-family="Helvetica,sans-Serif" font-size="10.00">mars::graphics::OSGNodeStruct</text>
</a>
</g>
<!-- Node1&#45;&gt;Node9 -->
<g id="edge16" class="edge"><title>Node1&#45;&gt;Node9</title>
<path fill="none" stroke="midnightblue" d="M71.7789,-271.84C83.3873,-309.684 113.233,-389.604 168,-431 173.027,-434.799 178.678,-437.887 184.603,-440.394"/>
<polygon fill="midnightblue" stroke="midnightblue" points="75.0469,-270.547 68.8679,-261.941 68.3313,-272.522 75.0469,-270.547"/>
</g>
<!-- Node10 -->
<g id="node19" class="node"><title>Node10</title>
<a xlink:href="df/d1a/classosg__lines_1_1_lines_p.html" target="_top" xlink:title="osg_lines::LinesP">
<polygon fill="white" stroke="black" points="203,-120.5 203,-141.5 297,-141.5 297,-120.5 203,-120.5"/>
<text text-anchor="middle" x="250" y="-128.5" font-family="Helvetica,sans-Serif" font-size="10.00">osg_lines::LinesP</text>
</a>
</g>
<!-- Node1&#45;&gt;Node10 -->
<g id="edge18" class="edge"><title>Node1&#45;&gt;Node10</title>
<path fill="none" stroke="midnightblue" d="M79.9259,-232.168C97.7737,-209.418 130.878,-171.636 168,-151 178.63,-145.091 190.987,-140.911 202.834,-137.96"/>
<polygon fill="midnightblue" stroke="midnightblue" points="76.9547,-230.291 73.6512,-240.358 82.5113,-234.548 76.9547,-230.291"/>
</g>
<!-- Node11 -->
<g id="node21" class="node"><title>Node11</title>
<a xlink:href="df/daf/classosg__plot_1_1_curve_p.html" target="_top" xlink:title="osg_plot::CurveP">
<polygon fill="white" stroke="black" points="204,-80.5 204,-101.5 296,-101.5 296,-80.5 204,-80.5"/>
<text text-anchor="middle" x="250" y="-88.5" font-family="Helvetica,sans-Serif" font-size="10.00">osg_plot::CurveP</text>
</a>
</g>
<!-- Node1&#45;&gt;Node11 -->
<g id="edge20" class="edge"><title>Node1&#45;&gt;Node11</title>
<path fill="none" stroke="midnightblue" d="M78.7223,-232.061C103.275,-195.736 155.85,-119.138 168,-111 178.592,-103.905 191.455,-99.3228 203.823,-96.3645"/>
<polygon fill="midnightblue" stroke="midnightblue" points="75.8138,-230.113 73.1254,-240.362 81.6178,-234.027 75.8138,-230.113"/>
</g>
<!-- Node12 -->
<g id="node23" class="node"><title>Node12</title>
<a xlink:href="d4/da9/classosg__plot_1_1_plot.html" target="_top" xlink:title="osg_plot::Plot">
<polygon fill="white" stroke="black" points="211.5,-400.5 211.5,-421.5 288.5,-421.5 288.5,-400.5 211.5,-400.5"/>
<text text-anchor="middle" x="250" y="-408.5" font-family="Helvetica,sans-Serif" font-size="10.00">osg_plot::Plot</text>
</a>
</g>
<!-- Node1&#45;&gt;Node12 -->
<g id="edge22" class="edge"><title>Node1&#45;&gt;Node12</title>
<path fill="none" stroke="midnightblue" d="M74.9301,-271.047C89.7018,-301.814 122.207,-360.326 168,-391 180.783,-399.563 196.875,-404.466 211.411,-407.271"/>
<polygon fill="midnightblue" stroke="midnightblue" points="77.9992,-269.346 70.6068,-261.756 71.6528,-272.3 77.9992,-269.346"/>
</g>
<!-- Node13 -->
<g id="node25" class="node"><title>Node13</title>
<a xlink:href="d9/da2/classosg__sonar_1_1_sonar.html" target="_top" xlink:title="osg_sonar::Sonar">
<polygon fill="white" stroke="black" points="203.5,-40.5 203.5,-61.5 296.5,-61.5 296.5,-40.5 203.5,-40.5"/>
<text text-anchor="middle" x="250" y="-48.5" font-family="Helvetica,sans-Serif" font-size="10.00">osg_sonar::Sonar</text>
</a>
</g>
<!-- Node1&#45;&gt;Node13 -->
<g id="edge24" class="edge"><title>Node1&#45;&gt;Node13</title>
<path fill="none" stroke="midnightblue" d="M79.7722,-232.138C93.83,-212.446 115.823,-180.395 132,-151 150.799,-116.842 138.019,-95.9261 168,-71 177.916,-62.7562 190.704,-57.8168 203.218,-54.884"/>
<polygon fill="midnightblue" stroke="midnightblue" points="76.9255,-230.102 73.921,-240.262 82.6056,-234.193 76.9255,-230.102"/>
</g>
<!-- Node14 -->
<g id="node27" class="node"><title>Node14</title>
<a xlink:href="d6/d1f/classosg__text_1_1_text.html" target="_top" xlink:title="osg_text::Text">
<polygon fill="white" stroke="black" points="210,-0.5 210,-21.5 290,-21.5 290,-0.5 210,-0.5"/>
<text text-anchor="middle" x="250" y="-8.5" font-family="Helvetica,sans-Serif" font-size="10.00">osg_text::Text</text>
</a>
</g>
<!-- Node1&#45;&gt;Node14 -->
<g id="edge26" class="edge"><title>Node1&#45;&gt;Node14</title>
<path fill="none" stroke="midnightblue" d="M80.8167,-232.234C95.5254,-212.843 117.864,-181.23 132,-151 155.587,-100.561 127.613,-69.3314 168,-31 179.16,-20.4082 194.96,-15.1404 209.716,-12.6111"/>
<polygon fill="midnightblue" stroke="midnightblue" points="77.9834,-230.177 74.6524,-240.235 83.5284,-234.45 77.9834,-230.177"/>
</g>
<!-- Node15 -->
<g id="node28" class="node"><title>Node15</title>
<a xlink:href="d0/db3/classosg__lines_1_1_lines.html" target="_top" xlink:title="osg_lines::Lines">
<polygon fill="white" stroke="black" points="22.5,-120.5 22.5,-141.5 109.5,-141.5 109.5,-120.5 22.5,-120.5"/>
<text text-anchor="middle" x="66" y="-128.5" font-family="Helvetica,sans-Serif" font-size="10.00">osg_lines::Lines</text>
</a>
</g>
<!-- Node15&#45;&gt;Node10 -->
<g id="edge28" class="edge"><title>Node15&#45;&gt;Node10</title>
<path fill="none" stroke="midnightblue" d="M119.789,-131C146.098,-131 177.478,-131 202.839,-131"/>
<polygon fill="midnightblue" stroke="midnightblue" points="119.605,-127.5 109.605,-131 119.605,-134.5 119.605,-127.5"/>
</g>
<!-- Node16 -->
<g id="node30" class="node"><title>Node16</title>
<a xlink:href="d1/d47/classosg__plot_1_1_curve.html" target="_top" xlink:title="osg_plot::Curve">
<polygon fill="white" stroke="black" points="23,-80.5 23,-101.5 109,-101.5 109,-80.5 23,-80.5"/>
<text text-anchor="middle" x="66" y="-88.5" font-family="Helvetica,sans-Serif" font-size="10.00">osg_plot::Curve</text>
</a>
</g>
<!-- Node16&#45;&gt;Node11 -->
<g id="edge30" class="edge"><title>Node16&#45;&gt;Node11</title>
<path fill="none" stroke="midnightblue" d="M119.483,-91C146.227,-91 178.27,-91 203.914,-91"/>
<polygon fill="midnightblue" stroke="midnightblue" points="119.14,-87.5001 109.14,-91 119.14,-94.5001 119.14,-87.5001"/>
</g>
<!-- Node17 -->
<g id="node32" class="node"><title>Node17</title>
<a xlink:href="de/d96/classosg__sonar_1_1_sonar_interface.html" target="_top" xlink:title="osg_sonar::SonarInterface">
<polygon fill="white" stroke="black" points="0.5,-40.5 0.5,-61.5 131.5,-61.5 131.5,-40.5 0.5,-40.5"/>
<text text-anchor="middle" x="66" y="-48.5" font-family="Helvetica,sans-Serif" font-size="10.00">osg_sonar::SonarInterface</text>
</a>
</g>
<!-- Node17&#45;&gt;Node13 -->
<g id="edge32" class="edge"><title>Node17&#45;&gt;Node13</title>
<path fill="none" stroke="midnightblue" d="M141.795,-51C162.692,-51 184.741,-51 203.444,-51"/>
<polygon fill="midnightblue" stroke="midnightblue" points="141.649,-47.5001 131.649,-51 141.649,-54.5001 141.649,-47.5001"/>
</g>
<!-- Node18 -->
<g id="node34" class="node"><title>Node18</title>
<a xlink:href="d7/d02/classosg__text_1_1_text_interface.html" target="_top" xlink:title="osg_text::TextInterface">
<polygon fill="white" stroke="black" points="7,-0.5 7,-21.5 125,-21.5 125,-0.5 7,-0.5"/>
<text text-anchor="middle" x="66" y="-8.5" font-family="Helvetica,sans-Serif" font-size="10.00">osg_text::TextInterface</text>
</a>
</g>
<!-- Node18&#45;&gt;Node14 -->
<g id="edge34" class="edge"><title>Node18&#45;&gt;Node14</title>
<path fill="none" stroke="midnightblue" d="M135.447,-11C160.543,-11 188.024,-11 209.779,-11"/>
<polygon fill="midnightblue" stroke="midnightblue" points="135.232,-7.5001 125.232,-11 135.232,-14.5001 135.232,-7.5001"/>
</g>
</g>
</svg>
