<?xml version="1.0" encoding="UTF-8" standalone="no"?>
<!DOCTYPE svg PUBLIC "-//W3C//DTD SVG 1.1//EN"
 "http://www.w3.org/Graphics/SVG/1.1/DTD/svg11.dtd">
<!-- Generated by graphviz version 2.26.3 (20100126.1600)
 -->
<!-- Title: Graphical Class Hierarchy Pages: 1 -->
<svg width="470pt" height="134pt"
 viewBox="0.00 0.00 470.00 134.00" xmlns="http://www.w3.org/2000/svg" xmlns:xlink="http://www.w3.org/1999/xlink">
<g id="graph1" class="graph" transform="scale(1 1) rotate(0) translate(4 130)">
<title>Graphical Class Hierarchy</title>
<polygon fill="white" stroke="white" points="-4,5 -4,-130 467,-130 467,5 -4,5"/>
<!-- Node1 -->
<g id="node1" class="node"><title>Node1</title>
<a xlink:href="d5/d0e/classmars_1_1interfaces_1_1_graphics_gui_interface.html" target="_top" xlink:title="Interface for the osgWidget functionality. ">
<polygon fill="white" stroke="black" points="0,-92 0,-126 132,-126 132,-92 0,-92"/>
<text text-anchor="start" x="8" y="-113" font-family="Helvetica,sans-Serif" font-size="10.00">mars::interfaces::Graphics</text>
<text text-anchor="middle" x="66" y="-100" font-family="Helvetica,sans-Serif" font-size="10.00">GuiInterface</text>
</a>
</g>
<!-- Node2 -->
<g id="node3" class="node"><title>Node2</title>
<a xlink:href="d2/d46/classmars_1_1graphics_1_1_graphics_widget.html" target="_top" xlink:title="Widget with OpenGL context and event handling. ">
<polygon fill="white" stroke="black" points="168,-40 168,-74 294,-74 294,-40 168,-40"/>
<text text-anchor="start" x="176" y="-61" font-family="Helvetica,sans-Serif" font-size="10.00">mars::graphics::Graphics</text>
<text text-anchor="middle" x="231" y="-48" font-family="Helvetica,sans-Serif" font-size="10.00">Widget</text>
</a>
</g>
<!-- Node1&#45;&gt;Node2 -->
<g id="edge2" class="edge"><title>Node1&#45;&gt;Node2</title>
<path fill="none" stroke="midnightblue" d="M129.595,-88.958C145.193,-84.0422 161.744,-78.8261 176.851,-74.065"/>
<polygon fill="midnightblue" stroke="midnightblue" points="128.513,-85.6293 120.027,-91.9733 130.617,-92.3056 128.513,-85.6293"/>
</g>
<!-- Node3 -->
<g id="node5" class="node"><title>Node3</title>
<a xlink:href="d1/dc5/classmars_1_1graphics_1_1_qt_osg_mix_graphics_widget.html" target="_top" xlink:title="A GraphicsWidget using QWidget or QMacCocoaViewContainer. ">
<polygon fill="white" stroke="black" points="330.5,-17 330.5,-51 461.5,-51 461.5,-17 330.5,-17"/>
<text text-anchor="start" x="338.5" y="-38" font-family="Helvetica,sans-Serif" font-size="10.00">mars::graphics::QtOsgMix</text>
<text text-anchor="middle" x="396" y="-25" font-family="Helvetica,sans-Serif" font-size="10.00">GraphicsWidget</text>
</a>
</g>
<!-- Node2&#45;&gt;Node3 -->
<g id="edge4" class="edge"><title>Node2&#45;&gt;Node3</title>
<path fill="none" stroke="midnightblue" d="M304.398,-46.7687C313.055,-45.562 321.848,-44.3364 330.388,-43.146"/>
<polygon fill="midnightblue" stroke="midnightblue" points="303.742,-43.3262 294.321,-48.1734 304.709,-50.2592 303.742,-43.3262"/>
</g>
<!-- Node4 -->
<g id="node6" class="node"><title>Node4</title>
<a xlink:href="d9/d3b/classmars_1_1interfaces_1_1_graphics_window_interface.html" target="_top" xlink:title="mars::interfaces::Graphics\lWindowInterface">
<polygon fill="white" stroke="black" points="0,-40 0,-74 132,-74 132,-40 0,-40"/>
<text text-anchor="start" x="8" y="-61" font-family="Helvetica,sans-Serif" font-size="10.00">mars::interfaces::Graphics</text>
<text text-anchor="middle" x="66" y="-48" font-family="Helvetica,sans-Serif" font-size="10.00">WindowInterface</text>
</a>
</g>
<!-- Node4&#45;&gt;Node2 -->
<g id="edge6" class="edge"><title>Node4&#45;&gt;Node2</title>
<path fill="none" stroke="midnightblue" d="M142.437,-57C150.917,-57 159.482,-57 167.773,-57"/>
<polygon fill="midnightblue" stroke="midnightblue" points="142.161,-53.5001 132.161,-57 142.161,-60.5001 142.161,-53.5001"/>
</g>
<!-- Node5 -->
<g id="node8" class="node"><title>Node5</title>
<polygon fill="white" stroke="#bfbfbf" points="191,-0.5 191,-21.5 271,-21.5 271,-0.5 191,-0.5"/>
<text text-anchor="middle" x="231" y="-8.5" font-family="Helvetica,sans-Serif" font-size="10.00">MarsQtWidget</text>
</g>
<!-- Node5&#45;&gt;Node3 -->
<g id="edge8" class="edge"><title>Node5&#45;&gt;Node3</title>
<path fill="none" stroke="midnightblue" d="M281.688,-18.0656C297.049,-20.2068 314.147,-22.5902 330.341,-24.8476"/>
<polygon fill="midnightblue" stroke="midnightblue" points="281.751,-14.5406 271.364,-16.6264 280.785,-21.4736 281.751,-14.5406"/>
</g>
<!-- Node6 -->
<g id="node10" class="node"><title>Node6</title>
<polygon fill="white" stroke="#bfbfbf" points="19,-0.5 19,-21.5 113,-21.5 113,-0.5 19,-0.5"/>
<text text-anchor="middle" x="66" y="-8.5" font-family="Helvetica,sans-Serif" font-size="10.00">GUIEventHandler</text>
</g>
<!-- Node6&#45;&gt;Node2 -->
<g id="edge10" class="edge"><title>Node6&#45;&gt;Node2</title>
<path fill="none" stroke="midnightblue" d="M113.808,-24.3284C131.263,-29.1946 151.252,-34.7672 169.719,-39.9155"/>
<polygon fill="midnightblue" stroke="midnightblue" points="114.427,-20.8674 103.854,-21.5533 112.547,-27.6103 114.427,-20.8674"/>
</g>
</g>
</svg>
