<?xml version="1.0" encoding="UTF-8" standalone="no"?>
<!DOCTYPE svg PUBLIC "-//W3C//DTD SVG 1.1//EN"
 "http://www.w3.org/Graphics/SVG/1.1/DTD/svg11.dtd">
<!-- Generated by graphviz version 2.36.0 (20140111.2315)
 -->
<!-- Title: Graphical Class Hierarchy Pages: 1 -->
<svg width="276pt" height="185pt"
 viewBox="0.00 0.00 276.00 185.00" xmlns="http://www.w3.org/2000/svg" xmlns:xlink="http://www.w3.org/1999/xlink">
<g id="graph0" class="graph" transform="scale(1 1) rotate(0) translate(4 181)">
<title>Graphical Class Hierarchy</title>
<polygon fill="white" stroke="none" points="-4,4 -4,-181 272,-181 272,4 -4,4"/>
<!-- Node1 -->
<g id="node1" class="node"><title>Node1</title>
<g id="a_node1"><a xlink:href="d1/d5e/classosg__material__manager_1_1_shader_func.html" target="_top" xlink:title="osg_material_manager\l::ShaderFunc">
<polygon fill="white" stroke="black" points="0.5,-73 0.5,-103 115.5,-103 115.5,-73 0.5,-73"/>
<text text-anchor="start" x="8.5" y="-91" font-family="Helvetica,sans-Serif" font-size="10.00">osg_material_manager</text>
<text text-anchor="middle" x="58" y="-80" font-family="Helvetica,sans-Serif" font-size="10.00">::ShaderFunc</text>
</a>
</g>
</g>
<!-- Node2 -->
<g id="node2" class="node"><title>Node2</title>
<g id="a_node2"><a xlink:href="d9/d62/classosg__material__manager_1_1_bump_map_frag.html" target="_top" xlink:title="osg_material_manager\l::BumpMapFrag">
<polygon fill="white" stroke="black" points="152.5,-147 152.5,-177 267.5,-177 267.5,-147 152.5,-147"/>
<text text-anchor="start" x="160.5" y="-165" font-family="Helvetica,sans-Serif" font-size="10.00">osg_material_manager</text>
<text text-anchor="middle" x="210" y="-154" font-family="Helvetica,sans-Serif" font-size="10.00">::BumpMapFrag</text>
</a>
</g>
</g>
<!-- Node1&#45;&gt;Node2 -->
<g id="edge1" class="edge"><title>Node1&#45;&gt;Node2</title>
<path fill="none" stroke="midnightblue" d="M95.465,-107.986C112.497,-117.121 133.135,-127.908 152,-137 158.911,-140.331 166.373,-143.737 173.549,-146.921"/>
<polygon fill="midnightblue" stroke="midnightblue" points="96.8713,-104.768 86.4082,-103.103 93.5488,-110.93 96.8713,-104.768"/>
</g>
<!-- Node3 -->
<g id="node3" class="node"><title>Node3</title>
<g id="a_node3"><a xlink:href="da/dae/classosg__material__manager_1_1_bump_map_vert.html" target="_top" xlink:title="osg_material_manager\l::BumpMapVert">
<polygon fill="white" stroke="black" points="152.5,-98 152.5,-128 267.5,-128 267.5,-98 152.5,-98"/>
<text text-anchor="start" x="160.5" y="-116" font-family="Helvetica,sans-Serif" font-size="10.00">osg_material_manager</text>
<text text-anchor="middle" x="210" y="-105" font-family="Helvetica,sans-Serif" font-size="10.00">::BumpMapVert</text>
</a>
</g>
</g>
<!-- Node1&#45;&gt;Node3 -->
<g id="edge2" class="edge"><title>Node1&#45;&gt;Node3</title>
<path fill="none" stroke="midnightblue" d="M125.63,-99.1049C134.5,-100.583 143.529,-102.088 152.211,-103.535"/>
<polygon fill="midnightblue" stroke="midnightblue" points="126.148,-95.6431 115.709,-97.4514 124.997,-102.548 126.148,-95.6431"/>
</g>
<!-- Node4 -->
<g id="node4" class="node"><title>Node4</title>
<g id="a_node4"><a xlink:href="dd/daf/classosg__material__manager_1_1_pixel_light_frag.html" target="_top" xlink:title="osg_material_manager\l::PixelLightFrag">
<polygon fill="white" stroke="black" points="152.5,-49 152.5,-79 267.5,-79 267.5,-49 152.5,-49"/>
<text text-anchor="start" x="160.5" y="-67" font-family="Helvetica,sans-Serif" font-size="10.00">osg_material_manager</text>
<text text-anchor="middle" x="210" y="-56" font-family="Helvetica,sans-Serif" font-size="10.00">::PixelLightFrag</text>
</a>
</g>
</g>
<!-- Node1&#45;&gt;Node4 -->
<g id="edge3" class="edge"><title>Node1&#45;&gt;Node4</title>
<path fill="none" stroke="midnightblue" d="M125.63,-77.3393C134.5,-75.92 143.529,-74.4754 152.211,-73.0862"/>
<polygon fill="midnightblue" stroke="midnightblue" points="125.03,-73.8906 115.709,-78.9266 126.136,-80.8027 125.03,-73.8906"/>
</g>
<!-- Node5 -->
<g id="node5" class="node"><title>Node5</title>
<g id="a_node5"><a xlink:href="d4/ddb/classosg__material__manager_1_1_pixel_light_vert.html" target="_top" xlink:title="osg_material_manager\l::PixelLightVert">
<polygon fill="white" stroke="black" points="152.5,-0 152.5,-30 267.5,-30 267.5,-0 152.5,-0"/>
<text text-anchor="start" x="160.5" y="-18" font-family="Helvetica,sans-Serif" font-size="10.00">osg_material_manager</text>
<text text-anchor="middle" x="210" y="-7" font-family="Helvetica,sans-Serif" font-size="10.00">::PixelLightVert</text>
</a>
</g>
</g>
<!-- Node1&#45;&gt;Node5 -->
<g id="edge4" class="edge"><title>Node1&#45;&gt;Node5</title>
<path fill="none" stroke="midnightblue" d="M96.2601,-68.0866C113.153,-59.2354 133.457,-48.841 152,-40 158.925,-36.6982 166.394,-33.3048 173.571,-30.1247"/>
<polygon fill="midnightblue" stroke="midnightblue" points="94.4771,-65.0698 87.2591,-72.8254 97.7382,-71.2638 94.4771,-65.0698"/>
</g>
</g>
</svg>
