<?xml version="1.0" encoding="UTF-8" standalone="no"?>
<!DOCTYPE svg PUBLIC "-//W3C//DTD SVG 1.1//EN"
 "http://www.w3.org/Graphics/SVG/1.1/DTD/svg11.dtd">
<!-- Generated by graphviz version 2.26.3 (20100126.1600)
 -->
<!-- Title: Graphical Class Hierarchy Pages: 1 -->
<svg width="344pt" height="294pt"
 viewBox="0.00 0.00 344.00 294.00" xmlns="http://www.w3.org/2000/svg" xmlns:xlink="http://www.w3.org/1999/xlink">
<g id="graph1" class="graph" transform="scale(1 1) rotate(0) translate(4 290)">
<title>Graphical Class Hierarchy</title>
<polygon fill="white" stroke="white" points="-4,5 -4,-290 341,-290 341,5 -4,5"/>
<!-- Node1 -->
<g id="node1" class="node"><title>Node1</title>
<a xlink:href="d4/d5f/classmars_1_1interfaces_1_1_base_config.html" target="_top" xlink:title="mars::interfaces::BaseConfig">
<polygon fill="white" stroke="black" points="0,-138.5 0,-159.5 144,-159.5 144,-138.5 0,-138.5"/>
<text text-anchor="middle" x="72" y="-146.5" font-family="Helvetica,sans-Serif" font-size="10.00">mars::interfaces::BaseConfig</text>
</a>
</g>
<!-- Node2 -->
<g id="node3" class="node"><title>Node2</title>
<a xlink:href="de/d94/structmars_1_1sim_1_1_camera_config_struct.html" target="_top" xlink:title="mars::sim::CameraConfigStruct">
<polygon fill="white" stroke="black" points="180.5,-264.5 180.5,-285.5 335.5,-285.5 335.5,-264.5 180.5,-264.5"/>
<text text-anchor="middle" x="258" y="-272.5" font-family="Helvetica,sans-Serif" font-size="10.00">mars::sim::CameraConfigStruct</text>
</a>
</g>
<!-- Node1&#45;&gt;Node2 -->
<g id="edge2" class="edge"><title>Node1&#45;&gt;Node2</title>
<path fill="none" stroke="midnightblue" d="M85.7071,-167.516C104.369,-191.38 140.054,-232.471 180,-255 186.819,-258.846 194.387,-261.966 202.05,-264.494"/>
<polygon fill="midnightblue" stroke="midnightblue" points="88.4828,-165.384 79.6256,-159.57 82.924,-169.639 88.4828,-165.384"/>
</g>
<!-- Node3 -->
<g id="node5" class="node"><title>Node3</title>
<a xlink:href="dc/d9b/classmars_1_1sim_1_1_i_d_list_config.html" target="_top" xlink:title="mars::sim::IDListConfig">
<polygon fill="white" stroke="black" points="197.5,-224.5 197.5,-245.5 318.5,-245.5 318.5,-224.5 197.5,-224.5"/>
<text text-anchor="middle" x="258" y="-232.5" font-family="Helvetica,sans-Serif" font-size="10.00">mars::sim::IDListConfig</text>
</a>
</g>
<!-- Node1&#45;&gt;Node3 -->
<g id="edge4" class="edge"><title>Node1&#45;&gt;Node3</title>
<path fill="none" stroke="midnightblue" d="M94.5681,-165.559C115.705,-180.379 148.651,-201.754 180,-215 188.757,-218.7 198.365,-221.845 207.754,-224.47"/>
<polygon fill="midnightblue" stroke="midnightblue" points="96.4476,-162.601 86.2714,-159.652 92.3874,-168.303 96.4476,-162.601"/>
</g>
<!-- Node4 -->
<g id="node7" class="node"><title>Node4</title>
<a xlink:href="d9/dd4/classmars_1_1sim_1_1_joint6_d_o_f_config.html" target="_top" xlink:title="mars::sim::Joint6DOFConfig">
<polygon fill="white" stroke="black" points="187,-184.5 187,-205.5 329,-205.5 329,-184.5 187,-184.5"/>
<text text-anchor="middle" x="258" y="-192.5" font-family="Helvetica,sans-Serif" font-size="10.00">mars::sim::Joint6DOFConfig</text>
</a>
</g>
<!-- Node1&#45;&gt;Node4 -->
<g id="edge6" class="edge"><title>Node1&#45;&gt;Node4</title>
<path fill="none" stroke="midnightblue" d="M124.557,-161.998C153.328,-169.113 188.511,-177.815 215.526,-184.496"/>
<polygon fill="midnightblue" stroke="midnightblue" points="125.22,-158.557 114.672,-159.553 123.539,-165.352 125.22,-158.557"/>
</g>
<!-- Node5 -->
<g id="node9" class="node"><title>Node5</title>
<a xlink:href="d4/df0/classmars_1_1sim_1_1_multi_level_laser_range_finder_config.html" target="_top" xlink:title="mars::sim::MultiLevelLaser\lRangeFinderConfig">
<polygon fill="white" stroke="black" points="191,-132 191,-166 325,-166 325,-132 191,-132"/>
<text text-anchor="start" x="199" y="-153" font-family="Helvetica,sans-Serif" font-size="10.00">mars::sim::MultiLevelLaser</text>
<text text-anchor="middle" x="258" y="-140" font-family="Helvetica,sans-Serif" font-size="10.00">RangeFinderConfig</text>
</a>
</g>
<!-- Node1&#45;&gt;Node5 -->
<g id="edge8" class="edge"><title>Node1&#45;&gt;Node5</title>
<path fill="none" stroke="midnightblue" d="M154.326,-149C166.498,-149 178.917,-149 190.734,-149"/>
<polygon fill="midnightblue" stroke="midnightblue" points="154.179,-145.5 144.179,-149 154.179,-152.5 154.179,-145.5"/>
</g>
<!-- Node6 -->
<g id="node11" class="node"><title>Node6</title>
<a xlink:href="de/d20/classmars_1_1sim_1_1_ray_config.html" target="_top" xlink:title="mars::sim::RayConfig">
<polygon fill="white" stroke="black" points="201.5,-92.5 201.5,-113.5 314.5,-113.5 314.5,-92.5 201.5,-92.5"/>
<text text-anchor="middle" x="258" y="-100.5" font-family="Helvetica,sans-Serif" font-size="10.00">mars::sim::RayConfig</text>
</a>
</g>
<!-- Node1&#45;&gt;Node6 -->
<g id="edge10" class="edge"><title>Node1&#45;&gt;Node6</title>
<path fill="none" stroke="midnightblue" d="M124.557,-136.002C153.328,-128.887 188.511,-120.185 215.526,-113.504"/>
<polygon fill="midnightblue" stroke="midnightblue" points="123.539,-132.648 114.672,-138.447 125.22,-139.443 123.539,-132.648"/>
</g>
<!-- Node7 -->
<g id="node13" class="node"><title>Node7</title>
<a xlink:href="df/d1a/classmars_1_1sim_1_1_rotating_ray_config.html" target="_top" xlink:title="mars::sim::RotatingRayConfig">
<polygon fill="white" stroke="black" points="183.5,-52.5 183.5,-73.5 332.5,-73.5 332.5,-52.5 183.5,-52.5"/>
<text text-anchor="middle" x="258" y="-60.5" font-family="Helvetica,sans-Serif" font-size="10.00">mars::sim::RotatingRayConfig</text>
</a>
</g>
<!-- Node1&#45;&gt;Node7 -->
<g id="edge12" class="edge"><title>Node1&#45;&gt;Node7</title>
<path fill="none" stroke="midnightblue" d="M94.5681,-132.441C115.705,-117.621 148.651,-96.2457 180,-83 188.757,-79.3001 198.365,-76.1546 207.754,-73.5301"/>
<polygon fill="midnightblue" stroke="midnightblue" points="92.3874,-129.697 86.2714,-138.348 96.4476,-135.399 92.3874,-129.697"/>
</g>
<!-- Node8 -->
<g id="node15" class="node"><title>Node8</title>
<a xlink:href="dd/d9d/structmars_1_1sim_1_1_scanning_sonar_config.html" target="_top" xlink:title="mars::sim::ScanningSonar\lConfig">
<polygon fill="white" stroke="black" points="192,-0 192,-34 324,-34 324,-0 192,-0"/>
<text text-anchor="start" x="200" y="-21" font-family="Helvetica,sans-Serif" font-size="10.00">mars::sim::ScanningSonar</text>
<text text-anchor="middle" x="258" y="-8" font-family="Helvetica,sans-Serif" font-size="10.00">Config</text>
</a>
</g>
<!-- Node1&#45;&gt;Node8 -->
<g id="edge14" class="edge"><title>Node1&#45;&gt;Node8</title>
<path fill="none" stroke="midnightblue" d="M86.4988,-130.239C105.573,-106.744 141.246,-66.7017 180,-43 185.48,-39.6486 191.443,-36.6721 197.551,-34.0421"/>
<polygon fill="midnightblue" stroke="midnightblue" points="83.5196,-128.362 80.0294,-138.366 88.996,-132.722 83.5196,-128.362"/>
</g>
</g>
</svg>
