<?xml version="1.0" encoding="UTF-8" standalone="no"?>
<!DOCTYPE svg PUBLIC "-//W3C//DTD SVG 1.1//EN"
 "http://www.w3.org/Graphics/SVG/1.1/DTD/svg11.dtd">
<!-- Generated by graphviz version 2.36.0 (20140111.2315)
 -->
<!-- Title: Graphical Class Hierarchy Pages: 1 -->
<svg width="214pt" height="104pt"
 viewBox="0.00 0.00 214.00 104.00" xmlns="http://www.w3.org/2000/svg" xmlns:xlink="http://www.w3.org/1999/xlink">
<g id="graph0" class="graph" transform="scale(1 1) rotate(0) translate(4 100)">
<title>Graphical Class Hierarchy</title>
<polygon fill="white" stroke="none" points="-4,4 -4,-100 210,-100 210,4 -4,4"/>
<!-- Node1 -->
<g id="node1" class="node"><title>Node1</title>
<polygon fill="white" stroke="#bfbfbf" points="0,-38.5 0,-57.5 72,-57.5 72,-38.5 0,-38.5"/>
<text text-anchor="middle" x="36" y="-45.5" font-family="Helvetica,sans-Serif" font-size="10.00">QApplication</text>
</g>
<!-- Node2 -->
<g id="node2" class="node"><title>Node2</title>
<g id="a_node2"><a xlink:href="da/d0e/classgui__app_1_1_my_app.html" target="_top" xlink:title="This function provides a clean exit of the simulation in case of a kill&#45;signal. ">
<polygon fill="white" stroke="black" points="113.5,-76.5 113.5,-95.5 200.5,-95.5 200.5,-76.5 113.5,-76.5"/>
<text text-anchor="middle" x="157" y="-83.5" font-family="Helvetica,sans-Serif" font-size="10.00">gui_app::MyApp</text>
</a>
</g>
</g>
<!-- Node1&#45;&gt;Node2 -->
<g id="edge1" class="edge"><title>Node1&#45;&gt;Node2</title>
<path fill="none" stroke="midnightblue" d="M76.7098,-60.6804C92.7886,-65.8148 111.043,-71.6441 125.981,-76.4141"/>
<polygon fill="midnightblue" stroke="midnightblue" points="77.6195,-57.2969 67.0287,-57.589 75.4901,-63.9652 77.6195,-57.2969"/>
</g>
<!-- Node3 -->
<g id="node3" class="node"><title>Node3</title>
<g id="a_node3"><a xlink:href="db/dfd/classmars_1_1app_1_1_my_app.html" target="_top" xlink:title="This function provides a clean exit of the simulation in case of a kill&#45;signal. ">
<polygon fill="white" stroke="black" points="108.5,-38.5 108.5,-57.5 205.5,-57.5 205.5,-38.5 108.5,-38.5"/>
<text text-anchor="middle" x="157" y="-45.5" font-family="Helvetica,sans-Serif" font-size="10.00">mars::app::MyApp</text>
</a>
</g>
</g>
<!-- Node1&#45;&gt;Node3 -->
<g id="edge2" class="edge"><title>Node1&#45;&gt;Node3</title>
<path fill="none" stroke="midnightblue" d="M82.24,-48C90.7977,-48 99.7737,-48 108.402,-48"/>
<polygon fill="midnightblue" stroke="midnightblue" points="82.0603,-44.5001 72.0603,-48 82.0603,-51.5001 82.0603,-44.5001"/>
</g>
<!-- Node4 -->
<g id="node4" class="node"><title>Node4</title>
<g id="a_node4"><a xlink:href="dd/dbe/classmars_1_1viz_1_1_my_app.html" target="_top" xlink:title="This function provides a clean exit of the simulation in case of a kill&#45;signal. ">
<polygon fill="white" stroke="black" points="110,-0.5 110,-19.5 204,-19.5 204,-0.5 110,-0.5"/>
<text text-anchor="middle" x="157" y="-7.5" font-family="Helvetica,sans-Serif" font-size="10.00">mars::viz::MyApp</text>
</a>
</g>
</g>
<!-- Node1&#45;&gt;Node4 -->
<g id="edge3" class="edge"><title>Node1&#45;&gt;Node4</title>
<path fill="none" stroke="midnightblue" d="M76.7098,-35.3196C92.7886,-30.1852 111.043,-24.3559 125.981,-19.5859"/>
<polygon fill="midnightblue" stroke="midnightblue" points="75.4901,-32.0348 67.0287,-38.411 77.6195,-38.7031 75.4901,-32.0348"/>
</g>
</g>
</svg>
