<?xml version="1.0" encoding="UTF-8" standalone="no"?>
<!DOCTYPE svg PUBLIC "-//W3C//DTD SVG 1.1//EN"
 "http://www.w3.org/Graphics/SVG/1.1/DTD/svg11.dtd">
<!-- Generated by graphviz version 2.26.3 (20100126.1600)
 -->
<!-- Title: /home/kavonszadkowski/limes&#45;dev/simulation/mars/gui/src/Widget_Node_State.cpp Pages: 1 -->
<svg width="1024pt" height="214pt"
 viewBox="0.00 0.00 1024.00 214.00" xmlns="http://www.w3.org/2000/svg" xmlns:xlink="http://www.w3.org/1999/xlink">
<g id="graph1" class="graph" transform="scale(1 1) rotate(0) translate(4 210)">
<title>/home/kavonszadkowski/limes&#45;dev/simulation/mars/gui/src/Widget_Node_State.cpp</title>
<polygon fill="white" stroke="white" points="-4,5 -4,-210 1021,-210 1021,5 -4,5"/>
<!-- Node1 -->
<g id="node1" class="node"><title>Node1</title>
<polygon fill="#bfbfbf" stroke="black" points="604,-145 604,-205 740,-205 740,-145 604,-145"/>
<text text-anchor="start" x="612" y="-192" font-family="Helvetica,sans-Serif" font-size="10.00">/home/kavonszadkowski</text>
<text text-anchor="start" x="612" y="-179" font-family="Helvetica,sans-Serif" font-size="10.00">/limes&#45;dev/simulation</text>
<text text-anchor="start" x="612" y="-166" font-family="Helvetica,sans-Serif" font-size="10.00">/mars/gui/src/Widget_Node</text>
<text text-anchor="middle" x="672" y="-153" font-family="Helvetica,sans-Serif" font-size="10.00">_State.cpp</text>
</g>
<!-- Node2 -->
<g id="node3" class="node"><title>Node2</title>
<a xlink:href="../../d7/d84/_widget___node___state_8h.html" target="_top" xlink:title="Widget_Node_State.h">
<polygon fill="white" stroke="black" points="412.5,-79.5 412.5,-100.5 525.5,-100.5 525.5,-79.5 412.5,-79.5"/>
<text text-anchor="middle" x="469" y="-87.5" font-family="Helvetica,sans-Serif" font-size="10.00">Widget_Node_State.h</text>
</a>
</g>
<!-- Node1&#45;&gt;Node2 -->
<g id="edge2" class="edge"><title>Node1&#45;&gt;Node2</title>
<path fill="none" stroke="midnightblue" d="M603.839,-146.46C570.191,-132.371 531.045,-115.979 503.627,-104.499"/>
<polygon fill="midnightblue" stroke="midnightblue" points="504.665,-101.139 494.089,-100.505 501.961,-107.596 504.665,-101.139"/>
</g>
<!-- Node10 -->
<g id="node19" class="node"><title>Node10</title>
<polygon fill="white" stroke="#bfbfbf" points="542.5,-79.5 542.5,-100.5 655.5,-100.5 655.5,-79.5 542.5,-79.5"/>
<text text-anchor="middle" x="599" y="-87.5" font-family="Helvetica,sans-Serif" font-size="10.00">mars/utils/mathUtils.h</text>
</g>
<!-- Node1&#45;&gt;Node10 -->
<g id="edge18" class="edge"><title>Node1&#45;&gt;Node10</title>
<path fill="none" stroke="midnightblue" d="M646.057,-144.793C635.71,-132.744 624.123,-119.253 615.037,-108.673"/>
<polygon fill="midnightblue" stroke="midnightblue" points="617.527,-106.201 608.357,-100.895 612.217,-110.762 617.527,-106.201"/>
</g>
<!-- Node11 -->
<g id="node21" class="node"><title>Node11</title>
<polygon fill="white" stroke="#bfbfbf" points="672.5,-73 672.5,-107 817.5,-107 817.5,-73 672.5,-73"/>
<text text-anchor="start" x="680.5" y="-94" font-family="Helvetica,sans-Serif" font-size="10.00">mars/data_broker/DataBroker</text>
<text text-anchor="middle" x="745" y="-81" font-family="Helvetica,sans-Serif" font-size="10.00">Interface.h</text>
</g>
<!-- Node1&#45;&gt;Node11 -->
<g id="edge20" class="edge"><title>Node1&#45;&gt;Node11</title>
<path fill="none" stroke="midnightblue" d="M697.943,-144.793C706.31,-135.049 715.488,-124.363 723.499,-115.035"/>
<polygon fill="midnightblue" stroke="midnightblue" points="726.329,-117.112 730.189,-107.246 721.018,-112.552 726.329,-117.112"/>
</g>
<!-- Node12 -->
<g id="node23" class="node"><title>Node12</title>
<polygon fill="white" stroke="#bfbfbf" points="834.5,-73 834.5,-107 961.5,-107 961.5,-73 834.5,-73"/>
<text text-anchor="start" x="842.5" y="-94" font-family="Helvetica,sans-Serif" font-size="10.00">mars/interfaces/sim</text>
<text text-anchor="middle" x="898" y="-81" font-family="Helvetica,sans-Serif" font-size="10.00">/NodeManagerInterface.h</text>
</g>
<!-- Node1&#45;&gt;Node12 -->
<g id="edge22" class="edge"><title>Node1&#45;&gt;Node12</title>
<path fill="none" stroke="midnightblue" d="M740.114,-149.382C772.951,-137.032 811.827,-122.41 842.786,-110.766"/>
<polygon fill="midnightblue" stroke="midnightblue" points="844.414,-113.894 852.542,-107.097 841.95,-107.342 844.414,-113.894"/>
</g>
<!-- Node3 -->
<g id="node5" class="node"><title>Node3</title>
<polygon fill="white" stroke="#bfbfbf" points="0,-7.5 0,-28.5 156,-28.5 156,-7.5 0,-7.5"/>
<text text-anchor="middle" x="78" y="-15.5" font-family="Helvetica,sans-Serif" font-size="10.00">mars/main_gui/PropertyDialog.h</text>
</g>
<!-- Node2&#45;&gt;Node3 -->
<g id="edge4" class="edge"><title>Node2&#45;&gt;Node3</title>
<path fill="none" stroke="midnightblue" d="M412.323,-80.4243C351.199,-69.9824 251.067,-52.5441 165,-36 156.101,-34.2894 146.705,-32.416 137.508,-30.5445"/>
<polygon fill="midnightblue" stroke="midnightblue" points="138.139,-27.1011 127.64,-28.5224 136.733,-33.9586 138.139,-27.1011"/>
</g>
<!-- Node4 -->
<g id="node7" class="node"><title>Node4</title>
<polygon fill="white" stroke="#bfbfbf" points="173.5,-1 173.5,-35 276.5,-35 276.5,-1 173.5,-1"/>
<text text-anchor="start" x="181.5" y="-22" font-family="Helvetica,sans-Serif" font-size="10.00">mars/interfaces/sim</text>
<text text-anchor="middle" x="225" y="-9" font-family="Helvetica,sans-Serif" font-size="10.00">/ControlCenter.h</text>
</g>
<!-- Node2&#45;&gt;Node4 -->
<g id="edge6" class="edge"><title>Node2&#45;&gt;Node4</title>
<path fill="none" stroke="midnightblue" d="M432.672,-79.4083C397.574,-69.1597 342.647,-53.0804 286.464,-36.4277"/>
<polygon fill="midnightblue" stroke="midnightblue" points="287.287,-33.0211 276.705,-33.5328 285.297,-39.7321 287.287,-33.0211"/>
</g>
<!-- Node5 -->
<g id="node9" class="node"><title>Node5</title>
<polygon fill="white" stroke="#bfbfbf" points="293.5,-7.5 293.5,-28.5 392.5,-28.5 392.5,-7.5 293.5,-7.5"/>
<text text-anchor="middle" x="343" y="-15.5" font-family="Helvetica,sans-Serif" font-size="10.00">mars/utils/Vector.h</text>
</g>
<!-- Node2&#45;&gt;Node5 -->
<g id="edge8" class="edge"><title>Node2&#45;&gt;Node5</title>
<path fill="none" stroke="midnightblue" d="M450.408,-79.3762C429.285,-67.3054 394.608,-47.4905 370.388,-33.6506"/>
<polygon fill="midnightblue" stroke="midnightblue" points="372.087,-30.59 361.668,-28.6674 368.614,-36.6677 372.087,-30.59"/>
</g>
<!-- Node6 -->
<g id="node11" class="node"><title>Node6</title>
<polygon fill="white" stroke="#bfbfbf" points="410,-7.5 410,-28.5 528,-28.5 528,-7.5 410,-7.5"/>
<text text-anchor="middle" x="469" y="-15.5" font-family="Helvetica,sans-Serif" font-size="10.00">mars/utils/Quaternion.h</text>
</g>
<!-- Node2&#45;&gt;Node6 -->
<g id="edge10" class="edge"><title>Node2&#45;&gt;Node6</title>
<path fill="none" stroke="midnightblue" d="M469,-79.3762C469,-68.7412 469,-52.0946 469,-38.8195"/>
<polygon fill="midnightblue" stroke="midnightblue" points="472.5,-38.6674 469,-28.6674 465.5,-38.6675 472.5,-38.6674"/>
</g>
<!-- Node7 -->
<g id="node13" class="node"><title>Node7</title>
<polygon fill="white" stroke="#bfbfbf" points="546,-7.5 546,-28.5 692,-28.5 692,-7.5 546,-7.5"/>
<text text-anchor="middle" x="619" y="-15.5" font-family="Helvetica,sans-Serif" font-size="10.00">mars/interfaces/MARSDefs.h</text>
</g>
<!-- Node2&#45;&gt;Node7 -->
<g id="edge12" class="edge"><title>Node2&#45;&gt;Node7</title>
<path fill="none" stroke="midnightblue" d="M491.133,-79.3762C516.613,-67.1459 558.655,-46.9654 587.531,-33.105"/>
<polygon fill="midnightblue" stroke="midnightblue" points="589.276,-36.1501 596.776,-28.6674 586.246,-29.8395 589.276,-36.1501"/>
</g>
<!-- Node8 -->
<g id="node15" class="node"><title>Node8</title>
<polygon fill="white" stroke="#bfbfbf" points="710,-1 710,-35 844,-35 844,-1 710,-1"/>
<text text-anchor="start" x="718" y="-22" font-family="Helvetica,sans-Serif" font-size="10.00">mars/data_broker/Receiver</text>
<text text-anchor="middle" x="777" y="-9" font-family="Helvetica,sans-Serif" font-size="10.00">Interface.h</text>
</g>
<!-- Node2&#45;&gt;Node8 -->
<g id="edge14" class="edge"><title>Node2&#45;&gt;Node8</title>
<path fill="none" stroke="midnightblue" d="M505.684,-79.4423C514.901,-76.9 524.79,-74.2659 534,-72 604.705,-54.6047 625.276,-52.8699 699.989,-36.198"/>
<polygon fill="midnightblue" stroke="midnightblue" points="700.891,-39.5825 709.88,-33.9745 699.356,-32.753 700.891,-39.5825"/>
</g>
<!-- Node9 -->
<g id="node17" class="node"><title>Node9</title>
<polygon fill="white" stroke="#bfbfbf" points="861.5,-1 861.5,-35 1016.5,-35 1016.5,-1 861.5,-1"/>
<text text-anchor="start" x="869.5" y="-22" font-family="Helvetica,sans-Serif" font-size="10.00">mars/data_broker/DataPackage</text>
<text text-anchor="middle" x="939" y="-9" font-family="Helvetica,sans-Serif" font-size="10.00">Mapping.h</text>
</g>
<!-- Node2&#45;&gt;Node9 -->
<g id="edge16" class="edge"><title>Node2&#45;&gt;Node9</title>
<path fill="none" stroke="midnightblue" d="M503.168,-79.4494C513.042,-76.698 523.884,-73.9589 534,-72 670.93,-45.486 710.369,-58.0421 851.363,-36.1783"/>
<polygon fill="midnightblue" stroke="midnightblue" points="851.914,-39.6347 861.245,-34.6158 850.821,-32.7206 851.914,-39.6347"/>
</g>
</g>
</svg>
