<?xml version="1.0" encoding="UTF-8" standalone="no"?>
<!DOCTYPE svg PUBLIC "-//W3C//DTD SVG 1.1//EN"
 "http://www.w3.org/Graphics/SVG/1.1/DTD/svg11.dtd">
<!-- Generated by graphviz version 2.36.0 (20140111.2315)
 -->
<!-- Title: /media/kavonszadkowski/work/marsdocs/mars/gui/src/JoystickWidget.h Pages: 1 -->
<svg width="410pt" height="284pt"
 viewBox="0.00 0.00 410.00 284.00" xmlns="http://www.w3.org/2000/svg" xmlns:xlink="http://www.w3.org/1999/xlink">
<g id="graph0" class="graph" transform="scale(1 1) rotate(0) translate(4 280)">
<title>/media/kavonszadkowski/work/marsdocs/mars/gui/src/JoystickWidget.h</title>
<polygon fill="white" stroke="none" points="-4,4 -4,-280 406,-280 406,4 -4,4"/>
<!-- Node1 -->
<g id="node1" class="node"><title>Node1</title>
<polygon fill="#bfbfbf" stroke="black" points="172.5,-234.5 172.5,-275.5 299.5,-275.5 299.5,-234.5 172.5,-234.5"/>
<text text-anchor="start" x="180.5" y="-263.5" font-family="Helvetica,sans-Serif" font-size="10.00">/media/kavonszadkowski</text>
<text text-anchor="start" x="180.5" y="-252.5" font-family="Helvetica,sans-Serif" font-size="10.00">/work/marsdocs/mars/gui</text>
<text text-anchor="middle" x="236" y="-241.5" font-family="Helvetica,sans-Serif" font-size="10.00">/src/JoystickWidget.h</text>
</g>
<!-- Node2 -->
<g id="node2" class="node"><title>Node2</title>
<g id="a_node2"><a xlink:href="../../de/ddb/_dialog_joystick_8h.html" target="_top" xlink:title="/media/kavonszadkowski\l/work/marsdocs/mars/gui\l/src/dialogs/DialogJoystick.h">
<polygon fill="white" stroke="black" points="88.5,-156.5 88.5,-197.5 231.5,-197.5 231.5,-156.5 88.5,-156.5"/>
<text text-anchor="start" x="96.5" y="-185.5" font-family="Helvetica,sans-Serif" font-size="10.00">/media/kavonszadkowski</text>
<text text-anchor="start" x="96.5" y="-174.5" font-family="Helvetica,sans-Serif" font-size="10.00">/work/marsdocs/mars/gui</text>
<text text-anchor="middle" x="160" y="-163.5" font-family="Helvetica,sans-Serif" font-size="10.00">/src/dialogs/DialogJoystick.h</text>
</a>
</g>
</g>
<!-- Node1&#45;&gt;Node2 -->
<g id="edge1" class="edge"><title>Node1&#45;&gt;Node2</title>
<path fill="none" stroke="midnightblue" d="M209.204,-227.204C199.416,-217.416 188.539,-206.539 179.506,-197.506"/>
<polygon fill="midnightblue" stroke="midnightblue" points="206.882,-229.832 216.428,-234.428 211.832,-224.882 206.882,-229.832"/>
</g>
<!-- Node7 -->
<g id="node7" class="node"><title>Node7</title>
<g id="a_node7"><a xlink:href="../../df/da3/_joystick_widget_8cpp.html" target="_top" xlink:title="/media/kavonszadkowski\l/work/marsdocs/mars/gui\l/src/JoystickWidget.cpp">
<polygon fill="white" stroke="black" points="249.5,-156.5 249.5,-197.5 376.5,-197.5 376.5,-156.5 249.5,-156.5"/>
<text text-anchor="start" x="257.5" y="-185.5" font-family="Helvetica,sans-Serif" font-size="10.00">/media/kavonszadkowski</text>
<text text-anchor="start" x="257.5" y="-174.5" font-family="Helvetica,sans-Serif" font-size="10.00">/work/marsdocs/mars/gui</text>
<text text-anchor="middle" x="313" y="-163.5" font-family="Helvetica,sans-Serif" font-size="10.00">/src/JoystickWidget.cpp</text>
</a>
</g>
</g>
<!-- Node1&#45;&gt;Node7 -->
<g id="edge6" class="edge"><title>Node1&#45;&gt;Node7</title>
<path fill="none" stroke="midnightblue" d="M263.149,-227.204C273.065,-217.416 284.086,-206.539 293.238,-197.506"/>
<polygon fill="midnightblue" stroke="midnightblue" points="260.488,-224.912 255.829,-234.428 265.405,-229.894 260.488,-224.912"/>
</g>
<!-- Node3 -->
<g id="node3" class="node"><title>Node3</title>
<g id="a_node3"><a xlink:href="../../d4/dda/_dialog_joystick_8cpp.html" target="_top" xlink:title="/media/kavonszadkowski\l/work/marsdocs/mars/gui\l/src/dialogs/DialogJoystick.cpp">
<polygon fill="white" stroke="black" points="-0.5,-78.5 -0.5,-119.5 152.5,-119.5 152.5,-78.5 -0.5,-78.5"/>
<text text-anchor="start" x="7.5" y="-107.5" font-family="Helvetica,sans-Serif" font-size="10.00">/media/kavonszadkowski</text>
<text text-anchor="start" x="7.5" y="-96.5" font-family="Helvetica,sans-Serif" font-size="10.00">/work/marsdocs/mars/gui</text>
<text text-anchor="middle" x="76" y="-85.5" font-family="Helvetica,sans-Serif" font-size="10.00">/src/dialogs/DialogJoystick.cpp</text>
</a>
</g>
</g>
<!-- Node2&#45;&gt;Node3 -->
<g id="edge2" class="edge"><title>Node2&#45;&gt;Node3</title>
<path fill="none" stroke="midnightblue" d="M130.701,-149.492C119.801,-139.629 107.641,-128.627 97.5588,-119.506"/>
<polygon fill="midnightblue" stroke="midnightblue" points="128.604,-152.314 138.368,-156.428 133.301,-147.124 128.604,-152.314"/>
</g>
<!-- Node4 -->
<g id="node4" class="node"><title>Node4</title>
<g id="a_node4"><a xlink:href="../../d3/d92/_menu_simulation_8h.html" target="_top" xlink:title="Provides the Simulation and Control menu entries. ">
<polygon fill="white" stroke="black" points="171,-78.5 171,-119.5 317,-119.5 317,-78.5 171,-78.5"/>
<text text-anchor="start" x="179" y="-107.5" font-family="Helvetica,sans-Serif" font-size="10.00">/media/kavonszadkowski</text>
<text text-anchor="start" x="179" y="-96.5" font-family="Helvetica,sans-Serif" font-size="10.00">/work/marsdocs/mars/gui</text>
<text text-anchor="middle" x="244" y="-85.5" font-family="Helvetica,sans-Serif" font-size="10.00">/src/menus/MenuSimulation.h</text>
</a>
</g>
</g>
<!-- Node2&#45;&gt;Node4 -->
<g id="edge3" class="edge"><title>Node2&#45;&gt;Node4</title>
<path fill="none" stroke="midnightblue" d="M189.299,-149.492C200.199,-139.629 212.359,-128.627 222.441,-119.506"/>
<polygon fill="midnightblue" stroke="midnightblue" points="186.699,-147.124 181.632,-156.428 191.396,-152.314 186.699,-147.124"/>
</g>
<!-- Node5 -->
<g id="node5" class="node"><title>Node5</title>
<g id="a_node5"><a xlink:href="../../da/d1e/_mars_gui_8cpp.html" target="_top" xlink:title="/media/kavonszadkowski\l/work/marsdocs/mars/gui\l/src/MarsGui.cpp">
<polygon fill="white" stroke="black" points="100.5,-0.5 100.5,-41.5 227.5,-41.5 227.5,-0.5 100.5,-0.5"/>
<text text-anchor="start" x="108.5" y="-29.5" font-family="Helvetica,sans-Serif" font-size="10.00">/media/kavonszadkowski</text>
<text text-anchor="start" x="108.5" y="-18.5" font-family="Helvetica,sans-Serif" font-size="10.00">/work/marsdocs/mars/gui</text>
<text text-anchor="middle" x="164" y="-7.5" font-family="Helvetica,sans-Serif" font-size="10.00">/src/MarsGui.cpp</text>
</a>
</g>
</g>
<!-- Node4&#45;&gt;Node5 -->
<g id="edge4" class="edge"><title>Node4&#45;&gt;Node5</title>
<path fill="none" stroke="midnightblue" d="M216.096,-71.4916C205.715,-61.6294 194.134,-50.6273 184.532,-41.5056"/>
<polygon fill="midnightblue" stroke="midnightblue" points="213.737,-74.0781 223.398,-78.4281 218.559,-69.0031 213.737,-74.0781"/>
</g>
<!-- Node6 -->
<g id="node6" class="node"><title>Node6</title>
<g id="a_node6"><a xlink:href="../../d9/d82/_menu_simulation_8cpp.html" target="_top" xlink:title="/media/kavonszadkowski\l/work/marsdocs/mars/gui\l/src/menus/MenuSimulation.cpp">
<polygon fill="white" stroke="black" points="245.5,-0.5 245.5,-41.5 402.5,-41.5 402.5,-0.5 245.5,-0.5"/>
<text text-anchor="start" x="253.5" y="-29.5" font-family="Helvetica,sans-Serif" font-size="10.00">/media/kavonszadkowski</text>
<text text-anchor="start" x="253.5" y="-18.5" font-family="Helvetica,sans-Serif" font-size="10.00">/work/marsdocs/mars/gui</text>
<text text-anchor="middle" x="324" y="-7.5" font-family="Helvetica,sans-Serif" font-size="10.00">/src/menus/MenuSimulation.cpp</text>
</a>
</g>
</g>
<!-- Node4&#45;&gt;Node6 -->
<g id="edge5" class="edge"><title>Node4&#45;&gt;Node6</title>
<path fill="none" stroke="midnightblue" d="M271.904,-71.4916C282.285,-61.6294 293.866,-50.6273 303.468,-41.5056"/>
<polygon fill="midnightblue" stroke="midnightblue" points="269.441,-69.0031 264.602,-78.4281 274.263,-74.0781 269.441,-69.0031"/>
</g>
</g>
</svg>
