<?xml version="1.0" encoding="UTF-8" standalone="no"?>
<!DOCTYPE svg PUBLIC "-//W3C//DTD SVG 1.1//EN"
 "http://www.w3.org/Graphics/SVG/1.1/DTD/svg11.dtd">
<!-- Generated by graphviz version 2.36.0 (20140111.2315)
 -->
<!-- Title: mars::utils::Thread Pages: 1 -->
<svg width="270pt" height="188pt"
 viewBox="0.00 0.00 270.00 188.00" xmlns="http://www.w3.org/2000/svg" xmlns:xlink="http://www.w3.org/1999/xlink">
<g id="graph0" class="graph" transform="scale(1 1) rotate(0) translate(4 184)">
<title>mars::utils::Thread</title>
<polygon fill="white" stroke="none" points="-4,4 -4,-184 266,-184 266,4 -4,4"/>
<!-- Node1 -->
<g id="node1" class="node"><title>Node1</title>
<polygon fill="#bfbfbf" stroke="black" points="67,-0.5 67,-19.5 165,-19.5 165,-0.5 67,-0.5"/>
<text text-anchor="middle" x="116" y="-7.5" font-family="Helvetica,sans-Serif" font-size="10.00">mars::utils::Thread</text>
</g>
<!-- Node2 -->
<g id="node2" class="node"><title>Node2</title>
<g id="a_node2"><a xlink:href="../../db/de7/structmars_1_1utils_1_1_pthread_thread_wrapper.html" target="_top" xlink:title="mars::utils::PthreadThread\lWrapper">
<polygon fill="white" stroke="black" points="0,-69 0,-99 132,-99 132,-69 0,-69"/>
<text text-anchor="start" x="8" y="-87" font-family="Helvetica,sans-Serif" font-size="10.00">mars::utils::PthreadThread</text>
<text text-anchor="middle" x="66" y="-76" font-family="Helvetica,sans-Serif" font-size="10.00">Wrapper</text>
</a>
</g>
</g>
<!-- Node2&#45;&gt;Node1 -->
<g id="edge1" class="edge"><title>Node2&#45;&gt;Node1</title>
<path fill="none" stroke="#9a32cd" stroke-dasharray="5,2" d="M81.7829,-60.2726C91.3336,-46.5196 102.971,-29.7615 109.917,-19.7589"/>
<polygon fill="#9a32cd" stroke="#9a32cd" points="78.7076,-58.565 75.8784,-68.7751 84.4572,-62.5578 78.7076,-58.565"/>
<text text-anchor="middle" x="120.5" y="-41.5" font-family="Helvetica,sans-Serif" font-size="10.00"> myThread</text>
</g>
<!-- Node3 -->
<g id="node3" class="node"><title>Node3</title>
<g id="a_node3"><a xlink:href="../../d6/d90/classmars_1_1utils_1_1_mutex.html" target="_top" xlink:title="mars::utils::Mutex">
<polygon fill="white" stroke="black" points="150.5,-74.5 150.5,-93.5 245.5,-93.5 245.5,-74.5 150.5,-74.5"/>
<text text-anchor="middle" x="198" y="-81.5" font-family="Helvetica,sans-Serif" font-size="10.00">mars::utils::Mutex</text>
</a>
</g>
</g>
<!-- Node3&#45;&gt;Node1 -->
<g id="edge2" class="edge"><title>Node3&#45;&gt;Node1</title>
<path fill="none" stroke="#9a32cd" stroke-dasharray="5,2" d="M180.337,-67.4913C163.622,-52.8145 139.148,-31.325 125.716,-19.531"/>
<polygon fill="#9a32cd" stroke="#9a32cd" points="178.448,-70.4899 188.272,-74.4579 183.066,-65.2298 178.448,-70.4899"/>
<text text-anchor="middle" x="195.5" y="-41.5" font-family="Helvetica,sans-Serif" font-size="10.00"> threadListMutex</text>
</g>
<!-- Node4 -->
<g id="node4" class="node"><title>Node4</title>
<g id="a_node4"><a xlink:href="../../d6/d9e/structmars_1_1utils_1_1_pthread_mutex_wrapper.html" target="_top" xlink:title="mars::utils::PthreadMutex\lWrapper">
<polygon fill="white" stroke="black" points="133.5,-149 133.5,-179 262.5,-179 262.5,-149 133.5,-149"/>
<text text-anchor="start" x="141.5" y="-167" font-family="Helvetica,sans-Serif" font-size="10.00">mars::utils::PthreadMutex</text>
<text text-anchor="middle" x="198" y="-156" font-family="Helvetica,sans-Serif" font-size="10.00">Wrapper</text>
</a>
</g>
</g>
<!-- Node4&#45;&gt;Node3 -->
<g id="edge3" class="edge"><title>Node4&#45;&gt;Node3</title>
<path fill="none" stroke="#9a32cd" stroke-dasharray="5,2" d="M198,-138.394C198,-123.208 198,-104.635 198,-93.8764"/>
<polygon fill="#9a32cd" stroke="#9a32cd" points="194.5,-138.694 198,-148.694 201.5,-138.694 194.5,-138.694"/>
<text text-anchor="middle" x="220" y="-121.5" font-family="Helvetica,sans-Serif" font-size="10.00"> myMutex</text>
</g>
</g>
</svg>
