<?xml version="1.0" encoding="UTF-8" standalone="no"?>
<!DOCTYPE svg PUBLIC "-//W3C//DTD SVG 1.1//EN"
 "http://www.w3.org/Graphics/SVG/1.1/DTD/svg11.dtd">
<!-- Generated by graphviz version 2.26.3 (20100126.1600)
 -->
<!-- Title: /home/kavonszadkowski/limes&#45;dev/simulation/mars/common/cfg_manager/src/CFGDefs.h Pages: 1 -->
<svg width="976pt" height="462pt"
 viewBox="0.00 0.00 976.00 462.00" xmlns="http://www.w3.org/2000/svg" xmlns:xlink="http://www.w3.org/1999/xlink">
<g id="graph1" class="graph" transform="scale(1 1) rotate(0) translate(4 458)">
<title>/home/kavonszadkowski/limes&#45;dev/simulation/mars/common/cfg_manager/src/CFGDefs.h</title>
<polygon fill="white" stroke="white" points="-4,5 -4,-458 973,-458 973,5 -4,5"/>
<!-- Node1 -->
<g id="node1" class="node"><title>Node1</title>
<polygon fill="#bfbfbf" stroke="black" points="304.5,-393 304.5,-453 445.5,-453 445.5,-393 304.5,-393"/>
<text text-anchor="start" x="312.5" y="-440" font-family="Helvetica,sans-Serif" font-size="10.00">/home/kavonszadkowski</text>
<text text-anchor="start" x="312.5" y="-427" font-family="Helvetica,sans-Serif" font-size="10.00">/limes&#45;dev/simulation</text>
<text text-anchor="start" x="312.5" y="-414" font-family="Helvetica,sans-Serif" font-size="10.00">/mars/common/cfg_manager</text>
<text text-anchor="middle" x="375" y="-401" font-family="Helvetica,sans-Serif" font-size="10.00">/src/CFGDefs.h</text>
</g>
<!-- Node2 -->
<g id="node3" class="node"><title>Node2</title>
<a xlink:href="../../d4/dce/_c_f_g_client_8h.html" target="_top" xlink:title="&#39;CFGClient&#39; is a interface to register to a value ">
<polygon fill="white" stroke="black" points="255.5,-295 255.5,-355 396.5,-355 396.5,-295 255.5,-295"/>
<text text-anchor="start" x="263.5" y="-342" font-family="Helvetica,sans-Serif" font-size="10.00">/home/kavonszadkowski</text>
<text text-anchor="start" x="263.5" y="-329" font-family="Helvetica,sans-Serif" font-size="10.00">/limes&#45;dev/simulation</text>
<text text-anchor="start" x="263.5" y="-316" font-family="Helvetica,sans-Serif" font-size="10.00">/mars/common/cfg_manager</text>
<text text-anchor="middle" x="326" y="-303" font-family="Helvetica,sans-Serif" font-size="10.00">/src/CFGClient.h</text>
</a>
</g>
<!-- Node1&#45;&gt;Node2 -->
<g id="edge2" class="edge"><title>Node1&#45;&gt;Node2</title>
<path fill="none" stroke="midnightblue" d="M355.291,-383.581C350.573,-374.147 345.61,-364.219 341.136,-355.272"/>
<polygon fill="midnightblue" stroke="midnightblue" points="352.296,-385.418 359.899,-392.797 358.557,-382.288 352.296,-385.418"/>
</g>
<!-- Node3 -->
<g id="node5" class="node"><title>Node3</title>
<a xlink:href="../../d0/db4/_c_f_g_manager_interface_8h.html" target="_top" xlink:title="&#39;CFGManager&#39; is a class to handle the config file and to update values stored in MARS ...">
<polygon fill="white" stroke="black" points="157.5,-197 157.5,-257 298.5,-257 298.5,-197 157.5,-197"/>
<text text-anchor="start" x="165.5" y="-244" font-family="Helvetica,sans-Serif" font-size="10.00">/home/kavonszadkowski</text>
<text text-anchor="start" x="165.5" y="-231" font-family="Helvetica,sans-Serif" font-size="10.00">/limes&#45;dev/simulation</text>
<text text-anchor="start" x="165.5" y="-218" font-family="Helvetica,sans-Serif" font-size="10.00">/mars/common/cfg_manager</text>
<text text-anchor="middle" x="228" y="-205" font-family="Helvetica,sans-Serif" font-size="10.00">/src/CFGManagerInterface.h</text>
</a>
</g>
<!-- Node1&#45;&gt;Node3 -->
<g id="edge40" class="edge"><title>Node1&#45;&gt;Node3</title>
<path fill="none" stroke="midnightblue" d="M295.106,-395.793C276.714,-385.964 259.042,-372.961 247,-356 226.49,-327.113 223.956,-285.335 225.085,-257.222"/>
<polygon fill="midnightblue" stroke="midnightblue" points="293.666,-398.987 304.17,-400.367 296.819,-392.738 293.666,-398.987"/>
</g>
<!-- Node6 -->
<g id="node11" class="node"><title>Node6</title>
<a xlink:href="../../dd/d65/_c_f_g_param_8h.html" target="_top" xlink:title="CFGParam is the root class for param objects. ">
<polygon fill="white" stroke="black" points="353.5,-197 353.5,-257 494.5,-257 494.5,-197 353.5,-197"/>
<text text-anchor="start" x="361.5" y="-244" font-family="Helvetica,sans-Serif" font-size="10.00">/home/kavonszadkowski</text>
<text text-anchor="start" x="361.5" y="-231" font-family="Helvetica,sans-Serif" font-size="10.00">/limes&#45;dev/simulation</text>
<text text-anchor="start" x="361.5" y="-218" font-family="Helvetica,sans-Serif" font-size="10.00">/mars/common/cfg_manager</text>
<text text-anchor="middle" x="424" y="-205" font-family="Helvetica,sans-Serif" font-size="10.00">/src/CFGParam.h</text>
</a>
</g>
<!-- Node1&#45;&gt;Node6 -->
<g id="edge42" class="edge"><title>Node1&#45;&gt;Node6</title>
<path fill="none" stroke="midnightblue" d="M394.787,-383.611C398.652,-374.703 402.329,-365.165 405,-356 414.629,-322.966 419.521,-283.682 421.908,-257.216"/>
<polygon fill="midnightblue" stroke="midnightblue" points="391.481,-382.428 390.558,-392.982 397.862,-385.307 391.481,-382.428"/>
</g>
<!-- Node16 -->
<g id="node38" class="node"><title>Node16</title>
<a xlink:href="../../da/d11/_c_f_g_property_8h.html" target="_top" xlink:title="CFGProperty holds the value for one property of a CFGParam. ">
<polygon fill="white" stroke="black" points="451.5,-295 451.5,-355 592.5,-355 592.5,-295 451.5,-295"/>
<text text-anchor="start" x="459.5" y="-342" font-family="Helvetica,sans-Serif" font-size="10.00">/home/kavonszadkowski</text>
<text text-anchor="start" x="459.5" y="-329" font-family="Helvetica,sans-Serif" font-size="10.00">/limes&#45;dev/simulation</text>
<text text-anchor="start" x="459.5" y="-316" font-family="Helvetica,sans-Serif" font-size="10.00">/mars/common/cfg_manager</text>
<text text-anchor="middle" x="522" y="-303" font-family="Helvetica,sans-Serif" font-size="10.00">/src/CFGProperty.h</text>
</a>
</g>
<!-- Node1&#45;&gt;Node16 -->
<g id="edge44" class="edge"><title>Node1&#45;&gt;Node16</title>
<path fill="none" stroke="midnightblue" d="M428.901,-387.066C444.651,-376.566 461.697,-365.202 476.845,-355.103"/>
<polygon fill="midnightblue" stroke="midnightblue" points="426.683,-384.338 420.304,-392.797 430.566,-390.162 426.683,-384.338"/>
</g>
<!-- Node2&#45;&gt;Node3 -->
<g id="edge4" class="edge"><title>Node2&#45;&gt;Node3</title>
<path fill="none" stroke="midnightblue" d="M288.637,-287.637C278.6,-277.6 267.871,-266.871 258.272,-257.272"/>
<polygon fill="midnightblue" stroke="midnightblue" points="286.251,-290.201 295.797,-294.797 291.201,-285.251 286.251,-290.201"/>
</g>
<!-- Node2&#45;&gt;Node6 -->
<g id="edge10" class="edge"><title>Node2&#45;&gt;Node6</title>
<path fill="none" stroke="midnightblue" d="M363.363,-287.637C373.4,-277.6 384.129,-266.871 393.728,-257.272"/>
<polygon fill="midnightblue" stroke="midnightblue" points="360.799,-285.251 356.203,-294.797 365.749,-290.201 360.799,-285.251"/>
</g>
<!-- Node4 -->
<g id="node7" class="node"><title>Node4</title>
<a xlink:href="../../de/d36/_c_f_g_manager_8h.html" target="_top" xlink:title="CFGManager is a class to handle YAML&#45;config file. ">
<polygon fill="white" stroke="black" points="-0.5,-99 -0.5,-159 140.5,-159 140.5,-99 -0.5,-99"/>
<text text-anchor="start" x="7.5" y="-146" font-family="Helvetica,sans-Serif" font-size="10.00">/home/kavonszadkowski</text>
<text text-anchor="start" x="7.5" y="-133" font-family="Helvetica,sans-Serif" font-size="10.00">/limes&#45;dev/simulation</text>
<text text-anchor="start" x="7.5" y="-120" font-family="Helvetica,sans-Serif" font-size="10.00">/mars/common/cfg_manager</text>
<text text-anchor="middle" x="70" y="-107" font-family="Helvetica,sans-Serif" font-size="10.00">/src/CFGManager.h</text>
</a>
</g>
<!-- Node3&#45;&gt;Node4 -->
<g id="edge6" class="edge"><title>Node3&#45;&gt;Node4</title>
<path fill="none" stroke="midnightblue" d="M170.536,-191.358C153.476,-180.776 134.967,-169.296 118.534,-159.103"/>
<polygon fill="midnightblue" stroke="midnightblue" points="168.963,-194.5 179.306,-196.797 172.652,-188.552 168.963,-194.5"/>
</g>
<!-- Node5 -->
<g id="node9" class="node"><title>Node5</title>
<a xlink:href="../../db/d73/_c_f_g_manager_8cpp.html" target="_top" xlink:title="CFGManager is a class to handle the config file. ">
<polygon fill="white" stroke="black" points="334.5,-1 334.5,-61 475.5,-61 475.5,-1 334.5,-1"/>
<text text-anchor="start" x="342.5" y="-48" font-family="Helvetica,sans-Serif" font-size="10.00">/home/kavonszadkowski</text>
<text text-anchor="start" x="342.5" y="-35" font-family="Helvetica,sans-Serif" font-size="10.00">/limes&#45;dev/simulation</text>
<text text-anchor="start" x="342.5" y="-22" font-family="Helvetica,sans-Serif" font-size="10.00">/mars/common/cfg_manager</text>
<text text-anchor="middle" x="405" y="-9" font-family="Helvetica,sans-Serif" font-size="10.00">/src/CFGManager.cpp</text>
</a>
</g>
<!-- Node4&#45;&gt;Node5 -->
<g id="edge8" class="edge"><title>Node4&#45;&gt;Node5</title>
<path fill="none" stroke="midnightblue" d="M150.491,-97.6869C219.609,-77.0952 240.482,-80.0657 307,-62 315.869,-59.5913 325.135,-56.8971 334.281,-54.1299"/>
<polygon fill="midnightblue" stroke="midnightblue" points="149.431,-94.3508 140.881,-100.607 151.466,-101.048 149.431,-94.3508"/>
</g>
<!-- Node6&#45;&gt;Node5 -->
<g id="edge12" class="edge"><title>Node6&#45;&gt;Node5</title>
<path fill="none" stroke="midnightblue" d="M367.644,-190.168C358.461,-181.445 350.248,-171.331 345,-160 333.42,-134.996 335.16,-123.739 345,-98 350.241,-84.2903 359.723,-71.6152 369.625,-61.0635"/>
<polygon fill="midnightblue" stroke="midnightblue" points="365.379,-192.837 375.179,-196.862 370.028,-187.603 365.379,-192.837"/>
</g>
<!-- Node7 -->
<g id="node14" class="node"><title>Node7</title>
<a xlink:href="../../d6/d6e/_c_f_g_param_double_8h.html" target="_top" xlink:title="CFGParamDouble is a class derived from CFGParam to store values of the type double. ">
<polygon fill="white" stroke="black" points="511.5,-99 511.5,-159 652.5,-159 652.5,-99 511.5,-99"/>
<text text-anchor="start" x="519.5" y="-146" font-family="Helvetica,sans-Serif" font-size="10.00">/home/kavonszadkowski</text>
<text text-anchor="start" x="519.5" y="-133" font-family="Helvetica,sans-Serif" font-size="10.00">/limes&#45;dev/simulation</text>
<text text-anchor="start" x="519.5" y="-120" font-family="Helvetica,sans-Serif" font-size="10.00">/mars/common/cfg_manager</text>
<text text-anchor="middle" x="582" y="-107" font-family="Helvetica,sans-Serif" font-size="10.00">/src/CFGParamDouble.h</text>
</a>
</g>
<!-- Node6&#45;&gt;Node7 -->
<g id="edge14" class="edge"><title>Node6&#45;&gt;Node7</title>
<path fill="none" stroke="midnightblue" d="M481.464,-191.358C498.524,-180.776 517.033,-169.296 533.466,-159.103"/>
<polygon fill="midnightblue" stroke="midnightblue" points="479.348,-188.552 472.694,-196.797 483.037,-194.5 479.348,-188.552"/>
</g>
<!-- Node9 -->
<g id="node19" class="node"><title>Node9</title>
<a xlink:href="../../d3/d6c/_c_f_g_param_int_8h.html" target="_top" xlink:title="CFGParamInt is a class derived from CFGParam to store values of the type int. ">
<polygon fill="white" stroke="black" points="669.5,-99 669.5,-159 810.5,-159 810.5,-99 669.5,-99"/>
<text text-anchor="start" x="677.5" y="-146" font-family="Helvetica,sans-Serif" font-size="10.00">/home/kavonszadkowski</text>
<text text-anchor="start" x="677.5" y="-133" font-family="Helvetica,sans-Serif" font-size="10.00">/limes&#45;dev/simulation</text>
<text text-anchor="start" x="677.5" y="-120" font-family="Helvetica,sans-Serif" font-size="10.00">/mars/common/cfg_manager</text>
<text text-anchor="middle" x="740" y="-107" font-family="Helvetica,sans-Serif" font-size="10.00">/src/CFGParamInt.h</text>
</a>
</g>
<!-- Node6&#45;&gt;Node9 -->
<g id="edge20" class="edge"><title>Node6&#45;&gt;Node9</title>
<path fill="none" stroke="midnightblue" d="M504.494,-195.699C573.665,-175.287 595.131,-180.302 661,-160 663.675,-159.175 666.388,-158.303 669.119,-157.393"/>
<polygon fill="midnightblue" stroke="midnightblue" points="503.439,-192.362 494.881,-198.607 505.466,-199.062 503.439,-192.362"/>
</g>
<!-- Node11 -->
<g id="node24" class="node"><title>Node11</title>
<a xlink:href="../../d0/d65/_c_f_g_param_bool_8h.html" target="_top" xlink:title="CFGParamBool is a class derived from CFGParam to store values of the type bool. ">
<polygon fill="white" stroke="black" points="827.5,-99 827.5,-159 968.5,-159 968.5,-99 827.5,-99"/>
<text text-anchor="start" x="835.5" y="-146" font-family="Helvetica,sans-Serif" font-size="10.00">/home/kavonszadkowski</text>
<text text-anchor="start" x="835.5" y="-133" font-family="Helvetica,sans-Serif" font-size="10.00">/limes&#45;dev/simulation</text>
<text text-anchor="start" x="835.5" y="-120" font-family="Helvetica,sans-Serif" font-size="10.00">/mars/common/cfg_manager</text>
<text text-anchor="middle" x="898" y="-107" font-family="Helvetica,sans-Serif" font-size="10.00">/src/CFGParamBool.h</text>
</a>
</g>
<!-- Node6&#45;&gt;Node11 -->
<g id="edge26" class="edge"><title>Node6&#45;&gt;Node11</title>
<path fill="none" stroke="midnightblue" d="M504.829,-195.78C642.181,-163.367 685.039,-193.307 819,-160 821.717,-159.325 824.465,-158.579 827.226,-157.776"/>
<polygon fill="midnightblue" stroke="midnightblue" points="503.665,-192.461 494.774,-198.224 505.318,-199.263 503.665,-192.461"/>
</g>
<!-- Node13 -->
<g id="node29" class="node"><title>Node13</title>
<a xlink:href="../../d1/d9c/_c_f_g_param_string_8h.html" target="_top" xlink:title="CFGParamString is a class derived from CFGParam to store values of the type string. ">
<polygon fill="white" stroke="black" points="157.5,-99 157.5,-159 298.5,-159 298.5,-99 157.5,-99"/>
<text text-anchor="start" x="165.5" y="-146" font-family="Helvetica,sans-Serif" font-size="10.00">/home/kavonszadkowski</text>
<text text-anchor="start" x="165.5" y="-133" font-family="Helvetica,sans-Serif" font-size="10.00">/limes&#45;dev/simulation</text>
<text text-anchor="start" x="165.5" y="-120" font-family="Helvetica,sans-Serif" font-size="10.00">/mars/common/cfg_manager</text>
<text text-anchor="middle" x="228" y="-107" font-family="Helvetica,sans-Serif" font-size="10.00">/src/CFGParamString.h</text>
</a>
</g>
<!-- Node6&#45;&gt;Node13 -->
<g id="edge32" class="edge"><title>Node6&#45;&gt;Node13</title>
<path fill="none" stroke="midnightblue" d="M354.676,-192.338C332.915,-181.458 309.086,-169.543 288.025,-159.012"/>
<polygon fill="midnightblue" stroke="midnightblue" points="353.352,-195.589 363.862,-196.931 356.483,-189.328 353.352,-195.589"/>
</g>
<!-- Node15 -->
<g id="node34" class="node"><title>Node15</title>
<a xlink:href="../../de/d74/_c_f_g_param_8cpp.html" target="_top" xlink:title="CFGParam is the root class for param objects. ">
<polygon fill="white" stroke="black" points="353.5,-99 353.5,-159 494.5,-159 494.5,-99 353.5,-99"/>
<text text-anchor="start" x="361.5" y="-146" font-family="Helvetica,sans-Serif" font-size="10.00">/home/kavonszadkowski</text>
<text text-anchor="start" x="361.5" y="-133" font-family="Helvetica,sans-Serif" font-size="10.00">/limes&#45;dev/simulation</text>
<text text-anchor="start" x="361.5" y="-120" font-family="Helvetica,sans-Serif" font-size="10.00">/mars/common/cfg_manager</text>
<text text-anchor="middle" x="424" y="-107" font-family="Helvetica,sans-Serif" font-size="10.00">/src/CFGParam.cpp</text>
</a>
</g>
<!-- Node6&#45;&gt;Node15 -->
<g id="edge38" class="edge"><title>Node6&#45;&gt;Node15</title>
<path fill="none" stroke="midnightblue" d="M424,-186.696C424,-177.527 424,-167.939 424,-159.272"/>
<polygon fill="midnightblue" stroke="midnightblue" points="420.5,-186.797 424,-196.797 427.5,-186.797 420.5,-186.797"/>
</g>
<!-- Node7&#45;&gt;Node5 -->
<g id="edge16" class="edge"><title>Node7&#45;&gt;Node5</title>
<path fill="none" stroke="midnightblue" d="M518.676,-93.939C499.276,-83.1982 478.117,-71.4827 459.37,-61.1032"/>
<polygon fill="midnightblue" stroke="midnightblue" points="517.006,-97.0152 527.45,-98.7971 520.397,-90.8912 517.006,-97.0152"/>
</g>
<!-- Node8 -->
<g id="node17" class="node"><title>Node8</title>
<a xlink:href="../../d5/dfd/_c_f_g_param_double_8cpp.html" target="_top" xlink:title="CFGParamDouble is a class derived from CFGParam to store values of the type double. ">
<polygon fill="white" stroke="black" points="511.5,-1 511.5,-61 652.5,-61 652.5,-1 511.5,-1"/>
<text text-anchor="start" x="519.5" y="-48" font-family="Helvetica,sans-Serif" font-size="10.00">/home/kavonszadkowski</text>
<text text-anchor="start" x="519.5" y="-35" font-family="Helvetica,sans-Serif" font-size="10.00">/limes&#45;dev/simulation</text>
<text text-anchor="start" x="519.5" y="-22" font-family="Helvetica,sans-Serif" font-size="10.00">/mars/common/cfg_manager</text>
<text text-anchor="middle" x="582" y="-9" font-family="Helvetica,sans-Serif" font-size="10.00">/src/CFGParamDouble.cpp</text>
</a>
</g>
<!-- Node7&#45;&gt;Node8 -->
<g id="edge18" class="edge"><title>Node7&#45;&gt;Node8</title>
<path fill="none" stroke="midnightblue" d="M582,-88.6956C582,-79.5273 582,-69.9394 582,-61.2718"/>
<polygon fill="midnightblue" stroke="midnightblue" points="578.5,-88.7971 582,-98.7971 585.5,-88.7972 578.5,-88.7971"/>
</g>
<!-- Node9&#45;&gt;Node5 -->
<g id="edge22" class="edge"><title>Node9&#45;&gt;Node5</title>
<path fill="none" stroke="midnightblue" d="M659.509,-97.6869C590.391,-77.0952 569.518,-80.0657 503,-62 494.131,-59.5913 484.865,-56.8971 475.719,-54.1299"/>
<polygon fill="midnightblue" stroke="midnightblue" points="658.534,-101.048 669.119,-100.607 660.569,-94.3508 658.534,-101.048"/>
</g>
<!-- Node10 -->
<g id="node22" class="node"><title>Node10</title>
<a xlink:href="../../de/dca/_c_f_g_param_int_8cpp.html" target="_top" xlink:title="CFGParamInt is a class derived from CFGParam to store values of the type int. ">
<polygon fill="white" stroke="black" points="669.5,-1 669.5,-61 810.5,-61 810.5,-1 669.5,-1"/>
<text text-anchor="start" x="677.5" y="-48" font-family="Helvetica,sans-Serif" font-size="10.00">/home/kavonszadkowski</text>
<text text-anchor="start" x="677.5" y="-35" font-family="Helvetica,sans-Serif" font-size="10.00">/limes&#45;dev/simulation</text>
<text text-anchor="start" x="677.5" y="-22" font-family="Helvetica,sans-Serif" font-size="10.00">/mars/common/cfg_manager</text>
<text text-anchor="middle" x="740" y="-9" font-family="Helvetica,sans-Serif" font-size="10.00">/src/CFGParamInt.cpp</text>
</a>
</g>
<!-- Node9&#45;&gt;Node10 -->
<g id="edge24" class="edge"><title>Node9&#45;&gt;Node10</title>
<path fill="none" stroke="midnightblue" d="M740,-88.6956C740,-79.5273 740,-69.9394 740,-61.2718"/>
<polygon fill="midnightblue" stroke="midnightblue" points="736.5,-88.7971 740,-98.7971 743.5,-88.7972 736.5,-88.7971"/>
</g>
<!-- Node11&#45;&gt;Node5 -->
<g id="edge28" class="edge"><title>Node11&#45;&gt;Node5</title>
<path fill="none" stroke="midnightblue" d="M817.173,-97.7729C679.868,-65.1543 638.01,-90.7624 503,-62 494.099,-60.1037 484.855,-57.7327 475.758,-55.1512"/>
<polygon fill="midnightblue" stroke="midnightblue" points="816.682,-101.256 827.226,-100.224 818.339,-94.4548 816.682,-101.256"/>
</g>
<!-- Node12 -->
<g id="node27" class="node"><title>Node12</title>
<a xlink:href="../../dd/d80/_c_f_g_param_bool_8cpp.html" target="_top" xlink:title="CFGParamBool is a class derived from CFGParam to store values of the type bool. ">
<polygon fill="white" stroke="black" points="827.5,-1 827.5,-61 968.5,-61 968.5,-1 827.5,-1"/>
<text text-anchor="start" x="835.5" y="-48" font-family="Helvetica,sans-Serif" font-size="10.00">/home/kavonszadkowski</text>
<text text-anchor="start" x="835.5" y="-35" font-family="Helvetica,sans-Serif" font-size="10.00">/limes&#45;dev/simulation</text>
<text text-anchor="start" x="835.5" y="-22" font-family="Helvetica,sans-Serif" font-size="10.00">/mars/common/cfg_manager</text>
<text text-anchor="middle" x="898" y="-9" font-family="Helvetica,sans-Serif" font-size="10.00">/src/CFGParamBool.cpp</text>
</a>
</g>
<!-- Node11&#45;&gt;Node12 -->
<g id="edge30" class="edge"><title>Node11&#45;&gt;Node12</title>
<path fill="none" stroke="midnightblue" d="M898,-88.6956C898,-79.5273 898,-69.9394 898,-61.2718"/>
<polygon fill="midnightblue" stroke="midnightblue" points="894.5,-88.7971 898,-98.7971 901.5,-88.7972 894.5,-88.7971"/>
</g>
<!-- Node13&#45;&gt;Node5 -->
<g id="edge34" class="edge"><title>Node13&#45;&gt;Node5</title>
<path fill="none" stroke="midnightblue" d="M291.324,-93.939C310.724,-83.1982 331.883,-71.4827 350.63,-61.1032"/>
<polygon fill="midnightblue" stroke="midnightblue" points="289.603,-90.8912 282.55,-98.7971 292.994,-97.0152 289.603,-90.8912"/>
</g>
<!-- Node14 -->
<g id="node32" class="node"><title>Node14</title>
<a xlink:href="../../da/d31/_c_f_g_param_string_8cpp.html" target="_top" xlink:title="CFGParamString is a class derived from CFGParam to store values of the type string. ">
<polygon fill="white" stroke="black" points="157.5,-1 157.5,-61 298.5,-61 298.5,-1 157.5,-1"/>
<text text-anchor="start" x="165.5" y="-48" font-family="Helvetica,sans-Serif" font-size="10.00">/home/kavonszadkowski</text>
<text text-anchor="start" x="165.5" y="-35" font-family="Helvetica,sans-Serif" font-size="10.00">/limes&#45;dev/simulation</text>
<text text-anchor="start" x="165.5" y="-22" font-family="Helvetica,sans-Serif" font-size="10.00">/mars/common/cfg_manager</text>
<text text-anchor="middle" x="228" y="-9" font-family="Helvetica,sans-Serif" font-size="10.00">/src/CFGParamString.cpp</text>
</a>
</g>
<!-- Node13&#45;&gt;Node14 -->
<g id="edge36" class="edge"><title>Node13&#45;&gt;Node14</title>
<path fill="none" stroke="midnightblue" d="M228,-88.6956C228,-79.5273 228,-69.9394 228,-61.2718"/>
<polygon fill="midnightblue" stroke="midnightblue" points="224.5,-88.7971 228,-98.7971 231.5,-88.7972 224.5,-88.7971"/>
</g>
<!-- Node16&#45;&gt;Node6 -->
<g id="edge46" class="edge"><title>Node16&#45;&gt;Node6</title>
<path fill="none" stroke="midnightblue" d="M484.637,-287.637C474.6,-277.6 463.871,-266.871 454.272,-257.272"/>
<polygon fill="midnightblue" stroke="midnightblue" points="482.251,-290.201 491.797,-294.797 487.201,-285.251 482.251,-290.201"/>
</g>
<!-- Node17 -->
<g id="node41" class="node"><title>Node17</title>
<a xlink:href="../../df/dcb/_c_f_g_property_8cpp.html" target="_top" xlink:title="CFGProperty holds the value for one property of a CFGParam. ">
<polygon fill="white" stroke="black" points="511.5,-197 511.5,-257 652.5,-257 652.5,-197 511.5,-197"/>
<text text-anchor="start" x="519.5" y="-244" font-family="Helvetica,sans-Serif" font-size="10.00">/home/kavonszadkowski</text>
<text text-anchor="start" x="519.5" y="-231" font-family="Helvetica,sans-Serif" font-size="10.00">/limes&#45;dev/simulation</text>
<text text-anchor="start" x="519.5" y="-218" font-family="Helvetica,sans-Serif" font-size="10.00">/mars/common/cfg_manager</text>
<text text-anchor="middle" x="582" y="-205" font-family="Helvetica,sans-Serif" font-size="10.00">/src/CFGProperty.cpp</text>
</a>
</g>
<!-- Node16&#45;&gt;Node17 -->
<g id="edge48" class="edge"><title>Node16&#45;&gt;Node17</title>
<path fill="none" stroke="midnightblue" d="M545.773,-286.17C551.657,-276.561 557.874,-266.405 563.466,-257.272"/>
<polygon fill="midnightblue" stroke="midnightblue" points="542.728,-284.441 540.492,-294.797 548.698,-288.096 542.728,-284.441"/>
</g>
</g>
</svg>
