<?xml version="1.0" encoding="UTF-8" standalone="no"?>
<!DOCTYPE svg PUBLIC "-//W3C//DTD SVG 1.1//EN"
 "http://www.w3.org/Graphics/SVG/1.1/DTD/svg11.dtd">
<!-- Generated by graphviz version 2.36.0 (20140111.2315)
 -->
<!-- Title: /media/kavonszadkowski/work/marsdocs/mars/common/data_broker/src/DataBroker.cpp Pages: 1 -->
<svg width="1417pt" height="330pt"
 viewBox="0.00 0.00 1416.98 330.00" xmlns="http://www.w3.org/2000/svg" xmlns:xlink="http://www.w3.org/1999/xlink">
<g id="graph0" class="graph" transform="scale(1 1) rotate(0) translate(4 326)">
<title>/media/kavonszadkowski/work/marsdocs/mars/common/data_broker/src/DataBroker.cpp</title>
<polygon fill="white" stroke="none" points="-4,4 -4,-326 1412.98,-326 1412.98,4 -4,4"/>
<!-- Node1 -->
<g id="node1" class="node"><title>Node1</title>
<polygon fill="#bfbfbf" stroke="black" points="893,-280.5 893,-321.5 1051,-321.5 1051,-280.5 893,-280.5"/>
<text text-anchor="start" x="901" y="-309.5" font-family="Helvetica,sans-Serif" font-size="10.00">/media/kavonszadkowski</text>
<text text-anchor="start" x="901" y="-298.5" font-family="Helvetica,sans-Serif" font-size="10.00">/work/marsdocs/mars/common</text>
<text text-anchor="middle" x="972" y="-287.5" font-family="Helvetica,sans-Serif" font-size="10.00">/data_broker/src/DataBroker.cpp</text>
</g>
<!-- Node2 -->
<g id="node2" class="node"><title>Node2</title>
<g id="a_node2"><a xlink:href="../../d8/daf/_data_broker_8h.html" target="_top" xlink:title="DataBroker A small library to manage data communication within a software framework. ">
<polygon fill="white" stroke="black" points="709,-224.5 709,-243.5 783,-243.5 783,-224.5 709,-224.5"/>
<text text-anchor="middle" x="746" y="-231.5" font-family="Helvetica,sans-Serif" font-size="10.00">DataBroker.h</text>
</a>
</g>
</g>
<!-- Node1&#45;&gt;Node2 -->
<g id="edge1" class="edge"><title>Node1&#45;&gt;Node2</title>
<path fill="none" stroke="midnightblue" d="M904.193,-280.498C865.427,-269.348 818.165,-255.755 785.448,-246.346"/>
<polygon fill="midnightblue" stroke="midnightblue" points="786.365,-242.968 775.787,-243.567 784.43,-249.695 786.365,-242.968"/>
</g>
<!-- Node14 -->
<g id="node14" class="node"><title>Node14</title>
<polygon fill="white" stroke="#bfbfbf" points="-0.5,-112.5 -0.5,-131.5 126.5,-131.5 126.5,-112.5 -0.5,-112.5"/>
<text text-anchor="middle" x="63" y="-119.5" font-family="Helvetica,sans-Serif" font-size="10.00">mars/utils/MutexLocker.h</text>
</g>
<!-- Node1&#45;&gt;Node14 -->
<g id="edge36" class="edge"><title>Node1&#45;&gt;Node14</title>
<path fill="none" stroke="midnightblue" d="M892.861,-296.679C750.487,-288.938 442.99,-264.122 196,-188 155.096,-175.393 111.122,-151.679 85.3855,-136.645"/>
<polygon fill="midnightblue" stroke="midnightblue" points="87.1549,-133.625 76.7682,-131.536 83.5849,-139.646 87.1549,-133.625"/>
</g>
<!-- Node22 -->
<g id="node22" class="node"><title>Node22</title>
<g id="a_node22"><a xlink:href="../../d7/d1a/_producer_interface_8h.html" target="_top" xlink:title="ProducerInterface.h">
<polygon fill="white" stroke="black" points="801,-224.5 801,-243.5 903,-243.5 903,-224.5 801,-224.5"/>
<text text-anchor="middle" x="852" y="-231.5" font-family="Helvetica,sans-Serif" font-size="10.00">ProducerInterface.h</text>
</a>
</g>
</g>
<!-- Node1&#45;&gt;Node22 -->
<g id="edge34" class="edge"><title>Node1&#45;&gt;Node22</title>
<path fill="none" stroke="midnightblue" d="M935.996,-280.498C916.89,-270.149 893.898,-257.695 876.802,-248.435"/>
<polygon fill="midnightblue" stroke="midnightblue" points="878.434,-245.338 867.974,-243.652 875.1,-251.493 878.434,-245.338"/>
</g>
<!-- Node23 -->
<g id="node23" class="node"><title>Node23</title>
<g id="a_node23"><a xlink:href="../../d4/d03/_receiver_interface_8h.html" target="_top" xlink:title="ReceiverInterface.h">
<polygon fill="white" stroke="black" points="921,-224.5 921,-243.5 1023,-243.5 1023,-224.5 921,-224.5"/>
<text text-anchor="middle" x="972" y="-231.5" font-family="Helvetica,sans-Serif" font-size="10.00">ReceiverInterface.h</text>
</a>
</g>
</g>
<!-- Node1&#45;&gt;Node23 -->
<g id="edge35" class="edge"><title>Node1&#45;&gt;Node23</title>
<path fill="none" stroke="midnightblue" d="M972,-280.498C972,-272.065 972,-262.235 972,-253.874"/>
<polygon fill="midnightblue" stroke="midnightblue" points="975.5,-253.652 972,-243.652 968.5,-253.653 975.5,-253.652"/>
</g>
<!-- Node24 -->
<g id="node24" class="node"><title>Node24</title>
<polygon fill="white" stroke="#bfbfbf" points="1041,-224.5 1041,-243.5 1133,-243.5 1133,-224.5 1041,-224.5"/>
<text text-anchor="middle" x="1087" y="-231.5" font-family="Helvetica,sans-Serif" font-size="10.00">mars/utils/misc.h</text>
</g>
<!-- Node1&#45;&gt;Node24 -->
<g id="edge37" class="edge"><title>Node1&#45;&gt;Node24</title>
<path fill="none" stroke="midnightblue" d="M1006.5,-280.498C1024.64,-270.245 1046.44,-257.925 1062.77,-248.693"/>
<polygon fill="midnightblue" stroke="midnightblue" points="1064.71,-251.62 1071.69,-243.652 1061.26,-245.526 1064.71,-251.62"/>
</g>
<!-- Node25 -->
<g id="node25" class="node"><title>Node25</title>
<polygon fill="white" stroke="#bfbfbf" points="1151.5,-224.5 1151.5,-243.5 1194.5,-243.5 1194.5,-224.5 1151.5,-224.5"/>
<text text-anchor="middle" x="1173" y="-231.5" font-family="Helvetica,sans-Serif" font-size="10.00">cstdio</text>
</g>
<!-- Node1&#45;&gt;Node25 -->
<g id="edge38" class="edge"><title>Node1&#45;&gt;Node25</title>
<path fill="none" stroke="midnightblue" d="M1032.31,-280.498C1068.3,-268.857 1112.54,-254.552 1141.69,-245.126"/>
<polygon fill="midnightblue" stroke="midnightblue" points="1142.89,-248.415 1151.33,-242.008 1140.74,-241.755 1142.89,-248.415"/>
</g>
<!-- Node26 -->
<g id="node26" class="node"><title>Node26</title>
<polygon fill="white" stroke="#bfbfbf" points="1213,-224.5 1213,-243.5 1257,-243.5 1257,-224.5 1213,-224.5"/>
<text text-anchor="middle" x="1235" y="-231.5" font-family="Helvetica,sans-Serif" font-size="10.00">cerrno</text>
</g>
<!-- Node1&#45;&gt;Node26 -->
<g id="edge39" class="edge"><title>Node1&#45;&gt;Node26</title>
<path fill="none" stroke="midnightblue" d="M1051.03,-281.592C1095.73,-270.992 1152.6,-257.192 1203,-244 1203.1,-243.974 1203.2,-243.947 1203.3,-243.92"/>
<polygon fill="midnightblue" stroke="midnightblue" points="1204.25,-247.289 1212.99,-241.302 1202.43,-240.532 1204.25,-247.289"/>
</g>
<!-- Node3 -->
<g id="node3" class="node"><title>Node3</title>
<g id="a_node3"><a xlink:href="../../dc/d63/_data_broker_interface_8h.html" target="_top" xlink:title="DataBroker A small library to manage data communication within a software framework. ">
<polygon fill="white" stroke="black" points="585.5,-168.5 585.5,-187.5 698.5,-187.5 698.5,-168.5 585.5,-168.5"/>
<text text-anchor="middle" x="642" y="-175.5" font-family="Helvetica,sans-Serif" font-size="10.00">DataBrokerInterface.h</text>
</a>
</g>
</g>
<!-- Node2&#45;&gt;Node3 -->
<g id="edge2" class="edge"><title>Node2&#45;&gt;Node3</title>
<path fill="none" stroke="midnightblue" d="M729.291,-224.324C712.688,-215.703 686.998,-202.364 667.78,-192.386"/>
<polygon fill="midnightblue" stroke="midnightblue" points="669.156,-189.156 658.668,-187.655 665.93,-195.369 669.156,-189.156"/>
</g>
<!-- Node4 -->
<g id="node4" class="node"><title>Node4</title>
<g id="a_node4"><a xlink:href="../../dd/dc5/_data_package_8h.html" target="_top" xlink:title="DataPackage.h">
<polygon fill="white" stroke="black" points="481,-112.5 481,-131.5 565,-131.5 565,-112.5 481,-112.5"/>
<text text-anchor="middle" x="523" y="-119.5" font-family="Helvetica,sans-Serif" font-size="10.00">DataPackage.h</text>
</a>
</g>
</g>
<!-- Node2&#45;&gt;Node4 -->
<g id="edge16" class="edge"><title>Node2&#45;&gt;Node4</title>
<path fill="none" stroke="midnightblue" d="M708.847,-229.845C672.495,-225.296 616.796,-214.308 576,-188 557.329,-175.96 542.087,-155.182 532.819,-140.359"/>
<polygon fill="midnightblue" stroke="midnightblue" points="535.743,-138.427 527.616,-131.63 529.73,-142.012 535.743,-138.427"/>
</g>
<!-- Node5 -->
<g id="node5" class="node"><title>Node5</title>
<g id="a_node5"><a xlink:href="../../da/d5a/_data_item_8h.html" target="_top" xlink:title="DataItem.h">
<polygon fill="white" stroke="black" points="486.5,-56.5 486.5,-75.5 551.5,-75.5 551.5,-56.5 486.5,-56.5"/>
<text text-anchor="middle" x="519" y="-63.5" font-family="Helvetica,sans-Serif" font-size="10.00">DataItem.h</text>
</a>
</g>
</g>
<!-- Node2&#45;&gt;Node5 -->
<g id="edge17" class="edge"><title>Node2&#45;&gt;Node5</title>
<path fill="none" stroke="midnightblue" d="M708.763,-233.392C644.583,-231.714 515.8,-217.366 472,-132 462.472,-113.43 480.21,-94.3252 496.553,-81.6762"/>
<polygon fill="midnightblue" stroke="midnightblue" points="498.776,-84.388 504.821,-75.6871 494.669,-78.7191 498.776,-84.388"/>
</g>
<!-- Node6 -->
<g id="node6" class="node"><title>Node6</title>
<polygon fill="white" stroke="#bfbfbf" points="393,-0.5 393,-19.5 437,-19.5 437,-0.5 393,-0.5"/>
<text text-anchor="middle" x="415" y="-7.5" font-family="Helvetica,sans-Serif" font-size="10.00">vector</text>
</g>
<!-- Node2&#45;&gt;Node6 -->
<g id="edge29" class="edge"><title>Node2&#45;&gt;Node6</title>
<path fill="none" stroke="midnightblue" d="M708.861,-233.899C657.895,-233.514 564.982,-226.889 498,-188 446.191,-157.92 440.306,-133.354 423,-76 418.427,-60.8459 416.462,-42.9507 415.621,-29.7776"/>
<polygon fill="midnightblue" stroke="midnightblue" points="419.108,-29.4253 415.133,-19.6043 412.116,-29.7604 419.108,-29.4253"/>
</g>
<!-- Node7 -->
<g id="node7" class="node"><title>Node7</title>
<polygon fill="white" stroke="#bfbfbf" points="800.5,-0.5 800.5,-19.5 841.5,-19.5 841.5,-0.5 800.5,-0.5"/>
<text text-anchor="middle" x="821" y="-7.5" font-family="Helvetica,sans-Serif" font-size="10.00">string</text>
</g>
<!-- Node2&#45;&gt;Node7 -->
<g id="edge28" class="edge"><title>Node2&#45;&gt;Node7</title>
<path fill="none" stroke="midnightblue" d="M783.089,-225.307C786.096,-224.816 789.094,-224.371 792,-224 857.037,-215.687 1336.07,-235.756 1381,-188 1537.62,-21.5126 990.501,-10.8787 852.066,-10.8074"/>
<polygon fill="midnightblue" stroke="midnightblue" points="851.735,-7.30778 841.74,-10.822 851.745,-14.3078 851.735,-7.30778"/>
</g>
<!-- Node8 -->
<g id="node8" class="node"><title>Node8</title>
<polygon fill="white" stroke="#bfbfbf" points="720.5,-56.5 720.5,-75.5 755.5,-75.5 755.5,-56.5 720.5,-56.5"/>
<text text-anchor="middle" x="738" y="-63.5" font-family="Helvetica,sans-Serif" font-size="10.00">map</text>
</g>
<!-- Node2&#45;&gt;Node8 -->
<g id="edge31" class="edge"><title>Node2&#45;&gt;Node8</title>
<path fill="none" stroke="midnightblue" d="M748.632,-224.384C753.365,-210.372 764.662,-182.737 784,-168 835.665,-128.627 959.009,-163.174 919,-112 900.306,-88.0888 811.926,-75.0659 765.948,-69.8072"/>
<polygon fill="midnightblue" stroke="midnightblue" points="766.087,-66.3016 755.765,-68.6905 765.324,-73.2598 766.087,-66.3016"/>
</g>
<!-- Node9 -->
<g id="node9" class="node"><title>Node9</title>
<g id="a_node9"><a xlink:href="../../dc/d8b/_data_info_8h.html" target="_top" xlink:title="DataInfo.h">
<polygon fill="white" stroke="black" points="849,-112.5 849,-131.5 911,-131.5 911,-112.5 849,-112.5"/>
<text text-anchor="middle" x="880" y="-119.5" font-family="Helvetica,sans-Serif" font-size="10.00">DataInfo.h</text>
</a>
</g>
</g>
<!-- Node2&#45;&gt;Node9 -->
<g id="edge18" class="edge"><title>Node2&#45;&gt;Node9</title>
<path fill="none" stroke="midnightblue" d="M743.95,-224.384C741.272,-210.862 738.298,-184.503 751,-168 761.98,-153.734 805.295,-140.564 838.738,-132.207"/>
<polygon fill="midnightblue" stroke="midnightblue" points="839.863,-135.535 848.753,-129.771 838.209,-128.733 839.863,-135.535"/>
</g>
<!-- Node12 -->
<g id="node12" class="node"><title>Node12</title>
<g id="a_node12"><a xlink:href="../../dd/de0/_lockable_container_8h.html" target="_top" xlink:title="LockableContainer.h">
<polygon fill="white" stroke="black" points="222,-168.5 222,-187.5 328,-187.5 328,-168.5 222,-168.5"/>
<text text-anchor="middle" x="275" y="-175.5" font-family="Helvetica,sans-Serif" font-size="10.00">LockableContainer.h</text>
</a>
</g>
</g>
<!-- Node2&#45;&gt;Node12 -->
<g id="edge19" class="edge"><title>Node2&#45;&gt;Node12</title>
<path fill="none" stroke="midnightblue" d="M708.648,-228.718C628.268,-219.502 438.119,-197.702 338.452,-186.275"/>
<polygon fill="midnightblue" stroke="midnightblue" points="338.553,-182.764 328.22,-185.102 337.756,-189.718 338.553,-182.764"/>
</g>
<!-- Node13 -->
<g id="node13" class="node"><title>Node13</title>
<polygon fill="white" stroke="#bfbfbf" points="145,-112.5 145,-131.5 243,-131.5 243,-112.5 145,-112.5"/>
<text text-anchor="middle" x="194" y="-119.5" font-family="Helvetica,sans-Serif" font-size="10.00">mars/utils/Mutex.h</text>
</g>
<!-- Node2&#45;&gt;Node13 -->
<g id="edge25" class="edge"><title>Node2&#45;&gt;Node13</title>
<path fill="none" stroke="midnightblue" d="M708.775,-232.258C594.038,-229.642 251.24,-219.261 213,-188 199.509,-176.971 195.27,-156.924 194.093,-141.998"/>
<polygon fill="midnightblue" stroke="midnightblue" points="197.583,-141.67 193.687,-131.817 190.589,-141.949 197.583,-141.67"/>
</g>
<!-- Node16 -->
<g id="node16" class="node"><title>Node16</title>
<polygon fill="white" stroke="#bfbfbf" points="793.5,-168.5 793.5,-187.5 894.5,-187.5 894.5,-168.5 793.5,-168.5"/>
<text text-anchor="middle" x="844" y="-175.5" font-family="Helvetica,sans-Serif" font-size="10.00">mars/utils/Thread.h</text>
</g>
<!-- Node2&#45;&gt;Node16 -->
<g id="edge24" class="edge"><title>Node2&#45;&gt;Node16</title>
<path fill="none" stroke="midnightblue" d="M761.745,-224.324C777.319,-215.743 801.377,-202.486 819.459,-192.522"/>
<polygon fill="midnightblue" stroke="midnightblue" points="821.224,-195.546 828.294,-187.655 817.846,-189.415 821.224,-195.546"/>
</g>
<!-- Node17 -->
<g id="node17" class="node"><title>Node17</title>
<polygon fill="white" stroke="#bfbfbf" points="913,-168.5 913,-187.5 1051,-187.5 1051,-168.5 913,-168.5"/>
<text text-anchor="middle" x="982" y="-175.5" font-family="Helvetica,sans-Serif" font-size="10.00">mars/utils/ReadWriteLock.h</text>
</g>
<!-- Node2&#45;&gt;Node17 -->
<g id="edge26" class="edge"><title>Node2&#45;&gt;Node17</title>
<path fill="none" stroke="midnightblue" d="M783.135,-224.503C824.079,-215.134 890.053,-200.039 934.676,-189.828"/>
<polygon fill="midnightblue" stroke="midnightblue" points="935.725,-193.179 944.693,-187.536 934.164,-186.355 935.725,-193.179"/>
</g>
<!-- Node18 -->
<g id="node18" class="node"><title>Node18</title>
<polygon fill="white" stroke="#bfbfbf" points="1069,-168.5 1069,-187.5 1201,-187.5 1201,-168.5 1069,-168.5"/>
<text text-anchor="middle" x="1135" y="-175.5" font-family="Helvetica,sans-Serif" font-size="10.00">mars/utils/WaitCondition.h</text>
</g>
<!-- Node2&#45;&gt;Node18 -->
<g id="edge27" class="edge"><title>Node2&#45;&gt;Node18</title>
<path fill="none" stroke="midnightblue" d="M783.121,-225.53C786.121,-224.989 789.109,-224.472 792,-224 841.768,-215.875 973.829,-199.047 1058.81,-188.429"/>
<polygon fill="midnightblue" stroke="midnightblue" points="1059.44,-191.878 1068.93,-187.166 1058.57,-184.932 1059.44,-191.878"/>
</g>
<!-- Node19 -->
<g id="node19" class="node"><title>Node19</title>
<polygon fill="white" stroke="#bfbfbf" points="1219.5,-168.5 1219.5,-187.5 1248.5,-187.5 1248.5,-168.5 1219.5,-168.5"/>
<text text-anchor="middle" x="1234" y="-175.5" font-family="Helvetica,sans-Serif" font-size="10.00">list</text>
</g>
<!-- Node2&#45;&gt;Node19 -->
<g id="edge30" class="edge"><title>Node2&#45;&gt;Node19</title>
<path fill="none" stroke="midnightblue" d="M783.099,-225.387C786.104,-224.878 789.099,-224.408 792,-224 973.407,-198.517 1026.27,-228.044 1209.51,-187.419"/>
<polygon fill="midnightblue" stroke="midnightblue" points="1210.49,-190.786 1219.47,-185.17 1208.95,-183.958 1210.49,-190.786"/>
</g>
<!-- Node20 -->
<g id="node20" class="node"><title>Node20</title>
<polygon fill="white" stroke="#bfbfbf" points="1267,-168.5 1267,-187.5 1297,-187.5 1297,-168.5 1267,-168.5"/>
<text text-anchor="middle" x="1282" y="-175.5" font-family="Helvetica,sans-Serif" font-size="10.00">set</text>
</g>
<!-- Node2&#45;&gt;Node20 -->
<g id="edge32" class="edge"><title>Node2&#45;&gt;Node20</title>
<path fill="none" stroke="midnightblue" d="M783.096,-225.359C786.101,-224.857 789.097,-224.395 792,-224 997.392,-196.052 1054.33,-231.497 1257,-188 1257.1,-187.978 1257.2,-187.956 1257.3,-187.934"/>
<polygon fill="midnightblue" stroke="midnightblue" points="1258.21,-191.315 1266.85,-185.185 1256.28,-184.588 1258.21,-191.315"/>
</g>
<!-- Node21 -->
<g id="node21" class="node"><title>Node21</title>
<polygon fill="white" stroke="#bfbfbf" points="1315.5,-168.5 1315.5,-187.5 1372.5,-187.5 1372.5,-168.5 1315.5,-168.5"/>
<text text-anchor="middle" x="1344" y="-175.5" font-family="Helvetica,sans-Serif" font-size="10.00">pthread.h</text>
</g>
<!-- Node2&#45;&gt;Node21 -->
<g id="edge33" class="edge"><title>Node2&#45;&gt;Node21</title>
<path fill="none" stroke="midnightblue" d="M783.092,-225.336C786.099,-224.839 789.096,-224.385 792,-224 1018.58,-194 1078.95,-221.801 1305,-188 1305.1,-187.985 1305.21,-187.969 1305.31,-187.953"/>
<polygon fill="midnightblue" stroke="midnightblue" points="1305.91,-191.402 1315.13,-186.193 1304.67,-184.512 1305.91,-191.402"/>
</g>
<!-- Node3&#45;&gt;Node4 -->
<g id="edge3" class="edge"><title>Node3&#45;&gt;Node4</title>
<path fill="none" stroke="midnightblue" d="M623.144,-168.444C603.734,-159.636 573.27,-145.812 551.035,-135.722"/>
<polygon fill="midnightblue" stroke="midnightblue" points="552.32,-132.462 541.768,-131.516 549.428,-138.836 552.32,-132.462"/>
</g>
<!-- Node3&#45;&gt;Node6 -->
<g id="edge15" class="edge"><title>Node3&#45;&gt;Node6</title>
<path fill="none" stroke="midnightblue" d="M585.188,-174.026C549.209,-169.455 503.665,-158.383 472,-132 439.843,-105.207 424.712,-56.157 418.572,-29.4754"/>
<polygon fill="midnightblue" stroke="midnightblue" points="421.964,-28.5979 416.468,-19.54 415.116,-30.0482 421.964,-28.5979"/>
</g>
<!-- Node3&#45;&gt;Node7 -->
<g id="edge14" class="edge"><title>Node3&#45;&gt;Node7</title>
<path fill="none" stroke="midnightblue" d="M698.846,-175.564C733.334,-171.565 775.477,-160.555 801,-132 826.339,-103.652 826.059,-55.9758 823.572,-29.7303"/>
<polygon fill="midnightblue" stroke="midnightblue" points="827.028,-29.1486 822.398,-19.6186 820.074,-29.9554 827.028,-29.1486"/>
</g>
<!-- Node3&#45;&gt;Node9 -->
<g id="edge10" class="edge"><title>Node3&#45;&gt;Node9</title>
<path fill="none" stroke="midnightblue" d="M679.712,-168.444C723.123,-158.594 794.182,-142.471 838.953,-132.313"/>
<polygon fill="midnightblue" stroke="midnightblue" points="839.934,-135.68 848.911,-130.054 838.385,-128.853 839.934,-135.68"/>
</g>
<!-- Node10 -->
<g id="node10" class="node"><title>Node10</title>
<polygon fill="white" stroke="#bfbfbf" points="583,-112.5 583,-131.5 725,-131.5 725,-112.5 583,-112.5"/>
<text text-anchor="middle" x="654" y="-119.5" font-family="Helvetica,sans-Serif" font-size="10.00">lib_manager/LibInterface.hpp</text>
</g>
<!-- Node3&#45;&gt;Node10 -->
<g id="edge12" class="edge"><title>Node3&#45;&gt;Node10</title>
<path fill="none" stroke="midnightblue" d="M643.982,-168.083C645.572,-160.927 647.859,-150.635 649.846,-141.691"/>
<polygon fill="midnightblue" stroke="midnightblue" points="653.303,-142.272 652.055,-131.751 646.469,-140.754 653.303,-142.272"/>
</g>
<!-- Node11 -->
<g id="node11" class="node"><title>Node11</title>
<polygon fill="white" stroke="#bfbfbf" points="743.5,-112.5 743.5,-131.5 792.5,-131.5 792.5,-112.5 743.5,-112.5"/>
<text text-anchor="middle" x="768" y="-119.5" font-family="Helvetica,sans-Serif" font-size="10.00">cstdarg</text>
</g>
<!-- Node3&#45;&gt;Node11 -->
<g id="edge13" class="edge"><title>Node3&#45;&gt;Node11</title>
<path fill="none" stroke="midnightblue" d="M661.965,-168.444C682.609,-159.596 715.063,-145.687 738.632,-135.586"/>
<polygon fill="midnightblue" stroke="midnightblue" points="740.316,-138.673 748.128,-131.516 737.558,-132.239 740.316,-138.673"/>
</g>
<!-- Node4&#45;&gt;Node5 -->
<g id="edge4" class="edge"><title>Node4&#45;&gt;Node5</title>
<path fill="none" stroke="midnightblue" d="M522.339,-112.083C521.815,-105.006 521.064,-94.8611 520.406,-85.9865"/>
<polygon fill="midnightblue" stroke="midnightblue" points="523.877,-85.4652 519.648,-75.7511 516.897,-85.9823 523.877,-85.4652"/>
</g>
<!-- Node4&#45;&gt;Node6 -->
<g id="edge8" class="edge"><title>Node4&#45;&gt;Node6</title>
<path fill="none" stroke="midnightblue" d="M514.092,-112.463C504.76,-103.478 489.717,-88.8782 477,-76 460.666,-59.4588 442.333,-40.1428 429.867,-26.8916"/>
<polygon fill="midnightblue" stroke="midnightblue" points="432.329,-24.4002 422.934,-19.5036 427.225,-29.1905 432.329,-24.4002"/>
</g>
<!-- Node4&#45;&gt;Node7 -->
<g id="edge9" class="edge"><title>Node4&#45;&gt;Node7</title>
<path fill="none" stroke="midnightblue" d="M546.384,-112.368C599.822,-92.6429 730.864,-44.2716 790.525,-22.2491"/>
<polygon fill="midnightblue" stroke="midnightblue" points="791.965,-25.4486 800.134,-18.7022 789.541,-18.8817 791.965,-25.4486"/>
</g>
<!-- Node4&#45;&gt;Node8 -->
<g id="edge7" class="edge"><title>Node4&#45;&gt;Node8</title>
<path fill="none" stroke="midnightblue" d="M557.067,-112.444C599.585,-101.765 671.458,-83.7129 710.599,-73.8822"/>
<polygon fill="midnightblue" stroke="midnightblue" points="711.645,-77.2282 720.491,-71.3976 709.94,-70.4391 711.645,-77.2282"/>
</g>
<!-- Node5&#45;&gt;Node6 -->
<g id="edge5" class="edge"><title>Node5&#45;&gt;Node6</title>
<path fill="none" stroke="midnightblue" d="M502.291,-56.324C485.688,-47.7034 459.998,-34.3643 440.78,-24.3855"/>
<polygon fill="midnightblue" stroke="midnightblue" points="442.156,-21.1565 431.668,-19.6545 438.93,-27.3689 442.156,-21.1565"/>
</g>
<!-- Node5&#45;&gt;Node7 -->
<g id="edge6" class="edge"><title>Node5&#45;&gt;Node7</title>
<path fill="none" stroke="midnightblue" d="M551.606,-59.1697C610.332,-48.6691 733.084,-26.7201 790.352,-16.4801"/>
<polygon fill="midnightblue" stroke="midnightblue" points="791.025,-19.9153 800.253,-14.7097 789.793,-13.0246 791.025,-19.9153"/>
</g>
<!-- Node9&#45;&gt;Node7 -->
<g id="edge11" class="edge"><title>Node9&#45;&gt;Node7</title>
<path fill="none" stroke="midnightblue" d="M875.37,-112.368C865.72,-94.376 843.286,-52.5503 830.454,-28.6267"/>
<polygon fill="midnightblue" stroke="midnightblue" points="833.419,-26.7495 825.608,-19.5914 827.25,-30.0582 833.419,-26.7495"/>
</g>
<!-- Node12&#45;&gt;Node6 -->
<g id="edge20" class="edge"><title>Node12&#45;&gt;Node6</title>
<path fill="none" stroke="midnightblue" d="M275.233,-168.326C275.956,-155.184 278.822,-129.87 290,-112 314.726,-72.473 360.435,-41.5131 389.197,-24.7784"/>
<polygon fill="midnightblue" stroke="midnightblue" points="391.267,-27.6282 398.246,-19.6566 387.819,-21.5362 391.267,-27.6282"/>
</g>
<!-- Node12&#45;&gt;Node13 -->
<g id="edge21" class="edge"><title>Node12&#45;&gt;Node13</title>
<path fill="none" stroke="midnightblue" d="M261.986,-168.324C249.468,-159.979 230.318,-147.212 215.529,-137.352"/>
<polygon fill="midnightblue" stroke="midnightblue" points="217.244,-134.289 206.982,-131.655 213.361,-140.114 217.244,-134.289"/>
</g>
<!-- Node12&#45;&gt;Node14 -->
<g id="edge22" class="edge"><title>Node12&#45;&gt;Node14</title>
<path fill="none" stroke="midnightblue" d="M241.408,-168.444C204.813,-159.122 146.162,-144.183 106.174,-133.997"/>
<polygon fill="midnightblue" stroke="midnightblue" points="106.989,-130.593 96.4349,-131.516 105.261,-137.377 106.989,-130.593"/>
</g>
<!-- Node15 -->
<g id="node15" class="node"><title>Node15</title>
<polygon fill="white" stroke="#bfbfbf" points="299.5,-112.5 299.5,-131.5 348.5,-131.5 348.5,-112.5 299.5,-112.5"/>
<text text-anchor="middle" x="324" y="-119.5" font-family="Helvetica,sans-Serif" font-size="10.00">cassert</text>
</g>
<!-- Node12&#45;&gt;Node15 -->
<g id="edge23" class="edge"><title>Node12&#45;&gt;Node15</title>
<path fill="none" stroke="midnightblue" d="M283.091,-168.083C290.155,-160.298 300.588,-148.801 309.149,-139.367"/>
<polygon fill="midnightblue" stroke="midnightblue" points="311.931,-141.509 316.059,-131.751 306.747,-136.805 311.931,-141.509"/>
</g>
</g>
</svg>
