<?xml version="1.0" encoding="UTF-8" standalone="no"?>
<!DOCTYPE svg PUBLIC "-//W3C//DTD SVG 1.1//EN"
 "http://www.w3.org/Graphics/SVG/1.1/DTD/svg11.dtd">
<!-- Generated by graphviz version 2.36.0 (20140111.2315)
 -->
<!-- Title: mars::interfaces::GraphicsEventClient Pages: 1 -->
<svg width="322pt" height="142pt"
 viewBox="0.00 0.00 322.00 142.00" xmlns="http://www.w3.org/2000/svg" xmlns:xlink="http://www.w3.org/1999/xlink">
<g id="graph0" class="graph" transform="scale(1 1) rotate(0) translate(4 138)">
<title>mars::interfaces::GraphicsEventClient</title>
<polygon fill="white" stroke="none" points="-4,4 -4,-138 318,-138 318,4 -4,4"/>
<!-- Node1 -->
<g id="node1" class="node"><title>Node1</title>
<polygon fill="#bfbfbf" stroke="black" points="0,-52 0,-82 132,-82 132,-52 0,-52"/>
<text text-anchor="start" x="8" y="-70" font-family="Helvetica,sans-Serif" font-size="10.00">mars::interfaces::Graphics</text>
<text text-anchor="middle" x="66" y="-59" font-family="Helvetica,sans-Serif" font-size="10.00">EventClient</text>
</g>
<!-- Node2 -->
<g id="node2" class="node"><title>Node2</title>
<g id="a_node2"><a xlink:href="../../dc/d96/classmars_1_1gui_1_1_dialog_nodes.html" target="_top" xlink:title="mars::gui::DialogNodes">
<polygon fill="white" stroke="black" points="181.5,-114.5 181.5,-133.5 300.5,-133.5 300.5,-114.5 181.5,-114.5"/>
<text text-anchor="middle" x="241" y="-121.5" font-family="Helvetica,sans-Serif" font-size="10.00">mars::gui::DialogNodes</text>
</a>
</g>
</g>
<!-- Node1&#45;&gt;Node2 -->
<g id="edge1" class="edge"><title>Node1&#45;&gt;Node2</title>
<path fill="none" stroke="midnightblue" d="M114.189,-85.891C131.039,-92.3332 150.246,-99.3337 168,-105 178.592,-108.38 190.193,-111.634 200.929,-114.464"/>
<polygon fill="midnightblue" stroke="midnightblue" points="115.159,-82.5137 104.569,-82.1768 112.638,-89.0439 115.159,-82.5137"/>
</g>
<!-- Node3 -->
<g id="node3" class="node"><title>Node3</title>
<g id="a_node3"><a xlink:href="../../d8/d72/classmars_1_1gui_1_1_node_selection_tree.html" target="_top" xlink:title="mars::gui::NodeSelectionTree">
<polygon fill="white" stroke="black" points="168,-76.5 168,-95.5 314,-95.5 314,-76.5 168,-76.5"/>
<text text-anchor="middle" x="241" y="-83.5" font-family="Helvetica,sans-Serif" font-size="10.00">mars::gui::NodeSelectionTree</text>
</a>
</g>
</g>
<!-- Node1&#45;&gt;Node3 -->
<g id="edge2" class="edge"><title>Node1&#45;&gt;Node3</title>
<path fill="none" stroke="midnightblue" d="M142.557,-75.2982C150.955,-76.2205 159.493,-77.1582 167.848,-78.0758"/>
<polygon fill="midnightblue" stroke="midnightblue" points="142.726,-71.7958 132.404,-74.1831 141.962,-78.754 142.726,-71.7958"/>
</g>
<!-- Node4 -->
<g id="node4" class="node"><title>Node4</title>
<g id="a_node4"><a xlink:href="../../da/ddf/classmars_1_1plugins_1_1_selection_tree.html" target="_top" xlink:title="mars::plugins::SelectionTree">
<polygon fill="white" stroke="black" points="170.5,-38.5 170.5,-57.5 311.5,-57.5 311.5,-38.5 170.5,-38.5"/>
<text text-anchor="middle" x="241" y="-45.5" font-family="Helvetica,sans-Serif" font-size="10.00">mars::plugins::SelectionTree</text>
</a>
</g>
</g>
<!-- Node1&#45;&gt;Node4 -->
<g id="edge3" class="edge"><title>Node1&#45;&gt;Node4</title>
<path fill="none" stroke="midnightblue" d="M142.426,-58.7162C151.745,-57.6927 161.239,-56.6501 170.464,-55.6369"/>
<polygon fill="midnightblue" stroke="midnightblue" points="141.962,-55.246 132.404,-59.8169 142.726,-62.2042 141.962,-55.246"/>
</g>
<!-- Node5 -->
<g id="node5" class="node"><title>Node5</title>
<g id="a_node5"><a xlink:href="../../d3/d9f/classmars_1_1sim_1_1_entity_manager.html" target="_top" xlink:title="mars::sim::EntityManager">
<polygon fill="white" stroke="black" points="176.5,-0.5 176.5,-19.5 305.5,-19.5 305.5,-0.5 176.5,-0.5"/>
<text text-anchor="middle" x="241" y="-7.5" font-family="Helvetica,sans-Serif" font-size="10.00">mars::sim::EntityManager</text>
</a>
</g>
</g>
<!-- Node1&#45;&gt;Node5 -->
<g id="edge4" class="edge"><title>Node1&#45;&gt;Node5</title>
<path fill="none" stroke="midnightblue" d="M114.189,-48.109C131.039,-41.6668 150.246,-34.6663 168,-29 178.592,-25.6197 190.193,-22.3663 200.929,-19.536"/>
<polygon fill="midnightblue" stroke="midnightblue" points="112.638,-44.9561 104.569,-51.8232 115.159,-51.4863 112.638,-44.9561"/>
</g>
</g>
</svg>
