<?xml version="1.0" encoding="UTF-8" standalone="no"?>
<!DOCTYPE svg PUBLIC "-//W3C//DTD SVG 1.1//EN"
 "http://www.w3.org/Graphics/SVG/1.1/DTD/svg11.dtd">
<!-- Generated by graphviz version 2.26.3 (20100126.1600)
 -->
<!-- Title: mars::interfaces::GraphicsEventClient Pages: 1 -->
<svg width="436pt" height="102pt"
 viewBox="0.00 0.00 436.00 102.00" xmlns="http://www.w3.org/2000/svg" xmlns:xlink="http://www.w3.org/1999/xlink">
<g id="graph1" class="graph" transform="scale(1 1) rotate(0) translate(4 98)">
<title>mars::interfaces::GraphicsEventClient</title>
<polygon fill="white" stroke="white" points="-4,5 -4,-98 433,-98 433,5 -4,5"/>
<!-- Node1 -->
<g id="node1" class="node"><title>Node1</title>
<polygon fill="#bfbfbf" stroke="black" points="143,-59 143,-93 275,-93 275,-59 143,-59"/>
<text text-anchor="start" x="151" y="-80" font-family="Helvetica,sans-Serif" font-size="10.00">mars::interfaces::Graphics</text>
<text text-anchor="middle" x="209" y="-67" font-family="Helvetica,sans-Serif" font-size="10.00">EventClient</text>
</g>
<!-- Node2 -->
<g id="node3" class="node"><title>Node2</title>
<a xlink:href="../../dc/d96/classmars_1_1gui_1_1_dialog_nodes.html" target="_top" xlink:title="mars::gui::DialogNodes">
<polygon fill="white" stroke="black" points="-0.5,-0.5 -0.5,-21.5 118.5,-21.5 118.5,-0.5 -0.5,-0.5"/>
<text text-anchor="middle" x="59" y="-8.5" font-family="Helvetica,sans-Serif" font-size="10.00">mars::gui::DialogNodes</text>
</a>
</g>
<!-- Node1&#45;&gt;Node2 -->
<g id="edge2" class="edge"><title>Node1&#45;&gt;Node2</title>
<path fill="none" stroke="midnightblue" d="M160.38,-54.9311C134.73,-43.8165 104.364,-30.6578 83.5962,-21.6584"/>
<polygon fill="midnightblue" stroke="midnightblue" points="159.022,-58.1573 169.589,-58.922 161.805,-51.7344 159.022,-58.1573"/>
</g>
<!-- Node3 -->
<g id="node5" class="node"><title>Node3</title>
<a xlink:href="../../d8/d72/classmars_1_1gui_1_1_node_selection_tree.html" target="_top" xlink:title="mars::gui::NodeSelectionTree">
<polygon fill="white" stroke="black" points="136,-0.5 136,-21.5 282,-21.5 282,-0.5 136,-0.5"/>
<text text-anchor="middle" x="209" y="-8.5" font-family="Helvetica,sans-Serif" font-size="10.00">mars::gui::NodeSelectionTree</text>
</a>
</g>
<!-- Node1&#45;&gt;Node3 -->
<g id="edge4" class="edge"><title>Node1&#45;&gt;Node3</title>
<path fill="none" stroke="midnightblue" d="M209,-48.6879C209,-39.2415 209,-29.1949 209,-21.8521"/>
<polygon fill="midnightblue" stroke="midnightblue" points="205.5,-48.922 209,-58.922 212.5,-48.922 205.5,-48.922"/>
</g>
<!-- Node4 -->
<g id="node7" class="node"><title>Node4</title>
<a xlink:href="../../d3/d9f/classmars_1_1sim_1_1_entity_manager.html" target="_top" xlink:title="mars::sim::EntityManager">
<polygon fill="white" stroke="black" points="299.5,-0.5 299.5,-21.5 428.5,-21.5 428.5,-0.5 299.5,-0.5"/>
<text text-anchor="middle" x="364" y="-8.5" font-family="Helvetica,sans-Serif" font-size="10.00">mars::sim::EntityManager</text>
</a>
</g>
<!-- Node1&#45;&gt;Node4 -->
<g id="edge6" class="edge"><title>Node1&#45;&gt;Node4</title>
<path fill="none" stroke="midnightblue" d="M259.241,-54.9311C285.745,-43.8165 317.124,-30.6578 338.584,-21.6584"/>
<polygon fill="midnightblue" stroke="midnightblue" points="257.593,-51.827 249.724,-58.922 260.3,-58.2824 257.593,-51.827"/>
</g>
</g>
</svg>
