<?xml version="1.0" encoding="UTF-8" standalone="no"?>
<!DOCTYPE svg PUBLIC "-//W3C//DTD SVG 1.1//EN"
 "http://www.w3.org/Graphics/SVG/1.1/DTD/svg11.dtd">
<!-- Generated by graphviz version 2.26.3 (20100126.1600)
 -->
<!-- Title: /home/kavonszadkowski/limes&#45;dev/simulation/mars/app/src/main.cpp Pages: 1 -->
<svg width="345pt" height="172pt"
 viewBox="0.00 0.00 345.00 172.00" xmlns="http://www.w3.org/2000/svg" xmlns:xlink="http://www.w3.org/1999/xlink">
<g id="graph1" class="graph" transform="scale(1 1) rotate(0) translate(4 168)">
<title>/home/kavonszadkowski/limes&#45;dev/simulation/mars/app/src/main.cpp</title>
<polygon fill="white" stroke="white" points="-4,5 -4,-168 342,-168 342,5 -4,5"/>
<!-- Node1 -->
<g id="node1" class="node"><title>Node1</title>
<polygon fill="#bfbfbf" stroke="black" points="137.5,-116.5 137.5,-163.5 262.5,-163.5 262.5,-116.5 137.5,-116.5"/>
<text text-anchor="start" x="145.5" y="-150.5" font-family="Helvetica,sans-Serif" font-size="10.00">/home/kavonszadkowski</text>
<text text-anchor="start" x="145.5" y="-137.5" font-family="Helvetica,sans-Serif" font-size="10.00">/limes&#45;dev/simulation</text>
<text text-anchor="middle" x="200" y="-124.5" font-family="Helvetica,sans-Serif" font-size="10.00">/mars/app/src/main.cpp</text>
</g>
<!-- Node2 -->
<g id="node3" class="node"><title>Node2</title>
<a xlink:href="../../d9/d77/_m_a_r_s_8h.html" target="_top" xlink:title="MARS.h">
<polygon fill="white" stroke="black" points="65,-58.5 65,-79.5 119,-79.5 119,-58.5 65,-58.5"/>
<text text-anchor="middle" x="92" y="-66.5" font-family="Helvetica,sans-Serif" font-size="10.00">MARS.h</text>
</a>
</g>
<!-- Node1&#45;&gt;Node2 -->
<g id="edge2" class="edge"><title>Node1&#45;&gt;Node2</title>
<path fill="none" stroke="midnightblue" d="M164.038,-116.358C148.534,-106.166 130.79,-94.5006 116.791,-85.2979"/>
<polygon fill="midnightblue" stroke="midnightblue" points="118.473,-82.215 108.194,-79.6462 114.628,-88.0642 118.473,-82.215"/>
</g>
<!-- Node5 -->
<g id="node9" class="node"><title>Node5</title>
<a xlink:href="../../df/ddb/app_2src_2_my_app_8h.html" target="_top" xlink:title="MyApp.h">
<polygon fill="white" stroke="black" points="137,-58.5 137,-79.5 193,-79.5 193,-58.5 137,-58.5"/>
<text text-anchor="middle" x="165" y="-66.5" font-family="Helvetica,sans-Serif" font-size="10.00">MyApp.h</text>
</a>
</g>
<!-- Node1&#45;&gt;Node5 -->
<g id="edge8" class="edge"><title>Node1&#45;&gt;Node5</title>
<path fill="none" stroke="midnightblue" d="M188.346,-116.358C183.943,-107.428 178.984,-97.3666 174.771,-88.8218"/>
<polygon fill="midnightblue" stroke="midnightblue" points="177.809,-87.0681 170.248,-79.6462 171.53,-90.1632 177.809,-87.0681"/>
</g>
<!-- Node7 -->
<g id="node13" class="node"><title>Node7</title>
<polygon fill="white" stroke="#bfbfbf" points="211,-58.5 211,-79.5 261,-79.5 261,-58.5 211,-58.5"/>
<text text-anchor="middle" x="236" y="-66.5" font-family="Helvetica,sans-Serif" font-size="10.00">signal.h</text>
</g>
<!-- Node1&#45;&gt;Node7 -->
<g id="edge12" class="edge"><title>Node1&#45;&gt;Node7</title>
<path fill="none" stroke="midnightblue" d="M211.987,-116.358C216.515,-107.428 221.617,-97.3666 225.95,-88.8218"/>
<polygon fill="midnightblue" stroke="midnightblue" points="229.201,-90.1481 230.602,-79.6462 222.958,-86.9824 229.201,-90.1481"/>
</g>
<!-- Node8 -->
<g id="node15" class="node"><title>Node8</title>
<polygon fill="white" stroke="#bfbfbf" points="278.5,-58.5 278.5,-79.5 337.5,-79.5 337.5,-58.5 278.5,-58.5"/>
<text text-anchor="middle" x="308" y="-66.5" font-family="Helvetica,sans-Serif" font-size="10.00">stdexcept</text>
</g>
<!-- Node1&#45;&gt;Node8 -->
<g id="edge14" class="edge"><title>Node1&#45;&gt;Node8</title>
<path fill="none" stroke="midnightblue" d="M235.962,-116.358C251.466,-106.166 269.21,-94.5006 283.209,-85.2979"/>
<polygon fill="midnightblue" stroke="midnightblue" points="285.372,-88.0642 291.806,-79.6462 281.527,-82.215 285.372,-88.0642"/>
</g>
<!-- Node3 -->
<g id="node5" class="node"><title>Node3</title>
<polygon fill="white" stroke="#bfbfbf" points="0,-0.5 0,-21.5 54,-21.5 54,-0.5 0,-0.5"/>
<text text-anchor="middle" x="27" y="-8.5" font-family="Helvetica,sans-Serif" font-size="10.00">iostream</text>
</g>
<!-- Node2&#45;&gt;Node3 -->
<g id="edge4" class="edge"><title>Node2&#45;&gt;Node3</title>
<path fill="none" stroke="midnightblue" d="M80.078,-58.3619C70.6405,-49.9408 57.2704,-38.0105 46.3104,-28.2308"/>
<polygon fill="midnightblue" stroke="midnightblue" points="48.6381,-25.6171 38.8464,-21.5707 43.9776,-30.8401 48.6381,-25.6171"/>
</g>
<!-- Node4 -->
<g id="node7" class="node"><title>Node4</title>
<polygon fill="white" stroke="#bfbfbf" points="71.5,-0.5 71.5,-21.5 112.5,-21.5 112.5,-0.5 71.5,-0.5"/>
<text text-anchor="middle" x="92" y="-8.5" font-family="Helvetica,sans-Serif" font-size="10.00">string</text>
</g>
<!-- Node2&#45;&gt;Node4 -->
<g id="edge6" class="edge"><title>Node2&#45;&gt;Node4</title>
<path fill="none" stroke="midnightblue" d="M92,-58.3619C92,-50.9219 92,-40.7427 92,-31.7276"/>
<polygon fill="midnightblue" stroke="midnightblue" points="95.5001,-31.5706 92,-21.5707 88.5001,-31.5707 95.5001,-31.5706"/>
</g>
<!-- Node6 -->
<g id="node11" class="node"><title>Node6</title>
<polygon fill="white" stroke="#bfbfbf" points="130,-0.5 130,-21.5 202,-21.5 202,-0.5 130,-0.5"/>
<text text-anchor="middle" x="166" y="-8.5" font-family="Helvetica,sans-Serif" font-size="10.00">QApplication</text>
</g>
<!-- Node5&#45;&gt;Node6 -->
<g id="edge10" class="edge"><title>Node5&#45;&gt;Node6</title>
<path fill="none" stroke="midnightblue" d="M165.183,-58.3619C165.312,-50.9219 165.487,-40.7427 165.643,-31.7276"/>
<polygon fill="midnightblue" stroke="midnightblue" points="169.145,-31.6295 165.818,-21.5707 162.146,-31.5088 169.145,-31.6295"/>
</g>
</g>
</svg>
