<?xml version="1.0" encoding="UTF-8" standalone="no"?>
<!DOCTYPE svg PUBLIC "-//W3C//DTD SVG 1.1//EN"
 "http://www.w3.org/Graphics/SVG/1.1/DTD/svg11.dtd">
<!-- Generated by graphviz version 2.36.0 (20140111.2315)
 -->
<!-- Title: /media/kavonszadkowski/work/marsdocs/mars/app/src/main.cpp Pages: 1 -->
<svg width="409pt" height="162pt"
 viewBox="0.00 0.00 409.00 162.00" xmlns="http://www.w3.org/2000/svg" xmlns:xlink="http://www.w3.org/1999/xlink">
<g id="graph0" class="graph" transform="scale(1 1) rotate(0) translate(4 158)">
<title>/media/kavonszadkowski/work/marsdocs/mars/app/src/main.cpp</title>
<polygon fill="white" stroke="none" points="-4,4 -4,-158 405,-158 405,4 -4,4"/>
<!-- Node1 -->
<g id="node1" class="node"><title>Node1</title>
<polygon fill="#bfbfbf" stroke="black" points="173,-112.5 173,-153.5 303,-153.5 303,-112.5 173,-112.5"/>
<text text-anchor="start" x="181" y="-141.5" font-family="Helvetica,sans-Serif" font-size="10.00">/media/kavonszadkowski</text>
<text text-anchor="start" x="181" y="-130.5" font-family="Helvetica,sans-Serif" font-size="10.00">/work/marsdocs/mars/app</text>
<text text-anchor="middle" x="238" y="-119.5" font-family="Helvetica,sans-Serif" font-size="10.00">/src/main.cpp</text>
</g>
<!-- Node2 -->
<g id="node2" class="node"><title>Node2</title>
<g id="a_node2"><a xlink:href="../../d9/d77/_m_a_r_s_8h.html" target="_top" xlink:title="MARS.h">
<polygon fill="white" stroke="black" points="66,-56.5 66,-75.5 120,-75.5 120,-56.5 66,-56.5"/>
<text text-anchor="middle" x="93" y="-63.5" font-family="Helvetica,sans-Serif" font-size="10.00">MARS.h</text>
</a>
</g>
</g>
<!-- Node1&#45;&gt;Node2 -->
<g id="edge1" class="edge"><title>Node1&#45;&gt;Node2</title>
<path fill="none" stroke="midnightblue" d="M194.495,-112.498C170.875,-101.909 142.338,-89.1169 121.547,-79.7968"/>
<polygon fill="midnightblue" stroke="midnightblue" points="122.859,-76.5493 112.302,-75.6525 119.995,-82.9369 122.859,-76.5493"/>
</g>
<!-- Node5 -->
<g id="node5" class="node"><title>Node5</title>
<g id="a_node5"><a xlink:href="../../df/ddb/app_2src_2_my_app_8h.html" target="_top" xlink:title="MyApp.h">
<polygon fill="white" stroke="black" points="139,-56.5 139,-75.5 195,-75.5 195,-56.5 139,-56.5"/>
<text text-anchor="middle" x="167" y="-63.5" font-family="Helvetica,sans-Serif" font-size="10.00">MyApp.h</text>
</a>
</g>
</g>
<!-- Node1&#45;&gt;Node5 -->
<g id="edge4" class="edge"><title>Node1&#45;&gt;Node5</title>
<path fill="none" stroke="midnightblue" d="M216.698,-112.498C206.231,-102.915 193.792,-91.5281 183.978,-82.5428"/>
<polygon fill="midnightblue" stroke="midnightblue" points="186.19,-79.8235 176.451,-75.6525 181.464,-84.9866 186.19,-79.8235"/>
</g>
<!-- Node7 -->
<g id="node7" class="node"><title>Node7</title>
<polygon fill="white" stroke="#bfbfbf" points="213,-56.5 213,-75.5 263,-75.5 263,-56.5 213,-56.5"/>
<text text-anchor="middle" x="238" y="-63.5" font-family="Helvetica,sans-Serif" font-size="10.00">signal.h</text>
</g>
<!-- Node1&#45;&gt;Node7 -->
<g id="edge6" class="edge"><title>Node1&#45;&gt;Node7</title>
<path fill="none" stroke="midnightblue" d="M238,-112.498C238,-104.065 238,-94.2351 238,-85.874"/>
<polygon fill="midnightblue" stroke="midnightblue" points="241.5,-85.6525 238,-75.6525 234.5,-85.6525 241.5,-85.6525"/>
</g>
<!-- Node8 -->
<g id="node8" class="node"><title>Node8</title>
<polygon fill="white" stroke="#bfbfbf" points="281.5,-56.5 281.5,-75.5 324.5,-75.5 324.5,-56.5 281.5,-56.5"/>
<text text-anchor="middle" x="303" y="-63.5" font-family="Helvetica,sans-Serif" font-size="10.00">cstdio</text>
</g>
<!-- Node1&#45;&gt;Node8 -->
<g id="edge7" class="edge"><title>Node1&#45;&gt;Node8</title>
<path fill="none" stroke="midnightblue" d="M257.502,-112.498C266.989,-103.011 278.244,-91.7557 287.187,-82.8131"/>
<polygon fill="midnightblue" stroke="midnightblue" points="289.751,-85.1985 294.348,-75.6525 284.802,-80.2487 289.751,-85.1985"/>
</g>
<!-- Node9 -->
<g id="node9" class="node"><title>Node9</title>
<polygon fill="white" stroke="#bfbfbf" points="342.5,-56.5 342.5,-75.5 401.5,-75.5 401.5,-56.5 342.5,-56.5"/>
<text text-anchor="middle" x="372" y="-63.5" font-family="Helvetica,sans-Serif" font-size="10.00">stdexcept</text>
</g>
<!-- Node1&#45;&gt;Node9 -->
<g id="edge8" class="edge"><title>Node1&#45;&gt;Node9</title>
<path fill="none" stroke="midnightblue" d="M278.204,-112.498C299.836,-102.005 325.928,-89.3482 345.096,-80.0507"/>
<polygon fill="midnightblue" stroke="midnightblue" points="346.693,-83.166 354.163,-75.6525 343.638,-76.8679 346.693,-83.166"/>
</g>
<!-- Node3 -->
<g id="node3" class="node"><title>Node3</title>
<polygon fill="white" stroke="#bfbfbf" points="0,-0.5 0,-19.5 54,-19.5 54,-0.5 0,-0.5"/>
<text text-anchor="middle" x="27" y="-7.5" font-family="Helvetica,sans-Serif" font-size="10.00">iostream</text>
</g>
<!-- Node2&#45;&gt;Node3 -->
<g id="edge2" class="edge"><title>Node2&#45;&gt;Node3</title>
<path fill="none" stroke="midnightblue" d="M82.396,-56.324C72.5438,-48.2631 57.6491,-36.0765 45.7849,-26.3695"/>
<polygon fill="midnightblue" stroke="midnightblue" points="47.7529,-23.4575 37.797,-19.8339 43.3202,-28.8752 47.7529,-23.4575"/>
</g>
<!-- Node4 -->
<g id="node4" class="node"><title>Node4</title>
<polygon fill="white" stroke="#bfbfbf" points="72.5,-0.5 72.5,-19.5 113.5,-19.5 113.5,-0.5 72.5,-0.5"/>
<text text-anchor="middle" x="93" y="-7.5" font-family="Helvetica,sans-Serif" font-size="10.00">string</text>
</g>
<!-- Node2&#45;&gt;Node4 -->
<g id="edge3" class="edge"><title>Node2&#45;&gt;Node4</title>
<path fill="none" stroke="midnightblue" d="M93,-56.083C93,-49.0059 93,-38.8611 93,-29.9865"/>
<polygon fill="midnightblue" stroke="midnightblue" points="96.5001,-29.751 93,-19.7511 89.5001,-29.7511 96.5001,-29.751"/>
</g>
<!-- Node6 -->
<g id="node6" class="node"><title>Node6</title>
<polygon fill="white" stroke="#bfbfbf" points="132,-0.5 132,-19.5 204,-19.5 204,-0.5 132,-0.5"/>
<text text-anchor="middle" x="168" y="-7.5" font-family="Helvetica,sans-Serif" font-size="10.00">QApplication</text>
</g>
<!-- Node5&#45;&gt;Node6 -->
<g id="edge5" class="edge"><title>Node5&#45;&gt;Node6</title>
<path fill="none" stroke="midnightblue" d="M167.165,-56.083C167.296,-49.0059 167.484,-38.8611 167.648,-29.9865"/>
<polygon fill="midnightblue" stroke="midnightblue" points="171.152,-29.8142 167.838,-19.7511 164.153,-29.6845 171.152,-29.8142"/>
</g>
</g>
</svg>
