<?xml version="1.0" encoding="UTF-8" standalone="no"?>
<!DOCTYPE svg PUBLIC "-//W3C//DTD SVG 1.1//EN"
 "http://www.w3.org/Graphics/SVG/1.1/DTD/svg11.dtd">
<!-- Generated by graphviz version 2.26.3 (20100126.1600)
 -->
<!-- Title: mars::gui::DialogJoints Pages: 1 -->
<svg width="948pt" height="906pt"
 viewBox="0.00 0.00 948.00 906.00" xmlns="http://www.w3.org/2000/svg" xmlns:xlink="http://www.w3.org/1999/xlink">
<g id="graph1" class="graph" transform="scale(1 1) rotate(0) translate(4 902)">
<title>mars::gui::DialogJoints</title>
<polygon fill="white" stroke="white" points="-4,5 -4,-902 945,-902 945,5 -4,5"/>
<!-- Node1 -->
<g id="node1" class="node"><title>Node1</title>
<polygon fill="#bfbfbf" stroke="black" points="822.5,-465.5 822.5,-486.5 939.5,-486.5 939.5,-465.5 822.5,-465.5"/>
<text text-anchor="middle" x="881" y="-473.5" font-family="Helvetica,sans-Serif" font-size="10.00">mars::gui::DialogJoints</text>
</g>
<!-- Node2 -->
<g id="node2" class="node"><title>Node2</title>
<a xlink:href="../../d4/dcf/classmars_1_1main__gui_1_1_base_widget.html" target="_top" xlink:title="mars::main_gui::BaseWidget">
<polygon fill="white" stroke="black" points="604.5,-715.5 604.5,-736.5 747.5,-736.5 747.5,-715.5 604.5,-715.5"/>
<text text-anchor="middle" x="676" y="-723.5" font-family="Helvetica,sans-Serif" font-size="10.00">mars::main_gui::BaseWidget</text>
</a>
</g>
<!-- Node2&#45;&gt;Node1 -->
<g id="edge2" class="edge"><title>Node2&#45;&gt;Node1</title>
<path fill="none" stroke="midnightblue" d="M691.327,-707.309C731.789,-657.964 840.539,-525.342 872.224,-486.702"/>
<polygon fill="midnightblue" stroke="midnightblue" points="688.443,-705.306 684.809,-715.258 693.856,-709.744 688.443,-705.306"/>
</g>
<!-- Node3 -->
<g id="node4" class="node"><title>Node3</title>
<polygon fill="white" stroke="#bfbfbf" points="318.5,-843.5 318.5,-864.5 373.5,-864.5 373.5,-843.5 318.5,-843.5"/>
<text text-anchor="middle" x="346" y="-851.5" font-family="Helvetica,sans-Serif" font-size="10.00">QWidget</text>
</g>
<!-- Node3&#45;&gt;Node2 -->
<g id="edge4" class="edge"><title>Node3&#45;&gt;Node2</title>
<path fill="none" stroke="midnightblue" d="M383.79,-851.214C432.671,-846.395 519.436,-833.651 586,-801 619.599,-784.519 651.394,-752.984 666.62,-736.55"/>
<polygon fill="midnightblue" stroke="midnightblue" points="383.299,-847.744 373.664,-852.151 383.944,-854.715 383.299,-847.744"/>
</g>
<!-- Node4 -->
<g id="node6" class="node"><title>Node4</title>
<a xlink:href="../../d4/d1a/classmars_1_1cfg__manager_1_1_c_f_g_client.html" target="_top" xlink:title="mars::cfg_manager::\lCFGClient">
<polygon fill="white" stroke="black" points="292.5,-791 292.5,-825 399.5,-825 399.5,-791 292.5,-791"/>
<text text-anchor="start" x="300.5" y="-812" font-family="Helvetica,sans-Serif" font-size="10.00">mars::cfg_manager::</text>
<text text-anchor="middle" x="346" y="-799" font-family="Helvetica,sans-Serif" font-size="10.00">CFGClient</text>
</a>
</g>
<!-- Node4&#45;&gt;Node2 -->
<g id="edge6" class="edge"><title>Node4&#45;&gt;Node2</title>
<path fill="none" stroke="midnightblue" d="M409.814,-805.018C458.978,-801.285 528.106,-792.887 586,-774 613.61,-764.993 642.78,-747.827 660.181,-736.652"/>
<polygon fill="midnightblue" stroke="midnightblue" points="409.362,-801.541 399.637,-805.746 409.861,-808.524 409.362,-801.541"/>
</g>
<!-- Node5 -->
<g id="node8" class="node"><title>Node5</title>
<a xlink:href="../../dc/dc3/structmars_1_1cfg__manager_1_1cfg_property_struct.html" target="_top" xlink:title="mars::cfg_manager::\lcfgPropertyStruct">
<polygon fill="white" stroke="black" points="292.5,-690 292.5,-724 399.5,-724 399.5,-690 292.5,-690"/>
<text text-anchor="start" x="300.5" y="-711" font-family="Helvetica,sans-Serif" font-size="10.00">mars::cfg_manager::</text>
<text text-anchor="middle" x="346" y="-698" font-family="Helvetica,sans-Serif" font-size="10.00">cfgPropertyStruct</text>
</a>
</g>
<!-- Node5&#45;&gt;Node2 -->
<g id="edge8" class="edge"><title>Node5&#45;&gt;Node2</title>
<path fill="none" stroke="#9a32cd" stroke-dasharray="5,2" d="M409.845,-695.816C458.466,-689.159 526.88,-683.802 586,-694 609.696,-698.087 635.422,-707.811 653.277,-715.474"/>
<polygon fill="#9a32cd" stroke="#9a32cd" points="409.187,-692.374 399.781,-697.251 410.175,-699.304 409.187,-692.374"/>
<text text-anchor="middle" x="514" y="-737" font-family="Helvetica,sans-Serif" font-size="10.00"> wTop</text>
<text text-anchor="middle" x="514" y="-724" font-family="Helvetica,sans-Serif" font-size="10.00">wWidth</text>
<text text-anchor="middle" x="514" y="-711" font-family="Helvetica,sans-Serif" font-size="10.00">wHeight</text>
<text text-anchor="middle" x="514" y="-698" font-family="Helvetica,sans-Serif" font-size="10.00">wLeft</text>
</g>
<!-- Node6 -->
<g id="node10" class="node"><title>Node6</title>
<polygon fill="white" stroke="#bfbfbf" points="60.5,-749.5 60.5,-770.5 101.5,-770.5 101.5,-749.5 60.5,-749.5"/>
<text text-anchor="middle" x="81" y="-757.5" font-family="Helvetica,sans-Serif" font-size="10.00">string</text>
</g>
<!-- Node6&#45;&gt;Node1 -->
<g id="edge20" class="edge"><title>Node6&#45;&gt;Node1</title>
<path fill="none" stroke="#9a32cd" stroke-dasharray="5,2" d="M100.802,-777.268C133.134,-804.187 200.456,-855.035 268,-874 405.091,-912.493 453.208,-886.399 586,-835 662.611,-805.346 691.223,-805.372 748,-746 826.73,-663.673 867.819,-525.766 878.283,-486.639"/>
<polygon fill="#9a32cd" stroke="#9a32cd" points="102.892,-774.451 92.9969,-770.664 98.3702,-779.795 102.892,-774.451"/>
<text text-anchor="middle" x="514" y="-889" font-family="Helvetica,sans-Serif" font-size="10.00"> imagePath</text>
</g>
<!-- Node6&#45;&gt;Node2 -->
<g id="edge16" class="edge"><title>Node6&#45;&gt;Node2</title>
<path fill="none" stroke="#9a32cd" stroke-dasharray="5,2" d="M112.054,-761.19C191.359,-763.786 407.681,-768.079 586,-746 602.679,-743.935 620.817,-740.199 636.41,-736.511"/>
<polygon fill="#9a32cd" stroke="#9a32cd" points="111.905,-757.683 101.791,-760.838 111.665,-764.679 111.905,-757.683"/>
<text text-anchor="middle" x="346" y="-767" font-family="Helvetica,sans-Serif" font-size="10.00"> widgetName</text>
</g>
<!-- Node6&#45;&gt;Node5 -->
<g id="edge10" class="edge"><title>Node6&#45;&gt;Node5</title>
<path fill="none" stroke="#9a32cd" stroke-dasharray="5,2" d="M111.519,-750.735C130.982,-745.061 156.816,-737.961 180,-733 217.225,-725.034 259.635,-718.433 292.27,-713.876"/>
<polygon fill="#9a32cd" stroke="#9a32cd" points="110.294,-747.447 101.695,-753.635 112.276,-754.16 110.294,-747.447"/>
<text text-anchor="middle" x="215" y="-737" font-family="Helvetica,sans-Serif" font-size="10.00"> sValue</text>
</g>
<!-- Node7 -->
<g id="node12" class="node"><title>Node7</title>
<a xlink:href="../../d4/da6/classmars_1_1cfg__manager_1_1_c_f_g_manager_interface.html" target="_top" xlink:title="mars::cfg_manager::\lCFGManagerInterface">
<polygon fill="white" stroke="black" points="289.5,-600 289.5,-634 402.5,-634 402.5,-600 289.5,-600"/>
<text text-anchor="start" x="297.5" y="-621" font-family="Helvetica,sans-Serif" font-size="10.00">mars::cfg_manager::</text>
<text text-anchor="middle" x="346" y="-608" font-family="Helvetica,sans-Serif" font-size="10.00">CFGManagerInterface</text>
</a>
</g>
<!-- Node7&#45;&gt;Node2 -->
<g id="edge12" class="edge"><title>Node7&#45;&gt;Node2</title>
<path fill="none" stroke="#9a32cd" stroke-dasharray="5,2" d="M412.876,-629.508C472.533,-641.128 555.083,-658.474 586,-671 614.682,-682.62 644.717,-702.868 661.819,-715.287"/>
<polygon fill="#9a32cd" stroke="#9a32cd" points="413.249,-626.016 402.766,-627.551 411.919,-632.888 413.249,-626.016"/>
<text text-anchor="middle" x="514" y="-675" font-family="Helvetica,sans-Serif" font-size="10.00"> cfg</text>
</g>
<!-- Node12 -->
<g id="node25" class="node"><title>Node12</title>
<a xlink:href="../../d7/d4e/classmars_1_1interfaces_1_1_control_center.html" target="_top" xlink:title="The declaration of the ControlCenter. ">
<polygon fill="white" stroke="black" points="613.5,-366 613.5,-400 738.5,-400 738.5,-366 613.5,-366"/>
<text text-anchor="start" x="621.5" y="-387" font-family="Helvetica,sans-Serif" font-size="10.00">mars::interfaces::Control</text>
<text text-anchor="middle" x="676" y="-374" font-family="Helvetica,sans-Serif" font-size="10.00">Center</text>
</a>
</g>
<!-- Node7&#45;&gt;Node12 -->
<g id="edge40" class="edge"><title>Node7&#45;&gt;Node12</title>
<path fill="none" stroke="#9a32cd" stroke-dasharray="5,2" d="M412.348,-597.8C422.238,-595.296 432.35,-592.934 442,-591 473.648,-584.656 562.081,-593.673 586,-572 612.044,-548.402 590.298,-527.364 604,-495 619.321,-458.813 646.044,-421.297 662.27,-400.175"/>
<polygon fill="#9a32cd" stroke="#9a32cd" points="411.358,-594.441 402.557,-600.339 413.116,-601.216 411.358,-594.441"/>
<text text-anchor="middle" x="514" y="-595" font-family="Helvetica,sans-Serif" font-size="10.00"> cfg</text>
</g>
<!-- Node8 -->
<g id="node14" class="node"><title>Node8</title>
<polygon fill="white" stroke="#bfbfbf" points="47,-498.5 47,-519.5 115,-519.5 115,-498.5 47,-498.5"/>
<text text-anchor="middle" x="81" y="-506.5" font-family="Helvetica,sans-Serif" font-size="10.00">LibInterface</text>
</g>
<!-- Node8&#45;&gt;Node7 -->
<g id="edge14" class="edge"><title>Node8&#45;&gt;Node7</title>
<path fill="none" stroke="midnightblue" d="M112.404,-523.825C149.264,-540.979 212.425,-569.604 268,-591 275.859,-594.026 284.239,-597.038 292.482,-599.882"/>
<polygon fill="midnightblue" stroke="midnightblue" points="113.718,-520.576 103.177,-519.515 110.756,-526.918 113.718,-520.576"/>
</g>
<!-- Node13 -->
<g id="node27" class="node"><title>Node13</title>
<a xlink:href="../../d1/d93/classmars_1_1interfaces_1_1_graphics_manager_interface.html" target="_top" xlink:title="mars::interfaces::Graphics\lManagerInterface">
<polygon fill="white" stroke="black" points="280,-236 280,-270 412,-270 412,-236 280,-236"/>
<text text-anchor="start" x="288" y="-257" font-family="Helvetica,sans-Serif" font-size="10.00">mars::interfaces::Graphics</text>
<text text-anchor="middle" x="346" y="-244" font-family="Helvetica,sans-Serif" font-size="10.00">ManagerInterface</text>
</a>
</g>
<!-- Node8&#45;&gt;Node13 -->
<g id="edge32" class="edge"><title>Node8&#45;&gt;Node13</title>
<path fill="none" stroke="midnightblue" d="M91.6463,-489.431C116.594,-445.364 183.193,-337.638 268,-279 272.814,-275.672 278.086,-272.742 283.547,-270.17"/>
<polygon fill="midnightblue" stroke="midnightblue" points="88.5211,-487.849 86.7107,-498.288 94.6358,-491.256 88.5211,-487.849"/>
</g>
<!-- Node17 -->
<g id="node37" class="node"><title>Node17</title>
<a xlink:href="../../d6/d2e/classmars_1_1data__broker_1_1_data_broker_interface.html" target="_top" xlink:title="The interface every DataBroker should implement. ">
<polygon fill="white" stroke="black" points="294,-184 294,-218 398,-218 398,-184 294,-184"/>
<text text-anchor="start" x="302" y="-205" font-family="Helvetica,sans-Serif" font-size="10.00">mars::data_broker::</text>
<text text-anchor="middle" x="346" y="-192" font-family="Helvetica,sans-Serif" font-size="10.00">DataBrokerInterface</text>
</a>
</g>
<!-- Node8&#45;&gt;Node17 -->
<g id="edge44" class="edge"><title>Node8&#45;&gt;Node17</title>
<path fill="none" stroke="midnightblue" d="M86.2371,-488.545C97.6217,-447.18 127.875,-352.163 180,-289 210.452,-252.099 225.296,-248.572 268,-227 276.154,-222.881 285.106,-219.196 293.948,-215.987"/>
<polygon fill="midnightblue" stroke="midnightblue" points="82.8339,-487.724 83.635,-498.288 89.5969,-489.53 82.8339,-487.724"/>
</g>
<!-- Node25 -->
<g id="node54" class="node"><title>Node25</title>
<a xlink:href="../../d7/df2/classmars_1_1main__gui_1_1_gui_interface.html" target="_top" xlink:title="The abstract GuiInterface class provides the menu and docking functionality of the GUI...">
<polygon fill="white" stroke="black" points="442.5,-612.5 442.5,-633.5 585.5,-633.5 585.5,-612.5 442.5,-612.5"/>
<text text-anchor="middle" x="514" y="-620.5" font-family="Helvetica,sans-Serif" font-size="10.00">mars::main_gui::GuiInterface</text>
</a>
</g>
<!-- Node8&#45;&gt;Node25 -->
<g id="edge62" class="edge"><title>Node8&#45;&gt;Node25</title>
<path fill="none" stroke="midnightblue" d="M97.8681,-527.052C128.29,-558.103 195.915,-620.459 268,-643 334.173,-663.692 355.302,-652.364 424,-643 432.227,-641.879 433.931,-639.959 442,-638 448.204,-636.494 454.731,-635.004 461.218,-633.581"/>
<polygon fill="midnightblue" stroke="midnightblue" points="100.084,-524.306 90.6273,-519.528 95.0399,-529.16 100.084,-524.306"/>
</g>
<!-- Node9 -->
<g id="node17" class="node"><title>Node9</title>
<a xlink:href="../../dd/d38/classmars_1_1main__gui_1_1_property_callback.html" target="_top" xlink:title="Introduced for Windows compatibility. ">
<polygon fill="white" stroke="black" points="283,-40 283,-74 409,-74 409,-40 283,-40"/>
<text text-anchor="start" x="291" y="-61" font-family="Helvetica,sans-Serif" font-size="10.00">mars::main_gui::Property</text>
<text text-anchor="middle" x="346" y="-48" font-family="Helvetica,sans-Serif" font-size="10.00">Callback</text>
</a>
</g>
<!-- Node9&#45;&gt;Node1 -->
<g id="edge18" class="edge"><title>Node9&#45;&gt;Node1</title>
<path fill="none" stroke="midnightblue" d="M419.41,-68.1009C484.616,-78.3943 571.755,-93.3809 586,-102 745.55,-198.54 852.912,-415.195 876.23,-465.45"/>
<polygon fill="midnightblue" stroke="midnightblue" points="419.57,-64.5832 409.148,-66.4908 418.485,-71.4986 419.57,-64.5832"/>
</g>
<!-- Node10 -->
<g id="node20" class="node"><title>Node10</title>
<a xlink:href="../../de/d11/classmars_1_1main__gui_1_1_property_dialog.html" target="_top" xlink:title="The PropertyDialog provides the QtProperty functionality. ">
<polygon fill="white" stroke="black" points="613,-26 613,-60 739,-60 739,-26 613,-26"/>
<text text-anchor="start" x="621" y="-47" font-family="Helvetica,sans-Serif" font-size="10.00">mars::main_gui::Property</text>
<text text-anchor="middle" x="676" y="-34" font-family="Helvetica,sans-Serif" font-size="10.00">Dialog</text>
</a>
</g>
<!-- Node9&#45;&gt;Node10 -->
<g id="edge26" class="edge"><title>Node9&#45;&gt;Node10</title>
<path fill="none" stroke="#9a32cd" stroke-dasharray="5,2" d="M419.451,-53.8839C477.541,-51.4195 557.781,-48.0153 612.977,-45.6737"/>
<polygon fill="#9a32cd" stroke="#9a32cd" points="419.079,-50.3964 409.237,-54.3172 419.376,-57.3901 419.079,-50.3964"/>
<text text-anchor="middle" x="514" y="-57" font-family="Helvetica,sans-Serif" font-size="10.00"> propertyCallback</text>
</g>
<!-- Node10&#45;&gt;Node1 -->
<g id="edge22" class="edge"><title>Node10&#45;&gt;Node1</title>
<path fill="none" stroke="#9a32cd" stroke-dasharray="5,2" d="M749.376,-38.2878C769.337,-40.6887 789.438,-47.0618 804,-61 864.745,-119.144 878.46,-406.567 880.648,-465.449"/>
<polygon fill="#9a32cd" stroke="#9a32cd" points="749.568,-34.7912 739.298,-37.3938 748.949,-41.7639 749.568,-34.7912"/>
<text text-anchor="middle" x="785" y="-65" font-family="Helvetica,sans-Serif" font-size="10.00"> pDialog</text>
</g>
<!-- Node11 -->
<g id="node22" class="node"><title>Node11</title>
<polygon fill="white" stroke="#bfbfbf" points="320,-0.5 320,-21.5 372,-21.5 372,-0.5 320,-0.5"/>
<text text-anchor="middle" x="346" y="-8.5" font-family="Helvetica,sans-Serif" font-size="10.00">QDialog</text>
</g>
<!-- Node11&#45;&gt;Node10 -->
<g id="edge24" class="edge"><title>Node11&#45;&gt;Node10</title>
<path fill="none" stroke="midnightblue" d="M382.23,-14.5132C437.682,-19.8904 544.355,-30.2344 612.755,-36.8672"/>
<polygon fill="midnightblue" stroke="midnightblue" points="382.462,-11.0193 372.17,-13.5377 381.786,-17.9867 382.462,-11.0193"/>
</g>
<!-- Node12&#45;&gt;Node1 -->
<g id="edge28" class="edge"><title>Node12&#45;&gt;Node1</title>
<path fill="none" stroke="#9a32cd" stroke-dasharray="5,2" d="M722.823,-404.242C764.92,-423.339 825.004,-450.597 857.671,-465.417"/>
<polygon fill="#9a32cd" stroke="#9a32cd" points="724.153,-401.002 713.6,-400.058 721.261,-407.376 724.153,-401.002"/>
<text text-anchor="middle" x="785" y="-444" font-family="Helvetica,sans-Serif" font-size="10.00"> control</text>
</g>
<!-- Node13&#45;&gt;Node12 -->
<g id="edge30" class="edge"><title>Node13&#45;&gt;Node12</title>
<path fill="none" stroke="#9a32cd" stroke-dasharray="5,2" d="M422.304,-256.762C471.302,-261.736 535.065,-273.117 586,-299 618.011,-315.267 646.767,-346.359 662.755,-365.813"/>
<polygon fill="#9a32cd" stroke="#9a32cd" points="422.368,-253.253 412.083,-255.795 421.708,-260.221 422.368,-253.253"/>
<text text-anchor="middle" x="514" y="-303" font-family="Helvetica,sans-Serif" font-size="10.00"> graphics</text>
</g>
<!-- Node14 -->
<g id="node30" class="node"><title>Node14</title>
<a xlink:href="../../d2/da9/classmars_1_1interfaces_1_1_controller_manager_interface.html" target="_top" xlink:title="&quot;ControllerManagerInterface&quot; declares the interfaces for all controller operations that are used for ...">
<polygon fill="white" stroke="black" points="278.5,-92 278.5,-126 413.5,-126 413.5,-92 278.5,-92"/>
<text text-anchor="start" x="286.5" y="-113" font-family="Helvetica,sans-Serif" font-size="10.00">mars::interfaces::Controller</text>
<text text-anchor="middle" x="346" y="-100" font-family="Helvetica,sans-Serif" font-size="10.00">ManagerInterface</text>
</a>
</g>
<!-- Node14&#45;&gt;Node12 -->
<g id="edge34" class="edge"><title>Node14&#45;&gt;Node12</title>
<path fill="none" stroke="#9a32cd" stroke-dasharray="5,2" d="M423.889,-104.81C484.108,-103.2 561.247,-105.207 586,-124 626.283,-154.584 661.703,-312.853 672.577,-365.756"/>
<polygon fill="#9a32cd" stroke="#9a32cd" points="423.509,-101.32 413.621,-105.124 423.723,-108.317 423.509,-101.32"/>
<text text-anchor="middle" x="514" y="-128" font-family="Helvetica,sans-Serif" font-size="10.00"> controllers</text>
</g>
<!-- Node15 -->
<g id="node32" class="node"><title>Node15</title>
<a xlink:href="../../d6/d60/classmars_1_1interfaces_1_1_joint_manager_interface.html" target="_top" xlink:title="Interface class for the node organization. ">
<polygon fill="white" stroke="black" points="270,-548 270,-582 422,-582 422,-548 270,-548"/>
<text text-anchor="start" x="278" y="-569" font-family="Helvetica,sans-Serif" font-size="10.00">mars::interfaces::JointManager</text>
<text text-anchor="middle" x="346" y="-556" font-family="Helvetica,sans-Serif" font-size="10.00">Interface</text>
</a>
</g>
<!-- Node15&#45;&gt;Node12 -->
<g id="edge36" class="edge"><title>Node15&#45;&gt;Node12</title>
<path fill="none" stroke="#9a32cd" stroke-dasharray="5,2" d="M432.037,-556.44C490.296,-549.304 561.037,-537.609 586,-521 588.962,-519.029 641.703,-436.734 665.042,-400.185"/>
<polygon fill="#9a32cd" stroke="#9a32cd" points="431.576,-552.971 422.062,-557.633 432.407,-559.921 431.576,-552.971"/>
<text text-anchor="middle" x="514" y="-559" font-family="Helvetica,sans-Serif" font-size="10.00"> joints</text>
</g>
<!-- Node16 -->
<g id="node34" class="node"><title>Node16</title>
<a xlink:href="../../df/d82/classmars_1_1interfaces_1_1_entity_manager_interface.html" target="_top" xlink:title="mars::interfaces::Entity\lManagerInterface">
<polygon fill="white" stroke="black" points="286.5,-496 286.5,-530 405.5,-530 405.5,-496 286.5,-496"/>
<text text-anchor="start" x="294.5" y="-517" font-family="Helvetica,sans-Serif" font-size="10.00">mars::interfaces::Entity</text>
<text text-anchor="middle" x="346" y="-504" font-family="Helvetica,sans-Serif" font-size="10.00">ManagerInterface</text>
</a>
</g>
<!-- Node16&#45;&gt;Node12 -->
<g id="edge38" class="edge"><title>Node16&#45;&gt;Node12</title>
<path fill="none" stroke="#9a32cd" stroke-dasharray="5,2" d="M415.582,-508.543C465.284,-503.089 532.537,-490.963 586,-464 617.157,-448.286 645.75,-418.893 662.003,-400.168"/>
<polygon fill="#9a32cd" stroke="#9a32cd" points="415.157,-505.068 405.569,-509.577 415.876,-512.031 415.157,-505.068"/>
<text text-anchor="middle" x="514" y="-508" font-family="Helvetica,sans-Serif" font-size="10.00"> entities</text>
</g>
<!-- Node17&#45;&gt;Node12 -->
<g id="edge42" class="edge"><title>Node17&#45;&gt;Node12</title>
<path fill="none" stroke="#9a32cd" stroke-dasharray="5,2" d="M408.278,-193.716C459.988,-190.872 533.333,-194.567 586,-229 636.154,-261.79 661.908,-332.994 671.494,-365.808"/>
<polygon fill="#9a32cd" stroke="#9a32cd" points="407.991,-190.227 398.237,-194.365 408.442,-197.213 407.991,-190.227"/>
<text text-anchor="middle" x="514" y="-246" font-family="Helvetica,sans-Serif" font-size="10.00"> dataBroker</text>
<text text-anchor="middle" x="514" y="-233" font-family="Helvetica,sans-Serif" font-size="10.00">theDataBroker</text>
</g>
<!-- Node18 -->
<g id="node40" class="node"><title>Node18</title>
<a xlink:href="../../db/da9/classmars_1_1interfaces_1_1_sensor_manager_interface.html" target="_top" xlink:title="&quot;SensorManagerInterface&quot; declares the interfaces for all sensor operations that are used for the comm...">
<polygon fill="white" stroke="black" points="284,-444 284,-478 408,-478 408,-444 284,-444"/>
<text text-anchor="start" x="292" y="-465" font-family="Helvetica,sans-Serif" font-size="10.00">mars::interfaces::Sensor</text>
<text text-anchor="middle" x="346" y="-452" font-family="Helvetica,sans-Serif" font-size="10.00">ManagerInterface</text>
</a>
</g>
<!-- Node18&#45;&gt;Node12 -->
<g id="edge46" class="edge"><title>Node18&#45;&gt;Node12</title>
<path fill="none" stroke="#9a32cd" stroke-dasharray="5,2" d="M418.157,-451.796C466.242,-444.756 530.551,-433.59 586,-418 603.107,-413.19 621.478,-406.363 637.133,-400.013"/>
<polygon fill="#9a32cd" stroke="#9a32cd" points="417.551,-448.347 408.152,-453.235 418.548,-455.275 417.551,-448.347"/>
<text text-anchor="middle" x="514" y="-451" font-family="Helvetica,sans-Serif" font-size="10.00"> sensors</text>
</g>
<!-- Node19 -->
<g id="node42" class="node"><title>Node19</title>
<a xlink:href="../../db/de9/classmars_1_1interfaces_1_1_motor_manager_interface.html" target="_top" xlink:title="&quot;MotorManagerInterface&quot; declares the interfaces for all motor operations that are used for the commun...">
<polygon fill="white" stroke="black" points="268.5,-392 268.5,-426 423.5,-426 423.5,-392 268.5,-392"/>
<text text-anchor="start" x="276.5" y="-413" font-family="Helvetica,sans-Serif" font-size="10.00">mars::interfaces::MotorManager</text>
<text text-anchor="middle" x="346" y="-400" font-family="Helvetica,sans-Serif" font-size="10.00">Interface</text>
</a>
</g>
<!-- Node19&#45;&gt;Node12 -->
<g id="edge48" class="edge"><title>Node19&#45;&gt;Node12</title>
<path fill="none" stroke="#9a32cd" stroke-dasharray="5,2" d="M433.8,-402.082C490.366,-397.626 562.562,-391.938 613.361,-387.935"/>
<polygon fill="#9a32cd" stroke="#9a32cd" points="433.482,-398.597 423.788,-402.871 434.032,-405.575 433.482,-398.597"/>
<text text-anchor="middle" x="514" y="-405" font-family="Helvetica,sans-Serif" font-size="10.00"> motors</text>
</g>
<!-- Node20 -->
<g id="node44" class="node"><title>Node20</title>
<a xlink:href="../../d9/d6a/classmars_1_1interfaces_1_1_load_center.html" target="_top" xlink:title="mars::interfaces::LoadCenter">
<polygon fill="white" stroke="black" points="274.5,-144.5 274.5,-165.5 417.5,-165.5 417.5,-144.5 274.5,-144.5"/>
<text text-anchor="middle" x="346" y="-152.5" font-family="Helvetica,sans-Serif" font-size="10.00">mars::interfaces::LoadCenter</text>
</a>
</g>
<!-- Node20&#45;&gt;Node12 -->
<g id="edge50" class="edge"><title>Node20&#45;&gt;Node12</title>
<path fill="none" stroke="#9a32cd" stroke-dasharray="5,2" d="M414.642,-143.419C466.474,-138.539 536.834,-140.604 586,-176 650.401,-222.364 669.231,-324.9 674.289,-365.732"/>
<polygon fill="#9a32cd" stroke="#9a32cd" points="414.114,-139.955 404.534,-144.48 414.845,-146.917 414.114,-139.955"/>
<text text-anchor="middle" x="514" y="-180" font-family="Helvetica,sans-Serif" font-size="10.00"> loadCenter</text>
</g>
<!-- Node21 -->
<g id="node46" class="node"><title>Node21</title>
<a xlink:href="../../d1/d51/classmars_1_1interfaces_1_1_load_heightmap_interface.html" target="_top" xlink:title="mars::interfaces::LoadHeightmap\lInterface">
<polygon fill="white" stroke="black" points="0.5,-112 0.5,-146 161.5,-146 161.5,-112 0.5,-112"/>
<text text-anchor="start" x="8.5" y="-133" font-family="Helvetica,sans-Serif" font-size="10.00">mars::interfaces::LoadHeightmap</text>
<text text-anchor="middle" x="81" y="-120" font-family="Helvetica,sans-Serif" font-size="10.00">Interface</text>
</a>
</g>
<!-- Node21&#45;&gt;Node20 -->
<g id="edge52" class="edge"><title>Node21&#45;&gt;Node20</title>
<path fill="none" stroke="#9a32cd" stroke-dasharray="5,2" d="M171.844,-137.913C205.335,-141.199 242.778,-144.873 274.339,-147.969"/>
<polygon fill="#9a32cd" stroke="#9a32cd" points="171.882,-134.4 161.588,-136.907 171.198,-141.367 171.882,-134.4"/>
<text text-anchor="middle" x="215" y="-149" font-family="Helvetica,sans-Serif" font-size="10.00"> loadHeightmap</text>
</g>
<!-- Node22 -->
<g id="node48" class="node"><title>Node22</title>
<a xlink:href="../../d7/d02/classmars_1_1interfaces_1_1_load_mesh_interface.html" target="_top" xlink:title="mars::interfaces::LoadMesh\lInterface">
<polygon fill="white" stroke="black" points="12,-164 12,-198 150,-198 150,-164 12,-164"/>
<text text-anchor="start" x="20" y="-185" font-family="Helvetica,sans-Serif" font-size="10.00">mars::interfaces::LoadMesh</text>
<text text-anchor="middle" x="81" y="-172" font-family="Helvetica,sans-Serif" font-size="10.00">Interface</text>
</a>
</g>
<!-- Node22&#45;&gt;Node20 -->
<g id="edge54" class="edge"><title>Node22&#45;&gt;Node20</title>
<path fill="none" stroke="#9a32cd" stroke-dasharray="5,2" d="M160.315,-173.218C196.535,-169.664 239.113,-165.487 274.353,-162.029"/>
<polygon fill="#9a32cd" stroke="#9a32cd" points="159.89,-169.743 150.279,-174.203 160.573,-176.71 159.89,-169.743"/>
<text text-anchor="middle" x="215" y="-175" font-family="Helvetica,sans-Serif" font-size="10.00"> loadMesh</text>
</g>
<!-- Node23 -->
<g id="node50" class="node"><title>Node23</title>
<a xlink:href="../../d7/d4c/classmars_1_1interfaces_1_1_node_manager_interface.html" target="_top" xlink:title="&quot;NodeManagerInterface&quot; declares the interfaces for all NodeOperations that are used for the communica...">
<polygon fill="white" stroke="black" points="269,-288 269,-322 423,-322 423,-288 269,-288"/>
<text text-anchor="start" x="277" y="-309" font-family="Helvetica,sans-Serif" font-size="10.00">mars::interfaces::NodeManager</text>
<text text-anchor="middle" x="346" y="-296" font-family="Helvetica,sans-Serif" font-size="10.00">Interface</text>
</a>
</g>
<!-- Node23&#45;&gt;Node12 -->
<g id="edge56" class="edge"><title>Node23&#45;&gt;Node12</title>
<path fill="none" stroke="#9a32cd" stroke-dasharray="5,2" d="M433.173,-314.525C479.203,-320.804 536.299,-330.583 586,-345 604.57,-350.387 624.448,-358.511 640.787,-365.867"/>
<polygon fill="#9a32cd" stroke="#9a32cd" points="433.601,-311.052 423.226,-313.199 432.676,-317.99 433.601,-311.052"/>
<text text-anchor="middle" x="514" y="-349" font-family="Helvetica,sans-Serif" font-size="10.00"> nodes</text>
</g>
<!-- Node24 -->
<g id="node52" class="node"><title>Node24</title>
<a xlink:href="../../dc/de5/classmars_1_1interfaces_1_1_simulator_interface.html" target="_top" xlink:title="mars::interfaces::Simulator\lInterface">
<polygon fill="white" stroke="black" points="279,-340 279,-374 413,-374 413,-340 279,-340"/>
<text text-anchor="start" x="287" y="-361" font-family="Helvetica,sans-Serif" font-size="10.00">mars::interfaces::Simulator</text>
<text text-anchor="middle" x="346" y="-348" font-family="Helvetica,sans-Serif" font-size="10.00">Interface</text>
</a>
</g>
<!-- Node24&#45;&gt;Node12 -->
<g id="edge58" class="edge"><title>Node24&#45;&gt;Node12</title>
<path fill="none" stroke="#9a32cd" stroke-dasharray="5,2" d="M423.172,-361.278C470.259,-364.104 531.65,-368.171 586,-373 594.769,-373.779 604.009,-374.696 613.093,-375.653"/>
<polygon fill="#9a32cd" stroke="#9a32cd" points="423.237,-357.776 413.047,-360.676 422.822,-364.763 423.237,-357.776"/>
<text text-anchor="middle" x="514" y="-377" font-family="Helvetica,sans-Serif" font-size="10.00"> sim</text>
</g>
<!-- Node25&#45;&gt;Node1 -->
<g id="edge60" class="edge"><title>Node25&#45;&gt;Node1</title>
<path fill="none" stroke="#9a32cd" stroke-dasharray="5,2" d="M580.302,-609.758C582.229,-609.191 584.132,-608.605 586,-608 693.564,-573.18 814.563,-511.395 861.208,-486.666"/>
<polygon fill="#9a32cd" stroke="#9a32cd" points="579.231,-606.423 570.512,-612.443 581.082,-613.174 579.231,-606.423"/>
<text text-anchor="middle" x="676" y="-604" font-family="Helvetica,sans-Serif" font-size="10.00"> mainGui</text>
</g>
</g>
</svg>
