<?xml version="1.0" encoding="UTF-8" standalone="no"?>
<!DOCTYPE svg PUBLIC "-//W3C//DTD SVG 1.1//EN"
 "http://www.w3.org/Graphics/SVG/1.1/DTD/svg11.dtd">
<!-- Generated by graphviz version 2.36.0 (20140111.2315)
 -->
<!-- Title: /media/kavonszadkowski/work/marsdocs/mars/common/gui/main_gui/src/MyQMdiArea.cpp Pages: 1 -->
<svg width="410pt" height="162pt"
 viewBox="0.00 0.00 410.00 162.00" xmlns="http://www.w3.org/2000/svg" xmlns:xlink="http://www.w3.org/1999/xlink">
<g id="graph0" class="graph" transform="scale(1 1) rotate(0) translate(4 158)">
<title>/media/kavonszadkowski/work/marsdocs/mars/common/gui/main_gui/src/MyQMdiArea.cpp</title>
<polygon fill="white" stroke="none" points="-4,4 -4,-158 406,-158 406,4 -4,4"/>
<!-- Node1 -->
<g id="node1" class="node"><title>Node1</title>
<polygon fill="#bfbfbf" stroke="black" points="152,-112.5 152,-153.5 322,-153.5 322,-112.5 152,-112.5"/>
<text text-anchor="start" x="160" y="-141.5" font-family="Helvetica,sans-Serif" font-size="10.00">/media/kavonszadkowski</text>
<text text-anchor="start" x="160" y="-130.5" font-family="Helvetica,sans-Serif" font-size="10.00">/work/marsdocs/mars/common</text>
<text text-anchor="middle" x="237" y="-119.5" font-family="Helvetica,sans-Serif" font-size="10.00">/gui/main_gui/src/MyQMdiArea.cpp</text>
</g>
<!-- Node2 -->
<g id="node2" class="node"><title>Node2</title>
<g id="a_node2"><a xlink:href="../../df/da3/_my_q_mdi_area_8h.html" target="_top" xlink:title="MyQMdiArea.h">
<polygon fill="white" stroke="black" points="66,-56.5 66,-75.5 148,-75.5 148,-56.5 66,-56.5"/>
<text text-anchor="middle" x="107" y="-63.5" font-family="Helvetica,sans-Serif" font-size="10.00">MyQMdiArea.h</text>
</a>
</g>
</g>
<!-- Node1&#45;&gt;Node2 -->
<g id="edge1" class="edge"><title>Node1&#45;&gt;Node2</title>
<path fill="none" stroke="midnightblue" d="M197.996,-112.498C177.106,-102.053 151.928,-89.4638 133.356,-80.1782"/>
<polygon fill="midnightblue" stroke="midnightblue" points="134.815,-76.9942 124.305,-75.6525 131.684,-83.2552 134.815,-76.9942"/>
</g>
<!-- Node6 -->
<g id="node6" class="node"><title>Node6</title>
<polygon fill="white" stroke="#bfbfbf" points="166.5,-56.5 166.5,-75.5 221.5,-75.5 221.5,-56.5 166.5,-56.5"/>
<text text-anchor="middle" x="194" y="-63.5" font-family="Helvetica,sans-Serif" font-size="10.00">QPainter</text>
</g>
<!-- Node1&#45;&gt;Node6 -->
<g id="edge5" class="edge"><title>Node1&#45;&gt;Node6</title>
<path fill="none" stroke="midnightblue" d="M224.099,-112.498C218.14,-103.49 211.126,-92.8881 205.369,-84.1852"/>
<polygon fill="midnightblue" stroke="midnightblue" points="208.16,-82.0616 199.724,-75.6525 202.322,-85.9238 208.16,-82.0616"/>
</g>
<!-- Node7 -->
<g id="node7" class="node"><title>Node7</title>
<polygon fill="white" stroke="#bfbfbf" points="240,-56.5 240,-75.5 320,-75.5 320,-56.5 240,-56.5"/>
<text text-anchor="middle" x="280" y="-63.5" font-family="Helvetica,sans-Serif" font-size="10.00">QResizeEvent</text>
</g>
<!-- Node1&#45;&gt;Node7 -->
<g id="edge6" class="edge"><title>Node1&#45;&gt;Node7</title>
<path fill="none" stroke="midnightblue" d="M249.901,-112.498C255.86,-103.49 262.874,-92.8881 268.631,-84.1852"/>
<polygon fill="midnightblue" stroke="midnightblue" points="271.678,-85.9238 274.276,-75.6525 265.84,-82.0616 271.678,-85.9238"/>
</g>
<!-- Node8 -->
<g id="node8" class="node"><title>Node8</title>
<polygon fill="white" stroke="#bfbfbf" points="338,-56.5 338,-75.5 402,-75.5 402,-56.5 338,-56.5"/>
<text text-anchor="middle" x="370" y="-63.5" font-family="Helvetica,sans-Serif" font-size="10.00">QScrollBar</text>
</g>
<!-- Node1&#45;&gt;Node8 -->
<g id="edge7" class="edge"><title>Node1&#45;&gt;Node8</title>
<path fill="none" stroke="midnightblue" d="M276.904,-112.498C298.374,-102.005 324.272,-89.3482 343.296,-80.0507"/>
<polygon fill="midnightblue" stroke="midnightblue" points="344.848,-83.188 352.296,-75.6525 341.774,-76.8989 344.848,-83.188"/>
</g>
<!-- Node3 -->
<g id="node3" class="node"><title>Node3</title>
<polygon fill="white" stroke="#bfbfbf" points="0,-0.5 0,-19.5 60,-19.5 60,-0.5 0,-0.5"/>
<text text-anchor="middle" x="30" y="-7.5" font-family="Helvetica,sans-Serif" font-size="10.00">QMdiArea</text>
</g>
<!-- Node2&#45;&gt;Node3 -->
<g id="edge2" class="edge"><title>Node2&#45;&gt;Node3</title>
<path fill="none" stroke="midnightblue" d="M94.6286,-56.324C82.8415,-48.0577 64.8677,-35.4527 50.8645,-25.6322"/>
<polygon fill="midnightblue" stroke="midnightblue" points="52.5376,-22.5307 42.3407,-19.6545 48.5184,-28.2619 52.5376,-22.5307"/>
</g>
<!-- Node4 -->
<g id="node4" class="node"><title>Node4</title>
<polygon fill="white" stroke="#bfbfbf" points="78.5,-0.5 78.5,-19.5 135.5,-19.5 135.5,-0.5 78.5,-0.5"/>
<text text-anchor="middle" x="107" y="-7.5" font-family="Helvetica,sans-Serif" font-size="10.00">QPixmap</text>
</g>
<!-- Node2&#45;&gt;Node4 -->
<g id="edge3" class="edge"><title>Node2&#45;&gt;Node4</title>
<path fill="none" stroke="midnightblue" d="M107,-56.083C107,-49.0059 107,-38.8611 107,-29.9865"/>
<polygon fill="midnightblue" stroke="midnightblue" points="110.5,-29.751 107,-19.7511 103.5,-29.7511 110.5,-29.751"/>
</g>
<!-- Node5 -->
<g id="node5" class="node"><title>Node5</title>
<polygon fill="white" stroke="#bfbfbf" points="153.5,-0.5 153.5,-19.5 194.5,-19.5 194.5,-0.5 153.5,-0.5"/>
<text text-anchor="middle" x="174" y="-7.5" font-family="Helvetica,sans-Serif" font-size="10.00">string</text>
</g>
<!-- Node2&#45;&gt;Node5 -->
<g id="edge4" class="edge"><title>Node2&#45;&gt;Node5</title>
<path fill="none" stroke="midnightblue" d="M117.765,-56.324C127.766,-48.2631 142.887,-36.0765 154.93,-26.3695"/>
<polygon fill="midnightblue" stroke="midnightblue" points="157.45,-28.8343 163.039,-19.8339 153.057,-23.3841 157.45,-28.8343"/>
</g>
</g>
</svg>
