<?xml version="1.0" encoding="UTF-8" standalone="no"?>
<!DOCTYPE svg PUBLIC "-//W3C//DTD SVG 1.1//EN"
 "http://www.w3.org/Graphics/SVG/1.1/DTD/svg11.dtd">
<!-- Generated by graphviz version 2.26.3 (20100126.1600)
 -->
<!-- Title: mars::sim::Joint6DOFSensor Pages: 1 -->
<svg width="1238pt" height="807pt"
 viewBox="0.00 0.00 1238.00 807.00" xmlns="http://www.w3.org/2000/svg" xmlns:xlink="http://www.w3.org/1999/xlink">
<g id="graph1" class="graph" transform="scale(1 1) rotate(0) translate(4 803)">
<title>mars::sim::Joint6DOFSensor</title>
<polygon fill="white" stroke="white" points="-4,5 -4,-803 1235,-803 1235,5 -4,5"/>
<!-- Node1 -->
<g id="node1" class="node"><title>Node1</title>
<polygon fill="#bfbfbf" stroke="black" points="1086,-150.5 1086,-171.5 1230,-171.5 1230,-150.5 1086,-150.5"/>
<text text-anchor="middle" x="1158" y="-158.5" font-family="Helvetica,sans-Serif" font-size="10.00">mars::sim::Joint6DOFSensor</text>
</g>
<!-- Node2 -->
<g id="node2" class="node"><title>Node2</title>
<a xlink:href="../../d3/d21/classmars_1_1interfaces_1_1_sensor_interface.html" target="_top" xlink:title="mars::interfaces::Sensor\lInterface">
<polygon fill="white" stroke="black" points="859,-359 859,-393 983,-393 983,-359 859,-359"/>
<text text-anchor="start" x="867" y="-380" font-family="Helvetica,sans-Serif" font-size="10.00">mars::interfaces::Sensor</text>
<text text-anchor="middle" x="921" y="-367" font-family="Helvetica,sans-Serif" font-size="10.00">Interface</text>
</a>
</g>
<!-- Node2&#45;&gt;Node1 -->
<g id="edge2" class="edge"><title>Node2&#45;&gt;Node1</title>
<path fill="none" stroke="midnightblue" d="M953.341,-352.889C983.983,-330.445 1030.73,-294.758 1068,-260 1100.11,-230.058 1133.86,-190.367 1149.33,-171.641"/>
<polygon fill="midnightblue" stroke="midnightblue" points="951.17,-350.141 945.147,-358.857 955.291,-355.799 951.17,-350.141"/>
</g>
<!-- Node3 -->
<g id="node4" class="node"><title>Node3</title>
<a xlink:href="../../d7/d4e/classmars_1_1interfaces_1_1_control_center.html" target="_top" xlink:title="The declaration of the ControlCenter. ">
<polygon fill="white" stroke="black" points="533.5,-479 533.5,-513 658.5,-513 658.5,-479 533.5,-479"/>
<text text-anchor="start" x="541.5" y="-500" font-family="Helvetica,sans-Serif" font-size="10.00">mars::interfaces::Control</text>
<text text-anchor="middle" x="596" y="-487" font-family="Helvetica,sans-Serif" font-size="10.00">Center</text>
</a>
</g>
<!-- Node3&#45;&gt;Node2 -->
<g id="edge4" class="edge"><title>Node3&#45;&gt;Node2</title>
<path fill="none" stroke="#9a32cd" stroke-dasharray="5,2" d="M651.608,-475.468C714.621,-452.201 816.176,-414.704 874.94,-393.007"/>
<polygon fill="#9a32cd" stroke="#9a32cd" points="650.388,-472.187 642.219,-478.934 652.813,-478.754 650.388,-472.187"/>
<text text-anchor="middle" x="759" y="-464" font-family="Helvetica,sans-Serif" font-size="10.00"> control</text>
</g>
<!-- Node4 -->
<g id="node6" class="node"><title>Node4</title>
<a xlink:href="../../d1/d93/classmars_1_1interfaces_1_1_graphics_manager_interface.html" target="_top" xlink:title="mars::interfaces::Graphics\lManagerInterface">
<polygon fill="white" stroke="black" points="280,-765 280,-799 412,-799 412,-765 280,-765"/>
<text text-anchor="start" x="288" y="-786" font-family="Helvetica,sans-Serif" font-size="10.00">mars::interfaces::Graphics</text>
<text text-anchor="middle" x="346" y="-773" font-family="Helvetica,sans-Serif" font-size="10.00">ManagerInterface</text>
</a>
</g>
<!-- Node4&#45;&gt;Node3 -->
<g id="edge6" class="edge"><title>Node4&#45;&gt;Node3</title>
<path fill="none" stroke="#9a32cd" stroke-dasharray="5,2" d="M421.907,-770.2C451.292,-762.266 483.257,-749.036 506,-727 569.059,-665.902 588.768,-555.492 594.174,-513.158"/>
<polygon fill="#9a32cd" stroke="#9a32cd" points="420.893,-766.846 412.057,-772.692 422.61,-773.632 420.893,-766.846"/>
<text text-anchor="middle" x="474" y="-767" font-family="Helvetica,sans-Serif" font-size="10.00"> graphics</text>
</g>
<!-- Node5 -->
<g id="node8" class="node"><title>Node5</title>
<polygon fill="white" stroke="#bfbfbf" points="47,-719.5 47,-740.5 115,-740.5 115,-719.5 47,-719.5"/>
<text text-anchor="middle" x="81" y="-727.5" font-family="Helvetica,sans-Serif" font-size="10.00">LibInterface</text>
</g>
<!-- Node5&#45;&gt;Node4 -->
<g id="edge8" class="edge"><title>Node5&#45;&gt;Node4</title>
<path fill="none" stroke="midnightblue" d="M125.064,-738.647C167.239,-746.922 231.411,-759.515 279.747,-768.999"/>
<polygon fill="midnightblue" stroke="midnightblue" points="125.588,-735.183 115.102,-736.692 124.241,-742.052 125.588,-735.183"/>
</g>
<!-- Node9 -->
<g id="node16" class="node"><title>Node9</title>
<a xlink:href="../../d4/da6/classmars_1_1cfg__manager_1_1_c_f_g_manager_interface.html" target="_top" xlink:title="mars::cfg_manager::\lCFGManagerInterface">
<polygon fill="white" stroke="black" points="289.5,-713 289.5,-747 402.5,-747 402.5,-713 289.5,-713"/>
<text text-anchor="start" x="297.5" y="-734" font-family="Helvetica,sans-Serif" font-size="10.00">mars::cfg_manager::</text>
<text text-anchor="middle" x="346" y="-721" font-family="Helvetica,sans-Serif" font-size="10.00">CFGManagerInterface</text>
</a>
</g>
<!-- Node5&#45;&gt;Node9 -->
<g id="edge18" class="edge"><title>Node5&#45;&gt;Node9</title>
<path fill="none" stroke="midnightblue" d="M125.147,-730C170.173,-730 240.21,-730 289.312,-730"/>
<polygon fill="midnightblue" stroke="midnightblue" points="125.102,-726.5 115.102,-730 125.102,-733.5 125.102,-726.5"/>
</g>
<!-- Node10 -->
<g id="node19" class="node"><title>Node10</title>
<a xlink:href="../../d6/d2e/classmars_1_1data__broker_1_1_data_broker_interface.html" target="_top" xlink:title="The interface every DataBroker should implement. ">
<polygon fill="white" stroke="black" points="294,-661 294,-695 398,-695 398,-661 294,-661"/>
<text text-anchor="start" x="302" y="-682" font-family="Helvetica,sans-Serif" font-size="10.00">mars::data_broker::</text>
<text text-anchor="middle" x="346" y="-669" font-family="Helvetica,sans-Serif" font-size="10.00">DataBrokerInterface</text>
</a>
</g>
<!-- Node5&#45;&gt;Node10 -->
<g id="edge22" class="edge"><title>Node5&#45;&gt;Node10</title>
<path fill="none" stroke="midnightblue" d="M125.155,-721.336C171.569,-712.228 244.55,-697.907 293.788,-688.245"/>
<polygon fill="midnightblue" stroke="midnightblue" points="124.241,-717.948 115.102,-723.308 125.588,-724.817 124.241,-717.948"/>
</g>
<!-- Node6 -->
<g id="node10" class="node"><title>Node6</title>
<a xlink:href="../../d2/da9/classmars_1_1interfaces_1_1_controller_manager_interface.html" target="_top" xlink:title="&quot;ControllerManagerInterface&quot; declares the interfaces for all controller operations that are used for ...">
<polygon fill="white" stroke="black" points="278.5,-609 278.5,-643 413.5,-643 413.5,-609 278.5,-609"/>
<text text-anchor="start" x="286.5" y="-630" font-family="Helvetica,sans-Serif" font-size="10.00">mars::interfaces::Controller</text>
<text text-anchor="middle" x="346" y="-617" font-family="Helvetica,sans-Serif" font-size="10.00">ManagerInterface</text>
</a>
</g>
<!-- Node6&#45;&gt;Node3 -->
<g id="edge10" class="edge"><title>Node6&#45;&gt;Node3</title>
<path fill="none" stroke="#9a32cd" stroke-dasharray="5,2" d="M409.223,-605.538C414.245,-603.726 419.221,-601.869 424,-600 461.236,-585.437 471.541,-583.278 506,-563 531.35,-548.082 558.107,-527.452 575.792,-513.039"/>
<polygon fill="#9a32cd" stroke="#9a32cd" points="407.81,-602.325 399.547,-608.956 410.142,-608.925 407.81,-602.325"/>
<text text-anchor="middle" x="474" y="-596" font-family="Helvetica,sans-Serif" font-size="10.00"> controllers</text>
</g>
<!-- Node7 -->
<g id="node12" class="node"><title>Node7</title>
<a xlink:href="../../d6/d60/classmars_1_1interfaces_1_1_joint_manager_interface.html" target="_top" xlink:title="Interface class for the node organization. ">
<polygon fill="white" stroke="black" points="270,-557 270,-591 422,-591 422,-557 270,-557"/>
<text text-anchor="start" x="278" y="-578" font-family="Helvetica,sans-Serif" font-size="10.00">mars::interfaces::JointManager</text>
<text text-anchor="middle" x="346" y="-565" font-family="Helvetica,sans-Serif" font-size="10.00">Interface</text>
</a>
</g>
<!-- Node7&#45;&gt;Node3 -->
<g id="edge12" class="edge"><title>Node7&#45;&gt;Node3</title>
<path fill="none" stroke="#9a32cd" stroke-dasharray="5,2" d="M418.517,-554.174C446.028,-546.384 477.57,-537.131 506,-528 520.21,-523.436 535.552,-518.126 549.474,-513.158"/>
<polygon fill="#9a32cd" stroke="#9a32cd" points="417.253,-550.893 408.577,-556.974 419.151,-557.631 417.253,-550.893"/>
<text text-anchor="middle" x="474" y="-550" font-family="Helvetica,sans-Serif" font-size="10.00"> joints</text>
</g>
<!-- Node8 -->
<g id="node14" class="node"><title>Node8</title>
<a xlink:href="../../df/d82/classmars_1_1interfaces_1_1_entity_manager_interface.html" target="_top" xlink:title="mars::interfaces::Entity\lManagerInterface">
<polygon fill="white" stroke="black" points="286.5,-505 286.5,-539 405.5,-539 405.5,-505 286.5,-505"/>
<text text-anchor="start" x="294.5" y="-526" font-family="Helvetica,sans-Serif" font-size="10.00">mars::interfaces::Entity</text>
<text text-anchor="middle" x="346" y="-513" font-family="Helvetica,sans-Serif" font-size="10.00">ManagerInterface</text>
</a>
</g>
<!-- Node8&#45;&gt;Node3 -->
<g id="edge14" class="edge"><title>Node8&#45;&gt;Node3</title>
<path fill="none" stroke="#9a32cd" stroke-dasharray="5,2" d="M415.747,-514.746C452.66,-510.907 497.62,-506.231 533.404,-502.51"/>
<polygon fill="#9a32cd" stroke="#9a32cd" points="415.148,-511.29 405.564,-515.805 415.872,-518.252 415.148,-511.29"/>
<text text-anchor="middle" x="474" y="-515" font-family="Helvetica,sans-Serif" font-size="10.00"> entities</text>
</g>
<!-- Node9&#45;&gt;Node3 -->
<g id="edge16" class="edge"><title>Node9&#45;&gt;Node3</title>
<path fill="none" stroke="#9a32cd" stroke-dasharray="5,2" d="M412.523,-719.304C443.846,-711.441 479.952,-697.958 506,-675 557.276,-629.807 582.861,-548.53 591.984,-513.19"/>
<polygon fill="#9a32cd" stroke="#9a32cd" points="411.467,-715.957 402.541,-721.664 413.078,-722.769 411.467,-715.957"/>
<text text-anchor="middle" x="474" y="-714" font-family="Helvetica,sans-Serif" font-size="10.00"> cfg</text>
</g>
<!-- Node10&#45;&gt;Node3 -->
<g id="edge20" class="edge"><title>Node10&#45;&gt;Node3</title>
<path fill="none" stroke="#9a32cd" stroke-dasharray="5,2" d="M407.969,-660.493C439.667,-649.376 477.47,-632.575 506,-609 540.413,-580.563 570.482,-537.04 585.61,-513.159"/>
<polygon fill="#9a32cd" stroke="#9a32cd" points="406.688,-657.232 398.345,-663.762 408.939,-663.86 406.688,-657.232"/>
<text text-anchor="middle" x="474" y="-662" font-family="Helvetica,sans-Serif" font-size="10.00"> dataBroker</text>
<text text-anchor="middle" x="474" y="-649" font-family="Helvetica,sans-Serif" font-size="10.00">theDataBroker</text>
</g>
<!-- Node11 -->
<g id="node22" class="node"><title>Node11</title>
<a xlink:href="../../db/da9/classmars_1_1interfaces_1_1_sensor_manager_interface.html" target="_top" xlink:title="&quot;SensorManagerInterface&quot; declares the interfaces for all sensor operations that are used for the comm...">
<polygon fill="white" stroke="black" points="284,-453 284,-487 408,-487 408,-453 284,-453"/>
<text text-anchor="start" x="292" y="-474" font-family="Helvetica,sans-Serif" font-size="10.00">mars::interfaces::Sensor</text>
<text text-anchor="middle" x="346" y="-461" font-family="Helvetica,sans-Serif" font-size="10.00">ManagerInterface</text>
</a>
</g>
<!-- Node11&#45;&gt;Node3 -->
<g id="edge24" class="edge"><title>Node11&#45;&gt;Node3</title>
<path fill="none" stroke="#9a32cd" stroke-dasharray="5,2" d="M418.183,-477.507C454.599,-481.294 498.344,-485.844 533.333,-489.483"/>
<polygon fill="#9a32cd" stroke="#9a32cd" points="418.427,-474.014 408.119,-476.46 417.703,-480.976 418.427,-474.014"/>
<text text-anchor="middle" x="474" y="-490" font-family="Helvetica,sans-Serif" font-size="10.00"> sensors</text>
</g>
<!-- Node12 -->
<g id="node24" class="node"><title>Node12</title>
<a xlink:href="../../db/de9/classmars_1_1interfaces_1_1_motor_manager_interface.html" target="_top" xlink:title="&quot;MotorManagerInterface&quot; declares the interfaces for all motor operations that are used for the commun...">
<polygon fill="white" stroke="black" points="268.5,-401 268.5,-435 423.5,-435 423.5,-401 268.5,-401"/>
<text text-anchor="start" x="276.5" y="-422" font-family="Helvetica,sans-Serif" font-size="10.00">mars::interfaces::MotorManager</text>
<text text-anchor="middle" x="346" y="-409" font-family="Helvetica,sans-Serif" font-size="10.00">Interface</text>
</a>
</g>
<!-- Node12&#45;&gt;Node3 -->
<g id="edge26" class="edge"><title>Node12&#45;&gt;Node3</title>
<path fill="none" stroke="#9a32cd" stroke-dasharray="5,2" d="M420.73,-437.73C447.735,-445.199 478.369,-454.063 506,-463 520.885,-467.814 536.973,-473.542 551.374,-478.864"/>
<polygon fill="#9a32cd" stroke="#9a32cd" points="421.527,-434.32 410.957,-435.044 419.672,-441.069 421.527,-434.32"/>
<text text-anchor="middle" x="474" y="-467" font-family="Helvetica,sans-Serif" font-size="10.00"> motors</text>
</g>
<!-- Node13 -->
<g id="node26" class="node"><title>Node13</title>
<a xlink:href="../../d9/d6a/classmars_1_1interfaces_1_1_load_center.html" target="_top" xlink:title="mars::interfaces::LoadCenter">
<polygon fill="white" stroke="black" points="274.5,-361.5 274.5,-382.5 417.5,-382.5 417.5,-361.5 274.5,-361.5"/>
<text text-anchor="middle" x="346" y="-369.5" font-family="Helvetica,sans-Serif" font-size="10.00">mars::interfaces::LoadCenter</text>
</a>
</g>
<!-- Node13&#45;&gt;Node3 -->
<g id="edge28" class="edge"><title>Node13&#45;&gt;Node3</title>
<path fill="none" stroke="#9a32cd" stroke-dasharray="5,2" d="M401.893,-385.228C409.378,-387.32 416.912,-389.594 424,-392 461.523,-404.736 471.786,-407.011 506,-427 532.01,-442.196 559.077,-463.874 576.647,-478.859"/>
<polygon fill="#9a32cd" stroke="#9a32cd" points="402.691,-381.818 392.124,-382.586 400.864,-388.575 402.691,-381.818"/>
<text text-anchor="middle" x="474" y="-431" font-family="Helvetica,sans-Serif" font-size="10.00"> loadCenter</text>
</g>
<!-- Node14 -->
<g id="node28" class="node"><title>Node14</title>
<a xlink:href="../../d1/d51/classmars_1_1interfaces_1_1_load_heightmap_interface.html" target="_top" xlink:title="mars::interfaces::LoadHeightmap\lInterface">
<polygon fill="white" stroke="black" points="0.5,-381 0.5,-415 161.5,-415 161.5,-381 0.5,-381"/>
<text text-anchor="start" x="8.5" y="-402" font-family="Helvetica,sans-Serif" font-size="10.00">mars::interfaces::LoadHeightmap</text>
<text text-anchor="middle" x="81" y="-389" font-family="Helvetica,sans-Serif" font-size="10.00">Interface</text>
</a>
</g>
<!-- Node14&#45;&gt;Node13 -->
<g id="edge30" class="edge"><title>Node14&#45;&gt;Node13</title>
<path fill="none" stroke="#9a32cd" stroke-dasharray="5,2" d="M171.844,-389.087C205.335,-385.801 242.778,-382.127 274.339,-379.031"/>
<polygon fill="#9a32cd" stroke="#9a32cd" points="171.198,-385.633 161.588,-390.093 171.882,-392.6 171.198,-385.633"/>
<text text-anchor="middle" x="215" y="-392" font-family="Helvetica,sans-Serif" font-size="10.00"> loadHeightmap</text>
</g>
<!-- Node15 -->
<g id="node30" class="node"><title>Node15</title>
<a xlink:href="../../d7/d02/classmars_1_1interfaces_1_1_load_mesh_interface.html" target="_top" xlink:title="mars::interfaces::LoadMesh\lInterface">
<polygon fill="white" stroke="black" points="12,-329 12,-363 150,-363 150,-329 12,-329"/>
<text text-anchor="start" x="20" y="-350" font-family="Helvetica,sans-Serif" font-size="10.00">mars::interfaces::LoadMesh</text>
<text text-anchor="middle" x="81" y="-337" font-family="Helvetica,sans-Serif" font-size="10.00">Interface</text>
</a>
</g>
<!-- Node15&#45;&gt;Node13 -->
<g id="edge32" class="edge"><title>Node15&#45;&gt;Node13</title>
<path fill="none" stroke="#9a32cd" stroke-dasharray="5,2" d="M160.315,-353.782C196.535,-357.336 239.113,-361.513 274.353,-364.971"/>
<polygon fill="#9a32cd" stroke="#9a32cd" points="160.573,-350.29 150.279,-352.797 159.89,-357.257 160.573,-350.29"/>
<text text-anchor="middle" x="215" y="-366" font-family="Helvetica,sans-Serif" font-size="10.00"> loadMesh</text>
</g>
<!-- Node16 -->
<g id="node32" class="node"><title>Node16</title>
<a xlink:href="../../d7/d4c/classmars_1_1interfaces_1_1_node_manager_interface.html" target="_top" xlink:title="&quot;NodeManagerInterface&quot; declares the interfaces for all NodeOperations that are used for the communica...">
<polygon fill="white" stroke="black" points="269,-309 269,-343 423,-343 423,-309 269,-309"/>
<text text-anchor="start" x="277" y="-330" font-family="Helvetica,sans-Serif" font-size="10.00">mars::interfaces::NodeManager</text>
<text text-anchor="middle" x="346" y="-317" font-family="Helvetica,sans-Serif" font-size="10.00">Interface</text>
</a>
</g>
<!-- Node16&#45;&gt;Node3 -->
<g id="edge34" class="edge"><title>Node16&#45;&gt;Node3</title>
<path fill="none" stroke="#9a32cd" stroke-dasharray="5,2" d="M432.766,-345.676C457.872,-353.965 484.324,-365.416 506,-381 543.052,-407.639 572.494,-453.671 586.71,-478.655"/>
<polygon fill="#9a32cd" stroke="#9a32cd" points="433.814,-342.337 423.223,-342.653 431.699,-349.01 433.814,-342.337"/>
<text text-anchor="middle" x="474" y="-385" font-family="Helvetica,sans-Serif" font-size="10.00"> nodes</text>
</g>
<!-- Node17 -->
<g id="node34" class="node"><title>Node17</title>
<a xlink:href="../../dc/de5/classmars_1_1interfaces_1_1_simulator_interface.html" target="_top" xlink:title="mars::interfaces::Simulator\lInterface">
<polygon fill="white" stroke="black" points="279,-257 279,-291 413,-291 413,-257 279,-257"/>
<text text-anchor="start" x="287" y="-278" font-family="Helvetica,sans-Serif" font-size="10.00">mars::interfaces::Simulator</text>
<text text-anchor="middle" x="346" y="-265" font-family="Helvetica,sans-Serif" font-size="10.00">Interface</text>
</a>
</g>
<!-- Node17&#45;&gt;Node3 -->
<g id="edge36" class="edge"><title>Node17&#45;&gt;Node3</title>
<path fill="none" stroke="#9a32cd" stroke-dasharray="5,2" d="M423.274,-289.454C451.781,-298.184 482.761,-311.598 506,-332 553.227,-373.461 580.479,-445.942 590.971,-478.861"/>
<polygon fill="#9a32cd" stroke="#9a32cd" points="423.89,-285.988 413.31,-286.558 421.936,-292.71 423.89,-285.988"/>
<text text-anchor="middle" x="474" y="-336" font-family="Helvetica,sans-Serif" font-size="10.00"> sim</text>
</g>
<!-- Node18 -->
<g id="node36" class="node"><title>Node18</title>
<a xlink:href="../../da/d73/classmars_1_1interfaces_1_1_base_sensor.html" target="_top" xlink:title="mars::interfaces::BaseSensor">
<polygon fill="white" stroke="black" points="686,-235.5 686,-256.5 832,-256.5 832,-235.5 686,-235.5"/>
<text text-anchor="middle" x="759" y="-243.5" font-family="Helvetica,sans-Serif" font-size="10.00">mars::interfaces::BaseSensor</text>
</a>
</g>
<!-- Node18&#45;&gt;Node1 -->
<g id="edge38" class="edge"><title>Node18&#45;&gt;Node1</title>
<path fill="none" stroke="midnightblue" d="M842.229,-246.119C905.948,-243.717 995.002,-234.887 1068,-207 1094.06,-197.043 1122.47,-181.71 1140.25,-171.519"/>
<polygon fill="midnightblue" stroke="midnightblue" points="842.105,-242.621 832.226,-246.451 842.337,-249.617 842.105,-242.621"/>
</g>
<!-- Node19 -->
<g id="node38" class="node"><title>Node19</title>
<polygon fill="white" stroke="#bfbfbf" points="325.5,-207.5 325.5,-228.5 366.5,-228.5 366.5,-207.5 325.5,-207.5"/>
<text text-anchor="middle" x="346" y="-215.5" font-family="Helvetica,sans-Serif" font-size="10.00">string</text>
</g>
<!-- Node19&#45;&gt;Node18 -->
<g id="edge40" class="edge"><title>Node19&#45;&gt;Node18</title>
<path fill="none" stroke="#9a32cd" stroke-dasharray="5,2" d="M376.764,-220.086C441.673,-224.486 594.171,-234.825 685.719,-241.032"/>
<polygon fill="#9a32cd" stroke="#9a32cd" points="376.978,-216.592 366.764,-219.408 376.504,-223.576 376.978,-216.592"/>
<text text-anchor="middle" x="474" y="-233" font-family="Helvetica,sans-Serif" font-size="10.00"> name</text>
</g>
<!-- Node25 -->
<g id="node50" class="node"><title>Node25</title>
<a xlink:href="../../d4/d5f/classmars_1_1interfaces_1_1_base_config.html" target="_top" xlink:title="mars::interfaces::BaseConfig">
<polygon fill="white" stroke="black" points="524,-196.5 524,-217.5 668,-217.5 668,-196.5 524,-196.5"/>
<text text-anchor="middle" x="596" y="-204.5" font-family="Helvetica,sans-Serif" font-size="10.00">mars::interfaces::BaseConfig</text>
</a>
</g>
<!-- Node19&#45;&gt;Node25 -->
<g id="edge54" class="edge"><title>Node19&#45;&gt;Node25</title>
<path fill="none" stroke="#9a32cd" stroke-dasharray="5,2" d="M376.667,-215.396C395.504,-213.889 420.133,-212.081 442,-211 468.713,-209.68 498.054,-208.781 523.895,-208.175"/>
<polygon fill="#9a32cd" stroke="#9a32cd" points="376.265,-211.918 366.582,-216.219 376.834,-218.894 376.265,-211.918"/>
<text text-anchor="middle" x="474" y="-215" font-family="Helvetica,sans-Serif" font-size="10.00"> name</text>
</g>
<!-- Node20 -->
<g id="node40" class="node"><title>Node20</title>
<a xlink:href="../../d1/db0/classmars_1_1data__broker_1_1_producer_interface.html" target="_top" xlink:title="Interface for classes producing data to broadcast via a DataBroker. ">
<polygon fill="white" stroke="black" points="870.5,-144 870.5,-178 971.5,-178 971.5,-144 870.5,-144"/>
<text text-anchor="start" x="878.5" y="-165" font-family="Helvetica,sans-Serif" font-size="10.00">mars::data_broker::</text>
<text text-anchor="middle" x="921" y="-152" font-family="Helvetica,sans-Serif" font-size="10.00">ProducerInterface</text>
</a>
</g>
<!-- Node20&#45;&gt;Node1 -->
<g id="edge42" class="edge"><title>Node20&#45;&gt;Node1</title>
<path fill="none" stroke="midnightblue" d="M981.602,-161C1013.41,-161 1052.59,-161 1085.94,-161"/>
<polygon fill="midnightblue" stroke="midnightblue" points="981.552,-157.5 971.552,-161 981.552,-164.5 981.552,-157.5"/>
</g>
<!-- Node21 -->
<g id="node42" class="node"><title>Node21</title>
<a xlink:href="../../d0/d0e/classmars_1_1data__broker_1_1_receiver_interface.html" target="_top" xlink:title="Interface for classes that want to receive data from the DataBroker. ">
<polygon fill="white" stroke="black" points="870.5,-92 870.5,-126 971.5,-126 971.5,-92 870.5,-92"/>
<text text-anchor="start" x="878.5" y="-113" font-family="Helvetica,sans-Serif" font-size="10.00">mars::data_broker::</text>
<text text-anchor="middle" x="921" y="-100" font-family="Helvetica,sans-Serif" font-size="10.00">ReceiverInterface</text>
</a>
</g>
<!-- Node21&#45;&gt;Node1 -->
<g id="edge44" class="edge"><title>Node21&#45;&gt;Node1</title>
<path fill="none" stroke="midnightblue" d="M981.425,-122.258C1021.31,-131.009 1072.86,-142.32 1109.95,-150.458"/>
<polygon fill="midnightblue" stroke="midnightblue" points="982.07,-118.816 971.552,-120.092 980.569,-125.653 982.07,-118.816"/>
</g>
<!-- Node22 -->
<g id="node44" class="node"><title>Node22</title>
<a xlink:href="../../da/d2f/classmars_1_1data__broker_1_1_data_package.html" target="_top" xlink:title="A collection of DataItems. ">
<polygon fill="white" stroke="black" points="870.5,-40 870.5,-74 971.5,-74 971.5,-40 870.5,-40"/>
<text text-anchor="start" x="878.5" y="-61" font-family="Helvetica,sans-Serif" font-size="10.00">mars::data_broker::</text>
<text text-anchor="middle" x="921" y="-48" font-family="Helvetica,sans-Serif" font-size="10.00">DataPackage</text>
</a>
</g>
<!-- Node22&#45;&gt;Node1 -->
<g id="edge46" class="edge"><title>Node22&#45;&gt;Node1</title>
<path fill="none" stroke="#9a32cd" stroke-dasharray="5,2" d="M977.456,-77.5957C982.378,-79.415 987.28,-81.2352 992,-83 1025.86,-95.6607 1035.16,-96.8779 1068,-112 1093.69,-123.832 1122.19,-139.868 1140.09,-150.322"/>
<polygon fill="#9a32cd" stroke="#9a32cd" points="978.602,-74.2877 968.008,-74.113 976.181,-80.8557 978.602,-74.2877"/>
<text text-anchor="middle" x="1039" y="-116" font-family="Helvetica,sans-Serif" font-size="10.00"> dbPackage</text>
</g>
<!-- Node23 -->
<g id="node46" class="node"><title>Node23</title>
<a xlink:href="../../d4/dcd/structmars_1_1sim_1_1joint6_d_o_f_data.html" target="_top" xlink:title="mars::sim::joint6DOFData">
<polygon fill="white" stroke="black" points="855.5,-0.5 855.5,-21.5 986.5,-21.5 986.5,-0.5 855.5,-0.5"/>
<text text-anchor="middle" x="921" y="-8.5" font-family="Helvetica,sans-Serif" font-size="10.00">mars::sim::joint6DOFData</text>
</a>
</g>
<!-- Node23&#45;&gt;Node1 -->
<g id="edge48" class="edge"><title>Node23&#45;&gt;Node1</title>
<path fill="none" stroke="#9a32cd" stroke-dasharray="5,2" d="M974.656,-24.6817C980.575,-26.6132 986.46,-28.7247 992,-31 1027.7,-45.6624 1037.03,-49.9678 1068,-73 1100.61,-97.258 1133.35,-132.721 1148.81,-150.301"/>
<polygon fill="#9a32cd" stroke="#9a32cd" points="975.304,-21.2185 964.716,-21.6038 973.233,-27.9053 975.304,-21.2185"/>
<text text-anchor="middle" x="1039" y="-77" font-family="Helvetica,sans-Serif" font-size="10.00"> sensor_data</text>
</g>
<!-- Node24 -->
<g id="node48" class="node"><title>Node24</title>
<a xlink:href="../../d9/dd4/classmars_1_1sim_1_1_joint6_d_o_f_config.html" target="_top" xlink:title="mars::sim::Joint6DOFConfig">
<polygon fill="white" stroke="black" points="850,-196.5 850,-217.5 992,-217.5 992,-196.5 850,-196.5"/>
<text text-anchor="middle" x="921" y="-204.5" font-family="Helvetica,sans-Serif" font-size="10.00">mars::sim::Joint6DOFConfig</text>
</a>
</g>
<!-- Node24&#45;&gt;Node1 -->
<g id="edge50" class="edge"><title>Node24&#45;&gt;Node1</title>
<path fill="none" stroke="#9a32cd" stroke-dasharray="5,2" d="M985.579,-194.466C1022.66,-187.268 1068.71,-178.331 1103.88,-171.504"/>
<polygon fill="#9a32cd" stroke="#9a32cd" points="984.522,-191.105 975.373,-196.447 985.856,-197.977 984.522,-191.105"/>
<text text-anchor="middle" x="1039" y="-194" font-family="Helvetica,sans-Serif" font-size="10.00"> config</text>
</g>
<!-- Node25&#45;&gt;Node24 -->
<g id="edge52" class="edge"><title>Node25&#45;&gt;Node24</title>
<path fill="none" stroke="midnightblue" d="M678.169,-207C731.126,-207 799.29,-207 849.913,-207"/>
<polygon fill="midnightblue" stroke="midnightblue" points="678.128,-203.5 668.128,-207 678.128,-210.5 678.128,-203.5"/>
</g>
</g>
</svg>
