<?xml version="1.0" encoding="UTF-8" standalone="no"?>
<!DOCTYPE svg PUBLIC "-//W3C//DTD SVG 1.1//EN"
 "http://www.w3.org/Graphics/SVG/1.1/DTD/svg11.dtd">
<!-- Generated by graphviz version 2.26.3 (20100126.1600)
 -->
<!-- Title: /home/kavonszadkowski/limes&#45;dev/simulation/mars/interfaces/src/sim/ControlCenter.h Pages: 1 -->
<svg width="1092pt" height="168pt"
 viewBox="0.00 0.00 1092.00 168.00" xmlns="http://www.w3.org/2000/svg" xmlns:xlink="http://www.w3.org/1999/xlink">
<g id="graph1" class="graph" transform="scale(1 1) rotate(0) translate(4 164)">
<title>/home/kavonszadkowski/limes&#45;dev/simulation/mars/interfaces/src/sim/ControlCenter.h</title>
<polygon fill="white" stroke="white" points="-4,5 -4,-164 1089,-164 1089,5 -4,5"/>
<!-- Node1 -->
<g id="node1" class="node"><title>Node1</title>
<polygon fill="#bfbfbf" stroke="black" points="513.5,-99 513.5,-159 638.5,-159 638.5,-99 513.5,-99"/>
<text text-anchor="start" x="521.5" y="-146" font-family="Helvetica,sans-Serif" font-size="10.00">/home/kavonszadkowski</text>
<text text-anchor="start" x="521.5" y="-133" font-family="Helvetica,sans-Serif" font-size="10.00">/limes&#45;dev/simulation</text>
<text text-anchor="start" x="521.5" y="-120" font-family="Helvetica,sans-Serif" font-size="10.00">/mars/interfaces/src/sim</text>
<text text-anchor="middle" x="576" y="-107" font-family="Helvetica,sans-Serif" font-size="10.00">/ControlCenter.h</text>
</g>
<!-- Node2 -->
<g id="node3" class="node"><title>Node2</title>
<a xlink:href="../../df/d7f/_joint_data_8cpp.html" target="_top" xlink:title="/home/kavonszadkowski\l/limes&#45;dev/simulation\l/mars/interfaces/src/JointData.cpp">
<polygon fill="white" stroke="black" points="-0.5,-7.5 -0.5,-54.5 166.5,-54.5 166.5,-7.5 -0.5,-7.5"/>
<text text-anchor="start" x="7.5" y="-41.5" font-family="Helvetica,sans-Serif" font-size="10.00">/home/kavonszadkowski</text>
<text text-anchor="start" x="7.5" y="-28.5" font-family="Helvetica,sans-Serif" font-size="10.00">/limes&#45;dev/simulation</text>
<text text-anchor="middle" x="83" y="-15.5" font-family="Helvetica,sans-Serif" font-size="10.00">/mars/interfaces/src/JointData.cpp</text>
</a>
</g>
<!-- Node1&#45;&gt;Node2 -->
<g id="edge2" class="edge"><title>Node1&#45;&gt;Node2</title>
<path fill="none" stroke="midnightblue" d="M503.113,-120.376C422.203,-109.983 288.103,-90.312 175,-62 166.416,-59.8513 157.484,-57.2801 148.707,-54.5501"/>
<polygon fill="midnightblue" stroke="midnightblue" points="502.835,-123.869 513.196,-121.659 503.718,-116.925 502.835,-123.869"/>
</g>
<!-- Node3 -->
<g id="node5" class="node"><title>Node3</title>
<a xlink:href="../../d2/db6/_node_data_8cpp.html" target="_top" xlink:title="/home/kavonszadkowski\l/limes&#45;dev/simulation\l/mars/interfaces/src/NodeData.cpp">
<polygon fill="white" stroke="black" points="184,-7.5 184,-54.5 354,-54.5 354,-7.5 184,-7.5"/>
<text text-anchor="start" x="192" y="-41.5" font-family="Helvetica,sans-Serif" font-size="10.00">/home/kavonszadkowski</text>
<text text-anchor="start" x="192" y="-28.5" font-family="Helvetica,sans-Serif" font-size="10.00">/limes&#45;dev/simulation</text>
<text text-anchor="middle" x="269" y="-15.5" font-family="Helvetica,sans-Serif" font-size="10.00">/mars/interfaces/src/NodeData.cpp</text>
</a>
</g>
<!-- Node1&#45;&gt;Node3 -->
<g id="edge4" class="edge"><title>Node1&#45;&gt;Node3</title>
<path fill="none" stroke="midnightblue" d="M503.785,-106.556C462.508,-93.6596 409.799,-77.0763 363,-62 355.558,-59.6025 347.792,-57.078 340.052,-54.5473"/>
<polygon fill="midnightblue" stroke="midnightblue" points="502.894,-109.944 513.483,-109.584 504.98,-103.263 502.894,-109.944"/>
</g>
<!-- Node4 -->
<g id="node7" class="node"><title>Node4</title>
<a xlink:href="../../dc/d88/_control_center_8cpp.html" target="_top" xlink:title="/home/kavonszadkowski\l/limes&#45;dev/simulation\l/mars/interfaces/src/sim\l/ControlCenter.cpp">
<polygon fill="white" stroke="black" points="371.5,-1 371.5,-61 496.5,-61 496.5,-1 371.5,-1"/>
<text text-anchor="start" x="379.5" y="-48" font-family="Helvetica,sans-Serif" font-size="10.00">/home/kavonszadkowski</text>
<text text-anchor="start" x="379.5" y="-35" font-family="Helvetica,sans-Serif" font-size="10.00">/limes&#45;dev/simulation</text>
<text text-anchor="start" x="379.5" y="-22" font-family="Helvetica,sans-Serif" font-size="10.00">/mars/interfaces/src/sim</text>
<text text-anchor="middle" x="434" y="-9" font-family="Helvetica,sans-Serif" font-size="10.00">/ControlCenter.cpp</text>
</a>
</g>
<!-- Node1&#45;&gt;Node4 -->
<g id="edge6" class="edge"><title>Node1&#45;&gt;Node4</title>
<path fill="none" stroke="midnightblue" d="M523.972,-93.0934C508.831,-82.6441 492.448,-71.3374 477.863,-61.2718"/>
<polygon fill="midnightblue" stroke="midnightblue" points="522.018,-95.9976 532.237,-98.7971 525.994,-90.2364 522.018,-95.9976"/>
</g>
<!-- Node5 -->
<g id="node9" class="node"><title>Node5</title>
<a xlink:href="../../dd/d91/_mars_plugin_template_8h.html" target="_top" xlink:title="/home/kavonszadkowski\l/limes&#45;dev/simulation\l/mars/interfaces/src/sim\l/MarsPluginTemplate.h">
<polygon fill="white" stroke="black" points="513.5,-1 513.5,-61 638.5,-61 638.5,-1 513.5,-1"/>
<text text-anchor="start" x="521.5" y="-48" font-family="Helvetica,sans-Serif" font-size="10.00">/home/kavonszadkowski</text>
<text text-anchor="start" x="521.5" y="-35" font-family="Helvetica,sans-Serif" font-size="10.00">/limes&#45;dev/simulation</text>
<text text-anchor="start" x="521.5" y="-22" font-family="Helvetica,sans-Serif" font-size="10.00">/mars/interfaces/src/sim</text>
<text text-anchor="middle" x="576" y="-9" font-family="Helvetica,sans-Serif" font-size="10.00">/MarsPluginTemplate.h</text>
</a>
</g>
<!-- Node1&#45;&gt;Node5 -->
<g id="edge8" class="edge"><title>Node1&#45;&gt;Node5</title>
<path fill="none" stroke="midnightblue" d="M576,-88.6956C576,-79.5273 576,-69.9394 576,-61.2718"/>
<polygon fill="midnightblue" stroke="midnightblue" points="572.5,-88.7971 576,-98.7971 579.5,-88.7972 572.5,-88.7971"/>
</g>
<!-- Node6 -->
<g id="node11" class="node"><title>Node6</title>
<a xlink:href="../../d4/d96/_mars_plugin_template_g_u_i_8h.html" target="_top" xlink:title="/home/kavonszadkowski\l/limes&#45;dev/simulation\l/mars/interfaces/src/sim\l/MarsPluginTemplateGUI.h">
<polygon fill="white" stroke="black" points="655.5,-1 655.5,-61 790.5,-61 790.5,-1 655.5,-1"/>
<text text-anchor="start" x="663.5" y="-48" font-family="Helvetica,sans-Serif" font-size="10.00">/home/kavonszadkowski</text>
<text text-anchor="start" x="663.5" y="-35" font-family="Helvetica,sans-Serif" font-size="10.00">/limes&#45;dev/simulation</text>
<text text-anchor="start" x="663.5" y="-22" font-family="Helvetica,sans-Serif" font-size="10.00">/mars/interfaces/src/sim</text>
<text text-anchor="middle" x="723" y="-9" font-family="Helvetica,sans-Serif" font-size="10.00">/MarsPluginTemplateGUI.h</text>
</a>
</g>
<!-- Node1&#45;&gt;Node6 -->
<g id="edge10" class="edge"><title>Node1&#45;&gt;Node6</title>
<path fill="none" stroke="midnightblue" d="M629.901,-93.0661C645.651,-82.5659 662.697,-71.2022 677.845,-61.1032"/>
<polygon fill="midnightblue" stroke="midnightblue" points="627.683,-90.3379 621.304,-98.7971 631.566,-96.1623 627.683,-90.3379"/>
</g>
<!-- Node7 -->
<g id="node13" class="node"><title>Node7</title>
<a xlink:href="../../da/da8/_sensor_interface_8h.html" target="_top" xlink:title="/home/kavonszadkowski\l/limes&#45;dev/simulation\l/mars/interfaces/src/sim\l/SensorInterface.h">
<polygon fill="white" stroke="black" points="807.5,-1 807.5,-61 932.5,-61 932.5,-1 807.5,-1"/>
<text text-anchor="start" x="815.5" y="-48" font-family="Helvetica,sans-Serif" font-size="10.00">/home/kavonszadkowski</text>
<text text-anchor="start" x="815.5" y="-35" font-family="Helvetica,sans-Serif" font-size="10.00">/limes&#45;dev/simulation</text>
<text text-anchor="start" x="815.5" y="-22" font-family="Helvetica,sans-Serif" font-size="10.00">/mars/interfaces/src/sim</text>
<text text-anchor="middle" x="870" y="-9" font-family="Helvetica,sans-Serif" font-size="10.00">/SensorInterface.h</text>
</a>
</g>
<!-- Node1&#45;&gt;Node7 -->
<g id="edge12" class="edge"><title>Node1&#45;&gt;Node7</title>
<path fill="none" stroke="midnightblue" d="M648.405,-109.621C692.388,-97.2644 749.43,-80.194 799,-62 801.778,-60.9804 804.603,-59.9072 807.446,-58.797"/>
<polygon fill="midnightblue" stroke="midnightblue" points="647.349,-106.282 638.659,-112.342 649.232,-113.024 647.349,-106.282"/>
</g>
<!-- Node8 -->
<g id="node15" class="node"><title>Node8</title>
<a xlink:href="../../d0/ddd/_sensor_manager_interface_8h.html" target="_top" xlink:title="&quot;SensorManagerInterface&quot; declares the interfaces for all sensor operations that are used for the comm...">
<polygon fill="white" stroke="black" points="950,-1 950,-61 1084,-61 1084,-1 950,-1"/>
<text text-anchor="start" x="958" y="-48" font-family="Helvetica,sans-Serif" font-size="10.00">/home/kavonszadkowski</text>
<text text-anchor="start" x="958" y="-35" font-family="Helvetica,sans-Serif" font-size="10.00">/limes&#45;dev/simulation</text>
<text text-anchor="start" x="958" y="-22" font-family="Helvetica,sans-Serif" font-size="10.00">/mars/interfaces/src/sim</text>
<text text-anchor="middle" x="1017" y="-9" font-family="Helvetica,sans-Serif" font-size="10.00">/SensorManagerInterface.h</text>
</a>
</g>
<!-- Node1&#45;&gt;Node8 -->
<g id="edge14" class="edge"><title>Node1&#45;&gt;Node8</title>
<path fill="none" stroke="midnightblue" d="M648.784,-120.134C723.196,-110.029 841.631,-91.0499 941,-62 943.872,-61.1603 946.785,-60.2498 949.711,-59.2857"/>
<polygon fill="midnightblue" stroke="midnightblue" points="648.029,-116.704 638.582,-121.502 648.959,-123.642 648.029,-116.704"/>
</g>
</g>
</svg>
