<?xml version="1.0" encoding="UTF-8" standalone="no"?>
<!DOCTYPE svg PUBLIC "-//W3C//DTD SVG 1.1//EN"
 "http://www.w3.org/Graphics/SVG/1.1/DTD/svg11.dtd">
<!-- Generated by graphviz version 2.36.0 (20140111.2315)
 -->
<!-- Title: /media/kavonszadkowski/work/marsdocs/mars/interfaces/src/sim/ControlCenter.h Pages: 1 -->
<svg width="1242pt" height="128pt"
 viewBox="0.00 0.00 1242.00 128.00" xmlns="http://www.w3.org/2000/svg" xmlns:xlink="http://www.w3.org/1999/xlink">
<g id="graph0" class="graph" transform="scale(1 1) rotate(0) translate(4 124)">
<title>/media/kavonszadkowski/work/marsdocs/mars/interfaces/src/sim/ControlCenter.h</title>
<polygon fill="white" stroke="none" points="-4,4 -4,-124 1238,-124 1238,4 -4,4"/>
<!-- Node1 -->
<g id="node1" class="node"><title>Node1</title>
<polygon fill="#bfbfbf" stroke="black" points="524.5,-78.5 524.5,-119.5 681.5,-119.5 681.5,-78.5 524.5,-78.5"/>
<text text-anchor="start" x="532.5" y="-107.5" font-family="Helvetica,sans-Serif" font-size="10.00">/media/kavonszadkowski</text>
<text text-anchor="start" x="532.5" y="-96.5" font-family="Helvetica,sans-Serif" font-size="10.00">/work/marsdocs/mars/interfaces</text>
<text text-anchor="middle" x="603" y="-85.5" font-family="Helvetica,sans-Serif" font-size="10.00">/src/sim/ControlCenter.h</text>
</g>
<!-- Node2 -->
<g id="node2" class="node"><title>Node2</title>
<g id="a_node2"><a xlink:href="../../df/d7f/_joint_data_8cpp.html" target="_top" xlink:title="/media/kavonszadkowski\l/work/marsdocs/mars/interfaces\l/src/JointData.cpp">
<polygon fill="white" stroke="black" points="-0.5,-0.5 -0.5,-41.5 156.5,-41.5 156.5,-0.5 -0.5,-0.5"/>
<text text-anchor="start" x="7.5" y="-29.5" font-family="Helvetica,sans-Serif" font-size="10.00">/media/kavonszadkowski</text>
<text text-anchor="start" x="7.5" y="-18.5" font-family="Helvetica,sans-Serif" font-size="10.00">/work/marsdocs/mars/interfaces</text>
<text text-anchor="middle" x="78" y="-7.5" font-family="Helvetica,sans-Serif" font-size="10.00">/src/JointData.cpp</text>
</a>
</g>
</g>
<!-- Node1&#45;&gt;Node2 -->
<g id="edge1" class="edge"><title>Node1&#45;&gt;Node2</title>
<path fill="none" stroke="midnightblue" d="M514.286,-89.2575C425.527,-79.9008 285.266,-63.4578 165,-42 162.254,-41.51 159.463,-40.99 156.649,-40.4467"/>
<polygon fill="midnightblue" stroke="midnightblue" points="514.004,-92.7471 524.315,-90.3076 514.734,-85.7852 514.004,-92.7471"/>
</g>
<!-- Node3 -->
<g id="node3" class="node"><title>Node3</title>
<g id="a_node3"><a xlink:href="../../d2/db6/_node_data_8cpp.html" target="_top" xlink:title="/media/kavonszadkowski\l/work/marsdocs/mars/interfaces\l/src/NodeData.cpp">
<polygon fill="white" stroke="black" points="174.5,-0.5 174.5,-41.5 331.5,-41.5 331.5,-0.5 174.5,-0.5"/>
<text text-anchor="start" x="182.5" y="-29.5" font-family="Helvetica,sans-Serif" font-size="10.00">/media/kavonszadkowski</text>
<text text-anchor="start" x="182.5" y="-18.5" font-family="Helvetica,sans-Serif" font-size="10.00">/work/marsdocs/mars/interfaces</text>
<text text-anchor="middle" x="253" y="-7.5" font-family="Helvetica,sans-Serif" font-size="10.00">/src/NodeData.cpp</text>
</a>
</g>
</g>
<!-- Node1&#45;&gt;Node3 -->
<g id="edge2" class="edge"><title>Node1&#45;&gt;Node3</title>
<path fill="none" stroke="midnightblue" d="M514.374,-79.5016C463.338,-68.7558 398.007,-54.8423 340,-42 337.276,-41.397 334.505,-40.7799 331.708,-40.1537"/>
<polygon fill="midnightblue" stroke="midnightblue" points="513.878,-82.9738 524.385,-81.6073 515.319,-76.1237 513.878,-82.9738"/>
</g>
<!-- Node4 -->
<g id="node4" class="node"><title>Node4</title>
<g id="a_node4"><a xlink:href="../../dc/d88/_control_center_8cpp.html" target="_top" xlink:title="/media/kavonszadkowski\l/work/marsdocs/mars/interfaces\l/src/sim/ControlCenter.cpp">
<polygon fill="white" stroke="black" points="349.5,-0.5 349.5,-41.5 506.5,-41.5 506.5,-0.5 349.5,-0.5"/>
<text text-anchor="start" x="357.5" y="-29.5" font-family="Helvetica,sans-Serif" font-size="10.00">/media/kavonszadkowski</text>
<text text-anchor="start" x="357.5" y="-18.5" font-family="Helvetica,sans-Serif" font-size="10.00">/work/marsdocs/mars/interfaces</text>
<text text-anchor="middle" x="428" y="-7.5" font-family="Helvetica,sans-Serif" font-size="10.00">/src/sim/ControlCenter.cpp</text>
</a>
</g>
</g>
<!-- Node1&#45;&gt;Node4 -->
<g id="edge3" class="edge"><title>Node1&#45;&gt;Node4</title>
<path fill="none" stroke="midnightblue" d="M548.495,-74.3291C524.212,-63.7835 495.957,-51.5129 472.914,-41.5056"/>
<polygon fill="midnightblue" stroke="midnightblue" points="547.367,-77.655 557.933,-78.4281 550.155,-71.2343 547.367,-77.655"/>
</g>
<!-- Node5 -->
<g id="node5" class="node"><title>Node5</title>
<g id="a_node5"><a xlink:href="../../dd/d91/_mars_plugin_template_8h.html" target="_top" xlink:title="/media/kavonszadkowski\l/work/marsdocs/mars/interfaces\l/src/sim/MarsPluginTemplate.h">
<polygon fill="white" stroke="black" points="524.5,-0.5 524.5,-41.5 681.5,-41.5 681.5,-0.5 524.5,-0.5"/>
<text text-anchor="start" x="532.5" y="-29.5" font-family="Helvetica,sans-Serif" font-size="10.00">/media/kavonszadkowski</text>
<text text-anchor="start" x="532.5" y="-18.5" font-family="Helvetica,sans-Serif" font-size="10.00">/work/marsdocs/mars/interfaces</text>
<text text-anchor="middle" x="603" y="-7.5" font-family="Helvetica,sans-Serif" font-size="10.00">/src/sim/MarsPluginTemplate.h</text>
</a>
</g>
</g>
<!-- Node1&#45;&gt;Node5 -->
<g id="edge4" class="edge"><title>Node1&#45;&gt;Node5</title>
<path fill="none" stroke="midnightblue" d="M603,-68.2965C603,-59.3009 603,-49.6532 603,-41.5056"/>
<polygon fill="midnightblue" stroke="midnightblue" points="599.5,-68.4281 603,-78.4281 606.5,-68.4281 599.5,-68.4281"/>
</g>
<!-- Node6 -->
<g id="node6" class="node"><title>Node6</title>
<g id="a_node6"><a xlink:href="../../d4/d96/_mars_plugin_template_g_u_i_8h.html" target="_top" xlink:title="/media/kavonszadkowski\l/work/marsdocs/mars/interfaces\l/src/sim/MarsPluginTemplateGUI.h">
<polygon fill="white" stroke="black" points="700,-0.5 700,-41.5 870,-41.5 870,-0.5 700,-0.5"/>
<text text-anchor="start" x="708" y="-29.5" font-family="Helvetica,sans-Serif" font-size="10.00">/media/kavonszadkowski</text>
<text text-anchor="start" x="708" y="-18.5" font-family="Helvetica,sans-Serif" font-size="10.00">/work/marsdocs/mars/interfaces</text>
<text text-anchor="middle" x="785" y="-7.5" font-family="Helvetica,sans-Serif" font-size="10.00">/src/sim/MarsPluginTemplateGUI.h</text>
</a>
</g>
</g>
<!-- Node1&#45;&gt;Node6 -->
<g id="edge5" class="edge"><title>Node1&#45;&gt;Node6</title>
<path fill="none" stroke="midnightblue" d="M659.351,-74.4689C684.679,-63.8921 714.218,-51.5572 738.289,-41.5056"/>
<polygon fill="midnightblue" stroke="midnightblue" points="657.749,-71.345 649.87,-78.4281 660.446,-77.8044 657.749,-71.345"/>
</g>
<!-- Node7 -->
<g id="node7" class="node"><title>Node7</title>
<g id="a_node7"><a xlink:href="../../da/da8/_sensor_interface_8h.html" target="_top" xlink:title="/media/kavonszadkowski\l/work/marsdocs/mars/interfaces\l/src/sim/SensorInterface.h">
<polygon fill="white" stroke="black" points="888.5,-0.5 888.5,-41.5 1045.5,-41.5 1045.5,-0.5 888.5,-0.5"/>
<text text-anchor="start" x="896.5" y="-29.5" font-family="Helvetica,sans-Serif" font-size="10.00">/media/kavonszadkowski</text>
<text text-anchor="start" x="896.5" y="-18.5" font-family="Helvetica,sans-Serif" font-size="10.00">/work/marsdocs/mars/interfaces</text>
<text text-anchor="middle" x="967" y="-7.5" font-family="Helvetica,sans-Serif" font-size="10.00">/src/sim/SensorInterface.h</text>
</a>
</g>
</g>
<!-- Node1&#45;&gt;Node7 -->
<g id="edge6" class="edge"><title>Node1&#45;&gt;Node7</title>
<path fill="none" stroke="midnightblue" d="M691.541,-80.5803C745.733,-69.783 816.451,-55.4515 879,-42 882.063,-41.3412 885.185,-40.6633 888.338,-39.9732"/>
<polygon fill="midnightblue" stroke="midnightblue" points="690.745,-77.1701 681.62,-82.5543 692.111,-84.0355 690.745,-77.1701"/>
</g>
<!-- Node8 -->
<g id="node8" class="node"><title>Node8</title>
<g id="a_node8"><a xlink:href="../../d0/ddd/_sensor_manager_interface_8h.html" target="_top" xlink:title="&quot;SensorManagerInterface&quot; declares the interfaces for all sensor operations that are used for the comm...">
<polygon fill="white" stroke="black" points="1064,-0.5 1064,-41.5 1234,-41.5 1234,-0.5 1064,-0.5"/>
<text text-anchor="start" x="1072" y="-29.5" font-family="Helvetica,sans-Serif" font-size="10.00">/media/kavonszadkowski</text>
<text text-anchor="start" x="1072" y="-18.5" font-family="Helvetica,sans-Serif" font-size="10.00">/work/marsdocs/mars/interfaces</text>
<text text-anchor="middle" x="1149" y="-7.5" font-family="Helvetica,sans-Serif" font-size="10.00">/src/sim/SensorManagerInterface.h</text>
</a>
</g>
</g>
<!-- Node1&#45;&gt;Node8 -->
<g id="edge7" class="edge"><title>Node1&#45;&gt;Node8</title>
<path fill="none" stroke="midnightblue" d="M691.523,-89.2288C782.69,-79.6758 928.734,-62.925 1054,-42 1057.24,-41.4585 1060.54,-40.8834 1063.87,-40.2831"/>
<polygon fill="midnightblue" stroke="midnightblue" points="691.088,-85.755 681.505,-90.2726 691.814,-92.7173 691.088,-85.755"/>
</g>
</g>
</svg>
