<?xml version="1.0" encoding="UTF-8" standalone="no"?>
<!DOCTYPE svg PUBLIC "-//W3C//DTD SVG 1.1//EN"
 "http://www.w3.org/Graphics/SVG/1.1/DTD/svg11.dtd">
<!-- Generated by graphviz version 2.36.0 (20140111.2315)
 -->
<!-- Title: /media/kavonszadkowski/work/marsdocs/mars/plugins/Plot3D/src/MotorPlot.cpp Pages: 1 -->
<svg width="1695pt" height="186pt"
 viewBox="0.00 0.00 1695.00 186.00" xmlns="http://www.w3.org/2000/svg" xmlns:xlink="http://www.w3.org/1999/xlink">
<g id="graph0" class="graph" transform="scale(1 1) rotate(0) translate(4 182)">
<title>/media/kavonszadkowski/work/marsdocs/mars/plugins/Plot3D/src/MotorPlot.cpp</title>
<polygon fill="white" stroke="none" points="-4,4 -4,-182 1691,-182 1691,4 -4,4"/>
<!-- Node1 -->
<g id="node1" class="node"><title>Node1</title>
<polygon fill="#bfbfbf" stroke="black" points="1101.5,-136.5 1101.5,-177.5 1246.5,-177.5 1246.5,-136.5 1101.5,-136.5"/>
<text text-anchor="start" x="1109.5" y="-165.5" font-family="Helvetica,sans-Serif" font-size="10.00">/media/kavonszadkowski</text>
<text text-anchor="start" x="1109.5" y="-154.5" font-family="Helvetica,sans-Serif" font-size="10.00">/work/marsdocs/mars/plugins</text>
<text text-anchor="middle" x="1174" y="-143.5" font-family="Helvetica,sans-Serif" font-size="10.00">/Plot3D/src/MotorPlot.cpp</text>
</g>
<!-- Node2 -->
<g id="node2" class="node"><title>Node2</title>
<g id="a_node2"><a xlink:href="../../dd/d70/_motor_plot_8h.html" target="_top" xlink:title="A. ">
<polygon fill="white" stroke="black" points="680.5,-74.5 680.5,-93.5 747.5,-93.5 747.5,-74.5 680.5,-74.5"/>
<text text-anchor="middle" x="714" y="-81.5" font-family="Helvetica,sans-Serif" font-size="10.00">MotorPlot.h</text>
</a>
</g>
</g>
<!-- Node1&#45;&gt;Node2 -->
<g id="edge1" class="edge"><title>Node1&#45;&gt;Node2</title>
<path fill="none" stroke="midnightblue" d="M1101.24,-150.713C1017.37,-143.59 875.823,-128.395 757,-100 753.323,-99.1214 749.52,-98.0477 745.766,-96.8825"/>
<polygon fill="midnightblue" stroke="midnightblue" points="746.656,-93.4903 736.063,-93.6555 744.447,-100.133 746.656,-93.4903"/>
</g>
<!-- Node13 -->
<g id="node13" class="node"><title>Node13</title>
<polygon fill="white" stroke="#bfbfbf" points="765.5,-69 765.5,-99 910.5,-99 910.5,-69 765.5,-69"/>
<text text-anchor="start" x="773.5" y="-87" font-family="Helvetica,sans-Serif" font-size="10.00">mars/data_broker/DataBroker</text>
<text text-anchor="middle" x="838" y="-76" font-family="Helvetica,sans-Serif" font-size="10.00">Interface.h</text>
</g>
<!-- Node1&#45;&gt;Node13 -->
<g id="edge12" class="edge"><title>Node1&#45;&gt;Node13</title>
<path fill="none" stroke="midnightblue" d="M1101.09,-140.594C1045.92,-128.936 970.355,-112.968 914.359,-101.135"/>
<polygon fill="midnightblue" stroke="midnightblue" points="915,-97.6936 904.493,-99.0505 913.553,-104.542 915,-97.6936"/>
</g>
<!-- Node14 -->
<g id="node14" class="node"><title>Node14</title>
<polygon fill="white" stroke="#bfbfbf" points="928.5,-74.5 928.5,-93.5 1091.5,-93.5 1091.5,-74.5 928.5,-74.5"/>
<text text-anchor="middle" x="1010" y="-81.5" font-family="Helvetica,sans-Serif" font-size="10.00">mars/data_broker/DataPackage.h</text>
</g>
<!-- Node1&#45;&gt;Node14 -->
<g id="edge13" class="edge"><title>Node1&#45;&gt;Node14</title>
<path fill="none" stroke="midnightblue" d="M1128.75,-136.411C1100.13,-124.018 1063.97,-108.364 1039.11,-97.604"/>
<polygon fill="midnightblue" stroke="midnightblue" points="1040.42,-94.3579 1029.86,-93.5968 1037.64,-100.782 1040.42,-94.3579"/>
</g>
<!-- Node15 -->
<g id="node15" class="node"><title>Node15</title>
<polygon fill="white" stroke="#bfbfbf" points="1110,-69 1110,-99 1238,-99 1238,-69 1110,-69"/>
<text text-anchor="start" x="1118" y="-87" font-family="Helvetica,sans-Serif" font-size="10.00">mars/interfaces/sim</text>
<text text-anchor="middle" x="1174" y="-76" font-family="Helvetica,sans-Serif" font-size="10.00">/MotorManagerInterface.h</text>
</g>
<!-- Node1&#45;&gt;Node15 -->
<g id="edge14" class="edge"><title>Node1&#45;&gt;Node15</title>
<path fill="none" stroke="midnightblue" d="M1174,-136.223C1174,-127.821 1174,-117.948 1174,-109.123"/>
<polygon fill="midnightblue" stroke="midnightblue" points="1177.5,-109.048 1174,-99.0485 1170.5,-109.049 1177.5,-109.048"/>
</g>
<!-- Node16 -->
<g id="node16" class="node"><title>Node16</title>
<polygon fill="white" stroke="#bfbfbf" points="1256.5,-69 1256.5,-99 1383.5,-99 1383.5,-69 1256.5,-69"/>
<text text-anchor="start" x="1264.5" y="-87" font-family="Helvetica,sans-Serif" font-size="10.00">mars/interfaces/sim</text>
<text text-anchor="middle" x="1320" y="-76" font-family="Helvetica,sans-Serif" font-size="10.00">/NodeManagerInterface.h</text>
</g>
<!-- Node1&#45;&gt;Node16 -->
<g id="edge15" class="edge"><title>Node1&#45;&gt;Node16</title>
<path fill="none" stroke="midnightblue" d="M1214.28,-136.411C1235.36,-126.16 1261.03,-113.677 1281.8,-103.578"/>
<polygon fill="midnightblue" stroke="midnightblue" points="1283.5,-106.644 1290.96,-99.1228 1280.43,-100.349 1283.5,-106.644"/>
</g>
<!-- Node17 -->
<g id="node17" class="node"><title>Node17</title>
<polygon fill="white" stroke="#bfbfbf" points="1401.5,-69 1401.5,-99 1526.5,-99 1526.5,-69 1401.5,-69"/>
<text text-anchor="start" x="1409.5" y="-87" font-family="Helvetica,sans-Serif" font-size="10.00">mars/interfaces/sim</text>
<text text-anchor="middle" x="1464" y="-76" font-family="Helvetica,sans-Serif" font-size="10.00">/JointManagerInterface.h</text>
</g>
<!-- Node1&#45;&gt;Node17 -->
<g id="edge16" class="edge"><title>Node1&#45;&gt;Node17</title>
<path fill="none" stroke="midnightblue" d="M1246.8,-138.175C1292.82,-126.91 1351.86,-112.455 1396.76,-101.461"/>
<polygon fill="midnightblue" stroke="midnightblue" points="1397.82,-104.807 1406.7,-99.0288 1396.15,-98.0073 1397.82,-104.807"/>
</g>
<!-- Node18 -->
<g id="node18" class="node"><title>Node18</title>
<polygon fill="white" stroke="#bfbfbf" points="1544.5,-69 1544.5,-99 1687.5,-99 1687.5,-69 1544.5,-69"/>
<text text-anchor="start" x="1552.5" y="-87" font-family="Helvetica,sans-Serif" font-size="10.00">mars/interfaces/graphics</text>
<text text-anchor="middle" x="1616" y="-76" font-family="Helvetica,sans-Serif" font-size="10.00">/GraphicsManagerInterface.h</text>
</g>
<!-- Node1&#45;&gt;Node18 -->
<g id="edge17" class="edge"><title>Node1&#45;&gt;Node18</title>
<path fill="none" stroke="midnightblue" d="M1246.7,-145.359C1317.47,-134.857 1428.31,-118.023 1534.53,-100.05"/>
<polygon fill="midnightblue" stroke="midnightblue" points="1535.19,-103.489 1544.47,-98.3641 1534.02,-96.5873 1535.19,-103.489"/>
</g>
<!-- Node3 -->
<g id="node3" class="node"><title>Node3</title>
<polygon fill="white" stroke="#bfbfbf" points="0,-6.5 0,-25.5 146,-25.5 146,-6.5 0,-6.5"/>
<text text-anchor="middle" x="73" y="-13.5" font-family="Helvetica,sans-Serif" font-size="10.00">mars/interfaces/MARSDefs.h</text>
</g>
<!-- Node2&#45;&gt;Node3 -->
<g id="edge2" class="edge"><title>Node2&#45;&gt;Node3</title>
<path fill="none" stroke="midnightblue" d="M680.487,-80.9979C593.491,-75.5722 353.415,-59.1429 155,-32 145.422,-30.6898 135.26,-29.042 125.47,-27.3222"/>
<polygon fill="midnightblue" stroke="midnightblue" points="125.905,-23.8443 115.443,-25.5149 124.664,-30.7333 125.905,-23.8443"/>
</g>
<!-- Node4 -->
<g id="node4" class="node"><title>Node4</title>
<polygon fill="white" stroke="#bfbfbf" points="164,-1 164,-31 298,-31 298,-1 164,-1"/>
<text text-anchor="start" x="172" y="-19" font-family="Helvetica,sans-Serif" font-size="10.00">mars/data_broker/Receiver</text>
<text text-anchor="middle" x="231" y="-8" font-family="Helvetica,sans-Serif" font-size="10.00">Interface.h</text>
</g>
<!-- Node2&#45;&gt;Node4 -->
<g id="edge3" class="edge"><title>Node2&#45;&gt;Node4</title>
<path fill="none" stroke="midnightblue" d="M680.384,-79.5955C612.159,-72.5123 452.366,-55.0407 308.015,-32.0971"/>
<polygon fill="midnightblue" stroke="midnightblue" points="308.519,-28.6331 298.091,-30.5069 307.411,-35.545 308.519,-28.6331"/>
</g>
<!-- Node5 -->
<g id="node5" class="node"><title>Node5</title>
<polygon fill="white" stroke="#bfbfbf" points="316.5,-1 316.5,-31 453.5,-31 453.5,-1 316.5,-1"/>
<text text-anchor="start" x="324.5" y="-19" font-family="Helvetica,sans-Serif" font-size="10.00">mars/interfaces/graphics</text>
<text text-anchor="middle" x="385" y="-8" font-family="Helvetica,sans-Serif" font-size="10.00">/GraphicsUpdateInterface.h</text>
</g>
<!-- Node2&#45;&gt;Node5 -->
<g id="edge4" class="edge"><title>Node2&#45;&gt;Node5</title>
<path fill="none" stroke="midnightblue" d="M680.337,-76.247C629.763,-66.1013 532.756,-46.6409 463.726,-32.7931"/>
<polygon fill="midnightblue" stroke="midnightblue" points="464.246,-29.3278 453.753,-30.7924 462.869,-36.191 464.246,-29.3278"/>
</g>
<!-- Node6 -->
<g id="node6" class="node"><title>Node6</title>
<polygon fill="white" stroke="#bfbfbf" points="471.5,-1 471.5,-31 574.5,-31 574.5,-1 471.5,-1"/>
<text text-anchor="start" x="479.5" y="-19" font-family="Helvetica,sans-Serif" font-size="10.00">mars/interfaces/sim</text>
<text text-anchor="middle" x="523" y="-8" font-family="Helvetica,sans-Serif" font-size="10.00">/ControlCenter.h</text>
</g>
<!-- Node2&#45;&gt;Node6 -->
<g id="edge5" class="edge"><title>Node2&#45;&gt;Node6</title>
<path fill="none" stroke="midnightblue" d="M689.03,-74.3717C659.791,-64.2679 610.621,-47.2774 573.359,-34.4016"/>
<polygon fill="midnightblue" stroke="midnightblue" points="574.273,-31.0142 563.678,-31.0562 571.986,-37.6304 574.273,-31.0142"/>
</g>
<!-- Node7 -->
<g id="node7" class="node"><title>Node7</title>
<polygon fill="white" stroke="#bfbfbf" points="592.5,-6.5 592.5,-25.5 691.5,-25.5 691.5,-6.5 592.5,-6.5"/>
<text text-anchor="middle" x="642" y="-13.5" font-family="Helvetica,sans-Serif" font-size="10.00">mars/utils/Vector.h</text>
</g>
<!-- Node2&#45;&gt;Node7 -->
<g id="edge6" class="edge"><title>Node2&#45;&gt;Node7</title>
<path fill="none" stroke="midnightblue" d="M704.587,-74.3717C693.116,-63.8564 673.508,-45.8819 659.29,-32.8496"/>
<polygon fill="midnightblue" stroke="midnightblue" points="661.381,-30.0183 651.645,-25.8411 656.651,-35.1784 661.381,-30.0183"/>
</g>
<!-- Node8 -->
<g id="node8" class="node"><title>Node8</title>
<polygon fill="white" stroke="#bfbfbf" points="709.5,-1 709.5,-31 864.5,-31 864.5,-1 709.5,-1"/>
<text text-anchor="start" x="717.5" y="-19" font-family="Helvetica,sans-Serif" font-size="10.00">mars/data_broker/DataPackage</text>
<text text-anchor="middle" x="787" y="-8" font-family="Helvetica,sans-Serif" font-size="10.00">Mapping.h</text>
</g>
<!-- Node2&#45;&gt;Node8 -->
<g id="edge7" class="edge"><title>Node2&#45;&gt;Node8</title>
<path fill="none" stroke="midnightblue" d="M723.543,-74.3717C733.688,-65.2 750.109,-50.3536 763.705,-38.0615"/>
<polygon fill="midnightblue" stroke="midnightblue" points="766.244,-40.4842 771.314,-31.1815 761.549,-35.2917 766.244,-40.4842"/>
</g>
<!-- Node9 -->
<g id="node9" class="node"><title>Node9</title>
<polygon fill="white" stroke="#bfbfbf" points="882.5,-6.5 882.5,-25.5 923.5,-25.5 923.5,-6.5 882.5,-6.5"/>
<text text-anchor="middle" x="903" y="-13.5" font-family="Helvetica,sans-Serif" font-size="10.00">string</text>
</g>
<!-- Node2&#45;&gt;Node9 -->
<g id="edge8" class="edge"><title>Node2&#45;&gt;Node9</title>
<path fill="none" stroke="midnightblue" d="M738.057,-74.4429C744.218,-72.2969 750.842,-70.0288 757,-68 808.27,-51.1075 822.915,-52.1372 873,-32 874.597,-31.3578 876.226,-30.6639 877.857,-29.9388"/>
<polygon fill="midnightblue" stroke="midnightblue" points="879.494,-33.0359 887.029,-25.5875 876.494,-26.7115 879.494,-33.0359"/>
</g>
<!-- Node10 -->
<g id="node10" class="node"><title>Node10</title>
<polygon fill="white" stroke="#bfbfbf" points="942,-6.5 942,-25.5 1024,-25.5 1024,-6.5 942,-6.5"/>
<text text-anchor="middle" x="983" y="-13.5" font-family="Helvetica,sans-Serif" font-size="10.00">osg_plot/Plot.h</text>
</g>
<!-- Node2&#45;&gt;Node10 -->
<g id="edge9" class="edge"><title>Node2&#45;&gt;Node10</title>
<path fill="none" stroke="midnightblue" d="M736.585,-74.4901C743.116,-72.2017 750.293,-69.8509 757,-68 833.545,-46.8763 854.955,-51.2195 932,-32 936.452,-30.8894 941.099,-29.6443 945.696,-28.359"/>
<polygon fill="midnightblue" stroke="midnightblue" points="946.943,-31.6425 955.588,-25.5174 945.01,-24.9146 946.943,-31.6425"/>
</g>
<!-- Node11 -->
<g id="node11" class="node"><title>Node11</title>
<polygon fill="white" stroke="#bfbfbf" points="1042.5,-6.5 1042.5,-25.5 1133.5,-25.5 1133.5,-6.5 1042.5,-6.5"/>
<text text-anchor="middle" x="1088" y="-13.5" font-family="Helvetica,sans-Serif" font-size="10.00">osg_plot/Curve.h</text>
</g>
<!-- Node2&#45;&gt;Node11 -->
<g id="edge10" class="edge"><title>Node2&#45;&gt;Node11</title>
<path fill="none" stroke="midnightblue" d="M735.617,-74.4843C742.378,-72.0862 749.922,-69.6772 757,-68 877.372,-39.4763 911.711,-56.3313 1033,-32 1038.46,-30.905 1044.17,-29.567 1049.77,-28.1457"/>
<polygon fill="midnightblue" stroke="midnightblue" points="1050.86,-31.4772 1059.63,-25.5317 1049.07,-24.7108 1050.86,-31.4772"/>
</g>
<!-- Node12 -->
<g id="node12" class="node"><title>Node12</title>
<polygon fill="white" stroke="#bfbfbf" points="1152,-6.5 1152,-25.5 1252,-25.5 1252,-6.5 1152,-6.5"/>
<text text-anchor="middle" x="1202" y="-13.5" font-family="Helvetica,sans-Serif" font-size="10.00">osg/AutoTransform</text>
</g>
<!-- Node2&#45;&gt;Node12 -->
<g id="edge11" class="edge"><title>Node2&#45;&gt;Node12</title>
<path fill="none" stroke="midnightblue" d="M735.141,-74.482C742.012,-72.024 749.738,-69.5815 757,-68 924.921,-31.4292 972.594,-60.924 1142,-32 1148.39,-30.909 1155.1,-29.4982 1161.63,-27.9793"/>
<polygon fill="midnightblue" stroke="midnightblue" points="1162.78,-31.3022 1171.67,-25.5337 1161.12,-24.5013 1162.78,-31.3022"/>
</g>
</g>
</svg>
