<?xml version="1.0" encoding="UTF-8" standalone="no"?>
<!DOCTYPE svg PUBLIC "-//W3C//DTD SVG 1.1//EN"
 "http://www.w3.org/Graphics/SVG/1.1/DTD/svg11.dtd">
<!-- Generated by graphviz version 2.26.3 (20100126.1600)
 -->
<!-- Title: /home/kavonszadkowski/limes&#45;dev/simulation/mars/interfaces/src/ControllerData.h Pages: 1 -->
<svg width="320pt" height="168pt"
 viewBox="0.00 0.00 320.00 168.00" xmlns="http://www.w3.org/2000/svg" xmlns:xlink="http://www.w3.org/1999/xlink">
<g id="graph1" class="graph" transform="scale(1 1) rotate(0) translate(4 164)">
<title>/home/kavonszadkowski/limes&#45;dev/simulation/mars/interfaces/src/ControllerData.h</title>
<polygon fill="white" stroke="white" points="-4,5 -4,-164 317,-164 317,5 -4,5"/>
<!-- Node1 -->
<g id="node1" class="node"><title>Node1</title>
<polygon fill="#bfbfbf" stroke="black" points="81.5,-99 81.5,-159 230.5,-159 230.5,-99 81.5,-99"/>
<text text-anchor="start" x="89.5" y="-146" font-family="Helvetica,sans-Serif" font-size="10.00">/home/kavonszadkowski</text>
<text text-anchor="start" x="89.5" y="-133" font-family="Helvetica,sans-Serif" font-size="10.00">/limes&#45;dev/simulation</text>
<text text-anchor="start" x="89.5" y="-120" font-family="Helvetica,sans-Serif" font-size="10.00">/mars/interfaces/src/Controller</text>
<text text-anchor="middle" x="156" y="-107" font-family="Helvetica,sans-Serif" font-size="10.00">Data.h</text>
</g>
<!-- Node2 -->
<g id="node3" class="node"><title>Node2</title>
<a xlink:href="../../d2/dce/_controller_data_8cpp.html" target="_top" xlink:title="/home/kavonszadkowski\l/limes&#45;dev/simulation\l/mars/interfaces/src/Controller\lData.cpp">
<polygon fill="white" stroke="black" points="-0.5,-1 -0.5,-61 148.5,-61 148.5,-1 -0.5,-1"/>
<text text-anchor="start" x="7.5" y="-48" font-family="Helvetica,sans-Serif" font-size="10.00">/home/kavonszadkowski</text>
<text text-anchor="start" x="7.5" y="-35" font-family="Helvetica,sans-Serif" font-size="10.00">/limes&#45;dev/simulation</text>
<text text-anchor="start" x="7.5" y="-22" font-family="Helvetica,sans-Serif" font-size="10.00">/mars/interfaces/src/Controller</text>
<text text-anchor="middle" x="74" y="-9" font-family="Helvetica,sans-Serif" font-size="10.00">Data.cpp</text>
</a>
</g>
<!-- Node1&#45;&gt;Node2 -->
<g id="edge2" class="edge"><title>Node1&#45;&gt;Node2</title>
<path fill="none" stroke="midnightblue" d="M124.247,-91.0514C115.99,-81.1836 107.206,-70.685 99.3295,-61.2718"/>
<polygon fill="midnightblue" stroke="midnightblue" points="121.627,-93.3738 130.728,-98.7971 126.995,-88.8817 121.627,-93.3738"/>
</g>
<!-- Node3 -->
<g id="node5" class="node"><title>Node3</title>
<a xlink:href="../../de/d51/_controller_manager_interface_8h.html" target="_top" xlink:title="&quot;ControllerManagerInterface&quot; declares the interfaces for all controller operations that are used for ...">
<polygon fill="white" stroke="black" points="166,-1 166,-61 312,-61 312,-1 166,-1"/>
<text text-anchor="start" x="174" y="-48" font-family="Helvetica,sans-Serif" font-size="10.00">/home/kavonszadkowski</text>
<text text-anchor="start" x="174" y="-35" font-family="Helvetica,sans-Serif" font-size="10.00">/limes&#45;dev/simulation</text>
<text text-anchor="start" x="174" y="-22" font-family="Helvetica,sans-Serif" font-size="10.00">/mars/interfaces/src/sim</text>
<text text-anchor="middle" x="239" y="-9" font-family="Helvetica,sans-Serif" font-size="10.00">/ControllerManagerInterface.h</text>
</a>
</g>
<!-- Node1&#45;&gt;Node3 -->
<g id="edge4" class="edge"><title>Node1&#45;&gt;Node3</title>
<path fill="none" stroke="midnightblue" d="M188.14,-91.0514C196.498,-81.1836 205.389,-70.685 213.362,-61.2718"/>
<polygon fill="midnightblue" stroke="midnightblue" points="185.372,-88.9042 181.58,-98.7971 190.714,-93.4282 185.372,-88.9042"/>
</g>
</g>
</svg>
