<?xml version="1.0" encoding="UTF-8" standalone="no"?>
<!DOCTYPE svg PUBLIC "-//W3C//DTD SVG 1.1//EN"
 "http://www.w3.org/Graphics/SVG/1.1/DTD/svg11.dtd">
<!-- Generated by graphviz version 2.26.3 (20100126.1600)
 -->
<!-- Title: /home/kavonszadkowski/limes&#45;dev/simulation/mars/plugins/Uebung1Plugin/Uebung1Plugin.cpp Pages: 1 -->
<svg width="1116pt" height="286pt"
 viewBox="0.00 0.00 1116.00 286.00" xmlns="http://www.w3.org/2000/svg" xmlns:xlink="http://www.w3.org/1999/xlink">
<g id="graph1" class="graph" transform="scale(1 1) rotate(0) translate(4 282)">
<title>/home/kavonszadkowski/limes&#45;dev/simulation/mars/plugins/Uebung1Plugin/Uebung1Plugin.cpp</title>
<polygon fill="white" stroke="white" points="-4,5 -4,-282 1113,-282 1113,5 -4,5"/>
<!-- Node1 -->
<g id="node1" class="node"><title>Node1</title>
<polygon fill="#bfbfbf" stroke="black" points="628,-217 628,-277 772,-277 772,-217 628,-217"/>
<text text-anchor="start" x="636" y="-264" font-family="Helvetica,sans-Serif" font-size="10.00">/home/kavonszadkowski</text>
<text text-anchor="start" x="636" y="-251" font-family="Helvetica,sans-Serif" font-size="10.00">/limes&#45;dev/simulation</text>
<text text-anchor="start" x="636" y="-238" font-family="Helvetica,sans-Serif" font-size="10.00">/mars/plugins/Uebung1Plugin</text>
<text text-anchor="middle" x="700" y="-225" font-family="Helvetica,sans-Serif" font-size="10.00">/Uebung1Plugin.cpp</text>
</g>
<!-- Node2 -->
<g id="node3" class="node"><title>Node2</title>
<a xlink:href="../../db/de4/_uebung1_plugin_8h.html" target="_top" xlink:title="Uebung1Plugin.h">
<polygon fill="white" stroke="black" points="155.5,-151.5 155.5,-172.5 246.5,-172.5 246.5,-151.5 155.5,-151.5"/>
<text text-anchor="middle" x="201" y="-159.5" font-family="Helvetica,sans-Serif" font-size="10.00">Uebung1Plugin.h</text>
</a>
</g>
<!-- Node1&#45;&gt;Node2 -->
<g id="edge2" class="edge"><title>Node1&#45;&gt;Node2</title>
<path fill="none" stroke="midnightblue" d="M627.978,-240.018C539.365,-230.546 384.718,-211.139 255,-180 249.906,-178.777 244.605,-177.289 239.403,-175.697"/>
<polygon fill="midnightblue" stroke="midnightblue" points="240.19,-172.274 229.599,-172.553 238.052,-178.94 240.19,-172.274"/>
</g>
<!-- Node8 -->
<g id="node15" class="node"><title>Node8</title>
<polygon fill="white" stroke="#bfbfbf" points="263.5,-145 263.5,-179 390.5,-179 390.5,-145 263.5,-145"/>
<text text-anchor="start" x="271.5" y="-166" font-family="Helvetica,sans-Serif" font-size="10.00">mars/interfaces/sim</text>
<text text-anchor="middle" x="327" y="-153" font-family="Helvetica,sans-Serif" font-size="10.00">/NodeManagerInterface.h</text>
</g>
<!-- Node1&#45;&gt;Node8 -->
<g id="edge14" class="edge"><title>Node1&#45;&gt;Node8</title>
<path fill="none" stroke="midnightblue" d="M627.81,-231.482C569.086,-218.732 483.816,-199.931 400.471,-180.323"/>
<polygon fill="midnightblue" stroke="midnightblue" points="401.118,-176.88 390.581,-177.99 399.511,-183.693 401.118,-176.88"/>
</g>
<!-- Node9 -->
<g id="node17" class="node"><title>Node9</title>
<polygon fill="white" stroke="#bfbfbf" points="408,-145 408,-179 542,-179 542,-145 408,-145"/>
<text text-anchor="start" x="416" y="-166" font-family="Helvetica,sans-Serif" font-size="10.00">mars/interfaces/sim</text>
<text text-anchor="middle" x="475" y="-153" font-family="Helvetica,sans-Serif" font-size="10.00">/SensorManagerInterface.h</text>
</g>
<!-- Node1&#45;&gt;Node9 -->
<g id="edge16" class="edge"><title>Node1&#45;&gt;Node9</title>
<path fill="none" stroke="midnightblue" d="M627.88,-219.755C596.122,-207.757 559.414,-193.89 529.929,-182.751"/>
<polygon fill="midnightblue" stroke="midnightblue" points="530.816,-179.345 520.224,-179.085 528.342,-185.893 530.816,-179.345"/>
</g>
<!-- Node10 -->
<g id="node19" class="node"><title>Node10</title>
<polygon fill="white" stroke="#bfbfbf" points="560,-145 560,-179 688,-179 688,-145 560,-145"/>
<text text-anchor="start" x="568" y="-166" font-family="Helvetica,sans-Serif" font-size="10.00">mars/interfaces/sim</text>
<text text-anchor="middle" x="624" y="-153" font-family="Helvetica,sans-Serif" font-size="10.00">/MotorManagerInterface.h</text>
</g>
<!-- Node1&#45;&gt;Node10 -->
<g id="edge18" class="edge"><title>Node1&#45;&gt;Node10</title>
<path fill="none" stroke="midnightblue" d="M672.991,-216.793C664.192,-206.951 654.531,-196.147 646.132,-186.753"/>
<polygon fill="midnightblue" stroke="midnightblue" points="648.694,-184.368 639.42,-179.246 643.476,-189.033 648.694,-184.368"/>
</g>
<!-- Node11 -->
<g id="node21" class="node"><title>Node11</title>
<polygon fill="white" stroke="#bfbfbf" points="705.5,-145 705.5,-179 848.5,-179 848.5,-145 705.5,-145"/>
<text text-anchor="start" x="713.5" y="-166" font-family="Helvetica,sans-Serif" font-size="10.00">mars/interfaces/graphics</text>
<text text-anchor="middle" x="777" y="-153" font-family="Helvetica,sans-Serif" font-size="10.00">/GraphicsManagerInterface.h</text>
</g>
<!-- Node1&#45;&gt;Node11 -->
<g id="edge20" class="edge"><title>Node1&#45;&gt;Node11</title>
<path fill="none" stroke="midnightblue" d="M727.364,-216.793C736.28,-206.951 746.067,-196.147 754.577,-186.753"/>
<polygon fill="midnightblue" stroke="midnightblue" points="757.258,-189.007 761.377,-179.246 752.07,-184.307 757.258,-189.007"/>
</g>
<!-- Node12 -->
<g id="node23" class="node"><title>Node12</title>
<polygon fill="white" stroke="#bfbfbf" points="865.5,-151.5 865.5,-172.5 978.5,-172.5 978.5,-151.5 865.5,-151.5"/>
<text text-anchor="middle" x="922" y="-159.5" font-family="Helvetica,sans-Serif" font-size="10.00">mars/utils/mathUtils.h</text>
</g>
<!-- Node1&#45;&gt;Node12 -->
<g id="edge22" class="edge"><title>Node1&#45;&gt;Node12</title>
<path fill="none" stroke="midnightblue" d="M772.077,-219.403C809.777,-204.968 854.336,-187.907 885.024,-176.158"/>
<polygon fill="midnightblue" stroke="midnightblue" points="886.386,-179.384 894.474,-172.539 883.883,-172.846 886.386,-179.384"/>
</g>
<!-- Node13 -->
<g id="node25" class="node"><title>Node13</title>
<polygon fill="white" stroke="#bfbfbf" points="996,-151.5 996,-172.5 1044,-172.5 1044,-151.5 996,-151.5"/>
<text text-anchor="middle" x="1020" y="-159.5" font-family="Helvetica,sans-Serif" font-size="10.00">stdlib.h</text>
</g>
<!-- Node1&#45;&gt;Node13 -->
<g id="edge24" class="edge"><title>Node1&#45;&gt;Node13</title>
<path fill="none" stroke="midnightblue" d="M772.063,-235.749C831.09,-225.222 916.125,-207.029 987,-180 989.13,-179.188 991.294,-178.262 993.442,-177.268"/>
<polygon fill="midnightblue" stroke="midnightblue" points="995.269,-180.266 1002.61,-172.625 992.105,-174.022 995.269,-180.266"/>
</g>
<!-- Node14 -->
<g id="node27" class="node"><title>Node14</title>
<polygon fill="white" stroke="#bfbfbf" points="1061.5,-151.5 1061.5,-172.5 1108.5,-172.5 1108.5,-151.5 1061.5,-151.5"/>
<text text-anchor="middle" x="1085" y="-159.5" font-family="Helvetica,sans-Serif" font-size="10.00">math.h</text>
</g>
<!-- Node1&#45;&gt;Node14 -->
<g id="edge26" class="edge"><title>Node1&#45;&gt;Node14</title>
<path fill="none" stroke="midnightblue" d="M772.138,-240.238C844.792,-231.838 959.244,-214.221 1053,-180 1055.14,-179.219 1057.31,-178.305 1059.45,-177.31"/>
<polygon fill="midnightblue" stroke="midnightblue" points="1061.28,-180.303 1068.55,-172.597 1058.06,-174.088 1061.28,-180.303"/>
</g>
<!-- Node3 -->
<g id="node5" class="node"><title>Node3</title>
<polygon fill="white" stroke="#bfbfbf" points="-0.5,-73 -0.5,-107 116.5,-107 116.5,-73 -0.5,-73"/>
<text text-anchor="start" x="7.5" y="-94" font-family="Helvetica,sans-Serif" font-size="10.00">mars/interfaces/sim</text>
<text text-anchor="middle" x="58" y="-81" font-family="Helvetica,sans-Serif" font-size="10.00">/MarsPluginTemplate.h</text>
</g>
<!-- Node2&#45;&gt;Node3 -->
<g id="edge4" class="edge"><title>Node2&#45;&gt;Node3</title>
<path fill="none" stroke="midnightblue" d="M179.9,-151.376C159.19,-140.949 127.001,-124.742 100.901,-111.6"/>
<polygon fill="midnightblue" stroke="midnightblue" points="102.457,-108.465 91.9513,-107.094 99.3091,-114.718 102.457,-108.465"/>
</g>
<!-- Node4 -->
<g id="node7" class="node"><title>Node4</title>
<polygon fill="white" stroke="#bfbfbf" points="134,-73 134,-107 268,-107 268,-73 134,-73"/>
<text text-anchor="start" x="142" y="-94" font-family="Helvetica,sans-Serif" font-size="10.00">mars/data_broker/Receiver</text>
<text text-anchor="middle" x="201" y="-81" font-family="Helvetica,sans-Serif" font-size="10.00">Interface.h</text>
</g>
<!-- Node2&#45;&gt;Node4 -->
<g id="edge6" class="edge"><title>Node2&#45;&gt;Node4</title>
<path fill="none" stroke="midnightblue" d="M201,-151.376C201,-142.451 201,-129.293 201,-117.446"/>
<polygon fill="midnightblue" stroke="midnightblue" points="204.5,-117.094 201,-107.094 197.5,-117.094 204.5,-117.094"/>
</g>
<!-- Node5 -->
<g id="node9" class="node"><title>Node5</title>
<a xlink:href="../../d4/db4/_behavior_8h.html" target="_top" xlink:title="implement here the behavior ">
<polygon fill="white" stroke="black" points="285.5,-79.5 285.5,-100.5 348.5,-100.5 348.5,-79.5 285.5,-79.5"/>
<text text-anchor="middle" x="317" y="-87.5" font-family="Helvetica,sans-Serif" font-size="10.00">Behavior.h</text>
</a>
</g>
<!-- Node2&#45;&gt;Node5 -->
<g id="edge8" class="edge"><title>Node2&#45;&gt;Node5</title>
<path fill="none" stroke="midnightblue" d="M218.116,-151.376C237.392,-139.412 268.926,-119.839 291.194,-106.018"/>
<polygon fill="midnightblue" stroke="midnightblue" points="293.163,-108.915 299.814,-100.667 289.471,-102.967 293.163,-108.915"/>
</g>
<!-- Node6 -->
<g id="node11" class="node"><title>Node6</title>
<polygon fill="white" stroke="#bfbfbf" points="219.5,-1 219.5,-35 322.5,-35 322.5,-1 219.5,-1"/>
<text text-anchor="start" x="227.5" y="-22" font-family="Helvetica,sans-Serif" font-size="10.00">mars/interfaces/sim</text>
<text text-anchor="middle" x="271" y="-9" font-family="Helvetica,sans-Serif" font-size="10.00">/ControlCenter.h</text>
</g>
<!-- Node5&#45;&gt;Node6 -->
<g id="edge10" class="edge"><title>Node5&#45;&gt;Node6</title>
<path fill="none" stroke="midnightblue" d="M310.213,-79.3762C304.22,-69.996 295.239,-55.9391 287.384,-43.6438"/>
<polygon fill="midnightblue" stroke="midnightblue" points="290.255,-41.637 281.921,-35.0944 284.356,-45.4057 290.255,-41.637"/>
</g>
<!-- Node7 -->
<g id="node13" class="node"><title>Node7</title>
<polygon fill="white" stroke="#bfbfbf" points="340,-7.5 340,-28.5 386,-28.5 386,-7.5 340,-7.5"/>
<text text-anchor="middle" x="363" y="-15.5" font-family="Helvetica,sans-Serif" font-size="10.00">stdio.h</text>
</g>
<!-- Node5&#45;&gt;Node7 -->
<g id="edge12" class="edge"><title>Node5&#45;&gt;Node7</title>
<path fill="none" stroke="midnightblue" d="M323.787,-79.3762C330.854,-68.3158 342.074,-50.7532 350.706,-37.2433"/>
<polygon fill="midnightblue" stroke="midnightblue" points="353.75,-38.9788 356.185,-28.6674 347.851,-35.21 353.75,-38.9788"/>
</g>
</g>
</svg>
