<?xml version="1.0" encoding="UTF-8" standalone="no"?>
<!DOCTYPE svg PUBLIC "-//W3C//DTD SVG 1.1//EN"
 "http://www.w3.org/Graphics/SVG/1.1/DTD/svg11.dtd">
<!-- Generated by graphviz version 2.26.3 (20100126.1600)
 -->
<!-- Title: mars::sim::RayGridSensor Pages: 1 -->
<svg width="692pt" height="186pt"
 viewBox="0.00 0.00 692.00 186.00" xmlns="http://www.w3.org/2000/svg" xmlns:xlink="http://www.w3.org/1999/xlink">
<g id="graph1" class="graph" transform="scale(1 1) rotate(0) translate(4 182)">
<title>mars::sim::RayGridSensor</title>
<polygon fill="white" stroke="white" points="-4,5 -4,-182 689,-182 689,5 -4,5"/>
<!-- Node1 -->
<g id="node1" class="node"><title>Node1</title>
<polygon fill="#bfbfbf" stroke="black" points="550.5,-72.5 550.5,-93.5 683.5,-93.5 683.5,-72.5 550.5,-72.5"/>
<text text-anchor="middle" x="617" y="-80.5" font-family="Helvetica,sans-Serif" font-size="10.00">mars::sim::RayGridSensor</text>
</g>
<!-- Node2 -->
<g id="node2" class="node"><title>Node2</title>
<a xlink:href="../../d3/d21/classmars_1_1interfaces_1_1_sensor_interface.html" target="_top" xlink:title="mars::interfaces::Sensor\lInterface">
<polygon fill="white" stroke="black" points="374,-144 374,-178 498,-178 498,-144 374,-144"/>
<text text-anchor="start" x="382" y="-165" font-family="Helvetica,sans-Serif" font-size="10.00">mars::interfaces::Sensor</text>
<text text-anchor="middle" x="436" y="-152" font-family="Helvetica,sans-Serif" font-size="10.00">Interface</text>
</a>
</g>
<!-- Node2&#45;&gt;Node1 -->
<g id="edge2" class="edge"><title>Node2&#45;&gt;Node1</title>
<path fill="none" stroke="midnightblue" d="M500.196,-140.439C504.897,-138.678 509.54,-136.857 514,-135 544.142,-122.446 577.657,-104.798 598.03,-93.6315"/>
<polygon fill="midnightblue" stroke="midnightblue" points="498.707,-137.256 490.506,-143.964 501.1,-143.835 498.707,-137.256"/>
</g>
<!-- Node3 -->
<g id="node4" class="node"><title>Node3</title>
<a xlink:href="../../df/d91/classmars_1_1interfaces_1_1_base_grid_intersection_sensor.html" target="_top" xlink:title="mars::interfaces::BaseGrid\lIntersectionSensor">
<polygon fill="white" stroke="black" points="369,-92 369,-126 503,-126 503,-92 369,-92"/>
<text text-anchor="start" x="377" y="-113" font-family="Helvetica,sans-Serif" font-size="10.00">mars::interfaces::BaseGrid</text>
<text text-anchor="middle" x="436" y="-100" font-family="Helvetica,sans-Serif" font-size="10.00">IntersectionSensor</text>
</a>
</g>
<!-- Node3&#45;&gt;Node1 -->
<g id="edge4" class="edge"><title>Node3&#45;&gt;Node1</title>
<path fill="none" stroke="midnightblue" d="M513.361,-97.8874C525.644,-96.123 538.257,-94.3111 550.27,-92.5856"/>
<polygon fill="midnightblue" stroke="midnightblue" points="512.541,-94.4691 503.141,-99.3555 513.537,-101.398 512.541,-94.4691"/>
</g>
<!-- Node4 -->
<g id="node6" class="node"><title>Node4</title>
<a xlink:href="../../da/d0c/classmars_1_1interfaces_1_1_base_node_sensor.html" target="_top" xlink:title="mars::interfaces::BaseNode\lSensor">
<polygon fill="white" stroke="black" points="182.5,-118 182.5,-152 321.5,-152 321.5,-118 182.5,-118"/>
<text text-anchor="start" x="190.5" y="-139" font-family="Helvetica,sans-Serif" font-size="10.00">mars::interfaces::BaseNode</text>
<text text-anchor="middle" x="252" y="-126" font-family="Helvetica,sans-Serif" font-size="10.00">Sensor</text>
</a>
</g>
<!-- Node4&#45;&gt;Node3 -->
<g id="edge6" class="edge"><title>Node4&#45;&gt;Node3</title>
<path fill="none" stroke="midnightblue" d="M331.823,-123.721C344.146,-121.979 356.764,-120.196 368.774,-118.499"/>
<polygon fill="midnightblue" stroke="midnightblue" points="330.974,-120.306 321.563,-125.171 331.954,-127.237 330.974,-120.306"/>
</g>
<!-- Node5 -->
<g id="node8" class="node"><title>Node5</title>
<a xlink:href="../../da/d73/classmars_1_1interfaces_1_1_base_sensor.html" target="_top" xlink:title="mars::interfaces::BaseSensor">
<polygon fill="white" stroke="black" points="0,-124.5 0,-145.5 146,-145.5 146,-124.5 0,-124.5"/>
<text text-anchor="middle" x="73" y="-132.5" font-family="Helvetica,sans-Serif" font-size="10.00">mars::interfaces::BaseSensor</text>
</a>
</g>
<!-- Node5&#45;&gt;Node4 -->
<g id="edge8" class="edge"><title>Node5&#45;&gt;Node4</title>
<path fill="none" stroke="midnightblue" d="M156.255,-135C164.984,-135 173.793,-135 182.347,-135"/>
<polygon fill="midnightblue" stroke="midnightblue" points="156.064,-131.5 146.064,-135 156.064,-138.5 156.064,-131.5"/>
</g>
<!-- Node6 -->
<g id="node10" class="node"><title>Node6</title>
<a xlink:href="../../da/da3/classmars_1_1interfaces_1_1_base_array_sensor.html" target="_top" xlink:title="mars::interfaces::BaseArray\lSensor\&lt; double \&gt;">
<polygon fill="white" stroke="black" points="182.5,-66 182.5,-100 321.5,-100 321.5,-66 182.5,-66"/>
<text text-anchor="start" x="190.5" y="-87" font-family="Helvetica,sans-Serif" font-size="10.00">mars::interfaces::BaseArray</text>
<text text-anchor="middle" x="252" y="-74" font-family="Helvetica,sans-Serif" font-size="10.00">Sensor&lt; double &gt;</text>
</a>
</g>
<!-- Node6&#45;&gt;Node3 -->
<g id="edge10" class="edge"><title>Node6&#45;&gt;Node3</title>
<path fill="none" stroke="midnightblue" d="M331.823,-94.2794C344.146,-96.0206 356.764,-97.8037 368.774,-99.5007"/>
<polygon fill="midnightblue" stroke="midnightblue" points="331.954,-90.7631 321.563,-92.8295 330.974,-97.6943 331.954,-90.7631"/>
</g>
<!-- Node7 -->
<g id="node12" class="node"><title>Node7</title>
<a xlink:href="../../d0/d0e/classmars_1_1data__broker_1_1_receiver_interface.html" target="_top" xlink:title="Interface for classes that want to receive data from the DataBroker. ">
<polygon fill="white" stroke="black" points="385.5,-40 385.5,-74 486.5,-74 486.5,-40 385.5,-40"/>
<text text-anchor="start" x="393.5" y="-61" font-family="Helvetica,sans-Serif" font-size="10.00">mars::data_broker::</text>
<text text-anchor="middle" x="436" y="-48" font-family="Helvetica,sans-Serif" font-size="10.00">ReceiverInterface</text>
</a>
</g>
<!-- Node7&#45;&gt;Node1 -->
<g id="edge12" class="edge"><title>Node7&#45;&gt;Node1</title>
<path fill="none" stroke="midnightblue" d="M496.804,-65.7343C513.978,-68.2012 532.755,-70.8985 550.257,-73.4126"/>
<polygon fill="midnightblue" stroke="midnightblue" points="497.296,-62.2692 486.9,-64.3116 496.301,-69.198 497.296,-62.2692"/>
</g>
<!-- Node8 -->
<g id="node14" class="node"><title>Node8</title>
<a xlink:href="../../de/ded/classmars_1_1interfaces_1_1_draw_interface.html" target="_top" xlink:title="The interface DrawInterface is used for updating draw_item structs via an update function. ">
<polygon fill="white" stroke="black" points="358.5,-0.5 358.5,-21.5 513.5,-21.5 513.5,-0.5 358.5,-0.5"/>
<text text-anchor="middle" x="436" y="-8.5" font-family="Helvetica,sans-Serif" font-size="10.00">mars::interfaces::DrawInterface</text>
</a>
</g>
<!-- Node8&#45;&gt;Node1 -->
<g id="edge14" class="edge"><title>Node8&#45;&gt;Node1</title>
<path fill="none" stroke="midnightblue" d="M493.923,-24.3526C500.759,-26.3682 507.581,-28.5893 514,-31 544.942,-42.6206 578.786,-60.8634 598.937,-72.3645"/>
<polygon fill="midnightblue" stroke="midnightblue" points="494.518,-20.8842 483.944,-21.5482 492.624,-27.6232 494.518,-20.8842"/>
</g>
</g>
</svg>
