<?xml version="1.0" encoding="UTF-8" standalone="no"?>
<!DOCTYPE svg PUBLIC "-//W3C//DTD SVG 1.1//EN"
 "http://www.w3.org/Graphics/SVG/1.1/DTD/svg11.dtd">
<!-- Generated by graphviz version 2.36.0 (20140111.2315)
 -->
<!-- Title: mars::sim::RayGridSensor Pages: 1 -->
<svg width="692pt" height="175pt"
 viewBox="0.00 0.00 692.00 175.00" xmlns="http://www.w3.org/2000/svg" xmlns:xlink="http://www.w3.org/1999/xlink">
<g id="graph0" class="graph" transform="scale(1 1) rotate(0) translate(4 171)">
<title>mars::sim::RayGridSensor</title>
<polygon fill="white" stroke="none" points="-4,4 -4,-171 688,-171 688,4 -4,4"/>
<!-- Node1 -->
<g id="node1" class="node"><title>Node1</title>
<polygon fill="#bfbfbf" stroke="black" points="550.5,-68.5 550.5,-87.5 683.5,-87.5 683.5,-68.5 550.5,-68.5"/>
<text text-anchor="middle" x="617" y="-75.5" font-family="Helvetica,sans-Serif" font-size="10.00">mars::sim::RayGridSensor</text>
</g>
<!-- Node2 -->
<g id="node2" class="node"><title>Node2</title>
<g id="a_node2"><a xlink:href="../../d3/d21/classmars_1_1interfaces_1_1_sensor_interface.html" target="_top" xlink:title="mars::interfaces::Sensor\lInterface">
<polygon fill="white" stroke="black" points="374,-137 374,-167 498,-167 498,-137 374,-137"/>
<text text-anchor="start" x="382" y="-155" font-family="Helvetica,sans-Serif" font-size="10.00">mars::interfaces::Sensor</text>
<text text-anchor="middle" x="436" y="-144" font-family="Helvetica,sans-Serif" font-size="10.00">Interface</text>
</a>
</g>
</g>
<!-- Node2&#45;&gt;Node1 -->
<g id="edge1" class="edge"><title>Node2&#45;&gt;Node1</title>
<path fill="none" stroke="midnightblue" d="M496.159,-133.687C502.225,-131.543 508.263,-129.297 514,-127 544.092,-114.95 577.767,-98.0774 597.905,-87.6049"/>
<polygon fill="midnightblue" stroke="midnightblue" points="494.958,-130.399 486.643,-136.965 497.238,-137.017 494.958,-130.399"/>
</g>
<!-- Node3 -->
<g id="node3" class="node"><title>Node3</title>
<g id="a_node3"><a xlink:href="../../df/d91/classmars_1_1interfaces_1_1_base_grid_intersection_sensor.html" target="_top" xlink:title="mars::interfaces::BaseGrid\lIntersectionSensor">
<polygon fill="white" stroke="black" points="369,-88 369,-118 503,-118 503,-88 369,-88"/>
<text text-anchor="start" x="377" y="-106" font-family="Helvetica,sans-Serif" font-size="10.00">mars::interfaces::BaseGrid</text>
<text text-anchor="middle" x="436" y="-95" font-family="Helvetica,sans-Serif" font-size="10.00">IntersectionSensor</text>
</a>
</g>
</g>
<!-- Node3&#45;&gt;Node1 -->
<g id="edge2" class="edge"><title>Node3&#45;&gt;Node1</title>
<path fill="none" stroke="midnightblue" d="M513.397,-92.3301C525.722,-90.6087 538.385,-88.84 550.426,-87.1584"/>
<polygon fill="midnightblue" stroke="midnightblue" points="512.564,-88.9123 503.144,-93.762 513.532,-95.845 512.564,-88.9123"/>
</g>
<!-- Node4 -->
<g id="node4" class="node"><title>Node4</title>
<g id="a_node4"><a xlink:href="../../da/d0c/classmars_1_1interfaces_1_1_base_node_sensor.html" target="_top" xlink:title="mars::interfaces::BaseNode\lSensor">
<polygon fill="white" stroke="black" points="182.5,-113 182.5,-143 321.5,-143 321.5,-113 182.5,-113"/>
<text text-anchor="start" x="190.5" y="-131" font-family="Helvetica,sans-Serif" font-size="10.00">mars::interfaces::BaseNode</text>
<text text-anchor="middle" x="252" y="-120" font-family="Helvetica,sans-Serif" font-size="10.00">Sensor</text>
</a>
</g>
</g>
<!-- Node4&#45;&gt;Node3 -->
<g id="edge3" class="edge"><title>Node4&#45;&gt;Node3</title>
<path fill="none" stroke="midnightblue" d="M331.472,-117.221C343.957,-115.506 356.763,-113.747 368.925,-112.076"/>
<polygon fill="midnightblue" stroke="midnightblue" points="330.978,-113.756 321.547,-118.584 331.93,-120.691 330.978,-113.756"/>
</g>
<!-- Node5 -->
<g id="node5" class="node"><title>Node5</title>
<g id="a_node5"><a xlink:href="../../da/d73/classmars_1_1interfaces_1_1_base_sensor.html" target="_top" xlink:title="mars::interfaces::BaseSensor">
<polygon fill="white" stroke="black" points="0,-118.5 0,-137.5 146,-137.5 146,-118.5 0,-118.5"/>
<text text-anchor="middle" x="73" y="-125.5" font-family="Helvetica,sans-Serif" font-size="10.00">mars::interfaces::BaseSensor</text>
</a>
</g>
</g>
<!-- Node5&#45;&gt;Node4 -->
<g id="edge4" class="edge"><title>Node5&#45;&gt;Node4</title>
<path fill="none" stroke="midnightblue" d="M156.407,-128C165.108,-128 173.889,-128 182.41,-128"/>
<polygon fill="midnightblue" stroke="midnightblue" points="156.248,-124.5 146.248,-128 156.248,-131.5 156.248,-124.5"/>
</g>
<!-- Node6 -->
<g id="node6" class="node"><title>Node6</title>
<g id="a_node6"><a xlink:href="../../da/da3/classmars_1_1interfaces_1_1_base_array_sensor.html" target="_top" xlink:title="mars::interfaces::BaseArray\lSensor\&lt; double \&gt;">
<polygon fill="white" stroke="black" points="182.5,-64 182.5,-94 321.5,-94 321.5,-64 182.5,-64"/>
<text text-anchor="start" x="190.5" y="-82" font-family="Helvetica,sans-Serif" font-size="10.00">mars::interfaces::BaseArray</text>
<text text-anchor="middle" x="252" y="-71" font-family="Helvetica,sans-Serif" font-size="10.00">Sensor&lt; double &gt;</text>
</a>
</g>
</g>
<!-- Node6&#45;&gt;Node3 -->
<g id="edge5" class="edge"><title>Node6&#45;&gt;Node3</title>
<path fill="none" stroke="midnightblue" d="M331.472,-89.348C343.957,-90.9944 356.763,-92.683 368.925,-94.2868"/>
<polygon fill="midnightblue" stroke="midnightblue" points="331.919,-85.8767 321.547,-88.0392 331.004,-92.8166 331.919,-85.8767"/>
</g>
<!-- Node7 -->
<g id="node7" class="node"><title>Node7</title>
<g id="a_node7"><a xlink:href="../../d0/d0e/classmars_1_1data__broker_1_1_receiver_interface.html" target="_top" xlink:title="Interface for classes that want to receive data from the DataBroker. ">
<polygon fill="white" stroke="black" points="385.5,-39 385.5,-69 486.5,-69 486.5,-39 385.5,-39"/>
<text text-anchor="start" x="393.5" y="-57" font-family="Helvetica,sans-Serif" font-size="10.00">mars::data_broker::</text>
<text text-anchor="middle" x="436" y="-46" font-family="Helvetica,sans-Serif" font-size="10.00">ReceiverInterface</text>
</a>
</g>
</g>
<!-- Node7&#45;&gt;Node1 -->
<g id="edge6" class="edge"><title>Node7&#45;&gt;Node1</title>
<path fill="none" stroke="midnightblue" d="M497.253,-62.0787C514.316,-64.3664 532.971,-66.8677 550.336,-69.1958"/>
<polygon fill="midnightblue" stroke="midnightblue" points="497.238,-58.5454 486.861,-60.6853 496.308,-65.4833 497.238,-58.5454"/>
</g>
<!-- Node8 -->
<g id="node8" class="node"><title>Node8</title>
<g id="a_node8"><a xlink:href="../../de/ded/classmars_1_1interfaces_1_1_draw_interface.html" target="_top" xlink:title="The interface DrawInterface is used for updating draw_item structs via an update function. ">
<polygon fill="white" stroke="black" points="358.5,-0.5 358.5,-19.5 513.5,-19.5 513.5,-0.5 358.5,-0.5"/>
<text text-anchor="middle" x="436" y="-7.5" font-family="Helvetica,sans-Serif" font-size="10.00">mars::interfaces::DrawInterface</text>
</a>
</g>
</g>
<!-- Node8&#45;&gt;Node1 -->
<g id="edge7" class="edge"><title>Node8&#45;&gt;Node1</title>
<path fill="none" stroke="midnightblue" d="M492,-22.0983C499.466,-24.1677 506.972,-26.4753 514,-29 544.876,-40.0919 578.875,-57.5644 598.783,-68.3726"/>
<polygon fill="midnightblue" stroke="midnightblue" points="492.814,-18.6934 482.252,-19.517 491.023,-25.4602 492.814,-18.6934"/>
</g>
</g>
</svg>
