<?xml version="1.0" encoding="UTF-8" standalone="no"?>
<!DOCTYPE svg PUBLIC "-//W3C//DTD SVG 1.1//EN"
 "http://www.w3.org/Graphics/SVG/1.1/DTD/svg11.dtd">
<!-- Generated by graphviz version 2.36.0 (20140111.2315)
 -->
<!-- Title: /media/kavonszadkowski/work/marsdocs/mars/gui/src/menus/MenuWindow.h Pages: 1 -->
<svg width="299pt" height="128pt"
 viewBox="0.00 0.00 299.00 128.00" xmlns="http://www.w3.org/2000/svg" xmlns:xlink="http://www.w3.org/1999/xlink">
<g id="graph0" class="graph" transform="scale(1 1) rotate(0) translate(4 124)">
<title>/media/kavonszadkowski/work/marsdocs/mars/gui/src/menus/MenuWindow.h</title>
<polygon fill="white" stroke="none" points="-4,4 -4,-124 295,-124 295,4 -4,4"/>
<!-- Node1 -->
<g id="node1" class="node"><title>Node1</title>
<polygon fill="#bfbfbf" stroke="black" points="72,-78.5 72,-119.5 208,-119.5 208,-78.5 72,-78.5"/>
<text text-anchor="start" x="80" y="-107.5" font-family="Helvetica,sans-Serif" font-size="10.00">/media/kavonszadkowski</text>
<text text-anchor="start" x="80" y="-96.5" font-family="Helvetica,sans-Serif" font-size="10.00">/work/marsdocs/mars/gui</text>
<text text-anchor="middle" x="140" y="-85.5" font-family="Helvetica,sans-Serif" font-size="10.00">/src/menus/MenuWindow.h</text>
</g>
<!-- Node2 -->
<g id="node2" class="node"><title>Node2</title>
<g id="a_node2"><a xlink:href="../../da/d1e/_mars_gui_8cpp.html" target="_top" xlink:title="/media/kavonszadkowski\l/work/marsdocs/mars/gui\l/src/MarsGui.cpp">
<polygon fill="white" stroke="black" points="-0.5,-0.5 -0.5,-41.5 126.5,-41.5 126.5,-0.5 -0.5,-0.5"/>
<text text-anchor="start" x="7.5" y="-29.5" font-family="Helvetica,sans-Serif" font-size="10.00">/media/kavonszadkowski</text>
<text text-anchor="start" x="7.5" y="-18.5" font-family="Helvetica,sans-Serif" font-size="10.00">/work/marsdocs/mars/gui</text>
<text text-anchor="middle" x="63" y="-7.5" font-family="Helvetica,sans-Serif" font-size="10.00">/src/MarsGui.cpp</text>
</a>
</g>
</g>
<!-- Node1&#45;&gt;Node2 -->
<g id="edge1" class="edge"><title>Node1&#45;&gt;Node2</title>
<path fill="none" stroke="midnightblue" d="M112.851,-71.204C102.935,-61.416 91.9143,-50.5388 82.7622,-41.5056"/>
<polygon fill="midnightblue" stroke="midnightblue" points="110.595,-73.8944 120.171,-78.4281 115.512,-68.9124 110.595,-73.8944"/>
</g>
<!-- Node3 -->
<g id="node3" class="node"><title>Node3</title>
<g id="a_node3"><a xlink:href="../../d0/de2/_menu_window_8cpp.html" target="_top" xlink:title="MenuWindow creates the menus and menu items in the Window menu of the simulation and manages the wind...">
<polygon fill="white" stroke="black" points="145,-0.5 145,-41.5 291,-41.5 291,-0.5 145,-0.5"/>
<text text-anchor="start" x="153" y="-29.5" font-family="Helvetica,sans-Serif" font-size="10.00">/media/kavonszadkowski</text>
<text text-anchor="start" x="153" y="-18.5" font-family="Helvetica,sans-Serif" font-size="10.00">/work/marsdocs/mars/gui</text>
<text text-anchor="middle" x="218" y="-7.5" font-family="Helvetica,sans-Serif" font-size="10.00">/src/menus/MenuWindow.cpp</text>
</a>
</g>
</g>
<!-- Node1&#45;&gt;Node3 -->
<g id="edge2" class="edge"><title>Node1&#45;&gt;Node3</title>
<path fill="none" stroke="midnightblue" d="M167.501,-71.204C177.547,-61.416 188.71,-50.5388 197.981,-41.5056"/>
<polygon fill="midnightblue" stroke="midnightblue" points="164.807,-68.9426 160.087,-78.4281 169.692,-73.9562 164.807,-68.9426"/>
</g>
</g>
</svg>
