<?xml version="1.0" encoding="UTF-8" standalone="no"?>
<!DOCTYPE svg PUBLIC "-//W3C//DTD SVG 1.1//EN"
 "http://www.w3.org/Graphics/SVG/1.1/DTD/svg11.dtd">
<!-- Generated by graphviz version 2.26.3 (20100126.1600)
 -->
<!-- Title: /home/kavonszadkowski/limes&#45;dev/simulation/mars/interfaces/src/NodeData.cpp Pages: 1 -->
<svg width="1184pt" height="230pt"
 viewBox="0.00 0.00 1184.41 230.00" xmlns="http://www.w3.org/2000/svg" xmlns:xlink="http://www.w3.org/1999/xlink">
<g id="graph1" class="graph" transform="scale(1 1) rotate(0) translate(4 226)">
<title>/home/kavonszadkowski/limes&#45;dev/simulation/mars/interfaces/src/NodeData.cpp</title>
<polygon fill="white" stroke="white" points="-4,5 -4,-226 1181.41,-226 1181.41,5 -4,5"/>
<!-- Node1 -->
<g id="node1" class="node"><title>Node1</title>
<polygon fill="#bfbfbf" stroke="black" points="707.412,-174.5 707.412,-221.5 877.412,-221.5 877.412,-174.5 707.412,-174.5"/>
<text text-anchor="start" x="715.412" y="-208.5" font-family="Helvetica,sans-Serif" font-size="10.00">/home/kavonszadkowski</text>
<text text-anchor="start" x="715.412" y="-195.5" font-family="Helvetica,sans-Serif" font-size="10.00">/limes&#45;dev/simulation</text>
<text text-anchor="middle" x="792.412" y="-182.5" font-family="Helvetica,sans-Serif" font-size="10.00">/mars/interfaces/src/NodeData.cpp</text>
</g>
<!-- Node2 -->
<g id="node3" class="node"><title>Node2</title>
<a xlink:href="../../d7/d1b/_node_data_8h.html" target="_top" xlink:title="NodeData.h">
<polygon fill="white" stroke="black" points="294.912,-116.5 294.912,-137.5 363.912,-137.5 363.912,-116.5 294.912,-116.5"/>
<text text-anchor="middle" x="329.412" y="-124.5" font-family="Helvetica,sans-Serif" font-size="10.00">NodeData.h</text>
</a>
</g>
<!-- Node1&#45;&gt;Node2 -->
<g id="edge2" class="edge"><title>Node1&#45;&gt;Node2</title>
<path fill="none" stroke="midnightblue" d="M707.233,-185.303C627.211,-173.318 504.14,-154.738 397.412,-138 389.854,-136.815 381.828,-135.535 374.039,-134.282"/>
<polygon fill="midnightblue" stroke="midnightblue" points="374.425,-130.799 363.995,-132.66 373.309,-137.71 374.425,-130.799"/>
</g>
<!-- Node13 -->
<g id="node29" class="node"><title>Node13</title>
<a xlink:href="../../d2/d6d/terrain_struct_8h.html" target="_top" xlink:title="terrainStruct.h">
<polygon fill="white" stroke="black" points="406.412,-116.5 406.412,-137.5 484.412,-137.5 484.412,-116.5 406.412,-116.5"/>
<text text-anchor="middle" x="445.412" y="-124.5" font-family="Helvetica,sans-Serif" font-size="10.00">terrainStruct.h</text>
</a>
</g>
<!-- Node1&#45;&gt;Node13 -->
<g id="edge32" class="edge"><title>Node1&#45;&gt;Node13</title>
<path fill="none" stroke="midnightblue" d="M707.223,-181.546C649.786,-170.302 572.049,-154.795 494.388,-138.173"/>
<polygon fill="midnightblue" stroke="midnightblue" points="494.937,-134.711 484.425,-136.034 493.468,-141.555 494.937,-134.711"/>
</g>
<!-- Node14 -->
<g id="node33" class="node"><title>Node14</title>
<a xlink:href="../../d8/dbb/_control_center_8h.html" target="_top" xlink:title="&quot;ControlCenter&quot; contains the instances of all modules of the simulation. The modules are connected vi...">
<polygon fill="white" stroke="black" points="614.412,-116.5 614.412,-137.5 718.412,-137.5 718.412,-116.5 614.412,-116.5"/>
<text text-anchor="middle" x="666.412" y="-124.5" font-family="Helvetica,sans-Serif" font-size="10.00">sim/ControlCenter.h</text>
</a>
</g>
<!-- Node1&#45;&gt;Node14 -->
<g id="edge38" class="edge"><title>Node1&#45;&gt;Node14</title>
<path fill="none" stroke="midnightblue" d="M750.456,-174.358C732.024,-163.972 710.877,-152.056 694.407,-142.775"/>
<polygon fill="midnightblue" stroke="midnightblue" points="695.736,-139.506 685.305,-137.646 692.299,-145.605 695.736,-139.506"/>
</g>
<!-- Node17 -->
<g id="node39" class="node"><title>Node17</title>
<a xlink:href="../../d5/d36/_load_center_8h.html" target="_top" xlink:title="sim/LoadCenter.h">
<polygon fill="white" stroke="black" points="502.412,-116.5 502.412,-137.5 596.412,-137.5 596.412,-116.5 502.412,-116.5"/>
<text text-anchor="middle" x="549.412" y="-124.5" font-family="Helvetica,sans-Serif" font-size="10.00">sim/LoadCenter.h</text>
</a>
</g>
<!-- Node1&#45;&gt;Node17 -->
<g id="edge44" class="edge"><title>Node1&#45;&gt;Node17</title>
<path fill="none" stroke="midnightblue" d="M711.834,-174.457C673.146,-163.153 628.191,-150.018 595.398,-140.436"/>
<polygon fill="midnightblue" stroke="midnightblue" points="596.211,-137.028 585.631,-137.583 594.248,-143.747 596.211,-137.028"/>
</g>
<!-- Node19 -->
<g id="node45" class="node"><title>Node19</title>
<polygon fill="white" stroke="#bfbfbf" points="735.912,-116.5 735.912,-137.5 848.912,-137.5 848.912,-116.5 735.912,-116.5"/>
<text text-anchor="middle" x="792.412" y="-124.5" font-family="Helvetica,sans-Serif" font-size="10.00">mars/utils/mathUtils.h</text>
</g>
<!-- Node1&#45;&gt;Node19 -->
<g id="edge52" class="edge"><title>Node1&#45;&gt;Node19</title>
<path fill="none" stroke="midnightblue" d="M792.412,-174.358C792.412,-165.719 792.412,-156.022 792.412,-147.662"/>
<polygon fill="midnightblue" stroke="midnightblue" points="795.912,-147.646 792.412,-137.646 788.912,-147.646 795.912,-147.646"/>
</g>
<!-- Node20 -->
<g id="node47" class="node"><title>Node20</title>
<polygon fill="white" stroke="#bfbfbf" points="866.412,-116.5 866.412,-137.5 958.412,-137.5 958.412,-116.5 866.412,-116.5"/>
<text text-anchor="middle" x="912.412" y="-124.5" font-family="Helvetica,sans-Serif" font-size="10.00">mars/utils/misc.h</text>
</g>
<!-- Node1&#45;&gt;Node20 -->
<g id="edge54" class="edge"><title>Node1&#45;&gt;Node20</title>
<path fill="none" stroke="midnightblue" d="M832.37,-174.358C849.924,-163.972 870.064,-152.056 885.751,-142.775"/>
<polygon fill="midnightblue" stroke="midnightblue" points="887.594,-145.751 894.418,-137.646 884.03,-139.726 887.594,-145.751"/>
</g>
<!-- Node21 -->
<g id="node49" class="node"><title>Node21</title>
<polygon fill="white" stroke="#bfbfbf" points="975.912,-116.5 975.912,-137.5 1044.91,-137.5 1044.91,-116.5 975.912,-116.5"/>
<text text-anchor="middle" x="1010.41" y="-124.5" font-family="Helvetica,sans-Serif" font-size="10.00">Logging.hpp</text>
</g>
<!-- Node1&#45;&gt;Node21 -->
<g id="edge56" class="edge"><title>Node1&#45;&gt;Node21</title>
<path fill="none" stroke="midnightblue" d="M864.7,-174.457C899.108,-163.25 939.043,-150.244 968.394,-140.685"/>
<polygon fill="midnightblue" stroke="midnightblue" points="969.495,-144.007 977.919,-137.583 967.327,-137.351 969.495,-144.007"/>
</g>
<!-- Node22 -->
<g id="node51" class="node"><title>Node22</title>
<polygon fill="white" stroke="#bfbfbf" points="1062.41,-116.5 1062.41,-137.5 1116.41,-137.5 1116.41,-116.5 1062.41,-116.5"/>
<text text-anchor="middle" x="1089.41" y="-124.5" font-family="Helvetica,sans-Serif" font-size="10.00">iostream</text>
</g>
<!-- Node1&#45;&gt;Node22 -->
<g id="edge58" class="edge"><title>Node1&#45;&gt;Node22</title>
<path fill="none" stroke="midnightblue" d="M877.418,-180.049C926.127,-169.388 988.573,-155.089 1052.49,-138.128"/>
<polygon fill="midnightblue" stroke="midnightblue" points="1053.59,-141.458 1062.34,-135.495 1051.78,-134.695 1053.59,-141.458"/>
</g>
<!-- Node23 -->
<g id="node53" class="node"><title>Node23</title>
<polygon fill="white" stroke="#bfbfbf" points="1133.91,-116.5 1133.91,-137.5 1176.91,-137.5 1176.91,-116.5 1133.91,-116.5"/>
<text text-anchor="middle" x="1155.41" y="-124.5" font-family="Helvetica,sans-Serif" font-size="10.00">cstdio</text>
</g>
<!-- Node1&#45;&gt;Node23 -->
<g id="edge60" class="edge"><title>Node1&#45;&gt;Node23</title>
<path fill="none" stroke="midnightblue" d="M877.478,-186.823C942.854,-177.279 1035.38,-161.704 1123.69,-138.174"/>
<polygon fill="midnightblue" stroke="midnightblue" points="1124.86,-141.483 1133.6,-135.495 1123.03,-134.726 1124.86,-141.483"/>
</g>
<!-- Node3 -->
<g id="node5" class="node"><title>Node3</title>
<a xlink:href="../../d7/dc4/snmesh_8h.html" target="_top" xlink:title="snmesh.h">
<polygon fill="white" stroke="black" points="299.912,-58.5 299.912,-79.5 358.912,-79.5 358.912,-58.5 299.912,-58.5"/>
<text text-anchor="middle" x="329.412" y="-66.5" font-family="Helvetica,sans-Serif" font-size="10.00">snmesh.h</text>
</a>
</g>
<!-- Node2&#45;&gt;Node3 -->
<g id="edge4" class="edge"><title>Node2&#45;&gt;Node3</title>
<path fill="none" stroke="midnightblue" d="M329.412,-116.362C329.412,-108.922 329.412,-98.7427 329.412,-89.7276"/>
<polygon fill="midnightblue" stroke="midnightblue" points="332.912,-89.5706 329.412,-79.5707 325.912,-89.5707 332.912,-89.5706"/>
</g>
<!-- Node4 -->
<g id="node7" class="node"><title>Node4</title>
<a xlink:href="../../dd/d9e/_m_a_r_s_defs_8h.html" target="_top" xlink:title="MARSDefs.h">
<polygon fill="white" stroke="black" points="211.912,-0.5 211.912,-21.5 286.912,-21.5 286.912,-0.5 211.912,-0.5"/>
<text text-anchor="middle" x="249.412" y="-8.5" font-family="Helvetica,sans-Serif" font-size="10.00">MARSDefs.h</text>
</a>
</g>
<!-- Node2&#45;&gt;Node4 -->
<g id="edge22" class="edge"><title>Node2&#45;&gt;Node4</title>
<path fill="none" stroke="midnightblue" d="M320.239,-116.489C312.268,-107.166 300.593,-93.0423 291.412,-80 280,-63.7876 268.383,-44.4383 260.269,-30.3612"/>
<polygon fill="midnightblue" stroke="midnightblue" points="263.247,-28.5179 255.256,-21.5612 257.164,-31.9827 263.247,-28.5179"/>
</g>
<!-- Node6 -->
<g id="node11" class="node"><title>Node6</title>
<a xlink:href="../../de/d75/_material_data_8h.html" target="_top" xlink:title="MaterialData.h">
<polygon fill="white" stroke="black" points="376.412,-58.5 376.412,-79.5 456.412,-79.5 456.412,-58.5 376.412,-58.5"/>
<text text-anchor="middle" x="416.412" y="-66.5" font-family="Helvetica,sans-Serif" font-size="10.00">MaterialData.h</text>
</a>
</g>
<!-- Node2&#45;&gt;Node6 -->
<g id="edge10" class="edge"><title>Node2&#45;&gt;Node6</title>
<path fill="none" stroke="midnightblue" d="M345.369,-116.362C358.369,-107.696 376.943,-95.3126 391.839,-85.3819"/>
<polygon fill="midnightblue" stroke="midnightblue" points="394.177,-88.0299 400.556,-79.5707 390.294,-82.2055 394.177,-88.0299"/>
</g>
<!-- Node8 -->
<g id="node16" class="node"><title>Node8</title>
<a xlink:href="../../dd/d54/contact__params_8h.html" target="_top" xlink:title="contact_params.h">
<polygon fill="white" stroke="black" points="149.912,-58.5 149.912,-79.5 244.912,-79.5 244.912,-58.5 149.912,-58.5"/>
<text text-anchor="middle" x="197.412" y="-66.5" font-family="Helvetica,sans-Serif" font-size="10.00">contact_params.h</text>
</a>
</g>
<!-- Node2&#45;&gt;Node8 -->
<g id="edge16" class="edge"><title>Node2&#45;&gt;Node8</title>
<path fill="none" stroke="midnightblue" d="M305.508,-116.497C284.612,-107.315 254.056,-93.8889 230.757,-83.6516"/>
<polygon fill="midnightblue" stroke="midnightblue" points="232.148,-80.4397 221.584,-79.6212 229.332,-86.8483 232.148,-80.4397"/>
</g>
<!-- Node9 -->
<g id="node19" class="node"><title>Node9</title>
<polygon fill="white" stroke="#bfbfbf" points="27.912,-0.5 27.912,-21.5 126.912,-21.5 126.912,-0.5 27.912,-0.5"/>
<text text-anchor="middle" x="77.412" y="-8.5" font-family="Helvetica,sans-Serif" font-size="10.00">mars/utils/Vector.h</text>
</g>
<!-- Node2&#45;&gt;Node9 -->
<g id="edge24" class="edge"><title>Node2&#45;&gt;Node9</title>
<path fill="none" stroke="midnightblue" d="M294.752,-124.506C215.065,-118.42 24.1952,-101.705 5.41199,-80 -11.8169,-60.0915 16.8293,-39.4876 42.9281,-26.0394"/>
<polygon fill="midnightblue" stroke="midnightblue" points="44.5429,-29.1457 51.974,-21.594 41.4555,-22.8634 44.5429,-29.1457"/>
</g>
<!-- Node10 -->
<g id="node23" class="node"><title>Node10</title>
<polygon fill="white" stroke="#bfbfbf" points="14.412,-58.5 14.412,-79.5 132.412,-79.5 132.412,-58.5 14.412,-58.5"/>
<text text-anchor="middle" x="73.412" y="-66.5" font-family="Helvetica,sans-Serif" font-size="10.00">mars/utils/Quaternion.h</text>
</g>
<!-- Node2&#45;&gt;Node10 -->
<g id="edge26" class="edge"><title>Node2&#45;&gt;Node10</title>
<path fill="none" stroke="midnightblue" d="M294.887,-119.178C252.536,-109.583 180.166,-93.1865 129.722,-81.7577"/>
<polygon fill="midnightblue" stroke="midnightblue" points="130.467,-78.3379 119.941,-79.5417 128.92,-85.1649 130.467,-78.3379"/>
</g>
<!-- Node11 -->
<g id="node25" class="node"><title>Node11</title>
<polygon fill="white" stroke="#bfbfbf" points="525.912,-58.5 525.912,-79.5 566.912,-79.5 566.912,-58.5 525.912,-58.5"/>
<text text-anchor="middle" x="546.412" y="-66.5" font-family="Helvetica,sans-Serif" font-size="10.00">string</text>
</g>
<!-- Node2&#45;&gt;Node11 -->
<g id="edge28" class="edge"><title>Node2&#45;&gt;Node11</title>
<path fill="none" stroke="midnightblue" d="M364.055,-119.624C400.032,-111.682 458.072,-98.0853 515.945,-80.2458"/>
<polygon fill="midnightblue" stroke="midnightblue" points="517.105,-83.5506 525.605,-77.2273 515.017,-76.8692 517.105,-83.5506"/>
</g>
<!-- Node12 -->
<g id="node27" class="node"><title>Node12</title>
<polygon fill="white" stroke="#bfbfbf" points="473.912,-58.5 473.912,-79.5 508.912,-79.5 508.912,-58.5 473.912,-58.5"/>
<text text-anchor="middle" x="491.412" y="-66.5" font-family="Helvetica,sans-Serif" font-size="10.00">map</text>
</g>
<!-- Node2&#45;&gt;Node12 -->
<g id="edge30" class="edge"><title>Node2&#45;&gt;Node12</title>
<path fill="none" stroke="midnightblue" d="M361.783,-116.497C387.477,-108.009 424.479,-95.4533 464.462,-80.2242"/>
<polygon fill="midnightblue" stroke="midnightblue" points="465.774,-83.4693 473.855,-76.6174 463.265,-76.9345 465.774,-83.4693"/>
</g>
<!-- Node3&#45;&gt;Node4 -->
<g id="edge6" class="edge"><title>Node3&#45;&gt;Node4</title>
<path fill="none" stroke="midnightblue" d="M314.739,-58.3619C302.898,-49.7773 286.027,-37.5459 272.396,-27.6636"/>
<polygon fill="midnightblue" stroke="midnightblue" points="274.143,-24.6067 263.992,-21.5707 270.034,-30.274 274.143,-24.6067"/>
</g>
<!-- Node5 -->
<g id="node9" class="node"><title>Node5</title>
<polygon fill="white" stroke="#bfbfbf" points="304.412,-0.5 304.412,-21.5 398.412,-21.5 398.412,-0.5 304.412,-0.5"/>
<text text-anchor="middle" x="351.412" y="-8.5" font-family="Helvetica,sans-Serif" font-size="10.00">mars/utils/Color.h</text>
</g>
<!-- Node3&#45;&gt;Node5 -->
<g id="edge8" class="edge"><title>Node3&#45;&gt;Node5</title>
<path fill="none" stroke="midnightblue" d="M333.447,-58.3619C336.331,-50.7584 340.3,-40.294 343.775,-31.1349"/>
<polygon fill="midnightblue" stroke="midnightblue" points="347.128,-32.1619 347.402,-21.5707 340.583,-29.6793 347.128,-32.1619"/>
</g>
<!-- Node6&#45;&gt;Node5 -->
<g id="edge12" class="edge"><title>Node6&#45;&gt;Node5</title>
<path fill="none" stroke="midnightblue" d="M404.49,-58.3619C395.053,-49.9408 381.682,-38.0105 370.722,-28.2308"/>
<polygon fill="midnightblue" stroke="midnightblue" points="373.05,-25.6171 363.258,-21.5707 368.39,-30.8401 373.05,-25.6171"/>
</g>
<!-- Node7 -->
<g id="node14" class="node"><title>Node7</title>
<polygon fill="white" stroke="#bfbfbf" points="416.412,-0.5 416.412,-21.5 544.412,-21.5 544.412,-0.5 416.412,-0.5"/>
<text text-anchor="middle" x="480.412" y="-8.5" font-family="Helvetica,sans-Serif" font-size="10.00">configmaps/ConfigData.h</text>
</g>
<!-- Node6&#45;&gt;Node7 -->
<g id="edge14" class="edge"><title>Node6&#45;&gt;Node7</title>
<path fill="none" stroke="midnightblue" d="M428.151,-58.3619C437.353,-50.0226 450.352,-38.2418 461.084,-28.5162"/>
<polygon fill="midnightblue" stroke="midnightblue" points="463.688,-30.8793 468.748,-21.5707 458.988,-25.6924 463.688,-30.8793"/>
</g>
<!-- Node8&#45;&gt;Node4 -->
<g id="edge18" class="edge"><title>Node8&#45;&gt;Node4</title>
<path fill="none" stroke="midnightblue" d="M206.95,-58.3619C214.28,-50.1861 224.575,-38.7025 233.193,-29.0907"/>
<polygon fill="midnightblue" stroke="midnightblue" points="235.865,-31.3528 239.935,-21.5707 230.653,-26.68 235.865,-31.3528"/>
</g>
<!-- Node8&#45;&gt;Node9 -->
<g id="edge20" class="edge"><title>Node8&#45;&gt;Node9</title>
<path fill="none" stroke="midnightblue" d="M175.681,-58.4966C156.938,-49.4378 129.645,-36.2462 108.576,-26.0628"/>
<polygon fill="midnightblue" stroke="midnightblue" points="109.914,-22.8217 99.3869,-21.6212 106.867,-29.1242 109.914,-22.8217"/>
</g>
<!-- Node13&#45;&gt;Node6 -->
<g id="edge34" class="edge"><title>Node13&#45;&gt;Node6</title>
<path fill="none" stroke="midnightblue" d="M440.093,-116.362C436.209,-108.595 430.833,-97.8426 426.185,-88.5458"/>
<polygon fill="midnightblue" stroke="midnightblue" points="429.3,-86.9497 421.697,-79.5707 423.039,-90.0802 429.3,-86.9497"/>
</g>
<!-- Node13&#45;&gt;Node11 -->
<g id="edge36" class="edge"><title>Node13&#45;&gt;Node11</title>
<path fill="none" stroke="midnightblue" d="M463.937,-116.362C479.313,-107.532 501.408,-94.844 518.859,-84.8224"/>
<polygon fill="midnightblue" stroke="midnightblue" points="521.076,-87.5857 528.004,-79.5707 517.59,-81.5154 521.076,-87.5857"/>
</g>
<!-- Node15 -->
<g id="node35" class="node"><title>Node15</title>
<polygon fill="white" stroke="#bfbfbf" points="712.412,-58.5 712.412,-79.5 790.412,-79.5 790.412,-58.5 712.412,-58.5"/>
<text text-anchor="middle" x="751.412" y="-66.5" font-family="Helvetica,sans-Serif" font-size="10.00">../Logging.hpp</text>
</g>
<!-- Node14&#45;&gt;Node15 -->
<g id="edge40" class="edge"><title>Node14&#45;&gt;Node15</title>
<path fill="none" stroke="midnightblue" d="M682.002,-116.362C694.703,-107.696 712.85,-95.3126 727.404,-85.3819"/>
<polygon fill="midnightblue" stroke="midnightblue" points="729.633,-88.0982 735.921,-79.5707 725.688,-82.316 729.633,-88.0982"/>
</g>
<!-- Node16 -->
<g id="node37" class="node"><title>Node16</title>
<polygon fill="white" stroke="#bfbfbf" points="645.912,-58.5 645.912,-79.5 694.912,-79.5 694.912,-58.5 645.912,-58.5"/>
<text text-anchor="middle" x="670.412" y="-66.5" font-family="Helvetica,sans-Serif" font-size="10.00">cstddef</text>
</g>
<!-- Node14&#45;&gt;Node16 -->
<g id="edge42" class="edge"><title>Node14&#45;&gt;Node16</title>
<path fill="none" stroke="midnightblue" d="M667.146,-116.362C667.659,-108.922 668.361,-98.7427 668.982,-89.7276"/>
<polygon fill="midnightblue" stroke="midnightblue" points="672.487,-89.7878 669.683,-79.5707 665.503,-89.3061 672.487,-89.7878"/>
</g>
<!-- Node17&#45;&gt;Node11 -->
<g id="edge48" class="edge"><title>Node17&#45;&gt;Node11</title>
<path fill="none" stroke="midnightblue" d="M548.862,-116.362C548.477,-108.922 547.95,-98.7427 547.484,-89.7276"/>
<polygon fill="midnightblue" stroke="midnightblue" points="550.971,-89.3765 546.959,-79.5707 543.98,-89.7381 550.971,-89.3765"/>
</g>
<!-- Node17&#45;&gt;Node12 -->
<g id="edge46" class="edge"><title>Node17&#45;&gt;Node12</title>
<path fill="none" stroke="midnightblue" d="M538.774,-116.362C530.516,-108.104 518.884,-96.4725 509.215,-86.8029"/>
<polygon fill="midnightblue" stroke="midnightblue" points="511.529,-84.1669 501.983,-79.5707 506.579,-89.1166 511.529,-84.1669"/>
</g>
<!-- Node18 -->
<g id="node43" class="node"><title>Node18</title>
<polygon fill="white" stroke="#bfbfbf" points="584.412,-58.5 584.412,-79.5 628.412,-79.5 628.412,-58.5 584.412,-58.5"/>
<text text-anchor="middle" x="606.412" y="-66.5" font-family="Helvetica,sans-Serif" font-size="10.00">vector</text>
</g>
<!-- Node17&#45;&gt;Node18 -->
<g id="edge50" class="edge"><title>Node17&#45;&gt;Node18</title>
<path fill="none" stroke="midnightblue" d="M559.867,-116.362C567.982,-108.104 579.413,-96.4725 588.916,-86.8029"/>
<polygon fill="midnightblue" stroke="midnightblue" points="591.511,-89.1562 596.024,-79.5707 586.518,-84.2497 591.511,-89.1562"/>
</g>
</g>
</svg>
