<?xml version="1.0" encoding="UTF-8" standalone="no"?>
<!DOCTYPE svg PUBLIC "-//W3C//DTD SVG 1.1//EN"
 "http://www.w3.org/Graphics/SVG/1.1/DTD/svg11.dtd">
<!-- Generated by graphviz version 2.26.3 (20100126.1600)
 -->
<!-- Title: /home/kavonszadkowski/limes&#45;dev/simulation/mars/plugins/joystick_plugin/game_controller_manager/src/GCManagerInterface.h Pages: 1 -->
<svg width="208pt" height="198pt"
 viewBox="0.00 0.00 208.00 198.00" xmlns="http://www.w3.org/2000/svg" xmlns:xlink="http://www.w3.org/1999/xlink">
<g id="graph1" class="graph" transform="scale(1 1) rotate(0) translate(4 194)">
<title>/home/kavonszadkowski/limes&#45;dev/simulation/mars/plugins/joystick_plugin/game_controller_manager/src/GCManagerInterface.h</title>
<polygon fill="white" stroke="white" points="-4,5 -4,-194 205,-194 205,5 -4,5"/>
<!-- Node1 -->
<g id="node1" class="node"><title>Node1</title>
<polygon fill="#bfbfbf" stroke="black" points="22,-116.5 22,-189.5 200,-189.5 200,-116.5 22,-116.5"/>
<text text-anchor="start" x="30" y="-176.5" font-family="Helvetica,sans-Serif" font-size="10.00">/home/kavonszadkowski</text>
<text text-anchor="start" x="30" y="-163.5" font-family="Helvetica,sans-Serif" font-size="10.00">/limes&#45;dev/simulation</text>
<text text-anchor="start" x="30" y="-150.5" font-family="Helvetica,sans-Serif" font-size="10.00">/mars/plugins/joystick</text>
<text text-anchor="start" x="30" y="-137.5" font-family="Helvetica,sans-Serif" font-size="10.00">_plugin/game_controller</text>
<text text-anchor="middle" x="111" y="-124.5" font-family="Helvetica,sans-Serif" font-size="10.00">_manager/src/GCManagerInterface.h</text>
</g>
<!-- Node2 -->
<g id="node3" class="node"><title>Node2</title>
<a xlink:href="../../df/d64/_game_controller_manager_8h.html" target="_top" xlink:title="Copyright 2011, DFKI GmbH Robotics Innovation Center. ">
<polygon fill="white" stroke="black" points="-0.5,-58.5 -0.5,-79.5 130.5,-79.5 130.5,-58.5 -0.5,-58.5"/>
<text text-anchor="middle" x="65" y="-66.5" font-family="Helvetica,sans-Serif" font-size="10.00">GameControllerManager.h</text>
</a>
</g>
<!-- Node1&#45;&gt;Node2 -->
<g id="edge2" class="edge"><title>Node1&#45;&gt;Node2</title>
<path fill="none" stroke="midnightblue" d="M90.9575,-116.401C85.737,-106.868 80.3098,-96.9571 75.7759,-88.6778"/>
<polygon fill="midnightblue" stroke="midnightblue" points="78.8028,-86.9182 70.9298,-79.8283 72.6632,-90.2804 78.8028,-86.9182"/>
</g>
<!-- Node4 -->
<g id="node7" class="node"><title>Node4</title>
<polygon fill="white" stroke="#bfbfbf" points="119,-0.5 119,-21.5 163,-21.5 163,-0.5 119,-0.5"/>
<text text-anchor="middle" x="141" y="-8.5" font-family="Helvetica,sans-Serif" font-size="10.00">vector</text>
</g>
<!-- Node1&#45;&gt;Node4 -->
<g id="edge8" class="edge"><title>Node1&#45;&gt;Node4</title>
<path fill="none" stroke="midnightblue" d="M127.879,-116.209C132.336,-104.837 136.575,-92.1118 139,-80 142.162,-64.2097 142.555,-45.985 142.216,-32.2323"/>
<polygon fill="midnightblue" stroke="midnightblue" points="145.699,-31.7357 141.802,-21.8833 138.704,-32.015 145.699,-31.7357"/>
</g>
<!-- Node3 -->
<g id="node5" class="node"><title>Node3</title>
<polygon fill="white" stroke="#bfbfbf" points="44.5,-0.5 44.5,-21.5 85.5,-21.5 85.5,-0.5 44.5,-0.5"/>
<text text-anchor="middle" x="65" y="-8.5" font-family="Helvetica,sans-Serif" font-size="10.00">string</text>
</g>
<!-- Node2&#45;&gt;Node3 -->
<g id="edge4" class="edge"><title>Node2&#45;&gt;Node3</title>
<path fill="none" stroke="midnightblue" d="M65,-58.3619C65,-50.9219 65,-40.7427 65,-31.7276"/>
<polygon fill="midnightblue" stroke="midnightblue" points="68.5001,-31.5706 65,-21.5707 61.5001,-31.5707 68.5001,-31.5706"/>
</g>
<!-- Node2&#45;&gt;Node4 -->
<g id="edge6" class="edge"><title>Node2&#45;&gt;Node4</title>
<path fill="none" stroke="midnightblue" d="M78.9396,-58.3619C90.1884,-49.7773 106.216,-37.5459 119.165,-27.6636"/>
<polygon fill="midnightblue" stroke="midnightblue" points="121.323,-30.4198 127.149,-21.5707 117.076,-24.8551 121.323,-30.4198"/>
</g>
</g>
</svg>
