<?xml version="1.0" encoding="UTF-8" standalone="no"?>
<!DOCTYPE svg PUBLIC "-//W3C//DTD SVG 1.1//EN"
 "http://www.w3.org/Graphics/SVG/1.1/DTD/svg11.dtd">
<!-- Generated by graphviz version 2.26.3 (20100126.1600)
 -->
<!-- Title: mars::graphics::GuiHelper Pages: 1 -->
<svg width="324pt" height="102pt"
 viewBox="0.00 0.00 324.00 102.00" xmlns="http://www.w3.org/2000/svg" xmlns:xlink="http://www.w3.org/1999/xlink">
<g id="graph1" class="graph" transform="scale(1 1) rotate(0) translate(4 98)">
<title>mars::graphics::GuiHelper</title>
<polygon fill="white" stroke="white" points="-4,5 -4,-98 321,-98 321,5 -4,5"/>
<!-- Node1 -->
<g id="node1" class="node"><title>Node1</title>
<polygon fill="#bfbfbf" stroke="black" points="86.5,-0.5 86.5,-21.5 217.5,-21.5 217.5,-0.5 86.5,-0.5"/>
<text text-anchor="middle" x="152" y="-8.5" font-family="Helvetica,sans-Serif" font-size="10.00">mars::graphics::GuiHelper</text>
</g>
<!-- Node2 -->
<g id="node2" class="node"><title>Node2</title>
<a xlink:href="../../d7/d02/classmars_1_1interfaces_1_1_load_mesh_interface.html" target="_top" xlink:title="mars::interfaces::LoadMesh\lInterface">
<polygon fill="white" stroke="black" points="0,-59 0,-93 138,-93 138,-59 0,-59"/>
<text text-anchor="start" x="8" y="-80" font-family="Helvetica,sans-Serif" font-size="10.00">mars::interfaces::LoadMesh</text>
<text text-anchor="middle" x="69" y="-67" font-family="Helvetica,sans-Serif" font-size="10.00">Interface</text>
</a>
</g>
<!-- Node2&#45;&gt;Node1 -->
<g id="edge2" class="edge"><title>Node2&#45;&gt;Node1</title>
<path fill="none" stroke="midnightblue" d="M98.8735,-52.6051C112.284,-42.1031 127.456,-30.2213 138.143,-21.8521"/>
<polygon fill="midnightblue" stroke="midnightblue" points="96.5224,-50.0008 90.8073,-58.922 100.838,-55.5119 96.5224,-50.0008"/>
</g>
<!-- Node3 -->
<g id="node4" class="node"><title>Node3</title>
<a xlink:href="../../d1/d51/classmars_1_1interfaces_1_1_load_heightmap_interface.html" target="_top" xlink:title="mars::interfaces::LoadHeightmap\lInterface">
<polygon fill="white" stroke="black" points="155.5,-59 155.5,-93 316.5,-93 316.5,-59 155.5,-59"/>
<text text-anchor="start" x="163.5" y="-80" font-family="Helvetica,sans-Serif" font-size="10.00">mars::interfaces::LoadHeightmap</text>
<text text-anchor="middle" x="236" y="-67" font-family="Helvetica,sans-Serif" font-size="10.00">Interface</text>
</a>
</g>
<!-- Node3&#45;&gt;Node1 -->
<g id="edge4" class="edge"><title>Node3&#45;&gt;Node1</title>
<path fill="none" stroke="midnightblue" d="M205.767,-52.6051C192.195,-42.1031 176.84,-30.2213 166.024,-21.8521"/>
<polygon fill="midnightblue" stroke="midnightblue" points="203.879,-55.5702 213.93,-58.922 208.163,-50.0341 203.879,-55.5702"/>
</g>
</g>
</svg>
