<?xml version="1.0" encoding="UTF-8" standalone="no"?>
<!DOCTYPE svg PUBLIC "-//W3C//DTD SVG 1.1//EN"
 "http://www.w3.org/Graphics/SVG/1.1/DTD/svg11.dtd">
<!-- Generated by graphviz version 2.26.3 (20100126.1600)
 -->
<!-- Title: /home/kavonszadkowski/limes&#45;dev/simulation/mars/gui/src/dialogs/DialogControllers.h Pages: 1 -->
<svg width="747pt" height="272pt"
 viewBox="0.00 0.00 747.00 272.00" xmlns="http://www.w3.org/2000/svg" xmlns:xlink="http://www.w3.org/1999/xlink">
<g id="graph1" class="graph" transform="scale(1 1) rotate(0) translate(4 268)">
<title>/home/kavonszadkowski/limes&#45;dev/simulation/mars/gui/src/dialogs/DialogControllers.h</title>
<polygon fill="white" stroke="white" points="-4,5 -4,-268 744,-268 744,5 -4,5"/>
<!-- Node1 -->
<g id="node1" class="node"><title>Node1</title>
<polygon fill="#bfbfbf" stroke="black" points="162.5,-203 162.5,-263 287.5,-263 287.5,-203 162.5,-203"/>
<text text-anchor="start" x="170.5" y="-250" font-family="Helvetica,sans-Serif" font-size="10.00">/home/kavonszadkowski</text>
<text text-anchor="start" x="170.5" y="-237" font-family="Helvetica,sans-Serif" font-size="10.00">/limes&#45;dev/simulation</text>
<text text-anchor="start" x="170.5" y="-224" font-family="Helvetica,sans-Serif" font-size="10.00">/mars/gui/src/dialogs</text>
<text text-anchor="middle" x="225" y="-211" font-family="Helvetica,sans-Serif" font-size="10.00">/DialogControllers.h</text>
</g>
<!-- Node2 -->
<g id="node3" class="node"><title>Node2</title>
<polygon fill="white" stroke="#bfbfbf" points="14.5,-137.5 14.5,-158.5 159.5,-158.5 159.5,-137.5 14.5,-137.5"/>
<text text-anchor="middle" x="87" y="-145.5" font-family="Helvetica,sans-Serif" font-size="10.00">mars/main_gui/BaseWidget.h</text>
</g>
<!-- Node1&#45;&gt;Node2 -->
<g id="edge2" class="edge"><title>Node1&#45;&gt;Node2</title>
<path fill="none" stroke="midnightblue" d="M175.958,-202.793C154.715,-189.709 130.711,-174.923 112.996,-164.012"/>
<polygon fill="midnightblue" stroke="midnightblue" points="114.703,-160.953 104.353,-158.689 111.032,-166.913 114.703,-160.953"/>
</g>
<!-- Node3 -->
<g id="node5" class="node"><title>Node3</title>
<polygon fill="white" stroke="#bfbfbf" points="0,-65.5 0,-86.5 156,-86.5 156,-65.5 0,-65.5"/>
<text text-anchor="middle" x="78" y="-73.5" font-family="Helvetica,sans-Serif" font-size="10.00">mars/main_gui/PropertyDialog.h</text>
</g>
<!-- Node1&#45;&gt;Node3 -->
<g id="edge4" class="edge"><title>Node1&#45;&gt;Node3</title>
<path fill="none" stroke="midnightblue" d="M213.353,-202.8C203.708,-180.699 188.301,-151.024 168,-130 152.155,-113.591 130.287,-100.318 112.074,-91.0375"/>
<polygon fill="midnightblue" stroke="midnightblue" points="113.454,-87.8159 102.935,-86.5527 110.37,-94.1001 113.454,-87.8159"/>
</g>
<!-- Node4 -->
<g id="node7" class="node"><title>Node4</title>
<polygon fill="white" stroke="#bfbfbf" points="173.5,-59 173.5,-93 276.5,-93 276.5,-59 173.5,-59"/>
<text text-anchor="start" x="181.5" y="-80" font-family="Helvetica,sans-Serif" font-size="10.00">mars/interfaces/sim</text>
<text text-anchor="middle" x="225" y="-67" font-family="Helvetica,sans-Serif" font-size="10.00">/ControlCenter.h</text>
</g>
<!-- Node1&#45;&gt;Node4 -->
<g id="edge6" class="edge"><title>Node1&#45;&gt;Node4</title>
<path fill="none" stroke="midnightblue" d="M225,-202.729C225,-173.938 225,-131.015 225,-103.263"/>
<polygon fill="midnightblue" stroke="midnightblue" points="228.5,-103.082 225,-93.0819 221.5,-103.082 228.5,-103.082"/>
</g>
<!-- Node5 -->
<g id="node9" class="node"><title>Node5</title>
<polygon fill="white" stroke="#bfbfbf" points="371,-131 371,-165 495,-165 495,-131 371,-131"/>
<text text-anchor="start" x="379" y="-152" font-family="Helvetica,sans-Serif" font-size="10.00">mars/interfaces/graphics</text>
<text text-anchor="middle" x="433" y="-139" font-family="Helvetica,sans-Serif" font-size="10.00">/GraphicsEventClient.h</text>
</g>
<!-- Node1&#45;&gt;Node5 -->
<g id="edge8" class="edge"><title>Node1&#45;&gt;Node5</title>
<path fill="none" stroke="midnightblue" d="M287.689,-207.382C317.78,-195.085 353.381,-180.537 381.813,-168.918"/>
<polygon fill="midnightblue" stroke="midnightblue" points="383.229,-172.12 391.162,-165.097 380.581,-165.64 383.229,-172.12"/>
</g>
<!-- Node6 -->
<g id="node11" class="node"><title>Node6</title>
<a xlink:href="../../d0/dfb/_controller_handler_8h.html" target="_top" xlink:title="ControllerHandler.h">
<polygon fill="white" stroke="black" points="252.5,-137.5 252.5,-158.5 353.5,-158.5 353.5,-137.5 252.5,-137.5"/>
<text text-anchor="middle" x="303" y="-145.5" font-family="Helvetica,sans-Serif" font-size="10.00">ControllerHandler.h</text>
</a>
</g>
<!-- Node1&#45;&gt;Node6 -->
<g id="edge10" class="edge"><title>Node1&#45;&gt;Node6</title>
<path fill="none" stroke="midnightblue" d="M252.72,-202.793C263.885,-190.625 276.401,-176.986 286.152,-166.36"/>
<polygon fill="midnightblue" stroke="midnightblue" points="288.82,-168.629 293.002,-158.895 283.662,-163.896 288.82,-168.629"/>
</g>
<!-- Node6&#45;&gt;Node3 -->
<g id="edge12" class="edge"><title>Node6&#45;&gt;Node3</title>
<path fill="none" stroke="midnightblue" d="M269.8,-137.376C230.221,-124.711 163.998,-103.519 120.657,-89.6504"/>
<polygon fill="midnightblue" stroke="midnightblue" points="121.56,-86.2645 110.969,-86.5501 119.427,-92.9315 121.56,-86.2645"/>
</g>
<!-- Node6&#45;&gt;Node4 -->
<g id="edge14" class="edge"><title>Node6&#45;&gt;Node4</title>
<path fill="none" stroke="midnightblue" d="M291.491,-137.376C280.934,-127.632 264.91,-112.84 251.238,-100.22"/>
<polygon fill="midnightblue" stroke="midnightblue" points="253.241,-97.3054 243.519,-93.0944 248.493,-102.449 253.241,-97.3054"/>
</g>
<!-- Node7 -->
<g id="node15" class="node"><title>Node7</title>
<polygon fill="white" stroke="#bfbfbf" points="293.5,-59 293.5,-93 402.5,-93 402.5,-59 293.5,-59"/>
<text text-anchor="start" x="301.5" y="-80" font-family="Helvetica,sans-Serif" font-size="10.00">mars/interfaces/core</text>
<text text-anchor="middle" x="348" y="-67" font-family="Helvetica,sans-Serif" font-size="10.00">_objects_exchange.h</text>
</g>
<!-- Node6&#45;&gt;Node7 -->
<g id="edge16" class="edge"><title>Node6&#45;&gt;Node7</title>
<path fill="none" stroke="midnightblue" d="M309.64,-137.376C315.503,-127.996 324.288,-113.939 331.973,-101.644"/>
<polygon fill="midnightblue" stroke="midnightblue" points="334.984,-103.429 337.316,-93.0944 329.048,-99.7194 334.984,-103.429"/>
</g>
<!-- Node8 -->
<g id="node17" class="node"><title>Node8</title>
<polygon fill="white" stroke="#bfbfbf" points="419.5,-59 419.5,-93 548.5,-93 548.5,-59 419.5,-59"/>
<text text-anchor="start" x="427.5" y="-80" font-family="Helvetica,sans-Serif" font-size="10.00">mars/interfaces/Controller</text>
<text text-anchor="middle" x="484" y="-67" font-family="Helvetica,sans-Serif" font-size="10.00">Data.h</text>
</g>
<!-- Node6&#45;&gt;Node8 -->
<g id="edge18" class="edge"><title>Node6&#45;&gt;Node8</title>
<path fill="none" stroke="midnightblue" d="M329.707,-137.376C356.379,-126.767 398.09,-110.174 431.423,-96.9146"/>
<polygon fill="midnightblue" stroke="midnightblue" points="433.029,-100.043 441.027,-93.0944 430.441,-93.5385 433.029,-100.043"/>
</g>
<!-- Node9 -->
<g id="node19" class="node"><title>Node9</title>
<a xlink:href="../../d6/d43/_selection_dialog_8h.html" target="_top" xlink:title="The SelectionDialog class is used to select a sorted list of objects. ">
<polygon fill="white" stroke="black" points="565.5,-65.5 565.5,-86.5 658.5,-86.5 658.5,-65.5 565.5,-65.5"/>
<text text-anchor="middle" x="612" y="-73.5" font-family="Helvetica,sans-Serif" font-size="10.00">SelectionDialog.h</text>
</a>
</g>
<!-- Node6&#45;&gt;Node9 -->
<g id="edge20" class="edge"><title>Node6&#45;&gt;Node9</title>
<path fill="none" stroke="midnightblue" d="M335.277,-137.43C343.904,-134.804 353.261,-132.133 362,-130 447.619,-109.108 471.596,-115.755 557,-94 562.043,-92.7154 567.297,-91.2138 572.47,-89.6355"/>
<polygon fill="midnightblue" stroke="midnightblue" points="573.763,-92.8972 582.241,-86.5428 571.651,-86.2235 573.763,-92.8972"/>
</g>
<!-- Node10 -->
<g id="node21" class="node"><title>Node10</title>
<polygon fill="white" stroke="#bfbfbf" points="517,-0.5 517,-21.5 559,-21.5 559,-0.5 517,-0.5"/>
<text text-anchor="middle" x="538" y="-8.5" font-family="Helvetica,sans-Serif" font-size="10.00">QtGui</text>
</g>
<!-- Node9&#45;&gt;Node10 -->
<g id="edge22" class="edge"><title>Node9&#45;&gt;Node10</title>
<path fill="none" stroke="midnightblue" d="M599.78,-65.2666C588.358,-55.2334 571.104,-40.078 557.731,-28.3311"/>
<polygon fill="midnightblue" stroke="midnightblue" points="559.815,-25.5035 549.992,-21.5337 555.196,-30.7628 559.815,-25.5035"/>
</g>
<!-- Node11 -->
<g id="node23" class="node"><title>Node11</title>
<polygon fill="white" stroke="#bfbfbf" points="576.5,-0.5 576.5,-21.5 647.5,-21.5 647.5,-0.5 576.5,-0.5"/>
<text text-anchor="middle" x="612" y="-8.5" font-family="Helvetica,sans-Serif" font-size="10.00">QListWidget</text>
</g>
<!-- Node9&#45;&gt;Node11 -->
<g id="edge24" class="edge"><title>Node9&#45;&gt;Node11</title>
<path fill="none" stroke="midnightblue" d="M612,-65.2666C612,-56.1799 612,-42.8919 612,-31.7395"/>
<polygon fill="midnightblue" stroke="midnightblue" points="615.5,-31.5337 612,-21.5337 608.5,-31.5337 615.5,-31.5337"/>
</g>
<!-- Node12 -->
<g id="node25" class="node"><title>Node12</title>
<polygon fill="white" stroke="#bfbfbf" points="664.5,-0.5 664.5,-21.5 739.5,-21.5 739.5,-0.5 664.5,-0.5"/>
<text text-anchor="middle" x="702" y="-8.5" font-family="Helvetica,sans-Serif" font-size="10.00">QPushButton</text>
</g>
<!-- Node9&#45;&gt;Node12 -->
<g id="edge26" class="edge"><title>Node9&#45;&gt;Node12</title>
<path fill="none" stroke="midnightblue" d="M626.862,-65.2666C641.016,-55.0441 662.533,-39.5043 678.919,-27.6699"/>
<polygon fill="midnightblue" stroke="midnightblue" points="681.357,-30.226 687.415,-21.5337 677.259,-24.5513 681.357,-30.226"/>
</g>
</g>
</svg>
