<?xml version="1.0" encoding="UTF-8" standalone="no"?>
<!DOCTYPE svg PUBLIC "-//W3C//DTD SVG 1.1//EN"
 "http://www.w3.org/Graphics/SVG/1.1/DTD/svg11.dtd">
<!-- Generated by graphviz version 2.26.3 (20100126.1600)
 -->
<!-- Title: mars::graphics::HUDLabel Pages: 1 -->
<svg width="154pt" height="162pt"
 viewBox="0.00 0.00 154.00 162.00" xmlns="http://www.w3.org/2000/svg" xmlns:xlink="http://www.w3.org/1999/xlink">
<g id="graph1" class="graph" transform="scale(1 1) rotate(0) translate(4 158)">
<title>mars::graphics::HUDLabel</title>
<polygon fill="white" stroke="white" points="-4,5 -4,-158 151,-158 151,5 -4,5"/>
<!-- Node1 -->
<g id="node1" class="node"><title>Node1</title>
<polygon fill="#bfbfbf" stroke="black" points="6.5,-0.5 6.5,-21.5 139.5,-21.5 139.5,-0.5 6.5,-0.5"/>
<text text-anchor="middle" x="73" y="-8.5" font-family="Helvetica,sans-Serif" font-size="10.00">mars::graphics::HUDLabel</text>
</g>
<!-- Node2 -->
<g id="node2" class="node"><title>Node2</title>
<a xlink:href="../../dd/dbd/classmars_1_1graphics_1_1_h_u_d_element.html" target="_top" xlink:title="mars::graphics::HUDElement">
<polygon fill="white" stroke="black" points="0,-60.5 0,-81.5 146,-81.5 146,-60.5 0,-60.5"/>
<text text-anchor="middle" x="73" y="-68.5" font-family="Helvetica,sans-Serif" font-size="10.00">mars::graphics::HUDElement</text>
</a>
</g>
<!-- Node2&#45;&gt;Node1 -->
<g id="edge2" class="edge"><title>Node2&#45;&gt;Node1</title>
<path fill="none" stroke="midnightblue" d="M73,-50.2312C73,-40.5922 73,-29.5444 73,-21.6339"/>
<polygon fill="midnightblue" stroke="midnightblue" points="69.5001,-50.2732 73,-60.2732 76.5001,-50.2732 69.5001,-50.2732"/>
</g>
<!-- Node3 -->
<g id="node4" class="node"><title>Node3</title>
<polygon fill="white" stroke="#bfbfbf" points="52.5,-132.5 52.5,-153.5 93.5,-153.5 93.5,-132.5 52.5,-132.5"/>
<text text-anchor="middle" x="73" y="-140.5" font-family="Helvetica,sans-Serif" font-size="10.00">string</text>
</g>
<!-- Node3&#45;&gt;Node2 -->
<g id="edge4" class="edge"><title>Node3&#45;&gt;Node2</title>
<path fill="none" stroke="#9a32cd" stroke-dasharray="5,2" d="M73,-122.235C73,-108.969 73,-92.3188 73,-81.6674"/>
<polygon fill="#9a32cd" stroke="#9a32cd" points="69.5001,-122.376 73,-132.376 76.5001,-122.376 69.5001,-122.376"/>
<text text-anchor="middle" x="100" y="-104.5" font-family="Helvetica,sans-Serif" font-size="10.00"> config_path</text>
</g>
</g>
</svg>
