<?xml version="1.0" encoding="UTF-8" standalone="no"?>
<!DOCTYPE svg PUBLIC "-//W3C//DTD SVG 1.1//EN"
 "http://www.w3.org/Graphics/SVG/1.1/DTD/svg11.dtd">
<!-- Generated by graphviz version 2.36.0 (20140111.2315)
 -->
<!-- Title: /media/kavonszadkowski/work/marsdocs/mars/gui/src/menus/MenuFile.h Pages: 1 -->
<svg width="279pt" height="128pt"
 viewBox="0.00 0.00 279.00 128.00" xmlns="http://www.w3.org/2000/svg" xmlns:xlink="http://www.w3.org/1999/xlink">
<g id="graph0" class="graph" transform="scale(1 1) rotate(0) translate(4 124)">
<title>/media/kavonszadkowski/work/marsdocs/mars/gui/src/menus/MenuFile.h</title>
<polygon fill="white" stroke="none" points="-4,4 -4,-124 275,-124 275,4 -4,4"/>
<!-- Node1 -->
<g id="node1" class="node"><title>Node1</title>
<polygon fill="#bfbfbf" stroke="black" points="71.5,-78.5 71.5,-119.5 198.5,-119.5 198.5,-78.5 71.5,-78.5"/>
<text text-anchor="start" x="79.5" y="-107.5" font-family="Helvetica,sans-Serif" font-size="10.00">/media/kavonszadkowski</text>
<text text-anchor="start" x="79.5" y="-96.5" font-family="Helvetica,sans-Serif" font-size="10.00">/work/marsdocs/mars/gui</text>
<text text-anchor="middle" x="135" y="-85.5" font-family="Helvetica,sans-Serif" font-size="10.00">/src/menus/MenuFile.h</text>
</g>
<!-- Node2 -->
<g id="node2" class="node"><title>Node2</title>
<g id="a_node2"><a xlink:href="../../da/d1e/_mars_gui_8cpp.html" target="_top" xlink:title="/media/kavonszadkowski\l/work/marsdocs/mars/gui\l/src/MarsGui.cpp">
<polygon fill="white" stroke="black" points="-0.5,-0.5 -0.5,-41.5 126.5,-41.5 126.5,-0.5 -0.5,-0.5"/>
<text text-anchor="start" x="7.5" y="-29.5" font-family="Helvetica,sans-Serif" font-size="10.00">/media/kavonszadkowski</text>
<text text-anchor="start" x="7.5" y="-18.5" font-family="Helvetica,sans-Serif" font-size="10.00">/work/marsdocs/mars/gui</text>
<text text-anchor="middle" x="63" y="-7.5" font-family="Helvetica,sans-Serif" font-size="10.00">/src/MarsGui.cpp</text>
</a>
</g>
</g>
<!-- Node1&#45;&gt;Node2 -->
<g id="edge1" class="edge"><title>Node1&#45;&gt;Node2</title>
<path fill="none" stroke="midnightblue" d="M109.341,-70.9158C100.14,-61.2029 89.9528,-50.4502 81.479,-41.5056"/>
<polygon fill="midnightblue" stroke="midnightblue" points="107.04,-73.5757 116.458,-78.4281 112.122,-68.7614 107.04,-73.5757"/>
</g>
<!-- Node3 -->
<g id="node3" class="node"><title>Node3</title>
<g id="a_node3"><a xlink:href="../../d5/d64/_menu_file_8cpp.html" target="_top" xlink:title="/media/kavonszadkowski\l/work/marsdocs/mars/gui\l/src/menus/MenuFile.cpp">
<polygon fill="white" stroke="black" points="144.5,-0.5 144.5,-41.5 271.5,-41.5 271.5,-0.5 144.5,-0.5"/>
<text text-anchor="start" x="152.5" y="-29.5" font-family="Helvetica,sans-Serif" font-size="10.00">/media/kavonszadkowski</text>
<text text-anchor="start" x="152.5" y="-18.5" font-family="Helvetica,sans-Serif" font-size="10.00">/work/marsdocs/mars/gui</text>
<text text-anchor="middle" x="208" y="-7.5" font-family="Helvetica,sans-Serif" font-size="10.00">/src/menus/MenuFile.cpp</text>
</a>
</g>
</g>
<!-- Node1&#45;&gt;Node3 -->
<g id="edge2" class="edge"><title>Node1&#45;&gt;Node3</title>
<path fill="none" stroke="midnightblue" d="M160.738,-71.204C170.14,-61.416 180.588,-50.5388 189.264,-41.5056"/>
<polygon fill="midnightblue" stroke="midnightblue" points="158.202,-68.7915 153.799,-78.4281 163.251,-73.6407 158.202,-68.7915"/>
</g>
</g>
</svg>
