<?xml version="1.0" encoding="UTF-8" standalone="no"?>
<!DOCTYPE svg PUBLIC "-//W3C//DTD SVG 1.1//EN"
 "http://www.w3.org/Graphics/SVG/1.1/DTD/svg11.dtd">
<!-- Generated by graphviz version 2.36.0 (20140111.2315)
 -->
<!-- Title: /media/kavonszadkowski/work/marsdocs/mars/app/src/MARS.cpp Pages: 1 -->
<svg width="1687pt" height="186pt"
 viewBox="0.00 0.00 1687.00 186.00" xmlns="http://www.w3.org/2000/svg" xmlns:xlink="http://www.w3.org/1999/xlink">
<g id="graph0" class="graph" transform="scale(1 1) rotate(0) translate(4 182)">
<title>/media/kavonszadkowski/work/marsdocs/mars/app/src/MARS.cpp</title>
<polygon fill="white" stroke="none" points="-4,4 -4,-182 1683,-182 1683,4 -4,4"/>
<!-- Node1 -->
<g id="node1" class="node"><title>Node1</title>
<polygon fill="#bfbfbf" stroke="black" points="901,-136.5 901,-177.5 1031,-177.5 1031,-136.5 901,-136.5"/>
<text text-anchor="start" x="909" y="-165.5" font-family="Helvetica,sans-Serif" font-size="10.00">/media/kavonszadkowski</text>
<text text-anchor="start" x="909" y="-154.5" font-family="Helvetica,sans-Serif" font-size="10.00">/work/marsdocs/mars/app</text>
<text text-anchor="middle" x="966" y="-143.5" font-family="Helvetica,sans-Serif" font-size="10.00">/src/MARS.cpp</text>
</g>
<!-- Node2 -->
<g id="node2" class="node"><title>Node2</title>
<g id="a_node2"><a xlink:href="../../d9/d77/_m_a_r_s_8h.html" target="_top" xlink:title="MARS.h">
<polygon fill="white" stroke="black" points="66,-74.5 66,-93.5 120,-93.5 120,-74.5 66,-74.5"/>
<text text-anchor="middle" x="93" y="-81.5" font-family="Helvetica,sans-Serif" font-size="10.00">MARS.h</text>
</a>
</g>
</g>
<!-- Node1&#45;&gt;Node2 -->
<g id="edge1" class="edge"><title>Node1&#45;&gt;Node2</title>
<path fill="none" stroke="midnightblue" d="M900.959,-151.778C772.573,-143.282 477.543,-122.963 230,-100 196.093,-96.8547 157.545,-92.5707 129.995,-89.3861"/>
<polygon fill="midnightblue" stroke="midnightblue" points="130.345,-85.9033 120.008,-88.2241 129.536,-92.8564 130.345,-85.9033"/>
</g>
<!-- Node5 -->
<g id="node5" class="node"><title>Node5</title>
<g id="a_node5"><a xlink:href="../../d6/d84/app_2src_2_graphics_timer_8h.html" target="_top" xlink:title="GraphicsTimer.h">
<polygon fill="white" stroke="black" points="239.5,-74.5 239.5,-93.5 328.5,-93.5 328.5,-74.5 239.5,-74.5"/>
<text text-anchor="middle" x="284" y="-81.5" font-family="Helvetica,sans-Serif" font-size="10.00">GraphicsTimer.h</text>
</a>
</g>
</g>
<!-- Node1&#45;&gt;Node5 -->
<g id="edge4" class="edge"><title>Node1&#45;&gt;Node5</title>
<path fill="none" stroke="midnightblue" d="M900.987,-153.567C787.183,-148.551 544.776,-134.492 343,-100 336.71,-98.9248 330.106,-97.5225 323.685,-96.0071"/>
<polygon fill="midnightblue" stroke="midnightblue" points="324.365,-92.5699 313.817,-93.5635 322.682,-99.3647 324.365,-92.5699"/>
</g>
<!-- Node9 -->
<g id="node9" class="node"><title>Node9</title>
<polygon fill="white" stroke="#bfbfbf" points="430.5,-1 430.5,-31 537.5,-31 537.5,-1 430.5,-1"/>
<text text-anchor="start" x="438.5" y="-19" font-family="Helvetica,sans-Serif" font-size="10.00">mars/interfaces/sim</text>
<text text-anchor="middle" x="484" y="-8" font-family="Helvetica,sans-Serif" font-size="10.00">/SimulatorInterface.h</text>
</g>
<!-- Node1&#45;&gt;Node9 -->
<g id="edge12" class="edge"><title>Node1&#45;&gt;Node9</title>
<path fill="none" stroke="midnightblue" d="M900.93,-154.644C755.023,-150.93 411.728,-138.186 377,-100 353.45,-74.1047 393.482,-50.2566 431.107,-34.8329"/>
<polygon fill="midnightblue" stroke="midnightblue" points="432.562,-38.0216 440.58,-31.097 429.994,-31.5097 432.562,-38.0216"/>
</g>
<!-- Node10 -->
<g id="node10" class="node"><title>Node10</title>
<polygon fill="white" stroke="#bfbfbf" points="385.5,-74.5 385.5,-93.5 526.5,-93.5 526.5,-74.5 385.5,-74.5"/>
<text text-anchor="middle" x="456" y="-81.5" font-family="Helvetica,sans-Serif" font-size="10.00">lib_manager/LibManager.hpp</text>
</g>
<!-- Node1&#45;&gt;Node10 -->
<g id="edge9" class="edge"><title>Node1&#45;&gt;Node10</title>
<path fill="none" stroke="midnightblue" d="M900.637,-148.639C816.218,-138.867 664.815,-120.448 536,-100 527.28,-98.6157 518.05,-97.0136 509.08,-95.3824"/>
<polygon fill="midnightblue" stroke="midnightblue" points="509.572,-91.9142 499.103,-93.5384 508.3,-98.7976 509.572,-91.9142"/>
</g>
<!-- Node11 -->
<g id="node11" class="node"><title>Node11</title>
<polygon fill="white" stroke="#bfbfbf" points="545,-74.5 545,-93.5 687,-93.5 687,-74.5 545,-74.5"/>
<text text-anchor="middle" x="616" y="-81.5" font-family="Helvetica,sans-Serif" font-size="10.00">lib_manager/LibInterface.hpp</text>
</g>
<!-- Node1&#45;&gt;Node11 -->
<g id="edge10" class="edge"><title>Node1&#45;&gt;Node11</title>
<path fill="none" stroke="midnightblue" d="M900.988,-142.812C833.76,-129.174 730.113,-108.149 668.083,-95.5655"/>
<polygon fill="midnightblue" stroke="midnightblue" points="668.621,-92.1032 658.124,-93.5452 667.229,-98.9635 668.621,-92.1032"/>
</g>
<!-- Node12 -->
<g id="node12" class="node"><title>Node12</title>
<polygon fill="white" stroke="#bfbfbf" points="705.5,-74.5 705.5,-93.5 836.5,-93.5 836.5,-74.5 705.5,-74.5"/>
<text text-anchor="middle" x="771" y="-81.5" font-family="Helvetica,sans-Serif" font-size="10.00">mars/main_gui/MainGUI.h</text>
</g>
<!-- Node1&#45;&gt;Node12 -->
<g id="edge11" class="edge"><title>Node1&#45;&gt;Node12</title>
<path fill="none" stroke="midnightblue" d="M912.199,-136.411C877.459,-123.762 833.387,-107.715 803.801,-96.9429"/>
<polygon fill="midnightblue" stroke="midnightblue" points="804.951,-93.637 794.357,-93.5045 802.556,-100.215 804.951,-93.637"/>
</g>
<!-- Node13 -->
<g id="node13" class="node"><title>Node13</title>
<polygon fill="white" stroke="#bfbfbf" points="854.5,-69 854.5,-99 957.5,-99 957.5,-69 854.5,-69"/>
<text text-anchor="start" x="862.5" y="-87" font-family="Helvetica,sans-Serif" font-size="10.00">mars/interfaces/gui</text>
<text text-anchor="middle" x="906" y="-76" font-family="Helvetica,sans-Serif" font-size="10.00">/MarsGuiInterface.h</text>
</g>
<!-- Node1&#45;&gt;Node13 -->
<g id="edge13" class="edge"><title>Node1&#45;&gt;Node13</title>
<path fill="none" stroke="midnightblue" d="M949.287,-136.223C941.563,-127.083 932.367,-116.2 924.441,-106.822"/>
<polygon fill="midnightblue" stroke="midnightblue" points="927,-104.427 917.872,-99.0485 921.653,-108.946 927,-104.427"/>
</g>
<!-- Node14 -->
<g id="node14" class="node"><title>Node14</title>
<polygon fill="white" stroke="#bfbfbf" points="975.5,-69 975.5,-99 1078.5,-99 1078.5,-69 975.5,-69"/>
<text text-anchor="start" x="983.5" y="-87" font-family="Helvetica,sans-Serif" font-size="10.00">mars/interfaces/sim</text>
<text text-anchor="middle" x="1027" y="-76" font-family="Helvetica,sans-Serif" font-size="10.00">/ControlCenter.h</text>
</g>
<!-- Node1&#45;&gt;Node14 -->
<g id="edge14" class="edge"><title>Node1&#45;&gt;Node14</title>
<path fill="none" stroke="midnightblue" d="M982.992,-136.223C990.844,-127.083 1000.19,-116.2 1008.25,-106.822"/>
<polygon fill="midnightblue" stroke="midnightblue" points="1011.07,-108.914 1014.93,-99.0485 1005.76,-104.353 1011.07,-108.914"/>
</g>
<!-- Node15 -->
<g id="node15" class="node"><title>Node15</title>
<polygon fill="white" stroke="#bfbfbf" points="1096.5,-74.5 1096.5,-93.5 1197.5,-93.5 1197.5,-74.5 1096.5,-74.5"/>
<text text-anchor="middle" x="1147" y="-81.5" font-family="Helvetica,sans-Serif" font-size="10.00">mars/utils/Thread.h</text>
</g>
<!-- Node1&#45;&gt;Node15 -->
<g id="edge15" class="edge"><title>Node1&#45;&gt;Node15</title>
<path fill="none" stroke="midnightblue" d="M1015.94,-136.411C1047.81,-123.909 1088.15,-108.087 1115.59,-97.3195"/>
<polygon fill="midnightblue" stroke="midnightblue" points="1117.05,-100.507 1125.08,-93.5968 1114.5,-93.9904 1117.05,-100.507"/>
</g>
<!-- Node16 -->
<g id="node16" class="node"><title>Node16</title>
<polygon fill="white" stroke="#bfbfbf" points="1216,-74.5 1216,-93.5 1308,-93.5 1308,-74.5 1216,-74.5"/>
<text text-anchor="middle" x="1262" y="-81.5" font-family="Helvetica,sans-Serif" font-size="10.00">mars/utils/misc.h</text>
</g>
<!-- Node1&#45;&gt;Node16 -->
<g id="edge16" class="edge"><title>Node1&#45;&gt;Node16</title>
<path fill="none" stroke="midnightblue" d="M1031.08,-141.417C1079.43,-130.435 1146.96,-114.791 1206,-100 1210.94,-98.7629 1216.11,-97.4291 1221.23,-96.0851"/>
<polygon fill="midnightblue" stroke="midnightblue" points="1222.18,-99.4562 1230.94,-93.5108 1220.38,-92.6899 1222.18,-99.4562"/>
</g>
<!-- Node17 -->
<g id="node17" class="node"><title>Node17</title>
<polygon fill="white" stroke="#bfbfbf" points="1326.5,-69 1326.5,-99 1485.5,-99 1485.5,-69 1326.5,-69"/>
<text text-anchor="start" x="1334.5" y="-87" font-family="Helvetica,sans-Serif" font-size="10.00">mars/cfg_manager/CFGManager</text>
<text text-anchor="middle" x="1406" y="-76" font-family="Helvetica,sans-Serif" font-size="10.00">Interface.h</text>
</g>
<!-- Node1&#45;&gt;Node17 -->
<g id="edge17" class="edge"><title>Node1&#45;&gt;Node17</title>
<path fill="none" stroke="midnightblue" d="M1031.04,-145.797C1099.39,-135.037 1210.32,-117.461 1316.5,-100.074"/>
<polygon fill="midnightblue" stroke="midnightblue" points="1317.13,-103.518 1326.43,-98.4463 1315.99,-96.6101 1317.13,-103.518"/>
</g>
<!-- Node18 -->
<g id="node18" class="node"><title>Node18</title>
<polygon fill="white" stroke="#bfbfbf" points="1503.5,-74.5 1503.5,-93.5 1540.5,-93.5 1540.5,-74.5 1503.5,-74.5"/>
<text text-anchor="middle" x="1522" y="-81.5" font-family="Helvetica,sans-Serif" font-size="10.00">QDir</text>
</g>
<!-- Node1&#45;&gt;Node18 -->
<g id="edge18" class="edge"><title>Node1&#45;&gt;Node18</title>
<path fill="none" stroke="midnightblue" d="M1031.22,-152.222C1152.72,-144.667 1409.1,-126.147 1494,-100 1495.7,-99.4755 1497.42,-98.8445 1499.13,-98.1422"/>
<polygon fill="midnightblue" stroke="midnightblue" points="1501.04,-101.104 1508.5,-93.5851 1497.98,-94.8075 1501.04,-101.104"/>
</g>
<!-- Node19 -->
<g id="node19" class="node"><title>Node19</title>
<polygon fill="white" stroke="#bfbfbf" points="1559,-74.5 1559,-93.5 1611,-93.5 1611,-74.5 1559,-74.5"/>
<text text-anchor="middle" x="1585" y="-81.5" font-family="Helvetica,sans-Serif" font-size="10.00">getopt.h</text>
</g>
<!-- Node1&#45;&gt;Node19 -->
<g id="edge19" class="edge"><title>Node1&#45;&gt;Node19</title>
<path fill="none" stroke="midnightblue" d="M1031.34,-156.035C1140.3,-154.7 1365.29,-145.986 1549,-100 1551.99,-99.2514 1555.06,-98.2946 1558.08,-97.2273"/>
<polygon fill="midnightblue" stroke="midnightblue" points="1559.38,-100.474 1567.41,-93.5613 1556.83,-93.9576 1559.38,-100.474"/>
</g>
<!-- Node20 -->
<g id="node20" class="node"><title>Node20</title>
<polygon fill="white" stroke="#bfbfbf" points="1629,-74.5 1629,-93.5 1679,-93.5 1679,-74.5 1629,-74.5"/>
<text text-anchor="middle" x="1654" y="-81.5" font-family="Helvetica,sans-Serif" font-size="10.00">signal.h</text>
</g>
<!-- Node1&#45;&gt;Node20 -->
<g id="edge20" class="edge"><title>Node1&#45;&gt;Node20</title>
<path fill="none" stroke="midnightblue" d="M1031.15,-153.15C1173.79,-146.468 1509.81,-128.191 1620,-100 1622.66,-99.3189 1625.38,-98.4492 1628.06,-97.4726"/>
<polygon fill="midnightblue" stroke="midnightblue" points="1629.53,-100.654 1637.44,-93.6123 1626.86,-94.18 1629.53,-100.654"/>
</g>
<!-- Node3 -->
<g id="node3" class="node"><title>Node3</title>
<polygon fill="white" stroke="#bfbfbf" points="0,-6.5 0,-25.5 54,-25.5 54,-6.5 0,-6.5"/>
<text text-anchor="middle" x="27" y="-13.5" font-family="Helvetica,sans-Serif" font-size="10.00">iostream</text>
</g>
<!-- Node2&#45;&gt;Node3 -->
<g id="edge2" class="edge"><title>Node2&#45;&gt;Node3</title>
<path fill="none" stroke="midnightblue" d="M84.3717,-74.3717C73.9547,-63.9547 56.2173,-46.2173 43.2162,-33.2162"/>
<polygon fill="midnightblue" stroke="midnightblue" points="45.3871,-30.4373 35.8411,-25.8411 40.4373,-35.3871 45.3871,-30.4373"/>
</g>
<!-- Node4 -->
<g id="node4" class="node"><title>Node4</title>
<polygon fill="white" stroke="#bfbfbf" points="72.5,-6.5 72.5,-25.5 113.5,-25.5 113.5,-6.5 72.5,-6.5"/>
<text text-anchor="middle" x="93" y="-13.5" font-family="Helvetica,sans-Serif" font-size="10.00">string</text>
</g>
<!-- Node2&#45;&gt;Node4 -->
<g id="edge3" class="edge"><title>Node2&#45;&gt;Node4</title>
<path fill="none" stroke="midnightblue" d="M93,-74.3717C93,-64.6426 93,-48.528 93,-35.8504"/>
<polygon fill="midnightblue" stroke="midnightblue" points="96.5001,-35.8411 93,-25.8411 89.5001,-35.8412 96.5001,-35.8411"/>
</g>
<!-- Node6 -->
<g id="node6" class="node"><title>Node6</title>
<polygon fill="white" stroke="#bfbfbf" points="131.5,-6.5 131.5,-25.5 184.5,-25.5 184.5,-6.5 131.5,-6.5"/>
<text text-anchor="middle" x="158" y="-13.5" font-family="Helvetica,sans-Serif" font-size="10.00">QObject</text>
</g>
<!-- Node5&#45;&gt;Node6 -->
<g id="edge5" class="edge"><title>Node5&#45;&gt;Node6</title>
<path fill="none" stroke="midnightblue" d="M267.528,-74.3717C246.115,-63.1557 208.501,-43.4532 183.417,-30.3136"/>
<polygon fill="midnightblue" stroke="midnightblue" points="184.959,-27.1702 174.476,-25.6305 181.711,-33.371 184.959,-27.1702"/>
</g>
<!-- Node7 -->
<g id="node7" class="node"><title>Node7</title>
<polygon fill="white" stroke="#bfbfbf" points="202.5,-6.5 202.5,-25.5 251.5,-25.5 251.5,-6.5 202.5,-6.5"/>
<text text-anchor="middle" x="227" y="-13.5" font-family="Helvetica,sans-Serif" font-size="10.00">QTimer</text>
</g>
<!-- Node5&#45;&gt;Node7 -->
<g id="edge6" class="edge"><title>Node5&#45;&gt;Node7</title>
<path fill="none" stroke="midnightblue" d="M276.548,-74.3717C267.637,-64.053 252.522,-46.5513 241.324,-33.5854"/>
<polygon fill="midnightblue" stroke="midnightblue" points="243.821,-31.1217 234.636,-25.8411 238.523,-35.6971 243.821,-31.1217"/>
</g>
<!-- Node8 -->
<g id="node8" class="node"><title>Node8</title>
<polygon fill="white" stroke="#bfbfbf" points="269.5,-1 269.5,-31 412.5,-31 412.5,-1 269.5,-1"/>
<text text-anchor="start" x="277.5" y="-19" font-family="Helvetica,sans-Serif" font-size="10.00">mars/interfaces/graphics</text>
<text text-anchor="middle" x="341" y="-8" font-family="Helvetica,sans-Serif" font-size="10.00">/GraphicsManagerInterface.h</text>
</g>
<!-- Node5&#45;&gt;Node8 -->
<g id="edge7" class="edge"><title>Node5&#45;&gt;Node8</title>
<path fill="none" stroke="midnightblue" d="M291.452,-74.3717C299.225,-65.3715 311.717,-50.9067 322.213,-38.7534"/>
<polygon fill="midnightblue" stroke="midnightblue" points="324.865,-41.0374 328.752,-31.1815 319.567,-36.462 324.865,-41.0374"/>
</g>
<!-- Node5&#45;&gt;Node9 -->
<g id="edge8" class="edge"><title>Node5&#45;&gt;Node9</title>
<path fill="none" stroke="midnightblue" d="M310.147,-74.3717C340.894,-64.2249 392.689,-47.1327 431.765,-34.2375"/>
<polygon fill="midnightblue" stroke="midnightblue" points="433.006,-37.5138 441.405,-31.0562 430.812,-30.8664 433.006,-37.5138"/>
</g>
</g>
</svg>
