<?xml version="1.0" encoding="UTF-8" standalone="no"?>
<!DOCTYPE svg PUBLIC "-//W3C//DTD SVG 1.1//EN"
 "http://www.w3.org/Graphics/SVG/1.1/DTD/svg11.dtd">
<!-- Generated by graphviz version 2.36.0 (20140111.2315)
 -->
<!-- Title: mars::gui::MarsStyle Pages: 1 -->
<svg width="161pt" height="96pt"
 viewBox="0.00 0.00 161.00 96.00" xmlns="http://www.w3.org/2000/svg" xmlns:xlink="http://www.w3.org/1999/xlink">
<g id="graph0" class="graph" transform="scale(1 1) rotate(0) translate(4 92)">
<title>mars::gui::MarsStyle</title>
<polygon fill="white" stroke="none" points="-4,4 -4,-92 157,-92 157,4 -4,4"/>
<!-- Node1 -->
<g id="node1" class="node"><title>Node1</title>
<polygon fill="#bfbfbf" stroke="black" points="30.5,-0.5 30.5,-19.5 137.5,-19.5 137.5,-0.5 30.5,-0.5"/>
<text text-anchor="middle" x="84" y="-7.5" font-family="Helvetica,sans-Serif" font-size="10.00">mars::gui::MarsStyle</text>
</g>
<!-- Node2 -->
<g id="node2" class="node"><title>Node2</title>
<polygon fill="white" stroke="#bfbfbf" points="-0.5,-68.5 -0.5,-87.5 86.5,-87.5 86.5,-68.5 -0.5,-68.5"/>
<text text-anchor="middle" x="43" y="-75.5" font-family="Helvetica,sans-Serif" font-size="10.00">QPlastiqueStyle</text>
</g>
<!-- Node2&#45;&gt;Node1 -->
<g id="edge1" class="edge"><title>Node2&#45;&gt;Node1</title>
<path fill="none" stroke="midnightblue" d="M53.8321,-59.563C61.7721,-46.7815 72.2219,-29.9599 78.5078,-19.8411"/>
<polygon fill="midnightblue" stroke="midnightblue" points="50.6639,-58.0303 48.36,-68.3717 56.61,-61.7241 50.6639,-58.0303"/>
</g>
<!-- Node3 -->
<g id="node3" class="node"><title>Node3</title>
<polygon fill="white" stroke="#bfbfbf" points="104.5,-68.5 104.5,-87.5 145.5,-87.5 145.5,-68.5 104.5,-68.5"/>
<text text-anchor="middle" x="125" y="-75.5" font-family="Helvetica,sans-Serif" font-size="10.00">string</text>
</g>
<!-- Node3&#45;&gt;Node1 -->
<g id="edge2" class="edge"><title>Node3&#45;&gt;Node1</title>
<path fill="none" stroke="#9a32cd" stroke-dasharray="5,2" d="M114.168,-59.563C106.228,-46.7815 95.7781,-29.9599 89.4922,-19.8411"/>
<polygon fill="#9a32cd" stroke="#9a32cd" points="111.39,-61.7241 119.64,-68.3717 117.336,-58.0303 111.39,-61.7241"/>
<text text-anchor="middle" x="130.5" y="-41.5" font-family="Helvetica,sans-Serif" font-size="10.00"> stylePath</text>
</g>
</g>
</svg>
