<?xml version="1.0" encoding="UTF-8" standalone="no"?>
<!DOCTYPE svg PUBLIC "-//W3C//DTD SVG 1.1//EN"
 "http://www.w3.org/Graphics/SVG/1.1/DTD/svg11.dtd">
<!-- Generated by graphviz version 2.36.0 (20140111.2315)
 -->
<!-- Title: mars::plugins::obstacle_generator::ObstacleGenerator Pages: 1 -->
<svg width="1278pt" height="586pt"
 viewBox="0.00 0.00 1278.00 585.84" xmlns="http://www.w3.org/2000/svg" xmlns:xlink="http://www.w3.org/1999/xlink">
<g id="graph0" class="graph" transform="scale(1 1) rotate(0) translate(4 581.842)">
<title>mars::plugins::obstacle_generator::ObstacleGenerator</title>
<polygon fill="white" stroke="none" points="-4,4 -4,-581.842 1274,-581.842 1274,4 -4,4"/>
<!-- Node1 -->
<g id="node1" class="node"><title>Node1</title>
<polygon fill="#bfbfbf" stroke="black" points="1120,-82.8419 1120,-112.842 1270,-112.842 1270,-82.8419 1120,-82.8419"/>
<text text-anchor="start" x="1128" y="-100.842" font-family="Helvetica,sans-Serif" font-size="10.00">mars::plugins::obstacle</text>
<text text-anchor="middle" x="1195" y="-89.8419" font-family="Helvetica,sans-Serif" font-size="10.00">_generator::ObstacleGenerator</text>
</g>
<!-- Node2 -->
<g id="node2" class="node"><title>Node2</title>
<g id="a_node2"><a xlink:href="../../d6/df6/classmars_1_1interfaces_1_1_mars_plugin_template.html" target="_top" xlink:title="mars::interfaces::MarsPlugin\lTemplate">
<polygon fill="white" stroke="black" points="940,-131.842 940,-161.842 1082,-161.842 1082,-131.842 940,-131.842"/>
<text text-anchor="start" x="948" y="-149.842" font-family="Helvetica,sans-Serif" font-size="10.00">mars::interfaces::MarsPlugin</text>
<text text-anchor="middle" x="1011" y="-138.842" font-family="Helvetica,sans-Serif" font-size="10.00">Template</text>
</a>
</g>
</g>
<!-- Node2&#45;&gt;Node1 -->
<g id="edge1" class="edge"><title>Node2&#45;&gt;Node1</title>
<path fill="none" stroke="midnightblue" d="M1077.92,-129.093C1097.65,-123.783 1119.08,-118.013 1138.09,-112.893"/>
<polygon fill="midnightblue" stroke="midnightblue" points="1076.84,-125.761 1068.09,-131.74 1078.66,-132.52 1076.84,-125.761"/>
</g>
<!-- Node3 -->
<g id="node3" class="node"><title>Node3</title>
<polygon fill="white" stroke="#bfbfbf" points="47,-505.342 47,-524.342 115,-524.342 115,-505.342 47,-505.342"/>
<text text-anchor="middle" x="81" y="-512.342" font-family="Helvetica,sans-Serif" font-size="10.00">LibInterface</text>
</g>
<!-- Node3&#45;&gt;Node2 -->
<g id="edge2" class="edge"><title>Node3&#45;&gt;Node2</title>
<path fill="none" stroke="midnightblue" d="M114.97,-528.03C164.201,-546.501 260.224,-577.842 345,-577.842 345,-577.842 345,-577.842 781,-577.842 973.555,-577.842 1004.7,-238.213 1009.27,-161.929"/>
<polygon fill="midnightblue" stroke="midnightblue" points="116.071,-524.704 105.48,-524.41 113.576,-531.244 116.071,-524.704"/>
</g>
<!-- Node6 -->
<g id="node6" class="node"><title>Node6</title>
<g id="a_node6"><a xlink:href="../../d1/d93/classmars_1_1interfaces_1_1_graphics_manager_interface.html" target="_top" xlink:title="mars::interfaces::Graphics\lManagerInterface">
<polygon fill="white" stroke="black" points="280,-518.842 280,-548.842 412,-548.842 412,-518.842 280,-518.842"/>
<text text-anchor="start" x="288" y="-536.842" font-family="Helvetica,sans-Serif" font-size="10.00">mars::interfaces::Graphics</text>
<text text-anchor="middle" x="346" y="-525.842" font-family="Helvetica,sans-Serif" font-size="10.00">ManagerInterface</text>
</a>
</g>
</g>
<!-- Node3&#45;&gt;Node6 -->
<g id="edge6" class="edge"><title>Node3&#45;&gt;Node6</title>
<path fill="none" stroke="midnightblue" d="M125.223,-517.964C167.253,-521.001 231.637,-525.652 279.873,-529.137"/>
<polygon fill="midnightblue" stroke="midnightblue" points="125.269,-514.459 115.043,-517.229 124.765,-521.441 125.269,-514.459"/>
</g>
<!-- Node10 -->
<g id="node10" class="node"><title>Node10</title>
<g id="a_node10"><a xlink:href="../../d4/da6/classmars_1_1cfg__manager_1_1_c_f_g_manager_interface.html" target="_top" xlink:title="mars::cfg_manager::\lCFGManagerInterface">
<polygon fill="white" stroke="black" points="289.5,-469.842 289.5,-499.842 402.5,-499.842 402.5,-469.842 289.5,-469.842"/>
<text text-anchor="start" x="297.5" y="-487.842" font-family="Helvetica,sans-Serif" font-size="10.00">mars::cfg_manager::</text>
<text text-anchor="middle" x="346" y="-476.842" font-family="Helvetica,sans-Serif" font-size="10.00">CFGManagerInterface</text>
</a>
</g>
</g>
<!-- Node3&#45;&gt;Node10 -->
<g id="edge11" class="edge"><title>Node3&#45;&gt;Node10</title>
<path fill="none" stroke="midnightblue" d="M125.035,-509.933C169.881,-504.817 240.327,-496.782 289.371,-491.187"/>
<polygon fill="midnightblue" stroke="midnightblue" points="124.582,-506.462 115.043,-511.073 125.375,-513.417 124.582,-506.462"/>
</g>
<!-- Node11 -->
<g id="node11" class="node"><title>Node11</title>
<g id="a_node11"><a xlink:href="../../d6/d2e/classmars_1_1data__broker_1_1_data_broker_interface.html" target="_top" xlink:title="The interface every DataBroker should implement. ">
<polygon fill="white" stroke="black" points="294,-420.842 294,-450.842 398,-450.842 398,-420.842 294,-420.842"/>
<text text-anchor="start" x="302" y="-438.842" font-family="Helvetica,sans-Serif" font-size="10.00">mars::data_broker::</text>
<text text-anchor="middle" x="346" y="-427.842" font-family="Helvetica,sans-Serif" font-size="10.00">DataBrokerInterface</text>
</a>
</g>
</g>
<!-- Node3&#45;&gt;Node11 -->
<g id="edge13" class="edge"><title>Node3&#45;&gt;Node11</title>
<path fill="none" stroke="midnightblue" d="M123.449,-502.391C169.839,-488.457 244.998,-465.88 294.71,-450.948"/>
<polygon fill="midnightblue" stroke="midnightblue" points="122.294,-499.084 113.724,-505.313 124.308,-505.788 122.294,-499.084"/>
</g>
<!-- Node4 -->
<g id="node4" class="node"><title>Node4</title>
<g id="a_node4"><a xlink:href="../../d1/d70/classmars_1_1interfaces_1_1_plugin_interface.html" target="_top" xlink:title="The interface to load plugin dynamically into the simulation. ">
<polygon fill="white" stroke="black" points="720,-214.842 720,-244.842 840,-244.842 840,-214.842 720,-214.842"/>
<text text-anchor="start" x="728" y="-232.842" font-family="Helvetica,sans-Serif" font-size="10.00">mars::interfaces::Plugin</text>
<text text-anchor="middle" x="780" y="-221.842" font-family="Helvetica,sans-Serif" font-size="10.00">Interface</text>
</a>
</g>
</g>
<!-- Node4&#45;&gt;Node2 -->
<g id="edge3" class="edge"><title>Node4&#45;&gt;Node2</title>
<path fill="none" stroke="midnightblue" d="M832.025,-211.348C873.106,-196.458 930.124,-175.793 968.452,-161.901"/>
<polygon fill="midnightblue" stroke="midnightblue" points="830.679,-208.113 822.47,-214.811 833.064,-214.694 830.679,-208.113"/>
</g>
<!-- Node5 -->
<g id="node5" class="node"><title>Node5</title>
<g id="a_node5"><a xlink:href="../../d7/d4e/classmars_1_1interfaces_1_1_control_center.html" target="_top" xlink:title="The declaration of the ControlCenter. ">
<polygon fill="white" stroke="black" points="524.5,-248.842 524.5,-278.842 649.5,-278.842 649.5,-248.842 524.5,-248.842"/>
<text text-anchor="start" x="532.5" y="-266.842" font-family="Helvetica,sans-Serif" font-size="10.00">mars::interfaces::Control</text>
<text text-anchor="middle" x="587" y="-255.842" font-family="Helvetica,sans-Serif" font-size="10.00">Center</text>
</a>
</g>
</g>
<!-- Node5&#45;&gt;Node4 -->
<g id="edge4" class="edge"><title>Node5&#45;&gt;Node4</title>
<path fill="none" stroke="#9a32cd" stroke-dasharray="5,2" d="M659.645,-251.088C679.452,-247.562 700.722,-243.776 719.741,-240.391"/>
<polygon fill="#9a32cd" stroke="#9a32cd" points="658.98,-247.652 649.748,-252.85 660.207,-254.543 658.98,-247.652"/>
<text text-anchor="middle" x="685" y="-252.842" font-family="Helvetica,sans-Serif" font-size="10.00"> control</text>
</g>
<!-- Node6&#45;&gt;Node5 -->
<g id="edge5" class="edge"><title>Node6&#45;&gt;Node5</title>
<path fill="none" stroke="#9a32cd" stroke-dasharray="5,2" d="M422.133,-524.217C451.445,-517.062 483.37,-504.587 506,-482.842 566.125,-425.066 581.288,-318.466 584.918,-279.029"/>
<polygon fill="#9a32cd" stroke="#9a32cd" points="421.287,-520.82 412.31,-526.446 422.836,-527.647 421.287,-520.82"/>
<text text-anchor="middle" x="474" y="-521.842" font-family="Helvetica,sans-Serif" font-size="10.00"> graphics</text>
</g>
<!-- Node7 -->
<g id="node7" class="node"><title>Node7</title>
<g id="a_node7"><a xlink:href="../../d2/da9/classmars_1_1interfaces_1_1_controller_manager_interface.html" target="_top" xlink:title="&quot;ControllerManagerInterface&quot; declares the interfaces for all controller operations that are used for ...">
<polygon fill="white" stroke="black" points="278.5,-371.842 278.5,-401.842 413.5,-401.842 413.5,-371.842 278.5,-371.842"/>
<text text-anchor="start" x="286.5" y="-389.842" font-family="Helvetica,sans-Serif" font-size="10.00">mars::interfaces::Controller</text>
<text text-anchor="middle" x="346" y="-378.842" font-family="Helvetica,sans-Serif" font-size="10.00">ManagerInterface</text>
</a>
</g>
</g>
<!-- Node7&#45;&gt;Node5 -->
<g id="edge7" class="edge"><title>Node7&#45;&gt;Node5</title>
<path fill="none" stroke="#9a32cd" stroke-dasharray="5,2" d="M404.762,-368.638C411.277,-366.422 417.798,-364.13 424,-361.842 461.014,-348.184 472.038,-347.919 506,-327.842 529.885,-313.722 554.367,-293.045 569.849,-279.046"/>
<polygon fill="#9a32cd" stroke="#9a32cd" points="403.629,-365.326 395.259,-371.821 405.853,-371.963 403.629,-365.326"/>
<text text-anchor="middle" x="474" y="-358.842" font-family="Helvetica,sans-Serif" font-size="10.00"> controllers</text>
</g>
<!-- Node8 -->
<g id="node8" class="node"><title>Node8</title>
<g id="a_node8"><a xlink:href="../../d6/d60/classmars_1_1interfaces_1_1_joint_manager_interface.html" target="_top" xlink:title="Interface class for the node organization. ">
<polygon fill="white" stroke="black" points="270,-322.842 270,-352.842 422,-352.842 422,-322.842 270,-322.842"/>
<text text-anchor="start" x="278" y="-340.842" font-family="Helvetica,sans-Serif" font-size="10.00">mars::interfaces::JointManager</text>
<text text-anchor="middle" x="346" y="-329.842" font-family="Helvetica,sans-Serif" font-size="10.00">Interface</text>
</a>
</g>
</g>
<!-- Node8&#45;&gt;Node5 -->
<g id="edge8" class="edge"><title>Node8&#45;&gt;Node5</title>
<path fill="none" stroke="#9a32cd" stroke-dasharray="5,2" d="M416,-320.18C444.088,-312.619 476.762,-303.349 506,-293.842 519.824,-289.347 534.788,-283.897 547.993,-278.882"/>
<polygon fill="#9a32cd" stroke="#9a32cd" points="415.026,-316.817 406.269,-322.78 416.834,-323.58 415.026,-316.817"/>
<text text-anchor="middle" x="474" y="-315.842" font-family="Helvetica,sans-Serif" font-size="10.00"> joints</text>
</g>
<!-- Node9 -->
<g id="node9" class="node"><title>Node9</title>
<g id="a_node9"><a xlink:href="../../df/d82/classmars_1_1interfaces_1_1_entity_manager_interface.html" target="_top" xlink:title="mars::interfaces::Entity\lManagerInterface">
<polygon fill="white" stroke="black" points="286.5,-273.842 286.5,-303.842 405.5,-303.842 405.5,-273.842 286.5,-273.842"/>
<text text-anchor="start" x="294.5" y="-291.842" font-family="Helvetica,sans-Serif" font-size="10.00">mars::interfaces::Entity</text>
<text text-anchor="middle" x="346" y="-280.842" font-family="Helvetica,sans-Serif" font-size="10.00">ManagerInterface</text>
</a>
</g>
</g>
<!-- Node9&#45;&gt;Node5 -->
<g id="edge9" class="edge"><title>Node9&#45;&gt;Node5</title>
<path fill="none" stroke="#9a32cd" stroke-dasharray="5,2" d="M416.126,-281.611C450.234,-278.043 491.043,-273.775 524.114,-270.315"/>
<polygon fill="#9a32cd" stroke="#9a32cd" points="415.354,-278.173 405.772,-282.694 416.082,-285.135 415.354,-278.173"/>
<text text-anchor="middle" x="474" y="-281.842" font-family="Helvetica,sans-Serif" font-size="10.00"> entities</text>
</g>
<!-- Node10&#45;&gt;Node5 -->
<g id="edge10" class="edge"><title>Node10&#45;&gt;Node5</title>
<path fill="none" stroke="#9a32cd" stroke-dasharray="5,2" d="M412.527,-475.779C443.849,-468.587 480.07,-455.74 506,-432.842 554.421,-390.083 575.904,-311.68 583.07,-278.886"/>
<polygon fill="#9a32cd" stroke="#9a32cd" points="411.591,-472.4 402.549,-477.921 413.06,-479.244 411.591,-472.4"/>
<text text-anchor="middle" x="474" y="-470.842" font-family="Helvetica,sans-Serif" font-size="10.00"> cfg</text>
</g>
<!-- Node11&#45;&gt;Node5 -->
<g id="edge12" class="edge"><title>Node11&#45;&gt;Node5</title>
<path fill="none" stroke="#9a32cd" stroke-dasharray="5,2" d="M407.731,-420.55C439.499,-410.328 477.579,-394.361 506,-370.842 538.343,-344.076 564.943,-301.67 577.752,-279.12"/>
<polygon fill="#9a32cd" stroke="#9a32cd" points="406.606,-417.234 398.092,-423.54 408.68,-423.92 406.606,-417.234"/>
<text text-anchor="middle" x="474" y="-420.842" font-family="Helvetica,sans-Serif" font-size="10.00"> dataBroker</text>
<text text-anchor="middle" x="474" y="-409.842" font-family="Helvetica,sans-Serif" font-size="10.00">theDataBroker</text>
</g>
<!-- Node12 -->
<g id="node12" class="node"><title>Node12</title>
<g id="a_node12"><a xlink:href="../../db/da9/classmars_1_1interfaces_1_1_sensor_manager_interface.html" target="_top" xlink:title="&quot;SensorManagerInterface&quot; declares the interfaces for all sensor operations that are used for the comm...">
<polygon fill="white" stroke="black" points="284,-224.842 284,-254.842 408,-254.842 408,-224.842 284,-224.842"/>
<text text-anchor="start" x="292" y="-242.842" font-family="Helvetica,sans-Serif" font-size="10.00">mars::interfaces::Sensor</text>
<text text-anchor="middle" x="346" y="-231.842" font-family="Helvetica,sans-Serif" font-size="10.00">ManagerInterface</text>
</a>
</g>
</g>
<!-- Node12&#45;&gt;Node5 -->
<g id="edge14" class="edge"><title>Node12&#45;&gt;Node5</title>
<path fill="none" stroke="#9a32cd" stroke-dasharray="5,2" d="M418.46,-247.018C452.075,-250.393 491.775,-254.38 524.09,-257.625"/>
<polygon fill="#9a32cd" stroke="#9a32cd" points="418.538,-243.508 408.238,-245.991 417.838,-250.473 418.538,-243.508"/>
<text text-anchor="middle" x="474" y="-258.842" font-family="Helvetica,sans-Serif" font-size="10.00"> sensors</text>
</g>
<!-- Node13 -->
<g id="node13" class="node"><title>Node13</title>
<g id="a_node13"><a xlink:href="../../db/de9/classmars_1_1interfaces_1_1_motor_manager_interface.html" target="_top" xlink:title="&quot;MotorManagerInterface&quot; declares the interfaces for all motor operations that are used for the commun...">
<polygon fill="white" stroke="black" points="268.5,-175.842 268.5,-205.842 423.5,-205.842 423.5,-175.842 268.5,-175.842"/>
<text text-anchor="start" x="276.5" y="-193.842" font-family="Helvetica,sans-Serif" font-size="10.00">mars::interfaces::MotorManager</text>
<text text-anchor="middle" x="346" y="-182.842" font-family="Helvetica,sans-Serif" font-size="10.00">Interface</text>
</a>
</g>
</g>
<!-- Node13&#45;&gt;Node5 -->
<g id="edge15" class="edge"><title>Node13&#45;&gt;Node5</title>
<path fill="none" stroke="#9a32cd" stroke-dasharray="5,2" d="M415.246,-208.477C443.483,-216.097 476.466,-225.418 506,-234.842 519.23,-239.063 533.53,-244.095 546.331,-248.772"/>
<polygon fill="#9a32cd" stroke="#9a32cd" points="416.036,-205.066 405.47,-205.856 414.222,-211.827 416.036,-205.066"/>
<text text-anchor="middle" x="474" y="-237.842" font-family="Helvetica,sans-Serif" font-size="10.00"> motors</text>
</g>
<!-- Node14 -->
<g id="node14" class="node"><title>Node14</title>
<g id="a_node14"><a xlink:href="../../d9/d6a/classmars_1_1interfaces_1_1_load_center.html" target="_top" xlink:title="mars::interfaces::LoadCenter">
<polygon fill="white" stroke="black" points="274.5,-137.342 274.5,-156.342 417.5,-156.342 417.5,-137.342 274.5,-137.342"/>
<text text-anchor="middle" x="346" y="-144.342" font-family="Helvetica,sans-Serif" font-size="10.00">mars::interfaces::LoadCenter</text>
</a>
</g>
</g>
<!-- Node14&#45;&gt;Node5 -->
<g id="edge16" class="edge"><title>Node14&#45;&gt;Node5</title>
<path fill="none" stroke="#9a32cd" stroke-dasharray="5,2" d="M401.088,-158.938C408.84,-161.033 416.667,-163.348 424,-165.842 461.683,-178.657 471.79,-181.498 506,-201.842 529.258,-215.673 553.484,-235.3 569.097,-248.745"/>
<polygon fill="#9a32cd" stroke="#9a32cd" points="401.913,-155.537 391.354,-156.406 400.15,-162.311 401.913,-155.537"/>
<text text-anchor="middle" x="474" y="-204.842" font-family="Helvetica,sans-Serif" font-size="10.00"> loadCenter</text>
</g>
<!-- Node15 -->
<g id="node15" class="node"><title>Node15</title>
<g id="a_node15"><a xlink:href="../../d1/d51/classmars_1_1interfaces_1_1_load_heightmap_interface.html" target="_top" xlink:title="mars::interfaces::LoadHeightmap\lInterface">
<polygon fill="white" stroke="black" points="0.5,-156.842 0.5,-186.842 161.5,-186.842 161.5,-156.842 0.5,-156.842"/>
<text text-anchor="start" x="8.5" y="-174.842" font-family="Helvetica,sans-Serif" font-size="10.00">mars::interfaces::LoadHeightmap</text>
<text text-anchor="middle" x="81" y="-163.842" font-family="Helvetica,sans-Serif" font-size="10.00">Interface</text>
</a>
</g>
</g>
<!-- Node15&#45;&gt;Node14 -->
<g id="edge17" class="edge"><title>Node15&#45;&gt;Node14</title>
<path fill="none" stroke="#9a32cd" stroke-dasharray="5,2" d="M171.85,-163.301C205.256,-160.126 242.661,-156.57 274.133,-153.578"/>
<polygon fill="#9a32cd" stroke="#9a32cd" points="171.246,-159.843 161.622,-164.273 171.909,-166.811 171.246,-159.843"/>
<text text-anchor="middle" x="215" y="-165.842" font-family="Helvetica,sans-Serif" font-size="10.00"> loadHeightmap</text>
</g>
<!-- Node16 -->
<g id="node16" class="node"><title>Node16</title>
<g id="a_node16"><a xlink:href="../../d7/d02/classmars_1_1interfaces_1_1_load_mesh_interface.html" target="_top" xlink:title="mars::interfaces::LoadMesh\lInterface">
<polygon fill="white" stroke="black" points="12,-107.842 12,-137.842 150,-137.842 150,-107.842 12,-107.842"/>
<text text-anchor="start" x="20" y="-125.842" font-family="Helvetica,sans-Serif" font-size="10.00">mars::interfaces::LoadMesh</text>
<text text-anchor="middle" x="81" y="-114.842" font-family="Helvetica,sans-Serif" font-size="10.00">Interface</text>
</a>
</g>
</g>
<!-- Node16&#45;&gt;Node14 -->
<g id="edge18" class="edge"><title>Node16&#45;&gt;Node14</title>
<path fill="none" stroke="#9a32cd" stroke-dasharray="5,2" d="M160.116,-129.97C196.387,-133.28 239.183,-137.186 274.462,-140.405"/>
<polygon fill="#9a32cd" stroke="#9a32cd" points="160.348,-126.477 150.071,-129.054 159.712,-133.448 160.348,-126.477"/>
<text text-anchor="middle" x="215" y="-140.842" font-family="Helvetica,sans-Serif" font-size="10.00"> loadMesh</text>
</g>
<!-- Node17 -->
<g id="node17" class="node"><title>Node17</title>
<g id="a_node17"><a xlink:href="../../d7/d4c/classmars_1_1interfaces_1_1_node_manager_interface.html" target="_top" xlink:title="&quot;NodeManagerInterface&quot; declares the interfaces for all NodeOperations that are used for the communica...">
<polygon fill="white" stroke="black" points="269,-87.8419 269,-117.842 423,-117.842 423,-87.8419 269,-87.8419"/>
<text text-anchor="start" x="277" y="-105.842" font-family="Helvetica,sans-Serif" font-size="10.00">mars::interfaces::NodeManager</text>
<text text-anchor="middle" x="346" y="-94.8419" font-family="Helvetica,sans-Serif" font-size="10.00">Interface</text>
</a>
</g>
</g>
<!-- Node17&#45;&gt;Node5 -->
<g id="edge19" class="edge"><title>Node17&#45;&gt;Node5</title>
<path fill="none" stroke="#9a32cd" stroke-dasharray="5,2" d="M429.132,-120.832C455.365,-129.199 483.423,-141.12 506,-157.842 539.719,-182.817 565.929,-225.856 578.263,-248.652"/>
<polygon fill="#9a32cd" stroke="#9a32cd" points="430.15,-117.484 419.563,-117.909 428.104,-124.178 430.15,-117.484"/>
<text text-anchor="middle" x="474" y="-160.842" font-family="Helvetica,sans-Serif" font-size="10.00"> nodes</text>
</g>
<!-- Node18 -->
<g id="node18" class="node"><title>Node18</title>
<g id="a_node18"><a xlink:href="../../dc/de5/classmars_1_1interfaces_1_1_simulator_interface.html" target="_top" xlink:title="mars::interfaces::Simulator\lInterface">
<polygon fill="white" stroke="black" points="279,-38.8419 279,-68.8419 413,-68.8419 413,-38.8419 279,-38.8419"/>
<text text-anchor="start" x="287" y="-56.8419" font-family="Helvetica,sans-Serif" font-size="10.00">mars::interfaces::Simulator</text>
<text text-anchor="middle" x="346" y="-45.8419" font-family="Helvetica,sans-Serif" font-size="10.00">Interface</text>
</a>
</g>
</g>
<!-- Node18&#45;&gt;Node2 -->
<g id="edge22" class="edge"><title>Node18&#45;&gt;Node2</title>
<path fill="none" stroke="#9a32cd" stroke-dasharray="5,2" d="M423.451,-61.9482C449.65,-64.8718 479.129,-68.3227 506,-71.8419 661.255,-92.1752 842.755,-120.245 939.989,-135.632"/>
<polygon fill="#9a32cd" stroke="#9a32cd" points="423.53,-58.4356 413.205,-60.8129 422.759,-65.3931 423.53,-58.4356"/>
<text text-anchor="middle" x="685" y="-101.842" font-family="Helvetica,sans-Serif" font-size="10.00"> mars</text>
</g>
<!-- Node18&#45;&gt;Node5 -->
<g id="edge20" class="edge"><title>Node18&#45;&gt;Node5</title>
<path fill="none" stroke="#9a32cd" stroke-dasharray="5,2" d="M422.72,-68.5073C451.504,-77.1763 482.892,-90.7553 506,-111.842 548.954,-151.039 572.888,-218.714 581.855,-248.741"/>
<polygon fill="#9a32cd" stroke="#9a32cd" points="423.651,-65.1333 413.074,-65.7519 421.728,-71.8641 423.651,-65.1333"/>
<text text-anchor="middle" x="474" y="-114.842" font-family="Helvetica,sans-Serif" font-size="10.00"> sim</text>
</g>
<!-- Node19 -->
<g id="node19" class="node"><title>Node19</title>
<polygon fill="white" stroke="#bfbfbf" points="759.5,-7.34187 759.5,-26.3419 800.5,-26.3419 800.5,-7.34187 759.5,-7.34187"/>
<text text-anchor="middle" x="780" y="-14.3419" font-family="Helvetica,sans-Serif" font-size="10.00">string</text>
</g>
<!-- Node19&#45;&gt;Node2 -->
<g id="edge21" class="edge"><title>Node19&#45;&gt;Node2</title>
<path fill="none" stroke="#9a32cd" stroke-dasharray="5,2" d="M810.466,-7.3995C841.925,0.668286 891.37,7.27247 922,-18.8419 957.364,-48.9918 910.048,-86.3102 940,-121.842 943.244,-125.69 947.124,-128.946 951.371,-131.7"/>
<polygon fill="#9a32cd" stroke="#9a32cd" points="809.245,-4.10595 800.54,-10.1465 811.112,-10.8524 809.245,-4.10595"/>
<text text-anchor="middle" x="890" y="-32.8419" font-family="Helvetica,sans-Serif" font-size="10.00"> configPath</text>
<text text-anchor="middle" x="890" y="-21.8419" font-family="Helvetica,sans-Serif" font-size="10.00">resourcesPath</text>
</g>
<!-- Node20 -->
<g id="node20" class="node"><title>Node20</title>
<g id="a_node20"><a xlink:href="../../d0/d0e/classmars_1_1data__broker_1_1_receiver_interface.html" target="_top" xlink:title="Interface for classes that want to receive data from the DataBroker. ">
<polygon fill="white" stroke="black" points="960.5,-82.8419 960.5,-112.842 1061.5,-112.842 1061.5,-82.8419 960.5,-82.8419"/>
<text text-anchor="start" x="968.5" y="-100.842" font-family="Helvetica,sans-Serif" font-size="10.00">mars::data_broker::</text>
<text text-anchor="middle" x="1011" y="-89.8419" font-family="Helvetica,sans-Serif" font-size="10.00">ReceiverInterface</text>
</a>
</g>
</g>
<!-- Node20&#45;&gt;Node1 -->
<g id="edge23" class="edge"><title>Node20&#45;&gt;Node1</title>
<path fill="none" stroke="midnightblue" d="M1072.06,-97.8419C1087.31,-97.8419 1103.88,-97.8419 1119.74,-97.8419"/>
<polygon fill="midnightblue" stroke="midnightblue" points="1071.73,-94.342 1061.73,-97.8419 1071.73,-101.342 1071.73,-94.342"/>
</g>
<!-- Node21 -->
<g id="node21" class="node"><title>Node21</title>
<g id="a_node21"><a xlink:href="../../d4/d1a/classmars_1_1cfg__manager_1_1_c_f_g_client.html" target="_top" xlink:title="mars::cfg_manager::\lCFGClient">
<polygon fill="white" stroke="black" points="957.5,-33.8419 957.5,-63.8419 1064.5,-63.8419 1064.5,-33.8419 957.5,-33.8419"/>
<text text-anchor="start" x="965.5" y="-51.8419" font-family="Helvetica,sans-Serif" font-size="10.00">mars::cfg_manager::</text>
<text text-anchor="middle" x="1011" y="-40.8419" font-family="Helvetica,sans-Serif" font-size="10.00">CFGClient</text>
</a>
</g>
</g>
<!-- Node21&#45;&gt;Node1 -->
<g id="edge24" class="edge"><title>Node21&#45;&gt;Node1</title>
<path fill="none" stroke="midnightblue" d="M1074.56,-65.6843C1095.15,-71.2291 1117.91,-77.3557 1137.98,-82.7608"/>
<polygon fill="midnightblue" stroke="midnightblue" points="1075.21,-62.2349 1064.64,-63.0147 1073.39,-68.9942 1075.21,-62.2349"/>
</g>
</g>
</svg>
