<?xml version="1.0" encoding="UTF-8" standalone="no"?>
<!DOCTYPE svg PUBLIC "-//W3C//DTD SVG 1.1//EN"
 "http://www.w3.org/Graphics/SVG/1.1/DTD/svg11.dtd">
<!-- Generated by graphviz version 2.26.3 (20100126.1600)
 -->
<!-- Title: /home/kavonszadkowski/limes&#45;dev/simulation/mars/graphics/src/2d_objects/HUDTexture.h Pages: 1 -->
<svg width="238pt" height="186pt"
 viewBox="0.00 0.00 238.00 186.00" xmlns="http://www.w3.org/2000/svg" xmlns:xlink="http://www.w3.org/1999/xlink">
<g id="graph1" class="graph" transform="scale(1 1) rotate(0) translate(4 182)">
<title>/home/kavonszadkowski/limes&#45;dev/simulation/mars/graphics/src/2d_objects/HUDTexture.h</title>
<polygon fill="white" stroke="white" points="-4,5 -4,-182 235,-182 235,5 -4,5"/>
<!-- Node1 -->
<g id="node1" class="node"><title>Node1</title>
<polygon fill="#bfbfbf" stroke="black" points="58.5,-117 58.5,-177 183.5,-177 183.5,-117 58.5,-117"/>
<text text-anchor="start" x="66.5" y="-164" font-family="Helvetica,sans-Serif" font-size="10.00">/home/kavonszadkowski</text>
<text text-anchor="start" x="66.5" y="-151" font-family="Helvetica,sans-Serif" font-size="10.00">/limes&#45;dev/simulation</text>
<text text-anchor="start" x="66.5" y="-138" font-family="Helvetica,sans-Serif" font-size="10.00">/mars/graphics/src/2d</text>
<text text-anchor="middle" x="121" y="-125" font-family="Helvetica,sans-Serif" font-size="10.00">_objects/HUDTexture.h</text>
</g>
<!-- Node2 -->
<g id="node3" class="node"><title>Node2</title>
<a xlink:href="../../dc/d75/_h_u_d_element_8h.html" target="_top" xlink:title="The &quot;HUDElement&quot;. ">
<polygon fill="white" stroke="black" points="23.5,-58.5 23.5,-79.5 106.5,-79.5 106.5,-58.5 23.5,-58.5"/>
<text text-anchor="middle" x="65" y="-66.5" font-family="Helvetica,sans-Serif" font-size="10.00">HUDElement.h</text>
</a>
</g>
<!-- Node1&#45;&gt;Node2 -->
<g id="edge2" class="edge"><title>Node1&#45;&gt;Node2</title>
<path fill="none" stroke="midnightblue" d="M99.1886,-116.62C92.2595,-106.969 84.7981,-96.576 78.6192,-87.9696"/>
<polygon fill="midnightblue" stroke="midnightblue" points="81.3957,-85.8355 72.7204,-79.7535 75.7094,-89.9179 81.3957,-85.8355"/>
</g>
<!-- Node5 -->
<g id="node9" class="node"><title>Node5</title>
<polygon fill="white" stroke="#bfbfbf" points="123.5,-58.5 123.5,-79.5 230.5,-79.5 230.5,-58.5 123.5,-58.5"/>
<text text-anchor="middle" x="177" y="-66.5" font-family="Helvetica,sans-Serif" font-size="10.00">osg/MatrixTransform</text>
</g>
<!-- Node1&#45;&gt;Node5 -->
<g id="edge8" class="edge"><title>Node1&#45;&gt;Node5</title>
<path fill="none" stroke="midnightblue" d="M142.811,-116.62C149.741,-106.969 157.202,-96.576 163.381,-87.9696"/>
<polygon fill="midnightblue" stroke="midnightblue" points="166.291,-89.9179 169.28,-79.7535 160.604,-85.8355 166.291,-89.9179"/>
</g>
<!-- Node3 -->
<g id="node5" class="node"><title>Node3</title>
<polygon fill="white" stroke="#bfbfbf" points="0,-0.5 0,-21.5 62,-21.5 62,-0.5 0,-0.5"/>
<text text-anchor="middle" x="31" y="-8.5" font-family="Helvetica,sans-Serif" font-size="10.00">osg/Group</text>
</g>
<!-- Node2&#45;&gt;Node3 -->
<g id="edge4" class="edge"><title>Node2&#45;&gt;Node3</title>
<path fill="none" stroke="midnightblue" d="M58.7639,-58.3619C54.1629,-50.5131 47.7748,-39.6159 42.2861,-30.2527"/>
<polygon fill="midnightblue" stroke="midnightblue" points="45.2733,-28.4276 37.1966,-21.5707 39.2344,-31.9677 45.2733,-28.4276"/>
</g>
<!-- Node4 -->
<g id="node7" class="node"><title>Node4</title>
<polygon fill="white" stroke="#bfbfbf" points="79.5,-0.5 79.5,-21.5 120.5,-21.5 120.5,-0.5 79.5,-0.5"/>
<text text-anchor="middle" x="100" y="-8.5" font-family="Helvetica,sans-Serif" font-size="10.00">string</text>
</g>
<!-- Node2&#45;&gt;Node4 -->
<g id="edge6" class="edge"><title>Node2&#45;&gt;Node4</title>
<path fill="none" stroke="midnightblue" d="M71.4195,-58.3619C76.1559,-50.5131 82.7318,-39.6159 88.382,-30.2527"/>
<polygon fill="midnightblue" stroke="midnightblue" points="91.4511,-31.9409 93.6212,-21.5707 85.4578,-28.3242 91.4511,-31.9409"/>
</g>
</g>
</svg>
