<?xml version="1.0" encoding="UTF-8" standalone="no"?>
<!DOCTYPE svg PUBLIC "-//W3C//DTD SVG 1.1//EN"
 "http://www.w3.org/Graphics/SVG/1.1/DTD/svg11.dtd">
<!-- Generated by graphviz version 2.26.3 (20100126.1600)
 -->
<!-- Title: /home/kavonszadkowski/limes&#45;dev/simulation/mars/common/gui/main_gui/src/MyQMdiArea.h Pages: 1 -->
<svg width="280pt" height="266pt"
 viewBox="0.00 0.00 280.00 266.00" xmlns="http://www.w3.org/2000/svg" xmlns:xlink="http://www.w3.org/1999/xlink">
<g id="graph1" class="graph" transform="scale(1 1) rotate(0) translate(4 262)">
<title>/home/kavonszadkowski/limes&#45;dev/simulation/mars/common/gui/main_gui/src/MyQMdiArea.h</title>
<polygon fill="white" stroke="white" points="-4,5 -4,-262 277,-262 277,5 -4,5"/>
<!-- Node1 -->
<g id="node1" class="node"><title>Node1</title>
<polygon fill="#bfbfbf" stroke="black" points="71.5,-197 71.5,-257 196.5,-257 196.5,-197 71.5,-197"/>
<text text-anchor="start" x="79.5" y="-244" font-family="Helvetica,sans-Serif" font-size="10.00">/home/kavonszadkowski</text>
<text text-anchor="start" x="79.5" y="-231" font-family="Helvetica,sans-Serif" font-size="10.00">/limes&#45;dev/simulation</text>
<text text-anchor="start" x="79.5" y="-218" font-family="Helvetica,sans-Serif" font-size="10.00">/mars/common/gui/main</text>
<text text-anchor="middle" x="134" y="-205" font-family="Helvetica,sans-Serif" font-size="10.00">_gui/src/MyQMdiArea.h</text>
</g>
<!-- Node2 -->
<g id="node3" class="node"><title>Node2</title>
<a xlink:href="../../d3/d14/_main_g_u_i_8h.html" target="_top" xlink:title="/home/kavonszadkowski\l/limes&#45;dev/simulation\l/mars/common/gui/main\l_gui/src/MainGUI.h">
<polygon fill="white" stroke="black" points="-0.5,-99 -0.5,-159 124.5,-159 124.5,-99 -0.5,-99"/>
<text text-anchor="start" x="7.5" y="-146" font-family="Helvetica,sans-Serif" font-size="10.00">/home/kavonszadkowski</text>
<text text-anchor="start" x="7.5" y="-133" font-family="Helvetica,sans-Serif" font-size="10.00">/limes&#45;dev/simulation</text>
<text text-anchor="start" x="7.5" y="-120" font-family="Helvetica,sans-Serif" font-size="10.00">/mars/common/gui/main</text>
<text text-anchor="middle" x="62" y="-107" font-family="Helvetica,sans-Serif" font-size="10.00">_gui/src/MainGUI.h</text>
</a>
</g>
<!-- Node1&#45;&gt;Node2 -->
<g id="edge2" class="edge"><title>Node1&#45;&gt;Node2</title>
<path fill="none" stroke="midnightblue" d="M105.688,-188.464C98.5644,-178.768 91.0194,-168.499 84.2405,-159.272"/>
<polygon fill="midnightblue" stroke="midnightblue" points="103.069,-190.811 111.81,-196.797 108.71,-186.666 103.069,-190.811"/>
</g>
<!-- Node4 -->
<g id="node7" class="node"><title>Node4</title>
<a xlink:href="../../dc/d83/_my_q_mdi_area_8cpp.html" target="_top" xlink:title="/home/kavonszadkowski\l/limes&#45;dev/simulation\l/mars/common/gui/main\l_gui/src/MyQMdiArea.cpp">
<polygon fill="white" stroke="black" points="142,-99 142,-159 272,-159 272,-99 142,-99"/>
<text text-anchor="start" x="150" y="-146" font-family="Helvetica,sans-Serif" font-size="10.00">/home/kavonszadkowski</text>
<text text-anchor="start" x="150" y="-133" font-family="Helvetica,sans-Serif" font-size="10.00">/limes&#45;dev/simulation</text>
<text text-anchor="start" x="150" y="-120" font-family="Helvetica,sans-Serif" font-size="10.00">/mars/common/gui/main</text>
<text text-anchor="middle" x="207" y="-107" font-family="Helvetica,sans-Serif" font-size="10.00">_gui/src/MyQMdiArea.cpp</text>
</a>
</g>
<!-- Node1&#45;&gt;Node4 -->
<g id="edge6" class="edge"><title>Node1&#45;&gt;Node4</title>
<path fill="none" stroke="midnightblue" d="M162.486,-188.758C169.773,-178.976 177.508,-168.592 184.451,-159.272"/>
<polygon fill="midnightblue" stroke="midnightblue" points="159.665,-186.687 156.498,-196.797 165.279,-190.868 159.665,-186.687"/>
</g>
<!-- Node3 -->
<g id="node5" class="node"><title>Node3</title>
<a xlink:href="../../d3/dea/_main_g_u_i_8cpp.html" target="_top" xlink:title="/home/kavonszadkowski\l/limes&#45;dev/simulation\l/mars/common/gui/main\l_gui/src/MainGUI.cpp">
<polygon fill="white" stroke="black" points="-0.5,-1 -0.5,-61 124.5,-61 124.5,-1 -0.5,-1"/>
<text text-anchor="start" x="7.5" y="-48" font-family="Helvetica,sans-Serif" font-size="10.00">/home/kavonszadkowski</text>
<text text-anchor="start" x="7.5" y="-35" font-family="Helvetica,sans-Serif" font-size="10.00">/limes&#45;dev/simulation</text>
<text text-anchor="start" x="7.5" y="-22" font-family="Helvetica,sans-Serif" font-size="10.00">/mars/common/gui/main</text>
<text text-anchor="middle" x="62" y="-9" font-family="Helvetica,sans-Serif" font-size="10.00">_gui/src/MainGUI.cpp</text>
</a>
</g>
<!-- Node2&#45;&gt;Node3 -->
<g id="edge4" class="edge"><title>Node2&#45;&gt;Node3</title>
<path fill="none" stroke="midnightblue" d="M62,-88.6956C62,-79.5273 62,-69.9394 62,-61.2718"/>
<polygon fill="midnightblue" stroke="midnightblue" points="58.5001,-88.7971 62,-98.7971 65.5001,-88.7972 58.5001,-88.7971"/>
</g>
</g>
</svg>
