<?xml version="1.0" encoding="UTF-8" standalone="no"?>
<!DOCTYPE svg PUBLIC "-//W3C//DTD SVG 1.1//EN"
 "http://www.w3.org/Graphics/SVG/1.1/DTD/svg11.dtd">
<!-- Generated by graphviz version 2.36.0 (20140111.2315)
 -->
<!-- Title: /media/kavonszadkowski/work/marsdocs/mars/common/gui/main_gui/src/MyQDockWidget.cpp Pages: 1 -->
<svg width="582pt" height="230pt"
 viewBox="0.00 0.00 582.00 230.00" xmlns="http://www.w3.org/2000/svg" xmlns:xlink="http://www.w3.org/1999/xlink">
<g id="graph0" class="graph" transform="scale(1 1) rotate(0) translate(4 226)">
<title>/media/kavonszadkowski/work/marsdocs/mars/common/gui/main_gui/src/MyQDockWidget.cpp</title>
<polygon fill="white" stroke="none" points="-4,4 -4,-226 578,-226 578,4 -4,4"/>
<!-- Node1 -->
<g id="node1" class="node"><title>Node1</title>
<polygon fill="#bfbfbf" stroke="black" points="108,-180.5 108,-221.5 296,-221.5 296,-180.5 108,-180.5"/>
<text text-anchor="start" x="116" y="-209.5" font-family="Helvetica,sans-Serif" font-size="10.00">/media/kavonszadkowski</text>
<text text-anchor="start" x="116" y="-198.5" font-family="Helvetica,sans-Serif" font-size="10.00">/work/marsdocs/mars/common</text>
<text text-anchor="middle" x="202" y="-187.5" font-family="Helvetica,sans-Serif" font-size="10.00">/gui/main_gui/src/MyQDockWidget.cpp</text>
</g>
<!-- Node2 -->
<g id="node2" class="node"><title>Node2</title>
<g id="a_node2"><a xlink:href="../../da/dfe/_my_q_dock_widget_8h.html" target="_top" xlink:title="MyQDockWidget.h">
<polygon fill="white" stroke="black" points="84,-62.5 84,-81.5 184,-81.5 184,-62.5 84,-62.5"/>
<text text-anchor="middle" x="134" y="-69.5" font-family="Helvetica,sans-Serif" font-size="10.00">MyQDockWidget.h</text>
</a>
</g>
</g>
<!-- Node1&#45;&gt;Node2 -->
<g id="edge1" class="edge"><title>Node1&#45;&gt;Node2</title>
<path fill="none" stroke="midnightblue" d="M191.524,-180.435C178.354,-155.838 155.949,-113.993 143.339,-90.4415"/>
<polygon fill="midnightblue" stroke="midnightblue" points="146.396,-88.7356 138.59,-81.5719 140.224,-92.0398 146.396,-88.7356"/>
</g>
<!-- Node6 -->
<g id="node6" class="node"><title>Node6</title>
<g id="a_node6"><a xlink:href="../../dd/d00/_my_q_main_window_8h.html" target="_top" xlink:title="MyQMainWindow.h">
<polygon fill="white" stroke="black" points="231,-124.5 231,-143.5 333,-143.5 333,-124.5 231,-124.5"/>
<text text-anchor="middle" x="282" y="-131.5" font-family="Helvetica,sans-Serif" font-size="10.00">MyQMainWindow.h</text>
</a>
</g>
</g>
<!-- Node1&#45;&gt;Node6 -->
<g id="edge5" class="edge"><title>Node1&#45;&gt;Node6</title>
<path fill="none" stroke="midnightblue" d="M226.003,-180.498C238.032,-170.724 252.373,-159.072 263.53,-150.007"/>
<polygon fill="midnightblue" stroke="midnightblue" points="265.797,-152.675 271.351,-143.652 261.383,-147.242 265.797,-152.675"/>
</g>
<!-- Node3 -->
<g id="node3" class="node"><title>Node3</title>
<polygon fill="white" stroke="#bfbfbf" points="0,-0.5 0,-19.5 78,-19.5 78,-0.5 0,-0.5"/>
<text text-anchor="middle" x="39" y="-7.5" font-family="Helvetica,sans-Serif" font-size="10.00">QDockWidget</text>
</g>
<!-- Node2&#45;&gt;Node3 -->
<g id="edge2" class="edge"><title>Node2&#45;&gt;Node3</title>
<path fill="none" stroke="midnightblue" d="M120.389,-62.4035C104.939,-52.646 79.5101,-36.5854 61.1839,-25.0109"/>
<polygon fill="midnightblue" stroke="midnightblue" points="62.9098,-21.9613 52.5859,-19.5806 59.1718,-27.8798 62.9098,-21.9613"/>
</g>
<!-- Node4 -->
<g id="node4" class="node"><title>Node4</title>
<polygon fill="white" stroke="#bfbfbf" points="96.5,-0.5 96.5,-19.5 171.5,-19.5 171.5,-0.5 96.5,-0.5"/>
<text text-anchor="middle" x="134" y="-7.5" font-family="Helvetica,sans-Serif" font-size="10.00">QCloseEvent</text>
</g>
<!-- Node2&#45;&gt;Node4 -->
<g id="edge3" class="edge"><title>Node2&#45;&gt;Node4</title>
<path fill="none" stroke="midnightblue" d="M134,-62.4035C134,-53.9381 134,-40.7283 134,-29.8199"/>
<polygon fill="midnightblue" stroke="midnightblue" points="137.5,-29.5806 134,-19.5806 130.5,-29.5806 137.5,-29.5806"/>
</g>
<!-- Node5 -->
<g id="node5" class="node"><title>Node5</title>
<polygon fill="white" stroke="#bfbfbf" points="190,-0.5 190,-19.5 260,-19.5 260,-0.5 190,-0.5"/>
<text text-anchor="middle" x="225" y="-7.5" font-family="Helvetica,sans-Serif" font-size="10.00">QHideEvent</text>
</g>
<!-- Node2&#45;&gt;Node5 -->
<g id="edge4" class="edge"><title>Node2&#45;&gt;Node5</title>
<path fill="none" stroke="midnightblue" d="M147.038,-62.4035C161.769,-52.6905 185.973,-36.7319 203.509,-25.1697"/>
<polygon fill="midnightblue" stroke="midnightblue" points="205.564,-28.0072 211.986,-19.5806 201.711,-22.1632 205.564,-28.0072"/>
</g>
<!-- Node6&#45;&gt;Node2 -->
<g id="edge7" class="edge"><title>Node6&#45;&gt;Node2</title>
<path fill="none" stroke="midnightblue" d="M260.795,-124.403C235.628,-114.2 193.46,-97.1055 164.721,-85.4544"/>
<polygon fill="midnightblue" stroke="midnightblue" points="165.748,-82.0941 155.165,-81.5806 163.118,-88.5813 165.748,-82.0941"/>
</g>
<!-- Node7 -->
<g id="node7" class="node"><title>Node7</title>
<polygon fill="white" stroke="#bfbfbf" points="202,-62.5 202,-81.5 282,-81.5 282,-62.5 202,-62.5"/>
<text text-anchor="middle" x="242" y="-69.5" font-family="Helvetica,sans-Serif" font-size="10.00">QMainWindow</text>
</g>
<!-- Node6&#45;&gt;Node7 -->
<g id="edge6" class="edge"><title>Node6&#45;&gt;Node7</title>
<path fill="none" stroke="midnightblue" d="M276.269,-124.403C270.328,-115.493 260.883,-101.325 253.412,-90.1177"/>
<polygon fill="midnightblue" stroke="midnightblue" points="256.18,-87.9596 247.72,-81.5806 250.355,-91.8426 256.18,-87.9596"/>
</g>
<!-- Node8 -->
<g id="node8" class="node"><title>Node8</title>
<polygon fill="white" stroke="#bfbfbf" points="300,-62.5 300,-81.5 344,-81.5 344,-62.5 300,-62.5"/>
<text text-anchor="middle" x="322" y="-69.5" font-family="Helvetica,sans-Serif" font-size="10.00">vector</text>
</g>
<!-- Node6&#45;&gt;Node8 -->
<g id="edge8" class="edge"><title>Node6&#45;&gt;Node8</title>
<path fill="none" stroke="midnightblue" d="M287.731,-124.403C293.672,-115.493 303.117,-101.325 310.588,-90.1177"/>
<polygon fill="midnightblue" stroke="midnightblue" points="313.645,-91.8426 316.28,-81.5806 307.82,-87.9596 313.645,-91.8426"/>
</g>
<!-- Node9 -->
<g id="node9" class="node"><title>Node9</title>
<polygon fill="white" stroke="#bfbfbf" points="362.5,-62.5 362.5,-81.5 397.5,-81.5 397.5,-62.5 362.5,-62.5"/>
<text text-anchor="middle" x="380" y="-69.5" font-family="Helvetica,sans-Serif" font-size="10.00">map</text>
</g>
<!-- Node6&#45;&gt;Node9 -->
<g id="edge9" class="edge"><title>Node6&#45;&gt;Node9</title>
<path fill="none" stroke="midnightblue" d="M296.041,-124.403C312.051,-114.601 338.45,-98.4385 357.374,-86.8526"/>
<polygon fill="midnightblue" stroke="midnightblue" points="359.284,-89.7872 365.985,-81.5806 355.629,-83.8172 359.284,-89.7872"/>
</g>
<!-- Node10 -->
<g id="node10" class="node"><title>Node10</title>
<polygon fill="white" stroke="#bfbfbf" points="415.5,-57 415.5,-87 574.5,-87 574.5,-57 415.5,-57"/>
<text text-anchor="start" x="423.5" y="-75" font-family="Helvetica,sans-Serif" font-size="10.00">mars/cfg_manager/CFGManager</text>
<text text-anchor="middle" x="495" y="-64" font-family="Helvetica,sans-Serif" font-size="10.00">Interface.h</text>
</g>
<!-- Node6&#45;&gt;Node10 -->
<g id="edge10" class="edge"><title>Node6&#45;&gt;Node10</title>
<path fill="none" stroke="midnightblue" d="M312.518,-124.403C344.505,-115.393 395.573,-101.007 435.562,-89.7432"/>
<polygon fill="midnightblue" stroke="midnightblue" points="436.534,-93.1057 445.21,-87.0253 434.636,-86.3679 436.534,-93.1057"/>
</g>
</g>
</svg>
