<?xml version="1.0" encoding="UTF-8" standalone="no"?>
<!DOCTYPE svg PUBLIC "-//W3C//DTD SVG 1.1//EN"
 "http://www.w3.org/Graphics/SVG/1.1/DTD/svg11.dtd">
<!-- Generated by graphviz version 2.36.0 (20140111.2315)
 -->
<!-- Title: mars::sim::ControllerManager Pages: 1 -->
<svg width="874pt" height="567pt"
 viewBox="0.00 0.00 874.00 567.00" xmlns="http://www.w3.org/2000/svg" xmlns:xlink="http://www.w3.org/1999/xlink">
<g id="graph0" class="graph" transform="scale(1 1) rotate(0) translate(4 563)">
<title>mars::sim::ControllerManager</title>
<polygon fill="white" stroke="none" points="-4,4 -4,-563 870,-563 870,4 -4,4"/>
<!-- Node1 -->
<g id="node1" class="node"><title>Node1</title>
<polygon fill="#bfbfbf" stroke="black" points="720,-289.5 720,-308.5 866,-308.5 866,-289.5 720,-289.5"/>
<text text-anchor="middle" x="793" y="-296.5" font-family="Helvetica,sans-Serif" font-size="10.00">mars::sim::ControllerManager</text>
</g>
<!-- Node2 -->
<g id="node2" class="node"><title>Node2</title>
<g id="a_node2"><a xlink:href="../../d2/da9/classmars_1_1interfaces_1_1_controller_manager_interface.html" target="_top" xlink:title="&quot;ControllerManagerInterface&quot; declares the interfaces for all controller operations that are used for ...">
<polygon fill="white" stroke="black" points="278.5,-529 278.5,-559 413.5,-559 413.5,-529 278.5,-529"/>
<text text-anchor="start" x="286.5" y="-547" font-family="Helvetica,sans-Serif" font-size="10.00">mars::interfaces::Controller</text>
<text text-anchor="middle" x="346" y="-536" font-family="Helvetica,sans-Serif" font-size="10.00">ManagerInterface</text>
</a>
</g>
</g>
<!-- Node2&#45;&gt;Node1 -->
<g id="edge1" class="edge"><title>Node2&#45;&gt;Node1</title>
<path fill="none" stroke="midnightblue" d="M423.754,-545.089C450.582,-543.202 480.379,-538.464 506,-528 634.962,-475.332 752.58,-345.187 783.886,-308.668"/>
<polygon fill="midnightblue" stroke="midnightblue" points="423.412,-541.602 413.633,-545.678 423.819,-548.591 423.412,-541.602"/>
</g>
<!-- Node5 -->
<g id="node5" class="node"><title>Node5</title>
<g id="a_node5"><a xlink:href="../../d7/d4e/classmars_1_1interfaces_1_1_control_center.html" target="_top" xlink:title="The declaration of the ControlCenter. ">
<polygon fill="white" stroke="black" points="524.5,-284 524.5,-314 649.5,-314 649.5,-284 524.5,-284"/>
<text text-anchor="start" x="532.5" y="-302" font-family="Helvetica,sans-Serif" font-size="10.00">mars::interfaces::Control</text>
<text text-anchor="middle" x="587" y="-291" font-family="Helvetica,sans-Serif" font-size="10.00">Center</text>
</a>
</g>
</g>
<!-- Node2&#45;&gt;Node5 -->
<g id="edge7" class="edge"><title>Node2&#45;&gt;Node5</title>
<path fill="none" stroke="#9a32cd" stroke-dasharray="5,2" d="M405.876,-525.874C447.907,-512.497 498.319,-495.387 506,-488 557.876,-438.108 577.695,-349.277 583.748,-314.021"/>
<polygon fill="#9a32cd" stroke="#9a32cd" points="404.709,-522.572 396.23,-528.925 406.82,-529.246 404.709,-522.572"/>
<text text-anchor="middle" x="474" y="-516" font-family="Helvetica,sans-Serif" font-size="10.00"> controllers</text>
</g>
<!-- Node3 -->
<g id="node3" class="node"><title>Node3</title>
<g id="a_node3"><a xlink:href="../../d6/d90/classmars_1_1utils_1_1_mutex.html" target="_top" xlink:title="mars::utils::Mutex">
<polygon fill="white" stroke="black" points="539.5,-125.5 539.5,-144.5 634.5,-144.5 634.5,-125.5 539.5,-125.5"/>
<text text-anchor="middle" x="587" y="-132.5" font-family="Helvetica,sans-Serif" font-size="10.00">mars::utils::Mutex</text>
</a>
</g>
</g>
<!-- Node3&#45;&gt;Node1 -->
<g id="edge2" class="edge"><title>Node3&#45;&gt;Node1</title>
<path fill="none" stroke="#9a32cd" stroke-dasharray="5,2" d="M607.681,-150.822C649.542,-184.475 746.345,-262.297 780.118,-289.448"/>
<polygon fill="#9a32cd" stroke="#9a32cd" points="609.836,-148.064 599.85,-144.526 605.45,-153.52 609.836,-148.064"/>
<text text-anchor="middle" x="685" y="-225" font-family="Helvetica,sans-Serif" font-size="10.00"> iMutex</text>
</g>
<!-- Node4 -->
<g id="node4" class="node"><title>Node4</title>
<g id="a_node4"><a xlink:href="../../d6/d9e/structmars_1_1utils_1_1_pthread_mutex_wrapper.html" target="_top" xlink:title="mars::utils::PthreadMutex\lWrapper">
<polygon fill="white" stroke="black" points="281.5,-0 281.5,-30 410.5,-30 410.5,-0 281.5,-0"/>
<text text-anchor="start" x="289.5" y="-18" font-family="Helvetica,sans-Serif" font-size="10.00">mars::utils::PthreadMutex</text>
<text text-anchor="middle" x="346" y="-7" font-family="Helvetica,sans-Serif" font-size="10.00">Wrapper</text>
</a>
</g>
</g>
<!-- Node4&#45;&gt;Node3 -->
<g id="edge3" class="edge"><title>Node4&#45;&gt;Node3</title>
<path fill="none" stroke="#9a32cd" stroke-dasharray="5,2" d="M421.052,-10.3478C449.165,-11.5918 480.521,-16.825 506,-31 545.812,-53.1492 572.246,-104.167 581.906,-125.427"/>
<polygon fill="#9a32cd" stroke="#9a32cd" points="420.952,-6.84369 410.858,-10.0608 420.755,-13.8409 420.952,-6.84369"/>
<text text-anchor="middle" x="474" y="-34" font-family="Helvetica,sans-Serif" font-size="10.00"> myMutex</text>
</g>
<!-- Node5&#45;&gt;Node1 -->
<g id="edge4" class="edge"><title>Node5&#45;&gt;Node1</title>
<path fill="none" stroke="#9a32cd" stroke-dasharray="5,2" d="M660.026,-299C679.384,-299 700.323,-299 719.696,-299"/>
<polygon fill="#9a32cd" stroke="#9a32cd" points="659.76,-295.5 649.76,-299 659.76,-302.5 659.76,-295.5"/>
<text text-anchor="middle" x="685" y="-302" font-family="Helvetica,sans-Serif" font-size="10.00"> control</text>
</g>
<!-- Node6 -->
<g id="node6" class="node"><title>Node6</title>
<g id="a_node6"><a xlink:href="../../d1/d93/classmars_1_1interfaces_1_1_graphics_manager_interface.html" target="_top" xlink:title="mars::interfaces::Graphics\lManagerInterface">
<polygon fill="white" stroke="black" points="280,-480 280,-510 412,-510 412,-480 280,-480"/>
<text text-anchor="start" x="288" y="-498" font-family="Helvetica,sans-Serif" font-size="10.00">mars::interfaces::Graphics</text>
<text text-anchor="middle" x="346" y="-487" font-family="Helvetica,sans-Serif" font-size="10.00">ManagerInterface</text>
</a>
</g>
</g>
<!-- Node6&#45;&gt;Node5 -->
<g id="edge5" class="edge"><title>Node6&#45;&gt;Node5</title>
<path fill="none" stroke="#9a32cd" stroke-dasharray="5,2" d="M421.782,-480.322C450.582,-471.753 482.23,-458.444 506,-438 546.531,-403.141 571.265,-342.383 581.099,-314.183"/>
<polygon fill="#9a32cd" stroke="#9a32cd" points="420.81,-476.959 412.14,-483.049 422.715,-483.695 420.81,-476.959"/>
<text text-anchor="middle" x="474" y="-476" font-family="Helvetica,sans-Serif" font-size="10.00"> graphics</text>
</g>
<!-- Node7 -->
<g id="node7" class="node"><title>Node7</title>
<polygon fill="white" stroke="#bfbfbf" points="47,-436.5 47,-455.5 115,-455.5 115,-436.5 47,-436.5"/>
<text text-anchor="middle" x="81" y="-443.5" font-family="Helvetica,sans-Serif" font-size="10.00">LibInterface</text>
</g>
<!-- Node7&#45;&gt;Node6 -->
<g id="edge6" class="edge"><title>Node7&#45;&gt;Node6</title>
<path fill="none" stroke="midnightblue" d="M124.956,-454.003C166.98,-461.833 231.535,-473.86 279.873,-482.866"/>
<polygon fill="midnightblue" stroke="midnightblue" points="125.515,-450.547 115.043,-452.156 124.233,-457.429 125.515,-450.547"/>
</g>
<!-- Node10 -->
<g id="node10" class="node"><title>Node10</title>
<g id="a_node10"><a xlink:href="../../d4/da6/classmars_1_1cfg__manager_1_1_c_f_g_manager_interface.html" target="_top" xlink:title="mars::cfg_manager::\lCFGManagerInterface">
<polygon fill="white" stroke="black" points="289.5,-431 289.5,-461 402.5,-461 402.5,-431 289.5,-431"/>
<text text-anchor="start" x="297.5" y="-449" font-family="Helvetica,sans-Serif" font-size="10.00">mars::cfg_manager::</text>
<text text-anchor="middle" x="346" y="-438" font-family="Helvetica,sans-Serif" font-size="10.00">CFGManagerInterface</text>
</a>
</g>
</g>
<!-- Node7&#45;&gt;Node10 -->
<g id="edge11" class="edge"><title>Node7&#45;&gt;Node10</title>
<path fill="none" stroke="midnightblue" d="M125.318,-446C170.178,-446 240.43,-446 289.371,-446"/>
<polygon fill="midnightblue" stroke="midnightblue" points="125.043,-442.5 115.043,-446 125.043,-449.5 125.043,-442.5"/>
</g>
<!-- Node11 -->
<g id="node11" class="node"><title>Node11</title>
<g id="a_node11"><a xlink:href="../../d6/d2e/classmars_1_1data__broker_1_1_data_broker_interface.html" target="_top" xlink:title="The interface every DataBroker should implement. ">
<polygon fill="white" stroke="black" points="294,-382 294,-412 398,-412 398,-382 294,-382"/>
<text text-anchor="start" x="302" y="-400" font-family="Helvetica,sans-Serif" font-size="10.00">mars::data_broker::</text>
<text text-anchor="middle" x="346" y="-389" font-family="Helvetica,sans-Serif" font-size="10.00">DataBrokerInterface</text>
</a>
</g>
</g>
<!-- Node7&#45;&gt;Node11 -->
<g id="edge13" class="edge"><title>Node7&#45;&gt;Node11</title>
<path fill="none" stroke="midnightblue" d="M125.041,-437.981C171.26,-429.37 244.664,-415.694 293.812,-406.537"/>
<polygon fill="midnightblue" stroke="midnightblue" points="124.233,-434.571 115.043,-439.844 125.515,-441.453 124.233,-434.571"/>
</g>
<!-- Node8 -->
<g id="node8" class="node"><title>Node8</title>
<g id="a_node8"><a xlink:href="../../d6/d60/classmars_1_1interfaces_1_1_joint_manager_interface.html" target="_top" xlink:title="Interface class for the node organization. ">
<polygon fill="white" stroke="black" points="270,-333 270,-363 422,-363 422,-333 270,-333"/>
<text text-anchor="start" x="278" y="-351" font-family="Helvetica,sans-Serif" font-size="10.00">mars::interfaces::JointManager</text>
<text text-anchor="middle" x="346" y="-340" font-family="Helvetica,sans-Serif" font-size="10.00">Interface</text>
</a>
</g>
</g>
<!-- Node8&#45;&gt;Node5 -->
<g id="edge8" class="edge"><title>Node8&#45;&gt;Node5</title>
<path fill="none" stroke="#9a32cd" stroke-dasharray="5,2" d="M430.251,-330.932C461.226,-324.581 495.791,-317.495 524.474,-311.614"/>
<polygon fill="#9a32cd" stroke="#9a32cd" points="429.425,-327.528 420.332,-332.965 430.831,-334.386 429.425,-327.528"/>
<text text-anchor="middle" x="474" y="-331" font-family="Helvetica,sans-Serif" font-size="10.00"> joints</text>
</g>
<!-- Node9 -->
<g id="node9" class="node"><title>Node9</title>
<g id="a_node9"><a xlink:href="../../df/d82/classmars_1_1interfaces_1_1_entity_manager_interface.html" target="_top" xlink:title="mars::interfaces::Entity\lManagerInterface">
<polygon fill="white" stroke="black" points="286.5,-284 286.5,-314 405.5,-314 405.5,-284 286.5,-284"/>
<text text-anchor="start" x="294.5" y="-302" font-family="Helvetica,sans-Serif" font-size="10.00">mars::interfaces::Entity</text>
<text text-anchor="middle" x="346" y="-291" font-family="Helvetica,sans-Serif" font-size="10.00">ManagerInterface</text>
</a>
</g>
</g>
<!-- Node9&#45;&gt;Node5 -->
<g id="edge9" class="edge"><title>Node9&#45;&gt;Node5</title>
<path fill="none" stroke="#9a32cd" stroke-dasharray="5,2" d="M416.126,-299C450.234,-299 491.043,-299 524.114,-299"/>
<polygon fill="#9a32cd" stroke="#9a32cd" points="415.772,-295.5 405.772,-299 415.772,-302.5 415.772,-295.5"/>
<text text-anchor="middle" x="474" y="-302" font-family="Helvetica,sans-Serif" font-size="10.00"> entities</text>
</g>
<!-- Node10&#45;&gt;Node5 -->
<g id="edge10" class="edge"><title>Node10&#45;&gt;Node5</title>
<path fill="none" stroke="#9a32cd" stroke-dasharray="5,2" d="M412.687,-432.328C442.892,-423.955 478.117,-411.083 506,-392 537.109,-370.71 563.443,-334.402 576.734,-314.021"/>
<polygon fill="#9a32cd" stroke="#9a32cd" points="411.418,-429.044 402.654,-434.998 413.218,-435.809 411.418,-429.044"/>
<text text-anchor="middle" x="474" y="-426" font-family="Helvetica,sans-Serif" font-size="10.00"> cfg</text>
</g>
<!-- Node11&#45;&gt;Node5 -->
<g id="edge12" class="edge"><title>Node11&#45;&gt;Node5</title>
<path fill="none" stroke="#9a32cd" stroke-dasharray="5,2" d="M403.804,-378.742C410.618,-376.497 417.472,-374.214 424,-372 460.609,-359.586 470.725,-358.812 506,-343 524.948,-334.507 545.453,-323.184 560.959,-314.152"/>
<polygon fill="#9a32cd" stroke="#9a32cd" points="402.304,-375.55 393.892,-381.99 404.484,-382.202 402.304,-375.55"/>
<text text-anchor="middle" x="474" y="-380" font-family="Helvetica,sans-Serif" font-size="10.00"> dataBroker</text>
<text text-anchor="middle" x="474" y="-369" font-family="Helvetica,sans-Serif" font-size="10.00">theDataBroker</text>
</g>
<!-- Node12 -->
<g id="node12" class="node"><title>Node12</title>
<g id="a_node12"><a xlink:href="../../db/da9/classmars_1_1interfaces_1_1_sensor_manager_interface.html" target="_top" xlink:title="&quot;SensorManagerInterface&quot; declares the interfaces for all sensor operations that are used for the comm...">
<polygon fill="white" stroke="black" points="284,-235 284,-265 408,-265 408,-235 284,-235"/>
<text text-anchor="start" x="292" y="-253" font-family="Helvetica,sans-Serif" font-size="10.00">mars::interfaces::Sensor</text>
<text text-anchor="middle" x="346" y="-242" font-family="Helvetica,sans-Serif" font-size="10.00">ManagerInterface</text>
</a>
</g>
</g>
<!-- Node12&#45;&gt;Node5 -->
<g id="edge14" class="edge"><title>Node12&#45;&gt;Node5</title>
<path fill="none" stroke="#9a32cd" stroke-dasharray="5,2" d="M418.46,-264.651C452.075,-271.543 491.775,-279.682 524.09,-286.307"/>
<polygon fill="#9a32cd" stroke="#9a32cd" points="418.737,-261.135 408.238,-262.555 417.331,-267.992 418.737,-261.135"/>
<text text-anchor="middle" x="474" y="-285" font-family="Helvetica,sans-Serif" font-size="10.00"> sensors</text>
</g>
<!-- Node13 -->
<g id="node13" class="node"><title>Node13</title>
<g id="a_node13"><a xlink:href="../../db/de9/classmars_1_1interfaces_1_1_motor_manager_interface.html" target="_top" xlink:title="&quot;MotorManagerInterface&quot; declares the interfaces for all motor operations that are used for the commun...">
<polygon fill="white" stroke="black" points="268.5,-186 268.5,-216 423.5,-216 423.5,-186 268.5,-186"/>
<text text-anchor="start" x="276.5" y="-204" font-family="Helvetica,sans-Serif" font-size="10.00">mars::interfaces::MotorManager</text>
<text text-anchor="middle" x="346" y="-193" font-family="Helvetica,sans-Serif" font-size="10.00">Interface</text>
</a>
</g>
</g>
<!-- Node13&#45;&gt;Node5 -->
<g id="edge15" class="edge"><title>Node13&#45;&gt;Node5</title>
<path fill="none" stroke="#9a32cd" stroke-dasharray="5,2" d="M406.689,-219.22C412.554,-221.125 418.403,-223.072 424,-225 460.837,-237.691 470.542,-239.853 506,-256 524.512,-264.43 544.681,-275.283 560.136,-283.976"/>
<polygon fill="#9a32cd" stroke="#9a32cd" points="407.437,-215.784 396.846,-216.062 405.299,-222.45 407.437,-215.784"/>
<text text-anchor="middle" x="474" y="-259" font-family="Helvetica,sans-Serif" font-size="10.00"> motors</text>
</g>
<!-- Node14 -->
<g id="node14" class="node"><title>Node14</title>
<g id="a_node14"><a xlink:href="../../d9/d6a/classmars_1_1interfaces_1_1_load_center.html" target="_top" xlink:title="mars::interfaces::LoadCenter">
<polygon fill="white" stroke="black" points="274.5,-147.5 274.5,-166.5 417.5,-166.5 417.5,-147.5 274.5,-147.5"/>
<text text-anchor="middle" x="346" y="-154.5" font-family="Helvetica,sans-Serif" font-size="10.00">mars::interfaces::LoadCenter</text>
</a>
</g>
</g>
<!-- Node14&#45;&gt;Node5 -->
<g id="edge16" class="edge"><title>Node14&#45;&gt;Node5</title>
<path fill="none" stroke="#9a32cd" stroke-dasharray="5,2" d="M402.573,-169.145C409.856,-171.192 417.16,-173.482 424,-176 462.237,-190.078 473.093,-192.972 506,-217 533.146,-236.821 559.315,-266.208 573.967,-283.893"/>
<polygon fill="#9a32cd" stroke="#9a32cd" points="403.264,-165.707 392.699,-166.504 401.456,-172.469 403.264,-165.707"/>
<text text-anchor="middle" x="474" y="-220" font-family="Helvetica,sans-Serif" font-size="10.00"> loadCenter</text>
</g>
<!-- Node15 -->
<g id="node15" class="node"><title>Node15</title>
<g id="a_node15"><a xlink:href="../../d1/d51/classmars_1_1interfaces_1_1_load_heightmap_interface.html" target="_top" xlink:title="mars::interfaces::LoadHeightmap\lInterface">
<polygon fill="white" stroke="black" points="0.5,-167 0.5,-197 161.5,-197 161.5,-167 0.5,-167"/>
<text text-anchor="start" x="8.5" y="-185" font-family="Helvetica,sans-Serif" font-size="10.00">mars::interfaces::LoadHeightmap</text>
<text text-anchor="middle" x="81" y="-174" font-family="Helvetica,sans-Serif" font-size="10.00">Interface</text>
</a>
</g>
</g>
<!-- Node15&#45;&gt;Node14 -->
<g id="edge17" class="edge"><title>Node15&#45;&gt;Node14</title>
<path fill="none" stroke="#9a32cd" stroke-dasharray="5,2" d="M171.85,-173.459C205.256,-170.284 242.661,-166.728 274.133,-163.736"/>
<polygon fill="#9a32cd" stroke="#9a32cd" points="171.246,-170.001 161.622,-174.431 171.909,-176.969 171.246,-170.001"/>
<text text-anchor="middle" x="215" y="-176" font-family="Helvetica,sans-Serif" font-size="10.00"> loadHeightmap</text>
</g>
<!-- Node16 -->
<g id="node16" class="node"><title>Node16</title>
<g id="a_node16"><a xlink:href="../../d7/d02/classmars_1_1interfaces_1_1_load_mesh_interface.html" target="_top" xlink:title="mars::interfaces::LoadMesh\lInterface">
<polygon fill="white" stroke="black" points="12,-118 12,-148 150,-148 150,-118 12,-118"/>
<text text-anchor="start" x="20" y="-136" font-family="Helvetica,sans-Serif" font-size="10.00">mars::interfaces::LoadMesh</text>
<text text-anchor="middle" x="81" y="-125" font-family="Helvetica,sans-Serif" font-size="10.00">Interface</text>
</a>
</g>
</g>
<!-- Node16&#45;&gt;Node14 -->
<g id="edge18" class="edge"><title>Node16&#45;&gt;Node14</title>
<path fill="none" stroke="#9a32cd" stroke-dasharray="5,2" d="M160.116,-140.128C196.387,-143.438 239.183,-147.344 274.462,-150.563"/>
<polygon fill="#9a32cd" stroke="#9a32cd" points="160.348,-136.635 150.071,-139.212 159.712,-143.606 160.348,-136.635"/>
<text text-anchor="middle" x="215" y="-151" font-family="Helvetica,sans-Serif" font-size="10.00"> loadMesh</text>
</g>
<!-- Node17 -->
<g id="node17" class="node"><title>Node17</title>
<g id="a_node17"><a xlink:href="../../d7/d4c/classmars_1_1interfaces_1_1_node_manager_interface.html" target="_top" xlink:title="&quot;NodeManagerInterface&quot; declares the interfaces for all NodeOperations that are used for the communica...">
<polygon fill="white" stroke="black" points="269,-98 269,-128 423,-128 423,-98 269,-98"/>
<text text-anchor="start" x="277" y="-116" font-family="Helvetica,sans-Serif" font-size="10.00">mars::interfaces::NodeManager</text>
<text text-anchor="middle" x="346" y="-105" font-family="Helvetica,sans-Serif" font-size="10.00">Interface</text>
</a>
</g>
</g>
<!-- Node17&#45;&gt;Node5 -->
<g id="edge19" class="edge"><title>Node17&#45;&gt;Node5</title>
<path fill="none" stroke="#9a32cd" stroke-dasharray="5,2" d="M433.022,-130.644C458.458,-138.899 485.068,-150.842 506,-168 545.158,-200.098 570.258,-256.711 580.598,-283.768"/>
<polygon fill="#9a32cd" stroke="#9a32cd" points="433.933,-127.262 423.345,-127.658 431.868,-133.951 433.933,-127.262"/>
<text text-anchor="middle" x="474" y="-171" font-family="Helvetica,sans-Serif" font-size="10.00"> nodes</text>
</g>
<!-- Node18 -->
<g id="node18" class="node"><title>Node18</title>
<g id="a_node18"><a xlink:href="../../dc/de5/classmars_1_1interfaces_1_1_simulator_interface.html" target="_top" xlink:title="mars::interfaces::Simulator\lInterface">
<polygon fill="white" stroke="black" points="279,-49 279,-79 413,-79 413,-49 279,-49"/>
<text text-anchor="start" x="287" y="-67" font-family="Helvetica,sans-Serif" font-size="10.00">mars::interfaces::Simulator</text>
<text text-anchor="middle" x="346" y="-56" font-family="Helvetica,sans-Serif" font-size="10.00">Interface</text>
</a>
</g>
</g>
<!-- Node18&#45;&gt;Node5 -->
<g id="edge20" class="edge"><title>Node18&#45;&gt;Node5</title>
<path fill="none" stroke="#9a32cd" stroke-dasharray="5,2" d="M422.967,-77.3757C451.938,-85.7557 483.394,-99.2762 506,-121 512.382,-127.133 561.665,-241.892 579.546,-283.824"/>
<polygon fill="#9a32cd" stroke="#9a32cd" points="423.822,-73.9811 413.253,-74.7264 421.98,-80.7345 423.822,-73.9811"/>
<text text-anchor="middle" x="474" y="-124" font-family="Helvetica,sans-Serif" font-size="10.00"> sim</text>
</g>
</g>
</svg>
