<?xml version="1.0" encoding="UTF-8" standalone="no"?>
<!DOCTYPE svg PUBLIC "-//W3C//DTD SVG 1.1//EN"
 "http://www.w3.org/Graphics/SVG/1.1/DTD/svg11.dtd">
<!-- Generated by graphviz version 2.26.3 (20100126.1600)
 -->
<!-- Title: /home/kavonszadkowski/limes&#45;dev/simulation/mars/graphics/src/3d_objects/CapsuleDrawObject.cpp Pages: 1 -->
<svg width="1760pt" height="258pt"
 viewBox="0.00 0.00 1760.00 258.00" xmlns="http://www.w3.org/2000/svg" xmlns:xlink="http://www.w3.org/1999/xlink">
<g id="graph1" class="graph" transform="scale(1 1) rotate(0) translate(4 254)">
<title>/home/kavonszadkowski/limes&#45;dev/simulation/mars/graphics/src/3d_objects/CapsuleDrawObject.cpp</title>
<polygon fill="white" stroke="white" points="-4,5 -4,-254 1757,-254 1757,5 -4,5"/>
<!-- Node1 -->
<g id="node1" class="node"><title>Node1</title>
<polygon fill="#bfbfbf" stroke="black" points="1393.5,-189 1393.5,-249 1556.5,-249 1556.5,-189 1393.5,-189"/>
<text text-anchor="start" x="1401.5" y="-236" font-family="Helvetica,sans-Serif" font-size="10.00">/home/kavonszadkowski</text>
<text text-anchor="start" x="1401.5" y="-223" font-family="Helvetica,sans-Serif" font-size="10.00">/limes&#45;dev/simulation</text>
<text text-anchor="start" x="1401.5" y="-210" font-family="Helvetica,sans-Serif" font-size="10.00">/mars/graphics/src/3d</text>
<text text-anchor="middle" x="1475" y="-197" font-family="Helvetica,sans-Serif" font-size="10.00">_objects/CapsuleDrawObject.cpp</text>
</g>
<!-- Node2 -->
<g id="node3" class="node"><title>Node2</title>
<a xlink:href="../../d8/d3f/_capsule_draw_object_8h.html" target="_top" xlink:title="CapsuleDrawObject.h">
<polygon fill="white" stroke="black" points="1225.5,-130.5 1225.5,-151.5 1338.5,-151.5 1338.5,-130.5 1225.5,-130.5"/>
<text text-anchor="middle" x="1282" y="-138.5" font-family="Helvetica,sans-Serif" font-size="10.00">CapsuleDrawObject.h</text>
</a>
</g>
<!-- Node1&#45;&gt;Node2 -->
<g id="edge2" class="edge"><title>Node1&#45;&gt;Node2</title>
<path fill="none" stroke="midnightblue" d="M1400.66,-188.955C1372.23,-177.464 1341.08,-164.877 1317.84,-155.483"/>
<polygon fill="midnightblue" stroke="midnightblue" points="1318.97,-152.167 1308.39,-151.665 1316.35,-158.657 1318.97,-152.167"/>
</g>
<!-- Node21 -->
<g id="node44" class="node"><title>Node21</title>
<a xlink:href="../../d2/d39/_cylinder_draw_object_8h.html" target="_top" xlink:title="CylinderDrawObject.h">
<polygon fill="white" stroke="black" points="1355.5,-130.5 1355.5,-151.5 1468.5,-151.5 1468.5,-130.5 1355.5,-130.5"/>
<text text-anchor="middle" x="1412" y="-138.5" font-family="Helvetica,sans-Serif" font-size="10.00">CylinderDrawObject.h</text>
</a>
</g>
<!-- Node1&#45;&gt;Node21 -->
<g id="edge46" class="edge"><title>Node1&#45;&gt;Node21</title>
<path fill="none" stroke="midnightblue" d="M1450.46,-188.62C1442.58,-178.867 1434.1,-168.357 1427.1,-159.698"/>
<polygon fill="midnightblue" stroke="midnightblue" points="1429.69,-157.334 1420.69,-151.753 1424.25,-161.732 1429.69,-157.334"/>
</g>
<!-- Node22 -->
<g id="node50" class="node"><title>Node22</title>
<a xlink:href="../../d4/d90/_sphere_draw_object_8h.html" target="_top" xlink:title="SphereDrawObject.h">
<polygon fill="white" stroke="black" points="1485.5,-130.5 1485.5,-151.5 1592.5,-151.5 1592.5,-130.5 1485.5,-130.5"/>
<text text-anchor="middle" x="1539" y="-138.5" font-family="Helvetica,sans-Serif" font-size="10.00">SphereDrawObject.h</text>
</a>
</g>
<!-- Node1&#45;&gt;Node22 -->
<g id="edge56" class="edge"><title>Node1&#45;&gt;Node22</title>
<path fill="none" stroke="midnightblue" d="M1499.93,-188.62C1507.93,-178.867 1516.55,-168.357 1523.66,-159.698"/>
<polygon fill="midnightblue" stroke="midnightblue" points="1526.54,-161.704 1530.18,-151.753 1521.13,-157.264 1526.54,-161.704"/>
</g>
<!-- Node23 -->
<g id="node55" class="node"><title>Node23</title>
<polygon fill="white" stroke="#bfbfbf" points="1610,-130.5 1610,-151.5 1688,-151.5 1688,-130.5 1610,-130.5"/>
<text text-anchor="middle" x="1649" y="-138.5" font-family="Helvetica,sans-Serif" font-size="10.00">osg/Geometry</text>
</g>
<!-- Node1&#45;&gt;Node23 -->
<g id="edge64" class="edge"><title>Node1&#45;&gt;Node23</title>
<path fill="none" stroke="midnightblue" d="M1542.27,-188.843C1567.54,-177.519 1595.14,-165.144 1615.95,-155.817"/>
<polygon fill="midnightblue" stroke="midnightblue" points="1617.59,-158.916 1625.28,-151.632 1614.73,-152.529 1617.59,-158.916"/>
</g>
<!-- Node3 -->
<g id="node5" class="node"><title>Node3</title>
<a xlink:href="../../d4/d4b/_draw_object_8h.html" target="_top" xlink:title="DrawObject.h">
<polygon fill="white" stroke="black" points="924.5,-72.5 924.5,-93.5 1001.5,-93.5 1001.5,-72.5 924.5,-72.5"/>
<text text-anchor="middle" x="963" y="-80.5" font-family="Helvetica,sans-Serif" font-size="10.00">DrawObject.h</text>
</a>
</g>
<!-- Node2&#45;&gt;Node3 -->
<g id="edge4" class="edge"><title>Node2&#45;&gt;Node3</title>
<path fill="none" stroke="midnightblue" d="M1225.34,-130.698C1164.53,-119.642 1068.97,-102.268 1011.51,-91.8208"/>
<polygon fill="midnightblue" stroke="midnightblue" points="1012.06,-88.3623 1001.59,-90.0169 1010.81,-95.2494 1012.06,-88.3623"/>
</g>
<!-- Node4 -->
<g id="node7" class="node"><title>Node4</title>
<polygon fill="white" stroke="#bfbfbf" points="1606,-7.5 1606,-28.5 1752,-28.5 1752,-7.5 1606,-7.5"/>
<text text-anchor="middle" x="1679" y="-15.5" font-family="Helvetica,sans-Serif" font-size="10.00">mars/interfaces/MARSDefs.h</text>
</g>
<!-- Node2&#45;&gt;Node4 -->
<g id="edge40" class="edge"><title>Node2&#45;&gt;Node4</title>
<path fill="none" stroke="midnightblue" d="M1316.19,-130.407C1388.25,-108.082 1555.61,-56.2296 1635.3,-31.5388"/>
<polygon fill="midnightblue" stroke="midnightblue" points="1636.52,-34.8269 1645.03,-28.5242 1634.44,-28.1405 1636.52,-34.8269"/>
</g>
<!-- Node5 -->
<g id="node9" class="node"><title>Node5</title>
<polygon fill="white" stroke="#bfbfbf" points="1489.5,-7.5 1489.5,-28.5 1588.5,-28.5 1588.5,-7.5 1489.5,-7.5"/>
<text text-anchor="middle" x="1539" y="-15.5" font-family="Helvetica,sans-Serif" font-size="10.00">mars/utils/Vector.h</text>
</g>
<!-- Node2&#45;&gt;Node5 -->
<g id="edge42" class="edge"><title>Node2&#45;&gt;Node5</title>
<path fill="none" stroke="midnightblue" d="M1304.36,-130.3C1350.23,-108.346 1455.08,-58.1621 1507.69,-32.9855"/>
<polygon fill="midnightblue" stroke="midnightblue" points="1509.37,-36.0621 1516.88,-28.588 1506.35,-29.748 1509.37,-36.0621"/>
</g>
<!-- Node11 -->
<g id="node21" class="node"><title>Node11</title>
<polygon fill="white" stroke="#bfbfbf" points="-0.5,-7.5 -0.5,-28.5 28.5,-28.5 28.5,-7.5 -0.5,-7.5"/>
<text text-anchor="middle" x="14" y="-15.5" font-family="Helvetica,sans-Serif" font-size="10.00">list</text>
</g>
<!-- Node2&#45;&gt;Node11 -->
<g id="edge44" class="edge"><title>Node2&#45;&gt;Node11</title>
<path fill="none" stroke="midnightblue" d="M1225.33,-140.56C1011.91,-138.238 257.674,-123.855 37,-36 35.7811,-35.5147 34.5736,-34.9436 33.3876,-34.3091"/>
<polygon fill="midnightblue" stroke="midnightblue" points="35.1344,-31.2655 24.8876,-28.5724 31.2185,-37.0677 35.1344,-31.2655"/>
</g>
<!-- Node3&#45;&gt;Node4 -->
<g id="edge6" class="edge"><title>Node3&#45;&gt;Node4</title>
<path fill="none" stroke="midnightblue" d="M1001.8,-82.0409C1101.24,-79.1686 1373.11,-68.7023 1597,-36 1606.53,-34.6085 1616.6,-32.7367 1626.29,-30.7251"/>
<polygon fill="midnightblue" stroke="midnightblue" points="1627.19,-34.1136 1636.23,-28.5924 1625.72,-27.2695 1627.19,-34.1136"/>
</g>
<!-- Node3&#45;&gt;Node5 -->
<g id="edge8" class="edge"><title>Node3&#45;&gt;Node5</title>
<path fill="none" stroke="midnightblue" d="M1001.74,-82.2615C1088.42,-80.0062 1304.29,-71.031 1481,-36 1486.96,-34.8179 1493.18,-33.2553 1499.24,-31.5434"/>
<polygon fill="midnightblue" stroke="midnightblue" points="1500.63,-34.7811 1509.21,-28.5625 1498.62,-28.0746 1500.63,-34.7811"/>
</g>
<!-- Node6 -->
<g id="node11" class="node"><title>Node6</title>
<polygon fill="white" stroke="#bfbfbf" points="46,-7.5 46,-28.5 164,-28.5 164,-7.5 46,-7.5"/>
<text text-anchor="middle" x="105" y="-15.5" font-family="Helvetica,sans-Serif" font-size="10.00">mars/utils/Quaternion.h</text>
</g>
<!-- Node3&#45;&gt;Node6 -->
<g id="edge10" class="edge"><title>Node3&#45;&gt;Node6</title>
<path fill="none" stroke="midnightblue" d="M924.448,-81.159C776.216,-74.0185 247.528,-47.9583 173,-36 165.2,-34.7485 157,-32.9801 149.1,-31.0361"/>
<polygon fill="midnightblue" stroke="midnightblue" points="149.865,-27.6188 139.307,-28.5053 148.114,-34.3961 149.865,-27.6188"/>
</g>
<!-- Node7 -->
<g id="node13" class="node"><title>Node7</title>
<polygon fill="white" stroke="#bfbfbf" points="181.5,-7.5 181.5,-28.5 318.5,-28.5 318.5,-7.5 181.5,-7.5"/>
<text text-anchor="middle" x="250" y="-15.5" font-family="Helvetica,sans-Serif" font-size="10.00">mars/interfaces/LightData.h</text>
</g>
<!-- Node3&#45;&gt;Node7 -->
<g id="edge12" class="edge"><title>Node3&#45;&gt;Node7</title>
<path fill="none" stroke="midnightblue" d="M924.411,-82.24C824.896,-79.8285 551.638,-70.3423 327,-36 318.126,-34.6434 308.761,-32.8053 299.736,-30.8204"/>
<polygon fill="midnightblue" stroke="midnightblue" points="300.263,-27.3506 289.734,-28.5347 298.703,-34.1747 300.263,-27.3506"/>
</g>
<!-- Node8 -->
<g id="node15" class="node"><title>Node8</title>
<polygon fill="white" stroke="#bfbfbf" points="336,-1 336,-35 458,-35 458,-1 336,-1"/>
<text text-anchor="start" x="344" y="-22" font-family="Helvetica,sans-Serif" font-size="10.00">mars/interfaces/Material</text>
<text text-anchor="middle" x="397" y="-9" font-family="Helvetica,sans-Serif" font-size="10.00">Data.h</text>
</g>
<!-- Node3&#45;&gt;Node8 -->
<g id="edge14" class="edge"><title>Node3&#45;&gt;Node8</title>
<path fill="none" stroke="midnightblue" d="M924.453,-81.4124C842.225,-77.5832 643.474,-65.974 468.253,-36.0707"/>
<polygon fill="midnightblue" stroke="midnightblue" points="468.792,-32.612 458.341,-34.355 467.598,-39.5094 468.792,-32.612"/>
</g>
<!-- Node9 -->
<g id="node17" class="node"><title>Node9</title>
<polygon fill="white" stroke="#bfbfbf" points="475.5,-7.5 475.5,-28.5 516.5,-28.5 516.5,-7.5 475.5,-7.5"/>
<text text-anchor="middle" x="496" y="-15.5" font-family="Helvetica,sans-Serif" font-size="10.00">string</text>
</g>
<!-- Node3&#45;&gt;Node9 -->
<g id="edge16" class="edge"><title>Node3&#45;&gt;Node9</title>
<path fill="none" stroke="midnightblue" d="M924.235,-81.0549C831.382,-76.0416 598.497,-61.2728 525,-36 523.067,-35.3352 521.128,-34.5227 519.22,-33.6144"/>
<polygon fill="midnightblue" stroke="midnightblue" points="520.544,-30.3446 510.109,-28.5142 517.125,-36.4527 520.544,-30.3446"/>
</g>
<!-- Node10 -->
<g id="node19" class="node"><title>Node10</title>
<polygon fill="white" stroke="#bfbfbf" points="534,-7.5 534,-28.5 578,-28.5 578,-7.5 534,-7.5"/>
<text text-anchor="middle" x="556" y="-15.5" font-family="Helvetica,sans-Serif" font-size="10.00">vector</text>
</g>
<!-- Node3&#45;&gt;Node10 -->
<g id="edge18" class="edge"><title>Node3&#45;&gt;Node10</title>
<path fill="none" stroke="midnightblue" d="M924.292,-80.1336C841.34,-73.6714 648.948,-56.8877 587,-36 584.844,-35.273 582.671,-34.3865 580.531,-33.4008"/>
<polygon fill="midnightblue" stroke="midnightblue" points="581.982,-30.2089 571.505,-28.6327 578.712,-36.3984 581.982,-30.2089"/>
</g>
<!-- Node3&#45;&gt;Node11 -->
<g id="edge20" class="edge"><title>Node3&#45;&gt;Node11</title>
<path fill="none" stroke="midnightblue" d="M924.49,-81.3624C752.021,-73.9888 58.1238,-43.8879 37,-36 35.7709,-35.541 34.5553,-34.991 33.363,-34.3729"/>
<polygon fill="midnightblue" stroke="midnightblue" points="35.104,-31.3269 24.8431,-28.6876 31.2185,-37.1496 35.104,-31.3269"/>
</g>
<!-- Node12 -->
<g id="node23" class="node"><title>Node12</title>
<polygon fill="white" stroke="#bfbfbf" points="595.5,-7.5 595.5,-28.5 630.5,-28.5 630.5,-7.5 595.5,-7.5"/>
<text text-anchor="middle" x="613" y="-15.5" font-family="Helvetica,sans-Serif" font-size="10.00">map</text>
</g>
<!-- Node3&#45;&gt;Node12 -->
<g id="edge22" class="edge"><title>Node3&#45;&gt;Node12</title>
<path fill="none" stroke="midnightblue" d="M924.221,-79.6166C849.918,-72.7676 690.306,-56.1837 639,-36 637.563,-35.4347 636.128,-34.7764 634.712,-34.0523"/>
<polygon fill="midnightblue" stroke="midnightblue" points="636.175,-30.8443 625.819,-28.6084 632.52,-36.8145 636.175,-30.8443"/>
</g>
<!-- Node13 -->
<g id="node25" class="node"><title>Node13</title>
<polygon fill="white" stroke="#bfbfbf" points="648,-7.5 648,-28.5 718,-28.5 718,-7.5 648,-7.5"/>
<text text-anchor="middle" x="683" y="-15.5" font-family="Helvetica,sans-Serif" font-size="10.00">osg/Material</text>
</g>
<!-- Node3&#45;&gt;Node13 -->
<g id="edge24" class="edge"><title>Node3&#45;&gt;Node13</title>
<path fill="none" stroke="midnightblue" d="M924.434,-77.6459C877.243,-70.5651 795.205,-56.5354 727,-36 723.389,-34.9129 719.666,-33.6405 715.985,-32.2836"/>
<polygon fill="midnightblue" stroke="midnightblue" points="717.036,-28.9368 706.448,-28.5636 714.493,-35.4583 717.036,-28.9368"/>
</g>
<!-- Node14 -->
<g id="node27" class="node"><title>Node14</title>
<polygon fill="white" stroke="#bfbfbf" points="736,-7.5 736,-28.5 798,-28.5 798,-7.5 736,-7.5"/>
<text text-anchor="middle" x="767" y="-15.5" font-family="Helvetica,sans-Serif" font-size="10.00">osg/Group</text>
</g>
<!-- Node3&#45;&gt;Node14 -->
<g id="edge26" class="edge"><title>Node3&#45;&gt;Node14</title>
<path fill="none" stroke="midnightblue" d="M924.392,-72.878C892.536,-64.1678 846.345,-50.7083 807,-36 804.258,-34.975 801.438,-33.8521 798.625,-32.6837"/>
<polygon fill="midnightblue" stroke="midnightblue" points="799.778,-29.3694 789.211,-28.6123 797,-35.7943 799.778,-29.3694"/>
</g>
<!-- Node15 -->
<g id="node29" class="node"><title>Node15</title>
<polygon fill="white" stroke="#bfbfbf" points="815.5,-7.5 815.5,-28.5 964.5,-28.5 964.5,-7.5 815.5,-7.5"/>
<text text-anchor="middle" x="890" y="-15.5" font-family="Helvetica,sans-Serif" font-size="10.00">osg/PositionAttitudeTransform</text>
</g>
<!-- Node3&#45;&gt;Node15 -->
<g id="edge28" class="edge"><title>Node3&#45;&gt;Node15</title>
<path fill="none" stroke="midnightblue" d="M950.946,-72.2666C939.677,-62.2334 922.657,-47.078 909.464,-35.3311"/>
<polygon fill="midnightblue" stroke="midnightblue" points="911.626,-32.5698 901.83,-28.5337 906.971,-37.7977 911.626,-32.5698"/>
</g>
<!-- Node16 -->
<g id="node31" class="node"><title>Node16</title>
<polygon fill="white" stroke="#bfbfbf" points="981.5,-7.5 981.5,-28.5 1088.5,-28.5 1088.5,-7.5 981.5,-7.5"/>
<text text-anchor="middle" x="1035" y="-15.5" font-family="Helvetica,sans-Serif" font-size="10.00">osg/MatrixTransform</text>
</g>
<!-- Node3&#45;&gt;Node16 -->
<g id="edge30" class="edge"><title>Node3&#45;&gt;Node16</title>
<path fill="none" stroke="midnightblue" d="M974.889,-72.2666C986.003,-62.2334 1002.79,-47.078 1015.8,-35.3311"/>
<polygon fill="midnightblue" stroke="midnightblue" points="1018.25,-37.8327 1023.33,-28.5337 1013.56,-32.6368 1018.25,-37.8327"/>
</g>
<!-- Node17 -->
<g id="node33" class="node"><title>Node17</title>
<polygon fill="white" stroke="#bfbfbf" points="1106,-7.5 1106,-28.5 1204,-28.5 1204,-7.5 1106,-7.5"/>
<text text-anchor="middle" x="1155" y="-15.5" font-family="Helvetica,sans-Serif" font-size="10.00">osg/BlendEquation</text>
</g>
<!-- Node3&#45;&gt;Node17 -->
<g id="edge32" class="edge"><title>Node3&#45;&gt;Node17</title>
<path fill="none" stroke="midnightblue" d="M994.275,-72.412C1026.91,-61.3635 1078.23,-43.9913 1114.07,-31.8574"/>
<polygon fill="midnightblue" stroke="midnightblue" points="1115.39,-35.1054 1123.74,-28.5835 1113.14,-28.475 1115.39,-35.1054"/>
</g>
<!-- Node18 -->
<g id="node35" class="node"><title>Node18</title>
<polygon fill="white" stroke="#bfbfbf" points="1222,-7.5 1222,-28.5 1292,-28.5 1292,-7.5 1222,-7.5"/>
<text text-anchor="middle" x="1257" y="-15.5" font-family="Helvetica,sans-Serif" font-size="10.00">osg/Uniform</text>
</g>
<!-- Node3&#45;&gt;Node18 -->
<g id="edge34" class="edge"><title>Node3&#45;&gt;Node18</title>
<path fill="none" stroke="midnightblue" d="M1001.69,-78.2041C1051.32,-71.4917 1139.72,-57.6331 1213,-36 1216.62,-34.9323 1220.34,-33.6724 1224.03,-32.3229"/>
<polygon fill="midnightblue" stroke="midnightblue" points="1225.52,-35.4992 1233.57,-28.6119 1222.98,-28.9754 1225.52,-35.4992"/>
</g>
<!-- Node19 -->
<g id="node37" class="node"><title>Node19</title>
<polygon fill="white" stroke="#bfbfbf" points="1310,-7.5 1310,-28.5 1374,-28.5 1374,-7.5 1310,-7.5"/>
<text text-anchor="middle" x="1342" y="-15.5" font-family="Helvetica,sans-Serif" font-size="10.00">osg/Geode</text>
</g>
<!-- Node3&#45;&gt;Node19 -->
<g id="edge36" class="edge"><title>Node3&#45;&gt;Node19</title>
<path fill="none" stroke="midnightblue" d="M1001.72,-81.082C1065.29,-77.1688 1195.26,-65.9411 1301,-36 1304.39,-35.039 1307.87,-33.8532 1311.3,-32.5524"/>
<polygon fill="midnightblue" stroke="midnightblue" points="1312.8,-35.7211 1320.71,-28.6735 1310.13,-29.2497 1312.8,-35.7211"/>
</g>
<!-- Node20 -->
<g id="node39" class="node"><title>Node20</title>
<polygon fill="white" stroke="#bfbfbf" points="1391.5,-7.5 1391.5,-28.5 1472.5,-28.5 1472.5,-7.5 1391.5,-7.5"/>
<text text-anchor="middle" x="1432" y="-15.5" font-family="Helvetica,sans-Serif" font-size="10.00">osg/Texture2D</text>
</g>
<!-- Node3&#45;&gt;Node20 -->
<g id="edge38" class="edge"><title>Node3&#45;&gt;Node20</title>
<path fill="none" stroke="midnightblue" d="M1001.75,-81.7708C1076.45,-78.7213 1245.18,-68.5236 1383,-36 1387.71,-34.8877 1392.59,-33.4555 1397.37,-31.8853"/>
<polygon fill="midnightblue" stroke="midnightblue" points="1398.65,-35.1444 1406.92,-28.527 1396.33,-28.5403 1398.65,-35.1444"/>
</g>
<!-- Node21&#45;&gt;Node3 -->
<g id="edge48" class="edge"><title>Node21&#45;&gt;Node3</title>
<path fill="none" stroke="midnightblue" d="M1355.3,-131.248C1352.5,-130.815 1349.72,-130.396 1347,-130 1226.8,-112.483 1084.78,-96.2586 1011.76,-88.2434"/>
<polygon fill="midnightblue" stroke="midnightblue" points="1011.82,-84.7292 1001.5,-87.1212 1011.06,-91.6877 1011.82,-84.7292"/>
</g>
<!-- Node21&#45;&gt;Node4 -->
<g id="edge50" class="edge"><title>Node21&#45;&gt;Node4</title>
<path fill="none" stroke="midnightblue" d="M1435.23,-130.3C1482.98,-108.3 1592.27,-57.9538 1646.81,-32.8291"/>
<polygon fill="midnightblue" stroke="midnightblue" points="1648.4,-35.951 1656.02,-28.588 1645.47,-29.5932 1648.4,-35.951"/>
</g>
<!-- Node21&#45;&gt;Node5 -->
<g id="edge52" class="edge"><title>Node21&#45;&gt;Node5</title>
<path fill="none" stroke="midnightblue" d="M1423.27,-130.085C1445.26,-108.787 1494.06,-61.5202 1520.73,-35.6918"/>
<polygon fill="midnightblue" stroke="midnightblue" points="1523.19,-38.1866 1527.94,-28.7153 1518.32,-33.1583 1523.19,-38.1866"/>
</g>
<!-- Node21&#45;&gt;Node11 -->
<g id="edge54" class="edge"><title>Node21&#45;&gt;Node11</title>
<path fill="none" stroke="midnightblue" d="M1355.33,-131.08C1352.51,-130.691 1349.73,-130.328 1347,-130 1202.11,-112.583 173.168,-88.4764 37,-36 35.7758,-35.5282 34.564,-34.9679 33.3748,-34.3418"/>
<polygon fill="midnightblue" stroke="midnightblue" points="35.1185,-31.2969 24.8644,-28.6314 31.2182,-37.1097 35.1185,-31.2969"/>
</g>
<!-- Node22&#45;&gt;Node3 -->
<g id="edge58" class="edge"><title>Node22&#45;&gt;Node3</title>
<path fill="none" stroke="midnightblue" d="M1485.27,-131.182C1482.48,-130.761 1479.71,-130.363 1477,-130 1306.82,-107.164 1103.43,-92.182 1011.89,-86.0901"/>
<polygon fill="midnightblue" stroke="midnightblue" points="1012.02,-82.5912 1001.81,-85.4254 1011.56,-89.5761 1012.02,-82.5912"/>
</g>
<!-- Node22&#45;&gt;Node4 -->
<g id="edge60" class="edge"><title>Node22&#45;&gt;Node4</title>
<path fill="none" stroke="midnightblue" d="M1551.42,-130.085C1575.77,-108.695 1629.93,-61.114 1659.24,-35.3604"/>
<polygon fill="midnightblue" stroke="midnightblue" points="1661.6,-37.945 1666.8,-28.7153 1656.98,-32.6862 1661.6,-37.945"/>
</g>
<!-- Node22&#45;&gt;Node5 -->
<g id="edge62" class="edge"><title>Node22&#45;&gt;Node5</title>
<path fill="none" stroke="midnightblue" d="M1539,-130.085C1539,-109.609 1539,-65.133 1539,-38.778"/>
<polygon fill="midnightblue" stroke="midnightblue" points="1542.5,-38.7153 1539,-28.7153 1535.5,-38.7154 1542.5,-38.7153"/>
</g>
</g>
</svg>
