<?xml version="1.0" encoding="UTF-8" standalone="no"?>
<!DOCTYPE svg PUBLIC "-//W3C//DTD SVG 1.1//EN"
 "http://www.w3.org/Graphics/SVG/1.1/DTD/svg11.dtd">
<!-- Generated by graphviz version 2.36.0 (20140111.2315)
 -->
<!-- Title: /media/kavonszadkowski/work/marsdocs/mars/graphics/src/GraphicsManager.h Pages: 1 -->
<svg width="3729pt" height="242pt"
 viewBox="0.00 0.00 3729.00 242.00" xmlns="http://www.w3.org/2000/svg" xmlns:xlink="http://www.w3.org/1999/xlink">
<g id="graph0" class="graph" transform="scale(1 1) rotate(0) translate(4 238)">
<title>/media/kavonszadkowski/work/marsdocs/mars/graphics/src/GraphicsManager.h</title>
<polygon fill="white" stroke="none" points="-4,4 -4,-238 3725,-238 3725,4 -4,4"/>
<!-- Node1 -->
<g id="node1" class="node"><title>Node1</title>
<polygon fill="#bfbfbf" stroke="black" points="1587.5,-192.5 1587.5,-233.5 1738.5,-233.5 1738.5,-192.5 1587.5,-192.5"/>
<text text-anchor="start" x="1595.5" y="-221.5" font-family="Helvetica,sans-Serif" font-size="10.00">/media/kavonszadkowski</text>
<text text-anchor="start" x="1595.5" y="-210.5" font-family="Helvetica,sans-Serif" font-size="10.00">/work/marsdocs/mars/graphics</text>
<text text-anchor="middle" x="1663" y="-199.5" font-family="Helvetica,sans-Serif" font-size="10.00">/src/GraphicsManager.h</text>
</g>
<!-- Node2 -->
<g id="node2" class="node"><title>Node2</title>
<polygon fill="white" stroke="#bfbfbf" points="0,-130.5 0,-149.5 56,-149.5 56,-130.5 0,-130.5"/>
<text text-anchor="middle" x="28" y="-137.5" font-family="Helvetica,sans-Serif" font-size="10.00">osg/Light</text>
</g>
<!-- Node1&#45;&gt;Node2 -->
<g id="edge1" class="edge"><title>Node1&#45;&gt;Node2</title>
<path fill="none" stroke="midnightblue" d="M1587.46,-210.901C1290.82,-206.376 214.578,-187.896 65,-156 61.7461,-155.306 58.4116,-154.345 55.1412,-153.242"/>
<polygon fill="midnightblue" stroke="midnightblue" points="56.2574,-149.921 45.6666,-149.628 53.7626,-156.462 56.2574,-149.921"/>
</g>
<!-- Node3 -->
<g id="node3" class="node"><title>Node3</title>
<polygon fill="white" stroke="#bfbfbf" points="74,-130.5 74,-149.5 212,-149.5 212,-130.5 74,-130.5"/>
<text text-anchor="middle" x="143" y="-137.5" font-family="Helvetica,sans-Serif" font-size="10.00">osgGA/StateSetManipulator</text>
</g>
<!-- Node1&#45;&gt;Node3 -->
<g id="edge2" class="edge"><title>Node1&#45;&gt;Node3</title>
<path fill="none" stroke="midnightblue" d="M1587.24,-210.546C1329.88,-205.372 490.349,-186.519 222,-156 212.22,-154.888 201.834,-153.25 191.919,-151.461"/>
<polygon fill="midnightblue" stroke="midnightblue" points="192.276,-147.967 181.801,-149.558 190.982,-154.846 192.276,-147.967"/>
</g>
<!-- Node4 -->
<g id="node4" class="node"><title>Node4</title>
<polygon fill="white" stroke="#bfbfbf" points="230.5,-130.5 230.5,-149.5 325.5,-149.5 325.5,-130.5 230.5,-130.5"/>
<text text-anchor="middle" x="278" y="-137.5" font-family="Helvetica,sans-Serif" font-size="10.00">osgViewer/Viewer</text>
</g>
<!-- Node1&#45;&gt;Node4 -->
<g id="edge3" class="edge"><title>Node1&#45;&gt;Node4</title>
<path fill="none" stroke="midnightblue" d="M1587.21,-210.947C1343.11,-207.218 579.151,-192.833 335,-156 328.625,-155.038 321.936,-153.642 315.474,-152.082"/>
<polygon fill="midnightblue" stroke="midnightblue" points="316.139,-148.639 305.582,-149.537 314.394,-155.418 316.139,-148.639"/>
</g>
<!-- Node5 -->
<g id="node5" class="node"><title>Node5</title>
<polygon fill="white" stroke="#bfbfbf" points="344,-130.5 344,-149.5 504,-149.5 504,-130.5 344,-130.5"/>
<text text-anchor="middle" x="424" y="-137.5" font-family="Helvetica,sans-Serif" font-size="10.00">osgViewer/ViewerEventHandlers</text>
</g>
<!-- Node1&#45;&gt;Node5 -->
<g id="edge4" class="edge"><title>Node1&#45;&gt;Node5</title>
<path fill="none" stroke="midnightblue" d="M1587.48,-211.357C1403.4,-209.128 917.108,-199.267 514,-156 502.549,-154.771 490.344,-153.03 478.735,-151.167"/>
<polygon fill="midnightblue" stroke="midnightblue" points="479.159,-147.69 468.722,-149.509 478.016,-154.596 479.159,-147.69"/>
</g>
<!-- Node6 -->
<g id="node6" class="node"><title>Node6</title>
<polygon fill="white" stroke="#bfbfbf" points="522.5,-130.5 522.5,-149.5 665.5,-149.5 665.5,-130.5 522.5,-130.5"/>
<text text-anchor="middle" x="594" y="-137.5" font-family="Helvetica,sans-Serif" font-size="10.00">osgViewer/CompositeViewer</text>
</g>
<!-- Node1&#45;&gt;Node6 -->
<g id="edge5" class="edge"><title>Node1&#45;&gt;Node6</title>
<path fill="none" stroke="midnightblue" d="M1587.42,-210.971C1421.63,-208.002 1013.8,-196.805 675,-156 665.096,-154.807 654.576,-153.151 644.511,-151.372"/>
<polygon fill="midnightblue" stroke="midnightblue" points="645.104,-147.922 634.637,-149.565 643.844,-154.808 645.104,-147.922"/>
</g>
<!-- Node7 -->
<g id="node7" class="node"><title>Node7</title>
<polygon fill="white" stroke="#bfbfbf" points="684,-130.5 684,-149.5 758,-149.5 758,-130.5 684,-130.5"/>
<text text-anchor="middle" x="721" y="-137.5" font-family="Helvetica,sans-Serif" font-size="10.00">osg/CullFace</text>
</g>
<!-- Node1&#45;&gt;Node7 -->
<g id="edge6" class="edge"><title>Node1&#45;&gt;Node7</title>
<path fill="none" stroke="midnightblue" d="M1587.47,-209.734C1401.16,-203.748 923.438,-185.894 767,-156 762.516,-155.143 757.863,-153.974 753.315,-152.664"/>
<polygon fill="midnightblue" stroke="midnightblue" points="754.22,-149.28 743.631,-149.638 752.132,-155.961 754.22,-149.28"/>
</g>
<!-- Node8 -->
<g id="node8" class="node"><title>Node8</title>
<polygon fill="white" stroke="#bfbfbf" points="776,-130.5 776,-149.5 920,-149.5 920,-130.5 776,-130.5"/>
<text text-anchor="middle" x="848" y="-137.5" font-family="Helvetica,sans-Serif" font-size="10.00">osgShadow/ShadowedScene</text>
</g>
<!-- Node1&#45;&gt;Node8 -->
<g id="edge7" class="edge"><title>Node1&#45;&gt;Node8</title>
<path fill="none" stroke="midnightblue" d="M1587.29,-208.832C1453.99,-202.673 1168.91,-186.891 930,-156 920.306,-154.747 910.02,-153.11 900.128,-151.381"/>
<polygon fill="midnightblue" stroke="midnightblue" points="900.467,-147.886 890.005,-149.557 899.225,-154.775 900.467,-147.886"/>
</g>
<!-- Node9 -->
<g id="node9" class="node"><title>Node9</title>
<polygon fill="white" stroke="#bfbfbf" points="938.5,-125 938.5,-155 1109.5,-155 1109.5,-125 938.5,-125"/>
<text text-anchor="start" x="946.5" y="-143" font-family="Helvetica,sans-Serif" font-size="10.00">osgShadow/LightSpacePerspective</text>
<text text-anchor="middle" x="1024" y="-132" font-family="Helvetica,sans-Serif" font-size="10.00">ShadowMap</text>
</g>
<!-- Node1&#45;&gt;Node9 -->
<g id="edge8" class="edge"><title>Node1&#45;&gt;Node9</title>
<path fill="none" stroke="midnightblue" d="M1587.17,-205.497C1483.91,-196.351 1293.08,-178.416 1119.75,-156.053"/>
<polygon fill="midnightblue" stroke="midnightblue" points="1120.04,-152.562 1109.67,-154.746 1119.14,-159.504 1120.04,-152.562"/>
</g>
<!-- Node10 -->
<g id="node10" class="node"><title>Node10</title>
<polygon fill="white" stroke="#bfbfbf" points="1128,-130.5 1128,-149.5 1304,-149.5 1304,-130.5 1128,-130.5"/>
<text text-anchor="middle" x="1216" y="-137.5" font-family="Helvetica,sans-Serif" font-size="10.00">osgShadow/ParallelSplitShadowMap</text>
</g>
<!-- Node1&#45;&gt;Node10 -->
<g id="edge9" class="edge"><title>Node1&#45;&gt;Node10</title>
<path fill="none" stroke="midnightblue" d="M1587.43,-199.996C1501,-186.269 1361.02,-164.035 1279.84,-151.14"/>
<polygon fill="midnightblue" stroke="midnightblue" points="1280.18,-147.65 1269.75,-149.538 1279.08,-154.564 1280.18,-147.65"/>
</g>
<!-- Node11 -->
<g id="node11" class="node"><title>Node11</title>
<polygon fill="white" stroke="#bfbfbf" points="1322.5,-130.5 1322.5,-149.5 1461.5,-149.5 1461.5,-130.5 1322.5,-130.5"/>
<text text-anchor="middle" x="1392" y="-137.5" font-family="Helvetica,sans-Serif" font-size="10.00">osgShadow/ShadowVolume</text>
</g>
<!-- Node1&#45;&gt;Node11 -->
<g id="edge10" class="edge"><title>Node1&#45;&gt;Node11</title>
<path fill="none" stroke="midnightblue" d="M1588.23,-192.411C1538.59,-179.405 1475.23,-162.805 1434.15,-152.042"/>
<polygon fill="midnightblue" stroke="midnightblue" points="1435.02,-148.653 1424.46,-149.504 1433.25,-155.425 1435.02,-148.653"/>
</g>
<!-- Node12 -->
<g id="node12" class="node"><title>Node12</title>
<g id="a_node12"><a xlink:href="../../de/df2/_shadow_map_8h.html" target="_top" xlink:title="The ShadowMap is a clone of the original osgShadow::ShadowMap but allows to render the shadow texture...">
<polygon fill="white" stroke="black" points="1479.5,-130.5 1479.5,-149.5 1558.5,-149.5 1558.5,-130.5 1479.5,-130.5"/>
<text text-anchor="middle" x="1519" y="-137.5" font-family="Helvetica,sans-Serif" font-size="10.00">ShadowMap.h</text>
</a>
</g>
</g>
<!-- Node1&#45;&gt;Node12 -->
<g id="edge11" class="edge"><title>Node1&#45;&gt;Node12</title>
<path fill="none" stroke="midnightblue" d="M1623.27,-192.411C1598.47,-180.183 1567.23,-164.779 1545.44,-154.035"/>
<polygon fill="midnightblue" stroke="midnightblue" points="1546.95,-150.88 1536.44,-149.597 1543.86,-157.158 1546.95,-150.88"/>
</g>
<!-- Node19 -->
<g id="node19" class="node"><title>Node19</title>
<polygon fill="white" stroke="#bfbfbf" points="1171,-6.5 1171,-25.5 1317,-25.5 1317,-6.5 1171,-6.5"/>
<text text-anchor="middle" x="1244" y="-13.5" font-family="Helvetica,sans-Serif" font-size="10.00">mars/interfaces/MARSDefs.h</text>
</g>
<!-- Node1&#45;&gt;Node19 -->
<g id="edge36" class="edge"><title>Node1&#45;&gt;Node19</title>
<path fill="none" stroke="midnightblue" d="M1652.57,-192.4C1633.17,-156.732 1591.35,-83.4643 1567,-68 1475.95,-10.1734 1433.42,-49.593 1327,-32 1318.29,-30.5597 1309.07,-28.9655 1300.08,-27.37"/>
<polygon fill="midnightblue" stroke="midnightblue" points="1300.52,-23.8925 1290.05,-25.5762 1299.28,-30.783 1300.52,-23.8925"/>
</g>
<!-- Node20 -->
<g id="node20" class="node"><title>Node20</title>
<polygon fill="white" stroke="#bfbfbf" points="1335.5,-6.5 1335.5,-25.5 1434.5,-25.5 1434.5,-6.5 1335.5,-6.5"/>
<text text-anchor="middle" x="1385" y="-13.5" font-family="Helvetica,sans-Serif" font-size="10.00">mars/utils/Vector.h</text>
</g>
<!-- Node1&#45;&gt;Node20 -->
<g id="edge37" class="edge"><title>Node1&#45;&gt;Node20</title>
<path fill="none" stroke="midnightblue" d="M1660.26,-192.354C1654.83,-161.084 1639.68,-100.239 1601,-68 1546.01,-22.1658 1513.58,-48.8208 1444,-32 1438.74,-30.7273 1433.21,-29.363 1427.75,-27.9948"/>
<polygon fill="midnightblue" stroke="midnightblue" points="1428.6,-24.5986 1418.04,-25.5467 1426.88,-31.3861 1428.6,-24.5986"/>
</g>
<!-- Node21 -->
<g id="node21" class="node"><title>Node21</title>
<polygon fill="white" stroke="#bfbfbf" points="1453,-6.5 1453,-25.5 1571,-25.5 1571,-6.5 1453,-6.5"/>
<text text-anchor="middle" x="1512" y="-13.5" font-family="Helvetica,sans-Serif" font-size="10.00">mars/utils/Quaternion.h</text>
</g>
<!-- Node1&#45;&gt;Node21 -->
<g id="edge38" class="edge"><title>Node1&#45;&gt;Node21</title>
<path fill="none" stroke="midnightblue" d="M1665.35,-192.369C1667.84,-162.201 1668.06,-104.151 1639,-68 1627.7,-53.9442 1585.15,-38.6259 1552.38,-28.4843"/>
<polygon fill="midnightblue" stroke="midnightblue" points="1553.16,-25.062 1542.57,-25.5102 1551.12,-31.7609 1553.16,-25.062"/>
</g>
<!-- Node22 -->
<g id="node22" class="node"><title>Node22</title>
<polygon fill="white" stroke="#bfbfbf" points="1589.5,-6.5 1589.5,-25.5 1726.5,-25.5 1726.5,-6.5 1589.5,-6.5"/>
<text text-anchor="middle" x="1658" y="-13.5" font-family="Helvetica,sans-Serif" font-size="10.00">mars/interfaces/LightData.h</text>
</g>
<!-- Node1&#45;&gt;Node22 -->
<g id="edge41" class="edge"><title>Node1&#45;&gt;Node22</title>
<path fill="none" stroke="midnightblue" d="M1669.19,-192.267C1672.2,-181.64 1675.49,-168.234 1677,-156 1681.78,-117.182 1683.94,-106.491 1677,-68 1674.96,-56.6641 1670.55,-44.5595 1666.5,-34.9889"/>
<polygon fill="midnightblue" stroke="midnightblue" points="1669.64,-33.4516 1662.36,-25.7546 1663.25,-36.3119 1669.64,-33.4516"/>
</g>
<!-- Node23 -->
<g id="node23" class="node"><title>Node23</title>
<polygon fill="white" stroke="#bfbfbf" points="1745,-1 1745,-31 1867,-31 1867,-1 1745,-1"/>
<text text-anchor="start" x="1753" y="-19" font-family="Helvetica,sans-Serif" font-size="10.00">mars/interfaces/Material</text>
<text text-anchor="middle" x="1806" y="-8" font-family="Helvetica,sans-Serif" font-size="10.00">Data.h</text>
</g>
<!-- Node1&#45;&gt;Node23 -->
<g id="edge42" class="edge"><title>Node1&#45;&gt;Node23</title>
<path fill="none" stroke="midnightblue" d="M1674.81,-192.229C1692.07,-163.836 1725.76,-110.279 1759,-68 1766.94,-57.8973 1776.43,-47.3534 1784.8,-38.4924"/>
<polygon fill="midnightblue" stroke="midnightblue" points="1787.4,-40.834 1791.79,-31.1921 1782.35,-35.9909 1787.4,-40.834"/>
</g>
<!-- Node32 -->
<g id="node32" class="node"><title>Node32</title>
<polygon fill="white" stroke="#bfbfbf" points="2119,-1 2119,-31 2259,-31 2259,-1 2119,-1"/>
<text text-anchor="start" x="2127" y="-19" font-family="Helvetica,sans-Serif" font-size="10.00">mars/osg_material_manager</text>
<text text-anchor="middle" x="2189" y="-8" font-family="Helvetica,sans-Serif" font-size="10.00">/OsgMaterial.h</text>
</g>
<!-- Node1&#45;&gt;Node32 -->
<g id="edge49" class="edge"><title>Node1&#45;&gt;Node32</title>
<path fill="none" stroke="midnightblue" d="M1692.94,-192.428C1720.74,-174.362 1763.4,-146.941 1801,-124 1843.17,-98.2714 1850.57,-84.8513 1897,-68 1983.85,-36.4784 2012.99,-47.9671 2108.67,-31.9848"/>
<polygon fill="midnightblue" stroke="midnightblue" points="2109.52,-35.3912 2118.77,-30.2381 2108.32,-28.4936 2109.52,-35.3912"/>
</g>
<!-- Node33 -->
<g id="node33" class="node"><title>Node33</title>
<polygon fill="white" stroke="#bfbfbf" points="2277,-1 2277,-31 2417,-31 2417,-1 2277,-1"/>
<text text-anchor="start" x="2285" y="-19" font-family="Helvetica,sans-Serif" font-size="10.00">mars/osg_material_manager</text>
<text text-anchor="middle" x="2347" y="-8" font-family="Helvetica,sans-Serif" font-size="10.00">/MaterialNode.h</text>
</g>
<!-- Node1&#45;&gt;Node33 -->
<g id="edge48" class="edge"><title>Node1&#45;&gt;Node33</title>
<path fill="none" stroke="midnightblue" d="M1713.97,-192.453C1737.67,-182.633 1765.88,-169.879 1790,-156 1810.96,-143.942 1811.89,-133.798 1834,-124 1853.78,-115.233 2127.46,-60.4074 2266.75,-32.8188"/>
<polygon fill="midnightblue" stroke="midnightblue" points="2267.82,-36.1751 2276.95,-30.7999 2266.46,-29.3083 2267.82,-36.1751"/>
</g>
<!-- Node34 -->
<g id="node34" class="node"><title>Node34</title>
<polygon fill="white" stroke="#bfbfbf" points="1843,-125 1843,-155 1965,-155 1965,-125 1843,-125"/>
<text text-anchor="start" x="1851" y="-143" font-family="Helvetica,sans-Serif" font-size="10.00">osgParticle/Precipitation</text>
<text text-anchor="middle" x="1904" y="-132" font-family="Helvetica,sans-Serif" font-size="10.00">Effect</text>
</g>
<!-- Node1&#45;&gt;Node34 -->
<g id="edge35" class="edge"><title>Node1&#45;&gt;Node34</title>
<path fill="none" stroke="midnightblue" d="M1729.49,-192.411C1766.3,-181.568 1811.58,-168.228 1846.79,-157.855"/>
<polygon fill="midnightblue" stroke="midnightblue" points="1847.84,-161.195 1856.44,-155.012 1845.86,-154.48 1847.84,-161.195"/>
</g>
<!-- Node35 -->
<g id="node35" class="node"><title>Node35</title>
<polygon fill="white" stroke="#bfbfbf" points="1983.5,-125 1983.5,-155 2092.5,-155 2092.5,-125 1983.5,-125"/>
<text text-anchor="start" x="1991.5" y="-143" font-family="Helvetica,sans-Serif" font-size="10.00">mars/interfaces/core</text>
<text text-anchor="middle" x="2038" y="-132" font-family="Helvetica,sans-Serif" font-size="10.00">_objects_exchange.h</text>
</g>
<!-- Node1&#45;&gt;Node35 -->
<g id="edge39" class="edge"><title>Node1&#45;&gt;Node35</title>
<path fill="none" stroke="midnightblue" d="M1738.62,-199.516C1799.39,-189.223 1887.15,-173.774 1973.28,-156.089"/>
<polygon fill="midnightblue" stroke="midnightblue" points="1974.14,-159.485 1983.23,-154.035 1972.73,-152.629 1974.14,-159.485"/>
</g>
<!-- Node36 -->
<g id="node36" class="node"><title>Node36</title>
<polygon fill="white" stroke="#bfbfbf" points="2111,-130.5 2111,-149.5 2261,-149.5 2261,-130.5 2111,-130.5"/>
<text text-anchor="middle" x="2186" y="-137.5" font-family="Helvetica,sans-Serif" font-size="10.00">mars/interfaces/GraphicData.h</text>
</g>
<!-- Node1&#45;&gt;Node36 -->
<g id="edge40" class="edge"><title>Node1&#45;&gt;Node36</title>
<path fill="none" stroke="midnightblue" d="M1738.72,-203.426C1826.16,-193.268 1974.24,-175.277 2101,-156 2110.35,-154.579 2120.25,-152.947 2129.86,-151.295"/>
<polygon fill="midnightblue" stroke="midnightblue" points="2130.49,-154.738 2139.75,-149.574 2129.29,-147.842 2130.49,-154.738"/>
</g>
<!-- Node37 -->
<g id="node37" class="node"><title>Node37</title>
<polygon fill="white" stroke="#bfbfbf" points="2279,-130.5 2279,-149.5 2433,-149.5 2433,-130.5 2279,-130.5"/>
<text text-anchor="middle" x="2356" y="-137.5" font-family="Helvetica,sans-Serif" font-size="10.00">mars/interfaces/cameraStruct.h</text>
</g>
<!-- Node1&#45;&gt;Node37 -->
<g id="edge43" class="edge"><title>Node1&#45;&gt;Node37</title>
<path fill="none" stroke="midnightblue" d="M1738.79,-206.918C1853.74,-198.777 2078.89,-181.134 2269,-156 2279.25,-154.645 2290.14,-152.963 2300.61,-151.22"/>
<polygon fill="midnightblue" stroke="midnightblue" points="2301.23,-154.666 2310.5,-149.539 2300.05,-147.765 2301.23,-154.666"/>
</g>
<!-- Node38 -->
<g id="node38" class="node"><title>Node38</title>
<polygon fill="white" stroke="#bfbfbf" points="2451.5,-125 2451.5,-155 2582.5,-155 2582.5,-125 2451.5,-125"/>
<text text-anchor="start" x="2459.5" y="-143" font-family="Helvetica,sans-Serif" font-size="10.00">mars/interfaces/graphics</text>
<text text-anchor="middle" x="2517" y="-132" font-family="Helvetica,sans-Serif" font-size="10.00">/GraphicsEventInterface.h</text>
</g>
<!-- Node1&#45;&gt;Node38 -->
<g id="edge44" class="edge"><title>Node1&#45;&gt;Node38</title>
<path fill="none" stroke="midnightblue" d="M1738.52,-209.723C1876.27,-204.881 2177.58,-191.104 2441.08,-156.005"/>
<polygon fill="midnightblue" stroke="midnightblue" points="2441.78,-159.442 2451.23,-154.64 2440.85,-152.504 2441.78,-159.442"/>
</g>
<!-- Node39 -->
<g id="node39" class="node"><title>Node39</title>
<polygon fill="white" stroke="#bfbfbf" points="2600.5,-125 2600.5,-155 2759.5,-155 2759.5,-125 2600.5,-125"/>
<text text-anchor="start" x="2608.5" y="-143" font-family="Helvetica,sans-Serif" font-size="10.00">mars/cfg_manager/CFGManager</text>
<text text-anchor="middle" x="2680" y="-132" font-family="Helvetica,sans-Serif" font-size="10.00">Interface.h</text>
</g>
<!-- Node1&#45;&gt;Node39 -->
<g id="edge45" class="edge"><title>Node1&#45;&gt;Node39</title>
<path fill="none" stroke="midnightblue" d="M1738.72,-210.167C1895.66,-205.772 2267.95,-192.262 2590.48,-155.969"/>
<polygon fill="midnightblue" stroke="midnightblue" points="2590.94,-159.439 2600.48,-154.834 2590.15,-152.483 2590.94,-159.439"/>
</g>
<!-- Node40 -->
<g id="node40" class="node"><title>Node40</title>
<polygon fill="white" stroke="#bfbfbf" points="2777.5,-130.5 2777.5,-149.5 2932.5,-149.5 2932.5,-130.5 2777.5,-130.5"/>
<text text-anchor="middle" x="2855" y="-137.5" font-family="Helvetica,sans-Serif" font-size="10.00">mars/cfg_manager/CFGClient.h</text>
</g>
<!-- Node1&#45;&gt;Node40 -->
<g id="edge46" class="edge"><title>Node1&#45;&gt;Node40</title>
<path fill="none" stroke="midnightblue" d="M1738.61,-211.293C1917.89,-208.936 2382.6,-198.833 2768,-156 2778.96,-154.782 2790.64,-153.063 2801.76,-151.221"/>
<polygon fill="midnightblue" stroke="midnightblue" points="2802.51,-154.643 2811.78,-149.506 2801.33,-147.743 2802.51,-154.643"/>
</g>
<!-- Node41 -->
<g id="node41" class="node"><title>Node41</title>
<polygon fill="white" stroke="#bfbfbf" points="2951,-125 2951,-155 3091,-155 3091,-125 2951,-125"/>
<text text-anchor="start" x="2959" y="-143" font-family="Helvetica,sans-Serif" font-size="10.00">mars/osg_material_manager</text>
<text text-anchor="middle" x="3021" y="-132" font-family="Helvetica,sans-Serif" font-size="10.00">/OsgMaterialManager.h</text>
</g>
<!-- Node1&#45;&gt;Node41 -->
<g id="edge47" class="edge"><title>Node1&#45;&gt;Node41</title>
<path fill="none" stroke="midnightblue" d="M1738.56,-212.412C1935.14,-212.684 2478.73,-208.334 2940.63,-155.904"/>
<polygon fill="midnightblue" stroke="midnightblue" points="2941.31,-159.349 2950.85,-154.735 2940.51,-152.395 2941.31,-159.349"/>
</g>
<!-- Node42 -->
<g id="node42" class="node"><title>Node42</title>
<g id="a_node42"><a xlink:href="../../d7/da2/gui__helper__functions_8h.html" target="_top" xlink:title="gui_helper_functions.h">
<polygon fill="white" stroke="black" points="2983,-68.5 2983,-87.5 3097,-87.5 3097,-68.5 2983,-68.5"/>
<text text-anchor="middle" x="3040" y="-75.5" font-family="Helvetica,sans-Serif" font-size="10.00">gui_helper_functions.h</text>
</a>
</g>
</g>
<!-- Node1&#45;&gt;Node42 -->
<g id="edge50" class="edge"><title>Node1&#45;&gt;Node42</title>
<path fill="none" stroke="midnightblue" d="M1738.91,-211.922C2028.85,-211.255 3052.49,-205.401 3100,-156 3109.86,-145.749 3106.36,-136.721 3100,-124 3093.27,-110.543 3080.39,-100.067 3068.29,-92.6212"/>
<polygon fill="midnightblue" stroke="midnightblue" points="3069.72,-89.4101 3059.3,-87.5195 3066.27,-95.4985 3069.72,-89.4101"/>
</g>
<!-- Node13 -->
<g id="node13" class="node"><title>Node13</title>
<polygon fill="white" stroke="#bfbfbf" points="1161,-68.5 1161,-87.5 1231,-87.5 1231,-68.5 1161,-68.5"/>
<text text-anchor="middle" x="1196" y="-75.5" font-family="Helvetica,sans-Serif" font-size="10.00">osg/Camera</text>
</g>
<!-- Node12&#45;&gt;Node13 -->
<g id="edge12" class="edge"><title>Node12&#45;&gt;Node13</title>
<path fill="none" stroke="midnightblue" d="M1493.5,-130.462C1485.99,-128.147 1477.71,-125.789 1470,-124 1371.35,-101.123 1344.81,-105.149 1245,-88 1243.73,-87.7817 1242.44,-87.5583 1241.14,-87.3311"/>
<polygon fill="midnightblue" stroke="midnightblue" points="1241.5,-83.8411 1231.05,-85.5382 1240.28,-90.7332 1241.5,-83.8411"/>
</g>
<!-- Node14 -->
<g id="node14" class="node"><title>Node14</title>
<polygon fill="white" stroke="#bfbfbf" points="957,-6.5 957,-25.5 1027,-25.5 1027,-6.5 957,-6.5"/>
<text text-anchor="middle" x="992" y="-13.5" font-family="Helvetica,sans-Serif" font-size="10.00">osg/Material</text>
</g>
<!-- Node12&#45;&gt;Node14 -->
<g id="edge13" class="edge"><title>Node12&#45;&gt;Node14</title>
<path fill="none" stroke="midnightblue" d="M1493.22,-130.492C1485.77,-128.204 1477.61,-125.853 1470,-124 1383.52,-102.938 1356.21,-119.588 1273,-88 1256.97,-81.9135 1256.05,-74.0446 1240,-68 1154.25,-35.7049 1125.81,-54.5482 1037,-32 1033.16,-31.0248 1029.17,-29.8861 1025.23,-28.6799"/>
<polygon fill="midnightblue" stroke="midnightblue" points="1026.22,-25.3222 1015.63,-25.5972 1024.08,-31.987 1026.22,-25.3222"/>
</g>
<!-- Node15 -->
<g id="node15" class="node"><title>Node15</title>
<polygon fill="white" stroke="#bfbfbf" points="1045.5,-6.5 1045.5,-25.5 1152.5,-25.5 1152.5,-6.5 1045.5,-6.5"/>
<text text-anchor="middle" x="1099" y="-13.5" font-family="Helvetica,sans-Serif" font-size="10.00">osg/MatrixTransform</text>
</g>
<!-- Node12&#45;&gt;Node15 -->
<g id="edge14" class="edge"><title>Node12&#45;&gt;Node15</title>
<path fill="none" stroke="midnightblue" d="M1492.39,-130.498C1485.16,-128.284 1477.3,-125.969 1470,-124 1402.13,-105.702 1382.44,-110.943 1316,-88 1296.08,-81.1203 1292.72,-75.4296 1273,-68 1229.97,-51.7906 1179.39,-37.4739 1143.89,-28.1679"/>
<polygon fill="midnightblue" stroke="midnightblue" points="1144.4,-24.6839 1133.84,-25.5615 1142.64,-31.4598 1144.4,-24.6839"/>
</g>
<!-- Node16 -->
<g id="node16" class="node"><title>Node16</title>
<polygon fill="white" stroke="#bfbfbf" points="1325,-68.5 1325,-87.5 1389,-87.5 1389,-68.5 1325,-68.5"/>
<text text-anchor="middle" x="1357" y="-75.5" font-family="Helvetica,sans-Serif" font-size="10.00">osg/Object</text>
</g>
<!-- Node12&#45;&gt;Node16 -->
<g id="edge15" class="edge"><title>Node12&#45;&gt;Node16</title>
<path fill="none" stroke="midnightblue" d="M1495.79,-130.403C1468,-120.111 1421.28,-102.806 1389.81,-91.1504"/>
<polygon fill="midnightblue" stroke="midnightblue" points="1390.76,-87.7717 1380.17,-87.5806 1388.33,-94.3359 1390.76,-87.7717"/>
</g>
<!-- Node17 -->
<g id="node17" class="node"><title>Node17</title>
<polygon fill="white" stroke="#bfbfbf" points="1407.5,-68.5 1407.5,-87.5 1558.5,-87.5 1558.5,-68.5 1407.5,-68.5"/>
<text text-anchor="middle" x="1483" y="-75.5" font-family="Helvetica,sans-Serif" font-size="10.00">osgShadow/ShadowTechnique</text>
</g>
<!-- Node12&#45;&gt;Node17 -->
<g id="edge16" class="edge"><title>Node12&#45;&gt;Node17</title>
<path fill="none" stroke="midnightblue" d="M1513.84,-130.403C1508.55,-121.582 1500.16,-107.608 1493.47,-96.4548"/>
<polygon fill="midnightblue" stroke="midnightblue" points="1496.29,-94.3548 1488.15,-87.5806 1490.29,-97.9563 1496.29,-94.3548"/>
</g>
<!-- Node18 -->
<g id="node18" class="node"><title>Node18</title>
<g id="a_node18"><a xlink:href="../../d4/d4b/_draw_object_8h.html" target="_top" xlink:title="DrawObject.h">
<polygon fill="white" stroke="black" points="1767.5,-68.5 1767.5,-87.5 1844.5,-87.5 1844.5,-68.5 1767.5,-68.5"/>
<text text-anchor="middle" x="1806" y="-75.5" font-family="Helvetica,sans-Serif" font-size="10.00">DrawObject.h</text>
</a>
</g>
</g>
<!-- Node12&#45;&gt;Node18 -->
<g id="edge17" class="edge"><title>Node12&#45;&gt;Node18</title>
<path fill="none" stroke="midnightblue" d="M1558.6,-130.72C1610.43,-119.886 1701.22,-100.905 1757.23,-89.1968"/>
<polygon fill="midnightblue" stroke="midnightblue" points="1758.19,-92.5713 1767.26,-87.0989 1756.76,-85.7194 1758.19,-92.5713"/>
</g>
<!-- Node18&#45;&gt;Node14 -->
<g id="edge27" class="edge"><title>Node18&#45;&gt;Node14</title>
<path fill="none" stroke="midnightblue" d="M1767.46,-75.3405C1621.73,-68.9843 1108.98,-45.8513 1037,-32 1032.51,-31.1364 1027.85,-29.9422 1023.31,-28.6014"/>
<polygon fill="midnightblue" stroke="midnightblue" points="1024.26,-25.2281 1013.66,-25.5033 1022.12,-31.893 1024.26,-25.2281"/>
</g>
<!-- Node18&#45;&gt;Node15 -->
<g id="edge30" class="edge"><title>Node18&#45;&gt;Node15</title>
<path fill="none" stroke="midnightblue" d="M1767.16,-75.124C1646.6,-69.1692 1279.85,-50.0231 1162,-32 1155.06,-30.938 1147.75,-29.5008 1140.67,-27.9348"/>
<polygon fill="midnightblue" stroke="midnightblue" points="1141.06,-24.4326 1130.53,-25.577 1139.47,-31.2508 1141.06,-24.4326"/>
</g>
<!-- Node18&#45;&gt;Node19 -->
<g id="edge18" class="edge"><title>Node18&#45;&gt;Node19</title>
<path fill="none" stroke="midnightblue" d="M1767.38,-74.4921C1685.8,-68.9487 1490.02,-54.3471 1327,-32 1317.42,-30.6864 1307.25,-29.052 1297.45,-27.3498"/>
<polygon fill="midnightblue" stroke="midnightblue" points="1297.85,-23.8674 1287.4,-25.5621 1296.63,-30.7593 1297.85,-23.8674"/>
</g>
<!-- Node18&#45;&gt;Node20 -->
<g id="edge19" class="edge"><title>Node18&#45;&gt;Node20</title>
<path fill="none" stroke="midnightblue" d="M1767.45,-73.8067C1701.01,-67.9487 1560.85,-54.0261 1444,-32 1438.01,-30.8712 1431.73,-29.49 1425.59,-28.0273"/>
<polygon fill="midnightblue" stroke="midnightblue" points="1426.01,-24.5262 1415.46,-25.5191 1424.32,-31.3208 1426.01,-24.5262"/>
</g>
<!-- Node18&#45;&gt;Node21 -->
<g id="edge20" class="edge"><title>Node18&#45;&gt;Node21</title>
<path fill="none" stroke="midnightblue" d="M1767.34,-69.4715C1722.49,-60.689 1646.32,-45.6307 1581,-32 1574.39,-30.6203 1567.43,-29.1397 1560.57,-27.6656"/>
<polygon fill="midnightblue" stroke="midnightblue" points="1561.17,-24.2146 1550.66,-25.5229 1559.69,-31.0566 1561.17,-24.2146"/>
</g>
<!-- Node18&#45;&gt;Node22 -->
<g id="edge21" class="edge"><title>Node18&#45;&gt;Node22</title>
<path fill="none" stroke="midnightblue" d="M1784.8,-68.4035C1759.63,-58.2004 1717.46,-41.1055 1688.72,-29.4544"/>
<polygon fill="midnightblue" stroke="midnightblue" points="1689.75,-26.0941 1679.17,-25.5806 1687.12,-32.5813 1689.75,-26.0941"/>
</g>
<!-- Node18&#45;&gt;Node23 -->
<g id="edge22" class="edge"><title>Node18&#45;&gt;Node23</title>
<path fill="none" stroke="midnightblue" d="M1806,-68.4035C1806,-61.3405 1806,-50.975 1806,-41.399"/>
<polygon fill="midnightblue" stroke="midnightblue" points="1809.5,-41.1408 1806,-31.1408 1802.5,-41.1408 1809.5,-41.1408"/>
</g>
<!-- Node24 -->
<g id="node24" class="node"><title>Node24</title>
<polygon fill="white" stroke="#bfbfbf" points="1885.5,-6.5 1885.5,-25.5 1926.5,-25.5 1926.5,-6.5 1885.5,-6.5"/>
<text text-anchor="middle" x="1906" y="-13.5" font-family="Helvetica,sans-Serif" font-size="10.00">string</text>
</g>
<!-- Node18&#45;&gt;Node24 -->
<g id="edge23" class="edge"><title>Node18&#45;&gt;Node24</title>
<path fill="none" stroke="midnightblue" d="M1820.33,-68.4035C1836.66,-58.6014 1863.6,-42.4385 1882.91,-30.8526"/>
<polygon fill="midnightblue" stroke="midnightblue" points="1884.92,-33.7268 1891.7,-25.5806 1881.32,-27.7244 1884.92,-33.7268"/>
</g>
<!-- Node25 -->
<g id="node25" class="node"><title>Node25</title>
<polygon fill="white" stroke="#bfbfbf" points="2435,-6.5 2435,-25.5 2479,-25.5 2479,-6.5 2435,-6.5"/>
<text text-anchor="middle" x="2457" y="-13.5" font-family="Helvetica,sans-Serif" font-size="10.00">vector</text>
</g>
<!-- Node18&#45;&gt;Node25 -->
<g id="edge24" class="edge"><title>Node18&#45;&gt;Node25</title>
<path fill="none" stroke="midnightblue" d="M1844.86,-76.0905C1962.82,-73.0292 2315.49,-61.5815 2426,-32 2428.34,-31.3738 2430.71,-30.5704 2433.05,-29.6614"/>
<polygon fill="midnightblue" stroke="midnightblue" points="2434.61,-32.7988 2442.31,-25.5146 2431.75,-26.4111 2434.61,-32.7988"/>
</g>
<!-- Node26 -->
<g id="node26" class="node"><title>Node26</title>
<polygon fill="white" stroke="#bfbfbf" points="1944.5,-6.5 1944.5,-25.5 1973.5,-25.5 1973.5,-6.5 1944.5,-6.5"/>
<text text-anchor="middle" x="1959" y="-13.5" font-family="Helvetica,sans-Serif" font-size="10.00">list</text>
</g>
<!-- Node18&#45;&gt;Node26 -->
<g id="edge25" class="edge"><title>Node18&#45;&gt;Node26</title>
<path fill="none" stroke="midnightblue" d="M1836.48,-68.4721C1863.11,-60.5298 1902.49,-47.5884 1935,-32 1935.7,-31.6654 1936.4,-31.3152 1937.11,-30.9526"/>
<polygon fill="midnightblue" stroke="midnightblue" points="1939.16,-33.8081 1946.1,-25.7981 1935.68,-27.7352 1939.16,-33.8081"/>
</g>
<!-- Node27 -->
<g id="node27" class="node"><title>Node27</title>
<polygon fill="white" stroke="#bfbfbf" points="1991.5,-6.5 1991.5,-25.5 2026.5,-25.5 2026.5,-6.5 1991.5,-6.5"/>
<text text-anchor="middle" x="2009" y="-13.5" font-family="Helvetica,sans-Serif" font-size="10.00">map</text>
</g>
<!-- Node18&#45;&gt;Node27 -->
<g id="edge26" class="edge"><title>Node18&#45;&gt;Node27</title>
<path fill="none" stroke="midnightblue" d="M1844.66,-70.0919C1880.93,-62.9214 1936.29,-50.1903 1982,-32 1983.37,-31.4548 1984.76,-30.8536 1986.14,-30.2148"/>
<polygon fill="midnightblue" stroke="midnightblue" points="1987.74,-33.327 1995.04,-25.6471 1984.55,-27.0993 1987.74,-33.327"/>
</g>
<!-- Node28 -->
<g id="node28" class="node"><title>Node28</title>
<polygon fill="white" stroke="#bfbfbf" points="2497,-6.5 2497,-25.5 2559,-25.5 2559,-6.5 2497,-6.5"/>
<text text-anchor="middle" x="2528" y="-13.5" font-family="Helvetica,sans-Serif" font-size="10.00">osg/Group</text>
</g>
<!-- Node18&#45;&gt;Node28 -->
<g id="edge28" class="edge"><title>Node18&#45;&gt;Node28</title>
<path fill="none" stroke="midnightblue" d="M1844.52,-75.8947C1969.51,-72.0829 2362.82,-58.2555 2487,-32 2490.7,-31.2171 2494.52,-30.1688 2498.27,-28.9885"/>
<polygon fill="midnightblue" stroke="midnightblue" points="2499.6,-32.2323 2507.9,-25.6475 2497.3,-25.6191 2499.6,-32.2323"/>
</g>
<!-- Node29 -->
<g id="node29" class="node"><title>Node29</title>
<polygon fill="white" stroke="#bfbfbf" points="2576.5,-6.5 2576.5,-25.5 2725.5,-25.5 2725.5,-6.5 2576.5,-6.5"/>
<text text-anchor="middle" x="2651" y="-13.5" font-family="Helvetica,sans-Serif" font-size="10.00">osg/PositionAttitudeTransform</text>
</g>
<!-- Node18&#45;&gt;Node29 -->
<g id="edge29" class="edge"><title>Node18&#45;&gt;Node29</title>
<path fill="none" stroke="midnightblue" d="M1844.55,-76.3214C1956.52,-74.0063 2291.33,-64.6497 2567,-32 2577.37,-30.7721 2588.39,-29.0834 2598.93,-27.2807"/>
<polygon fill="midnightblue" stroke="midnightblue" points="2599.6,-30.7157 2608.84,-25.5288 2598.39,-23.8225 2599.6,-30.7157"/>
</g>
<!-- Node30 -->
<g id="node30" class="node"><title>Node30</title>
<polygon fill="white" stroke="#bfbfbf" points="2743,-6.5 2743,-25.5 2807,-25.5 2807,-6.5 2743,-6.5"/>
<text text-anchor="middle" x="2775" y="-13.5" font-family="Helvetica,sans-Serif" font-size="10.00">osg/Geode</text>
</g>
<!-- Node18&#45;&gt;Node30 -->
<g id="edge31" class="edge"><title>Node18&#45;&gt;Node30</title>
<path fill="none" stroke="midnightblue" d="M1844.53,-76.678C1997.19,-75.1637 2559.7,-67.2588 2734,-32 2737.9,-31.211 2741.93,-30.1148 2745.86,-28.8706"/>
<polygon fill="midnightblue" stroke="midnightblue" points="2747.04,-32.1645 2755.33,-25.5633 2744.74,-25.5559 2747.04,-32.1645"/>
</g>
<!-- Node31 -->
<g id="node31" class="node"><title>Node31</title>
<polygon fill="white" stroke="#bfbfbf" points="2045,-6.5 2045,-25.5 2101,-25.5 2101,-6.5 2045,-6.5"/>
<text text-anchor="middle" x="2073" y="-13.5" font-family="Helvetica,sans-Serif" font-size="10.00">osg/LOD</text>
</g>
<!-- Node18&#45;&gt;Node31 -->
<g id="edge32" class="edge"><title>Node18&#45;&gt;Node31</title>
<path fill="none" stroke="midnightblue" d="M1844.85,-70.2492C1900.46,-60.4352 1999.91,-42.281 2035,-32 2037.81,-31.1774 2040.7,-30.2305 2043.57,-29.2206"/>
<polygon fill="midnightblue" stroke="midnightblue" points="2044.99,-32.4256 2053.12,-25.634 2042.53,-25.8722 2044.99,-32.4256"/>
</g>
<!-- Node18&#45;&gt;Node32 -->
<g id="edge33" class="edge"><title>Node18&#45;&gt;Node32</title>
<path fill="none" stroke="midnightblue" d="M1844.77,-70.3008C1849.56,-69.5073 1854.39,-68.7232 1859,-68 1966.76,-51.0946 1996.58,-50.3761 2108.77,-31.9917"/>
<polygon fill="midnightblue" stroke="midnightblue" points="2109.49,-35.4193 2118.79,-30.3384 2108.35,-28.5126 2109.49,-35.4193"/>
</g>
<!-- Node18&#45;&gt;Node33 -->
<g id="edge34" class="edge"><title>Node18&#45;&gt;Node33</title>
<path fill="none" stroke="midnightblue" d="M1844.52,-73.1744C1860.72,-71.5693 1879.78,-69.6872 1897,-68 2058.65,-52.1631 2102.32,-55.3415 2266.86,-32.0852"/>
<polygon fill="midnightblue" stroke="midnightblue" points="2267.44,-35.539 2276.84,-30.6635 2266.45,-28.6089 2267.44,-35.539"/>
</g>
<!-- Node42&#45;&gt;Node25 -->
<g id="edge57" class="edge"><title>Node42&#45;&gt;Node25</title>
<path fill="none" stroke="midnightblue" d="M2982.9,-75.0059C2861.24,-70.3246 2580.07,-57.0863 2488,-32 2485.8,-31.3998 2483.56,-30.6449 2481.35,-29.7948"/>
<polygon fill="midnightblue" stroke="midnightblue" points="2482.58,-26.5084 2472.02,-25.6431 2479.73,-32.9045 2482.58,-26.5084"/>
</g>
<!-- Node42&#45;&gt;Node28 -->
<g id="edge51" class="edge"><title>Node42&#45;&gt;Node28</title>
<path fill="none" stroke="midnightblue" d="M2982.92,-76.3848C2893.39,-74.3454 2714.98,-65.9352 2568,-32 2564.5,-31.1913 2560.89,-30.1511 2557.34,-28.9961"/>
<polygon fill="midnightblue" stroke="midnightblue" points="2558.22,-25.594 2547.62,-25.5338 2555.87,-32.1877 2558.22,-25.594"/>
</g>
<!-- Node42&#45;&gt;Node29 -->
<g id="edge56" class="edge"><title>Node42&#45;&gt;Node29</title>
<path fill="none" stroke="midnightblue" d="M2982.95,-69.1803C2921.43,-60.6139 2820.64,-46.1953 2734,-32 2725.18,-30.555 2715.85,-28.9464 2706.75,-27.3344"/>
<polygon fill="midnightblue" stroke="midnightblue" points="2707.08,-23.8374 2696.62,-25.5215 2705.84,-30.728 2707.08,-23.8374"/>
</g>
<!-- Node42&#45;&gt;Node30 -->
<g id="edge53" class="edge"><title>Node42&#45;&gt;Node30</title>
<path fill="none" stroke="midnightblue" d="M2986.78,-68.4808C2941.28,-60.6711 2874.27,-47.9162 2817,-32 2813.62,-31.0593 2810.11,-29.9808 2806.64,-28.8429"/>
<polygon fill="midnightblue" stroke="midnightblue" points="2807.64,-25.4861 2797.04,-25.544 2805.36,-32.1057 2807.64,-25.4861"/>
</g>
<!-- Node43 -->
<g id="node43" class="node"><title>Node43</title>
<polygon fill="white" stroke="#bfbfbf" points="2825.5,-6.5 2825.5,-25.5 2884.5,-25.5 2884.5,-6.5 2825.5,-6.5"/>
<text text-anchor="middle" x="2855" y="-13.5" font-family="Helvetica,sans-Serif" font-size="10.00">osg/Node</text>
</g>
<!-- Node42&#45;&gt;Node43 -->
<g id="edge52" class="edge"><title>Node42&#45;&gt;Node43</title>
<path fill="none" stroke="midnightblue" d="M3010.17,-68.4529C2980.52,-59.8082 2933.86,-45.7886 2894,-32 2891.39,-31.0972 2888.69,-30.1313 2886,-29.141"/>
<polygon fill="midnightblue" stroke="midnightblue" points="2886.95,-25.761 2876.36,-25.5167 2884.49,-32.313 2886.95,-25.761"/>
</g>
<!-- Node44 -->
<g id="node44" class="node"><title>Node44</title>
<polygon fill="white" stroke="#bfbfbf" points="2903,-6.5 2903,-25.5 2981,-25.5 2981,-6.5 2903,-6.5"/>
<text text-anchor="middle" x="2942" y="-13.5" font-family="Helvetica,sans-Serif" font-size="10.00">osg/Geometry</text>
</g>
<!-- Node42&#45;&gt;Node44 -->
<g id="edge54" class="edge"><title>Node42&#45;&gt;Node44</title>
<path fill="none" stroke="midnightblue" d="M3025.96,-68.4035C3009.95,-58.6014 2983.55,-42.4385 2964.63,-30.8526"/>
<polygon fill="midnightblue" stroke="midnightblue" points="2966.37,-27.8172 2956.01,-25.5806 2962.72,-33.7872 2966.37,-27.8172"/>
</g>
<!-- Node45 -->
<g id="node45" class="node"><title>Node45</title>
<polygon fill="white" stroke="#bfbfbf" points="2999.5,-6.5 2999.5,-25.5 3080.5,-25.5 3080.5,-6.5 2999.5,-6.5"/>
<text text-anchor="middle" x="3040" y="-13.5" font-family="Helvetica,sans-Serif" font-size="10.00">osg/Texture2D</text>
</g>
<!-- Node42&#45;&gt;Node45 -->
<g id="edge55" class="edge"><title>Node42&#45;&gt;Node45</title>
<path fill="none" stroke="midnightblue" d="M3040,-68.4035C3040,-59.9381 3040,-46.7283 3040,-35.8199"/>
<polygon fill="midnightblue" stroke="midnightblue" points="3043.5,-35.5806 3040,-25.5806 3036.5,-35.5806 3043.5,-35.5806"/>
</g>
<!-- Node46 -->
<g id="node46" class="node"><title>Node46</title>
<polygon fill="white" stroke="#bfbfbf" points="3099,-6.5 3099,-25.5 3151,-25.5 3151,-6.5 3099,-6.5"/>
<text text-anchor="middle" x="3125" y="-13.5" font-family="Helvetica,sans-Serif" font-size="10.00">sstream</text>
</g>
<!-- Node42&#45;&gt;Node46 -->
<g id="edge58" class="edge"><title>Node42&#45;&gt;Node46</title>
<path fill="none" stroke="midnightblue" d="M3052.18,-68.4035C3065.81,-58.7797 3088.13,-43.0242 3104.47,-31.4891"/>
<polygon fill="midnightblue" stroke="midnightblue" points="3106.69,-34.2069 3112.84,-25.5806 3102.66,-28.4881 3106.69,-34.2069"/>
</g>
<!-- Node47 -->
<g id="node47" class="node"><title>Node47</title>
<polygon fill="white" stroke="#bfbfbf" points="3169.5,-1 3169.5,-31 3272.5,-31 3272.5,-1 3169.5,-1"/>
<text text-anchor="start" x="3177.5" y="-19" font-family="Helvetica,sans-Serif" font-size="10.00">mars/interfaces/sim</text>
<text text-anchor="middle" x="3221" y="-8" font-family="Helvetica,sans-Serif" font-size="10.00">_common.h</text>
</g>
<!-- Node42&#45;&gt;Node47 -->
<g id="edge59" class="edge"><title>Node42&#45;&gt;Node47</title>
<path fill="none" stroke="midnightblue" d="M3065.93,-68.4035C3092.71,-59.5263 3135.23,-45.4321 3168.98,-34.2453"/>
<polygon fill="midnightblue" stroke="midnightblue" points="3170.3,-37.4941 3178.69,-31.0253 3168.1,-30.8497 3170.3,-37.4941"/>
</g>
<!-- Node48 -->
<g id="node48" class="node"><title>Node48</title>
<polygon fill="white" stroke="#bfbfbf" points="3290.5,-6.5 3290.5,-25.5 3439.5,-25.5 3439.5,-6.5 3290.5,-6.5"/>
<text text-anchor="middle" x="3365" y="-13.5" font-family="Helvetica,sans-Serif" font-size="10.00">mars/interfaces/terrainStruct.h</text>
</g>
<!-- Node42&#45;&gt;Node48 -->
<g id="edge60" class="edge"><title>Node42&#45;&gt;Node48</title>
<path fill="none" stroke="midnightblue" d="M3086.22,-68.4672C3144.82,-57.6487 3245.79,-39.0087 3308.79,-27.3781"/>
<polygon fill="midnightblue" stroke="midnightblue" points="3309.74,-30.7608 3318.94,-25.5034 3308.47,-23.8771 3309.74,-30.7608"/>
</g>
<!-- Node49 -->
<g id="node49" class="node"><title>Node49</title>
<polygon fill="white" stroke="#bfbfbf" points="3457.5,-1 3457.5,-31 3560.5,-31 3560.5,-1 3457.5,-1"/>
<text text-anchor="start" x="3465.5" y="-19" font-family="Helvetica,sans-Serif" font-size="10.00">mars/interfaces/sim</text>
<text text-anchor="middle" x="3509" y="-8" font-family="Helvetica,sans-Serif" font-size="10.00">/LoadCenter.h</text>
</g>
<!-- Node42&#45;&gt;Node49 -->
<g id="edge61" class="edge"><title>Node42&#45;&gt;Node49</title>
<path fill="none" stroke="midnightblue" d="M3097.1,-73.0801C3174.29,-67.2549 3316.36,-54.681 3447,-32.0237"/>
<polygon fill="midnightblue" stroke="midnightblue" points="3447.94,-35.4116 3457.18,-30.2323 3446.73,-28.5174 3447.94,-35.4116"/>
</g>
<!-- Node50 -->
<g id="node50" class="node"><title>Node50</title>
<polygon fill="white" stroke="#bfbfbf" points="3578.5,-1 3578.5,-31 3721.5,-31 3721.5,-1 3578.5,-1"/>
<text text-anchor="start" x="3586.5" y="-19" font-family="Helvetica,sans-Serif" font-size="10.00">mars/interfaces/graphics</text>
<text text-anchor="middle" x="3650" y="-8" font-family="Helvetica,sans-Serif" font-size="10.00">/GraphicsManagerInterface.h</text>
</g>
<!-- Node42&#45;&gt;Node50 -->
<g id="edge62" class="edge"><title>Node42&#45;&gt;Node50</title>
<path fill="none" stroke="midnightblue" d="M3097.35,-73.973C3192.85,-68.5262 3390.67,-55.5196 3568.03,-32.0423"/>
<polygon fill="midnightblue" stroke="midnightblue" points="3568.62,-35.4947 3578.07,-30.6995 3567.69,-28.5566 3568.62,-35.4947"/>
</g>
</g>
</svg>
