<?xml version="1.0" encoding="UTF-8" standalone="no"?>
<!DOCTYPE svg PUBLIC "-//W3C//DTD SVG 1.1//EN"
 "http://www.w3.org/Graphics/SVG/1.1/DTD/svg11.dtd">
<!-- Generated by graphviz version 2.26.3 (20100126.1600)
 -->
<!-- Title: mars::cfg_manager::CFGParam Pages: 1 -->
<svg width="260pt" height="198pt"
 viewBox="0.00 0.00 260.00 198.00" xmlns="http://www.w3.org/2000/svg" xmlns:xlink="http://www.w3.org/1999/xlink">
<g id="graph1" class="graph" transform="scale(1 1) rotate(0) translate(4 194)">
<title>mars::cfg_manager::CFGParam</title>
<polygon fill="white" stroke="white" points="-4,5 -4,-194 257,-194 257,5 -4,5"/>
<!-- Node1 -->
<g id="node1" class="node"><title>Node1</title>
<polygon fill="#bfbfbf" stroke="black" points="0.5,-78 0.5,-112 107.5,-112 107.5,-78 0.5,-78"/>
<text text-anchor="start" x="8.5" y="-99" font-family="Helvetica,sans-Serif" font-size="10.00">mars::cfg_manager::</text>
<text text-anchor="middle" x="54" y="-86" font-family="Helvetica,sans-Serif" font-size="10.00">CFGParam</text>
</g>
<!-- Node2 -->
<g id="node3" class="node"><title>Node2</title>
<a xlink:href="../../d4/d9b/classmars_1_1cfg__manager_1_1_c_f_g_param_bool.html" target="_top" xlink:title="mars::cfg_manager::\lCFGParamBool">
<polygon fill="white" stroke="black" points="144.5,-156 144.5,-190 251.5,-190 251.5,-156 144.5,-156"/>
<text text-anchor="start" x="152.5" y="-177" font-family="Helvetica,sans-Serif" font-size="10.00">mars::cfg_manager::</text>
<text text-anchor="middle" x="198" y="-164" font-family="Helvetica,sans-Serif" font-size="10.00">CFGParamBool</text>
</a>
</g>
<!-- Node1&#45;&gt;Node2 -->
<g id="edge2" class="edge"><title>Node1&#45;&gt;Node2</title>
<path fill="none" stroke="midnightblue" d="M91.522,-117.522C107.538,-126.915 126.53,-137.764 144,-147 149.611,-149.966 155.614,-152.995 161.504,-155.889"/>
<polygon fill="midnightblue" stroke="midnightblue" points="92.8618,-114.249 82.4703,-112.184 89.3057,-120.278 92.8618,-114.249"/>
</g>
<!-- Node3 -->
<g id="node5" class="node"><title>Node3</title>
<a xlink:href="../../d8/d7b/classmars_1_1cfg__manager_1_1_c_f_g_param_double.html" target="_top" xlink:title="mars::cfg_manager::\lCFGParamDouble">
<polygon fill="white" stroke="black" points="144.5,-104 144.5,-138 251.5,-138 251.5,-104 144.5,-104"/>
<text text-anchor="start" x="152.5" y="-125" font-family="Helvetica,sans-Serif" font-size="10.00">mars::cfg_manager::</text>
<text text-anchor="middle" x="198" y="-112" font-family="Helvetica,sans-Serif" font-size="10.00">CFGParamDouble</text>
</a>
</g>
<!-- Node1&#45;&gt;Node3 -->
<g id="edge4" class="edge"><title>Node1&#45;&gt;Node3</title>
<path fill="none" stroke="midnightblue" d="M117.593,-106.482C126.519,-108.094 135.619,-109.737 144.335,-111.31"/>
<polygon fill="midnightblue" stroke="midnightblue" points="118.083,-103.014 107.62,-104.681 116.839,-109.903 118.083,-103.014"/>
</g>
<!-- Node4 -->
<g id="node7" class="node"><title>Node4</title>
<a xlink:href="../../d9/d42/classmars_1_1cfg__manager_1_1_c_f_g_param_int.html" target="_top" xlink:title="mars::cfg_manager::\lCFGParamInt">
<polygon fill="white" stroke="black" points="144.5,-52 144.5,-86 251.5,-86 251.5,-52 144.5,-52"/>
<text text-anchor="start" x="152.5" y="-73" font-family="Helvetica,sans-Serif" font-size="10.00">mars::cfg_manager::</text>
<text text-anchor="middle" x="198" y="-60" font-family="Helvetica,sans-Serif" font-size="10.00">CFGParamInt</text>
</a>
</g>
<!-- Node1&#45;&gt;Node4 -->
<g id="edge6" class="edge"><title>Node1&#45;&gt;Node4</title>
<path fill="none" stroke="midnightblue" d="M117.593,-83.5179C126.519,-81.9063 135.619,-80.2633 144.335,-78.6895"/>
<polygon fill="midnightblue" stroke="midnightblue" points="116.839,-80.0973 107.62,-85.3186 118.083,-86.986 116.839,-80.0973"/>
</g>
<!-- Node5 -->
<g id="node9" class="node"><title>Node5</title>
<a xlink:href="../../d9/d8a/classmars_1_1cfg__manager_1_1_c_f_g_param_string.html" target="_top" xlink:title="mars::cfg_manager::\lCFGParamString">
<polygon fill="white" stroke="black" points="144.5,-0 144.5,-34 251.5,-34 251.5,-0 144.5,-0"/>
<text text-anchor="start" x="152.5" y="-21" font-family="Helvetica,sans-Serif" font-size="10.00">mars::cfg_manager::</text>
<text text-anchor="middle" x="198" y="-8" font-family="Helvetica,sans-Serif" font-size="10.00">CFGParamString</text>
</a>
</g>
<!-- Node1&#45;&gt;Node5 -->
<g id="edge8" class="edge"><title>Node1&#45;&gt;Node5</title>
<path fill="none" stroke="midnightblue" d="M91.522,-72.4779C107.538,-63.0854 126.53,-52.236 144,-43 149.611,-40.0335 155.614,-37.0045 161.504,-34.1112"/>
<polygon fill="midnightblue" stroke="midnightblue" points="89.3057,-69.7216 82.4703,-77.8165 92.8618,-75.751 89.3057,-69.7216"/>
</g>
</g>
</svg>
