<?xml version="1.0" encoding="UTF-8" standalone="no"?>
<!DOCTYPE svg PUBLIC "-//W3C//DTD SVG 1.1//EN"
 "http://www.w3.org/Graphics/SVG/1.1/DTD/svg11.dtd">
<!-- Generated by graphviz version 2.36.0 (20140111.2315)
 -->
<!-- Title: mars::interfaces::DrawInterface Pages: 1 -->
<svg width="352pt" height="230pt"
 viewBox="0.00 0.00 352.00 230.00" xmlns="http://www.w3.org/2000/svg" xmlns:xlink="http://www.w3.org/1999/xlink">
<g id="graph0" class="graph" transform="scale(1 1) rotate(0) translate(4 226)">
<title>mars::interfaces::DrawInterface</title>
<polygon fill="white" stroke="none" points="-4,4 -4,-226 348,-226 348,4 -4,4"/>
<!-- Node1 -->
<g id="node1" class="node"><title>Node1</title>
<polygon fill="#bfbfbf" stroke="black" points="0.5,-95.5 0.5,-114.5 155.5,-114.5 155.5,-95.5 0.5,-95.5"/>
<text text-anchor="middle" x="78" y="-102.5" font-family="Helvetica,sans-Serif" font-size="10.00">mars::interfaces::DrawInterface</text>
</g>
<!-- Node2 -->
<g id="node2" class="node"><title>Node2</title>
<g id="a_node2"><a xlink:href="../../d0/d67/classmars_1_1sim_1_1_haptic_field_sensor.html" target="_top" xlink:title="mars::sim::HapticFieldSensor">
<polygon fill="white" stroke="black" points="195,-202.5 195,-221.5 341,-221.5 341,-202.5 195,-202.5"/>
<text text-anchor="middle" x="268" y="-209.5" font-family="Helvetica,sans-Serif" font-size="10.00">mars::sim::HapticFieldSensor</text>
</a>
</g>
</g>
<!-- Node1&#45;&gt;Node2 -->
<g id="edge1" class="edge"><title>Node1&#45;&gt;Node2</title>
<path fill="none" stroke="midnightblue" d="M96.095,-121.726C117.029,-141.311 154.365,-173.431 192,-192 200.58,-196.234 210.17,-199.657 219.55,-202.395"/>
<polygon fill="midnightblue" stroke="midnightblue" points="98.3189,-119.011 88.6631,-114.65 93.4921,-124.08 98.3189,-119.011"/>
</g>
<!-- Node3 -->
<g id="node3" class="node"><title>Node3</title>
<g id="a_node3"><a xlink:href="../../d8/d7b/classmars_1_1sim_1_1_multi_level_laser_range_finder.html" target="_top" xlink:title="mars::sim::MultiLevelLaser\lRangeFinder">
<polygon fill="white" stroke="black" points="201,-153 201,-183 335,-183 335,-153 201,-153"/>
<text text-anchor="start" x="209" y="-171" font-family="Helvetica,sans-Serif" font-size="10.00">mars::sim::MultiLevelLaser</text>
<text text-anchor="middle" x="268" y="-160" font-family="Helvetica,sans-Serif" font-size="10.00">RangeFinder</text>
</a>
</g>
</g>
<!-- Node1&#45;&gt;Node3 -->
<g id="edge2" class="edge"><title>Node1&#45;&gt;Node3</title>
<path fill="none" stroke="midnightblue" d="M116.928,-117.783C138.859,-125.167 166.98,-134.623 192,-143 201.631,-146.225 211.961,-149.674 221.781,-152.949"/>
<polygon fill="midnightblue" stroke="midnightblue" points="117.915,-114.422 107.321,-114.547 115.681,-121.056 117.915,-114.422"/>
</g>
<!-- Node4 -->
<g id="node4" class="node"><title>Node4</title>
<g id="a_node4"><a xlink:href="../../d1/d3c/classmars_1_1sim_1_1_ray_grid_sensor.html" target="_top" xlink:title="mars::sim::RayGridSensor">
<polygon fill="white" stroke="black" points="201.5,-114.5 201.5,-133.5 334.5,-133.5 334.5,-114.5 201.5,-114.5"/>
<text text-anchor="middle" x="268" y="-121.5" font-family="Helvetica,sans-Serif" font-size="10.00">mars::sim::RayGridSensor</text>
</a>
</g>
</g>
<!-- Node1&#45;&gt;Node4 -->
<g id="edge3" class="edge"><title>Node1&#45;&gt;Node4</title>
<path fill="none" stroke="midnightblue" d="M165.737,-113.766C177.706,-114.976 189.833,-116.201 201.335,-117.364"/>
<polygon fill="midnightblue" stroke="midnightblue" points="166.039,-110.279 155.738,-112.755 165.335,-117.243 166.039,-110.279"/>
</g>
<!-- Node5 -->
<g id="node5" class="node"><title>Node5</title>
<g id="a_node5"><a xlink:href="../../d3/dde/classmars_1_1sim_1_1_ray_sensor.html" target="_top" xlink:title="mars::sim::RaySensor">
<polygon fill="white" stroke="black" points="210.5,-76.5 210.5,-95.5 325.5,-95.5 325.5,-76.5 210.5,-76.5"/>
<text text-anchor="middle" x="268" y="-83.5" font-family="Helvetica,sans-Serif" font-size="10.00">mars::sim::RaySensor</text>
</a>
</g>
</g>
<!-- Node1&#45;&gt;Node5 -->
<g id="edge4" class="edge"><title>Node1&#45;&gt;Node5</title>
<path fill="none" stroke="midnightblue" d="M166.094,-96.1979C181.135,-94.6778 196.413,-93.1338 210.377,-91.7226"/>
<polygon fill="midnightblue" stroke="midnightblue" points="165.335,-92.7567 155.738,-97.2446 166.039,-99.7212 165.335,-92.7567"/>
</g>
<!-- Node6 -->
<g id="node6" class="node"><title>Node6</title>
<g id="a_node6"><a xlink:href="../../d1/d86/classmars_1_1sim_1_1_rotating_ray_sensor.html" target="_top" xlink:title="mars::sim::RotatingRaySensor">
<polygon fill="white" stroke="black" points="192,-38.5 192,-57.5 344,-57.5 344,-38.5 192,-38.5"/>
<text text-anchor="middle" x="268" y="-45.5" font-family="Helvetica,sans-Serif" font-size="10.00">mars::sim::RotatingRaySensor</text>
</a>
</g>
</g>
<!-- Node1&#45;&gt;Node6 -->
<g id="edge5" class="edge"><title>Node1&#45;&gt;Node6</title>
<path fill="none" stroke="midnightblue" d="M115.377,-91.9806C137.417,-84.2897 166.173,-74.6021 192,-67 203.21,-63.7003 215.463,-60.449 226.755,-57.5942"/>
<polygon fill="midnightblue" stroke="midnightblue" points="114.033,-88.743 105.758,-95.3591 116.353,-95.3475 114.033,-88.743"/>
</g>
<!-- Node7 -->
<g id="node7" class="node"><title>Node7</title>
<g id="a_node7"><a xlink:href="../../de/d02/classmars_1_1sim_1_1_world_physics.html" target="_top" xlink:title="Declaration of the physical class, that implements the physics interface. ">
<polygon fill="white" stroke="black" points="204.5,-0.5 204.5,-19.5 331.5,-19.5 331.5,-0.5 204.5,-0.5"/>
<text text-anchor="middle" x="268" y="-7.5" font-family="Helvetica,sans-Serif" font-size="10.00">mars::sim::WorldPhysics</text>
</a>
</g>
</g>
<!-- Node1&#45;&gt;Node7 -->
<g id="edge6" class="edge"><title>Node1&#45;&gt;Node7</title>
<path fill="none" stroke="#8b1a1a" d="M98.4357,-88.8471C120.022,-71.6725 156.521,-44.8479 192,-29 200.462,-25.22 209.811,-22.0974 218.955,-19.5523"/>
<polygon fill="#8b1a1a" stroke="#8b1a1a" points="95.9789,-86.3327 90.4045,-95.3425 100.381,-91.7754 95.9789,-86.3327"/>
</g>
</g>
</svg>
