<?xml version="1.0" encoding="UTF-8" standalone="no"?>
<!DOCTYPE svg PUBLIC "-//W3C//DTD SVG 1.1//EN"
 "http://www.w3.org/Graphics/SVG/1.1/DTD/svg11.dtd">
<!-- Generated by graphviz version 2.36.0 (20140111.2315)
 -->
<!-- Title: mars::plugins::connexion_plugin::ConnexionPlugin Pages: 1 -->
<svg width="480pt" height="165pt"
 viewBox="0.00 0.00 480.00 165.00" xmlns="http://www.w3.org/2000/svg" xmlns:xlink="http://www.w3.org/1999/xlink">
<g id="graph0" class="graph" transform="scale(1 1) rotate(0) translate(4 161)">
<title>mars::plugins::connexion_plugin::ConnexionPlugin</title>
<polygon fill="white" stroke="none" points="-4,4 -4,-161 476,-161 476,4 -4,4"/>
<!-- Node1 -->
<g id="node1" class="node"><title>Node1</title>
<polygon fill="#bfbfbf" stroke="black" points="344.5,-66 344.5,-96 471.5,-96 471.5,-66 344.5,-66"/>
<text text-anchor="start" x="352.5" y="-84" font-family="Helvetica,sans-Serif" font-size="10.00">mars::plugins::connexion</text>
<text text-anchor="middle" x="408" y="-73" font-family="Helvetica,sans-Serif" font-size="10.00">_plugin::ConnexionPlugin</text>
</g>
<!-- Node2 -->
<g id="node2" class="node"><title>Node2</title>
<polygon fill="white" stroke="#bfbfbf" points="205,-137.5 205,-156.5 259,-156.5 259,-137.5 205,-137.5"/>
<text text-anchor="middle" x="232" y="-144.5" font-family="Helvetica,sans-Serif" font-size="10.00">QThread</text>
</g>
<!-- Node2&#45;&gt;Node1 -->
<g id="edge1" class="edge"><title>Node2&#45;&gt;Node1</title>
<path fill="none" stroke="midnightblue" d="M269.088,-138.735C281.559,-135.522 295.529,-131.521 308,-127 332.232,-118.215 358.658,-105.782 378.108,-96.056"/>
<polygon fill="midnightblue" stroke="midnightblue" points="267.886,-135.428 259.03,-141.243 269.579,-142.22 267.886,-135.428"/>
</g>
<!-- Node3 -->
<g id="node3" class="node"><title>Node3</title>
<g id="a_node3"><a xlink:href="../../da/df1/classmars_1_1interfaces_1_1_mars_plugin_template_g_u_i.html" target="_top" xlink:title="mars::interfaces::MarsPlugin\lTemplateGUI">
<polygon fill="white" stroke="black" points="161,-88 161,-118 303,-118 303,-88 161,-88"/>
<text text-anchor="start" x="169" y="-106" font-family="Helvetica,sans-Serif" font-size="10.00">mars::interfaces::MarsPlugin</text>
<text text-anchor="middle" x="232" y="-95" font-family="Helvetica,sans-Serif" font-size="10.00">TemplateGUI</text>
</a>
</g>
</g>
<!-- Node3&#45;&gt;Node1 -->
<g id="edge2" class="edge"><title>Node3&#45;&gt;Node1</title>
<path fill="none" stroke="midnightblue" d="M313.051,-92.8785C323.579,-91.5475 334.243,-90.1992 344.422,-88.9122"/>
<polygon fill="midnightblue" stroke="midnightblue" points="312.502,-89.42 303.02,-94.1469 313.38,-96.3647 312.502,-89.42"/>
</g>
<!-- Node4 -->
<g id="node4" class="node"><title>Node4</title>
<polygon fill="white" stroke="#bfbfbf" points="26,-115.5 26,-134.5 94,-134.5 94,-115.5 26,-115.5"/>
<text text-anchor="middle" x="60" y="-122.5" font-family="Helvetica,sans-Serif" font-size="10.00">LibInterface</text>
</g>
<!-- Node4&#45;&gt;Node3 -->
<g id="edge3" class="edge"><title>Node4&#45;&gt;Node3</title>
<path fill="none" stroke="midnightblue" d="M104.457,-119.376C121.643,-117.152 141.832,-114.539 160.976,-112.062"/>
<polygon fill="midnightblue" stroke="midnightblue" points="103.649,-115.951 94.1813,-120.706 104.548,-122.894 103.649,-115.951"/>
</g>
<!-- Node5 -->
<g id="node5" class="node"><title>Node5</title>
<g id="a_node5"><a xlink:href="../../d1/d70/classmars_1_1interfaces_1_1_plugin_interface.html" target="_top" xlink:title="The interface to load plugin dynamically into the simulation. ">
<polygon fill="white" stroke="black" points="0,-66 0,-96 120,-96 120,-66 0,-66"/>
<text text-anchor="start" x="8" y="-84" font-family="Helvetica,sans-Serif" font-size="10.00">mars::interfaces::Plugin</text>
<text text-anchor="middle" x="60" y="-73" font-family="Helvetica,sans-Serif" font-size="10.00">Interface</text>
</a>
</g>
</g>
<!-- Node5&#45;&gt;Node3 -->
<g id="edge4" class="edge"><title>Node5&#45;&gt;Node3</title>
<path fill="none" stroke="midnightblue" d="M130.681,-90.0176C140.615,-91.3031 150.837,-92.626 160.781,-93.9128"/>
<polygon fill="midnightblue" stroke="midnightblue" points="130.824,-86.507 120.458,-88.6945 129.926,-93.4491 130.824,-86.507"/>
</g>
<!-- Node6 -->
<g id="node6" class="node"><title>Node6</title>
<g id="a_node6"><a xlink:href="../../d3/d52/classmars_1_1main__gui_1_1_menu_interface.html" target="_top" xlink:title="Provides the menuAction function. ">
<polygon fill="white" stroke="black" points="156,-49.5 156,-68.5 308,-68.5 308,-49.5 156,-49.5"/>
<text text-anchor="middle" x="232" y="-56.5" font-family="Helvetica,sans-Serif" font-size="10.00">mars::main_gui::MenuInterface</text>
</a>
</g>
</g>
<!-- Node6&#45;&gt;Node1 -->
<g id="edge5" class="edge"><title>Node6&#45;&gt;Node1</title>
<path fill="none" stroke="midnightblue" d="M318.065,-69.7553C326.959,-70.8799 335.88,-72.0079 344.457,-73.0922"/>
<polygon fill="midnightblue" stroke="midnightblue" points="318.414,-66.2717 308.054,-68.4896 317.536,-73.2164 318.414,-66.2717"/>
</g>
<!-- Node7 -->
<g id="node7" class="node"><title>Node7</title>
<g id="a_node7"><a xlink:href="../../d8/d6e/classmars_1_1interfaces_1_1_graphics_update_interface.html" target="_top" xlink:title="The Interface to load controller dynamically into the simulation. ">
<polygon fill="white" stroke="black" points="166,-0 166,-30 298,-30 298,-0 166,-0"/>
<text text-anchor="start" x="174" y="-18" font-family="Helvetica,sans-Serif" font-size="10.00">mars::interfaces::Graphics</text>
<text text-anchor="middle" x="232" y="-7" font-family="Helvetica,sans-Serif" font-size="10.00">UpdateInterface</text>
</a>
</g>
</g>
<!-- Node7&#45;&gt;Node1 -->
<g id="edge6" class="edge"><title>Node7&#45;&gt;Node1</title>
<path fill="none" stroke="midnightblue" d="M289.69,-33.4209C295.891,-35.5771 302.093,-37.7955 308,-40 329.612,-48.0656 353.515,-57.937 372.418,-65.9726"/>
<polygon fill="midnightblue" stroke="midnightblue" points="290.583,-30.0273 279.989,-30.0946 288.313,-36.6489 290.583,-30.0273"/>
</g>
</g>
</svg>
