<?xml version="1.0" encoding="UTF-8" standalone="no"?>
<!DOCTYPE svg PUBLIC "-//W3C//DTD SVG 1.1//EN"
 "http://www.w3.org/Graphics/SVG/1.1/DTD/svg11.dtd">
<!-- Generated by graphviz version 2.26.3 (20100126.1600)
 -->
<!-- Title: mars::plugins::connexion_plugin::ConnexionPlugin Pages: 1 -->
<svg width="480pt" height="174pt"
 viewBox="0.00 0.00 480.00 174.00" xmlns="http://www.w3.org/2000/svg" xmlns:xlink="http://www.w3.org/1999/xlink">
<g id="graph1" class="graph" transform="scale(1 1) rotate(0) translate(4 170)">
<title>mars::plugins::connexion_plugin::ConnexionPlugin</title>
<polygon fill="white" stroke="white" points="-4,5 -4,-170 477,-170 477,5 -4,5"/>
<!-- Node1 -->
<g id="node1" class="node"><title>Node1</title>
<polygon fill="#bfbfbf" stroke="black" points="344.5,-69 344.5,-103 471.5,-103 471.5,-69 344.5,-69"/>
<text text-anchor="start" x="352.5" y="-90" font-family="Helvetica,sans-Serif" font-size="10.00">mars::plugins::connexion</text>
<text text-anchor="middle" x="408" y="-77" font-family="Helvetica,sans-Serif" font-size="10.00">_plugin::ConnexionPlugin</text>
</g>
<!-- Node2 -->
<g id="node2" class="node"><title>Node2</title>
<polygon fill="white" stroke="#bfbfbf" points="205,-144.5 205,-165.5 259,-165.5 259,-144.5 205,-144.5"/>
<text text-anchor="middle" x="232" y="-152.5" font-family="Helvetica,sans-Serif" font-size="10.00">QThread</text>
</g>
<!-- Node2&#45;&gt;Node1 -->
<g id="edge2" class="edge"><title>Node2&#45;&gt;Node1</title>
<path fill="none" stroke="midnightblue" d="M268.856,-146.866C281.44,-143.678 295.49,-139.659 308,-135 331.916,-126.094 357.755,-113.345 377.176,-103.084"/>
<polygon fill="midnightblue" stroke="midnightblue" points="268.019,-143.467 259.135,-149.24 269.68,-150.267 268.019,-143.467"/>
</g>
<!-- Node3 -->
<g id="node4" class="node"><title>Node3</title>
<a xlink:href="../../da/df1/classmars_1_1interfaces_1_1_mars_plugin_template_g_u_i.html" target="_top" xlink:title="mars::interfaces::MarsPlugin\lTemplateGUI">
<polygon fill="white" stroke="black" points="161,-92 161,-126 303,-126 303,-92 161,-92"/>
<text text-anchor="start" x="169" y="-113" font-family="Helvetica,sans-Serif" font-size="10.00">mars::interfaces::MarsPlugin</text>
<text text-anchor="middle" x="232" y="-100" font-family="Helvetica,sans-Serif" font-size="10.00">TemplateGUI</text>
</a>
</g>
<!-- Node3&#45;&gt;Node1 -->
<g id="edge4" class="edge"><title>Node3&#45;&gt;Node1</title>
<path fill="none" stroke="midnightblue" d="M313.071,-98.4056C323.555,-97.0355 334.171,-95.6481 344.319,-94.3219"/>
<polygon fill="midnightblue" stroke="midnightblue" points="312.541,-94.9449 303.079,-99.7113 313.448,-101.886 312.541,-94.9449"/>
</g>
<!-- Node4 -->
<g id="node6" class="node"><title>Node4</title>
<polygon fill="white" stroke="#bfbfbf" points="26,-121.5 26,-142.5 94,-142.5 94,-121.5 26,-121.5"/>
<text text-anchor="middle" x="60" y="-129.5" font-family="Helvetica,sans-Serif" font-size="10.00">LibInterface</text>
</g>
<!-- Node4&#45;&gt;Node3 -->
<g id="edge6" class="edge"><title>Node4&#45;&gt;Node3</title>
<path fill="none" stroke="midnightblue" d="M104.639,-126.031C121.744,-123.743 141.715,-121.073 160.7,-118.534"/>
<polygon fill="midnightblue" stroke="midnightblue" points="103.841,-122.606 94.3934,-127.401 104.769,-129.545 103.841,-122.606"/>
</g>
<!-- Node5 -->
<g id="node8" class="node"><title>Node5</title>
<a xlink:href="../../d1/d70/classmars_1_1interfaces_1_1_plugin_interface.html" target="_top" xlink:title="The interface to load plugin dynamically into the simulation. ">
<polygon fill="white" stroke="black" points="0,-69 0,-103 120,-103 120,-69 0,-69"/>
<text text-anchor="start" x="8" y="-90" font-family="Helvetica,sans-Serif" font-size="10.00">mars::interfaces::Plugin</text>
<text text-anchor="middle" x="60" y="-77" font-family="Helvetica,sans-Serif" font-size="10.00">Interface</text>
</a>
</g>
<!-- Node5&#45;&gt;Node3 -->
<g id="edge8" class="edge"><title>Node5&#45;&gt;Node3</title>
<path fill="none" stroke="midnightblue" d="M130.184,-95.385C140.334,-96.7423 150.788,-98.1403 160.955,-99.4998"/>
<polygon fill="midnightblue" stroke="midnightblue" points="130.533,-91.9007 120.157,-94.0443 129.605,-98.8389 130.533,-91.9007"/>
</g>
<!-- Node6 -->
<g id="node10" class="node"><title>Node6</title>
<a xlink:href="../../d3/d52/classmars_1_1main__gui_1_1_menu_interface.html" target="_top" xlink:title="Provides the menuAction function. ">
<polygon fill="white" stroke="black" points="156,-52.5 156,-73.5 308,-73.5 308,-52.5 156,-52.5"/>
<text text-anchor="middle" x="232" y="-60.5" font-family="Helvetica,sans-Serif" font-size="10.00">mars::main_gui::MenuInterface</text>
</a>
</g>
<!-- Node6&#45;&gt;Node1 -->
<g id="edge10" class="edge"><title>Node6&#45;&gt;Node1</title>
<path fill="none" stroke="midnightblue" d="M318.129,-74.2554C326.973,-75.4113 335.843,-76.5704 344.38,-77.6861"/>
<polygon fill="midnightblue" stroke="midnightblue" points="318.542,-70.7798 308.173,-72.9544 317.635,-77.7207 318.542,-70.7798"/>
</g>
<!-- Node7 -->
<g id="node12" class="node"><title>Node7</title>
<a xlink:href="../../d8/d6e/classmars_1_1interfaces_1_1_graphics_update_interface.html" target="_top" xlink:title="The Interface to load controller dynamically into the simulation. ">
<polygon fill="white" stroke="black" points="166,-0 166,-34 298,-34 298,-0 166,-0"/>
<text text-anchor="start" x="174" y="-21" font-family="Helvetica,sans-Serif" font-size="10.00">mars::interfaces::Graphics</text>
<text text-anchor="middle" x="232" y="-8" font-family="Helvetica,sans-Serif" font-size="10.00">UpdateInterface</text>
</a>
</g>
<!-- Node7&#45;&gt;Node1 -->
<g id="edge12" class="edge"><title>Node7&#45;&gt;Node1</title>
<path fill="none" stroke="midnightblue" d="M293.305,-37.5187C298.294,-39.3262 303.242,-41.1664 308,-43 328.808,-51.0195 351.68,-60.7819 370.292,-68.9767"/>
<polygon fill="midnightblue" stroke="midnightblue" points="294.298,-34.1568 283.703,-34.0934 291.946,-40.7499 294.298,-34.1568"/>
</g>
</g>
</svg>
