<?xml version="1.0" encoding="UTF-8" standalone="no"?>
<!DOCTYPE svg PUBLIC "-//W3C//DTD SVG 1.1//EN"
 "http://www.w3.org/Graphics/SVG/1.1/DTD/svg11.dtd">
<!-- Generated by graphviz version 2.36.0 (20140111.2315)
 -->
<!-- Title: mars::gui::Dialog_Graphics_Options::cam_backup_struct Pages: 1 -->
<svg width="154pt" height="120pt"
 viewBox="0.00 0.00 154.00 120.00" xmlns="http://www.w3.org/2000/svg" xmlns:xlink="http://www.w3.org/1999/xlink">
<g id="graph0" class="graph" transform="scale(1 1) rotate(0) translate(4 116)">
<title>mars::gui::Dialog_Graphics_Options::cam_backup_struct</title>
<polygon fill="white" stroke="none" points="-4,4 -4,-116 150,-116 150,4 -4,4"/>
<!-- Node1 -->
<g id="node1" class="node"><title>Node1</title>
<polygon fill="#bfbfbf" stroke="black" points="-0.5,-1 -0.5,-31 146.5,-31 146.5,-1 -0.5,-1"/>
<text text-anchor="start" x="7.5" y="-19" font-family="Helvetica,sans-Serif" font-size="10.00">mars::gui::Dialog_Graphics</text>
<text text-anchor="middle" x="73" y="-8" font-family="Helvetica,sans-Serif" font-size="10.00">_Options::cam_backup_struct</text>
</g>
<!-- Node2 -->
<g id="node2" class="node"><title>Node2</title>
<g id="a_node2"><a xlink:href="../../db/dc3/classmars_1_1interfaces_1_1_graphics_camera_interface.html" target="_top" xlink:title="mars::interfaces::Graphics\lCameraInterface">
<polygon fill="white" stroke="black" points="7,-81 7,-111 139,-111 139,-81 7,-81"/>
<text text-anchor="start" x="15" y="-99" font-family="Helvetica,sans-Serif" font-size="10.00">mars::interfaces::Graphics</text>
<text text-anchor="middle" x="73" y="-88" font-family="Helvetica,sans-Serif" font-size="10.00">CameraInterface</text>
</a>
</g>
</g>
<!-- Node2&#45;&gt;Node1 -->
<g id="edge1" class="edge"><title>Node2&#45;&gt;Node1</title>
<path fill="none" stroke="#9a32cd" stroke-dasharray="5,2" d="M73,-70.5644C73,-57.6243 73,-42.1862 73,-31.2157"/>
<polygon fill="#9a32cd" stroke="#9a32cd" points="69.5001,-70.6936 73,-80.6936 76.5001,-70.6936 69.5001,-70.6936"/>
<text text-anchor="middle" x="89.5" y="-53.5" font-family="Helvetica,sans-Serif" font-size="10.00"> g_cam</text>
</g>
</g>
</svg>
