<?xml version="1.0" encoding="UTF-8" standalone="no"?>
<!DOCTYPE svg PUBLIC "-//W3C//DTD SVG 1.1//EN"
 "http://www.w3.org/Graphics/SVG/1.1/DTD/svg11.dtd">
<!-- Generated by graphviz version 2.26.3 (20100126.1600)
 -->
<!-- Title: mars::gui::Dialog_Graphics_Options::cam_backup_struct Pages: 1 -->
<svg width="154pt" height="130pt"
 viewBox="0.00 0.00 154.00 130.00" xmlns="http://www.w3.org/2000/svg" xmlns:xlink="http://www.w3.org/1999/xlink">
<g id="graph1" class="graph" transform="scale(1 1) rotate(0) translate(4 126)">
<title>mars::gui::Dialog_Graphics_Options::cam_backup_struct</title>
<polygon fill="white" stroke="white" points="-4,5 -4,-126 151,-126 151,5 -4,5"/>
<!-- Node1 -->
<g id="node1" class="node"><title>Node1</title>
<polygon fill="#bfbfbf" stroke="black" points="-0.5,-1 -0.5,-35 146.5,-35 146.5,-1 -0.5,-1"/>
<text text-anchor="start" x="7.5" y="-22" font-family="Helvetica,sans-Serif" font-size="10.00">mars::gui::Dialog_Graphics</text>
<text text-anchor="middle" x="73" y="-9" font-family="Helvetica,sans-Serif" font-size="10.00">_Options::cam_backup_struct</text>
</g>
<!-- Node2 -->
<g id="node2" class="node"><title>Node2</title>
<a xlink:href="../../db/dc3/classmars_1_1interfaces_1_1_graphics_camera_interface.html" target="_top" xlink:title="mars::interfaces::Graphics\lCameraInterface">
<polygon fill="white" stroke="black" points="7,-87 7,-121 139,-121 139,-87 7,-87"/>
<text text-anchor="start" x="15" y="-108" font-family="Helvetica,sans-Serif" font-size="10.00">mars::interfaces::Graphics</text>
<text text-anchor="middle" x="73" y="-95" font-family="Helvetica,sans-Serif" font-size="10.00">CameraInterface</text>
</a>
</g>
<!-- Node2&#45;&gt;Node1 -->
<g id="edge2" class="edge"><title>Node2&#45;&gt;Node1</title>
<path fill="none" stroke="#9a32cd" stroke-dasharray="5,2" d="M73,-76.342C73,-62.7741 73,-46.8607 73,-35.084"/>
<polygon fill="#9a32cd" stroke="#9a32cd" points="69.5001,-76.5966 73,-86.5966 76.5001,-76.5967 69.5001,-76.5966"/>
<text text-anchor="middle" x="89.5" y="-58.5" font-family="Helvetica,sans-Serif" font-size="10.00"> g_cam</text>
</g>
</g>
</svg>
