<?xml version="1.0" encoding="UTF-8" standalone="no"?>
<!DOCTYPE svg PUBLIC "-//W3C//DTD SVG 1.1//EN"
 "http://www.w3.org/Graphics/SVG/1.1/DTD/svg11.dtd">
<!-- Generated by graphviz version 2.26.3 (20100126.1600)
 -->
<!-- Title: /home/kavonszadkowski/limes&#45;dev/simulation/mars/graphics/src/3d_objects/TerrainDrawObject.cpp Pages: 1 -->
<svg width="1760pt" height="316pt"
 viewBox="0.00 0.00 1760.00 316.00" xmlns="http://www.w3.org/2000/svg" xmlns:xlink="http://www.w3.org/1999/xlink">
<g id="graph1" class="graph" transform="scale(1 1) rotate(0) translate(4 312)">
<title>/home/kavonszadkowski/limes&#45;dev/simulation/mars/graphics/src/3d_objects/TerrainDrawObject.cpp</title>
<polygon fill="white" stroke="white" points="-4,5 -4,-312 1757,-312 1757,5 -4,5"/>
<!-- Node1 -->
<g id="node1" class="node"><title>Node1</title>
<polygon fill="#bfbfbf" stroke="black" points="1131.5,-247 1131.5,-307 1288.5,-307 1288.5,-247 1131.5,-247"/>
<text text-anchor="start" x="1139.5" y="-294" font-family="Helvetica,sans-Serif" font-size="10.00">/home/kavonszadkowski</text>
<text text-anchor="start" x="1139.5" y="-281" font-family="Helvetica,sans-Serif" font-size="10.00">/limes&#45;dev/simulation</text>
<text text-anchor="start" x="1139.5" y="-268" font-family="Helvetica,sans-Serif" font-size="10.00">/mars/graphics/src/3d</text>
<text text-anchor="middle" x="1210" y="-255" font-family="Helvetica,sans-Serif" font-size="10.00">_objects/TerrainDrawObject.cpp</text>
</g>
<!-- Node2 -->
<g id="node3" class="node"><title>Node2</title>
<a xlink:href="../../d7/dec/_terrain_draw_object_8h.html" target="_top" xlink:title="TerrainDrawObject.h">
<polygon fill="white" stroke="black" points="894.5,-188.5 894.5,-209.5 1001.5,-209.5 1001.5,-188.5 894.5,-188.5"/>
<text text-anchor="middle" x="948" y="-196.5" font-family="Helvetica,sans-Serif" font-size="10.00">TerrainDrawObject.h</text>
</a>
</g>
<!-- Node1&#45;&gt;Node2 -->
<g id="edge2" class="edge"><title>Node1&#45;&gt;Node2</title>
<path fill="none" stroke="midnightblue" d="M1131.39,-253.597C1086.28,-240.169 1031.25,-223.786 993.312,-212.49"/>
<polygon fill="midnightblue" stroke="midnightblue" points="994.152,-209.088 983.569,-209.589 992.154,-215.797 994.152,-209.088"/>
</g>
<!-- Node23 -->
<g id="node54" class="node"><title>Node23</title>
<polygon fill="white" stroke="#bfbfbf" points="1019,-188.5 1019,-209.5 1155,-209.5 1155,-188.5 1019,-188.5"/>
<text text-anchor="middle" x="1087" y="-196.5" font-family="Helvetica,sans-Serif" font-size="10.00">osg/ComputeBoundsVisitor</text>
</g>
<!-- Node1&#45;&gt;Node23 -->
<g id="edge62" class="edge"><title>Node1&#45;&gt;Node23</title>
<path fill="none" stroke="midnightblue" d="M1162.44,-246.843C1145.48,-236.082 1127.01,-224.373 1112.6,-215.232"/>
<polygon fill="midnightblue" stroke="midnightblue" points="1114.08,-212.031 1103.77,-209.632 1110.34,-217.943 1114.08,-212.031"/>
</g>
<!-- Node24 -->
<g id="node56" class="node"><title>Node24</title>
<polygon fill="white" stroke="#bfbfbf" points="1173,-188.5 1173,-209.5 1247,-209.5 1247,-188.5 1173,-188.5"/>
<text text-anchor="middle" x="1210" y="-196.5" font-family="Helvetica,sans-Serif" font-size="10.00">osg/CullFace</text>
</g>
<!-- Node1&#45;&gt;Node24 -->
<g id="edge64" class="edge"><title>Node1&#45;&gt;Node24</title>
<path fill="none" stroke="midnightblue" d="M1210,-246.62C1210,-237.68 1210,-228.103 1210,-219.9"/>
<polygon fill="midnightblue" stroke="midnightblue" points="1213.5,-219.753 1210,-209.753 1206.5,-219.753 1213.5,-219.753"/>
</g>
<!-- Node25 -->
<g id="node58" class="node"><title>Node25</title>
<polygon fill="white" stroke="#bfbfbf" points="1265,-188.5 1265,-209.5 1343,-209.5 1343,-188.5 1265,-188.5"/>
<text text-anchor="middle" x="1304" y="-196.5" font-family="Helvetica,sans-Serif" font-size="10.00">osg/Geometry</text>
</g>
<!-- Node1&#45;&gt;Node25 -->
<g id="edge66" class="edge"><title>Node1&#45;&gt;Node25</title>
<path fill="none" stroke="midnightblue" d="M1246.34,-246.843C1258.74,-236.56 1272.17,-225.411 1282.95,-216.464"/>
<polygon fill="midnightblue" stroke="midnightblue" points="1285.5,-218.899 1290.96,-209.82 1281.03,-213.512 1285.5,-218.899"/>
</g>
<!-- Node26 -->
<g id="node60" class="node"><title>Node26</title>
<polygon fill="white" stroke="#bfbfbf" points="1361,-188.5 1361,-209.5 1425,-209.5 1425,-188.5 1361,-188.5"/>
<text text-anchor="middle" x="1393" y="-196.5" font-family="Helvetica,sans-Serif" font-size="10.00">osg/Export</text>
</g>
<!-- Node1&#45;&gt;Node26 -->
<g id="edge68" class="edge"><title>Node1&#45;&gt;Node26</title>
<path fill="none" stroke="midnightblue" d="M1280.49,-246.955C1307.33,-235.515 1336.72,-222.989 1358.73,-213.609"/>
<polygon fill="midnightblue" stroke="midnightblue" points="1360.15,-216.805 1367.98,-209.665 1357.41,-210.366 1360.15,-216.805"/>
</g>
<!-- Node3 -->
<g id="node5" class="node"><title>Node3</title>
<a xlink:href="../../db/d56/_load_draw_object_8h.html" target="_top" xlink:title="LoadDrawObject.h">
<polygon fill="white" stroke="black" points="847,-130.5 847,-151.5 945,-151.5 945,-130.5 847,-130.5"/>
<text text-anchor="middle" x="896" y="-138.5" font-family="Helvetica,sans-Serif" font-size="10.00">LoadDrawObject.h</text>
</a>
</g>
<!-- Node2&#45;&gt;Node3 -->
<g id="edge4" class="edge"><title>Node2&#45;&gt;Node3</title>
<path fill="none" stroke="midnightblue" d="M938.462,-188.362C931.132,-180.186 920.837,-168.702 912.219,-159.091"/>
<polygon fill="midnightblue" stroke="midnightblue" points="914.759,-156.68 905.477,-151.571 909.547,-161.353 914.759,-156.68"/>
</g>
<!-- Node5 -->
<g id="node9" class="node"><title>Node5</title>
<polygon fill="white" stroke="#bfbfbf" points="0,-7.5 0,-28.5 146,-28.5 146,-7.5 0,-7.5"/>
<text text-anchor="middle" x="73" y="-15.5" font-family="Helvetica,sans-Serif" font-size="10.00">mars/interfaces/MARSDefs.h</text>
</g>
<!-- Node2&#45;&gt;Node5 -->
<g id="edge48" class="edge"><title>Node2&#45;&gt;Node5</title>
<path fill="none" stroke="midnightblue" d="M894.265,-196.212C812.848,-191.287 653.66,-178.91 521,-152 366.239,-120.607 188.013,-59.5568 111.331,-32.0428"/>
<polygon fill="midnightblue" stroke="midnightblue" points="112.222,-28.6437 101.627,-28.5454 109.848,-35.229 112.222,-28.6437"/>
</g>
<!-- Node6 -->
<g id="node11" class="node"><title>Node6</title>
<polygon fill="white" stroke="#bfbfbf" points="163.5,-7.5 163.5,-28.5 262.5,-28.5 262.5,-7.5 163.5,-7.5"/>
<text text-anchor="middle" x="213" y="-15.5" font-family="Helvetica,sans-Serif" font-size="10.00">mars/utils/Vector.h</text>
</g>
<!-- Node2&#45;&gt;Node6 -->
<g id="edge50" class="edge"><title>Node2&#45;&gt;Node6</title>
<path fill="none" stroke="midnightblue" d="M894.274,-194.129C827.213,-187.454 709.249,-173.753 610,-152 522.925,-132.915 502.498,-122.396 418,-94 358.501,-74.0054 290.331,-48.1303 249.519,-32.3147"/>
<polygon fill="midnightblue" stroke="midnightblue" points="250.591,-28.9763 240.002,-28.6167 248.056,-35.501 250.591,-28.9763"/>
</g>
<!-- Node10 -->
<g id="node19" class="node"><title>Node10</title>
<polygon fill="white" stroke="#bfbfbf" points="279.5,-7.5 279.5,-28.5 320.5,-28.5 320.5,-7.5 279.5,-7.5"/>
<text text-anchor="middle" x="300" y="-15.5" font-family="Helvetica,sans-Serif" font-size="10.00">string</text>
</g>
<!-- Node2&#45;&gt;Node10 -->
<g id="edge54" class="edge"><title>Node2&#45;&gt;Node10</title>
<path fill="none" stroke="midnightblue" d="M894.481,-190.456C784.972,-171.789 528.809,-122.01 329,-36 327.391,-35.3074 325.767,-34.5347 324.153,-33.7096"/>
<polygon fill="midnightblue" stroke="midnightblue" points="325.61,-30.5119 315.188,-28.6051 322.146,-36.5949 325.61,-30.5119"/>
</g>
<!-- Node11 -->
<g id="node21" class="node"><title>Node11</title>
<polygon fill="white" stroke="#bfbfbf" points="1610,-7.5 1610,-28.5 1654,-28.5 1654,-7.5 1610,-7.5"/>
<text text-anchor="middle" x="1632" y="-15.5" font-family="Helvetica,sans-Serif" font-size="10.00">vector</text>
</g>
<!-- Node2&#45;&gt;Node11 -->
<g id="edge56" class="edge"><title>Node2&#45;&gt;Node11</title>
<path fill="none" stroke="midnightblue" d="M950.695,-188.412C957.764,-163.09 979.448,-99.1269 1024,-72 1133.73,-5.18686 1478.05,-73.2521 1601,-36 1603.31,-35.2996 1605.63,-34.3978 1607.91,-33.3719"/>
<polygon fill="midnightblue" stroke="midnightblue" points="1609.66,-36.4074 1616.88,-28.6527 1606.4,-30.2129 1609.66,-36.4074"/>
</g>
<!-- Node12 -->
<g id="node23" class="node"><title>Node12</title>
<polygon fill="white" stroke="#bfbfbf" points="1671.5,-7.5 1671.5,-28.5 1700.5,-28.5 1700.5,-7.5 1671.5,-7.5"/>
<text text-anchor="middle" x="1686" y="-15.5" font-family="Helvetica,sans-Serif" font-size="10.00">list</text>
</g>
<!-- Node2&#45;&gt;Node12 -->
<g id="edge58" class="edge"><title>Node2&#45;&gt;Node12</title>
<path fill="none" stroke="midnightblue" d="M955.895,-188.287C976.891,-160.137 1034.38,-85.3263 1062,-72 1182.5,-13.857 1537.87,-83.375 1663,-36 1664.23,-35.5354 1665.44,-34.9809 1666.63,-34.3593"/>
<polygon fill="midnightblue" stroke="midnightblue" points="1668.78,-37.1322 1675.15,-28.6631 1664.89,-31.3138 1668.78,-37.1322"/>
</g>
<!-- Node13 -->
<g id="node25" class="node"><title>Node13</title>
<polygon fill="white" stroke="#bfbfbf" points="1717.5,-7.5 1717.5,-28.5 1752.5,-28.5 1752.5,-7.5 1717.5,-7.5"/>
<text text-anchor="middle" x="1735" y="-15.5" font-family="Helvetica,sans-Serif" font-size="10.00">map</text>
</g>
<!-- Node2&#45;&gt;Node13 -->
<g id="edge60" class="edge"><title>Node2&#45;&gt;Node13</title>
<path fill="none" stroke="midnightblue" d="M966.338,-188.273C993.5,-172.884 1046.45,-144.773 1095,-130 1359.11,-49.6337 1452.5,-138.074 1709,-36 1710.43,-35.4291 1711.87,-34.7664 1713.28,-34.0389"/>
<polygon fill="midnightblue" stroke="midnightblue" points="1715.48,-36.7981 1722.17,-28.5856 1711.82,-30.8314 1715.48,-36.7981"/>
</g>
<!-- Node22 -->
<g id="node48" class="node"><title>Node22</title>
<polygon fill="white" stroke="#bfbfbf" points="1103.5,-130.5 1103.5,-151.5 1252.5,-151.5 1252.5,-130.5 1103.5,-130.5"/>
<text text-anchor="middle" x="1178" y="-138.5" font-family="Helvetica,sans-Serif" font-size="10.00">mars/interfaces/terrainStruct.h</text>
</g>
<!-- Node2&#45;&gt;Node22 -->
<g id="edge52" class="edge"><title>Node2&#45;&gt;Node22</title>
<path fill="none" stroke="midnightblue" d="M989.651,-188.497C1028.04,-178.816 1085.14,-164.416 1126.41,-154.01"/>
<polygon fill="midnightblue" stroke="midnightblue" points="1127.43,-157.362 1136.27,-151.523 1125.72,-150.575 1127.43,-157.362"/>
</g>
<!-- Node4 -->
<g id="node7" class="node"><title>Node4</title>
<a xlink:href="../../d4/d4b/_draw_object_8h.html" target="_top" xlink:title="DrawObject.h">
<polygon fill="white" stroke="black" points="857.5,-72.5 857.5,-93.5 934.5,-93.5 934.5,-72.5 857.5,-72.5"/>
<text text-anchor="middle" x="896" y="-80.5" font-family="Helvetica,sans-Serif" font-size="10.00">DrawObject.h</text>
</a>
</g>
<!-- Node3&#45;&gt;Node4 -->
<g id="edge6" class="edge"><title>Node3&#45;&gt;Node4</title>
<path fill="none" stroke="midnightblue" d="M896,-130.362C896,-122.922 896,-112.743 896,-103.728"/>
<polygon fill="midnightblue" stroke="midnightblue" points="899.5,-103.571 896,-93.5707 892.5,-103.571 899.5,-103.571"/>
</g>
<!-- Node3&#45;&gt;Node6 -->
<g id="edge42" class="edge"><title>Node3&#45;&gt;Node6</title>
<path fill="none" stroke="midnightblue" d="M846.928,-135.041C740.911,-121.67 482.933,-86.4468 271,-36 265.551,-34.703 259.866,-33.1692 254.277,-31.5526"/>
<polygon fill="midnightblue" stroke="midnightblue" points="254.978,-28.1087 244.394,-28.5868 252.966,-34.8133 254.978,-28.1087"/>
</g>
<!-- Node3&#45;&gt;Node10 -->
<g id="edge44" class="edge"><title>Node3&#45;&gt;Node10</title>
<path fill="none" stroke="midnightblue" d="M878.159,-130.385C850.647,-114.597 795.728,-85.3575 745,-72 565.537,-24.7445 505.106,-94.5373 329,-36 327.06,-35.3551 325.116,-34.5572 323.205,-33.6591"/>
<polygon fill="midnightblue" stroke="midnightblue" points="324.526,-30.3885 314.086,-28.5796 321.119,-36.5037 324.526,-30.3885"/>
</g>
<!-- Node3&#45;&gt;Node12 -->
<g id="edge46" class="edge"><title>Node3&#45;&gt;Node12</title>
<path fill="none" stroke="midnightblue" d="M910.443,-130.432C933.236,-114.422 979.541,-84.5604 1024,-72 1160.87,-33.3323 1529.9,-86.1239 1663,-36 1664.23,-35.5376 1665.44,-34.9848 1666.63,-34.3646"/>
<polygon fill="midnightblue" stroke="midnightblue" points="1668.78,-37.139 1675.15,-28.6726 1664.89,-31.3189 1668.78,-37.139"/>
</g>
<!-- Node4&#45;&gt;Node5 -->
<g id="edge8" class="edge"><title>Node4&#45;&gt;Node5</title>
<path fill="none" stroke="midnightblue" d="M857.218,-82.6229C746.851,-81.1025 421.785,-73.518 155,-36 145.359,-34.6442 135.167,-32.7705 125.367,-30.7414"/>
<polygon fill="midnightblue" stroke="midnightblue" points="125.848,-27.265 115.336,-28.5858 124.377,-34.1087 125.848,-27.265"/>
</g>
<!-- Node4&#45;&gt;Node6 -->
<g id="edge10" class="edge"><title>Node4&#45;&gt;Node6</title>
<path fill="none" stroke="midnightblue" d="M857.408,-80.156C722.284,-70.1907 278.249,-37.379 271,-36 264.815,-34.8233 258.359,-33.2161 252.095,-31.4433"/>
<polygon fill="midnightblue" stroke="midnightblue" points="253.062,-28.0791 242.478,-28.5591 251.051,-34.7841 253.062,-28.0791"/>
</g>
<!-- Node7 -->
<g id="node13" class="node"><title>Node7</title>
<polygon fill="white" stroke="#bfbfbf" points="1180,-7.5 1180,-28.5 1298,-28.5 1298,-7.5 1180,-7.5"/>
<text text-anchor="middle" x="1239" y="-15.5" font-family="Helvetica,sans-Serif" font-size="10.00">mars/utils/Quaternion.h</text>
</g>
<!-- Node4&#45;&gt;Node7 -->
<g id="edge12" class="edge"><title>Node4&#45;&gt;Node7</title>
<path fill="none" stroke="midnightblue" d="M934.578,-74.6223C939.096,-73.7054 943.646,-72.8115 948,-72 1046.69,-53.6059 1072.8,-56.8705 1171,-36 1177.74,-34.5672 1184.82,-32.8913 1191.75,-31.1492"/>
<polygon fill="midnightblue" stroke="midnightblue" points="1192.94,-34.4566 1201.75,-28.5699 1191.19,-27.6784 1192.94,-34.4566"/>
</g>
<!-- Node8 -->
<g id="node15" class="node"><title>Node8</title>
<polygon fill="white" stroke="#bfbfbf" points="1315.5,-7.5 1315.5,-28.5 1452.5,-28.5 1452.5,-7.5 1315.5,-7.5"/>
<text text-anchor="middle" x="1384" y="-15.5" font-family="Helvetica,sans-Serif" font-size="10.00">mars/interfaces/LightData.h</text>
</g>
<!-- Node4&#45;&gt;Node8 -->
<g id="edge14" class="edge"><title>Node4&#45;&gt;Node8</title>
<path fill="none" stroke="midnightblue" d="M934.533,-74.3625C939.06,-73.4922 943.623,-72.6803 948,-72 1106.45,-47.3702 1148.82,-62.3061 1307,-36 1315.66,-34.56 1324.8,-32.7166 1333.63,-30.7609"/>
<polygon fill="midnightblue" stroke="midnightblue" points="1334.47,-34.16 1343.44,-28.5209 1332.91,-27.3357 1334.47,-34.16"/>
</g>
<!-- Node9 -->
<g id="node17" class="node"><title>Node9</title>
<polygon fill="white" stroke="#bfbfbf" points="1470,-1 1470,-35 1592,-35 1592,-1 1470,-1"/>
<text text-anchor="start" x="1478" y="-22" font-family="Helvetica,sans-Serif" font-size="10.00">mars/interfaces/Material</text>
<text text-anchor="middle" x="1531" y="-9" font-family="Helvetica,sans-Serif" font-size="10.00">Data.h</text>
</g>
<!-- Node4&#45;&gt;Node9 -->
<g id="edge16" class="edge"><title>Node4&#45;&gt;Node9</title>
<path fill="none" stroke="midnightblue" d="M934.514,-74.2328C939.044,-73.3858 943.614,-72.6148 948,-72 1171.03,-40.7375 1233.57,-71.6777 1459.49,-36.0738"/>
<polygon fill="midnightblue" stroke="midnightblue" points="1460.35,-39.4799 1469.67,-34.4413 1459.25,-32.5681 1460.35,-39.4799"/>
</g>
<!-- Node4&#45;&gt;Node10 -->
<g id="edge18" class="edge"><title>Node4&#45;&gt;Node10</title>
<path fill="none" stroke="midnightblue" d="M857.213,-76.4995C846.478,-74.8571 834.806,-73.2165 824,-72 604.804,-47.3241 538.793,-104.14 329,-36 327.056,-35.3685 325.109,-34.5803 323.195,-33.689"/>
<polygon fill="midnightblue" stroke="midnightblue" points="324.514,-30.418 314.072,-28.6233 321.116,-36.5378 324.514,-30.418"/>
</g>
<!-- Node4&#45;&gt;Node11 -->
<g id="edge20" class="edge"><title>Node4&#45;&gt;Node11</title>
<path fill="none" stroke="midnightblue" d="M934.505,-74.1677C939.037,-73.3324 943.609,-72.582 948,-72 1092.07,-52.9051 1461.76,-77.6373 1601,-36 1603.31,-35.308 1605.64,-34.412 1607.92,-33.3899"/>
<polygon fill="midnightblue" stroke="midnightblue" points="1609.66,-36.4272 1616.89,-28.6771 1606.41,-30.2306 1609.66,-36.4272"/>
</g>
<!-- Node4&#45;&gt;Node12 -->
<g id="edge22" class="edge"><title>Node4&#45;&gt;Node12</title>
<path fill="none" stroke="midnightblue" d="M934.503,-74.1469C939.035,-73.3154 943.608,-72.5715 948,-72 1105.76,-51.4733 1513.95,-91.6228 1663,-36 1664.23,-35.5413 1665.44,-34.9914 1666.64,-34.3735"/>
<polygon fill="midnightblue" stroke="midnightblue" points="1668.78,-37.1504 1675.16,-28.6887 1664.9,-31.3275 1668.78,-37.1504"/>
</g>
<!-- Node4&#45;&gt;Node13 -->
<g id="edge24" class="edge"><title>Node4&#45;&gt;Node13</title>
<path fill="none" stroke="midnightblue" d="M934.566,-80.3284C968.205,-78.0258 1018.32,-74.6621 1062,-72 1205.73,-63.2392 1572.8,-82.7391 1709,-36 1710.64,-35.4365 1712.28,-34.7375 1713.88,-33.9451"/>
<polygon fill="midnightblue" stroke="midnightblue" points="1715.81,-36.8632 1722.54,-28.6783 1712.18,-30.8814 1715.81,-36.8632"/>
</g>
<!-- Node14 -->
<g id="node27" class="node"><title>Node14</title>
<polygon fill="white" stroke="#bfbfbf" points="338,-7.5 338,-28.5 408,-28.5 408,-7.5 338,-7.5"/>
<text text-anchor="middle" x="373" y="-15.5" font-family="Helvetica,sans-Serif" font-size="10.00">osg/Material</text>
</g>
<!-- Node4&#45;&gt;Node14 -->
<g id="edge26" class="edge"><title>Node4&#45;&gt;Node14</title>
<path fill="none" stroke="midnightblue" d="M857.2,-76.6111C846.465,-74.9692 834.797,-73.3009 824,-72 643.709,-50.2764 593.465,-78.8605 417,-36 413.053,-35.0412 408.997,-33.7858 405.02,-32.3831"/>
<polygon fill="midnightblue" stroke="midnightblue" points="405.994,-29.0077 395.404,-28.6786 403.477,-35.5397 405.994,-29.0077"/>
</g>
<!-- Node15 -->
<g id="node29" class="node"><title>Node15</title>
<polygon fill="white" stroke="#bfbfbf" points="426,-7.5 426,-28.5 488,-28.5 488,-7.5 426,-7.5"/>
<text text-anchor="middle" x="457" y="-15.5" font-family="Helvetica,sans-Serif" font-size="10.00">osg/Group</text>
</g>
<!-- Node4&#45;&gt;Node15 -->
<g id="edge28" class="edge"><title>Node4&#45;&gt;Node15</title>
<path fill="none" stroke="midnightblue" d="M857.181,-76.7641C846.445,-75.1227 834.782,-73.4165 824,-72 679.034,-52.955 638.059,-74.4708 497,-36 493.591,-35.0702 490.103,-33.886 486.677,-32.5701"/>
<polygon fill="midnightblue" stroke="midnightblue" points="487.878,-29.2781 477.304,-28.6153 485.157,-35.7275 487.878,-29.2781"/>
</g>
<!-- Node16 -->
<g id="node31" class="node"><title>Node16</title>
<polygon fill="white" stroke="#bfbfbf" points="505.5,-7.5 505.5,-28.5 654.5,-28.5 654.5,-7.5 505.5,-7.5"/>
<text text-anchor="middle" x="580" y="-15.5" font-family="Helvetica,sans-Serif" font-size="10.00">osg/PositionAttitudeTransform</text>
</g>
<!-- Node4&#45;&gt;Node16 -->
<g id="edge30" class="edge"><title>Node4&#45;&gt;Node16</title>
<path fill="none" stroke="midnightblue" d="M857.211,-75.3546C810.939,-66.1927 731.261,-50.2857 663,-36 654.997,-34.3251 646.567,-32.5313 638.27,-30.7486"/>
<polygon fill="midnightblue" stroke="midnightblue" points="638.766,-27.2752 628.253,-28.5883 637.29,-34.1179 638.766,-27.2752"/>
</g>
<!-- Node17 -->
<g id="node33" class="node"><title>Node17</title>
<polygon fill="white" stroke="#bfbfbf" points="671.5,-7.5 671.5,-28.5 778.5,-28.5 778.5,-7.5 671.5,-7.5"/>
<text text-anchor="middle" x="725" y="-15.5" font-family="Helvetica,sans-Serif" font-size="10.00">osg/MatrixTransform</text>
</g>
<!-- Node4&#45;&gt;Node17 -->
<g id="edge32" class="edge"><title>Node4&#45;&gt;Node17</title>
<path fill="none" stroke="midnightblue" d="M868.145,-72.412C839.328,-61.458 794.157,-44.2878 762.277,-32.1696"/>
<polygon fill="midnightblue" stroke="midnightblue" points="763.434,-28.8651 752.843,-28.5835 760.947,-35.4083 763.434,-28.8651"/>
</g>
<!-- Node18 -->
<g id="node35" class="node"><title>Node18</title>
<polygon fill="white" stroke="#bfbfbf" points="796,-7.5 796,-28.5 894,-28.5 894,-7.5 796,-7.5"/>
<text text-anchor="middle" x="845" y="-15.5" font-family="Helvetica,sans-Serif" font-size="10.00">osg/BlendEquation</text>
</g>
<!-- Node4&#45;&gt;Node18 -->
<g id="edge34" class="edge"><title>Node4&#45;&gt;Node18</title>
<path fill="none" stroke="midnightblue" d="M887.578,-72.2666C880.003,-62.612 868.707,-48.2145 859.653,-36.675"/>
<polygon fill="midnightblue" stroke="midnightblue" points="862.191,-34.2406 853.265,-28.5337 856.684,-38.5616 862.191,-34.2406"/>
</g>
<!-- Node19 -->
<g id="node37" class="node"><title>Node19</title>
<polygon fill="white" stroke="#bfbfbf" points="912,-7.5 912,-28.5 982,-28.5 982,-7.5 912,-7.5"/>
<text text-anchor="middle" x="947" y="-15.5" font-family="Helvetica,sans-Serif" font-size="10.00">osg/Uniform</text>
</g>
<!-- Node4&#45;&gt;Node19 -->
<g id="edge36" class="edge"><title>Node4&#45;&gt;Node19</title>
<path fill="none" stroke="midnightblue" d="M904.422,-72.2666C911.997,-62.612 923.293,-48.2145 932.347,-36.675"/>
<polygon fill="midnightblue" stroke="midnightblue" points="935.316,-38.5616 938.735,-28.5337 929.809,-34.2406 935.316,-38.5616"/>
</g>
<!-- Node20 -->
<g id="node39" class="node"><title>Node20</title>
<polygon fill="white" stroke="#bfbfbf" points="1000,-7.5 1000,-28.5 1064,-28.5 1064,-7.5 1000,-7.5"/>
<text text-anchor="middle" x="1032" y="-15.5" font-family="Helvetica,sans-Serif" font-size="10.00">osg/Geode</text>
</g>
<!-- Node4&#45;&gt;Node20 -->
<g id="edge38" class="edge"><title>Node4&#45;&gt;Node20</title>
<path fill="none" stroke="midnightblue" d="M918.153,-72.412C940.579,-61.6941 975.455,-45.025 1000.7,-32.9601"/>
<polygon fill="midnightblue" stroke="midnightblue" points="1002.34,-36.0536 1009.86,-28.5835 999.324,-29.7379 1002.34,-36.0536"/>
</g>
<!-- Node21 -->
<g id="node41" class="node"><title>Node21</title>
<polygon fill="white" stroke="#bfbfbf" points="1081.5,-7.5 1081.5,-28.5 1162.5,-28.5 1162.5,-7.5 1081.5,-7.5"/>
<text text-anchor="middle" x="1122" y="-15.5" font-family="Helvetica,sans-Serif" font-size="10.00">osg/Texture2D</text>
</g>
<!-- Node4&#45;&gt;Node21 -->
<g id="edge40" class="edge"><title>Node4&#45;&gt;Node21</title>
<path fill="none" stroke="midnightblue" d="M934.62,-73.8384C970.677,-65.0274 1025.85,-50.8839 1073,-36 1076.99,-34.7415 1081.13,-33.3522 1085.24,-31.9201"/>
<polygon fill="midnightblue" stroke="midnightblue" points="1086.45,-35.2048 1094.68,-28.542 1084.09,-28.6136 1086.45,-35.2048"/>
</g>
</g>
</svg>
