<?xml version="1.0" encoding="UTF-8" standalone="no"?>
<!DOCTYPE svg PUBLIC "-//W3C//DTD SVG 1.1//EN"
 "http://www.w3.org/Graphics/SVG/1.1/DTD/svg11.dtd">
<!-- Generated by graphviz version 2.26.3 (20100126.1600)
 -->
<!-- Title: /home/kavonszadkowski/limes&#45;dev/simulation/mars/graphics/src/2d_objects/HUDNode.cpp Pages: 1 -->
<svg width="174pt" height="186pt"
 viewBox="0.00 0.00 174.00 186.00" xmlns="http://www.w3.org/2000/svg" xmlns:xlink="http://www.w3.org/1999/xlink">
<g id="graph1" class="graph" transform="scale(1 1) rotate(0) translate(4 182)">
<title>/home/kavonszadkowski/limes&#45;dev/simulation/mars/graphics/src/2d_objects/HUDNode.cpp</title>
<polygon fill="white" stroke="white" points="-4,5 -4,-182 171,-182 171,5 -4,5"/>
<!-- Node1 -->
<g id="node1" class="node"><title>Node1</title>
<polygon fill="#bfbfbf" stroke="black" points="22.5,-117 22.5,-177 147.5,-177 147.5,-117 22.5,-117"/>
<text text-anchor="start" x="30.5" y="-164" font-family="Helvetica,sans-Serif" font-size="10.00">/home/kavonszadkowski</text>
<text text-anchor="start" x="30.5" y="-151" font-family="Helvetica,sans-Serif" font-size="10.00">/limes&#45;dev/simulation</text>
<text text-anchor="start" x="30.5" y="-138" font-family="Helvetica,sans-Serif" font-size="10.00">/mars/graphics/src/2d</text>
<text text-anchor="middle" x="85" y="-125" font-family="Helvetica,sans-Serif" font-size="10.00">_objects/HUDNode.cpp</text>
</g>
<!-- Node2 -->
<g id="node3" class="node"><title>Node2</title>
<a xlink:href="../../d5/d1b/_h_u_d_node_8h.html" target="_top" xlink:title="HUDNode.h">
<polygon fill="white" stroke="black" points="49.5,-58.5 49.5,-79.5 120.5,-79.5 120.5,-58.5 49.5,-58.5"/>
<text text-anchor="middle" x="85" y="-66.5" font-family="Helvetica,sans-Serif" font-size="10.00">HUDNode.h</text>
</a>
</g>
<!-- Node1&#45;&gt;Node2 -->
<g id="edge2" class="edge"><title>Node1&#45;&gt;Node2</title>
<path fill="none" stroke="midnightblue" d="M85,-116.62C85,-107.68 85,-98.1035 85,-89.9002"/>
<polygon fill="midnightblue" stroke="midnightblue" points="88.5001,-89.7534 85,-79.7535 81.5001,-89.7535 88.5001,-89.7534"/>
</g>
<!-- Node3 -->
<g id="node5" class="node"><title>Node3</title>
<polygon fill="white" stroke="#bfbfbf" points="0,-0.5 0,-21.5 78,-21.5 78,-0.5 0,-0.5"/>
<text text-anchor="middle" x="39" y="-8.5" font-family="Helvetica,sans-Serif" font-size="10.00">osg/Geometry</text>
</g>
<!-- Node2&#45;&gt;Node3 -->
<g id="edge4" class="edge"><title>Node2&#45;&gt;Node3</title>
<path fill="none" stroke="midnightblue" d="M76.5629,-58.3619C70.2083,-50.3496 61.3342,-39.1605 53.8069,-29.6696"/>
<polygon fill="midnightblue" stroke="midnightblue" points="56.3399,-27.2308 47.3836,-21.5707 50.8554,-31.5805 56.3399,-27.2308"/>
</g>
<!-- Node4 -->
<g id="node7" class="node"><title>Node4</title>
<polygon fill="white" stroke="#bfbfbf" points="96,-0.5 96,-21.5 166,-21.5 166,-0.5 96,-0.5"/>
<text text-anchor="middle" x="131" y="-8.5" font-family="Helvetica,sans-Serif" font-size="10.00">osg/Camera</text>
</g>
<!-- Node2&#45;&gt;Node4 -->
<g id="edge6" class="edge"><title>Node2&#45;&gt;Node4</title>
<path fill="none" stroke="midnightblue" d="M93.4371,-58.3619C99.7917,-50.3496 108.666,-39.1605 116.193,-29.6696"/>
<polygon fill="midnightblue" stroke="midnightblue" points="119.145,-31.5805 122.616,-21.5707 113.66,-27.2308 119.145,-31.5805"/>
</g>
</g>
</svg>
