<?xml version="1.0" encoding="UTF-8" standalone="no"?>
<!DOCTYPE svg PUBLIC "-//W3C//DTD SVG 1.1//EN"
 "http://www.w3.org/Graphics/SVG/1.1/DTD/svg11.dtd">
<!-- Generated by graphviz version 2.26.3 (20100126.1600)
 -->
<!-- Title: /home/kavonszadkowski/limes&#45;dev/simulation/mars/common/data_broker/src/DataItem.h Pages: 1 -->
<svg width="557pt" height="462pt"
 viewBox="0.00 0.00 557.00 462.00" xmlns="http://www.w3.org/2000/svg" xmlns:xlink="http://www.w3.org/1999/xlink">
<g id="graph1" class="graph" transform="scale(1 1) rotate(0) translate(4 458)">
<title>/home/kavonszadkowski/limes&#45;dev/simulation/mars/common/data_broker/src/DataItem.h</title>
<polygon fill="white" stroke="white" points="-4,5 -4,-458 554,-458 554,5 -4,5"/>
<!-- Node1 -->
<g id="node1" class="node"><title>Node1</title>
<polygon fill="#bfbfbf" stroke="black" points="96,-393 96,-453 232,-453 232,-393 96,-393"/>
<text text-anchor="start" x="104" y="-440" font-family="Helvetica,sans-Serif" font-size="10.00">/home/kavonszadkowski</text>
<text text-anchor="start" x="104" y="-427" font-family="Helvetica,sans-Serif" font-size="10.00">/limes&#45;dev/simulation</text>
<text text-anchor="start" x="104" y="-414" font-family="Helvetica,sans-Serif" font-size="10.00">/mars/common/data_broker</text>
<text text-anchor="middle" x="164" y="-401" font-family="Helvetica,sans-Serif" font-size="10.00">/src/DataItem.h</text>
</g>
<!-- Node2 -->
<g id="node3" class="node"><title>Node2</title>
<a xlink:href="../../dd/dc5/_data_package_8h.html" target="_top" xlink:title="/home/kavonszadkowski\l/limes&#45;dev/simulation\l/mars/common/data_broker\l/src/DataPackage.h">
<polygon fill="white" stroke="black" points="96,-295 96,-355 232,-355 232,-295 96,-295"/>
<text text-anchor="start" x="104" y="-342" font-family="Helvetica,sans-Serif" font-size="10.00">/home/kavonszadkowski</text>
<text text-anchor="start" x="104" y="-329" font-family="Helvetica,sans-Serif" font-size="10.00">/limes&#45;dev/simulation</text>
<text text-anchor="start" x="104" y="-316" font-family="Helvetica,sans-Serif" font-size="10.00">/mars/common/data_broker</text>
<text text-anchor="middle" x="164" y="-303" font-family="Helvetica,sans-Serif" font-size="10.00">/src/DataPackage.h</text>
</a>
</g>
<!-- Node1&#45;&gt;Node2 -->
<g id="edge2" class="edge"><title>Node1&#45;&gt;Node2</title>
<path fill="none" stroke="midnightblue" d="M164,-382.696C164,-373.527 164,-363.939 164,-355.272"/>
<polygon fill="midnightblue" stroke="midnightblue" points="160.5,-382.797 164,-392.797 167.5,-382.797 160.5,-382.797"/>
</g>
<!-- Node4 -->
<g id="node7" class="node"><title>Node4</title>
<a xlink:href="../../d8/daf/_data_broker_8h.html" target="_top" xlink:title="DataBroker A small library to manage data communication within a software framework. ">
<polygon fill="white" stroke="black" points="0,-99 0,-159 136,-159 136,-99 0,-99"/>
<text text-anchor="start" x="8" y="-146" font-family="Helvetica,sans-Serif" font-size="10.00">/home/kavonszadkowski</text>
<text text-anchor="start" x="8" y="-133" font-family="Helvetica,sans-Serif" font-size="10.00">/limes&#45;dev/simulation</text>
<text text-anchor="start" x="8" y="-120" font-family="Helvetica,sans-Serif" font-size="10.00">/mars/common/data_broker</text>
<text text-anchor="middle" x="68" y="-107" font-family="Helvetica,sans-Serif" font-size="10.00">/src/DataBroker.h</text>
</a>
</g>
<!-- Node1&#45;&gt;Node4 -->
<g id="edge18" class="edge"><title>Node1&#45;&gt;Node4</title>
<path fill="none" stroke="midnightblue" d="M111.815,-385.878C102.36,-377.042 93.4643,-366.96 87,-356 50.3323,-293.834 56.2887,-204.939 62.7315,-159.018"/>
<polygon fill="midnightblue" stroke="midnightblue" points="109.681,-388.664 119.481,-392.689 114.33,-383.431 109.681,-388.664"/>
</g>
<!-- Node9 -->
<g id="node19" class="node"><title>Node9</title>
<a xlink:href="../../de/d83/_data_item_8cpp.html" target="_top" xlink:title="/home/kavonszadkowski\l/limes&#45;dev/simulation\l/mars/common/data_broker\l/src/DataItem.cpp">
<polygon fill="white" stroke="black" points="250,-295 250,-355 386,-355 386,-295 250,-295"/>
<text text-anchor="start" x="258" y="-342" font-family="Helvetica,sans-Serif" font-size="10.00">/home/kavonszadkowski</text>
<text text-anchor="start" x="258" y="-329" font-family="Helvetica,sans-Serif" font-size="10.00">/limes&#45;dev/simulation</text>
<text text-anchor="start" x="258" y="-316" font-family="Helvetica,sans-Serif" font-size="10.00">/mars/common/data_broker</text>
<text text-anchor="middle" x="318" y="-303" font-family="Helvetica,sans-Serif" font-size="10.00">/src/DataItem.cpp</text>
</a>
</g>
<!-- Node1&#45;&gt;Node9 -->
<g id="edge20" class="edge"><title>Node1&#45;&gt;Node9</title>
<path fill="none" stroke="midnightblue" d="M220.01,-387.358C236.637,-376.776 254.678,-365.296 270.695,-355.103"/>
<polygon fill="midnightblue" stroke="midnightblue" points="218.019,-384.475 211.462,-392.797 221.777,-390.381 218.019,-384.475"/>
</g>
<!-- Node3 -->
<g id="node5" class="node"><title>Node3</title>
<a xlink:href="../../dc/d63/_data_broker_interface_8h.html" target="_top" xlink:title="DataBroker A small library to manage data communication within a software framework. ">
<polygon fill="white" stroke="black" points="96,-197 96,-257 232,-257 232,-197 96,-197"/>
<text text-anchor="start" x="104" y="-244" font-family="Helvetica,sans-Serif" font-size="10.00">/home/kavonszadkowski</text>
<text text-anchor="start" x="104" y="-231" font-family="Helvetica,sans-Serif" font-size="10.00">/limes&#45;dev/simulation</text>
<text text-anchor="start" x="104" y="-218" font-family="Helvetica,sans-Serif" font-size="10.00">/mars/common/data_broker</text>
<text text-anchor="middle" x="164" y="-205" font-family="Helvetica,sans-Serif" font-size="10.00">/src/DataBrokerInterface.h</text>
</a>
</g>
<!-- Node2&#45;&gt;Node3 -->
<g id="edge4" class="edge"><title>Node2&#45;&gt;Node3</title>
<path fill="none" stroke="midnightblue" d="M164,-284.696C164,-275.527 164,-265.939 164,-257.272"/>
<polygon fill="midnightblue" stroke="midnightblue" points="160.5,-284.797 164,-294.797 167.5,-284.797 160.5,-284.797"/>
</g>
<!-- Node2&#45;&gt;Node4 -->
<g id="edge10" class="edge"><title>Node2&#45;&gt;Node4</title>
<path fill="none" stroke="midnightblue" d="M110.948,-287.902C101.652,-279.112 93.0385,-269.041 87,-258 70.163,-227.215 66.7493,-186.419 66.6764,-159.019"/>
<polygon fill="midnightblue" stroke="midnightblue" points="108.726,-290.611 118.512,-294.67 113.394,-285.394 108.726,-290.611"/>
</g>
<!-- Node6 -->
<g id="node12" class="node"><title>Node6</title>
<a xlink:href="../../da/db4/_data_package_8cpp.html" target="_top" xlink:title="/home/kavonszadkowski\l/limes&#45;dev/simulation\l/mars/common/data_broker\l/src/DataPackage.cpp">
<polygon fill="white" stroke="black" points="250,-197 250,-257 386,-257 386,-197 250,-197"/>
<text text-anchor="start" x="258" y="-244" font-family="Helvetica,sans-Serif" font-size="10.00">/home/kavonszadkowski</text>
<text text-anchor="start" x="258" y="-231" font-family="Helvetica,sans-Serif" font-size="10.00">/limes&#45;dev/simulation</text>
<text text-anchor="start" x="258" y="-218" font-family="Helvetica,sans-Serif" font-size="10.00">/mars/common/data_broker</text>
<text text-anchor="middle" x="318" y="-205" font-family="Helvetica,sans-Serif" font-size="10.00">/src/DataPackage.cpp</text>
</a>
</g>
<!-- Node2&#45;&gt;Node6 -->
<g id="edge12" class="edge"><title>Node2&#45;&gt;Node6</title>
<path fill="none" stroke="midnightblue" d="M220.01,-289.358C236.637,-278.776 254.678,-267.296 270.695,-257.103"/>
<polygon fill="midnightblue" stroke="midnightblue" points="218.019,-286.475 211.462,-294.797 221.777,-292.381 218.019,-286.475"/>
</g>
<!-- Node7 -->
<g id="node14" class="node"><title>Node7</title>
<a xlink:href="../../d6/dda/_data_package_mapping_8h.html" target="_top" xlink:title="/home/kavonszadkowski\l/limes&#45;dev/simulation\l/mars/common/data_broker\l/src/DataPackageMapping.h">
<polygon fill="white" stroke="black" points="404,-197 404,-257 544,-257 544,-197 404,-197"/>
<text text-anchor="start" x="412" y="-244" font-family="Helvetica,sans-Serif" font-size="10.00">/home/kavonszadkowski</text>
<text text-anchor="start" x="412" y="-231" font-family="Helvetica,sans-Serif" font-size="10.00">/limes&#45;dev/simulation</text>
<text text-anchor="start" x="412" y="-218" font-family="Helvetica,sans-Serif" font-size="10.00">/mars/common/data_broker</text>
<text text-anchor="middle" x="474" y="-205" font-family="Helvetica,sans-Serif" font-size="10.00">/src/DataPackageMapping.h</text>
</a>
</g>
<!-- Node2&#45;&gt;Node7 -->
<g id="edge14" class="edge"><title>Node2&#45;&gt;Node7</title>
<path fill="none" stroke="midnightblue" d="M242.12,-293.829C309.901,-273.304 330.902,-277.954 395,-258 397.954,-257.08 400.955,-256.103 403.976,-255.084"/>
<polygon fill="midnightblue" stroke="midnightblue" points="240.749,-290.59 232.236,-296.898 242.824,-297.275 240.749,-290.59"/>
</g>
<!-- Node3&#45;&gt;Node4 -->
<g id="edge6" class="edge"><title>Node3&#45;&gt;Node4</title>
<path fill="none" stroke="midnightblue" d="M127.399,-189.637C117.567,-179.6 107.058,-168.871 97.6541,-159.272"/>
<polygon fill="midnightblue" stroke="midnightblue" points="124.915,-192.103 134.414,-196.797 129.916,-187.204 124.915,-192.103"/>
</g>
<!-- Node5 -->
<g id="node9" class="node"><title>Node5</title>
<a xlink:href="../../d4/ddc/_data_broker_8cpp.html" target="_top" xlink:title="/home/kavonszadkowski\l/limes&#45;dev/simulation\l/mars/common/data_broker\l/src/DataBroker.cpp">
<polygon fill="white" stroke="black" points="0,-1 0,-61 136,-61 136,-1 0,-1"/>
<text text-anchor="start" x="8" y="-48" font-family="Helvetica,sans-Serif" font-size="10.00">/home/kavonszadkowski</text>
<text text-anchor="start" x="8" y="-35" font-family="Helvetica,sans-Serif" font-size="10.00">/limes&#45;dev/simulation</text>
<text text-anchor="start" x="8" y="-22" font-family="Helvetica,sans-Serif" font-size="10.00">/mars/common/data_broker</text>
<text text-anchor="middle" x="68" y="-9" font-family="Helvetica,sans-Serif" font-size="10.00">/src/DataBroker.cpp</text>
</a>
</g>
<!-- Node4&#45;&gt;Node5 -->
<g id="edge8" class="edge"><title>Node4&#45;&gt;Node5</title>
<path fill="none" stroke="midnightblue" d="M68,-88.6956C68,-79.5273 68,-69.9394 68,-61.2718"/>
<polygon fill="midnightblue" stroke="midnightblue" points="64.5001,-88.7971 68,-98.7971 71.5001,-88.7972 64.5001,-88.7971"/>
</g>
<!-- Node8 -->
<g id="node16" class="node"><title>Node8</title>
<a xlink:href="../../db/d27/_data_package_mapping_8cpp.html" target="_top" xlink:title="/home/kavonszadkowski\l/limes&#45;dev/simulation\l/mars/common/data_broker\l/src/DataPackageMapping.cpp">
<polygon fill="white" stroke="black" points="398.5,-99 398.5,-159 549.5,-159 549.5,-99 398.5,-99"/>
<text text-anchor="start" x="406.5" y="-146" font-family="Helvetica,sans-Serif" font-size="10.00">/home/kavonszadkowski</text>
<text text-anchor="start" x="406.5" y="-133" font-family="Helvetica,sans-Serif" font-size="10.00">/limes&#45;dev/simulation</text>
<text text-anchor="start" x="406.5" y="-120" font-family="Helvetica,sans-Serif" font-size="10.00">/mars/common/data_broker</text>
<text text-anchor="middle" x="474" y="-107" font-family="Helvetica,sans-Serif" font-size="10.00">/src/DataPackageMapping.cpp</text>
</a>
</g>
<!-- Node7&#45;&gt;Node8 -->
<g id="edge16" class="edge"><title>Node7&#45;&gt;Node8</title>
<path fill="none" stroke="midnightblue" d="M474,-186.696C474,-177.527 474,-167.939 474,-159.272"/>
<polygon fill="midnightblue" stroke="midnightblue" points="470.5,-186.797 474,-196.797 477.5,-186.797 470.5,-186.797"/>
</g>
</g>
</svg>
