<?xml version="1.0" encoding="UTF-8" standalone="no"?>
<!DOCTYPE svg PUBLIC "-//W3C//DTD SVG 1.1//EN"
 "http://www.w3.org/Graphics/SVG/1.1/DTD/svg11.dtd">
<!-- Generated by graphviz version 2.26.3 (20100126.1600)
 -->
<!-- Title: mars::interfaces::BaseArraySensor&lt; T &gt; Pages: 1 -->
<svg width="158pt" height="116pt"
 viewBox="0.00 0.00 158.00 116.00" xmlns="http://www.w3.org/2000/svg" xmlns:xlink="http://www.w3.org/1999/xlink">
<g id="graph1" class="graph" transform="scale(1 1) rotate(0) translate(4 112)">
<title>mars::interfaces::BaseArraySensor&lt; T &gt;</title>
<polygon fill="white" stroke="white" points="-4,5 -4,-112 155,-112 155,5 -4,5"/>
<!-- Node1 -->
<g id="node1" class="node"><title>Node1</title>
<polygon fill="#bfbfbf" stroke="black" points="5.5,-73 5.5,-107 144.5,-107 144.5,-73 5.5,-73"/>
<text text-anchor="start" x="13.5" y="-94" font-family="Helvetica,sans-Serif" font-size="10.00">mars::interfaces::BaseArray</text>
<text text-anchor="middle" x="75" y="-81" font-family="Helvetica,sans-Serif" font-size="10.00">Sensor&lt; T &gt;</text>
</g>
<!-- Node2 -->
<g id="node3" class="node"><title>Node2</title>
<a xlink:href="../../d2/d04/classmars_1_1interfaces_1_1_base_camera_sensor.html" target="_top" xlink:title="mars::interfaces::BaseCamera\lSensor\&lt; T \&gt;">
<polygon fill="white" stroke="black" points="0,-1 0,-35 150,-35 150,-1 0,-1"/>
<text text-anchor="start" x="8" y="-22" font-family="Helvetica,sans-Serif" font-size="10.00">mars::interfaces::BaseCamera</text>
<text text-anchor="middle" x="75" y="-9" font-family="Helvetica,sans-Serif" font-size="10.00">Sensor&lt; T &gt;</text>
</a>
</g>
<!-- Node1&#45;&gt;Node2 -->
<g id="edge2" class="edge"><title>Node1&#45;&gt;Node2</title>
<path fill="none" stroke="midnightblue" d="M75,-62.7193C75,-53.572 75,-43.6255 75,-35.4407"/>
<polygon fill="midnightblue" stroke="midnightblue" points="71.5001,-62.937 75,-72.937 78.5001,-62.937 71.5001,-62.937"/>
</g>
</g>
</svg>
