<?xml version="1.0" encoding="UTF-8" standalone="no"?>
<!DOCTYPE svg PUBLIC "-//W3C//DTD SVG 1.1//EN"
 "http://www.w3.org/Graphics/SVG/1.1/DTD/svg11.dtd">
<!-- Generated by graphviz version 2.26.3 (20100126.1600)
 -->
<!-- Title: /home/kavonszadkowski/limes&#45;dev/simulation/mars/graphics/src/wrapper/OSGHudElementStruct.cpp Pages: 1 -->
<svg width="843pt" height="258pt"
 viewBox="0.00 0.00 843.00 258.00" xmlns="http://www.w3.org/2000/svg" xmlns:xlink="http://www.w3.org/1999/xlink">
<g id="graph1" class="graph" transform="scale(1 1) rotate(0) translate(4 254)">
<title>/home/kavonszadkowski/limes&#45;dev/simulation/mars/graphics/src/wrapper/OSGHudElementStruct.cpp</title>
<polygon fill="white" stroke="white" points="-4,5 -4,-254 840,-254 840,5 -4,5"/>
<!-- Node1 -->
<g id="node1" class="node"><title>Node1</title>
<polygon fill="#bfbfbf" stroke="black" points="377,-189 377,-249 517,-249 517,-189 377,-189"/>
<text text-anchor="start" x="385" y="-236" font-family="Helvetica,sans-Serif" font-size="10.00">/home/kavonszadkowski</text>
<text text-anchor="start" x="385" y="-223" font-family="Helvetica,sans-Serif" font-size="10.00">/limes&#45;dev/simulation</text>
<text text-anchor="start" x="385" y="-210" font-family="Helvetica,sans-Serif" font-size="10.00">/mars/graphics/src/wrapper</text>
<text text-anchor="middle" x="447" y="-197" font-family="Helvetica,sans-Serif" font-size="10.00">/OSGHudElementStruct.cpp</text>
</g>
<!-- Node2 -->
<g id="node3" class="node"><title>Node2</title>
<a xlink:href="../../da/d34/_o_s_g_hud_element_struct_8h.html" target="_top" xlink:title="OSGHudElementStruct.h">
<polygon fill="white" stroke="black" points="84.5,-130.5 84.5,-151.5 211.5,-151.5 211.5,-130.5 84.5,-130.5"/>
<text text-anchor="middle" x="148" y="-138.5" font-family="Helvetica,sans-Serif" font-size="10.00">OSGHudElementStruct.h</text>
</a>
</g>
<!-- Node1&#45;&gt;Node2 -->
<g id="edge2" class="edge"><title>Node1&#45;&gt;Node2</title>
<path fill="none" stroke="midnightblue" d="M376.898,-200.712C321.994,-186.39 246.962,-166.816 198.004,-154.044"/>
<polygon fill="midnightblue" stroke="midnightblue" points="198.831,-150.643 188.271,-151.505 197.064,-157.416 198.831,-150.643"/>
</g>
<!-- Node7 -->
<g id="node15" class="node"><title>Node7</title>
<a xlink:href="../../d2/d1c/_h_u_d_label_8h.html" target="_top" xlink:title="The &quot;HUDLabel&quot;. ">
<polygon fill="white" stroke="black" points="229,-130.5 229,-151.5 359,-151.5 359,-130.5 229,-130.5"/>
<text text-anchor="middle" x="294" y="-138.5" font-family="Helvetica,sans-Serif" font-size="10.00">../2d_objects/HUDLabel.h</text>
</a>
</g>
<!-- Node1&#45;&gt;Node7 -->
<g id="edge16" class="edge"><title>Node1&#45;&gt;Node7</title>
<path fill="none" stroke="midnightblue" d="M387.846,-188.843C365.934,-177.672 342.018,-165.48 323.813,-156.199"/>
<polygon fill="midnightblue" stroke="midnightblue" points="325.353,-153.055 314.855,-151.632 322.174,-159.292 325.353,-153.055"/>
</g>
<!-- Node10 -->
<g id="node23" class="node"><title>Node10</title>
<a xlink:href="../../d6/d6e/_h_u_d_lines_8h.html" target="_top" xlink:title="The &quot;HUDLines&quot;. ">
<polygon fill="white" stroke="black" points="705,-130.5 705,-151.5 835,-151.5 835,-130.5 705,-130.5"/>
<text text-anchor="middle" x="770" y="-138.5" font-family="Helvetica,sans-Serif" font-size="10.00">../2d_objects/HUDLines.h</text>
</a>
</g>
<!-- Node1&#45;&gt;Node10 -->
<g id="edge26" class="edge"><title>Node1&#45;&gt;Node10</title>
<path fill="none" stroke="midnightblue" d="M517.086,-202.075C576.998,-187.607 661.935,-167.096 716.503,-153.919"/>
<polygon fill="midnightblue" stroke="midnightblue" points="717.427,-157.296 726.326,-151.547 715.784,-150.492 717.427,-157.296"/>
</g>
<!-- Node12 -->
<g id="node30" class="node"><title>Node12</title>
<a xlink:href="../../de/d80/_h_u_d_texture_8h.html" target="_top" xlink:title="The &quot;HUDTexture&quot;. ">
<polygon fill="white" stroke="black" points="377,-130.5 377,-151.5 517,-151.5 517,-130.5 377,-130.5"/>
<text text-anchor="middle" x="447" y="-138.5" font-family="Helvetica,sans-Serif" font-size="10.00">../2d_objects/HUDTexture.h</text>
</a>
</g>
<!-- Node1&#45;&gt;Node12 -->
<g id="edge36" class="edge"><title>Node1&#45;&gt;Node12</title>
<path fill="none" stroke="midnightblue" d="M447,-188.62C447,-179.68 447,-170.103 447,-161.9"/>
<polygon fill="midnightblue" stroke="midnightblue" points="450.5,-161.753 447,-151.753 443.5,-161.753 450.5,-161.753"/>
</g>
<!-- Node13 -->
<g id="node34" class="node"><title>Node13</title>
<a xlink:href="../../d6/dca/_h_u_d_o_s_g_node_8h.html" target="_top" xlink:title="The &quot;HUDOSGNode&quot;. ">
<polygon fill="white" stroke="black" points="535,-130.5 535,-151.5 687,-151.5 687,-130.5 535,-130.5"/>
<text text-anchor="middle" x="611" y="-138.5" font-family="Helvetica,sans-Serif" font-size="10.00">../2d_objects/HUDOSGNode.h</text>
</a>
</g>
<!-- Node1&#45;&gt;Node13 -->
<g id="edge42" class="edge"><title>Node1&#45;&gt;Node13</title>
<path fill="none" stroke="midnightblue" d="M510.407,-188.843C534.11,-177.57 560,-165.256 579.579,-155.944"/>
<polygon fill="midnightblue" stroke="midnightblue" points="581.119,-159.088 588.646,-151.632 578.112,-152.766 581.119,-159.088"/>
</g>
<!-- Node3 -->
<g id="node5" class="node"><title>Node3</title>
<a xlink:href="../../dc/d75/_h_u_d_element_8h.html" target="_top" xlink:title="The &quot;HUDElement&quot;. ">
<polygon fill="white" stroke="black" points="347.5,-65.5 347.5,-86.5 490.5,-86.5 490.5,-65.5 347.5,-65.5"/>
<text text-anchor="middle" x="419" y="-73.5" font-family="Helvetica,sans-Serif" font-size="10.00">../2d_objects/HUDElement.h</text>
</a>
</g>
<!-- Node2&#45;&gt;Node3 -->
<g id="edge4" class="edge"><title>Node2&#45;&gt;Node3</title>
<path fill="none" stroke="midnightblue" d="M191.842,-130.484C239.17,-119.133 314.584,-101.044 365.401,-88.8558"/>
<polygon fill="midnightblue" stroke="midnightblue" points="366.313,-92.2364 375.221,-86.5005 364.68,-85.4295 366.313,-92.2364"/>
</g>
<!-- Node4 -->
<g id="node7" class="node"><title>Node4</title>
<polygon fill="white" stroke="#bfbfbf" points="220,-0.5 220,-21.5 282,-21.5 282,-0.5 220,-0.5"/>
<text text-anchor="middle" x="251" y="-8.5" font-family="Helvetica,sans-Serif" font-size="10.00">osg/Group</text>
</g>
<!-- Node2&#45;&gt;Node4 -->
<g id="edge14" class="edge"><title>Node2&#45;&gt;Node4</title>
<path fill="none" stroke="midnightblue" d="M149.244,-130.484C151.709,-113.595 158.569,-80.0838 176,-58 186.543,-44.6425 201.999,-34.0464 216.145,-26.3222"/>
<polygon fill="midnightblue" stroke="midnightblue" points="217.902,-29.3541 225.187,-21.6609 214.695,-23.1322 217.902,-29.3541"/>
</g>
<!-- Node5 -->
<g id="node9" class="node"><title>Node5</title>
<polygon fill="white" stroke="#bfbfbf" points="398.5,-0.5 398.5,-21.5 439.5,-21.5 439.5,-0.5 398.5,-0.5"/>
<text text-anchor="middle" x="419" y="-8.5" font-family="Helvetica,sans-Serif" font-size="10.00">string</text>
</g>
<!-- Node2&#45;&gt;Node5 -->
<g id="edge12" class="edge"><title>Node2&#45;&gt;Node5</title>
<path fill="none" stroke="midnightblue" d="M154.445,-130.422C166.934,-110.26 194.477,-67.4858 209,-58 238.348,-38.831 337.507,-22.5107 388.362,-15.1625"/>
<polygon fill="midnightblue" stroke="midnightblue" points="389.029,-18.603 398.439,-13.7329 388.046,-11.6724 389.029,-18.603"/>
</g>
<!-- Node6 -->
<g id="node11" class="node"><title>Node6</title>
<polygon fill="white" stroke="#bfbfbf" points="0,-59 0,-93 124,-93 124,-59 0,-59"/>
<text text-anchor="start" x="8" y="-80" font-family="Helvetica,sans-Serif" font-size="10.00">mars/interfaces/graphics</text>
<text text-anchor="middle" x="62" y="-67" font-family="Helvetica,sans-Serif" font-size="10.00">/draw_structs.h</text>
</g>
<!-- Node2&#45;&gt;Node6 -->
<g id="edge10" class="edge"><title>Node2&#45;&gt;Node6</title>
<path fill="none" stroke="midnightblue" d="M133.799,-130.267C122.632,-121.827 106.67,-109.762 92.6308,-99.1512"/>
<polygon fill="midnightblue" stroke="midnightblue" points="94.7257,-96.3473 84.6377,-93.1099 90.505,-101.932 94.7257,-96.3473"/>
</g>
<!-- Node3&#45;&gt;Node4 -->
<g id="edge6" class="edge"><title>Node3&#45;&gt;Node4</title>
<path fill="none" stroke="midnightblue" d="M391.634,-65.412C363.444,-54.5052 319.326,-37.4357 288.029,-25.3266"/>
<polygon fill="midnightblue" stroke="midnightblue" points="288.944,-21.9277 278.354,-21.5835 286.418,-28.4562 288.944,-21.9277"/>
</g>
<!-- Node3&#45;&gt;Node5 -->
<g id="edge8" class="edge"><title>Node3&#45;&gt;Node5</title>
<path fill="none" stroke="midnightblue" d="M419,-65.2666C419,-56.1799 419,-42.8919 419,-31.7395"/>
<polygon fill="midnightblue" stroke="midnightblue" points="422.5,-31.5337 419,-21.5337 415.5,-31.5337 422.5,-31.5337"/>
</g>
<!-- Node7&#45;&gt;Node3 -->
<g id="edge18" class="edge"><title>Node7&#45;&gt;Node3</title>
<path fill="none" stroke="midnightblue" d="M314.362,-130.412C334.791,-119.788 366.465,-103.318 389.615,-91.28"/>
<polygon fill="midnightblue" stroke="midnightblue" points="391.39,-94.3023 398.647,-86.5835 388.16,-88.0918 391.39,-94.3023"/>
</g>
<!-- Node7&#45;&gt;Node5 -->
<g id="edge24" class="edge"><title>Node7&#45;&gt;Node5</title>
<path fill="none" stroke="midnightblue" d="M297.602,-130.421C303.812,-113.442 317.929,-79.8075 339,-58 353.129,-43.3774 372.774,-31.7481 389.061,-23.7154"/>
<polygon fill="midnightblue" stroke="midnightblue" points="390.644,-26.8383 398.195,-19.406 387.658,-20.5074 390.644,-26.8383"/>
</g>
<!-- Node8 -->
<g id="node18" class="node"><title>Node8</title>
<polygon fill="white" stroke="#bfbfbf" points="507.5,-65.5 507.5,-86.5 614.5,-86.5 614.5,-65.5 507.5,-65.5"/>
<text text-anchor="middle" x="561" y="-73.5" font-family="Helvetica,sans-Serif" font-size="10.00">osg/MatrixTransform</text>
</g>
<!-- Node7&#45;&gt;Node8 -->
<g id="edge20" class="edge"><title>Node7&#45;&gt;Node8</title>
<path fill="none" stroke="midnightblue" d="M343.484,-130.486C385.125,-121.44 446.163,-107.715 499,-94 504.63,-92.5388 510.524,-90.9303 516.345,-89.2944"/>
<polygon fill="midnightblue" stroke="midnightblue" points="517.356,-92.6457 526.012,-86.5366 515.436,-85.9143 517.356,-92.6457"/>
</g>
<!-- Node9 -->
<g id="node20" class="node"><title>Node9</title>
<polygon fill="white" stroke="#bfbfbf" points="218,-65.5 218,-86.5 292,-86.5 292,-65.5 218,-65.5"/>
<text text-anchor="middle" x="255" y="-73.5" font-family="Helvetica,sans-Serif" font-size="10.00">osgText/Text</text>
</g>
<!-- Node7&#45;&gt;Node9 -->
<g id="edge22" class="edge"><title>Node7&#45;&gt;Node9</title>
<path fill="none" stroke="midnightblue" d="M287.56,-130.267C281.881,-120.801 273.466,-106.777 266.614,-95.3571"/>
<polygon fill="midnightblue" stroke="midnightblue" points="269.466,-93.3079 261.32,-86.5337 263.464,-96.9094 269.466,-93.3079"/>
</g>
<!-- Node10&#45;&gt;Node3 -->
<g id="edge28" class="edge"><title>Node10&#45;&gt;Node3</title>
<path fill="none" stroke="midnightblue" d="M704.946,-130.647C649.945,-121.672 569.131,-107.962 499,-94 490.96,-92.3993 482.489,-90.6079 474.188,-88.7927"/>
<polygon fill="midnightblue" stroke="midnightblue" points="474.707,-85.3229 464.187,-86.5778 473.193,-92.1573 474.707,-85.3229"/>
</g>
<!-- Node10&#45;&gt;Node5 -->
<g id="edge32" class="edge"><title>Node10&#45;&gt;Node5</title>
<path fill="none" stroke="midnightblue" d="M768.287,-130.329C764.782,-112.265 754.999,-75.8878 731,-58 686.913,-25.1395 520.094,-14.9137 450.154,-12.0306"/>
<polygon fill="midnightblue" stroke="midnightblue" points="449.923,-8.51913 439.795,-11.6286 449.651,-15.5139 449.923,-8.51913"/>
</g>
<!-- Node10&#45;&gt;Node8 -->
<g id="edge30" class="edge"><title>Node10&#45;&gt;Node8</title>
<path fill="none" stroke="midnightblue" d="M735.955,-130.412C700.279,-119.316 644.094,-101.843 605.057,-89.7021"/>
<polygon fill="midnightblue" stroke="midnightblue" points="605.618,-86.2112 595.03,-86.5835 603.539,-92.8954 605.618,-86.2112"/>
</g>
<!-- Node11 -->
<g id="node28" class="node"><title>Node11</title>
<polygon fill="white" stroke="#bfbfbf" points="678,-65.5 678,-86.5 722,-86.5 722,-65.5 678,-65.5"/>
<text text-anchor="middle" x="700" y="-73.5" font-family="Helvetica,sans-Serif" font-size="10.00">vector</text>
</g>
<!-- Node10&#45;&gt;Node11 -->
<g id="edge34" class="edge"><title>Node10&#45;&gt;Node11</title>
<path fill="none" stroke="midnightblue" d="M758.441,-130.267C747.738,-120.328 731.622,-105.363 719.023,-93.6645"/>
<polygon fill="midnightblue" stroke="midnightblue" points="721.054,-90.7735 711.344,-86.5337 716.29,-95.903 721.054,-90.7735"/>
</g>
<!-- Node12&#45;&gt;Node3 -->
<g id="edge38" class="edge"><title>Node12&#45;&gt;Node3</title>
<path fill="none" stroke="midnightblue" d="M442.376,-130.267C438.381,-120.991 432.499,-107.336 427.635,-96.0453"/>
<polygon fill="midnightblue" stroke="midnightblue" points="430.708,-94.3331 423.538,-86.5337 424.279,-97.1025 430.708,-94.3331"/>
</g>
<!-- Node12&#45;&gt;Node8 -->
<g id="edge40" class="edge"><title>Node12&#45;&gt;Node8</title>
<path fill="none" stroke="midnightblue" d="M465.57,-130.412C484.036,-119.883 512.575,-103.611 533.636,-91.6021"/>
<polygon fill="midnightblue" stroke="midnightblue" points="535.485,-94.5772 542.438,-86.5835 532.017,-88.4962 535.485,-94.5772"/>
</g>
<!-- Node13&#45;&gt;Node3 -->
<g id="edge44" class="edge"><title>Node13&#45;&gt;Node3</title>
<path fill="none" stroke="midnightblue" d="M579.725,-130.412C547.089,-119.364 495.774,-101.991 459.933,-89.8574"/>
<polygon fill="midnightblue" stroke="midnightblue" points="460.856,-86.475 450.262,-86.5835 458.612,-93.1054 460.856,-86.475"/>
</g>
<!-- Node13&#45;&gt;Node5 -->
<g id="edge48" class="edge"><title>Node13&#45;&gt;Node5</title>
<path fill="none" stroke="midnightblue" d="M617.127,-130.252C626.037,-113.036 639.772,-79.0759 623,-58 601.713,-31.251 501.553,-18.4349 449.933,-13.5191"/>
<polygon fill="midnightblue" stroke="midnightblue" points="449.977,-10.0086 439.7,-12.5878 449.342,-16.9798 449.977,-10.0086"/>
</g>
<!-- Node13&#45;&gt;Node8 -->
<g id="edge46" class="edge"><title>Node13&#45;&gt;Node8</title>
<path fill="none" stroke="midnightblue" d="M602.744,-130.267C595.317,-120.612 584.242,-106.215 575.365,-94.675"/>
<polygon fill="midnightblue" stroke="midnightblue" points="577.974,-92.326 569.103,-86.5337 572.426,-96.594 577.974,-92.326"/>
</g>
<!-- Node13&#45;&gt;Node11 -->
<g id="edge50" class="edge"><title>Node13&#45;&gt;Node11</title>
<path fill="none" stroke="midnightblue" d="M625.697,-130.267C639.694,-120.044 660.971,-104.504 677.175,-92.6699"/>
<polygon fill="midnightblue" stroke="midnightblue" points="679.566,-95.2581 685.577,-86.5337 675.437,-89.6052 679.566,-95.2581"/>
</g>
</g>
</svg>
