<?xml version="1.0" encoding="UTF-8" standalone="no"?>
<!DOCTYPE svg PUBLIC "-//W3C//DTD SVG 1.1//EN"
 "http://www.w3.org/Graphics/SVG/1.1/DTD/svg11.dtd">
<!-- Generated by graphviz version 2.26.3 (20100126.1600)
 -->
<!-- Title: mars::sim::SimMotor Pages: 1 -->
<svg width="1710pt" height="1126pt"
 viewBox="0.00 0.00 1710.00 1126.05" xmlns="http://www.w3.org/2000/svg" xmlns:xlink="http://www.w3.org/1999/xlink">
<g id="graph1" class="graph" transform="scale(1 1) rotate(0) translate(4 1122.05)">
<title>mars::sim::SimMotor</title>
<polygon fill="white" stroke="white" points="-4,5 -4,-1122.05 1707,-1122.05 1707,5 -4,5"/>
<!-- Node1 -->
<g id="node1" class="node"><title>Node1</title>
<polygon fill="#bfbfbf" stroke="black" points="1594,-452.555 1594,-473.555 1702,-473.555 1702,-452.555 1594,-452.555"/>
<text text-anchor="middle" x="1648" y="-460.555" font-family="Helvetica,sans-Serif" font-size="10.00">mars::sim::SimMotor</text>
</g>
<!-- Node2 -->
<g id="node2" class="node"><title>Node2</title>
<a xlink:href="../../d1/db0/classmars_1_1data__broker_1_1_producer_interface.html" target="_top" xlink:title="Interface for classes producing data to broadcast via a DataBroker. ">
<polygon fill="white" stroke="black" points="895.5,-903.055 895.5,-937.055 996.5,-937.055 996.5,-903.055 895.5,-903.055"/>
<text text-anchor="start" x="903.5" y="-924.055" font-family="Helvetica,sans-Serif" font-size="10.00">mars::data_broker::</text>
<text text-anchor="middle" x="946" y="-911.055" font-family="Helvetica,sans-Serif" font-size="10.00">ProducerInterface</text>
</a>
</g>
<!-- Node2&#45;&gt;Node1 -->
<g id="edge2" class="edge"><title>Node2&#45;&gt;Node1</title>
<path fill="none" stroke="midnightblue" d="M1007.04,-921.883C1043.38,-922.435 1090.38,-922.211 1132,-919.055 1245.73,-910.429 1284.15,-914.871 1380,-853.055 1478.89,-789.28 1516.74,-776.716 1576,-675.055 1617.3,-604.198 1639.43,-506.125 1645.94,-473.835"/>
<polygon fill="midnightblue" stroke="midnightblue" points="1006.66,-918.376 996.602,-921.699 1006.54,-925.375 1006.66,-918.376"/>
</g>
<!-- Node4 -->
<g id="node6" class="node"><title>Node4</title>
<a xlink:href="../../d2/d27/classmars_1_1sim_1_1_sim_joint.html" target="_top" xlink:title="SimJoint represents the simulated joints. ">
<polygon fill="white" stroke="black" points="1398,-675.555 1398,-696.555 1502,-696.555 1502,-675.555 1398,-675.555"/>
<text text-anchor="middle" x="1450" y="-683.555" font-family="Helvetica,sans-Serif" font-size="10.00">mars::sim::SimJoint</text>
</a>
</g>
<!-- Node2&#45;&gt;Node4 -->
<g id="edge8" class="edge"><title>Node2&#45;&gt;Node4</title>
<path fill="none" stroke="midnightblue" d="M1006.83,-914.98C1114.2,-904.702 1330.64,-877.615 1380,-823.055 1415.3,-784.041 1364.99,-747.026 1398,-706.055 1401.09,-702.213 1405.02,-699.109 1409.32,-696.6"/>
<polygon fill="midnightblue" stroke="midnightblue" points="1006.42,-911.503 996.794,-915.923 1007.08,-918.473 1006.42,-911.503"/>
</g>
<!-- Node9 -->
<g id="node17" class="node"><title>Node9</title>
<a xlink:href="../../d5/db3/classmars_1_1sim_1_1_sim_node.html" target="_top" xlink:title="Two typedefs to keep mesh structure nearly similar to ODE. ">
<polygon fill="white" stroke="black" points="1172.5,-760.555 1172.5,-781.555 1279.5,-781.555 1279.5,-760.555 1172.5,-760.555"/>
<text text-anchor="middle" x="1226" y="-768.555" font-family="Helvetica,sans-Serif" font-size="10.00">mars::sim::SimNode</text>
</a>
</g>
<!-- Node2&#45;&gt;Node9 -->
<g id="edge20" class="edge"><title>Node2&#45;&gt;Node9</title>
<path fill="none" stroke="midnightblue" d="M1006.55,-901.119C1018.31,-897.446 1030.54,-893.628 1042,-890.055 1081.99,-877.585 1103.18,-892.456 1132,-862.055 1154.4,-838.43 1127.09,-814.178 1150,-791.055 1156.15,-784.853 1163.97,-780.501 1172.25,-777.464"/>
<polygon fill="midnightblue" stroke="midnightblue" points="1005.32,-897.839 996.815,-904.162 1007.4,-904.52 1005.32,-897.839"/>
</g>
<!-- Node3 -->
<g id="node4" class="node"><title>Node3</title>
<a xlink:href="../../d0/d0e/classmars_1_1data__broker_1_1_receiver_interface.html" target="_top" xlink:title="Interface for classes that want to receive data from the DataBroker. ">
<polygon fill="white" stroke="black" points="1399.5,-715.055 1399.5,-749.055 1500.5,-749.055 1500.5,-715.055 1399.5,-715.055"/>
<text text-anchor="start" x="1407.5" y="-736.055" font-family="Helvetica,sans-Serif" font-size="10.00">mars::data_broker::</text>
<text text-anchor="middle" x="1450" y="-723.055" font-family="Helvetica,sans-Serif" font-size="10.00">ReceiverInterface</text>
</a>
</g>
<!-- Node3&#45;&gt;Node1 -->
<g id="edge4" class="edge"><title>Node3&#45;&gt;Node1</title>
<path fill="none" stroke="midnightblue" d="M1496.43,-709.857C1498.34,-708.624 1500.21,-707.356 1502,-706.055 1539.9,-678.547 1549.88,-669.919 1576,-631.055 1612.47,-576.802 1636.87,-501.079 1645.01,-473.569"/>
<polygon fill="midnightblue" stroke="midnightblue" points="1494.58,-706.881 1487.8,-715.018 1498.17,-712.889 1494.58,-706.881"/>
</g>
<!-- Node4&#45;&gt;Node1 -->
<g id="edge6" class="edge"><title>Node4&#45;&gt;Node1</title>
<path fill="none" stroke="#9a32cd" stroke-dasharray="5,2" d="M1466.22,-667.786C1505.94,-623.05 1607.13,-509.09 1638.55,-473.703"/>
<polygon fill="#9a32cd" stroke="#9a32cd" points="1463.57,-665.497 1459.55,-675.299 1468.81,-670.145 1463.57,-665.497"/>
<text text-anchor="middle" x="1548" y="-618.055" font-family="Helvetica,sans-Serif" font-size="10.00"> myJoint</text>
<text text-anchor="middle" x="1548" y="-605.055" font-family="Helvetica,sans-Serif" font-size="10.00">myPlayJoint</text>
</g>
<!-- Node5 -->
<g id="node9" class="node"><title>Node5</title>
<a xlink:href="../../d9/d68/classmars_1_1data__broker_1_1_data_package_mapping.html" target="_top" xlink:title="A DataPackageMapping can be used by a Receiver &#160;to more conveniently retrieve values from a DataPacka...">
<polygon fill="white" stroke="black" points="889.5,-709.055 889.5,-743.055 1002.5,-743.055 1002.5,-709.055 889.5,-709.055"/>
<text text-anchor="start" x="897.5" y="-730.055" font-family="Helvetica,sans-Serif" font-size="10.00">mars::data_broker::</text>
<text text-anchor="middle" x="946" y="-717.055" font-family="Helvetica,sans-Serif" font-size="10.00">DataPackageMapping</text>
</a>
</g>
<!-- Node5&#45;&gt;Node4 -->
<g id="edge10" class="edge"><title>Node5&#45;&gt;Node4</title>
<path fill="none" stroke="#9a32cd" stroke-dasharray="5,2" d="M1012.99,-720.738C1114.69,-712.667 1305.9,-697.491 1397.92,-690.188"/>
<polygon fill="#9a32cd" stroke="#9a32cd" points="1012.53,-717.264 1002.84,-721.544 1013.08,-724.242 1012.53,-717.264"/>
<text text-anchor="middle" x="1226" y="-713.055" font-family="Helvetica,sans-Serif" font-size="10.00"> dbPackageMapping</text>
</g>
<!-- Node5&#45;&gt;Node9 -->
<g id="edge26" class="edge"><title>Node5&#45;&gt;Node9</title>
<path fill="none" stroke="#9a32cd" stroke-dasharray="5,2" d="M1012.87,-735.634C1048.31,-740.834 1092.56,-747.522 1132,-754.055 1145.09,-756.223 1159.18,-758.696 1172.36,-761.072"/>
<polygon fill="#9a32cd" stroke="#9a32cd" points="1013.04,-732.122 1002.64,-734.139 1012.03,-739.048 1013.04,-732.122"/>
<text text-anchor="middle" x="1087" y="-758.055" font-family="Helvetica,sans-Serif" font-size="10.00"> dbPackageMapping</text>
</g>
<!-- Node6 -->
<g id="node11" class="node"><title>Node6</title>
<a xlink:href="../../dd/d5c/classmars_1_1interfaces_1_1_joint_data.html" target="_top" xlink:title="JointData is a class to exchange joint information between the simulation modules. ">
<polygon fill="white" stroke="black" points="382.5,-731.555 382.5,-752.555 517.5,-752.555 517.5,-731.555 382.5,-731.555"/>
<text text-anchor="middle" x="450" y="-739.555" font-family="Helvetica,sans-Serif" font-size="10.00">mars::interfaces::JointData</text>
</a>
</g>
<!-- Node6&#45;&gt;Node4 -->
<g id="edge12" class="edge"><title>Node6&#45;&gt;Node4</title>
<path fill="none" stroke="#9a32cd" stroke-dasharray="5,2" d="M527.839,-735.73C608.843,-728.355 739.114,-714.261 850,-692.055 858.141,-690.424 859.774,-688.183 868,-687.055 1061.95,-660.448 1295.69,-673.542 1397.9,-681.484"/>
<polygon fill="#9a32cd" stroke="#9a32cd" points="527.367,-732.258 517.721,-736.64 527.994,-739.23 527.367,-732.258"/>
<text text-anchor="middle" x="946" y="-691.055" font-family="Helvetica,sans-Serif" font-size="10.00"> sJoint</text>
</g>
<!-- Node7 -->
<g id="node13" class="node"><title>Node7</title>
<polygon fill="white" stroke="#bfbfbf" points="31.5,-770.555 31.5,-791.555 72.5,-791.555 72.5,-770.555 31.5,-770.555"/>
<text text-anchor="middle" x="52" y="-778.555" font-family="Helvetica,sans-Serif" font-size="10.00">string</text>
</g>
<!-- Node7&#45;&gt;Node1 -->
<g id="edge100" class="edge"><title>Node7&#45;&gt;Node1</title>
<path fill="none" stroke="#9a32cd" stroke-dasharray="5,2" d="M55.429,-760.324C70.2124,-673.187 130.974,-337.591 202,-261.055 309.71,-144.988 380.15,-165.051 536,-137.055 994.396,-54.7092 1533.08,-387.881 1631.99,-452.406"/>
<polygon fill="#9a32cd" stroke="#9a32cd" points="51.957,-759.866 53.753,-770.307 58.8604,-761.025 51.957,-759.866"/>
<text text-anchor="middle" x="946" y="-177.055" font-family="Helvetica,sans-Serif" font-size="10.00"> name</text>
</g>
<!-- Node7&#45;&gt;Node6 -->
<g id="edge14" class="edge"><title>Node7&#45;&gt;Node6</title>
<path fill="none" stroke="#9a32cd" stroke-dasharray="5,2" d="M82.7748,-778.039C146.681,-771.777 295.072,-757.236 382.405,-748.678"/>
<polygon fill="#9a32cd" stroke="#9a32cd" points="82.1711,-774.581 72.5601,-779.04 82.8538,-781.548 82.1711,-774.581"/>
<text text-anchor="middle" x="153" y="-777.055" font-family="Helvetica,sans-Serif" font-size="10.00"> name</text>
</g>
<!-- Node13 -->
<g id="node27" class="node"><title>Node13</title>
<a xlink:href="../../d8/d4f/structmars_1_1interfaces_1_1_node_data.html" target="_top" xlink:title="NodeData is a struct to exchange node information between the GUI and the simulation. ">
<polygon fill="white" stroke="black" points="877.5,-863.555 877.5,-884.555 1014.5,-884.555 1014.5,-863.555 877.5,-863.555"/>
<text text-anchor="middle" x="946" y="-871.555" font-family="Helvetica,sans-Serif" font-size="10.00">mars::interfaces::NodeData</text>
</a>
</g>
<!-- Node7&#45;&gt;Node13 -->
<g id="edge52" class="edge"><title>Node7&#45;&gt;Node13</title>
<path fill="none" stroke="#9a32cd" stroke-dasharray="5,2" d="M82.8988,-785.478C95.0644,-787.101 109.169,-788.837 122,-790.055 374.676,-814.029 439.699,-797.412 692,-825.055 762.673,-832.798 780.335,-835.864 850,-850.055 868.854,-853.895 889.586,-858.969 906.943,-863.462"/>
<polygon fill="#9a32cd" stroke="#9a32cd" points="83.1695,-781.982 72.7877,-784.096 82.2217,-788.918 83.1695,-781.982"/>
<text text-anchor="middle" x="450" y="-840.055" font-family="Helvetica,sans-Serif" font-size="10.00"> origName</text>
<text text-anchor="middle" x="450" y="-827.055" font-family="Helvetica,sans-Serif" font-size="10.00">name</text>
<text text-anchor="middle" x="450" y="-814.055" font-family="Helvetica,sans-Serif" font-size="10.00">filename</text>
</g>
<!-- Node18 -->
<g id="node37" class="node"><title>Node18</title>
<a xlink:href="../../d9/d1d/classmars_1_1interfaces_1_1_material_data.html" target="_top" xlink:title="MaterialData is a struct to exchange material information of nodes. ">
<polygon fill="white" stroke="black" points="208.5,-967.555 208.5,-988.555 357.5,-988.555 357.5,-967.555 208.5,-967.555"/>
<text text-anchor="middle" x="283" y="-975.555" font-family="Helvetica,sans-Serif" font-size="10.00">mars::interfaces::MaterialData</text>
</a>
</g>
<!-- Node7&#45;&gt;Node18 -->
<g id="edge42" class="edge"><title>Node7&#45;&gt;Node18</title>
<path fill="none" stroke="#9a32cd" stroke-dasharray="5,2" d="M63.7446,-800.371C76.6587,-820.815 98.6904,-853.462 122,-878.055 146.352,-903.747 159.152,-902.841 184,-928.055 193.111,-937.3 191.392,-943.574 202,-951.055 212.054,-958.146 224.104,-963.477 235.797,-967.444"/>
<polygon fill="#9a32cd" stroke="#9a32cd" points="66.5786,-798.3 58.3261,-791.656 60.6339,-801.996 66.5786,-798.3"/>
<text text-anchor="middle" x="153" y="-958.055" font-family="Helvetica,sans-Serif" font-size="10.00"> normalmap</text>
<text text-anchor="middle" x="153" y="-945.055" font-family="Helvetica,sans-Serif" font-size="10.00">bumpmap</text>
<text text-anchor="middle" x="153" y="-932.055" font-family="Helvetica,sans-Serif" font-size="10.00">texturename</text>
</g>
<!-- Node20 -->
<g id="node42" class="node"><title>Node20</title>
<a xlink:href="../../de/dd2/structmars_1_1interfaces_1_1terrain_struct.html" target="_top" xlink:title="terrainStruct is a struct to exchange height maps between the GUI and the simulation ...">
<polygon fill="white" stroke="black" points="554,-926.055 554,-960.055 674,-960.055 674,-926.055 554,-926.055"/>
<text text-anchor="start" x="562" y="-947.055" font-family="Helvetica,sans-Serif" font-size="10.00">mars::interfaces::terrain</text>
<text text-anchor="middle" x="614" y="-934.055" font-family="Helvetica,sans-Serif" font-size="10.00">Struct</text>
</a>
</g>
<!-- Node7&#45;&gt;Node20 -->
<g id="edge50" class="edge"><title>Node7&#45;&gt;Node20</title>
<path fill="none" stroke="#9a32cd" stroke-dasharray="5,2" d="M76.571,-797.081C89.6199,-804.979 106.192,-814.069 122,-820.055 224.971,-859.044 257.165,-846.422 364,-873.055 430.475,-889.626 506.146,-911.197 556.657,-925.988"/>
<polygon fill="#9a32cd" stroke="#9a32cd" points="78.0942,-793.907 67.7532,-791.601 74.3995,-799.852 78.0942,-793.907"/>
<text text-anchor="middle" x="283" y="-890.055" font-family="Helvetica,sans-Serif" font-size="10.00"> srcname</text>
<text text-anchor="middle" x="283" y="-877.055" font-family="Helvetica,sans-Serif" font-size="10.00">name</text>
</g>
<!-- Node38 -->
<g id="node85" class="node"><title>Node38</title>
<a xlink:href="../../d9/ddf/classmars_1_1interfaces_1_1_motor_data.html" target="_top" xlink:title="MotorData is a struct to exchange motor information between the GUI and the simulation. ">
<polygon fill="white" stroke="black" points="710.5,-60.5548 710.5,-81.5548 849.5,-81.5548 849.5,-60.5548 710.5,-60.5548"/>
<text text-anchor="middle" x="780" y="-68.5548" font-family="Helvetica,sans-Serif" font-size="10.00">mars::interfaces::MotorData</text>
</a>
</g>
<!-- Node7&#45;&gt;Node38 -->
<g id="edge98" class="edge"><title>Node7&#45;&gt;Node38</title>
<path fill="none" stroke="#9a32cd" stroke-dasharray="5,2" d="M52.6729,-760.208C56.3734,-651.532 75.7887,-153.03 122,-104.055 292.338,76.4722 646.687,-25.3393 750.699,-60.5498"/>
<polygon fill="#9a32cd" stroke="#9a32cd" points="49.1652,-760.384 52.3304,-770.495 56.1613,-760.617 49.1652,-760.384"/>
<text text-anchor="middle" x="283" y="-49.0548" font-family="Helvetica,sans-Serif" font-size="10.00"> name</text>
</g>
<!-- Node8 -->
<g id="node15" class="node"><title>Node8</title>
<a xlink:href="../../d7/d2a/classmars_1_1interfaces_1_1_joint_interface.html" target="_top" xlink:title="mars::interfaces::JointInterface">
<polygon fill="white" stroke="black" points="1150,-800.555 1150,-821.555 1302,-821.555 1302,-800.555 1150,-800.555"/>
<text text-anchor="middle" x="1226" y="-808.555" font-family="Helvetica,sans-Serif" font-size="10.00">mars::interfaces::JointInterface</text>
</a>
</g>
<!-- Node8&#45;&gt;Node4 -->
<g id="edge16" class="edge"><title>Node8&#45;&gt;Node4</title>
<path fill="none" stroke="#9a32cd" stroke-dasharray="5,2" d="M1312.48,-808.635C1337.02,-803.879 1361.94,-794.559 1380,-777.055 1403.37,-754.395 1376.39,-730.401 1398,-706.055 1401.4,-702.221 1405.63,-699.117 1410.18,-696.606"/>
<polygon fill="#9a32cd" stroke="#9a32cd" points="1311.66,-805.226 1302.38,-810.351 1312.83,-812.127 1311.66,-805.226"/>
<text text-anchor="middle" x="1350" y="-810.055" font-family="Helvetica,sans-Serif" font-size="10.00"> my_interface</text>
</g>
<!-- Node9&#45;&gt;Node4 -->
<g id="edge18" class="edge"><title>Node9&#45;&gt;Node4</title>
<path fill="none" stroke="#9a32cd" stroke-dasharray="5,2" d="M1289.77,-758.116C1318.6,-750.561 1352.33,-739.251 1380,-723.055 1389.5,-717.497 1388.69,-711.919 1398,-706.055 1403.81,-702.395 1410.4,-699.227 1416.89,-696.56"/>
<polygon fill="#9a32cd" stroke="#9a32cd" points="1288.64,-754.793 1279.8,-760.634 1290.35,-761.58 1288.64,-754.793"/>
<text text-anchor="middle" x="1350" y="-764.055" font-family="Helvetica,sans-Serif" font-size="10.00"> snode1</text>
<text text-anchor="middle" x="1350" y="-751.055" font-family="Helvetica,sans-Serif" font-size="10.00">snode2</text>
</g>
<!-- Node10 -->
<g id="node20" class="node"><title>Node10</title>
<a xlink:href="../../d6/d90/classmars_1_1utils_1_1_mutex.html" target="_top" xlink:title="mars::utils::Mutex">
<polygon fill="white" stroke="black" points="898.5,-802.555 898.5,-823.555 993.5,-823.555 993.5,-802.555 898.5,-802.555"/>
<text text-anchor="middle" x="946" y="-810.555" font-family="Helvetica,sans-Serif" font-size="10.00">mars::utils::Mutex</text>
</a>
</g>
<!-- Node10&#45;&gt;Node9 -->
<g id="edge22" class="edge"><title>Node10&#45;&gt;Node9</title>
<path fill="none" stroke="#9a32cd" stroke-dasharray="5,2" d="M1003.57,-806.544C1040.38,-802.154 1089.09,-795.924 1132,-789.055 1145.62,-786.874 1160.29,-784.216 1173.89,-781.618"/>
<polygon fill="#9a32cd" stroke="#9a32cd" points="1003.03,-803.082 993.513,-807.732 1003.85,-810.034 1003.03,-803.082"/>
<text text-anchor="middle" x="1087" y="-805.055" font-family="Helvetica,sans-Serif" font-size="10.00"> iMutex</text>
</g>
<!-- Node11 -->
<g id="node22" class="node"><title>Node11</title>
<a xlink:href="../../d6/d9e/structmars_1_1utils_1_1_pthread_mutex_wrapper.html" target="_top" xlink:title="mars::utils::PthreadMutex\lWrapper">
<polygon fill="white" stroke="black" points="549.5,-744.055 549.5,-778.055 678.5,-778.055 678.5,-744.055 549.5,-744.055"/>
<text text-anchor="start" x="557.5" y="-765.055" font-family="Helvetica,sans-Serif" font-size="10.00">mars::utils::PthreadMutex</text>
<text text-anchor="middle" x="614" y="-752.055" font-family="Helvetica,sans-Serif" font-size="10.00">Wrapper</text>
</a>
</g>
<!-- Node11&#45;&gt;Node10 -->
<g id="edge24" class="edge"><title>Node11&#45;&gt;Node10</title>
<path fill="none" stroke="#9a32cd" stroke-dasharray="5,2" d="M688.795,-755.905C736.454,-755.219 798.665,-759.228 850,-779.055 859.454,-782.706 858.901,-788.592 868,-793.055 877.413,-797.672 888.006,-801.301 898.279,-804.123"/>
<polygon fill="#9a32cd" stroke="#9a32cd" points="688.471,-752.411 678.549,-756.127 688.623,-759.409 688.471,-752.411"/>
<text text-anchor="middle" x="780" y="-783.055" font-family="Helvetica,sans-Serif" font-size="10.00"> myMutex</text>
</g>
<!-- Node12 -->
<g id="node25" class="node"><title>Node12</title>
<a xlink:href="../../da/d43/classmars_1_1interfaces_1_1_node_interface.html" target="_top" xlink:title="Interface class for the physical layer. ">
<polygon fill="white" stroke="black" points="868.5,-762.555 868.5,-783.555 1023.5,-783.555 1023.5,-762.555 868.5,-762.555"/>
<text text-anchor="middle" x="946" y="-770.555" font-family="Helvetica,sans-Serif" font-size="10.00">mars::interfaces::NodeInterface</text>
</a>
</g>
<!-- Node12&#45;&gt;Node9 -->
<g id="edge28" class="edge"><title>Node12&#45;&gt;Node9</title>
<path fill="none" stroke="#9a32cd" stroke-dasharray="5,2" d="M1033.76,-772.428C1079.12,-772.104 1133.02,-771.719 1172.19,-771.439"/>
<polygon fill="#9a32cd" stroke="#9a32cd" points="1033.6,-768.929 1023.62,-772.5 1033.65,-775.929 1033.6,-768.929"/>
<text text-anchor="middle" x="1087" y="-776.055" font-family="Helvetica,sans-Serif" font-size="10.00"> my_interface</text>
</g>
<!-- Node13&#45;&gt;Node9 -->
<g id="edge30" class="edge"><title>Node13&#45;&gt;Node9</title>
<path fill="none" stroke="#9a32cd" stroke-dasharray="5,2" d="M995.999,-860.879C1047.21,-847.087 1120.85,-826.312 1132,-818.055 1143.59,-809.47 1138.26,-799.435 1150,-791.055 1156.66,-786.298 1164.38,-782.672 1172.28,-779.909"/>
<polygon fill="#9a32cd" stroke="#9a32cd" points="994.834,-857.567 986.082,-863.538 996.647,-864.328 994.834,-857.567"/>
<text text-anchor="middle" x="1087" y="-851.055" font-family="Helvetica,sans-Serif" font-size="10.00"> sNode</text>
</g>
<!-- Node14 -->
<g id="node29" class="node"><title>Node14</title>
<a xlink:href="../../db/d84/classconfigmaps_1_1_config_map.html" target="_top" xlink:title="configmaps::ConfigMap">
<polygon fill="white" stroke="black" points="554,-886.555 554,-907.555 674,-907.555 674,-886.555 554,-886.555"/>
<text text-anchor="middle" x="614" y="-894.555" font-family="Helvetica,sans-Serif" font-size="10.00">configmaps::ConfigMap</text>
</a>
</g>
<!-- Node14&#45;&gt;Node13 -->
<g id="edge32" class="edge"><title>Node14&#45;&gt;Node13</title>
<path fill="none" stroke="#9a32cd" stroke-dasharray="5,2" d="M684.122,-892.197C741.069,-888.252 820.922,-882.72 877.443,-878.804"/>
<polygon fill="#9a32cd" stroke="#9a32cd" points="683.857,-888.707 674.123,-892.89 684.341,-895.69 683.857,-888.707"/>
<text text-anchor="middle" x="780" y="-894.055" font-family="Helvetica,sans-Serif" font-size="10.00"> map</text>
</g>
<!-- Node15 -->
<g id="node31" class="node"><title>Node15</title>
<polygon fill="white" stroke="#bfbfbf" points="212.5,-908.055 212.5,-942.055 353.5,-942.055 353.5,-908.055 212.5,-908.055"/>
<text text-anchor="start" x="220.5" y="-929.055" font-family="Helvetica,sans-Serif" font-size="10.00">configmaps::FIFOMap</text>
<text text-anchor="middle" x="283" y="-916.055" font-family="Helvetica,sans-Serif" font-size="10.00">&lt; std::string, ConfigVector &gt;</text>
</g>
<!-- Node15&#45;&gt;Node14 -->
<g id="edge34" class="edge"><title>Node15&#45;&gt;Node14</title>
<path fill="none" stroke="midnightblue" d="M363.581,-918.238C422.257,-913.275 500.467,-906.659 553.769,-902.15"/>
<polygon fill="midnightblue" stroke="midnightblue" points="363.271,-914.752 353.602,-919.082 363.861,-921.727 363.271,-914.752"/>
</g>
<!-- Node16 -->
<g id="node33" class="node"><title>Node16</title>
<polygon fill="white" stroke="#bfbfbf" points="0,-872.055 0,-906.055 104,-906.055 104,-872.055 0,-872.055"/>
<text text-anchor="start" x="8" y="-893.055" font-family="Helvetica,sans-Serif" font-size="10.00">std::map&lt;std::string</text>
<text text-anchor="middle" x="52" y="-880.055" font-family="Helvetica,sans-Serif" font-size="10.00"> , ConfigVector &gt;</text>
</g>
<!-- Node16&#45;&gt;Node15 -->
<g id="edge36" class="edge"><title>Node16&#45;&gt;Node15</title>
<path fill="none" stroke="midnightblue" d="M114.456,-894.218C136.503,-896.427 161.422,-899.361 184,-903.055 193.209,-904.561 202.848,-906.387 212.345,-908.335"/>
<polygon fill="midnightblue" stroke="midnightblue" points="114.509,-890.707 104.218,-893.223 113.832,-897.674 114.509,-890.707"/>
</g>
<!-- Node17 -->
<g id="node35" class="node"><title>Node17</title>
<a xlink:href="../../dc/d1d/structmars_1_1interfaces_1_1contact__params.html" target="_top" xlink:title="mars::interfaces::contact\l_params">
<polygon fill="white" stroke="black" points="551.5,-834.055 551.5,-868.055 676.5,-868.055 676.5,-834.055 551.5,-834.055"/>
<text text-anchor="start" x="559.5" y="-855.055" font-family="Helvetica,sans-Serif" font-size="10.00">mars::interfaces::contact</text>
<text text-anchor="middle" x="614" y="-842.055" font-family="Helvetica,sans-Serif" font-size="10.00">_params</text>
</a>
</g>
<!-- Node17&#45;&gt;Node13 -->
<g id="edge38" class="edge"><title>Node17&#45;&gt;Node13</title>
<path fill="none" stroke="#9a32cd" stroke-dasharray="5,2" d="M686.705,-853.562C733.407,-855.466 795.34,-858.538 850,-863.055 858.861,-863.787 868.168,-864.688 877.356,-865.655"/>
<polygon fill="#9a32cd" stroke="#9a32cd" points="686.811,-850.063 676.68,-853.161 686.532,-857.058 686.811,-850.063"/>
<text text-anchor="middle" x="780" y="-867.055" font-family="Helvetica,sans-Serif" font-size="10.00"> c_params</text>
</g>
<!-- Node18&#45;&gt;Node13 -->
<g id="edge40" class="edge"><title>Node18&#45;&gt;Node13</title>
<path fill="none" stroke="#9a32cd" stroke-dasharray="5,2" d="M367.86,-986.577C507.784,-998.718 778.564,-1013.55 850,-955.055 871.87,-937.147 847.656,-913.68 868,-894.055 871.924,-890.269 876.462,-887.173 881.337,-884.644"/>
<polygon fill="#9a32cd" stroke="#9a32cd" points="367.876,-983.065 357.607,-985.672 367.26,-990.038 367.876,-983.065"/>
<text text-anchor="middle" x="614" y="-1001.05" font-family="Helvetica,sans-Serif" font-size="10.00"> material</text>
</g>
<!-- Node18&#45;&gt;Node20 -->
<g id="edge48" class="edge"><title>Node18&#45;&gt;Node20</title>
<path fill="none" stroke="#9a32cd" stroke-dasharray="5,2" d="M367.98,-969.069C426.179,-962.915 501.943,-954.904 553.929,-949.407"/>
<polygon fill="#9a32cd" stroke="#9a32cd" points="367.272,-965.624 357.696,-970.156 368.008,-972.585 367.272,-965.624"/>
<text text-anchor="middle" x="450" y="-970.055" font-family="Helvetica,sans-Serif" font-size="10.00"> material</text>
</g>
<!-- Node19 -->
<g id="node40" class="node"><title>Node19</title>
<a xlink:href="../../d4/d7c/classmars_1_1utils_1_1_color.html" target="_top" xlink:title="mars::utils::Color">
<polygon fill="white" stroke="black" points="6,-1036.55 6,-1057.55 98,-1057.55 98,-1036.55 6,-1036.55"/>
<text text-anchor="middle" x="52" y="-1044.55" font-family="Helvetica,sans-Serif" font-size="10.00">mars::utils::Color</text>
</a>
</g>
<!-- Node19&#45;&gt;Node18 -->
<g id="edge44" class="edge"><title>Node19&#45;&gt;Node18</title>
<path fill="none" stroke="#9a32cd" stroke-dasharray="5,2" d="M66.7632,-1028.31C79.5947,-1013.58 99.6046,-994.108 122,-985.055 148.846,-974.202 180.301,-970.981 208.25,-970.994"/>
<polygon fill="#9a32cd" stroke="#9a32cd" points="63.8005,-1026.39 60.0739,-1036.31 69.172,-1030.88 63.8005,-1026.39"/>
<text text-anchor="middle" x="153" y="-1080.05" font-family="Helvetica,sans-Serif" font-size="10.00"> ambientBack</text>
<text text-anchor="middle" x="153" y="-1067.05" font-family="Helvetica,sans-Serif" font-size="10.00">specularBack</text>
<text text-anchor="middle" x="153" y="-1054.05" font-family="Helvetica,sans-Serif" font-size="10.00">specularFront</text>
<text text-anchor="middle" x="153" y="-1041.05" font-family="Helvetica,sans-Serif" font-size="10.00">emissionBack</text>
<text text-anchor="middle" x="153" y="-1028.05" font-family="Helvetica,sans-Serif" font-size="10.00">ambientFront</text>
<text text-anchor="middle" x="153" y="-1015.05" font-family="Helvetica,sans-Serif" font-size="10.00">diffuseBack</text>
<text text-anchor="middle" x="153" y="-1002.05" font-family="Helvetica,sans-Serif" font-size="10.00">diffuseFront</text>
<text text-anchor="middle" x="153" y="-989.055" font-family="Helvetica,sans-Serif" font-size="10.00">emissionFront</text>
</g>
<!-- Node21 -->
<g id="node47" class="node"><title>Node21</title>
<a xlink:href="../../d9/dec/structmars_1_1interfaces_1_1snmesh.html" target="_top" xlink:title="mars::interfaces::snmesh">
<polygon fill="white" stroke="black" points="386,-1087.55 386,-1108.55 514,-1108.55 514,-1087.55 386,-1087.55"/>
<text text-anchor="middle" x="450" y="-1095.55" font-family="Helvetica,sans-Serif" font-size="10.00">mars::interfaces::snmesh</text>
</a>
</g>
<!-- Node19&#45;&gt;Node21 -->
<g id="edge56" class="edge"><title>Node19&#45;&gt;Node21</title>
<path fill="none" stroke="#9a32cd" stroke-dasharray="5,2" d="M73.3261,-1063.81C86.5387,-1073.14 104.313,-1083.89 122,-1089.05 210.727,-1114.95 318.739,-1111.63 385.951,-1105.73"/>
<polygon fill="#9a32cd" stroke="#9a32cd" points="75.095,-1060.77 64.965,-1057.66 70.9482,-1066.41 75.095,-1060.77"/>
<text text-anchor="middle" x="153" y="-1105.05" font-family="Helvetica,sans-Serif" font-size="10.00"> color</text>
</g>
<!-- Node20&#45;&gt;Node13 -->
<g id="edge46" class="edge"><title>Node20&#45;&gt;Node13</title>
<path fill="none" stroke="#9a32cd" stroke-dasharray="5,2" d="M684.28,-940.98C732.461,-937.508 796.999,-928.744 850,-907.055 859.133,-903.317 859.064,-898.242 868,-894.055 875.975,-890.317 884.749,-887.208 893.445,-884.645"/>
<polygon fill="#9a32cd" stroke="#9a32cd" points="684.004,-937.491 674.257,-941.644 684.466,-944.475 684.004,-937.491"/>
<text text-anchor="middle" x="780" y="-942.055" font-family="Helvetica,sans-Serif" font-size="10.00"> terrain</text>
</g>
<!-- Node21&#45;&gt;Node13 -->
<g id="edge54" class="edge"><title>Node21&#45;&gt;Node13</title>
<path fill="none" stroke="#9a32cd" stroke-dasharray="5,2" d="M524.469,-1104.67C615.129,-1108.24 766.447,-1099.01 850,-1010.05 885.719,-972.027 832.941,-932.693 868,-894.055 871.382,-890.328 875.355,-887.253 879.686,-884.722"/>
<polygon fill="#9a32cd" stroke="#9a32cd" points="524.414,-1101.16 514.265,-1104.2 524.094,-1108.15 524.414,-1101.16"/>
<text text-anchor="middle" x="614" y="-1109.05" font-family="Helvetica,sans-Serif" font-size="10.00"> mesh</text>
</g>
<!-- Node22 -->
<g id="node50" class="node"><title>Node22</title>
<a xlink:href="../../d7/d4e/classmars_1_1interfaces_1_1_control_center.html" target="_top" xlink:title="The declaration of the ControlCenter. ">
<polygon fill="white" stroke="black" points="883.5,-446.055 883.5,-480.055 1008.5,-480.055 1008.5,-446.055 883.5,-446.055"/>
<text text-anchor="start" x="891.5" y="-467.055" font-family="Helvetica,sans-Serif" font-size="10.00">mars::interfaces::Control</text>
<text text-anchor="middle" x="946" y="-454.055" font-family="Helvetica,sans-Serif" font-size="10.00">Center</text>
</a>
</g>
<!-- Node22&#45;&gt;Node1 -->
<g id="edge102" class="edge"><title>Node22&#45;&gt;Node1</title>
<path fill="none" stroke="#9a32cd" stroke-dasharray="5,2" d="M1018.9,-463.055C1160.26,-463.055 1468.69,-463.055 1593.73,-463.055"/>
<polygon fill="#9a32cd" stroke="#9a32cd" points="1018.61,-459.555 1008.61,-463.055 1018.61,-466.555 1018.61,-459.555"/>
<text text-anchor="middle" x="1350" y="-467.055" font-family="Helvetica,sans-Serif" font-size="10.00"> control</text>
</g>
<!-- Node22&#45;&gt;Node4 -->
<g id="edge92" class="edge"><title>Node22&#45;&gt;Node4</title>
<path fill="none" stroke="#9a32cd" stroke-dasharray="5,2" d="M998.643,-483.999C1080.92,-517.094 1244.59,-584.382 1380,-649.055 1397.49,-657.408 1416.95,-667.784 1430.9,-675.42"/>
<polygon fill="#9a32cd" stroke="#9a32cd" points="999.605,-480.614 989.021,-480.135 996.996,-487.11 999.605,-480.614"/>
<text text-anchor="middle" x="1226" y="-613.055" font-family="Helvetica,sans-Serif" font-size="10.00"> control</text>
</g>
<!-- Node22&#45;&gt;Node9 -->
<g id="edge58" class="edge"><title>Node22&#45;&gt;Node9</title>
<path fill="none" stroke="#9a32cd" stroke-dasharray="5,2" d="M961.341,-488.867C992.179,-539.181 1065.96,-651.924 1150,-726.055 1166.1,-740.256 1187.32,-752.383 1203.24,-760.457"/>
<polygon fill="#9a32cd" stroke="#9a32cd" points="964.273,-486.952 956.09,-480.222 958.29,-490.586 964.273,-486.952"/>
<text text-anchor="middle" x="1087" y="-711.055" font-family="Helvetica,sans-Serif" font-size="10.00"> control</text>
</g>
<!-- Node23 -->
<g id="node52" class="node"><title>Node23</title>
<a xlink:href="../../d1/d93/classmars_1_1interfaces_1_1_graphics_manager_interface.html" target="_top" xlink:title="mars::interfaces::Graphics\lManagerInterface">
<polygon fill="white" stroke="black" points="548,-394.055 548,-428.055 680,-428.055 680,-394.055 548,-394.055"/>
<text text-anchor="start" x="556" y="-415.055" font-family="Helvetica,sans-Serif" font-size="10.00">mars::interfaces::Graphics</text>
<text text-anchor="middle" x="614" y="-402.055" font-family="Helvetica,sans-Serif" font-size="10.00">ManagerInterface</text>
</a>
</g>
<!-- Node23&#45;&gt;Node22 -->
<g id="edge60" class="edge"><title>Node23&#45;&gt;Node22</title>
<path fill="none" stroke="#9a32cd" stroke-dasharray="5,2" d="M690.152,-421.796C736.427,-428.46 796.676,-437.381 850,-446.055 860.776,-447.808 872.215,-449.756 883.301,-451.691"/>
<polygon fill="#9a32cd" stroke="#9a32cd" points="690.595,-418.324 680.199,-420.366 689.6,-425.253 690.595,-418.324"/>
<text text-anchor="middle" x="780" y="-450.055" font-family="Helvetica,sans-Serif" font-size="10.00"> graphics</text>
</g>
<!-- Node24 -->
<g id="node54" class="node"><title>Node24</title>
<polygon fill="white" stroke="#bfbfbf" points="249,-556.555 249,-577.555 317,-577.555 317,-556.555 249,-556.555"/>
<text text-anchor="middle" x="283" y="-564.555" font-family="Helvetica,sans-Serif" font-size="10.00">LibInterface</text>
</g>
<!-- Node24&#45;&gt;Node23 -->
<g id="edge62" class="edge"><title>Node24&#45;&gt;Node23</title>
<path fill="none" stroke="midnightblue" d="M309.942,-551.468C355.485,-525.521 451.042,-472.794 536,-437.055 543.368,-433.955 551.245,-430.968 559.056,-428.191"/>
<polygon fill="midnightblue" stroke="midnightblue" points="308.202,-548.431 301.261,-556.435 311.679,-554.507 308.202,-548.431"/>
</g>
<!-- Node28 -->
<g id="node62" class="node"><title>Node28</title>
<a xlink:href="../../d4/da6/classmars_1_1cfg__manager_1_1_c_f_g_manager_interface.html" target="_top" xlink:title="mars::cfg_manager::\lCFGManagerInterface">
<polygon fill="white" stroke="black" points="557.5,-602.055 557.5,-636.055 670.5,-636.055 670.5,-602.055 557.5,-602.055"/>
<text text-anchor="start" x="565.5" y="-623.055" font-family="Helvetica,sans-Serif" font-size="10.00">mars::cfg_manager::</text>
<text text-anchor="middle" x="614" y="-610.055" font-family="Helvetica,sans-Serif" font-size="10.00">CFGManagerInterface</text>
</a>
</g>
<!-- Node24&#45;&gt;Node28 -->
<g id="edge72" class="edge"><title>Node24&#45;&gt;Node28</title>
<path fill="none" stroke="midnightblue" d="M327.367,-574.025C386.817,-583.364 492.364,-599.946 557.452,-610.171"/>
<polygon fill="midnightblue" stroke="midnightblue" points="327.598,-570.518 317.176,-572.424 326.512,-577.433 327.598,-570.518"/>
</g>
<!-- Node29 -->
<g id="node65" class="node"><title>Node29</title>
<a xlink:href="../../d6/d2e/classmars_1_1data__broker_1_1_data_broker_interface.html" target="_top" xlink:title="The interface every DataBroker should implement. ">
<polygon fill="white" stroke="black" points="562,-550.055 562,-584.055 666,-584.055 666,-550.055 562,-550.055"/>
<text text-anchor="start" x="570" y="-571.055" font-family="Helvetica,sans-Serif" font-size="10.00">mars::data_broker::</text>
<text text-anchor="middle" x="614" y="-558.055" font-family="Helvetica,sans-Serif" font-size="10.00">DataBrokerInterface</text>
</a>
</g>
<!-- Node24&#45;&gt;Node29 -->
<g id="edge76" class="edge"><title>Node24&#45;&gt;Node29</title>
<path fill="none" stroke="midnightblue" d="M327.223,-567.055C388.019,-567.055 497.216,-567.055 561.899,-567.055"/>
<polygon fill="midnightblue" stroke="midnightblue" points="327.176,-563.555 317.176,-567.055 327.176,-570.555 327.176,-563.555"/>
</g>
<!-- Node25 -->
<g id="node56" class="node"><title>Node25</title>
<a xlink:href="../../d2/da9/classmars_1_1interfaces_1_1_controller_manager_interface.html" target="_top" xlink:title="&quot;ControllerManagerInterface&quot; declares the interfaces for all controller operations that are used for ...">
<polygon fill="white" stroke="black" points="546.5,-198.055 546.5,-232.055 681.5,-232.055 681.5,-198.055 546.5,-198.055"/>
<text text-anchor="start" x="554.5" y="-219.055" font-family="Helvetica,sans-Serif" font-size="10.00">mars::interfaces::Controller</text>
<text text-anchor="middle" x="614" y="-206.055" font-family="Helvetica,sans-Serif" font-size="10.00">ManagerInterface</text>
</a>
</g>
<!-- Node25&#45;&gt;Node22 -->
<g id="edge64" class="edge"><title>Node25&#45;&gt;Node22</title>
<path fill="none" stroke="#9a32cd" stroke-dasharray="5,2" d="M691.649,-206.085C741.501,-204.471 805.083,-210.614 850,-244.055 917.929,-294.628 938.557,-403.667 944.135,-445.878"/>
<polygon fill="#9a32cd" stroke="#9a32cd" points="691.39,-202.593 681.551,-206.523 691.693,-209.586 691.39,-202.593"/>
<text text-anchor="middle" x="780" y="-248.055" font-family="Helvetica,sans-Serif" font-size="10.00"> controllers</text>
</g>
<!-- Node26 -->
<g id="node58" class="node"><title>Node26</title>
<a xlink:href="../../d6/d60/classmars_1_1interfaces_1_1_joint_manager_interface.html" target="_top" xlink:title="Interface class for the node organization. ">
<polygon fill="white" stroke="black" points="538,-146.055 538,-180.055 690,-180.055 690,-146.055 538,-146.055"/>
<text text-anchor="start" x="546" y="-167.055" font-family="Helvetica,sans-Serif" font-size="10.00">mars::interfaces::JointManager</text>
<text text-anchor="middle" x="614" y="-154.055" font-family="Helvetica,sans-Serif" font-size="10.00">Interface</text>
</a>
</g>
<!-- Node26&#45;&gt;Node22 -->
<g id="edge66" class="edge"><title>Node26&#45;&gt;Node22</title>
<path fill="none" stroke="#9a32cd" stroke-dasharray="5,2" d="M700.316,-151.013C749.115,-148.987 808.476,-155.141 850,-188.055 892.403,-221.665 930.998,-391.251 942.52,-445.992"/>
<polygon fill="#9a32cd" stroke="#9a32cd" points="699.872,-147.532 690.074,-151.563 700.247,-154.522 699.872,-147.532"/>
<text text-anchor="middle" x="780" y="-192.055" font-family="Helvetica,sans-Serif" font-size="10.00"> joints</text>
</g>
<!-- Node27 -->
<g id="node60" class="node"><title>Node27</title>
<a xlink:href="../../df/d82/classmars_1_1interfaces_1_1_entity_manager_interface.html" target="_top" xlink:title="mars::interfaces::Entity\lManagerInterface">
<polygon fill="white" stroke="black" points="554.5,-654.055 554.5,-688.055 673.5,-688.055 673.5,-654.055 554.5,-654.055"/>
<text text-anchor="start" x="562.5" y="-675.055" font-family="Helvetica,sans-Serif" font-size="10.00">mars::interfaces::Entity</text>
<text text-anchor="middle" x="614" y="-662.055" font-family="Helvetica,sans-Serif" font-size="10.00">ManagerInterface</text>
</a>
</g>
<!-- Node27&#45;&gt;Node22 -->
<g id="edge68" class="edge"><title>Node27&#45;&gt;Node22</title>
<path fill="none" stroke="#9a32cd" stroke-dasharray="5,2" d="M683.736,-676.335C734.131,-676.668 801.578,-669.59 850,-636.055 905.63,-597.528 932.491,-515.85 941.917,-480.247"/>
<polygon fill="#9a32cd" stroke="#9a32cd" points="683.632,-672.833 673.575,-676.167 683.516,-679.832 683.632,-672.833"/>
<text text-anchor="middle" x="780" y="-679.055" font-family="Helvetica,sans-Serif" font-size="10.00"> entities</text>
</g>
<!-- Node28&#45;&gt;Node22 -->
<g id="edge70" class="edge"><title>Node28&#45;&gt;Node22</title>
<path fill="none" stroke="#9a32cd" stroke-dasharray="5,2" d="M680.722,-621.543C730.478,-620.52 798.458,-612.821 850,-583.055 892.511,-558.505 923.506,-507.253 937.578,-480.366"/>
<polygon fill="#9a32cd" stroke="#9a32cd" points="680.665,-618.043 670.709,-621.664 680.75,-625.043 680.665,-618.043"/>
<text text-anchor="middle" x="780" y="-623.055" font-family="Helvetica,sans-Serif" font-size="10.00"> cfg</text>
</g>
<!-- Node29&#45;&gt;Node22 -->
<g id="edge74" class="edge"><title>Node29&#45;&gt;Node22</title>
<path fill="none" stroke="#9a32cd" stroke-dasharray="5,2" d="M676.408,-559.117C724.848,-551.708 793.109,-538.507 850,-517.055 875.229,-507.542 901.789,-492.127 920.561,-480.197"/>
<polygon fill="#9a32cd" stroke="#9a32cd" points="675.758,-555.675 666.383,-560.611 676.79,-562.599 675.758,-555.675"/>
<text text-anchor="middle" x="780" y="-570.055" font-family="Helvetica,sans-Serif" font-size="10.00"> dataBroker</text>
<text text-anchor="middle" x="780" y="-557.055" font-family="Helvetica,sans-Serif" font-size="10.00">theDataBroker</text>
</g>
<!-- Node30 -->
<g id="node68" class="node"><title>Node30</title>
<a xlink:href="../../db/da9/classmars_1_1interfaces_1_1_sensor_manager_interface.html" target="_top" xlink:title="&quot;SensorManagerInterface&quot; declares the interfaces for all sensor operations that are used for the comm...">
<polygon fill="white" stroke="black" points="552,-498.055 552,-532.055 676,-532.055 676,-498.055 552,-498.055"/>
<text text-anchor="start" x="560" y="-519.055" font-family="Helvetica,sans-Serif" font-size="10.00">mars::interfaces::Sensor</text>
<text text-anchor="middle" x="614" y="-506.055" font-family="Helvetica,sans-Serif" font-size="10.00">ManagerInterface</text>
</a>
</g>
<!-- Node30&#45;&gt;Node22 -->
<g id="edge78" class="edge"><title>Node30&#45;&gt;Node22</title>
<path fill="none" stroke="#9a32cd" stroke-dasharray="5,2" d="M686.22,-504.879C732.979,-498.159 795.153,-488.976 850,-480.055 860.776,-478.302 872.215,-476.353 883.301,-474.419"/>
<polygon fill="#9a32cd" stroke="#9a32cd" points="685.587,-501.434 676.185,-506.318 686.581,-508.363 685.587,-501.434"/>
<text text-anchor="middle" x="780" y="-504.055" font-family="Helvetica,sans-Serif" font-size="10.00"> sensors</text>
</g>
<!-- Node31 -->
<g id="node70" class="node"><title>Node31</title>
<a xlink:href="../../db/de9/classmars_1_1interfaces_1_1_motor_manager_interface.html" target="_top" xlink:title="&quot;MotorManagerInterface&quot; declares the interfaces for all motor operations that are used for the commun...">
<polygon fill="white" stroke="black" points="536.5,-446.055 536.5,-480.055 691.5,-480.055 691.5,-446.055 536.5,-446.055"/>
<text text-anchor="start" x="544.5" y="-467.055" font-family="Helvetica,sans-Serif" font-size="10.00">mars::interfaces::MotorManager</text>
<text text-anchor="middle" x="614" y="-454.055" font-family="Helvetica,sans-Serif" font-size="10.00">Interface</text>
</a>
</g>
<!-- Node31&#45;&gt;Node22 -->
<g id="edge80" class="edge"><title>Node31&#45;&gt;Node22</title>
<path fill="none" stroke="#9a32cd" stroke-dasharray="5,2" d="M701.945,-463.055C759.052,-463.055 832.116,-463.055 883.358,-463.055"/>
<polygon fill="#9a32cd" stroke="#9a32cd" points="701.839,-459.555 691.839,-463.055 701.839,-466.555 701.839,-459.555"/>
<text text-anchor="middle" x="780" y="-467.055" font-family="Helvetica,sans-Serif" font-size="10.00"> motors</text>
</g>
<!-- Node32 -->
<g id="node72" class="node"><title>Node32</title>
<a xlink:href="../../d9/d6a/classmars_1_1interfaces_1_1_load_center.html" target="_top" xlink:title="mars::interfaces::LoadCenter">
<polygon fill="white" stroke="black" points="542.5,-302.555 542.5,-323.555 685.5,-323.555 685.5,-302.555 542.5,-302.555"/>
<text text-anchor="middle" x="614" y="-310.555" font-family="Helvetica,sans-Serif" font-size="10.00">mars::interfaces::LoadCenter</text>
</a>
</g>
<!-- Node32&#45;&gt;Node22 -->
<g id="edge82" class="edge"><title>Node32&#45;&gt;Node22</title>
<path fill="none" stroke="#9a32cd" stroke-dasharray="5,2" d="M695.991,-314.451C743.561,-318.376 803.139,-328.834 850,-355.055 889.407,-377.104 920.859,-421.54 936.06,-445.981"/>
<polygon fill="#9a32cd" stroke="#9a32cd" points="695.955,-310.939 685.724,-313.689 695.437,-317.92 695.955,-310.939"/>
<text text-anchor="middle" x="780" y="-359.055" font-family="Helvetica,sans-Serif" font-size="10.00"> loadCenter</text>
</g>
<!-- Node33 -->
<g id="node74" class="node"><title>Node33</title>
<a xlink:href="../../d1/d51/classmars_1_1interfaces_1_1_load_heightmap_interface.html" target="_top" xlink:title="mars::interfaces::LoadHeightmap\lInterface">
<polygon fill="white" stroke="black" points="202.5,-270.055 202.5,-304.055 363.5,-304.055 363.5,-270.055 202.5,-270.055"/>
<text text-anchor="start" x="210.5" y="-291.055" font-family="Helvetica,sans-Serif" font-size="10.00">mars::interfaces::LoadHeightmap</text>
<text text-anchor="middle" x="283" y="-278.055" font-family="Helvetica,sans-Serif" font-size="10.00">Interface</text>
</a>
</g>
<!-- Node33&#45;&gt;Node32 -->
<g id="edge84" class="edge"><title>Node33&#45;&gt;Node32</title>
<path fill="none" stroke="#9a32cd" stroke-dasharray="5,2" d="M373.544,-293.153C417.216,-296.21 470.348,-300.098 518,-304.055 525.924,-304.713 534.213,-305.436 542.458,-306.179"/>
<polygon fill="#9a32cd" stroke="#9a32cd" points="373.737,-289.658 363.518,-292.454 373.25,-296.641 373.737,-289.658"/>
<text text-anchor="middle" x="450" y="-308.055" font-family="Helvetica,sans-Serif" font-size="10.00"> loadHeightmap</text>
</g>
<!-- Node34 -->
<g id="node76" class="node"><title>Node34</title>
<a xlink:href="../../d7/d02/classmars_1_1interfaces_1_1_load_mesh_interface.html" target="_top" xlink:title="mars::interfaces::LoadMesh\lInterface">
<polygon fill="white" stroke="black" points="214,-322.055 214,-356.055 352,-356.055 352,-322.055 214,-322.055"/>
<text text-anchor="start" x="222" y="-343.055" font-family="Helvetica,sans-Serif" font-size="10.00">mars::interfaces::LoadMesh</text>
<text text-anchor="middle" x="283" y="-330.055" font-family="Helvetica,sans-Serif" font-size="10.00">Interface</text>
</a>
</g>
<!-- Node34&#45;&gt;Node32 -->
<g id="edge86" class="edge"><title>Node34&#45;&gt;Node32</title>
<path fill="none" stroke="#9a32cd" stroke-dasharray="5,2" d="M362.406,-332.817C417.187,-328.514 489.409,-322.841 542.417,-318.678"/>
<polygon fill="#9a32cd" stroke="#9a32cd" points="362.084,-329.332 352.388,-333.604 362.632,-336.31 362.084,-329.332"/>
<text text-anchor="middle" x="450" y="-334.055" font-family="Helvetica,sans-Serif" font-size="10.00"> loadMesh</text>
</g>
<!-- Node35 -->
<g id="node78" class="node"><title>Node35</title>
<a xlink:href="../../d7/d4c/classmars_1_1interfaces_1_1_node_manager_interface.html" target="_top" xlink:title="&quot;NodeManagerInterface&quot; declares the interfaces for all NodeOperations that are used for the communica...">
<polygon fill="white" stroke="black" points="537,-342.055 537,-376.055 691,-376.055 691,-342.055 537,-342.055"/>
<text text-anchor="start" x="545" y="-363.055" font-family="Helvetica,sans-Serif" font-size="10.00">mars::interfaces::NodeManager</text>
<text text-anchor="middle" x="614" y="-350.055" font-family="Helvetica,sans-Serif" font-size="10.00">Interface</text>
</a>
</g>
<!-- Node35&#45;&gt;Node22 -->
<g id="edge88" class="edge"><title>Node35&#45;&gt;Node22</title>
<path fill="none" stroke="#9a32cd" stroke-dasharray="5,2" d="M701.29,-370.435C746.623,-378.016 802.348,-389.983 850,-408.055 875.503,-417.727 902.251,-433.591 921.016,-445.803"/>
<polygon fill="#9a32cd" stroke="#9a32cd" points="701.624,-366.944 691.191,-368.79 700.498,-373.852 701.624,-366.944"/>
<text text-anchor="middle" x="780" y="-412.055" font-family="Helvetica,sans-Serif" font-size="10.00"> nodes</text>
</g>
<!-- Node36 -->
<g id="node80" class="node"><title>Node36</title>
<a xlink:href="../../dc/de5/classmars_1_1interfaces_1_1_simulator_interface.html" target="_top" xlink:title="mars::interfaces::Simulator\lInterface">
<polygon fill="white" stroke="black" points="547,-250.055 547,-284.055 681,-284.055 681,-250.055 547,-250.055"/>
<text text-anchor="start" x="555" y="-271.055" font-family="Helvetica,sans-Serif" font-size="10.00">mars::interfaces::Simulator</text>
<text text-anchor="middle" x="614" y="-258.055" font-family="Helvetica,sans-Serif" font-size="10.00">Interface</text>
</a>
</g>
<!-- Node36&#45;&gt;Node22 -->
<g id="edge90" class="edge"><title>Node36&#45;&gt;Node22</title>
<path fill="none" stroke="#9a32cd" stroke-dasharray="5,2" d="M691.307,-260.992C740.555,-260.897 803.589,-268.115 850,-299.055 903.667,-334.831 931.353,-411.609 941.441,-445.9"/>
<polygon fill="#9a32cd" stroke="#9a32cd" points="690.975,-257.496 681.018,-261.118 691.06,-264.495 690.975,-257.496"/>
<text text-anchor="middle" x="780" y="-303.055" font-family="Helvetica,sans-Serif" font-size="10.00"> sim</text>
</g>
<!-- Node37 -->
<g id="node83" class="node"><title>Node37</title>
<a xlink:href="../../da/d2f/classmars_1_1data__broker_1_1_data_package.html" target="_top" xlink:title="A collection of DataItems. ">
<polygon fill="white" stroke="black" points="1399.5,-94.0548 1399.5,-128.055 1500.5,-128.055 1500.5,-94.0548 1399.5,-94.0548"/>
<text text-anchor="start" x="1407.5" y="-115.055" font-family="Helvetica,sans-Serif" font-size="10.00">mars::data_broker::</text>
<text text-anchor="middle" x="1450" y="-102.055" font-family="Helvetica,sans-Serif" font-size="10.00">DataPackage</text>
</a>
</g>
<!-- Node37&#45;&gt;Node1 -->
<g id="edge94" class="edge"><title>Node37&#45;&gt;Node1</title>
<path fill="none" stroke="#9a32cd" stroke-dasharray="5,2" d="M1510.69,-105.862C1533.79,-107.13 1558.68,-112.913 1576,-129.055 1625.04,-174.754 1643.61,-400.071 1647.29,-452.252"/>
<polygon fill="#9a32cd" stroke="#9a32cd" points="1510.68,-102.361 1500.59,-105.577 1510.49,-109.358 1510.68,-102.361"/>
<text text-anchor="middle" x="1548" y="-133.055" font-family="Helvetica,sans-Serif" font-size="10.00"> dbPackage</text>
</g>
<!-- Node38&#45;&gt;Node1 -->
<g id="edge96" class="edge"><title>Node38&#45;&gt;Node1</title>
<path fill="none" stroke="#9a32cd" stroke-dasharray="5,2" d="M859.897,-69.0411C921.853,-67.6521 1009.87,-66.0548 1087,-66.0548 1087,-66.0548 1087,-66.0548 1450,-66.0548 1508.24,-66.0548 1536.53,-59.23 1576,-102.055 1625.16,-155.391 1643.75,-397.982 1647.33,-452.26"/>
<polygon fill="#9a32cd" stroke="#9a32cd" points="859.716,-65.5442 849.799,-69.2709 859.876,-72.5424 859.716,-65.5442"/>
<text text-anchor="middle" x="1226" y="-70.0548" font-family="Helvetica,sans-Serif" font-size="10.00"> sMotor</text>
</g>
</g>
</svg>
