<?xml version="1.0" encoding="UTF-8" standalone="no"?>
<!DOCTYPE svg PUBLIC "-//W3C//DTD SVG 1.1//EN"
 "http://www.w3.org/Graphics/SVG/1.1/DTD/svg11.dtd">
<!-- Generated by graphviz version 2.26.3 (20100126.1600)
 -->
<!-- Title: /home/kavonszadkowski/limes&#45;dev/simulation/mars/gui/src/ControllerHandler.h Pages: 1 -->
<svg width="533pt" height="336pt"
 viewBox="0.00 0.00 533.00 336.00" xmlns="http://www.w3.org/2000/svg" xmlns:xlink="http://www.w3.org/1999/xlink">
<g id="graph1" class="graph" transform="scale(1 1) rotate(0) translate(4 332)">
<title>/home/kavonszadkowski/limes&#45;dev/simulation/mars/gui/src/ControllerHandler.h</title>
<polygon fill="white" stroke="white" points="-4,5 -4,-332 530,-332 530,5 -4,5"/>
<!-- Node1 -->
<g id="node1" class="node"><title>Node1</title>
<polygon fill="#bfbfbf" stroke="black" points="86.5,-280.5 86.5,-327.5 247.5,-327.5 247.5,-280.5 86.5,-280.5"/>
<text text-anchor="start" x="94.5" y="-314.5" font-family="Helvetica,sans-Serif" font-size="10.00">/home/kavonszadkowski</text>
<text text-anchor="start" x="94.5" y="-301.5" font-family="Helvetica,sans-Serif" font-size="10.00">/limes&#45;dev/simulation</text>
<text text-anchor="middle" x="167" y="-288.5" font-family="Helvetica,sans-Serif" font-size="10.00">/mars/gui/src/ControllerHandler.h</text>
</g>
<!-- Node2 -->
<g id="node3" class="node"><title>Node2</title>
<a xlink:href="../../d5/d58/_controller_handler_8cpp.html" target="_top" xlink:title="/home/kavonszadkowski\l/limes&#45;dev/simulation\l/mars/gui/src/ControllerHandler.cpp">
<polygon fill="white" stroke="black" points="-0.5,-189.5 -0.5,-236.5 170.5,-236.5 170.5,-189.5 -0.5,-189.5"/>
<text text-anchor="start" x="7.5" y="-223.5" font-family="Helvetica,sans-Serif" font-size="10.00">/home/kavonszadkowski</text>
<text text-anchor="start" x="7.5" y="-210.5" font-family="Helvetica,sans-Serif" font-size="10.00">/limes&#45;dev/simulation</text>
<text text-anchor="middle" x="85" y="-197.5" font-family="Helvetica,sans-Serif" font-size="10.00">/mars/gui/src/ControllerHandler.cpp</text>
</a>
</g>
<!-- Node1&#45;&gt;Node2 -->
<g id="edge2" class="edge"><title>Node1&#45;&gt;Node2</title>
<path fill="none" stroke="midnightblue" d="M138.709,-272.604C128.117,-260.849 116.268,-247.7 106.401,-236.749"/>
<polygon fill="midnightblue" stroke="midnightblue" points="136.161,-275.005 145.455,-280.091 141.361,-270.319 136.161,-275.005"/>
</g>
<!-- Node3 -->
<g id="node5" class="node"><title>Node3</title>
<a xlink:href="../../dd/d7e/_dialog_controllers_8h.html" target="_top" xlink:title="A controller tree widget holding all controllers as properties. ">
<polygon fill="white" stroke="black" points="187.5,-183 187.5,-243 312.5,-243 312.5,-183 187.5,-183"/>
<text text-anchor="start" x="195.5" y="-230" font-family="Helvetica,sans-Serif" font-size="10.00">/home/kavonszadkowski</text>
<text text-anchor="start" x="195.5" y="-217" font-family="Helvetica,sans-Serif" font-size="10.00">/limes&#45;dev/simulation</text>
<text text-anchor="start" x="195.5" y="-204" font-family="Helvetica,sans-Serif" font-size="10.00">/mars/gui/src/dialogs</text>
<text text-anchor="middle" x="250" y="-191" font-family="Helvetica,sans-Serif" font-size="10.00">/DialogControllers.h</text>
</a>
</g>
<!-- Node1&#45;&gt;Node3 -->
<g id="edge4" class="edge"><title>Node1&#45;&gt;Node3</title>
<path fill="none" stroke="midnightblue" d="M195.558,-272.689C204.243,-263.168 213.767,-252.726 222.387,-243.274"/>
<polygon fill="midnightblue" stroke="midnightblue" points="192.96,-270.344 188.807,-280.091 198.132,-275.061 192.96,-270.344"/>
</g>
<!-- Node4 -->
<g id="node7" class="node"><title>Node4</title>
<a xlink:href="../../db/d21/_dialog_controllers_8cpp.html" target="_top" xlink:title="/home/kavonszadkowski\l/limes&#45;dev/simulation\l/mars/gui/src/dialogs\l/DialogControllers.cpp">
<polygon fill="white" stroke="black" points="100.5,-85 100.5,-145 225.5,-145 225.5,-85 100.5,-85"/>
<text text-anchor="start" x="108.5" y="-132" font-family="Helvetica,sans-Serif" font-size="10.00">/home/kavonszadkowski</text>
<text text-anchor="start" x="108.5" y="-119" font-family="Helvetica,sans-Serif" font-size="10.00">/limes&#45;dev/simulation</text>
<text text-anchor="start" x="108.5" y="-106" font-family="Helvetica,sans-Serif" font-size="10.00">/mars/gui/src/dialogs</text>
<text text-anchor="middle" x="163" y="-93" font-family="Helvetica,sans-Serif" font-size="10.00">/DialogControllers.cpp</text>
</a>
</g>
<!-- Node3&#45;&gt;Node4 -->
<g id="edge6" class="edge"><title>Node3&#45;&gt;Node4</title>
<path fill="none" stroke="midnightblue" d="M216.311,-175.051C207.551,-165.184 198.231,-154.685 189.874,-145.272"/>
<polygon fill="midnightblue" stroke="midnightblue" points="213.931,-177.642 223.187,-182.797 219.166,-172.995 213.931,-177.642"/>
</g>
<!-- Node5 -->
<g id="node9" class="node"><title>Node5</title>
<a xlink:href="../../d3/d92/_menu_simulation_8h.html" target="_top" xlink:title="Provides the Simulation and Control menu entries. ">
<polygon fill="white" stroke="black" points="242.5,-91.5 242.5,-138.5 429.5,-138.5 429.5,-91.5 242.5,-91.5"/>
<text text-anchor="start" x="250.5" y="-125.5" font-family="Helvetica,sans-Serif" font-size="10.00">/home/kavonszadkowski</text>
<text text-anchor="start" x="250.5" y="-112.5" font-family="Helvetica,sans-Serif" font-size="10.00">/limes&#45;dev/simulation</text>
<text text-anchor="middle" x="336" y="-99.5" font-family="Helvetica,sans-Serif" font-size="10.00">/mars/gui/src/menus/MenuSimulation.h</text>
</a>
</g>
<!-- Node3&#45;&gt;Node5 -->
<g id="edge8" class="edge"><title>Node3&#45;&gt;Node5</title>
<path fill="none" stroke="midnightblue" d="M283.389,-174.952C294.095,-162.752 305.638,-149.599 315.177,-138.729"/>
<polygon fill="midnightblue" stroke="midnightblue" points="280.47,-172.972 276.505,-182.797 285.731,-177.589 280.47,-172.972"/>
</g>
<!-- Node6 -->
<g id="node11" class="node"><title>Node6</title>
<a xlink:href="../../da/d1e/_mars_gui_8cpp.html" target="_top" xlink:title="/home/kavonszadkowski\l/limes&#45;dev/simulation\l/mars/gui/src/MarsGui.cpp">
<polygon fill="white" stroke="black" points="179,-0.5 179,-47.5 311,-47.5 311,-0.5 179,-0.5"/>
<text text-anchor="start" x="187" y="-34.5" font-family="Helvetica,sans-Serif" font-size="10.00">/home/kavonszadkowski</text>
<text text-anchor="start" x="187" y="-21.5" font-family="Helvetica,sans-Serif" font-size="10.00">/limes&#45;dev/simulation</text>
<text text-anchor="middle" x="245" y="-8.5" font-family="Helvetica,sans-Serif" font-size="10.00">/mars/gui/src/MarsGui.cpp</text>
</a>
</g>
<!-- Node5&#45;&gt;Node6 -->
<g id="edge10" class="edge"><title>Node5&#45;&gt;Node6</title>
<path fill="none" stroke="midnightblue" d="M304.94,-83.9399C293.1,-72.1 279.805,-58.8047 268.749,-47.7495"/>
<polygon fill="midnightblue" stroke="midnightblue" points="302.545,-86.4946 312.091,-91.0908 307.495,-81.5448 302.545,-86.4946"/>
</g>
<!-- Node7 -->
<g id="node13" class="node"><title>Node7</title>
<a xlink:href="../../d9/d82/_menu_simulation_8cpp.html" target="_top" xlink:title="/home/kavonszadkowski\l/limes&#45;dev/simulation\l/mars/gui/src/menus/MenuSimulation.cpp">
<polygon fill="white" stroke="black" points="328.5,-0.5 328.5,-47.5 525.5,-47.5 525.5,-0.5 328.5,-0.5"/>
<text text-anchor="start" x="336.5" y="-34.5" font-family="Helvetica,sans-Serif" font-size="10.00">/home/kavonszadkowski</text>
<text text-anchor="start" x="336.5" y="-21.5" font-family="Helvetica,sans-Serif" font-size="10.00">/limes&#45;dev/simulation</text>
<text text-anchor="middle" x="427" y="-8.5" font-family="Helvetica,sans-Serif" font-size="10.00">/mars/gui/src/menus/MenuSimulation.cpp</text>
</a>
</g>
<!-- Node5&#45;&gt;Node7 -->
<g id="edge12" class="edge"><title>Node5&#45;&gt;Node7</title>
<path fill="none" stroke="midnightblue" d="M367.06,-83.9399C378.9,-72.1 392.195,-58.8047 403.251,-47.7495"/>
<polygon fill="midnightblue" stroke="midnightblue" points="364.505,-81.5448 359.909,-91.0908 369.455,-86.4946 364.505,-81.5448"/>
</g>
</g>
</svg>
