<?xml version="1.0" encoding="UTF-8" standalone="no"?>
<!DOCTYPE svg PUBLIC "-//W3C//DTD SVG 1.1//EN"
 "http://www.w3.org/Graphics/SVG/1.1/DTD/svg11.dtd">
<!-- Generated by graphviz version 2.26.3 (20100126.1600)
 -->
<!-- Title: /home/kavonszadkowski/limes&#45;dev/simulation/mars/plugins/output_inertias/OutputInertias.cpp Pages: 1 -->
<svg width="1132pt" height="214pt"
 viewBox="0.00 0.00 1132.00 214.00" xmlns="http://www.w3.org/2000/svg" xmlns:xlink="http://www.w3.org/1999/xlink">
<g id="graph1" class="graph" transform="scale(1 1) rotate(0) translate(4 210)">
<title>/home/kavonszadkowski/limes&#45;dev/simulation/mars/plugins/output_inertias/OutputInertias.cpp</title>
<polygon fill="white" stroke="white" points="-4,5 -4,-210 1129,-210 1129,5 -4,5"/>
<!-- Node1 -->
<g id="node1" class="node"><title>Node1</title>
<polygon fill="#bfbfbf" stroke="black" points="679,-145 679,-205 821,-205 821,-145 679,-145"/>
<text text-anchor="start" x="687" y="-192" font-family="Helvetica,sans-Serif" font-size="10.00">/home/kavonszadkowski</text>
<text text-anchor="start" x="687" y="-179" font-family="Helvetica,sans-Serif" font-size="10.00">/limes&#45;dev/simulation</text>
<text text-anchor="start" x="687" y="-166" font-family="Helvetica,sans-Serif" font-size="10.00">/mars/plugins/output_inertias</text>
<text text-anchor="middle" x="750" y="-153" font-family="Helvetica,sans-Serif" font-size="10.00">/OutputInertias.cpp</text>
</g>
<!-- Node2 -->
<g id="node3" class="node"><title>Node2</title>
<a xlink:href="../../dd/dd4/_output_inertias_8h.html" target="_top" xlink:title="OutputInertias.h">
<polygon fill="white" stroke="black" points="322,-79.5 322,-100.5 408,-100.5 408,-79.5 322,-79.5"/>
<text text-anchor="middle" x="365" y="-87.5" font-family="Helvetica,sans-Serif" font-size="10.00">OutputInertias.h</text>
</a>
</g>
<!-- Node1&#45;&gt;Node2 -->
<g id="edge2" class="edge"><title>Node1&#45;&gt;Node2</title>
<path fill="none" stroke="midnightblue" d="M678.87,-163.55C611.003,-151.954 506.189,-132.29 417,-108 412.348,-106.733 407.509,-105.266 402.738,-103.727"/>
<polygon fill="midnightblue" stroke="midnightblue" points="403.715,-100.363 393.121,-100.508 401.493,-107.001 403.715,-100.363"/>
</g>
<!-- Node8 -->
<g id="node15" class="node"><title>Node8</title>
<polygon fill="white" stroke="#bfbfbf" points="425.5,-73 425.5,-107 570.5,-107 570.5,-73 425.5,-73"/>
<text text-anchor="start" x="433.5" y="-94" font-family="Helvetica,sans-Serif" font-size="10.00">mars/data_broker/DataBroker</text>
<text text-anchor="middle" x="498" y="-81" font-family="Helvetica,sans-Serif" font-size="10.00">Interface.h</text>
</g>
<!-- Node1&#45;&gt;Node8 -->
<g id="edge14" class="edge"><title>Node1&#45;&gt;Node8</title>
<path fill="none" stroke="midnightblue" d="M678.797,-150.983C640.882,-138.194 594.744,-122.632 558.567,-110.429"/>
<polygon fill="midnightblue" stroke="midnightblue" points="559.237,-106.962 548.643,-107.082 556.999,-113.594 559.237,-106.962"/>
</g>
<!-- Node9 -->
<g id="node17" class="node"><title>Node9</title>
<polygon fill="white" stroke="#bfbfbf" points="587.5,-79.5 587.5,-100.5 750.5,-100.5 750.5,-79.5 587.5,-79.5"/>
<text text-anchor="middle" x="669" y="-87.5" font-family="Helvetica,sans-Serif" font-size="10.00">mars/data_broker/DataPackage.h</text>
</g>
<!-- Node1&#45;&gt;Node9 -->
<g id="edge16" class="edge"><title>Node1&#45;&gt;Node9</title>
<path fill="none" stroke="midnightblue" d="M721.214,-144.793C709.619,-132.625 696.622,-118.986 686.496,-108.36"/>
<polygon fill="midnightblue" stroke="midnightblue" points="688.815,-105.72 679.382,-100.895 683.747,-110.549 688.815,-105.72"/>
</g>
<!-- Node10 -->
<g id="node19" class="node"><title>Node10</title>
<polygon fill="white" stroke="#bfbfbf" points="767.5,-73 767.5,-107 894.5,-107 894.5,-73 767.5,-73"/>
<text text-anchor="start" x="775.5" y="-94" font-family="Helvetica,sans-Serif" font-size="10.00">mars/interfaces/sim</text>
<text text-anchor="middle" x="831" y="-81" font-family="Helvetica,sans-Serif" font-size="10.00">/NodeManagerInterface.h</text>
</g>
<!-- Node1&#45;&gt;Node10 -->
<g id="edge18" class="edge"><title>Node1&#45;&gt;Node10</title>
<path fill="none" stroke="midnightblue" d="M778.786,-144.793C788.164,-134.951 798.46,-124.147 807.412,-114.753"/>
<polygon fill="midnightblue" stroke="midnightblue" points="810.201,-116.9 814.566,-107.246 805.133,-112.071 810.201,-116.9"/>
</g>
<!-- Node11 -->
<g id="node21" class="node"><title>Node11</title>
<polygon fill="white" stroke="#bfbfbf" points="912,-79.5 912,-100.5 1052,-100.5 1052,-79.5 912,-79.5"/>
<text text-anchor="middle" x="982" y="-87.5" font-family="Helvetica,sans-Serif" font-size="10.00">mars/interfaces/NodeData.h</text>
</g>
<!-- Node1&#45;&gt;Node11 -->
<g id="edge20" class="edge"><title>Node1&#45;&gt;Node11</title>
<path fill="none" stroke="midnightblue" d="M821.184,-148.92C861.502,-134.148 910.354,-116.25 943.559,-104.084"/>
<polygon fill="midnightblue" stroke="midnightblue" points="945.149,-107.229 953.335,-100.502 942.741,-100.656 945.149,-107.229"/>
</g>
<!-- Node12 -->
<g id="node23" class="node"><title>Node12</title>
<polygon fill="white" stroke="#bfbfbf" points="1070,-79.5 1070,-100.5 1124,-100.5 1124,-79.5 1070,-79.5"/>
<text text-anchor="middle" x="1097" y="-87.5" font-family="Helvetica,sans-Serif" font-size="10.00">iostream</text>
</g>
<!-- Node1&#45;&gt;Node12 -->
<g id="edge22" class="edge"><title>Node1&#45;&gt;Node12</title>
<path fill="none" stroke="midnightblue" d="M821.179,-164.896C885.134,-154.596 981.014,-136.107 1061,-108 1063.57,-107.097 1066.19,-106.052 1068.79,-104.929"/>
<polygon fill="midnightblue" stroke="midnightblue" points="1070.39,-108.045 1077.96,-100.635 1067.42,-101.706 1070.39,-108.045"/>
</g>
<!-- Node3 -->
<g id="node5" class="node"><title>Node3</title>
<polygon fill="white" stroke="#bfbfbf" points="-0.5,-1 -0.5,-35 116.5,-35 116.5,-1 -0.5,-1"/>
<text text-anchor="start" x="7.5" y="-22" font-family="Helvetica,sans-Serif" font-size="10.00">mars/interfaces/sim</text>
<text text-anchor="middle" x="58" y="-9" font-family="Helvetica,sans-Serif" font-size="10.00">/MarsPluginTemplate.h</text>
</g>
<!-- Node2&#45;&gt;Node3 -->
<g id="edge4" class="edge"><title>Node2&#45;&gt;Node3</title>
<path fill="none" stroke="midnightblue" d="M321.954,-80.8735C275.894,-70.9836 200.458,-54.4307 126.711,-36.3809"/>
<polygon fill="midnightblue" stroke="midnightblue" points="127.337,-32.9308 116.791,-33.9412 125.665,-39.7282 127.337,-32.9308"/>
</g>
<!-- Node4 -->
<g id="node7" class="node"><title>Node4</title>
<polygon fill="white" stroke="#bfbfbf" points="134,-7.5 134,-28.5 280,-28.5 280,-7.5 134,-7.5"/>
<text text-anchor="middle" x="207" y="-15.5" font-family="Helvetica,sans-Serif" font-size="10.00">mars/interfaces/MARSDefs.h</text>
</g>
<!-- Node2&#45;&gt;Node4 -->
<g id="edge6" class="edge"><title>Node2&#45;&gt;Node4</title>
<path fill="none" stroke="midnightblue" d="M341.687,-79.3762C314.654,-67.0574 269.921,-46.673 239.489,-32.8052"/>
<polygon fill="midnightblue" stroke="midnightblue" points="240.703,-29.512 230.152,-28.5501 237.8,-35.8818 240.703,-29.512"/>
</g>
<!-- Node5 -->
<g id="node9" class="node"><title>Node5</title>
<polygon fill="white" stroke="#bfbfbf" points="298,-1 298,-35 432,-35 432,-1 298,-1"/>
<text text-anchor="start" x="306" y="-22" font-family="Helvetica,sans-Serif" font-size="10.00">mars/data_broker/Receiver</text>
<text text-anchor="middle" x="365" y="-9" font-family="Helvetica,sans-Serif" font-size="10.00">Interface.h</text>
</g>
<!-- Node2&#45;&gt;Node5 -->
<g id="edge8" class="edge"><title>Node2&#45;&gt;Node5</title>
<path fill="none" stroke="midnightblue" d="M365,-79.3762C365,-70.4513 365,-57.2928 365,-45.4461"/>
<polygon fill="midnightblue" stroke="midnightblue" points="368.5,-45.0943 365,-35.0944 361.5,-45.0944 368.5,-45.0943"/>
</g>
<!-- Node6 -->
<g id="node11" class="node"><title>Node6</title>
<polygon fill="white" stroke="#bfbfbf" points="449.5,-1 449.5,-35 608.5,-35 608.5,-1 449.5,-1"/>
<text text-anchor="start" x="457.5" y="-22" font-family="Helvetica,sans-Serif" font-size="10.00">mars/cfg_manager/CFGManager</text>
<text text-anchor="middle" x="529" y="-9" font-family="Helvetica,sans-Serif" font-size="10.00">Interface.h</text>
</g>
<!-- Node2&#45;&gt;Node6 -->
<g id="edge10" class="edge"><title>Node2&#45;&gt;Node6</title>
<path fill="none" stroke="midnightblue" d="M389.199,-79.3762C413.158,-68.8576 450.511,-52.4584 480.582,-39.2567"/>
<polygon fill="midnightblue" stroke="midnightblue" points="482.313,-42.3191 490.063,-35.0944 479.499,-35.9096 482.313,-42.3191"/>
</g>
<!-- Node7 -->
<g id="node13" class="node"><title>Node7</title>
<polygon fill="white" stroke="#bfbfbf" points="625.5,-7.5 625.5,-28.5 666.5,-28.5 666.5,-7.5 625.5,-7.5"/>
<text text-anchor="middle" x="646" y="-15.5" font-family="Helvetica,sans-Serif" font-size="10.00">string</text>
</g>
<!-- Node2&#45;&gt;Node7 -->
<g id="edge12" class="edge"><title>Node2&#45;&gt;Node7</title>
<path fill="none" stroke="midnightblue" d="M392.822,-79.478C400.575,-76.7909 409.051,-74.0777 417,-72 504.382,-49.1594 532.69,-68.39 617,-36 618.825,-35.2987 620.662,-34.4791 622.477,-33.5834"/>
<polygon fill="midnightblue" stroke="midnightblue" points="624.216,-36.6207 631.213,-28.6653 620.782,-30.5208 624.216,-36.6207"/>
</g>
</g>
</svg>
