<?xml version="1.0" encoding="UTF-8" standalone="no"?>
<!DOCTYPE svg PUBLIC "-//W3C//DTD SVG 1.1//EN"
 "http://www.w3.org/Graphics/SVG/1.1/DTD/svg11.dtd">
<!-- Generated by graphviz version 2.36.0 (20140111.2315)
 -->
<!-- Title: mars::interfaces::terrainStruct Pages: 1 -->
<svg width="235pt" height="254pt"
 viewBox="0.00 0.00 235.00 254.00" xmlns="http://www.w3.org/2000/svg" xmlns:xlink="http://www.w3.org/1999/xlink">
<g id="graph0" class="graph" transform="scale(1 1) rotate(0) translate(4 250)">
<title>mars::interfaces::terrainStruct</title>
<polygon fill="white" stroke="none" points="-4,4 -4,-250 231,-250 231,4 -4,4"/>
<!-- Node1 -->
<g id="node1" class="node"><title>Node1</title>
<polygon fill="#bfbfbf" stroke="black" points="0,-1 0,-31 120,-31 120,-1 0,-1"/>
<text text-anchor="start" x="8" y="-19" font-family="Helvetica,sans-Serif" font-size="10.00">mars::interfaces::terrain</text>
<text text-anchor="middle" x="60" y="-8" font-family="Helvetica,sans-Serif" font-size="10.00">Struct</text>
</g>
<!-- Node2 -->
<g id="node2" class="node"><title>Node2</title>
<g id="a_node2"><a xlink:href="../../d9/d1d/classmars_1_1interfaces_1_1_material_data.html" target="_top" xlink:title="MaterialData is a struct to exchange material information of nodes. ">
<polygon fill="white" stroke="black" points="78.5,-81.5 78.5,-100.5 227.5,-100.5 227.5,-81.5 78.5,-81.5"/>
<text text-anchor="middle" x="153" y="-88.5" font-family="Helvetica,sans-Serif" font-size="10.00">mars::interfaces::MaterialData</text>
</a>
</g>
</g>
<!-- Node2&#45;&gt;Node1 -->
<g id="edge1" class="edge"><title>Node2&#45;&gt;Node1</title>
<path fill="none" stroke="#9a32cd" stroke-dasharray="5,2" d="M133.676,-74.8319C117.31,-61.9852 94.0235,-43.7066 78.0347,-31.1563"/>
<polygon fill="#9a32cd" stroke="#9a32cd" points="131.939,-77.9179 141.966,-81.3393 136.261,-72.4116 131.939,-77.9179"/>
<text text-anchor="middle" x="134" y="-53.5" font-family="Helvetica,sans-Serif" font-size="10.00"> material</text>
</g>
<!-- Node3 -->
<g id="node3" class="node"><title>Node3</title>
<polygon fill="white" stroke="#bfbfbf" points="22.5,-226.5 22.5,-245.5 63.5,-245.5 63.5,-226.5 22.5,-226.5"/>
<text text-anchor="middle" x="43" y="-233.5" font-family="Helvetica,sans-Serif" font-size="10.00">string</text>
</g>
<!-- Node3&#45;&gt;Node1 -->
<g id="edge4" class="edge"><title>Node3&#45;&gt;Node1</title>
<path fill="none" stroke="#9a32cd" stroke-dasharray="5,2" d="M37.6818,-216.814C29.9521,-187.591 17.7051,-128.537 29,-80 33.1443,-62.191 43.075,-43.6226 50.5883,-31.2989"/>
<polygon fill="#9a32cd" stroke="#9a32cd" points="34.3151,-217.771 40.3646,-226.469 41.0596,-215.897 34.3151,-217.771"/>
<text text-anchor="middle" x="49.5" y="-94" font-family="Helvetica,sans-Serif" font-size="10.00"> srcname</text>
<text text-anchor="middle" x="49.5" y="-83" font-family="Helvetica,sans-Serif" font-size="10.00">name</text>
</g>
<!-- Node3&#45;&gt;Node2 -->
<g id="edge2" class="edge"><title>Node3&#45;&gt;Node2</title>
<path fill="none" stroke="#9a32cd" stroke-dasharray="5,2" d="M46.9643,-216.409C53.1199,-191.58 67.1646,-147.534 94,-120 102.468,-111.312 114.164,-104.995 124.911,-100.585"/>
<polygon fill="#9a32cd" stroke="#9a32cd" points="43.5117,-215.805 44.6736,-226.336 50.3325,-217.379 43.5117,-215.805"/>
<text text-anchor="middle" x="121.5" y="-178" font-family="Helvetica,sans-Serif" font-size="10.00"> normalmap</text>
<text text-anchor="middle" x="121.5" y="-167" font-family="Helvetica,sans-Serif" font-size="10.00">bumpmap</text>
<text text-anchor="middle" x="121.5" y="-156" font-family="Helvetica,sans-Serif" font-size="10.00">name</text>
<text text-anchor="middle" x="121.5" y="-145" font-family="Helvetica,sans-Serif" font-size="10.00">texturename</text>
</g>
<!-- Node4 -->
<g id="node4" class="node"><title>Node4</title>
<g id="a_node4"><a xlink:href="../../d4/d7c/classmars_1_1utils_1_1_color.html" target="_top" xlink:title="mars::utils::Color">
<polygon fill="white" stroke="black" points="107,-226.5 107,-245.5 199,-245.5 199,-226.5 107,-226.5"/>
<text text-anchor="middle" x="153" y="-233.5" font-family="Helvetica,sans-Serif" font-size="10.00">mars::utils::Color</text>
</a>
</g>
</g>
<!-- Node4&#45;&gt;Node2 -->
<g id="edge3" class="edge"><title>Node4&#45;&gt;Node2</title>
<path fill="none" stroke="#9a32cd" stroke-dasharray="5,2" d="M153,-216.097C153,-184.772 153,-123.309 153,-100.653"/>
<polygon fill="#9a32cd" stroke="#9a32cd" points="149.5,-216.483 153,-226.483 156.5,-216.483 149.5,-216.483"/>
<text text-anchor="middle" x="184" y="-200" font-family="Helvetica,sans-Serif" font-size="10.00"> ambientBack</text>
<text text-anchor="middle" x="184" y="-189" font-family="Helvetica,sans-Serif" font-size="10.00">specularBack</text>
<text text-anchor="middle" x="184" y="-178" font-family="Helvetica,sans-Serif" font-size="10.00">specularFront</text>
<text text-anchor="middle" x="184" y="-167" font-family="Helvetica,sans-Serif" font-size="10.00">emissionBack</text>
<text text-anchor="middle" x="184" y="-156" font-family="Helvetica,sans-Serif" font-size="10.00">ambientFront</text>
<text text-anchor="middle" x="184" y="-145" font-family="Helvetica,sans-Serif" font-size="10.00">diffuseBack</text>
<text text-anchor="middle" x="184" y="-134" font-family="Helvetica,sans-Serif" font-size="10.00">diffuseFront</text>
<text text-anchor="middle" x="184" y="-123" font-family="Helvetica,sans-Serif" font-size="10.00">emissionFront</text>
</g>
</g>
</svg>
