<?xml version="1.0" encoding="UTF-8" standalone="no"?>
<!DOCTYPE svg PUBLIC "-//W3C//DTD SVG 1.1//EN"
 "http://www.w3.org/Graphics/SVG/1.1/DTD/svg11.dtd">
<!-- Generated by graphviz version 2.26.3 (20100126.1600)
 -->
<!-- Title: mars::interfaces::terrainStruct Pages: 1 -->
<svg width="234pt" height="282pt"
 viewBox="0.00 0.00 234.00 282.00" xmlns="http://www.w3.org/2000/svg" xmlns:xlink="http://www.w3.org/1999/xlink">
<g id="graph1" class="graph" transform="scale(1 1) rotate(0) translate(4 278)">
<title>mars::interfaces::terrainStruct</title>
<polygon fill="white" stroke="white" points="-4,5 -4,-278 231,-278 231,5 -4,5"/>
<!-- Node1 -->
<g id="node1" class="node"><title>Node1</title>
<polygon fill="#bfbfbf" stroke="black" points="0,-1 0,-35 120,-35 120,-1 0,-1"/>
<text text-anchor="start" x="8" y="-22" font-family="Helvetica,sans-Serif" font-size="10.00">mars::interfaces::terrain</text>
<text text-anchor="middle" x="60" y="-9" font-family="Helvetica,sans-Serif" font-size="10.00">Struct</text>
</g>
<!-- Node2 -->
<g id="node2" class="node"><title>Node2</title>
<a xlink:href="../../d9/d1d/classmars_1_1interfaces_1_1_material_data.html" target="_top" xlink:title="MaterialData is a struct to exchange material information of nodes. ">
<polygon fill="white" stroke="black" points="77.5,-88.5 77.5,-109.5 226.5,-109.5 226.5,-88.5 77.5,-88.5"/>
<text text-anchor="middle" x="152" y="-96.5" font-family="Helvetica,sans-Serif" font-size="10.00">mars::interfaces::MaterialData</text>
</a>
</g>
<!-- Node2&#45;&gt;Node1 -->
<g id="edge2" class="edge"><title>Node2&#45;&gt;Node1</title>
<path fill="none" stroke="#9a32cd" stroke-dasharray="5,2" d="M132.426,-81.7667C116.797,-68.006 95.0082,-48.8224 79.4195,-35.0976"/>
<polygon fill="#9a32cd" stroke="#9a32cd" points="130.154,-84.4295 139.973,-88.4107 134.78,-79.1756 130.154,-84.4295"/>
<text text-anchor="middle" x="133" y="-58.5" font-family="Helvetica,sans-Serif" font-size="10.00"> material</text>
</g>
<!-- Node3 -->
<g id="node4" class="node"><title>Node3</title>
<polygon fill="white" stroke="#bfbfbf" points="22.5,-252.5 22.5,-273.5 63.5,-273.5 63.5,-252.5 22.5,-252.5"/>
<text text-anchor="middle" x="43" y="-260.5" font-family="Helvetica,sans-Serif" font-size="10.00">string</text>
</g>
<!-- Node3&#45;&gt;Node1 -->
<g id="edge8" class="edge"><title>Node3&#45;&gt;Node1</title>
<path fill="none" stroke="#9a32cd" stroke-dasharray="5,2" d="M37.3172,-242.598C28.941,-209.376 15.5485,-141.702 28,-86 32.0987,-67.6642 41.7114,-48.4406 49.3379,-35.1295"/>
<polygon fill="#9a32cd" stroke="#9a32cd" points="33.9877,-243.699 39.9209,-252.477 40.7565,-241.915 33.9877,-243.699"/>
<text text-anchor="middle" x="48.5" y="-103" font-family="Helvetica,sans-Serif" font-size="10.00"> srcname</text>
<text text-anchor="middle" x="48.5" y="-90" font-family="Helvetica,sans-Serif" font-size="10.00">name</text>
</g>
<!-- Node3&#45;&gt;Node2 -->
<g id="edge4" class="edge"><title>Node3&#45;&gt;Node2</title>
<path fill="none" stroke="#9a32cd" stroke-dasharray="5,2" d="M46.0508,-242.385C51.1974,-214.037 64.0286,-162.813 93,-130 100.812,-121.153 111.765,-114.434 122.116,-109.553"/>
<polygon fill="#9a32cd" stroke="#9a32cd" points="42.5787,-241.928 44.3877,-252.368 49.4835,-243.079 42.5787,-241.928"/>
<text text-anchor="middle" x="120.5" y="-192.5" font-family="Helvetica,sans-Serif" font-size="10.00"> normalmap</text>
<text text-anchor="middle" x="120.5" y="-179.5" font-family="Helvetica,sans-Serif" font-size="10.00">bumpmap</text>
<text text-anchor="middle" x="120.5" y="-166.5" font-family="Helvetica,sans-Serif" font-size="10.00">texturename</text>
</g>
<!-- Node4 -->
<g id="node6" class="node"><title>Node4</title>
<a xlink:href="../../d4/d7c/classmars_1_1utils_1_1_color.html" target="_top" xlink:title="mars::utils::Color">
<polygon fill="white" stroke="black" points="106,-252.5 106,-273.5 198,-273.5 198,-252.5 106,-252.5"/>
<text text-anchor="middle" x="152" y="-260.5" font-family="Helvetica,sans-Serif" font-size="10.00">mars::utils::Color</text>
</a>
</g>
<!-- Node4&#45;&gt;Node2 -->
<g id="edge6" class="edge"><title>Node4&#45;&gt;Node2</title>
<path fill="none" stroke="#9a32cd" stroke-dasharray="5,2" d="M152,-242.082C152,-206.698 152,-136.277 152,-109.587"/>
<polygon fill="#9a32cd" stroke="#9a32cd" points="148.5,-242.239 152,-252.24 155.5,-242.24 148.5,-242.239"/>
<text text-anchor="middle" x="183" y="-225" font-family="Helvetica,sans-Serif" font-size="10.00"> ambientBack</text>
<text text-anchor="middle" x="183" y="-212" font-family="Helvetica,sans-Serif" font-size="10.00">specularBack</text>
<text text-anchor="middle" x="183" y="-199" font-family="Helvetica,sans-Serif" font-size="10.00">specularFront</text>
<text text-anchor="middle" x="183" y="-186" font-family="Helvetica,sans-Serif" font-size="10.00">emissionBack</text>
<text text-anchor="middle" x="183" y="-173" font-family="Helvetica,sans-Serif" font-size="10.00">ambientFront</text>
<text text-anchor="middle" x="183" y="-160" font-family="Helvetica,sans-Serif" font-size="10.00">diffuseBack</text>
<text text-anchor="middle" x="183" y="-147" font-family="Helvetica,sans-Serif" font-size="10.00">diffuseFront</text>
<text text-anchor="middle" x="183" y="-134" font-family="Helvetica,sans-Serif" font-size="10.00">emissionFront</text>
</g>
</g>
</svg>
