<?xml version="1.0" encoding="UTF-8" standalone="no"?>
<!DOCTYPE svg PUBLIC "-//W3C//DTD SVG 1.1//EN"
 "http://www.w3.org/Graphics/SVG/1.1/DTD/svg11.dtd">
<!-- Generated by graphviz version 2.26.3 (20100126.1600)
 -->
<!-- Title: /home/kavonszadkowski/limes&#45;dev/simulation/mars/app/src/GraphicsTimer.cpp Pages: 1 -->
<svg width="410pt" height="186pt"
 viewBox="0.00 0.00 410.00 186.00" xmlns="http://www.w3.org/2000/svg" xmlns:xlink="http://www.w3.org/1999/xlink">
<g id="graph1" class="graph" transform="scale(1 1) rotate(0) translate(4 182)">
<title>/home/kavonszadkowski/limes&#45;dev/simulation/mars/app/src/GraphicsTimer.cpp</title>
<polygon fill="white" stroke="white" points="-4,5 -4,-182 407,-182 407,5 -4,5"/>
<!-- Node1 -->
<g id="node1" class="node"><title>Node1</title>
<polygon fill="#bfbfbf" stroke="black" points="177,-130.5 177,-177.5 339,-177.5 339,-130.5 177,-130.5"/>
<text text-anchor="start" x="185" y="-164.5" font-family="Helvetica,sans-Serif" font-size="10.00">/home/kavonszadkowski</text>
<text text-anchor="start" x="185" y="-151.5" font-family="Helvetica,sans-Serif" font-size="10.00">/limes&#45;dev/simulation</text>
<text text-anchor="middle" x="258" y="-138.5" font-family="Helvetica,sans-Serif" font-size="10.00">/mars/app/src/GraphicsTimer.cpp</text>
</g>
<!-- Node2 -->
<g id="node3" class="node"><title>Node2</title>
<a xlink:href="../../d6/d84/app_2src_2_graphics_timer_8h.html" target="_top" xlink:title="GraphicsTimer.h">
<polygon fill="white" stroke="black" points="105.5,-72.5 105.5,-93.5 194.5,-93.5 194.5,-72.5 105.5,-72.5"/>
<text text-anchor="middle" x="150" y="-80.5" font-family="Helvetica,sans-Serif" font-size="10.00">GraphicsTimer.h</text>
</a>
</g>
<!-- Node1&#45;&gt;Node2 -->
<g id="edge2" class="edge"><title>Node1&#45;&gt;Node2</title>
<path fill="none" stroke="midnightblue" d="M222.038,-130.358C206.534,-120.166 188.79,-108.501 174.791,-99.2979"/>
<polygon fill="midnightblue" stroke="midnightblue" points="176.473,-96.215 166.194,-93.6462 172.628,-102.064 176.473,-96.215"/>
</g>
<!-- Node7 -->
<g id="node13" class="node"><title>Node7</title>
<polygon fill="white" stroke="#bfbfbf" points="212,-72.5 212,-93.5 304,-93.5 304,-72.5 212,-72.5"/>
<text text-anchor="middle" x="258" y="-80.5" font-family="Helvetica,sans-Serif" font-size="10.00">mars/utils/misc.h</text>
</g>
<!-- Node1&#45;&gt;Node7 -->
<g id="edge12" class="edge"><title>Node1&#45;&gt;Node7</title>
<path fill="none" stroke="midnightblue" d="M258,-130.358C258,-121.719 258,-112.022 258,-103.662"/>
<polygon fill="midnightblue" stroke="midnightblue" points="261.5,-103.646 258,-93.6462 254.5,-103.646 261.5,-103.646"/>
</g>
<!-- Node8 -->
<g id="node15" class="node"><title>Node8</title>
<polygon fill="white" stroke="#bfbfbf" points="322,-72.5 322,-93.5 370,-93.5 370,-72.5 322,-72.5"/>
<text text-anchor="middle" x="346" y="-80.5" font-family="Helvetica,sans-Serif" font-size="10.00">stdlib.h</text>
</g>
<!-- Node1&#45;&gt;Node8 -->
<g id="edge14" class="edge"><title>Node1&#45;&gt;Node8</title>
<path fill="none" stroke="midnightblue" d="M287.303,-130.358C299.574,-120.457 313.569,-109.166 324.815,-100.093"/>
<polygon fill="midnightblue" stroke="midnightblue" points="327.22,-102.649 332.805,-93.6462 322.824,-97.2015 327.22,-102.649"/>
</g>
<!-- Node3 -->
<g id="node5" class="node"><title>Node3</title>
<polygon fill="white" stroke="#bfbfbf" points="-0.5,-7.5 -0.5,-28.5 52.5,-28.5 52.5,-7.5 -0.5,-7.5"/>
<text text-anchor="middle" x="26" y="-15.5" font-family="Helvetica,sans-Serif" font-size="10.00">QObject</text>
</g>
<!-- Node2&#45;&gt;Node3 -->
<g id="edge4" class="edge"><title>Node2&#45;&gt;Node3</title>
<path fill="none" stroke="midnightblue" d="M129.801,-72.412C109.535,-61.7885 78.1148,-45.3182 55.1496,-33.28"/>
<polygon fill="midnightblue" stroke="midnightblue" points="56.672,-30.1264 46.1901,-28.5835 53.422,-36.3262 56.672,-30.1264"/>
</g>
<!-- Node4 -->
<g id="node7" class="node"><title>Node4</title>
<polygon fill="white" stroke="#bfbfbf" points="69.5,-7.5 69.5,-28.5 118.5,-28.5 118.5,-7.5 69.5,-7.5"/>
<text text-anchor="middle" x="94" y="-15.5" font-family="Helvetica,sans-Serif" font-size="10.00">QTimer</text>
</g>
<!-- Node2&#45;&gt;Node4 -->
<g id="edge6" class="edge"><title>Node2&#45;&gt;Node4</title>
<path fill="none" stroke="midnightblue" d="M140.753,-72.2666C132.353,-62.5173 119.787,-47.9317 109.798,-36.3365"/>
<polygon fill="midnightblue" stroke="midnightblue" points="112.254,-33.8253 103.075,-28.5337 106.951,-38.3943 112.254,-33.8253"/>
</g>
<!-- Node5 -->
<g id="node9" class="node"><title>Node5</title>
<polygon fill="white" stroke="#bfbfbf" points="135.5,-1 135.5,-35 278.5,-35 278.5,-1 135.5,-1"/>
<text text-anchor="start" x="143.5" y="-22" font-family="Helvetica,sans-Serif" font-size="10.00">mars/interfaces/graphics</text>
<text text-anchor="middle" x="207" y="-9" font-family="Helvetica,sans-Serif" font-size="10.00">/GraphicsManagerInterface.h</text>
</g>
<!-- Node2&#45;&gt;Node5 -->
<g id="edge8" class="edge"><title>Node2&#45;&gt;Node5</title>
<path fill="none" stroke="midnightblue" d="M159.412,-72.2666C166.468,-64.2211 176.411,-52.8819 185.386,-42.6477"/>
<polygon fill="midnightblue" stroke="midnightblue" points="188.034,-44.9361 191.996,-35.1099 182.771,-40.3208 188.034,-44.9361"/>
</g>
<!-- Node6 -->
<g id="node11" class="node"><title>Node6</title>
<polygon fill="white" stroke="#bfbfbf" points="295.5,-1 295.5,-35 402.5,-35 402.5,-1 295.5,-1"/>
<text text-anchor="start" x="303.5" y="-22" font-family="Helvetica,sans-Serif" font-size="10.00">mars/interfaces/sim</text>
<text text-anchor="middle" x="349" y="-9" font-family="Helvetica,sans-Serif" font-size="10.00">/SimulatorInterface.h</text>
</g>
<!-- Node2&#45;&gt;Node6 -->
<g id="edge10" class="edge"><title>Node2&#45;&gt;Node6</title>
<path fill="none" stroke="midnightblue" d="M182.416,-72.412C210.704,-63.1721 252.533,-49.5092 287.199,-38.1863"/>
<polygon fill="midnightblue" stroke="midnightblue" points="288.35,-41.4924 296.769,-35.0604 286.176,-34.8383 288.35,-41.4924"/>
</g>
</g>
</svg>
