<?xml version="1.0" encoding="UTF-8" standalone="no"?>
<!DOCTYPE svg PUBLIC "-//W3C//DTD SVG 1.1//EN"
 "http://www.w3.org/Graphics/SVG/1.1/DTD/svg11.dtd">
<!-- Generated by graphviz version 2.26.3 (20100126.1600)
 -->
<!-- Title: /home/kavonszadkowski/limes&#45;dev/simulation/mars/common/graphics/osg_text/src/TextInterface.h Pages: 1 -->
<svg width="150pt" height="266pt"
 viewBox="0.00 0.00 150.00 266.00" xmlns="http://www.w3.org/2000/svg" xmlns:xlink="http://www.w3.org/1999/xlink">
<g id="graph1" class="graph" transform="scale(1 1) rotate(0) translate(4 262)">
<title>/home/kavonszadkowski/limes&#45;dev/simulation/mars/common/graphics/osg_text/src/TextInterface.h</title>
<polygon fill="white" stroke="white" points="-4,5 -4,-262 147,-262 147,5 -4,5"/>
<!-- Node1 -->
<g id="node1" class="node"><title>Node1</title>
<polygon fill="#bfbfbf" stroke="black" points="-0.5,-197 -0.5,-257 142.5,-257 142.5,-197 -0.5,-197"/>
<text text-anchor="start" x="7.5" y="-244" font-family="Helvetica,sans-Serif" font-size="10.00">/home/kavonszadkowski</text>
<text text-anchor="start" x="7.5" y="-231" font-family="Helvetica,sans-Serif" font-size="10.00">/limes&#45;dev/simulation</text>
<text text-anchor="start" x="7.5" y="-218" font-family="Helvetica,sans-Serif" font-size="10.00">/mars/common/graphics</text>
<text text-anchor="middle" x="71" y="-205" font-family="Helvetica,sans-Serif" font-size="10.00">/osg_text/src/TextInterface.h</text>
</g>
<!-- Node2 -->
<g id="node3" class="node"><title>Node2</title>
<a xlink:href="../../d4/dcf/_text_8h.html" target="_top" xlink:title="This library wraps the osgText lib and adds the possiblity to use an background color and border for ...">
<polygon fill="white" stroke="black" points="8.5,-99 8.5,-159 133.5,-159 133.5,-99 8.5,-99"/>
<text text-anchor="start" x="16.5" y="-146" font-family="Helvetica,sans-Serif" font-size="10.00">/home/kavonszadkowski</text>
<text text-anchor="start" x="16.5" y="-133" font-family="Helvetica,sans-Serif" font-size="10.00">/limes&#45;dev/simulation</text>
<text text-anchor="start" x="16.5" y="-120" font-family="Helvetica,sans-Serif" font-size="10.00">/mars/common/graphics</text>
<text text-anchor="middle" x="71" y="-107" font-family="Helvetica,sans-Serif" font-size="10.00">/osg_text/src/Text.h</text>
</a>
</g>
<!-- Node1&#45;&gt;Node2 -->
<g id="edge2" class="edge"><title>Node1&#45;&gt;Node2</title>
<path fill="none" stroke="midnightblue" d="M71,-186.696C71,-177.527 71,-167.939 71,-159.272"/>
<polygon fill="midnightblue" stroke="midnightblue" points="67.5001,-186.797 71,-196.797 74.5001,-186.797 67.5001,-186.797"/>
</g>
<!-- Node3 -->
<g id="node5" class="node"><title>Node3</title>
<a xlink:href="../../d0/d7c/_text_8cpp.html" target="_top" xlink:title="Version 0.1. ">
<polygon fill="white" stroke="black" points="8.5,-1 8.5,-61 133.5,-61 133.5,-1 8.5,-1"/>
<text text-anchor="start" x="16.5" y="-48" font-family="Helvetica,sans-Serif" font-size="10.00">/home/kavonszadkowski</text>
<text text-anchor="start" x="16.5" y="-35" font-family="Helvetica,sans-Serif" font-size="10.00">/limes&#45;dev/simulation</text>
<text text-anchor="start" x="16.5" y="-22" font-family="Helvetica,sans-Serif" font-size="10.00">/mars/common/graphics</text>
<text text-anchor="middle" x="71" y="-9" font-family="Helvetica,sans-Serif" font-size="10.00">/osg_text/src/Text.cpp</text>
</a>
</g>
<!-- Node2&#45;&gt;Node3 -->
<g id="edge4" class="edge"><title>Node2&#45;&gt;Node3</title>
<path fill="none" stroke="midnightblue" d="M71,-88.6956C71,-79.5273 71,-69.9394 71,-61.2718"/>
<polygon fill="midnightblue" stroke="midnightblue" points="67.5001,-88.7971 71,-98.7971 74.5001,-88.7972 67.5001,-88.7971"/>
</g>
</g>
</svg>
