<?xml version="1.0" encoding="UTF-8" standalone="no"?>
<!DOCTYPE svg PUBLIC "-//W3C//DTD SVG 1.1//EN"
 "http://www.w3.org/Graphics/SVG/1.1/DTD/svg11.dtd">
<!-- Generated by graphviz version 2.26.3 (20100126.1600)
 -->
<!-- Title: /home/kavonszadkowski/limes&#45;dev/simulation/mars/plugins/mars_plugin_collection/CameraGUI/src/CameraGUI.h Pages: 1 -->
<svg width="692pt" height="154pt"
 viewBox="0.00 0.00 692.00 154.00" xmlns="http://www.w3.org/2000/svg" xmlns:xlink="http://www.w3.org/1999/xlink">
<g id="graph1" class="graph" transform="scale(1 1) rotate(0) translate(4 150)">
<title>/home/kavonszadkowski/limes&#45;dev/simulation/mars/plugins/mars_plugin_collection/CameraGUI/src/CameraGUI.h</title>
<polygon fill="white" stroke="white" points="-4,5 -4,-150 689,-150 689,5 -4,5"/>
<!-- Node1 -->
<g id="node1" class="node"><title>Node1</title>
<polygon fill="#bfbfbf" stroke="black" points="315.5,-72.5 315.5,-145.5 450.5,-145.5 450.5,-72.5 315.5,-72.5"/>
<text text-anchor="start" x="323.5" y="-132.5" font-family="Helvetica,sans-Serif" font-size="10.00">/home/kavonszadkowski</text>
<text text-anchor="start" x="323.5" y="-119.5" font-family="Helvetica,sans-Serif" font-size="10.00">/limes&#45;dev/simulation</text>
<text text-anchor="start" x="323.5" y="-106.5" font-family="Helvetica,sans-Serif" font-size="10.00">/mars/plugins/mars_plugin</text>
<text text-anchor="start" x="323.5" y="-93.5" font-family="Helvetica,sans-Serif" font-size="10.00">_collection/CameraGUI/src</text>
<text text-anchor="middle" x="383" y="-80.5" font-family="Helvetica,sans-Serif" font-size="10.00">/CameraGUI.h</text>
</g>
<!-- Node2 -->
<g id="node3" class="node"><title>Node2</title>
<polygon fill="white" stroke="#bfbfbf" points="-0.5,-1 -0.5,-35 134.5,-35 134.5,-1 -0.5,-1"/>
<text text-anchor="start" x="7.5" y="-22" font-family="Helvetica,sans-Serif" font-size="10.00">mars/interfaces/sim</text>
<text text-anchor="middle" x="67" y="-9" font-family="Helvetica,sans-Serif" font-size="10.00">/MarsPluginTemplateGUI.h</text>
</g>
<!-- Node1&#45;&gt;Node2 -->
<g id="edge2" class="edge"><title>Node1&#45;&gt;Node2</title>
<path fill="none" stroke="midnightblue" d="M315.21,-89.4782C262.286,-74.2373 189.053,-53.1482 135.858,-37.8293"/>
<polygon fill="midnightblue" stroke="midnightblue" points="136.746,-34.4429 126.168,-35.0388 134.809,-41.1695 136.746,-34.4429"/>
</g>
<!-- Node3 -->
<g id="node5" class="node"><title>Node3</title>
<polygon fill="white" stroke="#bfbfbf" points="152,-7.5 152,-28.5 298,-28.5 298,-7.5 152,-7.5"/>
<text text-anchor="middle" x="225" y="-15.5" font-family="Helvetica,sans-Serif" font-size="10.00">mars/interfaces/MARSDefs.h</text>
</g>
<!-- Node1&#45;&gt;Node3 -->
<g id="edge4" class="edge"><title>Node1&#45;&gt;Node3</title>
<path fill="none" stroke="midnightblue" d="M319.191,-72.2491C295.745,-58.7456 270.444,-44.1737 251.975,-33.5361"/>
<polygon fill="midnightblue" stroke="midnightblue" points="253.653,-30.4635 243.24,-28.5055 250.159,-36.5294 253.653,-30.4635"/>
</g>
<!-- Node4 -->
<g id="node7" class="node"><title>Node4</title>
<polygon fill="white" stroke="#bfbfbf" points="316,-1 316,-35 450,-35 450,-1 316,-1"/>
<text text-anchor="start" x="324" y="-22" font-family="Helvetica,sans-Serif" font-size="10.00">mars/data_broker/Receiver</text>
<text text-anchor="middle" x="383" y="-9" font-family="Helvetica,sans-Serif" font-size="10.00">Interface.h</text>
</g>
<!-- Node1&#45;&gt;Node4 -->
<g id="edge6" class="edge"><title>Node1&#45;&gt;Node4</title>
<path fill="none" stroke="midnightblue" d="M383,-72.2491C383,-63.2314 383,-53.7372 383,-45.2564"/>
<polygon fill="midnightblue" stroke="midnightblue" points="386.5,-45.1682 383,-35.1682 379.5,-45.1682 386.5,-45.1682"/>
</g>
<!-- Node5 -->
<g id="node9" class="node"><title>Node5</title>
<polygon fill="white" stroke="#bfbfbf" points="467.5,-1 467.5,-35 626.5,-35 626.5,-1 467.5,-1"/>
<text text-anchor="start" x="475.5" y="-22" font-family="Helvetica,sans-Serif" font-size="10.00">mars/cfg_manager/CFGManager</text>
<text text-anchor="middle" x="547" y="-9" font-family="Helvetica,sans-Serif" font-size="10.00">Interface.h</text>
</g>
<!-- Node1&#45;&gt;Node5 -->
<g id="edge8" class="edge"><title>Node1&#45;&gt;Node5</title>
<path fill="none" stroke="midnightblue" d="M449.232,-72.2491C468.915,-61.3276 489.857,-49.7072 507.289,-40.0347"/>
<polygon fill="midnightblue" stroke="midnightblue" points="509.014,-43.0806 516.06,-35.1682 505.617,-36.9597 509.014,-43.0806"/>
</g>
<!-- Node6 -->
<g id="node11" class="node"><title>Node6</title>
<polygon fill="white" stroke="#bfbfbf" points="643.5,-7.5 643.5,-28.5 684.5,-28.5 684.5,-7.5 643.5,-7.5"/>
<text text-anchor="middle" x="664" y="-15.5" font-family="Helvetica,sans-Serif" font-size="10.00">string</text>
</g>
<!-- Node1&#45;&gt;Node6 -->
<g id="edge10" class="edge"><title>Node1&#45;&gt;Node6</title>
<path fill="none" stroke="midnightblue" d="M450.551,-94.7486C502.331,-82.5701 574.868,-62.7615 635,-36 636.6,-35.2877 638.218,-34.4999 639.827,-33.6635"/>
<polygon fill="midnightblue" stroke="midnightblue" points="641.846,-36.5408 648.779,-28.5295 638.363,-30.4686 641.846,-36.5408"/>
</g>
</g>
</svg>
