<?xml version="1.0" encoding="UTF-8" standalone="no"?>
<!DOCTYPE svg PUBLIC "-//W3C//DTD SVG 1.1//EN"
 "http://www.w3.org/Graphics/SVG/1.1/DTD/svg11.dtd">
<!-- Generated by graphviz version 2.26.3 (20100126.1600)
 -->
<!-- Title: /home/kavonszadkowski/limes&#45;dev/simulation/mars/plugins/mars_plugin_collection/CaveDemoHudControl/src/ControlWidget.cpp Pages: 1 -->
<svg width="1029pt" height="198pt"
 viewBox="0.00 0.00 1029.00 198.00" xmlns="http://www.w3.org/2000/svg" xmlns:xlink="http://www.w3.org/1999/xlink">
<g id="graph1" class="graph" transform="scale(1 1) rotate(0) translate(4 194)">
<title>/home/kavonszadkowski/limes&#45;dev/simulation/mars/plugins/mars_plugin_collection/CaveDemoHudControl/src/ControlWidget.cpp</title>
<polygon fill="white" stroke="white" points="-4,5 -4,-194 1026,-194 1026,5 -4,5"/>
<!-- Node1 -->
<g id="node1" class="node"><title>Node1</title>
<polygon fill="#bfbfbf" stroke="black" points="450.5,-116.5 450.5,-189.5 615.5,-189.5 615.5,-116.5 450.5,-116.5"/>
<text text-anchor="start" x="458.5" y="-176.5" font-family="Helvetica,sans-Serif" font-size="10.00">/home/kavonszadkowski</text>
<text text-anchor="start" x="458.5" y="-163.5" font-family="Helvetica,sans-Serif" font-size="10.00">/limes&#45;dev/simulation</text>
<text text-anchor="start" x="458.5" y="-150.5" font-family="Helvetica,sans-Serif" font-size="10.00">/mars/plugins/mars_plugin</text>
<text text-anchor="start" x="458.5" y="-137.5" font-family="Helvetica,sans-Serif" font-size="10.00">_collection/CaveDemoHudControl</text>
<text text-anchor="middle" x="533" y="-124.5" font-family="Helvetica,sans-Serif" font-size="10.00">/src/ControlWidget.cpp</text>
</g>
<!-- Node2 -->
<g id="node3" class="node"><title>Node2</title>
<a xlink:href="../../df/d8c/_control_widget_8h.html" target="_top" xlink:title="ControlWidget.h">
<polygon fill="white" stroke="black" points="18.5,-58.5 18.5,-79.5 105.5,-79.5 105.5,-58.5 18.5,-58.5"/>
<text text-anchor="middle" x="62" y="-66.5" font-family="Helvetica,sans-Serif" font-size="10.00">ControlWidget.h</text>
</a>
</g>
<!-- Node1&#45;&gt;Node2 -->
<g id="edge2" class="edge"><title>Node1&#45;&gt;Node2</title>
<path fill="none" stroke="midnightblue" d="M450.158,-139.47C367.749,-125.805 237.46,-103.644 115.554,-80.2592"/>
<polygon fill="midnightblue" stroke="midnightblue" points="116.151,-76.8099 105.67,-78.3568 114.828,-83.6838 116.151,-76.8099"/>
</g>
<!-- Node5 -->
<g id="node9" class="node"><title>Node5</title>
<polygon fill="white" stroke="#bfbfbf" points="122.5,-58.5 122.5,-79.5 193.5,-79.5 193.5,-58.5 122.5,-58.5"/>
<text text-anchor="middle" x="158" y="-66.5" font-family="Helvetica,sans-Serif" font-size="10.00">QGridLayout</text>
</g>
<!-- Node1&#45;&gt;Node5 -->
<g id="edge8" class="edge"><title>Node1&#45;&gt;Node5</title>
<path fill="none" stroke="midnightblue" d="M450.218,-135.413C385.532,-121.515 293.12,-101.321 203.325,-80.2743"/>
<polygon fill="midnightblue" stroke="midnightblue" points="204.056,-76.851 193.521,-77.9706 202.455,-83.6654 204.056,-76.851"/>
</g>
<!-- Node6 -->
<g id="node11" class="node"><title>Node6</title>
<polygon fill="white" stroke="#bfbfbf" points="210.5,-58.5 210.5,-79.5 287.5,-79.5 287.5,-58.5 210.5,-58.5"/>
<text text-anchor="middle" x="249" y="-66.5" font-family="Helvetica,sans-Serif" font-size="10.00">QVBoxLayout</text>
</g>
<!-- Node1&#45;&gt;Node6 -->
<g id="edge10" class="edge"><title>Node1&#45;&gt;Node6</title>
<path fill="none" stroke="midnightblue" d="M450.474,-128.591C399.53,-113.523 336.122,-94.7684 294.198,-82.3684"/>
<polygon fill="midnightblue" stroke="midnightblue" points="295.129,-78.9939 284.547,-79.5138 293.143,-85.7065 295.129,-78.9939"/>
</g>
<!-- Node7 -->
<g id="node13" class="node"><title>Node7</title>
<polygon fill="white" stroke="#bfbfbf" points="304.5,-58.5 304.5,-79.5 379.5,-79.5 379.5,-58.5 304.5,-58.5"/>
<text text-anchor="middle" x="342" y="-66.5" font-family="Helvetica,sans-Serif" font-size="10.00">QPushButton</text>
</g>
<!-- Node1&#45;&gt;Node7 -->
<g id="edge12" class="edge"><title>Node1&#45;&gt;Node7</title>
<path fill="none" stroke="midnightblue" d="M450.335,-116.645C423.876,-105.008 396.079,-92.7833 375.266,-83.6302"/>
<polygon fill="midnightblue" stroke="midnightblue" points="376.499,-80.3491 365.937,-79.5271 373.681,-86.7568 376.499,-80.3491"/>
</g>
<!-- Node8 -->
<g id="node15" class="node"><title>Node8</title>
<polygon fill="white" stroke="#bfbfbf" points="396.5,-58.5 396.5,-79.5 455.5,-79.5 455.5,-58.5 396.5,-58.5"/>
<text text-anchor="middle" x="426" y="-66.5" font-family="Helvetica,sans-Serif" font-size="10.00">QLineEdit</text>
</g>
<!-- Node1&#45;&gt;Node8 -->
<g id="edge14" class="edge"><title>Node1&#45;&gt;Node8</title>
<path fill="none" stroke="midnightblue" d="M486.38,-116.401C472.916,-105.831 458.862,-94.7982 447.704,-86.0384"/>
<polygon fill="midnightblue" stroke="midnightblue" points="449.82,-83.2503 439.793,-79.8283 445.498,-88.7563 449.82,-83.2503"/>
</g>
<!-- Node9 -->
<g id="node17" class="node"><title>Node9</title>
<polygon fill="white" stroke="#bfbfbf" points="472.5,-58.5 472.5,-79.5 519.5,-79.5 519.5,-58.5 472.5,-58.5"/>
<text text-anchor="middle" x="496" y="-66.5" font-family="Helvetica,sans-Serif" font-size="10.00">QLabel</text>
</g>
<!-- Node1&#45;&gt;Node9 -->
<g id="edge16" class="edge"><title>Node1&#45;&gt;Node9</title>
<path fill="none" stroke="midnightblue" d="M516.879,-116.401C512.771,-107.075 508.504,-97.3878 504.906,-89.22"/>
<polygon fill="midnightblue" stroke="midnightblue" points="508.004,-87.569 500.77,-79.8283 501.598,-90.3908 508.004,-87.569"/>
</g>
<!-- Node10 -->
<g id="node19" class="node"><title>Node10</title>
<polygon fill="white" stroke="#bfbfbf" points="537,-58.5 537,-79.5 605,-79.5 605,-58.5 537,-58.5"/>
<text text-anchor="middle" x="571" y="-66.5" font-family="Helvetica,sans-Serif" font-size="10.00">QFileDialog</text>
</g>
<!-- Node1&#45;&gt;Node10 -->
<g id="edge18" class="edge"><title>Node1&#45;&gt;Node10</title>
<path fill="none" stroke="midnightblue" d="M549.557,-116.401C553.823,-106.971 558.255,-97.1725 561.976,-88.9483"/>
<polygon fill="midnightblue" stroke="midnightblue" points="565.169,-90.382 566.101,-79.8283 558.791,-87.4968 565.169,-90.382"/>
</g>
<!-- Node11 -->
<g id="node21" class="node"><title>Node11</title>
<polygon fill="white" stroke="#bfbfbf" points="622.5,-58.5 622.5,-79.5 695.5,-79.5 695.5,-58.5 622.5,-58.5"/>
<text text-anchor="middle" x="659" y="-66.5" font-family="Helvetica,sans-Serif" font-size="10.00">QComboBox</text>
</g>
<!-- Node1&#45;&gt;Node11 -->
<g id="edge20" class="edge"><title>Node1&#45;&gt;Node11</title>
<path fill="none" stroke="midnightblue" d="M587.899,-116.401C604.171,-105.552 621.177,-94.2152 634.476,-85.3493"/>
<polygon fill="midnightblue" stroke="midnightblue" points="636.657,-88.1019 643.036,-79.6427 632.774,-82.2775 636.657,-88.1019"/>
</g>
<!-- Node12 -->
<g id="node23" class="node"><title>Node12</title>
<polygon fill="white" stroke="#bfbfbf" points="713,-58.5 713,-79.5 783,-79.5 783,-58.5 713,-58.5"/>
<text text-anchor="middle" x="748" y="-66.5" font-family="Helvetica,sans-Serif" font-size="10.00">QCheckBox</text>
</g>
<!-- Node1&#45;&gt;Node12 -->
<g id="edge22" class="edge"><title>Node1&#45;&gt;Node12</title>
<path fill="none" stroke="midnightblue" d="M615.51,-120.764C648.691,-107.8 685.236,-93.5217 711.524,-83.2509"/>
<polygon fill="midnightblue" stroke="midnightblue" points="713.029,-86.421 721.069,-79.5218 710.481,-79.9009 713.029,-86.421"/>
</g>
<!-- Node13 -->
<g id="node25" class="node"><title>Node13</title>
<polygon fill="white" stroke="#bfbfbf" points="801,-58.5 801,-79.5 893,-79.5 893,-58.5 801,-58.5"/>
<text text-anchor="middle" x="847" y="-66.5" font-family="Helvetica,sans-Serif" font-size="10.00">QDoubleSpinBox</text>
</g>
<!-- Node1&#45;&gt;Node13 -->
<g id="edge24" class="edge"><title>Node1&#45;&gt;Node13</title>
<path fill="none" stroke="midnightblue" d="M615.911,-130.82C673.755,-115.346 749.009,-95.2141 797.659,-82.1995"/>
<polygon fill="midnightblue" stroke="midnightblue" points="798.865,-85.5 807.621,-79.5345 797.056,-78.7378 798.865,-85.5"/>
</g>
<!-- Node14 -->
<g id="node27" class="node"><title>Node14</title>
<polygon fill="white" stroke="#bfbfbf" points="910.5,-58.5 910.5,-79.5 961.5,-79.5 961.5,-58.5 910.5,-58.5"/>
<text text-anchor="middle" x="936" y="-66.5" font-family="Helvetica,sans-Serif" font-size="10.00">QMutex</text>
</g>
<!-- Node1&#45;&gt;Node14 -->
<g id="edge26" class="edge"><title>Node1&#45;&gt;Node14</title>
<path fill="none" stroke="midnightblue" d="M615.7,-139.508C688.55,-126.967 797.589,-106.603 900.533,-80.1889"/>
<polygon fill="midnightblue" stroke="midnightblue" points="901.672,-83.5095 910.475,-77.6139 899.917,-76.7331 901.672,-83.5095"/>
</g>
<!-- Node15 -->
<g id="node29" class="node"><title>Node15</title>
<polygon fill="white" stroke="#bfbfbf" points="978.5,-58.5 978.5,-79.5 1021.5,-79.5 1021.5,-58.5 978.5,-58.5"/>
<text text-anchor="middle" x="1000" y="-66.5" font-family="Helvetica,sans-Serif" font-size="10.00">cstdio</text>
</g>
<!-- Node1&#45;&gt;Node15 -->
<g id="edge28" class="edge"><title>Node1&#45;&gt;Node15</title>
<path fill="none" stroke="midnightblue" d="M615.716,-143.836C702.075,-133.221 841.31,-113.15 968.297,-80.1346"/>
<polygon fill="midnightblue" stroke="midnightblue" points="969.416,-83.4591 978.195,-77.5278 967.634,-76.6899 969.416,-83.4591"/>
</g>
<!-- Node3 -->
<g id="node5" class="node"><title>Node3</title>
<polygon fill="white" stroke="#bfbfbf" points="-0.5,-0.5 -0.5,-21.5 54.5,-21.5 54.5,-0.5 -0.5,-0.5"/>
<text text-anchor="middle" x="27" y="-8.5" font-family="Helvetica,sans-Serif" font-size="10.00">QWidget</text>
</g>
<!-- Node2&#45;&gt;Node3 -->
<g id="edge4" class="edge"><title>Node2&#45;&gt;Node3</title>
<path fill="none" stroke="midnightblue" d="M55.5805,-58.3619C50.8441,-50.5131 44.2682,-39.6159 38.618,-30.2527"/>
<polygon fill="midnightblue" stroke="midnightblue" points="41.5422,-28.3242 33.3788,-21.5707 35.5489,-31.9409 41.5422,-28.3242"/>
</g>
<!-- Node4 -->
<g id="node7" class="node"><title>Node4</title>
<polygon fill="white" stroke="#bfbfbf" points="72,-0.5 72,-21.5 122,-21.5 122,-0.5 72,-0.5"/>
<text text-anchor="middle" x="97" y="-8.5" font-family="Helvetica,sans-Serif" font-size="10.00">QString</text>
</g>
<!-- Node2&#45;&gt;Node4 -->
<g id="edge6" class="edge"><title>Node2&#45;&gt;Node4</title>
<path fill="none" stroke="midnightblue" d="M68.4195,-58.3619C73.1559,-50.5131 79.7318,-39.6159 85.382,-30.2527"/>
<polygon fill="midnightblue" stroke="midnightblue" points="88.4511,-31.9409 90.6212,-21.5707 82.4578,-28.3242 88.4511,-31.9409"/>
</g>
</g>
</svg>
