<?xml version="1.0" encoding="UTF-8" standalone="no"?>
<!DOCTYPE svg PUBLIC "-//W3C//DTD SVG 1.1//EN"
 "http://www.w3.org/Graphics/SVG/1.1/DTD/svg11.dtd">
<!-- Generated by graphviz version 2.26.3 (20100126.1600)
 -->
<!-- Title: /home/kavonszadkowski/limes&#45;dev/simulation/mars/plugins/joystick_plugin/game_controller_manager/src/GameControllerManager.h Pages: 1 -->
<svg width="782pt" height="440pt"
 viewBox="0.00 0.00 782.00 440.00" xmlns="http://www.w3.org/2000/svg" xmlns:xlink="http://www.w3.org/1999/xlink">
<g id="graph1" class="graph" transform="scale(1 1) rotate(0) translate(4 436)">
<title>/home/kavonszadkowski/limes&#45;dev/simulation/mars/plugins/joystick_plugin/game_controller_manager/src/GameControllerManager.h</title>
<polygon fill="white" stroke="white" points="-4,5 -4,-436 779,-436 779,5 -4,5"/>
<!-- Node1 -->
<g id="node1" class="node"><title>Node1</title>
<polygon fill="#bfbfbf" stroke="black" points="331.5,-358.5 331.5,-431.5 524.5,-431.5 524.5,-358.5 331.5,-358.5"/>
<text text-anchor="start" x="339.5" y="-418.5" font-family="Helvetica,sans-Serif" font-size="10.00">/home/kavonszadkowski</text>
<text text-anchor="start" x="339.5" y="-405.5" font-family="Helvetica,sans-Serif" font-size="10.00">/limes&#45;dev/simulation</text>
<text text-anchor="start" x="339.5" y="-392.5" font-family="Helvetica,sans-Serif" font-size="10.00">/mars/plugins/joystick</text>
<text text-anchor="start" x="339.5" y="-379.5" font-family="Helvetica,sans-Serif" font-size="10.00">_plugin/game_controller</text>
<text text-anchor="middle" x="428" y="-366.5" font-family="Helvetica,sans-Serif" font-size="10.00">_manager/src/GameControllerManager.h</text>
</g>
<!-- Node2 -->
<g id="node3" class="node"><title>Node2</title>
<a xlink:href="../../de/d5e/_game_controller_8h.html" target="_top" xlink:title="Copyright 2011, DFKI GmbH Robotics Innovation Center. ">
<polygon fill="white" stroke="black" points="194.5,-248.5 194.5,-321.5 349.5,-321.5 349.5,-248.5 194.5,-248.5"/>
<text text-anchor="start" x="202.5" y="-308.5" font-family="Helvetica,sans-Serif" font-size="10.00">/home/kavonszadkowski</text>
<text text-anchor="start" x="202.5" y="-295.5" font-family="Helvetica,sans-Serif" font-size="10.00">/limes&#45;dev/simulation</text>
<text text-anchor="start" x="202.5" y="-282.5" font-family="Helvetica,sans-Serif" font-size="10.00">/mars/plugins/joystick</text>
<text text-anchor="start" x="202.5" y="-269.5" font-family="Helvetica,sans-Serif" font-size="10.00">_plugin/game_controller</text>
<text text-anchor="middle" x="272" y="-256.5" font-family="Helvetica,sans-Serif" font-size="10.00">_manager/src/GameController.h</text>
</a>
</g>
<!-- Node1&#45;&gt;Node2 -->
<g id="edge2" class="edge"><title>Node1&#45;&gt;Node2</title>
<path fill="none" stroke="midnightblue" d="M367.679,-352.466C353.26,-342.299 337.99,-331.532 323.985,-321.656"/>
<polygon fill="midnightblue" stroke="midnightblue" points="365.865,-355.469 376.054,-358.372 369.899,-349.748 365.865,-355.469"/>
</g>
<!-- Node7 -->
<g id="node13" class="node"><title>Node7</title>
<a xlink:href="../../df/d54/_game_controller_manager_8cpp.html" target="_top" xlink:title="/home/kavonszadkowski\l/limes&#45;dev/simulation\l/mars/plugins/joystick\l_plugin/game_controller\l_manager/src/GameControllerManager.cpp">
<polygon fill="white" stroke="black" points="377.5,-131.5 377.5,-204.5 580.5,-204.5 580.5,-131.5 377.5,-131.5"/>
<text text-anchor="start" x="385.5" y="-191.5" font-family="Helvetica,sans-Serif" font-size="10.00">/home/kavonszadkowski</text>
<text text-anchor="start" x="385.5" y="-178.5" font-family="Helvetica,sans-Serif" font-size="10.00">/limes&#45;dev/simulation</text>
<text text-anchor="start" x="385.5" y="-165.5" font-family="Helvetica,sans-Serif" font-size="10.00">/mars/plugins/joystick</text>
<text text-anchor="start" x="385.5" y="-152.5" font-family="Helvetica,sans-Serif" font-size="10.00">_plugin/game_controller</text>
<text text-anchor="middle" x="479" y="-139.5" font-family="Helvetica,sans-Serif" font-size="10.00">_manager/src/GameControllerManager.cpp</text>
</a>
</g>
<!-- Node1&#45;&gt;Node7 -->
<g id="edge12" class="edge"><title>Node1&#45;&gt;Node7</title>
<path fill="none" stroke="midnightblue" d="M431.046,-347.958C433.677,-318.821 438.46,-280.827 447,-248 450.766,-233.523 456.473,-218.149 462.03,-204.788"/>
<polygon fill="midnightblue" stroke="midnightblue" points="427.53,-348.006 430.172,-358.266 434.505,-348.598 427.53,-348.006"/>
</g>
<!-- Node8 -->
<g id="node15" class="node"><title>Node8</title>
<a xlink:href="../../db/db1/_g_c_manager_interface_8h.html" target="_top" xlink:title="Copyright 2011, DFKI GmbH Robotics Innovation Center. ">
<polygon fill="white" stroke="black" points="456,-248.5 456,-321.5 634,-321.5 634,-248.5 456,-248.5"/>
<text text-anchor="start" x="464" y="-308.5" font-family="Helvetica,sans-Serif" font-size="10.00">/home/kavonszadkowski</text>
<text text-anchor="start" x="464" y="-295.5" font-family="Helvetica,sans-Serif" font-size="10.00">/limes&#45;dev/simulation</text>
<text text-anchor="start" x="464" y="-282.5" font-family="Helvetica,sans-Serif" font-size="10.00">/mars/plugins/joystick</text>
<text text-anchor="start" x="464" y="-269.5" font-family="Helvetica,sans-Serif" font-size="10.00">_plugin/game_controller</text>
<text text-anchor="middle" x="545" y="-256.5" font-family="Helvetica,sans-Serif" font-size="10.00">_manager/src/GCManagerInterface.h</text>
</a>
</g>
<!-- Node1&#45;&gt;Node8 -->
<g id="edge14" class="edge"><title>Node1&#45;&gt;Node8</title>
<path fill="none" stroke="midnightblue" d="M474.416,-351.361C484.813,-341.586 495.742,-331.311 505.812,-321.844"/>
<polygon fill="midnightblue" stroke="midnightblue" points="471.848,-348.972 466.959,-358.372 476.642,-354.072 471.848,-348.972"/>
</g>
<!-- Node3 -->
<g id="node5" class="node"><title>Node3</title>
<a xlink:href="../../d2/de9/_game_controller_8cpp.html" target="_top" xlink:title="Copyright 2011, DFKI GmbH Robotics Innovation Center. ">
<polygon fill="white" stroke="black" points="0,-131.5 0,-204.5 166,-204.5 166,-131.5 0,-131.5"/>
<text text-anchor="start" x="8" y="-191.5" font-family="Helvetica,sans-Serif" font-size="10.00">/home/kavonszadkowski</text>
<text text-anchor="start" x="8" y="-178.5" font-family="Helvetica,sans-Serif" font-size="10.00">/limes&#45;dev/simulation</text>
<text text-anchor="start" x="8" y="-165.5" font-family="Helvetica,sans-Serif" font-size="10.00">/mars/plugins/joystick</text>
<text text-anchor="start" x="8" y="-152.5" font-family="Helvetica,sans-Serif" font-size="10.00">_plugin/game_controller</text>
<text text-anchor="middle" x="83" y="-139.5" font-family="Helvetica,sans-Serif" font-size="10.00">_manager/src/GameController.cpp</text>
</a>
</g>
<!-- Node2&#45;&gt;Node3 -->
<g id="edge4" class="edge"><title>Node2&#45;&gt;Node3</title>
<path fill="none" stroke="midnightblue" d="M204.393,-243.148C184.078,-230.572 161.954,-216.877 142.226,-204.663"/>
<polygon fill="midnightblue" stroke="midnightblue" points="202.632,-246.174 212.977,-248.462 206.316,-240.222 202.632,-246.174"/>
</g>
<!-- Node4 -->
<g id="node7" class="node"><title>Node4</title>
<a xlink:href="../../d4/d64/_game_controller_win32_8h.html" target="_top" xlink:title="Copyright 2011, DFKI GmbH Robotics Innovation Center. ">
<polygon fill="white" stroke="black" points="184,-125 184,-211 360,-211 360,-125 184,-125"/>
<text text-anchor="start" x="192" y="-198" font-family="Helvetica,sans-Serif" font-size="10.00">/home/kavonszadkowski</text>
<text text-anchor="start" x="192" y="-185" font-family="Helvetica,sans-Serif" font-size="10.00">/limes&#45;dev/simulation</text>
<text text-anchor="start" x="192" y="-172" font-family="Helvetica,sans-Serif" font-size="10.00">/mars/plugins/joystick</text>
<text text-anchor="start" x="192" y="-159" font-family="Helvetica,sans-Serif" font-size="10.00">_plugin/game_controller</text>
<text text-anchor="start" x="192" y="-146" font-family="Helvetica,sans-Serif" font-size="10.00">_manager/src/win32/GameController</text>
<text text-anchor="middle" x="272" y="-133" font-family="Helvetica,sans-Serif" font-size="10.00">Win32.h</text>
</a>
</g>
<!-- Node2&#45;&gt;Node4 -->
<g id="edge6" class="edge"><title>Node2&#45;&gt;Node4</title>
<path fill="none" stroke="midnightblue" d="M272,-238.074C272,-229.172 272,-219.897 272,-211.12"/>
<polygon fill="midnightblue" stroke="midnightblue" points="268.5,-238.301 272,-248.301 275.5,-238.302 268.5,-238.301"/>
</g>
<!-- Node5 -->
<g id="node9" class="node"><title>Node5</title>
<a xlink:href="../../d0/dcc/_game_controller_manager_win32_8cpp.html" target="_top" xlink:title="Copyright 2011, DFKI GmbH Robotics Innovation Center. ">
<polygon fill="white" stroke="black" points="488,-1 488,-87 664,-87 664,-1 488,-1"/>
<text text-anchor="start" x="496" y="-74" font-family="Helvetica,sans-Serif" font-size="10.00">/home/kavonszadkowski</text>
<text text-anchor="start" x="496" y="-61" font-family="Helvetica,sans-Serif" font-size="10.00">/limes&#45;dev/simulation</text>
<text text-anchor="start" x="496" y="-48" font-family="Helvetica,sans-Serif" font-size="10.00">/mars/plugins/joystick</text>
<text text-anchor="start" x="496" y="-35" font-family="Helvetica,sans-Serif" font-size="10.00">_plugin/game_controller</text>
<text text-anchor="start" x="496" y="-22" font-family="Helvetica,sans-Serif" font-size="10.00">_manager/src/win32/GameController</text>
<text text-anchor="middle" x="576" y="-9" font-family="Helvetica,sans-Serif" font-size="10.00">ManagerWin32.cpp</text>
</a>
</g>
<!-- Node4&#45;&gt;Node5 -->
<g id="edge8" class="edge"><title>Node4&#45;&gt;Node5</title>
<path fill="none" stroke="midnightblue" d="M369.606,-123.796C413.444,-105.516 453.452,-89.9004 487.929,-76.7665"/>
<polygon fill="midnightblue" stroke="midnightblue" points="368.066,-120.646 360.194,-127.737 370.77,-127.103 368.066,-120.646"/>
</g>
<!-- Node6 -->
<g id="node11" class="node"><title>Node6</title>
<a xlink:href="../../dd/d8e/_game_controller_win32_8cpp.html" target="_top" xlink:title="/home/kavonszadkowski\l/limes&#45;dev/simulation\l/mars/plugins/joystick\l_plugin/game_controller\l_manager/src/win32/GameController\lWin32.cpp">
<polygon fill="white" stroke="black" points="184,-1 184,-87 360,-87 360,-1 184,-1"/>
<text text-anchor="start" x="192" y="-74" font-family="Helvetica,sans-Serif" font-size="10.00">/home/kavonszadkowski</text>
<text text-anchor="start" x="192" y="-61" font-family="Helvetica,sans-Serif" font-size="10.00">/limes&#45;dev/simulation</text>
<text text-anchor="start" x="192" y="-48" font-family="Helvetica,sans-Serif" font-size="10.00">/mars/plugins/joystick</text>
<text text-anchor="start" x="192" y="-35" font-family="Helvetica,sans-Serif" font-size="10.00">_plugin/game_controller</text>
<text text-anchor="start" x="192" y="-22" font-family="Helvetica,sans-Serif" font-size="10.00">_manager/src/win32/GameController</text>
<text text-anchor="middle" x="272" y="-9" font-family="Helvetica,sans-Serif" font-size="10.00">Win32.cpp</text>
</a>
</g>
<!-- Node4&#45;&gt;Node6 -->
<g id="edge10" class="edge"><title>Node4&#45;&gt;Node6</title>
<path fill="none" stroke="midnightblue" d="M272,-114.796C272,-105.64 272,-96.2229 272,-87.3651"/>
<polygon fill="midnightblue" stroke="midnightblue" points="268.5,-114.979 272,-124.979 275.5,-114.979 268.5,-114.979"/>
</g>
<!-- Node8&#45;&gt;Node7 -->
<g id="edge16" class="edge"><title>Node8&#45;&gt;Node7</title>
<path fill="none" stroke="midnightblue" d="M519.198,-239.26C512.708,-227.755 505.827,-215.558 499.628,-204.568"/>
<polygon fill="midnightblue" stroke="midnightblue" points="516.337,-241.311 524.298,-248.301 522.433,-237.872 516.337,-241.311"/>
</g>
<!-- Node9 -->
<g id="node18" class="node"><title>Node9</title>
<a xlink:href="../../db/dd2/_game_controller_manager_win32_8h.html" target="_top" xlink:title="Copyright 2011, DFKI GmbH Robotics Innovation Center. ">
<polygon fill="white" stroke="black" points="598,-125 598,-211 774,-211 774,-125 598,-125"/>
<text text-anchor="start" x="606" y="-198" font-family="Helvetica,sans-Serif" font-size="10.00">/home/kavonszadkowski</text>
<text text-anchor="start" x="606" y="-185" font-family="Helvetica,sans-Serif" font-size="10.00">/limes&#45;dev/simulation</text>
<text text-anchor="start" x="606" y="-172" font-family="Helvetica,sans-Serif" font-size="10.00">/mars/plugins/joystick</text>
<text text-anchor="start" x="606" y="-159" font-family="Helvetica,sans-Serif" font-size="10.00">_plugin/game_controller</text>
<text text-anchor="start" x="606" y="-146" font-family="Helvetica,sans-Serif" font-size="10.00">_manager/src/win32/GameController</text>
<text text-anchor="middle" x="686" y="-133" font-family="Helvetica,sans-Serif" font-size="10.00">ManagerWin32.h</text>
</a>
</g>
<!-- Node8&#45;&gt;Node9 -->
<g id="edge18" class="edge"><title>Node8&#45;&gt;Node9</title>
<path fill="none" stroke="midnightblue" d="M597.034,-241.823C609.109,-231.803 621.962,-221.138 634.035,-211.12"/>
<polygon fill="midnightblue" stroke="midnightblue" points="594.687,-239.222 589.226,-248.301 599.157,-244.609 594.687,-239.222"/>
</g>
<!-- Node9&#45;&gt;Node5 -->
<g id="edge20" class="edge"><title>Node9&#45;&gt;Node5</title>
<path fill="none" stroke="midnightblue" d="M641.154,-117.446C632.302,-107.468 623.087,-97.0801 614.469,-87.3651"/>
<polygon fill="midnightblue" stroke="midnightblue" points="638.582,-119.821 647.836,-124.979 643.818,-115.175 638.582,-119.821"/>
</g>
</g>
</svg>
