<?xml version="1.0" encoding="UTF-8" standalone="no"?>
<!DOCTYPE svg PUBLIC "-//W3C//DTD SVG 1.1//EN"
 "http://www.w3.org/Graphics/SVG/1.1/DTD/svg11.dtd">
<!-- Generated by graphviz version 2.36.0 (20140111.2315)
 -->
<!-- Title: /media/kavonszadkowski/work/marsdocs/mars/sim/src/physics/JointPhysics.cpp Pages: 1 -->
<svg width="868pt" height="242pt"
 viewBox="0.00 0.00 868.00 242.00" xmlns="http://www.w3.org/2000/svg" xmlns:xlink="http://www.w3.org/1999/xlink">
<g id="graph0" class="graph" transform="scale(1 1) rotate(0) translate(4 238)">
<title>/media/kavonszadkowski/work/marsdocs/mars/sim/src/physics/JointPhysics.cpp</title>
<polygon fill="white" stroke="none" points="-4,4 -4,-238 864,-238 864,4 -4,4"/>
<!-- Node1 -->
<g id="node1" class="node"><title>Node1</title>
<polygon fill="#bfbfbf" stroke="black" points="342,-192.5 342,-233.5 490,-233.5 490,-192.5 342,-192.5"/>
<text text-anchor="start" x="350" y="-221.5" font-family="Helvetica,sans-Serif" font-size="10.00">/media/kavonszadkowski</text>
<text text-anchor="start" x="350" y="-210.5" font-family="Helvetica,sans-Serif" font-size="10.00">/work/marsdocs/mars/sim</text>
<text text-anchor="middle" x="416" y="-199.5" font-family="Helvetica,sans-Serif" font-size="10.00">/src/physics/JointPhysics.cpp</text>
</g>
<!-- Node2 -->
<g id="node2" class="node"><title>Node2</title>
<polygon fill="white" stroke="#bfbfbf" points="179.5,-136.5 179.5,-155.5 306.5,-155.5 306.5,-136.5 179.5,-136.5"/>
<text text-anchor="middle" x="243" y="-143.5" font-family="Helvetica,sans-Serif" font-size="10.00">mars/utils/MutexLocker.h</text>
</g>
<!-- Node1&#45;&gt;Node2 -->
<g id="edge1" class="edge"><title>Node1&#45;&gt;Node2</title>
<path fill="none" stroke="midnightblue" d="M364.094,-192.498C335.402,-181.718 300.63,-168.653 275.721,-159.294"/>
<polygon fill="midnightblue" stroke="midnightblue" points="276.621,-155.893 266.029,-155.652 274.159,-162.446 276.621,-155.893"/>
</g>
<!-- Node3 -->
<g id="node3" class="node"><title>Node3</title>
<g id="a_node3"><a xlink:href="../../dd/dbe/_joint_physics_8h.html" target="_top" xlink:title="JointPhysics.h">
<polygon fill="white" stroke="black" points="425.5,-136.5 425.5,-155.5 506.5,-155.5 506.5,-136.5 425.5,-136.5"/>
<text text-anchor="middle" x="466" y="-143.5" font-family="Helvetica,sans-Serif" font-size="10.00">JointPhysics.h</text>
</a>
</g>
</g>
<!-- Node1&#45;&gt;Node3 -->
<g id="edge2" class="edge"><title>Node1&#45;&gt;Node3</title>
<path fill="none" stroke="midnightblue" d="M431.002,-192.498C438.078,-183.299 446.434,-172.436 453.206,-163.632"/>
<polygon fill="midnightblue" stroke="midnightblue" points="456.021,-165.713 459.344,-155.652 450.473,-161.445 456.021,-165.713"/>
</g>
<!-- Node15 -->
<g id="node15" class="node"><title>Node15</title>
<g id="a_node15"><a xlink:href="../../d7/d43/_node_physics_8h.html" target="_top" xlink:title="&quot;NodePhysics&quot; implements the physical ode stuff for the nodes. ">
<polygon fill="white" stroke="black" points="324.5,-136.5 324.5,-155.5 407.5,-155.5 407.5,-136.5 324.5,-136.5"/>
<text text-anchor="middle" x="366" y="-143.5" font-family="Helvetica,sans-Serif" font-size="10.00">NodePhysics.h</text>
</a>
</g>
</g>
<!-- Node1&#45;&gt;Node15 -->
<g id="edge14" class="edge"><title>Node1&#45;&gt;Node15</title>
<path fill="none" stroke="midnightblue" d="M400.998,-192.498C393.922,-183.299 385.566,-172.436 378.794,-163.632"/>
<polygon fill="midnightblue" stroke="midnightblue" points="381.527,-161.445 372.656,-155.652 375.979,-165.713 381.527,-161.445"/>
</g>
<!-- Node16 -->
<g id="node16" class="node"><title>Node16</title>
<polygon fill="white" stroke="#bfbfbf" points="524.5,-136.5 524.5,-155.5 567.5,-155.5 567.5,-136.5 524.5,-136.5"/>
<text text-anchor="middle" x="546" y="-143.5" font-family="Helvetica,sans-Serif" font-size="10.00">cstdio</text>
</g>
<!-- Node1&#45;&gt;Node16 -->
<g id="edge17" class="edge"><title>Node1&#45;&gt;Node16</title>
<path fill="none" stroke="midnightblue" d="M455.004,-192.498C475.894,-182.053 501.072,-169.464 519.644,-160.178"/>
<polygon fill="midnightblue" stroke="midnightblue" points="521.316,-163.255 528.695,-155.652 518.185,-156.994 521.316,-163.255"/>
</g>
<!-- Node4 -->
<g id="node4" class="node"><title>Node4</title>
<g id="a_node4"><a xlink:href="../../d6/d89/_world_physics_8h.html" target="_top" xlink:title="&quot;WorldPhysics&quot; includes the methods to handle the physically world. ">
<polygon fill="white" stroke="black" points="423,-74.5 423,-93.5 509,-93.5 509,-74.5 423,-74.5"/>
<text text-anchor="middle" x="466" y="-81.5" font-family="Helvetica,sans-Serif" font-size="10.00">WorldPhysics.h</text>
</a>
</g>
</g>
<!-- Node3&#45;&gt;Node4 -->
<g id="edge3" class="edge"><title>Node3&#45;&gt;Node4</title>
<path fill="none" stroke="midnightblue" d="M466,-136.403C466,-127.938 466,-114.728 466,-103.82"/>
<polygon fill="midnightblue" stroke="midnightblue" points="469.5,-103.581 466,-93.5806 462.5,-103.581 469.5,-103.581"/>
</g>
<!-- Node13 -->
<g id="node13" class="node"><title>Node13</title>
<polygon fill="white" stroke="#bfbfbf" points="527.5,-69 527.5,-99 630.5,-99 630.5,-69 527.5,-69"/>
<text text-anchor="start" x="535.5" y="-87" font-family="Helvetica,sans-Serif" font-size="10.00">mars/interfaces/sim</text>
<text text-anchor="middle" x="579" y="-76" font-family="Helvetica,sans-Serif" font-size="10.00">/JointInterface.h</text>
</g>
<!-- Node3&#45;&gt;Node13 -->
<g id="edge12" class="edge"><title>Node3&#45;&gt;Node13</title>
<path fill="none" stroke="midnightblue" d="M482.19,-136.403C498.067,-127.974 522.803,-114.839 543.298,-103.957"/>
<polygon fill="midnightblue" stroke="midnightblue" points="545.177,-106.922 552.368,-99.1408 541.895,-100.739 545.177,-106.922"/>
</g>
<!-- Node14 -->
<g id="node14" class="node"><title>Node14</title>
<polygon fill="white" stroke="#bfbfbf" points="301.5,-69 301.5,-99 404.5,-99 404.5,-69 301.5,-69"/>
<text text-anchor="start" x="309.5" y="-87" font-family="Helvetica,sans-Serif" font-size="10.00">mars/interfaces/sim</text>
<text text-anchor="middle" x="353" y="-76" font-family="Helvetica,sans-Serif" font-size="10.00">/NodeInterface.h</text>
</g>
<!-- Node3&#45;&gt;Node14 -->
<g id="edge13" class="edge"><title>Node3&#45;&gt;Node14</title>
<path fill="none" stroke="midnightblue" d="M449.81,-136.403C433.933,-127.974 409.197,-114.839 388.702,-103.957"/>
<polygon fill="midnightblue" stroke="midnightblue" points="390.105,-100.739 379.632,-99.1408 386.823,-106.922 390.105,-100.739"/>
</g>
<!-- Node5 -->
<g id="node5" class="node"><title>Node5</title>
<polygon fill="white" stroke="#bfbfbf" points="0,-6.5 0,-25.5 98,-25.5 98,-6.5 0,-6.5"/>
<text text-anchor="middle" x="49" y="-13.5" font-family="Helvetica,sans-Serif" font-size="10.00">mars/utils/Mutex.h</text>
</g>
<!-- Node4&#45;&gt;Node5 -->
<g id="edge4" class="edge"><title>Node4&#45;&gt;Node5</title>
<path fill="none" stroke="midnightblue" d="M438.966,-74.4556C430.699,-72.085 421.535,-69.6986 413,-68 278.696,-41.2703 241.599,-57.2017 107,-32 101.106,-30.8964 94.9245,-29.529 88.8845,-28.0727"/>
<polygon fill="midnightblue" stroke="midnightblue" points="89.4804,-24.6136 78.9287,-25.5687 87.7729,-31.4022 89.4804,-24.6136"/>
</g>
<!-- Node6 -->
<g id="node6" class="node"><title>Node6</title>
<polygon fill="white" stroke="#bfbfbf" points="116.5,-6.5 116.5,-25.5 215.5,-25.5 215.5,-6.5 116.5,-6.5"/>
<text text-anchor="middle" x="166" y="-13.5" font-family="Helvetica,sans-Serif" font-size="10.00">mars/utils/Vector.h</text>
</g>
<!-- Node4&#45;&gt;Node6 -->
<g id="edge5" class="edge"><title>Node4&#45;&gt;Node6</title>
<path fill="none" stroke="midnightblue" d="M437.513,-74.4428C429.611,-72.2043 421.004,-69.891 413,-68 329.781,-48.338 307.437,-50.715 224,-32 218.609,-30.7907 212.957,-29.4373 207.386,-28.0518"/>
<polygon fill="midnightblue" stroke="midnightblue" points="208.071,-24.6147 197.517,-25.5472 206.349,-31.3996 208.071,-24.6147"/>
</g>
<!-- Node7 -->
<g id="node7" class="node"><title>Node7</title>
<polygon fill="white" stroke="#bfbfbf" points="233.5,-1 233.5,-31 336.5,-31 336.5,-1 233.5,-1"/>
<text text-anchor="start" x="241.5" y="-19" font-family="Helvetica,sans-Serif" font-size="10.00">mars/interfaces/sim</text>
<text text-anchor="middle" x="285" y="-8" font-family="Helvetica,sans-Serif" font-size="10.00">_common.h</text>
</g>
<!-- Node4&#45;&gt;Node7 -->
<g id="edge6" class="edge"><title>Node4&#45;&gt;Node7</title>
<path fill="none" stroke="midnightblue" d="M442.337,-74.3717C414.747,-64.3109 368.43,-47.4219 333.174,-34.5662"/>
<polygon fill="midnightblue" stroke="midnightblue" points="334.142,-31.1938 323.548,-31.0562 331.744,-37.7703 334.142,-31.1938"/>
</g>
<!-- Node8 -->
<g id="node8" class="node"><title>Node8</title>
<polygon fill="white" stroke="#bfbfbf" points="354.5,-1 354.5,-31 457.5,-31 457.5,-1 354.5,-1"/>
<text text-anchor="start" x="362.5" y="-19" font-family="Helvetica,sans-Serif" font-size="10.00">mars/interfaces/sim</text>
<text text-anchor="middle" x="406" y="-8" font-family="Helvetica,sans-Serif" font-size="10.00">/ControlCenter.h</text>
</g>
<!-- Node4&#45;&gt;Node8 -->
<g id="edge7" class="edge"><title>Node4&#45;&gt;Node8</title>
<path fill="none" stroke="midnightblue" d="M458.156,-74.3717C449.974,-65.3715 436.824,-50.9067 425.776,-38.7534"/>
<polygon fill="midnightblue" stroke="midnightblue" points="428.209,-36.2265 418.892,-31.1815 423.029,-40.9352 428.209,-36.2265"/>
</g>
<!-- Node9 -->
<g id="node9" class="node"><title>Node9</title>
<polygon fill="white" stroke="#bfbfbf" points="475.5,-1 475.5,-31 578.5,-31 578.5,-1 475.5,-1"/>
<text text-anchor="start" x="483.5" y="-19" font-family="Helvetica,sans-Serif" font-size="10.00">mars/interfaces/sim</text>
<text text-anchor="middle" x="527" y="-8" font-family="Helvetica,sans-Serif" font-size="10.00">/PhysicsInterface.h</text>
</g>
<!-- Node4&#45;&gt;Node9 -->
<g id="edge8" class="edge"><title>Node4&#45;&gt;Node9</title>
<path fill="none" stroke="midnightblue" d="M473.975,-74.3717C482.293,-65.3715 495.662,-50.9067 506.895,-38.7534"/>
<polygon fill="midnightblue" stroke="midnightblue" points="509.676,-40.9009 513.893,-31.1815 504.535,-36.1496 509.676,-40.9009"/>
</g>
<!-- Node10 -->
<g id="node10" class="node"><title>Node10</title>
<polygon fill="white" stroke="#bfbfbf" points="597,-1 597,-31 721,-31 721,-1 597,-1"/>
<text text-anchor="start" x="605" y="-19" font-family="Helvetica,sans-Serif" font-size="10.00">mars/interfaces/graphics</text>
<text text-anchor="middle" x="659" y="-8" font-family="Helvetica,sans-Serif" font-size="10.00">/draw_structs.h</text>
</g>
<!-- Node4&#45;&gt;Node10 -->
<g id="edge9" class="edge"><title>Node4&#45;&gt;Node10</title>
<path fill="none" stroke="midnightblue" d="M491.231,-74.3717C520.777,-64.2679 570.462,-47.2774 608.113,-34.4016"/>
<polygon fill="midnightblue" stroke="midnightblue" points="609.567,-37.6037 617.896,-31.0562 607.302,-30.9803 609.567,-37.6037"/>
</g>
<!-- Node11 -->
<g id="node11" class="node"><title>Node11</title>
<polygon fill="white" stroke="#bfbfbf" points="739,-6.5 739,-25.5 783,-25.5 783,-6.5 739,-6.5"/>
<text text-anchor="middle" x="761" y="-13.5" font-family="Helvetica,sans-Serif" font-size="10.00">vector</text>
</g>
<!-- Node4&#45;&gt;Node11 -->
<g id="edge10" class="edge"><title>Node4&#45;&gt;Node11</title>
<path fill="none" stroke="midnightblue" d="M494.189,-74.4231C502.166,-72.1595 510.886,-69.8383 519,-68 611.354,-47.0768 638.649,-60.3511 729,-32 731.14,-31.3284 733.322,-30.5426 735.49,-29.689"/>
<polygon fill="midnightblue" stroke="midnightblue" points="736.965,-32.864 744.73,-25.6563 734.165,-26.4484 736.965,-32.864"/>
</g>
<!-- Node12 -->
<g id="node12" class="node"><title>Node12</title>
<polygon fill="white" stroke="#bfbfbf" points="801.5,-6.5 801.5,-25.5 860.5,-25.5 860.5,-6.5 801.5,-6.5"/>
<text text-anchor="middle" x="831" y="-13.5" font-family="Helvetica,sans-Serif" font-size="10.00">ode/ode.h</text>
</g>
<!-- Node4&#45;&gt;Node12 -->
<g id="edge11" class="edge"><title>Node4&#45;&gt;Node12</title>
<path fill="none" stroke="midnightblue" d="M493.322,-74.4544C501.519,-72.1118 510.571,-69.741 519,-68 638.422,-43.332 672.704,-61.5993 791,-32 794.413,-31.146 797.935,-30.0935 801.408,-28.9452"/>
<polygon fill="midnightblue" stroke="midnightblue" points="802.695,-32.2019 810.935,-25.5415 800.34,-25.61 802.695,-32.2019"/>
</g>
<!-- Node15&#45;&gt;Node4 -->
<g id="edge15" class="edge"><title>Node15&#45;&gt;Node4</title>
<path fill="none" stroke="midnightblue" d="M380.328,-136.403C396.664,-126.601 423.602,-110.439 442.912,-98.8526"/>
<polygon fill="midnightblue" stroke="midnightblue" points="444.925,-101.727 451.699,-93.5806 441.323,-95.7244 444.925,-101.727"/>
</g>
<!-- Node15&#45;&gt;Node14 -->
<g id="edge16" class="edge"><title>Node15&#45;&gt;Node14</title>
<path fill="none" stroke="midnightblue" d="M364.137,-136.403C362.591,-129.265 360.313,-118.752 358.22,-109.09"/>
<polygon fill="midnightblue" stroke="midnightblue" points="361.602,-108.173 356.064,-99.1408 354.761,-109.655 361.602,-108.173"/>
</g>
</g>
</svg>
