<?xml version="1.0" encoding="UTF-8" standalone="no"?>
<!DOCTYPE svg PUBLIC "-//W3C//DTD SVG 1.1//EN"
 "http://www.w3.org/Graphics/SVG/1.1/DTD/svg11.dtd">
<!-- Generated by graphviz version 2.26.3 (20100126.1600)
 -->
<!-- Title: mars::sim_state::SimState Pages: 1 -->
<svg width="486pt" height="151pt"
 viewBox="0.00 0.00 486.00 151.00" xmlns="http://www.w3.org/2000/svg" xmlns:xlink="http://www.w3.org/1999/xlink">
<g id="graph1" class="graph" transform="scale(1 1) rotate(0) translate(4 147)">
<title>mars::sim_state::SimState</title>
<polygon fill="white" stroke="white" points="-4,5 -4,-147 483,-147 483,5 -4,5"/>
<!-- Node1 -->
<g id="node1" class="node"><title>Node1</title>
<polygon fill="#bfbfbf" stroke="black" points="344,-46.5 344,-67.5 478,-67.5 478,-46.5 344,-46.5"/>
<text text-anchor="middle" x="411" y="-54.5" font-family="Helvetica,sans-Serif" font-size="10.00">mars::sim_state::SimState</text>
</g>
<!-- Node2 -->
<g id="node2" class="node"><title>Node2</title>
<a xlink:href="../../da/df1/classmars_1_1interfaces_1_1_mars_plugin_template_g_u_i.html" target="_top" xlink:title="mars::interfaces::MarsPlugin\lTemplateGUI">
<polygon fill="white" stroke="black" points="161,-92 161,-126 303,-126 303,-92 161,-92"/>
<text text-anchor="start" x="169" y="-113" font-family="Helvetica,sans-Serif" font-size="10.00">mars::interfaces::MarsPlugin</text>
<text text-anchor="middle" x="232" y="-100" font-family="Helvetica,sans-Serif" font-size="10.00">TemplateGUI</text>
</a>
</g>
<!-- Node2&#45;&gt;Node1 -->
<g id="edge2" class="edge"><title>Node2&#45;&gt;Node1</title>
<path fill="none" stroke="midnightblue" d="M300.527,-89.0928C325.79,-81.7536 353.416,-73.7282 374.723,-67.5386"/>
<polygon fill="midnightblue" stroke="midnightblue" points="299.238,-85.8224 290.611,-91.9733 301.191,-92.5445 299.238,-85.8224"/>
</g>
<!-- Node3 -->
<g id="node4" class="node"><title>Node3</title>
<polygon fill="white" stroke="#bfbfbf" points="26,-121.5 26,-142.5 94,-142.5 94,-121.5 26,-121.5"/>
<text text-anchor="middle" x="60" y="-129.5" font-family="Helvetica,sans-Serif" font-size="10.00">LibInterface</text>
</g>
<!-- Node3&#45;&gt;Node2 -->
<g id="edge4" class="edge"><title>Node3&#45;&gt;Node2</title>
<path fill="none" stroke="midnightblue" d="M104.639,-126.031C121.744,-123.743 141.715,-121.073 160.7,-118.534"/>
<polygon fill="midnightblue" stroke="midnightblue" points="103.841,-122.606 94.3934,-127.401 104.769,-129.545 103.841,-122.606"/>
</g>
<!-- Node4 -->
<g id="node6" class="node"><title>Node4</title>
<a xlink:href="../../d1/d70/classmars_1_1interfaces_1_1_plugin_interface.html" target="_top" xlink:title="The interface to load plugin dynamically into the simulation. ">
<polygon fill="white" stroke="black" points="0,-69 0,-103 120,-103 120,-69 0,-69"/>
<text text-anchor="start" x="8" y="-90" font-family="Helvetica,sans-Serif" font-size="10.00">mars::interfaces::Plugin</text>
<text text-anchor="middle" x="60" y="-77" font-family="Helvetica,sans-Serif" font-size="10.00">Interface</text>
</a>
</g>
<!-- Node4&#45;&gt;Node2 -->
<g id="edge6" class="edge"><title>Node4&#45;&gt;Node2</title>
<path fill="none" stroke="midnightblue" d="M130.184,-95.385C140.334,-96.7423 150.788,-98.1403 160.955,-99.4998"/>
<polygon fill="midnightblue" stroke="midnightblue" points="130.533,-91.9007 120.157,-94.0443 129.605,-98.8389 130.533,-91.9007"/>
</g>
<!-- Node5 -->
<g id="node8" class="node"><title>Node5</title>
<a xlink:href="../../d0/d0e/classmars_1_1data__broker_1_1_receiver_interface.html" target="_top" xlink:title="Interface for classes that want to receive data from the DataBroker. ">
<polygon fill="white" stroke="black" points="181.5,-40 181.5,-74 282.5,-74 282.5,-40 181.5,-40"/>
<text text-anchor="start" x="189.5" y="-61" font-family="Helvetica,sans-Serif" font-size="10.00">mars::data_broker::</text>
<text text-anchor="middle" x="232" y="-48" font-family="Helvetica,sans-Serif" font-size="10.00">ReceiverInterface</text>
</a>
</g>
<!-- Node5&#45;&gt;Node1 -->
<g id="edge8" class="edge"><title>Node5&#45;&gt;Node1</title>
<path fill="none" stroke="midnightblue" d="M292.854,-57C309.315,-57 327.22,-57 343.997,-57"/>
<polygon fill="midnightblue" stroke="midnightblue" points="292.815,-53.5001 282.815,-57 292.815,-60.5001 292.815,-53.5001"/>
</g>
<!-- Node6 -->
<g id="node10" class="node"><title>Node6</title>
<a xlink:href="../../d3/d52/classmars_1_1main__gui_1_1_menu_interface.html" target="_top" xlink:title="Provides the menuAction function. ">
<polygon fill="white" stroke="black" points="156,-0.5 156,-21.5 308,-21.5 308,-0.5 156,-0.5"/>
<text text-anchor="middle" x="232" y="-8.5" font-family="Helvetica,sans-Serif" font-size="10.00">mars::main_gui::MenuInterface</text>
</a>
</g>
<!-- Node6&#45;&gt;Node1 -->
<g id="edge10" class="edge"><title>Node6&#45;&gt;Node1</title>
<path fill="none" stroke="midnightblue" d="M282.942,-24.0913C310.562,-31.1892 344.24,-39.8437 370.125,-46.4958"/>
<polygon fill="midnightblue" stroke="midnightblue" points="283.623,-20.6525 273.066,-21.5533 281.88,-27.4322 283.623,-20.6525"/>
</g>
</g>
</svg>
