<?xml version="1.0" encoding="UTF-8" standalone="no"?>
<!DOCTYPE svg PUBLIC "-//W3C//DTD SVG 1.1//EN"
 "http://www.w3.org/Graphics/SVG/1.1/DTD/svg11.dtd">
<!-- Generated by graphviz version 2.26.3 (20100126.1600)
 -->
<!-- Title: /home/kavonszadkowski/limes&#45;dev/simulation/mars/graphics/src/wrapper/OSGMaterialStruct.h Pages: 1 -->
<svg width="500pt" height="168pt"
 viewBox="0.00 0.00 500.00 168.00" xmlns="http://www.w3.org/2000/svg" xmlns:xlink="http://www.w3.org/1999/xlink">
<g id="graph1" class="graph" transform="scale(1 1) rotate(0) translate(4 164)">
<title>/home/kavonszadkowski/limes&#45;dev/simulation/mars/graphics/src/wrapper/OSGMaterialStruct.h</title>
<polygon fill="white" stroke="white" points="-4,5 -4,-164 497,-164 497,5 -4,5"/>
<!-- Node1 -->
<g id="node1" class="node"><title>Node1</title>
<polygon fill="#bfbfbf" stroke="black" points="174.5,-99 174.5,-159 309.5,-159 309.5,-99 174.5,-99"/>
<text text-anchor="start" x="182.5" y="-146" font-family="Helvetica,sans-Serif" font-size="10.00">/home/kavonszadkowski</text>
<text text-anchor="start" x="182.5" y="-133" font-family="Helvetica,sans-Serif" font-size="10.00">/limes&#45;dev/simulation</text>
<text text-anchor="start" x="182.5" y="-120" font-family="Helvetica,sans-Serif" font-size="10.00">/mars/graphics/src/wrapper</text>
<text text-anchor="middle" x="242" y="-107" font-family="Helvetica,sans-Serif" font-size="10.00">/OSGMaterialStruct.h</text>
</g>
<!-- Node2 -->
<g id="node3" class="node"><title>Node2</title>
<a xlink:href="../../d1/de8/_draw_object_8cpp.html" target="_top" xlink:title="/home/kavonszadkowski\l/limes&#45;dev/simulation\l/mars/graphics/src/3d\l_objects/DrawObject.cpp">
<polygon fill="white" stroke="black" points="-0.5,-1 -0.5,-61 126.5,-61 126.5,-1 -0.5,-1"/>
<text text-anchor="start" x="7.5" y="-48" font-family="Helvetica,sans-Serif" font-size="10.00">/home/kavonszadkowski</text>
<text text-anchor="start" x="7.5" y="-35" font-family="Helvetica,sans-Serif" font-size="10.00">/limes&#45;dev/simulation</text>
<text text-anchor="start" x="7.5" y="-22" font-family="Helvetica,sans-Serif" font-size="10.00">/mars/graphics/src/3d</text>
<text text-anchor="middle" x="63" y="-9" font-family="Helvetica,sans-Serif" font-size="10.00">_objects/DrawObject.cpp</text>
</a>
</g>
<!-- Node1&#45;&gt;Node2 -->
<g id="edge2" class="edge"><title>Node1&#45;&gt;Node2</title>
<path fill="none" stroke="midnightblue" d="M177.96,-93.939C158.342,-83.1982 136.943,-71.4827 117.984,-61.1032"/>
<polygon fill="midnightblue" stroke="midnightblue" points="176.381,-97.0648 186.834,-98.7971 179.743,-90.9248 176.381,-97.0648"/>
</g>
<!-- Node3 -->
<g id="node5" class="node"><title>Node3</title>
<a xlink:href="../../d7/d19/_graphics_manager_8cpp.html" target="_top" xlink:title="/home/kavonszadkowski\l/limes&#45;dev/simulation\l/mars/graphics/src/GraphicsManager.cpp">
<polygon fill="white" stroke="black" points="144,-7.5 144,-54.5 340,-54.5 340,-7.5 144,-7.5"/>
<text text-anchor="start" x="152" y="-41.5" font-family="Helvetica,sans-Serif" font-size="10.00">/home/kavonszadkowski</text>
<text text-anchor="start" x="152" y="-28.5" font-family="Helvetica,sans-Serif" font-size="10.00">/limes&#45;dev/simulation</text>
<text text-anchor="middle" x="242" y="-15.5" font-family="Helvetica,sans-Serif" font-size="10.00">/mars/graphics/src/GraphicsManager.cpp</text>
</a>
</g>
<!-- Node1&#45;&gt;Node3 -->
<g id="edge4" class="edge"><title>Node1&#45;&gt;Node3</title>
<path fill="none" stroke="midnightblue" d="M242,-88.5002C242,-77.0087 242,-64.8739 242,-54.7289"/>
<polygon fill="midnightblue" stroke="midnightblue" points="238.5,-88.7971 242,-98.7971 245.5,-88.7972 238.5,-88.7971"/>
</g>
<!-- Node4 -->
<g id="node7" class="node"><title>Node4</title>
<a xlink:href="../../de/d77/_o_s_g_material_struct_8cpp.html" target="_top" xlink:title="/home/kavonszadkowski\l/limes&#45;dev/simulation\l/mars/graphics/src/wrapper\l/OSGMaterialStruct.cpp">
<polygon fill="white" stroke="black" points="357.5,-1 357.5,-61 492.5,-61 492.5,-1 357.5,-1"/>
<text text-anchor="start" x="365.5" y="-48" font-family="Helvetica,sans-Serif" font-size="10.00">/home/kavonszadkowski</text>
<text text-anchor="start" x="365.5" y="-35" font-family="Helvetica,sans-Serif" font-size="10.00">/limes&#45;dev/simulation</text>
<text text-anchor="start" x="365.5" y="-22" font-family="Helvetica,sans-Serif" font-size="10.00">/mars/graphics/src/wrapper</text>
<text text-anchor="middle" x="425" y="-9" font-family="Helvetica,sans-Serif" font-size="10.00">/OSGMaterialStruct.cpp</text>
</a>
</g>
<!-- Node1&#45;&gt;Node4 -->
<g id="edge6" class="edge"><title>Node1&#45;&gt;Node4</title>
<path fill="none" stroke="midnightblue" d="M307.471,-93.939C327.528,-83.1982 349.405,-71.4827 368.787,-61.1032"/>
<polygon fill="midnightblue" stroke="midnightblue" points="305.562,-90.9908 298.399,-98.7971 308.867,-97.1616 305.562,-90.9908"/>
</g>
</g>
</svg>
