<?xml version="1.0" encoding="UTF-8" standalone="no"?>
<!DOCTYPE svg PUBLIC "-//W3C//DTD SVG 1.1//EN"
 "http://www.w3.org/Graphics/SVG/1.1/DTD/svg11.dtd">
<!-- Generated by graphviz version 2.26.3 (20100126.1600)
 -->
<!-- Title: mars::plugins::db_to_cfg::DBMapData Pages: 1 -->
<svg width="112pt" height="142pt"
 viewBox="0.00 0.00 112.00 142.00" xmlns="http://www.w3.org/2000/svg" xmlns:xlink="http://www.w3.org/1999/xlink">
<g id="graph1" class="graph" transform="scale(1 1) rotate(0) translate(4 138)">
<title>mars::plugins::db_to_cfg::DBMapData</title>
<polygon fill="white" stroke="white" points="-4,5 -4,-138 109,-138 109,5 -4,5"/>
<!-- Node1 -->
<g id="node1" class="node"><title>Node1</title>
<polygon fill="#bfbfbf" stroke="black" points="-0.5,-1 -0.5,-35 104.5,-35 104.5,-1 -0.5,-1"/>
<text text-anchor="start" x="7.5" y="-22" font-family="Helvetica,sans-Serif" font-size="10.00">mars::plugins::db_to</text>
<text text-anchor="middle" x="52" y="-9" font-family="Helvetica,sans-Serif" font-size="10.00">_cfg::DBMapData</text>
</g>
<!-- Node2 -->
<g id="node2" class="node"><title>Node2</title>
<polygon fill="white" stroke="#bfbfbf" points="31.5,-112.5 31.5,-133.5 72.5,-133.5 72.5,-112.5 31.5,-112.5"/>
<text text-anchor="middle" x="52" y="-120.5" font-family="Helvetica,sans-Serif" font-size="10.00">string</text>
</g>
<!-- Node2&#45;&gt;Node1 -->
<g id="edge2" class="edge"><title>Node2&#45;&gt;Node1</title>
<path fill="none" stroke="#9a32cd" stroke-dasharray="5,2" d="M52,-102.097C52,-82.4787 52,-53.4874 52,-35.1807"/>
<polygon fill="#9a32cd" stroke="#9a32cd" points="48.5001,-102.159 52,-112.159 55.5001,-102.159 48.5001,-102.159"/>
<text text-anchor="middle" x="75" y="-84.5" font-family="Helvetica,sans-Serif" font-size="10.00"> cfgGroup</text>
<text text-anchor="middle" x="75" y="-71.5" font-family="Helvetica,sans-Serif" font-size="10.00">cfgName</text>
<text text-anchor="middle" x="75" y="-58.5" font-family="Helvetica,sans-Serif" font-size="10.00">dataName</text>
</g>
</g>
</svg>
