<?xml version="1.0" encoding="UTF-8" standalone="no"?>
<!DOCTYPE svg PUBLIC "-//W3C//DTD SVG 1.1//EN"
 "http://www.w3.org/Graphics/SVG/1.1/DTD/svg11.dtd">
<!-- Generated by graphviz version 2.26.3 (20100126.1600)
 -->
<!-- Title: /home/kavonszadkowski/limes&#45;dev/simulation/mars/gui/src/NodeSelectionTree.cpp Pages: 1 -->
<svg width="906pt" height="200pt"
 viewBox="0.00 0.00 906.00 200.00" xmlns="http://www.w3.org/2000/svg" xmlns:xlink="http://www.w3.org/1999/xlink">
<g id="graph1" class="graph" transform="scale(1 1) rotate(0) translate(4 196)">
<title>/home/kavonszadkowski/limes&#45;dev/simulation/mars/gui/src/NodeSelectionTree.cpp</title>
<polygon fill="white" stroke="white" points="-4,5 -4,-196 903,-196 903,5 -4,5"/>
<!-- Node1 -->
<g id="node1" class="node"><title>Node1</title>
<polygon fill="#bfbfbf" stroke="black" points="573.5,-144.5 573.5,-191.5 752.5,-191.5 752.5,-144.5 573.5,-144.5"/>
<text text-anchor="start" x="581.5" y="-178.5" font-family="Helvetica,sans-Serif" font-size="10.00">/home/kavonszadkowski</text>
<text text-anchor="start" x="581.5" y="-165.5" font-family="Helvetica,sans-Serif" font-size="10.00">/limes&#45;dev/simulation</text>
<text text-anchor="middle" x="663" y="-152.5" font-family="Helvetica,sans-Serif" font-size="10.00">/mars/gui/src/NodeSelectionTree.cpp</text>
</g>
<!-- Node2 -->
<g id="node3" class="node"><title>Node2</title>
<a xlink:href="../../df/d28/_node_selection_tree_8h.html" target="_top" xlink:title="A widget for node selection with different selection options. ">
<polygon fill="white" stroke="black" points="398,-79.5 398,-100.5 506,-100.5 506,-79.5 398,-79.5"/>
<text text-anchor="middle" x="452" y="-87.5" font-family="Helvetica,sans-Serif" font-size="10.00">NodeSelectionTree.h</text>
</a>
</g>
<!-- Node1&#45;&gt;Node2 -->
<g id="edge2" class="edge"><title>Node1&#45;&gt;Node2</title>
<path fill="none" stroke="midnightblue" d="M599.407,-144.492C563.712,-131.296 520.375,-115.276 489.96,-104.033"/>
<polygon fill="midnightblue" stroke="midnightblue" points="491.158,-100.744 480.565,-100.56 488.731,-107.31 491.158,-100.744"/>
</g>
<!-- Node9 -->
<g id="node17" class="node"><title>Node9</title>
<polygon fill="white" stroke="#bfbfbf" points="523.5,-73 523.5,-107 650.5,-107 650.5,-73 523.5,-73"/>
<text text-anchor="start" x="531.5" y="-94" font-family="Helvetica,sans-Serif" font-size="10.00">mars/interfaces/sim</text>
<text text-anchor="middle" x="587" y="-81" font-family="Helvetica,sans-Serif" font-size="10.00">/NodeManagerInterface.h</text>
</g>
<!-- Node1&#45;&gt;Node9 -->
<g id="edge16" class="edge"><title>Node1&#45;&gt;Node9</title>
<path fill="none" stroke="midnightblue" d="M639.785,-144.174C630.553,-134.699 619.943,-123.81 610.668,-114.291"/>
<polygon fill="midnightblue" stroke="midnightblue" points="613.053,-111.723 603.567,-107.003 608.039,-116.608 613.053,-111.723"/>
</g>
<!-- Node10 -->
<g id="node19" class="node"><title>Node10</title>
<polygon fill="white" stroke="#bfbfbf" points="667.5,-73 667.5,-107 810.5,-107 810.5,-73 667.5,-73"/>
<text text-anchor="start" x="675.5" y="-94" font-family="Helvetica,sans-Serif" font-size="10.00">mars/interfaces/graphics</text>
<text text-anchor="middle" x="739" y="-81" font-family="Helvetica,sans-Serif" font-size="10.00">/GraphicsManagerInterface.h</text>
</g>
<!-- Node1&#45;&gt;Node10 -->
<g id="edge18" class="edge"><title>Node1&#45;&gt;Node10</title>
<path fill="none" stroke="midnightblue" d="M686.215,-144.174C695.447,-134.699 706.057,-123.81 715.332,-114.291"/>
<polygon fill="midnightblue" stroke="midnightblue" points="717.961,-116.608 722.433,-107.003 712.947,-111.723 717.961,-116.608"/>
</g>
<!-- Node11 -->
<g id="node21" class="node"><title>Node11</title>
<polygon fill="white" stroke="#bfbfbf" points="827.5,-79.5 827.5,-100.5 898.5,-100.5 898.5,-79.5 827.5,-79.5"/>
<text text-anchor="middle" x="863" y="-87.5" font-family="Helvetica,sans-Serif" font-size="10.00">QGridLayout</text>
</g>
<!-- Node1&#45;&gt;Node11 -->
<g id="edge20" class="edge"><title>Node1&#45;&gt;Node11</title>
<path fill="none" stroke="midnightblue" d="M725.365,-144.359C753.954,-133.433 788.252,-120.201 819,-108 821.898,-106.85 824.9,-105.647 827.91,-104.433"/>
<polygon fill="midnightblue" stroke="midnightblue" points="829.495,-107.567 837.444,-100.561 826.862,-101.081 829.495,-107.567"/>
</g>
<!-- Node3 -->
<g id="node5" class="node"><title>Node3</title>
<polygon fill="white" stroke="#bfbfbf" points="-0.5,-7.5 -0.5,-28.5 144.5,-28.5 144.5,-7.5 -0.5,-7.5"/>
<text text-anchor="middle" x="72" y="-15.5" font-family="Helvetica,sans-Serif" font-size="10.00">mars/main_gui/BaseWidget.h</text>
</g>
<!-- Node2&#45;&gt;Node3 -->
<g id="edge4" class="edge"><title>Node2&#45;&gt;Node3</title>
<path fill="none" stroke="midnightblue" d="M397.861,-80.8928C337.871,-70.6454 238.325,-53.1783 153,-36 144.778,-34.3447 136.107,-32.5114 127.615,-30.6666"/>
<polygon fill="midnightblue" stroke="midnightblue" points="128.286,-27.2305 117.768,-28.5057 126.785,-34.0678 128.286,-27.2305"/>
</g>
<!-- Node4 -->
<g id="node7" class="node"><title>Node4</title>
<polygon fill="white" stroke="#bfbfbf" points="162,-7.5 162,-28.5 318,-28.5 318,-7.5 162,-7.5"/>
<text text-anchor="middle" x="240" y="-15.5" font-family="Helvetica,sans-Serif" font-size="10.00">mars/main_gui/PropertyDialog.h</text>
</g>
<!-- Node2&#45;&gt;Node4 -->
<g id="edge6" class="edge"><title>Node2&#45;&gt;Node4</title>
<path fill="none" stroke="midnightblue" d="M420.719,-79.3762C383.583,-66.7641 321.554,-45.6977 280.71,-31.8259"/>
<polygon fill="midnightblue" stroke="midnightblue" points="281.659,-28.4519 271.064,-28.5501 279.408,-35.0801 281.659,-28.4519"/>
</g>
<!-- Node5 -->
<g id="node9" class="node"><title>Node5</title>
<polygon fill="white" stroke="#bfbfbf" points="335.5,-1 335.5,-35 438.5,-35 438.5,-1 335.5,-1"/>
<text text-anchor="start" x="343.5" y="-22" font-family="Helvetica,sans-Serif" font-size="10.00">mars/interfaces/sim</text>
<text text-anchor="middle" x="387" y="-9" font-family="Helvetica,sans-Serif" font-size="10.00">/ControlCenter.h</text>
</g>
<!-- Node2&#45;&gt;Node5 -->
<g id="edge8" class="edge"><title>Node2&#45;&gt;Node5</title>
<path fill="none" stroke="midnightblue" d="M442.409,-79.3762C433.694,-69.7228 420.508,-55.1163 409.185,-42.5741"/>
<polygon fill="midnightblue" stroke="midnightblue" points="411.731,-40.1717 402.432,-35.0944 406.536,-44.8624 411.731,-40.1717"/>
</g>
<!-- Node6 -->
<g id="node11" class="node"><title>Node6</title>
<polygon fill="white" stroke="#bfbfbf" points="456,-1 456,-35 580,-35 580,-1 456,-1"/>
<text text-anchor="start" x="464" y="-22" font-family="Helvetica,sans-Serif" font-size="10.00">mars/interfaces/graphics</text>
<text text-anchor="middle" x="518" y="-9" font-family="Helvetica,sans-Serif" font-size="10.00">/GraphicsEventClient.h</text>
</g>
<!-- Node2&#45;&gt;Node6 -->
<g id="edge10" class="edge"><title>Node2&#45;&gt;Node6</title>
<path fill="none" stroke="midnightblue" d="M461.739,-79.3762C470.587,-69.7228 483.977,-55.1163 495.474,-42.5741"/>
<polygon fill="midnightblue" stroke="midnightblue" points="498.153,-44.831 502.33,-35.0944 492.993,-40.1009 498.153,-44.831"/>
</g>
<!-- Node7 -->
<g id="node13" class="node"><title>Node7</title>
<polygon fill="white" stroke="#bfbfbf" points="597.5,-1 597.5,-35 706.5,-35 706.5,-1 597.5,-1"/>
<text text-anchor="start" x="605.5" y="-22" font-family="Helvetica,sans-Serif" font-size="10.00">mars/interfaces/core</text>
<text text-anchor="middle" x="652" y="-9" font-family="Helvetica,sans-Serif" font-size="10.00">_objects_exchange.h</text>
</g>
<!-- Node2&#45;&gt;Node7 -->
<g id="edge12" class="edge"><title>Node2&#45;&gt;Node7</title>
<path fill="none" stroke="midnightblue" d="M481.511,-79.3762C511.235,-68.6755 557.865,-51.8887 594.85,-38.5739"/>
<polygon fill="midnightblue" stroke="midnightblue" points="596.292,-41.7747 604.516,-35.0944 593.921,-35.1885 596.292,-41.7747"/>
</g>
<!-- Node8 -->
<g id="node15" class="node"><title>Node8</title>
<polygon fill="white" stroke="#bfbfbf" points="724,-7.5 724,-28.5 798,-28.5 798,-7.5 724,-7.5"/>
<text text-anchor="middle" x="761" y="-15.5" font-family="Helvetica,sans-Serif" font-size="10.00">QTreeWidget</text>
</g>
<!-- Node2&#45;&gt;Node8 -->
<g id="edge14" class="edge"><title>Node2&#45;&gt;Node8</title>
<path fill="none" stroke="midnightblue" d="M486.498,-79.4695C495.71,-76.8426 505.693,-74.1616 515,-72 602.976,-51.5683 628.09,-60.5724 715,-36 718.881,-34.9027 722.889,-33.601 726.845,-32.2071"/>
<polygon fill="midnightblue" stroke="midnightblue" points="728.328,-35.3898 736.475,-28.6162 725.882,-28.831 728.328,-35.3898"/>
</g>
</g>
</svg>
