<?xml version="1.0" encoding="UTF-8" standalone="no"?>
<!DOCTYPE svg PUBLIC "-//W3C//DTD SVG 1.1//EN"
 "http://www.w3.org/Graphics/SVG/1.1/DTD/svg11.dtd">
<!-- Generated by graphviz version 2.36.0 (20140111.2315)
 -->
<!-- Title: mars::sim::HapticFieldConfig Pages: 1 -->
<svg width="152pt" height="154pt"
 viewBox="0.00 0.00 152.00 154.00" xmlns="http://www.w3.org/2000/svg" xmlns:xlink="http://www.w3.org/1999/xlink">
<g id="graph0" class="graph" transform="scale(1 1) rotate(0) translate(4 150)">
<title>mars::sim::HapticFieldConfig</title>
<polygon fill="white" stroke="none" points="-4,4 -4,-150 148,-150 148,4 -4,4"/>
<!-- Node1 -->
<g id="node1" class="node"><title>Node1</title>
<polygon fill="#bfbfbf" stroke="black" points="0,-0.5 0,-19.5 144,-19.5 144,-0.5 0,-0.5"/>
<text text-anchor="middle" x="72" y="-7.5" font-family="Helvetica,sans-Serif" font-size="10.00">mars::sim::HapticFieldConfig</text>
</g>
<!-- Node2 -->
<g id="node2" class="node"><title>Node2</title>
<g id="a_node2"><a xlink:href="../../d4/d5f/classmars_1_1interfaces_1_1_base_config.html" target="_top" xlink:title="mars::interfaces::BaseConfig">
<polygon fill="white" stroke="black" points="0,-58.5 0,-77.5 144,-77.5 144,-58.5 0,-58.5"/>
<text text-anchor="middle" x="72" y="-65.5" font-family="Helvetica,sans-Serif" font-size="10.00">mars::interfaces::BaseConfig</text>
</a>
</g>
</g>
<!-- Node2&#45;&gt;Node1 -->
<g id="edge1" class="edge"><title>Node2&#45;&gt;Node1</title>
<path fill="none" stroke="midnightblue" d="M72,-47.953C72,-38.2875 72,-27.0312 72,-19.5052"/>
<polygon fill="midnightblue" stroke="midnightblue" points="68.5001,-48.25 72,-58.25 75.5001,-48.25 68.5001,-48.25"/>
</g>
<!-- Node3 -->
<g id="node3" class="node"><title>Node3</title>
<polygon fill="white" stroke="#bfbfbf" points="51.5,-126.5 51.5,-145.5 92.5,-145.5 92.5,-126.5 51.5,-126.5"/>
<text text-anchor="middle" x="72" y="-133.5" font-family="Helvetica,sans-Serif" font-size="10.00">string</text>
</g>
<!-- Node3&#45;&gt;Node2 -->
<g id="edge2" class="edge"><title>Node3&#45;&gt;Node2</title>
<path fill="none" stroke="#9a32cd" stroke-dasharray="5,2" d="M72,-116.041C72,-103.472 72,-87.5631 72,-77.8411"/>
<polygon fill="#9a32cd" stroke="#9a32cd" points="68.5001,-116.372 72,-126.372 75.5001,-116.372 68.5001,-116.372"/>
<text text-anchor="middle" x="86" y="-99.5" font-family="Helvetica,sans-Serif" font-size="10.00"> name</text>
</g>
</g>
</svg>
