<?xml version="1.0" encoding="UTF-8" standalone="no"?>
<!DOCTYPE svg PUBLIC "-//W3C//DTD SVG 1.1//EN"
 "http://www.w3.org/Graphics/SVG/1.1/DTD/svg11.dtd">
<!-- Generated by graphviz version 2.26.3 (20100126.1600)
 -->
<!-- Title: /home/kavonszadkowski/limes&#45;dev/simulation/mars/gui/src/dialogs/Dialog_Rescale_Environment.h Pages: 1 -->
<svg width="474pt" height="252pt"
 viewBox="0.00 0.00 474.00 252.00" xmlns="http://www.w3.org/2000/svg" xmlns:xlink="http://www.w3.org/1999/xlink">
<g id="graph1" class="graph" transform="scale(1 1) rotate(0) translate(4 248)">
<title>/home/kavonszadkowski/limes&#45;dev/simulation/mars/gui/src/dialogs/Dialog_Rescale_Environment.h</title>
<polygon fill="white" stroke="white" points="-4,5 -4,-248 471,-248 471,5 -4,5"/>
<!-- Node1 -->
<g id="node1" class="node"><title>Node1</title>
<polygon fill="#bfbfbf" stroke="black" points="101.5,-183 101.5,-243 258.5,-243 258.5,-183 101.5,-183"/>
<text text-anchor="start" x="109.5" y="-230" font-family="Helvetica,sans-Serif" font-size="10.00">/home/kavonszadkowski</text>
<text text-anchor="start" x="109.5" y="-217" font-family="Helvetica,sans-Serif" font-size="10.00">/limes&#45;dev/simulation</text>
<text text-anchor="start" x="109.5" y="-204" font-family="Helvetica,sans-Serif" font-size="10.00">/mars/gui/src/dialogs</text>
<text text-anchor="middle" x="180" y="-191" font-family="Helvetica,sans-Serif" font-size="10.00">/Dialog_Rescale_Environment.h</text>
</g>
<!-- Node2 -->
<g id="node3" class="node"><title>Node2</title>
<a xlink:href="../../d2/d24/_dialog___rescale___environment_8cpp.html" target="_top" xlink:title="/home/kavonszadkowski\l/limes&#45;dev/simulation\l/mars/gui/src/dialogs\l/Dialog_Rescale_Environment.cpp">
<polygon fill="white" stroke="black" points="-0.5,-85 -0.5,-145 166.5,-145 166.5,-85 -0.5,-85"/>
<text text-anchor="start" x="7.5" y="-132" font-family="Helvetica,sans-Serif" font-size="10.00">/home/kavonszadkowski</text>
<text text-anchor="start" x="7.5" y="-119" font-family="Helvetica,sans-Serif" font-size="10.00">/limes&#45;dev/simulation</text>
<text text-anchor="start" x="7.5" y="-106" font-family="Helvetica,sans-Serif" font-size="10.00">/mars/gui/src/dialogs</text>
<text text-anchor="middle" x="83" y="-93" font-family="Helvetica,sans-Serif" font-size="10.00">/Dialog_Rescale_Environment.cpp</text>
</a>
</g>
<!-- Node1&#45;&gt;Node2 -->
<g id="edge2" class="edge"><title>Node1&#45;&gt;Node2</title>
<path fill="none" stroke="midnightblue" d="M143.018,-175.637C133.084,-165.6 122.465,-154.871 112.963,-145.272"/>
<polygon fill="midnightblue" stroke="midnightblue" points="140.583,-178.152 150.105,-182.797 145.558,-173.228 140.583,-178.152"/>
</g>
<!-- Node3 -->
<g id="node5" class="node"><title>Node3</title>
<a xlink:href="../../d3/d92/_menu_simulation_8h.html" target="_top" xlink:title="Provides the Simulation and Control menu entries. ">
<polygon fill="white" stroke="black" points="183.5,-91.5 183.5,-138.5 370.5,-138.5 370.5,-91.5 183.5,-91.5"/>
<text text-anchor="start" x="191.5" y="-125.5" font-family="Helvetica,sans-Serif" font-size="10.00">/home/kavonszadkowski</text>
<text text-anchor="start" x="191.5" y="-112.5" font-family="Helvetica,sans-Serif" font-size="10.00">/limes&#45;dev/simulation</text>
<text text-anchor="middle" x="277" y="-99.5" font-family="Helvetica,sans-Serif" font-size="10.00">/mars/gui/src/menus/MenuSimulation.h</text>
</a>
</g>
<!-- Node1&#45;&gt;Node3 -->
<g id="edge4" class="edge"><title>Node1&#45;&gt;Node3</title>
<path fill="none" stroke="midnightblue" d="M216.971,-175.648C229.238,-163.254 242.55,-149.806 253.513,-138.729"/>
<polygon fill="midnightblue" stroke="midnightblue" points="214.442,-173.228 209.895,-182.797 219.417,-178.152 214.442,-173.228"/>
</g>
<!-- Node4 -->
<g id="node7" class="node"><title>Node4</title>
<a xlink:href="../../da/d1e/_mars_gui_8cpp.html" target="_top" xlink:title="/home/kavonszadkowski\l/limes&#45;dev/simulation\l/mars/gui/src/MarsGui.cpp">
<polygon fill="white" stroke="black" points="120,-0.5 120,-47.5 252,-47.5 252,-0.5 120,-0.5"/>
<text text-anchor="start" x="128" y="-34.5" font-family="Helvetica,sans-Serif" font-size="10.00">/home/kavonszadkowski</text>
<text text-anchor="start" x="128" y="-21.5" font-family="Helvetica,sans-Serif" font-size="10.00">/limes&#45;dev/simulation</text>
<text text-anchor="middle" x="186" y="-8.5" font-family="Helvetica,sans-Serif" font-size="10.00">/mars/gui/src/MarsGui.cpp</text>
</a>
</g>
<!-- Node3&#45;&gt;Node4 -->
<g id="edge6" class="edge"><title>Node3&#45;&gt;Node4</title>
<path fill="none" stroke="midnightblue" d="M245.94,-83.9399C234.1,-72.1 220.805,-58.8047 209.749,-47.7495"/>
<polygon fill="midnightblue" stroke="midnightblue" points="243.545,-86.4946 253.091,-91.0908 248.495,-81.5448 243.545,-86.4946"/>
</g>
<!-- Node5 -->
<g id="node9" class="node"><title>Node5</title>
<a xlink:href="../../d9/d82/_menu_simulation_8cpp.html" target="_top" xlink:title="/home/kavonszadkowski\l/limes&#45;dev/simulation\l/mars/gui/src/menus/MenuSimulation.cpp">
<polygon fill="white" stroke="black" points="269.5,-0.5 269.5,-47.5 466.5,-47.5 466.5,-0.5 269.5,-0.5"/>
<text text-anchor="start" x="277.5" y="-34.5" font-family="Helvetica,sans-Serif" font-size="10.00">/home/kavonszadkowski</text>
<text text-anchor="start" x="277.5" y="-21.5" font-family="Helvetica,sans-Serif" font-size="10.00">/limes&#45;dev/simulation</text>
<text text-anchor="middle" x="368" y="-8.5" font-family="Helvetica,sans-Serif" font-size="10.00">/mars/gui/src/menus/MenuSimulation.cpp</text>
</a>
</g>
<!-- Node3&#45;&gt;Node5 -->
<g id="edge8" class="edge"><title>Node3&#45;&gt;Node5</title>
<path fill="none" stroke="midnightblue" d="M308.06,-83.9399C319.9,-72.1 333.195,-58.8047 344.251,-47.7495"/>
<polygon fill="midnightblue" stroke="midnightblue" points="305.505,-81.5448 300.909,-91.0908 310.455,-86.4946 305.505,-81.5448"/>
</g>
</g>
</svg>
