<?xml version="1.0" encoding="UTF-8" standalone="no"?>
<!DOCTYPE svg PUBLIC "-//W3C//DTD SVG 1.1//EN"
 "http://www.w3.org/Graphics/SVG/1.1/DTD/svg11.dtd">
<!-- Generated by graphviz version 2.26.3 (20100126.1600)
 -->
<!-- Title: /home/kavonszadkowski/limes&#45;dev/simulation/mars/sim/src/core/PhysicsMapper.h Pages: 1 -->
<svg width="862pt" height="258pt"
 viewBox="0.00 0.00 862.00 258.00" xmlns="http://www.w3.org/2000/svg" xmlns:xlink="http://www.w3.org/1999/xlink">
<g id="graph1" class="graph" transform="scale(1 1) rotate(0) translate(4 254)">
<title>/home/kavonszadkowski/limes&#45;dev/simulation/mars/sim/src/core/PhysicsMapper.h</title>
<polygon fill="white" stroke="white" points="-4,5 -4,-254 859,-254 859,5 -4,5"/>
<!-- Node1 -->
<g id="node1" class="node"><title>Node1</title>
<polygon fill="#bfbfbf" stroke="black" points="415.5,-202.5 415.5,-249.5 592.5,-249.5 592.5,-202.5 415.5,-202.5"/>
<text text-anchor="start" x="423.5" y="-236.5" font-family="Helvetica,sans-Serif" font-size="10.00">/home/kavonszadkowski</text>
<text text-anchor="start" x="423.5" y="-223.5" font-family="Helvetica,sans-Serif" font-size="10.00">/limes&#45;dev/simulation</text>
<text text-anchor="middle" x="504" y="-210.5" font-family="Helvetica,sans-Serif" font-size="10.00">/mars/sim/src/core/PhysicsMapper.h</text>
</g>
<!-- Node2 -->
<g id="node3" class="node"><title>Node2</title>
<a xlink:href="../../d6/d89/_world_physics_8h.html" target="_top" xlink:title="&quot;WorldPhysics&quot; includes the methods to handle the physically world. ">
<polygon fill="white" stroke="black" points="420,-79.5 420,-100.5 506,-100.5 506,-79.5 420,-79.5"/>
<text text-anchor="middle" x="463" y="-87.5" font-family="Helvetica,sans-Serif" font-size="10.00">WorldPhysics.h</text>
</a>
</g>
<!-- Node1&#45;&gt;Node2 -->
<g id="edge2" class="edge"><title>Node1&#45;&gt;Node2</title>
<path fill="none" stroke="midnightblue" d="M477.658,-202.261C468.306,-192.124 458.893,-179.515 454,-166 447.458,-147.932 451.181,-126.023 455.657,-110.379"/>
<polygon fill="midnightblue" stroke="midnightblue" points="459.049,-111.265 458.76,-100.674 452.381,-109.133 459.049,-111.265"/>
</g>
<!-- Node11 -->
<g id="node21" class="node"><title>Node11</title>
<a xlink:href="../../d7/d43/_node_physics_8h.html" target="_top" xlink:title="&quot;NodePhysics&quot; implements the physical ode stuff for the nodes. ">
<polygon fill="white" stroke="black" points="462.5,-144.5 462.5,-165.5 545.5,-165.5 545.5,-144.5 462.5,-144.5"/>
<text text-anchor="middle" x="504" y="-152.5" font-family="Helvetica,sans-Serif" font-size="10.00">NodePhysics.h</text>
</a>
</g>
<!-- Node1&#45;&gt;Node11 -->
<g id="edge20" class="edge"><title>Node1&#45;&gt;Node11</title>
<path fill="none" stroke="midnightblue" d="M504,-202.358C504,-193.719 504,-184.022 504,-175.662"/>
<polygon fill="midnightblue" stroke="midnightblue" points="507.5,-175.646 504,-165.646 500.5,-175.646 507.5,-175.646"/>
</g>
<!-- Node13 -->
<g id="node26" class="node"><title>Node13</title>
<a xlink:href="../../dd/dbe/_joint_physics_8h.html" target="_top" xlink:title="JointPhysics.h">
<polygon fill="white" stroke="black" points="562.5,-144.5 562.5,-165.5 643.5,-165.5 643.5,-144.5 562.5,-144.5"/>
<text text-anchor="middle" x="603" y="-152.5" font-family="Helvetica,sans-Serif" font-size="10.00">JointPhysics.h</text>
</a>
</g>
<!-- Node1&#45;&gt;Node13 -->
<g id="edge26" class="edge"><title>Node1&#45;&gt;Node13</title>
<path fill="none" stroke="midnightblue" d="M536.966,-202.358C551.042,-192.263 567.133,-180.723 579.907,-171.561"/>
<polygon fill="midnightblue" stroke="midnightblue" points="582.069,-174.318 588.155,-165.646 577.989,-168.63 582.069,-174.318"/>
</g>
<!-- Node3 -->
<g id="node5" class="node"><title>Node3</title>
<polygon fill="white" stroke="#bfbfbf" points="0,-7.5 0,-28.5 98,-28.5 98,-7.5 0,-7.5"/>
<text text-anchor="middle" x="49" y="-15.5" font-family="Helvetica,sans-Serif" font-size="10.00">mars/utils/Mutex.h</text>
</g>
<!-- Node2&#45;&gt;Node3 -->
<g id="edge4" class="edge"><title>Node2&#45;&gt;Node3</title>
<path fill="none" stroke="midnightblue" d="M419.864,-85.5773C352.504,-78.1965 218.496,-61.6042 107,-36 101.477,-34.7316 95.716,-33.2024 90.061,-31.5777"/>
<polygon fill="midnightblue" stroke="midnightblue" points="90.654,-28.1018 80.0702,-28.586 88.6459,-34.8076 90.654,-28.1018"/>
</g>
<!-- Node4 -->
<g id="node7" class="node"><title>Node4</title>
<polygon fill="white" stroke="#bfbfbf" points="115.5,-7.5 115.5,-28.5 214.5,-28.5 214.5,-7.5 115.5,-7.5"/>
<text text-anchor="middle" x="165" y="-15.5" font-family="Helvetica,sans-Serif" font-size="10.00">mars/utils/Vector.h</text>
</g>
<!-- Node2&#45;&gt;Node4 -->
<g id="edge6" class="edge"><title>Node2&#45;&gt;Node4</title>
<path fill="none" stroke="midnightblue" d="M419.828,-81.3671C371.587,-71.4703 291.286,-54.2474 223,-36 217.91,-34.6399 212.598,-33.125 207.343,-31.5675"/>
<polygon fill="midnightblue" stroke="midnightblue" points="207.969,-28.1001 197.384,-28.5494 205.939,-34.7993 207.969,-28.1001"/>
</g>
<!-- Node5 -->
<g id="node9" class="node"><title>Node5</title>
<polygon fill="white" stroke="#bfbfbf" points="231.5,-1 231.5,-35 334.5,-35 334.5,-1 231.5,-1"/>
<text text-anchor="start" x="239.5" y="-22" font-family="Helvetica,sans-Serif" font-size="10.00">mars/interfaces/sim</text>
<text text-anchor="middle" x="283" y="-9" font-family="Helvetica,sans-Serif" font-size="10.00">_common.h</text>
</g>
<!-- Node2&#45;&gt;Node5 -->
<g id="edge8" class="edge"><title>Node2&#45;&gt;Node5</title>
<path fill="none" stroke="midnightblue" d="M436.44,-79.3762C409.916,-68.7665 368.435,-52.174 335.286,-38.9146"/>
<polygon fill="midnightblue" stroke="midnightblue" points="336.321,-35.5587 325.736,-35.0944 333.721,-42.058 336.321,-35.5587"/>
</g>
<!-- Node6 -->
<g id="node11" class="node"><title>Node6</title>
<polygon fill="white" stroke="#bfbfbf" points="351.5,-1 351.5,-35 454.5,-35 454.5,-1 351.5,-1"/>
<text text-anchor="start" x="359.5" y="-22" font-family="Helvetica,sans-Serif" font-size="10.00">mars/interfaces/sim</text>
<text text-anchor="middle" x="403" y="-9" font-family="Helvetica,sans-Serif" font-size="10.00">/ControlCenter.h</text>
</g>
<!-- Node2&#45;&gt;Node6 -->
<g id="edge10" class="edge"><title>Node2&#45;&gt;Node6</title>
<path fill="none" stroke="midnightblue" d="M454.147,-79.3762C446.178,-69.8138 434.16,-55.3915 423.775,-42.9297"/>
<polygon fill="midnightblue" stroke="midnightblue" points="426.336,-40.5359 417.245,-35.0944 420.958,-45.0173 426.336,-40.5359"/>
</g>
<!-- Node7 -->
<g id="node13" class="node"><title>Node7</title>
<polygon fill="white" stroke="#bfbfbf" points="471.5,-1 471.5,-35 574.5,-35 574.5,-1 471.5,-1"/>
<text text-anchor="start" x="479.5" y="-22" font-family="Helvetica,sans-Serif" font-size="10.00">mars/interfaces/sim</text>
<text text-anchor="middle" x="523" y="-9" font-family="Helvetica,sans-Serif" font-size="10.00">/PhysicsInterface.h</text>
</g>
<!-- Node2&#45;&gt;Node7 -->
<g id="edge12" class="edge"><title>Node2&#45;&gt;Node7</title>
<path fill="none" stroke="midnightblue" d="M471.853,-79.3762C479.822,-69.8138 491.84,-55.3915 502.225,-42.9297"/>
<polygon fill="midnightblue" stroke="midnightblue" points="505.042,-45.0173 508.755,-35.0944 499.664,-40.5359 505.042,-45.0173"/>
</g>
<!-- Node8 -->
<g id="node15" class="node"><title>Node8</title>
<polygon fill="white" stroke="#bfbfbf" points="592,-1 592,-35 716,-35 716,-1 592,-1"/>
<text text-anchor="start" x="600" y="-22" font-family="Helvetica,sans-Serif" font-size="10.00">mars/interfaces/graphics</text>
<text text-anchor="middle" x="654" y="-9" font-family="Helvetica,sans-Serif" font-size="10.00">/draw_structs.h</text>
</g>
<!-- Node2&#45;&gt;Node8 -->
<g id="edge14" class="edge"><title>Node2&#45;&gt;Node8</title>
<path fill="none" stroke="midnightblue" d="M491.183,-79.3762C519.448,-68.721 563.722,-52.0314 598.971,-38.744"/>
<polygon fill="midnightblue" stroke="midnightblue" points="600.53,-41.8968 608.652,-35.0944 598.061,-35.3467 600.53,-41.8968"/>
</g>
<!-- Node9 -->
<g id="node17" class="node"><title>Node9</title>
<polygon fill="white" stroke="#bfbfbf" points="734,-7.5 734,-28.5 778,-28.5 778,-7.5 734,-7.5"/>
<text text-anchor="middle" x="756" y="-15.5" font-family="Helvetica,sans-Serif" font-size="10.00">vector</text>
</g>
<!-- Node2&#45;&gt;Node9 -->
<g id="edge16" class="edge"><title>Node2&#45;&gt;Node9</title>
<path fill="none" stroke="midnightblue" d="M490.81,-79.4343C498.563,-76.7469 507.043,-74.0447 515,-72 606.715,-48.4335 635.979,-68.2858 725,-36 727.092,-35.2414 729.204,-34.3437 731.289,-33.3605"/>
<polygon fill="midnightblue" stroke="midnightblue" points="732.933,-36.4507 740.123,-28.669 729.649,-30.2686 732.933,-36.4507"/>
</g>
<!-- Node10 -->
<g id="node19" class="node"><title>Node10</title>
<polygon fill="white" stroke="#bfbfbf" points="795.5,-7.5 795.5,-28.5 854.5,-28.5 854.5,-7.5 795.5,-7.5"/>
<text text-anchor="middle" x="825" y="-15.5" font-family="Helvetica,sans-Serif" font-size="10.00">ode/ode.h</text>
</g>
<!-- Node2&#45;&gt;Node10 -->
<g id="edge18" class="edge"><title>Node2&#45;&gt;Node10</title>
<path fill="none" stroke="midnightblue" d="M490.221,-79.4203C498.118,-76.6684 506.819,-73.9364 515,-72 633.664,-43.9129 670.044,-70.517 787,-36 790.151,-35.0702 793.368,-33.911 796.531,-32.632"/>
<polygon fill="midnightblue" stroke="midnightblue" points="798.017,-35.8015 805.736,-28.5443 795.176,-29.4039 798.017,-35.8015"/>
</g>
<!-- Node11&#45;&gt;Node2 -->
<g id="edge22" class="edge"><title>Node11&#45;&gt;Node2</title>
<path fill="none" stroke="midnightblue" d="M497.23,-144.267C491.2,-134.707 482.236,-120.496 474.994,-109.015"/>
<polygon fill="midnightblue" stroke="midnightblue" points="477.94,-107.124 469.644,-100.534 472.019,-110.859 477.94,-107.124"/>
</g>
<!-- Node12 -->
<g id="node24" class="node"><title>Node12</title>
<polygon fill="white" stroke="#bfbfbf" points="523.5,-73 523.5,-107 626.5,-107 626.5,-73 523.5,-73"/>
<text text-anchor="start" x="531.5" y="-94" font-family="Helvetica,sans-Serif" font-size="10.00">mars/interfaces/sim</text>
<text text-anchor="middle" x="575" y="-81" font-family="Helvetica,sans-Serif" font-size="10.00">/NodeInterface.h</text>
</g>
<!-- Node11&#45;&gt;Node12 -->
<g id="edge24" class="edge"><title>Node11&#45;&gt;Node12</title>
<path fill="none" stroke="midnightblue" d="M515.724,-144.267C524.685,-136.063 537.385,-124.436 548.733,-114.047"/>
<polygon fill="midnightblue" stroke="midnightblue" points="551.298,-116.444 556.311,-107.11 546.571,-111.281 551.298,-116.444"/>
</g>
<!-- Node13&#45;&gt;Node2 -->
<g id="edge28" class="edge"><title>Node13&#45;&gt;Node2</title>
<path fill="none" stroke="midnightblue" d="M580.195,-144.412C557.009,-133.647 520.891,-116.878 494.879,-104.801"/>
<polygon fill="midnightblue" stroke="midnightblue" points="496.339,-101.62 485.795,-100.584 493.391,-107.969 496.339,-101.62"/>
</g>
<!-- Node13&#45;&gt;Node12 -->
<g id="edge32" class="edge"><title>Node13&#45;&gt;Node12</title>
<path fill="none" stroke="midnightblue" d="M598.376,-144.267C595.114,-136.694 590.596,-126.205 586.4,-116.464"/>
<polygon fill="midnightblue" stroke="midnightblue" points="589.541,-114.909 582.37,-107.11 583.112,-117.679 589.541,-114.909"/>
</g>
<!-- Node14 -->
<g id="node29" class="node"><title>Node14</title>
<polygon fill="white" stroke="#bfbfbf" points="643.5,-73 643.5,-107 746.5,-107 746.5,-73 643.5,-73"/>
<text text-anchor="start" x="651.5" y="-94" font-family="Helvetica,sans-Serif" font-size="10.00">mars/interfaces/sim</text>
<text text-anchor="middle" x="695" y="-81" font-family="Helvetica,sans-Serif" font-size="10.00">/JointInterface.h</text>
</g>
<!-- Node13&#45;&gt;Node14 -->
<g id="edge30" class="edge"><title>Node13&#45;&gt;Node14</title>
<path fill="none" stroke="midnightblue" d="M618.192,-144.267C630.138,-135.827 647.213,-123.762 662.232,-113.151"/>
<polygon fill="midnightblue" stroke="midnightblue" points="664.635,-115.739 670.783,-107.11 660.596,-110.022 664.635,-115.739"/>
</g>
</g>
</svg>
