<?xml version="1.0" encoding="UTF-8" standalone="no"?>
<!DOCTYPE svg PUBLIC "-//W3C//DTD SVG 1.1//EN"
 "http://www.w3.org/Graphics/SVG/1.1/DTD/svg11.dtd">
<!-- Generated by graphviz version 2.26.3 (20100126.1600)
 -->
<!-- Title: /home/kavonszadkowski/limes&#45;dev/simulation/mars/graphics/src/shader/pixellight.h Pages: 1 -->
<svg width="416pt" height="244pt"
 viewBox="0.00 0.00 416.00 244.00" xmlns="http://www.w3.org/2000/svg" xmlns:xlink="http://www.w3.org/1999/xlink">
<g id="graph1" class="graph" transform="scale(1 1) rotate(0) translate(4 240)">
<title>/home/kavonszadkowski/limes&#45;dev/simulation/mars/graphics/src/shader/pixellight.h</title>
<polygon fill="white" stroke="white" points="-4,5 -4,-240 412.997,-240 412.997,5 -4,5"/>
<!-- Node1 -->
<g id="node1" class="node"><title>Node1</title>
<polygon fill="#bfbfbf" stroke="black" points="141.997,-175 141.997,-235 271.997,-235 271.997,-175 141.997,-175"/>
<text text-anchor="start" x="149.997" y="-222" font-family="Helvetica,sans-Serif" font-size="10.00">/home/kavonszadkowski</text>
<text text-anchor="start" x="149.997" y="-209" font-family="Helvetica,sans-Serif" font-size="10.00">/limes&#45;dev/simulation</text>
<text text-anchor="start" x="149.997" y="-196" font-family="Helvetica,sans-Serif" font-size="10.00">/mars/graphics/src/shader</text>
<text text-anchor="middle" x="206.997" y="-183" font-family="Helvetica,sans-Serif" font-size="10.00">/pixellight.h</text>
</g>
<!-- Node2 -->
<g id="node3" class="node"><title>Node2</title>
<a xlink:href="../../dc/d90/shader-function_8h.html" target="_top" xlink:title="shader&#45;function.h">
<polygon fill="white" stroke="black" points="123.997,-116.5 123.997,-137.5 215.997,-137.5 215.997,-116.5 123.997,-116.5"/>
<text text-anchor="middle" x="169.997" y="-124.5" font-family="Helvetica,sans-Serif" font-size="10.00">shader&#45;function.h</text>
</a>
</g>
<!-- Node1&#45;&gt;Node2 -->
<g id="edge2" class="edge"><title>Node1&#45;&gt;Node2</title>
<path fill="none" stroke="midnightblue" d="M192.586,-174.62C188.153,-165.273 183.389,-155.232 179.385,-146.79"/>
<polygon fill="midnightblue" stroke="midnightblue" points="182.546,-145.288 175.098,-137.753 176.222,-148.289 182.546,-145.288"/>
</g>
<!-- Node7 -->
<g id="node13" class="node"><title>Node7</title>
<polygon fill="white" stroke="#bfbfbf" points="100.497,-0.5 100.497,-21.5 141.497,-21.5 141.497,-0.5 100.497,-0.5"/>
<text text-anchor="middle" x="120.997" y="-8.5" font-family="Helvetica,sans-Serif" font-size="10.00">string</text>
</g>
<!-- Node1&#45;&gt;Node7 -->
<g id="edge26" class="edge"><title>Node1&#45;&gt;Node7</title>
<path fill="none" stroke="midnightblue" d="M141.613,-184.232C94.0815,-165.308 33.164,-132.212 3.99729,-80 -16.6765,-42.991 49.3769,-23.9344 90.5503,-15.8665"/>
<polygon fill="midnightblue" stroke="midnightblue" points="91.2146,-19.3031 100.414,-14.0479 89.9453,-12.4192 91.2146,-19.3031"/>
</g>
<!-- Node8 -->
<g id="node15" class="node"><title>Node8</title>
<polygon fill="white" stroke="#bfbfbf" points="354.997,-58.5 354.997,-79.5 398.997,-79.5 398.997,-58.5 354.997,-58.5"/>
<text text-anchor="middle" x="376.997" y="-66.5" font-family="Helvetica,sans-Serif" font-size="10.00">vector</text>
</g>
<!-- Node1&#45;&gt;Node8 -->
<g id="edge24" class="edge"><title>Node1&#45;&gt;Node8</title>
<path fill="none" stroke="midnightblue" d="M220.071,-174.789C229.607,-155.761 244.149,-131.879 262.997,-116 269.645,-110.399 313.747,-92.986 345.101,-81.004"/>
<polygon fill="midnightblue" stroke="midnightblue" points="346.667,-84.1531 354.769,-77.3264 344.178,-77.6104 346.667,-84.1531"/>
</g>
<!-- Node11 -->
<g id="node22" class="node"><title>Node11</title>
<polygon fill="white" stroke="#bfbfbf" points="271.497,-116.5 271.497,-137.5 408.497,-137.5 408.497,-116.5 271.497,-116.5"/>
<text text-anchor="middle" x="339.997" y="-124.5" font-family="Helvetica,sans-Serif" font-size="10.00">mars/interfaces/LightData.h</text>
</g>
<!-- Node1&#45;&gt;Node11 -->
<g id="edge22" class="edge"><title>Node1&#45;&gt;Node11</title>
<path fill="none" stroke="midnightblue" d="M258.419,-174.843C277.117,-163.877 297.494,-151.927 313.205,-142.713"/>
<polygon fill="midnightblue" stroke="midnightblue" points="315.013,-145.71 321.869,-137.632 311.472,-139.672 315.013,-145.71"/>
</g>
<!-- Node3 -->
<g id="node5" class="node"><title>Node3</title>
<polygon fill="white" stroke="#bfbfbf" points="148.497,-58.5 148.497,-79.5 191.497,-79.5 191.497,-58.5 148.497,-58.5"/>
<text text-anchor="middle" x="169.997" y="-66.5" font-family="Helvetica,sans-Serif" font-size="10.00">cstdio</text>
</g>
<!-- Node2&#45;&gt;Node3 -->
<g id="edge4" class="edge"><title>Node2&#45;&gt;Node3</title>
<path fill="none" stroke="midnightblue" d="M169.997,-116.362C169.997,-108.922 169.997,-98.7427 169.997,-89.7276"/>
<polygon fill="midnightblue" stroke="midnightblue" points="173.497,-89.5706 169.997,-79.5707 166.497,-89.5707 173.497,-89.5706"/>
</g>
<!-- Node4 -->
<g id="node7" class="node"><title>Node4</title>
<polygon fill="white" stroke="#bfbfbf" points="208.997,-58.5 208.997,-79.5 238.997,-79.5 238.997,-58.5 208.997,-58.5"/>
<text text-anchor="middle" x="223.997" y="-66.5" font-family="Helvetica,sans-Serif" font-size="10.00">set</text>
</g>
<!-- Node2&#45;&gt;Node4 -->
<g id="edge6" class="edge"><title>Node2&#45;&gt;Node4</title>
<path fill="none" stroke="midnightblue" d="M179.902,-116.362C187.514,-108.186 198.205,-96.7025 207.154,-87.0907"/>
<polygon fill="midnightblue" stroke="midnightblue" points="209.903,-89.2746 214.156,-79.5707 204.78,-84.5046 209.903,-89.2746"/>
</g>
<!-- Node5 -->
<g id="node9" class="node"><title>Node5</title>
<polygon fill="white" stroke="#bfbfbf" points="12.4973,-58.5 12.4973,-79.5 41.4973,-79.5 41.4973,-58.5 12.4973,-58.5"/>
<text text-anchor="middle" x="26.9973" y="-66.5" font-family="Helvetica,sans-Serif" font-size="10.00">list</text>
</g>
<!-- Node2&#45;&gt;Node5 -->
<g id="edge8" class="edge"><title>Node2&#45;&gt;Node5</title>
<path fill="none" stroke="midnightblue" d="M141.147,-116.375C118.695,-107.959 86.5952,-95.6077 51.1131,-80.314"/>
<polygon fill="midnightblue" stroke="midnightblue" points="52.0906,-76.9225 41.5243,-76.1442 49.299,-83.3418 52.0906,-76.9225"/>
</g>
<!-- Node6 -->
<g id="node11" class="node"><title>Node6</title>
<polygon fill="white" stroke="#bfbfbf" points="58.4973,-58.5 58.4973,-79.5 93.4973,-79.5 93.4973,-58.5 58.4973,-58.5"/>
<text text-anchor="middle" x="75.9973" y="-66.5" font-family="Helvetica,sans-Serif" font-size="10.00">map</text>
</g>
<!-- Node2&#45;&gt;Node6 -->
<g id="edge10" class="edge"><title>Node2&#45;&gt;Node6</title>
<path fill="none" stroke="midnightblue" d="M152.756,-116.362C138.446,-107.532 117.882,-94.844 101.641,-84.8224"/>
<polygon fill="midnightblue" stroke="midnightblue" points="103.477,-81.8431 93.129,-79.5707 99.8015,-87.8004 103.477,-81.8431"/>
</g>
<!-- Node2&#45;&gt;Node7 -->
<g id="edge12" class="edge"><title>Node2&#45;&gt;Node7</title>
<path fill="none" stroke="midnightblue" d="M161.861,-116.323C155.183,-107.124 145.897,-93.2679 139.997,-80 133.066,-64.4124 128.104,-45.6977 124.993,-31.6938"/>
<polygon fill="midnightblue" stroke="midnightblue" points="128.361,-30.6972 122.893,-21.6225 121.508,-32.1265 128.361,-30.6972"/>
</g>
<!-- Node2&#45;&gt;Node8 -->
<g id="edge14" class="edge"><title>Node2&#45;&gt;Node8</title>
<path fill="none" stroke="midnightblue" d="M213.31,-116.462C246.937,-108.05 294.901,-95.5506 345.007,-80.1577"/>
<polygon fill="midnightblue" stroke="midnightblue" points="346.203,-83.4511 354.718,-77.1458 344.13,-76.7652 346.203,-83.4511"/>
</g>
<!-- Node9 -->
<g id="node17" class="node"><title>Node9</title>
<a xlink:href="../../d0/d54/shader-types_8h.html" target="_top" xlink:title="shader&#45;types.h">
<polygon fill="white" stroke="black" points="256.497,-58.5 256.497,-79.5 337.497,-79.5 337.497,-58.5 256.497,-58.5"/>
<text text-anchor="middle" x="296.997" y="-66.5" font-family="Helvetica,sans-Serif" font-size="10.00">shader&#45;types.h</text>
</a>
</g>
<!-- Node2&#45;&gt;Node9 -->
<g id="edge16" class="edge"><title>Node2&#45;&gt;Node9</title>
<path fill="none" stroke="midnightblue" d="M192.996,-116.497C213.011,-107.356 242.238,-94.0082 264.616,-83.7883"/>
<polygon fill="midnightblue" stroke="midnightblue" points="266.098,-86.9592 273.74,-79.6212 263.19,-80.5918 266.098,-86.9592"/>
</g>
<!-- Node9&#45;&gt;Node7 -->
<g id="edge18" class="edge"><title>Node9&#45;&gt;Node7</title>
<path fill="none" stroke="midnightblue" d="M265.125,-58.4966C232.767,-47.8333 183.034,-31.4438 151.265,-20.9747"/>
<polygon fill="midnightblue" stroke="midnightblue" points="152.22,-17.6043 141.627,-17.7985 150.029,-24.2526 152.22,-17.6043"/>
</g>
<!-- Node10 -->
<g id="node20" class="node"><title>Node10</title>
<polygon fill="white" stroke="#bfbfbf" points="270.997,-0.5 270.997,-21.5 322.997,-21.5 322.997,-0.5 270.997,-0.5"/>
<text text-anchor="middle" x="296.997" y="-8.5" font-family="Helvetica,sans-Serif" font-size="10.00">ostream</text>
</g>
<!-- Node9&#45;&gt;Node10 -->
<g id="edge20" class="edge"><title>Node9&#45;&gt;Node10</title>
<path fill="none" stroke="midnightblue" d="M296.997,-58.3619C296.997,-50.9219 296.997,-40.7427 296.997,-31.7276"/>
<polygon fill="midnightblue" stroke="midnightblue" points="300.497,-31.5706 296.997,-21.5707 293.497,-31.5707 300.497,-31.5706"/>
</g>
</g>
</svg>
