<?xml version="1.0" encoding="UTF-8" standalone="no"?>
<!DOCTYPE svg PUBLIC "-//W3C//DTD SVG 1.1//EN"
 "http://www.w3.org/Graphics/SVG/1.1/DTD/svg11.dtd">
<!-- Generated by graphviz version 2.26.3 (20100126.1600)
 -->
<!-- Title: constraints_plugin::BaseConstraint Pages: 1 -->
<svg width="167pt" height="116pt"
 viewBox="0.00 0.00 167.00 116.00" xmlns="http://www.w3.org/2000/svg" xmlns:xlink="http://www.w3.org/1999/xlink">
<g id="graph1" class="graph" transform="scale(1 1) rotate(0) translate(4 112)">
<title>constraints_plugin::BaseConstraint</title>
<polygon fill="white" stroke="white" points="-4,5 -4,-112 164,-112 164,5 -4,5"/>
<!-- Node1 -->
<g id="node1" class="node"><title>Node1</title>
<polygon fill="#bfbfbf" stroke="black" points="17.5,-1 17.5,-35 112.5,-35 112.5,-1 17.5,-1"/>
<text text-anchor="start" x="25.5" y="-22" font-family="Helvetica,sans-Serif" font-size="10.00">constraints_plugin</text>
<text text-anchor="middle" x="65" y="-9" font-family="Helvetica,sans-Serif" font-size="10.00">::BaseConstraint</text>
</g>
<!-- Node2 -->
<g id="node2" class="node"><title>Node2</title>
<polygon fill="white" stroke="#bfbfbf" points="-0.5,-86.5 -0.5,-107.5 62.5,-107.5 62.5,-86.5 -0.5,-86.5"/>
<text text-anchor="middle" x="31" y="-94.5" font-family="Helvetica,sans-Serif" font-size="10.00">CFGClient</text>
</g>
<!-- Node2&#45;&gt;Node1 -->
<g id="edge2" class="edge"><title>Node2&#45;&gt;Node1</title>
<path fill="none" stroke="midnightblue" d="M39.6363,-76.9332C45.1942,-64.0194 52.3405,-47.4147 57.6304,-35.1236"/>
<polygon fill="midnightblue" stroke="midnightblue" points="36.3238,-75.7766 35.5854,-86.3457 42.7536,-78.5439 36.3238,-75.7766"/>
</g>
<!-- Node3 -->
<g id="node4" class="node"><title>Node3</title>
<polygon fill="white" stroke="#bfbfbf" points="79.5,-86.5 79.5,-107.5 120.5,-107.5 120.5,-86.5 79.5,-86.5"/>
<text text-anchor="middle" x="100" y="-94.5" font-family="Helvetica,sans-Serif" font-size="10.00">string</text>
</g>
<!-- Node3&#45;&gt;Node1 -->
<g id="edge4" class="edge"><title>Node3&#45;&gt;Node1</title>
<path fill="none" stroke="#9a32cd" stroke-dasharray="5,2" d="M91.1097,-76.9332C85.3883,-64.0194 78.0318,-47.4147 72.5864,-35.1236"/>
<polygon fill="#9a32cd" stroke="#9a32cd" points="88.029,-78.6206 95.2797,-86.3457 94.4291,-75.7851 88.029,-78.6206"/>
<text text-anchor="middle" x="122.5" y="-58.5" font-family="Helvetica,sans-Serif" font-size="10.00"> parameterName</text>
</g>
</g>
</svg>
