<?xml version="1.0" encoding="UTF-8" standalone="no"?>
<!DOCTYPE svg PUBLIC "-//W3C//DTD SVG 1.1//EN"
 "http://www.w3.org/Graphics/SVG/1.1/DTD/svg11.dtd">
<!-- Generated by graphviz version 2.26.3 (20100126.1600)
 -->
<!-- Title: /home/kavonszadkowski/limes&#45;dev/simulation/mars/interfaces/src/ControllerData.h Pages: 1 -->
<svg width="348pt" height="128pt"
 viewBox="0.00 0.00 348.00 128.00" xmlns="http://www.w3.org/2000/svg" xmlns:xlink="http://www.w3.org/1999/xlink">
<g id="graph1" class="graph" transform="scale(1 1) rotate(0) translate(4 124)">
<title>/home/kavonszadkowski/limes&#45;dev/simulation/mars/interfaces/src/ControllerData.h</title>
<polygon fill="white" stroke="white" points="-4,5 -4,-124 345,-124 345,5 -4,5"/>
<!-- Node1 -->
<g id="node1" class="node"><title>Node1</title>
<polygon fill="#bfbfbf" stroke="black" points="44.5,-59 44.5,-119 193.5,-119 193.5,-59 44.5,-59"/>
<text text-anchor="start" x="52.5" y="-106" font-family="Helvetica,sans-Serif" font-size="10.00">/home/kavonszadkowski</text>
<text text-anchor="start" x="52.5" y="-93" font-family="Helvetica,sans-Serif" font-size="10.00">/limes&#45;dev/simulation</text>
<text text-anchor="start" x="52.5" y="-80" font-family="Helvetica,sans-Serif" font-size="10.00">/mars/interfaces/src/Controller</text>
<text text-anchor="middle" x="119" y="-67" font-family="Helvetica,sans-Serif" font-size="10.00">Data.h</text>
</g>
<!-- Node2 -->
<g id="node3" class="node"><title>Node2</title>
<polygon fill="white" stroke="#bfbfbf" points="0,-0.5 0,-21.5 44,-21.5 44,-0.5 0,-0.5"/>
<text text-anchor="middle" x="22" y="-8.5" font-family="Helvetica,sans-Serif" font-size="10.00">vector</text>
</g>
<!-- Node1&#45;&gt;Node2 -->
<g id="edge2" class="edge"><title>Node1&#45;&gt;Node2</title>
<path fill="none" stroke="midnightblue" d="M81.4973,-58.8432C68.5824,-48.458 54.5693,-37.1898 43.3885,-28.199"/>
<polygon fill="midnightblue" stroke="midnightblue" points="45.4419,-25.359 35.4556,-21.8199 41.0553,-30.8141 45.4419,-25.359"/>
</g>
<!-- Node3 -->
<g id="node5" class="node"><title>Node3</title>
<polygon fill="white" stroke="#bfbfbf" points="61.5,-0.5 61.5,-21.5 102.5,-21.5 102.5,-0.5 61.5,-0.5"/>
<text text-anchor="middle" x="82" y="-8.5" font-family="Helvetica,sans-Serif" font-size="10.00">string</text>
</g>
<!-- Node1&#45;&gt;Node3 -->
<g id="edge4" class="edge"><title>Node1&#45;&gt;Node3</title>
<path fill="none" stroke="midnightblue" d="M104.589,-58.6198C100.155,-49.2734 95.3919,-39.2316 91.3877,-30.7902"/>
<polygon fill="midnightblue" stroke="midnightblue" points="94.5492,-29.2884 87.101,-21.7535 88.2246,-32.2885 94.5492,-29.2884"/>
</g>
<!-- Node4 -->
<g id="node7" class="node"><title>Node4</title>
<a xlink:href="../../dd/d9e/_m_a_r_s_defs_8h.html" target="_top" xlink:title="MARSDefs.h">
<polygon fill="white" stroke="black" points="119.5,-0.5 119.5,-21.5 194.5,-21.5 194.5,-0.5 119.5,-0.5"/>
<text text-anchor="middle" x="157" y="-8.5" font-family="Helvetica,sans-Serif" font-size="10.00">MARSDefs.h</text>
</a>
</g>
<!-- Node1&#45;&gt;Node4 -->
<g id="edge6" class="edge"><title>Node1&#45;&gt;Node4</title>
<path fill="none" stroke="midnightblue" d="M133.801,-58.6198C138.354,-49.2734 143.246,-39.2316 147.359,-30.7902"/>
<polygon fill="midnightblue" stroke="midnightblue" points="150.528,-32.2763 151.761,-21.7535 144.235,-29.2104 150.528,-32.2763"/>
</g>
<!-- Node5 -->
<g id="node9" class="node"><title>Node5</title>
<polygon fill="white" stroke="#bfbfbf" points="212,-0.5 212,-21.5 340,-21.5 340,-0.5 212,-0.5"/>
<text text-anchor="middle" x="276" y="-8.5" font-family="Helvetica,sans-Serif" font-size="10.00">configmaps/ConfigData.h</text>
</g>
<!-- Node1&#45;&gt;Node5 -->
<g id="edge8" class="edge"><title>Node1&#45;&gt;Node5</title>
<path fill="none" stroke="midnightblue" d="M179.7,-58.8432C202.185,-47.6723 226.727,-35.4797 245.408,-26.1988"/>
<polygon fill="midnightblue" stroke="midnightblue" points="247.202,-29.2156 254.6,-21.6317 244.087,-22.9466 247.202,-29.2156"/>
</g>
</g>
</svg>
