<?xml version="1.0" encoding="UTF-8" standalone="no"?>
<!DOCTYPE svg PUBLIC "-//W3C//DTD SVG 1.1//EN"
 "http://www.w3.org/Graphics/SVG/1.1/DTD/svg11.dtd">
<!-- Generated by graphviz version 2.26.3 (20100126.1600)
 -->
<!-- Title: /home/kavonszadkowski/limes&#45;dev/simulation/mars/plugins/mars_plugin_collection/LineLaser/src/LineLaser.h Pages: 1 -->
<svg width="674pt" height="154pt"
 viewBox="0.00 0.00 674.00 154.00" xmlns="http://www.w3.org/2000/svg" xmlns:xlink="http://www.w3.org/1999/xlink">
<g id="graph1" class="graph" transform="scale(1 1) rotate(0) translate(4 150)">
<title>/home/kavonszadkowski/limes&#45;dev/simulation/mars/plugins/mars_plugin_collection/LineLaser/src/LineLaser.h</title>
<polygon fill="white" stroke="white" points="-4,5 -4,-150 671,-150 671,5 -4,5"/>
<!-- Node1 -->
<g id="node1" class="node"><title>Node1</title>
<polygon fill="#bfbfbf" stroke="black" points="299.5,-72.5 299.5,-145.5 430.5,-145.5 430.5,-72.5 299.5,-72.5"/>
<text text-anchor="start" x="307.5" y="-132.5" font-family="Helvetica,sans-Serif" font-size="10.00">/home/kavonszadkowski</text>
<text text-anchor="start" x="307.5" y="-119.5" font-family="Helvetica,sans-Serif" font-size="10.00">/limes&#45;dev/simulation</text>
<text text-anchor="start" x="307.5" y="-106.5" font-family="Helvetica,sans-Serif" font-size="10.00">/mars/plugins/mars_plugin</text>
<text text-anchor="start" x="307.5" y="-93.5" font-family="Helvetica,sans-Serif" font-size="10.00">_collection/LineLaser/src</text>
<text text-anchor="middle" x="365" y="-80.5" font-family="Helvetica,sans-Serif" font-size="10.00">/LineLaser.h</text>
</g>
<!-- Node2 -->
<g id="node3" class="node"><title>Node2</title>
<polygon fill="white" stroke="#bfbfbf" points="-0.5,-1 -0.5,-35 116.5,-35 116.5,-1 -0.5,-1"/>
<text text-anchor="start" x="7.5" y="-22" font-family="Helvetica,sans-Serif" font-size="10.00">mars/interfaces/sim</text>
<text text-anchor="middle" x="58" y="-9" font-family="Helvetica,sans-Serif" font-size="10.00">/MarsPluginTemplate.h</text>
</g>
<!-- Node1&#45;&gt;Node2 -->
<g id="edge2" class="edge"><title>Node1&#45;&gt;Node2</title>
<path fill="none" stroke="midnightblue" d="M299.141,-89.4782C247.83,-74.2689 176.872,-53.2357 125.219,-37.9247"/>
<polygon fill="midnightblue" stroke="midnightblue" points="126.065,-34.5252 115.483,-35.0388 124.076,-41.2365 126.065,-34.5252"/>
</g>
<!-- Node3 -->
<g id="node5" class="node"><title>Node3</title>
<polygon fill="white" stroke="#bfbfbf" points="134,-7.5 134,-28.5 280,-28.5 280,-7.5 134,-7.5"/>
<text text-anchor="middle" x="207" y="-15.5" font-family="Helvetica,sans-Serif" font-size="10.00">mars/interfaces/MARSDefs.h</text>
</g>
<!-- Node1&#45;&gt;Node3 -->
<g id="edge4" class="edge"><title>Node1&#45;&gt;Node3</title>
<path fill="none" stroke="midnightblue" d="M301.191,-72.2491C277.745,-58.7456 252.444,-44.1737 233.975,-33.5361"/>
<polygon fill="midnightblue" stroke="midnightblue" points="235.653,-30.4635 225.24,-28.5055 232.159,-36.5294 235.653,-30.4635"/>
</g>
<!-- Node4 -->
<g id="node7" class="node"><title>Node4</title>
<polygon fill="white" stroke="#bfbfbf" points="298,-1 298,-35 432,-35 432,-1 298,-1"/>
<text text-anchor="start" x="306" y="-22" font-family="Helvetica,sans-Serif" font-size="10.00">mars/data_broker/Receiver</text>
<text text-anchor="middle" x="365" y="-9" font-family="Helvetica,sans-Serif" font-size="10.00">Interface.h</text>
</g>
<!-- Node1&#45;&gt;Node4 -->
<g id="edge6" class="edge"><title>Node1&#45;&gt;Node4</title>
<path fill="none" stroke="midnightblue" d="M365,-72.2491C365,-63.2314 365,-53.7372 365,-45.2564"/>
<polygon fill="midnightblue" stroke="midnightblue" points="368.5,-45.1682 365,-35.1682 361.5,-45.1682 368.5,-45.1682"/>
</g>
<!-- Node5 -->
<g id="node9" class="node"><title>Node5</title>
<polygon fill="white" stroke="#bfbfbf" points="449.5,-1 449.5,-35 608.5,-35 608.5,-1 449.5,-1"/>
<text text-anchor="start" x="457.5" y="-22" font-family="Helvetica,sans-Serif" font-size="10.00">mars/cfg_manager/CFGManager</text>
<text text-anchor="middle" x="529" y="-9" font-family="Helvetica,sans-Serif" font-size="10.00">Interface.h</text>
</g>
<!-- Node1&#45;&gt;Node5 -->
<g id="edge8" class="edge"><title>Node1&#45;&gt;Node5</title>
<path fill="none" stroke="midnightblue" d="M430.76,-72.5112C450.642,-61.4791 471.851,-49.7107 489.455,-39.9426"/>
<polygon fill="midnightblue" stroke="midnightblue" points="491.26,-42.9437 498.306,-35.0313 487.864,-36.8228 491.26,-42.9437"/>
</g>
<!-- Node6 -->
<g id="node11" class="node"><title>Node6</title>
<polygon fill="white" stroke="#bfbfbf" points="625.5,-7.5 625.5,-28.5 666.5,-28.5 666.5,-7.5 625.5,-7.5"/>
<text text-anchor="middle" x="646" y="-15.5" font-family="Helvetica,sans-Serif" font-size="10.00">string</text>
</g>
<!-- Node1&#45;&gt;Node6 -->
<g id="edge10" class="edge"><title>Node1&#45;&gt;Node6</title>
<path fill="none" stroke="midnightblue" d="M430.678,-95.1877C482.572,-83.0489 556.14,-63.0856 617,-36 618.6,-35.2877 620.218,-34.4999 621.827,-33.6635"/>
<polygon fill="midnightblue" stroke="midnightblue" points="623.846,-36.5408 630.779,-28.5295 620.363,-30.4686 623.846,-36.5408"/>
</g>
</g>
</svg>
