<?xml version="1.0" encoding="UTF-8" standalone="no"?>
<!DOCTYPE svg PUBLIC "-//W3C//DTD SVG 1.1//EN"
 "http://www.w3.org/Graphics/SVG/1.1/DTD/svg11.dtd">
<!-- Generated by graphviz version 2.26.3 (20100126.1600)
 -->
<!-- Title: /home/kavonszadkowski/limes&#45;dev/simulation/mars/graphics/src/wrapper/OSGHudElementStruct.h Pages: 1 -->
<svg width="374pt" height="200pt"
 viewBox="0.00 0.00 374.00 200.00" xmlns="http://www.w3.org/2000/svg" xmlns:xlink="http://www.w3.org/1999/xlink">
<g id="graph1" class="graph" transform="scale(1 1) rotate(0) translate(4 196)">
<title>/home/kavonszadkowski/limes&#45;dev/simulation/mars/graphics/src/wrapper/OSGHudElementStruct.h</title>
<polygon fill="white" stroke="white" points="-4,5 -4,-196 371,-196 371,5 -4,5"/>
<!-- Node1 -->
<g id="node1" class="node"><title>Node1</title>
<polygon fill="#bfbfbf" stroke="black" points="96.5,-131 96.5,-191 231.5,-191 231.5,-131 96.5,-131"/>
<text text-anchor="start" x="104.5" y="-178" font-family="Helvetica,sans-Serif" font-size="10.00">/home/kavonszadkowski</text>
<text text-anchor="start" x="104.5" y="-165" font-family="Helvetica,sans-Serif" font-size="10.00">/limes&#45;dev/simulation</text>
<text text-anchor="start" x="104.5" y="-152" font-family="Helvetica,sans-Serif" font-size="10.00">/mars/graphics/src/wrapper</text>
<text text-anchor="middle" x="164" y="-139" font-family="Helvetica,sans-Serif" font-size="10.00">/OSGHudElementStruct.h</text>
</g>
<!-- Node2 -->
<g id="node3" class="node"><title>Node2</title>
<a xlink:href="../../dc/d75/_h_u_d_element_8h.html" target="_top" xlink:title="The &quot;HUDElement&quot;. ">
<polygon fill="white" stroke="black" points="43.5,-65.5 43.5,-86.5 186.5,-86.5 186.5,-65.5 43.5,-65.5"/>
<text text-anchor="middle" x="115" y="-73.5" font-family="Helvetica,sans-Serif" font-size="10.00">../2d_objects/HUDElement.h</text>
</a>
</g>
<!-- Node1&#45;&gt;Node2 -->
<g id="edge2" class="edge"><title>Node1&#45;&gt;Node2</title>
<path fill="none" stroke="midnightblue" d="M146.586,-130.793C139.847,-119.102 132.325,-106.053 126.312,-95.6233"/>
<polygon fill="midnightblue" stroke="midnightblue" points="129.307,-93.8105 121.281,-86.8949 123.243,-97.3065 129.307,-93.8105"/>
</g>
<!-- Node3 -->
<g id="node5" class="node"><title>Node3</title>
<polygon fill="white" stroke="#bfbfbf" points="0,-0.5 0,-21.5 62,-21.5 62,-0.5 0,-0.5"/>
<text text-anchor="middle" x="31" y="-8.5" font-family="Helvetica,sans-Serif" font-size="10.00">osg/Group</text>
</g>
<!-- Node1&#45;&gt;Node3 -->
<g id="edge12" class="edge"><title>Node1&#45;&gt;Node3</title>
<path fill="none" stroke="midnightblue" d="M96.212,-141.41C72.8777,-131.151 49.0941,-115.991 35,-94 23.1384,-75.4926 23.9801,-49.6117 26.605,-31.6917"/>
<polygon fill="midnightblue" stroke="midnightblue" points="30.077,-32.1566 28.3722,-21.6998 23.184,-30.9374 30.077,-32.1566"/>
</g>
<!-- Node4 -->
<g id="node7" class="node"><title>Node4</title>
<polygon fill="white" stroke="#bfbfbf" points="143.5,-0.5 143.5,-21.5 184.5,-21.5 184.5,-0.5 143.5,-0.5"/>
<text text-anchor="middle" x="164" y="-8.5" font-family="Helvetica,sans-Serif" font-size="10.00">string</text>
</g>
<!-- Node1&#45;&gt;Node4 -->
<g id="edge10" class="edge"><title>Node1&#45;&gt;Node4</title>
<path fill="none" stroke="midnightblue" d="M182.635,-130.807C192.958,-110.28 202.353,-82.5042 195,-58 191.946,-47.8243 185.898,-37.8172 179.948,-29.6697"/>
<polygon fill="midnightblue" stroke="midnightblue" points="182.59,-27.3662 173.677,-21.6387 177.073,-31.6745 182.59,-27.3662"/>
</g>
<!-- Node5 -->
<g id="node9" class="node"><title>Node5</title>
<polygon fill="white" stroke="#bfbfbf" points="242,-59 242,-93 366,-93 366,-59 242,-59"/>
<text text-anchor="start" x="250" y="-80" font-family="Helvetica,sans-Serif" font-size="10.00">mars/interfaces/graphics</text>
<text text-anchor="middle" x="304" y="-67" font-family="Helvetica,sans-Serif" font-size="10.00">/draw_structs.h</text>
</g>
<!-- Node1&#45;&gt;Node5 -->
<g id="edge8" class="edge"><title>Node1&#45;&gt;Node5</title>
<path fill="none" stroke="midnightblue" d="M213.753,-130.793C231.392,-120.083 250.909,-108.234 267.267,-98.3024"/>
<polygon fill="midnightblue" stroke="midnightblue" points="269.266,-101.183 275.998,-93.0015 265.633,-95.1996 269.266,-101.183"/>
</g>
<!-- Node2&#45;&gt;Node3 -->
<g id="edge4" class="edge"><title>Node2&#45;&gt;Node3</title>
<path fill="none" stroke="midnightblue" d="M101.129,-65.2666C87.9185,-55.0441 67.8363,-39.5043 52.5426,-27.6699"/>
<polygon fill="midnightblue" stroke="midnightblue" points="54.6635,-24.8855 44.6128,-21.5337 50.3796,-30.4216 54.6635,-24.8855"/>
</g>
<!-- Node2&#45;&gt;Node4 -->
<g id="edge6" class="edge"><title>Node2&#45;&gt;Node4</title>
<path fill="none" stroke="midnightblue" d="M123.091,-65.2666C130.369,-55.612 141.223,-41.2145 149.922,-29.675"/>
<polygon fill="midnightblue" stroke="midnightblue" points="152.834,-31.6258 156.059,-21.5337 147.245,-27.4121 152.834,-31.6258"/>
</g>
</g>
</svg>
