<?xml version="1.0" encoding="UTF-8" standalone="no"?>
<!DOCTYPE svg PUBLIC "-//W3C//DTD SVG 1.1//EN"
 "http://www.w3.org/Graphics/SVG/1.1/DTD/svg11.dtd">
<!-- Generated by graphviz version 2.36.0 (20140111.2315)
 -->
<!-- Title: mars::sim::NodeManager::Params Pages: 1 -->
<svg width="279pt" height="108pt"
 viewBox="0.00 0.00 279.00 108.00" xmlns="http://www.w3.org/2000/svg" xmlns:xlink="http://www.w3.org/1999/xlink">
<g id="graph0" class="graph" transform="scale(1 1) rotate(0) translate(4 104)">
<title>mars::sim::NodeManager::Params</title>
<polygon fill="white" stroke="none" points="-4,4 -4,-104 275,-104 275,4 -4,4"/>
<!-- Node1 -->
<g id="node1" class="node"><title>Node1</title>
<polygon fill="#bfbfbf" stroke="black" points="71.5,-69 71.5,-99 198.5,-99 198.5,-69 71.5,-69"/>
<text text-anchor="start" x="79.5" y="-87" font-family="Helvetica,sans-Serif" font-size="10.00">mars::sim::NodeManager</text>
<text text-anchor="middle" x="135" y="-76" font-family="Helvetica,sans-Serif" font-size="10.00">::Params</text>
</g>
<!-- Node2 -->
<g id="node2" class="node"><title>Node2</title>
<g id="a_node2"><a xlink:href="../../d0/d6f/structmars_1_1sim_1_1_node_manager_1_1_move_params.html" target="_top" xlink:title="mars::sim::NodeManager\l::MoveParams">
<polygon fill="white" stroke="black" points="-0.5,-1 -0.5,-31 126.5,-31 126.5,-1 -0.5,-1"/>
<text text-anchor="start" x="7.5" y="-19" font-family="Helvetica,sans-Serif" font-size="10.00">mars::sim::NodeManager</text>
<text text-anchor="middle" x="63" y="-8" font-family="Helvetica,sans-Serif" font-size="10.00">::MoveParams</text>
</a>
</g>
</g>
<!-- Node1&#45;&gt;Node2 -->
<g id="edge1" class="edge"><title>Node1&#45;&gt;Node2</title>
<path fill="none" stroke="midnightblue" d="M111.847,-61.7762C100.975,-51.8105 88.3043,-40.1956 78.5924,-31.2931"/>
<polygon fill="midnightblue" stroke="midnightblue" points="109.64,-64.5018 119.377,-68.679 114.371,-59.3417 109.64,-64.5018"/>
</g>
<!-- Node3 -->
<g id="node3" class="node"><title>Node3</title>
<g id="a_node3"><a xlink:href="../../de/df9/structmars_1_1sim_1_1_node_manager_1_1_rotation_params.html" target="_top" xlink:title="mars::sim::NodeManager\l::RotationParams">
<polygon fill="white" stroke="black" points="144.5,-1 144.5,-31 271.5,-31 271.5,-1 144.5,-1"/>
<text text-anchor="start" x="152.5" y="-19" font-family="Helvetica,sans-Serif" font-size="10.00">mars::sim::NodeManager</text>
<text text-anchor="middle" x="208" y="-8" font-family="Helvetica,sans-Serif" font-size="10.00">::RotationParams</text>
</a>
</g>
</g>
<!-- Node1&#45;&gt;Node3 -->
<g id="edge2" class="edge"><title>Node1&#45;&gt;Node3</title>
<path fill="none" stroke="midnightblue" d="M158.53,-61.7265C169.634,-51.687 182.579,-39.9831 192.442,-31.0663"/>
<polygon fill="midnightblue" stroke="midnightblue" points="155.91,-59.3763 150.84,-68.679 160.605,-64.5687 155.91,-59.3763"/>
</g>
</g>
</svg>
