<?xml version="1.0" encoding="UTF-8" standalone="no"?>
<!DOCTYPE svg PUBLIC "-//W3C//DTD SVG 1.1//EN"
 "http://www.w3.org/Graphics/SVG/1.1/DTD/svg11.dtd">
<!-- Generated by graphviz version 2.26.3 (20100126.1600)
 -->
<!-- Title: mars::sim::NodeManager::Params Pages: 1 -->
<svg width="278pt" height="116pt"
 viewBox="0.00 0.00 278.00 116.00" xmlns="http://www.w3.org/2000/svg" xmlns:xlink="http://www.w3.org/1999/xlink">
<g id="graph1" class="graph" transform="scale(1 1) rotate(0) translate(4 112)">
<title>mars::sim::NodeManager::Params</title>
<polygon fill="white" stroke="white" points="-4,5 -4,-112 275,-112 275,5 -4,5"/>
<!-- Node1 -->
<g id="node1" class="node"><title>Node1</title>
<polygon fill="#bfbfbf" stroke="black" points="71.5,-73 71.5,-107 198.5,-107 198.5,-73 71.5,-73"/>
<text text-anchor="start" x="79.5" y="-94" font-family="Helvetica,sans-Serif" font-size="10.00">mars::sim::NodeManager</text>
<text text-anchor="middle" x="135" y="-81" font-family="Helvetica,sans-Serif" font-size="10.00">::Params</text>
</g>
<!-- Node2 -->
<g id="node3" class="node"><title>Node2</title>
<a xlink:href="../../d0/d6f/structmars_1_1sim_1_1_node_manager_1_1_move_params.html" target="_top" xlink:title="mars::sim::NodeManager\l::MoveParams">
<polygon fill="white" stroke="black" points="-0.5,-1 -0.5,-35 126.5,-35 126.5,-1 -0.5,-1"/>
<text text-anchor="start" x="7.5" y="-22" font-family="Helvetica,sans-Serif" font-size="10.00">mars::sim::NodeManager</text>
<text text-anchor="middle" x="63" y="-9" font-family="Helvetica,sans-Serif" font-size="10.00">::MoveParams</text>
</a>
</g>
<!-- Node1&#45;&gt;Node2 -->
<g id="edge2" class="edge"><title>Node1&#45;&gt;Node2</title>
<path fill="none" stroke="midnightblue" d="M110.671,-65.6706C100.755,-55.7551 89.5151,-44.5151 80.4407,-35.4407"/>
<polygon fill="midnightblue" stroke="midnightblue" points="108.391,-68.3408 117.937,-72.937 113.341,-63.391 108.391,-68.3408"/>
</g>
<!-- Node3 -->
<g id="node5" class="node"><title>Node3</title>
<a xlink:href="../../de/df9/structmars_1_1sim_1_1_node_manager_1_1_rotation_params.html" target="_top" xlink:title="mars::sim::NodeManager\l::RotationParams">
<polygon fill="white" stroke="black" points="143.5,-1 143.5,-35 270.5,-35 270.5,-1 143.5,-1"/>
<text text-anchor="start" x="151.5" y="-22" font-family="Helvetica,sans-Serif" font-size="10.00">mars::sim::NodeManager</text>
<text text-anchor="middle" x="207" y="-9" font-family="Helvetica,sans-Serif" font-size="10.00">::RotationParams</text>
</a>
</g>
<!-- Node1&#45;&gt;Node3 -->
<g id="edge4" class="edge"><title>Node1&#45;&gt;Node3</title>
<path fill="none" stroke="midnightblue" d="M159.329,-65.6706C169.245,-55.7551 180.485,-44.5151 189.559,-35.4407"/>
<polygon fill="midnightblue" stroke="midnightblue" points="156.659,-63.391 152.063,-72.937 161.609,-68.3408 156.659,-63.391"/>
</g>
</g>
</svg>
