<?xml version="1.0" encoding="UTF-8" standalone="no"?>
<!DOCTYPE svg PUBLIC "-//W3C//DTD SVG 1.1//EN"
 "http://www.w3.org/Graphics/SVG/1.1/DTD/svg11.dtd">
<!-- Generated by graphviz version 2.26.3 (20100126.1600)
 -->
<!-- Title: /home/kavonszadkowski/limes&#45;dev/simulation/mars/graphics/src/3d_objects/AxisPrimitive.h Pages: 1 -->
<svg width="354pt" height="168pt"
 viewBox="0.00 0.00 354.00 168.00" xmlns="http://www.w3.org/2000/svg" xmlns:xlink="http://www.w3.org/1999/xlink">
<g id="graph1" class="graph" transform="scale(1 1) rotate(0) translate(4 164)">
<title>/home/kavonszadkowski/limes&#45;dev/simulation/mars/graphics/src/3d_objects/AxisPrimitive.h</title>
<polygon fill="white" stroke="white" points="-4,5 -4,-164 351,-164 351,5 -4,5"/>
<!-- Node1 -->
<g id="node1" class="node"><title>Node1</title>
<polygon fill="#bfbfbf" stroke="black" points="94.5,-99 94.5,-159 219.5,-159 219.5,-99 94.5,-99"/>
<text text-anchor="start" x="102.5" y="-146" font-family="Helvetica,sans-Serif" font-size="10.00">/home/kavonszadkowski</text>
<text text-anchor="start" x="102.5" y="-133" font-family="Helvetica,sans-Serif" font-size="10.00">/limes&#45;dev/simulation</text>
<text text-anchor="start" x="102.5" y="-120" font-family="Helvetica,sans-Serif" font-size="10.00">/mars/graphics/src/3d</text>
<text text-anchor="middle" x="157" y="-107" font-family="Helvetica,sans-Serif" font-size="10.00">_objects/AxisPrimitive.h</text>
</g>
<!-- Node2 -->
<g id="node3" class="node"><title>Node2</title>
<a xlink:href="../../dd/df4/_axis_primitive_8cpp.html" target="_top" xlink:title="/home/kavonszadkowski\l/limes&#45;dev/simulation\l/mars/graphics/src/3d\l_objects/AxisPrimitive.cpp">
<polygon fill="white" stroke="black" points="-0.5,-1 -0.5,-61 132.5,-61 132.5,-1 -0.5,-1"/>
<text text-anchor="start" x="7.5" y="-48" font-family="Helvetica,sans-Serif" font-size="10.00">/home/kavonszadkowski</text>
<text text-anchor="start" x="7.5" y="-35" font-family="Helvetica,sans-Serif" font-size="10.00">/limes&#45;dev/simulation</text>
<text text-anchor="start" x="7.5" y="-22" font-family="Helvetica,sans-Serif" font-size="10.00">/mars/graphics/src/3d</text>
<text text-anchor="middle" x="66" y="-9" font-family="Helvetica,sans-Serif" font-size="10.00">_objects/AxisPrimitive.cpp</text>
</a>
</g>
<!-- Node1&#45;&gt;Node2 -->
<g id="edge2" class="edge"><title>Node1&#45;&gt;Node2</title>
<path fill="none" stroke="midnightblue" d="M122.034,-91.3443C112.792,-81.3916 102.937,-70.7782 94.1096,-61.2718"/>
<polygon fill="midnightblue" stroke="midnightblue" points="119.585,-93.8507 128.954,-98.7971 124.715,-89.0876 119.585,-93.8507"/>
</g>
<!-- Node3 -->
<g id="node5" class="node"><title>Node3</title>
<a xlink:href="../../d7/d19/_graphics_manager_8cpp.html" target="_top" xlink:title="/home/kavonszadkowski\l/limes&#45;dev/simulation\l/mars/graphics/src/GraphicsManager.cpp">
<polygon fill="white" stroke="black" points="150,-7.5 150,-54.5 346,-54.5 346,-7.5 150,-7.5"/>
<text text-anchor="start" x="158" y="-41.5" font-family="Helvetica,sans-Serif" font-size="10.00">/home/kavonszadkowski</text>
<text text-anchor="start" x="158" y="-28.5" font-family="Helvetica,sans-Serif" font-size="10.00">/limes&#45;dev/simulation</text>
<text text-anchor="middle" x="248" y="-15.5" font-family="Helvetica,sans-Serif" font-size="10.00">/mars/graphics/src/GraphicsManager.cpp</text>
</a>
</g>
<!-- Node1&#45;&gt;Node3 -->
<g id="edge4" class="edge"><title>Node1&#45;&gt;Node3</title>
<path fill="none" stroke="midnightblue" d="M192.007,-91.3001C203.426,-79.0032 215.777,-65.7021 225.966,-54.7289"/>
<polygon fill="midnightblue" stroke="midnightblue" points="189.285,-89.0876 185.046,-98.7971 194.415,-93.8507 189.285,-89.0876"/>
</g>
</g>
</svg>
