<?xml version="1.0" encoding="UTF-8" standalone="no"?>
<!DOCTYPE svg PUBLIC "-//W3C//DTD SVG 1.1//EN"
 "http://www.w3.org/Graphics/SVG/1.1/DTD/svg11.dtd">
<!-- Generated by graphviz version 2.36.0 (20140111.2315)
 -->
<!-- Title: /media/kavonszadkowski/work/marsdocs/mars/interfaces/src/LightData.cpp Pages: 1 -->
<svg width="507pt" height="162pt"
 viewBox="0.00 0.00 507.00 162.00" xmlns="http://www.w3.org/2000/svg" xmlns:xlink="http://www.w3.org/1999/xlink">
<g id="graph0" class="graph" transform="scale(1 1) rotate(0) translate(4 158)">
<title>/media/kavonszadkowski/work/marsdocs/mars/interfaces/src/LightData.cpp</title>
<polygon fill="white" stroke="none" points="-4,4 -4,-158 503,-158 503,4 -4,4"/>
<!-- Node1 -->
<g id="node1" class="node"><title>Node1</title>
<polygon fill="#bfbfbf" stroke="black" points="252.5,-112.5 252.5,-153.5 409.5,-153.5 409.5,-112.5 252.5,-112.5"/>
<text text-anchor="start" x="260.5" y="-141.5" font-family="Helvetica,sans-Serif" font-size="10.00">/media/kavonszadkowski</text>
<text text-anchor="start" x="260.5" y="-130.5" font-family="Helvetica,sans-Serif" font-size="10.00">/work/marsdocs/mars/interfaces</text>
<text text-anchor="middle" x="331" y="-119.5" font-family="Helvetica,sans-Serif" font-size="10.00">/src/LightData.cpp</text>
</g>
<!-- Node2 -->
<g id="node2" class="node"><title>Node2</title>
<g id="a_node2"><a xlink:href="../../da/d1b/_light_data_8h.html" target="_top" xlink:title="LightData.h">
<polygon fill="white" stroke="black" points="208.5,-56.5 208.5,-75.5 275.5,-75.5 275.5,-56.5 208.5,-56.5"/>
<text text-anchor="middle" x="242" y="-63.5" font-family="Helvetica,sans-Serif" font-size="10.00">LightData.h</text>
</a>
</g>
</g>
<!-- Node1&#45;&gt;Node2 -->
<g id="edge1" class="edge"><title>Node1&#45;&gt;Node2</title>
<path fill="none" stroke="midnightblue" d="M304.297,-112.498C290.783,-102.628 274.647,-90.8432 262.183,-81.7407"/>
<polygon fill="midnightblue" stroke="midnightblue" points="263.987,-78.724 253.847,-75.6525 259.859,-84.3769 263.987,-78.724"/>
</g>
<!-- Node7 -->
<g id="node7" class="node"><title>Node7</title>
<g id="a_node7"><a xlink:href="../../dd/d9e/_m_a_r_s_defs_8h.html" target="_top" xlink:title="MARSDefs.h">
<polygon fill="white" stroke="black" points="293.5,-56.5 293.5,-75.5 368.5,-75.5 368.5,-56.5 293.5,-56.5"/>
<text text-anchor="middle" x="331" y="-63.5" font-family="Helvetica,sans-Serif" font-size="10.00">MARSDefs.h</text>
</a>
</g>
</g>
<!-- Node1&#45;&gt;Node7 -->
<g id="edge6" class="edge"><title>Node1&#45;&gt;Node7</title>
<path fill="none" stroke="midnightblue" d="M331,-112.498C331,-104.065 331,-94.2351 331,-85.874"/>
<polygon fill="midnightblue" stroke="midnightblue" points="334.5,-85.6525 331,-75.6525 327.5,-85.6525 334.5,-85.6525"/>
</g>
<!-- Node8 -->
<g id="node8" class="node"><title>Node8</title>
<polygon fill="white" stroke="#bfbfbf" points="386.5,-56.5 386.5,-75.5 499.5,-75.5 499.5,-56.5 386.5,-56.5"/>
<text text-anchor="middle" x="443" y="-63.5" font-family="Helvetica,sans-Serif" font-size="10.00">mars/utils/mathUtils.h</text>
</g>
<!-- Node1&#45;&gt;Node8 -->
<g id="edge7" class="edge"><title>Node1&#45;&gt;Node8</title>
<path fill="none" stroke="midnightblue" d="M364.604,-112.498C382.271,-102.245 403.498,-89.925 419.406,-80.6927"/>
<polygon fill="midnightblue" stroke="midnightblue" points="421.199,-83.6992 428.091,-75.6525 417.685,-77.6449 421.199,-83.6992"/>
</g>
<!-- Node3 -->
<g id="node3" class="node"><title>Node3</title>
<polygon fill="white" stroke="#bfbfbf" points="0,-0.5 0,-19.5 94,-19.5 94,-0.5 0,-0.5"/>
<text text-anchor="middle" x="47" y="-7.5" font-family="Helvetica,sans-Serif" font-size="10.00">mars/utils/Color.h</text>
</g>
<!-- Node2&#45;&gt;Node3 -->
<g id="edge2" class="edge"><title>Node2&#45;&gt;Node3</title>
<path fill="none" stroke="midnightblue" d="M211.102,-56.4435C177.726,-47.2011 124.406,-32.4356 87.651,-22.2572"/>
<polygon fill="midnightblue" stroke="midnightblue" points="88.3252,-18.8122 77.7538,-19.5164 86.457,-25.5583 88.3252,-18.8122"/>
</g>
<!-- Node4 -->
<g id="node4" class="node"><title>Node4</title>
<polygon fill="white" stroke="#bfbfbf" points="112,-0.5 112,-19.5 240,-19.5 240,-0.5 112,-0.5"/>
<text text-anchor="middle" x="176" y="-7.5" font-family="Helvetica,sans-Serif" font-size="10.00">configmaps/ConfigData.h</text>
</g>
<!-- Node2&#45;&gt;Node4 -->
<g id="edge3" class="edge"><title>Node2&#45;&gt;Node4</title>
<path fill="none" stroke="midnightblue" d="M231.396,-56.324C221.544,-48.2631 206.649,-36.0765 194.785,-26.3695"/>
<polygon fill="midnightblue" stroke="midnightblue" points="196.753,-23.4575 186.797,-19.8339 192.32,-28.8752 196.753,-23.4575"/>
</g>
<!-- Node5 -->
<g id="node5" class="node"><title>Node5</title>
<polygon fill="white" stroke="#bfbfbf" points="258.5,-0.5 258.5,-19.5 357.5,-19.5 357.5,-0.5 258.5,-0.5"/>
<text text-anchor="middle" x="308" y="-7.5" font-family="Helvetica,sans-Serif" font-size="10.00">mars/utils/Vector.h</text>
</g>
<!-- Node2&#45;&gt;Node5 -->
<g id="edge4" class="edge"><title>Node2&#45;&gt;Node5</title>
<path fill="none" stroke="midnightblue" d="M252.604,-56.324C262.456,-48.2631 277.351,-36.0765 289.215,-26.3695"/>
<polygon fill="midnightblue" stroke="midnightblue" points="291.68,-28.8752 297.203,-19.8339 287.247,-23.4575 291.68,-28.8752"/>
</g>
<!-- Node6 -->
<g id="node6" class="node"><title>Node6</title>
<polygon fill="white" stroke="#bfbfbf" points="375.5,-0.5 375.5,-19.5 416.5,-19.5 416.5,-0.5 375.5,-0.5"/>
<text text-anchor="middle" x="396" y="-7.5" font-family="Helvetica,sans-Serif" font-size="10.00">string</text>
</g>
<!-- Node2&#45;&gt;Node6 -->
<g id="edge5" class="edge"><title>Node2&#45;&gt;Node6</title>
<path fill="none" stroke="midnightblue" d="M266.402,-56.4435C293.259,-47.0262 336.469,-31.8746 365.53,-21.6842"/>
<polygon fill="midnightblue" stroke="midnightblue" points="366.891,-24.916 375.17,-18.3042 364.575,-18.3104 366.891,-24.916"/>
</g>
</g>
</svg>
