<?xml version="1.0" encoding="UTF-8" standalone="no"?>
<!DOCTYPE svg PUBLIC "-//W3C//DTD SVG 1.1//EN"
 "http://www.w3.org/Graphics/SVG/1.1/DTD/svg11.dtd">
<!-- Generated by graphviz version 2.26.3 (20100126.1600)
 -->
<!-- Title: /home/kavonszadkowski/limes&#45;dev/simulation/mars/gui/src/menus/MenuHelp.cpp Pages: 1 -->
<svg width="702pt" height="244pt"
 viewBox="0.00 0.00 702.00 244.00" xmlns="http://www.w3.org/2000/svg" xmlns:xlink="http://www.w3.org/1999/xlink">
<g id="graph1" class="graph" transform="scale(1 1) rotate(0) translate(4 240)">
<title>/home/kavonszadkowski/limes&#45;dev/simulation/mars/gui/src/menus/MenuHelp.cpp</title>
<polygon fill="white" stroke="white" points="-4,5 -4,-240 699,-240 699,5 -4,5"/>
<!-- Node1 -->
<g id="node1" class="node"><title>Node1</title>
<polygon fill="#bfbfbf" stroke="black" points="288,-188.5 288,-235.5 460,-235.5 460,-188.5 288,-188.5"/>
<text text-anchor="start" x="296" y="-222.5" font-family="Helvetica,sans-Serif" font-size="10.00">/home/kavonszadkowski</text>
<text text-anchor="start" x="296" y="-209.5" font-family="Helvetica,sans-Serif" font-size="10.00">/limes&#45;dev/simulation</text>
<text text-anchor="middle" x="374" y="-196.5" font-family="Helvetica,sans-Serif" font-size="10.00">/mars/gui/src/menus/MenuHelp.cpp</text>
</g>
<!-- Node2 -->
<g id="node3" class="node"><title>Node2</title>
<a xlink:href="../../d4/d34/_menu_help_8h.html" target="_top" xlink:title="Help section of the menu. ">
<polygon fill="white" stroke="black" points="293.5,-130.5 293.5,-151.5 362.5,-151.5 362.5,-130.5 293.5,-130.5"/>
<text text-anchor="middle" x="328" y="-138.5" font-family="Helvetica,sans-Serif" font-size="10.00">MenuHelp.h</text>
</a>
</g>
<!-- Node1&#45;&gt;Node2 -->
<g id="edge2" class="edge"><title>Node1&#45;&gt;Node2</title>
<path fill="none" stroke="midnightblue" d="M358.683,-188.358C352.771,-179.234 346.095,-168.929 340.483,-160.267"/>
<polygon fill="midnightblue" stroke="midnightblue" points="343.272,-158.136 334.898,-151.646 337.398,-161.942 343.272,-158.136"/>
</g>
<!-- Node10 -->
<g id="node19" class="node"><title>Node10</title>
<polygon fill="white" stroke="#bfbfbf" points="379.5,-130.5 379.5,-151.5 460.5,-151.5 460.5,-130.5 379.5,-130.5"/>
<text text-anchor="middle" x="420" y="-138.5" font-family="Helvetica,sans-Serif" font-size="10.00">QMessageBox</text>
</g>
<!-- Node1&#45;&gt;Node10 -->
<g id="edge18" class="edge"><title>Node1&#45;&gt;Node10</title>
<path fill="none" stroke="midnightblue" d="M389.317,-188.358C395.229,-179.234 401.905,-168.929 407.517,-160.267"/>
<polygon fill="midnightblue" stroke="midnightblue" points="410.602,-161.942 413.102,-151.646 404.728,-158.136 410.602,-161.942"/>
</g>
<!-- Node3 -->
<g id="node5" class="node"><title>Node3</title>
<a xlink:href="../../de/d0e/_main_g_u_i_defs_8h.html" target="_top" xlink:title="MainGUIDefs.h">
<polygon fill="white" stroke="black" points="-0.5,-65.5 -0.5,-86.5 84.5,-86.5 84.5,-65.5 -0.5,-65.5"/>
<text text-anchor="middle" x="42" y="-73.5" font-family="Helvetica,sans-Serif" font-size="10.00">MainGUIDefs.h</text>
</a>
</g>
<!-- Node2&#45;&gt;Node3 -->
<g id="edge4" class="edge"><title>Node2&#45;&gt;Node3</title>
<path fill="none" stroke="midnightblue" d="M293.394,-135.66C247.243,-128.179 163.206,-113.305 93,-94 88.5511,-92.7767 83.931,-91.3597 79.3693,-89.8686"/>
<polygon fill="midnightblue" stroke="midnightblue" points="80.16,-86.4406 69.5656,-86.5321 77.9047,-93.0674 80.16,-86.4406"/>
</g>
<!-- Node4 -->
<g id="node7" class="node"><title>Node4</title>
<polygon fill="white" stroke="#bfbfbf" points="101.5,-59 101.5,-93 204.5,-93 204.5,-59 101.5,-59"/>
<text text-anchor="start" x="109.5" y="-80" font-family="Helvetica,sans-Serif" font-size="10.00">mars/interfaces/sim</text>
<text text-anchor="middle" x="153" y="-67" font-family="Helvetica,sans-Serif" font-size="10.00">/ControlCenter.h</text>
</g>
<!-- Node2&#45;&gt;Node4 -->
<g id="edge6" class="edge"><title>Node2&#45;&gt;Node4</title>
<path fill="none" stroke="midnightblue" d="M299.494,-130.412C274.936,-121.291 238.774,-107.859 208.523,-96.623"/>
<polygon fill="midnightblue" stroke="midnightblue" points="209.525,-93.2613 198.932,-93.0604 207.087,-99.8233 209.525,-93.2613"/>
</g>
<!-- Node5 -->
<g id="node9" class="node"><title>Node5</title>
<a xlink:href="../../de/db6/_about_dialog_8h.html" target="_top" xlink:title="not imeplemented yet ">
<polygon fill="white" stroke="black" points="222,-65.5 222,-86.5 300,-86.5 300,-65.5 222,-65.5"/>
<text text-anchor="middle" x="261" y="-73.5" font-family="Helvetica,sans-Serif" font-size="10.00">AboutDialog.h</text>
</a>
</g>
<!-- Node2&#45;&gt;Node5 -->
<g id="edge8" class="edge"><title>Node2&#45;&gt;Node5</title>
<path fill="none" stroke="midnightblue" d="M316.936,-130.267C306.692,-120.328 291.267,-105.363 279.208,-93.6645"/>
<polygon fill="midnightblue" stroke="midnightblue" points="281.472,-90.9848 271.858,-86.5337 276.598,-96.009 281.472,-90.9848"/>
</g>
<!-- Node7 -->
<g id="node13" class="node"><title>Node7</title>
<polygon fill="white" stroke="#bfbfbf" points="318,-65.5 318,-86.5 472,-86.5 472,-65.5 318,-65.5"/>
<text text-anchor="middle" x="395" y="-73.5" font-family="Helvetica,sans-Serif" font-size="10.00">mars/main_gui/MenuInterface.h</text>
</g>
<!-- Node2&#45;&gt;Node7 -->
<g id="edge12" class="edge"><title>Node2&#45;&gt;Node7</title>
<path fill="none" stroke="midnightblue" d="M339.064,-130.267C349.308,-120.328 364.733,-105.363 376.792,-93.6645"/>
<polygon fill="midnightblue" stroke="midnightblue" points="379.402,-96.009 384.142,-86.5337 374.528,-90.9848 379.402,-96.009"/>
</g>
<!-- Node8 -->
<g id="node15" class="node"><title>Node8</title>
<polygon fill="white" stroke="#bfbfbf" points="489.5,-65.5 489.5,-86.5 634.5,-86.5 634.5,-65.5 489.5,-65.5"/>
<text text-anchor="middle" x="562" y="-73.5" font-family="Helvetica,sans-Serif" font-size="10.00">mars/main_gui/GuiInterface.h</text>
</g>
<!-- Node2&#45;&gt;Node8 -->
<g id="edge14" class="edge"><title>Node2&#45;&gt;Node8</title>
<path fill="none" stroke="midnightblue" d="M362.528,-131.409C402.595,-120.279 468.916,-101.857 513.989,-89.3365"/>
<polygon fill="midnightblue" stroke="midnightblue" points="515.132,-92.6516 523.83,-86.6028 513.258,-85.907 515.132,-92.6516"/>
</g>
<!-- Node9 -->
<g id="node17" class="node"><title>Node9</title>
<polygon fill="white" stroke="#bfbfbf" points="652,-65.5 652,-86.5 694,-86.5 694,-65.5 652,-65.5"/>
<text text-anchor="middle" x="673" y="-73.5" font-family="Helvetica,sans-Serif" font-size="10.00">QtGui</text>
</g>
<!-- Node2&#45;&gt;Node9 -->
<g id="edge16" class="edge"><title>Node2&#45;&gt;Node9</title>
<path fill="none" stroke="midnightblue" d="M362.654,-131.758C365.468,-131.123 368.276,-130.527 371,-130 490.725,-106.848 527.876,-134.207 643,-94 644.935,-93.3241 646.882,-92.5136 648.803,-91.6156"/>
<polygon fill="midnightblue" stroke="midnightblue" points="650.903,-94.4587 658.026,-86.6165 647.567,-88.3044 650.903,-94.4587"/>
</g>
<!-- Node6 -->
<g id="node11" class="node"><title>Node6</title>
<polygon fill="white" stroke="#bfbfbf" points="235,-0.5 235,-21.5 287,-21.5 287,-0.5 235,-0.5"/>
<text text-anchor="middle" x="261" y="-8.5" font-family="Helvetica,sans-Serif" font-size="10.00">QDialog</text>
</g>
<!-- Node5&#45;&gt;Node6 -->
<g id="edge10" class="edge"><title>Node5&#45;&gt;Node6</title>
<path fill="none" stroke="midnightblue" d="M261,-65.2666C261,-56.1799 261,-42.8919 261,-31.7395"/>
<polygon fill="midnightblue" stroke="midnightblue" points="264.5,-31.5337 261,-21.5337 257.5,-31.5337 264.5,-31.5337"/>
</g>
</g>
</svg>
