<?xml version="1.0" encoding="UTF-8" standalone="no"?>
<!DOCTYPE svg PUBLIC "-//W3C//DTD SVG 1.1//EN"
 "http://www.w3.org/Graphics/SVG/1.1/DTD/svg11.dtd">
<!-- Generated by graphviz version 2.36.0 (20140111.2315)
 -->
<!-- Title: /media/kavonszadkowski/work/marsdocs/mars/gui/src/menus/MenuHelp.cpp Pages: 1 -->
<svg width="706pt" height="230pt"
 viewBox="0.00 0.00 706.00 230.00" xmlns="http://www.w3.org/2000/svg" xmlns:xlink="http://www.w3.org/1999/xlink">
<g id="graph0" class="graph" transform="scale(1 1) rotate(0) translate(4 226)">
<title>/media/kavonszadkowski/work/marsdocs/mars/gui/src/menus/MenuHelp.cpp</title>
<polygon fill="white" stroke="none" points="-4,4 -4,-226 702,-226 702,4 -4,4"/>
<!-- Node1 -->
<g id="node1" class="node"><title>Node1</title>
<polygon fill="#bfbfbf" stroke="black" points="310.5,-180.5 310.5,-221.5 441.5,-221.5 441.5,-180.5 310.5,-180.5"/>
<text text-anchor="start" x="318.5" y="-209.5" font-family="Helvetica,sans-Serif" font-size="10.00">/media/kavonszadkowski</text>
<text text-anchor="start" x="318.5" y="-198.5" font-family="Helvetica,sans-Serif" font-size="10.00">/work/marsdocs/mars/gui</text>
<text text-anchor="middle" x="376" y="-187.5" font-family="Helvetica,sans-Serif" font-size="10.00">/src/menus/MenuHelp.cpp</text>
</g>
<!-- Node2 -->
<g id="node2" class="node"><title>Node2</title>
<g id="a_node2"><a xlink:href="../../d4/d34/_menu_help_8h.html" target="_top" xlink:title="Help section of the menu. ">
<polygon fill="white" stroke="black" points="295.5,-124.5 295.5,-143.5 364.5,-143.5 364.5,-124.5 295.5,-124.5"/>
<text text-anchor="middle" x="330" y="-131.5" font-family="Helvetica,sans-Serif" font-size="10.00">MenuHelp.h</text>
</a>
</g>
</g>
<!-- Node1&#45;&gt;Node2 -->
<g id="edge1" class="edge"><title>Node1&#45;&gt;Node2</title>
<path fill="none" stroke="midnightblue" d="M362.198,-180.498C355.756,-171.395 348.161,-160.662 341.966,-151.908"/>
<polygon fill="midnightblue" stroke="midnightblue" points="344.757,-149.793 336.123,-143.652 339.043,-153.837 344.757,-149.793"/>
</g>
<!-- Node10 -->
<g id="node10" class="node"><title>Node10</title>
<polygon fill="white" stroke="#bfbfbf" points="382.5,-124.5 382.5,-143.5 463.5,-143.5 463.5,-124.5 382.5,-124.5"/>
<text text-anchor="middle" x="423" y="-131.5" font-family="Helvetica,sans-Serif" font-size="10.00">QMessageBox</text>
</g>
<!-- Node1&#45;&gt;Node10 -->
<g id="edge9" class="edge"><title>Node1&#45;&gt;Node10</title>
<path fill="none" stroke="midnightblue" d="M390.102,-180.498C396.684,-171.395 404.444,-160.662 410.774,-151.908"/>
<polygon fill="midnightblue" stroke="midnightblue" points="413.72,-153.807 416.744,-143.652 408.048,-149.705 413.72,-153.807"/>
</g>
<!-- Node3 -->
<g id="node3" class="node"><title>Node3</title>
<g id="a_node3"><a xlink:href="../../de/d0e/_main_g_u_i_defs_8h.html" target="_top" xlink:title="MainGUIDefs.h">
<polygon fill="white" stroke="black" points="-0.5,-62.5 -0.5,-81.5 84.5,-81.5 84.5,-62.5 -0.5,-62.5"/>
<text text-anchor="middle" x="42" y="-69.5" font-family="Helvetica,sans-Serif" font-size="10.00">MainGUIDefs.h</text>
</a>
</g>
</g>
<!-- Node2&#45;&gt;Node3 -->
<g id="edge2" class="edge"><title>Node2&#45;&gt;Node3</title>
<path fill="none" stroke="midnightblue" d="M295.393,-127.432C249.208,-119.767 164.993,-104.969 94,-88 89.3337,-86.8846 84.46,-85.6174 79.6474,-84.3033"/>
<polygon fill="midnightblue" stroke="midnightblue" points="80.5147,-80.9115 69.9406,-81.5737 78.6197,-87.6501 80.5147,-80.9115"/>
</g>
<!-- Node4 -->
<g id="node4" class="node"><title>Node4</title>
<polygon fill="white" stroke="#bfbfbf" points="102.5,-57 102.5,-87 205.5,-87 205.5,-57 102.5,-57"/>
<text text-anchor="start" x="110.5" y="-75" font-family="Helvetica,sans-Serif" font-size="10.00">mars/interfaces/sim</text>
<text text-anchor="middle" x="154" y="-64" font-family="Helvetica,sans-Serif" font-size="10.00">/ControlCenter.h</text>
</g>
<!-- Node2&#45;&gt;Node4 -->
<g id="edge3" class="edge"><title>Node2&#45;&gt;Node4</title>
<path fill="none" stroke="midnightblue" d="M304.783,-124.403C278.856,-115.564 237.755,-101.553 205.009,-90.3895"/>
<polygon fill="midnightblue" stroke="midnightblue" points="205.735,-86.9393 195.141,-87.0253 203.477,-93.5649 205.735,-86.9393"/>
</g>
<!-- Node5 -->
<g id="node5" class="node"><title>Node5</title>
<g id="a_node5"><a xlink:href="../../de/db6/_about_dialog_8h.html" target="_top" xlink:title="not imeplemented yet ">
<polygon fill="white" stroke="black" points="224,-62.5 224,-81.5 302,-81.5 302,-62.5 224,-62.5"/>
<text text-anchor="middle" x="263" y="-69.5" font-family="Helvetica,sans-Serif" font-size="10.00">AboutDialog.h</text>
</a>
</g>
</g>
<!-- Node2&#45;&gt;Node5 -->
<g id="edge4" class="edge"><title>Node2&#45;&gt;Node5</title>
<path fill="none" stroke="midnightblue" d="M320.401,-124.403C309.952,-115.047 293.032,-99.8948 280.264,-88.4599"/>
<polygon fill="midnightblue" stroke="midnightblue" points="282.366,-85.6445 272.582,-81.5806 277.696,-90.8592 282.366,-85.6445"/>
</g>
<!-- Node7 -->
<g id="node7" class="node"><title>Node7</title>
<polygon fill="white" stroke="#bfbfbf" points="320,-62.5 320,-81.5 474,-81.5 474,-62.5 320,-62.5"/>
<text text-anchor="middle" x="397" y="-69.5" font-family="Helvetica,sans-Serif" font-size="10.00">mars/main_gui/MenuInterface.h</text>
</g>
<!-- Node2&#45;&gt;Node7 -->
<g id="edge6" class="edge"><title>Node2&#45;&gt;Node7</title>
<path fill="none" stroke="midnightblue" d="M339.599,-124.403C350.048,-115.047 366.968,-99.8948 379.736,-88.4599"/>
<polygon fill="midnightblue" stroke="midnightblue" points="382.304,-90.8592 387.418,-81.5806 377.634,-85.6445 382.304,-90.8592"/>
</g>
<!-- Node8 -->
<g id="node8" class="node"><title>Node8</title>
<polygon fill="white" stroke="#bfbfbf" points="492.5,-62.5 492.5,-81.5 637.5,-81.5 637.5,-62.5 492.5,-62.5"/>
<text text-anchor="middle" x="565" y="-69.5" font-family="Helvetica,sans-Serif" font-size="10.00">mars/main_gui/GuiInterface.h</text>
</g>
<!-- Node2&#45;&gt;Node8 -->
<g id="edge7" class="edge"><title>Node2&#45;&gt;Node8</title>
<path fill="none" stroke="midnightblue" d="M363.67,-124.403C405.202,-113.799 475.891,-95.7511 521.499,-84.1067"/>
<polygon fill="midnightblue" stroke="midnightblue" points="522.569,-87.4457 531.393,-81.5806 520.838,-80.6633 522.569,-87.4457"/>
</g>
<!-- Node9 -->
<g id="node9" class="node"><title>Node9</title>
<polygon fill="white" stroke="#bfbfbf" points="656,-62.5 656,-81.5 698,-81.5 698,-62.5 656,-62.5"/>
<text text-anchor="middle" x="677" y="-69.5" font-family="Helvetica,sans-Serif" font-size="10.00">QtGui</text>
</g>
<!-- Node2&#45;&gt;Node9 -->
<g id="edge8" class="edge"><title>Node2&#45;&gt;Node9</title>
<path fill="none" stroke="midnightblue" d="M364.544,-125.696C367.736,-125.093 370.924,-124.517 374,-124 494.253,-103.769 529.188,-123.001 646,-88 648.141,-87.3586 650.317,-86.5848 652.473,-85.7308"/>
<polygon fill="midnightblue" stroke="midnightblue" points="653.923,-88.9165 661.621,-81.6368 651.063,-82.5272 653.923,-88.9165"/>
</g>
<!-- Node6 -->
<g id="node6" class="node"><title>Node6</title>
<polygon fill="white" stroke="#bfbfbf" points="237,-0.5 237,-19.5 289,-19.5 289,-0.5 237,-0.5"/>
<text text-anchor="middle" x="263" y="-7.5" font-family="Helvetica,sans-Serif" font-size="10.00">QDialog</text>
</g>
<!-- Node5&#45;&gt;Node6 -->
<g id="edge5" class="edge"><title>Node5&#45;&gt;Node6</title>
<path fill="none" stroke="midnightblue" d="M263,-62.4035C263,-53.9381 263,-40.7283 263,-29.8199"/>
<polygon fill="midnightblue" stroke="midnightblue" points="266.5,-29.5806 263,-19.5806 259.5,-29.5806 266.5,-29.5806"/>
</g>
</g>
</svg>
