<?xml version="1.0" encoding="UTF-8" standalone="no"?>
<!DOCTYPE svg PUBLIC "-//W3C//DTD SVG 1.1//EN"
 "http://www.w3.org/Graphics/SVG/1.1/DTD/svg11.dtd">
<!-- Generated by graphviz version 2.26.3 (20100126.1600)
 -->
<!-- Title: /home/kavonszadkowski/limes&#45;dev/simulation/mars/scene_loader/src/SceneLoader.cpp Pages: 1 -->
<svg width="1922pt" height="286pt"
 viewBox="0.00 0.00 1922.00 286.00" xmlns="http://www.w3.org/2000/svg" xmlns:xlink="http://www.w3.org/1999/xlink">
<g id="graph1" class="graph" transform="scale(1 1) rotate(0) translate(4 282)">
<title>/home/kavonszadkowski/limes&#45;dev/simulation/mars/scene_loader/src/SceneLoader.cpp</title>
<polygon fill="white" stroke="white" points="-4,5 -4,-282 1919,-282 1919,5 -4,5"/>
<!-- Node1 -->
<g id="node1" class="node"><title>Node1</title>
<polygon fill="#bfbfbf" stroke="black" points="1208.5,-217 1208.5,-277 1333.5,-277 1333.5,-217 1208.5,-217"/>
<text text-anchor="start" x="1216.5" y="-264" font-family="Helvetica,sans-Serif" font-size="10.00">/home/kavonszadkowski</text>
<text text-anchor="start" x="1216.5" y="-251" font-family="Helvetica,sans-Serif" font-size="10.00">/limes&#45;dev/simulation</text>
<text text-anchor="start" x="1216.5" y="-238" font-family="Helvetica,sans-Serif" font-size="10.00">/mars/scene_loader/src</text>
<text text-anchor="middle" x="1271" y="-225" font-family="Helvetica,sans-Serif" font-size="10.00">/SceneLoader.cpp</text>
</g>
<!-- Node2 -->
<g id="node3" class="node"><title>Node2</title>
<a xlink:href="../../d4/d2d/_scene_loader_8h.html" target="_top" xlink:title="SceneLoader.h">
<polygon fill="white" stroke="black" points="1029,-151.5 1029,-172.5 1111,-172.5 1111,-151.5 1029,-151.5"/>
<text text-anchor="middle" x="1070" y="-159.5" font-family="Helvetica,sans-Serif" font-size="10.00">SceneLoader.h</text>
</a>
</g>
<!-- Node1&#45;&gt;Node2 -->
<g id="edge2" class="edge"><title>Node1&#45;&gt;Node2</title>
<path fill="none" stroke="midnightblue" d="M1208.23,-220.455C1174.02,-205.989 1132.99,-188.637 1104.56,-176.615"/>
<polygon fill="midnightblue" stroke="midnightblue" points="1105.64,-173.269 1095.06,-172.598 1102.91,-179.717 1105.64,-173.269"/>
</g>
<!-- Node20 -->
<g id="node39" class="node"><title>Node20</title>
<a xlink:href="../../de/d2b/_load_8h.html" target="_top" xlink:title="Load.h">
<polygon fill="white" stroke="black" points="1129,-151.5 1129,-172.5 1175,-172.5 1175,-151.5 1129,-151.5"/>
<text text-anchor="middle" x="1152" y="-159.5" font-family="Helvetica,sans-Serif" font-size="10.00">Load.h</text>
</a>
</g>
<!-- Node1&#45;&gt;Node20 -->
<g id="edge38" class="edge"><title>Node1&#45;&gt;Node20</title>
<path fill="none" stroke="midnightblue" d="M1228.71,-216.793C1210.73,-203.949 1190.45,-189.465 1175.26,-178.616"/>
<polygon fill="midnightblue" stroke="midnightblue" points="1177.14,-175.653 1166.96,-172.689 1173.07,-181.349 1177.14,-175.653"/>
</g>
<!-- Node22 -->
<g id="node47" class="node"><title>Node22</title>
<a xlink:href="../../d5/dff/_save_8h.html" target="_top" xlink:title="Save.h">
<polygon fill="white" stroke="black" points="1192.5,-151.5 1192.5,-172.5 1239.5,-172.5 1239.5,-151.5 1192.5,-151.5"/>
<text text-anchor="middle" x="1216" y="-159.5" font-family="Helvetica,sans-Serif" font-size="10.00">Save.h</text>
</a>
</g>
<!-- Node1&#45;&gt;Node22 -->
<g id="edge50" class="edge"><title>Node1&#45;&gt;Node22</title>
<path fill="none" stroke="midnightblue" d="M1251.45,-216.793C1243.81,-204.983 1235.27,-191.787 1228.49,-181.305"/>
<polygon fill="midnightblue" stroke="midnightblue" points="1231.42,-179.389 1223.05,-172.895 1225.54,-183.192 1231.42,-179.389"/>
</g>
<!-- Node27 -->
<g id="node63" class="node"><title>Node27</title>
<polygon fill="white" stroke="#bfbfbf" points="1256.5,-151.5 1256.5,-172.5 1397.5,-172.5 1397.5,-151.5 1256.5,-151.5"/>
<text text-anchor="middle" x="1327" y="-159.5" font-family="Helvetica,sans-Serif" font-size="10.00">lib_manager/LibManager.hpp</text>
</g>
<!-- Node1&#45;&gt;Node27 -->
<g id="edge72" class="edge"><title>Node1&#45;&gt;Node27</title>
<path fill="none" stroke="midnightblue" d="M1290.9,-216.793C1298.68,-204.983 1307.38,-191.787 1314.28,-181.305"/>
<polygon fill="midnightblue" stroke="midnightblue" points="1317.24,-183.171 1319.82,-172.895 1311.4,-179.32 1317.24,-183.171"/>
</g>
<!-- Node28 -->
<g id="node65" class="node"><title>Node28</title>
<polygon fill="white" stroke="#bfbfbf" points="1415,-151.5 1415,-172.5 1557,-172.5 1557,-151.5 1415,-151.5"/>
<text text-anchor="middle" x="1486" y="-159.5" font-family="Helvetica,sans-Serif" font-size="10.00">lib_manager/LibInterface.hpp</text>
</g>
<!-- Node1&#45;&gt;Node28 -->
<g id="edge74" class="edge"><title>Node1&#45;&gt;Node28</title>
<path fill="none" stroke="midnightblue" d="M1333.76,-222.186C1371.51,-207.265 1418.2,-188.804 1449.85,-176.291"/>
<polygon fill="midnightblue" stroke="midnightblue" points="1451.15,-179.541 1459.16,-172.61 1448.58,-173.031 1451.15,-179.541"/>
</g>
<!-- Node29 -->
<g id="node67" class="node"><title>Node29</title>
<polygon fill="white" stroke="#bfbfbf" points="1574.5,-145 1574.5,-179 1681.5,-179 1681.5,-145 1574.5,-145"/>
<text text-anchor="start" x="1582.5" y="-166" font-family="Helvetica,sans-Serif" font-size="10.00">mars/interfaces/sim</text>
<text text-anchor="middle" x="1628" y="-153" font-family="Helvetica,sans-Serif" font-size="10.00">/SimulatorInterface.h</text>
</g>
<!-- Node1&#45;&gt;Node29 -->
<g id="edge76" class="edge"><title>Node1&#45;&gt;Node29</title>
<path fill="none" stroke="midnightblue" d="M1333.7,-233.887C1391.37,-221.569 1479.46,-202.112 1564.47,-180.334"/>
<polygon fill="midnightblue" stroke="midnightblue" points="1565.47,-183.69 1574.29,-177.806 1563.73,-176.911 1565.47,-183.69"/>
</g>
<!-- Node3 -->
<g id="node5" class="node"><title>Node3</title>
<polygon fill="white" stroke="#bfbfbf" points="1151.5,-73 1151.5,-107 1254.5,-107 1254.5,-73 1151.5,-73"/>
<text text-anchor="start" x="1159.5" y="-94" font-family="Helvetica,sans-Serif" font-size="10.00">mars/interfaces/sim</text>
<text text-anchor="middle" x="1203" y="-81" font-family="Helvetica,sans-Serif" font-size="10.00">/ControlCenter.h</text>
</g>
<!-- Node2&#45;&gt;Node3 -->
<g id="edge4" class="edge"><title>Node2&#45;&gt;Node3</title>
<path fill="none" stroke="midnightblue" d="M1089.62,-151.376C1108.72,-141.04 1138.3,-125.025 1162.46,-111.945"/>
<polygon fill="midnightblue" stroke="midnightblue" points="1164.3,-114.933 1171.42,-107.094 1160.96,-108.777 1164.3,-114.933"/>
</g>
<!-- Node4 -->
<g id="node7" class="node"><title>Node4</title>
<polygon fill="white" stroke="#bfbfbf" points="559.5,-73 559.5,-107 662.5,-107 662.5,-73 559.5,-73"/>
<text text-anchor="start" x="567.5" y="-94" font-family="Helvetica,sans-Serif" font-size="10.00">mars/interfaces/sim</text>
<text text-anchor="middle" x="611" y="-81" font-family="Helvetica,sans-Serif" font-size="10.00">/LoadCenter.h</text>
</g>
<!-- Node2&#45;&gt;Node4 -->
<g id="edge6" class="edge"><title>Node2&#45;&gt;Node4</title>
<path fill="none" stroke="midnightblue" d="M1028.85,-158.578C957.847,-152.211 807.695,-136.708 672.683,-108.198"/>
<polygon fill="midnightblue" stroke="midnightblue" points="673.088,-104.706 662.577,-106.033 671.622,-111.55 673.088,-104.706"/>
</g>
<!-- Node5 -->
<g id="node9" class="node"><title>Node5</title>
<polygon fill="white" stroke="#bfbfbf" points="679.5,-73 679.5,-107 794.5,-107 794.5,-73 679.5,-73"/>
<text text-anchor="start" x="687.5" y="-94" font-family="Helvetica,sans-Serif" font-size="10.00">mars/interfaces/sim</text>
<text text-anchor="middle" x="737" y="-81" font-family="Helvetica,sans-Serif" font-size="10.00">/LoadSceneInterface.h</text>
</g>
<!-- Node2&#45;&gt;Node5 -->
<g id="edge8" class="edge"><title>Node2&#45;&gt;Node5</title>
<path fill="none" stroke="midnightblue" d="M1028.65,-154.522C977.964,-145.162 889.27,-128.151 804.336,-108.248"/>
<polygon fill="midnightblue" stroke="midnightblue" points="805.072,-104.826 794.535,-105.934 803.463,-111.638 805.072,-104.826"/>
</g>
<!-- Node6 -->
<g id="node11" class="node"><title>Node6</title>
<a xlink:href="../../da/d47/_save_load_structs_8h.html" target="_top" xlink:title="SaveLoadStructs.h">
<polygon fill="white" stroke="black" points="1034,-79.5 1034,-100.5 1134,-100.5 1134,-79.5 1034,-79.5"/>
<text text-anchor="middle" x="1084" y="-87.5" font-family="Helvetica,sans-Serif" font-size="10.00">SaveLoadStructs.h</text>
</a>
</g>
<!-- Node2&#45;&gt;Node6 -->
<g id="edge10" class="edge"><title>Node2&#45;&gt;Node6</title>
<path fill="none" stroke="midnightblue" d="M1072.07,-151.376C1074.13,-140.741 1077.37,-124.095 1079.95,-110.82"/>
<polygon fill="midnightblue" stroke="midnightblue" points="1083.45,-111.152 1081.93,-100.667 1076.58,-109.816 1083.45,-111.152"/>
</g>
<!-- Node7 -->
<g id="node13" class="node"><title>Node7</title>
<polygon fill="white" stroke="#bfbfbf" points="0,-1 0,-35 116,-35 116,-1 0,-1"/>
<text text-anchor="start" x="8" y="-22" font-family="Helvetica,sans-Serif" font-size="10.00">mars/interfaces/sensor</text>
<text text-anchor="middle" x="58" y="-9" font-family="Helvetica,sans-Serif" font-size="10.00">_bases.h</text>
</g>
<!-- Node6&#45;&gt;Node7 -->
<g id="edge12" class="edge"><title>Node6&#45;&gt;Node7</title>
<path fill="none" stroke="midnightblue" d="M1033.87,-79.7881C1017.41,-76.8019 998.983,-73.8469 982,-72 606.341,-31.1459 503.617,-92.7067 126.403,-36.0113"/>
<polygon fill="midnightblue" stroke="midnightblue" points="126.717,-32.5188 116.304,-34.4751 125.664,-39.4392 126.717,-32.5188"/>
</g>
<!-- Node8 -->
<g id="node15" class="node"><title>Node8</title>
<polygon fill="white" stroke="#bfbfbf" points="134,-1 134,-35 256,-35 256,-1 134,-1"/>
<text text-anchor="start" x="142" y="-22" font-family="Helvetica,sans-Serif" font-size="10.00">mars/interfaces/Material</text>
<text text-anchor="middle" x="195" y="-9" font-family="Helvetica,sans-Serif" font-size="10.00">Data.h</text>
</g>
<!-- Node6&#45;&gt;Node8 -->
<g id="edge14" class="edge"><title>Node6&#45;&gt;Node8</title>
<path fill="none" stroke="midnightblue" d="M1052.09,-79.4922C1041.94,-76.5655 1030.6,-73.7198 1020,-72 691.641,-18.7041 598.986,-84.7767 266.23,-35.9977"/>
<polygon fill="midnightblue" stroke="midnightblue" points="266.721,-32.5323 256.314,-34.5208 265.689,-39.4559 266.721,-32.5323"/>
</g>
<!-- Node9 -->
<g id="node17" class="node"><title>Node9</title>
<polygon fill="white" stroke="#bfbfbf" points="273.5,-7.5 273.5,-28.5 414.5,-28.5 414.5,-7.5 273.5,-7.5"/>
<text text-anchor="middle" x="344" y="-15.5" font-family="Helvetica,sans-Serif" font-size="10.00">mars/interfaces/MotorData.h</text>
</g>
<!-- Node6&#45;&gt;Node9 -->
<g id="edge16" class="edge"><title>Node6&#45;&gt;Node9</title>
<path fill="none" stroke="midnightblue" d="M1051.75,-79.479C1041.68,-76.5889 1030.47,-73.7672 1020,-72 757.892,-27.763 686.135,-73.6522 423,-36 413.694,-34.6684 403.863,-32.8054 394.416,-30.7792"/>
<polygon fill="midnightblue" stroke="midnightblue" points="394.88,-27.2968 384.358,-28.5339 393.355,-34.1286 394.88,-27.2968"/>
</g>
<!-- Node10 -->
<g id="node19" class="node"><title>Node10</title>
<polygon fill="white" stroke="#bfbfbf" points="432,-7.5 432,-28.5 572,-28.5 572,-7.5 432,-7.5"/>
<text text-anchor="middle" x="502" y="-15.5" font-family="Helvetica,sans-Serif" font-size="10.00">mars/interfaces/NodeData.h</text>
</g>
<!-- Node6&#45;&gt;Node10 -->
<g id="edge18" class="edge"><title>Node6&#45;&gt;Node10</title>
<path fill="none" stroke="midnightblue" d="M1051.07,-79.43C1041.17,-76.61 1030.22,-73.8393 1020,-72 827.327,-37.3384 774.481,-65.8205 581,-36 571.913,-34.5995 562.317,-32.7408 553.064,-30.7492"/>
<polygon fill="midnightblue" stroke="midnightblue" points="553.719,-27.3096 543.198,-28.5513 552.197,-34.1421 553.719,-27.3096"/>
</g>
<!-- Node11 -->
<g id="node21" class="node"><title>Node11</title>
<polygon fill="white" stroke="#bfbfbf" points="589.5,-7.5 589.5,-28.5 726.5,-28.5 726.5,-7.5 589.5,-7.5"/>
<text text-anchor="middle" x="658" y="-15.5" font-family="Helvetica,sans-Serif" font-size="10.00">mars/interfaces/JointData.h</text>
</g>
<!-- Node6&#45;&gt;Node11 -->
<g id="edge20" class="edge"><title>Node6&#45;&gt;Node11</title>
<path fill="none" stroke="midnightblue" d="M1050.02,-79.4308C1040.39,-76.7117 1029.84,-73.9941 1020,-72 894.869,-46.6467 860.664,-58.5616 735,-36 726.648,-34.5004 717.84,-32.6756 709.283,-30.77"/>
<polygon fill="midnightblue" stroke="midnightblue" points="709.924,-27.3264 699.396,-28.5106 708.365,-34.1505 709.924,-27.3264"/>
</g>
<!-- Node12 -->
<g id="node23" class="node"><title>Node12</title>
<polygon fill="white" stroke="#bfbfbf" points="743.5,-1 743.5,-35 872.5,-35 872.5,-1 743.5,-1"/>
<text text-anchor="start" x="751.5" y="-22" font-family="Helvetica,sans-Serif" font-size="10.00">mars/interfaces/Controller</text>
<text text-anchor="middle" x="808" y="-9" font-family="Helvetica,sans-Serif" font-size="10.00">Data.h</text>
</g>
<!-- Node6&#45;&gt;Node12 -->
<g id="edge22" class="edge"><title>Node6&#45;&gt;Node12</title>
<path fill="none" stroke="midnightblue" d="M1047.15,-79.4689C1038.27,-76.9775 1028.81,-74.3599 1020,-72 974.415,-59.786 923.137,-46.707 882.432,-36.4802"/>
<polygon fill="midnightblue" stroke="midnightblue" points="883.139,-33.0492 872.588,-34.0108 881.436,-39.8389 883.139,-33.0492"/>
</g>
<!-- Node13 -->
<g id="node25" class="node"><title>Node13</title>
<polygon fill="white" stroke="#bfbfbf" points="889.5,-1 889.5,-35 998.5,-35 998.5,-1 889.5,-1"/>
<text text-anchor="start" x="897.5" y="-22" font-family="Helvetica,sans-Serif" font-size="10.00">mars/interfaces/core</text>
<text text-anchor="middle" x="944" y="-9" font-family="Helvetica,sans-Serif" font-size="10.00">_objects_exchange.h</text>
</g>
<!-- Node6&#45;&gt;Node13 -->
<g id="edge24" class="edge"><title>Node6&#45;&gt;Node13</title>
<path fill="none" stroke="midnightblue" d="M1063.34,-79.3762C1043.16,-68.9942 1011.83,-52.8833 986.336,-39.7727"/>
<polygon fill="midnightblue" stroke="midnightblue" points="987.733,-36.5554 977.239,-35.0944 984.531,-42.7804 987.733,-36.5554"/>
</g>
<!-- Node14 -->
<g id="node27" class="node"><title>Node14</title>
<polygon fill="white" stroke="#bfbfbf" points="1015.5,-7.5 1015.5,-28.5 1152.5,-28.5 1152.5,-7.5 1015.5,-7.5"/>
<text text-anchor="middle" x="1084" y="-15.5" font-family="Helvetica,sans-Serif" font-size="10.00">mars/interfaces/LightData.h</text>
</g>
<!-- Node6&#45;&gt;Node14 -->
<g id="edge26" class="edge"><title>Node6&#45;&gt;Node14</title>
<path fill="none" stroke="midnightblue" d="M1084,-79.3762C1084,-68.7412 1084,-52.0946 1084,-38.8195"/>
<polygon fill="midnightblue" stroke="midnightblue" points="1087.5,-38.6674 1084,-28.6674 1080.5,-38.6675 1087.5,-38.6674"/>
</g>
<!-- Node15 -->
<g id="node29" class="node"><title>Node15</title>
<polygon fill="white" stroke="#bfbfbf" points="1170,-7.5 1170,-28.5 1320,-28.5 1320,-7.5 1170,-7.5"/>
<text text-anchor="middle" x="1245" y="-15.5" font-family="Helvetica,sans-Serif" font-size="10.00">mars/interfaces/GraphicData.h</text>
</g>
<!-- Node6&#45;&gt;Node15 -->
<g id="edge28" class="edge"><title>Node6&#45;&gt;Node15</title>
<path fill="none" stroke="midnightblue" d="M1107.76,-79.3762C1135.3,-67.0574 1180.88,-46.673 1211.89,-32.8052"/>
<polygon fill="midnightblue" stroke="midnightblue" points="1213.71,-35.8277 1221.41,-28.5501 1210.85,-29.4376 1213.71,-35.8277"/>
</g>
<!-- Node16 -->
<g id="node31" class="node"><title>Node16</title>
<polygon fill="white" stroke="#bfbfbf" points="1337.5,-7.5 1337.5,-28.5 1486.5,-28.5 1486.5,-7.5 1337.5,-7.5"/>
<text text-anchor="middle" x="1412" y="-15.5" font-family="Helvetica,sans-Serif" font-size="10.00">mars/interfaces/terrainStruct.h</text>
</g>
<!-- Node6&#45;&gt;Node16 -->
<g id="edge30" class="edge"><title>Node6&#45;&gt;Node16</title>
<path fill="none" stroke="midnightblue" d="M1116.29,-79.4811C1124.92,-76.8542 1134.27,-74.1702 1143,-72 1224.71,-51.6869 1246.52,-52.9239 1329,-36 1337.2,-34.3172 1345.85,-32.4954 1354.34,-30.679"/>
<polygon fill="midnightblue" stroke="midnightblue" points="1355.16,-34.0829 1364.2,-28.5579 1353.69,-27.2395 1355.16,-34.0829"/>
</g>
<!-- Node17 -->
<g id="node33" class="node"><title>Node17</title>
<polygon fill="white" stroke="#bfbfbf" points="1503.5,-7.5 1503.5,-28.5 1538.5,-28.5 1538.5,-7.5 1503.5,-7.5"/>
<text text-anchor="middle" x="1521" y="-15.5" font-family="Helvetica,sans-Serif" font-size="10.00">map</text>
</g>
<!-- Node6&#45;&gt;Node17 -->
<g id="edge32" class="edge"><title>Node6&#45;&gt;Node17</title>
<path fill="none" stroke="midnightblue" d="M1114.64,-79.4197C1123.68,-76.6341 1133.66,-73.8844 1143,-72 1297.16,-40.9087 1347.48,-90.4751 1495,-36 1496.63,-35.3986 1498.25,-34.671 1499.85,-33.8577"/>
<polygon fill="midnightblue" stroke="midnightblue" points="1501.81,-36.7607 1508.49,-28.5426 1498.14,-30.797 1501.81,-36.7607"/>
</g>
<!-- Node18 -->
<g id="node35" class="node"><title>Node18</title>
<polygon fill="white" stroke="#bfbfbf" points="1556,-7.5 1556,-28.5 1600,-28.5 1600,-7.5 1556,-7.5"/>
<text text-anchor="middle" x="1578" y="-15.5" font-family="Helvetica,sans-Serif" font-size="10.00">vector</text>
</g>
<!-- Node6&#45;&gt;Node18 -->
<g id="edge34" class="edge"><title>Node6&#45;&gt;Node18</title>
<path fill="none" stroke="midnightblue" d="M1114.32,-79.4358C1123.44,-76.616 1133.54,-73.8439 1143,-72 1319.94,-37.5135 1375.19,-90.5575 1547,-36 1549.3,-35.269 1551.62,-34.3458 1553.89,-33.3057"/>
<polygon fill="midnightblue" stroke="midnightblue" points="1555.65,-36.335 1562.85,-28.5633 1552.38,-30.1482 1555.65,-36.335"/>
</g>
<!-- Node19 -->
<g id="node37" class="node"><title>Node19</title>
<polygon fill="white" stroke="#bfbfbf" points="1617.5,-7.5 1617.5,-28.5 1658.5,-28.5 1658.5,-7.5 1617.5,-7.5"/>
<text text-anchor="middle" x="1638" y="-15.5" font-family="Helvetica,sans-Serif" font-size="10.00">string</text>
</g>
<!-- Node6&#45;&gt;Node19 -->
<g id="edge36" class="edge"><title>Node6&#45;&gt;Node19</title>
<path fill="none" stroke="midnightblue" d="M1114,-79.4596C1123.2,-76.6051 1133.42,-73.808 1143,-72 1347.12,-33.4609 1411.58,-100.614 1609,-36 1610.94,-35.3641 1612.89,-34.5727 1614.8,-33.6792"/>
<polygon fill="midnightblue" stroke="midnightblue" points="1616.88,-36.5266 1623.92,-28.609 1613.48,-30.4083 1616.88,-36.5266"/>
</g>
<!-- Node20&#45;&gt;Node3 -->
<g id="edge42" class="edge"><title>Node20&#45;&gt;Node3</title>
<path fill="none" stroke="midnightblue" d="M1159.53,-151.376C1166.23,-141.905 1176.32,-127.666 1185.09,-115.286"/>
<polygon fill="midnightblue" stroke="midnightblue" points="1187.97,-117.278 1190.89,-107.094 1182.26,-113.232 1187.97,-117.278"/>
</g>
<!-- Node20&#45;&gt;Node7 -->
<g id="edge46" class="edge"><title>Node20&#45;&gt;Node7</title>
<path fill="none" stroke="midnightblue" d="M1135.13,-151.445C1130.36,-148.757 1125.08,-146.053 1120,-144 1061.23,-120.266 1036.3,-140.699 982,-108 963.406,-96.8031 968.672,-81.1715 949,-72 868.374,-34.4109 253.192,-49.0415 126.42,-35.751"/>
<polygon fill="midnightblue" stroke="midnightblue" points="126.666,-32.2542 116.305,-34.4692 125.786,-39.1987 126.666,-32.2542"/>
</g>
<!-- Node20&#45;&gt;Node8 -->
<g id="edge48" class="edge"><title>Node20&#45;&gt;Node8</title>
<path fill="none" stroke="midnightblue" d="M1134.31,-151.425C1129.72,-148.856 1124.73,-146.214 1120,-144 1079.1,-124.878 1063.97,-130.811 1025,-108 1003.49,-95.4079 1005.21,-81.0966 982,-72 836.371,-14.913 438.665,-58.2216 266.342,-35.9238"/>
<polygon fill="midnightblue" stroke="midnightblue" points="266.706,-32.4406 256.316,-34.5118 265.73,-39.3722 266.706,-32.4406"/>
</g>
<!-- Node20&#45;&gt;Node17 -->
<g id="edge40" class="edge"><title>Node20&#45;&gt;Node17</title>
<path fill="none" stroke="midnightblue" d="M1170.13,-151.449C1174.62,-148.933 1179.45,-146.309 1184,-144 1218.4,-126.526 1228.18,-124.631 1263,-108 1295.28,-92.5796 1301.3,-84.0148 1335,-72 1403.66,-47.5221 1428.25,-65.2833 1495,-36 1496.38,-35.3934 1497.77,-34.7095 1499.14,-33.9718"/>
<polygon fill="midnightblue" stroke="midnightblue" points="1501.18,-36.8267 1507.82,-28.5737 1497.48,-30.8823 1501.18,-36.8267"/>
</g>
<!-- Node21 -->
<g id="node43" class="node"><title>Node21</title>
<polygon fill="white" stroke="#bfbfbf" points="812,-79.5 812,-100.5 940,-100.5 940,-79.5 812,-79.5"/>
<text text-anchor="middle" x="876" y="-87.5" font-family="Helvetica,sans-Serif" font-size="10.00">configmaps/ConfigData.h</text>
</g>
<!-- Node20&#45;&gt;Node21 -->
<g id="edge44" class="edge"><title>Node20&#45;&gt;Node21</title>
<path fill="none" stroke="midnightblue" d="M1135.52,-151.492C1130.66,-148.741 1125.24,-145.992 1120,-144 1049.43,-117.196 1027.67,-124.488 954,-108 946.645,-106.354 938.905,-104.597 931.274,-102.851"/>
<polygon fill="midnightblue" stroke="midnightblue" points="931.876,-99.3982 921.347,-100.571 930.31,-106.221 931.876,-99.3982"/>
</g>
<!-- Node22&#45;&gt;Node3 -->
<g id="edge56" class="edge"><title>Node22&#45;&gt;Node3</title>
<path fill="none" stroke="midnightblue" d="M1214.08,-151.376C1212.45,-142.36 1210.05,-129.024 1207.89,-117.084"/>
<polygon fill="midnightblue" stroke="midnightblue" points="1211.31,-116.313 1206.09,-107.094 1204.42,-117.557 1211.31,-116.313"/>
</g>
<!-- Node22&#45;&gt;Node6 -->
<g id="edge70" class="edge"><title>Node22&#45;&gt;Node6</title>
<path fill="none" stroke="midnightblue" d="M1197.42,-151.476C1193.03,-149.009 1188.35,-146.4 1184,-144 1160.13,-130.844 1132.91,-116.165 1112.9,-105.436"/>
<polygon fill="midnightblue" stroke="midnightblue" points="1114.44,-102.293 1103.98,-100.657 1111.14,-108.464 1114.44,-102.293"/>
</g>
<!-- Node22&#45;&gt;Node18 -->
<g id="edge54" class="edge"><title>Node22&#45;&gt;Node18</title>
<path fill="none" stroke="midnightblue" d="M1233.67,-151.374C1238.26,-148.806 1243.25,-146.177 1248,-144 1376.46,-85.163 1418.95,-95.7141 1547,-36 1548.59,-35.2586 1550.21,-34.4623 1551.82,-33.632"/>
<polygon fill="midnightblue" stroke="midnightblue" points="1553.82,-36.5262 1560.91,-28.6536 1550.46,-30.3863 1553.82,-36.5262"/>
</g>
<!-- Node22&#45;&gt;Node19 -->
<g id="edge52" class="edge"><title>Node22&#45;&gt;Node19</title>
<path fill="none" stroke="midnightblue" d="M1232.82,-151.317C1237.59,-148.629 1242.88,-145.956 1248,-144 1317.31,-117.526 1339.76,-128.722 1411,-108 1500.91,-81.8466 1524.77,-76.9088 1609,-36 1610.54,-35.2525 1612.1,-34.4446 1613.66,-33.5994"/>
<polygon fill="midnightblue" stroke="midnightblue" points="1615.51,-36.5736 1622.38,-28.5128 1611.98,-30.5265 1615.51,-36.5736"/>
</g>
<!-- Node23 -->
<g id="node52" class="node"><title>Node23</title>
<a xlink:href="../../d7/d37/scene__loader_2src_2zipit_8h.html" target="_top" xlink:title="zipit.h">
<polygon fill="white" stroke="black" points="1655.5,-79.5 1655.5,-100.5 1698.5,-100.5 1698.5,-79.5 1655.5,-79.5"/>
<text text-anchor="middle" x="1677" y="-87.5" font-family="Helvetica,sans-Serif" font-size="10.00">zipit.h</text>
</a>
</g>
<!-- Node22&#45;&gt;Node23 -->
<g id="edge58" class="edge"><title>Node22&#45;&gt;Node23</title>
<path fill="none" stroke="midnightblue" d="M1232.03,-151.326C1236.96,-148.503 1242.54,-145.757 1248,-144 1386.77,-99.367 1429.69,-128.557 1574,-108 1598.03,-104.577 1625.05,-99.8203 1645.39,-96.0561"/>
<polygon fill="midnightblue" stroke="midnightblue" points="1646.18,-99.4695 1655.36,-94.1905 1644.89,-92.5888 1646.18,-99.4695"/>
</g>
<!-- Node23&#45;&gt;Node18 -->
<g id="edge64" class="edge"><title>Node23&#45;&gt;Node18</title>
<path fill="none" stroke="midnightblue" d="M1662.39,-79.3762C1646.16,-67.5713 1619.74,-48.3596 1600.79,-34.5736"/>
<polygon fill="midnightblue" stroke="midnightblue" points="1602.81,-31.7186 1592.67,-28.6674 1598.7,-37.3798 1602.81,-31.7186"/>
</g>
<!-- Node23&#45;&gt;Node19 -->
<g id="edge60" class="edge"><title>Node23&#45;&gt;Node19</title>
<path fill="none" stroke="midnightblue" d="M1671.25,-79.3762C1665.31,-68.4221 1655.92,-51.0904 1648.64,-37.6341"/>
<polygon fill="midnightblue" stroke="midnightblue" points="1651.62,-35.7934 1643.78,-28.6674 1645.46,-39.1274 1651.62,-35.7934"/>
</g>
<!-- Node24 -->
<g id="node55" class="node"><title>Node24</title>
<polygon fill="white" stroke="#bfbfbf" points="1864,-7.5 1864,-28.5 1914,-28.5 1914,-7.5 1864,-7.5"/>
<text text-anchor="middle" x="1889" y="-15.5" font-family="Helvetica,sans-Serif" font-size="10.00">fstream</text>
</g>
<!-- Node23&#45;&gt;Node24 -->
<g id="edge62" class="edge"><title>Node23&#45;&gt;Node24</title>
<path fill="none" stroke="midnightblue" d="M1698.56,-84.8905C1732.51,-76.5283 1800.21,-58.5691 1855,-36 1857.11,-35.132 1859.26,-34.1755 1861.4,-33.1696"/>
<polygon fill="midnightblue" stroke="midnightblue" points="1863.23,-36.169 1870.6,-28.5642 1860.1,-29.9088 1863.23,-36.169"/>
</g>
<!-- Node25 -->
<g id="node58" class="node"><title>Node25</title>
<polygon fill="white" stroke="#bfbfbf" points="1676,-7.5 1676,-28.5 1758,-28.5 1758,-7.5 1676,-7.5"/>
<text text-anchor="middle" x="1717" y="-15.5" font-family="Helvetica,sans-Serif" font-size="10.00">minizip/unzip.h</text>
</g>
<!-- Node23&#45;&gt;Node25 -->
<g id="edge66" class="edge"><title>Node23&#45;&gt;Node25</title>
<path fill="none" stroke="midnightblue" d="M1682.9,-79.3762C1688.99,-68.4221 1698.62,-51.0904 1706.09,-37.6341"/>
<polygon fill="midnightblue" stroke="midnightblue" points="1709.28,-39.1088 1711.07,-28.6674 1703.16,-35.7093 1709.28,-39.1088"/>
</g>
<!-- Node26 -->
<g id="node60" class="node"><title>Node26</title>
<polygon fill="white" stroke="#bfbfbf" points="1775.5,-7.5 1775.5,-28.5 1846.5,-28.5 1846.5,-7.5 1775.5,-7.5"/>
<text text-anchor="middle" x="1811" y="-15.5" font-family="Helvetica,sans-Serif" font-size="10.00">minizip/zip.h</text>
</g>
<!-- Node23&#45;&gt;Node26 -->
<g id="edge68" class="edge"><title>Node23&#45;&gt;Node26</title>
<path fill="none" stroke="midnightblue" d="M1696.77,-79.3762C1719.34,-67.2523 1756.44,-47.3157 1782.21,-33.468"/>
<polygon fill="midnightblue" stroke="midnightblue" points="1783.99,-36.4838 1791.15,-28.6674 1780.68,-30.3175 1783.99,-36.4838"/>
</g>
</g>
</svg>
