<?xml version="1.0" encoding="UTF-8" standalone="no"?>
<!DOCTYPE svg PUBLIC "-//W3C//DTD SVG 1.1//EN"
 "http://www.w3.org/Graphics/SVG/1.1/DTD/svg11.dtd">
<!-- Generated by graphviz version 2.26.3 (20100126.1600)
 -->
<!-- Title: /home/kavonszadkowski/limes&#45;dev/lib_manager/src/LibInterface.h Pages: 1 -->
<svg width="150pt" height="114pt"
 viewBox="0.00 0.00 150.00 114.00" xmlns="http://www.w3.org/2000/svg" xmlns:xlink="http://www.w3.org/1999/xlink">
<g id="graph1" class="graph" transform="scale(1 1) rotate(0) translate(4 110)">
<title>/home/kavonszadkowski/limes&#45;dev/lib_manager/src/LibInterface.h</title>
<polygon fill="white" stroke="white" points="-4,5 -4,-110 147,-110 147,5 -4,5"/>
<!-- Node1 -->
<g id="node1" class="node"><title>Node1</title>
<polygon fill="#bfbfbf" stroke="black" points="8.5,-58.5 8.5,-105.5 133.5,-105.5 133.5,-58.5 8.5,-58.5"/>
<text text-anchor="start" x="16.5" y="-92.5" font-family="Helvetica,sans-Serif" font-size="10.00">/home/kavonszadkowski</text>
<text text-anchor="start" x="16.5" y="-79.5" font-family="Helvetica,sans-Serif" font-size="10.00">/limes&#45;dev/lib_manager</text>
<text text-anchor="middle" x="71" y="-66.5" font-family="Helvetica,sans-Serif" font-size="10.00">/src/LibInterface.h</text>
</g>
<!-- Node2 -->
<g id="node3" class="node"><title>Node2</title>
<polygon fill="white" stroke="#bfbfbf" points="0,-0.5 0,-21.5 142,-21.5 142,-0.5 0,-0.5"/>
<text text-anchor="middle" x="71" y="-8.5" font-family="Helvetica,sans-Serif" font-size="10.00">lib_manager/LibInterface.hpp</text>
</g>
<!-- Node1&#45;&gt;Node2 -->
<g id="edge2" class="edge"><title>Node1&#45;&gt;Node2</title>
<path fill="none" stroke="midnightblue" d="M71,-58.358C71,-49.719 71,-40.0215 71,-31.6624"/>
<polygon fill="midnightblue" stroke="midnightblue" points="74.5001,-31.6462 71,-21.6462 67.5001,-31.6463 74.5001,-31.6462"/>
</g>
</g>
</svg>
