<?xml version="1.0" encoding="UTF-8" standalone="no"?>
<!DOCTYPE svg PUBLIC "-//W3C//DTD SVG 1.1//EN"
 "http://www.w3.org/Graphics/SVG/1.1/DTD/svg11.dtd">
<!-- Generated by graphviz version 2.26.3 (20100126.1600)
 -->
<!-- Title: GameControllerWin32 Pages: 1 -->
<svg width="158pt" height="252pt"
 viewBox="0.00 0.00 158.00 252.00" xmlns="http://www.w3.org/2000/svg" xmlns:xlink="http://www.w3.org/1999/xlink">
<g id="graph1" class="graph" transform="scale(1 1) rotate(0) translate(4 248)">
<title>GameControllerWin32</title>
<polygon fill="white" stroke="white" points="-4,5 -4,-248 155,-248 155,5 -4,5"/>
<!-- Node1 -->
<g id="node1" class="node"><title>Node1</title>
<polygon fill="#bfbfbf" stroke="black" points="1.5,-0.5 1.5,-21.5 114.5,-21.5 114.5,-0.5 1.5,-0.5"/>
<text text-anchor="middle" x="58" y="-8.5" font-family="Helvetica,sans-Serif" font-size="10.00">GameControllerWin32</text>
</g>
<!-- Node2 -->
<g id="node2" class="node"><title>Node2</title>
<a xlink:href="../../d1/d8b/class_game_controller.html" target="_top" xlink:title="GameController">
<polygon fill="white" stroke="black" points="15.5,-60.5 15.5,-81.5 100.5,-81.5 100.5,-60.5 15.5,-60.5"/>
<text text-anchor="middle" x="58" y="-68.5" font-family="Helvetica,sans-Serif" font-size="10.00">GameController</text>
</a>
</g>
<!-- Node2&#45;&gt;Node1 -->
<g id="edge2" class="edge"><title>Node2&#45;&gt;Node1</title>
<path fill="none" stroke="midnightblue" d="M58,-50.2312C58,-40.5922 58,-29.5444 58,-21.6339"/>
<polygon fill="midnightblue" stroke="midnightblue" points="54.5001,-50.2732 58,-60.2732 61.5001,-50.2732 54.5001,-50.2732"/>
</g>
<!-- Node3 -->
<g id="node4" class="node"><title>Node3</title>
<polygon fill="white" stroke="#bfbfbf" points="-0.5,-222.5 -0.5,-243.5 40.5,-243.5 40.5,-222.5 -0.5,-222.5"/>
<text text-anchor="middle" x="20" y="-230.5" font-family="Helvetica,sans-Serif" font-size="10.00">string</text>
</g>
<!-- Node3&#45;&gt;Node2 -->
<g id="edge4" class="edge"><title>Node3&#45;&gt;Node2</title>
<path fill="none" stroke="#9a32cd" stroke-dasharray="5,2" d="M17.6518,-212.213C15.4803,-185.134 14.6931,-136.901 31,-100 34.1142,-92.9529 39.6714,-86.5213 44.938,-81.5154"/>
<polygon fill="#9a32cd" stroke="#9a32cd" points="14.192,-212.803 18.6214,-222.428 21.1607,-212.142 14.192,-212.803"/>
<text text-anchor="middle" x="52.5" y="-149.5" font-family="Helvetica,sans-Serif" font-size="10.00"> myName</text>
</g>
<!-- Node4 -->
<g id="node6" class="node"><title>Node4</title>
<a xlink:href="../../dd/d5c/class_g_c_axis_setup.html" target="_top" xlink:title="GCAxisSetup">
<polygon fill="white" stroke="black" points="57.5,-222.5 57.5,-243.5 134.5,-243.5 134.5,-222.5 57.5,-222.5"/>
<text text-anchor="middle" x="96" y="-230.5" font-family="Helvetica,sans-Serif" font-size="10.00">GCAxisSetup</text>
</a>
</g>
<!-- Node4&#45;&gt;Node2 -->
<g id="edge6" class="edge"><title>Node4&#45;&gt;Node2</title>
<path fill="none" stroke="#9a32cd" stroke-dasharray="5,2" d="M94.7572,-212.302C92.6706,-185.678 87.2943,-138.306 74,-100 71.7753,-93.5899 68.2021,-86.9276 64.9962,-81.6076"/>
<polygon fill="#9a32cd" stroke="#9a32cd" points="91.2711,-212.624 95.4636,-222.354 98.2539,-212.133 91.2711,-212.624"/>
<text text-anchor="middle" x="121.5" y="-195" font-family="Helvetica,sans-Serif" font-size="10.00"> axisXrSetup</text>
<text text-anchor="middle" x="121.5" y="-182" font-family="Helvetica,sans-Serif" font-size="10.00">axisYrSetup</text>
<text text-anchor="middle" x="121.5" y="-169" font-family="Helvetica,sans-Serif" font-size="10.00">axisZrSetup</text>
<text text-anchor="middle" x="121.5" y="-156" font-family="Helvetica,sans-Serif" font-size="10.00">axisZSetup</text>
<text text-anchor="middle" x="121.5" y="-143" font-family="Helvetica,sans-Serif" font-size="10.00">axisYSetup</text>
<text text-anchor="middle" x="121.5" y="-130" font-family="Helvetica,sans-Serif" font-size="10.00">slider2Setup</text>
<text text-anchor="middle" x="121.5" y="-117" font-family="Helvetica,sans-Serif" font-size="10.00">axisXSetup</text>
<text text-anchor="middle" x="121.5" y="-104" font-family="Helvetica,sans-Serif" font-size="10.00">slider1Setup</text>
</g>
</g>
</svg>
