<?xml version="1.0" encoding="UTF-8" standalone="no"?>
<!DOCTYPE svg PUBLIC "-//W3C//DTD SVG 1.1//EN"
 "http://www.w3.org/Graphics/SVG/1.1/DTD/svg11.dtd">
<!-- Generated by graphviz version 2.26.3 (20100126.1600)
 -->
<!-- Title: /home/kavonszadkowski/limes&#45;dev/simulation/mars/graphics/src/GraphicsViewer.cpp Pages: 1 -->
<svg width="292pt" height="186pt"
 viewBox="0.00 0.00 292.00 186.00" xmlns="http://www.w3.org/2000/svg" xmlns:xlink="http://www.w3.org/1999/xlink">
<g id="graph1" class="graph" transform="scale(1 1) rotate(0) translate(4 182)">
<title>/home/kavonszadkowski/limes&#45;dev/simulation/mars/graphics/src/GraphicsViewer.cpp</title>
<polygon fill="white" stroke="white" points="-4,5 -4,-182 289,-182 289,5 -4,5"/>
<!-- Node1 -->
<g id="node1" class="node"><title>Node1</title>
<polygon fill="#bfbfbf" stroke="black" points="52,-130.5 52,-177.5 240,-177.5 240,-130.5 52,-130.5"/>
<text text-anchor="start" x="60" y="-164.5" font-family="Helvetica,sans-Serif" font-size="10.00">/home/kavonszadkowski</text>
<text text-anchor="start" x="60" y="-151.5" font-family="Helvetica,sans-Serif" font-size="10.00">/limes&#45;dev/simulation</text>
<text text-anchor="middle" x="146" y="-138.5" font-family="Helvetica,sans-Serif" font-size="10.00">/mars/graphics/src/GraphicsViewer.cpp</text>
</g>
<!-- Node2 -->
<g id="node3" class="node"><title>Node2</title>
<a xlink:href="../../dc/d6d/_graphics_viewer_8h.html" target="_top" xlink:title="The &quot;GraphicsViewer&quot;. ">
<polygon fill="white" stroke="black" points="99,-72.5 99,-93.5 193,-93.5 193,-72.5 99,-72.5"/>
<text text-anchor="middle" x="146" y="-80.5" font-family="Helvetica,sans-Serif" font-size="10.00">GraphicsViewer.h</text>
</a>
</g>
<!-- Node1&#45;&gt;Node2 -->
<g id="edge2" class="edge"><title>Node1&#45;&gt;Node2</title>
<path fill="none" stroke="midnightblue" d="M146,-130.358C146,-121.719 146,-112.022 146,-103.662"/>
<polygon fill="midnightblue" stroke="midnightblue" points="149.5,-103.646 146,-93.6462 142.5,-103.646 149.5,-103.646"/>
</g>
<!-- Node3 -->
<g id="node5" class="node"><title>Node3</title>
<polygon fill="white" stroke="#bfbfbf" points="-0.5,-7.5 -0.5,-28.5 142.5,-28.5 142.5,-7.5 -0.5,-7.5"/>
<text text-anchor="middle" x="71" y="-15.5" font-family="Helvetica,sans-Serif" font-size="10.00">osgViewer/CompositeViewer</text>
</g>
<!-- Node2&#45;&gt;Node3 -->
<g id="edge4" class="edge"><title>Node2&#45;&gt;Node3</title>
<path fill="none" stroke="midnightblue" d="M133.615,-72.2666C122.038,-62.2334 104.552,-47.078 90.9974,-35.3311"/>
<polygon fill="midnightblue" stroke="midnightblue" points="93.0035,-32.4381 83.1543,-28.5337 88.4189,-37.728 93.0035,-32.4381"/>
</g>
<!-- Node4 -->
<g id="node7" class="node"><title>Node4</title>
<polygon fill="white" stroke="#bfbfbf" points="160,-1 160,-35 284,-35 284,-1 160,-1"/>
<text text-anchor="start" x="168" y="-22" font-family="Helvetica,sans-Serif" font-size="10.00">mars/interfaces/graphics</text>
<text text-anchor="middle" x="222" y="-9" font-family="Helvetica,sans-Serif" font-size="10.00">/GuiEventInterface.h</text>
</g>
<!-- Node2&#45;&gt;Node4 -->
<g id="edge6" class="edge"><title>Node2&#45;&gt;Node4</title>
<path fill="none" stroke="midnightblue" d="M158.55,-72.2666C168.234,-63.9844 181.998,-52.2121 194.233,-41.7477"/>
<polygon fill="midnightblue" stroke="midnightblue" points="196.67,-44.2694 201.995,-35.1099 192.12,-38.9497 196.67,-44.2694"/>
</g>
</g>
</svg>
