<?xml version="1.0" encoding="UTF-8" standalone="no"?>
<!DOCTYPE svg PUBLIC "-//W3C//DTD SVG 1.1//EN"
 "http://www.w3.org/Graphics/SVG/1.1/DTD/svg11.dtd">
<!-- Generated by graphviz version 2.26.3 (20100126.1600)
 -->
<!-- Title: /home/kavonszadkowski/limes&#45;dev/simulation/mars/plugins/Walkers/src/Walkers.cpp Pages: 1 -->
<svg width="745pt" height="214pt"
 viewBox="0.00 0.00 745.00 214.00" xmlns="http://www.w3.org/2000/svg" xmlns:xlink="http://www.w3.org/1999/xlink">
<g id="graph1" class="graph" transform="scale(1 1) rotate(0) translate(4 210)">
<title>/home/kavonszadkowski/limes&#45;dev/simulation/mars/plugins/Walkers/src/Walkers.cpp</title>
<polygon fill="white" stroke="white" points="-4,5 -4,-210 742,-210 742,5 -4,5"/>
<!-- Node1 -->
<g id="node1" class="node"><title>Node1</title>
<polygon fill="#bfbfbf" stroke="black" points="422.5,-145 422.5,-205 547.5,-205 547.5,-145 422.5,-145"/>
<text text-anchor="start" x="430.5" y="-192" font-family="Helvetica,sans-Serif" font-size="10.00">/home/kavonszadkowski</text>
<text text-anchor="start" x="430.5" y="-179" font-family="Helvetica,sans-Serif" font-size="10.00">/limes&#45;dev/simulation</text>
<text text-anchor="start" x="430.5" y="-166" font-family="Helvetica,sans-Serif" font-size="10.00">/mars/plugins/Walkers</text>
<text text-anchor="middle" x="485" y="-153" font-family="Helvetica,sans-Serif" font-size="10.00">/src/Walkers.cpp</text>
</g>
<!-- Node2 -->
<g id="node3" class="node"><title>Node2</title>
<a xlink:href="../../db/dea/_walkers_8h.html" target="_top" xlink:title="simple ">
<polygon fill="white" stroke="black" points="334.5,-79.5 334.5,-100.5 395.5,-100.5 395.5,-79.5 334.5,-79.5"/>
<text text-anchor="middle" x="365" y="-87.5" font-family="Helvetica,sans-Serif" font-size="10.00">Walkers.h</text>
</a>
</g>
<!-- Node1&#45;&gt;Node2 -->
<g id="edge2" class="edge"><title>Node1&#45;&gt;Node2</title>
<path fill="none" stroke="midnightblue" d="M442.355,-144.793C424.222,-131.949 403.775,-117.465 388.459,-106.616"/>
<polygon fill="midnightblue" stroke="midnightblue" points="390.273,-103.613 380.09,-100.689 386.227,-109.325 390.273,-103.613"/>
</g>
<!-- Node8 -->
<g id="node15" class="node"><title>Node8</title>
<polygon fill="white" stroke="#bfbfbf" points="412.5,-73 412.5,-107 557.5,-107 557.5,-73 412.5,-73"/>
<text text-anchor="start" x="420.5" y="-94" font-family="Helvetica,sans-Serif" font-size="10.00">mars/data_broker/DataBroker</text>
<text text-anchor="middle" x="485" y="-81" font-family="Helvetica,sans-Serif" font-size="10.00">Interface.h</text>
</g>
<!-- Node1&#45;&gt;Node8 -->
<g id="edge14" class="edge"><title>Node1&#45;&gt;Node8</title>
<path fill="none" stroke="midnightblue" d="M485,-144.793C485,-135.837 485,-126.084 485,-117.322"/>
<polygon fill="midnightblue" stroke="midnightblue" points="488.5,-117.246 485,-107.246 481.5,-117.246 488.5,-117.246"/>
</g>
<!-- Node9 -->
<g id="node17" class="node"><title>Node9</title>
<polygon fill="white" stroke="#bfbfbf" points="574.5,-79.5 574.5,-100.5 737.5,-100.5 737.5,-79.5 574.5,-79.5"/>
<text text-anchor="middle" x="656" y="-87.5" font-family="Helvetica,sans-Serif" font-size="10.00">mars/data_broker/DataPackage.h</text>
</g>
<!-- Node1&#45;&gt;Node9 -->
<g id="edge16" class="edge"><title>Node1&#45;&gt;Node9</title>
<path fill="none" stroke="midnightblue" d="M545.77,-144.793C572.696,-131.408 603.203,-116.244 625.286,-105.267"/>
<polygon fill="midnightblue" stroke="midnightblue" points="627.1,-108.274 634.497,-100.689 623.984,-102.006 627.1,-108.274"/>
</g>
<!-- Node3 -->
<g id="node5" class="node"><title>Node3</title>
<polygon fill="white" stroke="#bfbfbf" points="-0.5,-1 -0.5,-35 116.5,-35 116.5,-1 -0.5,-1"/>
<text text-anchor="start" x="7.5" y="-22" font-family="Helvetica,sans-Serif" font-size="10.00">mars/interfaces/sim</text>
<text text-anchor="middle" x="58" y="-9" font-family="Helvetica,sans-Serif" font-size="10.00">/MarsPluginTemplate.h</text>
</g>
<!-- Node2&#45;&gt;Node3 -->
<g id="edge4" class="edge"><title>Node2&#45;&gt;Node3</title>
<path fill="none" stroke="midnightblue" d="M334.218,-83.4981C290.246,-74.1183 206.702,-55.9565 126.546,-36.3401"/>
<polygon fill="midnightblue" stroke="midnightblue" points="127.337,-32.9305 116.791,-33.9412 125.666,-39.728 127.337,-32.9305"/>
</g>
<!-- Node4 -->
<g id="node7" class="node"><title>Node4</title>
<polygon fill="white" stroke="#bfbfbf" points="134,-7.5 134,-28.5 280,-28.5 280,-7.5 134,-7.5"/>
<text text-anchor="middle" x="207" y="-15.5" font-family="Helvetica,sans-Serif" font-size="10.00">mars/interfaces/MARSDefs.h</text>
</g>
<!-- Node2&#45;&gt;Node4 -->
<g id="edge6" class="edge"><title>Node2&#45;&gt;Node4</title>
<path fill="none" stroke="midnightblue" d="M341.687,-79.3762C314.654,-67.0574 269.921,-46.673 239.489,-32.8052"/>
<polygon fill="midnightblue" stroke="midnightblue" points="240.703,-29.512 230.152,-28.5501 237.8,-35.8818 240.703,-29.512"/>
</g>
<!-- Node5 -->
<g id="node9" class="node"><title>Node5</title>
<polygon fill="white" stroke="#bfbfbf" points="298,-1 298,-35 432,-35 432,-1 298,-1"/>
<text text-anchor="start" x="306" y="-22" font-family="Helvetica,sans-Serif" font-size="10.00">mars/data_broker/Receiver</text>
<text text-anchor="middle" x="365" y="-9" font-family="Helvetica,sans-Serif" font-size="10.00">Interface.h</text>
</g>
<!-- Node2&#45;&gt;Node5 -->
<g id="edge8" class="edge"><title>Node2&#45;&gt;Node5</title>
<path fill="none" stroke="midnightblue" d="M365,-79.3762C365,-70.4513 365,-57.2928 365,-45.4461"/>
<polygon fill="midnightblue" stroke="midnightblue" points="368.5,-45.0943 365,-35.0944 361.5,-45.0944 368.5,-45.0943"/>
</g>
<!-- Node6 -->
<g id="node11" class="node"><title>Node6</title>
<polygon fill="white" stroke="#bfbfbf" points="449.5,-1 449.5,-35 608.5,-35 608.5,-1 449.5,-1"/>
<text text-anchor="start" x="457.5" y="-22" font-family="Helvetica,sans-Serif" font-size="10.00">mars/cfg_manager/CFGManager</text>
<text text-anchor="middle" x="529" y="-9" font-family="Helvetica,sans-Serif" font-size="10.00">Interface.h</text>
</g>
<!-- Node2&#45;&gt;Node6 -->
<g id="edge10" class="edge"><title>Node2&#45;&gt;Node6</title>
<path fill="none" stroke="midnightblue" d="M387.642,-79.4355C392.994,-76.97 398.689,-74.3723 404,-72 428.851,-60.8991 456.634,-48.8606 479.683,-38.9732"/>
<polygon fill="midnightblue" stroke="midnightblue" points="481.106,-42.1713 488.921,-35.0171 478.351,-35.7366 481.106,-42.1713"/>
</g>
<!-- Node7 -->
<g id="node13" class="node"><title>Node7</title>
<polygon fill="white" stroke="#bfbfbf" points="625.5,-7.5 625.5,-28.5 666.5,-28.5 666.5,-7.5 625.5,-7.5"/>
<text text-anchor="middle" x="646" y="-15.5" font-family="Helvetica,sans-Serif" font-size="10.00">string</text>
</g>
<!-- Node2&#45;&gt;Node7 -->
<g id="edge12" class="edge"><title>Node2&#45;&gt;Node7</title>
<path fill="none" stroke="midnightblue" d="M385.243,-79.4235C391.163,-76.6716 397.731,-73.9388 404,-72 495.723,-43.6347 527.195,-69.953 617,-36 618.871,-35.2927 620.752,-34.4591 622.609,-33.5447"/>
<polygon fill="midnightblue" stroke="midnightblue" points="624.538,-36.4751 631.525,-28.511 621.096,-30.3795 624.538,-36.4751"/>
</g>
</g>
</svg>
