<?xml version="1.0" encoding="UTF-8" standalone="no"?>
<!DOCTYPE svg PUBLIC "-//W3C//DTD SVG 1.1//EN"
 "http://www.w3.org/Graphics/SVG/1.1/DTD/svg11.dtd">
<!-- Generated by graphviz version 2.26.3 (20100126.1600)
 -->
<!-- Title: mars::cfg_manager_gui::CfgWidget Pages: 1 -->
<svg width="568pt" height="174pt"
 viewBox="0.00 0.00 568.00 174.00" xmlns="http://www.w3.org/2000/svg" xmlns:xlink="http://www.w3.org/1999/xlink">
<g id="graph1" class="graph" transform="scale(1 1) rotate(0) translate(4 170)">
<title>mars::cfg_manager_gui::CfgWidget</title>
<polygon fill="white" stroke="white" points="-4,5 -4,-170 565,-170 565,5 -4,5"/>
<!-- Node1 -->
<g id="node1" class="node"><title>Node1</title>
<polygon fill="#bfbfbf" stroke="black" points="440.5,-80 440.5,-114 559.5,-114 559.5,-80 440.5,-80"/>
<text text-anchor="start" x="448.5" y="-101" font-family="Helvetica,sans-Serif" font-size="10.00">mars::cfg_manager_gui</text>
<text text-anchor="middle" x="500" y="-88" font-family="Helvetica,sans-Serif" font-size="10.00">::CfgWidget</text>
</g>
<!-- Node2 -->
<g id="node2" class="node"><title>Node2</title>
<polygon fill="white" stroke="#bfbfbf" points="276.5,-144.5 276.5,-165.5 329.5,-165.5 329.5,-144.5 276.5,-144.5"/>
<text text-anchor="middle" x="303" y="-152.5" font-family="Helvetica,sans-Serif" font-size="10.00">QObject</text>
</g>
<!-- Node2&#45;&gt;Node1 -->
<g id="edge2" class="edge"><title>Node2&#45;&gt;Node1</title>
<path fill="none" stroke="midnightblue" d="M339.849,-149.155C363.597,-144.926 394.976,-138.468 422,-130 435.891,-125.647 450.703,-119.726 463.646,-114.1"/>
<polygon fill="midnightblue" stroke="midnightblue" points="339.102,-145.732 329.845,-150.886 340.296,-152.63 339.102,-145.732"/>
</g>
<!-- Node3 -->
<g id="node4" class="node"><title>Node3</title>
<a xlink:href="../../dd/d38/classmars_1_1main__gui_1_1_property_callback.html" target="_top" xlink:title="Introduced for Windows compatibility. ">
<polygon fill="white" stroke="black" points="0,-92 0,-126 126,-126 126,-92 0,-92"/>
<text text-anchor="start" x="8" y="-113" font-family="Helvetica,sans-Serif" font-size="10.00">mars::main_gui::Property</text>
<text text-anchor="middle" x="63" y="-100" font-family="Helvetica,sans-Serif" font-size="10.00">Callback</text>
</a>
</g>
<!-- Node3&#45;&gt;Node1 -->
<g id="edge4" class="edge"><title>Node3&#45;&gt;Node1</title>
<path fill="none" stroke="midnightblue" d="M136.657,-108.522C209.248,-107.824 323.307,-106.123 422,-102 427.965,-101.751 434.184,-101.44 440.393,-101.095"/>
<polygon fill="midnightblue" stroke="midnightblue" points="136.222,-105.025 126.254,-108.617 136.286,-112.025 136.222,-105.025"/>
</g>
<!-- Node6 -->
<g id="node10" class="node"><title>Node6</title>
<a xlink:href="../../de/d11/classmars_1_1main__gui_1_1_property_dialog.html" target="_top" xlink:title="The PropertyDialog provides the QtProperty functionality. ">
<polygon fill="white" stroke="black" points="240,-54 240,-88 366,-88 366,-54 240,-54"/>
<text text-anchor="start" x="248" y="-75" font-family="Helvetica,sans-Serif" font-size="10.00">mars::main_gui::Property</text>
<text text-anchor="middle" x="303" y="-62" font-family="Helvetica,sans-Serif" font-size="10.00">Dialog</text>
</a>
</g>
<!-- Node3&#45;&gt;Node6 -->
<g id="edge14" class="edge"><title>Node3&#45;&gt;Node6</title>
<path fill="none" stroke="#9a32cd" stroke-dasharray="5,2" d="M135.947,-90.5261C138.66,-89.9862 141.351,-89.4749 144,-89 175.309,-83.3867 210.419,-79.1938 239.666,-76.2737"/>
<polygon fill="#9a32cd" stroke="#9a32cd" points="135.135,-87.1201 126.063,-92.5923 136.568,-93.9719 135.135,-87.1201"/>
<text text-anchor="middle" x="183" y="-93" font-family="Helvetica,sans-Serif" font-size="10.00"> propertyCallback</text>
</g>
<!-- Node4 -->
<g id="node6" class="node"><title>Node4</title>
<a xlink:href="../../d4/da6/classmars_1_1cfg__manager_1_1_c_f_g_manager_interface.html" target="_top" xlink:title="mars::cfg_manager::\lCFGManagerInterface">
<polygon fill="white" stroke="black" points="246.5,-0 246.5,-34 359.5,-34 359.5,-0 246.5,-0"/>
<text text-anchor="start" x="254.5" y="-21" font-family="Helvetica,sans-Serif" font-size="10.00">mars::cfg_manager::</text>
<text text-anchor="middle" x="303" y="-8" font-family="Helvetica,sans-Serif" font-size="10.00">CFGManagerInterface</text>
</a>
</g>
<!-- Node4&#45;&gt;Node1 -->
<g id="edge6" class="edge"><title>Node4&#45;&gt;Node1</title>
<path fill="none" stroke="#9a32cd" stroke-dasharray="5,2" d="M354.77,-37.8045C375.662,-46.2208 399.99,-56.0462 422,-65 433.795,-69.7985 446.582,-75.0313 458.324,-79.849"/>
<polygon fill="#9a32cd" stroke="#9a32cd" points="356.016,-34.5334 345.433,-34.0449 353.402,-41.0268 356.016,-34.5334"/>
<text text-anchor="middle" x="403" y="-69" font-family="Helvetica,sans-Serif" font-size="10.00"> cfg</text>
</g>
<!-- Node5 -->
<g id="node8" class="node"><title>Node5</title>
<polygon fill="white" stroke="#bfbfbf" points="29,-4.5 29,-25.5 97,-25.5 97,-4.5 29,-4.5"/>
<text text-anchor="middle" x="63" y="-12.5" font-family="Helvetica,sans-Serif" font-size="10.00">LibInterface</text>
</g>
<!-- Node5&#45;&gt;Node4 -->
<g id="edge8" class="edge"><title>Node5&#45;&gt;Node4</title>
<path fill="none" stroke="midnightblue" d="M107.17,-15.3681C146.338,-15.6945 203.764,-16.173 246.311,-16.5276"/>
<polygon fill="midnightblue" stroke="midnightblue" points="107.16,-11.868 97.1313,-15.2844 107.102,-18.8677 107.16,-11.868"/>
</g>
<!-- Node6&#45;&gt;Node1 -->
<g id="edge10" class="edge"><title>Node6&#45;&gt;Node1</title>
<path fill="none" stroke="#9a32cd" stroke-dasharray="5,2" d="M376.332,-80.6783C397.39,-83.4576 420.094,-86.454 440.229,-89.1114"/>
<polygon fill="#9a32cd" stroke="#9a32cd" points="376.517,-77.1725 366.145,-79.3338 375.601,-84.1123 376.517,-77.1725"/>
<text text-anchor="middle" x="403" y="-90" font-family="Helvetica,sans-Serif" font-size="10.00"> pDialog</text>
</g>
<!-- Node7 -->
<g id="node12" class="node"><title>Node7</title>
<polygon fill="white" stroke="#bfbfbf" points="37,-44.5 37,-65.5 89,-65.5 89,-44.5 37,-44.5"/>
<text text-anchor="middle" x="63" y="-52.5" font-family="Helvetica,sans-Serif" font-size="10.00">QDialog</text>
</g>
<!-- Node7&#45;&gt;Node6 -->
<g id="edge12" class="edge"><title>Node7&#45;&gt;Node6</title>
<path fill="none" stroke="midnightblue" d="M99.5052,-57.4337C136.713,-59.9142 195.154,-63.8102 239.88,-66.792"/>
<polygon fill="midnightblue" stroke="midnightblue" points="99.3518,-53.9158 89.1411,-56.7427 98.8861,-60.9003 99.3518,-53.9158"/>
</g>
</g>
</svg>
