<?xml version="1.0" encoding="UTF-8" standalone="no"?>
<!DOCTYPE svg PUBLIC "-//W3C//DTD SVG 1.1//EN"
 "http://www.w3.org/Graphics/SVG/1.1/DTD/svg11.dtd">
<!-- Generated by graphviz version 2.36.0 (20140111.2315)
 -->
<!-- Title: /media/kavonszadkowski/work/marsdocs/mars/common/utils/src/Thread.h Pages: 1 -->
<svg width="174pt" height="106pt"
 viewBox="0.00 0.00 174.00 106.00" xmlns="http://www.w3.org/2000/svg" xmlns:xlink="http://www.w3.org/1999/xlink">
<g id="graph0" class="graph" transform="scale(1 1) rotate(0) translate(4 102)">
<title>/media/kavonszadkowski/work/marsdocs/mars/common/utils/src/Thread.h</title>
<polygon fill="white" stroke="none" points="-4,4 -4,-102 170,-102 170,4 -4,4"/>
<!-- Node1 -->
<g id="node1" class="node"><title>Node1</title>
<polygon fill="#bfbfbf" stroke="black" points="5,-56.5 5,-97.5 157,-97.5 157,-56.5 5,-56.5"/>
<text text-anchor="start" x="13" y="-85.5" font-family="Helvetica,sans-Serif" font-size="10.00">/media/kavonszadkowski</text>
<text text-anchor="start" x="13" y="-74.5" font-family="Helvetica,sans-Serif" font-size="10.00">/work/marsdocs/mars/common</text>
<text text-anchor="middle" x="81" y="-63.5" font-family="Helvetica,sans-Serif" font-size="10.00">/utils/src/Thread.h</text>
</g>
<!-- Node2 -->
<g id="node2" class="node"><title>Node2</title>
<polygon fill="white" stroke="#bfbfbf" points="-0.5,-0.5 -0.5,-19.5 48.5,-19.5 48.5,-0.5 -0.5,-0.5"/>
<text text-anchor="middle" x="24" y="-7.5" font-family="Helvetica,sans-Serif" font-size="10.00">cstddef</text>
</g>
<!-- Node1&#45;&gt;Node2 -->
<g id="edge1" class="edge"><title>Node1&#45;&gt;Node2</title>
<path fill="none" stroke="midnightblue" d="M63.8981,-56.4979C55.7472,-47.2029 46.107,-36.2097 38.3446,-27.3579"/>
<polygon fill="midnightblue" stroke="midnightblue" points="40.8124,-24.8635 31.5876,-19.6525 35.5493,-29.4788 40.8124,-24.8635"/>
</g>
<!-- Node3 -->
<g id="node3" class="node"><title>Node3</title>
<polygon fill="white" stroke="#bfbfbf" points="66.5,-0.5 66.5,-19.5 95.5,-19.5 95.5,-0.5 66.5,-0.5"/>
<text text-anchor="middle" x="81" y="-7.5" font-family="Helvetica,sans-Serif" font-size="10.00">list</text>
</g>
<!-- Node1&#45;&gt;Node3 -->
<g id="edge2" class="edge"><title>Node1&#45;&gt;Node3</title>
<path fill="none" stroke="midnightblue" d="M81,-56.4979C81,-48.0653 81,-38.2351 81,-29.874"/>
<polygon fill="midnightblue" stroke="midnightblue" points="84.5001,-29.6525 81,-19.6525 77.5001,-29.6525 84.5001,-29.6525"/>
</g>
<!-- Node4 -->
<g id="node4" class="node"><title>Node4</title>
<g id="a_node4"><a xlink:href="../../da/d78/_mutex_8h.html" target="_top" xlink:title="Mutex.h">
<polygon fill="white" stroke="black" points="114,-0.5 114,-19.5 166,-19.5 166,-0.5 114,-0.5"/>
<text text-anchor="middle" x="140" y="-7.5" font-family="Helvetica,sans-Serif" font-size="10.00">Mutex.h</text>
</a>
</g>
</g>
<!-- Node1&#45;&gt;Node4 -->
<g id="edge3" class="edge"><title>Node1&#45;&gt;Node4</title>
<path fill="none" stroke="midnightblue" d="M98.7019,-56.4979C107.226,-47.1071 117.323,-35.9829 125.4,-27.0848"/>
<polygon fill="midnightblue" stroke="midnightblue" points="128.017,-29.4095 132.146,-19.6525 122.834,-24.7047 128.017,-29.4095"/>
</g>
</g>
</svg>
