<?xml version="1.0" encoding="UTF-8" standalone="no"?>
<!DOCTYPE svg PUBLIC "-//W3C//DTD SVG 1.1//EN"
 "http://www.w3.org/Graphics/SVG/1.1/DTD/svg11.dtd">
<!-- Generated by graphviz version 2.26.3 (20100126.1600)
 -->
<!-- Title: /home/kavonszadkowski/limes&#45;dev/simulation/mars/gui/src/dialogs/DialogJoystick.cpp Pages: 1 -->
<svg width="806pt" height="272pt"
 viewBox="0.00 0.00 806.00 272.00" xmlns="http://www.w3.org/2000/svg" xmlns:xlink="http://www.w3.org/1999/xlink">
<g id="graph1" class="graph" transform="scale(1 1) rotate(0) translate(4 268)">
<title>/home/kavonszadkowski/limes&#45;dev/simulation/mars/gui/src/dialogs/DialogJoystick.cpp</title>
<polygon fill="white" stroke="white" points="-4,5 -4,-268 803,-268 803,5 -4,5"/>
<!-- Node1 -->
<g id="node1" class="node"><title>Node1</title>
<polygon fill="#bfbfbf" stroke="black" points="284.5,-203 284.5,-263 409.5,-263 409.5,-203 284.5,-203"/>
<text text-anchor="start" x="292.5" y="-250" font-family="Helvetica,sans-Serif" font-size="10.00">/home/kavonszadkowski</text>
<text text-anchor="start" x="292.5" y="-237" font-family="Helvetica,sans-Serif" font-size="10.00">/limes&#45;dev/simulation</text>
<text text-anchor="start" x="292.5" y="-224" font-family="Helvetica,sans-Serif" font-size="10.00">/mars/gui/src/dialogs</text>
<text text-anchor="middle" x="347" y="-211" font-family="Helvetica,sans-Serif" font-size="10.00">/DialogJoystick.cpp</text>
</g>
<!-- Node2 -->
<g id="node3" class="node"><title>Node2</title>
<a xlink:href="../../de/ddb/_dialog_joystick_8h.html" target="_top" xlink:title="DialogJoystick.h">
<polygon fill="white" stroke="black" points="159.5,-137.5 159.5,-158.5 248.5,-158.5 248.5,-137.5 159.5,-137.5"/>
<text text-anchor="middle" x="204" y="-145.5" font-family="Helvetica,sans-Serif" font-size="10.00">DialogJoystick.h</text>
</a>
</g>
<!-- Node1&#45;&gt;Node2 -->
<g id="edge2" class="edge"><title>Node1&#45;&gt;Node2</title>
<path fill="none" stroke="midnightblue" d="M296.181,-202.793C274.067,-189.648 249.066,-174.788 230.686,-163.862"/>
<polygon fill="midnightblue" stroke="midnightblue" points="232.367,-160.79 221.982,-158.689 228.79,-166.807 232.367,-160.79"/>
</g>
<!-- Node11 -->
<g id="node24" class="node"><title>Node11</title>
<polygon fill="white" stroke="#bfbfbf" points="266,-137.5 266,-158.5 320,-158.5 320,-137.5 266,-137.5"/>
<text text-anchor="middle" x="293" y="-145.5" font-family="Helvetica,sans-Serif" font-size="10.00">iostream</text>
</g>
<!-- Node1&#45;&gt;Node11 -->
<g id="edge26" class="edge"><title>Node1&#45;&gt;Node11</title>
<path fill="none" stroke="midnightblue" d="M327.81,-202.793C320.382,-191.102 312.093,-178.053 305.467,-167.623"/>
<polygon fill="midnightblue" stroke="midnightblue" points="308.238,-165.459 299.921,-158.895 302.33,-169.212 308.238,-165.459"/>
</g>
<!-- Node12 -->
<g id="node26" class="node"><title>Node12</title>
<polygon fill="white" stroke="#bfbfbf" points="337.5,-131 337.5,-165 464.5,-165 464.5,-131 337.5,-131"/>
<text text-anchor="start" x="345.5" y="-152" font-family="Helvetica,sans-Serif" font-size="10.00">mars/interfaces/sim</text>
<text text-anchor="middle" x="401" y="-139" font-family="Helvetica,sans-Serif" font-size="10.00">/NodeManagerInterface.h</text>
</g>
<!-- Node1&#45;&gt;Node12 -->
<g id="edge28" class="edge"><title>Node1&#45;&gt;Node12</title>
<path fill="none" stroke="midnightblue" d="M366.19,-202.793C372.193,-193.345 378.758,-183.01 384.554,-173.887"/>
<polygon fill="midnightblue" stroke="midnightblue" points="387.636,-175.563 390.044,-165.246 381.727,-171.81 387.636,-175.563"/>
</g>
<!-- Node13 -->
<g id="node28" class="node"><title>Node13</title>
<polygon fill="white" stroke="#bfbfbf" points="482,-137.5 482,-158.5 560,-158.5 560,-137.5 482,-137.5"/>
<text text-anchor="middle" x="521" y="-145.5" font-family="Helvetica,sans-Serif" font-size="10.00">QHBoxLayout</text>
</g>
<!-- Node1&#45;&gt;Node13 -->
<g id="edge30" class="edge"><title>Node1&#45;&gt;Node13</title>
<path fill="none" stroke="midnightblue" d="M408.836,-202.793C436.357,-189.348 467.555,-174.108 490.049,-163.12"/>
<polygon fill="midnightblue" stroke="midnightblue" points="491.671,-166.223 499.12,-158.689 488.598,-159.933 491.671,-166.223"/>
</g>
<!-- Node3 -->
<g id="node5" class="node"><title>Node3</title>
<polygon fill="white" stroke="#bfbfbf" points="46,-72.5 46,-93.5 138,-93.5 138,-72.5 46,-72.5"/>
<text text-anchor="middle" x="92" y="-80.5" font-family="Helvetica,sans-Serif" font-size="10.00">JoystickWidget.h</text>
</g>
<!-- Node2&#45;&gt;Node3 -->
<g id="edge4" class="edge"><title>Node2&#45;&gt;Node3</title>
<path fill="none" stroke="midnightblue" d="M185.505,-137.267C167.402,-126.76 139.62,-110.637 119.039,-98.6924"/>
<polygon fill="midnightblue" stroke="midnightblue" points="120.556,-95.5261 110.15,-93.5337 117.043,-101.58 120.556,-95.5261"/>
</g>
<!-- Node4 -->
<g id="node7" class="node"><title>Node4</title>
<polygon fill="white" stroke="#bfbfbf" points="-0.5,-1 -0.5,-35 102.5,-35 102.5,-1 -0.5,-1"/>
<text text-anchor="start" x="7.5" y="-22" font-family="Helvetica,sans-Serif" font-size="10.00">mars/interfaces/sim</text>
<text text-anchor="middle" x="51" y="-9" font-family="Helvetica,sans-Serif" font-size="10.00">/ControlCenter.h</text>
</g>
<!-- Node2&#45;&gt;Node4 -->
<g id="edge6" class="edge"><title>Node2&#45;&gt;Node4</title>
<path fill="none" stroke="midnightblue" d="M197.969,-137.32C188.646,-121.524 169.446,-91.6807 147,-72 132.817,-59.5646 115.311,-48.695 99.1485,-40.0309"/>
<polygon fill="midnightblue" stroke="midnightblue" points="100.311,-36.6907 89.8228,-35.1892 97.0853,-42.9033 100.311,-36.6907"/>
</g>
<!-- Node5 -->
<g id="node9" class="node"><title>Node5</title>
<polygon fill="white" stroke="#bfbfbf" points="119.5,-7.5 119.5,-28.5 264.5,-28.5 264.5,-7.5 119.5,-7.5"/>
<text text-anchor="middle" x="192" y="-15.5" font-family="Helvetica,sans-Serif" font-size="10.00">mars/main_gui/BaseWidget.h</text>
</g>
<!-- Node2&#45;&gt;Node5 -->
<g id="edge8" class="edge"><title>Node2&#45;&gt;Node5</title>
<path fill="none" stroke="midnightblue" d="M203.018,-137.362C201.04,-115.936 196.545,-67.2402 193.949,-39.1143"/>
<polygon fill="midnightblue" stroke="midnightblue" points="197.4,-38.4214 192.996,-28.7854 190.43,-39.0648 197.4,-38.4214"/>
</g>
<!-- Node6 -->
<g id="node11" class="node"><title>Node6</title>
<polygon fill="white" stroke="#bfbfbf" points="282,-7.5 282,-28.5 438,-28.5 438,-7.5 282,-7.5"/>
<text text-anchor="middle" x="360" y="-15.5" font-family="Helvetica,sans-Serif" font-size="10.00">mars/main_gui/PropertyDialog.h</text>
</g>
<!-- Node2&#45;&gt;Node6 -->
<g id="edge10" class="edge"><title>Node2&#45;&gt;Node6</title>
<path fill="none" stroke="midnightblue" d="M216.766,-137.362C243.619,-114.984 306.171,-62.8578 339.012,-35.4902"/>
<polygon fill="midnightblue" stroke="midnightblue" points="341.616,-37.8761 347.057,-28.7854 337.135,-32.4985 341.616,-37.8761"/>
</g>
<!-- Node7 -->
<g id="node13" class="node"><title>Node7</title>
<a xlink:href="../../df/d28/_node_selection_tree_8h.html" target="_top" xlink:title="A widget for node selection with different selection options. ">
<polygon fill="white" stroke="black" points="306,-72.5 306,-93.5 414,-93.5 414,-72.5 306,-72.5"/>
<text text-anchor="middle" x="360" y="-80.5" font-family="Helvetica,sans-Serif" font-size="10.00">NodeSelectionTree.h</text>
</a>
</g>
<!-- Node2&#45;&gt;Node7 -->
<g id="edge12" class="edge"><title>Node2&#45;&gt;Node7</title>
<path fill="none" stroke="midnightblue" d="M229.411,-137.412C255.474,-126.552 296.2,-109.583 325.238,-97.4842"/>
<polygon fill="midnightblue" stroke="midnightblue" points="326.715,-100.66 334.6,-93.5835 324.023,-94.1989 326.715,-100.66"/>
</g>
<!-- Node7&#45;&gt;Node4 -->
<g id="edge18" class="edge"><title>Node7&#45;&gt;Node4</title>
<path fill="none" stroke="midnightblue" d="M305.734,-74.4445C257.332,-66.4335 184.381,-53.4293 112.717,-36.3035"/>
<polygon fill="midnightblue" stroke="midnightblue" points="113.159,-32.8095 102.616,-33.8597 111.513,-39.6132 113.159,-32.8095"/>
</g>
<!-- Node7&#45;&gt;Node5 -->
<g id="edge14" class="edge"><title>Node7&#45;&gt;Node5</title>
<path fill="none" stroke="midnightblue" d="M332.634,-72.412C304.444,-61.5052 260.326,-44.4357 229.029,-32.3266"/>
<polygon fill="midnightblue" stroke="midnightblue" points="229.944,-28.9277 219.354,-28.5835 227.418,-35.4562 229.944,-28.9277"/>
</g>
<!-- Node7&#45;&gt;Node6 -->
<g id="edge16" class="edge"><title>Node7&#45;&gt;Node6</title>
<path fill="none" stroke="midnightblue" d="M360,-72.2666C360,-63.1799 360,-49.8919 360,-38.7395"/>
<polygon fill="midnightblue" stroke="midnightblue" points="363.5,-38.5337 360,-28.5337 356.5,-38.5337 363.5,-38.5337"/>
</g>
<!-- Node8 -->
<g id="node18" class="node"><title>Node8</title>
<polygon fill="white" stroke="#bfbfbf" points="456,-1 456,-35 580,-35 580,-1 456,-1"/>
<text text-anchor="start" x="464" y="-22" font-family="Helvetica,sans-Serif" font-size="10.00">mars/interfaces/graphics</text>
<text text-anchor="middle" x="518" y="-9" font-family="Helvetica,sans-Serif" font-size="10.00">/GraphicsEventClient.h</text>
</g>
<!-- Node7&#45;&gt;Node8 -->
<g id="edge20" class="edge"><title>Node7&#45;&gt;Node8</title>
<path fill="none" stroke="midnightblue" d="M385.737,-72.412C407.717,-63.3695 439.994,-50.091 467.16,-38.9153"/>
<polygon fill="midnightblue" stroke="midnightblue" points="468.614,-42.1018 476.53,-35.0604 465.95,-35.6282 468.614,-42.1018"/>
</g>
<!-- Node9 -->
<g id="node20" class="node"><title>Node9</title>
<polygon fill="white" stroke="#bfbfbf" points="597.5,-1 597.5,-35 706.5,-35 706.5,-1 597.5,-1"/>
<text text-anchor="start" x="605.5" y="-22" font-family="Helvetica,sans-Serif" font-size="10.00">mars/interfaces/core</text>
<text text-anchor="middle" x="652" y="-9" font-family="Helvetica,sans-Serif" font-size="10.00">_objects_exchange.h</text>
</g>
<!-- Node7&#45;&gt;Node9 -->
<g id="edge22" class="edge"><title>Node7&#45;&gt;Node9</title>
<path fill="none" stroke="midnightblue" d="M414.394,-73.0411C458.683,-64.659 523.017,-51.8659 587.502,-36.2861"/>
<polygon fill="midnightblue" stroke="midnightblue" points="588.546,-39.6343 597.432,-33.8649 586.887,-32.8335 588.546,-39.6343"/>
</g>
<!-- Node10 -->
<g id="node22" class="node"><title>Node10</title>
<polygon fill="white" stroke="#bfbfbf" points="724,-7.5 724,-28.5 798,-28.5 798,-7.5 724,-7.5"/>
<text text-anchor="middle" x="761" y="-15.5" font-family="Helvetica,sans-Serif" font-size="10.00">QTreeWidget</text>
</g>
<!-- Node7&#45;&gt;Node10 -->
<g id="edge24" class="edge"><title>Node7&#45;&gt;Node10</title>
<path fill="none" stroke="midnightblue" d="M414.3,-79.8921C484.619,-74.9437 610.551,-62.9273 715,-36 719.111,-34.9403 723.351,-33.6174 727.518,-32.1727"/>
<polygon fill="midnightblue" stroke="midnightblue" points="728.855,-35.4099 737.011,-28.6474 726.418,-28.8477 728.855,-35.4099"/>
</g>
</g>
</svg>
