<?xml version="1.0" encoding="UTF-8" standalone="no"?>
<!DOCTYPE svg PUBLIC "-//W3C//DTD SVG 1.1//EN"
 "http://www.w3.org/Graphics/SVG/1.1/DTD/svg11.dtd">
<!-- Generated by graphviz version 2.36.0 (20140111.2315)
 -->
<!-- Title: /media/kavonszadkowski/work/marsdocs/mars/common/graphics/osg_points/src/Points.hpp Pages: 1 -->
<svg width="160pt" height="118pt"
 viewBox="0.00 0.00 160.00 118.00" xmlns="http://www.w3.org/2000/svg" xmlns:xlink="http://www.w3.org/1999/xlink">
<g id="graph0" class="graph" transform="scale(1 1) rotate(0) translate(4 114)">
<title>/media/kavonszadkowski/work/marsdocs/mars/common/graphics/osg_points/src/Points.hpp</title>
<polygon fill="white" stroke="none" points="-4,4 -4,-114 156,-114 156,4 -4,4"/>
<!-- Node1 -->
<g id="node1" class="node"><title>Node1</title>
<polygon fill="#bfbfbf" stroke="black" points="0,-57 0,-109 152,-109 152,-57 0,-57"/>
<text text-anchor="start" x="8" y="-97" font-family="Helvetica,sans-Serif" font-size="10.00">/media/kavonszadkowski</text>
<text text-anchor="start" x="8" y="-86" font-family="Helvetica,sans-Serif" font-size="10.00">/work/marsdocs/mars/common</text>
<text text-anchor="start" x="8" y="-75" font-family="Helvetica,sans-Serif" font-size="10.00">/graphics/osg_points/src</text>
<text text-anchor="middle" x="76" y="-64" font-family="Helvetica,sans-Serif" font-size="10.00">/Points.hpp</text>
</g>
<!-- Node2 -->
<g id="node2" class="node"><title>Node2</title>
<polygon fill="white" stroke="#bfbfbf" points="54,-0.5 54,-19.5 98,-19.5 98,-0.5 54,-0.5"/>
<text text-anchor="middle" x="76" y="-7.5" font-family="Helvetica,sans-Serif" font-size="10.00">vector</text>
</g>
<!-- Node1&#45;&gt;Node2 -->
<g id="edge1" class="edge"><title>Node1&#45;&gt;Node2</title>
<path fill="none" stroke="midnightblue" d="M76,-56.7681C76,-47.8897 76,-38.0737 76,-29.8165"/>
<polygon fill="midnightblue" stroke="midnightblue" points="79.5001,-29.7571 76,-19.7572 72.5001,-29.7572 79.5001,-29.7571"/>
</g>
</g>
</svg>
