<?xml version="1.0" encoding="UTF-8" standalone="no"?>
<!DOCTYPE svg PUBLIC "-//W3C//DTD SVG 1.1//EN"
 "http://www.w3.org/Graphics/SVG/1.1/DTD/svg11.dtd">
<!-- Generated by graphviz version 2.26.3 (20100126.1600)
 -->
<!-- Title: /home/kavonszadkowski/limes&#45;dev/simulation/mars/sim/src/core/JointManager.cpp Pages: 1 -->
<svg width="2159pt" height="330pt"
 viewBox="0.00 0.00 2159.00 330.00" xmlns="http://www.w3.org/2000/svg" xmlns:xlink="http://www.w3.org/1999/xlink">
<g id="graph1" class="graph" transform="scale(1 1) rotate(0) translate(4 326)">
<title>/home/kavonszadkowski/limes&#45;dev/simulation/mars/sim/src/core/JointManager.cpp</title>
<polygon fill="white" stroke="white" points="-4,5 -4,-326 2156,-326 2156,5 -4,5"/>
<!-- Node1 -->
<g id="node1" class="node"><title>Node1</title>
<polygon fill="#bfbfbf" stroke="black" points="1218.5,-274.5 1218.5,-321.5 1397.5,-321.5 1397.5,-274.5 1218.5,-274.5"/>
<text text-anchor="start" x="1226.5" y="-308.5" font-family="Helvetica,sans-Serif" font-size="10.00">/home/kavonszadkowski</text>
<text text-anchor="start" x="1226.5" y="-295.5" font-family="Helvetica,sans-Serif" font-size="10.00">/limes&#45;dev/simulation</text>
<text text-anchor="middle" x="1308" y="-282.5" font-family="Helvetica,sans-Serif" font-size="10.00">/mars/sim/src/core/JointManager.cpp</text>
</g>
<!-- Node2 -->
<g id="node3" class="node"><title>Node2</title>
<a xlink:href="../../df/d73/_sim_node_8h.html" target="_top" xlink:title="SimNode.h">
<polygon fill="white" stroke="black" points="833.5,-144.5 833.5,-165.5 898.5,-165.5 898.5,-144.5 833.5,-144.5"/>
<text text-anchor="middle" x="866" y="-152.5" font-family="Helvetica,sans-Serif" font-size="10.00">SimNode.h</text>
</a>
</g>
<!-- Node1&#45;&gt;Node2 -->
<g id="edge2" class="edge"><title>Node1&#45;&gt;Node2</title>
<path fill="none" stroke="midnightblue" d="M1218.5,-275.405C1178.61,-264.843 1131.21,-251.608 1089,-238 1021.93,-216.376 945.217,-186.714 901.501,-169.329"/>
<polygon fill="midnightblue" stroke="midnightblue" points="902.752,-166.06 892.167,-165.604 900.157,-172.561 902.752,-166.06"/>
</g>
<!-- Node10 -->
<g id="node19" class="node"><title>Node10</title>
<a xlink:href="../../d0/ddc/_sim_joint_8h.html" target="_top" xlink:title="SimJoint.h">
<polygon fill="white" stroke="black" points="1059.5,-144.5 1059.5,-165.5 1122.5,-165.5 1122.5,-144.5 1059.5,-144.5"/>
<text text-anchor="middle" x="1091" y="-152.5" font-family="Helvetica,sans-Serif" font-size="10.00">SimJoint.h</text>
</a>
</g>
<!-- Node1&#45;&gt;Node10 -->
<g id="edge18" class="edge"><title>Node1&#45;&gt;Node10</title>
<path fill="none" stroke="midnightblue" d="M1218.36,-280.032C1173.45,-269.28 1125.41,-254.512 1110,-238 1094.39,-221.274 1090.71,-194.438 1090.24,-175.828"/>
<polygon fill="midnightblue" stroke="midnightblue" points="1093.74,-175.727 1090.28,-165.714 1086.74,-175.702 1093.74,-175.727"/>
</g>
<!-- Node12 -->
<g id="node25" class="node"><title>Node12</title>
<a xlink:href="../../d3/d28/_joint_manager_8h.html" target="_top" xlink:title="&quot;JointManager&quot; is the class that manage all joints and their operations and communication between the...">
<polygon fill="white" stroke="black" points="383.5,-79.5 383.5,-100.5 466.5,-100.5 466.5,-79.5 383.5,-79.5"/>
<text text-anchor="middle" x="425" y="-87.5" font-family="Helvetica,sans-Serif" font-size="10.00">JointManager.h</text>
</a>
</g>
<!-- Node1&#45;&gt;Node12 -->
<g id="edge26" class="edge"><title>Node1&#45;&gt;Node12</title>
<path fill="none" stroke="midnightblue" d="M1218.46,-283.139C1153.65,-271.94 1064.09,-255.551 986,-238 793.08,-194.641 566.16,-130.755 470.819,-103.317"/>
<polygon fill="midnightblue" stroke="midnightblue" points="471.777,-99.9507 461.199,-100.544 469.838,-106.677 471.777,-99.9507"/>
</g>
<!-- Node15 -->
<g id="node32" class="node"><title>Node15</title>
<a xlink:href="../../d1/ddd/_node_manager_8h.html" target="_top" xlink:title="&quot;NodeManager&quot; is the class that manage all nodes and their operations and communication between the d...">
<polygon fill="white" stroke="black" points="280,-79.5 280,-100.5 366,-100.5 366,-79.5 280,-79.5"/>
<text text-anchor="middle" x="323" y="-87.5" font-family="Helvetica,sans-Serif" font-size="10.00">NodeManager.h</text>
</a>
</g>
<!-- Node1&#45;&gt;Node15 -->
<g id="edge34" class="edge"><title>Node1&#45;&gt;Node15</title>
<path fill="none" stroke="midnightblue" d="M1218.13,-290.481C1123.07,-281.608 968.998,-264.602 838,-238 628.54,-195.464 578.968,-171.875 375,-108 370.897,-106.715 366.63,-105.326 362.384,-103.909"/>
<polygon fill="midnightblue" stroke="midnightblue" points="363.192,-100.487 352.598,-100.587 360.942,-107.115 363.192,-100.487"/>
</g>
<!-- Node18 -->
<g id="node40" class="node"><title>Node18</title>
<a xlink:href="../../df/d11/_physics_mapper_8h.html" target="_top" xlink:title="&quot;PhysicsMapper&quot; connects the implemented interface classes to the interface objects that are handled ...">
<polygon fill="white" stroke="black" points="1119,-209.5 1119,-230.5 1211,-230.5 1211,-209.5 1119,-209.5"/>
<text text-anchor="middle" x="1165" y="-217.5" font-family="Helvetica,sans-Serif" font-size="10.00">PhysicsMapper.h</text>
</a>
</g>
<!-- Node1&#45;&gt;Node18 -->
<g id="edge44" class="edge"><title>Node1&#45;&gt;Node18</title>
<path fill="none" stroke="midnightblue" d="M1264.71,-274.386C1241.47,-261.71 1213.49,-246.451 1193.1,-235.326"/>
<polygon fill="midnightblue" stroke="midnightblue" points="1194.76,-232.246 1184.31,-230.53 1191.41,-238.391 1194.76,-232.246"/>
</g>
<!-- Node27 -->
<g id="node66" class="node"><title>Node27</title>
<polygon fill="white" stroke="#bfbfbf" points="1228.5,-209.5 1228.5,-230.5 1287.5,-230.5 1287.5,-209.5 1228.5,-209.5"/>
<text text-anchor="middle" x="1258" y="-217.5" font-family="Helvetica,sans-Serif" font-size="10.00">stdexcept</text>
</g>
<!-- Node1&#45;&gt;Node27 -->
<g id="edge78" class="edge"><title>Node1&#45;&gt;Node27</title>
<path fill="none" stroke="midnightblue" d="M1292.73,-274.174C1285.53,-262.947 1277.06,-249.732 1270.29,-239.165"/>
<polygon fill="midnightblue" stroke="midnightblue" points="1273.19,-237.207 1264.84,-230.677 1267.29,-240.985 1273.19,-237.207"/>
</g>
<!-- Node28 -->
<g id="node68" class="node"><title>Node28</title>
<polygon fill="white" stroke="#bfbfbf" points="1304.5,-203 1304.5,-237 1411.5,-237 1411.5,-203 1304.5,-203"/>
<text text-anchor="start" x="1312.5" y="-224" font-family="Helvetica,sans-Serif" font-size="10.00">mars/interfaces/sim</text>
<text text-anchor="middle" x="1358" y="-211" font-family="Helvetica,sans-Serif" font-size="10.00">/SimulatorInterface.h</text>
</g>
<!-- Node1&#45;&gt;Node28 -->
<g id="edge80" class="edge"><title>Node1&#45;&gt;Node28</title>
<path fill="none" stroke="midnightblue" d="M1323.27,-274.174C1329.11,-265.075 1335.78,-254.67 1341.7,-245.428"/>
<polygon fill="midnightblue" stroke="midnightblue" points="1344.65,-247.311 1347.1,-237.003 1338.76,-243.533 1344.65,-247.311"/>
</g>
<!-- Node29 -->
<g id="node70" class="node"><title>Node29</title>
<polygon fill="white" stroke="#bfbfbf" points="1429,-203 1429,-237 1557,-237 1557,-203 1429,-203"/>
<text text-anchor="start" x="1437" y="-224" font-family="Helvetica,sans-Serif" font-size="10.00">mars/interfaces/sim</text>
<text text-anchor="middle" x="1493" y="-211" font-family="Helvetica,sans-Serif" font-size="10.00">/MotorManagerInterface.h</text>
</g>
<!-- Node1&#45;&gt;Node29 -->
<g id="edge82" class="edge"><title>Node1&#45;&gt;Node29</title>
<path fill="none" stroke="midnightblue" d="M1363.76,-274.492C1389.02,-263.839 1418.65,-251.346 1443.17,-241.011"/>
<polygon fill="midnightblue" stroke="midnightblue" points="1444.78,-244.128 1452.64,-237.018 1442.06,-237.678 1444.78,-244.128"/>
</g>
<!-- Node30 -->
<g id="node72" class="node"><title>Node30</title>
<polygon fill="white" stroke="#bfbfbf" points="1574.5,-209.5 1574.5,-230.5 1687.5,-230.5 1687.5,-209.5 1574.5,-209.5"/>
<text text-anchor="middle" x="1631" y="-217.5" font-family="Helvetica,sans-Serif" font-size="10.00">mars/utils/mathUtils.h</text>
</g>
<!-- Node1&#45;&gt;Node30 -->
<g id="edge84" class="edge"><title>Node1&#45;&gt;Node30</title>
<path fill="none" stroke="midnightblue" d="M1397.77,-278.088C1447.48,-266.822 1510.29,-252.184 1566,-238 1571.82,-236.519 1577.91,-234.91 1583.93,-233.283"/>
<polygon fill="midnightblue" stroke="midnightblue" points="1585.22,-236.559 1593.95,-230.548 1583.38,-229.806 1585.22,-236.559"/>
</g>
<!-- Node31 -->
<g id="node74" class="node"><title>Node31</title>
<polygon fill="white" stroke="#bfbfbf" points="1704.5,-209.5 1704.5,-230.5 1831.5,-230.5 1831.5,-209.5 1704.5,-209.5"/>
<text text-anchor="middle" x="1768" y="-217.5" font-family="Helvetica,sans-Serif" font-size="10.00">mars/utils/MutexLocker.h</text>
</g>
<!-- Node1&#45;&gt;Node31 -->
<g id="edge86" class="edge"><title>Node1&#45;&gt;Node31</title>
<path fill="none" stroke="midnightblue" d="M1397.79,-286.49C1476.7,-275.81 1594.44,-258.502 1696,-238 1703.38,-236.511 1711.14,-234.764 1718.72,-232.955"/>
<polygon fill="midnightblue" stroke="midnightblue" points="1719.65,-236.33 1728.54,-230.557 1717.99,-229.53 1719.65,-236.33"/>
</g>
<!-- Node32 -->
<g id="node76" class="node"><title>Node32</title>
<polygon fill="white" stroke="#bfbfbf" points="1849,-209.5 1849,-230.5 1989,-230.5 1989,-209.5 1849,-209.5"/>
<text text-anchor="middle" x="1919" y="-217.5" font-family="Helvetica,sans-Serif" font-size="10.00">mars/interfaces/Logging.hpp</text>
</g>
<!-- Node1&#45;&gt;Node32 -->
<g id="edge88" class="edge"><title>Node1&#45;&gt;Node32</title>
<path fill="none" stroke="midnightblue" d="M1397.85,-290.95C1503.97,-281.913 1685.59,-264.213 1840,-238 1848.67,-236.529 1857.81,-234.704 1866.68,-232.785"/>
<polygon fill="midnightblue" stroke="midnightblue" points="1867.53,-236.18 1876.53,-230.592 1866.01,-229.347 1867.53,-236.18"/>
</g>
<!-- Node33 -->
<g id="node78" class="node"><title>Node33</title>
<polygon fill="white" stroke="#bfbfbf" points="2006.5,-203 2006.5,-237 2151.5,-237 2151.5,-203 2006.5,-203"/>
<text text-anchor="start" x="2014.5" y="-224" font-family="Helvetica,sans-Serif" font-size="10.00">mars/data_broker/DataBroker</text>
<text text-anchor="middle" x="2079" y="-211" font-family="Helvetica,sans-Serif" font-size="10.00">Interface.h</text>
</g>
<!-- Node1&#45;&gt;Node33 -->
<g id="edge90" class="edge"><title>Node1&#45;&gt;Node33</title>
<path fill="none" stroke="midnightblue" d="M1397.77,-293.98C1527.86,-287.313 1776.41,-271.414 1996.12,-238.191"/>
<polygon fill="midnightblue" stroke="midnightblue" points="1996.87,-241.617 2006.23,-236.647 1995.81,-234.697 1996.87,-241.617"/>
</g>
<!-- Node3 -->
<g id="node5" class="node"><title>Node3</title>
<polygon fill="white" stroke="#bfbfbf" points="560,-7.5 560,-28.5 658,-28.5 658,-7.5 560,-7.5"/>
<text text-anchor="middle" x="609" y="-15.5" font-family="Helvetica,sans-Serif" font-size="10.00">mars/utils/Mutex.h</text>
</g>
<!-- Node2&#45;&gt;Node3 -->
<g id="edge4" class="edge"><title>Node2&#45;&gt;Node3</title>
<path fill="none" stroke="midnightblue" d="M833.263,-153.063C749.769,-147.791 533.976,-131.954 513,-108 502.459,-95.9628 504.922,-85.8114 513,-72 523.819,-53.5015 543.562,-40.8506 562.344,-32.4726"/>
<polygon fill="midnightblue" stroke="midnightblue" points="563.833,-35.6442 571.733,-28.5844 561.154,-29.1768 563.833,-35.6442"/>
</g>
<!-- Node4 -->
<g id="node7" class="node"><title>Node4</title>
<polygon fill="white" stroke="#bfbfbf" points="885.5,-7.5 885.5,-28.5 984.5,-28.5 984.5,-7.5 885.5,-7.5"/>
<text text-anchor="middle" x="935" y="-15.5" font-family="Helvetica,sans-Serif" font-size="10.00">mars/utils/Vector.h</text>
</g>
<!-- Node2&#45;&gt;Node4 -->
<g id="edge6" class="edge"><title>Node2&#45;&gt;Node4</title>
<path fill="none" stroke="midnightblue" d="M833.339,-152.096C770.496,-145.263 642.554,-124.593 685,-72 708.427,-42.9725 808.785,-28.7871 875.004,-22.4651"/>
<polygon fill="midnightblue" stroke="midnightblue" points="875.684,-25.9175 885.322,-21.5169 875.044,-18.9468 875.684,-25.9175"/>
</g>
<!-- Node5 -->
<g id="node9" class="node"><title>Node5</title>
<polygon fill="white" stroke="#bfbfbf" points="1024,-73 1024,-107 1158,-107 1158,-73 1024,-73"/>
<text text-anchor="start" x="1032" y="-94" font-family="Helvetica,sans-Serif" font-size="10.00">mars/data_broker/Producer</text>
<text text-anchor="middle" x="1091" y="-81" font-family="Helvetica,sans-Serif" font-size="10.00">Interface.h</text>
</g>
<!-- Node2&#45;&gt;Node5 -->
<g id="edge8" class="edge"><title>Node2&#45;&gt;Node5</title>
<path fill="none" stroke="midnightblue" d="M898.717,-145.548C930.988,-136.226 981.304,-121.69 1022.37,-109.826"/>
<polygon fill="midnightblue" stroke="midnightblue" points="1023.42,-113.166 1032.06,-107.028 1021.48,-106.441 1023.42,-113.166"/>
</g>
<!-- Node6 -->
<g id="node11" class="node"><title>Node6</title>
<polygon fill="white" stroke="#bfbfbf" points="851.5,-73 851.5,-107 1006.5,-107 1006.5,-73 851.5,-73"/>
<text text-anchor="start" x="859.5" y="-94" font-family="Helvetica,sans-Serif" font-size="10.00">mars/data_broker/DataPackage</text>
<text text-anchor="middle" x="929" y="-81" font-family="Helvetica,sans-Serif" font-size="10.00">Mapping.h</text>
</g>
<!-- Node2&#45;&gt;Node6 -->
<g id="edge10" class="edge"><title>Node2&#45;&gt;Node6</title>
<path fill="none" stroke="midnightblue" d="M876.403,-144.267C884.278,-136.142 895.407,-124.659 905.402,-114.347"/>
<polygon fill="midnightblue" stroke="midnightblue" points="907.97,-116.726 912.417,-107.11 902.944,-111.855 907.97,-116.726"/>
</g>
<!-- Node7 -->
<g id="node13" class="node"><title>Node7</title>
<polygon fill="white" stroke="#bfbfbf" points="522,-73 522,-107 638,-107 638,-73 522,-73"/>
<text text-anchor="start" x="530" y="-94" font-family="Helvetica,sans-Serif" font-size="10.00">mars/interfaces/sensor</text>
<text text-anchor="middle" x="580" y="-81" font-family="Helvetica,sans-Serif" font-size="10.00">_bases.h</text>
</g>
<!-- Node2&#45;&gt;Node7 -->
<g id="edge12" class="edge"><title>Node2&#45;&gt;Node7</title>
<path fill="none" stroke="midnightblue" d="M833.304,-148.125C791.271,-139.216 716.064,-123.04 652,-108 650.73,-107.702 649.448,-107.399 648.156,-107.093"/>
<polygon fill="midnightblue" stroke="midnightblue" points="648.665,-103.615 638.124,-104.683 647.03,-110.422 648.665,-103.615"/>
</g>
<!-- Node8 -->
<g id="node15" class="node"><title>Node8</title>
<polygon fill="white" stroke="#bfbfbf" points="694,-79.5 694,-100.5 834,-100.5 834,-79.5 694,-79.5"/>
<text text-anchor="middle" x="764" y="-87.5" font-family="Helvetica,sans-Serif" font-size="10.00">mars/interfaces/nodeState.h</text>
</g>
<!-- Node2&#45;&gt;Node8 -->
<g id="edge14" class="edge"><title>Node2&#45;&gt;Node8</title>
<path fill="none" stroke="midnightblue" d="M849.157,-144.267C832.818,-133.855 807.824,-117.927 789.133,-106.016"/>
<polygon fill="midnightblue" stroke="midnightblue" points="790.844,-102.956 780.53,-100.534 787.082,-108.859 790.844,-102.956"/>
</g>
<!-- Node9 -->
<g id="node17" class="node"><title>Node9</title>
<polygon fill="white" stroke="#bfbfbf" points="1295.5,-73 1295.5,-107 1398.5,-107 1398.5,-73 1295.5,-73"/>
<text text-anchor="start" x="1303.5" y="-94" font-family="Helvetica,sans-Serif" font-size="10.00">mars/interfaces/sim</text>
<text text-anchor="middle" x="1347" y="-81" font-family="Helvetica,sans-Serif" font-size="10.00">/NodeInterface.h</text>
</g>
<!-- Node2&#45;&gt;Node9 -->
<g id="edge16" class="edge"><title>Node2&#45;&gt;Node9</title>
<path fill="none" stroke="midnightblue" d="M898.528,-153.37C968.03,-149.461 1136.18,-137.734 1285.2,-108.177"/>
<polygon fill="midnightblue" stroke="midnightblue" points="1286.33,-111.52 1295.44,-106.112 1284.95,-104.658 1286.33,-111.52"/>
</g>
<!-- Node10&#45;&gt;Node5 -->
<g id="edge22" class="edge"><title>Node10&#45;&gt;Node5</title>
<path fill="none" stroke="midnightblue" d="M1091,-144.267C1091,-136.931 1091,-126.857 1091,-117.38"/>
<polygon fill="midnightblue" stroke="midnightblue" points="1094.5,-117.11 1091,-107.11 1087.5,-117.11 1094.5,-117.11"/>
</g>
<!-- Node10&#45;&gt;Node6 -->
<g id="edge24" class="edge"><title>Node10&#45;&gt;Node6</title>
<path fill="none" stroke="midnightblue" d="M1064.61,-144.412C1042.07,-135.37 1008.98,-122.091 981.127,-110.915"/>
<polygon fill="midnightblue" stroke="midnightblue" points="982.104,-107.536 971.52,-107.06 979.497,-114.033 982.104,-107.536"/>
</g>
<!-- Node11 -->
<g id="node21" class="node"><title>Node11</title>
<polygon fill="white" stroke="#bfbfbf" points="1175.5,-73 1175.5,-107 1278.5,-107 1278.5,-73 1175.5,-73"/>
<text text-anchor="start" x="1183.5" y="-94" font-family="Helvetica,sans-Serif" font-size="10.00">mars/interfaces/sim</text>
<text text-anchor="middle" x="1227" y="-81" font-family="Helvetica,sans-Serif" font-size="10.00">/JointInterface.h</text>
</g>
<!-- Node10&#45;&gt;Node11 -->
<g id="edge20" class="edge"><title>Node10&#45;&gt;Node11</title>
<path fill="none" stroke="midnightblue" d="M1113.15,-144.412C1131.74,-135.527 1158.89,-122.554 1182.01,-111.503"/>
<polygon fill="midnightblue" stroke="midnightblue" points="1183.79,-114.531 1191.3,-107.06 1180.77,-108.215 1183.79,-114.531"/>
</g>
<!-- Node12&#45;&gt;Node3 -->
<g id="edge32" class="edge"><title>Node12&#45;&gt;Node3</title>
<path fill="none" stroke="midnightblue" d="M452.15,-79.3762C484.04,-66.8975 537.081,-46.1422 572.537,-32.2682"/>
<polygon fill="midnightblue" stroke="midnightblue" points="574.002,-35.4536 582.039,-28.5501 571.451,-28.9348 574.002,-35.4536"/>
</g>
<!-- Node13 -->
<g id="node27" class="node"><title>Node13</title>
<polygon fill="white" stroke="#bfbfbf" points="439.5,-1 439.5,-35 542.5,-35 542.5,-1 439.5,-1"/>
<text text-anchor="start" x="447.5" y="-22" font-family="Helvetica,sans-Serif" font-size="10.00">mars/interfaces/sim</text>
<text text-anchor="middle" x="491" y="-9" font-family="Helvetica,sans-Serif" font-size="10.00">/ControlCenter.h</text>
</g>
<!-- Node12&#45;&gt;Node13 -->
<g id="edge28" class="edge"><title>Node12&#45;&gt;Node13</title>
<path fill="none" stroke="midnightblue" d="M434.739,-79.3762C443.587,-69.7228 456.977,-55.1163 468.474,-42.5741"/>
<polygon fill="midnightblue" stroke="midnightblue" points="471.153,-44.831 475.33,-35.0944 465.993,-40.1009 471.153,-44.831"/>
</g>
<!-- Node14 -->
<g id="node29" class="node"><title>Node14</title>
<polygon fill="white" stroke="#bfbfbf" points="297.5,-1 297.5,-35 422.5,-35 422.5,-1 297.5,-1"/>
<text text-anchor="start" x="305.5" y="-22" font-family="Helvetica,sans-Serif" font-size="10.00">mars/interfaces/sim</text>
<text text-anchor="middle" x="360" y="-9" font-family="Helvetica,sans-Serif" font-size="10.00">/JointManagerInterface.h</text>
</g>
<!-- Node12&#45;&gt;Node14 -->
<g id="edge30" class="edge"><title>Node12&#45;&gt;Node14</title>
<path fill="none" stroke="midnightblue" d="M415.409,-79.3762C406.694,-69.7228 393.508,-55.1163 382.185,-42.5741"/>
<polygon fill="midnightblue" stroke="midnightblue" points="384.731,-40.1717 375.432,-35.0944 379.536,-44.8624 384.731,-40.1717"/>
</g>
<!-- Node15&#45;&gt;Node3 -->
<g id="edge36" class="edge"><title>Node15&#45;&gt;Node3</title>
<path fill="none" stroke="midnightblue" d="M351.397,-79.4147C359.002,-76.7883 367.261,-74.1212 375,-72 452.002,-50.8959 473.667,-55.8569 551,-36 556.297,-34.6398 561.83,-33.0917 567.284,-31.4878"/>
<polygon fill="midnightblue" stroke="midnightblue" points="568.388,-34.8104 576.949,-28.5688 566.365,-28.1093 568.388,-34.8104"/>
</g>
<!-- Node15&#45;&gt;Node13 -->
<g id="edge40" class="edge"><title>Node15&#45;&gt;Node13</title>
<path fill="none" stroke="midnightblue" d="M347.789,-79.3762C372.439,-68.8121 410.929,-52.3163 441.801,-39.0855"/>
<polygon fill="midnightblue" stroke="midnightblue" points="443.3,-42.2506 451.113,-35.0944 440.543,-35.8166 443.3,-42.2506"/>
</g>
<!-- Node16 -->
<g id="node35" class="node"><title>Node16</title>
<polygon fill="white" stroke="#bfbfbf" points="-0.5,-1 -0.5,-35 136.5,-35 136.5,-1 -0.5,-1"/>
<text text-anchor="start" x="7.5" y="-22" font-family="Helvetica,sans-Serif" font-size="10.00">mars/interfaces/graphics</text>
<text text-anchor="middle" x="68" y="-9" font-family="Helvetica,sans-Serif" font-size="10.00">/GraphicsUpdateInterface.h</text>
</g>
<!-- Node15&#45;&gt;Node16 -->
<g id="edge38" class="edge"><title>Node15&#45;&gt;Node16</title>
<path fill="none" stroke="midnightblue" d="M285.648,-79.4535C247.08,-68.5638 185.982,-51.3125 138.324,-37.8563"/>
<polygon fill="midnightblue" stroke="midnightblue" points="139.253,-34.4816 128.678,-35.1325 137.35,-41.2182 139.253,-34.4816"/>
</g>
<!-- Node17 -->
<g id="node38" class="node"><title>Node17</title>
<polygon fill="white" stroke="#bfbfbf" points="153.5,-1 153.5,-35 280.5,-35 280.5,-1 153.5,-1"/>
<text text-anchor="start" x="161.5" y="-22" font-family="Helvetica,sans-Serif" font-size="10.00">mars/interfaces/sim</text>
<text text-anchor="middle" x="217" y="-9" font-family="Helvetica,sans-Serif" font-size="10.00">/NodeManagerInterface.h</text>
</g>
<!-- Node15&#45;&gt;Node17 -->
<g id="edge42" class="edge"><title>Node15&#45;&gt;Node17</title>
<path fill="none" stroke="midnightblue" d="M307.359,-79.3762C292.477,-69.2674 269.599,-53.7273 250.587,-40.8138"/>
<polygon fill="midnightblue" stroke="midnightblue" points="252.406,-37.818 242.167,-35.0944 248.472,-43.6085 252.406,-37.818"/>
</g>
<!-- Node19 -->
<g id="node42" class="node"><title>Node19</title>
<a xlink:href="../../d6/d89/_world_physics_8h.html" target="_top" xlink:title="&quot;WorldPhysics&quot; includes the methods to handle the physically world. ">
<polygon fill="white" stroke="black" points="1416,-79.5 1416,-100.5 1502,-100.5 1502,-79.5 1416,-79.5"/>
<text text-anchor="middle" x="1459" y="-87.5" font-family="Helvetica,sans-Serif" font-size="10.00">WorldPhysics.h</text>
</a>
</g>
<!-- Node18&#45;&gt;Node19 -->
<g id="edge46" class="edge"><title>Node18&#45;&gt;Node19</title>
<path fill="none" stroke="midnightblue" d="M1195.07,-209.463C1203.11,-206.837 1211.84,-204.157 1220,-202 1297.61,-181.481 1328.29,-207.519 1397,-166 1419.75,-152.253 1437.81,-127.015 1448.44,-109.409"/>
<polygon fill="midnightblue" stroke="midnightblue" points="1451.59,-110.946 1453.56,-100.535 1445.53,-107.445 1451.59,-110.946"/>
</g>
<!-- Node25 -->
<g id="node57" class="node"><title>Node25</title>
<a xlink:href="../../d7/d43/_node_physics_8h.html" target="_top" xlink:title="&quot;NodePhysics&quot; implements the physical ode stuff for the nodes. ">
<polygon fill="white" stroke="black" points="1305.5,-144.5 1305.5,-165.5 1388.5,-165.5 1388.5,-144.5 1305.5,-144.5"/>
<text text-anchor="middle" x="1347" y="-152.5" font-family="Helvetica,sans-Serif" font-size="10.00">NodePhysics.h</text>
</a>
</g>
<!-- Node18&#45;&gt;Node25 -->
<g id="edge64" class="edge"><title>Node18&#45;&gt;Node25</title>
<path fill="none" stroke="midnightblue" d="M1194.65,-209.412C1225.45,-198.411 1273.81,-181.14 1307.76,-169.013"/>
<polygon fill="midnightblue" stroke="midnightblue" points="1309.13,-172.243 1317.37,-165.584 1306.77,-165.651 1309.13,-172.243"/>
</g>
<!-- Node26 -->
<g id="node61" class="node"><title>Node26</title>
<a xlink:href="../../dd/dbe/_joint_physics_8h.html" target="_top" xlink:title="JointPhysics.h">
<polygon fill="white" stroke="black" points="1196.5,-144.5 1196.5,-165.5 1277.5,-165.5 1277.5,-144.5 1196.5,-144.5"/>
<text text-anchor="middle" x="1237" y="-152.5" font-family="Helvetica,sans-Serif" font-size="10.00">JointPhysics.h</text>
</a>
</g>
<!-- Node18&#45;&gt;Node26 -->
<g id="edge70" class="edge"><title>Node18&#45;&gt;Node26</title>
<path fill="none" stroke="midnightblue" d="M1176.89,-209.267C1188,-199.233 1204.79,-184.078 1217.8,-172.331"/>
<polygon fill="midnightblue" stroke="midnightblue" points="1220.25,-174.833 1225.33,-165.534 1215.56,-169.637 1220.25,-174.833"/>
</g>
<!-- Node19&#45;&gt;Node3 -->
<g id="edge48" class="edge"><title>Node19&#45;&gt;Node3</title>
<path fill="none" stroke="midnightblue" d="M1432.93,-79.4574C1424.75,-76.5664 1415.61,-73.7496 1407,-72 1404.73,-71.5395 852.67,-34.3863 668.219,-21.9815"/>
<polygon fill="midnightblue" stroke="midnightblue" points="668.37,-18.4839 658.158,-21.3049 667.9,-25.4681 668.37,-18.4839"/>
</g>
<!-- Node19&#45;&gt;Node4 -->
<g id="edge50" class="edge"><title>Node19&#45;&gt;Node4</title>
<path fill="none" stroke="midnightblue" d="M1432.07,-79.4207C1424.1,-76.6351 1415.29,-73.8852 1407,-72 1261.02,-38.8078 1084.77,-25.5373 994.56,-20.6247"/>
<polygon fill="midnightblue" stroke="midnightblue" points="994.691,-17.1268 984.52,-20.0933 994.321,-24.117 994.691,-17.1268"/>
</g>
<!-- Node19&#45;&gt;Node13 -->
<g id="edge54" class="edge"><title>Node19&#45;&gt;Node13</title>
<path fill="none" stroke="midnightblue" d="M1433.22,-79.4163C1424.98,-76.486 1415.73,-73.6573 1407,-72 1036.19,-1.59395 928.391,-97.4855 552.577,-36.0167"/>
<polygon fill="midnightblue" stroke="midnightblue" points="552.955,-32.5316 542.517,-34.3443 551.807,-39.4369 552.955,-32.5316"/>
</g>
<!-- Node20 -->
<g id="node46" class="node"><title>Node20</title>
<polygon fill="white" stroke="#bfbfbf" points="1287.5,-1 1287.5,-35 1390.5,-35 1390.5,-1 1287.5,-1"/>
<text text-anchor="start" x="1295.5" y="-22" font-family="Helvetica,sans-Serif" font-size="10.00">mars/interfaces/sim</text>
<text text-anchor="middle" x="1339" y="-9" font-family="Helvetica,sans-Serif" font-size="10.00">_common.h</text>
</g>
<!-- Node19&#45;&gt;Node20 -->
<g id="edge52" class="edge"><title>Node19&#45;&gt;Node20</title>
<path fill="none" stroke="midnightblue" d="M1441.29,-79.3762C1424.22,-69.1308 1397.84,-53.3063 1376.15,-40.2918"/>
<polygon fill="midnightblue" stroke="midnightblue" points="1377.87,-37.2381 1367.49,-35.0944 1374.26,-43.2406 1377.87,-37.2381"/>
</g>
<!-- Node21 -->
<g id="node49" class="node"><title>Node21</title>
<polygon fill="white" stroke="#bfbfbf" points="1407.5,-1 1407.5,-35 1510.5,-35 1510.5,-1 1407.5,-1"/>
<text text-anchor="start" x="1415.5" y="-22" font-family="Helvetica,sans-Serif" font-size="10.00">mars/interfaces/sim</text>
<text text-anchor="middle" x="1459" y="-9" font-family="Helvetica,sans-Serif" font-size="10.00">/PhysicsInterface.h</text>
</g>
<!-- Node19&#45;&gt;Node21 -->
<g id="edge56" class="edge"><title>Node19&#45;&gt;Node21</title>
<path fill="none" stroke="midnightblue" d="M1459,-79.3762C1459,-70.4513 1459,-57.2928 1459,-45.4461"/>
<polygon fill="midnightblue" stroke="midnightblue" points="1462.5,-45.0943 1459,-35.0944 1455.5,-45.0944 1462.5,-45.0943"/>
</g>
<!-- Node22 -->
<g id="node51" class="node"><title>Node22</title>
<polygon fill="white" stroke="#bfbfbf" points="1528,-1 1528,-35 1652,-35 1652,-1 1528,-1"/>
<text text-anchor="start" x="1536" y="-22" font-family="Helvetica,sans-Serif" font-size="10.00">mars/interfaces/graphics</text>
<text text-anchor="middle" x="1590" y="-9" font-family="Helvetica,sans-Serif" font-size="10.00">/draw_structs.h</text>
</g>
<!-- Node19&#45;&gt;Node22 -->
<g id="edge58" class="edge"><title>Node19&#45;&gt;Node22</title>
<path fill="none" stroke="midnightblue" d="M1478.33,-79.3762C1497.14,-69.0397 1526.27,-53.0246 1550.07,-39.9454"/>
<polygon fill="midnightblue" stroke="midnightblue" points="1551.82,-42.9783 1558.9,-35.0944 1548.45,-36.8438 1551.82,-42.9783"/>
</g>
<!-- Node23 -->
<g id="node53" class="node"><title>Node23</title>
<polygon fill="white" stroke="#bfbfbf" points="1670,-7.5 1670,-28.5 1714,-28.5 1714,-7.5 1670,-7.5"/>
<text text-anchor="middle" x="1692" y="-15.5" font-family="Helvetica,sans-Serif" font-size="10.00">vector</text>
</g>
<!-- Node19&#45;&gt;Node23 -->
<g id="edge60" class="edge"><title>Node19&#45;&gt;Node23</title>
<path fill="none" stroke="midnightblue" d="M1502.25,-81.9083C1543.91,-73.315 1608.2,-57.9293 1661,-36 1662.85,-35.2302 1664.73,-34.3687 1666.6,-33.4508"/>
<polygon fill="midnightblue" stroke="midnightblue" points="1668.54,-36.3803 1675.68,-28.5549 1665.22,-30.2183 1668.54,-36.3803"/>
</g>
<!-- Node24 -->
<g id="node55" class="node"><title>Node24</title>
<polygon fill="white" stroke="#bfbfbf" points="1211.5,-7.5 1211.5,-28.5 1270.5,-28.5 1270.5,-7.5 1211.5,-7.5"/>
<text text-anchor="middle" x="1241" y="-15.5" font-family="Helvetica,sans-Serif" font-size="10.00">ode/ode.h</text>
</g>
<!-- Node19&#45;&gt;Node24 -->
<g id="edge62" class="edge"><title>Node19&#45;&gt;Node24</title>
<path fill="none" stroke="midnightblue" d="M1429.4,-79.4157C1422.11,-76.9005 1414.29,-74.2856 1407,-72 1350.61,-54.3268 1334.34,-56.7224 1279,-36 1276.31,-34.9921 1273.55,-33.8684 1270.8,-32.6884"/>
<polygon fill="midnightblue" stroke="midnightblue" points="1272.19,-29.4762 1261.63,-28.5459 1269.3,-35.8546 1272.19,-29.4762"/>
</g>
<!-- Node25&#45;&gt;Node9 -->
<g id="edge68" class="edge"><title>Node25&#45;&gt;Node9</title>
<path fill="none" stroke="midnightblue" d="M1347,-144.267C1347,-136.931 1347,-126.857 1347,-117.38"/>
<polygon fill="midnightblue" stroke="midnightblue" points="1350.5,-117.11 1347,-107.11 1343.5,-117.11 1350.5,-117.11"/>
</g>
<!-- Node25&#45;&gt;Node19 -->
<g id="edge66" class="edge"><title>Node25&#45;&gt;Node19</title>
<path fill="none" stroke="midnightblue" d="M1365.49,-144.267C1383.6,-133.76 1411.38,-117.637 1431.96,-105.692"/>
<polygon fill="midnightblue" stroke="midnightblue" points="1433.96,-108.58 1440.85,-100.534 1430.44,-102.526 1433.96,-108.58"/>
</g>
<!-- Node26&#45;&gt;Node9 -->
<g id="edge76" class="edge"><title>Node26&#45;&gt;Node9</title>
<path fill="none" stroke="midnightblue" d="M1255.16,-144.267C1269.85,-135.59 1291.01,-123.083 1309.33,-112.262"/>
<polygon fill="midnightblue" stroke="midnightblue" points="1311.22,-115.21 1318.04,-107.11 1307.66,-109.184 1311.22,-115.21"/>
</g>
<!-- Node26&#45;&gt;Node11 -->
<g id="edge74" class="edge"><title>Node26&#45;&gt;Node11</title>
<path fill="none" stroke="midnightblue" d="M1235.35,-144.267C1234.21,-136.852 1232.64,-126.64 1231.17,-117.074"/>
<polygon fill="midnightblue" stroke="midnightblue" points="1234.61,-116.461 1229.63,-107.11 1227.69,-117.526 1234.61,-116.461"/>
</g>
<!-- Node26&#45;&gt;Node19 -->
<g id="edge72" class="edge"><title>Node26&#45;&gt;Node19</title>
<path fill="none" stroke="midnightblue" d="M1277.74,-144.514C1312.31,-135.431 1363.14,-121.639 1407,-108 1411.27,-106.672 1415.72,-105.227 1420.14,-103.753"/>
<polygon fill="midnightblue" stroke="midnightblue" points="1421.34,-107.042 1429.68,-100.513 1419.09,-100.414 1421.34,-107.042"/>
</g>
</g>
</svg>
