<?xml version="1.0" encoding="UTF-8" standalone="no"?>
<!DOCTYPE svg PUBLIC "-//W3C//DTD SVG 1.1//EN"
 "http://www.w3.org/Graphics/SVG/1.1/DTD/svg11.dtd">
<!-- Generated by graphviz version 2.36.0 (20140111.2315)
 -->
<!-- Title: /media/kavonszadkowski/work/marsdocs/mars/gui/src/dialogs/DialogLights.h Pages: 1 -->
<svg width="400pt" height="206pt"
 viewBox="0.00 0.00 400.00 206.00" xmlns="http://www.w3.org/2000/svg" xmlns:xlink="http://www.w3.org/1999/xlink">
<g id="graph0" class="graph" transform="scale(1 1) rotate(0) translate(4 202)">
<title>/media/kavonszadkowski/work/marsdocs/mars/gui/src/dialogs/DialogLights.h</title>
<polygon fill="white" stroke="none" points="-4,4 -4,-202 396,-202 396,4 -4,4"/>
<!-- Node1 -->
<g id="node1" class="node"><title>Node1</title>
<polygon fill="#bfbfbf" stroke="black" points="86,-156.5 86,-197.5 218,-197.5 218,-156.5 86,-156.5"/>
<text text-anchor="start" x="94" y="-185.5" font-family="Helvetica,sans-Serif" font-size="10.00">/media/kavonszadkowski</text>
<text text-anchor="start" x="94" y="-174.5" font-family="Helvetica,sans-Serif" font-size="10.00">/work/marsdocs/mars/gui</text>
<text text-anchor="middle" x="152" y="-163.5" font-family="Helvetica,sans-Serif" font-size="10.00">/src/dialogs/DialogLights.h</text>
</g>
<!-- Node2 -->
<g id="node2" class="node"><title>Node2</title>
<g id="a_node2"><a xlink:href="../../d8/da4/_dialog_lights_8cpp.html" target="_top" xlink:title="/media/kavonszadkowski\l/work/marsdocs/mars/gui\l/src/dialogs/DialogLights.cpp">
<polygon fill="white" stroke="black" points="-0.5,-78.5 -0.5,-119.5 142.5,-119.5 142.5,-78.5 -0.5,-78.5"/>
<text text-anchor="start" x="7.5" y="-107.5" font-family="Helvetica,sans-Serif" font-size="10.00">/media/kavonszadkowski</text>
<text text-anchor="start" x="7.5" y="-96.5" font-family="Helvetica,sans-Serif" font-size="10.00">/work/marsdocs/mars/gui</text>
<text text-anchor="middle" x="71" y="-85.5" font-family="Helvetica,sans-Serif" font-size="10.00">/src/dialogs/DialogLights.cpp</text>
</a>
</g>
</g>
<!-- Node1&#45;&gt;Node2 -->
<g id="edge1" class="edge"><title>Node1&#45;&gt;Node2</title>
<path fill="none" stroke="midnightblue" d="M123.748,-149.492C113.237,-139.629 101.511,-128.627 91.7888,-119.506"/>
<polygon fill="midnightblue" stroke="midnightblue" points="121.453,-152.138 131.14,-156.428 126.243,-147.033 121.453,-152.138"/>
</g>
<!-- Node3 -->
<g id="node3" class="node"><title>Node3</title>
<g id="a_node3"><a xlink:href="../../d3/d92/_menu_simulation_8h.html" target="_top" xlink:title="Provides the Simulation and Control menu entries. ">
<polygon fill="white" stroke="black" points="161,-78.5 161,-119.5 307,-119.5 307,-78.5 161,-78.5"/>
<text text-anchor="start" x="169" y="-107.5" font-family="Helvetica,sans-Serif" font-size="10.00">/media/kavonszadkowski</text>
<text text-anchor="start" x="169" y="-96.5" font-family="Helvetica,sans-Serif" font-size="10.00">/work/marsdocs/mars/gui</text>
<text text-anchor="middle" x="234" y="-85.5" font-family="Helvetica,sans-Serif" font-size="10.00">/src/menus/MenuSimulation.h</text>
</a>
</g>
</g>
<!-- Node1&#45;&gt;Node3 -->
<g id="edge2" class="edge"><title>Node1&#45;&gt;Node3</title>
<path fill="none" stroke="midnightblue" d="M180.601,-149.492C191.242,-139.629 203.113,-128.627 212.955,-119.506"/>
<polygon fill="midnightblue" stroke="midnightblue" points="178.072,-147.063 173.117,-156.428 182.831,-152.197 178.072,-147.063"/>
</g>
<!-- Node4 -->
<g id="node4" class="node"><title>Node4</title>
<g id="a_node4"><a xlink:href="../../da/d1e/_mars_gui_8cpp.html" target="_top" xlink:title="/media/kavonszadkowski\l/work/marsdocs/mars/gui\l/src/MarsGui.cpp">
<polygon fill="white" stroke="black" points="90.5,-0.5 90.5,-41.5 217.5,-41.5 217.5,-0.5 90.5,-0.5"/>
<text text-anchor="start" x="98.5" y="-29.5" font-family="Helvetica,sans-Serif" font-size="10.00">/media/kavonszadkowski</text>
<text text-anchor="start" x="98.5" y="-18.5" font-family="Helvetica,sans-Serif" font-size="10.00">/work/marsdocs/mars/gui</text>
<text text-anchor="middle" x="154" y="-7.5" font-family="Helvetica,sans-Serif" font-size="10.00">/src/MarsGui.cpp</text>
</a>
</g>
</g>
<!-- Node3&#45;&gt;Node4 -->
<g id="edge3" class="edge"><title>Node3&#45;&gt;Node4</title>
<path fill="none" stroke="midnightblue" d="M206.096,-71.4916C195.715,-61.6294 184.134,-50.6273 174.532,-41.5056"/>
<polygon fill="midnightblue" stroke="midnightblue" points="203.737,-74.0781 213.398,-78.4281 208.559,-69.0031 203.737,-74.0781"/>
</g>
<!-- Node5 -->
<g id="node5" class="node"><title>Node5</title>
<g id="a_node5"><a xlink:href="../../d9/d82/_menu_simulation_8cpp.html" target="_top" xlink:title="/media/kavonszadkowski\l/work/marsdocs/mars/gui\l/src/menus/MenuSimulation.cpp">
<polygon fill="white" stroke="black" points="235.5,-0.5 235.5,-41.5 392.5,-41.5 392.5,-0.5 235.5,-0.5"/>
<text text-anchor="start" x="243.5" y="-29.5" font-family="Helvetica,sans-Serif" font-size="10.00">/media/kavonszadkowski</text>
<text text-anchor="start" x="243.5" y="-18.5" font-family="Helvetica,sans-Serif" font-size="10.00">/work/marsdocs/mars/gui</text>
<text text-anchor="middle" x="314" y="-7.5" font-family="Helvetica,sans-Serif" font-size="10.00">/src/menus/MenuSimulation.cpp</text>
</a>
</g>
</g>
<!-- Node3&#45;&gt;Node5 -->
<g id="edge4" class="edge"><title>Node3&#45;&gt;Node5</title>
<path fill="none" stroke="midnightblue" d="M261.904,-71.4916C272.285,-61.6294 283.866,-50.6273 293.468,-41.5056"/>
<polygon fill="midnightblue" stroke="midnightblue" points="259.441,-69.0031 254.602,-78.4281 264.263,-74.0781 259.441,-69.0031"/>
</g>
</g>
</svg>
