<?xml version="1.0" encoding="UTF-8" standalone="no"?>
<!DOCTYPE svg PUBLIC "-//W3C//DTD SVG 1.1//EN"
 "http://www.w3.org/Graphics/SVG/1.1/DTD/svg11.dtd">
<!-- Generated by graphviz version 2.26.3 (20100126.1600)
 -->
<!-- Title: /home/kavonszadkowski/limes&#45;dev/simulation/mars/plugins/joystick_plugin/game_controller_manager/src/GameControllerManager.cpp Pages: 1 -->
<svg width="289pt" height="256pt"
 viewBox="0.00 0.00 289.00 256.00" xmlns="http://www.w3.org/2000/svg" xmlns:xlink="http://www.w3.org/1999/xlink">
<g id="graph1" class="graph" transform="scale(1 1) rotate(0) translate(4 252)">
<title>/home/kavonszadkowski/limes&#45;dev/simulation/mars/plugins/joystick_plugin/game_controller_manager/src/GameControllerManager.cpp</title>
<polygon fill="white" stroke="white" points="-4,5 -4,-252 286,-252 286,5 -4,5"/>
<!-- Node1 -->
<g id="node1" class="node"><title>Node1</title>
<polygon fill="#bfbfbf" stroke="black" points="49.5,-174.5 49.5,-247.5 252.5,-247.5 252.5,-174.5 49.5,-174.5"/>
<text text-anchor="start" x="57.5" y="-234.5" font-family="Helvetica,sans-Serif" font-size="10.00">/home/kavonszadkowski</text>
<text text-anchor="start" x="57.5" y="-221.5" font-family="Helvetica,sans-Serif" font-size="10.00">/limes&#45;dev/simulation</text>
<text text-anchor="start" x="57.5" y="-208.5" font-family="Helvetica,sans-Serif" font-size="10.00">/mars/plugins/joystick</text>
<text text-anchor="start" x="57.5" y="-195.5" font-family="Helvetica,sans-Serif" font-size="10.00">_plugin/game_controller</text>
<text text-anchor="middle" x="151" y="-182.5" font-family="Helvetica,sans-Serif" font-size="10.00">_manager/src/GameControllerManager.cpp</text>
</g>
<!-- Node2 -->
<g id="node3" class="node"><title>Node2</title>
<a xlink:href="../../df/d64/_game_controller_manager_8h.html" target="_top" xlink:title="Copyright 2011, DFKI GmbH Robotics Innovation Center. ">
<polygon fill="white" stroke="black" points="-0.5,-58.5 -0.5,-79.5 130.5,-79.5 130.5,-58.5 -0.5,-58.5"/>
<text text-anchor="middle" x="65" y="-66.5" font-family="Helvetica,sans-Serif" font-size="10.00">GameControllerManager.h</text>
</a>
</g>
<!-- Node1&#45;&gt;Node2 -->
<g id="edge2" class="edge"><title>Node1&#45;&gt;Node2</title>
<path fill="none" stroke="midnightblue" d="M111.083,-174.302C101.078,-163.428 91.1657,-150.943 84,-138 75.7372,-123.075 70.8722,-104.313 68.1372,-90.1215"/>
<polygon fill="midnightblue" stroke="midnightblue" points="71.5205,-89.1433 66.3762,-79.8812 64.6217,-90.3297 71.5205,-89.1433"/>
</g>
<!-- Node5 -->
<g id="node9" class="node"><title>Node5</title>
<a xlink:href="../../db/db1/_g_c_manager_interface_8h.html" target="_top" xlink:title="Copyright 2011, DFKI GmbH Robotics Innovation Center. ">
<polygon fill="white" stroke="black" points="93,-116.5 93,-137.5 209,-137.5 209,-116.5 93,-116.5"/>
<text text-anchor="middle" x="151" y="-124.5" font-family="Helvetica,sans-Serif" font-size="10.00">GCManagerInterface.h</text>
</a>
</g>
<!-- Node1&#45;&gt;Node5 -->
<g id="edge8" class="edge"><title>Node1&#45;&gt;Node5</title>
<path fill="none" stroke="midnightblue" d="M151,-174.401C151,-165.386 151,-156.033 151,-148.042"/>
<polygon fill="midnightblue" stroke="midnightblue" points="154.5,-147.828 151,-137.828 147.5,-147.828 154.5,-147.828"/>
</g>
<!-- Node6 -->
<g id="node13" class="node"><title>Node6</title>
<polygon fill="white" stroke="#bfbfbf" points="227,-116.5 227,-137.5 281,-137.5 281,-116.5 227,-116.5"/>
<text text-anchor="middle" x="254" y="-124.5" font-family="Helvetica,sans-Serif" font-size="10.00">iostream</text>
</g>
<!-- Node1&#45;&gt;Node6 -->
<g id="edge14" class="edge"><title>Node1&#45;&gt;Node6</title>
<path fill="none" stroke="midnightblue" d="M195.878,-174.401C208.711,-163.935 222.101,-153.014 232.791,-144.297"/>
<polygon fill="midnightblue" stroke="midnightblue" points="235.185,-146.861 240.722,-137.828 230.761,-141.436 235.185,-146.861"/>
</g>
<!-- Node3 -->
<g id="node5" class="node"><title>Node3</title>
<polygon fill="white" stroke="#bfbfbf" points="44.5,-0.5 44.5,-21.5 85.5,-21.5 85.5,-0.5 44.5,-0.5"/>
<text text-anchor="middle" x="65" y="-8.5" font-family="Helvetica,sans-Serif" font-size="10.00">string</text>
</g>
<!-- Node2&#45;&gt;Node3 -->
<g id="edge4" class="edge"><title>Node2&#45;&gt;Node3</title>
<path fill="none" stroke="midnightblue" d="M65,-58.3619C65,-50.9219 65,-40.7427 65,-31.7276"/>
<polygon fill="midnightblue" stroke="midnightblue" points="68.5001,-31.5706 65,-21.5707 61.5001,-31.5707 68.5001,-31.5706"/>
</g>
<!-- Node4 -->
<g id="node7" class="node"><title>Node4</title>
<polygon fill="white" stroke="#bfbfbf" points="119,-0.5 119,-21.5 163,-21.5 163,-0.5 119,-0.5"/>
<text text-anchor="middle" x="141" y="-8.5" font-family="Helvetica,sans-Serif" font-size="10.00">vector</text>
</g>
<!-- Node2&#45;&gt;Node4 -->
<g id="edge6" class="edge"><title>Node2&#45;&gt;Node4</title>
<path fill="none" stroke="midnightblue" d="M78.9396,-58.3619C90.1884,-49.7773 106.216,-37.5459 119.165,-27.6636"/>
<polygon fill="midnightblue" stroke="midnightblue" points="121.323,-30.4198 127.149,-21.5707 117.076,-24.8551 121.323,-30.4198"/>
</g>
<!-- Node5&#45;&gt;Node2 -->
<g id="edge10" class="edge"><title>Node5&#45;&gt;Node2</title>
<path fill="none" stroke="midnightblue" d="M135.226,-116.362C122.376,-107.696 104.015,-95.3126 89.2903,-85.3819"/>
<polygon fill="midnightblue" stroke="midnightblue" points="90.9215,-82.2604 80.6737,-79.5707 87.0075,-88.0639 90.9215,-82.2604"/>
</g>
<!-- Node5&#45;&gt;Node4 -->
<g id="edge12" class="edge"><title>Node5&#45;&gt;Node4</title>
<path fill="none" stroke="midnightblue" d="M150.077,-116.295C148.425,-97.1314 144.936,-56.654 142.797,-31.8434"/>
<polygon fill="midnightblue" stroke="midnightblue" points="146.267,-31.3416 141.921,-21.6792 139.293,-31.9429 146.267,-31.3416"/>
</g>
</g>
</svg>
