<?xml version="1.0" encoding="UTF-8" standalone="no"?>
<!DOCTYPE svg PUBLIC "-//W3C//DTD SVG 1.1//EN"
 "http://www.w3.org/Graphics/SVG/1.1/DTD/svg11.dtd">
<!-- Generated by graphviz version 2.26.3 (20100126.1600)
 -->
<!-- Title: /home/kavonszadkowski/limes&#45;dev/simulation/mars/sim/src/core/JointManager.h Pages: 1 -->
<svg width="368pt" height="128pt"
 viewBox="0.00 0.00 368.00 128.00" xmlns="http://www.w3.org/2000/svg" xmlns:xlink="http://www.w3.org/1999/xlink">
<g id="graph1" class="graph" transform="scale(1 1) rotate(0) translate(4 124)">
<title>/home/kavonszadkowski/limes&#45;dev/simulation/mars/sim/src/core/JointManager.h</title>
<polygon fill="white" stroke="white" points="-4,5 -4,-124 365,-124 365,5 -4,5"/>
<!-- Node1 -->
<g id="node1" class="node"><title>Node1</title>
<polygon fill="#bfbfbf" stroke="black" points="98,-72.5 98,-119.5 266,-119.5 266,-72.5 98,-72.5"/>
<text text-anchor="start" x="106" y="-106.5" font-family="Helvetica,sans-Serif" font-size="10.00">/home/kavonszadkowski</text>
<text text-anchor="start" x="106" y="-93.5" font-family="Helvetica,sans-Serif" font-size="10.00">/limes&#45;dev/simulation</text>
<text text-anchor="middle" x="182" y="-80.5" font-family="Helvetica,sans-Serif" font-size="10.00">/mars/sim/src/core/JointManager.h</text>
</g>
<!-- Node2 -->
<g id="node3" class="node"><title>Node2</title>
<polygon fill="white" stroke="#bfbfbf" points="-0.5,-1 -0.5,-35 102.5,-35 102.5,-1 -0.5,-1"/>
<text text-anchor="start" x="7.5" y="-22" font-family="Helvetica,sans-Serif" font-size="10.00">mars/interfaces/sim</text>
<text text-anchor="middle" x="51" y="-9" font-family="Helvetica,sans-Serif" font-size="10.00">/ControlCenter.h</text>
</g>
<!-- Node1&#45;&gt;Node2 -->
<g id="edge2" class="edge"><title>Node1&#45;&gt;Node2</title>
<path fill="none" stroke="midnightblue" d="M142.34,-72.3858C125.312,-62.2466 105.508,-50.4552 88.7021,-40.4486"/>
<polygon fill="midnightblue" stroke="midnightblue" points="90.0934,-37.2036 79.7105,-35.0948 86.5122,-43.2182 90.0934,-37.2036"/>
</g>
<!-- Node3 -->
<g id="node5" class="node"><title>Node3</title>
<polygon fill="white" stroke="#bfbfbf" points="119.5,-1 119.5,-35 244.5,-35 244.5,-1 119.5,-1"/>
<text text-anchor="start" x="127.5" y="-22" font-family="Helvetica,sans-Serif" font-size="10.00">mars/interfaces/sim</text>
<text text-anchor="middle" x="182" y="-9" font-family="Helvetica,sans-Serif" font-size="10.00">/JointManagerInterface.h</text>
</g>
<!-- Node1&#45;&gt;Node3 -->
<g id="edge4" class="edge"><title>Node1&#45;&gt;Node3</title>
<path fill="none" stroke="midnightblue" d="M182,-72.1736C182,-63.6375 182,-53.9525 182,-45.1557"/>
<polygon fill="midnightblue" stroke="midnightblue" points="185.5,-45.003 182,-35.003 178.5,-45.003 185.5,-45.003"/>
</g>
<!-- Node4 -->
<g id="node7" class="node"><title>Node4</title>
<polygon fill="white" stroke="#bfbfbf" points="262,-7.5 262,-28.5 360,-28.5 360,-7.5 262,-7.5"/>
<text text-anchor="middle" x="311" y="-15.5" font-family="Helvetica,sans-Serif" font-size="10.00">mars/utils/Mutex.h</text>
</g>
<!-- Node1&#45;&gt;Node4 -->
<g id="edge6" class="edge"><title>Node1&#45;&gt;Node4</title>
<path fill="none" stroke="midnightblue" d="M221.054,-72.3858C241.735,-59.881 266.573,-44.863 284.903,-33.7797"/>
<polygon fill="midnightblue" stroke="midnightblue" points="286.838,-36.6995 293.585,-28.5302 283.216,-30.7094 286.838,-36.6995"/>
</g>
</g>
</svg>
