<?xml version="1.0" encoding="UTF-8" standalone="no"?>
<!DOCTYPE svg PUBLIC "-//W3C//DTD SVG 1.1//EN"
 "http://www.w3.org/Graphics/SVG/1.1/DTD/svg11.dtd">
<!-- Generated by graphviz version 2.26.3 (20100126.1600)
 -->
<!-- Title: /home/kavonszadkowski/limes&#45;dev/simulation/mars/gui/src/dialogs/CaptureWindow/CaptureConfig.h Pages: 1 -->
<svg width="561pt" height="364pt"
 viewBox="0.00 0.00 561.00 364.00" xmlns="http://www.w3.org/2000/svg" xmlns:xlink="http://www.w3.org/1999/xlink">
<g id="graph1" class="graph" transform="scale(1 1) rotate(0) translate(4 360)">
<title>/home/kavonszadkowski/limes&#45;dev/simulation/mars/gui/src/dialogs/CaptureWindow/CaptureConfig.h</title>
<polygon fill="white" stroke="white" points="-4,5 -4,-360 558,-360 558,5 -4,5"/>
<!-- Node1 -->
<g id="node1" class="node"><title>Node1</title>
<polygon fill="#bfbfbf" stroke="black" points="95,-295 95,-355 259,-355 259,-295 95,-295"/>
<text text-anchor="start" x="103" y="-342" font-family="Helvetica,sans-Serif" font-size="10.00">/home/kavonszadkowski</text>
<text text-anchor="start" x="103" y="-329" font-family="Helvetica,sans-Serif" font-size="10.00">/limes&#45;dev/simulation</text>
<text text-anchor="start" x="103" y="-316" font-family="Helvetica,sans-Serif" font-size="10.00">/mars/gui/src/dialogs</text>
<text text-anchor="middle" x="177" y="-303" font-family="Helvetica,sans-Serif" font-size="10.00">/CaptureWindow/CaptureConfig.h</text>
</g>
<!-- Node2 -->
<g id="node3" class="node"><title>Node2</title>
<a xlink:href="../../da/d9f/_capture_config_8cpp.html" target="_top" xlink:title="&quot;CaptureConfig&quot; ">
<polygon fill="white" stroke="black" points="0,-197 0,-257 174,-257 174,-197 0,-197"/>
<text text-anchor="start" x="8" y="-244" font-family="Helvetica,sans-Serif" font-size="10.00">/home/kavonszadkowski</text>
<text text-anchor="start" x="8" y="-231" font-family="Helvetica,sans-Serif" font-size="10.00">/limes&#45;dev/simulation</text>
<text text-anchor="start" x="8" y="-218" font-family="Helvetica,sans-Serif" font-size="10.00">/mars/gui/src/dialogs</text>
<text text-anchor="middle" x="87" y="-205" font-family="Helvetica,sans-Serif" font-size="10.00">/CaptureWindow/CaptureConfig.cpp</text>
</a>
</g>
<!-- Node1&#45;&gt;Node2 -->
<g id="edge2" class="edge"><title>Node1&#45;&gt;Node2</title>
<path fill="none" stroke="midnightblue" d="M142.418,-287.344C133.278,-277.392 123.531,-266.778 114.801,-257.272"/>
<polygon fill="midnightblue" stroke="midnightblue" points="139.921,-289.799 149.263,-294.797 145.076,-285.064 139.921,-289.799"/>
</g>
<!-- Node3 -->
<g id="node5" class="node"><title>Node3</title>
<a xlink:href="../../d1/d69/_capture_g_u_i_8h.html" target="_top" xlink:title="&quot;CaptureGUI&quot; is a template for the widget interface of the MARS GUI ">
<polygon fill="white" stroke="black" points="191.5,-197 191.5,-257 344.5,-257 344.5,-197 191.5,-197"/>
<text text-anchor="start" x="199.5" y="-244" font-family="Helvetica,sans-Serif" font-size="10.00">/home/kavonszadkowski</text>
<text text-anchor="start" x="199.5" y="-231" font-family="Helvetica,sans-Serif" font-size="10.00">/limes&#45;dev/simulation</text>
<text text-anchor="start" x="199.5" y="-218" font-family="Helvetica,sans-Serif" font-size="10.00">/mars/gui/src/dialogs</text>
<text text-anchor="middle" x="268" y="-205" font-family="Helvetica,sans-Serif" font-size="10.00">/CaptureWindow/CaptureGUI.h</text>
</a>
</g>
<!-- Node1&#45;&gt;Node3 -->
<g id="edge4" class="edge"><title>Node1&#45;&gt;Node3</title>
<path fill="none" stroke="midnightblue" d="M211.966,-287.344C221.208,-277.392 231.063,-266.778 239.89,-257.272"/>
<polygon fill="midnightblue" stroke="midnightblue" points="209.285,-285.088 205.046,-294.797 214.415,-289.851 209.285,-285.088"/>
</g>
<!-- Node4 -->
<g id="node7" class="node"><title>Node4</title>
<a xlink:href="../../d9/d5d/_capture_g_u_i_8cpp.html" target="_top" xlink:title="/home/kavonszadkowski\l/limes&#45;dev/simulation\l/mars/gui/src/dialogs\l/CaptureWindow/CaptureGUI.cpp">
<polygon fill="white" stroke="black" points="93,-99 93,-159 257,-159 257,-99 93,-99"/>
<text text-anchor="start" x="101" y="-146" font-family="Helvetica,sans-Serif" font-size="10.00">/home/kavonszadkowski</text>
<text text-anchor="start" x="101" y="-133" font-family="Helvetica,sans-Serif" font-size="10.00">/limes&#45;dev/simulation</text>
<text text-anchor="start" x="101" y="-120" font-family="Helvetica,sans-Serif" font-size="10.00">/mars/gui/src/dialogs</text>
<text text-anchor="middle" x="175" y="-107" font-family="Helvetica,sans-Serif" font-size="10.00">/CaptureWindow/CaptureGUI.cpp</text>
</a>
</g>
<!-- Node3&#45;&gt;Node4 -->
<g id="edge6" class="edge"><title>Node3&#45;&gt;Node4</title>
<path fill="none" stroke="midnightblue" d="M232.266,-189.344C222.821,-179.392 212.749,-168.778 203.727,-159.272"/>
<polygon fill="midnightblue" stroke="midnightblue" points="229.916,-191.953 239.338,-196.797 234.993,-187.134 229.916,-191.953"/>
</g>
<!-- Node5 -->
<g id="node9" class="node"><title>Node5</title>
<a xlink:href="../../d9/d50/_capture_window_8h.html" target="_top" xlink:title="&quot;CaptureWindow&quot; provides some options to setup the camera of a 3d window ">
<polygon fill="white" stroke="black" points="275,-99 275,-159 445,-159 445,-99 275,-99"/>
<text text-anchor="start" x="283" y="-146" font-family="Helvetica,sans-Serif" font-size="10.00">/home/kavonszadkowski</text>
<text text-anchor="start" x="283" y="-133" font-family="Helvetica,sans-Serif" font-size="10.00">/limes&#45;dev/simulation</text>
<text text-anchor="start" x="283" y="-120" font-family="Helvetica,sans-Serif" font-size="10.00">/mars/gui/src/dialogs</text>
<text text-anchor="middle" x="360" y="-107" font-family="Helvetica,sans-Serif" font-size="10.00">/CaptureWindow/CaptureWindow.h</text>
</a>
</g>
<!-- Node3&#45;&gt;Node5 -->
<g id="edge8" class="edge"><title>Node3&#45;&gt;Node5</title>
<path fill="none" stroke="midnightblue" d="M303.35,-189.344C312.694,-179.392 322.657,-168.778 331.582,-159.272"/>
<polygon fill="midnightblue" stroke="midnightblue" points="300.646,-187.111 296.354,-196.797 305.75,-191.902 300.646,-187.111"/>
</g>
<!-- Node6 -->
<g id="node11" class="node"><title>Node6</title>
<a xlink:href="../../d9/d23/_capture_window_8cpp.html" target="_top" xlink:title="&quot;CaptureWindow&quot; provides some options to setup the camera of a 3d window ">
<polygon fill="white" stroke="black" points="168.5,-1 168.5,-61 349.5,-61 349.5,-1 168.5,-1"/>
<text text-anchor="start" x="176.5" y="-48" font-family="Helvetica,sans-Serif" font-size="10.00">/home/kavonszadkowski</text>
<text text-anchor="start" x="176.5" y="-35" font-family="Helvetica,sans-Serif" font-size="10.00">/limes&#45;dev/simulation</text>
<text text-anchor="start" x="176.5" y="-22" font-family="Helvetica,sans-Serif" font-size="10.00">/mars/gui/src/dialogs</text>
<text text-anchor="middle" x="259" y="-9" font-family="Helvetica,sans-Serif" font-size="10.00">/CaptureWindow/CaptureWindow.cpp</text>
</a>
</g>
<!-- Node5&#45;&gt;Node6 -->
<g id="edge10" class="edge"><title>Node5&#45;&gt;Node6</title>
<path fill="none" stroke="midnightblue" d="M321.493,-91.6368C311.149,-81.5998 300.092,-70.8714 290.199,-61.2718"/>
<polygon fill="midnightblue" stroke="midnightblue" points="319.258,-94.3453 328.873,-98.7971 324.133,-89.3215 319.258,-94.3453"/>
</g>
<!-- Node7 -->
<g id="node13" class="node"><title>Node7</title>
<a xlink:href="../../d0/de2/_menu_window_8cpp.html" target="_top" xlink:title="MenuWindow creates the menus and menu items in the Window menu of the simulation and manages the wind...">
<polygon fill="white" stroke="black" points="366.5,-7.5 366.5,-54.5 553.5,-54.5 553.5,-7.5 366.5,-7.5"/>
<text text-anchor="start" x="374.5" y="-41.5" font-family="Helvetica,sans-Serif" font-size="10.00">/home/kavonszadkowski</text>
<text text-anchor="start" x="374.5" y="-28.5" font-family="Helvetica,sans-Serif" font-size="10.00">/limes&#45;dev/simulation</text>
<text text-anchor="middle" x="460" y="-15.5" font-family="Helvetica,sans-Serif" font-size="10.00">/mars/gui/src/menus/MenuWindow.cpp</text>
</a>
</g>
<!-- Node5&#45;&gt;Node7 -->
<g id="edge12" class="edge"><title>Node5&#45;&gt;Node7</title>
<path fill="none" stroke="midnightblue" d="M398.114,-91.6479C410.761,-79.2544 424.484,-65.8056 435.787,-54.7289"/>
<polygon fill="midnightblue" stroke="midnightblue" points="395.512,-89.298 390.819,-98.7971 400.411,-94.2976 395.512,-89.298"/>
</g>
</g>
</svg>
