<?xml version="1.0" encoding="UTF-8" standalone="no"?>
<!DOCTYPE svg PUBLIC "-//W3C//DTD SVG 1.1//EN"
 "http://www.w3.org/Graphics/SVG/1.1/DTD/svg11.dtd">
<!-- Generated by graphviz version 2.26.3 (20100126.1600)
 -->
<!-- Title: /home/kavonszadkowski/limes&#45;dev/simulation/mars/graphics/src/QtOsgMixGraphicsWidget.h Pages: 1 -->
<svg width="612pt" height="168pt"
 viewBox="0.00 0.00 612.00 168.00" xmlns="http://www.w3.org/2000/svg" xmlns:xlink="http://www.w3.org/1999/xlink">
<g id="graph1" class="graph" transform="scale(1 1) rotate(0) translate(4 164)">
<title>/home/kavonszadkowski/limes&#45;dev/simulation/mars/graphics/src/QtOsgMixGraphicsWidget.h</title>
<polygon fill="white" stroke="white" points="-4,5 -4,-164 609,-164 609,5 -4,5"/>
<!-- Node1 -->
<g id="node1" class="node"><title>Node1</title>
<polygon fill="#bfbfbf" stroke="black" points="216,-99 216,-159 400,-159 400,-99 216,-99"/>
<text text-anchor="start" x="224" y="-146" font-family="Helvetica,sans-Serif" font-size="10.00">/home/kavonszadkowski</text>
<text text-anchor="start" x="224" y="-133" font-family="Helvetica,sans-Serif" font-size="10.00">/limes&#45;dev/simulation</text>
<text text-anchor="start" x="224" y="-120" font-family="Helvetica,sans-Serif" font-size="10.00">/mars/graphics/src/QtOsgMixGraphics</text>
<text text-anchor="middle" x="308" y="-107" font-family="Helvetica,sans-Serif" font-size="10.00">Widget.h</text>
</g>
<!-- Node2 -->
<g id="node3" class="node"><title>Node2</title>
<a xlink:href="../../d7/d19/_graphics_manager_8cpp.html" target="_top" xlink:title="/home/kavonszadkowski\l/limes&#45;dev/simulation\l/mars/graphics/src/GraphicsManager.cpp">
<polygon fill="white" stroke="black" points="0,-7.5 0,-54.5 196,-54.5 196,-7.5 0,-7.5"/>
<text text-anchor="start" x="8" y="-41.5" font-family="Helvetica,sans-Serif" font-size="10.00">/home/kavonszadkowski</text>
<text text-anchor="start" x="8" y="-28.5" font-family="Helvetica,sans-Serif" font-size="10.00">/limes&#45;dev/simulation</text>
<text text-anchor="middle" x="98" y="-15.5" font-family="Helvetica,sans-Serif" font-size="10.00">/mars/graphics/src/GraphicsManager.cpp</text>
</a>
</g>
<!-- Node1&#45;&gt;Node2 -->
<g id="edge2" class="edge"><title>Node1&#45;&gt;Node2</title>
<path fill="none" stroke="midnightblue" d="M234.487,-94.6939C206.121,-81.4564 174.377,-66.6424 148.645,-54.6345"/>
<polygon fill="midnightblue" stroke="midnightblue" points="233.024,-97.8735 243.566,-98.9308 235.984,-91.5302 233.024,-97.8735"/>
</g>
<!-- Node3 -->
<g id="node5" class="node"><title>Node3</title>
<a xlink:href="../../d0/d77/_graphics_widget_8cpp.html" target="_top" xlink:title="/home/kavonszadkowski\l/limes&#45;dev/simulation\l/mars/graphics/src/GraphicsWidget.cpp">
<polygon fill="white" stroke="black" points="213.5,-7.5 213.5,-54.5 402.5,-54.5 402.5,-7.5 213.5,-7.5"/>
<text text-anchor="start" x="221.5" y="-41.5" font-family="Helvetica,sans-Serif" font-size="10.00">/home/kavonszadkowski</text>
<text text-anchor="start" x="221.5" y="-28.5" font-family="Helvetica,sans-Serif" font-size="10.00">/limes&#45;dev/simulation</text>
<text text-anchor="middle" x="308" y="-15.5" font-family="Helvetica,sans-Serif" font-size="10.00">/mars/graphics/src/GraphicsWidget.cpp</text>
</a>
</g>
<!-- Node1&#45;&gt;Node3 -->
<g id="edge4" class="edge"><title>Node1&#45;&gt;Node3</title>
<path fill="none" stroke="midnightblue" d="M308,-88.5002C308,-77.0087 308,-64.8739 308,-54.7289"/>
<polygon fill="midnightblue" stroke="midnightblue" points="304.5,-88.7971 308,-98.7971 311.5,-88.7972 304.5,-88.7971"/>
</g>
<!-- Node4 -->
<g id="node7" class="node"><title>Node4</title>
<a xlink:href="../../d0/dcf/_qt_osg_mix_graphics_widget_8cpp.html" target="_top" xlink:title="/home/kavonszadkowski\l/limes&#45;dev/simulation\l/mars/graphics/src/QtOsgMixGraphics\lWidget.cpp">
<polygon fill="white" stroke="black" points="420,-1 420,-61 604,-61 604,-1 420,-1"/>
<text text-anchor="start" x="428" y="-48" font-family="Helvetica,sans-Serif" font-size="10.00">/home/kavonszadkowski</text>
<text text-anchor="start" x="428" y="-35" font-family="Helvetica,sans-Serif" font-size="10.00">/limes&#45;dev/simulation</text>
<text text-anchor="start" x="428" y="-22" font-family="Helvetica,sans-Serif" font-size="10.00">/mars/graphics/src/QtOsgMixGraphics</text>
<text text-anchor="middle" x="512" y="-9" font-family="Helvetica,sans-Serif" font-size="10.00">Widget.cpp</text>
</a>
</g>
<!-- Node1&#45;&gt;Node4 -->
<g id="edge6" class="edge"><title>Node1&#45;&gt;Node4</title>
<path fill="none" stroke="midnightblue" d="M379.85,-94.4838C402.581,-83.5641 427.507,-71.59 449.525,-61.0124"/>
<polygon fill="midnightblue" stroke="midnightblue" points="378.091,-91.4457 370.593,-98.9308 381.123,-97.7554 378.091,-91.4457"/>
</g>
</g>
</svg>
