<?xml version="1.0" encoding="UTF-8" standalone="no"?>
<!DOCTYPE svg PUBLIC "-//W3C//DTD SVG 1.1//EN"
 "http://www.w3.org/Graphics/SVG/1.1/DTD/svg11.dtd">
<!-- Generated by graphviz version 2.36.0 (20140111.2315)
 -->
<!-- Title: /media/kavonszadkowski/work/marsdocs/mars/graphics/src/QtOsgMixGraphicsWidget.h Pages: 1 -->
<svg width="514pt" height="128pt"
 viewBox="0.00 0.00 514.00 128.00" xmlns="http://www.w3.org/2000/svg" xmlns:xlink="http://www.w3.org/1999/xlink">
<g id="graph0" class="graph" transform="scale(1 1) rotate(0) translate(4 124)">
<title>/media/kavonszadkowski/work/marsdocs/mars/graphics/src/QtOsgMixGraphicsWidget.h</title>
<polygon fill="white" stroke="none" points="-4,4 -4,-124 510,-124 510,4 -4,4"/>
<!-- Node1 -->
<g id="node1" class="node"><title>Node1</title>
<polygon fill="#bfbfbf" stroke="black" points="165,-78.5 165,-119.5 323,-119.5 323,-78.5 165,-78.5"/>
<text text-anchor="start" x="173" y="-107.5" font-family="Helvetica,sans-Serif" font-size="10.00">/media/kavonszadkowski</text>
<text text-anchor="start" x="173" y="-96.5" font-family="Helvetica,sans-Serif" font-size="10.00">/work/marsdocs/mars/graphics</text>
<text text-anchor="middle" x="244" y="-85.5" font-family="Helvetica,sans-Serif" font-size="10.00">/src/QtOsgMixGraphicsWidget.h</text>
</g>
<!-- Node2 -->
<g id="node2" class="node"><title>Node2</title>
<g id="a_node2"><a xlink:href="../../d7/d19/_graphics_manager_8cpp.html" target="_top" xlink:title="/media/kavonszadkowski\l/work/marsdocs/mars/graphics\l/src/GraphicsManager.cpp">
<polygon fill="white" stroke="black" points="-0.5,-0.5 -0.5,-41.5 150.5,-41.5 150.5,-0.5 -0.5,-0.5"/>
<text text-anchor="start" x="7.5" y="-29.5" font-family="Helvetica,sans-Serif" font-size="10.00">/media/kavonszadkowski</text>
<text text-anchor="start" x="7.5" y="-18.5" font-family="Helvetica,sans-Serif" font-size="10.00">/work/marsdocs/mars/graphics</text>
<text text-anchor="middle" x="75" y="-7.5" font-family="Helvetica,sans-Serif" font-size="10.00">/src/GraphicsManager.cpp</text>
</a>
</g>
</g>
<!-- Node1&#45;&gt;Node2 -->
<g id="edge1" class="edge"><title>Node1&#45;&gt;Node2</title>
<path fill="none" stroke="midnightblue" d="M191.052,-74.189C167.672,-63.6749 140.529,-51.4687 118.374,-41.5056"/>
<polygon fill="midnightblue" stroke="midnightblue" points="189.923,-77.5187 200.478,-78.4281 192.794,-71.1346 189.923,-77.5187"/>
</g>
<!-- Node3 -->
<g id="node3" class="node"><title>Node3</title>
<g id="a_node3"><a xlink:href="../../d0/d77/_graphics_widget_8cpp.html" target="_top" xlink:title="/media/kavonszadkowski\l/work/marsdocs/mars/graphics\l/src/GraphicsWidget.cpp">
<polygon fill="white" stroke="black" points="168.5,-0.5 168.5,-41.5 319.5,-41.5 319.5,-0.5 168.5,-0.5"/>
<text text-anchor="start" x="176.5" y="-29.5" font-family="Helvetica,sans-Serif" font-size="10.00">/media/kavonszadkowski</text>
<text text-anchor="start" x="176.5" y="-18.5" font-family="Helvetica,sans-Serif" font-size="10.00">/work/marsdocs/mars/graphics</text>
<text text-anchor="middle" x="244" y="-7.5" font-family="Helvetica,sans-Serif" font-size="10.00">/src/GraphicsWidget.cpp</text>
</a>
</g>
</g>
<!-- Node1&#45;&gt;Node3 -->
<g id="edge2" class="edge"><title>Node1&#45;&gt;Node3</title>
<path fill="none" stroke="midnightblue" d="M244,-68.2965C244,-59.3009 244,-49.6532 244,-41.5056"/>
<polygon fill="midnightblue" stroke="midnightblue" points="240.5,-68.4281 244,-78.4281 247.5,-68.4281 240.5,-68.4281"/>
</g>
<!-- Node4 -->
<g id="node4" class="node"><title>Node4</title>
<g id="a_node4"><a xlink:href="../../d0/dcf/_qt_osg_mix_graphics_widget_8cpp.html" target="_top" xlink:title="/media/kavonszadkowski\l/work/marsdocs/mars/graphics\l/src/QtOsgMixGraphicsWidget.cpp">
<polygon fill="white" stroke="black" points="337.5,-0.5 337.5,-41.5 506.5,-41.5 506.5,-0.5 337.5,-0.5"/>
<text text-anchor="start" x="345.5" y="-29.5" font-family="Helvetica,sans-Serif" font-size="10.00">/media/kavonszadkowski</text>
<text text-anchor="start" x="345.5" y="-18.5" font-family="Helvetica,sans-Serif" font-size="10.00">/work/marsdocs/mars/graphics</text>
<text text-anchor="middle" x="422" y="-7.5" font-family="Helvetica,sans-Serif" font-size="10.00">/src/QtOsgMixGraphicsWidget.cpp</text>
</a>
</g>
</g>
<!-- Node1&#45;&gt;Node4 -->
<g id="edge3" class="edge"><title>Node1&#45;&gt;Node4</title>
<path fill="none" stroke="midnightblue" d="M299.112,-74.4689C323.884,-63.8921 352.774,-51.5572 376.316,-41.5056"/>
<polygon fill="midnightblue" stroke="midnightblue" points="297.662,-71.2825 289.839,-78.4281 300.411,-77.7202 297.662,-71.2825"/>
</g>
</g>
</svg>
