<?xml version="1.0" encoding="UTF-8" standalone="no"?>
<!DOCTYPE svg PUBLIC "-//W3C//DTD SVG 1.1//EN"
 "http://www.w3.org/Graphics/SVG/1.1/DTD/svg11.dtd">
<!-- Generated by graphviz version 2.26.3 (20100126.1600)
 -->
<!-- Title: /home/kavonszadkowski/limes&#45;dev/simulation/mars/plugins/mars_plugin_collection/SonarPlugin/src/UdpThread.h Pages: 1 -->
<svg width="294pt" height="302pt"
 viewBox="0.00 0.00 294.00 302.00" xmlns="http://www.w3.org/2000/svg" xmlns:xlink="http://www.w3.org/1999/xlink">
<g id="graph1" class="graph" transform="scale(1 1) rotate(0) translate(4 298)">
<title>/home/kavonszadkowski/limes&#45;dev/simulation/mars/plugins/mars_plugin_collection/SonarPlugin/src/UdpThread.h</title>
<polygon fill="white" stroke="white" points="-4,5 -4,-298 291,-298 291,5 -4,5"/>
<!-- Node1 -->
<g id="node1" class="node"><title>Node1</title>
<polygon fill="#bfbfbf" stroke="black" points="75.5,-220.5 75.5,-293.5 210.5,-293.5 210.5,-220.5 75.5,-220.5"/>
<text text-anchor="start" x="83.5" y="-280.5" font-family="Helvetica,sans-Serif" font-size="10.00">/home/kavonszadkowski</text>
<text text-anchor="start" x="83.5" y="-267.5" font-family="Helvetica,sans-Serif" font-size="10.00">/limes&#45;dev/simulation</text>
<text text-anchor="start" x="83.5" y="-254.5" font-family="Helvetica,sans-Serif" font-size="10.00">/mars/plugins/mars_plugin</text>
<text text-anchor="start" x="83.5" y="-241.5" font-family="Helvetica,sans-Serif" font-size="10.00">_collection/SonarPlugin/src</text>
<text text-anchor="middle" x="143" y="-228.5" font-family="Helvetica,sans-Serif" font-size="10.00">/UdpThread.h</text>
</g>
<!-- Node2 -->
<g id="node3" class="node"><title>Node2</title>
<a xlink:href="../../dc/d67/_sonar_plugin_8h.html" target="_top" xlink:title="da ">
<polygon fill="white" stroke="black" points="-0.5,-110.5 -0.5,-183.5 134.5,-183.5 134.5,-110.5 -0.5,-110.5"/>
<text text-anchor="start" x="7.5" y="-170.5" font-family="Helvetica,sans-Serif" font-size="10.00">/home/kavonszadkowski</text>
<text text-anchor="start" x="7.5" y="-157.5" font-family="Helvetica,sans-Serif" font-size="10.00">/limes&#45;dev/simulation</text>
<text text-anchor="start" x="7.5" y="-144.5" font-family="Helvetica,sans-Serif" font-size="10.00">/mars/plugins/mars_plugin</text>
<text text-anchor="start" x="7.5" y="-131.5" font-family="Helvetica,sans-Serif" font-size="10.00">_collection/SonarPlugin/src</text>
<text text-anchor="middle" x="67" y="-118.5" font-family="Helvetica,sans-Serif" font-size="10.00">/SonarPlugin.h</text>
</a>
</g>
<!-- Node1&#45;&gt;Node2 -->
<g id="edge2" class="edge"><title>Node1&#45;&gt;Node2</title>
<path fill="none" stroke="midnightblue" d="M111.864,-211.934C105.408,-202.59 98.6789,-192.851 92.4555,-183.844"/>
<polygon fill="midnightblue" stroke="midnightblue" points="109.129,-214.134 117.693,-220.372 114.888,-210.155 109.129,-214.134"/>
</g>
<!-- Node4 -->
<g id="node7" class="node"><title>Node4</title>
<a xlink:href="../../d0/d99/_udp_thread_8cpp.html" target="_top" xlink:title="da ">
<polygon fill="white" stroke="black" points="151.5,-110.5 151.5,-183.5 286.5,-183.5 286.5,-110.5 151.5,-110.5"/>
<text text-anchor="start" x="159.5" y="-170.5" font-family="Helvetica,sans-Serif" font-size="10.00">/home/kavonszadkowski</text>
<text text-anchor="start" x="159.5" y="-157.5" font-family="Helvetica,sans-Serif" font-size="10.00">/limes&#45;dev/simulation</text>
<text text-anchor="start" x="159.5" y="-144.5" font-family="Helvetica,sans-Serif" font-size="10.00">/mars/plugins/mars_plugin</text>
<text text-anchor="start" x="159.5" y="-131.5" font-family="Helvetica,sans-Serif" font-size="10.00">_collection/SonarPlugin/src</text>
<text text-anchor="middle" x="219" y="-118.5" font-family="Helvetica,sans-Serif" font-size="10.00">/UdpThread.cpp</text>
</a>
</g>
<!-- Node1&#45;&gt;Node4 -->
<g id="edge6" class="edge"><title>Node1&#45;&gt;Node4</title>
<path fill="none" stroke="midnightblue" d="M174.136,-211.934C180.592,-202.59 187.321,-192.851 193.544,-183.844"/>
<polygon fill="midnightblue" stroke="midnightblue" points="171.112,-210.155 168.307,-220.372 176.871,-214.134 171.112,-210.155"/>
</g>
<!-- Node3 -->
<g id="node5" class="node"><title>Node3</title>
<a xlink:href="../../d3/de3/_sonar_plugin_8cpp.html" target="_top" xlink:title="da ">
<polygon fill="white" stroke="black" points="-0.5,-0.5 -0.5,-73.5 134.5,-73.5 134.5,-0.5 -0.5,-0.5"/>
<text text-anchor="start" x="7.5" y="-60.5" font-family="Helvetica,sans-Serif" font-size="10.00">/home/kavonszadkowski</text>
<text text-anchor="start" x="7.5" y="-47.5" font-family="Helvetica,sans-Serif" font-size="10.00">/limes&#45;dev/simulation</text>
<text text-anchor="start" x="7.5" y="-34.5" font-family="Helvetica,sans-Serif" font-size="10.00">/mars/plugins/mars_plugin</text>
<text text-anchor="start" x="7.5" y="-21.5" font-family="Helvetica,sans-Serif" font-size="10.00">_collection/SonarPlugin/src</text>
<text text-anchor="middle" x="67" y="-8.5" font-family="Helvetica,sans-Serif" font-size="10.00">/SonarPlugin.cpp</text>
</a>
</g>
<!-- Node2&#45;&gt;Node3 -->
<g id="edge4" class="edge"><title>Node2&#45;&gt;Node3</title>
<path fill="none" stroke="midnightblue" d="M67,-100.214C67,-91.4006 67,-82.2996 67,-73.8435"/>
<polygon fill="midnightblue" stroke="midnightblue" points="63.5001,-100.372 67,-110.372 70.5001,-100.372 63.5001,-100.372"/>
</g>
</g>
</svg>
