<?xml version="1.0" encoding="UTF-8" standalone="no"?>
<!DOCTYPE svg PUBLIC "-//W3C//DTD SVG 1.1//EN"
 "http://www.w3.org/Graphics/SVG/1.1/DTD/svg11.dtd">
<!-- Generated by graphviz version 2.36.0 (20140111.2315)
 -->
<!-- Title: /media/kavonszadkowski/work/marsdocs/mars/interfaces/src/sim/LoadCenter.cpp Pages: 1 -->
<svg width="211pt" height="162pt"
 viewBox="0.00 0.00 211.00 162.00" xmlns="http://www.w3.org/2000/svg" xmlns:xlink="http://www.w3.org/1999/xlink">
<g id="graph0" class="graph" transform="scale(1 1) rotate(0) translate(4 158)">
<title>/media/kavonszadkowski/work/marsdocs/mars/interfaces/src/sim/LoadCenter.cpp</title>
<polygon fill="white" stroke="none" points="-4,4 -4,-158 207,-158 207,4 -4,4"/>
<!-- Node1 -->
<g id="node1" class="node"><title>Node1</title>
<polygon fill="#bfbfbf" stroke="black" points="40.5,-112.5 40.5,-153.5 197.5,-153.5 197.5,-112.5 40.5,-112.5"/>
<text text-anchor="start" x="48.5" y="-141.5" font-family="Helvetica,sans-Serif" font-size="10.00">/media/kavonszadkowski</text>
<text text-anchor="start" x="48.5" y="-130.5" font-family="Helvetica,sans-Serif" font-size="10.00">/work/marsdocs/mars/interfaces</text>
<text text-anchor="middle" x="119" y="-119.5" font-family="Helvetica,sans-Serif" font-size="10.00">/src/sim/LoadCenter.cpp</text>
</g>
<!-- Node2 -->
<g id="node2" class="node"><title>Node2</title>
<g id="a_node2"><a xlink:href="../../d5/d36/_load_center_8h.html" target="_top" xlink:title="LoadCenter.h">
<polygon fill="white" stroke="black" points="35.5,-56.5 35.5,-75.5 110.5,-75.5 110.5,-56.5 35.5,-56.5"/>
<text text-anchor="middle" x="73" y="-63.5" font-family="Helvetica,sans-Serif" font-size="10.00">LoadCenter.h</text>
</a>
</g>
</g>
<!-- Node1&#45;&gt;Node2 -->
<g id="edge1" class="edge"><title>Node1&#45;&gt;Node2</title>
<path fill="none" stroke="midnightblue" d="M105.198,-112.498C98.7561,-103.395 91.161,-92.6623 84.9657,-83.9081"/>
<polygon fill="midnightblue" stroke="midnightblue" points="87.757,-81.7934 79.1233,-75.6525 82.0431,-85.8371 87.757,-81.7934"/>
</g>
<!-- Node6 -->
<g id="node6" class="node"><title>Node6</title>
<g id="a_node6"><a xlink:href="../../dd/d9e/_m_a_r_s_defs_8h.html" target="_top" xlink:title="MARSDefs.h">
<polygon fill="white" stroke="black" points="128.5,-56.5 128.5,-75.5 203.5,-75.5 203.5,-56.5 128.5,-56.5"/>
<text text-anchor="middle" x="166" y="-63.5" font-family="Helvetica,sans-Serif" font-size="10.00">MARSDefs.h</text>
</a>
</g>
</g>
<!-- Node1&#45;&gt;Node6 -->
<g id="edge5" class="edge"><title>Node1&#45;&gt;Node6</title>
<path fill="none" stroke="midnightblue" d="M133.102,-112.498C139.684,-103.395 147.444,-92.6623 153.774,-83.9081"/>
<polygon fill="midnightblue" stroke="midnightblue" points="156.72,-85.8068 159.744,-75.6525 151.048,-81.7052 156.72,-85.8068"/>
</g>
<!-- Node3 -->
<g id="node3" class="node"><title>Node3</title>
<polygon fill="white" stroke="#bfbfbf" points="-0.5,-0.5 -0.5,-19.5 34.5,-19.5 34.5,-0.5 -0.5,-0.5"/>
<text text-anchor="middle" x="17" y="-7.5" font-family="Helvetica,sans-Serif" font-size="10.00">map</text>
</g>
<!-- Node2&#45;&gt;Node3 -->
<g id="edge2" class="edge"><title>Node2&#45;&gt;Node3</title>
<path fill="none" stroke="midnightblue" d="M64.0026,-56.324C55.8056,-48.4196 43.4945,-36.5482 33.528,-26.9377"/>
<polygon fill="midnightblue" stroke="midnightblue" points="35.789,-24.2558 26.1611,-19.8339 30.9301,-29.2947 35.789,-24.2558"/>
</g>
<!-- Node4 -->
<g id="node4" class="node"><title>Node4</title>
<polygon fill="white" stroke="#bfbfbf" points="52.5,-0.5 52.5,-19.5 93.5,-19.5 93.5,-0.5 52.5,-0.5"/>
<text text-anchor="middle" x="73" y="-7.5" font-family="Helvetica,sans-Serif" font-size="10.00">string</text>
</g>
<!-- Node2&#45;&gt;Node4 -->
<g id="edge3" class="edge"><title>Node2&#45;&gt;Node4</title>
<path fill="none" stroke="midnightblue" d="M73,-56.083C73,-49.0059 73,-38.8611 73,-29.9865"/>
<polygon fill="midnightblue" stroke="midnightblue" points="76.5001,-29.751 73,-19.7511 69.5001,-29.7511 76.5001,-29.751"/>
</g>
<!-- Node5 -->
<g id="node5" class="node"><title>Node5</title>
<polygon fill="white" stroke="#bfbfbf" points="112,-0.5 112,-19.5 156,-19.5 156,-0.5 112,-0.5"/>
<text text-anchor="middle" x="134" y="-7.5" font-family="Helvetica,sans-Serif" font-size="10.00">vector</text>
</g>
<!-- Node2&#45;&gt;Node5 -->
<g id="edge4" class="edge"><title>Node2&#45;&gt;Node5</title>
<path fill="none" stroke="midnightblue" d="M82.8007,-56.324C91.8181,-48.3414 105.406,-36.3128 116.318,-26.6529"/>
<polygon fill="midnightblue" stroke="midnightblue" points="118.853,-29.083 124.021,-19.8339 114.213,-23.8416 118.853,-29.083"/>
</g>
</g>
</svg>
