<?xml version="1.0" encoding="UTF-8" standalone="no"?>
<!DOCTYPE svg PUBLIC "-//W3C//DTD SVG 1.1//EN"
 "http://www.w3.org/Graphics/SVG/1.1/DTD/svg11.dtd">
<!-- Generated by graphviz version 2.26.3 (20100126.1600)
 -->
<!-- Title: /home/kavonszadkowski/limes&#45;dev/simulation/mars/gui/src/LightHandler.h Pages: 1 -->
<svg width="432pt" height="336pt"
 viewBox="0.00 0.00 432.00 336.00" xmlns="http://www.w3.org/2000/svg" xmlns:xlink="http://www.w3.org/1999/xlink">
<g id="graph1" class="graph" transform="scale(1 1) rotate(0) translate(4 332)">
<title>/home/kavonszadkowski/limes&#45;dev/simulation/mars/gui/src/LightHandler.h</title>
<polygon fill="white" stroke="white" points="-4,5 -4,-332 429,-332 429,5 -4,5"/>
<!-- Node1 -->
<g id="node1" class="node"><title>Node1</title>
<polygon fill="#bfbfbf" stroke="black" points="155,-280.5 155,-327.5 295,-327.5 295,-280.5 155,-280.5"/>
<text text-anchor="start" x="163" y="-314.5" font-family="Helvetica,sans-Serif" font-size="10.00">/home/kavonszadkowski</text>
<text text-anchor="start" x="163" y="-301.5" font-family="Helvetica,sans-Serif" font-size="10.00">/limes&#45;dev/simulation</text>
<text text-anchor="middle" x="225" y="-288.5" font-family="Helvetica,sans-Serif" font-size="10.00">/mars/gui/src/LightHandler.h</text>
</g>
<!-- Node2 -->
<g id="node3" class="node"><title>Node2</title>
<a xlink:href="../../d4/d78/_dialog_lights_8h.html" target="_top" xlink:title="/home/kavonszadkowski\l/limes&#45;dev/simulation\l/mars/gui/src/dialogs\l/DialogLights.h">
<polygon fill="white" stroke="black" points="85.5,-183 85.5,-243 210.5,-243 210.5,-183 85.5,-183"/>
<text text-anchor="start" x="93.5" y="-230" font-family="Helvetica,sans-Serif" font-size="10.00">/home/kavonszadkowski</text>
<text text-anchor="start" x="93.5" y="-217" font-family="Helvetica,sans-Serif" font-size="10.00">/limes&#45;dev/simulation</text>
<text text-anchor="start" x="93.5" y="-204" font-family="Helvetica,sans-Serif" font-size="10.00">/mars/gui/src/dialogs</text>
<text text-anchor="middle" x="148" y="-191" font-family="Helvetica,sans-Serif" font-size="10.00">/DialogLights.h</text>
</a>
</g>
<!-- Node1&#45;&gt;Node2 -->
<g id="edge2" class="edge"><title>Node1&#45;&gt;Node2</title>
<path fill="none" stroke="midnightblue" d="M198.267,-272.406C190.275,-262.961 181.535,-252.632 173.616,-243.274"/>
<polygon fill="midnightblue" stroke="midnightblue" points="195.638,-274.718 204.769,-280.091 200.982,-270.196 195.638,-274.718"/>
</g>
<!-- Node7 -->
<g id="node13" class="node"><title>Node7</title>
<a xlink:href="../../da/dc6/_light_handler_8cpp.html" target="_top" xlink:title="/home/kavonszadkowski\l/limes&#45;dev/simulation\l/mars/gui/src/LightHandler.cpp">
<polygon fill="white" stroke="black" points="228,-189.5 228,-236.5 378,-236.5 378,-189.5 228,-189.5"/>
<text text-anchor="start" x="236" y="-223.5" font-family="Helvetica,sans-Serif" font-size="10.00">/home/kavonszadkowski</text>
<text text-anchor="start" x="236" y="-210.5" font-family="Helvetica,sans-Serif" font-size="10.00">/limes&#45;dev/simulation</text>
<text text-anchor="middle" x="303" y="-197.5" font-family="Helvetica,sans-Serif" font-size="10.00">/mars/gui/src/LightHandler.cpp</text>
</a>
</g>
<!-- Node1&#45;&gt;Node7 -->
<g id="edge12" class="edge"><title>Node1&#45;&gt;Node7</title>
<path fill="none" stroke="midnightblue" d="M252.199,-272.268C262.201,-260.599 273.346,-247.596 282.643,-236.749"/>
<polygon fill="midnightblue" stroke="midnightblue" points="249.344,-270.22 245.494,-280.091 254.659,-274.776 249.344,-270.22"/>
</g>
<!-- Node3 -->
<g id="node5" class="node"><title>Node3</title>
<a xlink:href="../../d8/da4/_dialog_lights_8cpp.html" target="_top" xlink:title="/home/kavonszadkowski\l/limes&#45;dev/simulation\l/mars/gui/src/dialogs\l/DialogLights.cpp">
<polygon fill="white" stroke="black" points="-0.5,-85 -0.5,-145 124.5,-145 124.5,-85 -0.5,-85"/>
<text text-anchor="start" x="7.5" y="-132" font-family="Helvetica,sans-Serif" font-size="10.00">/home/kavonszadkowski</text>
<text text-anchor="start" x="7.5" y="-119" font-family="Helvetica,sans-Serif" font-size="10.00">/limes&#45;dev/simulation</text>
<text text-anchor="start" x="7.5" y="-106" font-family="Helvetica,sans-Serif" font-size="10.00">/mars/gui/src/dialogs</text>
<text text-anchor="middle" x="62" y="-93" font-family="Helvetica,sans-Serif" font-size="10.00">/DialogLights.cpp</text>
</a>
</g>
<!-- Node2&#45;&gt;Node3 -->
<g id="edge4" class="edge"><title>Node2&#45;&gt;Node3</title>
<path fill="none" stroke="midnightblue" d="M114.698,-175.051C106.039,-165.184 96.8256,-154.685 88.5651,-145.272"/>
<polygon fill="midnightblue" stroke="midnightblue" points="112.269,-177.589 121.495,-182.797 117.53,-172.972 112.269,-177.589"/>
</g>
<!-- Node4 -->
<g id="node7" class="node"><title>Node4</title>
<a xlink:href="../../d3/d92/_menu_simulation_8h.html" target="_top" xlink:title="Provides the Simulation and Control menu entries. ">
<polygon fill="white" stroke="black" points="141.5,-91.5 141.5,-138.5 328.5,-138.5 328.5,-91.5 141.5,-91.5"/>
<text text-anchor="start" x="149.5" y="-125.5" font-family="Helvetica,sans-Serif" font-size="10.00">/home/kavonszadkowski</text>
<text text-anchor="start" x="149.5" y="-112.5" font-family="Helvetica,sans-Serif" font-size="10.00">/limes&#45;dev/simulation</text>
<text text-anchor="middle" x="235" y="-99.5" font-family="Helvetica,sans-Serif" font-size="10.00">/mars/gui/src/menus/MenuSimulation.h</text>
</a>
</g>
<!-- Node2&#45;&gt;Node4 -->
<g id="edge6" class="edge"><title>Node2&#45;&gt;Node4</title>
<path fill="none" stroke="midnightblue" d="M181.468,-175.3C192.385,-163.003 204.193,-149.702 213.935,-138.729"/>
<polygon fill="midnightblue" stroke="midnightblue" points="178.834,-172.995 174.813,-182.797 184.069,-177.642 178.834,-172.995"/>
</g>
<!-- Node5 -->
<g id="node9" class="node"><title>Node5</title>
<a xlink:href="../../da/d1e/_mars_gui_8cpp.html" target="_top" xlink:title="/home/kavonszadkowski\l/limes&#45;dev/simulation\l/mars/gui/src/MarsGui.cpp">
<polygon fill="white" stroke="black" points="78,-0.5 78,-47.5 210,-47.5 210,-0.5 78,-0.5"/>
<text text-anchor="start" x="86" y="-34.5" font-family="Helvetica,sans-Serif" font-size="10.00">/home/kavonszadkowski</text>
<text text-anchor="start" x="86" y="-21.5" font-family="Helvetica,sans-Serif" font-size="10.00">/limes&#45;dev/simulation</text>
<text text-anchor="middle" x="144" y="-8.5" font-family="Helvetica,sans-Serif" font-size="10.00">/mars/gui/src/MarsGui.cpp</text>
</a>
</g>
<!-- Node4&#45;&gt;Node5 -->
<g id="edge8" class="edge"><title>Node4&#45;&gt;Node5</title>
<path fill="none" stroke="midnightblue" d="M203.94,-83.9399C192.1,-72.1 178.805,-58.8047 167.749,-47.7495"/>
<polygon fill="midnightblue" stroke="midnightblue" points="201.545,-86.4946 211.091,-91.0908 206.495,-81.5448 201.545,-86.4946"/>
</g>
<!-- Node6 -->
<g id="node11" class="node"><title>Node6</title>
<a xlink:href="../../d9/d82/_menu_simulation_8cpp.html" target="_top" xlink:title="/home/kavonszadkowski\l/limes&#45;dev/simulation\l/mars/gui/src/menus/MenuSimulation.cpp">
<polygon fill="white" stroke="black" points="227.5,-0.5 227.5,-47.5 424.5,-47.5 424.5,-0.5 227.5,-0.5"/>
<text text-anchor="start" x="235.5" y="-34.5" font-family="Helvetica,sans-Serif" font-size="10.00">/home/kavonszadkowski</text>
<text text-anchor="start" x="235.5" y="-21.5" font-family="Helvetica,sans-Serif" font-size="10.00">/limes&#45;dev/simulation</text>
<text text-anchor="middle" x="326" y="-8.5" font-family="Helvetica,sans-Serif" font-size="10.00">/mars/gui/src/menus/MenuSimulation.cpp</text>
</a>
</g>
<!-- Node4&#45;&gt;Node6 -->
<g id="edge10" class="edge"><title>Node4&#45;&gt;Node6</title>
<path fill="none" stroke="midnightblue" d="M266.06,-83.9399C277.9,-72.1 291.195,-58.8047 302.251,-47.7495"/>
<polygon fill="midnightblue" stroke="midnightblue" points="263.505,-81.5448 258.909,-91.0908 268.455,-86.4946 263.505,-81.5448"/>
</g>
</g>
</svg>
