<?xml version="1.0" encoding="UTF-8" standalone="no"?>
<!DOCTYPE svg PUBLIC "-//W3C//DTD SVG 1.1//EN"
 "http://www.w3.org/Graphics/SVG/1.1/DTD/svg11.dtd">
<!-- Generated by graphviz version 2.26.3 (20100126.1600)
 -->
<!-- Title: /home/kavonszadkowski/limes&#45;dev/simulation/mars/common/data_broker/src/DataItem.h Pages: 1 -->
<svg width="144pt" height="128pt"
 viewBox="0.00 0.00 144.00 128.00" xmlns="http://www.w3.org/2000/svg" xmlns:xlink="http://www.w3.org/1999/xlink">
<g id="graph1" class="graph" transform="scale(1 1) rotate(0) translate(4 124)">
<title>/home/kavonszadkowski/limes&#45;dev/simulation/mars/common/data_broker/src/DataItem.h</title>
<polygon fill="white" stroke="white" points="-4,5 -4,-124 141,-124 141,5 -4,5"/>
<!-- Node1 -->
<g id="node1" class="node"><title>Node1</title>
<polygon fill="#bfbfbf" stroke="black" points="0,-59 0,-119 136,-119 136,-59 0,-59"/>
<text text-anchor="start" x="8" y="-106" font-family="Helvetica,sans-Serif" font-size="10.00">/home/kavonszadkowski</text>
<text text-anchor="start" x="8" y="-93" font-family="Helvetica,sans-Serif" font-size="10.00">/limes&#45;dev/simulation</text>
<text text-anchor="start" x="8" y="-80" font-family="Helvetica,sans-Serif" font-size="10.00">/mars/common/data_broker</text>
<text text-anchor="middle" x="68" y="-67" font-family="Helvetica,sans-Serif" font-size="10.00">/src/DataItem.h</text>
</g>
<!-- Node2 -->
<g id="node3" class="node"><title>Node2</title>
<polygon fill="white" stroke="#bfbfbf" points="16,-0.5 16,-21.5 60,-21.5 60,-0.5 16,-0.5"/>
<text text-anchor="middle" x="38" y="-8.5" font-family="Helvetica,sans-Serif" font-size="10.00">vector</text>
</g>
<!-- Node1&#45;&gt;Node2 -->
<g id="edge2" class="edge"><title>Node1&#45;&gt;Node2</title>
<path fill="none" stroke="midnightblue" d="M56.3153,-58.6198C52.7987,-49.4765 49.0261,-39.6679 45.8242,-31.343"/>
<polygon fill="midnightblue" stroke="midnightblue" points="48.9925,-29.8305 42.1359,-21.7535 42.4591,-32.3434 48.9925,-29.8305"/>
</g>
<!-- Node3 -->
<g id="node5" class="node"><title>Node3</title>
<polygon fill="white" stroke="#bfbfbf" points="77.5,-0.5 77.5,-21.5 118.5,-21.5 118.5,-0.5 77.5,-0.5"/>
<text text-anchor="middle" x="98" y="-8.5" font-family="Helvetica,sans-Serif" font-size="10.00">string</text>
</g>
<!-- Node1&#45;&gt;Node3 -->
<g id="edge4" class="edge"><title>Node1&#45;&gt;Node3</title>
<path fill="none" stroke="midnightblue" d="M79.6847,-58.6198C83.2013,-49.4765 86.9739,-39.6679 90.1758,-31.343"/>
<polygon fill="midnightblue" stroke="midnightblue" points="93.5409,-32.3434 93.8641,-21.7535 87.0075,-29.8305 93.5409,-32.3434"/>
</g>
</g>
</svg>
