<?xml version="1.0" encoding="UTF-8" standalone="no"?>
<!DOCTYPE svg PUBLIC "-//W3C//DTD SVG 1.1//EN"
 "http://www.w3.org/Graphics/SVG/1.1/DTD/svg11.dtd">
<!-- Generated by graphviz version 2.26.3 (20100126.1600)
 -->
<!-- Title: /home/kavonszadkowski/limes&#45;dev/simulation/mars/plugins/mars_plugin_collection/mars_video_player/src/MySock.h Pages: 1 -->
<svg width="322pt" height="302pt"
 viewBox="0.00 0.00 322.00 302.00" xmlns="http://www.w3.org/2000/svg" xmlns:xlink="http://www.w3.org/1999/xlink">
<g id="graph1" class="graph" transform="scale(1 1) rotate(0) translate(4 298)">
<title>/home/kavonszadkowski/limes&#45;dev/simulation/mars/plugins/mars_plugin_collection/mars_video_player/src/MySock.h</title>
<polygon fill="white" stroke="white" points="-4,5 -4,-298 319,-298 319,5 -4,5"/>
<!-- Node1 -->
<g id="node1" class="node"><title>Node1</title>
<polygon fill="#bfbfbf" stroke="black" points="83,-220.5 83,-293.5 231,-293.5 231,-220.5 83,-220.5"/>
<text text-anchor="start" x="91" y="-280.5" font-family="Helvetica,sans-Serif" font-size="10.00">/home/kavonszadkowski</text>
<text text-anchor="start" x="91" y="-267.5" font-family="Helvetica,sans-Serif" font-size="10.00">/limes&#45;dev/simulation</text>
<text text-anchor="start" x="91" y="-254.5" font-family="Helvetica,sans-Serif" font-size="10.00">/mars/plugins/mars_plugin</text>
<text text-anchor="start" x="91" y="-241.5" font-family="Helvetica,sans-Serif" font-size="10.00">_collection/mars_video_player</text>
<text text-anchor="middle" x="157" y="-228.5" font-family="Helvetica,sans-Serif" font-size="10.00">/src/MySock.h</text>
</g>
<!-- Node2 -->
<g id="node3" class="node"><title>Node2</title>
<a xlink:href="../../d0/dbe/mars__video__player_2src_2_mars_video_player_8h.html" target="_top" xlink:title="/home/kavonszadkowski\l/limes&#45;dev/simulation\l/mars/plugins/mars_plugin\l_collection/mars_video_player\l/src/MarsVideoPlayer.h">
<polygon fill="white" stroke="black" points="0,-110.5 0,-183.5 148,-183.5 148,-110.5 0,-110.5"/>
<text text-anchor="start" x="8" y="-170.5" font-family="Helvetica,sans-Serif" font-size="10.00">/home/kavonszadkowski</text>
<text text-anchor="start" x="8" y="-157.5" font-family="Helvetica,sans-Serif" font-size="10.00">/limes&#45;dev/simulation</text>
<text text-anchor="start" x="8" y="-144.5" font-family="Helvetica,sans-Serif" font-size="10.00">/mars/plugins/mars_plugin</text>
<text text-anchor="start" x="8" y="-131.5" font-family="Helvetica,sans-Serif" font-size="10.00">_collection/mars_video_player</text>
<text text-anchor="middle" x="74" y="-118.5" font-family="Helvetica,sans-Serif" font-size="10.00">/src/MarsVideoPlayer.h</text>
</a>
</g>
<!-- Node1&#45;&gt;Node2 -->
<g id="edge2" class="edge"><title>Node1&#45;&gt;Node2</title>
<path fill="none" stroke="midnightblue" d="M123.212,-212.22C116.096,-202.789 108.666,-192.943 101.8,-183.844"/>
<polygon fill="midnightblue" stroke="midnightblue" points="120.545,-214.497 129.362,-220.372 126.133,-210.281 120.545,-214.497"/>
</g>
<!-- Node4 -->
<g id="node7" class="node"><title>Node4</title>
<a xlink:href="../../d6/ded/mars__video__player_2src_2_my_sock_8cpp.html" target="_top" xlink:title="/home/kavonszadkowski\l/limes&#45;dev/simulation\l/mars/plugins/mars_plugin\l_collection/mars_video_player\l/src/MySock.cpp">
<polygon fill="white" stroke="black" points="166,-110.5 166,-183.5 314,-183.5 314,-110.5 166,-110.5"/>
<text text-anchor="start" x="174" y="-170.5" font-family="Helvetica,sans-Serif" font-size="10.00">/home/kavonszadkowski</text>
<text text-anchor="start" x="174" y="-157.5" font-family="Helvetica,sans-Serif" font-size="10.00">/limes&#45;dev/simulation</text>
<text text-anchor="start" x="174" y="-144.5" font-family="Helvetica,sans-Serif" font-size="10.00">/mars/plugins/mars_plugin</text>
<text text-anchor="start" x="174" y="-131.5" font-family="Helvetica,sans-Serif" font-size="10.00">_collection/mars_video_player</text>
<text text-anchor="middle" x="240" y="-118.5" font-family="Helvetica,sans-Serif" font-size="10.00">/src/MySock.cpp</text>
</a>
</g>
<!-- Node1&#45;&gt;Node4 -->
<g id="edge6" class="edge"><title>Node1&#45;&gt;Node4</title>
<path fill="none" stroke="midnightblue" d="M190.788,-212.22C197.904,-202.789 205.334,-192.943 212.2,-183.844"/>
<polygon fill="midnightblue" stroke="midnightblue" points="187.867,-210.281 184.638,-220.372 193.455,-214.497 187.867,-210.281"/>
</g>
<!-- Node3 -->
<g id="node5" class="node"><title>Node3</title>
<a xlink:href="../../de/d91/mars__video__player_2src_2_mars_video_player_8cpp.html" target="_top" xlink:title="/home/kavonszadkowski\l/limes&#45;dev/simulation\l/mars/plugins/mars_plugin\l_collection/mars_video_player\l/src/MarsVideoPlayer.cpp">
<polygon fill="white" stroke="black" points="0,-0.5 0,-73.5 148,-73.5 148,-0.5 0,-0.5"/>
<text text-anchor="start" x="8" y="-60.5" font-family="Helvetica,sans-Serif" font-size="10.00">/home/kavonszadkowski</text>
<text text-anchor="start" x="8" y="-47.5" font-family="Helvetica,sans-Serif" font-size="10.00">/limes&#45;dev/simulation</text>
<text text-anchor="start" x="8" y="-34.5" font-family="Helvetica,sans-Serif" font-size="10.00">/mars/plugins/mars_plugin</text>
<text text-anchor="start" x="8" y="-21.5" font-family="Helvetica,sans-Serif" font-size="10.00">_collection/mars_video_player</text>
<text text-anchor="middle" x="74" y="-8.5" font-family="Helvetica,sans-Serif" font-size="10.00">/src/MarsVideoPlayer.cpp</text>
</a>
</g>
<!-- Node2&#45;&gt;Node3 -->
<g id="edge4" class="edge"><title>Node2&#45;&gt;Node3</title>
<path fill="none" stroke="midnightblue" d="M74,-100.214C74,-91.4006 74,-82.2996 74,-73.8435"/>
<polygon fill="midnightblue" stroke="midnightblue" points="70.5001,-100.372 74,-110.372 77.5001,-100.372 70.5001,-100.372"/>
</g>
</g>
</svg>
