<?xml version="1.0" encoding="UTF-8" standalone="no"?>
<!DOCTYPE svg PUBLIC "-//W3C//DTD SVG 1.1//EN"
 "http://www.w3.org/Graphics/SVG/1.1/DTD/svg11.dtd">
<!-- Generated by graphviz version 2.26.3 (20100126.1600)
 -->
<!-- Title: data_broker_plotter::PackageData Pages: 1 -->
<svg width="108pt" height="130pt"
 viewBox="0.00 0.00 108.00 130.00" xmlns="http://www.w3.org/2000/svg" xmlns:xlink="http://www.w3.org/1999/xlink">
<g id="graph1" class="graph" transform="scale(1 1) rotate(0) translate(4 126)">
<title>data_broker_plotter::PackageData</title>
<polygon fill="white" stroke="white" points="-4,5 -4,-126 105,-126 105,5 -4,5"/>
<!-- Node1 -->
<g id="node1" class="node"><title>Node1</title>
<polygon fill="#bfbfbf" stroke="black" points="0,-1 0,-35 100,-35 100,-1 0,-1"/>
<text text-anchor="start" x="8" y="-22" font-family="Helvetica,sans-Serif" font-size="10.00">data_broker_plotter</text>
<text text-anchor="middle" x="50" y="-9" font-family="Helvetica,sans-Serif" font-size="10.00">::PackageData</text>
</g>
<!-- Node2 -->
<g id="node2" class="node"><title>Node2</title>
<a xlink:href="../../da/d2f/classmars_1_1data__broker_1_1_data_package.html" target="_top" xlink:title="A collection of DataItems. ">
<polygon fill="white" stroke="black" points="-0.5,-87 -0.5,-121 100.5,-121 100.5,-87 -0.5,-87"/>
<text text-anchor="start" x="7.5" y="-108" font-family="Helvetica,sans-Serif" font-size="10.00">mars::data_broker::</text>
<text text-anchor="middle" x="50" y="-95" font-family="Helvetica,sans-Serif" font-size="10.00">DataPackage</text>
</a>
</g>
<!-- Node2&#45;&gt;Node1 -->
<g id="edge2" class="edge"><title>Node2&#45;&gt;Node1</title>
<path fill="none" stroke="#9a32cd" stroke-dasharray="5,2" d="M50,-76.342C50,-62.7741 50,-46.8607 50,-35.084"/>
<polygon fill="#9a32cd" stroke="#9a32cd" points="46.5001,-76.5966 50,-86.5966 53.5001,-76.5967 46.5001,-76.5966"/>
<text text-anchor="middle" x="57" y="-58.5" font-family="Helvetica,sans-Serif" font-size="10.00"> dp</text>
</g>
</g>
</svg>
