<?xml version="1.0" encoding="UTF-8" standalone="no"?>
<!DOCTYPE svg PUBLIC "-//W3C//DTD SVG 1.1//EN"
 "http://www.w3.org/Graphics/SVG/1.1/DTD/svg11.dtd">
<!-- Generated by graphviz version 2.36.0 (20140111.2315)
 -->
<!-- Title: mars::smurf::SMURF Pages: 1 -->
<svg width="454pt" height="104pt"
 viewBox="0.00 0.00 454.00 104.00" xmlns="http://www.w3.org/2000/svg" xmlns:xlink="http://www.w3.org/1999/xlink">
<g id="graph0" class="graph" transform="scale(1 1) rotate(0) translate(4 100)">
<title>mars::smurf::SMURF</title>
<polygon fill="white" stroke="none" points="-4,4 -4,-100 450,-100 450,4 -4,4"/>
<!-- Node1 -->
<g id="node1" class="node"><title>Node1</title>
<polygon fill="#bfbfbf" stroke="black" points="334.5,-29.5 334.5,-48.5 445.5,-48.5 445.5,-29.5 334.5,-29.5"/>
<text text-anchor="middle" x="390" y="-36.5" font-family="Helvetica,sans-Serif" font-size="10.00">mars::smurf::SMURF</text>
</g>
<!-- Node2 -->
<g id="node2" class="node"><title>Node2</title>
<g id="a_node2"><a xlink:href="../../d6/df6/classmars_1_1interfaces_1_1_mars_plugin_template.html" target="_top" xlink:title="mars::interfaces::MarsPlugin\lTemplate">
<polygon fill="white" stroke="black" points="156,-49 156,-79 298,-79 298,-49 156,-49"/>
<text text-anchor="start" x="164" y="-67" font-family="Helvetica,sans-Serif" font-size="10.00">mars::interfaces::MarsPlugin</text>
<text text-anchor="middle" x="227" y="-56" font-family="Helvetica,sans-Serif" font-size="10.00">Template</text>
</a>
</g>
</g>
<!-- Node2&#45;&gt;Node1 -->
<g id="edge1" class="edge"><title>Node2&#45;&gt;Node1</title>
<path fill="none" stroke="midnightblue" d="M308.067,-51.5672C316.875,-50.1996 325.689,-48.8309 334.089,-47.5266"/>
<polygon fill="midnightblue" stroke="midnightblue" points="307.493,-48.1143 298.149,-53.1074 308.567,-55.0314 307.493,-48.1143"/>
</g>
<!-- Node3 -->
<g id="node3" class="node"><title>Node3</title>
<polygon fill="white" stroke="#bfbfbf" points="26,-76.5 26,-95.5 94,-95.5 94,-76.5 26,-76.5"/>
<text text-anchor="middle" x="60" y="-83.5" font-family="Helvetica,sans-Serif" font-size="10.00">LibInterface</text>
</g>
<!-- Node3&#45;&gt;Node2 -->
<g id="edge2" class="edge"><title>Node3&#45;&gt;Node2</title>
<path fill="none" stroke="midnightblue" d="M104.359,-80.2188C120.124,-78.1168 138.372,-75.6838 155.861,-73.3519"/>
<polygon fill="midnightblue" stroke="midnightblue" points="103.84,-76.757 94.3902,-81.548 104.765,-83.6955 103.84,-76.757"/>
</g>
<!-- Node4 -->
<g id="node4" class="node"><title>Node4</title>
<g id="a_node4"><a xlink:href="../../d1/d70/classmars_1_1interfaces_1_1_plugin_interface.html" target="_top" xlink:title="The interface to load plugin dynamically into the simulation. ">
<polygon fill="white" stroke="black" points="0,-27 0,-57 120,-57 120,-27 0,-27"/>
<text text-anchor="start" x="8" y="-45" font-family="Helvetica,sans-Serif" font-size="10.00">mars::interfaces::Plugin</text>
<text text-anchor="middle" x="60" y="-34" font-family="Helvetica,sans-Serif" font-size="10.00">Interface</text>
</a>
</g>
</g>
<!-- Node4&#45;&gt;Node2 -->
<g id="edge3" class="edge"><title>Node4&#45;&gt;Node2</title>
<path fill="none" stroke="midnightblue" d="M130.269,-51.2359C138.701,-52.3602 147.322,-53.5097 155.768,-54.6358"/>
<polygon fill="midnightblue" stroke="midnightblue" points="130.478,-47.7328 120.103,-49.8804 129.552,-54.6714 130.478,-47.7328"/>
</g>
<!-- Node5 -->
<g id="node5" class="node"><title>Node5</title>
<g id="a_node5"><a xlink:href="../../d5/dac/classmars_1_1entity__generation_1_1_entity_factory_interface.html" target="_top" xlink:title="The interface for plugins creating dynamic simulation objects. ">
<polygon fill="white" stroke="black" points="167.5,-0 167.5,-30 286.5,-30 286.5,-0 167.5,-0"/>
<text text-anchor="start" x="175.5" y="-18" font-family="Helvetica,sans-Serif" font-size="10.00">mars::entity_generation</text>
<text text-anchor="middle" x="227" y="-7" font-family="Helvetica,sans-Serif" font-size="10.00">::EntityFactoryInterface</text>
</a>
</g>
</g>
<!-- Node5&#45;&gt;Node1 -->
<g id="edge4" class="edge"><title>Node5&#45;&gt;Node1</title>
<path fill="none" stroke="midnightblue" d="M296.615,-25.2283C309.265,-27.1141 322.316,-29.0596 334.48,-30.8729"/>
<polygon fill="midnightblue" stroke="midnightblue" points="296.987,-21.7452 286.58,-23.7324 295.955,-28.6687 296.987,-21.7452"/>
</g>
</g>
</svg>
