<?xml version="1.0" encoding="UTF-8" standalone="no"?>
<!DOCTYPE svg PUBLIC "-//W3C//DTD SVG 1.1//EN"
 "http://www.w3.org/Graphics/SVG/1.1/DTD/svg11.dtd">
<!-- Generated by graphviz version 2.26.3 (20100126.1600)
 -->
<!-- Title: /home/kavonszadkowski/limes&#45;dev/simulation/mars/common/utils/src/misc.cpp Pages: 1 -->
<svg width="1023pt" height="186pt"
 viewBox="0.00 0.00 1023.00 186.00" xmlns="http://www.w3.org/2000/svg" xmlns:xlink="http://www.w3.org/1999/xlink">
<g id="graph1" class="graph" transform="scale(1 1) rotate(0) translate(4 182)">
<title>/home/kavonszadkowski/limes&#45;dev/simulation/mars/common/utils/src/misc.cpp</title>
<polygon fill="white" stroke="white" points="-4,5 -4,-182 1020,-182 1020,5 -4,5"/>
<!-- Node1 -->
<g id="node1" class="node"><title>Node1</title>
<polygon fill="#bfbfbf" stroke="black" points="434.5,-117 434.5,-177 559.5,-177 559.5,-117 434.5,-117"/>
<text text-anchor="start" x="442.5" y="-164" font-family="Helvetica,sans-Serif" font-size="10.00">/home/kavonszadkowski</text>
<text text-anchor="start" x="442.5" y="-151" font-family="Helvetica,sans-Serif" font-size="10.00">/limes&#45;dev/simulation</text>
<text text-anchor="start" x="442.5" y="-138" font-family="Helvetica,sans-Serif" font-size="10.00">/mars/common/utils/src</text>
<text text-anchor="middle" x="497" y="-125" font-family="Helvetica,sans-Serif" font-size="10.00">/misc.cpp</text>
</g>
<!-- Node2 -->
<g id="node3" class="node"><title>Node2</title>
<a xlink:href="../../d4/d08/misc_8h.html" target="_top" xlink:title="misc.h">
<polygon fill="white" stroke="black" points="139,-58.5 139,-79.5 185,-79.5 185,-58.5 139,-58.5"/>
<text text-anchor="middle" x="162" y="-66.5" font-family="Helvetica,sans-Serif" font-size="10.00">misc.h</text>
</a>
</g>
<!-- Node1&#45;&gt;Node2 -->
<g id="edge2" class="edge"><title>Node1&#45;&gt;Node2</title>
<path fill="none" stroke="midnightblue" d="M434.353,-132.451C376.009,-118.896 286.613,-98.1103 209,-80 204.565,-78.9651 199.895,-77.8739 195.29,-76.797"/>
<polygon fill="midnightblue" stroke="midnightblue" points="195.962,-73.3597 185.427,-74.4894 194.367,-80.1757 195.962,-73.3597"/>
</g>
<!-- Node4 -->
<g id="node7" class="node"><title>Node4</title>
<polygon fill="white" stroke="#bfbfbf" points="-0.5,-0.5 -0.5,-21.5 50.5,-21.5 50.5,-0.5 -0.5,-0.5"/>
<text text-anchor="middle" x="25" y="-8.5" font-family="Helvetica,sans-Serif" font-size="10.00">unistd.h</text>
</g>
<!-- Node1&#45;&gt;Node4 -->
<g id="edge36" class="edge"><title>Node1&#45;&gt;Node4</title>
<path fill="none" stroke="midnightblue" d="M434.189,-143.175C359.381,-136.91 231.761,-120.76 130,-80 97.9307,-67.1548 65.3542,-43.7946 45.1719,-27.8459"/>
<polygon fill="midnightblue" stroke="midnightblue" points="47.3012,-25.0668 37.3188,-21.5168 42.9086,-30.5171 47.3012,-25.0668"/>
</g>
<!-- Node6 -->
<g id="node11" class="node"><title>Node6</title>
<polygon fill="white" stroke="#bfbfbf" points="206,-0.5 206,-21.5 250,-21.5 250,-0.5 206,-0.5"/>
<text text-anchor="middle" x="228" y="-8.5" font-family="Helvetica,sans-Serif" font-size="10.00">vector</text>
</g>
<!-- Node1&#45;&gt;Node6 -->
<g id="edge24" class="edge"><title>Node1&#45;&gt;Node6</title>
<path fill="none" stroke="midnightblue" d="M434.378,-140.891C385.394,-133.389 317.802,-116.757 270,-80 253.585,-67.3778 242.133,-46.3613 235.38,-30.8331"/>
<polygon fill="midnightblue" stroke="midnightblue" points="238.622,-29.5128 231.616,-21.5647 232.136,-32.1468 238.622,-29.5128"/>
</g>
<!-- Node7 -->
<g id="node13" class="node"><title>Node7</title>
<polygon fill="white" stroke="#bfbfbf" points="268,-0.5 268,-21.5 320,-21.5 320,-0.5 268,-0.5"/>
<text text-anchor="middle" x="294" y="-8.5" font-family="Helvetica,sans-Serif" font-size="10.00">sstream</text>
</g>
<!-- Node1&#45;&gt;Node7 -->
<g id="edge26" class="edge"><title>Node1&#45;&gt;Node7</title>
<path fill="none" stroke="midnightblue" d="M434.348,-136.135C377.067,-124.774 298.522,-105.104 280,-80 269.523,-65.7996 275.316,-45.6703 282.36,-30.8161"/>
<polygon fill="midnightblue" stroke="midnightblue" points="285.474,-32.4145 287.011,-21.9318 279.272,-29.1678 285.474,-32.4145"/>
</g>
<!-- Node8 -->
<g id="node15" class="node"><title>Node8</title>
<polygon fill="white" stroke="#bfbfbf" points="288.5,-58.5 288.5,-79.5 333.5,-79.5 333.5,-58.5 288.5,-58.5"/>
<text text-anchor="middle" x="311" y="-66.5" font-family="Helvetica,sans-Serif" font-size="10.00">cstdlib</text>
</g>
<!-- Node1&#45;&gt;Node8 -->
<g id="edge14" class="edge"><title>Node1&#45;&gt;Node8</title>
<path fill="none" stroke="midnightblue" d="M434.288,-120.701C403.75,-107.895 368.32,-93.0373 343.299,-82.5447"/>
<polygon fill="midnightblue" stroke="midnightblue" points="344.496,-79.2516 333.921,-78.612 341.789,-85.707 344.496,-79.2516"/>
</g>
<!-- Node9 -->
<g id="node17" class="node"><title>Node9</title>
<polygon fill="white" stroke="#bfbfbf" points="351,-58.5 351,-79.5 397,-79.5 397,-58.5 351,-58.5"/>
<text text-anchor="middle" x="374" y="-66.5" font-family="Helvetica,sans-Serif" font-size="10.00">cstring</text>
</g>
<!-- Node1&#45;&gt;Node9 -->
<g id="edge16" class="edge"><title>Node1&#45;&gt;Node9</title>
<path fill="none" stroke="midnightblue" d="M449.445,-116.843C432.476,-106.082 414.012,-94.3732 399.597,-85.2321"/>
<polygon fill="midnightblue" stroke="midnightblue" points="401.085,-82.0314 390.765,-79.6317 397.336,-87.943 401.085,-82.0314"/>
</g>
<!-- Node10 -->
<g id="node19" class="node"><title>Node10</title>
<polygon fill="white" stroke="#bfbfbf" points="414.5,-58.5 414.5,-79.5 457.5,-79.5 457.5,-58.5 414.5,-58.5"/>
<text text-anchor="middle" x="436" y="-66.5" font-family="Helvetica,sans-Serif" font-size="10.00">cstdio</text>
</g>
<!-- Node1&#45;&gt;Node10 -->
<g id="edge18" class="edge"><title>Node1&#45;&gt;Node10</title>
<path fill="none" stroke="midnightblue" d="M473.241,-116.62C465.614,-106.867 457.395,-96.3571 450.623,-87.6984"/>
<polygon fill="midnightblue" stroke="midnightblue" points="453.327,-85.4745 444.41,-79.7535 447.813,-89.7868 453.327,-85.4745"/>
</g>
<!-- Node11 -->
<g id="node21" class="node"><title>Node11</title>
<polygon fill="white" stroke="#bfbfbf" points="475,-58.5 475,-79.5 519,-79.5 519,-58.5 475,-58.5"/>
<text text-anchor="middle" x="497" y="-66.5" font-family="Helvetica,sans-Serif" font-size="10.00">cmath</text>
</g>
<!-- Node1&#45;&gt;Node11 -->
<g id="edge20" class="edge"><title>Node1&#45;&gt;Node11</title>
<path fill="none" stroke="midnightblue" d="M497,-116.62C497,-107.68 497,-98.1035 497,-89.9002"/>
<polygon fill="midnightblue" stroke="midnightblue" points="500.5,-89.7534 497,-79.7535 493.5,-89.7535 500.5,-89.7534"/>
</g>
<!-- Node12 -->
<g id="node23" class="node"><title>Node12</title>
<polygon fill="white" stroke="#bfbfbf" points="537,-58.5 537,-79.5 583,-79.5 583,-58.5 537,-58.5"/>
<text text-anchor="middle" x="560" y="-66.5" font-family="Helvetica,sans-Serif" font-size="10.00">cctype</text>
</g>
<!-- Node1&#45;&gt;Node12 -->
<g id="edge22" class="edge"><title>Node1&#45;&gt;Node12</title>
<path fill="none" stroke="midnightblue" d="M521.538,-116.62C529.415,-106.867 537.904,-96.3571 544.897,-87.6984"/>
<polygon fill="midnightblue" stroke="midnightblue" points="547.754,-89.7321 551.315,-79.7535 542.308,-85.3337 547.754,-89.7321"/>
</g>
<!-- Node13 -->
<g id="node27" class="node"><title>Node13</title>
<polygon fill="white" stroke="#bfbfbf" points="601,-58.5 601,-79.5 655,-79.5 655,-58.5 601,-58.5"/>
<text text-anchor="middle" x="628" y="-66.5" font-family="Helvetica,sans-Serif" font-size="10.00">iostream</text>
</g>
<!-- Node1&#45;&gt;Node13 -->
<g id="edge28" class="edge"><title>Node1&#45;&gt;Node13</title>
<path fill="none" stroke="midnightblue" d="M547.648,-116.843C565.893,-105.98 585.761,-94.15 601.176,-84.9716"/>
<polygon fill="midnightblue" stroke="midnightblue" points="603.342,-87.7551 610.144,-79.6317 599.761,-81.7405 603.342,-87.7551"/>
</g>
<!-- Node14 -->
<g id="node29" class="node"><title>Node14</title>
<polygon fill="white" stroke="#bfbfbf" points="672.5,-58.5 672.5,-79.5 721.5,-79.5 721.5,-58.5 672.5,-58.5"/>
<text text-anchor="middle" x="697" y="-66.5" font-family="Helvetica,sans-Serif" font-size="10.00">cassert</text>
</g>
<!-- Node1&#45;&gt;Node14 -->
<g id="edge30" class="edge"><title>Node1&#45;&gt;Node14</title>
<path fill="none" stroke="midnightblue" d="M559.733,-122.534C593.857,-109.226 634.737,-93.2824 662.962,-82.2747"/>
<polygon fill="midnightblue" stroke="midnightblue" points="664.341,-85.4938 672.386,-78.5994 661.798,-78.9722 664.341,-85.4938"/>
</g>
<!-- Node15 -->
<g id="node31" class="node"><title>Node15</title>
<polygon fill="white" stroke="#bfbfbf" points="739,-58.5 739,-79.5 807,-79.5 807,-58.5 739,-58.5"/>
<text text-anchor="middle" x="773" y="-66.5" font-family="Helvetica,sans-Serif" font-size="10.00">sys/types.h</text>
</g>
<!-- Node1&#45;&gt;Node15 -->
<g id="edge32" class="edge"><title>Node1&#45;&gt;Node15</title>
<path fill="none" stroke="midnightblue" d="M559.629,-129.301C611.233,-114.717 683.121,-94.4006 728.86,-81.4742"/>
<polygon fill="midnightblue" stroke="midnightblue" points="730.098,-84.7615 738.77,-78.6738 728.195,-78.0254 730.098,-84.7615"/>
</g>
<!-- Node16 -->
<g id="node33" class="node"><title>Node16</title>
<polygon fill="white" stroke="#bfbfbf" points="825,-58.5 825,-79.5 885,-79.5 885,-58.5 825,-58.5"/>
<text text-anchor="middle" x="855" y="-66.5" font-family="Helvetica,sans-Serif" font-size="10.00">sys/stat.h</text>
</g>
<!-- Node1&#45;&gt;Node16 -->
<g id="edge34" class="edge"><title>Node1&#45;&gt;Node16</title>
<path fill="none" stroke="midnightblue" d="M559.632,-135.151C621.955,-123.065 720.502,-103.161 814.824,-80.1818"/>
<polygon fill="midnightblue" stroke="midnightblue" points="815.941,-83.5115 824.82,-77.7307 814.274,-76.7129 815.941,-83.5115"/>
</g>
<!-- Node17 -->
<g id="node36" class="node"><title>Node17</title>
<polygon fill="white" stroke="#bfbfbf" points="902.5,-58.5 902.5,-79.5 951.5,-79.5 951.5,-58.5 902.5,-58.5"/>
<text text-anchor="middle" x="927" y="-66.5" font-family="Helvetica,sans-Serif" font-size="10.00">dirent.h</text>
</g>
<!-- Node1&#45;&gt;Node17 -->
<g id="edge38" class="edge"><title>Node1&#45;&gt;Node17</title>
<path fill="none" stroke="midnightblue" d="M559.502,-139.492C636.16,-129.609 770.056,-110.16 892.346,-80.1649"/>
<polygon fill="midnightblue" stroke="midnightblue" points="893.393,-83.5114 902.255,-77.7048 891.706,-76.7177 893.393,-83.5114"/>
</g>
<!-- Node18 -->
<g id="node38" class="node"><title>Node18</title>
<polygon fill="white" stroke="#bfbfbf" points="969,-58.5 969,-79.5 1015,-79.5 1015,-58.5 969,-58.5"/>
<text text-anchor="middle" x="992" y="-66.5" font-family="Helvetica,sans-Serif" font-size="10.00">stdio.h</text>
</g>
<!-- Node1&#45;&gt;Node18 -->
<g id="edge40" class="edge"><title>Node1&#45;&gt;Node18</title>
<path fill="none" stroke="midnightblue" d="M559.865,-141.671C647.567,-133.408 811.516,-114.949 958.619,-79.9985"/>
<polygon fill="midnightblue" stroke="midnightblue" points="959.829,-83.3073 968.731,-77.5631 958.19,-76.5019 959.829,-83.3073"/>
</g>
<!-- Node3 -->
<g id="node5" class="node"><title>Node3</title>
<polygon fill="white" stroke="#bfbfbf" points="126,-0.5 126,-21.5 188,-21.5 188,-0.5 126,-0.5"/>
<text text-anchor="middle" x="157" y="-8.5" font-family="Helvetica,sans-Serif" font-size="10.00">sys/time.h</text>
</g>
<!-- Node2&#45;&gt;Node3 -->
<g id="edge4" class="edge"><title>Node2&#45;&gt;Node3</title>
<path fill="none" stroke="midnightblue" d="M161.083,-58.3619C160.442,-50.9219 159.564,-40.7427 158.787,-31.7276"/>
<polygon fill="midnightblue" stroke="midnightblue" points="162.257,-31.2331 157.911,-21.5707 155.283,-31.8343 162.257,-31.2331"/>
</g>
<!-- Node2&#45;&gt;Node4 -->
<g id="edge6" class="edge"><title>Node2&#45;&gt;Node4</title>
<path fill="none" stroke="midnightblue" d="M138.76,-59.1611C117.059,-49.9737 84.3878,-36.1423 59.6176,-25.6556"/>
<polygon fill="midnightblue" stroke="midnightblue" points="60.7885,-22.3506 50.2152,-21.675 58.0594,-28.7968 60.7885,-22.3506"/>
</g>
<!-- Node5 -->
<g id="node9" class="node"><title>Node5</title>
<polygon fill="white" stroke="#bfbfbf" points="67.5,-0.5 67.5,-21.5 108.5,-21.5 108.5,-0.5 67.5,-0.5"/>
<text text-anchor="middle" x="88" y="-8.5" font-family="Helvetica,sans-Serif" font-size="10.00">string</text>
</g>
<!-- Node2&#45;&gt;Node5 -->
<g id="edge8" class="edge"><title>Node2&#45;&gt;Node5</title>
<path fill="none" stroke="midnightblue" d="M148.427,-58.3619C137.579,-49.859 122.166,-37.7785 109.621,-27.9466"/>
<polygon fill="midnightblue" stroke="midnightblue" points="111.516,-24.9848 101.487,-21.5707 107.198,-30.4942 111.516,-24.9848"/>
</g>
<!-- Node2&#45;&gt;Node6 -->
<g id="edge10" class="edge"><title>Node2&#45;&gt;Node6</title>
<path fill="none" stroke="midnightblue" d="M174.105,-58.3619C183.688,-49.9408 197.264,-38.0105 208.393,-28.2308"/>
<polygon fill="midnightblue" stroke="midnightblue" points="210.77,-30.8009 215.971,-21.5707 206.149,-25.5427 210.77,-30.8009"/>
</g>
<!-- Node2&#45;&gt;Node7 -->
<g id="edge12" class="edge"><title>Node2&#45;&gt;Node7</title>
<path fill="none" stroke="midnightblue" d="M185.295,-58.7643C206.241,-49.5606 237.244,-35.9381 260.787,-25.5937"/>
<polygon fill="midnightblue" stroke="midnightblue" points="262.3,-28.752 270.047,-21.5249 259.484,-22.3434 262.3,-28.752"/>
</g>
</g>
</svg>
