<?xml version="1.0" encoding="UTF-8" standalone="no"?>
<!DOCTYPE svg PUBLIC "-//W3C//DTD SVG 1.1//EN"
 "http://www.w3.org/Graphics/SVG/1.1/DTD/svg11.dtd">
<!-- Generated by graphviz version 2.26.3 (20100126.1600)
 -->
<!-- Title: /home/kavonszadkowski/limes&#45;dev/simulation/mars/gui/src/dialogs/Dialog_Add_Force.cpp Pages: 1 -->
<svg width="679pt" height="214pt"
 viewBox="0.00 0.00 679.00 214.00" xmlns="http://www.w3.org/2000/svg" xmlns:xlink="http://www.w3.org/1999/xlink">
<g id="graph1" class="graph" transform="scale(1 1) rotate(0) translate(4 210)">
<title>/home/kavonszadkowski/limes&#45;dev/simulation/mars/gui/src/dialogs/Dialog_Add_Force.cpp</title>
<polygon fill="white" stroke="white" points="-4,5 -4,-210 676,-210 676,5 -4,5"/>
<!-- Node1 -->
<g id="node1" class="node"><title>Node1</title>
<polygon fill="#bfbfbf" stroke="black" points="392.5,-145 392.5,-205 517.5,-205 517.5,-145 392.5,-145"/>
<text text-anchor="start" x="400.5" y="-192" font-family="Helvetica,sans-Serif" font-size="10.00">/home/kavonszadkowski</text>
<text text-anchor="start" x="400.5" y="-179" font-family="Helvetica,sans-Serif" font-size="10.00">/limes&#45;dev/simulation</text>
<text text-anchor="start" x="400.5" y="-166" font-family="Helvetica,sans-Serif" font-size="10.00">/mars/gui/src/dialogs</text>
<text text-anchor="middle" x="455" y="-153" font-family="Helvetica,sans-Serif" font-size="10.00">/Dialog_Add_Force.cpp</text>
</g>
<!-- Node2 -->
<g id="node3" class="node"><title>Node2</title>
<a xlink:href="../../d1/db3/_dialog___add___force_8h.html" target="_top" xlink:title="Dialog_Add_Force.h">
<polygon fill="white" stroke="black" points="260.5,-79.5 260.5,-100.5 365.5,-100.5 365.5,-79.5 260.5,-79.5"/>
<text text-anchor="middle" x="313" y="-87.5" font-family="Helvetica,sans-Serif" font-size="10.00">Dialog_Add_Force.h</text>
</a>
</g>
<!-- Node1&#45;&gt;Node2 -->
<g id="edge2" class="edge"><title>Node1&#45;&gt;Node2</title>
<path fill="none" stroke="midnightblue" d="M404.536,-144.793C382.577,-131.648 357.751,-116.788 339.499,-105.862"/>
<polygon fill="midnightblue" stroke="midnightblue" points="341.234,-102.822 330.856,-100.689 337.639,-108.828 341.234,-102.822"/>
</g>
<!-- Node7 -->
<g id="node13" class="node"><title>Node7</title>
<polygon fill="white" stroke="#bfbfbf" points="382.5,-79.5 382.5,-100.5 527.5,-100.5 527.5,-79.5 382.5,-79.5"/>
<text text-anchor="middle" x="455" y="-87.5" font-family="Helvetica,sans-Serif" font-size="10.00">mars/main_gui/GuiInterface.h</text>
</g>
<!-- Node1&#45;&gt;Node7 -->
<g id="edge12" class="edge"><title>Node1&#45;&gt;Node7</title>
<path fill="none" stroke="midnightblue" d="M455,-144.793C455,-133.579 455,-121.116 455,-110.913"/>
<polygon fill="midnightblue" stroke="midnightblue" points="458.5,-110.895 455,-100.895 451.5,-110.895 458.5,-110.895"/>
</g>
<!-- Node8 -->
<g id="node15" class="node"><title>Node8</title>
<polygon fill="white" stroke="#bfbfbf" points="544.5,-73 544.5,-107 671.5,-107 671.5,-73 544.5,-73"/>
<text text-anchor="start" x="552.5" y="-94" font-family="Helvetica,sans-Serif" font-size="10.00">mars/interfaces/sim</text>
<text text-anchor="middle" x="608" y="-81" font-family="Helvetica,sans-Serif" font-size="10.00">/NodeManagerInterface.h</text>
</g>
<!-- Node1&#45;&gt;Node8 -->
<g id="edge14" class="edge"><title>Node1&#45;&gt;Node8</title>
<path fill="none" stroke="midnightblue" d="M509.373,-144.793C528.829,-133.984 550.374,-122.015 568.351,-112.027"/>
<polygon fill="midnightblue" stroke="midnightblue" points="570.355,-114.918 577.397,-107.002 566.956,-108.798 570.355,-114.918"/>
</g>
<!-- Node3 -->
<g id="node5" class="node"><title>Node3</title>
<polygon fill="white" stroke="#bfbfbf" points="-0.5,-7.5 -0.5,-28.5 144.5,-28.5 144.5,-7.5 -0.5,-7.5"/>
<text text-anchor="middle" x="72" y="-15.5" font-family="Helvetica,sans-Serif" font-size="10.00">mars/main_gui/BaseWidget.h</text>
</g>
<!-- Node2&#45;&gt;Node3 -->
<g id="edge4" class="edge"><title>Node2&#45;&gt;Node3</title>
<path fill="none" stroke="midnightblue" d="M277.698,-79.4535C235.189,-66.7534 163.716,-45.4005 117.209,-31.5064"/>
<polygon fill="midnightblue" stroke="midnightblue" points="117.979,-28.0838 107.396,-28.5747 115.976,-34.7909 117.979,-28.0838"/>
</g>
<!-- Node4 -->
<g id="node7" class="node"><title>Node4</title>
<polygon fill="white" stroke="#bfbfbf" points="162,-7.5 162,-28.5 318,-28.5 318,-7.5 162,-7.5"/>
<text text-anchor="middle" x="240" y="-15.5" font-family="Helvetica,sans-Serif" font-size="10.00">mars/main_gui/PropertyDialog.h</text>
</g>
<!-- Node2&#45;&gt;Node4 -->
<g id="edge6" class="edge"><title>Node2&#45;&gt;Node4</title>
<path fill="none" stroke="midnightblue" d="M302.229,-79.3762C290.583,-67.8904 271.829,-49.3927 257.949,-35.7031"/>
<polygon fill="midnightblue" stroke="midnightblue" points="260.393,-33.1977 250.816,-28.6674 255.478,-38.1815 260.393,-33.1977"/>
</g>
<!-- Node5 -->
<g id="node9" class="node"><title>Node5</title>
<polygon fill="white" stroke="#bfbfbf" points="335.5,-1 335.5,-35 438.5,-35 438.5,-1 335.5,-1"/>
<text text-anchor="start" x="343.5" y="-22" font-family="Helvetica,sans-Serif" font-size="10.00">mars/interfaces/sim</text>
<text text-anchor="middle" x="387" y="-9" font-family="Helvetica,sans-Serif" font-size="10.00">/ControlCenter.h</text>
</g>
<!-- Node2&#45;&gt;Node5 -->
<g id="edge8" class="edge"><title>Node2&#45;&gt;Node5</title>
<path fill="none" stroke="midnightblue" d="M323.919,-79.3762C333.934,-69.6317 349.136,-54.8403 362.108,-42.2197"/>
<polygon fill="midnightblue" stroke="midnightblue" points="364.704,-44.5765 369.431,-35.0944 359.823,-39.5594 364.704,-44.5765"/>
</g>
<!-- Node6 -->
<g id="node11" class="node"><title>Node6</title>
<polygon fill="white" stroke="#bfbfbf" points="455.5,-1 455.5,-35 564.5,-35 564.5,-1 455.5,-1"/>
<text text-anchor="start" x="463.5" y="-22" font-family="Helvetica,sans-Serif" font-size="10.00">mars/interfaces/core</text>
<text text-anchor="middle" x="510" y="-9" font-family="Helvetica,sans-Serif" font-size="10.00">_objects_exchange.h</text>
</g>
<!-- Node2&#45;&gt;Node6 -->
<g id="edge10" class="edge"><title>Node2&#45;&gt;Node6</title>
<path fill="none" stroke="midnightblue" d="M342.068,-79.3762C371.346,-68.6755 417.277,-51.8887 453.708,-38.5739"/>
<polygon fill="midnightblue" stroke="midnightblue" points="455.037,-41.8145 463.228,-35.0944 452.634,-35.2398 455.037,-41.8145"/>
</g>
</g>
</svg>
