<?xml version="1.0" encoding="UTF-8" standalone="no"?>
<!DOCTYPE svg PUBLIC "-//W3C//DTD SVG 1.1//EN"
 "http://www.w3.org/Graphics/SVG/1.1/DTD/svg11.dtd">
<!-- Generated by graphviz version 2.26.3 (20100126.1600)
 -->
<!-- Title: mars::graphics::QtOsgMixGraphicsWidget Pages: 1 -->
<svg width="470pt" height="134pt"
 viewBox="0.00 0.00 470.00 134.00" xmlns="http://www.w3.org/2000/svg" xmlns:xlink="http://www.w3.org/1999/xlink">
<g id="graph1" class="graph" transform="scale(1 1) rotate(0) translate(4 130)">
<title>mars::graphics::QtOsgMixGraphicsWidget</title>
<polygon fill="white" stroke="white" points="-4,5 -4,-130 467,-130 467,5 -4,5"/>
<!-- Node1 -->
<g id="node1" class="node"><title>Node1</title>
<polygon fill="#bfbfbf" stroke="black" points="330.5,-75 330.5,-109 461.5,-109 461.5,-75 330.5,-75"/>
<text text-anchor="start" x="338.5" y="-96" font-family="Helvetica,sans-Serif" font-size="10.00">mars::graphics::QtOsgMix</text>
<text text-anchor="middle" x="396" y="-83" font-family="Helvetica,sans-Serif" font-size="10.00">GraphicsWidget</text>
</g>
<!-- Node2 -->
<g id="node2" class="node"><title>Node2</title>
<polygon fill="white" stroke="#bfbfbf" points="191,-104.5 191,-125.5 271,-125.5 271,-104.5 191,-104.5"/>
<text text-anchor="middle" x="231" y="-112.5" font-family="Helvetica,sans-Serif" font-size="10.00">MarsQtWidget</text>
</g>
<!-- Node2&#45;&gt;Node1 -->
<g id="edge2" class="edge"><title>Node2&#45;&gt;Node1</title>
<path fill="none" stroke="midnightblue" d="M281.688,-107.934C297.049,-105.793 314.147,-103.41 330.341,-101.152"/>
<polygon fill="midnightblue" stroke="midnightblue" points="280.785,-104.526 271.364,-109.374 281.751,-111.459 280.785,-104.526"/>
</g>
<!-- Node3 -->
<g id="node4" class="node"><title>Node3</title>
<a xlink:href="../../d2/d46/classmars_1_1graphics_1_1_graphics_widget.html" target="_top" xlink:title="Widget with OpenGL context and event handling. ">
<polygon fill="white" stroke="black" points="168,-52 168,-86 294,-86 294,-52 168,-52"/>
<text text-anchor="start" x="176" y="-73" font-family="Helvetica,sans-Serif" font-size="10.00">mars::graphics::Graphics</text>
<text text-anchor="middle" x="231" y="-60" font-family="Helvetica,sans-Serif" font-size="10.00">Widget</text>
</a>
</g>
<!-- Node3&#45;&gt;Node1 -->
<g id="edge4" class="edge"><title>Node3&#45;&gt;Node1</title>
<path fill="none" stroke="midnightblue" d="M304.398,-79.2313C313.055,-80.438 321.848,-81.6636 330.388,-82.854"/>
<polygon fill="midnightblue" stroke="midnightblue" points="304.709,-75.7408 294.321,-77.8266 303.742,-82.6738 304.709,-75.7408"/>
</g>
<!-- Node4 -->
<g id="node6" class="node"><title>Node4</title>
<polygon fill="white" stroke="#bfbfbf" points="1,-104.5 1,-125.5 131,-125.5 131,-104.5 1,-104.5"/>
<text text-anchor="middle" x="66" y="-112.5" font-family="Helvetica,sans-Serif" font-size="10.00">osgGA::GUIEventHandler</text>
</g>
<!-- Node4&#45;&gt;Node3 -->
<g id="edge6" class="edge"><title>Node4&#45;&gt;Node3</title>
<path fill="none" stroke="midnightblue" d="M113.808,-101.672C131.263,-96.8054 151.252,-91.2328 169.719,-86.0845"/>
<polygon fill="midnightblue" stroke="midnightblue" points="112.547,-98.3897 103.854,-104.447 114.427,-105.133 112.547,-98.3897"/>
</g>
<!-- Node5 -->
<g id="node8" class="node"><title>Node5</title>
<a xlink:href="../../d9/d3b/classmars_1_1interfaces_1_1_graphics_window_interface.html" target="_top" xlink:title="mars::interfaces::Graphics\lWindowInterface">
<polygon fill="white" stroke="black" points="0,-52 0,-86 132,-86 132,-52 0,-52"/>
<text text-anchor="start" x="8" y="-73" font-family="Helvetica,sans-Serif" font-size="10.00">mars::interfaces::Graphics</text>
<text text-anchor="middle" x="66" y="-60" font-family="Helvetica,sans-Serif" font-size="10.00">WindowInterface</text>
</a>
</g>
<!-- Node5&#45;&gt;Node3 -->
<g id="edge8" class="edge"><title>Node5&#45;&gt;Node3</title>
<path fill="none" stroke="midnightblue" d="M142.437,-69C150.917,-69 159.482,-69 167.773,-69"/>
<polygon fill="midnightblue" stroke="midnightblue" points="142.161,-65.5001 132.161,-69 142.161,-72.5001 142.161,-65.5001"/>
</g>
<!-- Node6 -->
<g id="node10" class="node"><title>Node6</title>
<a xlink:href="../../d5/d0e/classmars_1_1interfaces_1_1_graphics_gui_interface.html" target="_top" xlink:title="Interface for the osgWidget functionality. ">
<polygon fill="white" stroke="black" points="0,-0 0,-34 132,-34 132,-0 0,-0"/>
<text text-anchor="start" x="8" y="-21" font-family="Helvetica,sans-Serif" font-size="10.00">mars::interfaces::Graphics</text>
<text text-anchor="middle" x="66" y="-8" font-family="Helvetica,sans-Serif" font-size="10.00">GuiInterface</text>
</a>
</g>
<!-- Node6&#45;&gt;Node3 -->
<g id="edge10" class="edge"><title>Node6&#45;&gt;Node3</title>
<path fill="none" stroke="midnightblue" d="M129.595,-37.042C145.193,-41.9578 161.744,-47.1739 176.851,-51.935"/>
<polygon fill="midnightblue" stroke="midnightblue" points="130.617,-33.6944 120.027,-34.0267 128.513,-40.3707 130.617,-33.6944"/>
</g>
</g>
</svg>
