<?xml version="1.0" encoding="UTF-8" standalone="no"?>
<!DOCTYPE svg PUBLIC "-//W3C//DTD SVG 1.1//EN"
 "http://www.w3.org/Graphics/SVG/1.1/DTD/svg11.dtd">
<!-- Generated by graphviz version 2.26.3 (20100126.1600)
 -->
<!-- Title: mars::plugins::Walkers::Walkers Pages: 1 -->
<svg width="460pt" height="163pt"
 viewBox="0.00 0.00 460.00 163.00" xmlns="http://www.w3.org/2000/svg" xmlns:xlink="http://www.w3.org/1999/xlink">
<g id="graph1" class="graph" transform="scale(1 1) rotate(0) translate(4 159)">
<title>mars::plugins::Walkers::Walkers</title>
<polygon fill="white" stroke="white" points="-4,5 -4,-159 457,-159 457,5 -4,5"/>
<!-- Node1 -->
<g id="node1" class="node"><title>Node1</title>
<polygon fill="#bfbfbf" stroke="black" points="334.5,-52 334.5,-86 451.5,-86 451.5,-52 334.5,-52"/>
<text text-anchor="start" x="342.5" y="-73" font-family="Helvetica,sans-Serif" font-size="10.00">mars::plugins::Walkers</text>
<text text-anchor="middle" x="393" y="-60" font-family="Helvetica,sans-Serif" font-size="10.00">::Walkers</text>
</g>
<!-- Node2 -->
<g id="node2" class="node"><title>Node2</title>
<a xlink:href="../../d6/df6/classmars_1_1interfaces_1_1_mars_plugin_template.html" target="_top" xlink:title="mars::interfaces::MarsPlugin\lTemplate">
<polygon fill="white" stroke="black" points="156,-104 156,-138 298,-138 298,-104 156,-104"/>
<text text-anchor="start" x="164" y="-125" font-family="Helvetica,sans-Serif" font-size="10.00">mars::interfaces::MarsPlugin</text>
<text text-anchor="middle" x="227" y="-112" font-family="Helvetica,sans-Serif" font-size="10.00">Template</text>
</a>
</g>
<!-- Node2&#45;&gt;Node1 -->
<g id="edge2" class="edge"><title>Node2&#45;&gt;Node1</title>
<path fill="none" stroke="midnightblue" d="M290.98,-100.958C306.673,-96.0422 323.324,-90.8261 338.523,-86.065"/>
<polygon fill="midnightblue" stroke="midnightblue" points="289.851,-97.6439 281.355,-103.973 291.944,-104.324 289.851,-97.6439"/>
</g>
<!-- Node3 -->
<g id="node4" class="node"><title>Node3</title>
<polygon fill="white" stroke="#bfbfbf" points="26,-133.5 26,-154.5 94,-154.5 94,-133.5 26,-133.5"/>
<text text-anchor="middle" x="60" y="-141.5" font-family="Helvetica,sans-Serif" font-size="10.00">LibInterface</text>
</g>
<!-- Node3&#45;&gt;Node2 -->
<g id="edge4" class="edge"><title>Node3&#45;&gt;Node2</title>
<path fill="none" stroke="midnightblue" d="M104.237,-137.907C120.101,-135.723 138.414,-133.2 155.974,-130.782"/>
<polygon fill="midnightblue" stroke="midnightblue" points="103.627,-134.458 94.1979,-139.29 104.582,-141.393 103.627,-134.458"/>
</g>
<!-- Node4 -->
<g id="node6" class="node"><title>Node4</title>
<a xlink:href="../../d1/d70/classmars_1_1interfaces_1_1_plugin_interface.html" target="_top" xlink:title="The interface to load plugin dynamically into the simulation. ">
<polygon fill="white" stroke="black" points="0,-81 0,-115 120,-115 120,-81 0,-81"/>
<text text-anchor="start" x="8" y="-102" font-family="Helvetica,sans-Serif" font-size="10.00">mars::interfaces::Plugin</text>
<text text-anchor="middle" x="60" y="-89" font-family="Helvetica,sans-Serif" font-size="10.00">Interface</text>
</a>
</g>
<!-- Node4&#45;&gt;Node2 -->
<g id="edge6" class="edge"><title>Node4&#45;&gt;Node2</title>
<path fill="none" stroke="midnightblue" d="M130.476,-107.706C138.919,-108.869 147.545,-110.057 155.995,-111.221"/>
<polygon fill="midnightblue" stroke="midnightblue" points="130.675,-104.201 120.291,-106.304 129.72,-111.135 130.675,-104.201"/>
</g>
<!-- Node5 -->
<g id="node8" class="node"><title>Node5</title>
<a xlink:href="../../d0/d0e/classmars_1_1data__broker_1_1_receiver_interface.html" target="_top" xlink:title="Interface for classes that want to receive data from the DataBroker. ">
<polygon fill="white" stroke="black" points="176.5,-52 176.5,-86 277.5,-86 277.5,-52 176.5,-52"/>
<text text-anchor="start" x="184.5" y="-73" font-family="Helvetica,sans-Serif" font-size="10.00">mars::data_broker::</text>
<text text-anchor="middle" x="227" y="-60" font-family="Helvetica,sans-Serif" font-size="10.00">ReceiverInterface</text>
</a>
</g>
<!-- Node5&#45;&gt;Node1 -->
<g id="edge8" class="edge"><title>Node5&#45;&gt;Node1</title>
<path fill="none" stroke="midnightblue" d="M288.014,-69C303.185,-69 319.411,-69 334.46,-69"/>
<polygon fill="midnightblue" stroke="midnightblue" points="287.707,-65.5001 277.707,-69 287.707,-72.5001 287.707,-65.5001"/>
</g>
<!-- Node6 -->
<g id="node10" class="node"><title>Node6</title>
<a xlink:href="../../d4/d1a/classmars_1_1cfg__manager_1_1_c_f_g_client.html" target="_top" xlink:title="mars::cfg_manager::\lCFGClient">
<polygon fill="white" stroke="black" points="173.5,-0 173.5,-34 280.5,-34 280.5,-0 173.5,-0"/>
<text text-anchor="start" x="181.5" y="-21" font-family="Helvetica,sans-Serif" font-size="10.00">mars::cfg_manager::</text>
<text text-anchor="middle" x="227" y="-8" font-family="Helvetica,sans-Serif" font-size="10.00">CFGClient</text>
</a>
</g>
<!-- Node6&#45;&gt;Node1 -->
<g id="edge10" class="edge"><title>Node6&#45;&gt;Node1</title>
<path fill="none" stroke="midnightblue" d="M290.587,-36.9188C306.394,-41.8705 323.197,-47.1339 338.522,-51.9347"/>
<polygon fill="midnightblue" stroke="midnightblue" points="291.484,-33.5323 280.895,-33.8829 289.392,-40.2122 291.484,-33.5323"/>
</g>
</g>
</svg>
