<?xml version="1.0" encoding="UTF-8" standalone="no"?>
<!DOCTYPE svg PUBLIC "-//W3C//DTD SVG 1.1//EN"
 "http://www.w3.org/Graphics/SVG/1.1/DTD/svg11.dtd">
<!-- Generated by graphviz version 2.26.3 (20100126.1600)
 -->
<!-- Title: /home/kavonszadkowski/limes&#45;dev/simulation/mars/sim/src/core/SimNode.h Pages: 1 -->
<svg width="1080pt" height="154pt"
 viewBox="0.00 0.00 1080.00 154.00" xmlns="http://www.w3.org/2000/svg" xmlns:xlink="http://www.w3.org/1999/xlink">
<g id="graph1" class="graph" transform="scale(1 1) rotate(0) translate(4 150)">
<title>/home/kavonszadkowski/limes&#45;dev/simulation/mars/sim/src/core/SimNode.h</title>
<polygon fill="white" stroke="white" points="-4,5 -4,-150 1077,-150 1077,5 -4,5"/>
<!-- Node1 -->
<g id="node1" class="node"><title>Node1</title>
<polygon fill="#bfbfbf" stroke="black" points="504,-98.5 504,-145.5 654,-145.5 654,-98.5 504,-98.5"/>
<text text-anchor="start" x="512" y="-132.5" font-family="Helvetica,sans-Serif" font-size="10.00">/home/kavonszadkowski</text>
<text text-anchor="start" x="512" y="-119.5" font-family="Helvetica,sans-Serif" font-size="10.00">/limes&#45;dev/simulation</text>
<text text-anchor="middle" x="579" y="-106.5" font-family="Helvetica,sans-Serif" font-size="10.00">/mars/sim/src/core/SimNode.h</text>
</g>
<!-- Node2 -->
<g id="node3" class="node"><title>Node2</title>
<a xlink:href="../../d9/d28/_joint_manager_8cpp.html" target="_top" xlink:title="&quot;JointManager&quot; is the class that manage all joints and their operations and communication between the...">
<polygon fill="white" stroke="black" points="-0.5,-7.5 -0.5,-54.5 178.5,-54.5 178.5,-7.5 -0.5,-7.5"/>
<text text-anchor="start" x="7.5" y="-41.5" font-family="Helvetica,sans-Serif" font-size="10.00">/home/kavonszadkowski</text>
<text text-anchor="start" x="7.5" y="-28.5" font-family="Helvetica,sans-Serif" font-size="10.00">/limes&#45;dev/simulation</text>
<text text-anchor="middle" x="89" y="-15.5" font-family="Helvetica,sans-Serif" font-size="10.00">/mars/sim/src/core/JointManager.cpp</text>
</a>
</g>
<!-- Node1&#45;&gt;Node2 -->
<g id="edge2" class="edge"><title>Node1&#45;&gt;Node2</title>
<path fill="none" stroke="midnightblue" d="M493.614,-110.504C396.378,-97.1342 243.662,-75.2148 187,-62 177.789,-59.8519 168.192,-57.2645 158.763,-54.5118"/>
<polygon fill="midnightblue" stroke="midnightblue" points="493.339,-113.999 503.722,-111.89 494.29,-107.064 493.339,-113.999"/>
</g>
<!-- Node3 -->
<g id="node5" class="node"><title>Node3</title>
<a xlink:href="../../d5/d2a/_motor_manager_8cpp.html" target="_top" xlink:title="&quot;MotorManager&quot; implements MotorManagerInterface. It is manages all motors and all motor operations th...">
<polygon fill="white" stroke="black" points="196,-7.5 196,-54.5 378,-54.5 378,-7.5 196,-7.5"/>
<text text-anchor="start" x="204" y="-41.5" font-family="Helvetica,sans-Serif" font-size="10.00">/home/kavonszadkowski</text>
<text text-anchor="start" x="204" y="-28.5" font-family="Helvetica,sans-Serif" font-size="10.00">/limes&#45;dev/simulation</text>
<text text-anchor="middle" x="287" y="-15.5" font-family="Helvetica,sans-Serif" font-size="10.00">/mars/sim/src/core/MotorManager.cpp</text>
</a>
</g>
<!-- Node1&#45;&gt;Node3 -->
<g id="edge4" class="edge"><title>Node1&#45;&gt;Node3</title>
<path fill="none" stroke="midnightblue" d="M494.223,-95.5799C452.562,-82.5963 402.778,-67.0816 362.449,-54.5133"/>
<polygon fill="midnightblue" stroke="midnightblue" points="493.214,-98.9314 503.803,-98.5652 495.297,-92.2484 493.214,-98.9314"/>
</g>
<!-- Node4 -->
<g id="node7" class="node"><title>Node4</title>
<a xlink:href="../../d1/dc7/_node_manager_8cpp.html" target="_top" xlink:title="&quot;NodeManager&quot; is the class that manage all nodes and their operations and communication between the d...">
<polygon fill="white" stroke="black" points="395.5,-7.5 395.5,-54.5 576.5,-54.5 576.5,-7.5 395.5,-7.5"/>
<text text-anchor="start" x="403.5" y="-41.5" font-family="Helvetica,sans-Serif" font-size="10.00">/home/kavonszadkowski</text>
<text text-anchor="start" x="403.5" y="-28.5" font-family="Helvetica,sans-Serif" font-size="10.00">/limes&#45;dev/simulation</text>
<text text-anchor="middle" x="486" y="-15.5" font-family="Helvetica,sans-Serif" font-size="10.00">/mars/sim/src/core/NodeManager.cpp</text>
</a>
</g>
<!-- Node1&#45;&gt;Node4 -->
<g id="edge6" class="edge"><title>Node1&#45;&gt;Node4</title>
<path fill="none" stroke="midnightblue" d="M547.257,-90.9399C535.157,-79.1 521.57,-65.8047 510.271,-54.7495"/>
<polygon fill="midnightblue" stroke="midnightblue" points="544.97,-93.5986 554.565,-98.0908 549.866,-88.5954 544.97,-93.5986"/>
</g>
<!-- Node5 -->
<g id="node9" class="node"><title>Node5</title>
<a xlink:href="../../d4/d70/_sim_joint_8cpp.html" target="_top" xlink:title="/home/kavonszadkowski\l/limes&#45;dev/simulation\l/mars/sim/src/core/SimJoint.cpp">
<polygon fill="white" stroke="black" points="594,-7.5 594,-54.5 752,-54.5 752,-7.5 594,-7.5"/>
<text text-anchor="start" x="602" y="-41.5" font-family="Helvetica,sans-Serif" font-size="10.00">/home/kavonszadkowski</text>
<text text-anchor="start" x="602" y="-28.5" font-family="Helvetica,sans-Serif" font-size="10.00">/limes&#45;dev/simulation</text>
<text text-anchor="middle" x="673" y="-15.5" font-family="Helvetica,sans-Serif" font-size="10.00">/mars/sim/src/core/SimJoint.cpp</text>
</a>
</g>
<!-- Node1&#45;&gt;Node5 -->
<g id="edge8" class="edge"><title>Node1&#45;&gt;Node5</title>
<path fill="none" stroke="midnightblue" d="M611.084,-90.9399C623.314,-79.1 637.048,-65.8047 648.468,-54.7495"/>
<polygon fill="midnightblue" stroke="midnightblue" points="608.448,-88.6206 603.697,-98.0908 613.317,-93.65 608.448,-88.6206"/>
</g>
<!-- Node6 -->
<g id="node11" class="node"><title>Node6</title>
<a xlink:href="../../dc/d0b/_sim_node_8cpp.html" target="_top" xlink:title="/home/kavonszadkowski\l/limes&#45;dev/simulation\l/mars/sim/src/core/SimNode.cpp">
<polygon fill="white" stroke="black" points="769.5,-7.5 769.5,-54.5 930.5,-54.5 930.5,-7.5 769.5,-7.5"/>
<text text-anchor="start" x="777.5" y="-41.5" font-family="Helvetica,sans-Serif" font-size="10.00">/home/kavonszadkowski</text>
<text text-anchor="start" x="777.5" y="-28.5" font-family="Helvetica,sans-Serif" font-size="10.00">/limes&#45;dev/simulation</text>
<text text-anchor="middle" x="850" y="-15.5" font-family="Helvetica,sans-Serif" font-size="10.00">/mars/sim/src/core/SimNode.cpp</text>
</a>
</g>
<!-- Node1&#45;&gt;Node6 -->
<g id="edge10" class="edge"><title>Node1&#45;&gt;Node6</title>
<path fill="none" stroke="midnightblue" d="M660.849,-95.3393C692.212,-85.0387 728.304,-73.0827 761,-62 767.973,-59.6363 775.245,-57.1458 782.495,-54.646"/>
<polygon fill="midnightblue" stroke="midnightblue" points="659.687,-92.037 651.276,-98.4801 661.869,-98.6881 659.687,-92.037"/>
</g>
<!-- Node7 -->
<g id="node13" class="node"><title>Node7</title>
<a xlink:href="../../de/d34/_scanning_sonar_8cpp.html" target="_top" xlink:title="/home/kavonszadkowski\l/limes&#45;dev/simulation\l/mars/sim/src/sensors\l/ScanningSonar.cpp">
<polygon fill="white" stroke="black" points="947.5,-1 947.5,-61 1072.5,-61 1072.5,-1 947.5,-1"/>
<text text-anchor="start" x="955.5" y="-48" font-family="Helvetica,sans-Serif" font-size="10.00">/home/kavonszadkowski</text>
<text text-anchor="start" x="955.5" y="-35" font-family="Helvetica,sans-Serif" font-size="10.00">/limes&#45;dev/simulation</text>
<text text-anchor="start" x="955.5" y="-22" font-family="Helvetica,sans-Serif" font-size="10.00">/mars/sim/src/sensors</text>
<text text-anchor="middle" x="1010" y="-9" font-family="Helvetica,sans-Serif" font-size="10.00">/ScanningSonar.cpp</text>
</a>
</g>
<!-- Node1&#45;&gt;Node7 -->
<g id="edge12" class="edge"><title>Node1&#45;&gt;Node7</title>
<path fill="none" stroke="midnightblue" d="M664.508,-113.757C738.304,-105.228 847.189,-89.2386 939,-62 941.708,-61.1966 944.449,-60.3165 947.2,-59.3775"/>
<polygon fill="midnightblue" stroke="midnightblue" points="663.875,-110.306 654.333,-114.911 664.664,-117.262 663.875,-110.306"/>
</g>
</g>
</svg>
