<?xml version="1.0" encoding="UTF-8" standalone="no"?>
<!DOCTYPE svg PUBLIC "-//W3C//DTD SVG 1.1//EN"
 "http://www.w3.org/Graphics/SVG/1.1/DTD/svg11.dtd">
<!-- Generated by graphviz version 2.26.3 (20100126.1600)
 -->
<!-- Title: mars::graphics::OSGHudElementStruct Pages: 1 -->
<svg width="238pt" height="188pt"
 viewBox="0.00 0.00 238.00 188.00" xmlns="http://www.w3.org/2000/svg" xmlns:xlink="http://www.w3.org/1999/xlink">
<g id="graph1" class="graph" transform="scale(1 1) rotate(0) translate(4 184)">
<title>mars::graphics::OSGHudElementStruct</title>
<polygon fill="white" stroke="white" points="-4,5 -4,-184 235,-184 235,5 -4,5"/>
<!-- Node1 -->
<g id="node1" class="node"><title>Node1</title>
<polygon fill="#bfbfbf" stroke="black" points="-0.5,-1 -0.5,-35 162.5,-35 162.5,-1 -0.5,-1"/>
<text text-anchor="start" x="7.5" y="-22" font-family="Helvetica,sans-Serif" font-size="10.00">mars::graphics::OSGHudElement</text>
<text text-anchor="middle" x="81" y="-9" font-family="Helvetica,sans-Serif" font-size="10.00">Struct</text>
</g>
<!-- Node2 -->
<g id="node2" class="node"><title>Node2</title>
<polygon fill="white" stroke="#bfbfbf" points="23.5,-86.5 23.5,-107.5 66.5,-107.5 66.5,-86.5 23.5,-86.5"/>
<text text-anchor="middle" x="45" y="-94.5" font-family="Helvetica,sans-Serif" font-size="10.00">Group</text>
</g>
<!-- Node2&#45;&gt;Node1 -->
<g id="edge2" class="edge"><title>Node2&#45;&gt;Node1</title>
<path fill="none" stroke="midnightblue" d="M54.1443,-76.9332C60.0291,-64.0194 67.5958,-47.4147 73.1969,-35.1236"/>
<polygon fill="midnightblue" stroke="midnightblue" points="50.817,-75.7946 49.8551,-86.3457 57.1868,-78.6974 50.817,-75.7946"/>
</g>
<!-- Node3 -->
<g id="node4" class="node"><title>Node3</title>
<a xlink:href="../../dd/dbd/classmars_1_1graphics_1_1_h_u_d_element.html" target="_top" xlink:title="mars::graphics::HUDElement">
<polygon fill="white" stroke="black" points="84,-86.5 84,-107.5 230,-107.5 230,-86.5 84,-86.5"/>
<text text-anchor="middle" x="157" y="-94.5" font-family="Helvetica,sans-Serif" font-size="10.00">mars::graphics::HUDElement</text>
</a>
</g>
<!-- Node3&#45;&gt;Node1 -->
<g id="edge4" class="edge"><title>Node3&#45;&gt;Node1</title>
<path fill="none" stroke="#9a32cd" stroke-dasharray="5,2" d="M139.513,-78.823C126.864,-65.674 109.883,-48.0232 97.4733,-35.1236"/>
<polygon fill="#9a32cd" stroke="#9a32cd" points="137.295,-81.5656 146.75,-86.3457 142.34,-76.7126 137.295,-81.5656"/>
<text text-anchor="middle" x="143" y="-58.5" font-family="Helvetica,sans-Serif" font-size="10.00"> elem_</text>
</g>
<!-- Node4 -->
<g id="node6" class="node"><title>Node4</title>
<polygon fill="white" stroke="#bfbfbf" points="136.5,-158.5 136.5,-179.5 177.5,-179.5 177.5,-158.5 136.5,-158.5"/>
<text text-anchor="middle" x="157" y="-166.5" font-family="Helvetica,sans-Serif" font-size="10.00">string</text>
</g>
<!-- Node4&#45;&gt;Node3 -->
<g id="edge6" class="edge"><title>Node4&#45;&gt;Node3</title>
<path fill="none" stroke="#9a32cd" stroke-dasharray="5,2" d="M157,-148.235C157,-134.969 157,-118.319 157,-107.667"/>
<polygon fill="#9a32cd" stroke="#9a32cd" points="153.5,-148.376 157,-158.376 160.5,-148.376 153.5,-148.376"/>
<text text-anchor="middle" x="184" y="-130.5" font-family="Helvetica,sans-Serif" font-size="10.00"> config_path</text>
</g>
</g>
</svg>
