<?xml version="1.0" encoding="UTF-8" standalone="no"?>
<!DOCTYPE svg PUBLIC "-//W3C//DTD SVG 1.1//EN"
 "http://www.w3.org/Graphics/SVG/1.1/DTD/svg11.dtd">
<!-- Generated by graphviz version 2.36.0 (20140111.2315)
 -->
<!-- Title: /media/kavonszadkowski/work/marsdocs/mars/plugins/SkyDomePlugin/src/SkyDome.cpp Pages: 1 -->
<svg width="438pt" height="218pt"
 viewBox="0.00 0.00 438.00 218.00" xmlns="http://www.w3.org/2000/svg" xmlns:xlink="http://www.w3.org/1999/xlink">
<g id="graph0" class="graph" transform="scale(1 1) rotate(0) translate(4 214)">
<title>/media/kavonszadkowski/work/marsdocs/mars/plugins/SkyDomePlugin/src/SkyDome.cpp</title>
<polygon fill="white" stroke="none" points="-4,4 -4,-214 434,-214 434,4 -4,4"/>
<!-- Node1 -->
<g id="node1" class="node"><title>Node1</title>
<polygon fill="#bfbfbf" stroke="black" points="136,-168.5 136,-209.5 308,-209.5 308,-168.5 136,-168.5"/>
<text text-anchor="start" x="144" y="-197.5" font-family="Helvetica,sans-Serif" font-size="10.00">/media/kavonszadkowski</text>
<text text-anchor="start" x="144" y="-186.5" font-family="Helvetica,sans-Serif" font-size="10.00">/work/marsdocs/mars/plugins</text>
<text text-anchor="middle" x="222" y="-175.5" font-family="Helvetica,sans-Serif" font-size="10.00">/SkyDomePlugin/src/SkyDome.cpp</text>
</g>
<!-- Node2 -->
<g id="node2" class="node"><title>Node2</title>
<g id="a_node2"><a xlink:href="../../df/d15/_sky_dome_8h.html" target="_top" xlink:title="SkyDome.h">
<polygon fill="white" stroke="black" points="188,-112.5 188,-131.5 256,-131.5 256,-112.5 188,-112.5"/>
<text text-anchor="middle" x="222" y="-119.5" font-family="Helvetica,sans-Serif" font-size="10.00">SkyDome.h</text>
</a>
</g>
</g>
<!-- Node1&#45;&gt;Node2 -->
<g id="edge1" class="edge"><title>Node1&#45;&gt;Node2</title>
<path fill="none" stroke="midnightblue" d="M222,-168.498C222,-160.065 222,-150.235 222,-141.874"/>
<polygon fill="midnightblue" stroke="midnightblue" points="225.5,-141.652 222,-131.652 218.5,-141.653 225.5,-141.652"/>
</g>
<!-- Node3 -->
<g id="node3" class="node"><title>Node3</title>
<g id="a_node3"><a xlink:href="../../d8/d98/_sphere_segment_8h.html" target="_top" xlink:title="SphereSegment.h">
<polygon fill="white" stroke="black" points="28.5,-56.5 28.5,-75.5 123.5,-75.5 123.5,-56.5 28.5,-56.5"/>
<text text-anchor="middle" x="76" y="-63.5" font-family="Helvetica,sans-Serif" font-size="10.00">SphereSegment.h</text>
</a>
</g>
</g>
<!-- Node2&#45;&gt;Node3 -->
<g id="edge2" class="edge"><title>Node2&#45;&gt;Node3</title>
<path fill="none" stroke="midnightblue" d="M198.866,-112.444C174.518,-103.438 135.993,-89.1891 108.577,-79.049"/>
<polygon fill="midnightblue" stroke="midnightblue" points="109.619,-75.7028 99.0259,-75.5164 107.191,-82.2681 109.619,-75.7028"/>
</g>
<!-- Node6 -->
<g id="node6" class="node"><title>Node6</title>
<polygon fill="white" stroke="#bfbfbf" points="142,-56.5 142,-75.5 214,-75.5 214,-56.5 142,-56.5"/>
<text text-anchor="middle" x="178" y="-63.5" font-family="Helvetica,sans-Serif" font-size="10.00">osg/Program</text>
</g>
<!-- Node2&#45;&gt;Node6 -->
<g id="edge5" class="edge"><title>Node2&#45;&gt;Node6</title>
<path fill="none" stroke="midnightblue" d="M214.734,-112.083C208.455,-104.377 199.212,-93.0333 191.569,-83.6531"/>
<polygon fill="midnightblue" stroke="midnightblue" points="194.161,-81.2926 185.131,-75.7511 188.734,-85.7143 194.161,-81.2926"/>
</g>
<!-- Node7 -->
<g id="node7" class="node"><title>Node7</title>
<polygon fill="white" stroke="#bfbfbf" points="232,-56.5 232,-75.5 302,-75.5 302,-56.5 232,-56.5"/>
<text text-anchor="middle" x="267" y="-63.5" font-family="Helvetica,sans-Serif" font-size="10.00">osg/Uniform</text>
</g>
<!-- Node2&#45;&gt;Node7 -->
<g id="edge6" class="edge"><title>Node2&#45;&gt;Node7</title>
<path fill="none" stroke="midnightblue" d="M229.431,-112.083C235.853,-104.377 245.306,-93.0333 253.122,-83.6531"/>
<polygon fill="midnightblue" stroke="midnightblue" points="255.994,-85.674 259.707,-75.7511 250.617,-81.1927 255.994,-85.674"/>
</g>
<!-- Node8 -->
<g id="node8" class="node"><title>Node8</title>
<polygon fill="white" stroke="#bfbfbf" points="320,-56.5 320,-75.5 430,-75.5 430,-56.5 320,-56.5"/>
<text text-anchor="middle" x="375" y="-63.5" font-family="Helvetica,sans-Serif" font-size="10.00">osg/TextureCubeMap</text>
</g>
<!-- Node2&#45;&gt;Node8 -->
<g id="edge7" class="edge"><title>Node2&#45;&gt;Node8</title>
<path fill="none" stroke="midnightblue" d="M246.243,-112.444C271.871,-103.399 312.485,-89.064 341.238,-78.9158"/>
<polygon fill="midnightblue" stroke="midnightblue" points="342.605,-82.1452 350.87,-75.5164 340.275,-75.5442 342.605,-82.1452"/>
</g>
<!-- Node4 -->
<g id="node4" class="node"><title>Node4</title>
<polygon fill="white" stroke="#bfbfbf" points="0,-0.5 0,-19.5 64,-19.5 64,-0.5 0,-0.5"/>
<text text-anchor="middle" x="32" y="-7.5" font-family="Helvetica,sans-Serif" font-size="10.00">osg/Geode</text>
</g>
<!-- Node3&#45;&gt;Node4 -->
<g id="edge3" class="edge"><title>Node3&#45;&gt;Node4</title>
<path fill="none" stroke="midnightblue" d="M68.7343,-56.083C62.4552,-48.3768 53.2124,-37.0333 45.5692,-27.6531"/>
<polygon fill="midnightblue" stroke="midnightblue" points="48.1606,-25.2926 39.1305,-19.7511 42.7339,-29.7143 48.1606,-25.2926"/>
</g>
<!-- Node5 -->
<g id="node5" class="node"><title>Node5</title>
<polygon fill="white" stroke="#bfbfbf" points="82,-0.5 82,-19.5 160,-19.5 160,-0.5 82,-0.5"/>
<text text-anchor="middle" x="121" y="-7.5" font-family="Helvetica,sans-Serif" font-size="10.00">osg/Geometry</text>
</g>
<!-- Node3&#45;&gt;Node5 -->
<g id="edge4" class="edge"><title>Node3&#45;&gt;Node5</title>
<path fill="none" stroke="midnightblue" d="M83.4308,-56.083C89.8527,-48.3768 99.3056,-37.0333 107.122,-27.6531"/>
<polygon fill="midnightblue" stroke="midnightblue" points="109.994,-29.674 113.707,-19.7511 104.617,-25.1927 109.994,-29.674"/>
</g>
</g>
</svg>
