<?xml version="1.0" encoding="UTF-8" standalone="no"?>
<!DOCTYPE svg PUBLIC "-//W3C//DTD SVG 1.1//EN"
 "http://www.w3.org/Graphics/SVG/1.1/DTD/svg11.dtd">
<!-- Generated by graphviz version 2.26.3 (20100126.1600)
 -->
<!-- Title: mars::data_broker::ProducerInterface Pages: 1 -->
<svg width="296pt" height="242pt"
 viewBox="0.00 0.00 296.00 242.00" xmlns="http://www.w3.org/2000/svg" xmlns:xlink="http://www.w3.org/1999/xlink">
<g id="graph1" class="graph" transform="scale(1 1) rotate(0) translate(4 238)">
<title>mars::data_broker::ProducerInterface</title>
<polygon fill="white" stroke="white" points="-4,5 -4,-238 293,-238 293,5 -4,5"/>
<!-- Node1 -->
<g id="node1" class="node"><title>Node1</title>
<polygon fill="#bfbfbf" stroke="black" points="0.5,-97 0.5,-131 101.5,-131 101.5,-97 0.5,-97"/>
<text text-anchor="start" x="8.5" y="-118" font-family="Helvetica,sans-Serif" font-size="10.00">mars::data_broker::</text>
<text text-anchor="middle" x="51" y="-105" font-family="Helvetica,sans-Serif" font-size="10.00">ProducerInterface</text>
</g>
<!-- Node2 -->
<g id="node3" class="node"><title>Node2</title>
<a xlink:href="../../d5/d86/class_joystick_plugin.html" target="_top" xlink:title="JoystickPlugin">
<polygon fill="white" stroke="black" points="173,-212.5 173,-233.5 253,-233.5 253,-212.5 173,-212.5"/>
<text text-anchor="middle" x="213" y="-220.5" font-family="Helvetica,sans-Serif" font-size="10.00">JoystickPlugin</text>
</a>
</g>
<!-- Node1&#45;&gt;Node2 -->
<g id="edge2" class="edge"><title>Node1&#45;&gt;Node2</title>
<path fill="none" stroke="midnightblue" d="M69.4018,-139.238C85.3727,-159.368 110.247,-186.788 138,-203 148.589,-209.185 161.126,-213.501 172.89,-216.493"/>
<polygon fill="midnightblue" stroke="midnightblue" points="72.0048,-136.882 63.1198,-131.111 66.4665,-141.163 72.0048,-136.882"/>
</g>
<!-- Node3 -->
<g id="node5" class="node"><title>Node3</title>
<a xlink:href="../../de/dff/classmars_1_1sim_1_1_joint6_d_o_f_sensor.html" target="_top" xlink:title="mars::sim::Joint6DOFSensor">
<polygon fill="white" stroke="black" points="141,-172.5 141,-193.5 285,-193.5 285,-172.5 141,-172.5"/>
<text text-anchor="middle" x="213" y="-180.5" font-family="Helvetica,sans-Serif" font-size="10.00">mars::sim::Joint6DOFSensor</text>
</a>
</g>
<!-- Node1&#45;&gt;Node3 -->
<g id="edge4" class="edge"><title>Node1&#45;&gt;Node3</title>
<path fill="none" stroke="midnightblue" d="M85.8885,-136.322C101.396,-145.533 120.151,-155.73 138,-163 146.861,-166.609 156.576,-169.754 165.99,-172.416"/>
<polygon fill="midnightblue" stroke="midnightblue" points="87.5322,-133.226 77.1647,-131.042 83.9078,-139.214 87.5322,-133.226"/>
</g>
<!-- Node4 -->
<g id="node7" class="node"><title>Node4</title>
<a xlink:href="../../d2/d9f/classmars_1_1sim_1_1_node_contact_force_sensor.html" target="_top" xlink:title="mars::sim::NodeContactForce\lSensor">
<polygon fill="white" stroke="black" points="138.5,-120 138.5,-154 287.5,-154 287.5,-120 138.5,-120"/>
<text text-anchor="start" x="146.5" y="-141" font-family="Helvetica,sans-Serif" font-size="10.00">mars::sim::NodeContactForce</text>
<text text-anchor="middle" x="213" y="-128" font-family="Helvetica,sans-Serif" font-size="10.00">Sensor</text>
</a>
</g>
<!-- Node1&#45;&gt;Node4 -->
<g id="edge6" class="edge"><title>Node1&#45;&gt;Node4</title>
<path fill="none" stroke="midnightblue" d="M111.803,-122.632C120.463,-123.862 129.452,-125.138 138.339,-126.4"/>
<polygon fill="midnightblue" stroke="midnightblue" points="112.206,-119.155 101.813,-121.214 111.222,-126.085 112.206,-119.155"/>
</g>
<!-- Node5 -->
<g id="node9" class="node"><title>Node5</title>
<a xlink:href="../../d2/d27/classmars_1_1sim_1_1_sim_joint.html" target="_top" xlink:title="SimJoint represents the simulated joints. ">
<polygon fill="white" stroke="black" points="161,-80.5 161,-101.5 265,-101.5 265,-80.5 161,-80.5"/>
<text text-anchor="middle" x="213" y="-88.5" font-family="Helvetica,sans-Serif" font-size="10.00">mars::sim::SimJoint</text>
</a>
</g>
<!-- Node1&#45;&gt;Node5 -->
<g id="edge8" class="edge"><title>Node1&#45;&gt;Node5</title>
<path fill="none" stroke="midnightblue" d="M111.726,-105.378C127.927,-103.078 145.284,-100.614 160.972,-98.3867"/>
<polygon fill="midnightblue" stroke="midnightblue" points="111.222,-101.915 101.813,-106.786 112.206,-108.845 111.222,-101.915"/>
</g>
<!-- Node6 -->
<g id="node11" class="node"><title>Node6</title>
<a xlink:href="../../d7/dfb/classmars_1_1sim_1_1_sim_motor.html" target="_top" xlink:title="Each SimMotor object publishes its state on the dataBroker. ">
<polygon fill="white" stroke="black" points="159,-40.5 159,-61.5 267,-61.5 267,-40.5 159,-40.5"/>
<text text-anchor="middle" x="213" y="-48.5" font-family="Helvetica,sans-Serif" font-size="10.00">mars::sim::SimMotor</text>
</a>
</g>
<!-- Node1&#45;&gt;Node6 -->
<g id="edge10" class="edge"><title>Node1&#45;&gt;Node6</title>
<path fill="none" stroke="midnightblue" d="M90.9444,-92.1839C105.48,-84.8037 122.218,-76.937 138,-71 147.46,-67.4413 157.814,-64.2512 167.726,-61.5191"/>
<polygon fill="midnightblue" stroke="midnightblue" points="89.0204,-89.2384 81.743,-96.9384 92.2338,-95.4573 89.0204,-89.2384"/>
</g>
<!-- Node7 -->
<g id="node13" class="node"><title>Node7</title>
<a xlink:href="../../d5/db3/classmars_1_1sim_1_1_sim_node.html" target="_top" xlink:title="Two typedefs to keep mesh structure nearly similar to ODE. ">
<polygon fill="white" stroke="black" points="159.5,-0.5 159.5,-21.5 266.5,-21.5 266.5,-0.5 159.5,-0.5"/>
<text text-anchor="middle" x="213" y="-8.5" font-family="Helvetica,sans-Serif" font-size="10.00">mars::sim::SimNode</text>
</a>
</g>
<!-- Node1&#45;&gt;Node7 -->
<g id="edge12" class="edge"><title>Node1&#45;&gt;Node7</title>
<path fill="none" stroke="midnightblue" d="M71.1294,-88.9181C87.3304,-70.3348 111.674,-45.7687 138,-31 144.817,-27.176 152.394,-24.0581 160.038,-21.5227"/>
<polygon fill="midnightblue" stroke="midnightblue" points="68.3035,-86.8385 64.492,-96.724 73.6363,-91.373 68.3035,-86.8385"/>
</g>
</g>
</svg>
