<?xml version="1.0" encoding="UTF-8" standalone="no"?>
<!DOCTYPE svg PUBLIC "-//W3C//DTD SVG 1.1//EN"
 "http://www.w3.org/Graphics/SVG/1.1/DTD/svg11.dtd">
<!-- Generated by graphviz version 2.36.0 (20140111.2315)
 -->
<!-- Title: /media/kavonszadkowski/work/marsdocs/mars/interfaces/src/NodeData.h Pages: 1 -->
<svg width="912pt" height="206pt"
 viewBox="0.00 0.00 912.00 206.00" xmlns="http://www.w3.org/2000/svg" xmlns:xlink="http://www.w3.org/1999/xlink">
<g id="graph0" class="graph" transform="scale(1 1) rotate(0) translate(4 202)">
<title>/media/kavonszadkowski/work/marsdocs/mars/interfaces/src/NodeData.h</title>
<polygon fill="white" stroke="none" points="-4,4 -4,-202 908,-202 908,4 -4,4"/>
<!-- Node1 -->
<g id="node1" class="node"><title>Node1</title>
<polygon fill="#bfbfbf" stroke="black" points="391.5,-156.5 391.5,-197.5 548.5,-197.5 548.5,-156.5 391.5,-156.5"/>
<text text-anchor="start" x="399.5" y="-185.5" font-family="Helvetica,sans-Serif" font-size="10.00">/media/kavonszadkowski</text>
<text text-anchor="start" x="399.5" y="-174.5" font-family="Helvetica,sans-Serif" font-size="10.00">/work/marsdocs/mars/interfaces</text>
<text text-anchor="middle" x="470" y="-163.5" font-family="Helvetica,sans-Serif" font-size="10.00">/src/NodeData.h</text>
</g>
<!-- Node2 -->
<g id="node2" class="node"><title>Node2</title>
<g id="a_node2"><a xlink:href="../../d7/d84/_graphics_manager_interface_8h.html" target="_top" xlink:title="/media/kavonszadkowski\l/work/marsdocs/mars/interfaces\l/src/graphics/GraphicsManagerInterface.h">
<polygon fill="white" stroke="black" points="-0.5,-78.5 -0.5,-119.5 198.5,-119.5 198.5,-78.5 -0.5,-78.5"/>
<text text-anchor="start" x="7.5" y="-107.5" font-family="Helvetica,sans-Serif" font-size="10.00">/media/kavonszadkowski</text>
<text text-anchor="start" x="7.5" y="-96.5" font-family="Helvetica,sans-Serif" font-size="10.00">/work/marsdocs/mars/interfaces</text>
<text text-anchor="middle" x="99" y="-85.5" font-family="Helvetica,sans-Serif" font-size="10.00">/src/graphics/GraphicsManagerInterface.h</text>
</a>
</g>
</g>
<!-- Node1&#45;&gt;Node2 -->
<g id="edge1" class="edge"><title>Node1&#45;&gt;Node2</title>
<path fill="none" stroke="midnightblue" d="M381.351,-157.84C324.966,-146.29 251.99,-131.34 194.353,-119.533"/>
<polygon fill="midnightblue" stroke="midnightblue" points="380.821,-161.304 391.32,-159.882 382.226,-154.447 380.821,-161.304"/>
</g>
<!-- Node3 -->
<g id="node3" class="node"><title>Node3</title>
<g id="a_node3"><a xlink:href="../../d5/d60/utils_8h.html" target="_top" xlink:title="/media/kavonszadkowski\l/work/marsdocs/mars/interfaces\l/src/utils.h">
<polygon fill="white" stroke="black" points="216.5,-78.5 216.5,-119.5 373.5,-119.5 373.5,-78.5 216.5,-78.5"/>
<text text-anchor="start" x="224.5" y="-107.5" font-family="Helvetica,sans-Serif" font-size="10.00">/media/kavonszadkowski</text>
<text text-anchor="start" x="224.5" y="-96.5" font-family="Helvetica,sans-Serif" font-size="10.00">/work/marsdocs/mars/interfaces</text>
<text text-anchor="middle" x="295" y="-85.5" font-family="Helvetica,sans-Serif" font-size="10.00">/src/utils.h</text>
</a>
</g>
</g>
<!-- Node1&#45;&gt;Node3 -->
<g id="edge2" class="edge"><title>Node1&#45;&gt;Node3</title>
<path fill="none" stroke="midnightblue" d="M415.495,-152.329C391.212,-141.783 362.957,-129.513 339.914,-119.506"/>
<polygon fill="midnightblue" stroke="midnightblue" points="414.367,-155.655 424.933,-156.428 417.155,-149.234 414.367,-155.655"/>
</g>
<!-- Node6 -->
<g id="node6" class="node"><title>Node6</title>
<g id="a_node6"><a xlink:href="../../d2/db6/_node_data_8cpp.html" target="_top" xlink:title="/media/kavonszadkowski\l/work/marsdocs/mars/interfaces\l/src/NodeData.cpp">
<polygon fill="white" stroke="black" points="391.5,-78.5 391.5,-119.5 548.5,-119.5 548.5,-78.5 391.5,-78.5"/>
<text text-anchor="start" x="399.5" y="-107.5" font-family="Helvetica,sans-Serif" font-size="10.00">/media/kavonszadkowski</text>
<text text-anchor="start" x="399.5" y="-96.5" font-family="Helvetica,sans-Serif" font-size="10.00">/work/marsdocs/mars/interfaces</text>
<text text-anchor="middle" x="470" y="-85.5" font-family="Helvetica,sans-Serif" font-size="10.00">/src/NodeData.cpp</text>
</a>
</g>
</g>
<!-- Node1&#45;&gt;Node6 -->
<g id="edge5" class="edge"><title>Node1&#45;&gt;Node6</title>
<path fill="none" stroke="midnightblue" d="M470,-146.297C470,-137.301 470,-127.653 470,-119.506"/>
<polygon fill="midnightblue" stroke="midnightblue" points="466.5,-146.428 470,-156.428 473.5,-146.428 466.5,-146.428"/>
</g>
<!-- Node7 -->
<g id="node7" class="node"><title>Node7</title>
<g id="a_node7"><a xlink:href="../../d0/ddf/_node_interface_8h.html" target="_top" xlink:title="&quot;NodeInterface&quot; declares the interfaces for the Nodes to the physical layer. ">
<polygon fill="white" stroke="black" points="566.5,-78.5 566.5,-119.5 723.5,-119.5 723.5,-78.5 566.5,-78.5"/>
<text text-anchor="start" x="574.5" y="-107.5" font-family="Helvetica,sans-Serif" font-size="10.00">/media/kavonszadkowski</text>
<text text-anchor="start" x="574.5" y="-96.5" font-family="Helvetica,sans-Serif" font-size="10.00">/work/marsdocs/mars/interfaces</text>
<text text-anchor="middle" x="645" y="-85.5" font-family="Helvetica,sans-Serif" font-size="10.00">/src/sim/NodeInterface.h</text>
</a>
</g>
</g>
<!-- Node1&#45;&gt;Node7 -->
<g id="edge6" class="edge"><title>Node1&#45;&gt;Node7</title>
<path fill="none" stroke="midnightblue" d="M524.505,-152.329C548.788,-141.783 577.043,-129.513 600.086,-119.506"/>
<polygon fill="midnightblue" stroke="midnightblue" points="522.845,-149.234 515.067,-156.428 525.633,-155.655 522.845,-149.234"/>
</g>
<!-- Node9 -->
<g id="node9" class="node"><title>Node9</title>
<g id="a_node9"><a xlink:href="../../d1/dd0/_node_manager_interface_8h.html" target="_top" xlink:title="&quot;NodeManagerInterface&quot; declares the interfaces for all NodeOperations that are used for the communica...">
<polygon fill="white" stroke="black" points="742,-78.5 742,-119.5 904,-119.5 904,-78.5 742,-78.5"/>
<text text-anchor="start" x="750" y="-107.5" font-family="Helvetica,sans-Serif" font-size="10.00">/media/kavonszadkowski</text>
<text text-anchor="start" x="750" y="-96.5" font-family="Helvetica,sans-Serif" font-size="10.00">/work/marsdocs/mars/interfaces</text>
<text text-anchor="middle" x="823" y="-85.5" font-family="Helvetica,sans-Serif" font-size="10.00">/src/sim/NodeManagerInterface.h</text>
</a>
</g>
</g>
<!-- Node1&#45;&gt;Node9 -->
<g id="edge8" class="edge"><title>Node1&#45;&gt;Node9</title>
<path fill="none" stroke="midnightblue" d="M558.52,-157.212C609.305,-146.4 674.254,-132.517 732,-120 735.162,-119.315 738.385,-118.614 741.64,-117.906"/>
<polygon fill="midnightblue" stroke="midnightblue" points="557.61,-153.828 548.558,-159.333 559.068,-160.674 557.61,-153.828"/>
</g>
<!-- Node4 -->
<g id="node4" class="node"><title>Node4</title>
<g id="a_node4"><a xlink:href="../../df/d7f/_joint_data_8cpp.html" target="_top" xlink:title="/media/kavonszadkowski\l/work/marsdocs/mars/interfaces\l/src/JointData.cpp">
<polygon fill="white" stroke="black" points="128.5,-0.5 128.5,-41.5 285.5,-41.5 285.5,-0.5 128.5,-0.5"/>
<text text-anchor="start" x="136.5" y="-29.5" font-family="Helvetica,sans-Serif" font-size="10.00">/media/kavonszadkowski</text>
<text text-anchor="start" x="136.5" y="-18.5" font-family="Helvetica,sans-Serif" font-size="10.00">/work/marsdocs/mars/interfaces</text>
<text text-anchor="middle" x="207" y="-7.5" font-family="Helvetica,sans-Serif" font-size="10.00">/src/JointData.cpp</text>
</a>
</g>
</g>
<!-- Node3&#45;&gt;Node4 -->
<g id="edge3" class="edge"><title>Node3&#45;&gt;Node4</title>
<path fill="none" stroke="midnightblue" d="M264.638,-71.7785C253.134,-61.8432 240.25,-50.7159 229.585,-41.5056"/>
<polygon fill="midnightblue" stroke="midnightblue" points="262.482,-74.5408 272.338,-78.4281 267.057,-69.243 262.482,-74.5408"/>
</g>
<!-- Node5 -->
<g id="node5" class="node"><title>Node5</title>
<g id="a_node5"><a xlink:href="../../de/d06/utils_8cpp.html" target="_top" xlink:title="/media/kavonszadkowski\l/work/marsdocs/mars/interfaces\l/src/utils.cpp">
<polygon fill="white" stroke="black" points="303.5,-0.5 303.5,-41.5 460.5,-41.5 460.5,-0.5 303.5,-0.5"/>
<text text-anchor="start" x="311.5" y="-29.5" font-family="Helvetica,sans-Serif" font-size="10.00">/media/kavonszadkowski</text>
<text text-anchor="start" x="311.5" y="-18.5" font-family="Helvetica,sans-Serif" font-size="10.00">/work/marsdocs/mars/interfaces</text>
<text text-anchor="middle" x="382" y="-7.5" font-family="Helvetica,sans-Serif" font-size="10.00">/src/utils.cpp</text>
</a>
</g>
</g>
<!-- Node3&#45;&gt;Node5 -->
<g id="edge4" class="edge"><title>Node3&#45;&gt;Node5</title>
<path fill="none" stroke="midnightblue" d="M325.017,-71.7785C336.39,-61.8432 349.128,-50.7159 359.671,-41.5056"/>
<polygon fill="midnightblue" stroke="midnightblue" points="322.633,-69.2133 317.405,-78.4281 327.238,-74.4851 322.633,-69.2133"/>
</g>
<!-- Node8 -->
<g id="node8" class="node"><title>Node8</title>
<g id="a_node8"><a xlink:href="../../db/d35/_joint_interface_8h.html" target="_top" xlink:title="/media/kavonszadkowski\l/work/marsdocs/mars/interfaces\l/src/sim/JointInterface.h">
<polygon fill="white" stroke="black" points="566.5,-0.5 566.5,-41.5 723.5,-41.5 723.5,-0.5 566.5,-0.5"/>
<text text-anchor="start" x="574.5" y="-29.5" font-family="Helvetica,sans-Serif" font-size="10.00">/media/kavonszadkowski</text>
<text text-anchor="start" x="574.5" y="-18.5" font-family="Helvetica,sans-Serif" font-size="10.00">/work/marsdocs/mars/interfaces</text>
<text text-anchor="middle" x="645" y="-7.5" font-family="Helvetica,sans-Serif" font-size="10.00">/src/sim/JointInterface.h</text>
</a>
</g>
</g>
<!-- Node7&#45;&gt;Node8 -->
<g id="edge7" class="edge"><title>Node7&#45;&gt;Node8</title>
<path fill="none" stroke="midnightblue" d="M645,-68.2965C645,-59.3009 645,-49.6532 645,-41.5056"/>
<polygon fill="midnightblue" stroke="midnightblue" points="641.5,-68.4281 645,-78.4281 648.5,-68.4281 641.5,-68.4281"/>
</g>
</g>
</svg>
