<?xml version="1.0" encoding="UTF-8" standalone="no"?>
<!DOCTYPE svg PUBLIC "-//W3C//DTD SVG 1.1//EN"
 "http://www.w3.org/Graphics/SVG/1.1/DTD/svg11.dtd">
<!-- Generated by graphviz version 2.26.3 (20100126.1600)
 -->
<!-- Title: /home/kavonszadkowski/limes&#45;dev/simulation/mars/interfaces/src/NodeData.h Pages: 1 -->
<svg width="774pt" height="252pt"
 viewBox="0.00 0.00 774.00 252.00" xmlns="http://www.w3.org/2000/svg" xmlns:xlink="http://www.w3.org/1999/xlink">
<g id="graph1" class="graph" transform="scale(1 1) rotate(0) translate(4 248)">
<title>/home/kavonszadkowski/limes&#45;dev/simulation/mars/interfaces/src/NodeData.h</title>
<polygon fill="white" stroke="white" points="-4,5 -4,-248 771,-248 771,5 -4,5"/>
<!-- Node1 -->
<g id="node1" class="node"><title>Node1</title>
<polygon fill="#bfbfbf" stroke="black" points="315.5,-196.5 315.5,-243.5 474.5,-243.5 474.5,-196.5 315.5,-196.5"/>
<text text-anchor="start" x="323.5" y="-230.5" font-family="Helvetica,sans-Serif" font-size="10.00">/home/kavonszadkowski</text>
<text text-anchor="start" x="323.5" y="-217.5" font-family="Helvetica,sans-Serif" font-size="10.00">/limes&#45;dev/simulation</text>
<text text-anchor="middle" x="395" y="-204.5" font-family="Helvetica,sans-Serif" font-size="10.00">/mars/interfaces/src/NodeData.h</text>
</g>
<!-- Node2 -->
<g id="node3" class="node"><title>Node2</title>
<a xlink:href="../../d7/d84/_graphics_manager_interface_8h.html" target="_top" xlink:title="/home/kavonszadkowski\l/limes&#45;dev/simulation\l/mars/interfaces/src/graphics\l/GraphicsManagerInterface.h">
<polygon fill="white" stroke="black" points="-0.5,-99 -0.5,-159 142.5,-159 142.5,-99 -0.5,-99"/>
<text text-anchor="start" x="7.5" y="-146" font-family="Helvetica,sans-Serif" font-size="10.00">/home/kavonszadkowski</text>
<text text-anchor="start" x="7.5" y="-133" font-family="Helvetica,sans-Serif" font-size="10.00">/limes&#45;dev/simulation</text>
<text text-anchor="start" x="7.5" y="-120" font-family="Helvetica,sans-Serif" font-size="10.00">/mars/interfaces/src/graphics</text>
<text text-anchor="middle" x="71" y="-107" font-family="Helvetica,sans-Serif" font-size="10.00">/GraphicsManagerInterface.h</text>
</a>
</g>
<!-- Node1&#45;&gt;Node2 -->
<g id="edge2" class="edge"><title>Node1&#45;&gt;Node2</title>
<path fill="none" stroke="midnightblue" d="M305.691,-200.94C259.174,-190.285 201.591,-175.95 151,-160 148.301,-159.149 145.562,-158.254 142.803,-157.325"/>
<polygon fill="midnightblue" stroke="midnightblue" points="304.915,-204.353 315.443,-203.158 306.467,-197.527 304.915,-204.353"/>
</g>
<!-- Node3 -->
<g id="node5" class="node"><title>Node3</title>
<a xlink:href="../../d5/d60/utils_8h.html" target="_top" xlink:title="/home/kavonszadkowski\l/limes&#45;dev/simulation\l/mars/interfaces/src/utils.h">
<polygon fill="white" stroke="black" points="159.5,-105.5 159.5,-152.5 292.5,-152.5 292.5,-105.5 159.5,-105.5"/>
<text text-anchor="start" x="167.5" y="-139.5" font-family="Helvetica,sans-Serif" font-size="10.00">/home/kavonszadkowski</text>
<text text-anchor="start" x="167.5" y="-126.5" font-family="Helvetica,sans-Serif" font-size="10.00">/limes&#45;dev/simulation</text>
<text text-anchor="middle" x="226" y="-113.5" font-family="Helvetica,sans-Serif" font-size="10.00">/mars/interfaces/src/utils.h</text>
</a>
</g>
<!-- Node1&#45;&gt;Node3 -->
<g id="edge4" class="edge"><title>Node1&#45;&gt;Node3</title>
<path fill="none" stroke="midnightblue" d="M342,-191.462C318.761,-178.948 291.812,-164.437 269.741,-152.553"/>
<polygon fill="midnightblue" stroke="midnightblue" points="340.574,-194.669 351.038,-196.328 343.893,-188.506 340.574,-194.669"/>
</g>
<!-- Node6 -->
<g id="node11" class="node"><title>Node6</title>
<a xlink:href="../../d2/db6/_node_data_8cpp.html" target="_top" xlink:title="/home/kavonszadkowski\l/limes&#45;dev/simulation\l/mars/interfaces/src/NodeData.cpp">
<polygon fill="white" stroke="black" points="310,-105.5 310,-152.5 480,-152.5 480,-105.5 310,-105.5"/>
<text text-anchor="start" x="318" y="-139.5" font-family="Helvetica,sans-Serif" font-size="10.00">/home/kavonszadkowski</text>
<text text-anchor="start" x="318" y="-126.5" font-family="Helvetica,sans-Serif" font-size="10.00">/limes&#45;dev/simulation</text>
<text text-anchor="middle" x="395" y="-113.5" font-family="Helvetica,sans-Serif" font-size="10.00">/mars/interfaces/src/NodeData.cpp</text>
</a>
</g>
<!-- Node1&#45;&gt;Node6 -->
<g id="edge10" class="edge"><title>Node1&#45;&gt;Node6</title>
<path fill="none" stroke="midnightblue" d="M395,-185.895C395,-174.858 395,-162.866 395,-152.749"/>
<polygon fill="midnightblue" stroke="midnightblue" points="391.5,-186.091 395,-196.091 398.5,-186.091 391.5,-186.091"/>
</g>
<!-- Node7 -->
<g id="node13" class="node"><title>Node7</title>
<a xlink:href="../../d0/ddf/_node_interface_8h.html" target="_top" xlink:title="&quot;NodeInterface&quot; declares the interfaces for the Nodes to the physical layer. ">
<polygon fill="white" stroke="black" points="497.5,-99 497.5,-159 622.5,-159 622.5,-99 497.5,-99"/>
<text text-anchor="start" x="505.5" y="-146" font-family="Helvetica,sans-Serif" font-size="10.00">/home/kavonszadkowski</text>
<text text-anchor="start" x="505.5" y="-133" font-family="Helvetica,sans-Serif" font-size="10.00">/limes&#45;dev/simulation</text>
<text text-anchor="start" x="505.5" y="-120" font-family="Helvetica,sans-Serif" font-size="10.00">/mars/interfaces/src/sim</text>
<text text-anchor="middle" x="560" y="-107" font-family="Helvetica,sans-Serif" font-size="10.00">/NodeInterface.h</text>
</a>
</g>
<!-- Node1&#45;&gt;Node7 -->
<g id="edge12" class="edge"><title>Node1&#45;&gt;Node7</title>
<path fill="none" stroke="midnightblue" d="M446.858,-191.399C465.504,-181.116 486.584,-169.49 505.451,-159.085"/>
<polygon fill="midnightblue" stroke="midnightblue" points="444.987,-188.434 437.921,-196.328 448.368,-194.564 444.987,-188.434"/>
</g>
<!-- Node9 -->
<g id="node17" class="node"><title>Node9</title>
<a xlink:href="../../d1/dd0/_node_manager_interface_8h.html" target="_top" xlink:title="&quot;NodeManagerInterface&quot; declares the interfaces for all NodeOperations that are used for the communica...">
<polygon fill="white" stroke="black" points="639.5,-99 639.5,-159 766.5,-159 766.5,-99 639.5,-99"/>
<text text-anchor="start" x="647.5" y="-146" font-family="Helvetica,sans-Serif" font-size="10.00">/home/kavonszadkowski</text>
<text text-anchor="start" x="647.5" y="-133" font-family="Helvetica,sans-Serif" font-size="10.00">/limes&#45;dev/simulation</text>
<text text-anchor="start" x="647.5" y="-120" font-family="Helvetica,sans-Serif" font-size="10.00">/mars/interfaces/src/sim</text>
<text text-anchor="middle" x="703" y="-107" font-family="Helvetica,sans-Serif" font-size="10.00">/NodeManagerInterface.h</text>
</a>
</g>
<!-- Node1&#45;&gt;Node9 -->
<g id="edge16" class="edge"><title>Node1&#45;&gt;Node9</title>
<path fill="none" stroke="midnightblue" d="M484.502,-200.756C529.026,-190.299 583.37,-176.196 631,-160 633.706,-159.08 636.452,-158.102 639.214,-157.083"/>
<polygon fill="midnightblue" stroke="midnightblue" points="483.523,-197.39 474.576,-203.065 485.109,-204.208 483.523,-197.39"/>
</g>
<!-- Node4 -->
<g id="node7" class="node"><title>Node4</title>
<a xlink:href="../../df/d7f/_joint_data_8cpp.html" target="_top" xlink:title="/home/kavonszadkowski\l/limes&#45;dev/simulation\l/mars/interfaces/src/JointData.cpp">
<polygon fill="white" stroke="black" points="56.5,-7.5 56.5,-54.5 223.5,-54.5 223.5,-7.5 56.5,-7.5"/>
<text text-anchor="start" x="64.5" y="-41.5" font-family="Helvetica,sans-Serif" font-size="10.00">/home/kavonszadkowski</text>
<text text-anchor="start" x="64.5" y="-28.5" font-family="Helvetica,sans-Serif" font-size="10.00">/limes&#45;dev/simulation</text>
<text text-anchor="middle" x="140" y="-15.5" font-family="Helvetica,sans-Serif" font-size="10.00">/mars/interfaces/src/JointData.cpp</text>
</a>
</g>
<!-- Node3&#45;&gt;Node4 -->
<g id="edge6" class="edge"><title>Node3&#45;&gt;Node4</title>
<path fill="none" stroke="midnightblue" d="M198.579,-97.7533C186.275,-83.7321 172.003,-67.4683 160.626,-54.5046"/>
<polygon fill="midnightblue" stroke="midnightblue" points="195.955,-100.069 205.182,-105.277 201.217,-95.4521 195.955,-100.069"/>
</g>
<!-- Node5 -->
<g id="node9" class="node"><title>Node5</title>
<a xlink:href="../../de/d06/utils_8cpp.html" target="_top" xlink:title="/home/kavonszadkowski\l/limes&#45;dev/simulation\l/mars/interfaces/src/utils.cpp">
<polygon fill="white" stroke="black" points="240.5,-7.5 240.5,-54.5 383.5,-54.5 383.5,-7.5 240.5,-7.5"/>
<text text-anchor="start" x="248.5" y="-41.5" font-family="Helvetica,sans-Serif" font-size="10.00">/home/kavonszadkowski</text>
<text text-anchor="start" x="248.5" y="-28.5" font-family="Helvetica,sans-Serif" font-size="10.00">/limes&#45;dev/simulation</text>
<text text-anchor="middle" x="312" y="-15.5" font-family="Helvetica,sans-Serif" font-size="10.00">/mars/interfaces/src/utils.cpp</text>
</a>
</g>
<!-- Node3&#45;&gt;Node5 -->
<g id="edge8" class="edge"><title>Node3&#45;&gt;Node5</title>
<path fill="none" stroke="midnightblue" d="M253.421,-97.7533C265.725,-83.7321 279.997,-67.4683 291.374,-54.5046"/>
<polygon fill="midnightblue" stroke="midnightblue" points="250.783,-95.4521 246.818,-105.277 256.045,-100.069 250.783,-95.4521"/>
</g>
<!-- Node8 -->
<g id="node15" class="node"><title>Node8</title>
<a xlink:href="../../db/d35/_joint_interface_8h.html" target="_top" xlink:title="/home/kavonszadkowski\l/limes&#45;dev/simulation\l/mars/interfaces/src/sim\l/JointInterface.h">
<polygon fill="white" stroke="black" points="497.5,-1 497.5,-61 622.5,-61 622.5,-1 497.5,-1"/>
<text text-anchor="start" x="505.5" y="-48" font-family="Helvetica,sans-Serif" font-size="10.00">/home/kavonszadkowski</text>
<text text-anchor="start" x="505.5" y="-35" font-family="Helvetica,sans-Serif" font-size="10.00">/limes&#45;dev/simulation</text>
<text text-anchor="start" x="505.5" y="-22" font-family="Helvetica,sans-Serif" font-size="10.00">/mars/interfaces/src/sim</text>
<text text-anchor="middle" x="560" y="-9" font-family="Helvetica,sans-Serif" font-size="10.00">/JointInterface.h</text>
</a>
</g>
<!-- Node7&#45;&gt;Node8 -->
<g id="edge14" class="edge"><title>Node7&#45;&gt;Node8</title>
<path fill="none" stroke="midnightblue" d="M560,-88.6956C560,-79.5273 560,-69.9394 560,-61.2718"/>
<polygon fill="midnightblue" stroke="midnightblue" points="556.5,-88.7971 560,-98.7971 563.5,-88.7972 556.5,-88.7971"/>
</g>
</g>
</svg>
