<?xml version="1.0" encoding="UTF-8" standalone="no"?>
<!DOCTYPE svg PUBLIC "-//W3C//DTD SVG 1.1//EN"
 "http://www.w3.org/Graphics/SVG/1.1/DTD/svg11.dtd">
<!-- Generated by graphviz version 2.36.0 (20140111.2315)
 -->
<!-- Title: /media/kavonszadkowski/work/marsdocs/mars/plugins/TerrainPlugin/src/TerrainPlugin.cpp Pages: 1 -->
<svg width="767pt" height="186pt"
 viewBox="0.00 0.00 767.00 186.00" xmlns="http://www.w3.org/2000/svg" xmlns:xlink="http://www.w3.org/1999/xlink">
<g id="graph0" class="graph" transform="scale(1 1) rotate(0) translate(4 182)">
<title>/media/kavonszadkowski/work/marsdocs/mars/plugins/TerrainPlugin/src/TerrainPlugin.cpp</title>
<polygon fill="white" stroke="none" points="-4,4 -4,-182 763,-182 763,4 -4,4"/>
<!-- Node1 -->
<g id="node1" class="node"><title>Node1</title>
<polygon fill="#bfbfbf" stroke="black" points="491,-136.5 491,-177.5 663,-177.5 663,-136.5 491,-136.5"/>
<text text-anchor="start" x="499" y="-165.5" font-family="Helvetica,sans-Serif" font-size="10.00">/media/kavonszadkowski</text>
<text text-anchor="start" x="499" y="-154.5" font-family="Helvetica,sans-Serif" font-size="10.00">/work/marsdocs/mars/plugins</text>
<text text-anchor="middle" x="577" y="-143.5" font-family="Helvetica,sans-Serif" font-size="10.00">/TerrainPlugin/src/TerrainPlugin.cpp</text>
</g>
<!-- Node2 -->
<g id="node2" class="node"><title>Node2</title>
<g id="a_node2"><a xlink:href="../../df/da7/_terrain_plugin_8h.html" target="_top" xlink:title="SkyDom. ">
<polygon fill="white" stroke="black" points="405,-74.5 405,-93.5 487,-93.5 487,-74.5 405,-74.5"/>
<text text-anchor="middle" x="446" y="-81.5" font-family="Helvetica,sans-Serif" font-size="10.00">TerrainPlugin.h</text>
</a>
</g>
</g>
<!-- Node1&#45;&gt;Node2 -->
<g id="edge1" class="edge"><title>Node1&#45;&gt;Node2</title>
<path fill="none" stroke="midnightblue" d="M540.857,-136.411C518.599,-124.347 490.637,-109.193 470.855,-98.4711"/>
<polygon fill="midnightblue" stroke="midnightblue" points="472.321,-95.2848 461.862,-93.5968 468.986,-101.439 472.321,-95.2848"/>
</g>
<!-- Node9 -->
<g id="node9" class="node"><title>Node9</title>
<polygon fill="white" stroke="#bfbfbf" points="505.5,-69 505.5,-99 648.5,-99 648.5,-69 505.5,-69"/>
<text text-anchor="start" x="513.5" y="-87" font-family="Helvetica,sans-Serif" font-size="10.00">mars/interfaces/graphics</text>
<text text-anchor="middle" x="577" y="-76" font-family="Helvetica,sans-Serif" font-size="10.00">/GraphicsManagerInterface.h</text>
</g>
<!-- Node1&#45;&gt;Node9 -->
<g id="edge8" class="edge"><title>Node1&#45;&gt;Node9</title>
<path fill="none" stroke="midnightblue" d="M577,-136.223C577,-127.821 577,-117.948 577,-109.123"/>
<polygon fill="midnightblue" stroke="midnightblue" points="580.5,-109.048 577,-99.0485 573.5,-109.049 580.5,-109.048"/>
</g>
<!-- Node10 -->
<g id="node10" class="node"><title>Node10</title>
<polygon fill="white" stroke="#bfbfbf" points="667,-74.5 667,-93.5 759,-93.5 759,-74.5 667,-74.5"/>
<text text-anchor="middle" x="713" y="-81.5" font-family="Helvetica,sans-Serif" font-size="10.00">mars/utils/misc.h</text>
</g>
<!-- Node1&#45;&gt;Node10 -->
<g id="edge9" class="edge"><title>Node1&#45;&gt;Node10</title>
<path fill="none" stroke="midnightblue" d="M614.523,-136.411C637.736,-124.292 666.923,-109.055 687.476,-98.3252"/>
<polygon fill="midnightblue" stroke="midnightblue" points="689.288,-101.327 696.533,-93.5968 686.048,-95.1221 689.288,-101.327"/>
</g>
<!-- Node3 -->
<g id="node3" class="node"><title>Node3</title>
<polygon fill="white" stroke="#bfbfbf" points="-0.5,-1 -0.5,-31 116.5,-31 116.5,-1 -0.5,-1"/>
<text text-anchor="start" x="7.5" y="-19" font-family="Helvetica,sans-Serif" font-size="10.00">mars/interfaces/sim</text>
<text text-anchor="middle" x="58" y="-8" font-family="Helvetica,sans-Serif" font-size="10.00">/MarsPluginTemplate.h</text>
</g>
<!-- Node2&#45;&gt;Node3 -->
<g id="edge2" class="edge"><title>Node2&#45;&gt;Node3</title>
<path fill="none" stroke="midnightblue" d="M404.949,-77.2498C345.775,-68.7873 232.864,-51.9926 126.501,-32.0269"/>
<polygon fill="midnightblue" stroke="midnightblue" points="127.036,-28.5662 116.56,-30.1478 125.736,-35.4444 127.036,-28.5662"/>
</g>
<!-- Node4 -->
<g id="node4" class="node"><title>Node4</title>
<polygon fill="white" stroke="#bfbfbf" points="135,-6.5 135,-25.5 281,-25.5 281,-6.5 135,-6.5"/>
<text text-anchor="middle" x="208" y="-13.5" font-family="Helvetica,sans-Serif" font-size="10.00">mars/interfaces/MARSDefs.h</text>
</g>
<!-- Node2&#45;&gt;Node4 -->
<g id="edge3" class="edge"><title>Node2&#45;&gt;Node4</title>
<path fill="none" stroke="midnightblue" d="M414.886,-74.3717C372.274,-62.5549 295.693,-41.3181 248.608,-28.261"/>
<polygon fill="midnightblue" stroke="midnightblue" points="249.316,-24.8255 238.745,-25.5259 247.446,-31.5709 249.316,-24.8255"/>
</g>
<!-- Node5 -->
<g id="node5" class="node"><title>Node5</title>
<polygon fill="white" stroke="#bfbfbf" points="299,-1 299,-31 439,-31 439,-1 299,-1"/>
<text text-anchor="start" x="307" y="-19" font-family="Helvetica,sans-Serif" font-size="10.00">mars/osg_material_manager</text>
<text text-anchor="middle" x="369" y="-8" font-family="Helvetica,sans-Serif" font-size="10.00">/OsgMaterialManager.h</text>
</g>
<!-- Node2&#45;&gt;Node5 -->
<g id="edge4" class="edge"><title>Node2&#45;&gt;Node5</title>
<path fill="none" stroke="midnightblue" d="M435.934,-74.3717C425.133,-65.1143 407.588,-50.0756 393.17,-37.7175"/>
<polygon fill="midnightblue" stroke="midnightblue" points="395.415,-35.032 385.545,-31.1815 390.86,-40.3468 395.415,-35.032"/>
</g>
<!-- Node6 -->
<g id="node6" class="node"><title>Node6</title>
<polygon fill="white" stroke="#bfbfbf" points="457.5,-6.5 457.5,-25.5 588.5,-25.5 588.5,-6.5 457.5,-6.5"/>
<text text-anchor="middle" x="523" y="-13.5" font-family="Helvetica,sans-Serif" font-size="10.00">mars/osg_terrain/Terrain.h</text>
</g>
<!-- Node2&#45;&gt;Node6 -->
<g id="edge5" class="edge"><title>Node2&#45;&gt;Node6</title>
<path fill="none" stroke="midnightblue" d="M456.066,-74.3717C468.449,-63.7581 489.697,-45.5453 504.934,-32.4855"/>
<polygon fill="midnightblue" stroke="midnightblue" points="507.371,-35.0065 512.685,-25.8411 502.815,-29.6917 507.371,-35.0065"/>
</g>
<!-- Node7 -->
<g id="node7" class="node"><title>Node7</title>
<polygon fill="white" stroke="#bfbfbf" points="607,-6.5 607,-25.5 669,-25.5 669,-6.5 607,-6.5"/>
<text text-anchor="middle" x="638" y="-13.5" font-family="Helvetica,sans-Serif" font-size="10.00">osg/Group</text>
</g>
<!-- Node2&#45;&gt;Node7 -->
<g id="edge6" class="edge"><title>Node2&#45;&gt;Node7</title>
<path fill="none" stroke="midnightblue" d="M471.986,-74.4428C502.127,-64.4662 553.278,-47.3786 597,-32 599.748,-31.0333 602.596,-30.0188 605.45,-28.9925"/>
<polygon fill="midnightblue" stroke="midnightblue" points="606.843,-32.2105 615.051,-25.5108 604.457,-25.6299 606.843,-32.2105"/>
</g>
<!-- Node8 -->
<g id="node8" class="node"><title>Node8</title>
<polygon fill="white" stroke="#bfbfbf" points="687.5,-6.5 687.5,-25.5 728.5,-25.5 728.5,-6.5 687.5,-6.5"/>
<text text-anchor="middle" x="708" y="-13.5" font-family="Helvetica,sans-Serif" font-size="10.00">string</text>
</g>
<!-- Node2&#45;&gt;Node8 -->
<g id="edge7" class="edge"><title>Node2&#45;&gt;Node8</title>
<path fill="none" stroke="midnightblue" d="M473.405,-74.4546C481.009,-72.2162 489.294,-69.9 497,-68 576.212,-48.4706 599.661,-57.9755 677,-32 678.913,-31.3575 680.86,-30.6238 682.8,-29.8339"/>
<polygon fill="midnightblue" stroke="midnightblue" points="684.557,-32.8811 692.235,-25.5806 681.68,-26.4995 684.557,-32.8811"/>
</g>
</g>
</svg>
