<?xml version="1.0" encoding="UTF-8" standalone="no"?>
<!DOCTYPE svg PUBLIC "-//W3C//DTD SVG 1.1//EN"
 "http://www.w3.org/Graphics/SVG/1.1/DTD/svg11.dtd">
<!-- Generated by graphviz version 2.26.3 (20100126.1600)
 -->
<!-- Title: /home/kavonszadkowski/limes&#45;dev/simulation/mars/interfaces/src/cameraStruct.h Pages: 1 -->
<svg width="215pt" height="350pt"
 viewBox="0.00 0.00 215.00 350.00" xmlns="http://www.w3.org/2000/svg" xmlns:xlink="http://www.w3.org/1999/xlink">
<g id="graph1" class="graph" transform="scale(1 1) rotate(0) translate(4 346)">
<title>/home/kavonszadkowski/limes&#45;dev/simulation/mars/interfaces/src/cameraStruct.h</title>
<polygon fill="white" stroke="white" points="-4,5 -4,-346 212,-346 212,5 -4,5"/>
<!-- Node1 -->
<g id="node1" class="node"><title>Node1</title>
<polygon fill="#bfbfbf" stroke="black" points="-0.5,-294.5 -0.5,-341.5 172.5,-341.5 172.5,-294.5 -0.5,-294.5"/>
<text text-anchor="start" x="7.5" y="-328.5" font-family="Helvetica,sans-Serif" font-size="10.00">/home/kavonszadkowski</text>
<text text-anchor="start" x="7.5" y="-315.5" font-family="Helvetica,sans-Serif" font-size="10.00">/limes&#45;dev/simulation</text>
<text text-anchor="middle" x="86" y="-302.5" font-family="Helvetica,sans-Serif" font-size="10.00">/mars/interfaces/src/cameraStruct.h</text>
</g>
<!-- Node2 -->
<g id="node3" class="node"><title>Node2</title>
<a xlink:href="../../d5/df7/_graphics_camera_interface_8h.html" target="_top" xlink:title="/home/kavonszadkowski\l/limes&#45;dev/simulation\l/mars/interfaces/src/graphics\l/GraphicsCameraInterface.h">
<polygon fill="white" stroke="black" points="14.5,-197 14.5,-257 157.5,-257 157.5,-197 14.5,-197"/>
<text text-anchor="start" x="22.5" y="-244" font-family="Helvetica,sans-Serif" font-size="10.00">/home/kavonszadkowski</text>
<text text-anchor="start" x="22.5" y="-231" font-family="Helvetica,sans-Serif" font-size="10.00">/limes&#45;dev/simulation</text>
<text text-anchor="start" x="22.5" y="-218" font-family="Helvetica,sans-Serif" font-size="10.00">/mars/interfaces/src/graphics</text>
<text text-anchor="middle" x="86" y="-205" font-family="Helvetica,sans-Serif" font-size="10.00">/GraphicsCameraInterface.h</text>
</a>
</g>
<!-- Node1&#45;&gt;Node2 -->
<g id="edge2" class="edge"><title>Node1&#45;&gt;Node2</title>
<path fill="none" stroke="midnightblue" d="M86,-283.836C86,-275.11 86,-265.79 86,-257.274"/>
<polygon fill="midnightblue" stroke="midnightblue" points="82.5001,-284.091 86,-294.091 89.5001,-284.091 82.5001,-284.091"/>
</g>
<!-- Node3 -->
<g id="node5" class="node"><title>Node3</title>
<a xlink:href="../../d7/d84/_graphics_manager_interface_8h.html" target="_top" xlink:title="/home/kavonszadkowski\l/limes&#45;dev/simulation\l/mars/interfaces/src/graphics\l/GraphicsManagerInterface.h">
<polygon fill="white" stroke="black" points="14.5,-1 14.5,-61 157.5,-61 157.5,-1 14.5,-1"/>
<text text-anchor="start" x="22.5" y="-48" font-family="Helvetica,sans-Serif" font-size="10.00">/home/kavonszadkowski</text>
<text text-anchor="start" x="22.5" y="-35" font-family="Helvetica,sans-Serif" font-size="10.00">/limes&#45;dev/simulation</text>
<text text-anchor="start" x="22.5" y="-22" font-family="Helvetica,sans-Serif" font-size="10.00">/mars/interfaces/src/graphics</text>
<text text-anchor="middle" x="86" y="-9" font-family="Helvetica,sans-Serif" font-size="10.00">/GraphicsManagerInterface.h</text>
</a>
</g>
<!-- Node2&#45;&gt;Node3 -->
<g id="edge4" class="edge"><title>Node2&#45;&gt;Node3</title>
<path fill="none" stroke="midnightblue" d="M65.0851,-187.605C61.3241,-178.756 57.9752,-169.244 56,-160 50.2424,-133.053 50.2424,-124.947 56,-98 58.6896,-85.4119 63.9266,-72.3277 69.2822,-61.0983"/>
<polygon fill="midnightblue" stroke="midnightblue" points="61.9775,-189.228 69.2822,-196.902 68.3575,-186.347 61.9775,-189.228"/>
</g>
<!-- Node4 -->
<g id="node7" class="node"><title>Node4</title>
<a xlink:href="../../de/d43/_graphics_window_interface_8h.html" target="_top" xlink:title="&quot;GraphicsWindowInterface&quot; ">
<polygon fill="white" stroke="black" points="64.5,-99 64.5,-159 207.5,-159 207.5,-99 64.5,-99"/>
<text text-anchor="start" x="72.5" y="-146" font-family="Helvetica,sans-Serif" font-size="10.00">/home/kavonszadkowski</text>
<text text-anchor="start" x="72.5" y="-133" font-family="Helvetica,sans-Serif" font-size="10.00">/limes&#45;dev/simulation</text>
<text text-anchor="start" x="72.5" y="-120" font-family="Helvetica,sans-Serif" font-size="10.00">/mars/interfaces/src/graphics</text>
<text text-anchor="middle" x="136" y="-107" font-family="Helvetica,sans-Serif" font-size="10.00">/GraphicsWindowInterface.h</text>
</a>
</g>
<!-- Node2&#45;&gt;Node4 -->
<g id="edge6" class="edge"><title>Node2&#45;&gt;Node4</title>
<path fill="none" stroke="midnightblue" d="M105.961,-187.876C110.82,-178.354 115.943,-168.312 120.555,-159.272"/>
<polygon fill="midnightblue" stroke="midnightblue" points="102.837,-186.299 101.41,-196.797 109.072,-189.48 102.837,-186.299"/>
</g>
<!-- Node4&#45;&gt;Node3 -->
<g id="edge8" class="edge"><title>Node4&#45;&gt;Node3</title>
<path fill="none" stroke="midnightblue" d="M116.039,-89.8761C111.18,-80.3537 106.057,-70.3122 101.445,-61.2718"/>
<polygon fill="midnightblue" stroke="midnightblue" points="112.928,-91.4802 120.59,-98.7971 119.163,-88.2988 112.928,-91.4802"/>
</g>
</g>
</svg>
