<?xml version="1.0" encoding="UTF-8" standalone="no"?>
<!DOCTYPE svg PUBLIC "-//W3C//DTD SVG 1.1//EN"
 "http://www.w3.org/Graphics/SVG/1.1/DTD/svg11.dtd">
<!-- Generated by graphviz version 2.26.3 (20100126.1600)
 -->
<!-- Title: /home/kavonszadkowski/limes&#45;dev/simulation/mars/plugins/mars_plugin_collection/db_adrf_receiver/src/DBADRFReceiver.h Pages: 1 -->
<svg width="624pt" height="154pt"
 viewBox="0.00 0.00 624.00 154.00" xmlns="http://www.w3.org/2000/svg" xmlns:xlink="http://www.w3.org/1999/xlink">
<g id="graph1" class="graph" transform="scale(1 1) rotate(0) translate(4 150)">
<title>/home/kavonszadkowski/limes&#45;dev/simulation/mars/plugins/mars_plugin_collection/db_adrf_receiver/src/DBADRFReceiver.h</title>
<polygon fill="white" stroke="white" points="-4,5 -4,-150 621,-150 621,5 -4,5"/>
<!-- Node1 -->
<g id="node1" class="node"><title>Node1</title>
<polygon fill="#bfbfbf" stroke="black" points="285,-72.5 285,-145.5 423,-145.5 423,-72.5 285,-72.5"/>
<text text-anchor="start" x="293" y="-132.5" font-family="Helvetica,sans-Serif" font-size="10.00">/home/kavonszadkowski</text>
<text text-anchor="start" x="293" y="-119.5" font-family="Helvetica,sans-Serif" font-size="10.00">/limes&#45;dev/simulation</text>
<text text-anchor="start" x="293" y="-106.5" font-family="Helvetica,sans-Serif" font-size="10.00">/mars/plugins/mars_plugin</text>
<text text-anchor="start" x="293" y="-93.5" font-family="Helvetica,sans-Serif" font-size="10.00">_collection/db_adrf_receiver</text>
<text text-anchor="middle" x="354" y="-80.5" font-family="Helvetica,sans-Serif" font-size="10.00">/src/DBADRFReceiver.h</text>
</g>
<!-- Node2 -->
<g id="node3" class="node"><title>Node2</title>
<polygon fill="white" stroke="#bfbfbf" points="-0.5,-1 -0.5,-35 116.5,-35 116.5,-1 -0.5,-1"/>
<text text-anchor="start" x="7.5" y="-22" font-family="Helvetica,sans-Serif" font-size="10.00">mars/interfaces/sim</text>
<text text-anchor="middle" x="58" y="-9" font-family="Helvetica,sans-Serif" font-size="10.00">/MarsPluginTemplate.h</text>
</g>
<!-- Node1&#45;&gt;Node2 -->
<g id="edge2" class="edge"><title>Node1&#45;&gt;Node2</title>
<path fill="none" stroke="midnightblue" d="M284.975,-87.7794C236.229,-72.7935 171.32,-52.8382 123.403,-38.1069"/>
<polygon fill="midnightblue" stroke="midnightblue" points="124.339,-34.7332 113.752,-35.14 122.282,-41.4241 124.339,-34.7332"/>
</g>
<!-- Node3 -->
<g id="node5" class="node"><title>Node3</title>
<polygon fill="white" stroke="#bfbfbf" points="134,-7.5 134,-28.5 280,-28.5 280,-7.5 134,-7.5"/>
<text text-anchor="middle" x="207" y="-15.5" font-family="Helvetica,sans-Serif" font-size="10.00">mars/interfaces/MARSDefs.h</text>
</g>
<!-- Node1&#45;&gt;Node3 -->
<g id="edge4" class="edge"><title>Node1&#45;&gt;Node3</title>
<path fill="none" stroke="midnightblue" d="M294.633,-72.2491C273.119,-58.9306 249.925,-44.5727 232.807,-33.9755"/>
<polygon fill="midnightblue" stroke="midnightblue" points="234.315,-30.7932 223.97,-28.5055 230.631,-36.745 234.315,-30.7932"/>
</g>
<!-- Node4 -->
<g id="node7" class="node"><title>Node4</title>
<polygon fill="white" stroke="#bfbfbf" points="298,-7.5 298,-28.5 410,-28.5 410,-7.5 298,-7.5"/>
<text text-anchor="middle" x="354" y="-15.5" font-family="Helvetica,sans-Serif" font-size="10.00">adrf/DBADRFClient.h</text>
</g>
<!-- Node1&#45;&gt;Node4 -->
<g id="edge6" class="edge"><title>Node1&#45;&gt;Node4</title>
<path fill="none" stroke="midnightblue" d="M354,-72.2491C354,-60.7804 354,-48.541 354,-38.5958"/>
<polygon fill="midnightblue" stroke="midnightblue" points="357.5,-38.5055 354,-28.5055 350.5,-38.5055 357.5,-38.5055"/>
</g>
<!-- Node5 -->
<g id="node9" class="node"><title>Node5</title>
<polygon fill="white" stroke="#bfbfbf" points="427.5,-7.5 427.5,-28.5 558.5,-28.5 558.5,-7.5 427.5,-7.5"/>
<text text-anchor="middle" x="493" y="-15.5" font-family="Helvetica,sans-Serif" font-size="10.00">adrf/DBADRFProcessor.h</text>
</g>
<!-- Node1&#45;&gt;Node5 -->
<g id="edge8" class="edge"><title>Node1&#45;&gt;Node5</title>
<path fill="none" stroke="midnightblue" d="M410.136,-72.2491C430.291,-59.0539 452.005,-44.8385 468.147,-34.2708"/>
<polygon fill="midnightblue" stroke="midnightblue" points="470.504,-36.9112 476.953,-28.5055 466.67,-31.0546 470.504,-36.9112"/>
</g>
<!-- Node6 -->
<g id="node11" class="node"><title>Node6</title>
<polygon fill="white" stroke="#bfbfbf" points="575.5,-7.5 575.5,-28.5 616.5,-28.5 616.5,-7.5 575.5,-7.5"/>
<text text-anchor="middle" x="596" y="-15.5" font-family="Helvetica,sans-Serif" font-size="10.00">string</text>
</g>
<!-- Node1&#45;&gt;Node6 -->
<g id="edge10" class="edge"><title>Node1&#45;&gt;Node6</title>
<path fill="none" stroke="midnightblue" d="M423.178,-89.6258C465.622,-76.6863 520.554,-58.0269 567,-36 568.546,-35.2668 570.112,-34.47 571.674,-33.6333"/>
<polygon fill="midnightblue" stroke="midnightblue" points="573.513,-36.6131 580.409,-28.5693 570.002,-30.5573 573.513,-36.6131"/>
</g>
</g>
</svg>
