<?xml version="1.0" encoding="UTF-8" standalone="no"?>
<!DOCTYPE svg PUBLIC "-//W3C//DTD SVG 1.1//EN"
 "http://www.w3.org/Graphics/SVG/1.1/DTD/svg11.dtd">
<!-- Generated by graphviz version 2.26.3 (20100126.1600)
 -->
<!-- Title: /home/kavonszadkowski/limes&#45;dev/simulation/mars/common/gui/main_gui/src/PropertyDialog.h Pages: 1 -->
<svg width="1024pt" height="128pt"
 viewBox="0.00 0.00 1024.00 128.00" xmlns="http://www.w3.org/2000/svg" xmlns:xlink="http://www.w3.org/1999/xlink">
<g id="graph1" class="graph" transform="scale(1 1) rotate(0) translate(4 124)">
<title>/home/kavonszadkowski/limes&#45;dev/simulation/mars/common/gui/main_gui/src/PropertyDialog.h</title>
<polygon fill="white" stroke="white" points="-4,5 -4,-124 1021,-124 1021,5 -4,5"/>
<!-- Node1 -->
<g id="node1" class="node"><title>Node1</title>
<polygon fill="#bfbfbf" stroke="black" points="559.5,-59 559.5,-119 686.5,-119 686.5,-59 559.5,-59"/>
<text text-anchor="start" x="567.5" y="-106" font-family="Helvetica,sans-Serif" font-size="10.00">/home/kavonszadkowski</text>
<text text-anchor="start" x="567.5" y="-93" font-family="Helvetica,sans-Serif" font-size="10.00">/limes&#45;dev/simulation</text>
<text text-anchor="start" x="567.5" y="-80" font-family="Helvetica,sans-Serif" font-size="10.00">/mars/common/gui/main</text>
<text text-anchor="middle" x="623" y="-67" font-family="Helvetica,sans-Serif" font-size="10.00">_gui/src/PropertyDialog.h</text>
</g>
<!-- Node2 -->
<g id="node3" class="node"><title>Node2</title>
<polygon fill="white" stroke="#bfbfbf" points="0,-0.5 0,-21.5 106,-21.5 106,-0.5 0,-0.5"/>
<text text-anchor="middle" x="53" y="-8.5" font-family="Helvetica,sans-Serif" font-size="10.00">qtpropertymanager.h</text>
</g>
<!-- Node1&#45;&gt;Node2 -->
<g id="edge2" class="edge"><title>Node1&#45;&gt;Node2</title>
<path fill="none" stroke="midnightblue" d="M559.115,-81.4988C464.68,-70.2059 282.031,-47.5831 116.451,-22.1758"/>
<polygon fill="midnightblue" stroke="midnightblue" points="116.491,-18.6406 106.074,-20.5763 115.424,-25.5589 116.491,-18.6406"/>
</g>
<!-- Node3 -->
<g id="node5" class="node"><title>Node3</title>
<polygon fill="white" stroke="#bfbfbf" points="123.5,-0.5 123.5,-21.5 242.5,-21.5 242.5,-0.5 123.5,-0.5"/>
<text text-anchor="middle" x="183" y="-8.5" font-family="Helvetica,sans-Serif" font-size="10.00">qttreepropertybrowser.h</text>
</g>
<!-- Node1&#45;&gt;Node3 -->
<g id="edge4" class="edge"><title>Node1&#45;&gt;Node3</title>
<path fill="none" stroke="midnightblue" d="M559.49,-77.7414C477.847,-63.2684 336.59,-38.2273 252.257,-23.2774"/>
<polygon fill="midnightblue" stroke="midnightblue" points="252.72,-19.805 242.263,-21.5057 251.498,-26.6975 252.72,-19.805"/>
</g>
<!-- Node4 -->
<g id="node7" class="node"><title>Node4</title>
<polygon fill="white" stroke="#bfbfbf" points="260,-0.5 260,-21.5 390,-21.5 390,-0.5 260,-0.5"/>
<text text-anchor="middle" x="325" y="-8.5" font-family="Helvetica,sans-Serif" font-size="10.00">qtbuttonpropertybrowser.h</text>
</g>
<!-- Node1&#45;&gt;Node4 -->
<g id="edge6" class="edge"><title>Node1&#45;&gt;Node4</title>
<path fill="none" stroke="midnightblue" d="M559.437,-72.3627C504.31,-57.9335 425.617,-37.3359 374.917,-24.0655"/>
<polygon fill="midnightblue" stroke="midnightblue" points="375.726,-20.6594 365.165,-21.5131 373.953,-27.4313 375.726,-20.6594"/>
</g>
<!-- Node5 -->
<g id="node9" class="node"><title>Node5</title>
<polygon fill="white" stroke="#bfbfbf" points="408,-0.5 408,-21.5 506,-21.5 506,-0.5 408,-0.5"/>
<text text-anchor="middle" x="457" y="-8.5" font-family="Helvetica,sans-Serif" font-size="10.00">qtvariantproperty.h</text>
</g>
<!-- Node1&#45;&gt;Node5 -->
<g id="edge8" class="edge"><title>Node1&#45;&gt;Node5</title>
<path fill="none" stroke="midnightblue" d="M559.295,-59.0662C535.094,-47.6948 508.576,-35.2347 488.605,-25.8507"/>
<polygon fill="midnightblue" stroke="midnightblue" points="489.905,-22.5943 479.366,-21.5093 486.928,-28.9298 489.905,-22.5943"/>
</g>
<!-- Node6 -->
<g id="node11" class="node"><title>Node6</title>
<polygon fill="white" stroke="#bfbfbf" points="524,-0.5 524,-21.5 616,-21.5 616,-0.5 524,-0.5"/>
<text text-anchor="middle" x="570" y="-8.5" font-family="Helvetica,sans-Serif" font-size="10.00">variantmanager.h</text>
</g>
<!-- Node1&#45;&gt;Node6 -->
<g id="edge10" class="edge"><title>Node1&#45;&gt;Node6</title>
<path fill="none" stroke="midnightblue" d="M602.357,-58.6198C595.868,-49.0702 588.886,-38.7947 583.075,-30.242"/>
<polygon fill="midnightblue" stroke="midnightblue" points="585.822,-28.0576 577.307,-21.7535 580.032,-31.9918 585.822,-28.0576"/>
</g>
<!-- Node7 -->
<g id="node13" class="node"><title>Node7</title>
<polygon fill="white" stroke="#bfbfbf" points="634,-0.5 634,-21.5 718,-21.5 718,-0.5 634,-0.5"/>
<text text-anchor="middle" x="676" y="-8.5" font-family="Helvetica,sans-Serif" font-size="10.00">variantfactory.h</text>
</g>
<!-- Node1&#45;&gt;Node7 -->
<g id="edge12" class="edge"><title>Node1&#45;&gt;Node7</title>
<path fill="none" stroke="midnightblue" d="M643.643,-58.6198C650.132,-49.0702 657.114,-38.7947 662.925,-30.242"/>
<polygon fill="midnightblue" stroke="midnightblue" points="665.968,-31.9918 668.693,-21.7535 660.178,-28.0576 665.968,-31.9918"/>
</g>
<!-- Node8 -->
<g id="node15" class="node"><title>Node8</title>
<a xlink:href="../../d0/dd0/_property_callback_8h.html" target="_top" xlink:title="PropertyCallback.h">
<polygon fill="white" stroke="black" points="736,-0.5 736,-21.5 836,-21.5 836,-0.5 736,-0.5"/>
<text text-anchor="middle" x="786" y="-8.5" font-family="Helvetica,sans-Serif" font-size="10.00">PropertyCallback.h</text>
</a>
</g>
<!-- Node1&#45;&gt;Node8 -->
<g id="edge14" class="edge"><title>Node1&#45;&gt;Node8</title>
<path fill="none" stroke="midnightblue" d="M686.02,-58.8432C709.471,-47.6211 735.078,-35.3678 754.505,-26.0713"/>
<polygon fill="midnightblue" stroke="midnightblue" points="756.273,-29.1055 763.782,-21.6317 753.251,-22.7912 756.273,-29.1055"/>
</g>
<!-- Node9 -->
<g id="node17" class="node"><title>Node9</title>
<polygon fill="white" stroke="#bfbfbf" points="853.5,-0.5 853.5,-21.5 888.5,-21.5 888.5,-0.5 853.5,-0.5"/>
<text text-anchor="middle" x="871" y="-8.5" font-family="Helvetica,sans-Serif" font-size="10.00">map</text>
</g>
<!-- Node1&#45;&gt;Node9 -->
<g id="edge16" class="edge"><title>Node1&#45;&gt;Node9</title>
<path fill="none" stroke="midnightblue" d="M686.747,-71.7222C729.087,-59.7961 785.989,-42.9091 843.815,-22.2063"/>
<polygon fill="midnightblue" stroke="midnightblue" points="845.264,-25.4042 853.479,-18.7134 842.885,-18.821 845.264,-25.4042"/>
</g>
<!-- Node10 -->
<g id="node19" class="node"><title>Node10</title>
<polygon fill="white" stroke="#bfbfbf" points="905.5,-0.5 905.5,-21.5 946.5,-21.5 946.5,-0.5 905.5,-0.5"/>
<text text-anchor="middle" x="926" y="-8.5" font-family="Helvetica,sans-Serif" font-size="10.00">string</text>
</g>
<!-- Node1&#45;&gt;Node10 -->
<g id="edge18" class="edge"><title>Node1&#45;&gt;Node10</title>
<path fill="none" stroke="midnightblue" d="M686.725,-75.7443C740.354,-64.0609 819.13,-45.667 895.424,-22.2698"/>
<polygon fill="midnightblue" stroke="midnightblue" points="896.682,-25.5442 905.198,-19.2404 894.61,-18.8581 896.682,-25.5442"/>
</g>
<!-- Node11 -->
<g id="node21" class="node"><title>Node11</title>
<polygon fill="white" stroke="#bfbfbf" points="964,-0.5 964,-21.5 1016,-21.5 1016,-0.5 964,-0.5"/>
<text text-anchor="middle" x="990" y="-8.5" font-family="Helvetica,sans-Serif" font-size="10.00">QDialog</text>
</g>
<!-- Node1&#45;&gt;Node11 -->
<g id="edge20" class="edge"><title>Node1&#45;&gt;Node11</title>
<path fill="none" stroke="midnightblue" d="M686.79,-78.189C751.802,-66.7065 855.646,-47.0874 953.915,-22.1021"/>
<polygon fill="midnightblue" stroke="midnightblue" points="954.896,-25.464 963.712,-19.5884 953.156,-18.6836 954.896,-25.464"/>
</g>
</g>
</svg>
