<?xml version="1.0" encoding="UTF-8" standalone="no"?>
<!DOCTYPE svg PUBLIC "-//W3C//DTD SVG 1.1//EN"
 "http://www.w3.org/Graphics/SVG/1.1/DTD/svg11.dtd">
<!-- Generated by graphviz version 2.36.0 (20140111.2315)
 -->
<!-- Title: /media/kavonszadkowski/work/marsdocs/mars/common/cfg_manager/src/CFGProperty.cpp Pages: 1 -->
<svg width="201pt" height="218pt"
 viewBox="0.00 0.00 201.00 218.00" xmlns="http://www.w3.org/2000/svg" xmlns:xlink="http://www.w3.org/1999/xlink">
<g id="graph0" class="graph" transform="scale(1 1) rotate(0) translate(4 214)">
<title>/media/kavonszadkowski/work/marsdocs/mars/common/cfg_manager/src/CFGProperty.cpp</title>
<polygon fill="white" stroke="none" points="-4,4 -4,-214 197,-214 197,4 -4,4"/>
<!-- Node1 -->
<g id="node1" class="node"><title>Node1</title>
<polygon fill="#bfbfbf" stroke="black" points="21,-168.5 21,-209.5 193,-209.5 193,-168.5 21,-168.5"/>
<text text-anchor="start" x="29" y="-197.5" font-family="Helvetica,sans-Serif" font-size="10.00">/media/kavonszadkowski</text>
<text text-anchor="start" x="29" y="-186.5" font-family="Helvetica,sans-Serif" font-size="10.00">/work/marsdocs/mars/common</text>
<text text-anchor="middle" x="107" y="-175.5" font-family="Helvetica,sans-Serif" font-size="10.00">/cfg_manager/src/CFGProperty.cpp</text>
</g>
<!-- Node2 -->
<g id="node2" class="node"><title>Node2</title>
<g id="a_node2"><a xlink:href="../../da/d11/_c_f_g_property_8h.html" target="_top" xlink:title="CFGProperty holds the value for one property of a CFGParam. ">
<polygon fill="white" stroke="black" points="22.5,-112.5 22.5,-131.5 105.5,-131.5 105.5,-112.5 22.5,-112.5"/>
<text text-anchor="middle" x="64" y="-119.5" font-family="Helvetica,sans-Serif" font-size="10.00">CFGProperty.h</text>
</a>
</g>
</g>
<!-- Node1&#45;&gt;Node2 -->
<g id="edge1" class="edge"><title>Node1&#45;&gt;Node2</title>
<path fill="none" stroke="midnightblue" d="M94.0986,-168.498C88.1398,-159.49 81.126,-148.888 75.3687,-140.185"/>
<polygon fill="midnightblue" stroke="midnightblue" points="78.1604,-138.062 69.724,-131.652 72.3223,-141.924 78.1604,-138.062"/>
</g>
<!-- Node5 -->
<g id="node5" class="node"><title>Node5</title>
<polygon fill="white" stroke="#bfbfbf" points="124,-112.5 124,-131.5 178,-131.5 178,-112.5 124,-112.5"/>
<text text-anchor="middle" x="151" y="-119.5" font-family="Helvetica,sans-Serif" font-size="10.00">iostream</text>
</g>
<!-- Node1&#45;&gt;Node5 -->
<g id="edge5" class="edge"><title>Node1&#45;&gt;Node5</title>
<path fill="none" stroke="midnightblue" d="M120.201,-168.498C126.299,-159.49 133.476,-148.888 139.367,-140.185"/>
<polygon fill="midnightblue" stroke="midnightblue" points="142.436,-141.896 145.143,-131.652 136.639,-137.972 142.436,-141.896"/>
</g>
<!-- Node3 -->
<g id="node3" class="node"><title>Node3</title>
<g id="a_node3"><a xlink:href="../../d3/d8b/_c_f_g_defs_8h.html" target="_top" xlink:title="This file stores types and structs for the CFG class. ">
<polygon fill="white" stroke="black" points="-0.5,-56.5 -0.5,-75.5 66.5,-75.5 66.5,-56.5 -0.5,-56.5"/>
<text text-anchor="middle" x="33" y="-63.5" font-family="Helvetica,sans-Serif" font-size="10.00">CFGDefs.h</text>
</a>
</g>
</g>
<!-- Node2&#45;&gt;Node3 -->
<g id="edge2" class="edge"><title>Node2&#45;&gt;Node3</title>
<path fill="none" stroke="midnightblue" d="M58.881,-112.083C54.5925,-104.613 48.3418,-93.7244 43.0577,-84.5199"/>
<polygon fill="midnightblue" stroke="midnightblue" points="46.0379,-82.6811 38.0238,-75.7511 39.9671,-86.1662 46.0379,-82.6811"/>
</g>
<!-- Node4 -->
<g id="node4" class="node"><title>Node4</title>
<polygon fill="white" stroke="#bfbfbf" points="43.5,-0.5 43.5,-19.5 84.5,-19.5 84.5,-0.5 43.5,-0.5"/>
<text text-anchor="middle" x="64" y="-7.5" font-family="Helvetica,sans-Serif" font-size="10.00">string</text>
</g>
<!-- Node2&#45;&gt;Node4 -->
<g id="edge4" class="edge"><title>Node2&#45;&gt;Node4</title>
<path fill="none" stroke="midnightblue" d="M66.7299,-112.486C69.4508,-103.52 73.4419,-88.9354 75,-76 76.9033,-60.1983 73.4929,-42.3837 69.9802,-29.4059"/>
<polygon fill="midnightblue" stroke="midnightblue" points="73.3264,-28.3791 67.1198,-19.7925 66.617,-30.3754 73.3264,-28.3791"/>
</g>
<!-- Node3&#45;&gt;Node4 -->
<g id="edge3" class="edge"><title>Node3&#45;&gt;Node4</title>
<path fill="none" stroke="midnightblue" d="M38.119,-56.083C42.4075,-48.6127 48.6582,-37.7244 53.9423,-28.5199"/>
<polygon fill="midnightblue" stroke="midnightblue" points="57.0329,-30.1662 58.9762,-19.7511 50.9621,-26.6811 57.0329,-30.1662"/>
</g>
</g>
</svg>
