<?xml version="1.0" encoding="UTF-8" standalone="no"?>
<!DOCTYPE svg PUBLIC "-//W3C//DTD SVG 1.1//EN"
 "http://www.w3.org/Graphics/SVG/1.1/DTD/svg11.dtd">
<!-- Generated by graphviz version 2.26.3 (20100126.1600)
 -->
<!-- Title: osg_text::TextFactory Pages: 1 -->
<svg width="158pt" height="146pt"
 viewBox="0.00 0.00 158.00 146.00" xmlns="http://www.w3.org/2000/svg" xmlns:xlink="http://www.w3.org/1999/xlink">
<g id="graph1" class="graph" transform="scale(1 1) rotate(0) translate(4 142)">
<title>osg_text::TextFactory</title>
<polygon fill="white" stroke="white" points="-4,5 -4,-142 155,-142 155,5 -4,5"/>
<!-- Node1 -->
<g id="node1" class="node"><title>Node1</title>
<polygon fill="#bfbfbf" stroke="black" points="18.5,-0.5 18.5,-21.5 131.5,-21.5 131.5,-0.5 18.5,-0.5"/>
<text text-anchor="middle" x="75" y="-8.5" font-family="Helvetica,sans-Serif" font-size="10.00">osg_text::TextFactory</text>
</g>
<!-- Node2 -->
<g id="node2" class="node"><title>Node2</title>
<a xlink:href="../../db/d44/classosg__text_1_1_text_factory_interface.html" target="_top" xlink:title="osg_text::TextFactoryInterface">
<polygon fill="white" stroke="black" points="-0.5,-58.5 -0.5,-79.5 150.5,-79.5 150.5,-58.5 -0.5,-58.5"/>
<text text-anchor="middle" x="75" y="-66.5" font-family="Helvetica,sans-Serif" font-size="10.00">osg_text::TextFactoryInterface</text>
</a>
</g>
<!-- Node2&#45;&gt;Node1 -->
<g id="edge2" class="edge"><title>Node2&#45;&gt;Node1</title>
<path fill="none" stroke="midnightblue" d="M75,-48.1906C75,-39.1684 75,-28.9941 75,-21.5707"/>
<polygon fill="midnightblue" stroke="midnightblue" points="71.5001,-48.3619 75,-58.3619 78.5001,-48.3619 71.5001,-48.3619"/>
</g>
<!-- Node3 -->
<g id="node4" class="node"><title>Node3</title>
<polygon fill="white" stroke="#bfbfbf" points="41,-116.5 41,-137.5 109,-137.5 109,-116.5 41,-116.5"/>
<text text-anchor="middle" x="75" y="-124.5" font-family="Helvetica,sans-Serif" font-size="10.00">LibInterface</text>
</g>
<!-- Node3&#45;&gt;Node2 -->
<g id="edge4" class="edge"><title>Node3&#45;&gt;Node2</title>
<path fill="none" stroke="midnightblue" d="M75,-106.191C75,-97.1684 75,-86.9941 75,-79.5707"/>
<polygon fill="midnightblue" stroke="midnightblue" points="71.5001,-106.362 75,-116.362 78.5001,-106.362 71.5001,-106.362"/>
</g>
</g>
</svg>
