<?xml version="1.0" encoding="UTF-8" standalone="no"?>
<!DOCTYPE svg PUBLIC "-//W3C//DTD SVG 1.1//EN"
 "http://www.w3.org/Graphics/SVG/1.1/DTD/svg11.dtd">
<!-- Generated by graphviz version 2.26.3 (20100126.1600)
 -->
<!-- Title: mars::cfg_manager::cfgParamInfo Pages: 1 -->
<svg width="114pt" height="128pt"
 viewBox="0.00 0.00 114.00 128.00" xmlns="http://www.w3.org/2000/svg" xmlns:xlink="http://www.w3.org/1999/xlink">
<g id="graph1" class="graph" transform="scale(1 1) rotate(0) translate(4 124)">
<title>mars::cfg_manager::cfgParamInfo</title>
<polygon fill="white" stroke="white" points="-4,5 -4,-124 111,-124 111,5 -4,5"/>
<!-- Node1 -->
<g id="node1" class="node"><title>Node1</title>
<polygon fill="#bfbfbf" stroke="black" points="-0.5,-1 -0.5,-35 106.5,-35 106.5,-1 -0.5,-1"/>
<text text-anchor="start" x="7.5" y="-22" font-family="Helvetica,sans-Serif" font-size="10.00">mars::cfg_manager::</text>
<text text-anchor="middle" x="53" y="-9" font-family="Helvetica,sans-Serif" font-size="10.00">cfgParamInfo</text>
</g>
<!-- Node2 -->
<g id="node2" class="node"><title>Node2</title>
<polygon fill="white" stroke="#bfbfbf" points="32.5,-98.5 32.5,-119.5 73.5,-119.5 73.5,-98.5 32.5,-98.5"/>
<text text-anchor="middle" x="53" y="-106.5" font-family="Helvetica,sans-Serif" font-size="10.00">string</text>
</g>
<!-- Node2&#45;&gt;Node1 -->
<g id="edge2" class="edge"><title>Node2&#45;&gt;Node1</title>
<path fill="none" stroke="#9a32cd" stroke-dasharray="5,2" d="M53,-87.7551C53,-71.7995 53,-50.2207 53,-35.3088"/>
<polygon fill="#9a32cd" stroke="#9a32cd" points="49.5001,-88.2037 53,-98.2038 56.5001,-88.2038 49.5001,-88.2037"/>
<text text-anchor="middle" x="67" y="-71" font-family="Helvetica,sans-Serif" font-size="10.00"> group</text>
<text text-anchor="middle" x="67" y="-58" font-family="Helvetica,sans-Serif" font-size="10.00">name</text>
</g>
</g>
</svg>
