<?xml version="1.0" encoding="UTF-8" standalone="no"?>
<!DOCTYPE svg PUBLIC "-//W3C//DTD SVG 1.1//EN"
 "http://www.w3.org/Graphics/SVG/1.1/DTD/svg11.dtd">
<!-- Generated by graphviz version 2.36.0 (20140111.2315)
 -->
<!-- Title: mars::cfg_manager::cfgParamInfo Pages: 1 -->
<svg width="114pt" height="118pt"
 viewBox="0.00 0.00 114.00 118.00" xmlns="http://www.w3.org/2000/svg" xmlns:xlink="http://www.w3.org/1999/xlink">
<g id="graph0" class="graph" transform="scale(1 1) rotate(0) translate(4 114)">
<title>mars::cfg_manager::cfgParamInfo</title>
<polygon fill="white" stroke="none" points="-4,4 -4,-114 110,-114 110,4 -4,4"/>
<!-- Node1 -->
<g id="node1" class="node"><title>Node1</title>
<polygon fill="#bfbfbf" stroke="black" points="-0.5,-1 -0.5,-31 106.5,-31 106.5,-1 -0.5,-1"/>
<text text-anchor="start" x="7.5" y="-19" font-family="Helvetica,sans-Serif" font-size="10.00">mars::cfg_manager::</text>
<text text-anchor="middle" x="53" y="-8" font-family="Helvetica,sans-Serif" font-size="10.00">cfgParamInfo</text>
</g>
<!-- Node2 -->
<g id="node2" class="node"><title>Node2</title>
<polygon fill="white" stroke="#bfbfbf" points="32.5,-90.5 32.5,-109.5 73.5,-109.5 73.5,-90.5 32.5,-90.5"/>
<text text-anchor="middle" x="53" y="-97.5" font-family="Helvetica,sans-Serif" font-size="10.00">string</text>
</g>
<!-- Node2&#45;&gt;Node1 -->
<g id="edge1" class="edge"><title>Node2&#45;&gt;Node1</title>
<path fill="none" stroke="#9a32cd" stroke-dasharray="5,2" d="M53,-80.1139C53,-65.2014 53,-44.7195 53,-31.1839"/>
<polygon fill="#9a32cd" stroke="#9a32cd" points="49.5001,-80.2245 53,-90.2246 56.5001,-80.2246 49.5001,-80.2245"/>
<text text-anchor="middle" x="67" y="-64" font-family="Helvetica,sans-Serif" font-size="10.00"> group</text>
<text text-anchor="middle" x="67" y="-53" font-family="Helvetica,sans-Serif" font-size="10.00">name</text>
</g>
</g>
</svg>
