<?xml version="1.0" encoding="UTF-8" standalone="no"?>
<!DOCTYPE svg PUBLIC "-//W3C//DTD SVG 1.1//EN"
 "http://www.w3.org/Graphics/SVG/1.1/DTD/svg11.dtd">
<!-- Generated by graphviz version 2.26.3 (20100126.1600)
 -->
<!-- Title: /home/kavonszadkowski/limes&#45;dev/simulation/mars/graphics/src/3d_objects/AxisPrimitive.h Pages: 1 -->
<svg width="186pt" height="128pt"
 viewBox="0.00 0.00 186.00 128.00" xmlns="http://www.w3.org/2000/svg" xmlns:xlink="http://www.w3.org/1999/xlink">
<g id="graph1" class="graph" transform="scale(1 1) rotate(0) translate(4 124)">
<title>/home/kavonszadkowski/limes&#45;dev/simulation/mars/graphics/src/3d_objects/AxisPrimitive.h</title>
<polygon fill="white" stroke="white" points="-4,5 -4,-124 183,-124 183,5 -4,5"/>
<!-- Node1 -->
<g id="node1" class="node"><title>Node1</title>
<polygon fill="#bfbfbf" stroke="black" points="35.5,-59 35.5,-119 160.5,-119 160.5,-59 35.5,-59"/>
<text text-anchor="start" x="43.5" y="-106" font-family="Helvetica,sans-Serif" font-size="10.00">/home/kavonszadkowski</text>
<text text-anchor="start" x="43.5" y="-93" font-family="Helvetica,sans-Serif" font-size="10.00">/limes&#45;dev/simulation</text>
<text text-anchor="start" x="43.5" y="-80" font-family="Helvetica,sans-Serif" font-size="10.00">/mars/graphics/src/3d</text>
<text text-anchor="middle" x="98" y="-67" font-family="Helvetica,sans-Serif" font-size="10.00">_objects/AxisPrimitive.h</text>
</g>
<!-- Node2 -->
<g id="node3" class="node"><title>Node2</title>
<polygon fill="white" stroke="#bfbfbf" points="-0.5,-0.5 -0.5,-21.5 98.5,-21.5 98.5,-0.5 -0.5,-0.5"/>
<text text-anchor="middle" x="49" y="-8.5" font-family="Helvetica,sans-Serif" font-size="10.00">mars/utils/Vector.h</text>
</g>
<!-- Node1&#45;&gt;Node2 -->
<g id="edge2" class="edge"><title>Node1&#45;&gt;Node2</title>
<path fill="none" stroke="midnightblue" d="M78.915,-58.6198C72.9159,-49.0702 66.4608,-38.7947 61.0879,-30.242"/>
<polygon fill="midnightblue" stroke="midnightblue" points="64.0386,-28.3594 55.7554,-21.7535 58.1112,-32.0831 64.0386,-28.3594"/>
</g>
<!-- Node3 -->
<g id="node5" class="node"><title>Node3</title>
<polygon fill="white" stroke="#bfbfbf" points="116,-0.5 116,-21.5 178,-21.5 178,-0.5 116,-0.5"/>
<text text-anchor="middle" x="147" y="-8.5" font-family="Helvetica,sans-Serif" font-size="10.00">osg/Group</text>
</g>
<!-- Node1&#45;&gt;Node3 -->
<g id="edge4" class="edge"><title>Node1&#45;&gt;Node3</title>
<path fill="none" stroke="midnightblue" d="M117.085,-58.6198C123.084,-49.0702 129.539,-38.7947 134.912,-30.242"/>
<polygon fill="midnightblue" stroke="midnightblue" points="137.889,-32.0831 140.245,-21.7535 131.961,-28.3594 137.889,-32.0831"/>
</g>
</g>
</svg>
