<?xml version="1.0" encoding="UTF-8" standalone="no"?>
<!DOCTYPE svg PUBLIC "-//W3C//DTD SVG 1.1//EN"
 "http://www.w3.org/Graphics/SVG/1.1/DTD/svg11.dtd">
<!-- Generated by graphviz version 2.36.0 (20140111.2315)
 -->
<!-- Title: /media/kavonszadkowski/work/marsdocs/mars/gui/src/Widget_Joint_State.h Pages: 1 -->
<svg width="892pt" height="118pt"
 viewBox="0.00 0.00 892.00 118.00" xmlns="http://www.w3.org/2000/svg" xmlns:xlink="http://www.w3.org/1999/xlink">
<g id="graph0" class="graph" transform="scale(1 1) rotate(0) translate(4 114)">
<title>/media/kavonszadkowski/work/marsdocs/mars/gui/src/Widget_Joint_State.h</title>
<polygon fill="white" stroke="none" points="-4,4 -4,-114 888,-114 888,4 -4,4"/>
<!-- Node1 -->
<g id="node1" class="node"><title>Node1</title>
<polygon fill="#bfbfbf" stroke="black" points="350,-68.5 350,-109.5 480,-109.5 480,-68.5 350,-68.5"/>
<text text-anchor="start" x="358" y="-97.5" font-family="Helvetica,sans-Serif" font-size="10.00">/media/kavonszadkowski</text>
<text text-anchor="start" x="358" y="-86.5" font-family="Helvetica,sans-Serif" font-size="10.00">/work/marsdocs/mars/gui</text>
<text text-anchor="middle" x="415" y="-75.5" font-family="Helvetica,sans-Serif" font-size="10.00">/src/Widget_Joint_State.h</text>
</g>
<!-- Node2 -->
<g id="node2" class="node"><title>Node2</title>
<polygon fill="white" stroke="#bfbfbf" points="0,-6.5 0,-25.5 156,-25.5 156,-6.5 0,-6.5"/>
<text text-anchor="middle" x="78" y="-13.5" font-family="Helvetica,sans-Serif" font-size="10.00">mars/main_gui/PropertyDialog.h</text>
</g>
<!-- Node1&#45;&gt;Node2 -->
<g id="edge1" class="edge"><title>Node1&#45;&gt;Node2</title>
<path fill="none" stroke="midnightblue" d="M349.623,-74.2263C285.027,-60.617 187.577,-40.086 128.648,-27.6706"/>
<polygon fill="midnightblue" stroke="midnightblue" points="129.328,-24.2371 118.821,-25.6003 127.885,-31.0868 129.328,-24.2371"/>
</g>
<!-- Node3 -->
<g id="node3" class="node"><title>Node3</title>
<polygon fill="white" stroke="#bfbfbf" points="174.5,-1 174.5,-31 277.5,-31 277.5,-1 174.5,-1"/>
<text text-anchor="start" x="182.5" y="-19" font-family="Helvetica,sans-Serif" font-size="10.00">mars/interfaces/sim</text>
<text text-anchor="middle" x="226" y="-8" font-family="Helvetica,sans-Serif" font-size="10.00">/ControlCenter.h</text>
</g>
<!-- Node1&#45;&gt;Node3 -->
<g id="edge2" class="edge"><title>Node1&#45;&gt;Node3</title>
<path fill="none" stroke="midnightblue" d="M362.855,-68.411C334.731,-57.8461 300.298,-44.9107 273.006,-34.6582"/>
<polygon fill="midnightblue" stroke="midnightblue" points="273.891,-31.252 263.299,-31.0117 271.429,-37.8049 273.891,-31.252"/>
</g>
<!-- Node4 -->
<g id="node4" class="node"><title>Node4</title>
<polygon fill="white" stroke="#bfbfbf" points="295.5,-6.5 295.5,-25.5 394.5,-25.5 394.5,-6.5 295.5,-6.5"/>
<text text-anchor="middle" x="345" y="-13.5" font-family="Helvetica,sans-Serif" font-size="10.00">mars/utils/Vector.h</text>
</g>
<!-- Node1&#45;&gt;Node4 -->
<g id="edge3" class="edge"><title>Node1&#45;&gt;Node4</title>
<path fill="none" stroke="midnightblue" d="M395.501,-68.2225C384.541,-57.1055 371.039,-43.4105 360.754,-32.979"/>
<polygon fill="midnightblue" stroke="midnightblue" points="363.125,-30.3987 353.612,-25.7349 358.14,-35.3132 363.125,-30.3987"/>
</g>
<!-- Node5 -->
<g id="node5" class="node"><title>Node5</title>
<polygon fill="white" stroke="#bfbfbf" points="413,-6.5 413,-25.5 559,-25.5 559,-6.5 413,-6.5"/>
<text text-anchor="middle" x="486" y="-13.5" font-family="Helvetica,sans-Serif" font-size="10.00">mars/interfaces/MARSDefs.h</text>
</g>
<!-- Node1&#45;&gt;Node5 -->
<g id="edge4" class="edge"><title>Node1&#45;&gt;Node5</title>
<path fill="none" stroke="midnightblue" d="M434.777,-68.2225C445.895,-57.1055 459.589,-43.4105 470.021,-32.979"/>
<polygon fill="midnightblue" stroke="midnightblue" points="472.669,-35.2809 477.265,-25.7349 467.719,-30.3311 472.669,-35.2809"/>
</g>
<!-- Node6 -->
<g id="node6" class="node"><title>Node6</title>
<polygon fill="white" stroke="#bfbfbf" points="577,-1 577,-31 711,-31 711,-1 577,-1"/>
<text text-anchor="start" x="585" y="-19" font-family="Helvetica,sans-Serif" font-size="10.00">mars/data_broker/Receiver</text>
<text text-anchor="middle" x="644" y="-8" font-family="Helvetica,sans-Serif" font-size="10.00">Interface.h</text>
</g>
<!-- Node1&#45;&gt;Node6 -->
<g id="edge5" class="edge"><title>Node1&#45;&gt;Node6</title>
<path fill="none" stroke="midnightblue" d="M478.181,-68.411C513.004,-57.6144 555.812,-44.3423 589.209,-33.9877"/>
<polygon fill="midnightblue" stroke="midnightblue" points="590.292,-37.3162 598.807,-31.0117 588.219,-30.6302 590.292,-37.3162"/>
</g>
<!-- Node7 -->
<g id="node7" class="node"><title>Node7</title>
<polygon fill="white" stroke="#bfbfbf" points="729.5,-1 729.5,-31 884.5,-31 884.5,-1 729.5,-1"/>
<text text-anchor="start" x="737.5" y="-19" font-family="Helvetica,sans-Serif" font-size="10.00">mars/data_broker/DataPackage</text>
<text text-anchor="middle" x="807" y="-8" font-family="Helvetica,sans-Serif" font-size="10.00">Mapping.h</text>
</g>
<!-- Node1&#45;&gt;Node7 -->
<g id="edge6" class="edge"><title>Node1&#45;&gt;Node7</title>
<path fill="none" stroke="midnightblue" d="M480.171,-76.1961C545.668,-64.333 647.038,-45.9727 719.509,-32.8466"/>
<polygon fill="midnightblue" stroke="midnightblue" points="720.32,-36.2567 729.536,-31.0305 719.072,-29.3688 720.32,-36.2567"/>
</g>
</g>
</svg>
