<?xml version="1.0" encoding="UTF-8" standalone="no"?>
<!DOCTYPE svg PUBLIC "-//W3C//DTD SVG 1.1//EN"
 "http://www.w3.org/Graphics/SVG/1.1/DTD/svg11.dtd">
<!-- Generated by graphviz version 2.36.0 (20140111.2315)
 -->
<!-- Title: /media/kavonszadkowski/work/marsdocs/mars/sim/src/physics/WorldPhysics.cpp Pages: 1 -->
<svg width="1106pt" height="254pt"
 viewBox="0.00 0.00 1106.00 254.00" xmlns="http://www.w3.org/2000/svg" xmlns:xlink="http://www.w3.org/1999/xlink">
<g id="graph0" class="graph" transform="scale(1 1) rotate(0) translate(4 250)">
<title>/media/kavonszadkowski/work/marsdocs/mars/sim/src/physics/WorldPhysics.cpp</title>
<polygon fill="white" stroke="none" points="-4,4 -4,-250 1102,-250 1102,4 -4,4"/>
<!-- Node1 -->
<g id="node1" class="node"><title>Node1</title>
<polygon fill="#bfbfbf" stroke="black" points="514,-204.5 514,-245.5 666,-245.5 666,-204.5 514,-204.5"/>
<text text-anchor="start" x="522" y="-233.5" font-family="Helvetica,sans-Serif" font-size="10.00">/media/kavonszadkowski</text>
<text text-anchor="start" x="522" y="-222.5" font-family="Helvetica,sans-Serif" font-size="10.00">/work/marsdocs/mars/sim</text>
<text text-anchor="middle" x="590" y="-211.5" font-family="Helvetica,sans-Serif" font-size="10.00">/src/physics/WorldPhysics.cpp</text>
</g>
<!-- Node2 -->
<g id="node2" class="node"><title>Node2</title>
<g id="a_node2"><a xlink:href="../../d6/d89/_world_physics_8h.html" target="_top" xlink:title="&quot;WorldPhysics&quot; includes the methods to handle the physically world. ">
<polygon fill="white" stroke="black" points="389,-74.5 389,-93.5 475,-93.5 475,-74.5 389,-74.5"/>
<text text-anchor="middle" x="432" y="-81.5" font-family="Helvetica,sans-Serif" font-size="10.00">WorldPhysics.h</text>
</a>
</g>
</g>
<!-- Node1&#45;&gt;Node2 -->
<g id="edge1" class="edge"><title>Node1&#45;&gt;Node2</title>
<path fill="none" stroke="midnightblue" d="M513.842,-219.437C478.061,-213.005 438.426,-198.777 416,-168 401.999,-148.786 412.126,-120.652 421.45,-102.582"/>
<polygon fill="midnightblue" stroke="midnightblue" points="424.588,-104.14 426.389,-93.699 418.47,-100.738 424.588,-104.14"/>
</g>
<!-- Node8 -->
<g id="node8" class="node"><title>Node8</title>
<polygon fill="white" stroke="#bfbfbf" points="0,-1 0,-31 124,-31 124,-1 0,-1"/>
<text text-anchor="start" x="8" y="-19" font-family="Helvetica,sans-Serif" font-size="10.00">mars/interfaces/graphics</text>
<text text-anchor="middle" x="62" y="-8" font-family="Helvetica,sans-Serif" font-size="10.00">/draw_structs.h</text>
</g>
<!-- Node1&#45;&gt;Node8 -->
<g id="edge14" class="edge"><title>Node1&#45;&gt;Node8</title>
<path fill="none" stroke="midnightblue" d="M518.574,-204.395C484.22,-194.425 442.638,-181.563 406,-168 292.55,-126.003 162.916,-65.5965 100.104,-35.5023"/>
<polygon fill="midnightblue" stroke="midnightblue" points="101.5,-32.2899 90.9704,-31.1139 98.4683,-38.5994 101.5,-32.2899"/>
</g>
<!-- Node11 -->
<g id="node11" class="node"><title>Node11</title>
<g id="a_node11"><a xlink:href="../../d7/d43/_node_physics_8h.html" target="_top" xlink:title="&quot;NodePhysics&quot; implements the physical ode stuff for the nodes. ">
<polygon fill="white" stroke="black" points="425.5,-142.5 425.5,-161.5 508.5,-161.5 508.5,-142.5 425.5,-142.5"/>
<text text-anchor="middle" x="467" y="-149.5" font-family="Helvetica,sans-Serif" font-size="10.00">NodePhysics.h</text>
</a>
</g>
</g>
<!-- Node1&#45;&gt;Node11 -->
<g id="edge10" class="edge"><title>Node1&#45;&gt;Node11</title>
<path fill="none" stroke="midnightblue" d="M556.064,-204.411C535.26,-192.402 509.15,-177.33 490.591,-166.618"/>
<polygon fill="midnightblue" stroke="midnightblue" points="492.304,-163.565 481.893,-161.597 488.804,-169.627 492.304,-163.565"/>
</g>
<!-- Node13 -->
<g id="node13" class="node"><title>Node13</title>
<polygon fill="white" stroke="#bfbfbf" points="526.5,-142.5 526.5,-161.5 653.5,-161.5 653.5,-142.5 526.5,-142.5"/>
<text text-anchor="middle" x="590" y="-149.5" font-family="Helvetica,sans-Serif" font-size="10.00">mars/utils/MutexLocker.h</text>
</g>
<!-- Node1&#45;&gt;Node13 -->
<g id="edge13" class="edge"><title>Node1&#45;&gt;Node13</title>
<path fill="none" stroke="midnightblue" d="M590,-204.223C590,-194.086 590,-181.807 590,-171.813"/>
<polygon fill="midnightblue" stroke="midnightblue" points="593.5,-171.735 590,-161.735 586.5,-171.735 593.5,-171.735"/>
</g>
<!-- Node14 -->
<g id="node14" class="node"><title>Node14</title>
<polygon fill="white" stroke="#bfbfbf" points="671.5,-137 671.5,-167 814.5,-167 814.5,-137 671.5,-137"/>
<text text-anchor="start" x="679.5" y="-155" font-family="Helvetica,sans-Serif" font-size="10.00">mars/interfaces/graphics</text>
<text text-anchor="middle" x="743" y="-144" font-family="Helvetica,sans-Serif" font-size="10.00">/GraphicsManagerInterface.h</text>
</g>
<!-- Node1&#45;&gt;Node14 -->
<g id="edge15" class="edge"><title>Node1&#45;&gt;Node14</title>
<path fill="none" stroke="midnightblue" d="M632.213,-204.411C654.403,-194.114 681.446,-181.564 703.259,-171.442"/>
<polygon fill="midnightblue" stroke="midnightblue" points="704.969,-174.507 712.566,-167.123 702.022,-168.157 704.969,-174.507"/>
</g>
<!-- Node15 -->
<g id="node15" class="node"><title>Node15</title>
<polygon fill="white" stroke="#bfbfbf" points="832.5,-137 832.5,-167 939.5,-167 939.5,-137 832.5,-137"/>
<text text-anchor="start" x="840.5" y="-155" font-family="Helvetica,sans-Serif" font-size="10.00">mars/interfaces/sim</text>
<text text-anchor="middle" x="886" y="-144" font-family="Helvetica,sans-Serif" font-size="10.00">/SimulatorInterface.h</text>
</g>
<!-- Node1&#45;&gt;Node15 -->
<g id="edge16" class="edge"><title>Node1&#45;&gt;Node15</title>
<path fill="none" stroke="midnightblue" d="M666.227,-205.716C714.741,-194.079 776.831,-179.186 822.632,-168.2"/>
<polygon fill="midnightblue" stroke="midnightblue" points="823.532,-171.583 832.44,-165.847 821.899,-164.776 823.532,-171.583"/>
</g>
<!-- Node16 -->
<g id="node16" class="node"><title>Node16</title>
<polygon fill="white" stroke="#bfbfbf" points="958,-142.5 958,-161.5 1098,-161.5 1098,-142.5 958,-142.5"/>
<text text-anchor="middle" x="1028" y="-149.5" font-family="Helvetica,sans-Serif" font-size="10.00">mars/interfaces/Logging.hpp</text>
</g>
<!-- Node1&#45;&gt;Node16 -->
<g id="edge17" class="edge"><title>Node1&#45;&gt;Node16</title>
<path fill="none" stroke="midnightblue" d="M666.232,-212.757C738.783,-201.896 850.972,-184.681 948,-168 956.308,-166.572 965.088,-164.994 973.67,-163.415"/>
<polygon fill="midnightblue" stroke="midnightblue" points="974.419,-166.836 983.612,-161.57 973.141,-159.954 974.419,-166.836"/>
</g>
<!-- Node3 -->
<g id="node3" class="node"><title>Node3</title>
<polygon fill="white" stroke="#bfbfbf" points="763,-6.5 763,-25.5 861,-25.5 861,-6.5 763,-6.5"/>
<text text-anchor="middle" x="812" y="-13.5" font-family="Helvetica,sans-Serif" font-size="10.00">mars/utils/Mutex.h</text>
</g>
<!-- Node2&#45;&gt;Node3 -->
<g id="edge2" class="edge"><title>Node2&#45;&gt;Node3</title>
<path fill="none" stroke="midnightblue" d="M459.324,-74.4647C467.521,-72.1224 476.573,-69.7492 485,-68 602.673,-43.5742 635.01,-54.8443 753,-32 758.916,-30.8546 765.123,-29.4753 771.199,-28.0232"/>
<polygon fill="midnightblue" stroke="midnightblue" points="772.36,-31.3415 781.225,-25.539 770.676,-24.547 772.36,-31.3415"/>
</g>
<!-- Node4 -->
<g id="node4" class="node"><title>Node4</title>
<polygon fill="white" stroke="#bfbfbf" points="142.5,-6.5 142.5,-25.5 241.5,-25.5 241.5,-6.5 142.5,-6.5"/>
<text text-anchor="middle" x="192" y="-13.5" font-family="Helvetica,sans-Serif" font-size="10.00">mars/utils/Vector.h</text>
</g>
<!-- Node2&#45;&gt;Node4 -->
<g id="edge3" class="edge"><title>Node2&#45;&gt;Node4</title>
<path fill="none" stroke="midnightblue" d="M400.624,-74.3717C357.564,-62.5301 280.106,-41.2291 232.651,-28.179"/>
<polygon fill="midnightblue" stroke="midnightblue" points="233.573,-24.8028 223.003,-25.5259 231.717,-31.5522 233.573,-24.8028"/>
</g>
<!-- Node5 -->
<g id="node5" class="node"><title>Node5</title>
<polygon fill="white" stroke="#bfbfbf" points="259.5,-1 259.5,-31 362.5,-31 362.5,-1 259.5,-1"/>
<text text-anchor="start" x="267.5" y="-19" font-family="Helvetica,sans-Serif" font-size="10.00">mars/interfaces/sim</text>
<text text-anchor="middle" x="311" y="-8" font-family="Helvetica,sans-Serif" font-size="10.00">_common.h</text>
</g>
<!-- Node2&#45;&gt;Node5 -->
<g id="edge4" class="edge"><title>Node2&#45;&gt;Node5</title>
<path fill="none" stroke="midnightblue" d="M416.181,-74.3717C398.424,-64.6857 369.063,-48.6708 345.869,-36.0192"/>
<polygon fill="midnightblue" stroke="midnightblue" points="347.454,-32.8974 336.999,-31.1815 344.102,-39.0427 347.454,-32.8974"/>
</g>
<!-- Node6 -->
<g id="node6" class="node"><title>Node6</title>
<polygon fill="white" stroke="#bfbfbf" points="380.5,-1 380.5,-31 483.5,-31 483.5,-1 380.5,-1"/>
<text text-anchor="start" x="388.5" y="-19" font-family="Helvetica,sans-Serif" font-size="10.00">mars/interfaces/sim</text>
<text text-anchor="middle" x="432" y="-8" font-family="Helvetica,sans-Serif" font-size="10.00">/ControlCenter.h</text>
</g>
<!-- Node2&#45;&gt;Node6 -->
<g id="edge5" class="edge"><title>Node2&#45;&gt;Node6</title>
<path fill="none" stroke="midnightblue" d="M432,-74.3717C432,-65.9715 432,-52.811 432,-41.2126"/>
<polygon fill="midnightblue" stroke="midnightblue" points="435.5,-41.1814 432,-31.1815 428.5,-41.1815 435.5,-41.1814"/>
</g>
<!-- Node7 -->
<g id="node7" class="node"><title>Node7</title>
<polygon fill="white" stroke="#bfbfbf" points="501.5,-1 501.5,-31 604.5,-31 604.5,-1 501.5,-1"/>
<text text-anchor="start" x="509.5" y="-19" font-family="Helvetica,sans-Serif" font-size="10.00">mars/interfaces/sim</text>
<text text-anchor="middle" x="553" y="-8" font-family="Helvetica,sans-Serif" font-size="10.00">/PhysicsInterface.h</text>
</g>
<!-- Node2&#45;&gt;Node7 -->
<g id="edge6" class="edge"><title>Node2&#45;&gt;Node7</title>
<path fill="none" stroke="midnightblue" d="M447.819,-74.3717C465.576,-64.6857 494.937,-48.6708 518.131,-36.0192"/>
<polygon fill="midnightblue" stroke="midnightblue" points="519.898,-39.0427 527.001,-31.1815 516.546,-32.8974 519.898,-39.0427"/>
</g>
<!-- Node2&#45;&gt;Node8 -->
<g id="edge7" class="edge"><title>Node2&#45;&gt;Node8</title>
<path fill="none" stroke="midnightblue" d="M388.827,-76.1819C332.547,-67.1735 230.82,-50.4801 134.241,-32.1976"/>
<polygon fill="midnightblue" stroke="midnightblue" points="134.788,-28.7391 124.31,-30.3086 133.48,-35.6158 134.788,-28.7391"/>
</g>
<!-- Node9 -->
<g id="node9" class="node"><title>Node9</title>
<polygon fill="white" stroke="#bfbfbf" points="623,-6.5 623,-25.5 667,-25.5 667,-6.5 623,-6.5"/>
<text text-anchor="middle" x="645" y="-13.5" font-family="Helvetica,sans-Serif" font-size="10.00">vector</text>
</g>
<!-- Node2&#45;&gt;Node9 -->
<g id="edge8" class="edge"><title>Node2&#45;&gt;Node9</title>
<path fill="none" stroke="midnightblue" d="M462.267,-74.4246C469.7,-72.3211 477.637,-70.0773 485,-68 541.876,-51.9534 557.615,-52.6106 613,-32 614.854,-31.3099 616.75,-30.5556 618.646,-29.7643"/>
<polygon fill="midnightblue" stroke="midnightblue" points="620.236,-32.8873 627.95,-25.6243 617.391,-26.4918 620.236,-32.8873"/>
</g>
<!-- Node10 -->
<g id="node10" class="node"><title>Node10</title>
<polygon fill="white" stroke="#bfbfbf" points="685.5,-6.5 685.5,-25.5 744.5,-25.5 744.5,-6.5 685.5,-6.5"/>
<text text-anchor="middle" x="715" y="-13.5" font-family="Helvetica,sans-Serif" font-size="10.00">ode/ode.h</text>
</g>
<!-- Node2&#45;&gt;Node10 -->
<g id="edge9" class="edge"><title>Node2&#45;&gt;Node10</title>
<path fill="none" stroke="midnightblue" d="M460.485,-74.4376C468.388,-72.1992 476.995,-69.8871 485,-68 568.654,-48.278 592.236,-55.1741 675,-32 678.142,-31.1201 681.386,-30.0995 684.604,-29.0127"/>
<polygon fill="midnightblue" stroke="midnightblue" points="685.817,-32.2959 694.05,-25.6275 683.456,-25.7063 685.817,-32.2959"/>
</g>
<!-- Node11&#45;&gt;Node2 -->
<g id="edge11" class="edge"><title>Node11&#45;&gt;Node2</title>
<path fill="none" stroke="midnightblue" d="M462.424,-142.372C457.109,-132.348 448.198,-115.546 441.39,-102.708"/>
<polygon fill="midnightblue" stroke="midnightblue" points="444.466,-101.036 436.688,-93.8411 438.281,-104.316 444.466,-101.036"/>
</g>
<!-- Node12 -->
<g id="node12" class="node"><title>Node12</title>
<polygon fill="white" stroke="#bfbfbf" points="493.5,-69 493.5,-99 596.5,-99 596.5,-69 493.5,-69"/>
<text text-anchor="start" x="501.5" y="-87" font-family="Helvetica,sans-Serif" font-size="10.00">mars/interfaces/sim</text>
<text text-anchor="middle" x="545" y="-76" font-family="Helvetica,sans-Serif" font-size="10.00">/NodeInterface.h</text>
</g>
<!-- Node11&#45;&gt;Node12 -->
<g id="edge12" class="edge"><title>Node11&#45;&gt;Node12</title>
<path fill="none" stroke="midnightblue" d="M477.197,-142.372C488.138,-133.114 505.911,-118.076 520.516,-105.718"/>
<polygon fill="midnightblue" stroke="midnightblue" points="522.867,-108.313 528.24,-99.1815 518.345,-102.969 522.867,-108.313"/>
</g>
</g>
</svg>
