<?xml version="1.0" encoding="UTF-8" standalone="no"?>
<!DOCTYPE svg PUBLIC "-//W3C//DTD SVG 1.1//EN"
 "http://www.w3.org/Graphics/SVG/1.1/DTD/svg11.dtd">
<!-- Generated by graphviz version 2.36.0 (20140111.2315)
 -->
<!-- Title: mars::sim::NodeContactForceSensor Pages: 1 -->
<svg width="520pt" height="126pt"
 viewBox="0.00 0.00 520.00 126.00" xmlns="http://www.w3.org/2000/svg" xmlns:xlink="http://www.w3.org/1999/xlink">
<g id="graph0" class="graph" transform="scale(1 1) rotate(0) translate(4 122)">
<title>mars::sim::NodeContactForceSensor</title>
<polygon fill="white" stroke="none" points="-4,4 -4,-122 516,-122 516,4 -4,4"/>
<!-- Node1 -->
<g id="node1" class="node"><title>Node1</title>
<polygon fill="#bfbfbf" stroke="black" points="362.5,-22 362.5,-52 511.5,-52 511.5,-22 362.5,-22"/>
<text text-anchor="start" x="370.5" y="-40" font-family="Helvetica,sans-Serif" font-size="10.00">mars::sim::NodeContactForce</text>
<text text-anchor="middle" x="437" y="-29" font-family="Helvetica,sans-Serif" font-size="10.00">Sensor</text>
</g>
<!-- Node2 -->
<g id="node2" class="node"><title>Node2</title>
<g id="a_node2"><a xlink:href="../../d1/d38/classmars_1_1sim_1_1_node_array_sensor.html" target="_top" xlink:title="mars::sim::NodeArraySensor">
<polygon fill="white" stroke="black" points="182.5,-49.5 182.5,-68.5 325.5,-68.5 325.5,-49.5 182.5,-49.5"/>
<text text-anchor="middle" x="254" y="-56.5" font-family="Helvetica,sans-Serif" font-size="10.00">mars::sim::NodeArraySensor</text>
</a>
</g>
</g>
<!-- Node2&#45;&gt;Node1 -->
<g id="edge1" class="edge"><title>Node2&#45;&gt;Node1</title>
<path fill="none" stroke="midnightblue" d="M335.689,-49.1925C344.55,-48.1154 353.539,-47.0229 362.308,-45.957"/>
<polygon fill="midnightblue" stroke="midnightblue" points="335.262,-45.7186 325.757,-50.3997 336.106,-52.6675 335.262,-45.7186"/>
</g>
<!-- Node3 -->
<g id="node3" class="node"><title>Node3</title>
<g id="a_node3"><a xlink:href="../../d3/d21/classmars_1_1interfaces_1_1_sensor_interface.html" target="_top" xlink:title="mars::interfaces::Sensor\lInterface">
<polygon fill="white" stroke="black" points="11,-88 11,-118 135,-118 135,-88 11,-88"/>
<text text-anchor="start" x="19" y="-106" font-family="Helvetica,sans-Serif" font-size="10.00">mars::interfaces::Sensor</text>
<text text-anchor="middle" x="73" y="-95" font-family="Helvetica,sans-Serif" font-size="10.00">Interface</text>
</a>
</g>
</g>
<!-- Node3&#45;&gt;Node2 -->
<g id="edge2" class="edge"><title>Node3&#45;&gt;Node2</title>
<path fill="none" stroke="midnightblue" d="M145.088,-85.5259C168.692,-79.7237 194.083,-73.4824 214.302,-68.5124"/>
<polygon fill="midnightblue" stroke="midnightblue" points="143.976,-82.1948 135.101,-87.9808 145.647,-88.9925 143.976,-82.1948"/>
</g>
<!-- Node4 -->
<g id="node4" class="node"><title>Node4</title>
<g id="a_node4"><a xlink:href="../../da/d73/classmars_1_1interfaces_1_1_base_sensor.html" target="_top" xlink:title="mars::interfaces::BaseSensor">
<polygon fill="white" stroke="black" points="0,-49.5 0,-68.5 146,-68.5 146,-49.5 0,-49.5"/>
<text text-anchor="middle" x="73" y="-56.5" font-family="Helvetica,sans-Serif" font-size="10.00">mars::interfaces::BaseSensor</text>
</a>
</g>
</g>
<!-- Node4&#45;&gt;Node2 -->
<g id="edge3" class="edge"><title>Node4&#45;&gt;Node2</title>
<path fill="none" stroke="midnightblue" d="M156.197,-59C164.909,-59 173.714,-59 182.279,-59"/>
<polygon fill="midnightblue" stroke="midnightblue" points="156.032,-55.5001 146.032,-59 156.032,-62.5001 156.032,-55.5001"/>
</g>
<!-- Node5 -->
<g id="node5" class="node"><title>Node5</title>
<g id="a_node5"><a xlink:href="../../d0/d0e/classmars_1_1data__broker_1_1_receiver_interface.html" target="_top" xlink:title="Interface for classes that want to receive data from the DataBroker. ">
<polygon fill="white" stroke="black" points="22.5,-0 22.5,-30 123.5,-30 123.5,-0 22.5,-0"/>
<text text-anchor="start" x="30.5" y="-18" font-family="Helvetica,sans-Serif" font-size="10.00">mars::data_broker::</text>
<text text-anchor="middle" x="73" y="-7" font-family="Helvetica,sans-Serif" font-size="10.00">ReceiverInterface</text>
</a>
</g>
</g>
<!-- Node5&#45;&gt;Node2 -->
<g id="edge4" class="edge"><title>Node5&#45;&gt;Node2</title>
<path fill="none" stroke="midnightblue" d="M133.801,-29.6998C160.296,-36.2125 190.707,-43.6878 214.18,-49.4577"/>
<polygon fill="midnightblue" stroke="midnightblue" points="134.408,-26.2447 123.861,-27.2565 132.737,-33.0424 134.408,-26.2447"/>
</g>
<!-- Node6 -->
<g id="node6" class="node"><title>Node6</title>
<g id="a_node6"><a xlink:href="../../d1/db0/classmars_1_1data__broker_1_1_producer_interface.html" target="_top" xlink:title="Interface for classes producing data to broadcast via a DataBroker. ">
<polygon fill="white" stroke="black" points="203.5,-0 203.5,-30 304.5,-30 304.5,-0 203.5,-0"/>
<text text-anchor="start" x="211.5" y="-18" font-family="Helvetica,sans-Serif" font-size="10.00">mars::data_broker::</text>
<text text-anchor="middle" x="254" y="-7" font-family="Helvetica,sans-Serif" font-size="10.00">ProducerInterface</text>
</a>
</g>
</g>
<!-- Node6&#45;&gt;Node1 -->
<g id="edge5" class="edge"><title>Node6&#45;&gt;Node1</title>
<path fill="none" stroke="midnightblue" d="M315.136,-22.3094C330.194,-24.1396 346.52,-26.124 362.159,-28.0249"/>
<polygon fill="midnightblue" stroke="midnightblue" points="315.287,-18.8021 304.938,-21.0698 314.443,-25.7509 315.287,-18.8021"/>
</g>
</g>
</svg>
