<?xml version="1.0" encoding="UTF-8" standalone="no"?>
<!DOCTYPE svg PUBLIC "-//W3C//DTD SVG 1.1//EN"
 "http://www.w3.org/Graphics/SVG/1.1/DTD/svg11.dtd">
<!-- Generated by graphviz version 2.36.0 (20140111.2315)
 -->
<!-- Title: mars::sim::SensorReloadHelper Pages: 1 -->
<svg width="254pt" height="164pt"
 viewBox="0.00 0.00 254.00 164.00" xmlns="http://www.w3.org/2000/svg" xmlns:xlink="http://www.w3.org/1999/xlink">
<g id="graph0" class="graph" transform="scale(1 1) rotate(0) translate(4 160)">
<title>mars::sim::SensorReloadHelper</title>
<polygon fill="white" stroke="none" points="-4,4 -4,-160 250,-160 250,4 -4,4"/>
<!-- Node1 -->
<g id="node1" class="node"><title>Node1</title>
<polygon fill="#bfbfbf" stroke="black" points="0,-0.5 0,-19.5 156,-19.5 156,-0.5 0,-0.5"/>
<text text-anchor="middle" x="78" y="-7.5" font-family="Helvetica,sans-Serif" font-size="10.00">mars::sim::SensorReloadHelper</text>
</g>
<!-- Node2 -->
<g id="node2" class="node"><title>Node2</title>
<polygon fill="white" stroke="#bfbfbf" points="77.5,-136.5 77.5,-155.5 118.5,-155.5 118.5,-136.5 77.5,-136.5"/>
<text text-anchor="middle" x="98" y="-143.5" font-family="Helvetica,sans-Serif" font-size="10.00">string</text>
</g>
<!-- Node2&#45;&gt;Node1 -->
<g id="edge1" class="edge"><title>Node2&#45;&gt;Node1</title>
<path fill="none" stroke="#9a32cd" stroke-dasharray="5,2" d="M87.1078,-127.3C81.0534,-116.405 74.1267,-101.905 71,-88 65.5225,-63.6411 71.6998,-34.031 75.4875,-19.6592"/>
<polygon fill="#9a32cd" stroke="#9a32cd" points="84.2236,-129.302 92.2887,-136.173 90.2685,-125.772 84.2236,-129.302"/>
<text text-anchor="middle" x="82" y="-75.5" font-family="Helvetica,sans-Serif" font-size="10.00"> type</text>
</g>
<!-- Node3 -->
<g id="node3" class="node"><title>Node3</title>
<g id="a_node3"><a xlink:href="../../d4/d5f/classmars_1_1interfaces_1_1_base_config.html" target="_top" xlink:title="mars::interfaces::BaseConfig">
<polygon fill="white" stroke="black" points="102,-68.5 102,-87.5 246,-87.5 246,-68.5 102,-68.5"/>
<text text-anchor="middle" x="174" y="-75.5" font-family="Helvetica,sans-Serif" font-size="10.00">mars::interfaces::BaseConfig</text>
</a>
</g>
</g>
<!-- Node2&#45;&gt;Node3 -->
<g id="edge3" class="edge"><title>Node2&#45;&gt;Node3</title>
<path fill="none" stroke="#9a32cd" stroke-dasharray="5,2" d="M115.532,-129.774C130.492,-116.784 151.482,-98.5551 163.819,-87.8411"/>
<polygon fill="#9a32cd" stroke="#9a32cd" points="113.191,-127.172 107.936,-136.372 117.781,-132.457 113.191,-127.172"/>
<text text-anchor="middle" x="156" y="-109.5" font-family="Helvetica,sans-Serif" font-size="10.00"> name</text>
</g>
<!-- Node3&#45;&gt;Node1 -->
<g id="edge2" class="edge"><title>Node3&#45;&gt;Node1</title>
<path fill="none" stroke="#9a32cd" stroke-dasharray="5,2" d="M153.103,-62.6336C134.021,-49.5145 106.438,-30.551 90.5534,-19.6305"/>
<polygon fill="#9a32cd" stroke="#9a32cd" points="151.226,-65.5905 161.45,-68.3717 155.192,-59.8222 151.226,-65.5905"/>
<text text-anchor="middle" x="149" y="-41.5" font-family="Helvetica,sans-Serif" font-size="10.00"> config</text>
</g>
</g>
</svg>
