<?xml version="1.0" encoding="UTF-8" standalone="no"?>
<!DOCTYPE svg PUBLIC "-//W3C//DTD SVG 1.1//EN"
 "http://www.w3.org/Graphics/SVG/1.1/DTD/svg11.dtd">
<!-- Generated by graphviz version 2.36.0 (20140111.2315)
 -->
<!-- Title: /media/kavonszadkowski/work/marsdocs/mars/common/gui/log_console/src/ConsoleGUI.h Pages: 1 -->
<svg width="599pt" height="106pt"
 viewBox="0.00 0.00 599.00 106.00" xmlns="http://www.w3.org/2000/svg" xmlns:xlink="http://www.w3.org/1999/xlink">
<g id="graph0" class="graph" transform="scale(1 1) rotate(0) translate(4 102)">
<title>/media/kavonszadkowski/work/marsdocs/mars/common/gui/log_console/src/ConsoleGUI.h</title>
<polygon fill="white" stroke="none" points="-4,4 -4,-102 595,-102 595,4 -4,4"/>
<!-- Node1 -->
<g id="node1" class="node"><title>Node1</title>
<polygon fill="#bfbfbf" stroke="black" points="240.5,-56.5 240.5,-97.5 409.5,-97.5 409.5,-56.5 240.5,-56.5"/>
<text text-anchor="start" x="248.5" y="-85.5" font-family="Helvetica,sans-Serif" font-size="10.00">/media/kavonszadkowski</text>
<text text-anchor="start" x="248.5" y="-74.5" font-family="Helvetica,sans-Serif" font-size="10.00">/work/marsdocs/mars/common</text>
<text text-anchor="middle" x="325" y="-63.5" font-family="Helvetica,sans-Serif" font-size="10.00">/gui/log_console/src/ConsoleGUI.h</text>
</g>
<!-- Node2 -->
<g id="node2" class="node"><title>Node2</title>
<polygon fill="white" stroke="#bfbfbf" points="-0.5,-0.5 -0.5,-19.5 144.5,-19.5 144.5,-0.5 -0.5,-0.5"/>
<text text-anchor="middle" x="72" y="-7.5" font-family="Helvetica,sans-Serif" font-size="10.00">mars/main_gui/BaseWidget.h</text>
</g>
<!-- Node1&#45;&gt;Node2 -->
<g id="edge1" class="edge"><title>Node1&#45;&gt;Node2</title>
<path fill="none" stroke="midnightblue" d="M249.092,-56.4979C205.32,-45.2522 151.873,-31.5208 115.217,-22.1033"/>
<polygon fill="midnightblue" stroke="midnightblue" points="115.902,-18.6656 105.346,-19.5671 114.16,-25.4454 115.902,-18.6656"/>
</g>
<!-- Node3 -->
<g id="node3" class="node"><title>Node3</title>
<polygon fill="white" stroke="#bfbfbf" points="162.5,-0.5 162.5,-19.5 223.5,-19.5 223.5,-0.5 162.5,-0.5"/>
<text text-anchor="middle" x="193" y="-7.5" font-family="Helvetica,sans-Serif" font-size="10.00">QTextEdit</text>
</g>
<!-- Node1&#45;&gt;Node3 -->
<g id="edge2" class="edge"><title>Node1&#45;&gt;Node3</title>
<path fill="none" stroke="midnightblue" d="M285.396,-56.4979C264.185,-46.053 238.619,-33.4638 219.762,-24.1782"/>
<polygon fill="midnightblue" stroke="midnightblue" points="221.089,-20.9303 210.571,-19.6525 217.996,-27.2102 221.089,-20.9303"/>
</g>
<!-- Node4 -->
<g id="node4" class="node"><title>Node4</title>
<polygon fill="white" stroke="#bfbfbf" points="241.5,-0.5 241.5,-19.5 316.5,-19.5 316.5,-0.5 241.5,-0.5"/>
<text text-anchor="middle" x="279" y="-7.5" font-family="Helvetica,sans-Serif" font-size="10.00">QCloseEvent</text>
</g>
<!-- Node1&#45;&gt;Node4 -->
<g id="edge3" class="edge"><title>Node1&#45;&gt;Node4</title>
<path fill="none" stroke="midnightblue" d="M311.198,-56.4979C304.756,-47.3946 297.161,-36.6623 290.966,-27.9081"/>
<polygon fill="midnightblue" stroke="midnightblue" points="293.757,-25.7934 285.123,-19.6525 288.043,-29.8371 293.757,-25.7934"/>
</g>
<!-- Node5 -->
<g id="node5" class="node"><title>Node5</title>
<polygon fill="white" stroke="#bfbfbf" points="335,-0.5 335,-19.5 407,-19.5 407,-0.5 335,-0.5"/>
<text text-anchor="middle" x="371" y="-7.5" font-family="Helvetica,sans-Serif" font-size="10.00">QPaintEvent</text>
</g>
<!-- Node1&#45;&gt;Node5 -->
<g id="edge4" class="edge"><title>Node1&#45;&gt;Node5</title>
<path fill="none" stroke="midnightblue" d="M338.802,-56.4979C345.244,-47.3946 352.839,-36.6623 359.034,-27.9081"/>
<polygon fill="midnightblue" stroke="midnightblue" points="361.957,-29.8371 364.877,-19.6525 356.243,-25.7934 361.957,-29.8371"/>
</g>
<!-- Node6 -->
<g id="node6" class="node"><title>Node6</title>
<polygon fill="white" stroke="#bfbfbf" points="425,-0.5 425,-19.5 503,-19.5 503,-0.5 425,-0.5"/>
<text text-anchor="middle" x="464" y="-7.5" font-family="Helvetica,sans-Serif" font-size="10.00">QHBoxLayout</text>
</g>
<!-- Node1&#45;&gt;Node6 -->
<g id="edge5" class="edge"><title>Node1&#45;&gt;Node6</title>
<path fill="none" stroke="midnightblue" d="M366.705,-56.4979C389.245,-45.9572 416.456,-33.2326 436.364,-23.9235"/>
<polygon fill="midnightblue" stroke="midnightblue" points="437.921,-27.059 445.497,-19.6525 434.956,-20.7181 437.921,-27.059"/>
</g>
<!-- Node7 -->
<g id="node7" class="node"><title>Node7</title>
<polygon fill="white" stroke="#bfbfbf" points="521,-0.5 521,-19.5 591,-19.5 591,-0.5 521,-0.5"/>
<text text-anchor="middle" x="556" y="-7.5" font-family="Helvetica,sans-Serif" font-size="10.00">QCheckBox</text>
</g>
<!-- Node1&#45;&gt;Node7 -->
<g id="edge6" class="edge"><title>Node1&#45;&gt;Node7</title>
<path fill="none" stroke="midnightblue" d="M394.308,-56.4979C433.931,-45.3484 482.239,-31.7553 515.679,-22.3457"/>
<polygon fill="midnightblue" stroke="midnightblue" points="516.876,-25.645 525.554,-19.5671 514.98,-18.9066 516.876,-25.645"/>
</g>
</g>
</svg>
