<?xml version="1.0" encoding="UTF-8" standalone="no"?>
<!DOCTYPE svg PUBLIC "-//W3C//DTD SVG 1.1//EN"
 "http://www.w3.org/Graphics/SVG/1.1/DTD/svg11.dtd">
<!-- Generated by graphviz version 2.26.3 (20100126.1600)
 -->
<!-- Title: /home/kavonszadkowski/limes&#45;dev/simulation/mars/graphics/src/2d_objects/HUDTerminal.h Pages: 1 -->
<svg width="252pt" height="186pt"
 viewBox="0.00 0.00 252.00 186.00" xmlns="http://www.w3.org/2000/svg" xmlns:xlink="http://www.w3.org/1999/xlink">
<g id="graph1" class="graph" transform="scale(1 1) rotate(0) translate(4 182)">
<title>/home/kavonszadkowski/limes&#45;dev/simulation/mars/graphics/src/2d_objects/HUDTerminal.h</title>
<polygon fill="white" stroke="white" points="-4,5 -4,-182 249,-182 249,5 -4,5"/>
<!-- Node1 -->
<g id="node1" class="node"><title>Node1</title>
<polygon fill="#bfbfbf" stroke="black" points="47.5,-117 47.5,-177 172.5,-177 172.5,-117 47.5,-117"/>
<text text-anchor="start" x="55.5" y="-164" font-family="Helvetica,sans-Serif" font-size="10.00">/home/kavonszadkowski</text>
<text text-anchor="start" x="55.5" y="-151" font-family="Helvetica,sans-Serif" font-size="10.00">/limes&#45;dev/simulation</text>
<text text-anchor="start" x="55.5" y="-138" font-family="Helvetica,sans-Serif" font-size="10.00">/mars/graphics/src/2d</text>
<text text-anchor="middle" x="110" y="-125" font-family="Helvetica,sans-Serif" font-size="10.00">_objects/HUDTerminal.h</text>
</g>
<!-- Node2 -->
<g id="node3" class="node"><title>Node2</title>
<a xlink:href="../../dc/d75/_h_u_d_element_8h.html" target="_top" xlink:title="The &quot;HUDElement&quot;. ">
<polygon fill="white" stroke="black" points="-0.5,-58.5 -0.5,-79.5 82.5,-79.5 82.5,-58.5 -0.5,-58.5"/>
<text text-anchor="middle" x="41" y="-66.5" font-family="Helvetica,sans-Serif" font-size="10.00">HUDElement.h</text>
</a>
</g>
<!-- Node1&#45;&gt;Node2 -->
<g id="edge2" class="edge"><title>Node1&#45;&gt;Node2</title>
<path fill="none" stroke="midnightblue" d="M83.1252,-116.62C74.4078,-106.765 65.0068,-96.1381 57.3021,-87.4285"/>
<polygon fill="midnightblue" stroke="midnightblue" points="59.7599,-84.9244 50.5127,-79.7535 54.5169,-89.5625 59.7599,-84.9244"/>
</g>
<!-- Node4 -->
<g id="node7" class="node"><title>Node4</title>
<polygon fill="white" stroke="#bfbfbf" points="89.5,-0.5 89.5,-21.5 130.5,-21.5 130.5,-0.5 89.5,-0.5"/>
<text text-anchor="middle" x="110" y="-8.5" font-family="Helvetica,sans-Serif" font-size="10.00">string</text>
</g>
<!-- Node1&#45;&gt;Node4 -->
<g id="edge10" class="edge"><title>Node1&#45;&gt;Node4</title>
<path fill="none" stroke="midnightblue" d="M110,-116.817C110,-90.9764 110,-54.4525 110,-31.7739"/>
<polygon fill="midnightblue" stroke="midnightblue" points="113.5,-31.5832 110,-21.5832 106.5,-31.5833 113.5,-31.5832"/>
</g>
<!-- Node5 -->
<g id="node9" class="node"><title>Node5</title>
<polygon fill="white" stroke="#bfbfbf" points="137.5,-58.5 137.5,-79.5 244.5,-79.5 244.5,-58.5 137.5,-58.5"/>
<text text-anchor="middle" x="191" y="-66.5" font-family="Helvetica,sans-Serif" font-size="10.00">osg/MatrixTransform</text>
</g>
<!-- Node1&#45;&gt;Node5 -->
<g id="edge8" class="edge"><title>Node1&#45;&gt;Node5</title>
<path fill="none" stroke="midnightblue" d="M141.549,-116.62C151.993,-106.562 163.274,-95.6995 172.42,-86.8922"/>
<polygon fill="midnightblue" stroke="midnightblue" points="175.057,-89.211 179.833,-79.7535 170.202,-84.1688 175.057,-89.211"/>
</g>
<!-- Node3 -->
<g id="node5" class="node"><title>Node3</title>
<polygon fill="white" stroke="#bfbfbf" points="10,-0.5 10,-21.5 72,-21.5 72,-0.5 10,-0.5"/>
<text text-anchor="middle" x="41" y="-8.5" font-family="Helvetica,sans-Serif" font-size="10.00">osg/Group</text>
</g>
<!-- Node2&#45;&gt;Node3 -->
<g id="edge4" class="edge"><title>Node2&#45;&gt;Node3</title>
<path fill="none" stroke="midnightblue" d="M41,-58.3619C41,-50.9219 41,-40.7427 41,-31.7276"/>
<polygon fill="midnightblue" stroke="midnightblue" points="44.5001,-31.5706 41,-21.5707 37.5001,-31.5707 44.5001,-31.5706"/>
</g>
<!-- Node2&#45;&gt;Node4 -->
<g id="edge6" class="edge"><title>Node2&#45;&gt;Node4</title>
<path fill="none" stroke="midnightblue" d="M53.6557,-58.3619C63.6739,-49.9408 77.8668,-38.0105 89.5013,-28.2308"/>
<polygon fill="midnightblue" stroke="midnightblue" points="92.0218,-30.6844 97.4246,-21.5707 87.5176,-25.326 92.0218,-30.6844"/>
</g>
</g>
</svg>
