<?xml version="1.0" encoding="UTF-8" standalone="no"?>
<!DOCTYPE svg PUBLIC "-//W3C//DTD SVG 1.1//EN"
 "http://www.w3.org/Graphics/SVG/1.1/DTD/svg11.dtd">
<!-- Generated by graphviz version 2.26.3 (20100126.1600)
 -->
<!-- Title: /home/kavonszadkowski/limes&#45;dev/simulation/mars/gui/src/JointHandler.h Pages: 1 -->
<svg width="628pt" height="128pt"
 viewBox="0.00 0.00 628.00 128.00" xmlns="http://www.w3.org/2000/svg" xmlns:xlink="http://www.w3.org/1999/xlink">
<g id="graph1" class="graph" transform="scale(1 1) rotate(0) translate(4 124)">
<title>/home/kavonszadkowski/limes&#45;dev/simulation/mars/gui/src/JointHandler.h</title>
<polygon fill="white" stroke="white" points="-4,5 -4,-124 625,-124 625,5 -4,5"/>
<!-- Node1 -->
<g id="node1" class="node"><title>Node1</title>
<polygon fill="#bfbfbf" stroke="black" points="278,-72.5 278,-119.5 418,-119.5 418,-72.5 278,-72.5"/>
<text text-anchor="start" x="286" y="-106.5" font-family="Helvetica,sans-Serif" font-size="10.00">/home/kavonszadkowski</text>
<text text-anchor="start" x="286" y="-93.5" font-family="Helvetica,sans-Serif" font-size="10.00">/limes&#45;dev/simulation</text>
<text text-anchor="middle" x="348" y="-80.5" font-family="Helvetica,sans-Serif" font-size="10.00">/mars/gui/src/JointHandler.h</text>
</g>
<!-- Node2 -->
<g id="node3" class="node"><title>Node2</title>
<polygon fill="white" stroke="#bfbfbf" points="0,-7.5 0,-28.5 156,-28.5 156,-7.5 0,-7.5"/>
<text text-anchor="middle" x="78" y="-15.5" font-family="Helvetica,sans-Serif" font-size="10.00">mars/main_gui/PropertyDialog.h</text>
</g>
<!-- Node1&#45;&gt;Node2 -->
<g id="edge2" class="edge"><title>Node1&#45;&gt;Node2</title>
<path fill="none" stroke="midnightblue" d="M277.766,-75.71C229.307,-61.7108 166.257,-43.4966 124.074,-31.3102"/>
<polygon fill="midnightblue" stroke="midnightblue" points="124.927,-27.9137 114.349,-28.5008 122.984,-34.6387 124.927,-27.9137"/>
</g>
<!-- Node3 -->
<g id="node5" class="node"><title>Node3</title>
<polygon fill="white" stroke="#bfbfbf" points="173.5,-1 173.5,-35 276.5,-35 276.5,-1 173.5,-1"/>
<text text-anchor="start" x="181.5" y="-22" font-family="Helvetica,sans-Serif" font-size="10.00">mars/interfaces/sim</text>
<text text-anchor="middle" x="225" y="-9" font-family="Helvetica,sans-Serif" font-size="10.00">/ControlCenter.h</text>
</g>
<!-- Node1&#45;&gt;Node3 -->
<g id="edge4" class="edge"><title>Node1&#45;&gt;Node3</title>
<path fill="none" stroke="midnightblue" d="M310.762,-72.3858C294.922,-62.3405 276.523,-50.6734 260.839,-40.727"/>
<polygon fill="midnightblue" stroke="midnightblue" points="262.277,-37.4945 251.957,-35.0948 258.528,-43.4061 262.277,-37.4945"/>
</g>
<!-- Node4 -->
<g id="node7" class="node"><title>Node4</title>
<polygon fill="white" stroke="#bfbfbf" points="293.5,-1 293.5,-35 402.5,-35 402.5,-1 293.5,-1"/>
<text text-anchor="start" x="301.5" y="-22" font-family="Helvetica,sans-Serif" font-size="10.00">mars/interfaces/core</text>
<text text-anchor="middle" x="348" y="-9" font-family="Helvetica,sans-Serif" font-size="10.00">_objects_exchange.h</text>
</g>
<!-- Node1&#45;&gt;Node4 -->
<g id="edge6" class="edge"><title>Node1&#45;&gt;Node4</title>
<path fill="none" stroke="midnightblue" d="M348,-72.1736C348,-63.6375 348,-53.9525 348,-45.1557"/>
<polygon fill="midnightblue" stroke="midnightblue" points="351.5,-45.003 348,-35.003 344.5,-45.003 351.5,-45.003"/>
</g>
<!-- Node5 -->
<g id="node9" class="node"><title>Node5</title>
<polygon fill="white" stroke="#bfbfbf" points="419.5,-7.5 419.5,-28.5 556.5,-28.5 556.5,-7.5 419.5,-7.5"/>
<text text-anchor="middle" x="488" y="-15.5" font-family="Helvetica,sans-Serif" font-size="10.00">mars/interfaces/JointData.h</text>
</g>
<!-- Node1&#45;&gt;Node5 -->
<g id="edge8" class="edge"><title>Node1&#45;&gt;Node5</title>
<path fill="none" stroke="midnightblue" d="M390.385,-72.3858C413.034,-59.7668 440.277,-44.5885 460.221,-33.4771"/>
<polygon fill="midnightblue" stroke="midnightblue" points="462.067,-36.4548 469.1,-28.5302 458.66,-30.3398 462.067,-36.4548"/>
</g>
<!-- Node6 -->
<g id="node11" class="node"><title>Node6</title>
<polygon fill="white" stroke="#bfbfbf" points="573.5,-7.5 573.5,-28.5 620.5,-28.5 620.5,-7.5 573.5,-7.5"/>
<text text-anchor="middle" x="597" y="-15.5" font-family="Helvetica,sans-Serif" font-size="10.00">QLabel</text>
</g>
<!-- Node1&#45;&gt;Node6 -->
<g id="edge10" class="edge"><title>Node1&#45;&gt;Node6</title>
<path fill="none" stroke="midnightblue" d="M418.334,-81.132C461.523,-70.8884 517.481,-55.5926 565,-36 567.059,-35.1511 569.152,-34.1987 571.231,-33.1868"/>
<polygon fill="midnightblue" stroke="midnightblue" points="572.897,-36.265 580.112,-28.5064 569.634,-30.0723 572.897,-36.265"/>
</g>
</g>
</svg>
