<?xml version="1.0" encoding="UTF-8" standalone="no"?>
<!DOCTYPE svg PUBLIC "-//W3C//DTD SVG 1.1//EN"
 "http://www.w3.org/Graphics/SVG/1.1/DTD/svg11.dtd">
<!-- Generated by graphviz version 2.26.3 (20100126.1600)
 -->
<!-- Title: /home/kavonszadkowski/limes&#45;dev/simulation/mars/common/gui/data_broker_plotter/src/DataBrokerPlotterLib.h Pages: 1 -->
<svg width="326pt" height="192pt"
 viewBox="0.00 0.00 326.00 192.00" xmlns="http://www.w3.org/2000/svg" xmlns:xlink="http://www.w3.org/1999/xlink">
<g id="graph1" class="graph" transform="scale(1 1) rotate(0) translate(4 188)">
<title>/home/kavonszadkowski/limes&#45;dev/simulation/mars/common/gui/data_broker_plotter/src/DataBrokerPlotterLib.h</title>
<polygon fill="white" stroke="white" points="-4,5 -4,-188 323,-188 323,5 -4,5"/>
<!-- Node1 -->
<g id="node1" class="node"><title>Node1</title>
<polygon fill="#bfbfbf" stroke="black" points="84,-110.5 84,-183.5 234,-183.5 234,-110.5 84,-110.5"/>
<text text-anchor="start" x="92" y="-170.5" font-family="Helvetica,sans-Serif" font-size="10.00">/home/kavonszadkowski</text>
<text text-anchor="start" x="92" y="-157.5" font-family="Helvetica,sans-Serif" font-size="10.00">/limes&#45;dev/simulation</text>
<text text-anchor="start" x="92" y="-144.5" font-family="Helvetica,sans-Serif" font-size="10.00">/mars/common/gui/data</text>
<text text-anchor="start" x="92" y="-131.5" font-family="Helvetica,sans-Serif" font-size="10.00">_broker_plotter/src/DataBroker</text>
<text text-anchor="middle" x="159" y="-118.5" font-family="Helvetica,sans-Serif" font-size="10.00">PlotterLib.h</text>
</g>
<!-- Node2 -->
<g id="node3" class="node"><title>Node2</title>
<a xlink:href="../../d1/d0c/_data_broker_plotter_8cpp.html" target="_top" xlink:title="/home/kavonszadkowski\l/limes&#45;dev/simulation\l/mars/common/gui/data\l_broker_plotter/src/DataBroker\lPlotter.cpp">
<polygon fill="white" stroke="black" points="0,-0.5 0,-73.5 150,-73.5 150,-0.5 0,-0.5"/>
<text text-anchor="start" x="8" y="-60.5" font-family="Helvetica,sans-Serif" font-size="10.00">/home/kavonszadkowski</text>
<text text-anchor="start" x="8" y="-47.5" font-family="Helvetica,sans-Serif" font-size="10.00">/limes&#45;dev/simulation</text>
<text text-anchor="start" x="8" y="-34.5" font-family="Helvetica,sans-Serif" font-size="10.00">/mars/common/gui/data</text>
<text text-anchor="start" x="8" y="-21.5" font-family="Helvetica,sans-Serif" font-size="10.00">_broker_plotter/src/DataBroker</text>
<text text-anchor="middle" x="75" y="-8.5" font-family="Helvetica,sans-Serif" font-size="10.00">Plotter.cpp</text>
</a>
</g>
<!-- Node1&#45;&gt;Node2 -->
<g id="edge2" class="edge"><title>Node1&#45;&gt;Node2</title>
<path fill="none" stroke="midnightblue" d="M124.804,-102.22C117.603,-92.7893 110.084,-82.943 103.135,-73.8435"/>
<polygon fill="midnightblue" stroke="midnightblue" points="122.178,-104.548 131.029,-110.372 127.742,-100.3 122.178,-104.548"/>
</g>
<!-- Node3 -->
<g id="node5" class="node"><title>Node3</title>
<a xlink:href="../../de/d92/_data_broker_plotter_lib_8cpp.html" target="_top" xlink:title="/home/kavonszadkowski\l/limes&#45;dev/simulation\l/mars/common/gui/data\l_broker_plotter/src/DataBroker\lPlotterLib.cpp">
<polygon fill="white" stroke="black" points="168,-0.5 168,-73.5 318,-73.5 318,-0.5 168,-0.5"/>
<text text-anchor="start" x="176" y="-60.5" font-family="Helvetica,sans-Serif" font-size="10.00">/home/kavonszadkowski</text>
<text text-anchor="start" x="176" y="-47.5" font-family="Helvetica,sans-Serif" font-size="10.00">/limes&#45;dev/simulation</text>
<text text-anchor="start" x="176" y="-34.5" font-family="Helvetica,sans-Serif" font-size="10.00">/mars/common/gui/data</text>
<text text-anchor="start" x="176" y="-21.5" font-family="Helvetica,sans-Serif" font-size="10.00">_broker_plotter/src/DataBroker</text>
<text text-anchor="middle" x="243" y="-8.5" font-family="Helvetica,sans-Serif" font-size="10.00">PlotterLib.cpp</text>
</a>
</g>
<!-- Node1&#45;&gt;Node3 -->
<g id="edge4" class="edge"><title>Node1&#45;&gt;Node3</title>
<path fill="none" stroke="midnightblue" d="M193.196,-102.22C200.397,-92.7893 207.916,-82.943 214.865,-73.8435"/>
<polygon fill="midnightblue" stroke="midnightblue" points="190.258,-100.3 186.971,-110.372 195.822,-104.548 190.258,-100.3"/>
</g>
</g>
</svg>
