<?xml version="1.0" encoding="UTF-8" standalone="no"?>
<!DOCTYPE svg PUBLIC "-//W3C//DTD SVG 1.1//EN"
 "http://www.w3.org/Graphics/SVG/1.1/DTD/svg11.dtd">
<!-- Generated by graphviz version 2.26.3 (20100126.1600)
 -->
<!-- Title: /home/kavonszadkowski/limes&#45;dev/configmaps/src/FIFOMap.h Pages: 1 -->
<svg width="132pt" height="224pt"
 viewBox="0.00 0.00 132.00 224.00" xmlns="http://www.w3.org/2000/svg" xmlns:xlink="http://www.w3.org/1999/xlink">
<g id="graph1" class="graph" transform="scale(1 1) rotate(0) translate(4 220)">
<title>/home/kavonszadkowski/limes&#45;dev/configmaps/src/FIFOMap.h</title>
<polygon fill="white" stroke="white" points="-4,5 -4,-220 129,-220 129,5 -4,5"/>
<!-- Node1 -->
<g id="node1" class="node"><title>Node1</title>
<polygon fill="#bfbfbf" stroke="black" points="-0.5,-168.5 -0.5,-215.5 124.5,-215.5 124.5,-168.5 -0.5,-168.5"/>
<text text-anchor="start" x="7.5" y="-202.5" font-family="Helvetica,sans-Serif" font-size="10.00">/home/kavonszadkowski</text>
<text text-anchor="start" x="7.5" y="-189.5" font-family="Helvetica,sans-Serif" font-size="10.00">/limes&#45;dev/configmaps</text>
<text text-anchor="middle" x="62" y="-176.5" font-family="Helvetica,sans-Serif" font-size="10.00">/src/FIFOMap.h</text>
</g>
<!-- Node2 -->
<g id="node3" class="node"><title>Node2</title>
<a xlink:href="../../d4/daf/_config_data_8h.html" target="_top" xlink:title="/home/kavonszadkowski\l/limes&#45;dev/configmaps\l/src/ConfigData.h">
<polygon fill="white" stroke="black" points="-0.5,-84.5 -0.5,-131.5 124.5,-131.5 124.5,-84.5 -0.5,-84.5"/>
<text text-anchor="start" x="7.5" y="-118.5" font-family="Helvetica,sans-Serif" font-size="10.00">/home/kavonszadkowski</text>
<text text-anchor="start" x="7.5" y="-105.5" font-family="Helvetica,sans-Serif" font-size="10.00">/limes&#45;dev/configmaps</text>
<text text-anchor="middle" x="62" y="-92.5" font-family="Helvetica,sans-Serif" font-size="10.00">/src/ConfigData.h</text>
</a>
</g>
<!-- Node1&#45;&gt;Node2 -->
<g id="edge2" class="edge"><title>Node1&#45;&gt;Node2</title>
<path fill="none" stroke="midnightblue" d="M62,-158.066C62,-149.193 62,-139.821 62,-131.615"/>
<polygon fill="midnightblue" stroke="midnightblue" points="58.5001,-158.154 62,-168.154 65.5001,-158.154 58.5001,-158.154"/>
</g>
<!-- Node3 -->
<g id="node5" class="node"><title>Node3</title>
<a xlink:href="../../da/dc3/_config_data_8cpp.html" target="_top" xlink:title="/home/kavonszadkowski\l/limes&#45;dev/configmaps\l/src/ConfigData.cpp">
<polygon fill="white" stroke="black" points="-0.5,-0.5 -0.5,-47.5 124.5,-47.5 124.5,-0.5 -0.5,-0.5"/>
<text text-anchor="start" x="7.5" y="-34.5" font-family="Helvetica,sans-Serif" font-size="10.00">/home/kavonszadkowski</text>
<text text-anchor="start" x="7.5" y="-21.5" font-family="Helvetica,sans-Serif" font-size="10.00">/limes&#45;dev/configmaps</text>
<text text-anchor="middle" x="62" y="-8.5" font-family="Helvetica,sans-Serif" font-size="10.00">/src/ConfigData.cpp</text>
</a>
</g>
<!-- Node2&#45;&gt;Node3 -->
<g id="edge4" class="edge"><title>Node2&#45;&gt;Node3</title>
<path fill="none" stroke="midnightblue" d="M62,-74.0664C62,-65.1933 62,-55.821 62,-47.6152"/>
<polygon fill="midnightblue" stroke="midnightblue" points="58.5001,-74.1536 62,-84.1537 65.5001,-74.1537 58.5001,-74.1536"/>
</g>
</g>
</svg>
