<?xml version="1.0" encoding="UTF-8" standalone="no"?>
<!DOCTYPE svg PUBLIC "-//W3C//DTD SVG 1.1//EN"
 "http://www.w3.org/Graphics/SVG/1.1/DTD/svg11.dtd">
<!-- Generated by graphviz version 2.26.3 (20100126.1600)
 -->
<!-- Title: /home/kavonszadkowski/limes&#45;dev/lib_manager/src/LibManager.cpp Pages: 1 -->
<svg width="582pt" height="140pt"
 viewBox="0.00 0.00 582.00 140.00" xmlns="http://www.w3.org/2000/svg" xmlns:xlink="http://www.w3.org/1999/xlink">
<g id="graph1" class="graph" transform="scale(1 1) rotate(0) translate(4 136)">
<title>/home/kavonszadkowski/limes&#45;dev/lib_manager/src/LibManager.cpp</title>
<polygon fill="white" stroke="white" points="-4,5 -4,-136 579,-136 579,5 -4,5"/>
<!-- Node1 -->
<g id="node1" class="node"><title>Node1</title>
<polygon fill="#bfbfbf" stroke="black" points="282.5,-84.5 282.5,-131.5 407.5,-131.5 407.5,-84.5 282.5,-84.5"/>
<text text-anchor="start" x="290.5" y="-118.5" font-family="Helvetica,sans-Serif" font-size="10.00">/home/kavonszadkowski</text>
<text text-anchor="start" x="290.5" y="-105.5" font-family="Helvetica,sans-Serif" font-size="10.00">/limes&#45;dev/lib_manager</text>
<text text-anchor="middle" x="345" y="-92.5" font-family="Helvetica,sans-Serif" font-size="10.00">/src/LibManager.cpp</text>
</g>
<!-- Node2 -->
<g id="node3" class="node"><title>Node2</title>
<polygon fill="white" stroke="#bfbfbf" points="0,-13.5 0,-34.5 86,-34.5 86,-13.5 0,-13.5"/>
<text text-anchor="middle" x="43" y="-21.5" font-family="Helvetica,sans-Serif" font-size="10.00">LibManager.hpp</text>
</g>
<!-- Node1&#45;&gt;Node2 -->
<g id="edge2" class="edge"><title>Node1&#45;&gt;Node2</title>
<path fill="none" stroke="midnightblue" d="M282.381,-96.5362C231.216,-86.3249 157.41,-69.6547 95,-48 87.6378,-45.4455 79.9096,-42.2056 72.7295,-38.9395"/>
<polygon fill="midnightblue" stroke="midnightblue" points="73.9026,-35.6233 63.3642,-34.5313 70.9214,-41.9568 73.9026,-35.6233"/>
</g>
<!-- Node3 -->
<g id="node5" class="node"><title>Node3</title>
<polygon fill="white" stroke="#bfbfbf" points="103.5,-0.5 103.5,-47.5 228.5,-47.5 228.5,-0.5 103.5,-0.5"/>
<text text-anchor="start" x="111.5" y="-34.5" font-family="Helvetica,sans-Serif" font-size="10.00">/home/kavonszadkowski</text>
<text text-anchor="start" x="111.5" y="-21.5" font-family="Helvetica,sans-Serif" font-size="10.00">/limes&#45;dev/lib_manager</text>
<text text-anchor="middle" x="166" y="-8.5" font-family="Helvetica,sans-Serif" font-size="10.00">/src/LibInterface.hpp</text>
</g>
<!-- Node1&#45;&gt;Node3 -->
<g id="edge4" class="edge"><title>Node1&#45;&gt;Node3</title>
<path fill="none" stroke="midnightblue" d="M294.662,-84.3778C273.123,-74.2699 247.814,-62.393 225.367,-51.8595"/>
<polygon fill="midnightblue" stroke="midnightblue" points="226.81,-48.6701 216.27,-47.5903 223.836,-55.0071 226.81,-48.6701"/>
</g>
<!-- Node4 -->
<g id="node7" class="node"><title>Node4</title>
<polygon fill="white" stroke="#bfbfbf" points="245.5,-13.5 245.5,-34.5 286.5,-34.5 286.5,-13.5 245.5,-13.5"/>
<text text-anchor="middle" x="266" y="-21.5" font-family="Helvetica,sans-Serif" font-size="10.00">string</text>
</g>
<!-- Node1&#45;&gt;Node4 -->
<g id="edge6" class="edge"><title>Node1&#45;&gt;Node4</title>
<path fill="none" stroke="midnightblue" d="M322.573,-84.1537C310,-70.7847 294.569,-54.3771 283.001,-42.0767"/>
<polygon fill="midnightblue" stroke="midnightblue" points="285.426,-39.5467 276.025,-34.66 280.327,-44.3424 285.426,-39.5467"/>
</g>
<!-- Node5 -->
<g id="node9" class="node"><title>Node5</title>
<polygon fill="white" stroke="#bfbfbf" points="303.5,-13.5 303.5,-34.5 338.5,-34.5 338.5,-13.5 303.5,-13.5"/>
<text text-anchor="middle" x="321" y="-21.5" font-family="Helvetica,sans-Serif" font-size="10.00">map</text>
</g>
<!-- Node1&#45;&gt;Node5 -->
<g id="edge8" class="edge"><title>Node1&#45;&gt;Node5</title>
<path fill="none" stroke="midnightblue" d="M338.187,-84.1537C334.622,-71.676 330.3,-56.5513 326.883,-44.5895"/>
<polygon fill="midnightblue" stroke="midnightblue" points="330.158,-43.3137 324.046,-34.66 323.428,-45.2368 330.158,-43.3137"/>
</g>
<!-- Node6 -->
<g id="node11" class="node"><title>Node6</title>
<polygon fill="white" stroke="#bfbfbf" points="355.5,-13.5 355.5,-34.5 384.5,-34.5 384.5,-13.5 355.5,-13.5"/>
<text text-anchor="middle" x="370" y="-21.5" font-family="Helvetica,sans-Serif" font-size="10.00">list</text>
</g>
<!-- Node1&#45;&gt;Node6 -->
<g id="edge10" class="edge"><title>Node1&#45;&gt;Node6</title>
<path fill="none" stroke="midnightblue" d="M352.097,-84.1537C355.811,-71.676 360.312,-56.5513 363.872,-44.5895"/>
<polygon fill="midnightblue" stroke="midnightblue" points="367.329,-45.2429 366.827,-34.66 360.62,-43.2461 367.329,-45.2429"/>
</g>
<!-- Node7 -->
<g id="node13" class="node"><title>Node7</title>
<polygon fill="white" stroke="#bfbfbf" points="402,-13.5 402,-34.5 448,-34.5 448,-13.5 402,-13.5"/>
<text text-anchor="middle" x="425" y="-21.5" font-family="Helvetica,sans-Serif" font-size="10.00">dlfcn.h</text>
</g>
<!-- Node1&#45;&gt;Node7 -->
<g id="edge12" class="edge"><title>Node1&#45;&gt;Node7</title>
<path fill="none" stroke="midnightblue" d="M367.711,-84.1537C380.443,-70.7847 396.069,-54.3771 407.784,-42.0767"/>
<polygon fill="midnightblue" stroke="midnightblue" points="410.486,-44.3152 414.848,-34.66 405.417,-39.4876 410.486,-44.3152"/>
</g>
<!-- Node8 -->
<g id="node15" class="node"><title>Node8</title>
<polygon fill="white" stroke="#bfbfbf" points="465.5,-13.5 465.5,-34.5 508.5,-34.5 508.5,-13.5 465.5,-13.5"/>
<text text-anchor="middle" x="487" y="-21.5" font-family="Helvetica,sans-Serif" font-size="10.00">cstdio</text>
</g>
<!-- Node1&#45;&gt;Node8 -->
<g id="edge14" class="edge"><title>Node1&#45;&gt;Node8</title>
<path fill="none" stroke="midnightblue" d="M393.526,-84.4687C413.648,-74.0856 436.931,-61.2426 457,-48 460.253,-45.8533 463.585,-43.436 466.789,-40.9837"/>
<polygon fill="midnightblue" stroke="midnightblue" points="469.194,-43.5419 474.832,-34.5716 464.831,-38.0682 469.194,-43.5419"/>
</g>
<!-- Node9 -->
<g id="node17" class="node"><title>Node9</title>
<polygon fill="white" stroke="#bfbfbf" points="526,-13.5 526,-34.5 574,-34.5 574,-13.5 526,-13.5"/>
<text text-anchor="middle" x="550" y="-21.5" font-family="Helvetica,sans-Serif" font-size="10.00">stdlib.h</text>
</g>
<!-- Node1&#45;&gt;Node9 -->
<g id="edge16" class="edge"><title>Node1&#45;&gt;Node9</title>
<path fill="none" stroke="midnightblue" d="M407.723,-90.9753C441.15,-80.7135 482.396,-66.1129 517,-48 521.136,-45.8348 525.33,-43.1938 529.278,-40.4655"/>
<polygon fill="midnightblue" stroke="midnightblue" points="531.413,-43.2397 537.408,-34.504 527.274,-37.5947 531.413,-43.2397"/>
</g>
</g>
</svg>
