<?xml version="1.0" encoding="UTF-8" standalone="no"?>
<!DOCTYPE svg PUBLIC "-//W3C//DTD SVG 1.1//EN"
 "http://www.w3.org/Graphics/SVG/1.1/DTD/svg11.dtd">
<!-- Generated by graphviz version 2.36.0 (20140111.2315)
 -->
<!-- Title: mars::scene_loader::Load Pages: 1 -->
<svg width="864pt" height="518pt"
 viewBox="0.00 0.00 864.00 518.00" xmlns="http://www.w3.org/2000/svg" xmlns:xlink="http://www.w3.org/1999/xlink">
<g id="graph0" class="graph" transform="scale(1 1) rotate(0) translate(4 514)">
<title>mars::scene_loader::Load</title>
<polygon fill="white" stroke="none" points="-4,4 -4,-514 860,-514 860,4 -4,4"/>
<!-- Node1 -->
<g id="node1" class="node"><title>Node1</title>
<polygon fill="#bfbfbf" stroke="black" points="754,-259 754,-289 856,-289 856,-259 754,-259"/>
<text text-anchor="start" x="762" y="-277" font-family="Helvetica,sans-Serif" font-size="10.00">mars::scene_loader</text>
<text text-anchor="middle" x="805" y="-266" font-family="Helvetica,sans-Serif" font-size="10.00">::Load</text>
</g>
<!-- Node2 -->
<g id="node2" class="node"><title>Node2</title>
<polygon fill="white" stroke="#bfbfbf" points="566.5,-284.5 566.5,-303.5 607.5,-303.5 607.5,-284.5 566.5,-284.5"/>
<text text-anchor="middle" x="587" y="-291.5" font-family="Helvetica,sans-Serif" font-size="10.00">string</text>
</g>
<!-- Node2&#45;&gt;Node1 -->
<g id="edge1" class="edge"><title>Node2&#45;&gt;Node1</title>
<path fill="none" stroke="#9a32cd" stroke-dasharray="5,2" d="M617.604,-291.259C652.613,-288.017 711.448,-282.57 753.659,-278.661"/>
<polygon fill="#9a32cd" stroke="#9a32cd" points="617.184,-287.783 607.55,-292.19 617.83,-294.753 617.184,-287.783"/>
<text text-anchor="middle" x="702" y="-334" font-family="Helvetica,sans-Serif" font-size="10.00"> mFileName</text>
<text text-anchor="middle" x="702" y="-323" font-family="Helvetica,sans-Serif" font-size="10.00">mFileSuffix</text>
<text text-anchor="middle" x="702" y="-312" font-family="Helvetica,sans-Serif" font-size="10.00">tmpPath</text>
<text text-anchor="middle" x="702" y="-301" font-family="Helvetica,sans-Serif" font-size="10.00">mRobotName</text>
<text text-anchor="middle" x="702" y="-290" font-family="Helvetica,sans-Serif" font-size="10.00">sceneFilename</text>
</g>
<!-- Node3 -->
<g id="node3" class="node"><title>Node3</title>
<g id="a_node3"><a xlink:href="../../d7/d4e/classmars_1_1interfaces_1_1_control_center.html" target="_top" xlink:title="The declaration of the ControlCenter. ">
<polygon fill="white" stroke="black" points="524.5,-235 524.5,-265 649.5,-265 649.5,-235 524.5,-235"/>
<text text-anchor="start" x="532.5" y="-253" font-family="Helvetica,sans-Serif" font-size="10.00">mars::interfaces::Control</text>
<text text-anchor="middle" x="587" y="-242" font-family="Helvetica,sans-Serif" font-size="10.00">Center</text>
</a>
</g>
</g>
<!-- Node3&#45;&gt;Node1 -->
<g id="edge2" class="edge"><title>Node3&#45;&gt;Node1</title>
<path fill="none" stroke="#9a32cd" stroke-dasharray="5,2" d="M659.764,-257.621C683.984,-260.229 711.17,-263.197 736,-266 741.788,-266.653 747.851,-267.35 753.873,-268.049"/>
<polygon fill="#9a32cd" stroke="#9a32cd" points="659.897,-254.115 649.581,-256.526 659.149,-261.075 659.897,-254.115"/>
<text text-anchor="middle" x="702" y="-269" font-family="Helvetica,sans-Serif" font-size="10.00"> control</text>
</g>
<!-- Node4 -->
<g id="node4" class="node"><title>Node4</title>
<g id="a_node4"><a xlink:href="../../d1/d93/classmars_1_1interfaces_1_1_graphics_manager_interface.html" target="_top" xlink:title="mars::interfaces::Graphics\lManagerInterface">
<polygon fill="white" stroke="black" points="280,-480 280,-510 412,-510 412,-480 280,-480"/>
<text text-anchor="start" x="288" y="-498" font-family="Helvetica,sans-Serif" font-size="10.00">mars::interfaces::Graphics</text>
<text text-anchor="middle" x="346" y="-487" font-family="Helvetica,sans-Serif" font-size="10.00">ManagerInterface</text>
</a>
</g>
</g>
<!-- Node4&#45;&gt;Node3 -->
<g id="edge3" class="edge"><title>Node4&#45;&gt;Node3</title>
<path fill="none" stroke="#9a32cd" stroke-dasharray="5,2" d="M422.307,-489.548C452.795,-483.354 485.557,-470.852 506,-446 554.548,-386.982 477.984,-336.012 524,-275 526.935,-271.108 530.576,-267.821 534.612,-265.044"/>
<polygon fill="#9a32cd" stroke="#9a32cd" points="421.285,-486.176 412.076,-491.415 422.542,-493.062 421.285,-486.176"/>
<text text-anchor="middle" x="474" y="-487" font-family="Helvetica,sans-Serif" font-size="10.00"> graphics</text>
</g>
<!-- Node5 -->
<g id="node5" class="node"><title>Node5</title>
<polygon fill="white" stroke="#bfbfbf" points="47,-436.5 47,-455.5 115,-455.5 115,-436.5 47,-436.5"/>
<text text-anchor="middle" x="81" y="-443.5" font-family="Helvetica,sans-Serif" font-size="10.00">LibInterface</text>
</g>
<!-- Node5&#45;&gt;Node4 -->
<g id="edge4" class="edge"><title>Node5&#45;&gt;Node4</title>
<path fill="none" stroke="midnightblue" d="M124.956,-454.003C166.98,-461.833 231.535,-473.86 279.873,-482.866"/>
<polygon fill="midnightblue" stroke="midnightblue" points="125.515,-450.547 115.043,-452.156 124.233,-457.429 125.515,-450.547"/>
</g>
<!-- Node9 -->
<g id="node9" class="node"><title>Node9</title>
<g id="a_node9"><a xlink:href="../../d4/da6/classmars_1_1cfg__manager_1_1_c_f_g_manager_interface.html" target="_top" xlink:title="mars::cfg_manager::\lCFGManagerInterface">
<polygon fill="white" stroke="black" points="289.5,-431 289.5,-461 402.5,-461 402.5,-431 289.5,-431"/>
<text text-anchor="start" x="297.5" y="-449" font-family="Helvetica,sans-Serif" font-size="10.00">mars::cfg_manager::</text>
<text text-anchor="middle" x="346" y="-438" font-family="Helvetica,sans-Serif" font-size="10.00">CFGManagerInterface</text>
</a>
</g>
</g>
<!-- Node5&#45;&gt;Node9 -->
<g id="edge9" class="edge"><title>Node5&#45;&gt;Node9</title>
<path fill="none" stroke="midnightblue" d="M125.318,-446C170.178,-446 240.43,-446 289.371,-446"/>
<polygon fill="midnightblue" stroke="midnightblue" points="125.043,-442.5 115.043,-446 125.043,-449.5 125.043,-442.5"/>
</g>
<!-- Node10 -->
<g id="node10" class="node"><title>Node10</title>
<g id="a_node10"><a xlink:href="../../d6/d2e/classmars_1_1data__broker_1_1_data_broker_interface.html" target="_top" xlink:title="The interface every DataBroker should implement. ">
<polygon fill="white" stroke="black" points="294,-382 294,-412 398,-412 398,-382 294,-382"/>
<text text-anchor="start" x="302" y="-400" font-family="Helvetica,sans-Serif" font-size="10.00">mars::data_broker::</text>
<text text-anchor="middle" x="346" y="-389" font-family="Helvetica,sans-Serif" font-size="10.00">DataBrokerInterface</text>
</a>
</g>
</g>
<!-- Node5&#45;&gt;Node10 -->
<g id="edge11" class="edge"><title>Node5&#45;&gt;Node10</title>
<path fill="none" stroke="midnightblue" d="M125.041,-437.981C171.26,-429.37 244.664,-415.694 293.812,-406.537"/>
<polygon fill="midnightblue" stroke="midnightblue" points="124.233,-434.571 115.043,-439.844 125.515,-441.453 124.233,-434.571"/>
</g>
<!-- Node6 -->
<g id="node6" class="node"><title>Node6</title>
<g id="a_node6"><a xlink:href="../../d2/da9/classmars_1_1interfaces_1_1_controller_manager_interface.html" target="_top" xlink:title="&quot;ControllerManagerInterface&quot; declares the interfaces for all controller operations that are used for ...">
<polygon fill="white" stroke="black" points="278.5,-333 278.5,-363 413.5,-363 413.5,-333 278.5,-333"/>
<text text-anchor="start" x="286.5" y="-351" font-family="Helvetica,sans-Serif" font-size="10.00">mars::interfaces::Controller</text>
<text text-anchor="middle" x="346" y="-340" font-family="Helvetica,sans-Serif" font-size="10.00">ManagerInterface</text>
</a>
</g>
</g>
<!-- Node6&#45;&gt;Node3 -->
<g id="edge5" class="edge"><title>Node6&#45;&gt;Node3</title>
<path fill="none" stroke="#9a32cd" stroke-dasharray="5,2" d="M403.804,-329.742C410.618,-327.497 417.472,-325.214 424,-323 460.609,-310.586 473.585,-315.061 506,-294 515.754,-287.663 514.385,-281.547 524,-275 529.468,-271.276 535.575,-267.972 541.765,-265.084"/>
<polygon fill="#9a32cd" stroke="#9a32cd" points="402.304,-326.55 393.892,-332.99 404.484,-333.202 402.304,-326.55"/>
<text text-anchor="middle" x="474" y="-321" font-family="Helvetica,sans-Serif" font-size="10.00"> controllers</text>
</g>
<!-- Node7 -->
<g id="node7" class="node"><title>Node7</title>
<g id="a_node7"><a xlink:href="../../d6/d60/classmars_1_1interfaces_1_1_joint_manager_interface.html" target="_top" xlink:title="Interface class for the node organization. ">
<polygon fill="white" stroke="black" points="270,-284 270,-314 422,-314 422,-284 270,-284"/>
<text text-anchor="start" x="278" y="-302" font-family="Helvetica,sans-Serif" font-size="10.00">mars::interfaces::JointManager</text>
<text text-anchor="middle" x="346" y="-291" font-family="Helvetica,sans-Serif" font-size="10.00">Interface</text>
</a>
</g>
</g>
<!-- Node7&#45;&gt;Node3 -->
<g id="edge6" class="edge"><title>Node7&#45;&gt;Node3</title>
<path fill="none" stroke="#9a32cd" stroke-dasharray="5,2" d="M430.251,-281.932C461.226,-275.581 495.791,-268.495 524.474,-262.614"/>
<polygon fill="#9a32cd" stroke="#9a32cd" points="429.425,-278.528 420.332,-283.965 430.831,-285.386 429.425,-278.528"/>
<text text-anchor="middle" x="474" y="-282" font-family="Helvetica,sans-Serif" font-size="10.00"> joints</text>
</g>
<!-- Node8 -->
<g id="node8" class="node"><title>Node8</title>
<g id="a_node8"><a xlink:href="../../df/d82/classmars_1_1interfaces_1_1_entity_manager_interface.html" target="_top" xlink:title="mars::interfaces::Entity\lManagerInterface">
<polygon fill="white" stroke="black" points="286.5,-235 286.5,-265 405.5,-265 405.5,-235 286.5,-235"/>
<text text-anchor="start" x="294.5" y="-253" font-family="Helvetica,sans-Serif" font-size="10.00">mars::interfaces::Entity</text>
<text text-anchor="middle" x="346" y="-242" font-family="Helvetica,sans-Serif" font-size="10.00">ManagerInterface</text>
</a>
</g>
</g>
<!-- Node8&#45;&gt;Node3 -->
<g id="edge7" class="edge"><title>Node8&#45;&gt;Node3</title>
<path fill="none" stroke="#9a32cd" stroke-dasharray="5,2" d="M416.126,-250C450.234,-250 491.043,-250 524.114,-250"/>
<polygon fill="#9a32cd" stroke="#9a32cd" points="415.772,-246.5 405.772,-250 415.772,-253.5 415.772,-246.5"/>
<text text-anchor="middle" x="474" y="-253" font-family="Helvetica,sans-Serif" font-size="10.00"> entities</text>
</g>
<!-- Node9&#45;&gt;Node3 -->
<g id="edge8" class="edge"><title>Node9&#45;&gt;Node3</title>
<path fill="none" stroke="#9a32cd" stroke-dasharray="5,2" d="M412.868,-439.348C445.743,-432.513 483.252,-418.731 506,-391 539.089,-350.663 491.572,-315.87 524,-275 527.102,-271.091 530.911,-267.789 535.102,-265.002"/>
<polygon fill="#9a32cd" stroke="#9a32cd" points="412.007,-435.949 402.836,-441.253 413.314,-442.826 412.007,-435.949"/>
<text text-anchor="middle" x="474" y="-434" font-family="Helvetica,sans-Serif" font-size="10.00"> cfg</text>
</g>
<!-- Node10&#45;&gt;Node3 -->
<g id="edge10" class="edge"><title>Node10&#45;&gt;Node3</title>
<path fill="none" stroke="#9a32cd" stroke-dasharray="5,2" d="M406.15,-378.664C412.218,-376.524 418.259,-374.286 424,-372 461.493,-357.071 479.576,-363.502 506,-333 523.673,-312.6 505.717,-294.855 524,-275 527.538,-271.158 531.748,-267.894 536.284,-265.124"/>
<polygon fill="#9a32cd" stroke="#9a32cd" points="404.95,-375.375 396.632,-381.937 407.227,-381.995 404.95,-375.375"/>
<text text-anchor="middle" x="474" y="-379" font-family="Helvetica,sans-Serif" font-size="10.00"> dataBroker</text>
<text text-anchor="middle" x="474" y="-368" font-family="Helvetica,sans-Serif" font-size="10.00">theDataBroker</text>
</g>
<!-- Node11 -->
<g id="node11" class="node"><title>Node11</title>
<g id="a_node11"><a xlink:href="../../db/da9/classmars_1_1interfaces_1_1_sensor_manager_interface.html" target="_top" xlink:title="&quot;SensorManagerInterface&quot; declares the interfaces for all sensor operations that are used for the comm...">
<polygon fill="white" stroke="black" points="284,-186 284,-216 408,-216 408,-186 284,-186"/>
<text text-anchor="start" x="292" y="-204" font-family="Helvetica,sans-Serif" font-size="10.00">mars::interfaces::Sensor</text>
<text text-anchor="middle" x="346" y="-193" font-family="Helvetica,sans-Serif" font-size="10.00">ManagerInterface</text>
</a>
</g>
</g>
<!-- Node11&#45;&gt;Node3 -->
<g id="edge12" class="edge"><title>Node11&#45;&gt;Node3</title>
<path fill="none" stroke="#9a32cd" stroke-dasharray="5,2" d="M418.46,-215.651C452.075,-222.543 491.775,-230.682 524.09,-237.307"/>
<polygon fill="#9a32cd" stroke="#9a32cd" points="418.737,-212.135 408.238,-213.555 417.331,-218.992 418.737,-212.135"/>
<text text-anchor="middle" x="474" y="-236" font-family="Helvetica,sans-Serif" font-size="10.00"> sensors</text>
</g>
<!-- Node12 -->
<g id="node12" class="node"><title>Node12</title>
<g id="a_node12"><a xlink:href="../../db/de9/classmars_1_1interfaces_1_1_motor_manager_interface.html" target="_top" xlink:title="&quot;MotorManagerInterface&quot; declares the interfaces for all motor operations that are used for the commun...">
<polygon fill="white" stroke="black" points="268.5,-137 268.5,-167 423.5,-167 423.5,-137 268.5,-137"/>
<text text-anchor="start" x="276.5" y="-155" font-family="Helvetica,sans-Serif" font-size="10.00">mars::interfaces::MotorManager</text>
<text text-anchor="middle" x="346" y="-144" font-family="Helvetica,sans-Serif" font-size="10.00">Interface</text>
</a>
</g>
</g>
<!-- Node12&#45;&gt;Node3 -->
<g id="edge13" class="edge"><title>Node12&#45;&gt;Node3</title>
<path fill="none" stroke="#9a32cd" stroke-dasharray="5,2" d="M406.689,-170.22C412.554,-172.125 418.403,-174.072 424,-176 460.837,-188.691 470.542,-190.853 506,-207 524.512,-215.43 544.681,-226.283 560.136,-234.976"/>
<polygon fill="#9a32cd" stroke="#9a32cd" points="407.437,-166.784 396.846,-167.062 405.299,-173.45 407.437,-166.784"/>
<text text-anchor="middle" x="474" y="-210" font-family="Helvetica,sans-Serif" font-size="10.00"> motors</text>
</g>
<!-- Node13 -->
<g id="node13" class="node"><title>Node13</title>
<g id="a_node13"><a xlink:href="../../d9/d6a/classmars_1_1interfaces_1_1_load_center.html" target="_top" xlink:title="mars::interfaces::LoadCenter">
<polygon fill="white" stroke="black" points="274.5,-98.5 274.5,-117.5 417.5,-117.5 417.5,-98.5 274.5,-98.5"/>
<text text-anchor="middle" x="346" y="-105.5" font-family="Helvetica,sans-Serif" font-size="10.00">mars::interfaces::LoadCenter</text>
</a>
</g>
</g>
<!-- Node13&#45;&gt;Node3 -->
<g id="edge14" class="edge"><title>Node13&#45;&gt;Node3</title>
<path fill="none" stroke="#9a32cd" stroke-dasharray="5,2" d="M402.573,-120.145C409.856,-122.192 417.16,-124.482 424,-127 462.237,-141.078 473.093,-143.972 506,-168 533.146,-187.821 559.315,-217.208 573.967,-234.893"/>
<polygon fill="#9a32cd" stroke="#9a32cd" points="403.264,-116.707 392.699,-117.504 401.456,-123.469 403.264,-116.707"/>
<text text-anchor="middle" x="474" y="-171" font-family="Helvetica,sans-Serif" font-size="10.00"> loadCenter</text>
</g>
<!-- Node14 -->
<g id="node14" class="node"><title>Node14</title>
<g id="a_node14"><a xlink:href="../../d1/d51/classmars_1_1interfaces_1_1_load_heightmap_interface.html" target="_top" xlink:title="mars::interfaces::LoadHeightmap\lInterface">
<polygon fill="white" stroke="black" points="0.5,-118 0.5,-148 161.5,-148 161.5,-118 0.5,-118"/>
<text text-anchor="start" x="8.5" y="-136" font-family="Helvetica,sans-Serif" font-size="10.00">mars::interfaces::LoadHeightmap</text>
<text text-anchor="middle" x="81" y="-125" font-family="Helvetica,sans-Serif" font-size="10.00">Interface</text>
</a>
</g>
</g>
<!-- Node14&#45;&gt;Node13 -->
<g id="edge15" class="edge"><title>Node14&#45;&gt;Node13</title>
<path fill="none" stroke="#9a32cd" stroke-dasharray="5,2" d="M171.85,-124.459C205.256,-121.284 242.661,-117.728 274.133,-114.736"/>
<polygon fill="#9a32cd" stroke="#9a32cd" points="171.246,-121.001 161.622,-125.431 171.909,-127.969 171.246,-121.001"/>
<text text-anchor="middle" x="215" y="-127" font-family="Helvetica,sans-Serif" font-size="10.00"> loadHeightmap</text>
</g>
<!-- Node15 -->
<g id="node15" class="node"><title>Node15</title>
<g id="a_node15"><a xlink:href="../../d7/d02/classmars_1_1interfaces_1_1_load_mesh_interface.html" target="_top" xlink:title="mars::interfaces::LoadMesh\lInterface">
<polygon fill="white" stroke="black" points="12,-69 12,-99 150,-99 150,-69 12,-69"/>
<text text-anchor="start" x="20" y="-87" font-family="Helvetica,sans-Serif" font-size="10.00">mars::interfaces::LoadMesh</text>
<text text-anchor="middle" x="81" y="-76" font-family="Helvetica,sans-Serif" font-size="10.00">Interface</text>
</a>
</g>
</g>
<!-- Node15&#45;&gt;Node13 -->
<g id="edge16" class="edge"><title>Node15&#45;&gt;Node13</title>
<path fill="none" stroke="#9a32cd" stroke-dasharray="5,2" d="M160.116,-91.1285C196.387,-94.4383 239.183,-98.3437 274.462,-101.563"/>
<polygon fill="#9a32cd" stroke="#9a32cd" points="160.348,-87.6352 150.071,-90.2118 159.712,-94.6062 160.348,-87.6352"/>
<text text-anchor="middle" x="215" y="-102" font-family="Helvetica,sans-Serif" font-size="10.00"> loadMesh</text>
</g>
<!-- Node16 -->
<g id="node16" class="node"><title>Node16</title>
<g id="a_node16"><a xlink:href="../../d7/d4c/classmars_1_1interfaces_1_1_node_manager_interface.html" target="_top" xlink:title="&quot;NodeManagerInterface&quot; declares the interfaces for all NodeOperations that are used for the communica...">
<polygon fill="white" stroke="black" points="269,-49 269,-79 423,-79 423,-49 269,-49"/>
<text text-anchor="start" x="277" y="-67" font-family="Helvetica,sans-Serif" font-size="10.00">mars::interfaces::NodeManager</text>
<text text-anchor="middle" x="346" y="-56" font-family="Helvetica,sans-Serif" font-size="10.00">Interface</text>
</a>
</g>
</g>
<!-- Node16&#45;&gt;Node3 -->
<g id="edge17" class="edge"><title>Node16&#45;&gt;Node3</title>
<path fill="none" stroke="#9a32cd" stroke-dasharray="5,2" d="M433.022,-81.644C458.458,-89.899 485.068,-101.842 506,-119 545.158,-151.098 570.258,-207.711 580.598,-234.768"/>
<polygon fill="#9a32cd" stroke="#9a32cd" points="433.933,-78.2623 423.345,-78.6575 431.868,-84.951 433.933,-78.2623"/>
<text text-anchor="middle" x="474" y="-122" font-family="Helvetica,sans-Serif" font-size="10.00"> nodes</text>
</g>
<!-- Node17 -->
<g id="node17" class="node"><title>Node17</title>
<g id="a_node17"><a xlink:href="../../dc/de5/classmars_1_1interfaces_1_1_simulator_interface.html" target="_top" xlink:title="mars::interfaces::Simulator\lInterface">
<polygon fill="white" stroke="black" points="279,-0 279,-30 413,-30 413,-0 279,-0"/>
<text text-anchor="start" x="287" y="-18" font-family="Helvetica,sans-Serif" font-size="10.00">mars::interfaces::Simulator</text>
<text text-anchor="middle" x="346" y="-7" font-family="Helvetica,sans-Serif" font-size="10.00">Interface</text>
</a>
</g>
</g>
<!-- Node17&#45;&gt;Node3 -->
<g id="edge18" class="edge"><title>Node17&#45;&gt;Node3</title>
<path fill="none" stroke="#9a32cd" stroke-dasharray="5,2" d="M422.967,-28.3757C451.938,-36.7557 483.394,-50.2762 506,-72 554.858,-118.952 576.203,-201.184 583.204,-234.914"/>
<polygon fill="#9a32cd" stroke="#9a32cd" points="423.822,-24.9811 413.253,-25.7264 421.98,-31.7345 423.822,-24.9811"/>
<text text-anchor="middle" x="474" y="-75" font-family="Helvetica,sans-Serif" font-size="10.00"> sim</text>
</g>
</g>
</svg>
