<?xml version="1.0" encoding="UTF-8" standalone="no"?>
<!DOCTYPE svg PUBLIC "-//W3C//DTD SVG 1.1//EN"
 "http://www.w3.org/Graphics/SVG/1.1/DTD/svg11.dtd">
<!-- Generated by graphviz version 2.36.0 (20140111.2315)
 -->
<!-- Title: /media/kavonszadkowski/work/marsdocs/mars/entity_generation/entity_factory/src/EntityFactoryManager.h Pages: 1 -->
<svg width="158pt" height="152pt"
 viewBox="0.00 0.00 158.00 152.00" xmlns="http://www.w3.org/2000/svg" xmlns:xlink="http://www.w3.org/1999/xlink">
<g id="graph0" class="graph" transform="scale(1 1) rotate(0) translate(4 148)">
<title>/media/kavonszadkowski/work/marsdocs/mars/entity_generation/entity_factory/src/EntityFactoryManager.h</title>
<polygon fill="white" stroke="none" points="-4,4 -4,-148 154,-148 154,4 -4,4"/>
<!-- Node1 -->
<g id="node1" class="node"><title>Node1</title>
<polygon fill="#bfbfbf" stroke="black" points="5,-91 5,-143 145,-143 145,-91 5,-91"/>
<text text-anchor="start" x="13" y="-131" font-family="Helvetica,sans-Serif" font-size="10.00">/media/kavonszadkowski</text>
<text text-anchor="start" x="13" y="-120" font-family="Helvetica,sans-Serif" font-size="10.00">/work/marsdocs/mars/entity</text>
<text text-anchor="start" x="13" y="-109" font-family="Helvetica,sans-Serif" font-size="10.00">_generation/entity_factory</text>
<text text-anchor="middle" x="75" y="-98" font-family="Helvetica,sans-Serif" font-size="10.00">/src/EntityFactoryManager.h</text>
</g>
<!-- Node2 -->
<g id="node2" class="node"><title>Node2</title>
<g id="a_node2"><a xlink:href="../../d6/d10/_entity_factory_manager_8cpp.html" target="_top" xlink:title="a ">
<polygon fill="white" stroke="black" points="-0.5,-1 -0.5,-53 150.5,-53 150.5,-1 -0.5,-1"/>
<text text-anchor="start" x="7.5" y="-41" font-family="Helvetica,sans-Serif" font-size="10.00">/media/kavonszadkowski</text>
<text text-anchor="start" x="7.5" y="-30" font-family="Helvetica,sans-Serif" font-size="10.00">/work/marsdocs/mars/entity</text>
<text text-anchor="start" x="7.5" y="-19" font-family="Helvetica,sans-Serif" font-size="10.00">_generation/entity_factory</text>
<text text-anchor="middle" x="75" y="-8" font-family="Helvetica,sans-Serif" font-size="10.00">/src/EntityFactoryManager.cpp</text>
</a>
</g>
</g>
<!-- Node1&#45;&gt;Node2 -->
<g id="edge1" class="edge"><title>Node1&#45;&gt;Node2</title>
<path fill="none" stroke="midnightblue" d="M75,-80.4892C75,-71.3088 75,-61.616 75,-53.0921"/>
<polygon fill="midnightblue" stroke="midnightblue" points="71.5001,-80.5467 75,-90.5468 78.5001,-80.5468 71.5001,-80.5467"/>
</g>
</g>
</svg>
