<?xml version="1.0" encoding="UTF-8" standalone="no"?>
<!DOCTYPE svg PUBLIC "-//W3C//DTD SVG 1.1//EN"
 "http://www.w3.org/Graphics/SVG/1.1/DTD/svg11.dtd">
<!-- Generated by graphviz version 2.36.0 (20140111.2315)
 -->
<!-- Title: /media/kavonszadkowski/work/marsdocs/mars/plugins/constraint_plugin/src/ConstraintsPlugin.h Pages: 1 -->
<svg width="170pt" height="152pt"
 viewBox="0.00 0.00 170.00 152.00" xmlns="http://www.w3.org/2000/svg" xmlns:xlink="http://www.w3.org/1999/xlink">
<g id="graph0" class="graph" transform="scale(1 1) rotate(0) translate(4 148)">
<title>/media/kavonszadkowski/work/marsdocs/mars/plugins/constraint_plugin/src/ConstraintsPlugin.h</title>
<polygon fill="white" stroke="none" points="-4,4 -4,-148 166,-148 166,4 -4,4"/>
<!-- Node1 -->
<g id="node1" class="node"><title>Node1</title>
<polygon fill="#bfbfbf" stroke="black" points="-0.5,-91 -0.5,-143 162.5,-143 162.5,-91 -0.5,-91"/>
<text text-anchor="start" x="7.5" y="-131" font-family="Helvetica,sans-Serif" font-size="10.00">/media/kavonszadkowski</text>
<text text-anchor="start" x="7.5" y="-120" font-family="Helvetica,sans-Serif" font-size="10.00">/work/marsdocs/mars/plugins</text>
<text text-anchor="start" x="7.5" y="-109" font-family="Helvetica,sans-Serif" font-size="10.00">/constraint_plugin/src/Constraints</text>
<text text-anchor="middle" x="81" y="-98" font-family="Helvetica,sans-Serif" font-size="10.00">Plugin.h</text>
</g>
<!-- Node2 -->
<g id="node2" class="node"><title>Node2</title>
<g id="a_node2"><a xlink:href="../../dc/d02/_constraints_plugin_8cpp.html" target="_top" xlink:title="/media/kavonszadkowski\l/work/marsdocs/mars/plugins\l/constraint_plugin/src/Constraints\lPlugin.cpp">
<polygon fill="white" stroke="black" points="-0.5,-1 -0.5,-53 162.5,-53 162.5,-1 -0.5,-1"/>
<text text-anchor="start" x="7.5" y="-41" font-family="Helvetica,sans-Serif" font-size="10.00">/media/kavonszadkowski</text>
<text text-anchor="start" x="7.5" y="-30" font-family="Helvetica,sans-Serif" font-size="10.00">/work/marsdocs/mars/plugins</text>
<text text-anchor="start" x="7.5" y="-19" font-family="Helvetica,sans-Serif" font-size="10.00">/constraint_plugin/src/Constraints</text>
<text text-anchor="middle" x="81" y="-8" font-family="Helvetica,sans-Serif" font-size="10.00">Plugin.cpp</text>
</a>
</g>
</g>
<!-- Node1&#45;&gt;Node2 -->
<g id="edge1" class="edge"><title>Node1&#45;&gt;Node2</title>
<path fill="none" stroke="midnightblue" d="M81,-80.4892C81,-71.3088 81,-61.616 81,-53.0921"/>
<polygon fill="midnightblue" stroke="midnightblue" points="77.5001,-80.5467 81,-90.5468 84.5001,-80.5468 77.5001,-80.5467"/>
</g>
</g>
</svg>
