<?xml version="1.0" encoding="UTF-8" standalone="no"?>
<!DOCTYPE svg PUBLIC "-//W3C//DTD SVG 1.1//EN"
 "http://www.w3.org/Graphics/SVG/1.1/DTD/svg11.dtd">
<!-- Generated by graphviz version 2.26.3 (20100126.1600)
 -->
<!-- Title: mars::sim::MultiLevelLaserRangeFinder Pages: 1 -->
<svg width="516pt" height="238pt"
 viewBox="0.00 0.00 516.00 238.00" xmlns="http://www.w3.org/2000/svg" xmlns:xlink="http://www.w3.org/1999/xlink">
<g id="graph1" class="graph" transform="scale(1 1) rotate(0) translate(4 234)">
<title>mars::sim::MultiLevelLaserRangeFinder</title>
<polygon fill="white" stroke="white" points="-4,5 -4,-234 513,-234 513,5 -4,5"/>
<!-- Node1 -->
<g id="node1" class="node"><title>Node1</title>
<polygon fill="#bfbfbf" stroke="black" points="374,-92 374,-126 508,-126 508,-92 374,-92"/>
<text text-anchor="start" x="382" y="-113" font-family="Helvetica,sans-Serif" font-size="10.00">mars::sim::MultiLevelLaser</text>
<text text-anchor="middle" x="441" y="-100" font-family="Helvetica,sans-Serif" font-size="10.00">RangeFinder</text>
</g>
<!-- Node2 -->
<g id="node2" class="node"><title>Node2</title>
<a xlink:href="../../da/d0c/classmars_1_1interfaces_1_1_base_node_sensor.html" target="_top" xlink:title="mars::interfaces::BaseNode\lSensor">
<polygon fill="white" stroke="black" points="190.5,-196 190.5,-230 329.5,-230 329.5,-196 190.5,-196"/>
<text text-anchor="start" x="198.5" y="-217" font-family="Helvetica,sans-Serif" font-size="10.00">mars::interfaces::BaseNode</text>
<text text-anchor="middle" x="260" y="-204" font-family="Helvetica,sans-Serif" font-size="10.00">Sensor</text>
</a>
</g>
<!-- Node2&#45;&gt;Node1 -->
<g id="edge2" class="edge"><title>Node2&#45;&gt;Node1</title>
<path fill="none" stroke="midnightblue" d="M327.786,-191.945C331.287,-190.381 334.713,-188.732 338,-187 369.95,-170.165 402.452,-143.655 422.174,-126.297"/>
<polygon fill="midnightblue" stroke="midnightblue" points="326.252,-188.793 318.384,-195.888 328.959,-195.249 326.252,-188.793"/>
</g>
<!-- Node3 -->
<g id="node4" class="node"><title>Node3</title>
<a xlink:href="../../da/d73/classmars_1_1interfaces_1_1_base_sensor.html" target="_top" xlink:title="mars::interfaces::BaseSensor">
<polygon fill="white" stroke="black" points="0,-202.5 0,-223.5 146,-223.5 146,-202.5 0,-202.5"/>
<text text-anchor="middle" x="73" y="-210.5" font-family="Helvetica,sans-Serif" font-size="10.00">mars::interfaces::BaseSensor</text>
</a>
</g>
<!-- Node3&#45;&gt;Node2 -->
<g id="edge4" class="edge"><title>Node3&#45;&gt;Node2</title>
<path fill="none" stroke="midnightblue" d="M156.425,-213C167.747,-213 179.269,-213 190.315,-213"/>
<polygon fill="midnightblue" stroke="midnightblue" points="156.103,-209.5 146.103,-213 156.102,-216.5 156.103,-209.5"/>
</g>
<!-- Node4 -->
<g id="node6" class="node"><title>Node4</title>
<a xlink:href="../../d3/d21/classmars_1_1interfaces_1_1_sensor_interface.html" target="_top" xlink:title="mars::interfaces::Sensor\lInterface">
<polygon fill="white" stroke="black" points="198,-144 198,-178 322,-178 322,-144 198,-144"/>
<text text-anchor="start" x="206" y="-165" font-family="Helvetica,sans-Serif" font-size="10.00">mars::interfaces::Sensor</text>
<text text-anchor="middle" x="260" y="-152" font-family="Helvetica,sans-Serif" font-size="10.00">Interface</text>
</a>
</g>
<!-- Node4&#45;&gt;Node1 -->
<g id="edge6" class="edge"><title>Node4&#45;&gt;Node1</title>
<path fill="none" stroke="midnightblue" d="M329.278,-141.097C346.53,-136.141 364.872,-130.871 381.601,-126.065"/>
<polygon fill="midnightblue" stroke="midnightblue" points="327.911,-137.848 319.266,-143.973 329.844,-144.576 327.911,-137.848"/>
</g>
<!-- Node5 -->
<g id="node8" class="node"><title>Node5</title>
<a xlink:href="../../d0/d0e/classmars_1_1data__broker_1_1_receiver_interface.html" target="_top" xlink:title="Interface for classes that want to receive data from the DataBroker. ">
<polygon fill="white" stroke="black" points="209.5,-92 209.5,-126 310.5,-126 310.5,-92 209.5,-92"/>
<text text-anchor="start" x="217.5" y="-113" font-family="Helvetica,sans-Serif" font-size="10.00">mars::data_broker::</text>
<text text-anchor="middle" x="260" y="-100" font-family="Helvetica,sans-Serif" font-size="10.00">ReceiverInterface</text>
</a>
</g>
<!-- Node5&#45;&gt;Node1 -->
<g id="edge8" class="edge"><title>Node5&#45;&gt;Node1</title>
<path fill="none" stroke="midnightblue" d="M321.23,-109C338.178,-109 356.661,-109 373.923,-109"/>
<polygon fill="midnightblue" stroke="midnightblue" points="320.9,-105.5 310.9,-109 320.9,-112.5 320.9,-105.5"/>
</g>
<!-- Node6 -->
<g id="node10" class="node"><title>Node6</title>
<a xlink:href="../../de/ded/classmars_1_1interfaces_1_1_draw_interface.html" target="_top" xlink:title="The interface DrawInterface is used for updating draw_item structs via an update function. ">
<polygon fill="white" stroke="black" points="182.5,-52.5 182.5,-73.5 337.5,-73.5 337.5,-52.5 182.5,-52.5"/>
<text text-anchor="middle" x="260" y="-60.5" font-family="Helvetica,sans-Serif" font-size="10.00">mars::interfaces::DrawInterface</text>
</a>
</g>
<!-- Node6&#45;&gt;Node1 -->
<g id="edge10" class="edge"><title>Node6&#45;&gt;Node1</title>
<path fill="none" stroke="midnightblue" d="M311.373,-76.0562C330.772,-80.9862 353.14,-86.671 373.776,-91.9155"/>
<polygon fill="midnightblue" stroke="midnightblue" points="312.079,-72.6244 301.525,-73.5533 310.355,-79.4087 312.079,-72.6244"/>
</g>
<!-- Node7 -->
<g id="node12" class="node"><title>Node7</title>
<a xlink:href="../../d8/d6e/classmars_1_1interfaces_1_1_graphics_update_interface.html" target="_top" xlink:title="The Interface to load controller dynamically into the simulation. ">
<polygon fill="white" stroke="black" points="194,-0 194,-34 326,-34 326,-0 194,-0"/>
<text text-anchor="start" x="202" y="-21" font-family="Helvetica,sans-Serif" font-size="10.00">mars::interfaces::Graphics</text>
<text text-anchor="middle" x="260" y="-8" font-family="Helvetica,sans-Serif" font-size="10.00">UpdateInterface</text>
</a>
</g>
<!-- Node7&#45;&gt;Node1 -->
<g id="edge12" class="edge"><title>Node7&#45;&gt;Node1</title>
<path fill="none" stroke="midnightblue" d="M326.311,-37.8221C330.308,-39.4714 334.233,-41.1997 338,-43 366.935,-56.828 397.571,-77.3057 417.835,-91.7776"/>
<polygon fill="midnightblue" stroke="midnightblue" points="327.482,-34.5214 316.894,-34.1205 324.921,-41.0362 327.482,-34.5214"/>
</g>
</g>
</svg>
