<?xml version="1.0" encoding="UTF-8" standalone="no"?>
<!DOCTYPE svg PUBLIC "-//W3C//DTD SVG 1.1//EN"
 "http://www.w3.org/Graphics/SVG/1.1/DTD/svg11.dtd">
<!-- Generated by graphviz version 2.26.3 (20100126.1600)
 -->
<!-- Title: /home/kavonszadkowski/limes&#45;dev/simulation/mars/common/gui/cfg_manager_gui/src/CfgWidget.cpp Pages: 1 -->
<svg width="634pt" height="200pt"
 viewBox="0.00 0.00 634.00 200.00" xmlns="http://www.w3.org/2000/svg" xmlns:xlink="http://www.w3.org/1999/xlink">
<g id="graph1" class="graph" transform="scale(1 1) rotate(0) translate(4 196)">
<title>/home/kavonszadkowski/limes&#45;dev/simulation/mars/common/gui/cfg_manager_gui/src/CfgWidget.cpp</title>
<polygon fill="white" stroke="white" points="-4,5 -4,-196 631,-196 631,5 -4,5"/>
<!-- Node1 -->
<g id="node1" class="node"><title>Node1</title>
<polygon fill="#bfbfbf" stroke="black" points="273.5,-131 273.5,-191 430.5,-191 430.5,-131 273.5,-131"/>
<text text-anchor="start" x="281.5" y="-178" font-family="Helvetica,sans-Serif" font-size="10.00">/home/kavonszadkowski</text>
<text text-anchor="start" x="281.5" y="-165" font-family="Helvetica,sans-Serif" font-size="10.00">/limes&#45;dev/simulation</text>
<text text-anchor="start" x="281.5" y="-152" font-family="Helvetica,sans-Serif" font-size="10.00">/mars/common/gui/cfg_manager</text>
<text text-anchor="middle" x="352" y="-139" font-family="Helvetica,sans-Serif" font-size="10.00">_gui/src/CfgWidget.cpp</text>
</g>
<!-- Node2 -->
<g id="node3" class="node"><title>Node2</title>
<a xlink:href="../../db/d28/_cfg_widget_8h.html" target="_top" xlink:title="CfgWidget.h">
<polygon fill="white" stroke="black" points="214.5,-72.5 214.5,-93.5 285.5,-93.5 285.5,-72.5 214.5,-72.5"/>
<text text-anchor="middle" x="250" y="-80.5" font-family="Helvetica,sans-Serif" font-size="10.00">CfgWidget.h</text>
</a>
</g>
<!-- Node1&#45;&gt;Node2 -->
<g id="edge2" class="edge"><title>Node1&#45;&gt;Node2</title>
<path fill="none" stroke="midnightblue" d="M312.564,-130.843C298.85,-120.356 283.959,-108.969 272.146,-99.9352"/>
<polygon fill="midnightblue" stroke="midnightblue" points="274.219,-97.1142 264.149,-93.8199 269.967,-102.675 274.219,-97.1142"/>
</g>
<!-- Node9 -->
<g id="node17" class="node"><title>Node9</title>
<polygon fill="white" stroke="#bfbfbf" points="302.5,-72.5 302.5,-93.5 343.5,-93.5 343.5,-72.5 302.5,-72.5"/>
<text text-anchor="middle" x="323" y="-80.5" font-family="Helvetica,sans-Serif" font-size="10.00">string</text>
</g>
<!-- Node1&#45;&gt;Node9 -->
<g id="edge16" class="edge"><title>Node1&#45;&gt;Node9</title>
<path fill="none" stroke="midnightblue" d="M340.705,-130.62C337.305,-121.477 333.659,-111.668 330.563,-103.343"/>
<polygon fill="midnightblue" stroke="midnightblue" points="333.764,-101.907 326.998,-93.7535 327.202,-104.346 333.764,-101.907"/>
</g>
<!-- Node10 -->
<g id="node19" class="node"><title>Node10</title>
<polygon fill="white" stroke="#bfbfbf" points="361,-72.5 361,-93.5 401,-93.5 401,-72.5 361,-72.5"/>
<text text-anchor="middle" x="381" y="-80.5" font-family="Helvetica,sans-Serif" font-size="10.00">utility</text>
</g>
<!-- Node1&#45;&gt;Node10 -->
<g id="edge18" class="edge"><title>Node1&#45;&gt;Node10</title>
<path fill="none" stroke="midnightblue" d="M363.295,-130.62C366.695,-121.477 370.341,-111.668 373.437,-103.343"/>
<polygon fill="midnightblue" stroke="midnightblue" points="376.798,-104.346 377.002,-93.7535 370.236,-101.907 376.798,-104.346"/>
</g>
<!-- Node11 -->
<g id="node21" class="node"><title>Node11</title>
<polygon fill="white" stroke="#bfbfbf" points="418.5,-72.5 418.5,-93.5 453.5,-93.5 453.5,-72.5 418.5,-72.5"/>
<text text-anchor="middle" x="436" y="-80.5" font-family="Helvetica,sans-Serif" font-size="10.00">map</text>
</g>
<!-- Node1&#45;&gt;Node11 -->
<g id="edge20" class="edge"><title>Node1&#45;&gt;Node11</title>
<path fill="none" stroke="midnightblue" d="M384.717,-130.62C395.658,-120.461 407.483,-109.48 417.018,-100.626"/>
<polygon fill="midnightblue" stroke="midnightblue" points="419.473,-103.123 424.419,-93.7535 414.71,-97.9932 419.473,-103.123"/>
</g>
<!-- Node3 -->
<g id="node5" class="node"><title>Node3</title>
<polygon fill="white" stroke="#bfbfbf" points="-0.5,-7.5 -0.5,-28.5 54.5,-28.5 54.5,-7.5 -0.5,-7.5"/>
<text text-anchor="middle" x="27" y="-15.5" font-family="Helvetica,sans-Serif" font-size="10.00">QWidget</text>
</g>
<!-- Node2&#45;&gt;Node3 -->
<g id="edge4" class="edge"><title>Node2&#45;&gt;Node3</title>
<path fill="none" stroke="midnightblue" d="M214.15,-76.4063C175.985,-68.8321 114.163,-54.963 63,-36 60.4467,-35.0537 57.8366,-33.9783 55.2461,-32.8352"/>
<polygon fill="midnightblue" stroke="midnightblue" points="56.6237,-29.6152 46.0869,-28.5078 53.6333,-35.9443 56.6237,-29.6152"/>
</g>
<!-- Node4 -->
<g id="node7" class="node"><title>Node4</title>
<polygon fill="white" stroke="#bfbfbf" points="71.5,-7.5 71.5,-28.5 146.5,-28.5 146.5,-7.5 71.5,-7.5"/>
<text text-anchor="middle" x="109" y="-15.5" font-family="Helvetica,sans-Serif" font-size="10.00">QCloseEvent</text>
</g>
<!-- Node2&#45;&gt;Node4 -->
<g id="edge6" class="edge"><title>Node2&#45;&gt;Node4</title>
<path fill="none" stroke="midnightblue" d="M227.032,-72.412C203.68,-61.6468 167.305,-44.878 141.107,-32.8009"/>
<polygon fill="midnightblue" stroke="midnightblue" points="142.505,-29.5915 131.958,-28.5835 139.574,-35.9486 142.505,-29.5915"/>
</g>
<!-- Node5 -->
<g id="node9" class="node"><title>Node5</title>
<polygon fill="white" stroke="#bfbfbf" points="163.5,-7.5 163.5,-28.5 214.5,-28.5 214.5,-7.5 163.5,-7.5"/>
<text text-anchor="middle" x="189" y="-15.5" font-family="Helvetica,sans-Serif" font-size="10.00">QMutex</text>
</g>
<!-- Node2&#45;&gt;Node5 -->
<g id="edge8" class="edge"><title>Node2&#45;&gt;Node5</title>
<path fill="none" stroke="midnightblue" d="M239.927,-72.2666C230.689,-62.4227 216.824,-47.6481 205.892,-35.9996"/>
<polygon fill="midnightblue" stroke="midnightblue" points="208.281,-33.4305 198.885,-28.5337 203.176,-38.2207 208.281,-33.4305"/>
</g>
<!-- Node6 -->
<g id="node11" class="node"><title>Node6</title>
<polygon fill="white" stroke="#bfbfbf" points="231.5,-1 231.5,-35 390.5,-35 390.5,-1 231.5,-1"/>
<text text-anchor="start" x="239.5" y="-22" font-family="Helvetica,sans-Serif" font-size="10.00">mars/cfg_manager/CFGManager</text>
<text text-anchor="middle" x="311" y="-9" font-family="Helvetica,sans-Serif" font-size="10.00">Interface.h</text>
</g>
<!-- Node2&#45;&gt;Node6 -->
<g id="edge10" class="edge"><title>Node2&#45;&gt;Node6</title>
<path fill="none" stroke="midnightblue" d="M260.073,-72.2666C267.623,-64.2211 278.265,-52.8819 287.869,-42.6477"/>
<polygon fill="midnightblue" stroke="midnightblue" points="290.652,-44.7969 294.943,-35.1099 285.548,-40.0066 290.652,-44.7969"/>
</g>
<!-- Node7 -->
<g id="node13" class="node"><title>Node7</title>
<polygon fill="white" stroke="#bfbfbf" points="408,-7.5 408,-28.5 564,-28.5 564,-7.5 408,-7.5"/>
<text text-anchor="middle" x="486" y="-15.5" font-family="Helvetica,sans-Serif" font-size="10.00">mars/main_gui/PropertyDialog.h</text>
</g>
<!-- Node2&#45;&gt;Node7 -->
<g id="edge12" class="edge"><title>Node2&#45;&gt;Node7</title>
<path fill="none" stroke="midnightblue" d="M285.587,-73.1985C326.17,-62.021 392.729,-43.6891 437.907,-31.2459"/>
<polygon fill="midnightblue" stroke="midnightblue" points="439.059,-34.5591 447.77,-28.5293 437.2,-27.8104 439.059,-34.5591"/>
</g>
<!-- Node8 -->
<g id="node15" class="node"><title>Node8</title>
<polygon fill="white" stroke="#bfbfbf" points="582,-7.5 582,-28.5 626,-28.5 626,-7.5 582,-7.5"/>
<text text-anchor="middle" x="604" y="-15.5" font-family="Helvetica,sans-Serif" font-size="10.00">vector</text>
</g>
<!-- Node2&#45;&gt;Node8 -->
<g id="edge14" class="edge"><title>Node2&#45;&gt;Node8</title>
<path fill="none" stroke="midnightblue" d="M285.943,-73.6513C288.661,-73.0557 291.369,-72.4968 294,-72 416.856,-48.7987 454.605,-76.1825 573,-36 575.155,-35.2687 577.326,-34.3791 579.466,-33.3914"/>
<polygon fill="midnightblue" stroke="midnightblue" points="581.287,-36.3879 588.491,-28.6194 578.015,-30.1997 581.287,-36.3879"/>
</g>
</g>
</svg>
