<?xml version="1.0" encoding="UTF-8" standalone="no"?>
<!DOCTYPE svg PUBLIC "-//W3C//DTD SVG 1.1//EN"
 "http://www.w3.org/Graphics/SVG/1.1/DTD/svg11.dtd">
<!-- Generated by graphviz version 2.26.3 (20100126.1600)
 -->
<!-- Title: VizPlugin Pages: 1 -->
<svg width="1100pt" height="680pt"
 viewBox="0.00 0.00 1100.00 679.50" xmlns="http://www.w3.org/2000/svg" xmlns:xlink="http://www.w3.org/1999/xlink">
<g id="graph1" class="graph" transform="scale(1 1) rotate(0) translate(4 675.5)">
<title>VizPlugin</title>
<polygon fill="white" stroke="white" points="-4,5 -4,-675.5 1097,-675.5 1097,5 -4,5"/>
<!-- Node1 -->
<g id="node1" class="node"><title>Node1</title>
<polygon fill="#bfbfbf" stroke="black" points="1034,-418 1034,-439 1092,-439 1092,-418 1034,-418"/>
<text text-anchor="middle" x="1063" y="-426" font-family="Helvetica,sans-Serif" font-size="10.00">VizPlugin</text>
</g>
<!-- Node2 -->
<g id="node2" class="node"><title>Node2</title>
<polygon fill="white" stroke="#bfbfbf" points="47,-521 47,-542 115,-542 115,-521 47,-521"/>
<text text-anchor="middle" x="81" y="-529" font-family="Helvetica,sans-Serif" font-size="10.00">LibInterface</text>
</g>
<!-- Node2&#45;&gt;Node1 -->
<g id="edge2" class="edge"><title>Node2&#45;&gt;Node1</title>
<path fill="none" stroke="midnightblue" d="M125.341,-544.002C177.641,-557.623 267.421,-577.5 346,-577.5 346,-577.5 346,-577.5 894,-577.5 977.707,-577.5 1039.56,-473.38 1057.61,-439.216"/>
<polygon fill="midnightblue" stroke="midnightblue" points="125.958,-540.544 115.395,-541.368 124.166,-547.311 125.958,-540.544"/>
</g>
<!-- Node6 -->
<g id="node10" class="node"><title>Node6</title>
<a xlink:href="../../d1/d93/classmars_1_1interfaces_1_1_graphics_manager_interface.html" target="_top" xlink:title="mars::interfaces::Graphics\lManagerInterface">
<polygon fill="white" stroke="black" points="280,-460.5 280,-494.5 412,-494.5 412,-460.5 280,-460.5"/>
<text text-anchor="start" x="288" y="-481.5" font-family="Helvetica,sans-Serif" font-size="10.00">mars::interfaces::Graphics</text>
<text text-anchor="middle" x="346" y="-468.5" font-family="Helvetica,sans-Serif" font-size="10.00">ManagerInterface</text>
</a>
</g>
<!-- Node2&#45;&gt;Node6 -->
<g id="edge12" class="edge"><title>Node2&#45;&gt;Node6</title>
<path fill="none" stroke="midnightblue" d="M125.064,-522.521C167.239,-513.927 231.411,-500.85 279.747,-491.001"/>
<polygon fill="midnightblue" stroke="midnightblue" points="124.201,-519.125 115.102,-524.551 125.599,-525.984 124.201,-519.125"/>
</g>
<!-- Node14 -->
<g id="node29" class="node"><title>Node14</title>
<a xlink:href="../../d4/da6/classmars_1_1cfg__manager_1_1_c_f_g_manager_interface.html" target="_top" xlink:title="mars::cfg_manager::\lCFGManagerInterface">
<polygon fill="white" stroke="black" points="289.5,-514.5 289.5,-548.5 402.5,-548.5 402.5,-514.5 289.5,-514.5"/>
<text text-anchor="start" x="297.5" y="-535.5" font-family="Helvetica,sans-Serif" font-size="10.00">mars::cfg_manager::</text>
<text text-anchor="middle" x="346" y="-522.5" font-family="Helvetica,sans-Serif" font-size="10.00">CFGManagerInterface</text>
</a>
</g>
<!-- Node2&#45;&gt;Node14 -->
<g id="edge34" class="edge"><title>Node2&#45;&gt;Node14</title>
<path fill="none" stroke="midnightblue" d="M125.147,-531.5C170.173,-531.5 240.21,-531.5 289.312,-531.5"/>
<polygon fill="midnightblue" stroke="midnightblue" points="125.102,-528 115.102,-531.5 125.102,-535 125.102,-528"/>
</g>
<!-- Node15 -->
<g id="node32" class="node"><title>Node15</title>
<a xlink:href="../../d6/d2e/classmars_1_1data__broker_1_1_data_broker_interface.html" target="_top" xlink:title="The interface every DataBroker should implement. ">
<polygon fill="white" stroke="black" points="294,-355.5 294,-389.5 398,-389.5 398,-355.5 294,-355.5"/>
<text text-anchor="start" x="302" y="-376.5" font-family="Helvetica,sans-Serif" font-size="10.00">mars::data_broker::</text>
<text text-anchor="middle" x="346" y="-363.5" font-family="Helvetica,sans-Serif" font-size="10.00">DataBrokerInterface</text>
</a>
</g>
<!-- Node2&#45;&gt;Node15 -->
<g id="edge38" class="edge"><title>Node2&#45;&gt;Node15</title>
<path fill="none" stroke="midnightblue" d="M101.271,-513.966C134.254,-486.183 202.462,-431.79 268,-398.5 276.145,-394.363 285.092,-390.669 293.932,-387.456"/>
<polygon fill="midnightblue" stroke="midnightblue" points="98.6516,-511.599 93.2995,-520.743 103.185,-516.932 98.6516,-511.599"/>
</g>
<!-- Node23 -->
<g id="node49" class="node"><title>Node23</title>
<a xlink:href="../../db/d44/classosg__text_1_1_text_factory_interface.html" target="_top" xlink:title="osg_text::TextFactoryInterface">
<polygon fill="white" stroke="black" points="442.5,-605 442.5,-626 593.5,-626 593.5,-605 442.5,-605"/>
<text text-anchor="middle" x="518" y="-613" font-family="Helvetica,sans-Serif" font-size="10.00">osg_text::TextFactoryInterface</text>
</a>
</g>
<!-- Node2&#45;&gt;Node23 -->
<g id="edge56" class="edge"><title>Node2&#45;&gt;Node23</title>
<path fill="none" stroke="midnightblue" d="M101.767,-548.16C120.867,-562.444 150.602,-582.152 180,-591.5 266.896,-619.132 372.475,-622.102 442.257,-620.144"/>
<polygon fill="midnightblue" stroke="midnightblue" points="103.845,-545.343 93.7797,-542.035 99.5857,-550.898 103.845,-545.343"/>
</g>
<!-- Node3 -->
<g id="node4" class="node"><title>Node3</title>
<a xlink:href="../../d8/d6e/classmars_1_1interfaces_1_1_graphics_update_interface.html" target="_top" xlink:title="The Interface to load controller dynamically into the simulation. ">
<polygon fill="white" stroke="black" points="828,-338.5 828,-372.5 960,-372.5 960,-338.5 828,-338.5"/>
<text text-anchor="start" x="836" y="-359.5" font-family="Helvetica,sans-Serif" font-size="10.00">mars::interfaces::Graphics</text>
<text text-anchor="middle" x="894" y="-346.5" font-family="Helvetica,sans-Serif" font-size="10.00">UpdateInterface</text>
</a>
</g>
<!-- Node3&#45;&gt;Node1 -->
<g id="edge4" class="edge"><title>Node3&#45;&gt;Node1</title>
<path fill="none" stroke="midnightblue" d="M949.106,-376.308C970.224,-384.627 994.419,-394.579 1016,-404.5 1024.99,-408.633 1034.76,-413.551 1043.05,-417.855"/>
<polygon fill="midnightblue" stroke="midnightblue" points="950.229,-372.989 939.641,-372.607 947.68,-379.509 950.229,-372.989"/>
</g>
<!-- Node4 -->
<g id="node6" class="node"><title>Node4</title>
<a xlink:href="../../d0/d0e/classmars_1_1data__broker_1_1_receiver_interface.html" target="_top" xlink:title="Interface for classes that want to receive data from the DataBroker. ">
<polygon fill="white" stroke="black" points="843.5,-286.5 843.5,-320.5 944.5,-320.5 944.5,-286.5 843.5,-286.5"/>
<text text-anchor="start" x="851.5" y="-307.5" font-family="Helvetica,sans-Serif" font-size="10.00">mars::data_broker::</text>
<text text-anchor="middle" x="894" y="-294.5" font-family="Helvetica,sans-Serif" font-size="10.00">ReceiverInterface</text>
</a>
</g>
<!-- Node4&#45;&gt;Node1 -->
<g id="edge6" class="edge"><title>Node4&#45;&gt;Node1</title>
<path fill="none" stroke="midnightblue" d="M952.838,-325.253C955.3,-326.608 957.699,-328.024 960,-329.5 1000.08,-355.216 1037.98,-398.045 1054.42,-417.853"/>
<polygon fill="midnightblue" stroke="midnightblue" points="954.21,-322.024 943.709,-320.615 951.04,-328.265 954.21,-322.024"/>
</g>
<!-- Node5 -->
<g id="node8" class="node"><title>Node5</title>
<a xlink:href="../../d4/d1a/classmars_1_1cfg__manager_1_1_c_f_g_client.html" target="_top" xlink:title="mars::cfg_manager::\lCFGClient">
<polygon fill="white" stroke="black" points="840.5,-234.5 840.5,-268.5 947.5,-268.5 947.5,-234.5 840.5,-234.5"/>
<text text-anchor="start" x="848.5" y="-255.5" font-family="Helvetica,sans-Serif" font-size="10.00">mars::cfg_manager::</text>
<text text-anchor="middle" x="894" y="-242.5" font-family="Helvetica,sans-Serif" font-size="10.00">CFGClient</text>
</a>
</g>
<!-- Node5&#45;&gt;Node1 -->
<g id="edge8" class="edge"><title>Node5&#45;&gt;Node1</title>
<path fill="none" stroke="midnightblue" d="M953.509,-273.365C955.745,-274.68 957.918,-276.058 960,-277.5 1013.74,-314.72 1047.69,-389.815 1058.9,-417.729"/>
<polygon fill="midnightblue" stroke="midnightblue" points="955.095,-270.245 944.628,-268.603 951.787,-276.414 955.095,-270.245"/>
</g>
<!-- Node6&#45;&gt;Node1 -->
<g id="edge10" class="edge"><title>Node6&#45;&gt;Node1</title>
<path fill="none" stroke="#9a32cd" stroke-dasharray="5,2" d="M417.526,-496.578C425.73,-498.187 434.014,-499.557 442,-500.5 556.472,-514.022 846.513,-493.679 960,-473.5 985.485,-468.969 992.318,-467.95 1016,-457.5 1027.4,-452.468 1039.35,-445.068 1048.34,-439.003"/>
<polygon fill="#9a32cd" stroke="#9a32cd" points="418.088,-493.12 407.584,-494.51 416.662,-499.973 418.088,-493.12"/>
<text text-anchor="middle" x="783" y="-499.5" font-family="Helvetica,sans-Serif" font-size="10.00"> graphics</text>
</g>
<!-- Node7 -->
<g id="node13" class="node"><title>Node7</title>
<a xlink:href="../../df/db1/classmars_1_1viz_1_1_viz.html" target="_top" xlink:title="mars::viz::Viz">
<polygon fill="white" stroke="black" points="855.5,-443 855.5,-464 932.5,-464 932.5,-443 855.5,-443"/>
<text text-anchor="middle" x="894" y="-451" font-family="Helvetica,sans-Serif" font-size="10.00">mars::viz::Viz</text>
</a>
</g>
<!-- Node6&#45;&gt;Node7 -->
<g id="edge18" class="edge"><title>Node6&#45;&gt;Node7</title>
<path fill="none" stroke="#9a32cd" stroke-dasharray="5,2" d="M422.429,-469.031C429.043,-468.452 435.636,-467.93 442,-467.5 594.747,-457.193 777.051,-454.465 855.257,-453.75"/>
<polygon fill="#9a32cd" stroke="#9a32cd" points="421.687,-465.584 412.047,-469.982 422.325,-472.555 421.687,-465.584"/>
<text text-anchor="middle" x="675" y="-462.5" font-family="Helvetica,sans-Serif" font-size="10.00"> graphics</text>
</g>
<!-- Node10 -->
<g id="node20" class="node"><title>Node10</title>
<a xlink:href="../../d7/d4e/classmars_1_1interfaces_1_1_control_center.html" target="_top" xlink:title="The declaration of the ControlCenter. ">
<polygon fill="white" stroke="black" points="612.5,-290.5 612.5,-324.5 737.5,-324.5 737.5,-290.5 612.5,-290.5"/>
<text text-anchor="start" x="620.5" y="-311.5" font-family="Helvetica,sans-Serif" font-size="10.00">mars::interfaces::Control</text>
<text text-anchor="middle" x="675" y="-298.5" font-family="Helvetica,sans-Serif" font-size="10.00">Center</text>
</a>
</g>
<!-- Node6&#45;&gt;Node10 -->
<g id="edge24" class="edge"><title>Node6&#45;&gt;Node10</title>
<path fill="none" stroke="#9a32cd" stroke-dasharray="5,2" d="M416.064,-455.676C418.817,-454.064 421.477,-452.341 424,-450.5 434.772,-442.642 430.555,-433.341 442,-426.5 500.647,-391.446 534.372,-436.858 594,-403.5 602.754,-398.603 640.769,-351.152 661.46,-324.848"/>
<polygon fill="#9a32cd" stroke="#9a32cd" points="414.213,-452.695 407,-460.455 417.478,-458.887 414.213,-452.695"/>
<text text-anchor="middle" x="518" y="-430.5" font-family="Helvetica,sans-Serif" font-size="10.00"> graphics</text>
</g>
<!-- Node7&#45;&gt;Node1 -->
<g id="edge14" class="edge"><title>Node7&#45;&gt;Node1</title>
<path fill="none" stroke="#9a32cd" stroke-dasharray="5,2" d="M942.872,-446.271C972.347,-441.91 1008.9,-436.503 1033.9,-432.805"/>
<polygon fill="#9a32cd" stroke="#9a32cd" points="942.152,-442.839 932.772,-447.765 943.177,-449.764 942.152,-442.839"/>
<text text-anchor="middle" x="997" y="-444.5" font-family="Helvetica,sans-Serif" font-size="10.00"> viz</text>
</g>
<!-- Node8 -->
<g id="node15" class="node"><title>Node8</title>
<polygon fill="white" stroke="#bfbfbf" points="612,-396 612,-417 738,-417 738,-396 612,-396"/>
<text text-anchor="middle" x="675" y="-404" font-family="Helvetica,sans-Serif" font-size="10.00">lib_manager::LibInterface</text>
</g>
<!-- Node8&#45;&gt;Node7 -->
<g id="edge16" class="edge"><title>Node8&#45;&gt;Node7</title>
<path fill="none" stroke="midnightblue" d="M734.183,-419.202C772.632,-427.453 821.657,-437.974 855.208,-445.175"/>
<polygon fill="midnightblue" stroke="midnightblue" points="734.66,-415.724 724.148,-417.048 733.191,-422.568 734.66,-415.724"/>
</g>
<!-- Node9 -->
<g id="node18" class="node"><title>Node9</title>
<polygon fill="white" stroke="#bfbfbf" points="654.5,-251 654.5,-272 695.5,-272 695.5,-251 654.5,-251"/>
<text text-anchor="middle" x="675" y="-259" font-family="Helvetica,sans-Serif" font-size="10.00">string</text>
</g>
<!-- Node9&#45;&gt;Node7 -->
<g id="edge20" class="edge"><title>Node9&#45;&gt;Node7</title>
<path fill="none" stroke="#9a32cd" stroke-dasharray="5,2" d="M705.499,-268.495C716.168,-271.629 727.977,-275.905 738,-281.5 747.218,-286.646 804.675,-334.384 810,-343.5 830.574,-378.724 800.585,-403.293 828,-433.5 835.081,-441.302 845.092,-446.104 855.183,-449.045"/>
<polygon fill="#9a32cd" stroke="#9a32cd" points="706.283,-265.081 695.715,-265.835 704.446,-271.836 706.283,-265.081"/>
<text text-anchor="middle" x="783" y="-347.5" font-family="Helvetica,sans-Serif" font-size="10.00"> configDir</text>
</g>
<!-- Node24 -->
<g id="node52" class="node"><title>Node24</title>
<a xlink:href="../../dc/dc3/structmars_1_1cfg__manager_1_1cfg_property_struct.html" target="_top" xlink:title="mars::cfg_manager::\lcfgPropertyStruct">
<polygon fill="white" stroke="black" points="840.5,-390.5 840.5,-424.5 947.5,-424.5 947.5,-390.5 840.5,-390.5"/>
<text text-anchor="start" x="848.5" y="-411.5" font-family="Helvetica,sans-Serif" font-size="10.00">mars::cfg_manager::</text>
<text text-anchor="middle" x="894" y="-398.5" font-family="Helvetica,sans-Serif" font-size="10.00">cfgPropertyStruct</text>
</a>
</g>
<!-- Node9&#45;&gt;Node24 -->
<g id="edge60" class="edge"><title>Node9&#45;&gt;Node24</title>
<path fill="none" stroke="#9a32cd" stroke-dasharray="5,2" d="M705.632,-256.482C736.235,-253.355 782.564,-254.049 810,-280.5 842.825,-312.147 799.119,-346.217 828,-381.5 831.432,-385.693 835.634,-389.213 840.24,-392.167"/>
<polygon fill="#9a32cd" stroke="#9a32cd" points="705.025,-253.03 695.521,-257.711 705.87,-259.979 705.025,-253.03"/>
<text text-anchor="middle" x="783" y="-284.5" font-family="Helvetica,sans-Serif" font-size="10.00"> sValue</text>
</g>
<!-- Node10&#45;&gt;Node7 -->
<g id="edge22" class="edge"><title>Node10&#45;&gt;Node7</title>
<path fill="none" stroke="#9a32cd" stroke-dasharray="5,2" d="M712.705,-330.018C741.433,-348.326 780.874,-376.041 810,-406.5 819.967,-416.924 816.419,-424.905 828,-433.5 835.98,-439.423 845.723,-443.608 855.247,-446.558"/>
<polygon fill="#9a32cd" stroke="#9a32cd" points="714.486,-327.003 704.156,-324.645 710.761,-332.93 714.486,-327.003"/>
<text text-anchor="middle" x="783" y="-410.5" font-family="Helvetica,sans-Serif" font-size="10.00"> control</text>
</g>
<!-- Node11 -->
<g id="node23" class="node"><title>Node11</title>
<a xlink:href="../../d2/da9/classmars_1_1interfaces_1_1_controller_manager_interface.html" target="_top" xlink:title="&quot;ControllerManagerInterface&quot; declares the interfaces for all controller operations that are used for ...">
<polygon fill="white" stroke="black" points="278.5,-3.50018 278.5,-37.5002 413.5,-37.5002 413.5,-3.50018 278.5,-3.50018"/>
<text text-anchor="start" x="286.5" y="-24.5002" font-family="Helvetica,sans-Serif" font-size="10.00">mars::interfaces::Controller</text>
<text text-anchor="middle" x="346" y="-11.5002" font-family="Helvetica,sans-Serif" font-size="10.00">ManagerInterface</text>
</a>
</g>
<!-- Node11&#45;&gt;Node10 -->
<g id="edge26" class="edge"><title>Node11&#45;&gt;Node10</title>
<path fill="none" stroke="#9a32cd" stroke-dasharray="5,2" d="M423.873,-3.37258C479.087,3.79103 550.776,2.14113 594,-41.5002 631.636,-79.4999 580.615,-238.194 612,-281.5 614.43,-284.853 617.373,-287.776 620.644,-290.322"/>
<polygon fill="#9a32cd" stroke="#9a32cd" points="423.176,0.0636681 413.766,-4.80461 424.158,-6.86712 423.176,0.0636681"/>
<text text-anchor="middle" x="518" y="-45.5002" font-family="Helvetica,sans-Serif" font-size="10.00"> controllers</text>
</g>
<!-- Node12 -->
<g id="node25" class="node"><title>Node12</title>
<a xlink:href="../../d6/d60/classmars_1_1interfaces_1_1_joint_manager_interface.html" target="_top" xlink:title="Interface class for the node organization. ">
<polygon fill="white" stroke="black" points="270,-407.5 270,-441.5 422,-441.5 422,-407.5 270,-407.5"/>
<text text-anchor="start" x="278" y="-428.5" font-family="Helvetica,sans-Serif" font-size="10.00">mars::interfaces::JointManager</text>
<text text-anchor="middle" x="346" y="-415.5" font-family="Helvetica,sans-Serif" font-size="10.00">Interface</text>
</a>
</g>
<!-- Node12&#45;&gt;Node10 -->
<g id="edge28" class="edge"><title>Node12&#45;&gt;Node10</title>
<path fill="none" stroke="#9a32cd" stroke-dasharray="5,2" d="M409.211,-404.008C414.236,-402.203 419.215,-400.356 424,-398.5 432.162,-395.335 433.597,-392.955 442,-390.5 507.584,-371.343 530.907,-393.72 594,-367.5 618.241,-357.426 641.883,-338.558 657.307,-324.661"/>
<polygon fill="#9a32cd" stroke="#9a32cd" points="407.801,-400.794 399.531,-407.417 410.126,-407.396 407.801,-400.794"/>
<text text-anchor="middle" x="518" y="-394.5" font-family="Helvetica,sans-Serif" font-size="10.00"> joints</text>
</g>
<!-- Node13 -->
<g id="node27" class="node"><title>Node13</title>
<a xlink:href="../../df/d82/classmars_1_1interfaces_1_1_entity_manager_interface.html" target="_top" xlink:title="mars::interfaces::Entity\lManagerInterface">
<polygon fill="white" stroke="black" points="286.5,-251.5 286.5,-285.5 405.5,-285.5 405.5,-251.5 286.5,-251.5"/>
<text text-anchor="start" x="294.5" y="-272.5" font-family="Helvetica,sans-Serif" font-size="10.00">mars::interfaces::Entity</text>
<text text-anchor="middle" x="346" y="-259.5" font-family="Helvetica,sans-Serif" font-size="10.00">ManagerInterface</text>
</a>
</g>
<!-- Node13&#45;&gt;Node10 -->
<g id="edge30" class="edge"><title>Node13&#45;&gt;Node10</title>
<path fill="none" stroke="#9a32cd" stroke-dasharray="5,2" d="M415.776,-270.191C465.69,-272.219 534.324,-276.682 594,-286.5 600.594,-287.585 607.434,-288.958 614.218,-290.481"/>
<polygon fill="#9a32cd" stroke="#9a32cd" points="415.862,-266.691 405.735,-269.805 415.593,-273.686 415.862,-266.691"/>
<text text-anchor="middle" x="518" y="-290.5" font-family="Helvetica,sans-Serif" font-size="10.00"> entities</text>
</g>
<!-- Node14&#45;&gt;Node1 -->
<g id="edge62" class="edge"><title>Node14&#45;&gt;Node1</title>
<path fill="none" stroke="#9a32cd" stroke-dasharray="5,2" d="M412.939,-534.21C526.748,-537.35 764.624,-537.536 960,-495.5 985.558,-490.001 993.831,-491.356 1016,-477.5 1032.19,-467.379 1046.71,-450.445 1055.19,-439.374"/>
<polygon fill="#9a32cd" stroke="#9a32cd" points="412.746,-530.703 402.648,-533.908 412.541,-537.7 412.746,-530.703"/>
<text text-anchor="middle" x="783" y="-528.5" font-family="Helvetica,sans-Serif" font-size="10.00"> cfg</text>
</g>
<!-- Node14&#45;&gt;Node10 -->
<g id="edge32" class="edge"><title>Node14&#45;&gt;Node10</title>
<path fill="none" stroke="#9a32cd" stroke-dasharray="5,2" d="M412.288,-515.141C476.697,-498.021 568.42,-469.995 594,-443.5 612.453,-424.388 599.508,-409.946 612,-386.5 624.456,-363.122 644.136,-339.838 658.185,-324.67"/>
<polygon fill="#9a32cd" stroke="#9a32cd" points="411.378,-511.761 402.597,-517.689 413.158,-518.531 411.378,-511.761"/>
<text text-anchor="middle" x="518" y="-508.5" font-family="Helvetica,sans-Serif" font-size="10.00"> cfg</text>
</g>
<!-- Node15&#45;&gt;Node10 -->
<g id="edge36" class="edge"><title>Node15&#45;&gt;Node10</title>
<path fill="none" stroke="#9a32cd" stroke-dasharray="5,2" d="M405.978,-352.257C420.748,-347.473 434.479,-343.25 442,-341.5 458.3,-337.707 549.079,-324.856 612.388,-316.086"/>
<polygon fill="#9a32cd" stroke="#9a32cd" points="404.594,-349.028 396.177,-355.462 406.77,-355.681 404.594,-349.028"/>
<text text-anchor="middle" x="518" y="-358.5" font-family="Helvetica,sans-Serif" font-size="10.00"> dataBroker</text>
<text text-anchor="middle" x="518" y="-345.5" font-family="Helvetica,sans-Serif" font-size="10.00">theDataBroker</text>
</g>
<!-- Node16 -->
<g id="node35" class="node"><title>Node16</title>
<a xlink:href="../../db/da9/classmars_1_1interfaces_1_1_sensor_manager_interface.html" target="_top" xlink:title="&quot;SensorManagerInterface&quot; declares the interfaces for all sensor operations that are used for the comm...">
<polygon fill="white" stroke="black" points="284,-303.5 284,-337.5 408,-337.5 408,-303.5 284,-303.5"/>
<text text-anchor="start" x="292" y="-324.5" font-family="Helvetica,sans-Serif" font-size="10.00">mars::interfaces::Sensor</text>
<text text-anchor="middle" x="346" y="-311.5" font-family="Helvetica,sans-Serif" font-size="10.00">ManagerInterface</text>
</a>
</g>
<!-- Node16&#45;&gt;Node10 -->
<g id="edge40" class="edge"><title>Node16&#45;&gt;Node10</title>
<path fill="none" stroke="#9a32cd" stroke-dasharray="5,2" d="M418.169,-307.995C426.189,-306.972 434.254,-306.102 442,-305.5 509.353,-300.27 526.45,-304.666 594,-305.5 599.908,-305.573 606.057,-305.676 612.21,-305.797"/>
<polygon fill="#9a32cd" stroke="#9a32cd" points="417.502,-304.554 408.062,-309.365 418.442,-311.49 417.502,-304.554"/>
<text text-anchor="middle" x="518" y="-309.5" font-family="Helvetica,sans-Serif" font-size="10.00"> sensors</text>
</g>
<!-- Node17 -->
<g id="node37" class="node"><title>Node17</title>
<a xlink:href="../../db/de9/classmars_1_1interfaces_1_1_motor_manager_interface.html" target="_top" xlink:title="&quot;MotorManagerInterface&quot; declares the interfaces for all motor operations that are used for the commun...">
<polygon fill="white" stroke="black" points="268.5,-199.5 268.5,-233.5 423.5,-233.5 423.5,-199.5 268.5,-199.5"/>
<text text-anchor="start" x="276.5" y="-220.5" font-family="Helvetica,sans-Serif" font-size="10.00">mars::interfaces::MotorManager</text>
<text text-anchor="middle" x="346" y="-207.5" font-family="Helvetica,sans-Serif" font-size="10.00">Interface</text>
</a>
</g>
<!-- Node17&#45;&gt;Node10 -->
<g id="edge42" class="edge"><title>Node17&#45;&gt;Node10</title>
<path fill="none" stroke="#9a32cd" stroke-dasharray="5,2" d="M433.814,-213.718C484.133,-215.99 546.516,-225.689 594,-255.5 605.903,-262.973 601.057,-272.681 612,-281.5 616.146,-284.841 620.781,-287.811 625.605,-290.437"/>
<polygon fill="#9a32cd" stroke="#9a32cd" points="433.714,-210.213 423.595,-213.351 433.462,-217.208 433.714,-210.213"/>
<text text-anchor="middle" x="518" y="-259.5" font-family="Helvetica,sans-Serif" font-size="10.00"> motors</text>
</g>
<!-- Node18 -->
<g id="node39" class="node"><title>Node18</title>
<a xlink:href="../../d9/d6a/classmars_1_1interfaces_1_1_load_center.html" target="_top" xlink:title="mars::interfaces::LoadCenter">
<polygon fill="white" stroke="black" points="274.5,-56.0002 274.5,-77.0002 417.5,-77.0002 417.5,-56.0002 274.5,-56.0002"/>
<text text-anchor="middle" x="346" y="-64.0002" font-family="Helvetica,sans-Serif" font-size="10.00">mars::interfaces::LoadCenter</text>
</a>
</g>
<!-- Node18&#45;&gt;Node10 -->
<g id="edge44" class="edge"><title>Node18&#45;&gt;Node10</title>
<path fill="none" stroke="#9a32cd" stroke-dasharray="5,2" d="M427.975,-59.3568C490.929,-55.8385 570.885,-56.2936 594,-78.5002 626.659,-109.875 585.176,-245.011 612,-281.5 614.453,-284.837 617.413,-287.747 620.695,-290.285"/>
<polygon fill="#9a32cd" stroke="#9a32cd" points="427.404,-55.8847 417.632,-59.9783 427.824,-62.8721 427.404,-55.8847"/>
<text text-anchor="middle" x="518" y="-82.5002" font-family="Helvetica,sans-Serif" font-size="10.00"> loadCenter</text>
</g>
<!-- Node19 -->
<g id="node41" class="node"><title>Node19</title>
<a xlink:href="../../d1/d51/classmars_1_1interfaces_1_1_load_heightmap_interface.html" target="_top" xlink:title="mars::interfaces::LoadHeightmap\lInterface">
<polygon fill="white" stroke="black" points="0.5,-23.5002 0.5,-57.5002 161.5,-57.5002 161.5,-23.5002 0.5,-23.5002"/>
<text text-anchor="start" x="8.5" y="-44.5002" font-family="Helvetica,sans-Serif" font-size="10.00">mars::interfaces::LoadHeightmap</text>
<text text-anchor="middle" x="81" y="-31.5002" font-family="Helvetica,sans-Serif" font-size="10.00">Interface</text>
</a>
</g>
<!-- Node19&#45;&gt;Node18 -->
<g id="edge46" class="edge"><title>Node19&#45;&gt;Node18</title>
<path fill="none" stroke="#9a32cd" stroke-dasharray="5,2" d="M171.844,-49.4132C205.335,-52.6991 242.778,-56.3727 274.339,-59.4693"/>
<polygon fill="#9a32cd" stroke="#9a32cd" points="171.882,-45.9002 161.588,-48.4069 171.198,-52.8667 171.882,-45.9002"/>
<text text-anchor="middle" x="215" y="-61.5002" font-family="Helvetica,sans-Serif" font-size="10.00"> loadHeightmap</text>
</g>
<!-- Node20 -->
<g id="node43" class="node"><title>Node20</title>
<a xlink:href="../../d7/d02/classmars_1_1interfaces_1_1_load_mesh_interface.html" target="_top" xlink:title="mars::interfaces::LoadMesh\lInterface">
<polygon fill="white" stroke="black" points="12,-75.5002 12,-109.5 150,-109.5 150,-75.5002 12,-75.5002"/>
<text text-anchor="start" x="20" y="-96.5002" font-family="Helvetica,sans-Serif" font-size="10.00">mars::interfaces::LoadMesh</text>
<text text-anchor="middle" x="81" y="-83.5002" font-family="Helvetica,sans-Serif" font-size="10.00">Interface</text>
</a>
</g>
<!-- Node20&#45;&gt;Node18 -->
<g id="edge48" class="edge"><title>Node20&#45;&gt;Node18</title>
<path fill="none" stroke="#9a32cd" stroke-dasharray="5,2" d="M160.315,-84.7183C196.535,-81.1646 239.113,-76.9872 274.353,-73.5297"/>
<polygon fill="#9a32cd" stroke="#9a32cd" points="159.89,-81.2431 150.279,-85.7029 160.573,-88.2097 159.89,-81.2431"/>
<text text-anchor="middle" x="215" y="-87.5002" font-family="Helvetica,sans-Serif" font-size="10.00"> loadMesh</text>
</g>
<!-- Node21 -->
<g id="node45" class="node"><title>Node21</title>
<a xlink:href="../../d7/d4c/classmars_1_1interfaces_1_1_node_manager_interface.html" target="_top" xlink:title="&quot;NodeManagerInterface&quot; declares the interfaces for all NodeOperations that are used for the communica...">
<polygon fill="white" stroke="black" points="269,-147.5 269,-181.5 423,-181.5 423,-147.5 269,-147.5"/>
<text text-anchor="start" x="277" y="-168.5" font-family="Helvetica,sans-Serif" font-size="10.00">mars::interfaces::NodeManager</text>
<text text-anchor="middle" x="346" y="-155.5" font-family="Helvetica,sans-Serif" font-size="10.00">Interface</text>
</a>
</g>
<!-- Node21&#45;&gt;Node10 -->
<g id="edge50" class="edge"><title>Node21&#45;&gt;Node10</title>
<path fill="none" stroke="#9a32cd" stroke-dasharray="5,2" d="M433.156,-152.888C486.128,-150.898 551.521,-158.243 594,-197.5 622.041,-223.414 587.542,-252.181 612,-281.5 614.804,-284.862 618.114,-287.795 621.725,-290.353"/>
<polygon fill="#9a32cd" stroke="#9a32cd" points="432.894,-149.397 423.078,-153.383 433.238,-156.388 432.894,-149.397"/>
<text text-anchor="middle" x="518" y="-201.5" font-family="Helvetica,sans-Serif" font-size="10.00"> nodes</text>
</g>
<!-- Node22 -->
<g id="node47" class="node"><title>Node22</title>
<a xlink:href="../../dc/de5/classmars_1_1interfaces_1_1_simulator_interface.html" target="_top" xlink:title="mars::interfaces::Simulator\lInterface">
<polygon fill="white" stroke="black" points="279,-95.5002 279,-129.5 413,-129.5 413,-95.5002 279,-95.5002"/>
<text text-anchor="start" x="287" y="-116.5" font-family="Helvetica,sans-Serif" font-size="10.00">mars::interfaces::Simulator</text>
<text text-anchor="middle" x="346" y="-103.5" font-family="Helvetica,sans-Serif" font-size="10.00">Interface</text>
</a>
</g>
<!-- Node22&#45;&gt;Node10 -->
<g id="edge52" class="edge"><title>Node22&#45;&gt;Node10</title>
<path fill="none" stroke="#9a32cd" stroke-dasharray="5,2" d="M423.102,-97.1019C478.103,-90.9447 549.863,-93.5405 594,-136.5 640.535,-181.794 572.625,-229.86 612,-281.5 614.583,-284.887 617.685,-287.836 621.11,-290.403"/>
<polygon fill="#9a32cd" stroke="#9a32cd" points="422.532,-93.6455 413.037,-98.3456 423.391,-100.593 422.532,-93.6455"/>
<text text-anchor="middle" x="518" y="-140.5" font-family="Helvetica,sans-Serif" font-size="10.00"> sim</text>
</g>
<!-- Node23&#45;&gt;Node1 -->
<g id="edge54" class="edge"><title>Node23&#45;&gt;Node1</title>
<path fill="none" stroke="#9a32cd" stroke-dasharray="5,2" d="M562.355,-628.72C657.102,-654.013 881.546,-697.828 1016,-591.5 1040.6,-572.044 1056.8,-472.123 1061.55,-439.105"/>
<polygon fill="#9a32cd" stroke="#9a32cd" points="563.093,-625.294 552.525,-626.037 561.25,-632.047 563.093,-625.294"/>
<text text-anchor="middle" x="783" y="-662.5" font-family="Helvetica,sans-Serif" font-size="10.00"> textFactory</text>
</g>
<!-- Node24&#45;&gt;Node1 -->
<g id="edge58" class="edge"><title>Node24&#45;&gt;Node1</title>
<path fill="none" stroke="#9a32cd" stroke-dasharray="5,2" d="M958.03,-407.525C976.823,-408.373 997.337,-410.123 1016,-413.5 1021.9,-414.568 1028.09,-416.173 1033.96,-417.942"/>
<polygon fill="#9a32cd" stroke="#9a32cd" points="957.913,-404.019 947.79,-407.143 957.652,-411.014 957.913,-404.019"/>
<text text-anchor="middle" x="997" y="-417.5" font-family="Helvetica,sans-Serif" font-size="10.00"> vizProp</text>
</g>
<!-- Node25 -->
<g id="node56" class="node"><title>Node25</title>
<a xlink:href="../../d7/d02/classosg__text_1_1_text_interface.html" target="_top" xlink:title="osg_text::TextInterface">
<polygon fill="white" stroke="black" points="835,-195 835,-216 953,-216 953,-195 835,-195"/>
<text text-anchor="middle" x="894" y="-203" font-family="Helvetica,sans-Serif" font-size="10.00">osg_text::TextInterface</text>
</a>
</g>
<!-- Node25&#45;&gt;Node1 -->
<g id="edge64" class="edge"><title>Node25&#45;&gt;Node1</title>
<path fill="none" stroke="#9a32cd" stroke-dasharray="5,2" d="M948.34,-219.791C952.378,-221.507 956.311,-223.405 960,-225.5 989.273,-242.124 997.948,-248.086 1016,-276.5 1046.07,-323.828 1058,-391.674 1061.66,-417.738"/>
<polygon fill="#9a32cd" stroke="#9a32cd" points="949.382,-216.441 938.792,-216.111 946.865,-222.973 949.382,-216.441"/>
<text text-anchor="middle" x="997" y="-280.5" font-family="Helvetica,sans-Serif" font-size="10.00"> text</text>
</g>
</g>
</svg>
