<?xml version="1.0" encoding="UTF-8" standalone="no"?>
<!DOCTYPE svg PUBLIC "-//W3C//DTD SVG 1.1//EN"
 "http://www.w3.org/Graphics/SVG/1.1/DTD/svg11.dtd">
<!-- Generated by graphviz version 2.26.3 (20100126.1600)
 -->
<!-- Title: /home/kavonszadkowski/limes&#45;dev/simulation/mars/graphics/src/HUD.h Pages: 1 -->
<svg width="772pt" height="154pt"
 viewBox="0.00 0.00 772.00 154.00" xmlns="http://www.w3.org/2000/svg" xmlns:xlink="http://www.w3.org/1999/xlink">
<g id="graph1" class="graph" transform="scale(1 1) rotate(0) translate(4 150)">
<title>/home/kavonszadkowski/limes&#45;dev/simulation/mars/graphics/src/HUD.h</title>
<polygon fill="white" stroke="white" points="-4,5 -4,-150 769,-150 769,5 -4,5"/>
<!-- Node1 -->
<g id="node1" class="node"><title>Node1</title>
<polygon fill="#bfbfbf" stroke="black" points="333.5,-98.5 333.5,-145.5 464.5,-145.5 464.5,-98.5 333.5,-98.5"/>
<text text-anchor="start" x="341.5" y="-132.5" font-family="Helvetica,sans-Serif" font-size="10.00">/home/kavonszadkowski</text>
<text text-anchor="start" x="341.5" y="-119.5" font-family="Helvetica,sans-Serif" font-size="10.00">/limes&#45;dev/simulation</text>
<text text-anchor="middle" x="399" y="-106.5" font-family="Helvetica,sans-Serif" font-size="10.00">/mars/graphics/src/HUD.h</text>
</g>
<!-- Node2 -->
<g id="node3" class="node"><title>Node2</title>
<a xlink:href="../../d7/d19/_graphics_manager_8cpp.html" target="_top" xlink:title="/home/kavonszadkowski\l/limes&#45;dev/simulation\l/mars/graphics/src/GraphicsManager.cpp">
<polygon fill="white" stroke="black" points="0,-7.5 0,-54.5 196,-54.5 196,-7.5 0,-7.5"/>
<text text-anchor="start" x="8" y="-41.5" font-family="Helvetica,sans-Serif" font-size="10.00">/home/kavonszadkowski</text>
<text text-anchor="start" x="8" y="-28.5" font-family="Helvetica,sans-Serif" font-size="10.00">/limes&#45;dev/simulation</text>
<text text-anchor="middle" x="98" y="-15.5" font-family="Helvetica,sans-Serif" font-size="10.00">/mars/graphics/src/GraphicsManager.cpp</text>
</a>
</g>
<!-- Node1&#45;&gt;Node2 -->
<g id="edge2" class="edge"><title>Node1&#45;&gt;Node2</title>
<path fill="none" stroke="midnightblue" d="M323.595,-99.2031C278.503,-85.5706 221.318,-68.282 175.805,-54.5226"/>
<polygon fill="midnightblue" stroke="midnightblue" points="322.731,-102.598 333.316,-102.142 324.757,-95.8979 322.731,-102.598"/>
</g>
<!-- Node3 -->
<g id="node5" class="node"><title>Node3</title>
<a xlink:href="../../d0/d77/_graphics_widget_8cpp.html" target="_top" xlink:title="/home/kavonszadkowski\l/limes&#45;dev/simulation\l/mars/graphics/src/GraphicsWidget.cpp">
<polygon fill="white" stroke="black" points="213.5,-7.5 213.5,-54.5 402.5,-54.5 402.5,-7.5 213.5,-7.5"/>
<text text-anchor="start" x="221.5" y="-41.5" font-family="Helvetica,sans-Serif" font-size="10.00">/home/kavonszadkowski</text>
<text text-anchor="start" x="221.5" y="-28.5" font-family="Helvetica,sans-Serif" font-size="10.00">/limes&#45;dev/simulation</text>
<text text-anchor="middle" x="308" y="-15.5" font-family="Helvetica,sans-Serif" font-size="10.00">/mars/graphics/src/GraphicsWidget.cpp</text>
</a>
</g>
<!-- Node1&#45;&gt;Node3 -->
<g id="edge4" class="edge"><title>Node1&#45;&gt;Node3</title>
<path fill="none" stroke="midnightblue" d="M367.94,-90.9399C356.1,-79.1 342.805,-65.8047 331.749,-54.7495"/>
<polygon fill="midnightblue" stroke="midnightblue" points="365.545,-93.4946 375.091,-98.0908 370.495,-88.5448 365.545,-93.4946"/>
</g>
<!-- Node4 -->
<g id="node7" class="node"><title>Node4</title>
<a xlink:href="../../d9/d2a/_h_u_d_8cpp.html" target="_top" xlink:title="The &quot;HUD&quot; class contains all necessary methods for rendering data into a texture. ...">
<polygon fill="white" stroke="black" points="420,-7.5 420,-54.5 562,-54.5 562,-7.5 420,-7.5"/>
<text text-anchor="start" x="428" y="-41.5" font-family="Helvetica,sans-Serif" font-size="10.00">/home/kavonszadkowski</text>
<text text-anchor="start" x="428" y="-28.5" font-family="Helvetica,sans-Serif" font-size="10.00">/limes&#45;dev/simulation</text>
<text text-anchor="middle" x="491" y="-15.5" font-family="Helvetica,sans-Serif" font-size="10.00">/mars/graphics/src/HUD.cpp</text>
</a>
</g>
<!-- Node1&#45;&gt;Node4 -->
<g id="edge6" class="edge"><title>Node1&#45;&gt;Node4</title>
<path fill="none" stroke="midnightblue" d="M430.401,-90.9399C442.371,-79.1 455.813,-65.8047 466.99,-54.7495"/>
<polygon fill="midnightblue" stroke="midnightblue" points="427.82,-88.5701 423.172,-98.0908 432.743,-93.5468 427.82,-88.5701"/>
</g>
<!-- Node5 -->
<g id="node9" class="node"><title>Node5</title>
<a xlink:href="../../d0/dcf/_qt_osg_mix_graphics_widget_8cpp.html" target="_top" xlink:title="/home/kavonszadkowski\l/limes&#45;dev/simulation\l/mars/graphics/src/QtOsgMixGraphics\lWidget.cpp">
<polygon fill="white" stroke="black" points="580,-1 580,-61 764,-61 764,-1 580,-1"/>
<text text-anchor="start" x="588" y="-48" font-family="Helvetica,sans-Serif" font-size="10.00">/home/kavonszadkowski</text>
<text text-anchor="start" x="588" y="-35" font-family="Helvetica,sans-Serif" font-size="10.00">/limes&#45;dev/simulation</text>
<text text-anchor="start" x="588" y="-22" font-family="Helvetica,sans-Serif" font-size="10.00">/mars/graphics/src/QtOsgMixGraphics</text>
<text text-anchor="middle" x="672" y="-9" font-family="Helvetica,sans-Serif" font-size="10.00">Widget.cpp</text>
</a>
</g>
<!-- Node1&#45;&gt;Node5 -->
<g id="edge8" class="edge"><title>Node1&#45;&gt;Node5</title>
<path fill="none" stroke="midnightblue" d="M474.398,-96.8672C507.657,-85.7811 547.013,-72.6623 581.813,-61.0622"/>
<polygon fill="midnightblue" stroke="midnightblue" points="473.118,-93.6047 464.738,-100.087 475.331,-100.245 473.118,-93.6047"/>
</g>
</g>
</svg>
