<?xml version="1.0" encoding="UTF-8" standalone="no"?>
<!DOCTYPE svg PUBLIC "-//W3C//DTD SVG 1.1//EN"
 "http://www.w3.org/Graphics/SVG/1.1/DTD/svg11.dtd">
<!-- Generated by graphviz version 2.36.0 (20140111.2315)
 -->
<!-- Title: mars::sim::MultiLevelLaserRangeFinder::RaySubSensor Pages: 1 -->
<svg width="336pt" height="87pt"
 viewBox="0.00 0.00 336.00 87.00" xmlns="http://www.w3.org/2000/svg" xmlns:xlink="http://www.w3.org/1999/xlink">
<g id="graph0" class="graph" transform="scale(1 1) rotate(0) translate(4 83)">
<title>mars::sim::MultiLevelLaserRangeFinder::RaySubSensor</title>
<polygon fill="white" stroke="none" points="-4,4 -4,-83 332,-83 332,4 -4,4"/>
<!-- Node1 -->
<g id="node1" class="node"><title>Node1</title>
<polygon fill="#bfbfbf" stroke="black" points="184,-24 184,-54 328,-54 328,-24 184,-24"/>
<text text-anchor="start" x="192" y="-42" font-family="Helvetica,sans-Serif" font-size="10.00">mars::sim::MultiLevelLaser</text>
<text text-anchor="middle" x="256" y="-31" font-family="Helvetica,sans-Serif" font-size="10.00">RangeFinder::RaySubSensor</text>
</g>
<!-- Node2 -->
<g id="node2" class="node"><title>Node2</title>
<g id="a_node2"><a xlink:href="../../db/dc3/classmars_1_1interfaces_1_1_graphics_camera_interface.html" target="_top" xlink:title="mars::interfaces::Graphics\lCameraInterface">
<polygon fill="white" stroke="black" points="0,-49 0,-79 132,-79 132,-49 0,-49"/>
<text text-anchor="start" x="8" y="-67" font-family="Helvetica,sans-Serif" font-size="10.00">mars::interfaces::Graphics</text>
<text text-anchor="middle" x="66" y="-56" font-family="Helvetica,sans-Serif" font-size="10.00">CameraInterface</text>
</a>
</g>
</g>
<!-- Node2&#45;&gt;Node1 -->
<g id="edge1" class="edge"><title>Node2&#45;&gt;Node1</title>
<path fill="none" stroke="#9a32cd" stroke-dasharray="5,2" d="M142.517,-53.9579C156.138,-52.1465 170.299,-50.2635 183.792,-48.4691"/>
<polygon fill="#9a32cd" stroke="#9a32cd" points="141.677,-50.5386 132.226,-55.3264 142.6,-57.4776 141.677,-50.5386"/>
<text text-anchor="middle" x="158" y="-55" font-family="Helvetica,sans-Serif" font-size="10.00"> gc</text>
</g>
<!-- Node3 -->
<g id="node3" class="node"><title>Node3</title>
<g id="a_node3"><a xlink:href="../../d9/d3b/classmars_1_1interfaces_1_1_graphics_window_interface.html" target="_top" xlink:title="mars::interfaces::Graphics\lWindowInterface">
<polygon fill="white" stroke="black" points="0,-0 0,-30 132,-30 132,-0 0,-0"/>
<text text-anchor="start" x="8" y="-18" font-family="Helvetica,sans-Serif" font-size="10.00">mars::interfaces::Graphics</text>
<text text-anchor="middle" x="66" y="-7" font-family="Helvetica,sans-Serif" font-size="10.00">WindowInterface</text>
</a>
</g>
</g>
<!-- Node3&#45;&gt;Node1 -->
<g id="edge2" class="edge"><title>Node3&#45;&gt;Node1</title>
<path fill="none" stroke="#9a32cd" stroke-dasharray="5,2" d="M142.517,-24.6405C156.138,-26.3794 170.299,-28.1871 183.792,-29.9097"/>
<polygon fill="#9a32cd" stroke="#9a32cd" points="142.588,-21.1213 132.226,-23.3267 141.702,-28.0649 142.588,-21.1213"/>
<text text-anchor="middle" x="158" y="-30" font-family="Helvetica,sans-Serif" font-size="10.00"> gw</text>
</g>
</g>
</svg>
