<?xml version="1.0" encoding="UTF-8" standalone="no"?>
<!DOCTYPE svg PUBLIC "-//W3C//DTD SVG 1.1//EN"
 "http://www.w3.org/Graphics/SVG/1.1/DTD/svg11.dtd">
<!-- Generated by graphviz version 2.36.0 (20140111.2315)
 -->
<!-- Title: mars::sim::RayGridSensor Pages: 1 -->
<svg width="1102pt" height="649pt"
 viewBox="0.00 0.00 1102.00 649.00" xmlns="http://www.w3.org/2000/svg" xmlns:xlink="http://www.w3.org/1999/xlink">
<g id="graph0" class="graph" transform="scale(1 1) rotate(0) translate(4 645)">
<title>mars::sim::RayGridSensor</title>
<polygon fill="white" stroke="none" points="-4,4 -4,-645 1098,-645 1098,4 -4,4"/>
<!-- Node1 -->
<g id="node1" class="node"><title>Node1</title>
<polygon fill="#bfbfbf" stroke="black" points="960.5,-82.5 960.5,-101.5 1093.5,-101.5 1093.5,-82.5 960.5,-82.5"/>
<text text-anchor="middle" x="1027" y="-89.5" font-family="Helvetica,sans-Serif" font-size="10.00">mars::sim::RayGridSensor</text>
</g>
<!-- Node2 -->
<g id="node2" class="node"><title>Node2</title>
<g id="a_node2"><a xlink:href="../../d3/d21/classmars_1_1interfaces_1_1_sensor_interface.html" target="_top" xlink:title="mars::interfaces::Sensor\lInterface">
<polygon fill="white" stroke="black" points="766,-260 766,-290 890,-290 890,-260 766,-260"/>
<text text-anchor="start" x="774" y="-278" font-family="Helvetica,sans-Serif" font-size="10.00">mars::interfaces::Sensor</text>
<text text-anchor="middle" x="828" y="-267" font-family="Helvetica,sans-Serif" font-size="10.00">Interface</text>
</a>
</g>
</g>
<!-- Node2&#45;&gt;Node1 -->
<g id="edge1" class="edge"><title>Node2&#45;&gt;Node1</title>
<path fill="none" stroke="midnightblue" d="M852.969,-252.735C896.203,-212.573 985.557,-129.569 1015.76,-101.508"/>
<polygon fill="midnightblue" stroke="midnightblue" points="850.402,-250.342 845.457,-259.712 855.166,-255.471 850.402,-250.342"/>
</g>
<!-- Node3 -->
<g id="node3" class="node"><title>Node3</title>
<g id="a_node3"><a xlink:href="../../d7/d4e/classmars_1_1interfaces_1_1_control_center.html" target="_top" xlink:title="The declaration of the ControlCenter. ">
<polygon fill="white" stroke="black" points="539.5,-341 539.5,-371 664.5,-371 664.5,-341 539.5,-341"/>
<text text-anchor="start" x="547.5" y="-359" font-family="Helvetica,sans-Serif" font-size="10.00">mars::interfaces::Control</text>
<text text-anchor="middle" x="602" y="-348" font-family="Helvetica,sans-Serif" font-size="10.00">Center</text>
</a>
</g>
</g>
<!-- Node3&#45;&gt;Node2 -->
<g id="edge2" class="edge"><title>Node3&#45;&gt;Node2</title>
<path fill="none" stroke="#9a32cd" stroke-dasharray="5,2" d="M654.108,-337.519C693.793,-323.168 748.135,-303.518 785.236,-290.102"/>
<polygon fill="#9a32cd" stroke="#9a32cd" points="652.822,-334.262 644.608,-340.954 655.202,-340.845 652.822,-334.262"/>
<text text-anchor="middle" x="719" y="-324" font-family="Helvetica,sans-Serif" font-size="10.00"> control</text>
</g>
<!-- Node4 -->
<g id="node4" class="node"><title>Node4</title>
<g id="a_node4"><a xlink:href="../../d1/d93/classmars_1_1interfaces_1_1_graphics_manager_interface.html" target="_top" xlink:title="mars::interfaces::Graphics\lManagerInterface">
<polygon fill="white" stroke="black" points="280,-611 280,-641 412,-641 412,-611 280,-611"/>
<text text-anchor="start" x="288" y="-629" font-family="Helvetica,sans-Serif" font-size="10.00">mars::interfaces::Graphics</text>
<text text-anchor="middle" x="346" y="-618" font-family="Helvetica,sans-Serif" font-size="10.00">ManagerInterface</text>
</a>
</g>
</g>
<!-- Node4&#45;&gt;Node3 -->
<g id="edge3" class="edge"><title>Node4&#45;&gt;Node3</title>
<path fill="none" stroke="#9a32cd" stroke-dasharray="5,2" d="M421.995,-614.16C451.131,-606.332 482.964,-593.382 506,-572 567.702,-514.727 591.56,-410.217 598.571,-371.214"/>
<polygon fill="#9a32cd" stroke="#9a32cd" points="421.074,-610.782 412.235,-616.623 422.787,-617.57 421.074,-610.782"/>
<text text-anchor="middle" x="474" y="-610" font-family="Helvetica,sans-Serif" font-size="10.00"> graphics</text>
</g>
<!-- Node5 -->
<g id="node5" class="node"><title>Node5</title>
<polygon fill="white" stroke="#bfbfbf" points="47,-567.5 47,-586.5 115,-586.5 115,-567.5 47,-567.5"/>
<text text-anchor="middle" x="81" y="-574.5" font-family="Helvetica,sans-Serif" font-size="10.00">LibInterface</text>
</g>
<!-- Node5&#45;&gt;Node4 -->
<g id="edge4" class="edge"><title>Node5&#45;&gt;Node4</title>
<path fill="none" stroke="midnightblue" d="M124.956,-585.003C166.98,-592.833 231.535,-604.86 279.873,-613.866"/>
<polygon fill="midnightblue" stroke="midnightblue" points="125.515,-581.547 115.043,-583.156 124.233,-588.429 125.515,-581.547"/>
</g>
<!-- Node9 -->
<g id="node9" class="node"><title>Node9</title>
<g id="a_node9"><a xlink:href="../../d4/da6/classmars_1_1cfg__manager_1_1_c_f_g_manager_interface.html" target="_top" xlink:title="mars::cfg_manager::\lCFGManagerInterface">
<polygon fill="white" stroke="black" points="289.5,-562 289.5,-592 402.5,-592 402.5,-562 289.5,-562"/>
<text text-anchor="start" x="297.5" y="-580" font-family="Helvetica,sans-Serif" font-size="10.00">mars::cfg_manager::</text>
<text text-anchor="middle" x="346" y="-569" font-family="Helvetica,sans-Serif" font-size="10.00">CFGManagerInterface</text>
</a>
</g>
</g>
<!-- Node5&#45;&gt;Node9 -->
<g id="edge9" class="edge"><title>Node5&#45;&gt;Node9</title>
<path fill="none" stroke="midnightblue" d="M125.318,-577C170.178,-577 240.43,-577 289.371,-577"/>
<polygon fill="midnightblue" stroke="midnightblue" points="125.043,-573.5 115.043,-577 125.043,-580.5 125.043,-573.5"/>
</g>
<!-- Node10 -->
<g id="node10" class="node"><title>Node10</title>
<g id="a_node10"><a xlink:href="../../d6/d2e/classmars_1_1data__broker_1_1_data_broker_interface.html" target="_top" xlink:title="The interface every DataBroker should implement. ">
<polygon fill="white" stroke="black" points="294,-513 294,-543 398,-543 398,-513 294,-513"/>
<text text-anchor="start" x="302" y="-531" font-family="Helvetica,sans-Serif" font-size="10.00">mars::data_broker::</text>
<text text-anchor="middle" x="346" y="-520" font-family="Helvetica,sans-Serif" font-size="10.00">DataBrokerInterface</text>
</a>
</g>
</g>
<!-- Node5&#45;&gt;Node10 -->
<g id="edge11" class="edge"><title>Node5&#45;&gt;Node10</title>
<path fill="none" stroke="midnightblue" d="M125.041,-568.981C171.26,-560.37 244.664,-546.694 293.812,-537.537"/>
<polygon fill="midnightblue" stroke="midnightblue" points="124.233,-565.571 115.043,-570.844 125.515,-572.453 124.233,-565.571"/>
</g>
<!-- Node6 -->
<g id="node6" class="node"><title>Node6</title>
<g id="a_node6"><a xlink:href="../../d2/da9/classmars_1_1interfaces_1_1_controller_manager_interface.html" target="_top" xlink:title="&quot;ControllerManagerInterface&quot; declares the interfaces for all controller operations that are used for ...">
<polygon fill="white" stroke="black" points="278.5,-464 278.5,-494 413.5,-494 413.5,-464 278.5,-464"/>
<text text-anchor="start" x="286.5" y="-482" font-family="Helvetica,sans-Serif" font-size="10.00">mars::interfaces::Controller</text>
<text text-anchor="middle" x="346" y="-471" font-family="Helvetica,sans-Serif" font-size="10.00">ManagerInterface</text>
</a>
</g>
</g>
<!-- Node6&#45;&gt;Node3 -->
<g id="edge5" class="edge"><title>Node6&#45;&gt;Node3</title>
<path fill="none" stroke="#9a32cd" stroke-dasharray="5,2" d="M404.762,-460.796C411.277,-458.58 417.798,-456.288 424,-454 461.014,-440.342 471.244,-438.67 506,-420 533.154,-405.413 562.253,-385.028 580.986,-371.214"/>
<polygon fill="#9a32cd" stroke="#9a32cd" points="403.629,-457.484 395.259,-463.979 405.853,-464.121 403.629,-457.484"/>
<text text-anchor="middle" x="474" y="-451" font-family="Helvetica,sans-Serif" font-size="10.00"> controllers</text>
</g>
<!-- Node7 -->
<g id="node7" class="node"><title>Node7</title>
<g id="a_node7"><a xlink:href="../../d6/d60/classmars_1_1interfaces_1_1_joint_manager_interface.html" target="_top" xlink:title="Interface class for the node organization. ">
<polygon fill="white" stroke="black" points="270,-415 270,-445 422,-445 422,-415 270,-415"/>
<text text-anchor="start" x="278" y="-433" font-family="Helvetica,sans-Serif" font-size="10.00">mars::interfaces::JointManager</text>
<text text-anchor="middle" x="346" y="-422" font-family="Helvetica,sans-Serif" font-size="10.00">Interface</text>
</a>
</g>
</g>
<!-- Node7&#45;&gt;Node3 -->
<g id="edge6" class="edge"><title>Node7&#45;&gt;Node3</title>
<path fill="none" stroke="#9a32cd" stroke-dasharray="5,2" d="M415.119,-412.4C443.336,-404.896 476.339,-395.844 506,-387 522.459,-382.092 540.396,-376.344 556.205,-371.14"/>
<polygon fill="#9a32cd" stroke="#9a32cd" points="414.123,-409.043 405.352,-414.986 415.915,-415.81 414.123,-409.043"/>
<text text-anchor="middle" x="474" y="-408" font-family="Helvetica,sans-Serif" font-size="10.00"> joints</text>
</g>
<!-- Node8 -->
<g id="node8" class="node"><title>Node8</title>
<g id="a_node8"><a xlink:href="../../df/d82/classmars_1_1interfaces_1_1_entity_manager_interface.html" target="_top" xlink:title="mars::interfaces::Entity\lManagerInterface">
<polygon fill="white" stroke="black" points="286.5,-366 286.5,-396 405.5,-396 405.5,-366 286.5,-366"/>
<text text-anchor="start" x="294.5" y="-384" font-family="Helvetica,sans-Serif" font-size="10.00">mars::interfaces::Entity</text>
<text text-anchor="middle" x="346" y="-373" font-family="Helvetica,sans-Serif" font-size="10.00">ManagerInterface</text>
</a>
</g>
</g>
<!-- Node8&#45;&gt;Node3 -->
<g id="edge7" class="edge"><title>Node8&#45;&gt;Node3</title>
<path fill="none" stroke="#9a32cd" stroke-dasharray="5,2" d="M415.681,-374.24C454.185,-370.45 501.824,-365.761 539.16,-362.087"/>
<polygon fill="#9a32cd" stroke="#9a32cd" points="415.201,-370.77 405.592,-375.233 415.886,-377.737 415.201,-370.77"/>
<text text-anchor="middle" x="474" y="-375" font-family="Helvetica,sans-Serif" font-size="10.00"> entities</text>
</g>
<!-- Node9&#45;&gt;Node3 -->
<g id="edge8" class="edge"><title>Node9&#45;&gt;Node3</title>
<path fill="none" stroke="#9a32cd" stroke-dasharray="5,2" d="M412.635,-566.128C443.649,-558.32 479.571,-545.115 506,-523 556.651,-480.617 585.781,-403.895 596.38,-371.306"/>
<polygon fill="#9a32cd" stroke="#9a32cd" points="411.675,-562.759 402.756,-568.478 413.295,-569.569 411.675,-562.759"/>
<text text-anchor="middle" x="474" y="-560" font-family="Helvetica,sans-Serif" font-size="10.00"> cfg</text>
</g>
<!-- Node10&#45;&gt;Node3 -->
<g id="edge10" class="edge"><title>Node10&#45;&gt;Node3</title>
<path fill="none" stroke="#9a32cd" stroke-dasharray="5,2" d="M407.654,-511.503C439.062,-500.997 476.832,-485.141 506,-463 541.814,-435.814 574.475,-393.582 590.538,-371.17"/>
<polygon fill="#9a32cd" stroke="#9a32cd" points="406.56,-508.178 398.127,-514.593 408.719,-514.837 406.56,-508.178"/>
<text text-anchor="middle" x="474" y="-511" font-family="Helvetica,sans-Serif" font-size="10.00"> dataBroker</text>
<text text-anchor="middle" x="474" y="-500" font-family="Helvetica,sans-Serif" font-size="10.00">theDataBroker</text>
</g>
<!-- Node11 -->
<g id="node11" class="node"><title>Node11</title>
<g id="a_node11"><a xlink:href="../../db/da9/classmars_1_1interfaces_1_1_sensor_manager_interface.html" target="_top" xlink:title="&quot;SensorManagerInterface&quot; declares the interfaces for all sensor operations that are used for the comm...">
<polygon fill="white" stroke="black" points="284,-317 284,-347 408,-347 408,-317 284,-317"/>
<text text-anchor="start" x="292" y="-335" font-family="Helvetica,sans-Serif" font-size="10.00">mars::interfaces::Sensor</text>
<text text-anchor="middle" x="346" y="-324" font-family="Helvetica,sans-Serif" font-size="10.00">ManagerInterface</text>
</a>
</g>
</g>
<!-- Node11&#45;&gt;Node3 -->
<g id="edge12" class="edge"><title>Node11&#45;&gt;Node3</title>
<path fill="none" stroke="#9a32cd" stroke-dasharray="5,2" d="M418.18,-338.726C456.345,-342.332 502.906,-346.731 539.488,-350.188"/>
<polygon fill="#9a32cd" stroke="#9a32cd" points="418.447,-335.235 408.163,-337.779 417.789,-342.204 418.447,-335.235"/>
<text text-anchor="middle" x="474" y="-350" font-family="Helvetica,sans-Serif" font-size="10.00"> sensors</text>
</g>
<!-- Node12 -->
<g id="node12" class="node"><title>Node12</title>
<g id="a_node12"><a xlink:href="../../db/de9/classmars_1_1interfaces_1_1_motor_manager_interface.html" target="_top" xlink:title="&quot;MotorManagerInterface&quot; declares the interfaces for all motor operations that are used for the commun...">
<polygon fill="white" stroke="black" points="268.5,-268 268.5,-298 423.5,-298 423.5,-268 268.5,-268"/>
<text text-anchor="start" x="276.5" y="-286" font-family="Helvetica,sans-Serif" font-size="10.00">mars::interfaces::MotorManager</text>
<text text-anchor="middle" x="346" y="-275" font-family="Helvetica,sans-Serif" font-size="10.00">Interface</text>
</a>
</g>
</g>
<!-- Node12&#45;&gt;Node3 -->
<g id="edge13" class="edge"><title>Node12&#45;&gt;Node3</title>
<path fill="none" stroke="#9a32cd" stroke-dasharray="5,2" d="M412.579,-300.731C441.301,-308.604 475.372,-318.089 506,-327 521.068,-331.384 537.427,-336.315 552.256,-340.851"/>
<polygon fill="#9a32cd" stroke="#9a32cd" points="413.226,-297.279 402.657,-298.017 411.379,-304.031 413.226,-297.279"/>
<text text-anchor="middle" x="474" y="-330" font-family="Helvetica,sans-Serif" font-size="10.00"> motors</text>
</g>
<!-- Node13 -->
<g id="node13" class="node"><title>Node13</title>
<g id="a_node13"><a xlink:href="../../d9/d6a/classmars_1_1interfaces_1_1_load_center.html" target="_top" xlink:title="mars::interfaces::LoadCenter">
<polygon fill="white" stroke="black" points="274.5,-229.5 274.5,-248.5 417.5,-248.5 417.5,-229.5 274.5,-229.5"/>
<text text-anchor="middle" x="346" y="-236.5" font-family="Helvetica,sans-Serif" font-size="10.00">mars::interfaces::LoadCenter</text>
</a>
</g>
</g>
<!-- Node13&#45;&gt;Node3 -->
<g id="edge14" class="edge"><title>Node13&#45;&gt;Node3</title>
<path fill="none" stroke="#9a32cd" stroke-dasharray="5,2" d="M401.657,-251.177C409.226,-253.243 416.852,-255.528 424,-258 461.788,-271.066 470.861,-275.925 506,-295 532.011,-309.12 560.389,-327.806 579.292,-340.758"/>
<polygon fill="#9a32cd" stroke="#9a32cd" points="402.345,-247.739 391.784,-248.591 400.571,-254.511 402.345,-247.739"/>
<text text-anchor="middle" x="474" y="-298" font-family="Helvetica,sans-Serif" font-size="10.00"> loadCenter</text>
</g>
<!-- Node14 -->
<g id="node14" class="node"><title>Node14</title>
<g id="a_node14"><a xlink:href="../../d1/d51/classmars_1_1interfaces_1_1_load_heightmap_interface.html" target="_top" xlink:title="mars::interfaces::LoadHeightmap\lInterface">
<polygon fill="white" stroke="black" points="0.5,-248 0.5,-278 161.5,-278 161.5,-248 0.5,-248"/>
<text text-anchor="start" x="8.5" y="-266" font-family="Helvetica,sans-Serif" font-size="10.00">mars::interfaces::LoadHeightmap</text>
<text text-anchor="middle" x="81" y="-255" font-family="Helvetica,sans-Serif" font-size="10.00">Interface</text>
</a>
</g>
</g>
<!-- Node14&#45;&gt;Node13 -->
<g id="edge15" class="edge"><title>Node14&#45;&gt;Node13</title>
<path fill="none" stroke="#9a32cd" stroke-dasharray="5,2" d="M171.85,-254.801C205.256,-251.752 242.661,-248.339 274.133,-245.467"/>
<polygon fill="#9a32cd" stroke="#9a32cd" points="171.263,-251.34 161.622,-255.734 171.899,-258.311 171.263,-251.34"/>
<text text-anchor="middle" x="215" y="-257" font-family="Helvetica,sans-Serif" font-size="10.00"> loadHeightmap</text>
</g>
<!-- Node15 -->
<g id="node15" class="node"><title>Node15</title>
<g id="a_node15"><a xlink:href="../../d7/d02/classmars_1_1interfaces_1_1_load_mesh_interface.html" target="_top" xlink:title="mars::interfaces::LoadMesh\lInterface">
<polygon fill="white" stroke="black" points="12,-199 12,-229 150,-229 150,-199 12,-199"/>
<text text-anchor="start" x="20" y="-217" font-family="Helvetica,sans-Serif" font-size="10.00">mars::interfaces::LoadMesh</text>
<text text-anchor="middle" x="81" y="-206" font-family="Helvetica,sans-Serif" font-size="10.00">Interface</text>
</a>
</g>
</g>
<!-- Node15&#45;&gt;Node13 -->
<g id="edge16" class="edge"><title>Node15&#45;&gt;Node13</title>
<path fill="none" stroke="#9a32cd" stroke-dasharray="5,2" d="M160.116,-221.426C196.387,-224.873 239.183,-228.941 274.462,-232.295"/>
<polygon fill="#9a32cd" stroke="#9a32cd" points="160.357,-217.933 150.071,-220.471 159.695,-224.901 160.357,-217.933"/>
<text text-anchor="middle" x="215" y="-233" font-family="Helvetica,sans-Serif" font-size="10.00"> loadMesh</text>
</g>
<!-- Node16 -->
<g id="node16" class="node"><title>Node16</title>
<g id="a_node16"><a xlink:href="../../d7/d4c/classmars_1_1interfaces_1_1_node_manager_interface.html" target="_top" xlink:title="&quot;NodeManagerInterface&quot; declares the interfaces for all NodeOperations that are used for the communica...">
<polygon fill="white" stroke="black" points="269,-180 269,-210 423,-210 423,-180 269,-180"/>
<text text-anchor="start" x="277" y="-198" font-family="Helvetica,sans-Serif" font-size="10.00">mars::interfaces::NodeManager</text>
<text text-anchor="middle" x="346" y="-187" font-family="Helvetica,sans-Serif" font-size="10.00">Interface</text>
</a>
</g>
</g>
<!-- Node16&#45;&gt;Node3 -->
<g id="edge17" class="edge"><title>Node16&#45;&gt;Node3</title>
<path fill="none" stroke="#9a32cd" stroke-dasharray="5,2" d="M423.271,-213.049C450.832,-221.776 481.233,-234.114 506,-251 542.764,-276.065 575.031,-318.175 590.782,-340.698"/>
<polygon fill="#9a32cd" stroke="#9a32cd" points="424.24,-209.686 413.654,-210.112 422.195,-216.381 424.24,-209.686"/>
<text text-anchor="middle" x="474" y="-254" font-family="Helvetica,sans-Serif" font-size="10.00"> nodes</text>
</g>
<!-- Node17 -->
<g id="node17" class="node"><title>Node17</title>
<g id="a_node17"><a xlink:href="../../dc/de5/classmars_1_1interfaces_1_1_simulator_interface.html" target="_top" xlink:title="mars::interfaces::Simulator\lInterface">
<polygon fill="white" stroke="black" points="279,-131 279,-161 413,-161 413,-131 279,-131"/>
<text text-anchor="start" x="287" y="-149" font-family="Helvetica,sans-Serif" font-size="10.00">mars::interfaces::Simulator</text>
<text text-anchor="middle" x="346" y="-138" font-family="Helvetica,sans-Serif" font-size="10.00">Interface</text>
</a>
</g>
</g>
<!-- Node17&#45;&gt;Node3 -->
<g id="edge18" class="edge"><title>Node17&#45;&gt;Node3</title>
<path fill="none" stroke="#9a32cd" stroke-dasharray="5,2" d="M423.088,-162.895C451.472,-172.057 482.482,-185.787 506,-206 551.352,-244.978 582.524,-311.022 594.963,-340.726"/>
<polygon fill="#9a32cd" stroke="#9a32cd" points="423.761,-159.44 413.174,-159.841 421.701,-166.13 423.761,-159.44"/>
<text text-anchor="middle" x="474" y="-209" font-family="Helvetica,sans-Serif" font-size="10.00"> sim</text>
</g>
<!-- Node18 -->
<g id="node18" class="node"><title>Node18</title>
<g id="a_node18"><a xlink:href="../../df/d91/classmars_1_1interfaces_1_1_base_grid_intersection_sensor.html" target="_top" xlink:title="mars::interfaces::BaseGrid\lIntersectionSensor">
<polygon fill="white" stroke="black" points="761,-126 761,-156 895,-156 895,-126 761,-126"/>
<text text-anchor="start" x="769" y="-144" font-family="Helvetica,sans-Serif" font-size="10.00">mars::interfaces::BaseGrid</text>
<text text-anchor="middle" x="828" y="-133" font-family="Helvetica,sans-Serif" font-size="10.00">IntersectionSensor</text>
</a>
</g>
</g>
<!-- Node18&#45;&gt;Node1 -->
<g id="edge19" class="edge"><title>Node18&#45;&gt;Node1</title>
<path fill="none" stroke="midnightblue" d="M899.376,-123.495C929.134,-116.093 962.631,-107.762 987.694,-101.528"/>
<polygon fill="midnightblue" stroke="midnightblue" points="898.305,-120.155 889.445,-125.965 899.994,-126.948 898.305,-120.155"/>
</g>
<!-- Node19 -->
<g id="node19" class="node"><title>Node19</title>
<g id="a_node19"><a xlink:href="../../da/d0c/classmars_1_1interfaces_1_1_base_node_sensor.html" target="_top" xlink:title="mars::interfaces::BaseNode\lSensor">
<polygon fill="white" stroke="black" points="532.5,-126 532.5,-156 671.5,-156 671.5,-126 532.5,-126"/>
<text text-anchor="start" x="540.5" y="-144" font-family="Helvetica,sans-Serif" font-size="10.00">mars::interfaces::BaseNode</text>
<text text-anchor="middle" x="602" y="-133" font-family="Helvetica,sans-Serif" font-size="10.00">Sensor</text>
</a>
</g>
</g>
<!-- Node19&#45;&gt;Node18 -->
<g id="edge20" class="edge"><title>Node19&#45;&gt;Node18</title>
<path fill="none" stroke="midnightblue" d="M681.841,-141C707.611,-141 735.955,-141 760.704,-141"/>
<polygon fill="midnightblue" stroke="midnightblue" points="681.73,-137.5 671.73,-141 681.73,-144.5 681.73,-137.5"/>
</g>
<!-- Node20 -->
<g id="node20" class="node"><title>Node20</title>
<g id="a_node20"><a xlink:href="../../da/d73/classmars_1_1interfaces_1_1_base_sensor.html" target="_top" xlink:title="mars::interfaces::BaseSensor">
<polygon fill="white" stroke="black" points="273,-92.5 273,-111.5 419,-111.5 419,-92.5 273,-92.5"/>
<text text-anchor="middle" x="346" y="-99.5" font-family="Helvetica,sans-Serif" font-size="10.00">mars::interfaces::BaseSensor</text>
</a>
</g>
</g>
<!-- Node20&#45;&gt;Node19 -->
<g id="edge21" class="edge"><title>Node20&#45;&gt;Node19</title>
<path fill="none" stroke="midnightblue" d="M429.184,-112.74C453.907,-116.141 481.084,-120.049 506,-124 514.522,-125.352 523.46,-126.847 532.302,-128.375"/>
<polygon fill="midnightblue" stroke="midnightblue" points="429.499,-109.25 419.117,-111.364 428.551,-116.186 429.499,-109.25"/>
</g>
<!-- Node21 -->
<g id="node21" class="node"><title>Node21</title>
<polygon fill="white" stroke="#bfbfbf" points="60.5,-92.5 60.5,-111.5 101.5,-111.5 101.5,-92.5 60.5,-92.5"/>
<text text-anchor="middle" x="81" y="-99.5" font-family="Helvetica,sans-Serif" font-size="10.00">string</text>
</g>
<!-- Node21&#45;&gt;Node20 -->
<g id="edge22" class="edge"><title>Node21&#45;&gt;Node20</title>
<path fill="none" stroke="#9a32cd" stroke-dasharray="5,2" d="M111.888,-102C150.756,-102 219.93,-102 272.862,-102"/>
<polygon fill="#9a32cd" stroke="#9a32cd" points="111.768,-98.5001 101.768,-102 111.768,-105.5 111.768,-98.5001"/>
<text text-anchor="middle" x="215" y="-105" font-family="Helvetica,sans-Serif" font-size="10.00"> name</text>
</g>
<!-- Node22 -->
<g id="node22" class="node"><title>Node22</title>
<g id="a_node22"><a xlink:href="../../da/da3/classmars_1_1interfaces_1_1_base_array_sensor.html" target="_top" xlink:title="mars::interfaces::BaseArray\lSensor\&lt; double \&gt;">
<polygon fill="white" stroke="black" points="532.5,-77 532.5,-107 671.5,-107 671.5,-77 532.5,-77"/>
<text text-anchor="start" x="540.5" y="-95" font-family="Helvetica,sans-Serif" font-size="10.00">mars::interfaces::BaseArray</text>
<text text-anchor="middle" x="602" y="-84" font-family="Helvetica,sans-Serif" font-size="10.00">Sensor&lt; double &gt;</text>
</a>
</g>
</g>
<!-- Node22&#45;&gt;Node18 -->
<g id="edge23" class="edge"><title>Node22&#45;&gt;Node18</title>
<path fill="none" stroke="midnightblue" d="M681.499,-109.172C707.36,-114.829 735.845,-121.06 760.704,-126.498"/>
<polygon fill="midnightblue" stroke="midnightblue" points="682.247,-105.753 671.73,-107.035 680.751,-112.591 682.247,-105.753"/>
</g>
<!-- Node23 -->
<g id="node23" class="node"><title>Node23</title>
<g id="a_node23"><a xlink:href="../../d0/d0e/classmars_1_1data__broker_1_1_receiver_interface.html" target="_top" xlink:title="Interface for classes that want to receive data from the DataBroker. ">
<polygon fill="white" stroke="black" points="777.5,-77 777.5,-107 878.5,-107 878.5,-77 777.5,-77"/>
<text text-anchor="start" x="785.5" y="-95" font-family="Helvetica,sans-Serif" font-size="10.00">mars::data_broker::</text>
<text text-anchor="middle" x="828" y="-84" font-family="Helvetica,sans-Serif" font-size="10.00">ReceiverInterface</text>
</a>
</g>
</g>
<!-- Node23&#45;&gt;Node1 -->
<g id="edge24" class="edge"><title>Node23&#45;&gt;Node1</title>
<path fill="none" stroke="midnightblue" d="M888.836,-92C911.411,-92 937.207,-92 960.291,-92"/>
<polygon fill="midnightblue" stroke="midnightblue" points="888.711,-88.5001 878.711,-92 888.711,-95.5001 888.711,-88.5001"/>
</g>
<!-- Node24 -->
<g id="node24" class="node"><title>Node24</title>
<g id="a_node24"><a xlink:href="../../de/ded/classmars_1_1interfaces_1_1_draw_interface.html" target="_top" xlink:title="The interface DrawInterface is used for updating draw_item structs via an update function. ">
<polygon fill="white" stroke="black" points="524.5,-22.5 524.5,-41.5 679.5,-41.5 679.5,-22.5 524.5,-22.5"/>
<text text-anchor="middle" x="602" y="-29.5" font-family="Helvetica,sans-Serif" font-size="10.00">mars::interfaces::DrawInterface</text>
</a>
</g>
</g>
<!-- Node24&#45;&gt;Node1 -->
<g id="edge25" class="edge"><title>Node24&#45;&gt;Node1</title>
<path fill="none" stroke="midnightblue" d="M689.628,-40.5546C748.536,-46.794 828.16,-56.0523 898,-67 925.849,-71.3655 956.885,-77.3977 981.421,-82.443"/>
<polygon fill="midnightblue" stroke="midnightblue" points="689.93,-37.0671 679.618,-39.5023 689.198,-44.0287 689.93,-37.0671"/>
</g>
<!-- Node25 -->
<g id="node25" class="node"><title>Node25</title>
<g id="a_node25"><a xlink:href="../../db/d56/structmars_1_1interfaces_1_1draw_struct.html" target="_top" xlink:title="drawStruct connects a vector of draw_item objects with their update interface DrawInterface ...">
<polygon fill="white" stroke="black" points="758,-0.5 758,-19.5 898,-19.5 898,-0.5 758,-0.5"/>
<text text-anchor="middle" x="828" y="-7.5" font-family="Helvetica,sans-Serif" font-size="10.00">mars::interfaces::drawStruct</text>
</a>
</g>
</g>
<!-- Node24&#45;&gt;Node25 -->
<g id="edge27" class="edge"><title>Node24&#45;&gt;Node25</title>
<path fill="none" stroke="#9a32cd" stroke-dasharray="5,2" d="M689.995,-23.4559C712.485,-21.247 736.394,-18.8988 757.836,-16.7929"/>
<polygon fill="#9a32cd" stroke="#9a32cd" points="689.385,-19.9989 679.775,-24.4596 690.069,-26.9653 689.385,-19.9989"/>
<text text-anchor="middle" x="719" y="-26" font-family="Helvetica,sans-Serif" font-size="10.00"> ptr_draw</text>
</g>
<!-- Node25&#45;&gt;Node1 -->
<g id="edge26" class="edge"><title>Node25&#45;&gt;Node1</title>
<path fill="none" stroke="#9a32cd" stroke-dasharray="5,2" d="M908.299,-13.2743C919.886,-15.4144 931.454,-18.5275 942,-23 974.317,-36.7055 1004.02,-66.9198 1017.84,-82.4185"/>
<polygon fill="#9a32cd" stroke="#9a32cd" points="908.568,-9.77247 898.138,-11.6343 907.453,-16.683 908.568,-9.77247"/>
<text text-anchor="middle" x="929" y="-26" font-family="Helvetica,sans-Serif" font-size="10.00"> draw</text>
</g>
</g>
</svg>
