<?xml version="1.0" encoding="UTF-8" standalone="no"?>
<!DOCTYPE svg PUBLIC "-//W3C//DTD SVG 1.1//EN"
 "http://www.w3.org/Graphics/SVG/1.1/DTD/svg11.dtd">
<!-- Generated by graphviz version 2.36.0 (20140111.2315)
 -->
<!-- Title: /media/kavonszadkowski/work/marsdocs/mars/sim/src/core/EntityManager.h Pages: 1 -->
<svg width="716pt" height="118pt"
 viewBox="0.00 0.00 716.00 118.00" xmlns="http://www.w3.org/2000/svg" xmlns:xlink="http://www.w3.org/1999/xlink">
<g id="graph0" class="graph" transform="scale(1 1) rotate(0) translate(4 114)">
<title>/media/kavonszadkowski/work/marsdocs/mars/sim/src/core/EntityManager.h</title>
<polygon fill="white" stroke="none" points="-4,4 -4,-114 712,-114 712,4 -4,4"/>
<!-- Node1 -->
<g id="node1" class="node"><title>Node1</title>
<polygon fill="#bfbfbf" stroke="black" points="243,-68.5 243,-109.5 373,-109.5 373,-68.5 243,-68.5"/>
<text text-anchor="start" x="251" y="-97.5" font-family="Helvetica,sans-Serif" font-size="10.00">/media/kavonszadkowski</text>
<text text-anchor="start" x="251" y="-86.5" font-family="Helvetica,sans-Serif" font-size="10.00">/work/marsdocs/mars/sim</text>
<text text-anchor="middle" x="308" y="-75.5" font-family="Helvetica,sans-Serif" font-size="10.00">/src/core/EntityManager.h</text>
</g>
<!-- Node2 -->
<g id="node2" class="node"><title>Node2</title>
<polygon fill="white" stroke="#bfbfbf" points="-0.5,-6.5 -0.5,-25.5 34.5,-25.5 34.5,-6.5 -0.5,-6.5"/>
<text text-anchor="middle" x="17" y="-13.5" font-family="Helvetica,sans-Serif" font-size="10.00">map</text>
</g>
<!-- Node1&#45;&gt;Node2 -->
<g id="edge1" class="edge"><title>Node1&#45;&gt;Node2</title>
<path fill="none" stroke="midnightblue" d="M242.929,-80.0833C188.262,-72.0682 108.759,-57.1857 43,-32 41.7682,-31.5282 40.5257,-31.0031 39.2869,-30.4397"/>
<polygon fill="midnightblue" stroke="midnightblue" points="40.5767,-27.1644 30.0942,-25.6257 37.3293,-33.3655 40.5767,-27.1644"/>
</g>
<!-- Node3 -->
<g id="node3" class="node"><title>Node3</title>
<polygon fill="white" stroke="#bfbfbf" points="52.5,-1 52.5,-31 155.5,-31 155.5,-1 52.5,-1"/>
<text text-anchor="start" x="60.5" y="-19" font-family="Helvetica,sans-Serif" font-size="10.00">mars/interfaces/sim</text>
<text text-anchor="middle" x="104" y="-8" font-family="Helvetica,sans-Serif" font-size="10.00">/ControlCenter.h</text>
</g>
<!-- Node1&#45;&gt;Node3 -->
<g id="edge2" class="edge"><title>Node1&#45;&gt;Node3</title>
<path fill="none" stroke="midnightblue" d="M251.716,-68.411C221.094,-57.7534 183.542,-44.6836 153.963,-34.3891"/>
<polygon fill="midnightblue" stroke="midnightblue" points="154.854,-30.9933 144.259,-31.0117 152.553,-37.6043 154.854,-30.9933"/>
</g>
<!-- Node4 -->
<g id="node4" class="node"><title>Node4</title>
<polygon fill="white" stroke="#bfbfbf" points="174,-1 174,-31 298,-31 298,-1 174,-1"/>
<text text-anchor="start" x="182" y="-19" font-family="Helvetica,sans-Serif" font-size="10.00">mars/interfaces/graphics</text>
<text text-anchor="middle" x="236" y="-8" font-family="Helvetica,sans-Serif" font-size="10.00">/GraphicsEventClient.h</text>
</g>
<!-- Node1&#45;&gt;Node4 -->
<g id="edge3" class="edge"><title>Node1&#45;&gt;Node4</title>
<path fill="none" stroke="midnightblue" d="M287.944,-68.2225C278.488,-58.898 267.193,-47.76 257.555,-38.2552"/>
<polygon fill="midnightblue" stroke="midnightblue" points="259.824,-35.5779 250.246,-31.0485 254.909,-40.5621 259.824,-35.5779"/>
</g>
<!-- Node5 -->
<g id="node5" class="node"><title>Node5</title>
<polygon fill="white" stroke="#bfbfbf" points="316.5,-1 316.5,-31 445.5,-31 445.5,-1 316.5,-1"/>
<text text-anchor="start" x="324.5" y="-19" font-family="Helvetica,sans-Serif" font-size="10.00">mars/interfaces/sim</text>
<text text-anchor="middle" x="381" y="-8" font-family="Helvetica,sans-Serif" font-size="10.00">/EntityManagerInterface.h</text>
</g>
<!-- Node1&#45;&gt;Node5 -->
<g id="edge4" class="edge"><title>Node1&#45;&gt;Node5</title>
<path fill="none" stroke="midnightblue" d="M328.335,-68.2225C337.922,-58.898 349.374,-47.76 359.146,-38.2552"/>
<polygon fill="midnightblue" stroke="midnightblue" points="361.827,-40.5298 366.556,-31.0485 356.947,-35.5117 361.827,-40.5298"/>
</g>
<!-- Node6 -->
<g id="node6" class="node"><title>Node6</title>
<polygon fill="white" stroke="#bfbfbf" points="464,-6.5 464,-25.5 562,-25.5 562,-6.5 464,-6.5"/>
<text text-anchor="middle" x="513" y="-13.5" font-family="Helvetica,sans-Serif" font-size="10.00">mars/utils/Mutex.h</text>
</g>
<!-- Node1&#45;&gt;Node6 -->
<g id="edge5" class="edge"><title>Node1&#45;&gt;Node6</title>
<path fill="none" stroke="midnightblue" d="M364.56,-68.411C401.24,-55.7071 447.817,-39.5756 478.922,-28.8027"/>
<polygon fill="midnightblue" stroke="midnightblue" points="480.141,-32.0845 488.445,-25.5045 477.85,-25.47 480.141,-32.0845"/>
</g>
<!-- Node7 -->
<g id="node7" class="node"><title>Node7</title>
<polygon fill="white" stroke="#bfbfbf" points="580,-6.5 580,-25.5 708,-25.5 708,-6.5 580,-6.5"/>
<text text-anchor="middle" x="644" y="-13.5" font-family="Helvetica,sans-Serif" font-size="10.00">configmaps/ConfigData.h</text>
</g>
<!-- Node1&#45;&gt;Node7 -->
<g id="edge6" class="edge"><title>Node1&#45;&gt;Node7</title>
<path fill="none" stroke="midnightblue" d="M373.183,-74.2263C437.587,-60.617 534.748,-40.086 593.502,-27.6706"/>
<polygon fill="midnightblue" stroke="midnightblue" points="594.24,-31.0922 603.3,-25.6003 592.792,-24.2434 594.24,-31.0922"/>
</g>
</g>
</svg>
