<?xml version="1.0" encoding="UTF-8" standalone="no"?>
<!DOCTYPE svg PUBLIC "-//W3C//DTD SVG 1.1//EN"
 "http://www.w3.org/Graphics/SVG/1.1/DTD/svg11.dtd">
<!-- Generated by graphviz version 2.26.3 (20100126.1600)
 -->
<!-- Title: /home/kavonszadkowski/limes&#45;dev/simulation/mars/graphics/src/2d_objects/HUDTexture.h Pages: 1 -->
<svg width="510pt" height="168pt"
 viewBox="0.00 0.00 510.00 168.00" xmlns="http://www.w3.org/2000/svg" xmlns:xlink="http://www.w3.org/1999/xlink">
<g id="graph1" class="graph" transform="scale(1 1) rotate(0) translate(4 164)">
<title>/home/kavonszadkowski/limes&#45;dev/simulation/mars/graphics/src/2d_objects/HUDTexture.h</title>
<polygon fill="white" stroke="white" points="-4,5 -4,-164 507,-164 507,5 -4,5"/>
<!-- Node1 -->
<g id="node1" class="node"><title>Node1</title>
<polygon fill="#bfbfbf" stroke="black" points="183.5,-99 183.5,-159 308.5,-159 308.5,-99 183.5,-99"/>
<text text-anchor="start" x="191.5" y="-146" font-family="Helvetica,sans-Serif" font-size="10.00">/home/kavonszadkowski</text>
<text text-anchor="start" x="191.5" y="-133" font-family="Helvetica,sans-Serif" font-size="10.00">/limes&#45;dev/simulation</text>
<text text-anchor="start" x="191.5" y="-120" font-family="Helvetica,sans-Serif" font-size="10.00">/mars/graphics/src/2d</text>
<text text-anchor="middle" x="246" y="-107" font-family="Helvetica,sans-Serif" font-size="10.00">_objects/HUDTexture.h</text>
</g>
<!-- Node2 -->
<g id="node3" class="node"><title>Node2</title>
<a xlink:href="../../de/d75/_h_u_d_texture_8cpp.html" target="_top" xlink:title="/home/kavonszadkowski\l/limes&#45;dev/simulation\l/mars/graphics/src/2d\l_objects/HUDTexture.cpp">
<polygon fill="white" stroke="black" points="-0.5,-1 -0.5,-61 130.5,-61 130.5,-1 -0.5,-1"/>
<text text-anchor="start" x="7.5" y="-48" font-family="Helvetica,sans-Serif" font-size="10.00">/home/kavonszadkowski</text>
<text text-anchor="start" x="7.5" y="-35" font-family="Helvetica,sans-Serif" font-size="10.00">/limes&#45;dev/simulation</text>
<text text-anchor="start" x="7.5" y="-22" font-family="Helvetica,sans-Serif" font-size="10.00">/mars/graphics/src/2d</text>
<text text-anchor="middle" x="65" y="-9" font-family="Helvetica,sans-Serif" font-size="10.00">_objects/HUDTexture.cpp</text>
</a>
</g>
<!-- Node1&#45;&gt;Node2 -->
<g id="edge2" class="edge"><title>Node1&#45;&gt;Node2</title>
<path fill="none" stroke="midnightblue" d="M181.245,-93.939C161.407,-83.1982 139.769,-71.4827 120.599,-61.1032"/>
<polygon fill="midnightblue" stroke="midnightblue" points="179.757,-97.1136 190.217,-98.7971 183.09,-90.958 179.757,-97.1136"/>
</g>
<!-- Node3 -->
<g id="node5" class="node"><title>Node3</title>
<a xlink:href="../../d7/d19/_graphics_manager_8cpp.html" target="_top" xlink:title="/home/kavonszadkowski\l/limes&#45;dev/simulation\l/mars/graphics/src/GraphicsManager.cpp">
<polygon fill="white" stroke="black" points="148,-7.5 148,-54.5 344,-54.5 344,-7.5 148,-7.5"/>
<text text-anchor="start" x="156" y="-41.5" font-family="Helvetica,sans-Serif" font-size="10.00">/home/kavonszadkowski</text>
<text text-anchor="start" x="156" y="-28.5" font-family="Helvetica,sans-Serif" font-size="10.00">/limes&#45;dev/simulation</text>
<text text-anchor="middle" x="246" y="-15.5" font-family="Helvetica,sans-Serif" font-size="10.00">/mars/graphics/src/GraphicsManager.cpp</text>
</a>
</g>
<!-- Node1&#45;&gt;Node3 -->
<g id="edge4" class="edge"><title>Node1&#45;&gt;Node3</title>
<path fill="none" stroke="midnightblue" d="M246,-88.5002C246,-77.0087 246,-64.8739 246,-54.7289"/>
<polygon fill="midnightblue" stroke="midnightblue" points="242.5,-88.7971 246,-98.7971 249.5,-88.7972 242.5,-88.7971"/>
</g>
<!-- Node4 -->
<g id="node7" class="node"><title>Node4</title>
<a xlink:href="../../d5/da7/_o_s_g_hud_element_struct_8cpp.html" target="_top" xlink:title="/home/kavonszadkowski\l/limes&#45;dev/simulation\l/mars/graphics/src/wrapper\l/OSGHudElementStruct.cpp">
<polygon fill="white" stroke="black" points="362,-1 362,-61 502,-61 502,-1 362,-1"/>
<text text-anchor="start" x="370" y="-48" font-family="Helvetica,sans-Serif" font-size="10.00">/home/kavonszadkowski</text>
<text text-anchor="start" x="370" y="-35" font-family="Helvetica,sans-Serif" font-size="10.00">/limes&#45;dev/simulation</text>
<text text-anchor="start" x="370" y="-22" font-family="Helvetica,sans-Serif" font-size="10.00">/mars/graphics/src/wrapper</text>
<text text-anchor="middle" x="432" y="-9" font-family="Helvetica,sans-Serif" font-size="10.00">/OSGHudElementStruct.cpp</text>
</a>
</g>
<!-- Node1&#45;&gt;Node4 -->
<g id="edge6" class="edge"><title>Node1&#45;&gt;Node4</title>
<path fill="none" stroke="midnightblue" d="M312.064,-94.1923C332.639,-83.3513 355.14,-71.496 375.038,-61.0124"/>
<polygon fill="midnightblue" stroke="midnightblue" points="310.286,-91.1728 303.07,-98.9308 313.549,-97.3658 310.286,-91.1728"/>
</g>
</g>
</svg>
