<?xml version="1.0" encoding="UTF-8" standalone="no"?>
<!DOCTYPE svg PUBLIC "-//W3C//DTD SVG 1.1//EN"
 "http://www.w3.org/Graphics/SVG/1.1/DTD/svg11.dtd">
<!-- Generated by graphviz version 2.26.3 (20100126.1600)
 -->
<!-- Title: /home/kavonszadkowski/limes&#45;dev/simulation/mars/interfaces/src/sim/SimulatorInterface.h Pages: 1 -->
<svg width="1062pt" height="302pt"
 viewBox="0.00 0.00 1062.00 302.00" xmlns="http://www.w3.org/2000/svg" xmlns:xlink="http://www.w3.org/1999/xlink">
<g id="graph1" class="graph" transform="scale(1 1) rotate(0) translate(4 298)">
<title>/home/kavonszadkowski/limes&#45;dev/simulation/mars/interfaces/src/sim/SimulatorInterface.h</title>
<polygon fill="white" stroke="white" points="-4,5 -4,-298 1059,-298 1059,5 -4,5"/>
<!-- Node1 -->
<g id="node1" class="node"><title>Node1</title>
<polygon fill="#bfbfbf" stroke="black" points="437.5,-233 437.5,-293 562.5,-293 562.5,-233 437.5,-233"/>
<text text-anchor="start" x="445.5" y="-280" font-family="Helvetica,sans-Serif" font-size="10.00">/home/kavonszadkowski</text>
<text text-anchor="start" x="445.5" y="-267" font-family="Helvetica,sans-Serif" font-size="10.00">/limes&#45;dev/simulation</text>
<text text-anchor="start" x="445.5" y="-254" font-family="Helvetica,sans-Serif" font-size="10.00">/mars/interfaces/src/sim</text>
<text text-anchor="middle" x="500" y="-241" font-family="Helvetica,sans-Serif" font-size="10.00">/SimulatorInterface.h</text>
</g>
<!-- Node2 -->
<g id="node3" class="node"><title>Node2</title>
<a xlink:href="../../d7/dec/_physics_interface_8h.html" target="_top" xlink:title="&quot;PhysicsInterface&quot; includes the methods to handle the physically world. ">
<polygon fill="white" stroke="black" points="0,-116.5 0,-137.5 98,-137.5 98,-116.5 0,-116.5"/>
<text text-anchor="middle" x="49" y="-124.5" font-family="Helvetica,sans-Serif" font-size="10.00">PhysicsInterface.h</text>
</a>
</g>
<!-- Node1&#45;&gt;Node2 -->
<g id="edge2" class="edge"><title>Node1&#45;&gt;Node2</title>
<path fill="none" stroke="midnightblue" d="M437.29,-244.09C344.911,-216.233 174.485,-164.84 93.7094,-140.482"/>
<polygon fill="midnightblue" stroke="midnightblue" points="94.435,-137.045 83.8503,-137.509 92.4139,-143.747 94.435,-137.045"/>
</g>
<!-- Node6 -->
<g id="node11" class="node"><title>Node6</title>
<a xlink:href="../../d4/d1e/_plugin_interface_8h.html" target="_top" xlink:title="&quot;PluginInterface&quot; is an interface to load dynamically Plugin into the simulation ">
<polygon fill="white" stroke="black" points="882,-116.5 882,-137.5 972,-137.5 972,-116.5 882,-116.5"/>
<text text-anchor="middle" x="927" y="-124.5" font-family="Helvetica,sans-Serif" font-size="10.00">PluginInterface.h</text>
</a>
</g>
<!-- Node1&#45;&gt;Node6 -->
<g id="edge10" class="edge"><title>Node1&#45;&gt;Node6</title>
<path fill="none" stroke="midnightblue" d="M562.547,-243.079C650.559,-215.047 808.643,-164.697 884.335,-140.589"/>
<polygon fill="midnightblue" stroke="midnightblue" points="885.553,-143.874 894.019,-137.505 883.428,-137.204 885.553,-143.874"/>
</g>
<!-- Node9 -->
<g id="node17" class="node"><title>Node9</title>
<a xlink:href="../../dc/d3b/sim__common_8h.html" target="_top" xlink:title="../sim_common.h">
<polygon fill="white" stroke="black" points="454,-174.5 454,-195.5 546,-195.5 546,-174.5 454,-174.5"/>
<text text-anchor="middle" x="500" y="-182.5" font-family="Helvetica,sans-Serif" font-size="10.00">../sim_common.h</text>
</a>
</g>
<!-- Node1&#45;&gt;Node9 -->
<g id="edge16" class="edge"><title>Node1&#45;&gt;Node9</title>
<path fill="none" stroke="midnightblue" d="M500,-232.62C500,-223.68 500,-214.103 500,-205.9"/>
<polygon fill="midnightblue" stroke="midnightblue" points="503.5,-205.753 500,-195.753 496.5,-205.753 503.5,-205.753"/>
</g>
<!-- Node15 -->
<g id="node36" class="node"><title>Node15</title>
<a xlink:href="../../d4/d78/draw__structs_8h.html" target="_top" xlink:title="../graphics/draw_structs.h">
<polygon fill="white" stroke="black" points="342,-116.5 342,-137.5 472,-137.5 472,-116.5 342,-116.5"/>
<text text-anchor="middle" x="407" y="-124.5" font-family="Helvetica,sans-Serif" font-size="10.00">../graphics/draw_structs.h</text>
</a>
</g>
<!-- Node1&#45;&gt;Node15 -->
<g id="edge42" class="edge"><title>Node1&#45;&gt;Node15</title>
<path fill="none" stroke="midnightblue" d="M473.303,-232.898C463.883,-221.668 453.524,-208.584 445,-196 434.261,-180.147 423.902,-160.994 416.72,-146.894"/>
<polygon fill="midnightblue" stroke="midnightblue" points="419.694,-145.017 412.091,-137.639 413.434,-148.148 419.694,-145.017"/>
</g>
<!-- Node17 -->
<g id="node47" class="node"><title>Node17</title>
<a xlink:href="../../da/d1b/_light_data_8h.html" target="_top" xlink:title="../LightData.h">
<polygon fill="white" stroke="black" points="788,-116.5 788,-137.5 864,-137.5 864,-116.5 788,-116.5"/>
<text text-anchor="middle" x="826" y="-124.5" font-family="Helvetica,sans-Serif" font-size="10.00">../LightData.h</text>
</a>
</g>
<!-- Node1&#45;&gt;Node17 -->
<g id="edge60" class="edge"><title>Node1&#45;&gt;Node17</title>
<path fill="none" stroke="midnightblue" d="M562.856,-236.778C630.787,-208.439 736.605,-164.293 791.043,-141.583"/>
<polygon fill="midnightblue" stroke="midnightblue" points="792.707,-144.681 800.589,-137.601 790.012,-138.221 792.707,-144.681"/>
</g>
<!-- Node3 -->
<g id="node5" class="node"><title>Node3</title>
<a xlink:href="../../dd/d9e/_m_a_r_s_defs_8h.html" target="_top" xlink:title="../MARSDefs.h">
<polygon fill="white" stroke="black" points="159,-58.5 159,-79.5 243,-79.5 243,-58.5 159,-58.5"/>
<text text-anchor="middle" x="201" y="-66.5" font-family="Helvetica,sans-Serif" font-size="10.00">../MARSDefs.h</text>
</a>
</g>
<!-- Node2&#45;&gt;Node3 -->
<g id="edge4" class="edge"><title>Node2&#45;&gt;Node3</title>
<path fill="none" stroke="midnightblue" d="M76.5261,-116.497C100.984,-107.164 136.938,-93.4447 163.924,-83.1475"/>
<polygon fill="midnightblue" stroke="midnightblue" points="165.327,-86.3582 173.422,-79.5231 162.832,-79.8182 165.327,-86.3582"/>
</g>
<!-- Node4 -->
<g id="node7" class="node"><title>Node4</title>
<polygon fill="white" stroke="#bfbfbf" points="452.5,-58.5 452.5,-79.5 551.5,-79.5 551.5,-58.5 452.5,-58.5"/>
<text text-anchor="middle" x="502" y="-66.5" font-family="Helvetica,sans-Serif" font-size="10.00">mars/utils/Vector.h</text>
</g>
<!-- Node2&#45;&gt;Node4 -->
<g id="edge6" class="edge"><title>Node2&#45;&gt;Node4</title>
<path fill="none" stroke="midnightblue" d="M98.0357,-121.358C189.906,-110.76 383.373,-88.311 442.201,-80.1267"/>
<polygon fill="midnightblue" stroke="midnightblue" points="442.973,-83.5512 452.365,-78.6468 441.965,-76.6242 442.973,-83.5512"/>
</g>
<!-- Node5 -->
<g id="node9" class="node"><title>Node5</title>
<polygon fill="white" stroke="#bfbfbf" points="299,-0.5 299,-21.5 343,-21.5 343,-0.5 299,-0.5"/>
<text text-anchor="middle" x="321" y="-8.5" font-family="Helvetica,sans-Serif" font-size="10.00">vector</text>
</g>
<!-- Node2&#45;&gt;Node5 -->
<g id="edge8" class="edge"><title>Node2&#45;&gt;Node5</title>
<path fill="none" stroke="midnightblue" d="M61.5542,-116.364C79.8715,-101.346 115.508,-73.9769 150,-58 195.952,-36.7147 253.448,-23.3788 288.683,-16.5642"/>
<polygon fill="midnightblue" stroke="midnightblue" points="289.681,-19.9382 298.866,-14.6571 288.392,-13.0578 289.681,-19.9382"/>
</g>
<!-- Node7 -->
<g id="node13" class="node"><title>Node7</title>
<polygon fill="white" stroke="#bfbfbf" points="908,-58.5 908,-79.5 1054,-79.5 1054,-58.5 908,-58.5"/>
<text text-anchor="middle" x="981" y="-66.5" font-family="Helvetica,sans-Serif" font-size="10.00">mars/interfaces/MARSDefs.h</text>
</g>
<!-- Node6&#45;&gt;Node7 -->
<g id="edge12" class="edge"><title>Node6&#45;&gt;Node7</title>
<path fill="none" stroke="midnightblue" d="M936.904,-116.362C944.516,-108.186 955.208,-96.7025 964.157,-87.0907"/>
<polygon fill="midnightblue" stroke="midnightblue" points="966.906,-89.2746 971.158,-79.5707 961.783,-84.5046 966.906,-89.2746"/>
</g>
<!-- Node8 -->
<g id="node15" class="node"><title>Node8</title>
<polygon fill="white" stroke="#bfbfbf" points="703.5,-58.5 703.5,-79.5 744.5,-79.5 744.5,-58.5 703.5,-58.5"/>
<text text-anchor="middle" x="724" y="-66.5" font-family="Helvetica,sans-Serif" font-size="10.00">string</text>
</g>
<!-- Node6&#45;&gt;Node8 -->
<g id="edge14" class="edge"><title>Node6&#45;&gt;Node8</title>
<path fill="none" stroke="midnightblue" d="M883.389,-116.491C850.196,-108.208 803.232,-95.8811 754.313,-80.2376"/>
<polygon fill="midnightblue" stroke="midnightblue" points="755.098,-76.8131 744.506,-77.0649 752.943,-83.4732 755.098,-76.8131"/>
</g>
<!-- Node9&#45;&gt;Node3 -->
<g id="edge18" class="edge"><title>Node9&#45;&gt;Node3</title>
<path fill="none" stroke="midnightblue" d="M453.947,-182.24C362.506,-176.29 165.077,-160.911 145,-138 129.539,-120.357 152.2,-99.331 173.151,-85.1642"/>
<polygon fill="midnightblue" stroke="midnightblue" points="175.091,-88.078 181.61,-79.726 171.306,-82.1899 175.091,-88.078"/>
</g>
<!-- Node9&#45;&gt;Node4 -->
<g id="edge20" class="edge"><title>Node9&#45;&gt;Node4</title>
<path fill="none" stroke="midnightblue" d="M500.185,-174.295C500.515,-155.131 501.213,-114.654 501.641,-89.8434"/>
<polygon fill="midnightblue" stroke="midnightblue" points="505.143,-89.7381 501.816,-79.6792 498.144,-89.6173 505.143,-89.7381"/>
</g>
<!-- Node10 -->
<g id="node21" class="node"><title>Node10</title>
<polygon fill="white" stroke="#bfbfbf" points="652,-116.5 652,-137.5 770,-137.5 770,-116.5 652,-116.5"/>
<text text-anchor="middle" x="711" y="-124.5" font-family="Helvetica,sans-Serif" font-size="10.00">mars/utils/Quaternion.h</text>
</g>
<!-- Node9&#45;&gt;Node10 -->
<g id="edge22" class="edge"><title>Node9&#45;&gt;Node10</title>
<path fill="none" stroke="midnightblue" d="M538.211,-174.497C573.205,-164.877 625.152,-150.598 662.947,-140.209"/>
<polygon fill="midnightblue" stroke="midnightblue" points="664.003,-143.548 672.718,-137.523 662.148,-136.799 664.003,-143.548"/>
</g>
<!-- Node11 -->
<g id="node23" class="node"><title>Node11</title>
<polygon fill="white" stroke="#bfbfbf" points="572,-58.5 572,-79.5 666,-79.5 666,-58.5 572,-58.5"/>
<text text-anchor="middle" x="619" y="-66.5" font-family="Helvetica,sans-Serif" font-size="10.00">mars/utils/Color.h</text>
</g>
<!-- Node9&#45;&gt;Node11 -->
<g id="edge24" class="edge"><title>Node9&#45;&gt;Node11</title>
<path fill="none" stroke="midnightblue" d="M546.068,-174.702C567.011,-167.724 590.334,-156.32 605,-138 615.835,-124.465 618.961,-104.746 619.595,-89.8505"/>
<polygon fill="midnightblue" stroke="midnightblue" points="623.097,-89.6115 619.68,-79.5828 616.097,-89.5535 623.097,-89.6115"/>
</g>
<!-- Node12 -->
<g id="node25" class="node"><title>Node12</title>
<a xlink:href="../../d1/d98/node_state_8h.html" target="_top" xlink:title="nodeState.h">
<polygon fill="white" stroke="black" points="527.5,-116.5 527.5,-137.5 596.5,-137.5 596.5,-116.5 527.5,-116.5"/>
<text text-anchor="middle" x="562" y="-124.5" font-family="Helvetica,sans-Serif" font-size="10.00">nodeState.h</text>
</a>
</g>
<!-- Node9&#45;&gt;Node12 -->
<g id="edge26" class="edge"><title>Node9&#45;&gt;Node12</title>
<path fill="none" stroke="midnightblue" d="M511.372,-174.362C520.286,-166.023 532.879,-154.242 543.276,-144.516"/>
<polygon fill="midnightblue" stroke="midnightblue" points="545.789,-146.958 550.7,-137.571 541.007,-141.846 545.789,-146.958"/>
</g>
<!-- Node13 -->
<g id="node28" class="node"><title>Node13</title>
<a xlink:href="../../dd/d54/contact__params_8h.html" target="_top" xlink:title="contact_params.h">
<polygon fill="white" stroke="black" points="153.5,-116.5 153.5,-137.5 248.5,-137.5 248.5,-116.5 153.5,-116.5"/>
<text text-anchor="middle" x="201" y="-124.5" font-family="Helvetica,sans-Serif" font-size="10.00">contact_params.h</text>
</a>
</g>
<!-- Node9&#45;&gt;Node13 -->
<g id="edge30" class="edge"><title>Node9&#45;&gt;Node13</title>
<path fill="none" stroke="midnightblue" d="M453.86,-176.117C407.075,-167.101 332.306,-152.666 258.579,-138.304"/>
<polygon fill="midnightblue" stroke="midnightblue" points="259.142,-134.848 248.657,-136.371 257.803,-141.719 259.142,-134.848"/>
</g>
<!-- Node14 -->
<g id="node32" class="node"><title>Node14</title>
<a xlink:href="../../d7/dc4/snmesh_8h.html" target="_top" xlink:title="snmesh.h">
<polygon fill="white" stroke="black" points="265.5,-116.5 265.5,-137.5 324.5,-137.5 324.5,-116.5 265.5,-116.5"/>
<text text-anchor="middle" x="295" y="-124.5" font-family="Helvetica,sans-Serif" font-size="10.00">snmesh.h</text>
</a>
</g>
<!-- Node9&#45;&gt;Node14 -->
<g id="edge36" class="edge"><title>Node9&#45;&gt;Node14</title>
<path fill="none" stroke="midnightblue" d="M462.172,-174.44C430.426,-165.559 383.62,-152.42 334.678,-138.468"/>
<polygon fill="midnightblue" stroke="midnightblue" points="335.441,-135.046 324.865,-135.668 333.52,-141.777 335.441,-135.046"/>
</g>
<!-- Node12&#45;&gt;Node4 -->
<g id="edge28" class="edge"><title>Node12&#45;&gt;Node4</title>
<path fill="none" stroke="midnightblue" d="M550.995,-116.362C542.453,-108.104 530.42,-96.4725 520.417,-86.8029"/>
<polygon fill="midnightblue" stroke="midnightblue" points="522.558,-84.0044 512.935,-79.5707 517.692,-89.0374 522.558,-84.0044"/>
</g>
<!-- Node13&#45;&gt;Node3 -->
<g id="edge32" class="edge"><title>Node13&#45;&gt;Node3</title>
<path fill="none" stroke="midnightblue" d="M201,-116.362C201,-108.922 201,-98.7427 201,-89.7276"/>
<polygon fill="midnightblue" stroke="midnightblue" points="204.5,-89.5706 201,-79.5707 197.5,-89.5707 204.5,-89.5706"/>
</g>
<!-- Node13&#45;&gt;Node4 -->
<g id="edge34" class="edge"><title>Node13&#45;&gt;Node4</title>
<path fill="none" stroke="midnightblue" d="M248.656,-117.624C251.479,-117.073 254.277,-116.529 257,-116 320.244,-103.722 392.711,-89.844 442.329,-80.3706"/>
<polygon fill="midnightblue" stroke="midnightblue" points="443.082,-83.7902 452.248,-78.4774 441.77,-76.9143 443.082,-83.7902"/>
</g>
<!-- Node14&#45;&gt;Node3 -->
<g id="edge38" class="edge"><title>Node14&#45;&gt;Node3</title>
<path fill="none" stroke="midnightblue" d="M277.759,-116.362C263.448,-107.532 242.885,-94.844 226.643,-84.8224"/>
<polygon fill="midnightblue" stroke="midnightblue" points="228.48,-81.8431 218.132,-79.5707 224.804,-87.8004 228.48,-81.8431"/>
</g>
<!-- Node14&#45;&gt;Node11 -->
<g id="edge40" class="edge"><title>Node14&#45;&gt;Node11</title>
<path fill="none" stroke="midnightblue" d="M324.78,-117.999C327.548,-117.278 330.319,-116.598 333,-116 432.698,-93.7551 459.337,-97.3627 560,-80 560.594,-79.8976 561.191,-79.7942 561.79,-79.69"/>
<polygon fill="midnightblue" stroke="midnightblue" points="562.446,-83.1285 571.682,-77.9384 561.225,-76.2357 562.446,-83.1285"/>
</g>
<!-- Node15&#45;&gt;Node3 -->
<g id="edge50" class="edge"><title>Node15&#45;&gt;Node3</title>
<path fill="none" stroke="midnightblue" d="M369.695,-116.497C335.675,-106.918 285.245,-92.7196 248.386,-82.3418"/>
<polygon fill="midnightblue" stroke="midnightblue" points="248.949,-78.8643 238.375,-79.5231 247.052,-85.6023 248.949,-78.8643"/>
</g>
<!-- Node15&#45;&gt;Node4 -->
<g id="edge54" class="edge"><title>Node15&#45;&gt;Node4</title>
<path fill="none" stroke="midnightblue" d="M424.424,-116.362C438.887,-107.532 459.669,-94.844 476.084,-84.8224"/>
<polygon fill="midnightblue" stroke="midnightblue" points="477.975,-87.7688 484.686,-79.5707 474.327,-81.7943 477.975,-87.7688"/>
</g>
<!-- Node15&#45;&gt;Node5 -->
<g id="edge58" class="edge"><title>Node15&#45;&gt;Node5</title>
<path fill="none" stroke="midnightblue" d="M384.617,-116.464C369.882,-108.433 351.295,-96.0277 340,-80 329.962,-65.7556 325.22,-46.4091 322.984,-31.8262"/>
<polygon fill="midnightblue" stroke="midnightblue" points="326.439,-31.2505 321.716,-21.7665 319.494,-32.1257 326.439,-31.2505"/>
</g>
<!-- Node15&#45;&gt;Node8 -->
<g id="edge56" class="edge"><title>Node15&#45;&gt;Node8</title>
<path fill="none" stroke="midnightblue" d="M472.146,-116.459C526.516,-107.45 605.98,-93.7913 675,-80 680.915,-78.818 687.212,-77.4715 693.253,-76.1356"/>
<polygon fill="midnightblue" stroke="midnightblue" points="694.075,-79.5382 703.063,-73.9286 692.539,-72.7089 694.075,-79.5382"/>
</g>
<!-- Node15&#45;&gt;Node11 -->
<g id="edge52" class="edge"><title>Node15&#45;&gt;Node11</title>
<path fill="none" stroke="midnightblue" d="M445.392,-116.497C480.552,-106.877 532.745,-92.5981 570.719,-82.209"/>
<polygon fill="midnightblue" stroke="midnightblue" points="571.814,-85.5379 580.536,-79.5231 569.967,-78.7861 571.814,-85.5379"/>
</g>
<!-- Node16 -->
<g id="node38" class="node"><title>Node16</title>
<a xlink:href="../../dd/dd2/_draw_interface_8h.html" target="_top" xlink:title="DrawInterface.h">
<polygon fill="white" stroke="black" points="349,-58.5 349,-79.5 435,-79.5 435,-58.5 349,-58.5"/>
<text text-anchor="middle" x="392" y="-66.5" font-family="Helvetica,sans-Serif" font-size="10.00">DrawInterface.h</text>
</a>
</g>
<!-- Node15&#45;&gt;Node16 -->
<g id="edge44" class="edge"><title>Node15&#45;&gt;Node16</title>
<path fill="none" stroke="midnightblue" d="M398.885,-116.362C395.644,-108.922 392.633,-98.7427 390.861,-89.7276"/>
<polygon fill="midnightblue" stroke="midnightblue" points="394.286,-88.9619 389.382,-79.5707 387.359,-89.9707 394.286,-88.9619"/>
</g>
<!-- Node16&#45;&gt;Node5 -->
<g id="edge48" class="edge"><title>Node16&#45;&gt;Node5</title>
<path fill="none" stroke="midnightblue" d="M378.978,-58.3619C368.569,-49.859 353.781,-37.7785 341.745,-27.9466"/>
<polygon fill="midnightblue" stroke="midnightblue" points="343.899,-25.1866 333.94,-21.5707 339.47,-30.6077 343.899,-25.1866"/>
</g>
<!-- Node16&#45;&gt;Node15 -->
<g id="edge46" class="edge"><title>Node16&#45;&gt;Node15</title>
<path fill="none" stroke="midnightblue" d="M400.086,-79.5707C403.328,-86.9941 406.344,-97.1684 408.123,-106.191"/>
<polygon fill="midnightblue" stroke="midnightblue" points="404.7,-106.975 409.613,-116.362 411.627,-105.96 404.7,-106.975"/>
</g>
<!-- Node17&#45;&gt;Node4 -->
<g id="edge66" class="edge"><title>Node17&#45;&gt;Node4</title>
<path fill="none" stroke="midnightblue" d="M787.826,-117.848C784.844,-117.199 781.876,-116.576 779,-116 683.568,-96.9007 658.892,-96.6362 563,-80 562.536,-79.9195 562.07,-79.8386 561.603,-79.7572"/>
<polygon fill="midnightblue" stroke="midnightblue" points="562.049,-76.2821 551.594,-78 560.838,-83.1767 562.049,-76.2821"/>
</g>
<!-- Node17&#45;&gt;Node8 -->
<g id="edge68" class="edge"><title>Node17&#45;&gt;Node8</title>
<path fill="none" stroke="midnightblue" d="M807.292,-116.362C791.619,-107.45 769.036,-94.6087 751.337,-84.5447"/>
<polygon fill="midnightblue" stroke="midnightblue" points="753.013,-81.4712 742.59,-79.5707 749.553,-87.5562 753.013,-81.4712"/>
</g>
<!-- Node17&#45;&gt;Node11 -->
<g id="edge62" class="edge"><title>Node17&#45;&gt;Node11</title>
<path fill="none" stroke="midnightblue" d="M788.514,-116.497C754.329,-106.918 703.654,-92.7196 666.616,-82.3418"/>
<polygon fill="midnightblue" stroke="midnightblue" points="667.13,-78.8509 656.556,-79.5231 665.241,-85.5914 667.13,-78.8509"/>
</g>
<!-- Node18 -->
<g id="node50" class="node"><title>Node18</title>
<polygon fill="white" stroke="#bfbfbf" points="762,-58.5 762,-79.5 890,-79.5 890,-58.5 762,-58.5"/>
<text text-anchor="middle" x="826" y="-66.5" font-family="Helvetica,sans-Serif" font-size="10.00">configmaps/ConfigData.h</text>
</g>
<!-- Node17&#45;&gt;Node18 -->
<g id="edge64" class="edge"><title>Node17&#45;&gt;Node18</title>
<path fill="none" stroke="midnightblue" d="M826,-116.362C826,-108.922 826,-98.7427 826,-89.7276"/>
<polygon fill="midnightblue" stroke="midnightblue" points="829.5,-89.5706 826,-79.5707 822.5,-89.5707 829.5,-89.5706"/>
</g>
</g>
</svg>
