<?xml version="1.0" encoding="UTF-8" standalone="no"?>
<!DOCTYPE svg PUBLIC "-//W3C//DTD SVG 1.1//EN"
 "http://www.w3.org/Graphics/SVG/1.1/DTD/svg11.dtd">
<!-- Generated by graphviz version 2.26.3 (20100126.1600)
 -->
<!-- Title: /home/kavonszadkowski/limes&#45;dev/simulation/mars/interfaces/src/gui/MarsGuiInterface.h Pages: 1 -->
<svg width="150pt" height="128pt"
 viewBox="0.00 0.00 150.00 128.00" xmlns="http://www.w3.org/2000/svg" xmlns:xlink="http://www.w3.org/1999/xlink">
<g id="graph1" class="graph" transform="scale(1 1) rotate(0) translate(4 124)">
<title>/home/kavonszadkowski/limes&#45;dev/simulation/mars/interfaces/src/gui/MarsGuiInterface.h</title>
<polygon fill="white" stroke="white" points="-4,5 -4,-124 147,-124 147,5 -4,5"/>
<!-- Node1 -->
<g id="node1" class="node"><title>Node1</title>
<polygon fill="#bfbfbf" stroke="black" points="8.5,-59 8.5,-119 133.5,-119 133.5,-59 8.5,-59"/>
<text text-anchor="start" x="16.5" y="-106" font-family="Helvetica,sans-Serif" font-size="10.00">/home/kavonszadkowski</text>
<text text-anchor="start" x="16.5" y="-93" font-family="Helvetica,sans-Serif" font-size="10.00">/limes&#45;dev/simulation</text>
<text text-anchor="start" x="16.5" y="-80" font-family="Helvetica,sans-Serif" font-size="10.00">/mars/interfaces/src/gui</text>
<text text-anchor="middle" x="71" y="-67" font-family="Helvetica,sans-Serif" font-size="10.00">/MarsGuiInterface.h</text>
</g>
<!-- Node2 -->
<g id="node3" class="node"><title>Node2</title>
<polygon fill="white" stroke="#bfbfbf" points="0,-0.5 0,-21.5 142,-21.5 142,-0.5 0,-0.5"/>
<text text-anchor="middle" x="71" y="-8.5" font-family="Helvetica,sans-Serif" font-size="10.00">lib_manager/LibInterface.hpp</text>
</g>
<!-- Node1&#45;&gt;Node2 -->
<g id="edge2" class="edge"><title>Node1&#45;&gt;Node2</title>
<path fill="none" stroke="midnightblue" d="M71,-58.6198C71,-49.6797 71,-40.1035 71,-31.9002"/>
<polygon fill="midnightblue" stroke="midnightblue" points="74.5001,-31.7534 71,-21.7535 67.5001,-31.7535 74.5001,-31.7534"/>
</g>
</g>
</svg>
