<?xml version="1.0" encoding="UTF-8" standalone="no"?>
<!DOCTYPE svg PUBLIC "-//W3C//DTD SVG 1.1//EN"
 "http://www.w3.org/Graphics/SVG/1.1/DTD/svg11.dtd">
<!-- Generated by graphviz version 2.26.3 (20100126.1600)
 -->
<!-- Title: /home/kavonszadkowski/limes&#45;dev/simulation/mars/interfaces/src/terrainStruct.h Pages: 1 -->
<svg width="248pt" height="186pt"
 viewBox="0.00 0.00 248.00 186.00" xmlns="http://www.w3.org/2000/svg" xmlns:xlink="http://www.w3.org/1999/xlink">
<g id="graph1" class="graph" transform="scale(1 1) rotate(0) translate(4 182)">
<title>/home/kavonszadkowski/limes&#45;dev/simulation/mars/interfaces/src/terrainStruct.h</title>
<polygon fill="white" stroke="white" points="-4,5 -4,-182 245,-182 245,5 -4,5"/>
<!-- Node1 -->
<g id="node1" class="node"><title>Node1</title>
<polygon fill="#bfbfbf" stroke="black" points="83,-117 83,-177 217,-177 217,-117 83,-117"/>
<text text-anchor="start" x="91" y="-164" font-family="Helvetica,sans-Serif" font-size="10.00">/home/kavonszadkowski</text>
<text text-anchor="start" x="91" y="-151" font-family="Helvetica,sans-Serif" font-size="10.00">/limes&#45;dev/simulation</text>
<text text-anchor="start" x="91" y="-138" font-family="Helvetica,sans-Serif" font-size="10.00">/mars/interfaces/src/terrain</text>
<text text-anchor="middle" x="150" y="-125" font-family="Helvetica,sans-Serif" font-size="10.00">Struct.h</text>
</g>
<!-- Node2 -->
<g id="node3" class="node"><title>Node2</title>
<a xlink:href="../../de/d75/_material_data_8h.html" target="_top" xlink:title="MaterialData.h">
<polygon fill="white" stroke="black" points="71,-58.5 71,-79.5 151,-79.5 151,-58.5 71,-58.5"/>
<text text-anchor="middle" x="111" y="-66.5" font-family="Helvetica,sans-Serif" font-size="10.00">MaterialData.h</text>
</a>
</g>
<!-- Node1&#45;&gt;Node2 -->
<g id="edge2" class="edge"><title>Node1&#45;&gt;Node2</title>
<path fill="none" stroke="midnightblue" d="M134.81,-116.62C130.137,-107.273 125.116,-97.2316 120.895,-88.7902"/>
<polygon fill="midnightblue" stroke="midnightblue" points="123.979,-87.1325 116.377,-79.7535 117.718,-90.263 123.979,-87.1325"/>
</g>
<!-- Node5 -->
<g id="node9" class="node"><title>Node5</title>
<polygon fill="white" stroke="#bfbfbf" points="168.5,-58.5 168.5,-79.5 209.5,-79.5 209.5,-58.5 168.5,-58.5"/>
<text text-anchor="middle" x="189" y="-66.5" font-family="Helvetica,sans-Serif" font-size="10.00">string</text>
</g>
<!-- Node1&#45;&gt;Node5 -->
<g id="edge8" class="edge"><title>Node1&#45;&gt;Node5</title>
<path fill="none" stroke="midnightblue" d="M165.19,-116.62C169.863,-107.273 174.884,-97.2316 179.105,-88.7902"/>
<polygon fill="midnightblue" stroke="midnightblue" points="182.282,-90.263 183.623,-79.7535 176.021,-87.1325 182.282,-90.263"/>
</g>
<!-- Node3 -->
<g id="node5" class="node"><title>Node3</title>
<polygon fill="white" stroke="#bfbfbf" points="0,-0.5 0,-21.5 94,-21.5 94,-0.5 0,-0.5"/>
<text text-anchor="middle" x="47" y="-8.5" font-family="Helvetica,sans-Serif" font-size="10.00">mars/utils/Color.h</text>
</g>
<!-- Node2&#45;&gt;Node3 -->
<g id="edge4" class="edge"><title>Node2&#45;&gt;Node3</title>
<path fill="none" stroke="midnightblue" d="M99.2614,-58.3619C90.0594,-50.0226 77.0599,-38.2418 66.3283,-28.5162"/>
<polygon fill="midnightblue" stroke="midnightblue" points="68.4244,-25.6924 58.6642,-21.5707 63.7237,-30.8793 68.4244,-25.6924"/>
</g>
<!-- Node4 -->
<g id="node7" class="node"><title>Node4</title>
<polygon fill="white" stroke="#bfbfbf" points="112,-0.5 112,-21.5 240,-21.5 240,-0.5 112,-0.5"/>
<text text-anchor="middle" x="176" y="-8.5" font-family="Helvetica,sans-Serif" font-size="10.00">configmaps/ConfigData.h</text>
</g>
<!-- Node2&#45;&gt;Node4 -->
<g id="edge6" class="edge"><title>Node2&#45;&gt;Node4</title>
<path fill="none" stroke="midnightblue" d="M122.922,-58.3619C132.359,-49.9408 145.73,-38.0105 156.69,-28.2308"/>
<polygon fill="midnightblue" stroke="midnightblue" points="159.022,-30.8401 164.154,-21.5707 154.362,-25.6171 159.022,-30.8401"/>
</g>
</g>
</svg>
