<?xml version="1.0" encoding="UTF-8" standalone="no"?>
<!DOCTYPE svg PUBLIC "-//W3C//DTD SVG 1.1//EN"
 "http://www.w3.org/Graphics/SVG/1.1/DTD/svg11.dtd">
<!-- Generated by graphviz version 2.26.3 (20100126.1600)
 -->
<!-- Title: /home/kavonszadkowski/limes&#45;dev/simulation/mars/plugins/mars_plugin_collection/DataVaultWrapper/src/DataVaultWrapper.h Pages: 1 -->
<svg width="1044pt" height="154pt"
 viewBox="0.00 0.00 1044.00 154.00" xmlns="http://www.w3.org/2000/svg" xmlns:xlink="http://www.w3.org/1999/xlink">
<g id="graph1" class="graph" transform="scale(1 1) rotate(0) translate(4 150)">
<title>/home/kavonszadkowski/limes&#45;dev/simulation/mars/plugins/mars_plugin_collection/DataVaultWrapper/src/DataVaultWrapper.h</title>
<polygon fill="white" stroke="white" points="-4,5 -4,-150 1041,-150 1041,5 -4,5"/>
<!-- Node1 -->
<g id="node1" class="node"><title>Node1</title>
<polygon fill="#bfbfbf" stroke="black" points="529,-72.5 529,-145.5 675,-145.5 675,-72.5 529,-72.5"/>
<text text-anchor="start" x="537" y="-132.5" font-family="Helvetica,sans-Serif" font-size="10.00">/home/kavonszadkowski</text>
<text text-anchor="start" x="537" y="-119.5" font-family="Helvetica,sans-Serif" font-size="10.00">/limes&#45;dev/simulation</text>
<text text-anchor="start" x="537" y="-106.5" font-family="Helvetica,sans-Serif" font-size="10.00">/mars/plugins/mars_plugin</text>
<text text-anchor="start" x="537" y="-93.5" font-family="Helvetica,sans-Serif" font-size="10.00">_collection/DataVaultWrapper</text>
<text text-anchor="middle" x="602" y="-80.5" font-family="Helvetica,sans-Serif" font-size="10.00">/src/DataVaultWrapper.h</text>
</g>
<!-- Node2 -->
<g id="node3" class="node"><title>Node2</title>
<polygon fill="white" stroke="#bfbfbf" points="-0.5,-1 -0.5,-35 116.5,-35 116.5,-1 -0.5,-1"/>
<text text-anchor="start" x="7.5" y="-22" font-family="Helvetica,sans-Serif" font-size="10.00">mars/interfaces/sim</text>
<text text-anchor="middle" x="58" y="-9" font-family="Helvetica,sans-Serif" font-size="10.00">/MarsPluginTemplate.h</text>
</g>
<!-- Node1&#45;&gt;Node2 -->
<g id="edge2" class="edge"><title>Node1&#45;&gt;Node2</title>
<path fill="none" stroke="midnightblue" d="M528.818,-100.356C436.919,-88.9303 274.343,-66.8314 126.878,-36.2926"/>
<polygon fill="midnightblue" stroke="midnightblue" points="127.242,-32.7933 116.738,-34.1742 125.81,-39.6453 127.242,-32.7933"/>
</g>
<!-- Node3 -->
<g id="node5" class="node"><title>Node3</title>
<polygon fill="white" stroke="#bfbfbf" points="134,-7.5 134,-28.5 280,-28.5 280,-7.5 134,-7.5"/>
<text text-anchor="middle" x="207" y="-15.5" font-family="Helvetica,sans-Serif" font-size="10.00">mars/interfaces/MARSDefs.h</text>
</g>
<!-- Node1&#45;&gt;Node3 -->
<g id="edge4" class="edge"><title>Node1&#45;&gt;Node3</title>
<path fill="none" stroke="midnightblue" d="M528.629,-92.0969C451.65,-74.3624 332.361,-46.8807 262.745,-30.8426"/>
<polygon fill="midnightblue" stroke="midnightblue" points="263.376,-27.3963 252.845,-28.5619 261.804,-34.2176 263.376,-27.3963"/>
</g>
<!-- Node4 -->
<g id="node7" class="node"><title>Node4</title>
<polygon fill="white" stroke="#bfbfbf" points="298,-1 298,-35 432,-35 432,-1 298,-1"/>
<text text-anchor="start" x="306" y="-22" font-family="Helvetica,sans-Serif" font-size="10.00">mars/data_broker/Receiver</text>
<text text-anchor="middle" x="365" y="-9" font-family="Helvetica,sans-Serif" font-size="10.00">Interface.h</text>
</g>
<!-- Node1&#45;&gt;Node4 -->
<g id="edge6" class="edge"><title>Node1&#45;&gt;Node4</title>
<path fill="none" stroke="midnightblue" d="M528.958,-80.9545C493.431,-67.3132 451.478,-51.2047 418.904,-38.6971"/>
<polygon fill="midnightblue" stroke="midnightblue" points="420.136,-35.4215 409.546,-35.1043 417.627,-41.9563 420.136,-35.4215"/>
</g>
<!-- Node5 -->
<g id="node9" class="node"><title>Node5</title>
<polygon fill="white" stroke="#bfbfbf" points="449.5,-1 449.5,-35 608.5,-35 608.5,-1 449.5,-1"/>
<text text-anchor="start" x="457.5" y="-22" font-family="Helvetica,sans-Serif" font-size="10.00">mars/cfg_manager/CFGManager</text>
<text text-anchor="middle" x="529" y="-9" font-family="Helvetica,sans-Serif" font-size="10.00">Interface.h</text>
</g>
<!-- Node1&#45;&gt;Node5 -->
<g id="edge8" class="edge"><title>Node1&#45;&gt;Node5</title>
<path fill="none" stroke="midnightblue" d="M572.519,-72.2491C564.641,-62.4298 556.311,-52.0455 549.071,-43.0199"/>
<polygon fill="midnightblue" stroke="midnightblue" points="551.76,-40.7784 542.772,-35.1682 546.3,-45.1586 551.76,-40.7784"/>
</g>
<!-- Node6 -->
<g id="node11" class="node"><title>Node6</title>
<polygon fill="white" stroke="#bfbfbf" points="626,-7.5 626,-28.5 724,-28.5 724,-7.5 626,-7.5"/>
<text text-anchor="middle" x="675" y="-15.5" font-family="Helvetica,sans-Serif" font-size="10.00">mars/utils/Mutex.h</text>
</g>
<!-- Node1&#45;&gt;Node6 -->
<g id="edge10" class="edge"><title>Node1&#45;&gt;Node6</title>
<path fill="none" stroke="midnightblue" d="M631.481,-72.2491C641.374,-59.9172 651.982,-46.6941 660.247,-36.3904"/>
<polygon fill="midnightblue" stroke="midnightblue" points="663.045,-38.4959 666.573,-28.5055 657.585,-34.1157 663.045,-38.4959"/>
</g>
<!-- Node7 -->
<g id="node13" class="node"><title>Node7</title>
<polygon fill="white" stroke="#bfbfbf" points="741.5,-7.5 741.5,-28.5 824.5,-28.5 824.5,-7.5 741.5,-7.5"/>
<text text-anchor="middle" x="783" y="-15.5" font-family="Helvetica,sans-Serif" font-size="10.00">plotter/Plotter.h</text>
</g>
<!-- Node1&#45;&gt;Node7 -->
<g id="edge12" class="edge"><title>Node1&#45;&gt;Node7</title>
<path fill="none" stroke="midnightblue" d="M674.837,-72.3802C702.097,-58.6751 731.581,-43.8516 752.87,-33.148"/>
<polygon fill="midnightblue" stroke="midnightblue" points="754.676,-36.1578 762.038,-28.5389 751.531,-29.9038 754.676,-36.1578"/>
</g>
<!-- Node8 -->
<g id="node15" class="node"><title>Node8</title>
<polygon fill="white" stroke="#bfbfbf" points="841.5,-7.5 841.5,-28.5 978.5,-28.5 978.5,-7.5 841.5,-7.5"/>
<text text-anchor="middle" x="910" y="-15.5" font-family="Helvetica,sans-Serif" font-size="10.00">plotter/DataVaultInterface.h</text>
</g>
<!-- Node1&#45;&gt;Node8 -->
<g id="edge14" class="edge"><title>Node1&#45;&gt;Node8</title>
<path fill="none" stroke="midnightblue" d="M675.382,-87.3188C734.143,-69.9577 814.712,-46.1532 864.509,-31.4405"/>
<polygon fill="midnightblue" stroke="midnightblue" points="865.747,-34.7243 874.346,-28.5342 863.764,-28.0112 865.747,-34.7243"/>
</g>
<!-- Node9 -->
<g id="node17" class="node"><title>Node9</title>
<polygon fill="white" stroke="#bfbfbf" points="995.5,-7.5 995.5,-28.5 1036.5,-28.5 1036.5,-7.5 995.5,-7.5"/>
<text text-anchor="middle" x="1016" y="-15.5" font-family="Helvetica,sans-Serif" font-size="10.00">string</text>
</g>
<!-- Node1&#45;&gt;Node9 -->
<g id="edge16" class="edge"><title>Node1&#45;&gt;Node9</title>
<path fill="none" stroke="midnightblue" d="M675.15,-103.182C754.273,-95.0654 883.037,-76.4956 987,-36 988.822,-35.2902 990.656,-34.4644 992.469,-33.5641"/>
<polygon fill="midnightblue" stroke="midnightblue" points="994.213,-36.5989 1001.2,-28.6361 990.773,-30.5025 994.213,-36.5989"/>
</g>
</g>
</svg>
