<?xml version="1.0" encoding="UTF-8" standalone="no"?>
<!DOCTYPE svg PUBLIC "-//W3C//DTD SVG 1.1//EN"
 "http://www.w3.org/Graphics/SVG/1.1/DTD/svg11.dtd">
<!-- Generated by graphviz version 2.26.3 (20100126.1600)
 -->
<!-- Title: mars::plugins::DataVaultWrapper::DataVaultWrapper Pages: 1 -->
<svg width="1432pt" height="616pt"
 viewBox="0.00 0.00 1432.00 616.14" xmlns="http://www.w3.org/2000/svg" xmlns:xlink="http://www.w3.org/1999/xlink">
<g id="graph1" class="graph" transform="scale(1 1) rotate(0) translate(4 612.141)">
<title>mars::plugins::DataVaultWrapper::DataVaultWrapper</title>
<polygon fill="white" stroke="white" points="-4,5 -4,-612.141 1429,-612.141 1429,5 -4,5"/>
<!-- Node1 -->
<g id="node1" class="node"><title>Node1</title>
<polygon fill="#bfbfbf" stroke="black" points="1284,-409.141 1284,-443.141 1424,-443.141 1424,-409.141 1284,-409.141"/>
<text text-anchor="start" x="1292" y="-430.141" font-family="Helvetica,sans-Serif" font-size="10.00">mars::plugins::DataVault</text>
<text text-anchor="middle" x="1354" y="-417.141" font-family="Helvetica,sans-Serif" font-size="10.00">Wrapper::DataVaultWrapper</text>
</g>
<!-- Node2 -->
<g id="node2" class="node"><title>Node2</title>
<a xlink:href="../../da/df1/classmars_1_1interfaces_1_1_mars_plugin_template_g_u_i.html" target="_top" xlink:title="mars::interfaces::MarsPlugin\lTemplateGUI">
<polygon fill="white" stroke="black" points="1035,-530.141 1035,-564.141 1177,-564.141 1177,-530.141 1035,-530.141"/>
<text text-anchor="start" x="1043" y="-551.141" font-family="Helvetica,sans-Serif" font-size="10.00">mars::interfaces::MarsPlugin</text>
<text text-anchor="middle" x="1106" y="-538.141" font-family="Helvetica,sans-Serif" font-size="10.00">TemplateGUI</text>
</a>
</g>
<!-- Node2&#45;&gt;Node1 -->
<g id="edge2" class="edge"><title>Node2&#45;&gt;Node1</title>
<path fill="none" stroke="midnightblue" d="M1169.21,-526.471C1173.57,-524.753 1177.87,-522.97 1182,-521.141 1235.02,-497.646 1293.47,-463.463 1326.76,-443.147"/>
<polygon fill="midnightblue" stroke="midnightblue" points="1167.71,-523.297 1159.61,-530.122 1170.2,-529.84 1167.71,-523.297"/>
</g>
<!-- Node3 -->
<g id="node4" class="node"><title>Node3</title>
<polygon fill="white" stroke="#bfbfbf" points="47,-462.641 47,-483.641 115,-483.641 115,-462.641 47,-462.641"/>
<text text-anchor="middle" x="81" y="-470.641" font-family="Helvetica,sans-Serif" font-size="10.00">LibInterface</text>
</g>
<!-- Node3&#45;&gt;Node2 -->
<g id="edge4" class="edge"><title>Node3&#45;&gt;Node2</title>
<path fill="none" stroke="midnightblue" d="M99.6916,-490.604C140.803,-527.109 243.593,-608.141 346,-608.141 346,-608.141 346,-608.141 865,-608.141 936.861,-608.141 1017.19,-582.338 1064.58,-564.295"/>
<polygon fill="midnightblue" stroke="midnightblue" points="101.858,-487.845 92.0933,-483.734 97.1638,-493.037 101.858,-487.845"/>
</g>
<!-- Node6 -->
<g id="node10" class="node"><title>Node6</title>
<a xlink:href="../../d1/d93/classmars_1_1interfaces_1_1_graphics_manager_interface.html" target="_top" xlink:title="mars::interfaces::Graphics\lManagerInterface">
<polygon fill="white" stroke="black" points="280,-456.141 280,-490.141 412,-490.141 412,-456.141 280,-456.141"/>
<text text-anchor="start" x="288" y="-477.141" font-family="Helvetica,sans-Serif" font-size="10.00">mars::interfaces::Graphics</text>
<text text-anchor="middle" x="346" y="-464.141" font-family="Helvetica,sans-Serif" font-size="10.00">ManagerInterface</text>
</a>
</g>
<!-- Node3&#45;&gt;Node6 -->
<g id="edge12" class="edge"><title>Node3&#45;&gt;Node6</title>
<path fill="none" stroke="midnightblue" d="M125.332,-473.141C167.51,-473.141 231.513,-473.141 279.747,-473.141"/>
<polygon fill="midnightblue" stroke="midnightblue" points="125.102,-469.641 115.102,-473.141 125.102,-476.641 125.102,-469.641"/>
</g>
<!-- Node10 -->
<g id="node19" class="node"><title>Node10</title>
<a xlink:href="../../d4/da6/classmars_1_1cfg__manager_1_1_c_f_g_manager_interface.html" target="_top" xlink:title="mars::cfg_manager::\lCFGManagerInterface">
<polygon fill="white" stroke="black" points="289.5,-404.141 289.5,-438.141 402.5,-438.141 402.5,-404.141 289.5,-404.141"/>
<text text-anchor="start" x="297.5" y="-425.141" font-family="Helvetica,sans-Serif" font-size="10.00">mars::cfg_manager::</text>
<text text-anchor="middle" x="346" y="-412.141" font-family="Helvetica,sans-Serif" font-size="10.00">CFGManagerInterface</text>
</a>
</g>
<!-- Node3&#45;&gt;Node10 -->
<g id="edge22" class="edge"><title>Node3&#45;&gt;Node10</title>
<path fill="none" stroke="midnightblue" d="M125.147,-464.478C170.173,-455.643 240.21,-441.9 289.312,-432.265"/>
<polygon fill="midnightblue" stroke="midnightblue" points="124.241,-461.089 115.102,-466.45 125.588,-467.958 124.241,-461.089"/>
</g>
<!-- Node11 -->
<g id="node22" class="node"><title>Node11</title>
<a xlink:href="../../d6/d2e/classmars_1_1data__broker_1_1_data_broker_interface.html" target="_top" xlink:title="The interface every DataBroker should implement. ">
<polygon fill="white" stroke="black" points="294,-300.141 294,-334.141 398,-334.141 398,-300.141 294,-300.141"/>
<text text-anchor="start" x="302" y="-321.141" font-family="Helvetica,sans-Serif" font-size="10.00">mars::data_broker::</text>
<text text-anchor="middle" x="346" y="-308.141" font-family="Helvetica,sans-Serif" font-size="10.00">DataBrokerInterface</text>
</a>
</g>
<!-- Node3&#45;&gt;Node11 -->
<g id="edge26" class="edge"><title>Node3&#45;&gt;Node11</title>
<path fill="none" stroke="midnightblue" d="M101.841,-455.631C135.111,-428.403 203.103,-375.668 268,-343.141 276.167,-339.048 285.126,-335.376 293.969,-332.171"/>
<polygon fill="midnightblue" stroke="midnightblue" points="99.2634,-453.221 93.7811,-462.287 103.721,-458.619 99.2634,-453.221"/>
</g>
<!-- Node20 -->
<g id="node41" class="node"><title>Node20</title>
<a xlink:href="../../d7/df2/classmars_1_1main__gui_1_1_gui_interface.html" target="_top" xlink:title="The abstract GuiInterface class provides the menu and docking functionality of the GUI...">
<polygon fill="white" stroke="black" points="442.5,-557.641 442.5,-578.641 585.5,-578.641 585.5,-557.641 442.5,-557.641"/>
<text text-anchor="middle" x="514" y="-565.641" font-family="Helvetica,sans-Serif" font-size="10.00">mars::main_gui::GuiInterface</text>
</a>
</g>
<!-- Node3&#45;&gt;Node20 -->
<g id="edge46" class="edge"><title>Node3&#45;&gt;Node20</title>
<path fill="none" stroke="midnightblue" d="M109.095,-488.291C144.856,-506.756 209.078,-537.215 268,-551.141 325.598,-564.754 392.73,-568.622 442.3,-569.3"/>
<polygon fill="midnightblue" stroke="midnightblue" points="110.698,-485.179 100.214,-483.648 107.455,-491.383 110.698,-485.179"/>
</g>
<!-- Node4 -->
<g id="node6" class="node"><title>Node4</title>
<a xlink:href="../../d1/d70/classmars_1_1interfaces_1_1_plugin_interface.html" target="_top" xlink:title="The interface to load plugin dynamically into the simulation. ">
<polygon fill="white" stroke="black" points="805,-357.141 805,-391.141 925,-391.141 925,-357.141 805,-357.141"/>
<text text-anchor="start" x="813" y="-378.141" font-family="Helvetica,sans-Serif" font-size="10.00">mars::interfaces::Plugin</text>
<text text-anchor="middle" x="865" y="-365.141" font-family="Helvetica,sans-Serif" font-size="10.00">Interface</text>
</a>
</g>
<!-- Node4&#45;&gt;Node2 -->
<g id="edge6" class="edge"><title>Node4&#45;&gt;Node2</title>
<path fill="none" stroke="midnightblue" d="M935.181,-369.98C962.671,-372.161 992.282,-379.875 1012,-400.141 1049.92,-439.109 995.207,-479.362 1030,-521.141 1032.86,-524.57 1036.19,-527.548 1039.82,-530.134"/>
<polygon fill="midnightblue" stroke="midnightblue" points="935.353,-366.485 925.172,-369.414 934.958,-373.473 935.353,-366.485"/>
</g>
<!-- Node5 -->
<g id="node8" class="node"><title>Node5</title>
<a xlink:href="../../d7/d4e/classmars_1_1interfaces_1_1_control_center.html" target="_top" xlink:title="The declaration of the ControlCenter. ">
<polygon fill="white" stroke="black" points="604.5,-274.141 604.5,-308.141 729.5,-308.141 729.5,-274.141 604.5,-274.141"/>
<text text-anchor="start" x="612.5" y="-295.141" font-family="Helvetica,sans-Serif" font-size="10.00">mars::interfaces::Control</text>
<text text-anchor="middle" x="667" y="-282.141" font-family="Helvetica,sans-Serif" font-size="10.00">Center</text>
</a>
</g>
<!-- Node5&#45;&gt;Node4 -->
<g id="edge8" class="edge"><title>Node5&#45;&gt;Node4</title>
<path fill="none" stroke="#9a32cd" stroke-dasharray="5,2" d="M717.538,-312.326C750.677,-326.218 793.434,-344.141 824.366,-357.108"/>
<polygon fill="#9a32cd" stroke="#9a32cd" points="718.601,-308.977 708.026,-308.339 715.895,-315.433 718.601,-308.977"/>
<text text-anchor="middle" x="765" y="-342.141" font-family="Helvetica,sans-Serif" font-size="10.00"> control</text>
</g>
<!-- Node6&#45;&gt;Node5 -->
<g id="edge10" class="edge"><title>Node6&#45;&gt;Node5</title>
<path fill="none" stroke="#9a32cd" stroke-dasharray="5,2" d="M422.328,-463.34C490.004,-454.394 579.188,-441.867 586,-437.141 631.488,-405.58 654.188,-339.842 662.784,-308.494"/>
<polygon fill="#9a32cd" stroke="#9a32cd" points="421.547,-459.912 412.089,-464.688 422.461,-466.853 421.547,-459.912"/>
<text text-anchor="middle" x="514" y="-463.141" font-family="Helvetica,sans-Serif" font-size="10.00"> graphics</text>
</g>
<!-- Node7 -->
<g id="node13" class="node"><title>Node7</title>
<a xlink:href="../../d2/da9/classmars_1_1interfaces_1_1_controller_manager_interface.html" target="_top" xlink:title="&quot;ControllerManagerInterface&quot; declares the interfaces for all controller operations that are used for ...">
<polygon fill="white" stroke="black" points="278.5,-248.141 278.5,-282.141 413.5,-282.141 413.5,-248.141 278.5,-248.141"/>
<text text-anchor="start" x="286.5" y="-269.141" font-family="Helvetica,sans-Serif" font-size="10.00">mars::interfaces::Controller</text>
<text text-anchor="middle" x="346" y="-256.141" font-family="Helvetica,sans-Serif" font-size="10.00">ManagerInterface</text>
</a>
</g>
<!-- Node7&#45;&gt;Node5 -->
<g id="edge14" class="edge"><title>Node7&#45;&gt;Node5</title>
<path fill="none" stroke="#9a32cd" stroke-dasharray="5,2" d="M423.875,-264.732C470.965,-265.311 532.118,-267.525 586,-274.141 591.99,-274.877 598.195,-275.828 604.382,-276.906"/>
<polygon fill="#9a32cd" stroke="#9a32cd" points="423.779,-261.231 413.744,-264.63 423.709,-268.231 423.779,-261.231"/>
<text text-anchor="middle" x="514" y="-278.141" font-family="Helvetica,sans-Serif" font-size="10.00"> controllers</text>
</g>
<!-- Node8 -->
<g id="node15" class="node"><title>Node8</title>
<a xlink:href="../../d6/d60/classmars_1_1interfaces_1_1_joint_manager_interface.html" target="_top" xlink:title="Interface class for the node organization. ">
<polygon fill="white" stroke="black" points="270,-196.141 270,-230.141 422,-230.141 422,-196.141 270,-196.141"/>
<text text-anchor="start" x="278" y="-217.141" font-family="Helvetica,sans-Serif" font-size="10.00">mars::interfaces::JointManager</text>
<text text-anchor="middle" x="346" y="-204.141" font-family="Helvetica,sans-Serif" font-size="10.00">Interface</text>
</a>
</g>
<!-- Node8&#45;&gt;Node5 -->
<g id="edge16" class="edge"><title>Node8&#45;&gt;Node5</title>
<path fill="none" stroke="#9a32cd" stroke-dasharray="5,2" d="M432.148,-218.513C478.605,-223.188 536.416,-231.906 586,-248.141 605.065,-254.383 624.985,-264.898 640.3,-273.966"/>
<polygon fill="#9a32cd" stroke="#9a32cd" points="432.402,-215.021 422.113,-217.548 431.732,-221.989 432.402,-215.021"/>
<text text-anchor="middle" x="514" y="-252.141" font-family="Helvetica,sans-Serif" font-size="10.00"> joints</text>
</g>
<!-- Node9 -->
<g id="node17" class="node"><title>Node9</title>
<a xlink:href="../../df/d82/classmars_1_1interfaces_1_1_entity_manager_interface.html" target="_top" xlink:title="mars::interfaces::Entity\lManagerInterface">
<polygon fill="white" stroke="black" points="286.5,-144.141 286.5,-178.141 405.5,-178.141 405.5,-144.141 286.5,-144.141"/>
<text text-anchor="start" x="294.5" y="-165.141" font-family="Helvetica,sans-Serif" font-size="10.00">mars::interfaces::Entity</text>
<text text-anchor="middle" x="346" y="-152.141" font-family="Helvetica,sans-Serif" font-size="10.00">ManagerInterface</text>
</a>
</g>
<!-- Node9&#45;&gt;Node5 -->
<g id="edge18" class="edge"><title>Node9&#45;&gt;Node5</title>
<path fill="none" stroke="#9a32cd" stroke-dasharray="5,2" d="M415.81,-161.624C465.912,-164.672 533.56,-174.492 586,-203.141 617.16,-220.165 642.833,-253.71 656.446,-274.109"/>
<polygon fill="#9a32cd" stroke="#9a32cd" points="415.887,-158.123 405.715,-161.087 415.515,-165.113 415.887,-158.123"/>
<text text-anchor="middle" x="514" y="-207.141" font-family="Helvetica,sans-Serif" font-size="10.00"> entities</text>
</g>
<!-- Node10&#45;&gt;Node5 -->
<g id="edge20" class="edge"><title>Node10&#45;&gt;Node5</title>
<path fill="none" stroke="#9a32cd" stroke-dasharray="5,2" d="M412.977,-422.502C463.42,-420.795 532.748,-412.438 586,-383.141 618.256,-365.395 643.907,-329.619 657.15,-308.286"/>
<polygon fill="#9a32cd" stroke="#9a32cd" points="412.738,-419.007 402.832,-422.765 412.919,-426.004 412.738,-419.007"/>
<text text-anchor="middle" x="514" y="-424.141" font-family="Helvetica,sans-Serif" font-size="10.00"> cfg</text>
</g>
<!-- Node11&#45;&gt;Node5 -->
<g id="edge24" class="edge"><title>Node11&#45;&gt;Node5</title>
<path fill="none" stroke="#9a32cd" stroke-dasharray="5,2" d="M408.518,-312.077C465.002,-307.502 547.712,-300.803 604.264,-296.223"/>
<polygon fill="#9a32cd" stroke="#9a32cd" points="407.973,-308.61 398.289,-312.906 408.539,-315.587 407.973,-308.61"/>
<text text-anchor="middle" x="514" y="-326.141" font-family="Helvetica,sans-Serif" font-size="10.00"> dataBroker</text>
<text text-anchor="middle" x="514" y="-313.141" font-family="Helvetica,sans-Serif" font-size="10.00">theDataBroker</text>
</g>
<!-- Node12 -->
<g id="node25" class="node"><title>Node12</title>
<a xlink:href="../../db/da9/classmars_1_1interfaces_1_1_sensor_manager_interface.html" target="_top" xlink:title="&quot;SensorManagerInterface&quot; declares the interfaces for all sensor operations that are used for the comm...">
<polygon fill="white" stroke="black" points="284,-0.141151 284,-34.1412 408,-34.1412 408,-0.141151 284,-0.141151"/>
<text text-anchor="start" x="292" y="-21.1412" font-family="Helvetica,sans-Serif" font-size="10.00">mars::interfaces::Sensor</text>
<text text-anchor="middle" x="346" y="-8.14115" font-family="Helvetica,sans-Serif" font-size="10.00">ManagerInterface</text>
</a>
</g>
<!-- Node12&#45;&gt;Node5 -->
<g id="edge28" class="edge"><title>Node12&#45;&gt;Node5</title>
<path fill="none" stroke="#9a32cd" stroke-dasharray="5,2" d="M418.424,-2.79546C470.467,3.20131 539.392,1.75438 586,-35.1412 624.743,-65.8108 654.867,-221.246 664.078,-273.771"/>
<polygon fill="#9a32cd" stroke="#9a32cd" points="417.732,0.644892 408.252,-4.08577 418.613,-6.29946 417.732,0.644892"/>
<text text-anchor="middle" x="514" y="-39.1412" font-family="Helvetica,sans-Serif" font-size="10.00"> sensors</text>
</g>
<!-- Node13 -->
<g id="node27" class="node"><title>Node13</title>
<a xlink:href="../../db/de9/classmars_1_1interfaces_1_1_motor_manager_interface.html" target="_top" xlink:title="&quot;MotorManagerInterface&quot; declares the interfaces for all motor operations that are used for the commun...">
<polygon fill="white" stroke="black" points="268.5,-352.141 268.5,-386.141 423.5,-386.141 423.5,-352.141 268.5,-352.141"/>
<text text-anchor="start" x="276.5" y="-373.141" font-family="Helvetica,sans-Serif" font-size="10.00">mars::interfaces::MotorManager</text>
<text text-anchor="middle" x="346" y="-360.141" font-family="Helvetica,sans-Serif" font-size="10.00">Interface</text>
</a>
</g>
<!-- Node13&#45;&gt;Node5 -->
<g id="edge30" class="edge"><title>Node13&#45;&gt;Node5</title>
<path fill="none" stroke="#9a32cd" stroke-dasharray="5,2" d="M433.748,-366.78C480.058,-363.408 537.234,-355.826 586,-339.141 607.034,-331.945 628.58,-318.848 644.157,-308.15"/>
<polygon fill="#9a32cd" stroke="#9a32cd" points="433.478,-363.29 423.737,-367.456 433.95,-370.274 433.478,-363.29"/>
<text text-anchor="middle" x="514" y="-370.141" font-family="Helvetica,sans-Serif" font-size="10.00"> motors</text>
</g>
<!-- Node14 -->
<g id="node29" class="node"><title>Node14</title>
<a xlink:href="../../d9/d6a/classmars_1_1interfaces_1_1_load_center.html" target="_top" xlink:title="mars::interfaces::LoadCenter">
<polygon fill="white" stroke="black" points="274.5,-52.6412 274.5,-73.6412 417.5,-73.6412 417.5,-52.6412 274.5,-52.6412"/>
<text text-anchor="middle" x="346" y="-60.6412" font-family="Helvetica,sans-Serif" font-size="10.00">mars::interfaces::LoadCenter</text>
</a>
</g>
<!-- Node14&#45;&gt;Node5 -->
<g id="edge32" class="edge"><title>Node14&#45;&gt;Node5</title>
<path fill="none" stroke="#9a32cd" stroke-dasharray="5,2" d="M427.852,-52.0748C478.238,-49.7372 541.476,-55.3865 586,-89.1412 646.821,-135.25 662.091,-234.363 665.827,-274.124"/>
<polygon fill="#9a32cd" stroke="#9a32cd" points="427.413,-48.5942 417.632,-52.6651 427.817,-55.5826 427.413,-48.5942"/>
<text text-anchor="middle" x="514" y="-93.1412" font-family="Helvetica,sans-Serif" font-size="10.00"> loadCenter</text>
</g>
<!-- Node15 -->
<g id="node31" class="node"><title>Node15</title>
<a xlink:href="../../d1/d51/classmars_1_1interfaces_1_1_load_heightmap_interface.html" target="_top" xlink:title="mars::interfaces::LoadHeightmap\lInterface">
<polygon fill="white" stroke="black" points="0.5,-72.1412 0.5,-106.141 161.5,-106.141 161.5,-72.1412 0.5,-72.1412"/>
<text text-anchor="start" x="8.5" y="-93.1412" font-family="Helvetica,sans-Serif" font-size="10.00">mars::interfaces::LoadHeightmap</text>
<text text-anchor="middle" x="81" y="-80.1412" font-family="Helvetica,sans-Serif" font-size="10.00">Interface</text>
</a>
</g>
<!-- Node15&#45;&gt;Node14 -->
<g id="edge34" class="edge"><title>Node15&#45;&gt;Node14</title>
<path fill="none" stroke="#9a32cd" stroke-dasharray="5,2" d="M171.844,-80.2282C205.335,-76.9423 242.778,-73.2686 274.339,-70.172"/>
<polygon fill="#9a32cd" stroke="#9a32cd" points="171.198,-76.7746 161.588,-81.2344 171.882,-83.7411 171.198,-76.7746"/>
<text text-anchor="middle" x="215" y="-84.1412" font-family="Helvetica,sans-Serif" font-size="10.00"> loadHeightmap</text>
</g>
<!-- Node16 -->
<g id="node33" class="node"><title>Node16</title>
<a xlink:href="../../d7/d02/classmars_1_1interfaces_1_1_load_mesh_interface.html" target="_top" xlink:title="mars::interfaces::LoadMesh\lInterface">
<polygon fill="white" stroke="black" points="12,-20.1412 12,-54.1412 150,-54.1412 150,-20.1412 12,-20.1412"/>
<text text-anchor="start" x="20" y="-41.1412" font-family="Helvetica,sans-Serif" font-size="10.00">mars::interfaces::LoadMesh</text>
<text text-anchor="middle" x="81" y="-28.1412" font-family="Helvetica,sans-Serif" font-size="10.00">Interface</text>
</a>
</g>
<!-- Node16&#45;&gt;Node14 -->
<g id="edge36" class="edge"><title>Node16&#45;&gt;Node14</title>
<path fill="none" stroke="#9a32cd" stroke-dasharray="5,2" d="M160.315,-44.923C196.535,-48.4767 239.113,-52.6541 274.353,-56.1117"/>
<polygon fill="#9a32cd" stroke="#9a32cd" points="160.573,-41.4316 150.279,-43.9384 159.89,-48.3982 160.573,-41.4316"/>
<text text-anchor="middle" x="215" y="-58.1412" font-family="Helvetica,sans-Serif" font-size="10.00"> loadMesh</text>
</g>
<!-- Node17 -->
<g id="node35" class="node"><title>Node17</title>
<a xlink:href="../../d7/d4c/classmars_1_1interfaces_1_1_node_manager_interface.html" target="_top" xlink:title="&quot;NodeManagerInterface&quot; declares the interfaces for all NodeOperations that are used for the communica...">
<polygon fill="white" stroke="black" points="269,-92.1412 269,-126.141 423,-126.141 423,-92.1412 269,-92.1412"/>
<text text-anchor="start" x="277" y="-113.141" font-family="Helvetica,sans-Serif" font-size="10.00">mars::interfaces::NodeManager</text>
<text text-anchor="middle" x="346" y="-100.141" font-family="Helvetica,sans-Serif" font-size="10.00">Interface</text>
</a>
</g>
<!-- Node17&#45;&gt;Node5 -->
<g id="edge38" class="edge"><title>Node17&#45;&gt;Node5</title>
<path fill="none" stroke="#9a32cd" stroke-dasharray="5,2" d="M433.401,-105.041C482.199,-106.893 541.866,-116.445 586,-147.141 630.977,-178.424 653.929,-243.185 662.685,-274.055"/>
<polygon fill="#9a32cd" stroke="#9a32cd" points="433.255,-101.536 423.162,-104.758 433.061,-108.533 433.255,-101.536"/>
<text text-anchor="middle" x="514" y="-151.141" font-family="Helvetica,sans-Serif" font-size="10.00"> nodes</text>
</g>
<!-- Node18 -->
<g id="node37" class="node"><title>Node18</title>
<a xlink:href="../../dc/de5/classmars_1_1interfaces_1_1_simulator_interface.html" target="_top" xlink:title="mars::interfaces::Simulator\lInterface">
<polygon fill="white" stroke="black" points="279,-508.141 279,-542.141 413,-542.141 413,-508.141 279,-508.141"/>
<text text-anchor="start" x="287" y="-529.141" font-family="Helvetica,sans-Serif" font-size="10.00">mars::interfaces::Simulator</text>
<text text-anchor="middle" x="346" y="-516.141" font-family="Helvetica,sans-Serif" font-size="10.00">Interface</text>
</a>
</g>
<!-- Node18&#45;&gt;Node2 -->
<g id="edge48" class="edge"><title>Node18&#45;&gt;Node2</title>
<path fill="none" stroke="#9a32cd" stroke-dasharray="5,2" d="M423.456,-527.383C571.342,-531.664 891.887,-540.943 1034.77,-545.079"/>
<polygon fill="#9a32cd" stroke="#9a32cd" points="423.209,-523.875 413.112,-527.084 423.006,-530.872 423.209,-523.875"/>
<text text-anchor="middle" x="765" y="-541.141" font-family="Helvetica,sans-Serif" font-size="10.00"> mars</text>
</g>
<!-- Node18&#45;&gt;Node5 -->
<g id="edge40" class="edge"><title>Node18&#45;&gt;Node5</title>
<path fill="none" stroke="#9a32cd" stroke-dasharray="5,2" d="M414.941,-505.589C424.008,-503.276 433.204,-501.06 442,-499.141 505.391,-485.31 534.768,-514.954 586,-475.141 640.706,-432.629 659.274,-345.417 664.856,-308.385"/>
<polygon fill="#9a32cd" stroke="#9a32cd" points="413.976,-502.223 405.177,-508.126 415.736,-508.998 413.976,-502.223"/>
<text text-anchor="middle" x="514" y="-503.141" font-family="Helvetica,sans-Serif" font-size="10.00"> sim</text>
</g>
<!-- Node19 -->
<g id="node39" class="node"><title>Node19</title>
<polygon fill="white" stroke="#bfbfbf" points="844.5,-444.641 844.5,-465.641 885.5,-465.641 885.5,-444.641 844.5,-444.641"/>
<text text-anchor="middle" x="865" y="-452.641" font-family="Helvetica,sans-Serif" font-size="10.00">string</text>
</g>
<!-- Node19&#45;&gt;Node2 -->
<g id="edge42" class="edge"><title>Node19&#45;&gt;Node2</title>
<path fill="none" stroke="#9a32cd" stroke-dasharray="5,2" d="M895.684,-454.231C927.807,-454.831 978.188,-460.341 1012,-486.141 1025.91,-496.752 1016.77,-509.703 1030,-521.141 1033.9,-524.515 1038.27,-527.457 1042.87,-530.021"/>
<polygon fill="#9a32cd" stroke="#9a32cd" points="895.554,-450.73 885.541,-454.193 895.528,-457.73 895.554,-450.73"/>
<text text-anchor="middle" x="980" y="-503.141" font-family="Helvetica,sans-Serif" font-size="10.00"> configPath</text>
<text text-anchor="middle" x="980" y="-490.141" font-family="Helvetica,sans-Serif" font-size="10.00">resourcesPath</text>
</g>
<!-- Node26 -->
<g id="node55" class="node"><title>Node26</title>
<a xlink:href="../../dc/dc3/structmars_1_1cfg__manager_1_1cfg_property_struct.html" target="_top" xlink:title="mars::cfg_manager::\lcfgPropertyStruct">
<polygon fill="white" stroke="black" points="1052.5,-334.141 1052.5,-368.141 1159.5,-368.141 1159.5,-334.141 1052.5,-334.141"/>
<text text-anchor="start" x="1060.5" y="-355.141" font-family="Helvetica,sans-Serif" font-size="10.00">mars::cfg_manager::</text>
<text text-anchor="middle" x="1106" y="-342.141" font-family="Helvetica,sans-Serif" font-size="10.00">cfgPropertyStruct</text>
</a>
</g>
<!-- Node19&#45;&gt;Node26 -->
<g id="edge62" class="edge"><title>Node19&#45;&gt;Node26</title>
<path fill="none" stroke="#9a32cd" stroke-dasharray="5,2" d="M894.517,-439.956C927.19,-423.439 981.635,-396.774 1030,-377.141 1037.49,-374.099 1045.49,-371.101 1053.39,-368.283"/>
<polygon fill="#9a32cd" stroke="#9a32cd" points="892.836,-436.884 885.505,-444.534 896.006,-443.125 892.836,-436.884"/>
<text text-anchor="middle" x="980" y="-415.141" font-family="Helvetica,sans-Serif" font-size="10.00"> sValue</text>
</g>
<!-- Node20&#45;&gt;Node2 -->
<g id="edge44" class="edge"><title>Node20&#45;&gt;Node2</title>
<path fill="none" stroke="#9a32cd" stroke-dasharray="5,2" d="M595.999,-565.232C712.639,-561.095 924.526,-553.579 1034.88,-549.664"/>
<polygon fill="#9a32cd" stroke="#9a32cd" points="595.573,-561.745 585.704,-565.598 595.822,-568.741 595.573,-561.745"/>
<text text-anchor="middle" x="765" y="-563.141" font-family="Helvetica,sans-Serif" font-size="10.00"> gui</text>
</g>
<!-- Node21 -->
<g id="node45" class="node"><title>Node21</title>
<a xlink:href="../../d0/d0e/classmars_1_1data__broker_1_1_receiver_interface.html" target="_top" xlink:title="Interface for classes that want to receive data from the DataBroker. ">
<polygon fill="white" stroke="black" points="1055.5,-478.141 1055.5,-512.141 1156.5,-512.141 1156.5,-478.141 1055.5,-478.141"/>
<text text-anchor="start" x="1063.5" y="-499.141" font-family="Helvetica,sans-Serif" font-size="10.00">mars::data_broker::</text>
<text text-anchor="middle" x="1106" y="-486.141" font-family="Helvetica,sans-Serif" font-size="10.00">ReceiverInterface</text>
</a>
</g>
<!-- Node21&#45;&gt;Node1 -->
<g id="edge50" class="edge"><title>Node21&#45;&gt;Node1</title>
<path fill="none" stroke="midnightblue" d="M1166.7,-478.577C1196.62,-470.381 1233.22,-460.304 1266,-451.141 1275.18,-448.576 1284.89,-445.839 1294.38,-443.153"/>
<polygon fill="midnightblue" stroke="midnightblue" points="1165.55,-475.263 1156.83,-481.28 1167.4,-482.015 1165.55,-475.263"/>
</g>
<!-- Node22 -->
<g id="node47" class="node"><title>Node22</title>
<a xlink:href="../../d3/d52/classmars_1_1main__gui_1_1_menu_interface.html" target="_top" xlink:title="Provides the menuAction function. ">
<polygon fill="white" stroke="black" points="1030,-438.641 1030,-459.641 1182,-459.641 1182,-438.641 1030,-438.641"/>
<text text-anchor="middle" x="1106" y="-446.641" font-family="Helvetica,sans-Serif" font-size="10.00">mars::main_gui::MenuInterface</text>
</a>
</g>
<!-- Node22&#45;&gt;Node1 -->
<g id="edge52" class="edge"><title>Node22&#45;&gt;Node1</title>
<path fill="none" stroke="midnightblue" d="M1192.13,-441.153C1222.14,-438.37 1255.42,-435.283 1283.97,-432.636"/>
<polygon fill="midnightblue" stroke="midnightblue" points="1191.73,-437.675 1182.09,-442.084 1192.37,-444.646 1191.73,-437.675"/>
</g>
<!-- Node23 -->
<g id="node49" class="node"><title>Node23</title>
<a xlink:href="../../d4/d1a/classmars_1_1cfg__manager_1_1_c_f_g_client.html" target="_top" xlink:title="mars::cfg_manager::\lCFGClient">
<polygon fill="white" stroke="black" points="1052.5,-386.141 1052.5,-420.141 1159.5,-420.141 1159.5,-386.141 1052.5,-386.141"/>
<text text-anchor="start" x="1060.5" y="-407.141" font-family="Helvetica,sans-Serif" font-size="10.00">mars::cfg_manager::</text>
<text text-anchor="middle" x="1106" y="-394.141" font-family="Helvetica,sans-Serif" font-size="10.00">CFGClient</text>
</a>
</g>
<!-- Node23&#45;&gt;Node1 -->
<g id="edge54" class="edge"><title>Node23&#45;&gt;Node1</title>
<path fill="none" stroke="midnightblue" d="M1169.57,-409.037C1204.44,-412.271 1247.75,-416.287 1283.63,-419.615"/>
<polygon fill="midnightblue" stroke="midnightblue" points="1169.79,-405.542 1159.51,-408.103 1169.14,-412.512 1169.79,-405.542"/>
</g>
<!-- Node24 -->
<g id="node51" class="node"><title>Node24</title>
<a xlink:href="../../d6/d90/classmars_1_1utils_1_1_mutex.html" target="_top" xlink:title="mars::utils::Mutex">
<polygon fill="white" stroke="black" points="1058.5,-294.641 1058.5,-315.641 1153.5,-315.641 1153.5,-294.641 1058.5,-294.641"/>
<text text-anchor="middle" x="1106" y="-302.641" font-family="Helvetica,sans-Serif" font-size="10.00">mars::utils::Mutex</text>
</a>
</g>
<!-- Node24&#45;&gt;Node1 -->
<g id="edge56" class="edge"><title>Node24&#45;&gt;Node1</title>
<path fill="none" stroke="#9a32cd" stroke-dasharray="5,2" d="M1158.97,-318.304C1166.73,-320.458 1174.6,-322.766 1182,-325.141 1220.04,-337.353 1231.22,-337.482 1266,-357.141 1292.03,-371.853 1318.59,-393.834 1335.62,-409.015"/>
<polygon fill="#9a32cd" stroke="#9a32cd" points="1159.81,-314.904 1149.24,-315.666 1157.97,-321.66 1159.81,-314.904"/>
<text text-anchor="middle" x="1233" y="-361.141" font-family="Helvetica,sans-Serif" font-size="10.00"> receiverMutex</text>
</g>
<!-- Node25 -->
<g id="node53" class="node"><title>Node25</title>
<a xlink:href="../../d6/d9e/structmars_1_1utils_1_1_pthread_mutex_wrapper.html" target="_top" xlink:title="mars::utils::PthreadMutex\lWrapper">
<polygon fill="white" stroke="black" points="800.5,-288.141 800.5,-322.141 929.5,-322.141 929.5,-288.141 800.5,-288.141"/>
<text text-anchor="start" x="808.5" y="-309.141" font-family="Helvetica,sans-Serif" font-size="10.00">mars::utils::PthreadMutex</text>
<text text-anchor="middle" x="865" y="-296.141" font-family="Helvetica,sans-Serif" font-size="10.00">Wrapper</text>
</a>
</g>
<!-- Node25&#45;&gt;Node24 -->
<g id="edge58" class="edge"><title>Node25&#45;&gt;Node24</title>
<path fill="none" stroke="#9a32cd" stroke-dasharray="5,2" d="M939.774,-305.141C978.498,-305.141 1024.62,-305.141 1058.45,-305.141"/>
<polygon fill="#9a32cd" stroke="#9a32cd" points="939.584,-301.641 929.584,-305.141 939.584,-308.641 939.584,-301.641"/>
<text text-anchor="middle" x="980" y="-309.141" font-family="Helvetica,sans-Serif" font-size="10.00"> myMutex</text>
</g>
<!-- Node26&#45;&gt;Node1 -->
<g id="edge60" class="edge"><title>Node26&#45;&gt;Node1</title>
<path fill="none" stroke="#9a32cd" stroke-dasharray="5,2" d="M1169.44,-366.846C1198.96,-374.499 1234.46,-384.187 1266,-394.141 1280.26,-398.642 1295.64,-404.04 1309.49,-409.11"/>
<polygon fill="#9a32cd" stroke="#9a32cd" points="1170.22,-363.435 1159.67,-364.332 1168.48,-370.214 1170.22,-363.435"/>
<text text-anchor="middle" x="1233" y="-398.141" font-family="Helvetica,sans-Serif" font-size="10.00"> example</text>
</g>
</g>
</svg>
