<?xml version="1.0" encoding="UTF-8" standalone="no"?>
<!DOCTYPE svg PUBLIC "-//W3C//DTD SVG 1.1//EN"
 "http://www.w3.org/Graphics/SVG/1.1/DTD/svg11.dtd">
<!-- Generated by graphviz version 2.26.3 (20100126.1600)
 -->
<!-- Title: /home/kavonszadkowski/limes&#45;dev/simulation/mars/plugins/mars_plugin_collection/db_adrf_receiver/src/DBADRFReceiver.cpp Pages: 1 -->
<svg width="624pt" height="226pt"
 viewBox="0.00 0.00 624.00 226.00" xmlns="http://www.w3.org/2000/svg" xmlns:xlink="http://www.w3.org/1999/xlink">
<g id="graph1" class="graph" transform="scale(1 1) rotate(0) translate(4 222)">
<title>/home/kavonszadkowski/limes&#45;dev/simulation/mars/plugins/mars_plugin_collection/db_adrf_receiver/src/DBADRFReceiver.cpp</title>
<polygon fill="white" stroke="white" points="-4,5 -4,-222 621,-222 621,5 -4,5"/>
<!-- Node1 -->
<g id="node1" class="node"><title>Node1</title>
<polygon fill="#bfbfbf" stroke="black" points="351,-144.5 351,-217.5 489,-217.5 489,-144.5 351,-144.5"/>
<text text-anchor="start" x="359" y="-204.5" font-family="Helvetica,sans-Serif" font-size="10.00">/home/kavonszadkowski</text>
<text text-anchor="start" x="359" y="-191.5" font-family="Helvetica,sans-Serif" font-size="10.00">/limes&#45;dev/simulation</text>
<text text-anchor="start" x="359" y="-178.5" font-family="Helvetica,sans-Serif" font-size="10.00">/mars/plugins/mars_plugin</text>
<text text-anchor="start" x="359" y="-165.5" font-family="Helvetica,sans-Serif" font-size="10.00">_collection/db_adrf_receiver</text>
<text text-anchor="middle" x="420" y="-152.5" font-family="Helvetica,sans-Serif" font-size="10.00">/src/DBADRFReceiver.cpp</text>
</g>
<!-- Node2 -->
<g id="node3" class="node"><title>Node2</title>
<a xlink:href="../../df/d06/_d_b_a_d_r_f_receiver_8h.html" target="_top" xlink:title="plugin ">
<polygon fill="white" stroke="black" points="301,-79.5 301,-100.5 407,-100.5 407,-79.5 301,-79.5"/>
<text text-anchor="middle" x="354" y="-87.5" font-family="Helvetica,sans-Serif" font-size="10.00">DBADRFReceiver.h</text>
</a>
</g>
<!-- Node1&#45;&gt;Node2 -->
<g id="edge2" class="edge"><title>Node1&#45;&gt;Node2</title>
<path fill="none" stroke="midnightblue" d="M393.346,-144.249C384.491,-132.04 375.003,-118.959 367.563,-108.7"/>
<polygon fill="midnightblue" stroke="midnightblue" points="370.324,-106.546 361.619,-100.506 364.657,-110.655 370.324,-106.546"/>
</g>
<!-- Node8 -->
<g id="node15" class="node"><title>Node8</title>
<polygon fill="white" stroke="#bfbfbf" points="424.5,-73 424.5,-107 549.5,-107 549.5,-73 424.5,-73"/>
<text text-anchor="start" x="432.5" y="-94" font-family="Helvetica,sans-Serif" font-size="10.00">multisim_plugin/MultiSim</text>
<text text-anchor="middle" x="487" y="-81" font-family="Helvetica,sans-Serif" font-size="10.00">Plugin.h</text>
</g>
<!-- Node1&#45;&gt;Node8 -->
<g id="edge14" class="edge"><title>Node1&#45;&gt;Node8</title>
<path fill="none" stroke="midnightblue" d="M447.058,-144.249C454.214,-134.53 461.778,-124.257 468.375,-115.297"/>
<polygon fill="midnightblue" stroke="midnightblue" points="471.249,-117.296 474.36,-107.168 465.612,-113.146 471.249,-117.296"/>
</g>
<!-- Node3 -->
<g id="node5" class="node"><title>Node3</title>
<polygon fill="white" stroke="#bfbfbf" points="-0.5,-1 -0.5,-35 116.5,-35 116.5,-1 -0.5,-1"/>
<text text-anchor="start" x="7.5" y="-22" font-family="Helvetica,sans-Serif" font-size="10.00">mars/interfaces/sim</text>
<text text-anchor="middle" x="58" y="-9" font-family="Helvetica,sans-Serif" font-size="10.00">/MarsPluginTemplate.h</text>
</g>
<!-- Node2&#45;&gt;Node3 -->
<g id="edge4" class="edge"><title>Node2&#45;&gt;Node3</title>
<path fill="none" stroke="midnightblue" d="M307.407,-79.4567C263.235,-69.3618 194.769,-53.4588 126.818,-36.4274"/>
<polygon fill="midnightblue" stroke="midnightblue" points="127.351,-32.9524 116.799,-33.9069 125.643,-39.7409 127.351,-32.9524"/>
</g>
<!-- Node4 -->
<g id="node7" class="node"><title>Node4</title>
<polygon fill="white" stroke="#bfbfbf" points="134,-7.5 134,-28.5 280,-28.5 280,-7.5 134,-7.5"/>
<text text-anchor="middle" x="207" y="-15.5" font-family="Helvetica,sans-Serif" font-size="10.00">mars/interfaces/MARSDefs.h</text>
</g>
<!-- Node2&#45;&gt;Node4 -->
<g id="edge6" class="edge"><title>Node2&#45;&gt;Node4</title>
<path fill="none" stroke="midnightblue" d="M332.31,-79.3762C307.34,-67.1459 266.138,-46.9654 237.839,-33.105"/>
<polygon fill="midnightblue" stroke="midnightblue" points="239.3,-29.9229 228.779,-28.6674 236.22,-36.2094 239.3,-29.9229"/>
</g>
<!-- Node5 -->
<g id="node9" class="node"><title>Node5</title>
<polygon fill="white" stroke="#bfbfbf" points="298,-7.5 298,-28.5 410,-28.5 410,-7.5 298,-7.5"/>
<text text-anchor="middle" x="354" y="-15.5" font-family="Helvetica,sans-Serif" font-size="10.00">adrf/DBADRFClient.h</text>
</g>
<!-- Node2&#45;&gt;Node5 -->
<g id="edge8" class="edge"><title>Node2&#45;&gt;Node5</title>
<path fill="none" stroke="midnightblue" d="M354,-79.3762C354,-68.7412 354,-52.0946 354,-38.8195"/>
<polygon fill="midnightblue" stroke="midnightblue" points="357.5,-38.6674 354,-28.6674 350.5,-38.6675 357.5,-38.6674"/>
</g>
<!-- Node6 -->
<g id="node11" class="node"><title>Node6</title>
<polygon fill="white" stroke="#bfbfbf" points="427.5,-7.5 427.5,-28.5 558.5,-28.5 558.5,-7.5 427.5,-7.5"/>
<text text-anchor="middle" x="493" y="-15.5" font-family="Helvetica,sans-Serif" font-size="10.00">adrf/DBADRFProcessor.h</text>
</g>
<!-- Node2&#45;&gt;Node6 -->
<g id="edge10" class="edge"><title>Node2&#45;&gt;Node6</title>
<path fill="none" stroke="midnightblue" d="M374.51,-79.3762C398.018,-67.1991 436.742,-47.1407 463.489,-33.2861"/>
<polygon fill="midnightblue" stroke="midnightblue" points="465.136,-36.3748 472.406,-28.6674 461.917,-30.1591 465.136,-36.3748"/>
</g>
<!-- Node7 -->
<g id="node13" class="node"><title>Node7</title>
<polygon fill="white" stroke="#bfbfbf" points="575.5,-7.5 575.5,-28.5 616.5,-28.5 616.5,-7.5 575.5,-7.5"/>
<text text-anchor="middle" x="596" y="-15.5" font-family="Helvetica,sans-Serif" font-size="10.00">string</text>
</g>
<!-- Node2&#45;&gt;Node7 -->
<g id="edge12" class="edge"><title>Node2&#45;&gt;Node7</title>
<path fill="none" stroke="midnightblue" d="M389.327,-79.4225C398.025,-76.9071 407.331,-74.2904 416,-72 482.703,-54.377 503.314,-62.5339 567,-36 568.617,-35.3263 570.247,-34.5681 571.866,-33.754"/>
<polygon fill="midnightblue" stroke="midnightblue" points="573.861,-36.6469 580.843,-28.6778 570.415,-30.5537 573.861,-36.6469"/>
</g>
</g>
</svg>
