<?xml version="1.0" encoding="UTF-8" standalone="no"?>
<!DOCTYPE svg PUBLIC "-//W3C//DTD SVG 1.1//EN"
 "http://www.w3.org/Graphics/SVG/1.1/DTD/svg11.dtd">
<!-- Generated by graphviz version 2.26.3 (20100126.1600)
 -->
<!-- Title: /home/kavonszadkowski/limes&#45;dev/simulation/mars/plugins/mars_plugin_collection/SCJoypadControl/src/SCJoypadControl.h Pages: 1 -->
<svg width="652pt" height="140pt"
 viewBox="0.00 0.00 652.00 140.00" xmlns="http://www.w3.org/2000/svg" xmlns:xlink="http://www.w3.org/1999/xlink">
<g id="graph1" class="graph" transform="scale(1 1) rotate(0) translate(4 136)">
<title>/home/kavonszadkowski/limes&#45;dev/simulation/mars/plugins/mars_plugin_collection/SCJoypadControl/src/SCJoypadControl.h</title>
<polygon fill="white" stroke="white" points="-4,5 -4,-136 649,-136 649,5 -4,5"/>
<!-- Node1 -->
<g id="node1" class="node"><title>Node1</title>
<polygon fill="#bfbfbf" stroke="black" points="229.5,-58.5 229.5,-131.5 372.5,-131.5 372.5,-58.5 229.5,-58.5"/>
<text text-anchor="start" x="237.5" y="-118.5" font-family="Helvetica,sans-Serif" font-size="10.00">/home/kavonszadkowski</text>
<text text-anchor="start" x="237.5" y="-105.5" font-family="Helvetica,sans-Serif" font-size="10.00">/limes&#45;dev/simulation</text>
<text text-anchor="start" x="237.5" y="-92.5" font-family="Helvetica,sans-Serif" font-size="10.00">/mars/plugins/mars_plugin</text>
<text text-anchor="start" x="237.5" y="-79.5" font-family="Helvetica,sans-Serif" font-size="10.00">_collection/SCJoypadControl</text>
<text text-anchor="middle" x="301" y="-66.5" font-family="Helvetica,sans-Serif" font-size="10.00">/src/SCJoypadControl.h</text>
</g>
<!-- Node2 -->
<g id="node3" class="node"><title>Node2</title>
<polygon fill="white" stroke="#bfbfbf" points="0,-0.5 0,-21.5 160,-21.5 160,-0.5 0,-0.5"/>
<text text-anchor="middle" x="80" y="-8.5" font-family="Helvetica,sans-Serif" font-size="10.00">mars_sim/MarsPluginTemplate.h</text>
</g>
<!-- Node1&#45;&gt;Node2 -->
<g id="edge2" class="edge"><title>Node1&#45;&gt;Node2</title>
<path fill="none" stroke="midnightblue" d="M229.248,-67.7276C191.831,-53.5059 147.628,-36.7047 117.088,-25.0966"/>
<polygon fill="midnightblue" stroke="midnightblue" points="118.269,-21.8015 107.678,-21.5201 115.782,-28.3447 118.269,-21.8015"/>
</g>
<!-- Node3 -->
<g id="node5" class="node"><title>Node3</title>
<polygon fill="white" stroke="#bfbfbf" points="177.5,-0.5 177.5,-21.5 278.5,-21.5 278.5,-0.5 177.5,-0.5"/>
<text text-anchor="middle" x="228" y="-8.5" font-family="Helvetica,sans-Serif" font-size="10.00">mars_core/Mutex.h</text>
</g>
<!-- Node1&#45;&gt;Node3 -->
<g id="edge4" class="edge"><title>Node1&#45;&gt;Node3</title>
<path fill="none" stroke="midnightblue" d="M269.193,-58.4007C260.549,-48.4532 251.546,-38.0946 244.171,-29.6073"/>
<polygon fill="midnightblue" stroke="midnightblue" points="246.612,-27.0805 237.41,-21.8283 241.328,-31.6722 246.612,-27.0805"/>
</g>
<!-- Node4 -->
<g id="node7" class="node"><title>Node4</title>
<polygon fill="white" stroke="#bfbfbf" points="296,-0.5 296,-21.5 452,-21.5 452,-0.5 296,-0.5"/>
<text text-anchor="middle" x="374" y="-8.5" font-family="Helvetica,sans-Serif" font-size="10.00">data_broker/ReceiverInterface.h</text>
</g>
<!-- Node1&#45;&gt;Node4 -->
<g id="edge6" class="edge"><title>Node1&#45;&gt;Node4</title>
<path fill="none" stroke="midnightblue" d="M332.807,-58.4007C341.451,-48.4532 350.454,-38.0946 357.829,-29.6073"/>
<polygon fill="midnightblue" stroke="midnightblue" points="360.672,-31.6722 364.59,-21.8283 355.388,-27.0805 360.672,-31.6722"/>
</g>
<!-- Node5 -->
<g id="node9" class="node"><title>Node5</title>
<polygon fill="white" stroke="#bfbfbf" points="469.5,-0.5 469.5,-21.5 644.5,-21.5 644.5,-0.5 469.5,-0.5"/>
<text text-anchor="middle" x="557" y="-8.5" font-family="Helvetica,sans-Serif" font-size="10.00">data_broker/DataPackageMapping.h</text>
</g>
<!-- Node1&#45;&gt;Node5 -->
<g id="edge8" class="edge"><title>Node1&#45;&gt;Node5</title>
<path fill="none" stroke="midnightblue" d="M372.651,-71.4896C418.546,-56.4303 476.516,-37.4088 515.072,-24.7577"/>
<polygon fill="midnightblue" stroke="midnightblue" points="516.51,-27.9694 524.921,-21.5261 514.328,-21.3183 516.51,-27.9694"/>
</g>
</g>
</svg>
