<?xml version="1.0" encoding="UTF-8" standalone="no"?>
<!DOCTYPE svg PUBLIC "-//W3C//DTD SVG 1.1//EN"
 "http://www.w3.org/Graphics/SVG/1.1/DTD/svg11.dtd">
<!-- Generated by graphviz version 2.26.3 (20100126.1600)
 -->
<!-- Title: /home/kavonszadkowski/limes&#45;dev/simulation/mars/common/cfg_manager/src/CFGParam.h Pages: 1 -->
<svg width="483pt" height="244pt"
 viewBox="0.00 0.00 483.26 244.00" xmlns="http://www.w3.org/2000/svg" xmlns:xlink="http://www.w3.org/1999/xlink">
<g id="graph1" class="graph" transform="scale(1 1) rotate(0) translate(4 240)">
<title>/home/kavonszadkowski/limes&#45;dev/simulation/mars/common/cfg_manager/src/CFGParam.h</title>
<polygon fill="white" stroke="white" points="-4,5 -4,-240 480.264,-240 480.264,5 -4,5"/>
<!-- Node1 -->
<g id="node1" class="node"><title>Node1</title>
<polygon fill="#bfbfbf" stroke="black" points="79.7638,-175 79.7638,-235 220.764,-235 220.764,-175 79.7638,-175"/>
<text text-anchor="start" x="87.7638" y="-222" font-family="Helvetica,sans-Serif" font-size="10.00">/home/kavonszadkowski</text>
<text text-anchor="start" x="87.7638" y="-209" font-family="Helvetica,sans-Serif" font-size="10.00">/limes&#45;dev/simulation</text>
<text text-anchor="start" x="87.7638" y="-196" font-family="Helvetica,sans-Serif" font-size="10.00">/mars/common/cfg_manager</text>
<text text-anchor="middle" x="150.264" y="-183" font-family="Helvetica,sans-Serif" font-size="10.00">/src/CFGParam.h</text>
</g>
<!-- Node2 -->
<g id="node3" class="node"><title>Node2</title>
<a xlink:href="../../d3/d8b/_c_f_g_defs_8h.html" target="_top" xlink:title="This file stores types and structs for the CFG class. ">
<polygon fill="white" stroke="black" points="22.7638,-58.5 22.7638,-79.5 89.7638,-79.5 89.7638,-58.5 22.7638,-58.5"/>
<text text-anchor="middle" x="56.2638" y="-66.5" font-family="Helvetica,sans-Serif" font-size="10.00">CFGDefs.h</text>
</a>
</g>
<!-- Node1&#45;&gt;Node2 -->
<g id="edge2" class="edge"><title>Node1&#45;&gt;Node2</title>
<path fill="none" stroke="midnightblue" d="M79.4426,-187.735C53.7278,-177.674 27.316,-162.04 12.2638,-138 1.22052,-120.362 17.2172,-100.32 32.9274,-86.3987"/>
<polygon fill="midnightblue" stroke="midnightblue" points="35.5125,-88.8016 40.972,-79.7217 31.0418,-83.4152 35.5125,-88.8016"/>
</g>
<!-- Node3 -->
<g id="node5" class="node"><title>Node3</title>
<polygon fill="white" stroke="#bfbfbf" points="35.7638,-0.5 35.7638,-21.5 76.7638,-21.5 76.7638,-0.5 35.7638,-0.5"/>
<text text-anchor="middle" x="56.2638" y="-8.5" font-family="Helvetica,sans-Serif" font-size="10.00">string</text>
</g>
<!-- Node1&#45;&gt;Node3 -->
<g id="edge20" class="edge"><title>Node1&#45;&gt;Node3</title>
<path fill="none" stroke="midnightblue" d="M79.6543,-190.209C51.18,-180.403 21.1268,-164.292 4.26377,-138 -5.26583,-123.142 3.76424,-79.7353 14.2638,-58 19.4759,-47.2103 27.9133,-37.0519 35.8634,-28.9588"/>
<polygon fill="midnightblue" stroke="midnightblue" points="38.7283,-31.0599 43.5135,-21.6072 33.878,-26.0126 38.7283,-31.0599"/>
</g>
<!-- Node4 -->
<g id="node7" class="node"><title>Node4</title>
<a xlink:href="../../da/d11/_c_f_g_property_8h.html" target="_top" xlink:title="CFGProperty holds the value for one property of a CFGParam. ">
<polygon fill="white" stroke="black" points="108.764,-116.5 108.764,-137.5 191.764,-137.5 191.764,-116.5 108.764,-116.5"/>
<text text-anchor="middle" x="150.264" y="-124.5" font-family="Helvetica,sans-Serif" font-size="10.00">CFGProperty.h</text>
</a>
</g>
<!-- Node1&#45;&gt;Node4 -->
<g id="edge6" class="edge"><title>Node1&#45;&gt;Node4</title>
<path fill="none" stroke="midnightblue" d="M150.264,-174.62C150.264,-165.68 150.264,-156.103 150.264,-147.9"/>
<polygon fill="midnightblue" stroke="midnightblue" points="153.764,-147.753 150.264,-137.753 146.764,-147.753 153.764,-147.753"/>
</g>
<!-- Node5 -->
<g id="node11" class="node"><title>Node5</title>
<a xlink:href="../../d4/dce/_c_f_g_client_8h.html" target="_top" xlink:title="&#39;CFGClient&#39; is a interface to register to a value ">
<polygon fill="white" stroke="black" points="20.7638,-116.5 20.7638,-137.5 91.7638,-137.5 91.7638,-116.5 20.7638,-116.5"/>
<text text-anchor="middle" x="56.2638" y="-124.5" font-family="Helvetica,sans-Serif" font-size="10.00">CFGClient.h</text>
</a>
</g>
<!-- Node1&#45;&gt;Node5 -->
<g id="edge12" class="edge"><title>Node1&#45;&gt;Node5</title>
<path fill="none" stroke="midnightblue" d="M113.921,-174.843C101.528,-164.56 88.092,-153.411 77.3102,-144.464"/>
<polygon fill="midnightblue" stroke="midnightblue" points="79.2339,-141.512 69.3032,-137.82 74.7638,-146.899 79.2339,-141.512"/>
</g>
<!-- Node6 -->
<g id="node14" class="node"><title>Node6</title>
<polygon fill="white" stroke="#bfbfbf" points="208.764,-116.5 208.764,-137.5 297.764,-137.5 297.764,-116.5 208.764,-116.5"/>
<text text-anchor="middle" x="253.264" y="-124.5" font-family="Helvetica,sans-Serif" font-size="10.00">yaml&#45;cpp/yaml.h</text>
</g>
<!-- Node1&#45;&gt;Node6 -->
<g id="edge16" class="edge"><title>Node1&#45;&gt;Node6</title>
<path fill="none" stroke="midnightblue" d="M190.086,-174.843C203.934,-164.356 218.972,-152.969 230.901,-143.935"/>
<polygon fill="midnightblue" stroke="midnightblue" points="233.117,-146.647 238.976,-137.82 228.891,-141.067 233.117,-146.647"/>
</g>
<!-- Node7 -->
<g id="node16" class="node"><title>Node7</title>
<polygon fill="white" stroke="#bfbfbf" points="315.264,-116.5 315.264,-137.5 413.264,-137.5 413.264,-116.5 315.264,-116.5"/>
<text text-anchor="middle" x="364.264" y="-124.5" font-family="Helvetica,sans-Serif" font-size="10.00">mars/utils/Mutex.h</text>
</g>
<!-- Node1&#45;&gt;Node7 -->
<g id="edge18" class="edge"><title>Node1&#45;&gt;Node7</title>
<path fill="none" stroke="midnightblue" d="M220.928,-179.244C255.93,-166.486 296.818,-151.583 325.946,-140.966"/>
<polygon fill="midnightblue" stroke="midnightblue" points="327.15,-144.253 335.347,-137.54 324.753,-137.676 327.15,-144.253"/>
</g>
<!-- Node8 -->
<g id="node19" class="node"><title>Node8</title>
<polygon fill="white" stroke="#bfbfbf" points="431.264,-116.5 431.264,-137.5 475.264,-137.5 475.264,-116.5 431.264,-116.5"/>
<text text-anchor="middle" x="453.264" y="-124.5" font-family="Helvetica,sans-Serif" font-size="10.00">vector</text>
</g>
<!-- Node1&#45;&gt;Node8 -->
<g id="edge22" class="edge"><title>Node1&#45;&gt;Node8</title>
<path fill="none" stroke="midnightblue" d="M220.946,-189.62C273.782,-177.657 347.9,-159.891 421.142,-138.151"/>
<polygon fill="midnightblue" stroke="midnightblue" points="422.425,-141.42 431,-135.198 420.416,-134.714 422.425,-141.42"/>
</g>
<!-- Node2&#45;&gt;Node3 -->
<g id="edge4" class="edge"><title>Node2&#45;&gt;Node3</title>
<path fill="none" stroke="midnightblue" d="M56.2638,-58.3619C56.2638,-50.9219 56.2638,-40.7427 56.2638,-31.7276"/>
<polygon fill="midnightblue" stroke="midnightblue" points="59.7639,-31.5706 56.2638,-21.5707 52.7639,-31.5707 59.7639,-31.5706"/>
</g>
<!-- Node4&#45;&gt;Node2 -->
<g id="edge8" class="edge"><title>Node4&#45;&gt;Node2</title>
<path fill="none" stroke="midnightblue" d="M133.023,-116.362C118.712,-107.532 98.1488,-94.844 81.907,-84.8224"/>
<polygon fill="midnightblue" stroke="midnightblue" points="83.7438,-81.8431 73.3955,-79.5707 80.068,-87.8004 83.7438,-81.8431"/>
</g>
<!-- Node4&#45;&gt;Node3 -->
<g id="edge10" class="edge"><title>Node4&#45;&gt;Node3</title>
<path fill="none" stroke="midnightblue" d="M142.431,-116.028C132.483,-102.232 114.638,-77.9384 98.2638,-58 90.2641,-48.2588 80.9602,-37.7683 73.1453,-29.175"/>
<polygon fill="midnightblue" stroke="midnightblue" points="75.5392,-26.6069 66.2002,-21.6037 70.3808,-31.3388 75.5392,-26.6069"/>
</g>
<!-- Node5&#45;&gt;Node2 -->
<g id="edge14" class="edge"><title>Node5&#45;&gt;Node2</title>
<path fill="none" stroke="midnightblue" d="M56.2638,-116.362C56.2638,-108.922 56.2638,-98.7427 56.2638,-89.7276"/>
<polygon fill="midnightblue" stroke="midnightblue" points="59.7639,-89.5706 56.2638,-79.5707 52.7639,-89.5707 59.7639,-89.5706"/>
</g>
</g>
</svg>
