<?xml version="1.0" encoding="UTF-8" standalone="no"?>
<!DOCTYPE svg PUBLIC "-//W3C//DTD SVG 1.1//EN"
 "http://www.w3.org/Graphics/SVG/1.1/DTD/svg11.dtd">
<!-- Generated by graphviz version 2.36.0 (20140111.2315)
 -->
<!-- Title: /media/kavonszadkowski/work/marsdocs/mars/common/cfg_manager/src/CFGParam.h Pages: 1 -->
<svg width="486pt" height="218pt"
 viewBox="0.00 0.00 485.87 218.00" xmlns="http://www.w3.org/2000/svg" xmlns:xlink="http://www.w3.org/1999/xlink">
<g id="graph0" class="graph" transform="scale(1 1) rotate(0) translate(4 214)">
<title>/media/kavonszadkowski/work/marsdocs/mars/common/cfg_manager/src/CFGParam.h</title>
<polygon fill="white" stroke="none" points="-4,4 -4,-214 481.868,-214 481.868,4 -4,4"/>
<!-- Node1 -->
<g id="node1" class="node"><title>Node1</title>
<polygon fill="#bfbfbf" stroke="black" points="75.3677,-168.5 75.3677,-209.5 228.368,-209.5 228.368,-168.5 75.3677,-168.5"/>
<text text-anchor="start" x="83.3677" y="-197.5" font-family="Helvetica,sans-Serif" font-size="10.00">/media/kavonszadkowski</text>
<text text-anchor="start" x="83.3677" y="-186.5" font-family="Helvetica,sans-Serif" font-size="10.00">/work/marsdocs/mars/common</text>
<text text-anchor="middle" x="151.868" y="-175.5" font-family="Helvetica,sans-Serif" font-size="10.00">/cfg_manager/src/CFGParam.h</text>
</g>
<!-- Node2 -->
<g id="node2" class="node"><title>Node2</title>
<g id="a_node2"><a xlink:href="../../d3/d8b/_c_f_g_defs_8h.html" target="_top" xlink:title="This file stores types and structs for the CFG class. ">
<polygon fill="white" stroke="black" points="23.3677,-56.5 23.3677,-75.5 90.3677,-75.5 90.3677,-56.5 23.3677,-56.5"/>
<text text-anchor="middle" x="56.8677" y="-63.5" font-family="Helvetica,sans-Serif" font-size="10.00">CFGDefs.h</text>
</a>
</g>
</g>
<!-- Node1&#45;&gt;Node2 -->
<g id="edge1" class="edge"><title>Node1&#45;&gt;Node2</title>
<path fill="none" stroke="midnightblue" d="M75.2472,-174.985C50.871,-166.831 26.4704,-153.569 11.8677,-132 0.138687,-114.676 18.3313,-94.9375 34.9716,-81.8019"/>
<polygon fill="midnightblue" stroke="midnightblue" points="37.4142,-84.3482 43.3651,-75.5825 33.2467,-78.7239 37.4142,-84.3482"/>
</g>
<!-- Node3 -->
<g id="node3" class="node"><title>Node3</title>
<polygon fill="white" stroke="#bfbfbf" points="36.3677,-0.5 36.3677,-19.5 77.3677,-19.5 77.3677,-0.5 36.3677,-0.5"/>
<text text-anchor="middle" x="56.8677" y="-7.5" font-family="Helvetica,sans-Serif" font-size="10.00">string</text>
</g>
<!-- Node1&#45;&gt;Node3 -->
<g id="edge10" class="edge"><title>Node1&#45;&gt;Node3</title>
<path fill="none" stroke="midnightblue" d="M74.9837,-176.951C48.2674,-169.014 20.9847,-155.387 4.86773,-132 -4.36116,-118.608 1.10573,-81.693 13.8677,-56 19.5355,-44.5894 29.1039,-34.1439 37.7775,-26.195"/>
<polygon fill="midnightblue" stroke="midnightblue" points="40.081,-28.8303 45.3541,-19.6408 35.5013,-23.5362 40.081,-28.8303"/>
</g>
<!-- Node4 -->
<g id="node4" class="node"><title>Node4</title>
<g id="a_node4"><a xlink:href="../../da/d11/_c_f_g_property_8h.html" target="_top" xlink:title="CFGProperty holds the value for one property of a CFGParam. ">
<polygon fill="white" stroke="black" points="110.368,-112.5 110.368,-131.5 193.368,-131.5 193.368,-112.5 110.368,-112.5"/>
<text text-anchor="middle" x="151.868" y="-119.5" font-family="Helvetica,sans-Serif" font-size="10.00">CFGProperty.h</text>
</a>
</g>
</g>
<!-- Node1&#45;&gt;Node4 -->
<g id="edge3" class="edge"><title>Node1&#45;&gt;Node4</title>
<path fill="none" stroke="midnightblue" d="M151.868,-168.498C151.868,-160.065 151.868,-150.235 151.868,-141.874"/>
<polygon fill="midnightblue" stroke="midnightblue" points="155.368,-141.652 151.868,-131.652 148.368,-141.653 155.368,-141.652"/>
</g>
<!-- Node5 -->
<g id="node5" class="node"><title>Node5</title>
<g id="a_node5"><a xlink:href="../../d4/dce/_c_f_g_client_8h.html" target="_top" xlink:title="&#39;CFGClient&#39; is a interface to register to a value ">
<polygon fill="white" stroke="black" points="21.3677,-112.5 21.3677,-131.5 92.3677,-131.5 92.3677,-112.5 21.3677,-112.5"/>
<text text-anchor="middle" x="56.8677" y="-119.5" font-family="Helvetica,sans-Serif" font-size="10.00">CFGClient.h</text>
</a>
</g>
</g>
<!-- Node1&#45;&gt;Node5 -->
<g id="edge6" class="edge"><title>Node1&#45;&gt;Node5</title>
<path fill="none" stroke="midnightblue" d="M123.365,-168.498C108.799,-158.532 91.3808,-146.614 78.0255,-137.476"/>
<polygon fill="midnightblue" stroke="midnightblue" points="79.7432,-134.411 69.5137,-131.652 75.7904,-140.188 79.7432,-134.411"/>
</g>
<!-- Node6 -->
<g id="node6" class="node"><title>Node6</title>
<polygon fill="white" stroke="#bfbfbf" points="211.368,-112.5 211.368,-131.5 300.368,-131.5 300.368,-112.5 211.368,-112.5"/>
<text text-anchor="middle" x="255.868" y="-119.5" font-family="Helvetica,sans-Serif" font-size="10.00">yaml&#45;cpp/yaml.h</text>
</g>
<!-- Node1&#45;&gt;Node6 -->
<g id="edge8" class="edge"><title>Node1&#45;&gt;Node6</title>
<path fill="none" stroke="midnightblue" d="M183.071,-168.498C199.17,-158.436 218.452,-146.385 233.126,-137.214"/>
<polygon fill="midnightblue" stroke="midnightblue" points="235.399,-139.921 242.024,-131.652 231.689,-133.985 235.399,-139.921"/>
</g>
<!-- Node7 -->
<g id="node7" class="node"><title>Node7</title>
<polygon fill="white" stroke="#bfbfbf" points="317.868,-112.5 317.868,-131.5 415.868,-131.5 415.868,-112.5 317.868,-112.5"/>
<text text-anchor="middle" x="366.868" y="-119.5" font-family="Helvetica,sans-Serif" font-size="10.00">mars/utils/Mutex.h</text>
</g>
<!-- Node1&#45;&gt;Node7 -->
<g id="edge9" class="edge"><title>Node1&#45;&gt;Node7</title>
<path fill="none" stroke="midnightblue" d="M216.375,-168.498C253.095,-157.396 297.828,-143.872 328.937,-134.468"/>
<polygon fill="midnightblue" stroke="midnightblue" points="329.971,-137.811 338.53,-131.567 327.945,-131.111 329.971,-137.811"/>
</g>
<!-- Node8 -->
<g id="node8" class="node"><title>Node8</title>
<polygon fill="white" stroke="#bfbfbf" points="433.868,-112.5 433.868,-131.5 477.868,-131.5 477.868,-112.5 433.868,-112.5"/>
<text text-anchor="middle" x="455.868" y="-119.5" font-family="Helvetica,sans-Serif" font-size="10.00">vector</text>
</g>
<!-- Node1&#45;&gt;Node8 -->
<g id="edge11" class="edge"><title>Node1&#45;&gt;Node8</title>
<path fill="none" stroke="midnightblue" d="M228.4,-173.752C280.627,-163.679 351.568,-149.314 423.401,-131.965"/>
<polygon fill="midnightblue" stroke="midnightblue" points="424.653,-135.263 433.542,-129.498 422.997,-128.462 424.653,-135.263"/>
</g>
<!-- Node2&#45;&gt;Node3 -->
<g id="edge2" class="edge"><title>Node2&#45;&gt;Node3</title>
<path fill="none" stroke="midnightblue" d="M56.8677,-56.083C56.8677,-49.0059 56.8677,-38.8611 56.8677,-29.9865"/>
<polygon fill="midnightblue" stroke="midnightblue" points="60.3678,-29.751 56.8677,-19.7511 53.3678,-29.7511 60.3678,-29.751"/>
</g>
<!-- Node4&#45;&gt;Node2 -->
<g id="edge4" class="edge"><title>Node4&#45;&gt;Node2</title>
<path fill="none" stroke="midnightblue" d="M136.604,-112.324C121.646,-103.822 98.6129,-90.7288 81.1411,-80.7975"/>
<polygon fill="midnightblue" stroke="midnightblue" points="82.5165,-77.5534 72.0932,-75.6545 79.0573,-83.639 82.5165,-77.5534"/>
</g>
<!-- Node4&#45;&gt;Node3 -->
<g id="edge5" class="edge"><title>Node4&#45;&gt;Node3</title>
<path fill="none" stroke="midnightblue" d="M145.184,-112.436C135.302,-99.86 116.1,-75.7474 98.8677,-56 90.3482,-46.2371 80.4772,-35.6275 72.446,-27.1633"/>
<polygon fill="midnightblue" stroke="midnightblue" points="74.8527,-24.6158 65.414,-19.8032 69.7915,-29.4515 74.8527,-24.6158"/>
</g>
<!-- Node5&#45;&gt;Node2 -->
<g id="edge7" class="edge"><title>Node5&#45;&gt;Node2</title>
<path fill="none" stroke="midnightblue" d="M56.8677,-112.083C56.8677,-105.006 56.8677,-94.8611 56.8677,-85.9865"/>
<polygon fill="midnightblue" stroke="midnightblue" points="60.3678,-85.751 56.8677,-75.7511 53.3678,-85.7511 60.3678,-85.751"/>
</g>
</g>
</svg>
