<?xml version="1.0" encoding="UTF-8" standalone="no"?>
<!DOCTYPE svg PUBLIC "-//W3C//DTD SVG 1.1//EN"
 "http://www.w3.org/Graphics/SVG/1.1/DTD/svg11.dtd">
<!-- Generated by graphviz version 2.36.0 (20140111.2315)
 -->
<!-- Title: /media/kavonszadkowski/work/marsdocs/mars/entity_generation/smurf/src/smurf.cpp Pages: 1 -->
<svg width="3074pt" height="206pt"
 viewBox="0.00 0.00 3074.00 206.00" xmlns="http://www.w3.org/2000/svg" xmlns:xlink="http://www.w3.org/1999/xlink">
<g id="graph0" class="graph" transform="scale(1 1) rotate(0) translate(4 202)">
<title>/media/kavonszadkowski/work/marsdocs/mars/entity_generation/smurf/src/smurf.cpp</title>
<polygon fill="white" stroke="none" points="-4,4 -4,-202 3070,-202 3070,4 -4,4"/>
<!-- Node1 -->
<g id="node1" class="node"><title>Node1</title>
<polygon fill="#bfbfbf" stroke="black" points="1771,-156.5 1771,-197.5 1929,-197.5 1929,-156.5 1771,-156.5"/>
<text text-anchor="start" x="1779" y="-185.5" font-family="Helvetica,sans-Serif" font-size="10.00">/media/kavonszadkowski</text>
<text text-anchor="start" x="1779" y="-174.5" font-family="Helvetica,sans-Serif" font-size="10.00">/work/marsdocs/mars/entity</text>
<text text-anchor="middle" x="1850" y="-163.5" font-family="Helvetica,sans-Serif" font-size="10.00">_generation/smurf/src/smurf.cpp</text>
</g>
<!-- Node2 -->
<g id="node2" class="node"><title>Node2</title>
<g id="a_node2"><a xlink:href="../../de/dc1/smurf_8h.html" target="_top" xlink:title="smurf.h">
<polygon fill="white" stroke="black" points="687,-89.5 687,-108.5 737,-108.5 737,-89.5 687,-89.5"/>
<text text-anchor="middle" x="712" y="-96.5" font-family="Helvetica,sans-Serif" font-size="10.00">smurf.h</text>
</a>
</g>
</g>
<!-- Node1&#45;&gt;Node2 -->
<g id="edge1" class="edge"><title>Node1&#45;&gt;Node2</title>
<path fill="none" stroke="midnightblue" d="M1770.77,-176.73C1551.31,-178.002 939.059,-176.255 747,-120 742.055,-118.552 737.06,-116.282 732.452,-113.784"/>
<polygon fill="midnightblue" stroke="midnightblue" points="734.054,-110.663 723.677,-108.523 730.454,-116.667 734.054,-110.663"/>
</g>
<!-- Node15 -->
<g id="node15" class="node"><title>Node15</title>
<polygon fill="white" stroke="#bfbfbf" points="755.5,-84 755.5,-114 900.5,-114 900.5,-84 755.5,-84"/>
<text text-anchor="start" x="763.5" y="-102" font-family="Helvetica,sans-Serif" font-size="10.00">mars/data_broker/DataBroker</text>
<text text-anchor="middle" x="828" y="-91" font-family="Helvetica,sans-Serif" font-size="10.00">Interface.h</text>
</g>
<!-- Node1&#45;&gt;Node15 -->
<g id="edge14" class="edge"><title>Node1&#45;&gt;Node15</title>
<path fill="none" stroke="midnightblue" d="M1770.89,-176.068C1608.56,-175.159 1226.46,-167.623 910,-120 903.282,-118.989 896.309,-117.688 889.392,-116.236"/>
<polygon fill="midnightblue" stroke="midnightblue" points="889.855,-112.754 879.335,-114.016 888.346,-119.589 889.855,-112.754"/>
</g>
<!-- Node16 -->
<g id="node16" class="node"><title>Node16</title>
<polygon fill="white" stroke="#bfbfbf" points="918.5,-84 918.5,-114 1047.5,-114 1047.5,-84 918.5,-84"/>
<text text-anchor="start" x="926.5" y="-102" font-family="Helvetica,sans-Serif" font-size="10.00">mars/interfaces/sim</text>
<text text-anchor="middle" x="983" y="-91" font-family="Helvetica,sans-Serif" font-size="10.00">/EntityManagerInterface.h</text>
</g>
<!-- Node1&#45;&gt;Node16 -->
<g id="edge15" class="edge"><title>Node1&#45;&gt;Node16</title>
<path fill="none" stroke="midnightblue" d="M1770.9,-175.461C1627.55,-173.367 1315.74,-163.678 1057,-120 1051.28,-119.035 1045.37,-117.819 1039.49,-116.466"/>
<polygon fill="midnightblue" stroke="midnightblue" points="1040.22,-113.041 1029.67,-114.079 1038.56,-119.843 1040.22,-113.041"/>
</g>
<!-- Node17 -->
<g id="node17" class="node"><title>Node17</title>
<polygon fill="white" stroke="#bfbfbf" points="1065.5,-84 1065.5,-114 1172.5,-114 1172.5,-84 1065.5,-84"/>
<text text-anchor="start" x="1073.5" y="-102" font-family="Helvetica,sans-Serif" font-size="10.00">mars/interfaces/sim</text>
<text text-anchor="middle" x="1119" y="-91" font-family="Helvetica,sans-Serif" font-size="10.00">/SimulatorInterface.h</text>
</g>
<!-- Node1&#45;&gt;Node17 -->
<g id="edge16" class="edge"><title>Node1&#45;&gt;Node17</title>
<path fill="none" stroke="midnightblue" d="M1770.79,-175.069C1644.9,-172.316 1391.91,-161.573 1182,-120 1177.57,-119.124 1173.02,-118.045 1168.49,-116.846"/>
<polygon fill="midnightblue" stroke="midnightblue" points="1169.22,-113.415 1158.64,-114.064 1167.31,-120.151 1169.22,-113.415"/>
</g>
<!-- Node18 -->
<g id="node18" class="node"><title>Node18</title>
<polygon fill="white" stroke="#bfbfbf" points="1190.5,-84 1190.5,-114 1317.5,-114 1317.5,-84 1190.5,-84"/>
<text text-anchor="start" x="1198.5" y="-102" font-family="Helvetica,sans-Serif" font-size="10.00">mars/interfaces/sim</text>
<text text-anchor="middle" x="1254" y="-91" font-family="Helvetica,sans-Serif" font-size="10.00">/NodeManagerInterface.h</text>
</g>
<!-- Node1&#45;&gt;Node18 -->
<g id="edge17" class="edge"><title>Node1&#45;&gt;Node18</title>
<path fill="none" stroke="midnightblue" d="M1770.56,-171.48C1667.56,-164.711 1482.67,-149.461 1327,-120 1321.67,-118.992 1316.17,-117.79 1310.68,-116.482"/>
<polygon fill="midnightblue" stroke="midnightblue" points="1311.41,-113.057 1300.86,-114.032 1309.72,-119.849 1311.41,-113.057"/>
</g>
<!-- Node19 -->
<g id="node19" class="node"><title>Node19</title>
<polygon fill="white" stroke="#bfbfbf" points="1335.5,-84 1335.5,-114 1460.5,-114 1460.5,-84 1335.5,-84"/>
<text text-anchor="start" x="1343.5" y="-102" font-family="Helvetica,sans-Serif" font-size="10.00">mars/interfaces/sim</text>
<text text-anchor="middle" x="1398" y="-91" font-family="Helvetica,sans-Serif" font-size="10.00">/JointManagerInterface.h</text>
</g>
<!-- Node1&#45;&gt;Node19 -->
<g id="edge18" class="edge"><title>Node1&#45;&gt;Node19</title>
<path fill="none" stroke="midnightblue" d="M1770.89,-167.258C1693.67,-158.04 1573.08,-141.823 1470,-120 1465.25,-118.995 1460.35,-117.856 1455.45,-116.645"/>
<polygon fill="midnightblue" stroke="midnightblue" points="1455.99,-113.169 1445.43,-114.076 1454.25,-119.95 1455.99,-113.169"/>
</g>
<!-- Node20 -->
<g id="node20" class="node"><title>Node20</title>
<polygon fill="white" stroke="#bfbfbf" points="1479,-84 1479,-114 1613,-114 1613,-84 1479,-84"/>
<text text-anchor="start" x="1487" y="-102" font-family="Helvetica,sans-Serif" font-size="10.00">mars/interfaces/sim</text>
<text text-anchor="middle" x="1546" y="-91" font-family="Helvetica,sans-Serif" font-size="10.00">/SensorManagerInterface.h</text>
</g>
<!-- Node1&#45;&gt;Node20 -->
<g id="edge19" class="edge"><title>Node1&#45;&gt;Node20</title>
<path fill="none" stroke="midnightblue" d="M1770.78,-156.883C1726.89,-146.206 1671.38,-132.56 1622,-120 1617.72,-118.911 1613.31,-117.778 1608.86,-116.629"/>
<polygon fill="midnightblue" stroke="midnightblue" points="1609.68,-113.226 1599.12,-114.099 1607.92,-120.001 1609.68,-113.226"/>
</g>
<!-- Node21 -->
<g id="node21" class="node"><title>Node21</title>
<polygon fill="white" stroke="#bfbfbf" points="1631,-84 1631,-114 1759,-114 1759,-84 1631,-84"/>
<text text-anchor="start" x="1639" y="-102" font-family="Helvetica,sans-Serif" font-size="10.00">mars/interfaces/sim</text>
<text text-anchor="middle" x="1695" y="-91" font-family="Helvetica,sans-Serif" font-size="10.00">/MotorManagerInterface.h</text>
</g>
<!-- Node1&#45;&gt;Node21 -->
<g id="edge20" class="edge"><title>Node1&#45;&gt;Node21</title>
<path fill="none" stroke="midnightblue" d="M1810.08,-156.428C1786.43,-144.832 1756.62,-130.214 1733.27,-118.762"/>
<polygon fill="midnightblue" stroke="midnightblue" points="1734.53,-115.485 1724.01,-114.225 1731.45,-121.77 1734.53,-115.485"/>
</g>
<!-- Node22 -->
<g id="node22" class="node"><title>Node22</title>
<polygon fill="white" stroke="#bfbfbf" points="1777,-84 1777,-114 1923,-114 1923,-84 1777,-84"/>
<text text-anchor="start" x="1785" y="-102" font-family="Helvetica,sans-Serif" font-size="10.00">mars/interfaces/sim</text>
<text text-anchor="middle" x="1850" y="-91" font-family="Helvetica,sans-Serif" font-size="10.00">/ControllerManagerInterface.h</text>
</g>
<!-- Node1&#45;&gt;Node22 -->
<g id="edge21" class="edge"><title>Node1&#45;&gt;Node22</title>
<path fill="none" stroke="midnightblue" d="M1850,-156.428C1850,-146.635 1850,-134.688 1850,-124.313"/>
<polygon fill="midnightblue" stroke="midnightblue" points="1853.5,-124.225 1850,-114.225 1846.5,-124.225 1853.5,-124.225"/>
</g>
<!-- Node23 -->
<g id="node23" class="node"><title>Node23</title>
<polygon fill="white" stroke="#bfbfbf" points="1941.5,-84 1941.5,-114 2084.5,-114 2084.5,-84 1941.5,-84"/>
<text text-anchor="start" x="1949.5" y="-102" font-family="Helvetica,sans-Serif" font-size="10.00">mars/interfaces/graphics</text>
<text text-anchor="middle" x="2013" y="-91" font-family="Helvetica,sans-Serif" font-size="10.00">/GraphicsManagerInterface.h</text>
</g>
<!-- Node1&#45;&gt;Node23 -->
<g id="edge22" class="edge"><title>Node1&#45;&gt;Node23</title>
<path fill="none" stroke="midnightblue" d="M1891.98,-156.428C1917.15,-144.689 1948.97,-129.855 1973.66,-118.343"/>
<polygon fill="midnightblue" stroke="midnightblue" points="1975.16,-121.505 1982.75,-114.106 1972.2,-115.16 1975.16,-121.505"/>
</g>
<!-- Node24 -->
<g id="node24" class="node"><title>Node24</title>
<polygon fill="white" stroke="#bfbfbf" points="2102.5,-89.5 2102.5,-108.5 2213.5,-108.5 2213.5,-89.5 2102.5,-89.5"/>
<text text-anchor="middle" x="2158" y="-96.5" font-family="Helvetica,sans-Serif" font-size="10.00">mars/sim/SimEntity.h</text>
</g>
<!-- Node1&#45;&gt;Node24 -->
<g id="edge23" class="edge"><title>Node1&#45;&gt;Node24</title>
<path fill="none" stroke="midnightblue" d="M1929.15,-159.27C1976.83,-148.817 2038.65,-134.605 2093,-120 2102.46,-117.458 2112.62,-114.462 2122.03,-111.574"/>
<polygon fill="midnightblue" stroke="midnightblue" points="2123.37,-114.823 2131.87,-108.509 2121.29,-108.139 2123.37,-114.823"/>
</g>
<!-- Node25 -->
<g id="node25" class="node"><title>Node25</title>
<polygon fill="white" stroke="#bfbfbf" points="2232,-89.5 2232,-108.5 2342,-108.5 2342,-89.5 2232,-89.5"/>
<text text-anchor="middle" x="2287" y="-96.5" font-family="Helvetica,sans-Serif" font-size="10.00">mars/sim/SimMotor.h</text>
</g>
<!-- Node1&#45;&gt;Node25 -->
<g id="edge24" class="edge"><title>Node1&#45;&gt;Node25</title>
<path fill="none" stroke="midnightblue" d="M1929.02,-167.57C2004.76,-158.676 2122.02,-142.773 2222,-120 2232,-117.723 2242.69,-114.69 2252.46,-111.675"/>
<polygon fill="midnightblue" stroke="midnightblue" points="2253.76,-114.933 2262.23,-108.572 2251.64,-108.261 2253.76,-114.933"/>
</g>
<!-- Node26 -->
<g id="node26" class="node"><title>Node26</title>
<polygon fill="white" stroke="#bfbfbf" points="2360,-78.5 2360,-119.5 2500,-119.5 2500,-78.5 2360,-78.5"/>
<text text-anchor="start" x="2368" y="-107.5" font-family="Helvetica,sans-Serif" font-size="10.00">mars/entity_generation</text>
<text text-anchor="start" x="2368" y="-96.5" font-family="Helvetica,sans-Serif" font-size="10.00">/entity_factory/EntityFactory</text>
<text text-anchor="middle" x="2430" y="-85.5" font-family="Helvetica,sans-Serif" font-size="10.00">Manager.h</text>
</g>
<!-- Node1&#45;&gt;Node26 -->
<g id="edge25" class="edge"><title>Node1&#45;&gt;Node26</title>
<path fill="none" stroke="midnightblue" d="M1929.02,-170.523C2026.02,-163.047 2195.62,-147.542 2349.77,-120.101"/>
<polygon fill="midnightblue" stroke="midnightblue" points="2350.68,-123.494 2359.9,-118.276 2349.44,-116.605 2350.68,-123.494"/>
</g>
<!-- Node27 -->
<g id="node27" class="node"><title>Node27</title>
<polygon fill="white" stroke="#bfbfbf" points="2518,-89.5 2518,-108.5 2658,-108.5 2658,-89.5 2518,-89.5"/>
<text text-anchor="middle" x="2588" y="-96.5" font-family="Helvetica,sans-Serif" font-size="10.00">mars/interfaces/Logging.hpp</text>
</g>
<!-- Node1&#45;&gt;Node27 -->
<g id="edge26" class="edge"><title>Node1&#45;&gt;Node27</title>
<path fill="none" stroke="midnightblue" d="M1929.14,-173.445C2053.39,-168.498 2301.49,-154.844 2509,-120 2522.21,-117.782 2536.46,-114.468 2549.17,-111.173"/>
<polygon fill="midnightblue" stroke="midnightblue" points="2550.22,-114.515 2558.98,-108.556 2548.41,-107.751 2550.22,-114.515"/>
</g>
<!-- Node28 -->
<g id="node28" class="node"><title>Node28</title>
<polygon fill="white" stroke="#bfbfbf" points="2676,-89.5 2676,-108.5 2768,-108.5 2768,-89.5 2676,-89.5"/>
<text text-anchor="middle" x="2722" y="-96.5" font-family="Helvetica,sans-Serif" font-size="10.00">mars/utils/misc.h</text>
</g>
<!-- Node1&#45;&gt;Node28 -->
<g id="edge27" class="edge"><title>Node1&#45;&gt;Node28</title>
<path fill="none" stroke="midnightblue" d="M1929.22,-173.395C2105.91,-167.127 2527.65,-149.498 2667,-120 2675.62,-118.175 2684.71,-115.291 2692.97,-112.275"/>
<polygon fill="midnightblue" stroke="midnightblue" points="2694.46,-115.451 2702.54,-108.593 2691.95,-108.918 2694.46,-115.451"/>
</g>
<!-- Node29 -->
<g id="node29" class="node"><title>Node29</title>
<polygon fill="white" stroke="#bfbfbf" points="2786.5,-89.5 2786.5,-108.5 2899.5,-108.5 2899.5,-89.5 2786.5,-89.5"/>
<text text-anchor="middle" x="2843" y="-96.5" font-family="Helvetica,sans-Serif" font-size="10.00">mars/utils/mathUtils.h</text>
</g>
<!-- Node1&#45;&gt;Node29 -->
<g id="edge28" class="edge"><title>Node1&#45;&gt;Node29</title>
<path fill="none" stroke="midnightblue" d="M1929.17,-173.597C2122.58,-167.343 2615.12,-149.003 2777,-120 2787.9,-118.048 2799.53,-114.897 2809.95,-111.668"/>
<polygon fill="midnightblue" stroke="midnightblue" points="2811.06,-114.988 2819.5,-108.585 2808.91,-108.326 2811.06,-114.988"/>
</g>
<!-- Node30 -->
<g id="node30" class="node"><title>Node30</title>
<polygon fill="white" stroke="#bfbfbf" points="2917.5,-89.5 2917.5,-108.5 3066.5,-108.5 3066.5,-89.5 2917.5,-89.5"/>
<text text-anchor="middle" x="2992" y="-96.5" font-family="Helvetica,sans-Serif" font-size="10.00">smurf_parser/SMURFParser.h</text>
</g>
<!-- Node1&#45;&gt;Node30 -->
<g id="edge29" class="edge"><title>Node1&#45;&gt;Node30</title>
<path fill="none" stroke="midnightblue" d="M1929.12,-176.68C2105.71,-177.137 2545.03,-172.376 2908,-120 2922.57,-117.898 2938.31,-114.467 2952.19,-111.035"/>
<polygon fill="midnightblue" stroke="midnightblue" points="2953.1,-114.416 2961.93,-108.556 2951.37,-107.633 2953.1,-114.416"/>
</g>
<!-- Node3 -->
<g id="node3" class="node"><title>Node3</title>
<polygon fill="white" stroke="#bfbfbf" points="-0.5,-11.5 -0.5,-30.5 34.5,-30.5 34.5,-11.5 -0.5,-11.5"/>
<text text-anchor="middle" x="17" y="-18.5" font-family="Helvetica,sans-Serif" font-size="10.00">map</text>
</g>
<!-- Node2&#45;&gt;Node3 -->
<g id="edge2" class="edge"><title>Node2&#45;&gt;Node3</title>
<path fill="none" stroke="midnightblue" d="M686.841,-97.7804C580.01,-96.5618 163.908,-88.8407 43,-42 39.8138,-40.7657 36.6929,-39.0113 33.7818,-37.0484"/>
<polygon fill="midnightblue" stroke="midnightblue" points="35.8612,-34.2316 25.8218,-30.8461 31.5587,-39.7533 35.8612,-34.2316"/>
</g>
<!-- Node4 -->
<g id="node4" class="node"><title>Node4</title>
<polygon fill="white" stroke="#bfbfbf" points="52.5,-11.5 52.5,-30.5 141.5,-30.5 141.5,-11.5 52.5,-11.5"/>
<text text-anchor="middle" x="97" y="-18.5" font-family="Helvetica,sans-Serif" font-size="10.00">yaml&#45;cpp/yaml.h</text>
</g>
<!-- Node2&#45;&gt;Node4 -->
<g id="edge3" class="edge"><title>Node2&#45;&gt;Node4</title>
<path fill="none" stroke="midnightblue" d="M686.747,-97.7596C607.011,-96.5187 353.893,-88.8855 151,-42 142.781,-40.1008 134.114,-37.2809 126.187,-34.3536"/>
<polygon fill="midnightblue" stroke="midnightblue" points="127.22,-31.0003 116.631,-30.6493 124.69,-37.5271 127.22,-31.0003"/>
</g>
<!-- Node5 -->
<g id="node5" class="node"><title>Node5</title>
<polygon fill="white" stroke="#bfbfbf" points="160,-11.5 160,-30.5 288,-30.5 288,-11.5 160,-11.5"/>
<text text-anchor="middle" x="224" y="-18.5" font-family="Helvetica,sans-Serif" font-size="10.00">configmaps/ConfigData.h</text>
</g>
<!-- Node2&#45;&gt;Node5 -->
<g id="edge4" class="edge"><title>Node2&#45;&gt;Node5</title>
<path fill="none" stroke="midnightblue" d="M686.539,-95.7567C621.309,-89.7523 443.045,-71.7218 297,-42 285.465,-39.6525 273.065,-36.4991 261.817,-33.3912"/>
<polygon fill="midnightblue" stroke="midnightblue" points="262.444,-29.9312 251.869,-30.5741 260.537,-36.6664 262.444,-29.9312"/>
</g>
<!-- Node6 -->
<g id="node6" class="node"><title>Node6</title>
<polygon fill="white" stroke="#bfbfbf" points="306,-6 306,-36 422,-36 422,-6 306,-6"/>
<text text-anchor="start" x="314" y="-24" font-family="Helvetica,sans-Serif" font-size="10.00">mars/interfaces/sensor</text>
<text text-anchor="middle" x="364" y="-13" font-family="Helvetica,sans-Serif" font-size="10.00">_bases.h</text>
</g>
<!-- Node2&#45;&gt;Node6 -->
<g id="edge5" class="edge"><title>Node2&#45;&gt;Node6</title>
<path fill="none" stroke="midnightblue" d="M686.636,-93.7643C637.156,-85.3211 524.418,-65.1977 431,-42 426.958,-40.9962 422.795,-39.9021 418.617,-38.7601"/>
<polygon fill="midnightblue" stroke="midnightblue" points="419.465,-35.3628 408.891,-36.0281 417.572,-42.102 419.465,-35.3628"/>
</g>
<!-- Node7 -->
<g id="node7" class="node"><title>Node7</title>
<polygon fill="white" stroke="#bfbfbf" points="440,-6 440,-36 562,-36 562,-6 440,-6"/>
<text text-anchor="start" x="448" y="-24" font-family="Helvetica,sans-Serif" font-size="10.00">mars/interfaces/Material</text>
<text text-anchor="middle" x="501" y="-13" font-family="Helvetica,sans-Serif" font-size="10.00">Data.h</text>
</g>
<!-- Node2&#45;&gt;Node7 -->
<g id="edge6" class="edge"><title>Node2&#45;&gt;Node7</title>
<path fill="none" stroke="midnightblue" d="M688.206,-89.4296C654.739,-77.3753 593.009,-55.1408 549.608,-39.5079"/>
<polygon fill="midnightblue" stroke="midnightblue" points="550.689,-36.1774 540.095,-36.0815 548.317,-42.7633 550.689,-36.1774"/>
</g>
<!-- Node8 -->
<g id="node8" class="node"><title>Node8</title>
<polygon fill="white" stroke="#bfbfbf" points="580.5,-6 580.5,-36 697.5,-36 697.5,-6 580.5,-6"/>
<text text-anchor="start" x="588.5" y="-24" font-family="Helvetica,sans-Serif" font-size="10.00">mars/interfaces/sim</text>
<text text-anchor="middle" x="639" y="-13" font-family="Helvetica,sans-Serif" font-size="10.00">/MarsPluginTemplate.h</text>
</g>
<!-- Node2&#45;&gt;Node8 -->
<g id="edge7" class="edge"><title>Node2&#45;&gt;Node8</title>
<path fill="none" stroke="midnightblue" d="M703.626,-89.2818C692.974,-78.1923 674.214,-58.6608 659.64,-43.4887"/>
<polygon fill="midnightblue" stroke="midnightblue" points="661.918,-40.8073 652.466,-36.0198 656.87,-45.6564 661.918,-40.8073"/>
</g>
<!-- Node9 -->
<g id="node9" class="node"><title>Node9</title>
<polygon fill="white" stroke="#bfbfbf" points="716,-0.5 716,-41.5 856,-41.5 856,-0.5 716,-0.5"/>
<text text-anchor="start" x="724" y="-29.5" font-family="Helvetica,sans-Serif" font-size="10.00">mars/entity_generation</text>
<text text-anchor="start" x="724" y="-18.5" font-family="Helvetica,sans-Serif" font-size="10.00">/entity_factory/EntityFactory</text>
<text text-anchor="middle" x="786" y="-7.5" font-family="Helvetica,sans-Serif" font-size="10.00">Interface.h</text>
</g>
<!-- Node2&#45;&gt;Node9 -->
<g id="edge8" class="edge"><title>Node2&#45;&gt;Node9</title>
<path fill="none" stroke="midnightblue" d="M720.489,-89.2818C729.97,-79.5441 745.79,-63.2972 759.508,-49.2084"/>
<polygon fill="midnightblue" stroke="midnightblue" points="762.39,-51.2648 766.859,-41.6584 757.375,-46.3814 762.39,-51.2648"/>
</g>
<!-- Node10 -->
<g id="node10" class="node"><title>Node10</title>
<polygon fill="white" stroke="#bfbfbf" points="874.5,-11.5 874.5,-30.5 999.5,-30.5 999.5,-11.5 874.5,-11.5"/>
<text text-anchor="middle" x="937" y="-18.5" font-family="Helvetica,sans-Serif" font-size="10.00">urdf_parser/urdf_parser.h</text>
</g>
<!-- Node2&#45;&gt;Node10 -->
<g id="edge9" class="edge"><title>Node2&#45;&gt;Node10</title>
<path fill="none" stroke="midnightblue" d="M725.253,-89.4537C731.645,-85.5878 739.532,-81.1829 747,-78 760.902,-72.0749 845.294,-47.8837 896.818,-33.3046"/>
<polygon fill="midnightblue" stroke="midnightblue" points="897.983,-36.6127 906.654,-30.5252 896.079,-29.8765 897.983,-36.6127"/>
</g>
<!-- Node11 -->
<g id="node11" class="node"><title>Node11</title>
<polygon fill="white" stroke="#bfbfbf" points="1018,-11.5 1018,-30.5 1120,-30.5 1120,-11.5 1018,-11.5"/>
<text text-anchor="middle" x="1069" y="-18.5" font-family="Helvetica,sans-Serif" font-size="10.00">urdf_model/model.h</text>
</g>
<!-- Node2&#45;&gt;Node11 -->
<g id="edge10" class="edge"><title>Node2&#45;&gt;Node11</title>
<path fill="none" stroke="midnightblue" d="M724.407,-89.3551C730.863,-85.27 739.05,-80.7063 747,-78 857.852,-40.265 893.904,-68.3474 1008,-42 1017.41,-39.827 1027.44,-36.8334 1036.59,-33.8239"/>
<polygon fill="midnightblue" stroke="midnightblue" points="1037.76,-37.1221 1046.1,-30.5899 1035.51,-30.4945 1037.76,-37.1221"/>
</g>
<!-- Node12 -->
<g id="node12" class="node"><title>Node12</title>
<polygon fill="white" stroke="#bfbfbf" points="1138.5,-11.5 1138.5,-30.5 1229.5,-30.5 1229.5,-11.5 1138.5,-11.5"/>
<text text-anchor="middle" x="1184" y="-18.5" font-family="Helvetica,sans-Serif" font-size="10.00">urdf_model/link.h</text>
</g>
<!-- Node2&#45;&gt;Node12 -->
<g id="edge11" class="edge"><title>Node2&#45;&gt;Node12</title>
<path fill="none" stroke="midnightblue" d="M724.039,-89.4161C730.53,-85.2407 738.86,-80.5776 747,-78 909.152,-26.6518 961.961,-78.8884 1128,-42 1136.76,-40.0528 1146.04,-37.1204 1154.46,-34.0969"/>
<polygon fill="midnightblue" stroke="midnightblue" points="1155.75,-37.3522 1163.88,-30.5593 1153.29,-30.7993 1155.75,-37.3522"/>
</g>
<!-- Node13 -->
<g id="node13" class="node"><title>Node13</title>
<polygon fill="white" stroke="#bfbfbf" points="1248,-11.5 1248,-30.5 1342,-30.5 1342,-11.5 1248,-11.5"/>
<text text-anchor="middle" x="1295" y="-18.5" font-family="Helvetica,sans-Serif" font-size="10.00">urdf_model/joint.h</text>
</g>
<!-- Node2&#45;&gt;Node13 -->
<g id="edge12" class="edge"><title>Node2&#45;&gt;Node13</title>
<path fill="none" stroke="midnightblue" d="M724.017,-89.3456C730.502,-85.151 738.834,-80.4919 747,-78 956.282,-14.1394 1023.79,-86.6112 1238,-42 1247,-40.1251 1256.53,-37.1881 1265.16,-34.1365"/>
<polygon fill="midnightblue" stroke="midnightblue" points="1266.64,-37.3204 1274.79,-30.5585 1264.2,-30.7581 1266.64,-37.3204"/>
</g>
<!-- Node14 -->
<g id="node14" class="node"><title>Node14</title>
<polygon fill="white" stroke="#bfbfbf" points="1360.5,-11.5 1360.5,-30.5 1457.5,-30.5 1457.5,-11.5 1360.5,-11.5"/>
<text text-anchor="middle" x="1409" y="-18.5" font-family="Helvetica,sans-Serif" font-size="10.00">urdf_model/pose.h</text>
</g>
<!-- Node2&#45;&gt;Node14 -->
<g id="edge13" class="edge"><title>Node2&#45;&gt;Node14</title>
<path fill="none" stroke="midnightblue" d="M724.003,-89.2998C730.484,-85.0925 738.817,-80.4361 747,-78 1004.74,-1.27179 1087.22,-94.3178 1351,-42 1360.34,-40.1482 1370.22,-37.1519 1379.14,-34.036"/>
<polygon fill="midnightblue" stroke="midnightblue" points="1380.53,-37.2544 1388.71,-30.5218 1378.11,-30.6834 1380.53,-37.2544"/>
</g>
</g>
</svg>
