<?xml version="1.0" encoding="UTF-8" standalone="no"?>
<!DOCTYPE svg PUBLIC "-//W3C//DTD SVG 1.1//EN"
 "http://www.w3.org/Graphics/SVG/1.1/DTD/svg11.dtd">
<!-- Generated by graphviz version 2.36.0 (20140111.2315)
 -->
<!-- Title: mars::plugins::Plot3D::MotorPlot Pages: 1 -->
<svg width="886pt" height="518pt"
 viewBox="0.00 0.00 886.00 518.00" xmlns="http://www.w3.org/2000/svg" xmlns:xlink="http://www.w3.org/1999/xlink">
<g id="graph0" class="graph" transform="scale(1 1) rotate(0) translate(4 514)">
<title>mars::plugins::Plot3D::MotorPlot</title>
<polygon fill="white" stroke="none" points="-4,4 -4,-514 882,-514 882,4 -4,4"/>
<!-- Node1 -->
<g id="node1" class="node"><title>Node1</title>
<polygon fill="#bfbfbf" stroke="black" points="766.5,-340 766.5,-370 877.5,-370 877.5,-340 766.5,-340"/>
<text text-anchor="start" x="774.5" y="-358" font-family="Helvetica,sans-Serif" font-size="10.00">mars::plugins::Plot3D</text>
<text text-anchor="middle" x="822" y="-347" font-family="Helvetica,sans-Serif" font-size="10.00">::MotorPlot</text>
</g>
<!-- Node2 -->
<g id="node2" class="node"><title>Node2</title>
<g id="a_node2"><a xlink:href="../../d0/d0e/classmars_1_1data__broker_1_1_receiver_interface.html" target="_top" xlink:title="Interface for classes that want to receive data from the DataBroker. ">
<polygon fill="white" stroke="black" points="539.5,-427 539.5,-457 640.5,-457 640.5,-427 539.5,-427"/>
<text text-anchor="start" x="547.5" y="-445" font-family="Helvetica,sans-Serif" font-size="10.00">mars::data_broker::</text>
<text text-anchor="middle" x="590" y="-434" font-family="Helvetica,sans-Serif" font-size="10.00">ReceiverInterface</text>
</a>
</g>
</g>
<!-- Node2&#45;&gt;Node1 -->
<g id="edge1" class="edge"><title>Node2&#45;&gt;Node1</title>
<path fill="none" stroke="midnightblue" d="M648.344,-423.704C678.287,-413.793 715.386,-400.948 748,-388 761.703,-382.56 776.573,-375.967 789.296,-370.109"/>
<polygon fill="midnightblue" stroke="midnightblue" points="646.885,-420.5 638.48,-426.949 649.073,-427.149 646.885,-420.5"/>
</g>
<!-- Node3 -->
<g id="node3" class="node"><title>Node3</title>
<g id="a_node3"><a xlink:href="../../d8/d6e/classmars_1_1interfaces_1_1_graphics_update_interface.html" target="_top" xlink:title="The Interface to load controller dynamically into the simulation. ">
<polygon fill="white" stroke="black" points="524,-378 524,-408 656,-408 656,-378 524,-378"/>
<text text-anchor="start" x="532" y="-396" font-family="Helvetica,sans-Serif" font-size="10.00">mars::interfaces::Graphics</text>
<text text-anchor="middle" x="590" y="-385" font-family="Helvetica,sans-Serif" font-size="10.00">UpdateInterface</text>
</a>
</g>
</g>
<!-- Node3&#45;&gt;Node1 -->
<g id="edge2" class="edge"><title>Node3&#45;&gt;Node1</title>
<path fill="none" stroke="midnightblue" d="M666.167,-382.1C692.126,-378.179 721.372,-373.587 748,-369 753.977,-367.97 760.22,-366.847 766.43,-365.699"/>
<polygon fill="midnightblue" stroke="midnightblue" points="665.386,-378.678 656.017,-383.624 666.426,-385.6 665.386,-378.678"/>
</g>
<!-- Node4 -->
<g id="node4" class="node"><title>Node4</title>
<g id="a_node4"><a xlink:href="../../d1/d47/classosg__plot_1_1_curve.html" target="_top" xlink:title="osg_plot::Curve">
<polygon fill="white" stroke="black" points="547,-339.5 547,-358.5 633,-358.5 633,-339.5 547,-339.5"/>
<text text-anchor="middle" x="590" y="-346.5" font-family="Helvetica,sans-Serif" font-size="10.00">osg_plot::Curve</text>
</a>
</g>
</g>
<!-- Node4&#45;&gt;Node1 -->
<g id="edge3" class="edge"><title>Node4&#45;&gt;Node1</title>
<path fill="none" stroke="#9a32cd" stroke-dasharray="5,2" d="M643.216,-350.362C680.014,-351.322 729.179,-352.605 766.48,-353.578"/>
<polygon fill="#9a32cd" stroke="#9a32cd" points="643.273,-346.863 633.186,-350.1 643.091,-353.86 643.273,-346.863"/>
<text text-anchor="middle" x="711" y="-357" font-family="Helvetica,sans-Serif" font-size="10.00"> curve</text>
</g>
<!-- Node5 -->
<g id="node5" class="node"><title>Node5</title>
<g id="a_node5"><a xlink:href="../../d9/d68/classmars_1_1data__broker_1_1_data_package_mapping.html" target="_top" xlink:title="A DataPackageMapping can be used by a Receiver &#160;to more conveniently retrieve values from a DataPacka...">
<polygon fill="white" stroke="black" points="533.5,-284 533.5,-314 646.5,-314 646.5,-284 533.5,-284"/>
<text text-anchor="start" x="541.5" y="-302" font-family="Helvetica,sans-Serif" font-size="10.00">mars::data_broker::</text>
<text text-anchor="middle" x="590" y="-291" font-family="Helvetica,sans-Serif" font-size="10.00">DataPackageMapping</text>
</a>
</g>
</g>
<!-- Node5&#45;&gt;Node1 -->
<g id="edge4" class="edge"><title>Node5&#45;&gt;Node1</title>
<path fill="none" stroke="#9a32cd" stroke-dasharray="5,2" d="M656.844,-299.879C685.388,-301.74 718.873,-305.945 748,-315 766.216,-320.663 785.055,-331.121 799.032,-339.923"/>
<polygon fill="#9a32cd" stroke="#9a32cd" points="656.751,-296.368 646.568,-299.294 656.353,-303.356 656.751,-296.368"/>
<text text-anchor="middle" x="711" y="-340" font-family="Helvetica,sans-Serif" font-size="10.00"> dbNodeMapping</text>
<text text-anchor="middle" x="711" y="-329" font-family="Helvetica,sans-Serif" font-size="10.00">dbMotorMapping</text>
<text text-anchor="middle" x="711" y="-318" font-family="Helvetica,sans-Serif" font-size="10.00">dbTimeMapping</text>
</g>
<!-- Node6 -->
<g id="node6" class="node"><title>Node6</title>
<g id="a_node6"><a xlink:href="../../d7/d4e/classmars_1_1interfaces_1_1_control_center.html" target="_top" xlink:title="The declaration of the ControlCenter. ">
<polygon fill="white" stroke="black" points="527.5,-235 527.5,-265 652.5,-265 652.5,-235 527.5,-235"/>
<text text-anchor="start" x="535.5" y="-253" font-family="Helvetica,sans-Serif" font-size="10.00">mars::interfaces::Control</text>
<text text-anchor="middle" x="590" y="-242" font-family="Helvetica,sans-Serif" font-size="10.00">Center</text>
</a>
</g>
</g>
<!-- Node6&#45;&gt;Node1 -->
<g id="edge5" class="edge"><title>Node6&#45;&gt;Node1</title>
<path fill="none" stroke="#9a32cd" stroke-dasharray="5,2" d="M662.585,-258.817C690.411,-264.266 721.823,-273.014 748,-287 772.901,-300.304 795.687,-324.234 808.956,-339.865"/>
<polygon fill="#9a32cd" stroke="#9a32cd" points="662.982,-255.332 652.513,-256.956 661.71,-262.215 662.982,-255.332"/>
<text text-anchor="middle" x="711" y="-290" font-family="Helvetica,sans-Serif" font-size="10.00"> c</text>
</g>
<!-- Node7 -->
<g id="node7" class="node"><title>Node7</title>
<g id="a_node7"><a xlink:href="../../d1/d93/classmars_1_1interfaces_1_1_graphics_manager_interface.html" target="_top" xlink:title="mars::interfaces::Graphics\lManagerInterface">
<polygon fill="white" stroke="black" points="280,-480 280,-510 412,-510 412,-480 280,-480"/>
<text text-anchor="start" x="288" y="-498" font-family="Helvetica,sans-Serif" font-size="10.00">mars::interfaces::Graphics</text>
<text text-anchor="middle" x="346" y="-487" font-family="Helvetica,sans-Serif" font-size="10.00">ManagerInterface</text>
</a>
</g>
</g>
<!-- Node7&#45;&gt;Node6 -->
<g id="edge6" class="edge"><title>Node7&#45;&gt;Node6</title>
<path fill="none" stroke="#9a32cd" stroke-dasharray="5,2" d="M422.315,-489.553C452.803,-483.361 485.564,-470.858 506,-446 554.811,-386.626 476.833,-334.688 524,-274 526.657,-270.581 529.853,-267.648 533.383,-265.134"/>
<polygon fill="#9a32cd" stroke="#9a32cd" points="421.292,-486.182 412.083,-491.42 422.549,-493.068 421.292,-486.182"/>
<text text-anchor="middle" x="474" y="-487" font-family="Helvetica,sans-Serif" font-size="10.00"> graphics</text>
</g>
<!-- Node8 -->
<g id="node8" class="node"><title>Node8</title>
<polygon fill="white" stroke="#bfbfbf" points="47,-436.5 47,-455.5 115,-455.5 115,-436.5 47,-436.5"/>
<text text-anchor="middle" x="81" y="-443.5" font-family="Helvetica,sans-Serif" font-size="10.00">LibInterface</text>
</g>
<!-- Node8&#45;&gt;Node7 -->
<g id="edge7" class="edge"><title>Node8&#45;&gt;Node7</title>
<path fill="none" stroke="midnightblue" d="M124.956,-454.003C166.98,-461.833 231.535,-473.86 279.873,-482.866"/>
<polygon fill="midnightblue" stroke="midnightblue" points="125.515,-450.547 115.043,-452.156 124.233,-457.429 125.515,-450.547"/>
</g>
<!-- Node12 -->
<g id="node12" class="node"><title>Node12</title>
<g id="a_node12"><a xlink:href="../../d4/da6/classmars_1_1cfg__manager_1_1_c_f_g_manager_interface.html" target="_top" xlink:title="mars::cfg_manager::\lCFGManagerInterface">
<polygon fill="white" stroke="black" points="289.5,-431 289.5,-461 402.5,-461 402.5,-431 289.5,-431"/>
<text text-anchor="start" x="297.5" y="-449" font-family="Helvetica,sans-Serif" font-size="10.00">mars::cfg_manager::</text>
<text text-anchor="middle" x="346" y="-438" font-family="Helvetica,sans-Serif" font-size="10.00">CFGManagerInterface</text>
</a>
</g>
</g>
<!-- Node8&#45;&gt;Node12 -->
<g id="edge12" class="edge"><title>Node8&#45;&gt;Node12</title>
<path fill="none" stroke="midnightblue" d="M125.318,-446C170.178,-446 240.43,-446 289.371,-446"/>
<polygon fill="midnightblue" stroke="midnightblue" points="125.043,-442.5 115.043,-446 125.043,-449.5 125.043,-442.5"/>
</g>
<!-- Node13 -->
<g id="node13" class="node"><title>Node13</title>
<g id="a_node13"><a xlink:href="../../d6/d2e/classmars_1_1data__broker_1_1_data_broker_interface.html" target="_top" xlink:title="The interface every DataBroker should implement. ">
<polygon fill="white" stroke="black" points="294,-382 294,-412 398,-412 398,-382 294,-382"/>
<text text-anchor="start" x="302" y="-400" font-family="Helvetica,sans-Serif" font-size="10.00">mars::data_broker::</text>
<text text-anchor="middle" x="346" y="-389" font-family="Helvetica,sans-Serif" font-size="10.00">DataBrokerInterface</text>
</a>
</g>
</g>
<!-- Node8&#45;&gt;Node13 -->
<g id="edge14" class="edge"><title>Node8&#45;&gt;Node13</title>
<path fill="none" stroke="midnightblue" d="M125.041,-437.981C171.26,-429.37 244.664,-415.694 293.812,-406.537"/>
<polygon fill="midnightblue" stroke="midnightblue" points="124.233,-434.571 115.043,-439.844 125.515,-441.453 124.233,-434.571"/>
</g>
<!-- Node9 -->
<g id="node9" class="node"><title>Node9</title>
<g id="a_node9"><a xlink:href="../../d2/da9/classmars_1_1interfaces_1_1_controller_manager_interface.html" target="_top" xlink:title="&quot;ControllerManagerInterface&quot; declares the interfaces for all controller operations that are used for ...">
<polygon fill="white" stroke="black" points="278.5,-333 278.5,-363 413.5,-363 413.5,-333 278.5,-333"/>
<text text-anchor="start" x="286.5" y="-351" font-family="Helvetica,sans-Serif" font-size="10.00">mars::interfaces::Controller</text>
<text text-anchor="middle" x="346" y="-340" font-family="Helvetica,sans-Serif" font-size="10.00">ManagerInterface</text>
</a>
</g>
</g>
<!-- Node9&#45;&gt;Node6 -->
<g id="edge8" class="edge"><title>Node9&#45;&gt;Node6</title>
<path fill="none" stroke="#9a32cd" stroke-dasharray="5,2" d="M403.804,-329.742C410.618,-327.497 417.472,-325.214 424,-323 460.609,-310.586 473.856,-315.473 506,-294 515.944,-287.357 514.102,-280.711 524,-274 528.978,-270.625 534.491,-267.652 540.141,-265.054"/>
<polygon fill="#9a32cd" stroke="#9a32cd" points="402.304,-326.55 393.892,-332.99 404.484,-333.202 402.304,-326.55"/>
<text text-anchor="middle" x="474" y="-321" font-family="Helvetica,sans-Serif" font-size="10.00"> controllers</text>
</g>
<!-- Node10 -->
<g id="node10" class="node"><title>Node10</title>
<g id="a_node10"><a xlink:href="../../d6/d60/classmars_1_1interfaces_1_1_joint_manager_interface.html" target="_top" xlink:title="Interface class for the node organization. ">
<polygon fill="white" stroke="black" points="270,-284 270,-314 422,-314 422,-284 270,-284"/>
<text text-anchor="start" x="278" y="-302" font-family="Helvetica,sans-Serif" font-size="10.00">mars::interfaces::JointManager</text>
<text text-anchor="middle" x="346" y="-291" font-family="Helvetica,sans-Serif" font-size="10.00">Interface</text>
</a>
</g>
</g>
<!-- Node10&#45;&gt;Node6 -->
<g id="edge9" class="edge"><title>Node10&#45;&gt;Node6</title>
<path fill="none" stroke="#9a32cd" stroke-dasharray="5,2" d="M431.38,-281.915C463.008,-275.511 498.323,-268.36 527.495,-262.454"/>
<polygon fill="#9a32cd" stroke="#9a32cd" points="430.359,-278.55 421.253,-283.965 431.748,-285.411 430.359,-278.55"/>
<text text-anchor="middle" x="474" y="-282" font-family="Helvetica,sans-Serif" font-size="10.00"> joints</text>
</g>
<!-- Node11 -->
<g id="node11" class="node"><title>Node11</title>
<g id="a_node11"><a xlink:href="../../df/d82/classmars_1_1interfaces_1_1_entity_manager_interface.html" target="_top" xlink:title="mars::interfaces::Entity\lManagerInterface">
<polygon fill="white" stroke="black" points="286.5,-235 286.5,-265 405.5,-265 405.5,-235 286.5,-235"/>
<text text-anchor="start" x="294.5" y="-253" font-family="Helvetica,sans-Serif" font-size="10.00">mars::interfaces::Entity</text>
<text text-anchor="middle" x="346" y="-242" font-family="Helvetica,sans-Serif" font-size="10.00">ManagerInterface</text>
</a>
</g>
</g>
<!-- Node11&#45;&gt;Node6 -->
<g id="edge10" class="edge"><title>Node11&#45;&gt;Node6</title>
<path fill="none" stroke="#9a32cd" stroke-dasharray="5,2" d="M415.739,-250C450.806,-250 493.121,-250 527.155,-250"/>
<polygon fill="#9a32cd" stroke="#9a32cd" points="415.581,-246.5 405.581,-250 415.581,-253.5 415.581,-246.5"/>
<text text-anchor="middle" x="474" y="-253" font-family="Helvetica,sans-Serif" font-size="10.00"> entities</text>
</g>
<!-- Node12&#45;&gt;Node6 -->
<g id="edge11" class="edge"><title>Node12&#45;&gt;Node6</title>
<path fill="none" stroke="#9a32cd" stroke-dasharray="5,2" d="M412.883,-439.36C445.762,-432.529 483.27,-418.746 506,-391 539.341,-350.302 490.719,-314.748 524,-274 526.816,-270.553 530.175,-267.601 533.862,-265.073"/>
<polygon fill="#9a32cd" stroke="#9a32cd" points="412.021,-435.961 402.849,-441.264 413.327,-442.838 412.021,-435.961"/>
<text text-anchor="middle" x="474" y="-434" font-family="Helvetica,sans-Serif" font-size="10.00"> cfg</text>
</g>
<!-- Node13&#45;&gt;Node6 -->
<g id="edge13" class="edge"><title>Node13&#45;&gt;Node6</title>
<path fill="none" stroke="#9a32cd" stroke-dasharray="5,2" d="M406.15,-378.664C412.218,-376.524 418.259,-374.286 424,-372 461.493,-357.071 479.649,-363.566 506,-333 523.901,-312.236 505.181,-293.936 524,-274 527.22,-270.589 530.968,-267.659 535.008,-265.145"/>
<polygon fill="#9a32cd" stroke="#9a32cd" points="404.95,-375.375 396.632,-381.937 407.227,-381.995 404.95,-375.375"/>
<text text-anchor="middle" x="474" y="-379" font-family="Helvetica,sans-Serif" font-size="10.00"> dataBroker</text>
<text text-anchor="middle" x="474" y="-368" font-family="Helvetica,sans-Serif" font-size="10.00">theDataBroker</text>
</g>
<!-- Node14 -->
<g id="node14" class="node"><title>Node14</title>
<g id="a_node14"><a xlink:href="../../db/da9/classmars_1_1interfaces_1_1_sensor_manager_interface.html" target="_top" xlink:title="&quot;SensorManagerInterface&quot; declares the interfaces for all sensor operations that are used for the comm...">
<polygon fill="white" stroke="black" points="284,-186 284,-216 408,-216 408,-186 284,-186"/>
<text text-anchor="start" x="292" y="-204" font-family="Helvetica,sans-Serif" font-size="10.00">mars::interfaces::Sensor</text>
<text text-anchor="middle" x="346" y="-193" font-family="Helvetica,sans-Serif" font-size="10.00">ManagerInterface</text>
</a>
</g>
</g>
<!-- Node14&#45;&gt;Node6 -->
<g id="edge15" class="edge"><title>Node14&#45;&gt;Node6</title>
<path fill="none" stroke="#9a32cd" stroke-dasharray="5,2" d="M418.1,-215.396C452.677,-222.397 493.845,-230.733 527.111,-237.469"/>
<polygon fill="#9a32cd" stroke="#9a32cd" points="418.563,-211.919 408.067,-213.365 417.173,-218.78 418.563,-211.919"/>
<text text-anchor="middle" x="474" y="-236" font-family="Helvetica,sans-Serif" font-size="10.00"> sensors</text>
</g>
<!-- Node15 -->
<g id="node15" class="node"><title>Node15</title>
<g id="a_node15"><a xlink:href="../../db/de9/classmars_1_1interfaces_1_1_motor_manager_interface.html" target="_top" xlink:title="&quot;MotorManagerInterface&quot; declares the interfaces for all motor operations that are used for the commun...">
<polygon fill="white" stroke="black" points="268.5,-137 268.5,-167 423.5,-167 423.5,-137 268.5,-137"/>
<text text-anchor="start" x="276.5" y="-155" font-family="Helvetica,sans-Serif" font-size="10.00">mars::interfaces::MotorManager</text>
<text text-anchor="middle" x="346" y="-144" font-family="Helvetica,sans-Serif" font-size="10.00">Interface</text>
</a>
</g>
</g>
<!-- Node15&#45;&gt;Node6 -->
<g id="edge16" class="edge"><title>Node15&#45;&gt;Node6</title>
<path fill="none" stroke="#9a32cd" stroke-dasharray="5,2" d="M406.689,-170.22C412.554,-172.125 418.403,-174.072 424,-176 460.837,-188.691 470.42,-191.123 506,-207 524.97,-215.465 545.72,-226.215 561.727,-234.849"/>
<polygon fill="#9a32cd" stroke="#9a32cd" points="407.437,-166.784 396.846,-167.062 405.299,-173.45 407.437,-166.784"/>
<text text-anchor="middle" x="474" y="-210" font-family="Helvetica,sans-Serif" font-size="10.00"> motors</text>
</g>
<!-- Node16 -->
<g id="node16" class="node"><title>Node16</title>
<g id="a_node16"><a xlink:href="../../d9/d6a/classmars_1_1interfaces_1_1_load_center.html" target="_top" xlink:title="mars::interfaces::LoadCenter">
<polygon fill="white" stroke="black" points="274.5,-98.5 274.5,-117.5 417.5,-117.5 417.5,-98.5 274.5,-98.5"/>
<text text-anchor="middle" x="346" y="-105.5" font-family="Helvetica,sans-Serif" font-size="10.00">mars::interfaces::LoadCenter</text>
</a>
</g>
</g>
<!-- Node16&#45;&gt;Node6 -->
<g id="edge17" class="edge"><title>Node16&#45;&gt;Node6</title>
<path fill="none" stroke="#9a32cd" stroke-dasharray="5,2" d="M402.573,-120.145C409.856,-122.192 417.16,-124.482 424,-127 462.237,-141.078 472.873,-144.276 506,-168 533.832,-187.932 561.089,-217.284 576.401,-234.932"/>
<polygon fill="#9a32cd" stroke="#9a32cd" points="403.264,-116.707 392.699,-117.504 401.456,-123.469 403.264,-116.707"/>
<text text-anchor="middle" x="474" y="-171" font-family="Helvetica,sans-Serif" font-size="10.00"> loadCenter</text>
</g>
<!-- Node17 -->
<g id="node17" class="node"><title>Node17</title>
<g id="a_node17"><a xlink:href="../../d1/d51/classmars_1_1interfaces_1_1_load_heightmap_interface.html" target="_top" xlink:title="mars::interfaces::LoadHeightmap\lInterface">
<polygon fill="white" stroke="black" points="0.5,-118 0.5,-148 161.5,-148 161.5,-118 0.5,-118"/>
<text text-anchor="start" x="8.5" y="-136" font-family="Helvetica,sans-Serif" font-size="10.00">mars::interfaces::LoadHeightmap</text>
<text text-anchor="middle" x="81" y="-125" font-family="Helvetica,sans-Serif" font-size="10.00">Interface</text>
</a>
</g>
</g>
<!-- Node17&#45;&gt;Node16 -->
<g id="edge18" class="edge"><title>Node17&#45;&gt;Node16</title>
<path fill="none" stroke="#9a32cd" stroke-dasharray="5,2" d="M171.85,-124.459C205.256,-121.284 242.661,-117.728 274.133,-114.736"/>
<polygon fill="#9a32cd" stroke="#9a32cd" points="171.246,-121.001 161.622,-125.431 171.909,-127.969 171.246,-121.001"/>
<text text-anchor="middle" x="215" y="-127" font-family="Helvetica,sans-Serif" font-size="10.00"> loadHeightmap</text>
</g>
<!-- Node18 -->
<g id="node18" class="node"><title>Node18</title>
<g id="a_node18"><a xlink:href="../../d7/d02/classmars_1_1interfaces_1_1_load_mesh_interface.html" target="_top" xlink:title="mars::interfaces::LoadMesh\lInterface">
<polygon fill="white" stroke="black" points="12,-69 12,-99 150,-99 150,-69 12,-69"/>
<text text-anchor="start" x="20" y="-87" font-family="Helvetica,sans-Serif" font-size="10.00">mars::interfaces::LoadMesh</text>
<text text-anchor="middle" x="81" y="-76" font-family="Helvetica,sans-Serif" font-size="10.00">Interface</text>
</a>
</g>
</g>
<!-- Node18&#45;&gt;Node16 -->
<g id="edge19" class="edge"><title>Node18&#45;&gt;Node16</title>
<path fill="none" stroke="#9a32cd" stroke-dasharray="5,2" d="M160.116,-91.1285C196.387,-94.4383 239.183,-98.3437 274.462,-101.563"/>
<polygon fill="#9a32cd" stroke="#9a32cd" points="160.348,-87.6352 150.071,-90.2118 159.712,-94.6062 160.348,-87.6352"/>
<text text-anchor="middle" x="215" y="-102" font-family="Helvetica,sans-Serif" font-size="10.00"> loadMesh</text>
</g>
<!-- Node19 -->
<g id="node19" class="node"><title>Node19</title>
<g id="a_node19"><a xlink:href="../../d7/d4c/classmars_1_1interfaces_1_1_node_manager_interface.html" target="_top" xlink:title="&quot;NodeManagerInterface&quot; declares the interfaces for all NodeOperations that are used for the communica...">
<polygon fill="white" stroke="black" points="269,-49 269,-79 423,-79 423,-49 269,-49"/>
<text text-anchor="start" x="277" y="-67" font-family="Helvetica,sans-Serif" font-size="10.00">mars::interfaces::NodeManager</text>
<text text-anchor="middle" x="346" y="-56" font-family="Helvetica,sans-Serif" font-size="10.00">Interface</text>
</a>
</g>
</g>
<!-- Node19&#45;&gt;Node6 -->
<g id="edge20" class="edge"><title>Node19&#45;&gt;Node6</title>
<path fill="none" stroke="#9a32cd" stroke-dasharray="5,2" d="M432.85,-81.8557C458.278,-90.1203 484.927,-102.015 506,-119 545.829,-151.102 572.257,-207.713 583.236,-234.769"/>
<polygon fill="#9a32cd" stroke="#9a32cd" points="433.766,-78.4756 423.178,-78.863 431.697,-85.1627 433.766,-78.4756"/>
<text text-anchor="middle" x="474" y="-122" font-family="Helvetica,sans-Serif" font-size="10.00"> nodes</text>
</g>
<!-- Node20 -->
<g id="node20" class="node"><title>Node20</title>
<g id="a_node20"><a xlink:href="../../dc/de5/classmars_1_1interfaces_1_1_simulator_interface.html" target="_top" xlink:title="mars::interfaces::Simulator\lInterface">
<polygon fill="white" stroke="black" points="279,-0 279,-30 413,-30 413,-0 279,-0"/>
<text text-anchor="start" x="287" y="-18" font-family="Helvetica,sans-Serif" font-size="10.00">mars::interfaces::Simulator</text>
<text text-anchor="middle" x="346" y="-7" font-family="Helvetica,sans-Serif" font-size="10.00">Interface</text>
</a>
</g>
</g>
<!-- Node20&#45;&gt;Node6 -->
<g id="edge21" class="edge"><title>Node20&#45;&gt;Node6</title>
<path fill="none" stroke="#9a32cd" stroke-dasharray="5,2" d="M422.813,-28.5365C451.762,-36.9398 483.244,-50.4342 506,-72 555.498,-118.909 578.315,-201.165 585.928,-234.908"/>
<polygon fill="#9a32cd" stroke="#9a32cd" points="423.678,-25.1446 413.109,-25.8775 421.829,-31.8957 423.678,-25.1446"/>
<text text-anchor="middle" x="474" y="-75" font-family="Helvetica,sans-Serif" font-size="10.00"> sim</text>
</g>
</g>
</svg>
