<?xml version="1.0" encoding="UTF-8" standalone="no"?>
<!DOCTYPE svg PUBLIC "-//W3C//DTD SVG 1.1//EN"
 "http://www.w3.org/Graphics/SVG/1.1/DTD/svg11.dtd">
<!-- Generated by graphviz version 2.26.3 (20100126.1600)
 -->
<!-- Title: mars::plugins::Plot3D::MotorPlot Pages: 1 -->
<svg width="886pt" height="550pt"
 viewBox="0.00 0.00 886.00 550.00" xmlns="http://www.w3.org/2000/svg" xmlns:xlink="http://www.w3.org/1999/xlink">
<g id="graph1" class="graph" transform="scale(1 1) rotate(0) translate(4 546)">
<title>mars::plugins::Plot3D::MotorPlot</title>
<polygon fill="white" stroke="white" points="-4,5 -4,-546 883,-546 883,5 -4,5"/>
<!-- Node1 -->
<g id="node1" class="node"><title>Node1</title>
<polygon fill="#bfbfbf" stroke="black" points="766.5,-362 766.5,-396 877.5,-396 877.5,-362 766.5,-362"/>
<text text-anchor="start" x="774.5" y="-383" font-family="Helvetica,sans-Serif" font-size="10.00">mars::plugins::Plot3D</text>
<text text-anchor="middle" x="822" y="-370" font-family="Helvetica,sans-Serif" font-size="10.00">::MotorPlot</text>
</g>
<!-- Node2 -->
<g id="node2" class="node"><title>Node2</title>
<a xlink:href="../../d0/d0e/classmars_1_1data__broker_1_1_receiver_interface.html" target="_top" xlink:title="Interface for classes that want to receive data from the DataBroker. ">
<polygon fill="white" stroke="black" points="539.5,-452 539.5,-486 640.5,-486 640.5,-452 539.5,-452"/>
<text text-anchor="start" x="547.5" y="-473" font-family="Helvetica,sans-Serif" font-size="10.00">mars::data_broker::</text>
<text text-anchor="middle" x="590" y="-460" font-family="Helvetica,sans-Serif" font-size="10.00">ReceiverInterface</text>
</a>
</g>
<!-- Node2&#45;&gt;Node1 -->
<g id="edge2" class="edge"><title>Node2&#45;&gt;Node1</title>
<path fill="none" stroke="midnightblue" d="M649.967,-448.53C679.655,-438.101 715.921,-424.919 748,-412 760.135,-407.113 773.219,-401.422 784.961,-396.155"/>
<polygon fill="midnightblue" stroke="midnightblue" points="648.451,-445.352 640.166,-451.957 650.761,-451.96 648.451,-445.352"/>
</g>
<!-- Node3 -->
<g id="node4" class="node"><title>Node3</title>
<a xlink:href="../../d8/d6e/classmars_1_1interfaces_1_1_graphics_update_interface.html" target="_top" xlink:title="The Interface to load controller dynamically into the simulation. ">
<polygon fill="white" stroke="black" points="524,-400 524,-434 656,-434 656,-400 524,-400"/>
<text text-anchor="start" x="532" y="-421" font-family="Helvetica,sans-Serif" font-size="10.00">mars::interfaces::Graphics</text>
<text text-anchor="middle" x="590" y="-408" font-family="Helvetica,sans-Serif" font-size="10.00">UpdateInterface</text>
</a>
</g>
<!-- Node3&#45;&gt;Node1 -->
<g id="edge4" class="edge"><title>Node3&#45;&gt;Node1</title>
<path fill="none" stroke="midnightblue" d="M666.348,-405.973C692.295,-402.074 721.44,-397.528 748,-393 753.929,-391.989 760.117,-390.89 766.278,-389.766"/>
<polygon fill="midnightblue" stroke="midnightblue" points="665.57,-402.551 656.198,-407.49 666.605,-409.474 665.57,-402.551"/>
</g>
<!-- Node4 -->
<g id="node6" class="node"><title>Node4</title>
<a xlink:href="../../d1/d47/classosg__plot_1_1_curve.html" target="_top" xlink:title="osg_plot::Curve">
<polygon fill="white" stroke="black" points="547,-360.5 547,-381.5 633,-381.5 633,-360.5 547,-360.5"/>
<text text-anchor="middle" x="590" y="-368.5" font-family="Helvetica,sans-Serif" font-size="10.00">osg_plot::Curve</text>
</a>
</g>
<!-- Node4&#45;&gt;Node1 -->
<g id="edge6" class="edge"><title>Node4&#45;&gt;Node1</title>
<path fill="none" stroke="#9a32cd" stroke-dasharray="5,2" d="M643.151,-372.833C680.019,-374.104 729.02,-375.794 766.408,-377.083"/>
<polygon fill="#9a32cd" stroke="#9a32cd" points="643.208,-369.333 633.094,-372.486 642.967,-376.329 643.208,-369.333"/>
<text text-anchor="middle" x="711" y="-380" font-family="Helvetica,sans-Serif" font-size="10.00"> curve</text>
</g>
<!-- Node5 -->
<g id="node8" class="node"><title>Node5</title>
<a xlink:href="../../d9/d68/classmars_1_1data__broker_1_1_data_package_mapping.html" target="_top" xlink:title="A DataPackageMapping can be used by a Receiver &#160;to more conveniently retrieve values from a DataPacka...">
<polygon fill="white" stroke="black" points="533.5,-300 533.5,-334 646.5,-334 646.5,-300 533.5,-300"/>
<text text-anchor="start" x="541.5" y="-321" font-family="Helvetica,sans-Serif" font-size="10.00">mars::data_broker::</text>
<text text-anchor="middle" x="590" y="-308" font-family="Helvetica,sans-Serif" font-size="10.00">DataPackageMapping</text>
</a>
</g>
<!-- Node5&#45;&gt;Node1 -->
<g id="edge8" class="edge"><title>Node5&#45;&gt;Node1</title>
<path fill="none" stroke="#9a32cd" stroke-dasharray="5,2" d="M656.923,-315.804C685.629,-317.093 719.132,-321.05 748,-331 767.834,-337.836 787.633,-351.102 801.753,-361.958"/>
<polygon fill="#9a32cd" stroke="#9a32cd" points="656.697,-312.294 646.581,-315.444 656.453,-319.29 656.697,-312.294"/>
<text text-anchor="middle" x="711" y="-361" font-family="Helvetica,sans-Serif" font-size="10.00"> dbNodeMapping</text>
<text text-anchor="middle" x="711" y="-348" font-family="Helvetica,sans-Serif" font-size="10.00">dbMotorMapping</text>
<text text-anchor="middle" x="711" y="-335" font-family="Helvetica,sans-Serif" font-size="10.00">dbTimeMapping</text>
</g>
<!-- Node6 -->
<g id="node10" class="node"><title>Node6</title>
<a xlink:href="../../d7/d4e/classmars_1_1interfaces_1_1_control_center.html" target="_top" xlink:title="The declaration of the ControlCenter. ">
<polygon fill="white" stroke="black" points="527.5,-248 527.5,-282 652.5,-282 652.5,-248 527.5,-248"/>
<text text-anchor="start" x="535.5" y="-269" font-family="Helvetica,sans-Serif" font-size="10.00">mars::interfaces::Control</text>
<text text-anchor="middle" x="590" y="-256" font-family="Helvetica,sans-Serif" font-size="10.00">Center</text>
</a>
</g>
<!-- Node6&#45;&gt;Node1 -->
<g id="edge10" class="edge"><title>Node6&#45;&gt;Node1</title>
<path fill="none" stroke="#9a32cd" stroke-dasharray="5,2" d="M662.884,-271.843C690.865,-276.792 722.239,-285.317 748,-300 774.939,-315.354 797.893,-343.734 810.808,-361.97"/>
<polygon fill="#9a32cd" stroke="#9a32cd" points="663.181,-268.345 652.745,-270.177 662.045,-275.252 663.181,-268.345"/>
<text text-anchor="middle" x="711" y="-304" font-family="Helvetica,sans-Serif" font-size="10.00"> c</text>
</g>
<!-- Node7 -->
<g id="node12" class="node"><title>Node7</title>
<a xlink:href="../../d1/d93/classmars_1_1interfaces_1_1_graphics_manager_interface.html" target="_top" xlink:title="mars::interfaces::Graphics\lManagerInterface">
<polygon fill="white" stroke="black" points="280,-508 280,-542 412,-542 412,-508 280,-508"/>
<text text-anchor="start" x="288" y="-529" font-family="Helvetica,sans-Serif" font-size="10.00">mars::interfaces::Graphics</text>
<text text-anchor="middle" x="346" y="-516" font-family="Helvetica,sans-Serif" font-size="10.00">ManagerInterface</text>
</a>
</g>
<!-- Node7&#45;&gt;Node6 -->
<g id="edge12" class="edge"><title>Node7&#45;&gt;Node6</title>
<path fill="none" stroke="#9a32cd" stroke-dasharray="5,2" d="M421.892,-518.744C452.604,-512.193 485.567,-499.26 506,-474 557.397,-410.459 474.75,-356.219 524,-291 526.523,-287.658 529.541,-284.746 532.876,-282.207"/>
<polygon fill="#9a32cd" stroke="#9a32cd" points="421.172,-515.318 412.019,-520.654 422.501,-522.191 421.172,-515.318"/>
<text text-anchor="middle" x="474" y="-517" font-family="Helvetica,sans-Serif" font-size="10.00"> graphics</text>
</g>
<!-- Node8 -->
<g id="node14" class="node"><title>Node8</title>
<polygon fill="white" stroke="#bfbfbf" points="47,-462.5 47,-483.5 115,-483.5 115,-462.5 47,-462.5"/>
<text text-anchor="middle" x="81" y="-470.5" font-family="Helvetica,sans-Serif" font-size="10.00">LibInterface</text>
</g>
<!-- Node8&#45;&gt;Node7 -->
<g id="edge14" class="edge"><title>Node8&#45;&gt;Node7</title>
<path fill="none" stroke="midnightblue" d="M125.064,-481.647C167.239,-489.922 231.411,-502.515 279.747,-511.999"/>
<polygon fill="midnightblue" stroke="midnightblue" points="125.588,-478.183 115.102,-479.692 124.241,-485.052 125.588,-478.183"/>
</g>
<!-- Node12 -->
<g id="node22" class="node"><title>Node12</title>
<a xlink:href="../../d4/da6/classmars_1_1cfg__manager_1_1_c_f_g_manager_interface.html" target="_top" xlink:title="mars::cfg_manager::\lCFGManagerInterface">
<polygon fill="white" stroke="black" points="289.5,-456 289.5,-490 402.5,-490 402.5,-456 289.5,-456"/>
<text text-anchor="start" x="297.5" y="-477" font-family="Helvetica,sans-Serif" font-size="10.00">mars::cfg_manager::</text>
<text text-anchor="middle" x="346" y="-464" font-family="Helvetica,sans-Serif" font-size="10.00">CFGManagerInterface</text>
</a>
</g>
<!-- Node8&#45;&gt;Node12 -->
<g id="edge24" class="edge"><title>Node8&#45;&gt;Node12</title>
<path fill="none" stroke="midnightblue" d="M125.147,-473C170.173,-473 240.21,-473 289.312,-473"/>
<polygon fill="midnightblue" stroke="midnightblue" points="125.102,-469.5 115.102,-473 125.102,-476.5 125.102,-469.5"/>
</g>
<!-- Node13 -->
<g id="node25" class="node"><title>Node13</title>
<a xlink:href="../../d6/d2e/classmars_1_1data__broker_1_1_data_broker_interface.html" target="_top" xlink:title="The interface every DataBroker should implement. ">
<polygon fill="white" stroke="black" points="294,-404 294,-438 398,-438 398,-404 294,-404"/>
<text text-anchor="start" x="302" y="-425" font-family="Helvetica,sans-Serif" font-size="10.00">mars::data_broker::</text>
<text text-anchor="middle" x="346" y="-412" font-family="Helvetica,sans-Serif" font-size="10.00">DataBrokerInterface</text>
</a>
</g>
<!-- Node8&#45;&gt;Node13 -->
<g id="edge28" class="edge"><title>Node8&#45;&gt;Node13</title>
<path fill="none" stroke="midnightblue" d="M125.155,-464.336C171.569,-455.228 244.55,-440.907 293.788,-431.245"/>
<polygon fill="midnightblue" stroke="midnightblue" points="124.241,-460.948 115.102,-466.308 125.588,-467.817 124.241,-460.948"/>
</g>
<!-- Node9 -->
<g id="node16" class="node"><title>Node9</title>
<a xlink:href="../../d2/da9/classmars_1_1interfaces_1_1_controller_manager_interface.html" target="_top" xlink:title="&quot;ControllerManagerInterface&quot; declares the interfaces for all controller operations that are used for ...">
<polygon fill="white" stroke="black" points="278.5,-352 278.5,-386 413.5,-386 413.5,-352 278.5,-352"/>
<text text-anchor="start" x="286.5" y="-373" font-family="Helvetica,sans-Serif" font-size="10.00">mars::interfaces::Controller</text>
<text text-anchor="middle" x="346" y="-360" font-family="Helvetica,sans-Serif" font-size="10.00">ManagerInterface</text>
</a>
</g>
<!-- Node9&#45;&gt;Node6 -->
<g id="edge16" class="edge"><title>Node9&#45;&gt;Node6</title>
<path fill="none" stroke="#9a32cd" stroke-dasharray="5,2" d="M407.92,-348.61C413.367,-346.741 418.788,-344.853 424,-343 460.711,-329.948 474.105,-334.378 506,-312 516.063,-304.94 513.986,-298.13 524,-291 528.615,-287.714 533.702,-284.77 538.943,-282.15"/>
<polygon fill="#9a32cd" stroke="#9a32cd" points="406.464,-345.408 398.125,-351.944 408.719,-352.035 406.464,-345.408"/>
<text text-anchor="middle" x="474" y="-340" font-family="Helvetica,sans-Serif" font-size="10.00"> controllers</text>
</g>
<!-- Node10 -->
<g id="node18" class="node"><title>Node10</title>
<a xlink:href="../../d6/d60/classmars_1_1interfaces_1_1_joint_manager_interface.html" target="_top" xlink:title="Interface class for the node organization. ">
<polygon fill="white" stroke="black" points="270,-300 270,-334 422,-334 422,-300 270,-300"/>
<text text-anchor="start" x="278" y="-321" font-family="Helvetica,sans-Serif" font-size="10.00">mars::interfaces::JointManager</text>
<text text-anchor="middle" x="346" y="-308" font-family="Helvetica,sans-Serif" font-size="10.00">Interface</text>
</a>
</g>
<!-- Node10&#45;&gt;Node6 -->
<g id="edge18" class="edge"><title>Node10&#45;&gt;Node6</title>
<path fill="none" stroke="#9a32cd" stroke-dasharray="5,2" d="M432.259,-298.617C463.652,-291.927 498.509,-284.498 527.455,-278.329"/>
<polygon fill="#9a32cd" stroke="#9a32cd" points="431.25,-295.253 422.199,-300.761 432.709,-302.099 431.25,-295.253"/>
<text text-anchor="middle" x="474" y="-299" font-family="Helvetica,sans-Serif" font-size="10.00"> joints</text>
</g>
<!-- Node11 -->
<g id="node20" class="node"><title>Node11</title>
<a xlink:href="../../df/d82/classmars_1_1interfaces_1_1_entity_manager_interface.html" target="_top" xlink:title="mars::interfaces::Entity\lManagerInterface">
<polygon fill="white" stroke="black" points="286.5,-248 286.5,-282 405.5,-282 405.5,-248 286.5,-248"/>
<text text-anchor="start" x="294.5" y="-269" font-family="Helvetica,sans-Serif" font-size="10.00">mars::interfaces::Entity</text>
<text text-anchor="middle" x="346" y="-256" font-family="Helvetica,sans-Serif" font-size="10.00">ManagerInterface</text>
</a>
</g>
<!-- Node11&#45;&gt;Node6 -->
<g id="edge20" class="edge"><title>Node11&#45;&gt;Node6</title>
<path fill="none" stroke="#9a32cd" stroke-dasharray="5,2" d="M415.85,-265C450.911,-265 493.049,-265 527.093,-265"/>
<polygon fill="#9a32cd" stroke="#9a32cd" points="415.689,-261.5 405.689,-265 415.689,-268.5 415.689,-261.5"/>
<text text-anchor="middle" x="474" y="-269" font-family="Helvetica,sans-Serif" font-size="10.00"> entities</text>
</g>
<!-- Node12&#45;&gt;Node6 -->
<g id="edge22" class="edge"><title>Node12&#45;&gt;Node6</title>
<path fill="none" stroke="#9a32cd" stroke-dasharray="5,2" d="M412.688,-466.421C445.692,-459.601 483.241,-445.811 506,-418 542.104,-373.881 488.681,-335.75 524,-291 526.67,-287.617 529.844,-284.672 533.334,-282.11"/>
<polygon fill="#9a32cd" stroke="#9a32cd" points="411.791,-463.028 402.613,-468.321 413.088,-469.907 411.791,-463.028"/>
<text text-anchor="middle" x="474" y="-461" font-family="Helvetica,sans-Serif" font-size="10.00"> cfg</text>
</g>
<!-- Node13&#45;&gt;Node6 -->
<g id="edge26" class="edge"><title>Node13&#45;&gt;Node6</title>
<path fill="none" stroke="#9a32cd" stroke-dasharray="5,2" d="M407.489,-401.483C413.113,-399.404 418.688,-397.23 424,-395 461.753,-379.147 479.936,-384.58 506,-353 524.264,-330.87 504.673,-312.208 524,-291 527.069,-287.632 530.63,-284.695 534.476,-282.133"/>
<polygon fill="#9a32cd" stroke="#9a32cd" points="406.244,-398.211 398.016,-404.885 408.61,-404.799 406.244,-398.211"/>
<text text-anchor="middle" x="474" y="-405" font-family="Helvetica,sans-Serif" font-size="10.00"> dataBroker</text>
<text text-anchor="middle" x="474" y="-392" font-family="Helvetica,sans-Serif" font-size="10.00">theDataBroker</text>
</g>
<!-- Node14 -->
<g id="node28" class="node"><title>Node14</title>
<a xlink:href="../../db/da9/classmars_1_1interfaces_1_1_sensor_manager_interface.html" target="_top" xlink:title="&quot;SensorManagerInterface&quot; declares the interfaces for all sensor operations that are used for the comm...">
<polygon fill="white" stroke="black" points="284,-196 284,-230 408,-230 408,-196 284,-196"/>
<text text-anchor="start" x="292" y="-217" font-family="Helvetica,sans-Serif" font-size="10.00">mars::interfaces::Sensor</text>
<text text-anchor="middle" x="346" y="-204" font-family="Helvetica,sans-Serif" font-size="10.00">ManagerInterface</text>
</a>
</g>
<!-- Node14&#45;&gt;Node6 -->
<g id="edge30" class="edge"><title>Node14&#45;&gt;Node6</title>
<path fill="none" stroke="#9a32cd" stroke-dasharray="5,2" d="M418.276,-228.403C452.978,-235.799 494.155,-244.574 527.487,-251.678"/>
<polygon fill="#9a32cd" stroke="#9a32cd" points="418.713,-224.918 408.203,-226.256 417.254,-231.764 418.713,-224.918"/>
<text text-anchor="middle" x="474" y="-250" font-family="Helvetica,sans-Serif" font-size="10.00"> sensors</text>
</g>
<!-- Node15 -->
<g id="node30" class="node"><title>Node15</title>
<a xlink:href="../../db/de9/classmars_1_1interfaces_1_1_motor_manager_interface.html" target="_top" xlink:title="&quot;MotorManagerInterface&quot; declares the interfaces for all motor operations that are used for the commun...">
<polygon fill="white" stroke="black" points="268.5,-144 268.5,-178 423.5,-178 423.5,-144 268.5,-144"/>
<text text-anchor="start" x="276.5" y="-165" font-family="Helvetica,sans-Serif" font-size="10.00">mars::interfaces::MotorManager</text>
<text text-anchor="middle" x="346" y="-152" font-family="Helvetica,sans-Serif" font-size="10.00">Interface</text>
</a>
</g>
<!-- Node15&#45;&gt;Node6 -->
<g id="edge32" class="edge"><title>Node15&#45;&gt;Node6</title>
<path fill="none" stroke="#9a32cd" stroke-dasharray="5,2" d="M407.898,-181.45C413.351,-183.307 418.778,-185.175 424,-187 460.634,-199.804 470.806,-200.649 506,-217 525.498,-226.059 546.498,-238.059 562.623,-247.794"/>
<polygon fill="#9a32cd" stroke="#9a32cd" points="408.692,-178.024 398.098,-178.133 406.448,-184.654 408.692,-178.024"/>
<text text-anchor="middle" x="474" y="-221" font-family="Helvetica,sans-Serif" font-size="10.00"> motors</text>
</g>
<!-- Node16 -->
<g id="node32" class="node"><title>Node16</title>
<a xlink:href="../../d9/d6a/classmars_1_1interfaces_1_1_load_center.html" target="_top" xlink:title="mars::interfaces::LoadCenter">
<polygon fill="white" stroke="black" points="274.5,-104.5 274.5,-125.5 417.5,-125.5 417.5,-104.5 274.5,-104.5"/>
<text text-anchor="middle" x="346" y="-112.5" font-family="Helvetica,sans-Serif" font-size="10.00">mars::interfaces::LoadCenter</text>
</a>
</g>
<!-- Node16&#45;&gt;Node6 -->
<g id="edge34" class="edge"><title>Node16&#45;&gt;Node6</title>
<path fill="none" stroke="#9a32cd" stroke-dasharray="5,2" d="M403.914,-128.377C410.751,-130.388 417.576,-132.602 424,-135 462.172,-149.252 473.293,-151.7 506,-176 534.482,-197.16 561.55,-228.587 576.929,-247.881"/>
<polygon fill="#9a32cd" stroke="#9a32cd" points="404.507,-124.908 393.933,-125.577 402.616,-131.648 404.507,-124.908"/>
<text text-anchor="middle" x="474" y="-180" font-family="Helvetica,sans-Serif" font-size="10.00"> loadCenter</text>
</g>
<!-- Node17 -->
<g id="node34" class="node"><title>Node17</title>
<a xlink:href="../../d1/d51/classmars_1_1interfaces_1_1_load_heightmap_interface.html" target="_top" xlink:title="mars::interfaces::LoadHeightmap\lInterface">
<polygon fill="white" stroke="black" points="0.5,-124 0.5,-158 161.5,-158 161.5,-124 0.5,-124"/>
<text text-anchor="start" x="8.5" y="-145" font-family="Helvetica,sans-Serif" font-size="10.00">mars::interfaces::LoadHeightmap</text>
<text text-anchor="middle" x="81" y="-132" font-family="Helvetica,sans-Serif" font-size="10.00">Interface</text>
</a>
</g>
<!-- Node17&#45;&gt;Node16 -->
<g id="edge36" class="edge"><title>Node17&#45;&gt;Node16</title>
<path fill="none" stroke="#9a32cd" stroke-dasharray="5,2" d="M171.844,-132.087C205.335,-128.801 242.778,-125.127 274.339,-122.031"/>
<polygon fill="#9a32cd" stroke="#9a32cd" points="171.198,-128.633 161.588,-133.093 171.882,-135.6 171.198,-128.633"/>
<text text-anchor="middle" x="215" y="-135" font-family="Helvetica,sans-Serif" font-size="10.00"> loadHeightmap</text>
</g>
<!-- Node18 -->
<g id="node36" class="node"><title>Node18</title>
<a xlink:href="../../d7/d02/classmars_1_1interfaces_1_1_load_mesh_interface.html" target="_top" xlink:title="mars::interfaces::LoadMesh\lInterface">
<polygon fill="white" stroke="black" points="12,-72 12,-106 150,-106 150,-72 12,-72"/>
<text text-anchor="start" x="20" y="-93" font-family="Helvetica,sans-Serif" font-size="10.00">mars::interfaces::LoadMesh</text>
<text text-anchor="middle" x="81" y="-80" font-family="Helvetica,sans-Serif" font-size="10.00">Interface</text>
</a>
</g>
<!-- Node18&#45;&gt;Node16 -->
<g id="edge38" class="edge"><title>Node18&#45;&gt;Node16</title>
<path fill="none" stroke="#9a32cd" stroke-dasharray="5,2" d="M160.315,-96.7819C196.535,-100.336 239.113,-104.513 274.353,-107.971"/>
<polygon fill="#9a32cd" stroke="#9a32cd" points="160.573,-93.2905 150.279,-95.7972 159.89,-100.257 160.573,-93.2905"/>
<text text-anchor="middle" x="215" y="-109" font-family="Helvetica,sans-Serif" font-size="10.00"> loadMesh</text>
</g>
<!-- Node19 -->
<g id="node38" class="node"><title>Node19</title>
<a xlink:href="../../d7/d4c/classmars_1_1interfaces_1_1_node_manager_interface.html" target="_top" xlink:title="&quot;NodeManagerInterface&quot; declares the interfaces for all NodeOperations that are used for the communica...">
<polygon fill="white" stroke="black" points="269,-52 269,-86 423,-86 423,-52 269,-52"/>
<text text-anchor="start" x="277" y="-73" font-family="Helvetica,sans-Serif" font-size="10.00">mars::interfaces::NodeManager</text>
<text text-anchor="middle" x="346" y="-60" font-family="Helvetica,sans-Serif" font-size="10.00">Interface</text>
</a>
</g>
<!-- Node19&#45;&gt;Node6 -->
<g id="edge40" class="edge"><title>Node19&#45;&gt;Node6</title>
<path fill="none" stroke="#9a32cd" stroke-dasharray="5,2" d="M432.949,-86.6429C458.434,-94.8885 485.052,-106.826 506,-124 547.426,-157.963 573.309,-218.085 584.137,-247.629"/>
<polygon fill="#9a32cd" stroke="#9a32cd" points="433.839,-83.2547 423.251,-83.6602 431.781,-89.9454 433.839,-83.2547"/>
<text text-anchor="middle" x="474" y="-128" font-family="Helvetica,sans-Serif" font-size="10.00"> nodes</text>
</g>
<!-- Node20 -->
<g id="node40" class="node"><title>Node20</title>
<a xlink:href="../../dc/de5/classmars_1_1interfaces_1_1_simulator_interface.html" target="_top" xlink:title="mars::interfaces::Simulator\lInterface">
<polygon fill="white" stroke="black" points="279,-0 279,-34 413,-34 413,-0 279,-0"/>
<text text-anchor="start" x="287" y="-21" font-family="Helvetica,sans-Serif" font-size="10.00">mars::interfaces::Simulator</text>
<text text-anchor="middle" x="346" y="-8" font-family="Helvetica,sans-Serif" font-size="10.00">Interface</text>
</a>
</g>
<!-- Node20&#45;&gt;Node6 -->
<g id="edge42" class="edge"><title>Node20&#45;&gt;Node6</title>
<path fill="none" stroke="#9a32cd" stroke-dasharray="5,2" d="M423.051,-30.617C451.982,-39.0165 483.318,-52.4869 506,-74 558.172,-123.483 579.94,-211.064 587.087,-247.91"/>
<polygon fill="#9a32cd" stroke="#9a32cd" points="423.917,-27.2253 413.347,-27.9586 422.067,-33.9766 423.917,-27.2253"/>
<text text-anchor="middle" x="474" y="-78" font-family="Helvetica,sans-Serif" font-size="10.00"> sim</text>
</g>
</g>
</svg>
