<?xml version="1.0" encoding="UTF-8" standalone="no"?>
<!DOCTYPE svg PUBLIC "-//W3C//DTD SVG 1.1//EN"
 "http://www.w3.org/Graphics/SVG/1.1/DTD/svg11.dtd">
<!-- Generated by graphviz version 2.26.3 (20100126.1600)
 -->
<!-- Title: configmaps::ConfigItem Pages: 1 -->
<svg width="219pt" height="262pt"
 viewBox="0.00 0.00 219.00 262.00" xmlns="http://www.w3.org/2000/svg" xmlns:xlink="http://www.w3.org/1999/xlink">
<g id="graph1" class="graph" transform="scale(1 1) rotate(0) translate(4 258)">
<title>configmaps::ConfigItem</title>
<polygon fill="white" stroke="white" points="-4,5 -4,-258 216,-258 216,5 -4,5"/>
<!-- Node1 -->
<g id="node1" class="node"><title>Node1</title>
<polygon fill="#bfbfbf" stroke="black" points="77.5,-0.5 77.5,-21.5 198.5,-21.5 198.5,-0.5 77.5,-0.5"/>
<text text-anchor="middle" x="138" y="-8.5" font-family="Helvetica,sans-Serif" font-size="10.00">configmaps::ConfigItem</text>
</g>
<!-- Node2 -->
<g id="node2" class="node"><title>Node2</title>
<a xlink:href="../../db/d84/classconfigmaps_1_1_config_map.html" target="_top" xlink:title="configmaps::ConfigMap">
<polygon fill="white" stroke="black" points="10,-84.5 10,-105.5 130,-105.5 130,-84.5 10,-84.5"/>
<text text-anchor="middle" x="70" y="-92.5" font-family="Helvetica,sans-Serif" font-size="10.00">configmaps::ConfigMap</text>
</a>
</g>
<!-- Node2&#45;&gt;Node1 -->
<g id="edge2" class="edge"><title>Node2&#45;&gt;Node1</title>
<path fill="none" stroke="#9a32cd" stroke-dasharray="5,2" d="M81.5233,-75.6136C88.3662,-64.7164 97.5353,-51.1133 107,-40 112.543,-33.4915 119.428,-26.927 125.3,-21.6936"/>
<polygon fill="#9a32cd" stroke="#9a32cd" points="78.4023,-74.008 76.1598,-84.3628 84.3702,-77.6666 78.4023,-74.008"/>
<text text-anchor="middle" x="125.5" y="-50.5" font-family="Helvetica,sans-Serif" font-size="10.00"> children</text>
</g>
<!-- Node3 -->
<g id="node4" class="node"><title>Node3</title>
<polygon fill="white" stroke="#bfbfbf" points="-0.5,-145 -0.5,-179 140.5,-179 140.5,-145 -0.5,-145"/>
<text text-anchor="start" x="7.5" y="-166" font-family="Helvetica,sans-Serif" font-size="10.00">configmaps::FIFOMap</text>
<text text-anchor="middle" x="70" y="-153" font-family="Helvetica,sans-Serif" font-size="10.00">&lt; std::string, ConfigVector &gt;</text>
</g>
<!-- Node3&#45;&gt;Node2 -->
<g id="edge4" class="edge"><title>Node3&#45;&gt;Node2</title>
<path fill="none" stroke="midnightblue" d="M70,-134.534C70,-124.306 70,-113.301 70,-105.506"/>
<polygon fill="midnightblue" stroke="midnightblue" points="66.5001,-134.746 70,-144.746 73.5001,-134.746 66.5001,-134.746"/>
</g>
<!-- Node4 -->
<g id="node6" class="node"><title>Node4</title>
<polygon fill="white" stroke="#bfbfbf" points="18,-219 18,-253 122,-253 122,-219 18,-219"/>
<text text-anchor="start" x="26" y="-240" font-family="Helvetica,sans-Serif" font-size="10.00">std::map&lt;std::string</text>
<text text-anchor="middle" x="70" y="-227" font-family="Helvetica,sans-Serif" font-size="10.00"> , ConfigVector &gt;</text>
</g>
<!-- Node4&#45;&gt;Node3 -->
<g id="edge6" class="edge"><title>Node4&#45;&gt;Node3</title>
<path fill="none" stroke="midnightblue" d="M70,-208.627C70,-198.725 70,-187.834 70,-179.07"/>
<polygon fill="midnightblue" stroke="midnightblue" points="66.5001,-208.837 70,-218.837 73.5001,-208.837 66.5001,-208.837"/>
</g>
<!-- Node5 -->
<g id="node8" class="node"><title>Node5</title>
<polygon fill="white" stroke="#bfbfbf" points="147.5,-84.5 147.5,-105.5 188.5,-105.5 188.5,-84.5 147.5,-84.5"/>
<text text-anchor="middle" x="168" y="-92.5" font-family="Helvetica,sans-Serif" font-size="10.00">string</text>
</g>
<!-- Node5&#45;&gt;Node1 -->
<g id="edge8" class="edge"><title>Node5&#45;&gt;Node1</title>
<path fill="none" stroke="#9a32cd" stroke-dasharray="5,2" d="M160.822,-74.9013C154.832,-58.1303 146.532,-34.8903 141.769,-21.5523"/>
<polygon fill="#9a32cd" stroke="#9a32cd" points="157.541,-76.1211 164.2,-84.3613 164.133,-73.7667 157.541,-76.1211"/>
<text text-anchor="middle" x="184" y="-57" font-family="Helvetica,sans-Serif" font-size="10.00"> sValue</text>
<text text-anchor="middle" x="184" y="-44" font-family="Helvetica,sans-Serif" font-size="10.00">parentName</text>
</g>
</g>
</svg>
