<?xml version="1.0" encoding="UTF-8" standalone="no"?>
<!DOCTYPE svg PUBLIC "-//W3C//DTD SVG 1.1//EN"
 "http://www.w3.org/Graphics/SVG/1.1/DTD/svg11.dtd">
<!-- Generated by graphviz version 2.36.0 (20140111.2315)
 -->
<!-- Title: /media/kavonszadkowski/work/marsdocs/mars/sim/src/core/ControllerManager.h Pages: 1 -->
<svg width="1941pt" height="322pt"
 viewBox="0.00 0.00 1941.00 322.00" xmlns="http://www.w3.org/2000/svg" xmlns:xlink="http://www.w3.org/1999/xlink">
<g id="graph0" class="graph" transform="scale(1 1) rotate(0) translate(4 318)">
<title>/media/kavonszadkowski/work/marsdocs/mars/sim/src/core/ControllerManager.h</title>
<polygon fill="white" stroke="none" points="-4,4 -4,-318 1937,-318 1937,4 -4,4"/>
<!-- Node1 -->
<g id="node1" class="node"><title>Node1</title>
<polygon fill="#bfbfbf" stroke="black" points="1547,-272.5 1547,-313.5 1693,-313.5 1693,-272.5 1547,-272.5"/>
<text text-anchor="start" x="1555" y="-301.5" font-family="Helvetica,sans-Serif" font-size="10.00">/media/kavonszadkowski</text>
<text text-anchor="start" x="1555" y="-290.5" font-family="Helvetica,sans-Serif" font-size="10.00">/work/marsdocs/mars/sim</text>
<text text-anchor="middle" x="1620" y="-279.5" font-family="Helvetica,sans-Serif" font-size="10.00">/src/core/ControllerManager.h</text>
</g>
<!-- Node2 -->
<g id="node2" class="node"><title>Node2</title>
<g id="a_node2"><a xlink:href="../../d2/d94/_controller_8h.html" target="_top" xlink:title="&quot;Controller&quot; provides an architecture to log all relevant data from the simulation in file...">
<polygon fill="white" stroke="black" points="1130.5,-210.5 1130.5,-229.5 1197.5,-229.5 1197.5,-210.5 1130.5,-210.5"/>
<text text-anchor="middle" x="1164" y="-217.5" font-family="Helvetica,sans-Serif" font-size="10.00">Controller.h</text>
</a>
</g>
</g>
<!-- Node1&#45;&gt;Node2 -->
<g id="edge1" class="edge"><title>Node1&#45;&gt;Node2</title>
<path fill="none" stroke="midnightblue" d="M1546.99,-280.632C1451.15,-265.71 1285.94,-239.987 1207.62,-227.792"/>
<polygon fill="midnightblue" stroke="midnightblue" points="1208.03,-224.314 1197.61,-226.234 1206.95,-231.23 1208.03,-224.314"/>
</g>
<!-- Node22 -->
<g id="node22" class="node"><title>Node22</title>
<polygon fill="white" stroke="#bfbfbf" points="1830.5,-137 1830.5,-167 1933.5,-167 1933.5,-137 1830.5,-137"/>
<text text-anchor="start" x="1838.5" y="-155" font-family="Helvetica,sans-Serif" font-size="10.00">mars/interfaces/sim</text>
<text text-anchor="middle" x="1882" y="-144" font-family="Helvetica,sans-Serif" font-size="10.00">/ControlCenter.h</text>
</g>
<!-- Node1&#45;&gt;Node22 -->
<g id="edge27" class="edge"><title>Node1&#45;&gt;Node22</title>
<path fill="none" stroke="midnightblue" d="M1603.08,-272.459C1588.46,-253.136 1572.14,-223.681 1589,-204 1621.22,-166.393 1755.21,-176.969 1820.61,-167.675"/>
<polygon fill="midnightblue" stroke="midnightblue" points="1821.21,-171.122 1830.49,-166.002 1820.04,-164.221 1821.21,-171.122"/>
</g>
<!-- Node27 -->
<g id="node27" class="node"><title>Node27</title>
<polygon fill="white" stroke="#bfbfbf" points="1598,-205 1598,-235 1744,-235 1744,-205 1598,-205"/>
<text text-anchor="start" x="1606" y="-223" font-family="Helvetica,sans-Serif" font-size="10.00">mars/interfaces/sim</text>
<text text-anchor="middle" x="1671" y="-212" font-family="Helvetica,sans-Serif" font-size="10.00">/ControllerManagerInterface.h</text>
</g>
<!-- Node1&#45;&gt;Node27 -->
<g id="edge28" class="edge"><title>Node1&#45;&gt;Node27</title>
<path fill="none" stroke="midnightblue" d="M1634.21,-272.223C1640.64,-263.267 1648.27,-252.639 1654.92,-243.392"/>
<polygon fill="midnightblue" stroke="midnightblue" points="1657.92,-245.212 1660.91,-235.049 1652.23,-241.128 1657.92,-245.212"/>
</g>
<!-- Node28 -->
<g id="node28" class="node"><title>Node28</title>
<polygon fill="white" stroke="#bfbfbf" points="1762,-210.5 1762,-229.5 1860,-229.5 1860,-210.5 1762,-210.5"/>
<text text-anchor="middle" x="1811" y="-217.5" font-family="Helvetica,sans-Serif" font-size="10.00">mars/utils/Mutex.h</text>
</g>
<!-- Node1&#45;&gt;Node28 -->
<g id="edge29" class="edge"><title>Node1&#45;&gt;Node28</title>
<path fill="none" stroke="midnightblue" d="M1672.7,-272.411C1706.58,-259.817 1749.52,-243.855 1778.49,-233.084"/>
<polygon fill="midnightblue" stroke="midnightblue" points="1779.97,-236.27 1788.12,-229.504 1777.53,-229.708 1779.97,-236.27"/>
</g>
<!-- Node3 -->
<g id="node3" class="node"><title>Node3</title>
<g id="a_node3"><a xlink:href="../../d6/de5/_sim_motor_8h.html" target="_top" xlink:title="SimMotor.h">
<polygon fill="white" stroke="black" points="563.5,-142.5 563.5,-161.5 630.5,-161.5 630.5,-142.5 563.5,-142.5"/>
<text text-anchor="middle" x="597" y="-149.5" font-family="Helvetica,sans-Serif" font-size="10.00">SimMotor.h</text>
</a>
</g>
</g>
<!-- Node2&#45;&gt;Node3 -->
<g id="edge2" class="edge"><title>Node2&#45;&gt;Node3</title>
<path fill="none" stroke="midnightblue" d="M1130.46,-218.496C1046.73,-216.645 822.114,-208.023 640,-168 636.03,-167.128 631.921,-166.001 627.888,-164.757"/>
<polygon fill="midnightblue" stroke="midnightblue" points="628.738,-161.351 618.144,-161.502 626.52,-167.99 628.738,-161.351"/>
</g>
<!-- Node13 -->
<g id="node13" class="node"><title>Node13</title>
<polygon fill="white" stroke="#bfbfbf" points="649,-142.5 649,-161.5 695,-161.5 695,-142.5 649,-142.5"/>
<text text-anchor="middle" x="672" y="-149.5" font-family="Helvetica,sans-Serif" font-size="10.00">dlfcn.h</text>
</g>
<!-- Node2&#45;&gt;Node13 -->
<g id="edge13" class="edge"><title>Node2&#45;&gt;Node13</title>
<path fill="none" stroke="midnightblue" d="M1130.38,-219.003C1053.41,-218.21 859.076,-211.65 704,-168 701.658,-167.341 699.273,-166.526 696.916,-165.619"/>
<polygon fill="midnightblue" stroke="midnightblue" points="698.121,-162.326 687.555,-161.541 695.325,-168.744 698.121,-162.326"/>
</g>
<!-- Node14 -->
<g id="node14" class="node"><title>Node14</title>
<polygon fill="white" stroke="#bfbfbf" points="713,-142.5 713,-161.5 781,-161.5 781,-142.5 713,-142.5"/>
<text text-anchor="middle" x="747" y="-149.5" font-family="Helvetica,sans-Serif" font-size="10.00">sys/types.h</text>
</g>
<!-- Node2&#45;&gt;Node14 -->
<g id="edge14" class="edge"><title>Node2&#45;&gt;Node14</title>
<path fill="none" stroke="midnightblue" d="M1130.31,-216.677C1064.27,-211.625 913.46,-197.635 790,-168 786.324,-167.118 782.521,-166.042 778.767,-164.875"/>
<polygon fill="midnightblue" stroke="midnightblue" points="779.658,-161.483 769.065,-161.647 777.448,-168.125 779.658,-161.483"/>
</g>
<!-- Node15 -->
<g id="node15" class="node"><title>Node15</title>
<polygon fill="white" stroke="#bfbfbf" points="799.5,-142.5 799.5,-161.5 872.5,-161.5 872.5,-142.5 799.5,-142.5"/>
<text text-anchor="middle" x="836" y="-149.5" font-family="Helvetica,sans-Serif" font-size="10.00">sys/socket.h</text>
</g>
<!-- Node2&#45;&gt;Node15 -->
<g id="edge15" class="edge"><title>Node2&#45;&gt;Node15</title>
<path fill="none" stroke="midnightblue" d="M1130.12,-214.499C1076.68,-207.042 969.761,-190.667 881,-168 877.16,-167.019 873.174,-165.877 869.231,-164.669"/>
<polygon fill="midnightblue" stroke="midnightblue" points="870.223,-161.312 859.632,-161.585 868.081,-167.976 870.223,-161.312"/>
</g>
<!-- Node16 -->
<g id="node16" class="node"><title>Node16</title>
<polygon fill="white" stroke="#bfbfbf" points="890.5,-142.5 890.5,-161.5 955.5,-161.5 955.5,-142.5 890.5,-142.5"/>
<text text-anchor="middle" x="923" y="-149.5" font-family="Helvetica,sans-Serif" font-size="10.00">netinet/in.h</text>
</g>
<!-- Node2&#45;&gt;Node16 -->
<g id="edge16" class="edge"><title>Node2&#45;&gt;Node16</title>
<path fill="none" stroke="midnightblue" d="M1130.45,-211.538C1090.48,-202.398 1021.85,-185.908 964,-168 960.887,-167.036 957.662,-165.973 954.452,-164.871"/>
<polygon fill="midnightblue" stroke="midnightblue" points="955.585,-161.559 944.99,-161.509 953.241,-168.155 955.585,-161.559"/>
</g>
<!-- Node17 -->
<g id="node17" class="node"><title>Node17</title>
<polygon fill="white" stroke="#bfbfbf" points="973.5,-142.5 973.5,-161.5 1024.5,-161.5 1024.5,-142.5 973.5,-142.5"/>
<text text-anchor="middle" x="999" y="-149.5" font-family="Helvetica,sans-Serif" font-size="10.00">unistd.h</text>
</g>
<!-- Node2&#45;&gt;Node17 -->
<g id="edge17" class="edge"><title>Node2&#45;&gt;Node17</title>
<path fill="none" stroke="midnightblue" d="M1141.16,-210.458C1114.92,-200.566 1070.64,-183.623 1033,-168 1031.17,-167.24 1029.28,-166.445 1027.39,-165.637"/>
<polygon fill="midnightblue" stroke="midnightblue" points="1028.56,-162.331 1018,-161.558 1025.78,-168.751 1028.56,-162.331"/>
</g>
<!-- Node18 -->
<g id="node18" class="node"><title>Node18</title>
<polygon fill="white" stroke="#bfbfbf" points="1042.5,-142.5 1042.5,-161.5 1091.5,-161.5 1091.5,-142.5 1042.5,-142.5"/>
<text text-anchor="middle" x="1067" y="-149.5" font-family="Helvetica,sans-Serif" font-size="10.00">netdb.h</text>
</g>
<!-- Node2&#45;&gt;Node18 -->
<g id="edge18" class="edge"><title>Node2&#45;&gt;Node18</title>
<path fill="none" stroke="midnightblue" d="M1151.32,-210.372C1135.27,-199.452 1107.4,-180.489 1088.12,-167.369"/>
<polygon fill="midnightblue" stroke="midnightblue" points="1089.92,-164.362 1079.68,-161.63 1085.98,-170.15 1089.92,-164.362"/>
</g>
<!-- Node19 -->
<g id="node19" class="node"><title>Node19</title>
<polygon fill="white" stroke="#bfbfbf" points="1110,-142.5 1110,-161.5 1154,-161.5 1154,-142.5 1110,-142.5"/>
<text text-anchor="middle" x="1132" y="-149.5" font-family="Helvetica,sans-Serif" font-size="10.00">fcntl.h</text>
</g>
<!-- Node2&#45;&gt;Node19 -->
<g id="edge19" class="edge"><title>Node2&#45;&gt;Node19</title>
<path fill="none" stroke="midnightblue" d="M1159.82,-210.372C1155,-200.446 1146.97,-183.874 1140.77,-171.086"/>
<polygon fill="midnightblue" stroke="midnightblue" points="1143.8,-169.312 1136.29,-161.841 1137.5,-172.366 1143.8,-169.312"/>
</g>
<!-- Node20 -->
<g id="node20" class="node"><title>Node20</title>
<polygon fill="white" stroke="#bfbfbf" points="1172,-142.5 1172,-161.5 1220,-161.5 1220,-142.5 1172,-142.5"/>
<text text-anchor="middle" x="1196" y="-149.5" font-family="Helvetica,sans-Serif" font-size="10.00">stdlib.h</text>
</g>
<!-- Node2&#45;&gt;Node20 -->
<g id="edge20" class="edge"><title>Node2&#45;&gt;Node20</title>
<path fill="none" stroke="midnightblue" d="M1168.18,-210.372C1173,-200.446 1181.03,-183.874 1187.23,-171.086"/>
<polygon fill="midnightblue" stroke="midnightblue" points="1190.5,-172.366 1191.71,-161.841 1184.2,-169.312 1190.5,-172.366"/>
</g>
<!-- Node21 -->
<g id="node21" class="node"><title>Node21</title>
<polygon fill="white" stroke="#bfbfbf" points="1238,-142.5 1238,-161.5 1284,-161.5 1284,-142.5 1238,-142.5"/>
<text text-anchor="middle" x="1261" y="-149.5" font-family="Helvetica,sans-Serif" font-size="10.00">stdio.h</text>
</g>
<!-- Node2&#45;&gt;Node21 -->
<g id="edge21" class="edge"><title>Node2&#45;&gt;Node21</title>
<path fill="none" stroke="midnightblue" d="M1176.68,-210.372C1192.73,-199.452 1220.6,-180.489 1239.88,-167.369"/>
<polygon fill="midnightblue" stroke="midnightblue" points="1242.02,-170.15 1248.32,-161.63 1238.08,-164.362 1242.02,-170.15"/>
</g>
<!-- Node2&#45;&gt;Node22 -->
<g id="edge22" class="edge"><title>Node2&#45;&gt;Node22</title>
<path fill="none" stroke="midnightblue" d="M1197.73,-218.326C1293.7,-215.999 1576.48,-206.289 1820.1,-167.959"/>
<polygon fill="midnightblue" stroke="midnightblue" points="1820.88,-171.378 1830.2,-166.348 1819.78,-164.465 1820.88,-171.378"/>
</g>
<!-- Node23 -->
<g id="node23" class="node"><title>Node23</title>
<polygon fill="white" stroke="#bfbfbf" points="1302.5,-142.5 1302.5,-161.5 1403.5,-161.5 1403.5,-142.5 1302.5,-142.5"/>
<text text-anchor="middle" x="1353" y="-149.5" font-family="Helvetica,sans-Serif" font-size="10.00">mars/utils/Thread.h</text>
</g>
<!-- Node2&#45;&gt;Node23 -->
<g id="edge23" class="edge"><title>Node2&#45;&gt;Node23</title>
<path fill="none" stroke="midnightblue" d="M1188.71,-210.372C1222.05,-198.728 1281.58,-177.939 1319.09,-164.841"/>
<polygon fill="midnightblue" stroke="midnightblue" points="1320.3,-168.127 1328.58,-161.526 1317.99,-161.518 1320.3,-168.127"/>
</g>
<!-- Node24 -->
<g id="node24" class="node"><title>Node24</title>
<polygon fill="white" stroke="#bfbfbf" points="1422,-137 1422,-167 1538,-167 1538,-137 1422,-137"/>
<text text-anchor="start" x="1430" y="-155" font-family="Helvetica,sans-Serif" font-size="10.00">mars/interfaces/sensor</text>
<text text-anchor="middle" x="1480" y="-144" font-family="Helvetica,sans-Serif" font-size="10.00">_bases.h</text>
</g>
<!-- Node2&#45;&gt;Node24 -->
<g id="edge24" class="edge"><title>Node2&#45;&gt;Node24</title>
<path fill="none" stroke="midnightblue" d="M1197.73,-212.223C1243.65,-202.961 1328.68,-185.688 1411.9,-168.004"/>
<polygon fill="midnightblue" stroke="midnightblue" points="1412.72,-171.407 1421.77,-165.901 1411.26,-164.561 1412.72,-171.407"/>
</g>
<!-- Node25 -->
<g id="node25" class="node"><title>Node25</title>
<polygon fill="white" stroke="#bfbfbf" points="1556.5,-137 1556.5,-167 1685.5,-167 1685.5,-137 1556.5,-137"/>
<text text-anchor="start" x="1564.5" y="-155" font-family="Helvetica,sans-Serif" font-size="10.00">mars/interfaces/Controller</text>
<text text-anchor="middle" x="1621" y="-144" font-family="Helvetica,sans-Serif" font-size="10.00">Data.h</text>
</g>
<!-- Node2&#45;&gt;Node25 -->
<g id="edge25" class="edge"><title>Node2&#45;&gt;Node25</title>
<path fill="none" stroke="midnightblue" d="M1197.58,-215.257C1264.21,-207.666 1417.8,-189.355 1546,-168 1546.11,-167.982 1546.21,-167.965 1546.32,-167.947"/>
<polygon fill="midnightblue" stroke="midnightblue" points="1547.16,-171.354 1556.41,-166.194 1545.96,-164.457 1547.16,-171.354"/>
</g>
<!-- Node26 -->
<g id="node26" class="node"><title>Node26</title>
<polygon fill="white" stroke="#bfbfbf" points="1704,-137 1704,-167 1812,-167 1812,-137 1704,-137"/>
<text text-anchor="start" x="1712" y="-155" font-family="Helvetica,sans-Serif" font-size="10.00">mars/interfaces/sim</text>
<text text-anchor="middle" x="1758" y="-144" font-family="Helvetica,sans-Serif" font-size="10.00">/ControllerInterface.h</text>
</g>
<!-- Node2&#45;&gt;Node26 -->
<g id="edge26" class="edge"><title>Node2&#45;&gt;Node26</title>
<path fill="none" stroke="midnightblue" d="M1197.69,-217.332C1281.85,-212.823 1507.93,-198.616 1694,-168 1694.1,-167.983 1694.2,-167.966 1694.31,-167.949"/>
<polygon fill="midnightblue" stroke="midnightblue" points="1694.76,-171.424 1703.98,-166.199 1693.52,-164.535 1694.76,-171.424"/>
</g>
<!-- Node4 -->
<g id="node4" class="node"><title>Node4</title>
<g id="a_node4"><a xlink:href="../../d0/ddc/_sim_joint_8h.html" target="_top" xlink:title="SimJoint.h">
<polygon fill="white" stroke="black" points="192.5,-74.5 192.5,-93.5 255.5,-93.5 255.5,-74.5 192.5,-74.5"/>
<text text-anchor="middle" x="224" y="-81.5" font-family="Helvetica,sans-Serif" font-size="10.00">SimJoint.h</text>
</a>
</g>
</g>
<!-- Node3&#45;&gt;Node4 -->
<g id="edge3" class="edge"><title>Node3&#45;&gt;Node4</title>
<path fill="none" stroke="midnightblue" d="M563.241,-145.027C494.817,-132.919 339.975,-105.521 265.517,-92.3461"/>
<polygon fill="midnightblue" stroke="midnightblue" points="266.018,-88.8805 255.561,-90.5846 264.798,-95.7735 266.018,-88.8805"/>
</g>
<!-- Node6 -->
<g id="node6" class="node"><title>Node6</title>
<polygon fill="white" stroke="#bfbfbf" points="294,-1 294,-31 428,-31 428,-1 294,-1"/>
<text text-anchor="start" x="302" y="-19" font-family="Helvetica,sans-Serif" font-size="10.00">mars/data_broker/Producer</text>
<text text-anchor="middle" x="361" y="-8" font-family="Helvetica,sans-Serif" font-size="10.00">Interface.h</text>
</g>
<!-- Node3&#45;&gt;Node6 -->
<g id="edge7" class="edge"><title>Node3&#45;&gt;Node6</title>
<path fill="none" stroke="midnightblue" d="M563.45,-149.021C503.086,-144.685 380.016,-132.043 354,-100 340.68,-83.5944 344.848,-58.873 350.879,-40.6754"/>
<polygon fill="midnightblue" stroke="midnightblue" points="354.241,-41.6726 354.424,-31.0794 347.675,-39.2468 354.241,-41.6726"/>
</g>
<!-- Node8 -->
<g id="node8" class="node"><title>Node8</title>
<polygon fill="white" stroke="#bfbfbf" points="363,-69 363,-99 497,-99 497,-69 363,-69"/>
<text text-anchor="start" x="371" y="-87" font-family="Helvetica,sans-Serif" font-size="10.00">mars/data_broker/Receiver</text>
<text text-anchor="middle" x="430" y="-76" font-family="Helvetica,sans-Serif" font-size="10.00">Interface.h</text>
</g>
<!-- Node3&#45;&gt;Node8 -->
<g id="edge8" class="edge"><title>Node3&#45;&gt;Node8</title>
<path fill="none" stroke="midnightblue" d="M575.168,-142.372C549.929,-132.397 507.706,-115.71 475.284,-102.897"/>
<polygon fill="midnightblue" stroke="midnightblue" points="476.153,-99.4767 465.567,-99.0562 473.58,-105.987 476.153,-99.4767"/>
</g>
<!-- Node9 -->
<g id="node9" class="node"><title>Node9</title>
<polygon fill="white" stroke="#bfbfbf" points="515.5,-74.5 515.5,-93.5 678.5,-93.5 678.5,-74.5 515.5,-74.5"/>
<text text-anchor="middle" x="597" y="-81.5" font-family="Helvetica,sans-Serif" font-size="10.00">mars/data_broker/DataPackage.h</text>
</g>
<!-- Node3&#45;&gt;Node9 -->
<g id="edge9" class="edge"><title>Node3&#45;&gt;Node9</title>
<path fill="none" stroke="midnightblue" d="M597,-142.372C597,-132.643 597,-116.528 597,-103.85"/>
<polygon fill="midnightblue" stroke="midnightblue" points="600.5,-103.841 597,-93.8411 593.5,-103.841 600.5,-103.841"/>
</g>
<!-- Node10 -->
<g id="node10" class="node"><title>Node10</title>
<polygon fill="white" stroke="#bfbfbf" points="696.5,-74.5 696.5,-93.5 837.5,-93.5 837.5,-74.5 696.5,-74.5"/>
<text text-anchor="middle" x="767" y="-81.5" font-family="Helvetica,sans-Serif" font-size="10.00">mars/interfaces/MotorData.h</text>
</g>
<!-- Node3&#45;&gt;Node10 -->
<g id="edge10" class="edge"><title>Node3&#45;&gt;Node10</title>
<path fill="none" stroke="midnightblue" d="M619.225,-142.372C648.96,-130.827 701.852,-110.293 735.635,-97.1772"/>
<polygon fill="midnightblue" stroke="midnightblue" points="736.984,-100.408 745.039,-93.5259 734.451,-93.8824 736.984,-100.408"/>
</g>
<!-- Node11 -->
<g id="node11" class="node"><title>Node11</title>
<polygon fill="white" stroke="#bfbfbf" points="855.5,-74.5 855.5,-93.5 968.5,-93.5 968.5,-74.5 855.5,-74.5"/>
<text text-anchor="middle" x="912" y="-81.5" font-family="Helvetica,sans-Serif" font-size="10.00">mars/utils/mathUtils.h</text>
</g>
<!-- Node3&#45;&gt;Node11 -->
<g id="edge11" class="edge"><title>Node3&#45;&gt;Node11</title>
<path fill="none" stroke="midnightblue" d="M619.55,-142.36C626.081,-140.07 633.266,-137.75 640,-136 729.953,-112.616 754.877,-118.305 846,-100 852.579,-98.6784 859.508,-97.1999 866.302,-95.7003"/>
<polygon fill="midnightblue" stroke="midnightblue" points="867.111,-99.1058 876.104,-93.5041 865.581,-92.2752 867.111,-99.1058"/>
</g>
<!-- Node12 -->
<g id="node12" class="node"><title>Node12</title>
<polygon fill="white" stroke="#bfbfbf" points="987,-74.5 987,-93.5 1041,-93.5 1041,-74.5 987,-74.5"/>
<text text-anchor="middle" x="1014" y="-81.5" font-family="Helvetica,sans-Serif" font-size="10.00">iostream</text>
</g>
<!-- Node3&#45;&gt;Node12 -->
<g id="edge12" class="edge"><title>Node3&#45;&gt;Node12</title>
<path fill="none" stroke="midnightblue" d="M618.593,-142.383C625.354,-139.98 632.903,-137.595 640,-136 786.965,-102.977 830.897,-136.652 977,-100 980.061,-99.2321 983.204,-98.2628 986.302,-97.1882"/>
<polygon fill="midnightblue" stroke="midnightblue" points="987.808,-100.359 995.894,-93.5134 985.304,-93.8225 987.808,-100.359"/>
</g>
<!-- Node5 -->
<g id="node5" class="node"><title>Node5</title>
<polygon fill="white" stroke="#bfbfbf" points="-0.5,-1 -0.5,-31 102.5,-31 102.5,-1 -0.5,-1"/>
<text text-anchor="start" x="7.5" y="-19" font-family="Helvetica,sans-Serif" font-size="10.00">mars/interfaces/sim</text>
<text text-anchor="middle" x="51" y="-8" font-family="Helvetica,sans-Serif" font-size="10.00">/JointInterface.h</text>
</g>
<!-- Node4&#45;&gt;Node5 -->
<g id="edge4" class="edge"><title>Node4&#45;&gt;Node5</title>
<path fill="none" stroke="midnightblue" d="M201.383,-74.3717C175.125,-64.3539 131.12,-47.5661 97.4773,-34.7312"/>
<polygon fill="midnightblue" stroke="midnightblue" points="98.4351,-31.3506 87.8443,-31.0562 95.9399,-37.8908 98.4351,-31.3506"/>
</g>
<!-- Node4&#45;&gt;Node6 -->
<g id="edge5" class="edge"><title>Node4&#45;&gt;Node6</title>
<path fill="none" stroke="midnightblue" d="M241.91,-74.3717C262.258,-64.5689 296.063,-48.2835 322.468,-35.5629"/>
<polygon fill="midnightblue" stroke="midnightblue" points="324.333,-38.5496 331.823,-31.0562 321.295,-32.2432 324.333,-38.5496"/>
</g>
<!-- Node7 -->
<g id="node7" class="node"><title>Node7</title>
<polygon fill="white" stroke="#bfbfbf" points="120.5,-1 120.5,-31 275.5,-31 275.5,-1 120.5,-1"/>
<text text-anchor="start" x="128.5" y="-19" font-family="Helvetica,sans-Serif" font-size="10.00">mars/data_broker/DataPackage</text>
<text text-anchor="middle" x="198" y="-8" font-family="Helvetica,sans-Serif" font-size="10.00">Mapping.h</text>
</g>
<!-- Node4&#45;&gt;Node7 -->
<g id="edge6" class="edge"><title>Node4&#45;&gt;Node7</title>
<path fill="none" stroke="midnightblue" d="M220.601,-74.3717C217.224,-65.8 211.895,-52.2719 207.259,-40.5045"/>
<polygon fill="midnightblue" stroke="midnightblue" points="210.508,-39.2027 203.587,-31.1815 203.996,-41.7684 210.508,-39.2027"/>
</g>
</g>
</svg>
