<?xml version="1.0" encoding="UTF-8" standalone="no"?>
<!DOCTYPE svg PUBLIC "-//W3C//DTD SVG 1.1//EN"
 "http://www.w3.org/Graphics/SVG/1.1/DTD/svg11.dtd">
<!-- Generated by graphviz version 2.36.0 (20140111.2315)
 -->
<!-- Title: mars::interfaces::SensorInterface Pages: 1 -->
<svg width="518pt" height="530pt"
 viewBox="0.00 0.00 518.00 530.00" xmlns="http://www.w3.org/2000/svg" xmlns:xlink="http://www.w3.org/1999/xlink">
<g id="graph0" class="graph" transform="scale(1 1) rotate(0) translate(4 526)">
<title>mars::interfaces::SensorInterface</title>
<polygon fill="white" stroke="none" points="-4,4 -4,-526 514,-526 514,4 -4,4"/>
<!-- Node1 -->
<g id="node1" class="node"><title>Node1</title>
<polygon fill="#bfbfbf" stroke="black" points="0,-229 0,-259 124,-259 124,-229 0,-229"/>
<text text-anchor="start" x="8" y="-247" font-family="Helvetica,sans-Serif" font-size="10.00">mars::interfaces::Sensor</text>
<text text-anchor="middle" x="62" y="-236" font-family="Helvetica,sans-Serif" font-size="10.00">Interface</text>
</g>
<!-- Node2 -->
<g id="node2" class="node"><title>Node2</title>
<g id="a_node2"><a xlink:href="../../d2/d51/classmars_1_1sim_1_1_camera_sensor.html" target="_top" xlink:title="mars::sim::CameraSensor">
<polygon fill="white" stroke="black" points="172.5,-479.5 172.5,-498.5 303.5,-498.5 303.5,-479.5 172.5,-479.5"/>
<text text-anchor="middle" x="238" y="-486.5" font-family="Helvetica,sans-Serif" font-size="10.00">mars::sim::CameraSensor</text>
</a>
</g>
</g>
<!-- Node1&#45;&gt;Node2 -->
<g id="edge1" class="edge"><title>Node1&#45;&gt;Node2</title>
<path fill="none" stroke="midnightblue" d="M66.3752,-268.998C74.0612,-315.825 97.3276,-416.82 160,-470 164.514,-473.831 169.685,-476.911 175.163,-479.384"/>
<polygon fill="midnightblue" stroke="midnightblue" points="69.8308,-268.441 64.8515,-259.089 62.9121,-269.505 69.8308,-268.441"/>
</g>
<!-- Node3 -->
<g id="node3" class="node"><title>Node3</title>
<g id="a_node3"><a xlink:href="../../d0/d67/classmars_1_1sim_1_1_haptic_field_sensor.html" target="_top" xlink:title="mars::sim::HapticFieldSensor">
<polygon fill="white" stroke="black" points="165,-441.5 165,-460.5 311,-460.5 311,-441.5 165,-441.5"/>
<text text-anchor="middle" x="238" y="-448.5" font-family="Helvetica,sans-Serif" font-size="10.00">mars::sim::HapticFieldSensor</text>
</a>
</g>
</g>
<!-- Node1&#45;&gt;Node3 -->
<g id="edge2" class="edge"><title>Node1&#45;&gt;Node3</title>
<path fill="none" stroke="midnightblue" d="M68.783,-269.062C79.5023,-309.706 106.411,-389.701 160,-432 164.864,-435.839 170.396,-438.915 176.213,-441.379"/>
<polygon fill="midnightblue" stroke="midnightblue" points="72.1263,-268.005 66.2897,-259.163 65.3384,-269.715 72.1263,-268.005"/>
</g>
<!-- Node4 -->
<g id="node4" class="node"><title>Node4</title>
<g id="a_node4"><a xlink:href="../../de/dff/classmars_1_1sim_1_1_joint6_d_o_f_sensor.html" target="_top" xlink:title="mars::sim::Joint6DOFSensor">
<polygon fill="white" stroke="black" points="166,-403.5 166,-422.5 310,-422.5 310,-403.5 166,-403.5"/>
<text text-anchor="middle" x="238" y="-410.5" font-family="Helvetica,sans-Serif" font-size="10.00">mars::sim::Joint6DOFSensor</text>
</a>
</g>
</g>
<!-- Node1&#45;&gt;Node4 -->
<g id="edge3" class="edge"><title>Node1&#45;&gt;Node4</title>
<path fill="none" stroke="midnightblue" d="M72.0959,-268.578C85.8375,-302.206 115.146,-362.023 160,-394 165.382,-397.837 171.452,-400.902 177.764,-403.352"/>
<polygon fill="midnightblue" stroke="midnightblue" points="75.2588,-267.058 68.3311,-259.042 68.7479,-269.629 75.2588,-267.058"/>
</g>
<!-- Node5 -->
<g id="node5" class="node"><title>Node5</title>
<g id="a_node5"><a xlink:href="../../d0/d80/classmars_1_1sim_1_1_joint_array_sensor.html" target="_top" xlink:title="mars::sim::JointArraySensor">
<polygon fill="white" stroke="black" points="167.5,-365.5 167.5,-384.5 308.5,-384.5 308.5,-365.5 167.5,-365.5"/>
<text text-anchor="middle" x="238" y="-372.5" font-family="Helvetica,sans-Serif" font-size="10.00">mars::sim::JointArraySensor</text>
</a>
</g>
</g>
<!-- Node1&#45;&gt;Node5 -->
<g id="edge4" class="edge"><title>Node1&#45;&gt;Node5</title>
<path fill="none" stroke="midnightblue" d="M77.4067,-268.102C94.0563,-293.828 123.856,-333.866 160,-356 166.341,-359.883 173.433,-362.973 180.677,-365.433"/>
<polygon fill="midnightblue" stroke="midnightblue" points="80.1724,-265.926 71.8802,-259.331 74.25,-269.658 80.1724,-265.926"/>
</g>
<!-- Node11 -->
<g id="node11" class="node"><title>Node11</title>
<g id="a_node11"><a xlink:href="../../dc/d77/classmars_1_1sim_1_1_motor_current_sensor.html" target="_top" xlink:title="mars::sim::MotorCurrentSensor">
<polygon fill="white" stroke="black" points="161,-327.5 161,-346.5 315,-346.5 315,-327.5 161,-327.5"/>
<text text-anchor="middle" x="238" y="-334.5" font-family="Helvetica,sans-Serif" font-size="10.00">mars::sim::MotorCurrentSensor</text>
</a>
</g>
</g>
<!-- Node1&#45;&gt;Node11 -->
<g id="edge10" class="edge"><title>Node1&#45;&gt;Node11</title>
<path fill="none" stroke="midnightblue" d="M86.5252,-265.914C105.164,-282.181 132.552,-303.754 160,-317 168.832,-321.262 178.687,-324.699 188.319,-327.439"/>
<polygon fill="midnightblue" stroke="midnightblue" points="88.6502,-263.12 78.8535,-259.085 83.996,-268.348 88.6502,-263.12"/>
</g>
<!-- Node12 -->
<g id="node12" class="node"><title>Node12</title>
<g id="a_node12"><a xlink:href="../../d7/d1c/classmars_1_1sim_1_1_motor_position_sensor.html" target="_top" xlink:title="mars::sim::MotorPosition\lSensor">
<polygon fill="white" stroke="black" points="175,-278 175,-308 301,-308 301,-278 175,-278"/>
<text text-anchor="start" x="183" y="-296" font-family="Helvetica,sans-Serif" font-size="10.00">mars::sim::MotorPosition</text>
<text text-anchor="middle" x="238" y="-285" font-family="Helvetica,sans-Serif" font-size="10.00">Sensor</text>
</a>
</g>
</g>
<!-- Node1&#45;&gt;Node12 -->
<g id="edge11" class="edge"><title>Node1&#45;&gt;Node12</title>
<path fill="none" stroke="midnightblue" d="M126.284,-261.821C145.07,-267.112 165.455,-272.852 183.552,-277.948"/>
<polygon fill="midnightblue" stroke="midnightblue" points="127.2,-258.443 116.626,-259.101 125.302,-265.181 127.2,-258.443"/>
</g>
<!-- Node13 -->
<g id="node13" class="node"><title>Node13</title>
<g id="a_node13"><a xlink:href="../../d8/d7b/classmars_1_1sim_1_1_multi_level_laser_range_finder.html" target="_top" xlink:title="mars::sim::MultiLevelLaser\lRangeFinder">
<polygon fill="white" stroke="black" points="171,-229 171,-259 305,-259 305,-229 171,-229"/>
<text text-anchor="start" x="179" y="-247" font-family="Helvetica,sans-Serif" font-size="10.00">mars::sim::MultiLevelLaser</text>
<text text-anchor="middle" x="238" y="-236" font-family="Helvetica,sans-Serif" font-size="10.00">RangeFinder</text>
</a>
</g>
</g>
<!-- Node1&#45;&gt;Node13 -->
<g id="edge12" class="edge"><title>Node1&#45;&gt;Node13</title>
<path fill="none" stroke="midnightblue" d="M134.375,-244C146.455,-244 158.952,-244 170.89,-244"/>
<polygon fill="midnightblue" stroke="midnightblue" points="134.346,-240.5 124.346,-244 134.346,-247.5 134.346,-240.5"/>
</g>
<!-- Node14 -->
<g id="node14" class="node"><title>Node14</title>
<g id="a_node14"><a xlink:href="../../d1/d38/classmars_1_1sim_1_1_node_array_sensor.html" target="_top" xlink:title="mars::sim::NodeArraySensor">
<polygon fill="white" stroke="black" points="166.5,-190.5 166.5,-209.5 309.5,-209.5 309.5,-190.5 166.5,-190.5"/>
<text text-anchor="middle" x="238" y="-197.5" font-family="Helvetica,sans-Serif" font-size="10.00">mars::sim::NodeArraySensor</text>
</a>
</g>
</g>
<!-- Node1&#45;&gt;Node14 -->
<g id="edge13" class="edge"><title>Node1&#45;&gt;Node14</title>
<path fill="none" stroke="midnightblue" d="M132.102,-226.526C155.047,-220.724 179.729,-214.482 199.383,-209.512"/>
<polygon fill="midnightblue" stroke="midnightblue" points="131.231,-223.136 122.394,-228.981 132.947,-229.922 131.231,-223.136"/>
</g>
<!-- Node21 -->
<g id="node21" class="node"><title>Node21</title>
<g id="a_node21"><a xlink:href="../../d4/d37/classmars_1_1sim_1_1_node_contact_sensor.html" target="_top" xlink:title="mars::sim::NodeContactSensor">
<polygon fill="white" stroke="black" points="160.5,-152.5 160.5,-171.5 315.5,-171.5 315.5,-152.5 160.5,-152.5"/>
<text text-anchor="middle" x="238" y="-159.5" font-family="Helvetica,sans-Serif" font-size="10.00">mars::sim::NodeContactSensor</text>
</a>
</g>
</g>
<!-- Node1&#45;&gt;Node21 -->
<g id="edge20" class="edge"><title>Node1&#45;&gt;Node21</title>
<path fill="none" stroke="midnightblue" d="M90.0243,-222.913C108.747,-209.217 134.756,-191.941 160,-181 168.717,-177.222 178.329,-174.1 187.72,-171.555"/>
<polygon fill="midnightblue" stroke="midnightblue" points="87.8917,-220.137 81.9633,-228.918 92.0737,-225.751 87.8917,-220.137"/>
</g>
<!-- Node22 -->
<g id="node22" class="node"><title>Node22</title>
<g id="a_node22"><a xlink:href="../../d1/d3c/classmars_1_1sim_1_1_ray_grid_sensor.html" target="_top" xlink:title="mars::sim::RayGridSensor">
<polygon fill="white" stroke="black" points="171.5,-114.5 171.5,-133.5 304.5,-133.5 304.5,-114.5 171.5,-114.5"/>
<text text-anchor="middle" x="238" y="-121.5" font-family="Helvetica,sans-Serif" font-size="10.00">mars::sim::RayGridSensor</text>
</a>
</g>
</g>
<!-- Node1&#45;&gt;Node22 -->
<g id="edge21" class="edge"><title>Node1&#45;&gt;Node22</title>
<path fill="none" stroke="midnightblue" d="M79.3197,-220.466C96.6635,-197.259 126.211,-162.515 160,-143 166.677,-139.144 174.117,-136.065 181.668,-133.609"/>
<polygon fill="midnightblue" stroke="midnightblue" points="76.3505,-218.598 73.2867,-228.74 82.0065,-222.722 76.3505,-218.598"/>
</g>
<!-- Node23 -->
<g id="node23" class="node"><title>Node23</title>
<g id="a_node23"><a xlink:href="../../d3/dde/classmars_1_1sim_1_1_ray_sensor.html" target="_top" xlink:title="mars::sim::RaySensor">
<polygon fill="white" stroke="black" points="180.5,-76.5 180.5,-95.5 295.5,-95.5 295.5,-76.5 180.5,-76.5"/>
<text text-anchor="middle" x="238" y="-83.5" font-family="Helvetica,sans-Serif" font-size="10.00">mars::sim::RaySensor</text>
</a>
</g>
</g>
<!-- Node1&#45;&gt;Node23 -->
<g id="edge22" class="edge"><title>Node1&#45;&gt;Node23</title>
<path fill="none" stroke="midnightblue" d="M73.4503,-219.356C88.0959,-187.877 117.753,-134.009 160,-105 166.129,-100.791 173.099,-97.5126 180.282,-94.959"/>
<polygon fill="midnightblue" stroke="midnightblue" points="70.1436,-218.175 69.2259,-228.73 76.5255,-221.051 70.1436,-218.175"/>
</g>
<!-- Node24 -->
<g id="node24" class="node"><title>Node24</title>
<g id="a_node24"><a xlink:href="../../d1/d86/classmars_1_1sim_1_1_rotating_ray_sensor.html" target="_top" xlink:title="mars::sim::RotatingRaySensor">
<polygon fill="white" stroke="black" points="162,-38.5 162,-57.5 314,-57.5 314,-38.5 162,-38.5"/>
<text text-anchor="middle" x="238" y="-45.5" font-family="Helvetica,sans-Serif" font-size="10.00">mars::sim::RotatingRaySensor</text>
</a>
</g>
</g>
<!-- Node1&#45;&gt;Node24 -->
<g id="edge23" class="edge"><title>Node1&#45;&gt;Node24</title>
<path fill="none" stroke="midnightblue" d="M69.6268,-219.029C81.2257,-180.331 108.971,-106.253 160,-67 165.02,-63.1382 170.723,-60.0508 176.7,-57.5842"/>
<polygon fill="midnightblue" stroke="midnightblue" points="66.1747,-218.37 66.7776,-228.947 72.9026,-220.302 66.1747,-218.37"/>
</g>
<!-- Node25 -->
<g id="node25" class="node"><title>Node25</title>
<g id="a_node25"><a xlink:href="../../d1/d9b/classmars_1_1sim_1_1_scanning_sonar.html" target="_top" xlink:title="mars::sim::ScanningSonar">
<polygon fill="white" stroke="black" points="172,-0.5 172,-19.5 304,-19.5 304,-0.5 172,-0.5"/>
<text text-anchor="middle" x="238" y="-7.5" font-family="Helvetica,sans-Serif" font-size="10.00">mars::sim::ScanningSonar</text>
</a>
</g>
</g>
<!-- Node1&#45;&gt;Node25 -->
<g id="edge24" class="edge"><title>Node1&#45;&gt;Node25</title>
<path fill="none" stroke="midnightblue" d="M66.9999,-218.932C75.559,-173.811 99.9913,-78.9778 160,-29 164.655,-25.1229 169.985,-22.0172 175.62,-19.5324"/>
<polygon fill="midnightblue" stroke="midnightblue" points="63.5546,-218.317 65.2373,-228.777 70.445,-219.55 63.5546,-218.317"/>
</g>
<!-- Node6 -->
<g id="node6" class="node"><title>Node6</title>
<g id="a_node6"><a xlink:href="../../d1/dae/classmars_1_1sim_1_1_joint_a_v_g_torque_sensor.html" target="_top" xlink:title="mars::sim::JointAVGTorque\lSensor">
<polygon fill="white" stroke="black" points="362,-492 362,-522 500,-522 500,-492 362,-492"/>
<text text-anchor="start" x="370" y="-510" font-family="Helvetica,sans-Serif" font-size="10.00">mars::sim::JointAVGTorque</text>
<text text-anchor="middle" x="431" y="-499" font-family="Helvetica,sans-Serif" font-size="10.00">Sensor</text>
</a>
</g>
</g>
<!-- Node5&#45;&gt;Node6 -->
<g id="edge5" class="edge"><title>Node5&#45;&gt;Node6</title>
<path fill="none" stroke="midnightblue" d="M309.764,-389.348C311.951,-390.761 314.039,-392.307 316,-394 347.986,-421.615 320.975,-453.31 352,-482 356.176,-485.862 360.952,-489.127 366.037,-491.888"/>
<polygon fill="midnightblue" stroke="midnightblue" points="311.363,-386.233 300.905,-384.536 308.022,-392.385 311.363,-386.233"/>
</g>
<!-- Node7 -->
<g id="node7" class="node"><title>Node7</title>
<g id="a_node7"><a xlink:href="../../d0/dc1/classmars_1_1sim_1_1_joint_load_sensor.html" target="_top" xlink:title="mars::sim::JointLoadSensor">
<polygon fill="white" stroke="black" points="361.5,-453.5 361.5,-472.5 500.5,-472.5 500.5,-453.5 361.5,-453.5"/>
<text text-anchor="middle" x="431" y="-460.5" font-family="Helvetica,sans-Serif" font-size="10.00">mars::sim::JointLoadSensor</text>
</a>
</g>
</g>
<!-- Node5&#45;&gt;Node7 -->
<g id="edge6" class="edge"><title>Node5&#45;&gt;Node7</title>
<path fill="none" stroke="midnightblue" d="M306.158,-388.432C309.592,-390.078 312.899,-391.926 316,-394 338.462,-409.025 329.607,-427.874 352,-443 358.487,-447.382 365.869,-450.804 373.443,-453.476"/>
<polygon fill="midnightblue" stroke="midnightblue" points="307.397,-385.156 296.821,-384.528 304.697,-391.615 307.397,-385.156"/>
</g>
<!-- Node8 -->
<g id="node8" class="node"><title>Node8</title>
<g id="a_node8"><a xlink:href="../../d5/d5e/classmars_1_1sim_1_1_joint_position_sensor.html" target="_top" xlink:title="mars::sim::JointPosition\lSensor">
<polygon fill="white" stroke="black" points="370,-404 370,-434 492,-434 492,-404 370,-404"/>
<text text-anchor="start" x="378" y="-422" font-family="Helvetica,sans-Serif" font-size="10.00">mars::sim::JointPosition</text>
<text text-anchor="middle" x="431" y="-411" font-family="Helvetica,sans-Serif" font-size="10.00">Sensor</text>
</a>
</g>
</g>
<!-- Node5&#45;&gt;Node8 -->
<g id="edge7" class="edge"><title>Node5&#45;&gt;Node8</title>
<path fill="none" stroke="midnightblue" d="M290.261,-386.809C314.753,-392.451 344.229,-399.241 369.784,-405.128"/>
<polygon fill="midnightblue" stroke="midnightblue" points="290.975,-383.382 280.444,-384.547 289.403,-390.203 290.975,-383.382"/>
</g>
<!-- Node9 -->
<g id="node9" class="node"><title>Node9</title>
<g id="a_node9"><a xlink:href="../../d2/d73/classmars_1_1sim_1_1_joint_torque_sensor.html" target="_top" xlink:title="mars::sim::JointTorqueSensor">
<polygon fill="white" stroke="black" points="357,-365.5 357,-384.5 505,-384.5 505,-365.5 357,-365.5"/>
<text text-anchor="middle" x="431" y="-372.5" font-family="Helvetica,sans-Serif" font-size="10.00">mars::sim::JointTorqueSensor</text>
</a>
</g>
</g>
<!-- Node5&#45;&gt;Node9 -->
<g id="edge8" class="edge"><title>Node5&#45;&gt;Node9</title>
<path fill="none" stroke="midnightblue" d="M318.795,-375C331.423,-375 344.427,-375 356.892,-375"/>
<polygon fill="midnightblue" stroke="midnightblue" points="318.766,-371.5 308.766,-375 318.766,-378.5 318.766,-371.5"/>
</g>
<!-- Node10 -->
<g id="node10" class="node"><title>Node10</title>
<g id="a_node10"><a xlink:href="../../d2/d77/classmars_1_1sim_1_1_joint_velocity_sensor.html" target="_top" xlink:title="mars::sim::JointVelocity\lSensor">
<polygon fill="white" stroke="black" points="370,-316 370,-346 492,-346 492,-316 370,-316"/>
<text text-anchor="start" x="378" y="-334" font-family="Helvetica,sans-Serif" font-size="10.00">mars::sim::JointVelocity</text>
<text text-anchor="middle" x="431" y="-323" font-family="Helvetica,sans-Serif" font-size="10.00">Sensor</text>
</a>
</g>
</g>
<!-- Node5&#45;&gt;Node10 -->
<g id="edge9" class="edge"><title>Node5&#45;&gt;Node10</title>
<path fill="none" stroke="midnightblue" d="M290.261,-363.191C314.753,-357.549 344.229,-350.759 369.784,-344.872"/>
<polygon fill="midnightblue" stroke="midnightblue" points="289.403,-359.797 280.444,-365.453 290.975,-366.618 289.403,-359.797"/>
</g>
<!-- Node15 -->
<g id="node15" class="node"><title>Node15</title>
<g id="a_node15"><a xlink:href="../../d4/dc8/classmars_1_1sim_1_1_node_angular_velocity_sensor.html" target="_top" xlink:title="mars::sim::NodeAngularVelocity\lSensor">
<polygon fill="white" stroke="black" points="352,-267 352,-297 510,-297 510,-267 352,-267"/>
<text text-anchor="start" x="360" y="-285" font-family="Helvetica,sans-Serif" font-size="10.00">mars::sim::NodeAngularVelocity</text>
<text text-anchor="middle" x="431" y="-274" font-family="Helvetica,sans-Serif" font-size="10.00">Sensor</text>
</a>
</g>
</g>
<!-- Node14&#45;&gt;Node15 -->
<g id="edge14" class="edge"><title>Node14&#45;&gt;Node15</title>
<path fill="none" stroke="midnightblue" d="M300.996,-212.855C306.222,-214.901 311.298,-217.267 316,-220 335.835,-231.532 332.496,-244.917 352,-257 358.165,-260.819 364.97,-264.109 371.914,-266.929"/>
<polygon fill="midnightblue" stroke="midnightblue" points="302.073,-209.523 291.479,-209.505 299.75,-216.126 302.073,-209.523"/>
</g>
<!-- Node16 -->
<g id="node16" class="node"><title>Node16</title>
<g id="a_node16"><a xlink:href="../../da/deb/classmars_1_1sim_1_1_node_c_o_m_sensor.html" target="_top" xlink:title="mars::sim::NodeCOMSensor">
<polygon fill="white" stroke="black" points="359.5,-228.5 359.5,-247.5 502.5,-247.5 502.5,-228.5 359.5,-228.5"/>
<text text-anchor="middle" x="431" y="-235.5" font-family="Helvetica,sans-Serif" font-size="10.00">mars::sim::NodeCOMSensor</text>
</a>
</g>
</g>
<!-- Node14&#45;&gt;Node16 -->
<g id="edge15" class="edge"><title>Node14&#45;&gt;Node16</title>
<path fill="none" stroke="midnightblue" d="M297.353,-211.61C324.518,-217.014 356.432,-223.364 382.149,-228.48"/>
<polygon fill="midnightblue" stroke="midnightblue" points="297.688,-208.108 287.197,-209.589 296.322,-214.973 297.688,-208.108"/>
</g>
<!-- Node17 -->
<g id="node17" class="node"><title>Node17</title>
<g id="a_node17"><a xlink:href="../../d2/d9f/classmars_1_1sim_1_1_node_contact_force_sensor.html" target="_top" xlink:title="mars::sim::NodeContactForce\lSensor">
<polygon fill="white" stroke="black" points="356.5,-179 356.5,-209 505.5,-209 505.5,-179 356.5,-179"/>
<text text-anchor="start" x="364.5" y="-197" font-family="Helvetica,sans-Serif" font-size="10.00">mars::sim::NodeContactForce</text>
<text text-anchor="middle" x="431" y="-186" font-family="Helvetica,sans-Serif" font-size="10.00">Sensor</text>
</a>
</g>
</g>
<!-- Node14&#45;&gt;Node17 -->
<g id="edge16" class="edge"><title>Node14&#45;&gt;Node17</title>
<path fill="none" stroke="midnightblue" d="M319.663,-197.466C331.782,-197.085 344.227,-196.694 356.192,-196.319"/>
<polygon fill="midnightblue" stroke="midnightblue" points="319.464,-193.971 309.579,-197.783 319.684,-200.967 319.464,-193.971"/>
</g>
<!-- Node18 -->
<g id="node18" class="node"><title>Node18</title>
<g id="a_node18"><a xlink:href="../../d9/dc2/classmars_1_1sim_1_1_node_position_sensor.html" target="_top" xlink:title="mars::sim::NodePositionSensor">
<polygon fill="white" stroke="black" points="353.5,-140.5 353.5,-159.5 508.5,-159.5 508.5,-140.5 353.5,-140.5"/>
<text text-anchor="middle" x="431" y="-147.5" font-family="Helvetica,sans-Serif" font-size="10.00">mars::sim::NodePositionSensor</text>
</a>
</g>
</g>
<!-- Node14&#45;&gt;Node18 -->
<g id="edge17" class="edge"><title>Node14&#45;&gt;Node18</title>
<path fill="none" stroke="midnightblue" d="M289.36,-187.993C298.257,-185.752 307.417,-183.368 316,-181 332.128,-176.55 335.893,-174.523 352,-170 364.786,-166.409 378.824,-162.729 391.424,-159.521"/>
<polygon fill="midnightblue" stroke="midnightblue" points="288.329,-184.643 279.47,-190.454 290.019,-191.436 288.329,-184.643"/>
</g>
<!-- Node19 -->
<g id="node19" class="node"><title>Node19</title>
<g id="a_node19"><a xlink:href="../../d6/ded/classmars_1_1sim_1_1_node_rotation_sensor.html" target="_top" xlink:title="mars::sim::NodeRotationSensor">
<polygon fill="white" stroke="black" points="352.5,-102.5 352.5,-121.5 509.5,-121.5 509.5,-102.5 352.5,-102.5"/>
<text text-anchor="middle" x="431" y="-109.5" font-family="Helvetica,sans-Serif" font-size="10.00">mars::sim::NodeRotationSensor</text>
</a>
</g>
</g>
<!-- Node14&#45;&gt;Node19 -->
<g id="edge18" class="edge"><title>Node14&#45;&gt;Node19</title>
<path fill="none" stroke="midnightblue" d="M306.679,-186.362C309.929,-184.768 313.059,-182.988 316,-181 338.687,-165.666 329.29,-146.3 352,-131 357.78,-127.106 364.277,-124.009 370.991,-121.545"/>
<polygon fill="midnightblue" stroke="midnightblue" points="305.081,-183.238 297.255,-190.38 307.827,-189.677 305.081,-183.238"/>
</g>
<!-- Node20 -->
<g id="node20" class="node"><title>Node20</title>
<g id="a_node20"><a xlink:href="../../d3/da3/classmars_1_1sim_1_1_node_velocity_sensor.html" target="_top" xlink:title="mars::sim::NodeVelocitySensor">
<polygon fill="white" stroke="black" points="353.5,-64.5 353.5,-83.5 508.5,-83.5 508.5,-64.5 353.5,-64.5"/>
<text text-anchor="middle" x="431" y="-71.5" font-family="Helvetica,sans-Serif" font-size="10.00">mars::sim::NodeVelocitySensor</text>
</a>
</g>
</g>
<!-- Node14&#45;&gt;Node20 -->
<g id="edge19" class="edge"><title>Node14&#45;&gt;Node20</title>
<path fill="none" stroke="midnightblue" d="M309.764,-185.652C311.951,-184.239 314.039,-182.693 316,-181 347.986,-153.385 319.973,-120.567 352,-93 356.437,-89.1812 361.517,-86.104 366.91,-83.6278"/>
<polygon fill="midnightblue" stroke="midnightblue" points="308.022,-182.615 300.905,-190.464 311.363,-188.767 308.022,-182.615"/>
</g>
</g>
</svg>
