<?xml version="1.0" encoding="UTF-8" standalone="no"?>
<!DOCTYPE svg PUBLIC "-//W3C//DTD SVG 1.1//EN"
 "http://www.w3.org/Graphics/SVG/1.1/DTD/svg11.dtd">
<!-- Generated by graphviz version 2.26.3 (20100126.1600)
 -->
<!-- Title: mars::interfaces::SensorInterface Pages: 1 -->
<svg width="518pt" height="558pt"
 viewBox="0.00 0.00 518.00 558.00" xmlns="http://www.w3.org/2000/svg" xmlns:xlink="http://www.w3.org/1999/xlink">
<g id="graph1" class="graph" transform="scale(1 1) rotate(0) translate(4 554)">
<title>mars::interfaces::SensorInterface</title>
<polygon fill="white" stroke="white" points="-4,5 -4,-554 515,-554 515,5 -4,5"/>
<!-- Node1 -->
<g id="node1" class="node"><title>Node1</title>
<polygon fill="#bfbfbf" stroke="black" points="0,-217 0,-251 124,-251 124,-217 0,-217"/>
<text text-anchor="start" x="8" y="-238" font-family="Helvetica,sans-Serif" font-size="10.00">mars::interfaces::Sensor</text>
<text text-anchor="middle" x="62" y="-225" font-family="Helvetica,sans-Serif" font-size="10.00">Interface</text>
</g>
<!-- Node2 -->
<g id="node3" class="node"><title>Node2</title>
<a xlink:href="../../d2/d51/classmars_1_1sim_1_1_camera_sensor.html" target="_top" xlink:title="mars::sim::CameraSensor">
<polygon fill="white" stroke="black" points="172.5,-464.5 172.5,-485.5 303.5,-485.5 303.5,-464.5 172.5,-464.5"/>
<text text-anchor="middle" x="238" y="-472.5" font-family="Helvetica,sans-Serif" font-size="10.00">mars::sim::CameraSensor</text>
</a>
</g>
<!-- Node1&#45;&gt;Node2 -->
<g id="edge2" class="edge"><title>Node1&#45;&gt;Node2</title>
<path fill="none" stroke="midnightblue" d="M66.2087,-261.114C74.9392,-307.932 99.5075,-403.819 160,-455 164.482,-458.792 169.594,-461.879 175.006,-464.389"/>
<polygon fill="midnightblue" stroke="midnightblue" points="69.6285,-260.353 64.4473,-251.111 62.7346,-261.566 69.6285,-260.353"/>
</g>
<!-- Node3 -->
<g id="node5" class="node"><title>Node3</title>
<a xlink:href="../../de/dff/classmars_1_1sim_1_1_joint6_d_o_f_sensor.html" target="_top" xlink:title="mars::sim::Joint6DOFSensor">
<polygon fill="white" stroke="black" points="166,-424.5 166,-445.5 310,-445.5 310,-424.5 166,-424.5"/>
<text text-anchor="middle" x="238" y="-432.5" font-family="Helvetica,sans-Serif" font-size="10.00">mars::sim::Joint6DOFSensor</text>
</a>
</g>
<!-- Node1&#45;&gt;Node3 -->
<g id="edge4" class="edge"><title>Node1&#45;&gt;Node3</title>
<path fill="none" stroke="midnightblue" d="M69.1183,-261.058C81.0444,-300.956 108.931,-375.137 160,-415 164.849,-418.785 170.335,-421.859 176.096,-424.356"/>
<polygon fill="midnightblue" stroke="midnightblue" points="72.4212,-259.879 66.2983,-251.233 65.6928,-261.81 72.4212,-259.879"/>
</g>
<!-- Node4 -->
<g id="node7" class="node"><title>Node4</title>
<a xlink:href="../../d0/d80/classmars_1_1sim_1_1_joint_array_sensor.html" target="_top" xlink:title="mars::sim::JointArraySensor">
<polygon fill="white" stroke="black" points="167.5,-384.5 167.5,-405.5 308.5,-405.5 308.5,-384.5 167.5,-384.5"/>
<text text-anchor="middle" x="238" y="-392.5" font-family="Helvetica,sans-Serif" font-size="10.00">mars::sim::JointArraySensor</text>
</a>
</g>
<!-- Node1&#45;&gt;Node4 -->
<g id="edge6" class="edge"><title>Node1&#45;&gt;Node4</title>
<path fill="none" stroke="midnightblue" d="M73.3171,-260.533C88.3759,-292.598 118.067,-345.866 160,-375 165.511,-378.829 171.697,-381.925 178.112,-384.428"/>
<polygon fill="midnightblue" stroke="midnightblue" points="76.4472,-258.961 69.116,-251.313 70.0773,-261.864 76.4472,-258.961"/>
</g>
<!-- Node10 -->
<g id="node19" class="node"><title>Node10</title>
<a xlink:href="../../dc/d77/classmars_1_1sim_1_1_motor_current_sensor.html" target="_top" xlink:title="mars::sim::MotorCurrentSensor">
<polygon fill="white" stroke="black" points="161,-344.5 161,-365.5 315,-365.5 315,-344.5 161,-344.5"/>
<text text-anchor="middle" x="238" y="-352.5" font-family="Helvetica,sans-Serif" font-size="10.00">mars::sim::MotorCurrentSensor</text>
</a>
</g>
<!-- Node1&#45;&gt;Node10 -->
<g id="edge18" class="edge"><title>Node1&#45;&gt;Node10</title>
<path fill="none" stroke="midnightblue" d="M79.8317,-259.105C97.5727,-282.231 126.874,-315.78 160,-335 166.53,-338.789 173.775,-341.869 181.144,-344.371"/>
<polygon fill="midnightblue" stroke="midnightblue" points="82.6315,-257.005 73.8329,-251.103 77.0305,-261.204 82.6315,-257.005"/>
</g>
<!-- Node11 -->
<g id="node21" class="node"><title>Node11</title>
<a xlink:href="../../d7/d1c/classmars_1_1sim_1_1_motor_position_sensor.html" target="_top" xlink:title="mars::sim::MotorPosition\lSensor">
<polygon fill="white" stroke="black" points="175,-292 175,-326 301,-326 301,-292 175,-292"/>
<text text-anchor="start" x="183" y="-313" font-family="Helvetica,sans-Serif" font-size="10.00">mars::sim::MotorPosition</text>
<text text-anchor="middle" x="238" y="-300" font-family="Helvetica,sans-Serif" font-size="10.00">Sensor</text>
</a>
</g>
<!-- Node1&#45;&gt;Node11 -->
<g id="edge20" class="edge"><title>Node1&#45;&gt;Node11</title>
<path fill="none" stroke="midnightblue" d="M102.553,-255.897C119.974,-264.877 140.723,-275.015 160,-283 167.517,-286.114 175.553,-289.13 183.505,-291.937"/>
<polygon fill="midnightblue" stroke="midnightblue" points="103.734,-252.566 93.2482,-251.048 100.499,-258.773 103.734,-252.566"/>
</g>
<!-- Node12 -->
<g id="node23" class="node"><title>Node12</title>
<a xlink:href="../../d8/d7b/classmars_1_1sim_1_1_multi_level_laser_range_finder.html" target="_top" xlink:title="mars::sim::MultiLevelLaser\lRangeFinder">
<polygon fill="white" stroke="black" points="171,-240 171,-274 305,-274 305,-240 171,-240"/>
<text text-anchor="start" x="179" y="-261" font-family="Helvetica,sans-Serif" font-size="10.00">mars::sim::MultiLevelLaser</text>
<text text-anchor="middle" x="238" y="-248" font-family="Helvetica,sans-Serif" font-size="10.00">RangeFinder</text>
</a>
</g>
<!-- Node1&#45;&gt;Node12 -->
<g id="edge22" class="edge"><title>Node1&#45;&gt;Node12</title>
<path fill="none" stroke="midnightblue" d="M134.128,-243.426C146.267,-245.012 158.823,-246.653 170.829,-248.222"/>
<polygon fill="midnightblue" stroke="midnightblue" points="134.42,-239.934 124.051,-242.109 133.513,-246.875 134.42,-239.934"/>
</g>
<!-- Node13 -->
<g id="node25" class="node"><title>Node13</title>
<a xlink:href="../../d1/d38/classmars_1_1sim_1_1_node_array_sensor.html" target="_top" xlink:title="mars::sim::NodeArraySensor">
<polygon fill="white" stroke="black" points="166.5,-200.5 166.5,-221.5 309.5,-221.5 309.5,-200.5 166.5,-200.5"/>
<text text-anchor="middle" x="238" y="-208.5" font-family="Helvetica,sans-Serif" font-size="10.00">mars::sim::NodeArraySensor</text>
</a>
</g>
<!-- Node1&#45;&gt;Node13 -->
<g id="edge24" class="edge"><title>Node1&#45;&gt;Node13</title>
<path fill="none" stroke="midnightblue" d="M134.114,-224.576C144.734,-223.188 155.673,-221.759 166.285,-220.372"/>
<polygon fill="midnightblue" stroke="midnightblue" points="133.513,-221.125 124.051,-225.891 134.42,-228.066 133.513,-221.125"/>
</g>
<!-- Node20 -->
<g id="node39" class="node"><title>Node20</title>
<a xlink:href="../../d4/d37/classmars_1_1sim_1_1_node_contact_sensor.html" target="_top" xlink:title="mars::sim::NodeContactSensor">
<polygon fill="white" stroke="black" points="160.5,-160.5 160.5,-181.5 315.5,-181.5 315.5,-160.5 160.5,-160.5"/>
<text text-anchor="middle" x="238" y="-168.5" font-family="Helvetica,sans-Serif" font-size="10.00">mars::sim::NodeContactSensor</text>
</a>
</g>
<!-- Node1&#45;&gt;Node20 -->
<g id="edge38" class="edge"><title>Node1&#45;&gt;Node20</title>
<path fill="none" stroke="midnightblue" d="M106.692,-212.562C123.209,-205.128 142.235,-197.13 160,-191 170.176,-187.489 181.287,-184.281 191.85,-181.511"/>
<polygon fill="midnightblue" stroke="midnightblue" points="104.93,-209.519 97.2856,-216.855 107.836,-215.887 104.93,-209.519"/>
</g>
<!-- Node21 -->
<g id="node41" class="node"><title>Node21</title>
<a xlink:href="../../d1/d3c/classmars_1_1sim_1_1_ray_grid_sensor.html" target="_top" xlink:title="mars::sim::RayGridSensor">
<polygon fill="white" stroke="black" points="171.5,-120.5 171.5,-141.5 304.5,-141.5 304.5,-120.5 171.5,-120.5"/>
<text text-anchor="middle" x="238" y="-128.5" font-family="Helvetica,sans-Serif" font-size="10.00">mars::sim::RayGridSensor</text>
</a>
</g>
<!-- Node1&#45;&gt;Node21 -->
<g id="edge40" class="edge"><title>Node1&#45;&gt;Node21</title>
<path fill="none" stroke="midnightblue" d="M84.9999,-209.184C103.557,-190.581 131.228,-165.864 160,-151 167.328,-147.214 175.421,-144.111 183.538,-141.577"/>
<polygon fill="midnightblue" stroke="midnightblue" points="82.1087,-207.136 77.6283,-216.736 87.118,-212.025 82.1087,-207.136"/>
</g>
<!-- Node22 -->
<g id="node43" class="node"><title>Node22</title>
<a xlink:href="../../d3/dde/classmars_1_1sim_1_1_ray_sensor.html" target="_top" xlink:title="mars::sim::RaySensor">
<polygon fill="white" stroke="black" points="180.5,-80.5 180.5,-101.5 295.5,-101.5 295.5,-80.5 180.5,-80.5"/>
<text text-anchor="middle" x="238" y="-88.5" font-family="Helvetica,sans-Serif" font-size="10.00">mars::sim::RaySensor</text>
</a>
</g>
<!-- Node1&#45;&gt;Node22 -->
<g id="edge42" class="edge"><title>Node1&#45;&gt;Node22</title>
<path fill="none" stroke="midnightblue" d="M75.9169,-207.864C92.29,-179.669 122.111,-135.528 160,-111 166.22,-106.974 173.207,-103.757 180.378,-101.188"/>
<polygon fill="midnightblue" stroke="midnightblue" points="72.7607,-206.335 70.8876,-216.763 78.8548,-209.779 72.7607,-206.335"/>
</g>
<!-- Node23 -->
<g id="node45" class="node"><title>Node23</title>
<a xlink:href="../../d1/d86/classmars_1_1sim_1_1_rotating_ray_sensor.html" target="_top" xlink:title="mars::sim::RotatingRaySensor">
<polygon fill="white" stroke="black" points="162,-40.5 162,-61.5 314,-61.5 314,-40.5 162,-40.5"/>
<text text-anchor="middle" x="238" y="-48.5" font-family="Helvetica,sans-Serif" font-size="10.00">mars::sim::RotatingRaySensor</text>
</a>
</g>
<!-- Node1&#45;&gt;Node23 -->
<g id="edge44" class="edge"><title>Node1&#45;&gt;Node23</title>
<path fill="none" stroke="midnightblue" d="M70.6704,-207.472C83.9683,-171.043 112.922,-106.069 160,-71 165.157,-67.1584 170.979,-64.0516 177.061,-61.5396"/>
<polygon fill="midnightblue" stroke="midnightblue" points="67.3561,-206.346 67.3328,-216.941 73.958,-208.673 67.3561,-206.346"/>
</g>
<!-- Node24 -->
<g id="node47" class="node"><title>Node24</title>
<a xlink:href="../../d1/d9b/classmars_1_1sim_1_1_scanning_sonar.html" target="_top" xlink:title="mars::sim::ScanningSonar">
<polygon fill="white" stroke="black" points="172,-0.5 172,-21.5 304,-21.5 304,-0.5 172,-0.5"/>
<text text-anchor="middle" x="238" y="-8.5" font-family="Helvetica,sans-Serif" font-size="10.00">mars::sim::ScanningSonar</text>
</a>
</g>
<!-- Node1&#45;&gt;Node24 -->
<g id="edge46" class="edge"><title>Node1&#45;&gt;Node24</title>
<path fill="none" stroke="midnightblue" d="M67.3919,-206.89C77.552,-163.091 103.77,-77.0334 160,-31 164.651,-27.1921 169.941,-24.0991 175.523,-21.5883"/>
<polygon fill="midnightblue" stroke="midnightblue" points="63.9387,-206.296 65.1984,-216.816 70.7738,-207.807 63.9387,-206.296"/>
</g>
<!-- Node5 -->
<g id="node9" class="node"><title>Node5</title>
<a xlink:href="../../d1/dae/classmars_1_1sim_1_1_joint_a_v_g_torque_sensor.html" target="_top" xlink:title="mars::sim::JointAVGTorque\lSensor">
<polygon fill="white" stroke="black" points="362,-516 362,-550 500,-550 500,-516 362,-516"/>
<text text-anchor="start" x="370" y="-537" font-family="Helvetica,sans-Serif" font-size="10.00">mars::sim::JointAVGTorque</text>
<text text-anchor="middle" x="431" y="-524" font-family="Helvetica,sans-Serif" font-size="10.00">Sensor</text>
</a>
</g>
<!-- Node4&#45;&gt;Node5 -->
<g id="edge8" class="edge"><title>Node4&#45;&gt;Node5</title>
<path fill="none" stroke="midnightblue" d="M310.48,-410.711C312.409,-412.03 314.256,-413.457 316,-415 348.882,-444.097 320.11,-476.819 352,-507 355.566,-510.375 359.578,-513.311 363.854,-515.867"/>
<polygon fill="midnightblue" stroke="midnightblue" points="311.971,-407.531 301.556,-405.588 308.486,-413.602 311.971,-407.531"/>
</g>
<!-- Node6 -->
<g id="node11" class="node"><title>Node6</title>
<a xlink:href="../../d0/dc1/classmars_1_1sim_1_1_joint_load_sensor.html" target="_top" xlink:title="mars::sim::JointLoadSensor">
<polygon fill="white" stroke="black" points="361.5,-476.5 361.5,-497.5 500.5,-497.5 500.5,-476.5 361.5,-476.5"/>
<text text-anchor="middle" x="431" y="-484.5" font-family="Helvetica,sans-Serif" font-size="10.00">mars::sim::JointLoadSensor</text>
</a>
</g>
<!-- Node4&#45;&gt;Node6 -->
<g id="edge10" class="edge"><title>Node4&#45;&gt;Node6</title>
<path fill="none" stroke="midnightblue" d="M307.287,-409.783C310.324,-411.35 313.246,-413.083 316,-415 339.07,-431.06 328.906,-450.976 352,-467 357.463,-470.791 363.583,-473.864 369.935,-476.355"/>
<polygon fill="midnightblue" stroke="midnightblue" points="308.451,-406.468 297.895,-405.562 305.581,-412.853 308.451,-406.468"/>
</g>
<!-- Node7 -->
<g id="node13" class="node"><title>Node7</title>
<a xlink:href="../../d5/d5e/classmars_1_1sim_1_1_joint_position_sensor.html" target="_top" xlink:title="mars::sim::JointPosition\lSensor">
<polygon fill="white" stroke="black" points="370,-424 370,-458 492,-458 492,-424 370,-424"/>
<text text-anchor="start" x="378" y="-445" font-family="Helvetica,sans-Serif" font-size="10.00">mars::sim::JointPosition</text>
<text text-anchor="middle" x="431" y="-432" font-family="Helvetica,sans-Serif" font-size="10.00">Sensor</text>
</a>
</g>
<!-- Node4&#45;&gt;Node7 -->
<g id="edge12" class="edge"><title>Node4&#45;&gt;Node7</title>
<path fill="none" stroke="midnightblue" d="M292.316,-407.946C316.417,-413.69 344.889,-420.476 369.744,-426.4"/>
<polygon fill="midnightblue" stroke="midnightblue" points="292.817,-404.467 282.278,-405.553 291.194,-411.277 292.817,-404.467"/>
</g>
<!-- Node8 -->
<g id="node15" class="node"><title>Node8</title>
<a xlink:href="../../d2/d73/classmars_1_1sim_1_1_joint_torque_sensor.html" target="_top" xlink:title="mars::sim::JointTorqueSensor">
<polygon fill="white" stroke="black" points="357,-384.5 357,-405.5 505,-405.5 505,-384.5 357,-384.5"/>
<text text-anchor="middle" x="431" y="-392.5" font-family="Helvetica,sans-Serif" font-size="10.00">mars::sim::JointTorqueSensor</text>
</a>
</g>
<!-- Node4&#45;&gt;Node8 -->
<g id="edge14" class="edge"><title>Node4&#45;&gt;Node8</title>
<path fill="none" stroke="midnightblue" d="M318.823,-395C331.479,-395 344.505,-395 356.998,-395"/>
<polygon fill="midnightblue" stroke="midnightblue" points="318.77,-391.5 308.77,-395 318.77,-398.5 318.77,-391.5"/>
</g>
<!-- Node9 -->
<g id="node17" class="node"><title>Node9</title>
<a xlink:href="../../d2/d77/classmars_1_1sim_1_1_joint_velocity_sensor.html" target="_top" xlink:title="mars::sim::JointVelocity\lSensor">
<polygon fill="white" stroke="black" points="370,-332 370,-366 492,-366 492,-332 370,-332"/>
<text text-anchor="start" x="378" y="-353" font-family="Helvetica,sans-Serif" font-size="10.00">mars::sim::JointVelocity</text>
<text text-anchor="middle" x="431" y="-340" font-family="Helvetica,sans-Serif" font-size="10.00">Sensor</text>
</a>
</g>
<!-- Node4&#45;&gt;Node9 -->
<g id="edge16" class="edge"><title>Node4&#45;&gt;Node9</title>
<path fill="none" stroke="midnightblue" d="M292.316,-382.054C316.417,-376.31 344.889,-369.524 369.744,-363.6"/>
<polygon fill="midnightblue" stroke="midnightblue" points="291.194,-378.723 282.278,-384.447 292.817,-385.533 291.194,-378.723"/>
</g>
<!-- Node14 -->
<g id="node27" class="node"><title>Node14</title>
<a xlink:href="../../d4/dc8/classmars_1_1sim_1_1_node_angular_velocity_sensor.html" target="_top" xlink:title="mars::sim::NodeAngularVelocity\lSensor">
<polygon fill="white" stroke="black" points="352,-280 352,-314 510,-314 510,-280 352,-280"/>
<text text-anchor="start" x="360" y="-301" font-family="Helvetica,sans-Serif" font-size="10.00">mars::sim::NodeAngularVelocity</text>
<text text-anchor="middle" x="431" y="-288" font-family="Helvetica,sans-Serif" font-size="10.00">Sensor</text>
</a>
</g>
<!-- Node13&#45;&gt;Node14 -->
<g id="edge26" class="edge"><title>Node13&#45;&gt;Node14</title>
<path fill="none" stroke="midnightblue" d="M304.724,-225.194C308.642,-226.914 312.435,-228.841 316,-231 336.459,-243.389 331.967,-257.933 352,-271 357.2,-274.392 362.883,-277.378 368.738,-279.999"/>
<polygon fill="midnightblue" stroke="midnightblue" points="305.987,-221.929 295.399,-221.543 303.435,-228.448 305.987,-221.929"/>
</g>
<!-- Node15 -->
<g id="node29" class="node"><title>Node15</title>
<a xlink:href="../../da/deb/classmars_1_1sim_1_1_node_c_o_m_sensor.html" target="_top" xlink:title="mars::sim::NodeCOMSensor">
<polygon fill="white" stroke="black" points="359.5,-240.5 359.5,-261.5 502.5,-261.5 502.5,-240.5 359.5,-240.5"/>
<text text-anchor="middle" x="431" y="-248.5" font-family="Helvetica,sans-Serif" font-size="10.00">mars::sim::NodeCOMSensor</text>
</a>
</g>
<!-- Node13&#45;&gt;Node15 -->
<g id="edge28" class="edge"><title>Node13&#45;&gt;Node15</title>
<path fill="none" stroke="midnightblue" d="M298.554,-223.55C324.824,-228.995 355.241,-235.299 380.295,-240.491"/>
<polygon fill="midnightblue" stroke="midnightblue" points="299.211,-220.112 288.708,-221.51 297.79,-226.966 299.211,-220.112"/>
</g>
<!-- Node16 -->
<g id="node31" class="node"><title>Node16</title>
<a xlink:href="../../d2/d9f/classmars_1_1sim_1_1_node_contact_force_sensor.html" target="_top" xlink:title="mars::sim::NodeContactForce\lSensor">
<polygon fill="white" stroke="black" points="356.5,-188 356.5,-222 505.5,-222 505.5,-188 356.5,-188"/>
<text text-anchor="start" x="364.5" y="-209" font-family="Helvetica,sans-Serif" font-size="10.00">mars::sim::NodeContactForce</text>
<text text-anchor="middle" x="431" y="-196" font-family="Helvetica,sans-Serif" font-size="10.00">Sensor</text>
</a>
</g>
<!-- Node13&#45;&gt;Node16 -->
<g id="edge30" class="edge"><title>Node13&#45;&gt;Node16</title>
<path fill="none" stroke="midnightblue" d="M319.699,-208.46C331.842,-208.083 344.304,-207.695 356.294,-207.322"/>
<polygon fill="midnightblue" stroke="midnightblue" points="319.478,-204.965 309.592,-208.774 319.696,-211.962 319.478,-204.965"/>
</g>
<!-- Node17 -->
<g id="node33" class="node"><title>Node17</title>
<a xlink:href="../../d9/dc2/classmars_1_1sim_1_1_node_position_sensor.html" target="_top" xlink:title="mars::sim::NodePositionSensor">
<polygon fill="white" stroke="black" points="353.5,-148.5 353.5,-169.5 508.5,-169.5 508.5,-148.5 353.5,-148.5"/>
<text text-anchor="middle" x="431" y="-156.5" font-family="Helvetica,sans-Serif" font-size="10.00">mars::sim::NodePositionSensor</text>
</a>
</g>
<!-- Node13&#45;&gt;Node17 -->
<g id="edge32" class="edge"><title>Node13&#45;&gt;Node17</title>
<path fill="none" stroke="midnightblue" d="M291.149,-197.909C299.493,-195.7 308,-193.356 316,-191 332.179,-186.236 335.814,-183.739 352,-179 363.27,-175.7 375.536,-172.438 386.968,-169.535"/>
<polygon fill="midnightblue" stroke="midnightblue" points="290.262,-194.523 281.47,-200.434 292.029,-201.297 290.262,-194.523"/>
</g>
<!-- Node18 -->
<g id="node35" class="node"><title>Node18</title>
<a xlink:href="../../d6/ded/classmars_1_1sim_1_1_node_rotation_sensor.html" target="_top" xlink:title="mars::sim::NodeRotationSensor">
<polygon fill="white" stroke="black" points="352.5,-108.5 352.5,-129.5 509.5,-129.5 509.5,-108.5 352.5,-108.5"/>
<text text-anchor="middle" x="431" y="-116.5" font-family="Helvetica,sans-Serif" font-size="10.00">mars::sim::NodeRotationSensor</text>
</a>
</g>
<!-- Node13&#45;&gt;Node18 -->
<g id="edge34" class="edge"><title>Node13&#45;&gt;Node18</title>
<path fill="none" stroke="midnightblue" d="M307.287,-196.217C310.324,-194.65 313.246,-192.917 316,-191 339.07,-174.94 328.906,-155.024 352,-139 357.463,-135.209 363.583,-132.136 369.935,-129.645"/>
<polygon fill="midnightblue" stroke="midnightblue" points="305.581,-193.147 297.895,-200.438 308.451,-199.532 305.581,-193.147"/>
</g>
<!-- Node19 -->
<g id="node37" class="node"><title>Node19</title>
<a xlink:href="../../d3/da3/classmars_1_1sim_1_1_node_velocity_sensor.html" target="_top" xlink:title="mars::sim::NodeVelocitySensor">
<polygon fill="white" stroke="black" points="353.5,-68.5 353.5,-89.5 508.5,-89.5 508.5,-68.5 353.5,-68.5"/>
<text text-anchor="middle" x="431" y="-76.5" font-family="Helvetica,sans-Serif" font-size="10.00">mars::sim::NodeVelocitySensor</text>
</a>
</g>
<!-- Node13&#45;&gt;Node19 -->
<g id="edge36" class="edge"><title>Node13&#45;&gt;Node19</title>
<path fill="none" stroke="midnightblue" d="M310.48,-195.289C312.409,-193.97 314.256,-192.543 316,-191 348.882,-161.903 319.073,-128.047 352,-99 356.35,-95.1626 361.333,-92.0413 366.635,-89.5053"/>
<polygon fill="midnightblue" stroke="midnightblue" points="308.486,-192.398 301.556,-200.412 311.971,-198.469 308.486,-192.398"/>
</g>
</g>
</svg>
