<?xml version="1.0" encoding="UTF-8" standalone="no"?>
<!DOCTYPE svg PUBLIC "-//W3C//DTD SVG 1.1//EN"
 "http://www.w3.org/Graphics/SVG/1.1/DTD/svg11.dtd">
<!-- Generated by graphviz version 2.36.0 (20140111.2315)
 -->
<!-- Title: /media/kavonszadkowski/work/marsdocs/mars/gui/src/menus/MenuWindow.h Pages: 1 -->
<svg width="606pt" height="174pt"
 viewBox="0.00 0.00 606.00 174.00" xmlns="http://www.w3.org/2000/svg" xmlns:xlink="http://www.w3.org/1999/xlink">
<g id="graph0" class="graph" transform="scale(1 1) rotate(0) translate(4 170)">
<title>/media/kavonszadkowski/work/marsdocs/mars/gui/src/menus/MenuWindow.h</title>
<polygon fill="white" stroke="none" points="-4,4 -4,-170 602,-170 602,4 -4,4"/>
<!-- Node1 -->
<g id="node1" class="node"><title>Node1</title>
<polygon fill="#bfbfbf" stroke="black" points="236,-124.5 236,-165.5 372,-165.5 372,-124.5 236,-124.5"/>
<text text-anchor="start" x="244" y="-153.5" font-family="Helvetica,sans-Serif" font-size="10.00">/media/kavonszadkowski</text>
<text text-anchor="start" x="244" y="-142.5" font-family="Helvetica,sans-Serif" font-size="10.00">/work/marsdocs/mars/gui</text>
<text text-anchor="middle" x="304" y="-131.5" font-family="Helvetica,sans-Serif" font-size="10.00">/src/menus/MenuWindow.h</text>
</g>
<!-- Node2 -->
<g id="node2" class="node"><title>Node2</title>
<g id="a_node2"><a xlink:href="../../de/d0e/_main_g_u_i_defs_8h.html" target="_top" xlink:title="MainGUIDefs.h">
<polygon fill="white" stroke="black" points="17.5,-68.5 17.5,-87.5 102.5,-87.5 102.5,-68.5 17.5,-68.5"/>
<text text-anchor="middle" x="60" y="-75.5" font-family="Helvetica,sans-Serif" font-size="10.00">MainGUIDefs.h</text>
</a>
</g>
</g>
<!-- Node1&#45;&gt;Node2 -->
<g id="edge1" class="edge"><title>Node1&#45;&gt;Node2</title>
<path fill="none" stroke="midnightblue" d="M235.708,-125.807C192.795,-114.376 138.805,-99.9932 102.076,-90.2087"/>
<polygon fill="midnightblue" stroke="midnightblue" points="102.761,-86.7693 92.1973,-87.5771 100.959,-93.5334 102.761,-86.7693"/>
</g>
<!-- Node3 -->
<g id="node3" class="node"><title>Node3</title>
<g id="a_node3"><a xlink:href="../../dd/dcd/_blender_export_g_u_i_8h.html" target="_top" xlink:title="&quot;BlenderExportGUI&quot; is a template for the widget interface of the MARS GUI ">
<polygon fill="white" stroke="black" points="252,-68.5 252,-87.5 356,-87.5 356,-68.5 252,-68.5"/>
<text text-anchor="middle" x="304" y="-75.5" font-family="Helvetica,sans-Serif" font-size="10.00">BlenderExportGUI.h</text>
</a>
</g>
</g>
<!-- Node1&#45;&gt;Node3 -->
<g id="edge2" class="edge"><title>Node1&#45;&gt;Node3</title>
<path fill="none" stroke="midnightblue" d="M304,-124.498C304,-116.065 304,-106.235 304,-97.874"/>
<polygon fill="midnightblue" stroke="midnightblue" points="307.5,-97.6525 304,-87.6525 300.5,-97.6525 307.5,-97.6525"/>
</g>
<!-- Node7 -->
<g id="node7" class="node"><title>Node7</title>
<g id="a_node7"><a xlink:href="../../df/dd1/_controller_config_g_u_i_8h.html" target="_top" xlink:title="&quot;ControllerConfigGUI&quot; is a template for the widget interface of the MARS GUI ">
<polygon fill="white" stroke="black" points="120.5,-68.5 120.5,-87.5 233.5,-87.5 233.5,-68.5 120.5,-68.5"/>
<text text-anchor="middle" x="177" y="-75.5" font-family="Helvetica,sans-Serif" font-size="10.00">ControllerConfigGUI.h</text>
</a>
</g>
</g>
<!-- Node1&#45;&gt;Node7 -->
<g id="edge6" class="edge"><title>Node1&#45;&gt;Node7</title>
<path fill="none" stroke="midnightblue" d="M265.896,-124.498C245.675,-114.149 221.342,-101.695 203.249,-92.4346"/>
<polygon fill="midnightblue" stroke="midnightblue" points="204.402,-89.093 193.906,-87.6525 201.213,-95.3242 204.402,-89.093"/>
</g>
<!-- Node8 -->
<g id="node8" class="node"><title>Node8</title>
<polygon fill="white" stroke="#bfbfbf" points="374,-68.5 374,-87.5 528,-87.5 528,-68.5 374,-68.5"/>
<text text-anchor="middle" x="451" y="-75.5" font-family="Helvetica,sans-Serif" font-size="10.00">mars/main_gui/MenuInterface.h</text>
</g>
<!-- Node1&#45;&gt;Node8 -->
<g id="edge10" class="edge"><title>Node1&#45;&gt;Node8</title>
<path fill="none" stroke="midnightblue" d="M348.105,-124.498C372.051,-113.909 400.982,-101.117 422.06,-91.7968"/>
<polygon fill="midnightblue" stroke="midnightblue" points="423.702,-94.8976 431.432,-87.6525 420.871,-88.4956 423.702,-94.8976"/>
</g>
<!-- Node9 -->
<g id="node9" class="node"><title>Node9</title>
<polygon fill="white" stroke="#bfbfbf" points="546,-68.5 546,-87.5 598,-87.5 598,-68.5 546,-68.5"/>
<text text-anchor="middle" x="572" y="-75.5" font-family="Helvetica,sans-Serif" font-size="10.00">sstream</text>
</g>
<!-- Node1&#45;&gt;Node9 -->
<g id="edge11" class="edge"><title>Node1&#45;&gt;Node9</title>
<path fill="none" stroke="midnightblue" d="M372.124,-127.927C416.258,-117.444 475.235,-103.306 535.891,-88.2502"/>
<polygon fill="midnightblue" stroke="midnightblue" points="536.778,-91.6362 545.638,-85.8264 535.089,-84.843 536.778,-91.6362"/>
</g>
<!-- Node4 -->
<g id="node4" class="node"><title>Node4</title>
<polygon fill="white" stroke="#bfbfbf" points="-0.5,-6.5 -0.5,-25.5 144.5,-25.5 144.5,-6.5 -0.5,-6.5"/>
<text text-anchor="middle" x="72" y="-13.5" font-family="Helvetica,sans-Serif" font-size="10.00">mars/main_gui/BaseWidget.h</text>
</g>
<!-- Node3&#45;&gt;Node4 -->
<g id="edge3" class="edge"><title>Node3&#45;&gt;Node4</title>
<path fill="none" stroke="midnightblue" d="M270.76,-68.4035C229.758,-57.7995 159.971,-39.7511 114.946,-28.1067"/>
<polygon fill="midnightblue" stroke="midnightblue" points="115.736,-24.696 105.178,-25.5806 113.983,-31.473 115.736,-24.696"/>
</g>
<!-- Node5 -->
<g id="node5" class="node"><title>Node5</title>
<polygon fill="white" stroke="#bfbfbf" points="163,-6.5 163,-25.5 319,-25.5 319,-6.5 163,-6.5"/>
<text text-anchor="middle" x="241" y="-13.5" font-family="Helvetica,sans-Serif" font-size="10.00">mars/main_gui/PropertyDialog.h</text>
</g>
<!-- Node3&#45;&gt;Node5 -->
<g id="edge4" class="edge"><title>Node3&#45;&gt;Node5</title>
<path fill="none" stroke="midnightblue" d="M294.974,-68.4035C285.243,-59.1361 269.542,-44.1828 257.577,-32.7876"/>
<polygon fill="midnightblue" stroke="midnightblue" points="259.665,-29.9427 250.01,-25.5806 254.837,-35.0117 259.665,-29.9427"/>
</g>
<!-- Node6 -->
<g id="node6" class="node"><title>Node6</title>
<polygon fill="white" stroke="#bfbfbf" points="337.5,-1 337.5,-31 440.5,-31 440.5,-1 337.5,-1"/>
<text text-anchor="start" x="345.5" y="-19" font-family="Helvetica,sans-Serif" font-size="10.00">mars/interfaces/sim</text>
<text text-anchor="middle" x="389" y="-8" font-family="Helvetica,sans-Serif" font-size="10.00">/ControlCenter.h</text>
</g>
<!-- Node3&#45;&gt;Node6 -->
<g id="edge5" class="edge"><title>Node3&#45;&gt;Node6</title>
<path fill="none" stroke="midnightblue" d="M316.178,-68.4035C327.69,-60.2773 345.396,-47.7794 360.466,-37.1419"/>
<polygon fill="midnightblue" stroke="midnightblue" points="362.816,-39.7671 368.967,-31.1408 358.779,-34.0483 362.816,-39.7671"/>
</g>
<!-- Node7&#45;&gt;Node4 -->
<g id="edge8" class="edge"><title>Node7&#45;&gt;Node4</title>
<path fill="none" stroke="midnightblue" d="M161.956,-68.4035C144.725,-58.5569 116.26,-42.2915 95.9661,-30.6949"/>
<polygon fill="midnightblue" stroke="midnightblue" points="97.435,-27.5032 87.016,-25.5806 93.962,-33.5809 97.435,-27.5032"/>
</g>
<!-- Node7&#45;&gt;Node5 -->
<g id="edge9" class="edge"><title>Node7&#45;&gt;Node5</title>
<path fill="none" stroke="midnightblue" d="M186.17,-68.4035C196.15,-59.047 212.312,-43.8948 224.509,-32.4599"/>
<polygon fill="midnightblue" stroke="midnightblue" points="226.946,-34.9734 231.847,-25.5806 222.158,-29.8666 226.946,-34.9734"/>
</g>
<!-- Node7&#45;&gt;Node6 -->
<g id="edge7" class="edge"><title>Node7&#45;&gt;Node6</title>
<path fill="none" stroke="midnightblue" d="M207.374,-68.4035C239.144,-59.412 289.825,-45.0683 329.588,-33.8147"/>
<polygon fill="midnightblue" stroke="midnightblue" points="330.775,-37.1163 339.444,-31.0253 328.869,-30.3809 330.775,-37.1163"/>
</g>
</g>
</svg>
