<?xml version="1.0" encoding="UTF-8" standalone="no"?>
<!DOCTYPE svg PUBLIC "-//W3C//DTD SVG 1.1//EN"
 "http://www.w3.org/Graphics/SVG/1.1/DTD/svg11.dtd">
<!-- Generated by graphviz version 2.26.3 (20100126.1600)
 -->
<!-- Title: /home/kavonszadkowski/limes&#45;dev/simulation/mars/gui/src/menus/MenuWindow.h Pages: 1 -->
<svg width="605pt" height="186pt"
 viewBox="0.00 0.00 605.00 186.00" xmlns="http://www.w3.org/2000/svg" xmlns:xlink="http://www.w3.org/1999/xlink">
<g id="graph1" class="graph" transform="scale(1 1) rotate(0) translate(4 182)">
<title>/home/kavonszadkowski/limes&#45;dev/simulation/mars/gui/src/menus/MenuWindow.h</title>
<polygon fill="white" stroke="white" points="-4,5 -4,-182 602,-182 602,5 -4,5"/>
<!-- Node1 -->
<g id="node1" class="node"><title>Node1</title>
<polygon fill="#bfbfbf" stroke="black" points="215,-130.5 215,-177.5 391,-177.5 391,-130.5 215,-130.5"/>
<text text-anchor="start" x="223" y="-164.5" font-family="Helvetica,sans-Serif" font-size="10.00">/home/kavonszadkowski</text>
<text text-anchor="start" x="223" y="-151.5" font-family="Helvetica,sans-Serif" font-size="10.00">/limes&#45;dev/simulation</text>
<text text-anchor="middle" x="303" y="-138.5" font-family="Helvetica,sans-Serif" font-size="10.00">/mars/gui/src/menus/MenuWindow.h</text>
</g>
<!-- Node2 -->
<g id="node3" class="node"><title>Node2</title>
<a xlink:href="../../de/d0e/_main_g_u_i_defs_8h.html" target="_top" xlink:title="MainGUIDefs.h">
<polygon fill="white" stroke="black" points="18.5,-72.5 18.5,-93.5 103.5,-93.5 103.5,-72.5 18.5,-72.5"/>
<text text-anchor="middle" x="61" y="-80.5" font-family="Helvetica,sans-Serif" font-size="10.00">MainGUIDefs.h</text>
</a>
</g>
<!-- Node1&#45;&gt;Node2 -->
<g id="edge2" class="edge"><title>Node1&#45;&gt;Node2</title>
<path fill="none" stroke="midnightblue" d="M222.754,-130.457C184.225,-119.153 139.455,-106.018 106.796,-96.4361"/>
<polygon fill="midnightblue" stroke="midnightblue" points="107.651,-93.0394 97.07,-93.5825 105.68,-99.7563 107.651,-93.0394"/>
</g>
<!-- Node3 -->
<g id="node5" class="node"><title>Node3</title>
<a xlink:href="../../dd/dcd/_blender_export_g_u_i_8h.html" target="_top" xlink:title="&quot;BlenderExportGUI&quot; is a template for the widget interface of the MARS GUI ">
<polygon fill="white" stroke="black" points="251,-72.5 251,-93.5 355,-93.5 355,-72.5 251,-72.5"/>
<text text-anchor="middle" x="303" y="-80.5" font-family="Helvetica,sans-Serif" font-size="10.00">BlenderExportGUI.h</text>
</a>
</g>
<!-- Node1&#45;&gt;Node3 -->
<g id="edge4" class="edge"><title>Node1&#45;&gt;Node3</title>
<path fill="none" stroke="midnightblue" d="M303,-130.358C303,-121.719 303,-112.022 303,-103.662"/>
<polygon fill="midnightblue" stroke="midnightblue" points="306.5,-103.646 303,-93.6462 299.5,-103.646 306.5,-103.646"/>
</g>
<!-- Node7 -->
<g id="node13" class="node"><title>Node7</title>
<a xlink:href="../../df/dd1/_controller_config_g_u_i_8h.html" target="_top" xlink:title="&quot;ControllerConfigGUI&quot; is a template for the widget interface of the MARS GUI ">
<polygon fill="white" stroke="black" points="120.5,-72.5 120.5,-93.5 233.5,-93.5 233.5,-72.5 120.5,-72.5"/>
<text text-anchor="middle" x="177" y="-80.5" font-family="Helvetica,sans-Serif" font-size="10.00">ControllerConfigGUI.h</text>
</a>
</g>
<!-- Node1&#45;&gt;Node7 -->
<g id="edge12" class="edge"><title>Node1&#45;&gt;Node7</title>
<path fill="none" stroke="midnightblue" d="M261.044,-130.358C242.612,-119.972 221.465,-108.056 204.995,-98.7747"/>
<polygon fill="midnightblue" stroke="midnightblue" points="206.324,-95.5062 195.893,-93.6462 202.887,-101.605 206.324,-95.5062"/>
</g>
<!-- Node8 -->
<g id="node18" class="node"><title>Node8</title>
<polygon fill="white" stroke="#bfbfbf" points="373,-72.5 373,-93.5 527,-93.5 527,-72.5 373,-72.5"/>
<text text-anchor="middle" x="450" y="-80.5" font-family="Helvetica,sans-Serif" font-size="10.00">mars/main_gui/MenuInterface.h</text>
</g>
<!-- Node1&#45;&gt;Node8 -->
<g id="edge20" class="edge"><title>Node1&#45;&gt;Node8</title>
<path fill="none" stroke="midnightblue" d="M351.949,-130.358C374.056,-119.681 399.51,-107.386 418.943,-98.0004"/>
<polygon fill="midnightblue" stroke="midnightblue" points="420.475,-101.147 427.958,-93.6462 417.431,-94.8438 420.475,-101.147"/>
</g>
<!-- Node9 -->
<g id="node20" class="node"><title>Node9</title>
<polygon fill="white" stroke="#bfbfbf" points="545,-72.5 545,-93.5 597,-93.5 597,-72.5 545,-72.5"/>
<text text-anchor="middle" x="571" y="-80.5" font-family="Helvetica,sans-Serif" font-size="10.00">sstream</text>
</g>
<!-- Node1&#45;&gt;Node9 -->
<g id="edge22" class="edge"><title>Node1&#45;&gt;Node9</title>
<path fill="none" stroke="midnightblue" d="M391.255,-132.434C432.388,-122.105 482.174,-109.212 534.811,-94.2542"/>
<polygon fill="midnightblue" stroke="midnightblue" points="536.017,-97.5497 544.671,-91.4374 534.095,-90.819 536.017,-97.5497"/>
</g>
<!-- Node4 -->
<g id="node7" class="node"><title>Node4</title>
<polygon fill="white" stroke="#bfbfbf" points="-0.5,-7.5 -0.5,-28.5 144.5,-28.5 144.5,-7.5 -0.5,-7.5"/>
<text text-anchor="middle" x="72" y="-15.5" font-family="Helvetica,sans-Serif" font-size="10.00">mars/main_gui/BaseWidget.h</text>
</g>
<!-- Node3&#45;&gt;Node4 -->
<g id="edge6" class="edge"><title>Node3&#45;&gt;Node4</title>
<path fill="none" stroke="midnightblue" d="M265.629,-72.4844C225.707,-61.2508 162.341,-43.4205 119.048,-31.2386"/>
<polygon fill="midnightblue" stroke="midnightblue" points="119.891,-27.8401 109.317,-28.5005 117.995,-34.5784 119.891,-27.8401"/>
</g>
<!-- Node5 -->
<g id="node9" class="node"><title>Node5</title>
<polygon fill="white" stroke="#bfbfbf" points="162,-7.5 162,-28.5 318,-28.5 318,-7.5 162,-7.5"/>
<text text-anchor="middle" x="240" y="-15.5" font-family="Helvetica,sans-Serif" font-size="10.00">mars/main_gui/PropertyDialog.h</text>
</g>
<!-- Node3&#45;&gt;Node5 -->
<g id="edge8" class="edge"><title>Node3&#45;&gt;Node5</title>
<path fill="none" stroke="midnightblue" d="M292.597,-72.2666C283.056,-62.4227 268.736,-47.6481 257.446,-35.9996"/>
<polygon fill="midnightblue" stroke="midnightblue" points="259.683,-33.2785 250.21,-28.5337 254.656,-38.1503 259.683,-33.2785"/>
</g>
<!-- Node6 -->
<g id="node11" class="node"><title>Node6</title>
<polygon fill="white" stroke="#bfbfbf" points="335.5,-1 335.5,-35 438.5,-35 438.5,-1 335.5,-1"/>
<text text-anchor="start" x="343.5" y="-22" font-family="Helvetica,sans-Serif" font-size="10.00">mars/interfaces/sim</text>
<text text-anchor="middle" x="387" y="-9" font-family="Helvetica,sans-Serif" font-size="10.00">/ControlCenter.h</text>
</g>
<!-- Node3&#45;&gt;Node6 -->
<g id="edge10" class="edge"><title>Node3&#45;&gt;Node6</title>
<path fill="none" stroke="midnightblue" d="M316.871,-72.2666C327.676,-63.9056 343.078,-51.9875 356.697,-41.4491"/>
<polygon fill="midnightblue" stroke="midnightblue" points="359.122,-43.9978 364.889,-35.1099 354.838,-38.4617 359.122,-43.9978"/>
</g>
<!-- Node7&#45;&gt;Node4 -->
<g id="edge16" class="edge"><title>Node7&#45;&gt;Node4</title>
<path fill="none" stroke="midnightblue" d="M159.661,-72.2666C142.766,-61.8074 116.879,-45.782 97.6105,-33.8541"/>
<polygon fill="midnightblue" stroke="midnightblue" points="99.3609,-30.8214 89.016,-28.5337 95.6764,-36.7732 99.3609,-30.8214"/>
</g>
<!-- Node7&#45;&gt;Node5 -->
<g id="edge18" class="edge"><title>Node7&#45;&gt;Node5</title>
<path fill="none" stroke="midnightblue" d="M187.403,-72.2666C196.944,-62.4227 211.264,-47.6481 222.554,-35.9996"/>
<polygon fill="midnightblue" stroke="midnightblue" points="225.344,-38.1503 229.79,-28.5337 220.317,-33.2785 225.344,-38.1503"/>
</g>
<!-- Node7&#45;&gt;Node6 -->
<g id="edge14" class="edge"><title>Node7&#45;&gt;Node6</title>
<path fill="none" stroke="midnightblue" d="M211.208,-72.412C242.041,-62.8684 288.118,-48.6063 325.364,-37.0778"/>
<polygon fill="midnightblue" stroke="midnightblue" points="326.602,-40.3584 335.12,-34.058 324.533,-33.6714 326.602,-40.3584"/>
</g>
</g>
</svg>
