<?xml version="1.0" encoding="UTF-8" standalone="no"?>
<!DOCTYPE svg PUBLIC "-//W3C//DTD SVG 1.1//EN"
 "http://www.w3.org/Graphics/SVG/1.1/DTD/svg11.dtd">
<!-- Generated by graphviz version 2.26.3 (20100126.1600)
 -->
<!-- Title: /home/kavonszadkowski/limes&#45;dev/simulation/mars/interfaces/src/sim/PhysicsInterface.h Pages: 1 -->
<svg width="426pt" height="266pt"
 viewBox="0.00 0.00 426.00 266.00" xmlns="http://www.w3.org/2000/svg" xmlns:xlink="http://www.w3.org/1999/xlink">
<g id="graph1" class="graph" transform="scale(1 1) rotate(0) translate(4 262)">
<title>/home/kavonszadkowski/limes&#45;dev/simulation/mars/interfaces/src/sim/PhysicsInterface.h</title>
<polygon fill="white" stroke="white" points="-4,5 -4,-262 423,-262 423,5 -4,5"/>
<!-- Node1 -->
<g id="node1" class="node"><title>Node1</title>
<polygon fill="#bfbfbf" stroke="black" points="70.5,-197 70.5,-257 195.5,-257 195.5,-197 70.5,-197"/>
<text text-anchor="start" x="78.5" y="-244" font-family="Helvetica,sans-Serif" font-size="10.00">/home/kavonszadkowski</text>
<text text-anchor="start" x="78.5" y="-231" font-family="Helvetica,sans-Serif" font-size="10.00">/limes&#45;dev/simulation</text>
<text text-anchor="start" x="78.5" y="-218" font-family="Helvetica,sans-Serif" font-size="10.00">/mars/interfaces/src/sim</text>
<text text-anchor="middle" x="133" y="-205" font-family="Helvetica,sans-Serif" font-size="10.00">/PhysicsInterface.h</text>
</g>
<!-- Node2 -->
<g id="node3" class="node"><title>Node2</title>
<a xlink:href="../../d0/ddf/_node_interface_8h.html" target="_top" xlink:title="&quot;NodeInterface&quot; declares the interfaces for the Nodes to the physical layer. ">
<polygon fill="white" stroke="black" points="-0.5,-99 -0.5,-159 124.5,-159 124.5,-99 -0.5,-99"/>
<text text-anchor="start" x="7.5" y="-146" font-family="Helvetica,sans-Serif" font-size="10.00">/home/kavonszadkowski</text>
<text text-anchor="start" x="7.5" y="-133" font-family="Helvetica,sans-Serif" font-size="10.00">/limes&#45;dev/simulation</text>
<text text-anchor="start" x="7.5" y="-120" font-family="Helvetica,sans-Serif" font-size="10.00">/mars/interfaces/src/sim</text>
<text text-anchor="middle" x="62" y="-107" font-family="Helvetica,sans-Serif" font-size="10.00">/NodeInterface.h</text>
</a>
</g>
<!-- Node1&#45;&gt;Node2 -->
<g id="edge2" class="edge"><title>Node1&#45;&gt;Node2</title>
<path fill="none" stroke="midnightblue" d="M105.081,-188.464C98.0566,-178.768 90.6163,-168.499 83.9316,-159.272"/>
<polygon fill="midnightblue" stroke="midnightblue" points="102.417,-190.752 111.118,-196.797 108.086,-186.646 102.417,-190.752"/>
</g>
<!-- Node4 -->
<g id="node7" class="node"><title>Node4</title>
<a xlink:href="../../d0/d74/_simulator_interface_8h.html" target="_top" xlink:title="&quot;SimulatorInterface&quot; provides an interface for using the Simulator class ">
<polygon fill="white" stroke="black" points="141.5,-99 141.5,-159 266.5,-159 266.5,-99 141.5,-99"/>
<text text-anchor="start" x="149.5" y="-146" font-family="Helvetica,sans-Serif" font-size="10.00">/home/kavonszadkowski</text>
<text text-anchor="start" x="149.5" y="-133" font-family="Helvetica,sans-Serif" font-size="10.00">/limes&#45;dev/simulation</text>
<text text-anchor="start" x="149.5" y="-120" font-family="Helvetica,sans-Serif" font-size="10.00">/mars/interfaces/src/sim</text>
<text text-anchor="middle" x="204" y="-107" font-family="Helvetica,sans-Serif" font-size="10.00">/SimulatorInterface.h</text>
</a>
</g>
<!-- Node1&#45;&gt;Node4 -->
<g id="edge6" class="edge"><title>Node1&#45;&gt;Node4</title>
<path fill="none" stroke="midnightblue" d="M160.919,-188.464C167.943,-178.768 175.384,-168.499 182.068,-159.272"/>
<polygon fill="midnightblue" stroke="midnightblue" points="157.914,-186.646 154.882,-196.797 163.583,-190.752 157.914,-186.646"/>
</g>
<!-- Node3 -->
<g id="node5" class="node"><title>Node3</title>
<a xlink:href="../../db/d35/_joint_interface_8h.html" target="_top" xlink:title="/home/kavonszadkowski\l/limes&#45;dev/simulation\l/mars/interfaces/src/sim\l/JointInterface.h">
<polygon fill="white" stroke="black" points="-0.5,-1 -0.5,-61 124.5,-61 124.5,-1 -0.5,-1"/>
<text text-anchor="start" x="7.5" y="-48" font-family="Helvetica,sans-Serif" font-size="10.00">/home/kavonszadkowski</text>
<text text-anchor="start" x="7.5" y="-35" font-family="Helvetica,sans-Serif" font-size="10.00">/limes&#45;dev/simulation</text>
<text text-anchor="start" x="7.5" y="-22" font-family="Helvetica,sans-Serif" font-size="10.00">/mars/interfaces/src/sim</text>
<text text-anchor="middle" x="62" y="-9" font-family="Helvetica,sans-Serif" font-size="10.00">/JointInterface.h</text>
</a>
</g>
<!-- Node2&#45;&gt;Node3 -->
<g id="edge4" class="edge"><title>Node2&#45;&gt;Node3</title>
<path fill="none" stroke="midnightblue" d="M62,-88.6956C62,-79.5273 62,-69.9394 62,-61.2718"/>
<polygon fill="midnightblue" stroke="midnightblue" points="58.5001,-88.7971 62,-98.7971 65.5001,-88.7972 58.5001,-88.7971"/>
</g>
<!-- Node5 -->
<g id="node9" class="node"><title>Node5</title>
<a xlink:href="../../dd/d91/_mars_plugin_template_8h.html" target="_top" xlink:title="/home/kavonszadkowski\l/limes&#45;dev/simulation\l/mars/interfaces/src/sim\l/MarsPluginTemplate.h">
<polygon fill="white" stroke="black" points="141.5,-1 141.5,-61 266.5,-61 266.5,-1 141.5,-1"/>
<text text-anchor="start" x="149.5" y="-48" font-family="Helvetica,sans-Serif" font-size="10.00">/home/kavonszadkowski</text>
<text text-anchor="start" x="149.5" y="-35" font-family="Helvetica,sans-Serif" font-size="10.00">/limes&#45;dev/simulation</text>
<text text-anchor="start" x="149.5" y="-22" font-family="Helvetica,sans-Serif" font-size="10.00">/mars/interfaces/src/sim</text>
<text text-anchor="middle" x="204" y="-9" font-family="Helvetica,sans-Serif" font-size="10.00">/MarsPluginTemplate.h</text>
</a>
</g>
<!-- Node4&#45;&gt;Node5 -->
<g id="edge8" class="edge"><title>Node4&#45;&gt;Node5</title>
<path fill="none" stroke="midnightblue" d="M204,-88.6956C204,-79.5273 204,-69.9394 204,-61.2718"/>
<polygon fill="midnightblue" stroke="midnightblue" points="200.5,-88.7971 204,-98.7971 207.5,-88.7972 200.5,-88.7971"/>
</g>
<!-- Node6 -->
<g id="node11" class="node"><title>Node6</title>
<a xlink:href="../../d4/d96/_mars_plugin_template_g_u_i_8h.html" target="_top" xlink:title="/home/kavonszadkowski\l/limes&#45;dev/simulation\l/mars/interfaces/src/sim\l/MarsPluginTemplateGUI.h">
<polygon fill="white" stroke="black" points="283.5,-1 283.5,-61 418.5,-61 418.5,-1 283.5,-1"/>
<text text-anchor="start" x="291.5" y="-48" font-family="Helvetica,sans-Serif" font-size="10.00">/home/kavonszadkowski</text>
<text text-anchor="start" x="291.5" y="-35" font-family="Helvetica,sans-Serif" font-size="10.00">/limes&#45;dev/simulation</text>
<text text-anchor="start" x="291.5" y="-22" font-family="Helvetica,sans-Serif" font-size="10.00">/mars/interfaces/src/sim</text>
<text text-anchor="middle" x="351" y="-9" font-family="Helvetica,sans-Serif" font-size="10.00">/MarsPluginTemplateGUI.h</text>
</a>
</g>
<!-- Node4&#45;&gt;Node6 -->
<g id="edge10" class="edge"><title>Node4&#45;&gt;Node6</title>
<path fill="none" stroke="midnightblue" d="M257.901,-93.0661C273.651,-82.5659 290.697,-71.2022 305.845,-61.1032"/>
<polygon fill="midnightblue" stroke="midnightblue" points="255.683,-90.3379 249.304,-98.7971 259.566,-96.1623 255.683,-90.3379"/>
</g>
</g>
</svg>
