<?xml version="1.0" encoding="UTF-8" standalone="no"?>
<!DOCTYPE svg PUBLIC "-//W3C//DTD SVG 1.1//EN"
 "http://www.w3.org/Graphics/SVG/1.1/DTD/svg11.dtd">
<!-- Generated by graphviz version 2.26.3 (20100126.1600)
 -->
<!-- Title: /home/kavonszadkowski/limes&#45;dev/simulation/mars/common/utils/src/Socket.cpp Pages: 1 -->
<svg width="772pt" height="186pt"
 viewBox="0.00 0.00 772.00 186.00" xmlns="http://www.w3.org/2000/svg" xmlns:xlink="http://www.w3.org/1999/xlink">
<g id="graph1" class="graph" transform="scale(1 1) rotate(0) translate(4 182)">
<title>/home/kavonszadkowski/limes&#45;dev/simulation/mars/common/utils/src/Socket.cpp</title>
<polygon fill="white" stroke="white" points="-4,5 -4,-182 769,-182 769,5 -4,5"/>
<!-- Node1 -->
<g id="node1" class="node"><title>Node1</title>
<polygon fill="#bfbfbf" stroke="black" points="310.5,-117 310.5,-177 435.5,-177 435.5,-117 310.5,-117"/>
<text text-anchor="start" x="318.5" y="-164" font-family="Helvetica,sans-Serif" font-size="10.00">/home/kavonszadkowski</text>
<text text-anchor="start" x="318.5" y="-151" font-family="Helvetica,sans-Serif" font-size="10.00">/limes&#45;dev/simulation</text>
<text text-anchor="start" x="318.5" y="-138" font-family="Helvetica,sans-Serif" font-size="10.00">/mars/common/utils/src</text>
<text text-anchor="middle" x="373" y="-125" font-family="Helvetica,sans-Serif" font-size="10.00">/Socket.cpp</text>
</g>
<!-- Node2 -->
<g id="node3" class="node"><title>Node2</title>
<a xlink:href="../../de/d1c/_socket_8h.html" target="_top" xlink:title="Socket.h">
<polygon fill="white" stroke="black" points="27,-58.5 27,-79.5 83,-79.5 83,-58.5 27,-58.5"/>
<text text-anchor="middle" x="55" y="-66.5" font-family="Helvetica,sans-Serif" font-size="10.00">Socket.h</text>
</a>
</g>
<!-- Node1&#45;&gt;Node2 -->
<g id="edge2" class="edge"><title>Node1&#45;&gt;Node2</title>
<path fill="none" stroke="midnightblue" d="M310.253,-133.077C255.372,-120.663 173.324,-101.535 93.0191,-80.183"/>
<polygon fill="midnightblue" stroke="midnightblue" points="93.8011,-76.7692 83.2365,-77.5684 91.9936,-83.5318 93.8011,-76.7692"/>
</g>
<!-- Node6 -->
<g id="node11" class="node"><title>Node6</title>
<polygon fill="white" stroke="#bfbfbf" points="100.5,-58.5 100.5,-79.5 165.5,-79.5 165.5,-58.5 100.5,-58.5"/>
<text text-anchor="middle" x="133" y="-66.5" font-family="Helvetica,sans-Serif" font-size="10.00">netinet/in.h</text>
</g>
<!-- Node1&#45;&gt;Node6 -->
<g id="edge10" class="edge"><title>Node1&#45;&gt;Node6</title>
<path fill="none" stroke="midnightblue" d="M310.256,-126.608C267.674,-112.769 212.527,-94.8462 175.133,-82.6933"/>
<polygon fill="midnightblue" stroke="midnightblue" points="176.148,-79.3429 165.556,-79.5806 173.984,-86.0002 176.148,-79.3429"/>
</g>
<!-- Node7 -->
<g id="node13" class="node"><title>Node7</title>
<polygon fill="white" stroke="#bfbfbf" points="182.5,-58.5 182.5,-79.5 253.5,-79.5 253.5,-58.5 182.5,-58.5"/>
<text text-anchor="middle" x="218" y="-66.5" font-family="Helvetica,sans-Serif" font-size="10.00">netinet/tcp.h</text>
</g>
<!-- Node1&#45;&gt;Node7 -->
<g id="edge12" class="edge"><title>Node1&#45;&gt;Node7</title>
<path fill="none" stroke="midnightblue" d="M313.073,-116.843C290.874,-105.672 266.645,-93.4797 248.203,-84.1988"/>
<polygon fill="midnightblue" stroke="midnightblue" points="249.633,-81.0005 239.127,-79.6317 246.487,-87.2534 249.633,-81.0005"/>
</g>
<!-- Node8 -->
<g id="node15" class="node"><title>Node8</title>
<polygon fill="white" stroke="#bfbfbf" points="270.5,-58.5 270.5,-79.5 319.5,-79.5 319.5,-58.5 270.5,-58.5"/>
<text text-anchor="middle" x="295" y="-66.5" font-family="Helvetica,sans-Serif" font-size="10.00">netdb.h</text>
</g>
<!-- Node1&#45;&gt;Node8 -->
<g id="edge14" class="edge"><title>Node1&#45;&gt;Node8</title>
<path fill="none" stroke="midnightblue" d="M342.62,-116.62C332.562,-106.562 321.699,-95.6995 312.892,-86.8922"/>
<polygon fill="midnightblue" stroke="midnightblue" points="315.299,-84.3497 305.753,-79.7535 310.35,-89.2994 315.299,-84.3497"/>
</g>
<!-- Node9 -->
<g id="node17" class="node"><title>Node9</title>
<polygon fill="white" stroke="#bfbfbf" points="336.5,-58.5 336.5,-79.5 409.5,-79.5 409.5,-58.5 336.5,-58.5"/>
<text text-anchor="middle" x="373" y="-66.5" font-family="Helvetica,sans-Serif" font-size="10.00">sys/socket.h</text>
</g>
<!-- Node1&#45;&gt;Node9 -->
<g id="edge16" class="edge"><title>Node1&#45;&gt;Node9</title>
<path fill="none" stroke="midnightblue" d="M373,-116.62C373,-107.68 373,-98.1035 373,-89.9002"/>
<polygon fill="midnightblue" stroke="midnightblue" points="376.5,-89.7534 373,-79.7535 369.5,-89.7535 376.5,-89.7534"/>
</g>
<!-- Node10 -->
<g id="node19" class="node"><title>Node10</title>
<polygon fill="white" stroke="#bfbfbf" points="426.5,-58.5 426.5,-79.5 475.5,-79.5 475.5,-58.5 426.5,-58.5"/>
<text text-anchor="middle" x="451" y="-66.5" font-family="Helvetica,sans-Serif" font-size="10.00">cassert</text>
</g>
<!-- Node1&#45;&gt;Node10 -->
<g id="edge18" class="edge"><title>Node1&#45;&gt;Node10</title>
<path fill="none" stroke="midnightblue" d="M403.38,-116.62C413.438,-106.562 424.301,-95.6995 433.108,-86.8922"/>
<polygon fill="midnightblue" stroke="midnightblue" points="435.65,-89.2994 440.247,-79.7535 430.701,-84.3497 435.65,-89.2994"/>
</g>
<!-- Node11 -->
<g id="node21" class="node"><title>Node11</title>
<polygon fill="white" stroke="#bfbfbf" points="492.5,-58.5 492.5,-79.5 535.5,-79.5 535.5,-58.5 492.5,-58.5"/>
<text text-anchor="middle" x="514" y="-66.5" font-family="Helvetica,sans-Serif" font-size="10.00">cstdio</text>
</g>
<!-- Node1&#45;&gt;Node11 -->
<g id="edge20" class="edge"><title>Node1&#45;&gt;Node11</title>
<path fill="none" stroke="midnightblue" d="M427.514,-116.843C447.337,-105.877 468.94,-93.9268 485.596,-84.7126"/>
<polygon fill="midnightblue" stroke="midnightblue" points="487.725,-87.535 494.781,-79.6317 484.336,-81.4098 487.725,-87.535"/>
</g>
<!-- Node12 -->
<g id="node23" class="node"><title>Node12</title>
<polygon fill="white" stroke="#bfbfbf" points="552.5,-58.5 552.5,-79.5 599.5,-79.5 599.5,-58.5 552.5,-58.5"/>
<text text-anchor="middle" x="576" y="-66.5" font-family="Helvetica,sans-Serif" font-size="10.00">errno.h</text>
</g>
<!-- Node1&#45;&gt;Node12 -->
<g id="edge22" class="edge"><title>Node1&#45;&gt;Node12</title>
<path fill="none" stroke="midnightblue" d="M435.563,-122.961C470.89,-109.387 513.635,-92.963 542.618,-81.8267"/>
<polygon fill="midnightblue" stroke="midnightblue" points="544.181,-84.9754 552.261,-78.1215 541.671,-78.4411 544.181,-84.9754"/>
</g>
<!-- Node13 -->
<g id="node25" class="node"><title>Node13</title>
<a xlink:href="../../d4/d08/misc_8h.html" target="_top" xlink:title="misc.h">
<polygon fill="white" stroke="black" points="617,-58.5 617,-79.5 663,-79.5 663,-58.5 617,-58.5"/>
<text text-anchor="middle" x="640" y="-66.5" font-family="Helvetica,sans-Serif" font-size="10.00">misc.h</text>
</a>
</g>
<!-- Node1&#45;&gt;Node13 -->
<g id="edge24" class="edge"><title>Node1&#45;&gt;Node13</title>
<path fill="none" stroke="midnightblue" d="M435.613,-130.127C480.794,-117.727 543.442,-100.074 607.158,-80.1624"/>
<polygon fill="midnightblue" stroke="midnightblue" points="608.485,-83.4143 616.976,-77.0785 606.387,-76.7359 608.485,-83.4143"/>
</g>
<!-- Node3 -->
<g id="node5" class="node"><title>Node3</title>
<polygon fill="white" stroke="#bfbfbf" points="0,-0.5 0,-21.5 46,-21.5 46,-0.5 0,-0.5"/>
<text text-anchor="middle" x="23" y="-8.5" font-family="Helvetica,sans-Serif" font-size="10.00">cstring</text>
</g>
<!-- Node2&#45;&gt;Node3 -->
<g id="edge4" class="edge"><title>Node2&#45;&gt;Node3</title>
<path fill="none" stroke="midnightblue" d="M49.1307,-58.3619C44.8454,-50.5949 38.9131,-39.8426 33.7839,-30.5458"/>
<polygon fill="midnightblue" stroke="midnightblue" points="36.7274,-28.6357 28.8321,-21.5707 30.5984,-32.0172 36.7274,-28.6357"/>
</g>
<!-- Node4 -->
<g id="node7" class="node"><title>Node4</title>
<polygon fill="white" stroke="#bfbfbf" points="254.5,-0.5 254.5,-21.5 295.5,-21.5 295.5,-0.5 254.5,-0.5"/>
<text text-anchor="middle" x="275" y="-8.5" font-family="Helvetica,sans-Serif" font-size="10.00">string</text>
</g>
<!-- Node2&#45;&gt;Node4 -->
<g id="edge6" class="edge"><title>Node2&#45;&gt;Node4</title>
<path fill="none" stroke="midnightblue" d="M83.2503,-60.4824C86.2005,-59.6285 89.1583,-58.787 92,-58 145.372,-43.2183 207.941,-27.4912 244.362,-18.495"/>
<polygon fill="midnightblue" stroke="midnightblue" points="245.477,-21.8252 254.35,-16.0351 243.803,-15.0283 245.477,-21.8252"/>
</g>
<!-- Node5 -->
<g id="node9" class="node"><title>Node5</title>
<polygon fill="white" stroke="#bfbfbf" points="63.5,-0.5 63.5,-21.5 112.5,-21.5 112.5,-0.5 63.5,-0.5"/>
<text text-anchor="middle" x="88" y="-8.5" font-family="Helvetica,sans-Serif" font-size="10.00">stdint.h</text>
</g>
<!-- Node2&#45;&gt;Node5 -->
<g id="edge8" class="edge"><title>Node2&#45;&gt;Node5</title>
<path fill="none" stroke="midnightblue" d="M61.0527,-58.3619C65.4719,-50.5949 71.5896,-39.8426 76.8791,-30.5458"/>
<polygon fill="midnightblue" stroke="midnightblue" points="80.0824,-31.9932 81.9857,-21.5707 73.9983,-28.5315 80.0824,-31.9932"/>
</g>
<!-- Node13&#45;&gt;Node4 -->
<g id="edge30" class="edge"><title>Node13&#45;&gt;Node4</title>
<path fill="none" stroke="midnightblue" d="M616.733,-60.4272C613.817,-59.5233 610.856,-58.6858 608,-58 498.437,-31.6921 364.819,-18.3388 305.679,-13.3591"/>
<polygon fill="midnightblue" stroke="midnightblue" points="305.779,-9.8556 295.526,-12.5255 305.206,-16.8321 305.779,-9.8556"/>
</g>
<!-- Node14 -->
<g id="node27" class="node"><title>Node14</title>
<polygon fill="white" stroke="#bfbfbf" points="502,-0.5 502,-21.5 564,-21.5 564,-0.5 502,-0.5"/>
<text text-anchor="middle" x="533" y="-8.5" font-family="Helvetica,sans-Serif" font-size="10.00">sys/time.h</text>
</g>
<!-- Node13&#45;&gt;Node14 -->
<g id="edge26" class="edge"><title>Node13&#45;&gt;Node14</title>
<path fill="none" stroke="midnightblue" d="M620.375,-58.3619C603.859,-49.4094 580.026,-36.4908 561.422,-26.4064"/>
<polygon fill="midnightblue" stroke="midnightblue" points="562.96,-23.2592 552.501,-21.5707 559.625,-29.4132 562.96,-23.2592"/>
</g>
<!-- Node15 -->
<g id="node29" class="node"><title>Node15</title>
<polygon fill="white" stroke="#bfbfbf" points="581.5,-0.5 581.5,-21.5 632.5,-21.5 632.5,-0.5 581.5,-0.5"/>
<text text-anchor="middle" x="607" y="-8.5" font-family="Helvetica,sans-Serif" font-size="10.00">unistd.h</text>
</g>
<!-- Node13&#45;&gt;Node15 -->
<g id="edge28" class="edge"><title>Node13&#45;&gt;Node15</title>
<path fill="none" stroke="midnightblue" d="M633.947,-58.3619C629.528,-50.5949 623.41,-39.8426 618.121,-30.5458"/>
<polygon fill="midnightblue" stroke="midnightblue" points="621.002,-28.5315 613.014,-21.5707 614.918,-31.9932 621.002,-28.5315"/>
</g>
<!-- Node16 -->
<g id="node32" class="node"><title>Node16</title>
<polygon fill="white" stroke="#bfbfbf" points="650,-0.5 650,-21.5 694,-21.5 694,-0.5 650,-0.5"/>
<text text-anchor="middle" x="672" y="-8.5" font-family="Helvetica,sans-Serif" font-size="10.00">vector</text>
</g>
<!-- Node13&#45;&gt;Node16 -->
<g id="edge32" class="edge"><title>Node13&#45;&gt;Node16</title>
<path fill="none" stroke="midnightblue" d="M645.869,-58.3619C650.155,-50.5949 656.087,-39.8426 661.216,-30.5458"/>
<polygon fill="midnightblue" stroke="midnightblue" points="664.402,-32.0172 666.168,-21.5707 658.273,-28.6357 664.402,-32.0172"/>
</g>
<!-- Node17 -->
<g id="node34" class="node"><title>Node17</title>
<polygon fill="white" stroke="#bfbfbf" points="712,-0.5 712,-21.5 764,-21.5 764,-0.5 712,-0.5"/>
<text text-anchor="middle" x="738" y="-8.5" font-family="Helvetica,sans-Serif" font-size="10.00">sstream</text>
</g>
<!-- Node13&#45;&gt;Node17 -->
<g id="edge34" class="edge"><title>Node13&#45;&gt;Node17</title>
<path fill="none" stroke="midnightblue" d="M657.975,-58.3619C672.894,-49.532 694.333,-36.844 711.266,-26.8224"/>
<polygon fill="midnightblue" stroke="midnightblue" points="713.316,-29.6759 720.139,-21.5707 709.751,-23.6519 713.316,-29.6759"/>
</g>
</g>
</svg>
