<?xml version="1.0" encoding="UTF-8" standalone="no"?>
<!DOCTYPE svg PUBLIC "-//W3C//DTD SVG 1.1//EN"
 "http://www.w3.org/Graphics/SVG/1.1/DTD/svg11.dtd">
<!-- Generated by graphviz version 2.26.3 (20100126.1600)
 -->
<!-- Title: /home/kavonszadkowski/limes&#45;dev/simulation/mars/common/cfg_manager/src/CFGProperty.h Pages: 1 -->
<svg width="148pt" height="186pt"
 viewBox="0.00 0.00 148.00 186.00" xmlns="http://www.w3.org/2000/svg" xmlns:xlink="http://www.w3.org/1999/xlink">
<g id="graph1" class="graph" transform="scale(1 1) rotate(0) translate(4 182)">
<title>/home/kavonszadkowski/limes&#45;dev/simulation/mars/common/cfg_manager/src/CFGProperty.h</title>
<polygon fill="white" stroke="white" points="-4,5 -4,-182 145,-182 145,5 -4,5"/>
<!-- Node1 -->
<g id="node1" class="node"><title>Node1</title>
<polygon fill="#bfbfbf" stroke="black" points="-0.5,-117 -0.5,-177 140.5,-177 140.5,-117 -0.5,-117"/>
<text text-anchor="start" x="7.5" y="-164" font-family="Helvetica,sans-Serif" font-size="10.00">/home/kavonszadkowski</text>
<text text-anchor="start" x="7.5" y="-151" font-family="Helvetica,sans-Serif" font-size="10.00">/limes&#45;dev/simulation</text>
<text text-anchor="start" x="7.5" y="-138" font-family="Helvetica,sans-Serif" font-size="10.00">/mars/common/cfg_manager</text>
<text text-anchor="middle" x="70" y="-125" font-family="Helvetica,sans-Serif" font-size="10.00">/src/CFGProperty.h</text>
</g>
<!-- Node2 -->
<g id="node3" class="node"><title>Node2</title>
<a xlink:href="../../d3/d8b/_c_f_g_defs_8h.html" target="_top" xlink:title="This file stores types and structs for the CFG class. ">
<polygon fill="white" stroke="black" points="6.5,-58.5 6.5,-79.5 73.5,-79.5 73.5,-58.5 6.5,-58.5"/>
<text text-anchor="middle" x="40" y="-66.5" font-family="Helvetica,sans-Serif" font-size="10.00">CFGDefs.h</text>
</a>
</g>
<!-- Node1&#45;&gt;Node2 -->
<g id="edge2" class="edge"><title>Node1&#45;&gt;Node2</title>
<path fill="none" stroke="midnightblue" d="M58.3153,-116.62C54.7987,-107.477 51.0261,-97.6679 47.8242,-89.343"/>
<polygon fill="midnightblue" stroke="midnightblue" points="50.9925,-87.8305 44.1359,-79.7535 44.4591,-90.3434 50.9925,-87.8305"/>
</g>
<!-- Node3 -->
<g id="node5" class="node"><title>Node3</title>
<polygon fill="white" stroke="#bfbfbf" points="49.5,-0.5 49.5,-21.5 90.5,-21.5 90.5,-0.5 49.5,-0.5"/>
<text text-anchor="middle" x="70" y="-8.5" font-family="Helvetica,sans-Serif" font-size="10.00">string</text>
</g>
<!-- Node1&#45;&gt;Node3 -->
<g id="edge6" class="edge"><title>Node1&#45;&gt;Node3</title>
<path fill="none" stroke="midnightblue" d="M77.9507,-116.944C81.5344,-99.7036 84.4685,-77.6464 82,-58 80.8904,-49.169 78.6518,-39.619 76.4054,-31.4488"/>
<polygon fill="midnightblue" stroke="midnightblue" points="79.7135,-30.2916 73.5422,-21.6797 72.9961,-32.2604 79.7135,-30.2916"/>
</g>
<!-- Node2&#45;&gt;Node3 -->
<g id="edge4" class="edge"><title>Node2&#45;&gt;Node3</title>
<path fill="none" stroke="midnightblue" d="M45.5025,-58.3619C49.5199,-50.5949 55.0814,-39.8426 59.8901,-30.5458"/>
<polygon fill="midnightblue" stroke="midnightblue" points="63.0469,-32.0608 64.5324,-21.5707 56.8294,-28.8448 63.0469,-32.0608"/>
</g>
</g>
</svg>
