<?xml version="1.0" encoding="UTF-8" standalone="no"?>
<!DOCTYPE svg PUBLIC "-//W3C//DTD SVG 1.1//EN"
 "http://www.w3.org/Graphics/SVG/1.1/DTD/svg11.dtd">
<!-- Generated by graphviz version 2.26.3 (20100126.1600)
 -->
<!-- Title: data_broker_plotter::Plot Pages: 1 -->
<svg width="296pt" height="240pt"
 viewBox="0.00 0.00 296.00 240.00" xmlns="http://www.w3.org/2000/svg" xmlns:xlink="http://www.w3.org/1999/xlink">
<g id="graph1" class="graph" transform="scale(1 1) rotate(0) translate(4 236)">
<title>data_broker_plotter::Plot</title>
<polygon fill="white" stroke="white" points="-4,5 -4,-236 293,-236 293,5 -4,5"/>
<!-- Node1 -->
<g id="node1" class="node"><title>Node1</title>
<polygon fill="#bfbfbf" stroke="black" points="86,-1 86,-35 186,-35 186,-1 86,-1"/>
<text text-anchor="start" x="94" y="-22" font-family="Helvetica,sans-Serif" font-size="10.00">data_broker_plotter</text>
<text text-anchor="middle" x="136" y="-9" font-family="Helvetica,sans-Serif" font-size="10.00">::Plot</text>
</g>
<!-- Node2 -->
<g id="node2" class="node"><title>Node2</title>
<a xlink:href="../../da/d2f/classmars_1_1data__broker_1_1_data_package.html" target="_top" xlink:title="A collection of DataItems. ">
<polygon fill="white" stroke="black" points="-0.5,-125 -0.5,-159 100.5,-159 100.5,-125 -0.5,-125"/>
<text text-anchor="start" x="7.5" y="-146" font-family="Helvetica,sans-Serif" font-size="10.00">mars::data_broker::</text>
<text text-anchor="middle" x="50" y="-133" font-family="Helvetica,sans-Serif" font-size="10.00">DataPackage</text>
</a>
</g>
<!-- Node2&#45;&gt;Node1 -->
<g id="edge2" class="edge"><title>Node2&#45;&gt;Node1</title>
<path fill="none" stroke="#9a32cd" stroke-dasharray="5,2" d="M50.4686,-114.71C52.0687,-95.9669 56.8254,-71.422 70,-54 75.8257,-46.2962 83.7982,-40.0381 92.1895,-35.0336"/>
<polygon fill="#9a32cd" stroke="#9a32cd" points="46.974,-114.516 49.8611,-124.71 53.9612,-114.941 46.974,-114.516"/>
<text text-anchor="middle" x="96" y="-77.5" font-family="Helvetica,sans-Serif" font-size="10.00"> dpPackage</text>
</g>
<!-- Node3 -->
<g id="node4" class="node"><title>Node3</title>
<a xlink:href="../../dc/dc3/structmars_1_1cfg__manager_1_1cfg_property_struct.html" target="_top" xlink:title="mars::cfg_manager::\lcfgPropertyStruct">
<polygon fill="white" stroke="black" points="181.5,-125 181.5,-159 288.5,-159 288.5,-125 181.5,-125"/>
<text text-anchor="start" x="189.5" y="-146" font-family="Helvetica,sans-Serif" font-size="10.00">mars::cfg_manager::</text>
<text text-anchor="middle" x="235" y="-133" font-family="Helvetica,sans-Serif" font-size="10.00">cfgPropertyStruct</text>
</a>
</g>
<!-- Node3&#45;&gt;Node1 -->
<g id="edge4" class="edge"><title>Node3&#45;&gt;Node1</title>
<path fill="none" stroke="#9a32cd" stroke-dasharray="5,2" d="M214.788,-116.683C195.353,-92.3412 166.513,-56.2181 149.649,-35.0952"/>
<polygon fill="#9a32cd" stroke="#9a32cd" points="212.26,-119.127 221.234,-124.758 217.73,-114.76 212.26,-119.127"/>
<text text-anchor="middle" x="223" y="-97" font-family="Helvetica,sans-Serif" font-size="10.00"> yScale</text>
<text text-anchor="middle" x="223" y="-84" font-family="Helvetica,sans-Serif" font-size="10.00">xRange</text>
<text text-anchor="middle" x="223" y="-71" font-family="Helvetica,sans-Serif" font-size="10.00">sTime</text>
<text text-anchor="middle" x="223" y="-58" font-family="Helvetica,sans-Serif" font-size="10.00">yOffset</text>
</g>
<!-- Node4 -->
<g id="node6" class="node"><title>Node4</title>
<polygon fill="white" stroke="#bfbfbf" points="148.5,-210.5 148.5,-231.5 189.5,-231.5 189.5,-210.5 148.5,-210.5"/>
<text text-anchor="middle" x="169" y="-218.5" font-family="Helvetica,sans-Serif" font-size="10.00">string</text>
</g>
<!-- Node4&#45;&gt;Node1 -->
<g id="edge8" class="edge"><title>Node4&#45;&gt;Node1</title>
<path fill="none" stroke="#9a32cd" stroke-dasharray="5,2" d="M159.233,-200.846C154.058,-189.193 148.137,-174.09 145,-160 135.176,-115.875 134.798,-62.2729 135.382,-35.2907"/>
<polygon fill="#9a32cd" stroke="#9a32cd" points="156.13,-202.476 163.501,-210.086 162.485,-199.54 156.13,-202.476"/>
<text text-anchor="middle" x="159" y="-139.5" font-family="Helvetica,sans-Serif" font-size="10.00"> name</text>
</g>
<!-- Node4&#45;&gt;Node3 -->
<g id="edge6" class="edge"><title>Node4&#45;&gt;Node3</title>
<path fill="none" stroke="#9a32cd" stroke-dasharray="5,2" d="M184.498,-202.45C195.449,-189.341 210.019,-171.901 220.694,-159.124"/>
<polygon fill="#9a32cd" stroke="#9a32cd" points="181.626,-200.427 177.901,-210.346 186.998,-204.915 181.626,-200.427"/>
<text text-anchor="middle" x="221" y="-182.5" font-family="Helvetica,sans-Serif" font-size="10.00"> sValue</text>
</g>
</g>
</svg>
