<?xml version="1.0" encoding="UTF-8" standalone="no"?>
<!DOCTYPE svg PUBLIC "-//W3C//DTD SVG 1.1//EN"
 "http://www.w3.org/Graphics/SVG/1.1/DTD/svg11.dtd">
<!-- Generated by graphviz version 2.36.0 (20140111.2315)
 -->
<!-- Title: data_broker_plotter::Plot Pages: 1 -->
<svg width="298pt" height="220pt"
 viewBox="0.00 0.00 298.00 220.00" xmlns="http://www.w3.org/2000/svg" xmlns:xlink="http://www.w3.org/1999/xlink">
<g id="graph0" class="graph" transform="scale(1 1) rotate(0) translate(4 216)">
<title>data_broker_plotter::Plot</title>
<polygon fill="white" stroke="none" points="-4,4 -4,-216 294,-216 294,4 -4,4"/>
<!-- Node1 -->
<g id="node1" class="node"><title>Node1</title>
<polygon fill="#bfbfbf" stroke="black" points="87,-1 87,-31 187,-31 187,-1 87,-1"/>
<text text-anchor="start" x="95" y="-19" font-family="Helvetica,sans-Serif" font-size="10.00">data_broker_plotter</text>
<text text-anchor="middle" x="137" y="-8" font-family="Helvetica,sans-Serif" font-size="10.00">::Plot</text>
</g>
<!-- Node2 -->
<g id="node2" class="node"><title>Node2</title>
<g id="a_node2"><a xlink:href="../../da/d2f/classmars_1_1data__broker_1_1_data_package.html" target="_top" xlink:title="A collection of DataItems. ">
<polygon fill="white" stroke="black" points="-0.5,-113 -0.5,-143 100.5,-143 100.5,-113 -0.5,-113"/>
<text text-anchor="start" x="7.5" y="-131" font-family="Helvetica,sans-Serif" font-size="10.00">mars::data_broker::</text>
<text text-anchor="middle" x="50" y="-120" font-family="Helvetica,sans-Serif" font-size="10.00">DataPackage</text>
</a>
</g>
</g>
<!-- Node2&#45;&gt;Node1 -->
<g id="edge1" class="edge"><title>Node2&#45;&gt;Node1</title>
<path fill="none" stroke="#9a32cd" stroke-dasharray="5,2" d="M51.4772,-102.945C53.614,-86.4552 58.7494,-64.9433 71,-50 77.4975,-42.0743 86.3794,-35.8795 95.5209,-31.1078"/>
<polygon fill="#9a32cd" stroke="#9a32cd" points="47.9909,-102.634 50.4614,-112.937 54.955,-103.342 47.9909,-102.634"/>
<text text-anchor="middle" x="97" y="-69.5" font-family="Helvetica,sans-Serif" font-size="10.00"> dpPackage</text>
</g>
<!-- Node3 -->
<g id="node3" class="node"><title>Node3</title>
<g id="a_node3"><a xlink:href="../../dc/dc3/structmars_1_1cfg__manager_1_1cfg_property_struct.html" target="_top" xlink:title="mars::cfg_manager::\lcfgPropertyStruct">
<polygon fill="white" stroke="black" points="183.5,-113 183.5,-143 290.5,-143 290.5,-113 183.5,-113"/>
<text text-anchor="start" x="191.5" y="-131" font-family="Helvetica,sans-Serif" font-size="10.00">mars::cfg_manager::</text>
<text text-anchor="middle" x="237" y="-120" font-family="Helvetica,sans-Serif" font-size="10.00">cfgPropertyStruct</text>
</a>
</g>
</g>
<!-- Node3&#45;&gt;Node1 -->
<g id="edge2" class="edge"><title>Node3&#45;&gt;Node1</title>
<path fill="none" stroke="#9a32cd" stroke-dasharray="5,2" d="M217.054,-105.059C197.023,-83.0258 166.762,-49.7385 149.76,-31.0363"/>
<polygon fill="#9a32cd" stroke="#9a32cd" points="214.61,-107.574 223.927,-112.619 219.79,-102.866 214.61,-107.574"/>
<text text-anchor="middle" x="222" y="-86" font-family="Helvetica,sans-Serif" font-size="10.00"> yScale</text>
<text text-anchor="middle" x="222" y="-75" font-family="Helvetica,sans-Serif" font-size="10.00">xRange</text>
<text text-anchor="middle" x="222" y="-64" font-family="Helvetica,sans-Serif" font-size="10.00">sTime</text>
<text text-anchor="middle" x="222" y="-53" font-family="Helvetica,sans-Serif" font-size="10.00">yOffset</text>
</g>
<!-- Node4 -->
<g id="node4" class="node"><title>Node4</title>
<polygon fill="white" stroke="#bfbfbf" points="149.5,-192.5 149.5,-211.5 190.5,-211.5 190.5,-192.5 149.5,-192.5"/>
<text text-anchor="middle" x="170" y="-199.5" font-family="Helvetica,sans-Serif" font-size="10.00">string</text>
</g>
<!-- Node4&#45;&gt;Node1 -->
<g id="edge4" class="edge"><title>Node4&#45;&gt;Node1</title>
<path fill="none" stroke="#9a32cd" stroke-dasharray="5,2" d="M160.844,-183.46C155.543,-172.439 149.287,-157.752 146,-144 136.442,-104.013 136.022,-55.0898 136.507,-31.3246"/>
<polygon fill="#9a32cd" stroke="#9a32cd" points="157.723,-185.044 165.331,-192.418 163.982,-181.91 157.723,-185.044"/>
<text text-anchor="middle" x="160" y="-125.5" font-family="Helvetica,sans-Serif" font-size="10.00"> name</text>
</g>
<!-- Node4&#45;&gt;Node3 -->
<g id="edge3" class="edge"><title>Node4&#45;&gt;Node3</title>
<path fill="none" stroke="#9a32cd" stroke-dasharray="5,2" d="M184.868,-185.022C196.51,-172.512 212.553,-155.271 223.757,-143.232"/>
<polygon fill="#9a32cd" stroke="#9a32cd" points="182.199,-182.753 177.949,-192.458 187.323,-187.522 182.199,-182.753"/>
<text text-anchor="middle" x="223" y="-165.5" font-family="Helvetica,sans-Serif" font-size="10.00"> sValue</text>
</g>
</g>
</svg>
