<?xml version="1.0" encoding="UTF-8" standalone="no"?>
<!DOCTYPE svg PUBLIC "-//W3C//DTD SVG 1.1//EN"
 "http://www.w3.org/Graphics/SVG/1.1/DTD/svg11.dtd">
<!-- Generated by graphviz version 2.26.3 (20100126.1600)
 -->
<!-- Title: /home/kavonszadkowski/limes&#45;dev/simulation/mars/gui/src/dialogs/DialogLights.cpp Pages: 1 -->
<svg width="767pt" height="272pt"
 viewBox="0.00 0.00 767.00 272.00" xmlns="http://www.w3.org/2000/svg" xmlns:xlink="http://www.w3.org/1999/xlink">
<g id="graph1" class="graph" transform="scale(1 1) rotate(0) translate(4 268)">
<title>/home/kavonszadkowski/limes&#45;dev/simulation/mars/gui/src/dialogs/DialogLights.cpp</title>
<polygon fill="white" stroke="white" points="-4,5 -4,-268 764,-268 764,5 -4,5"/>
<!-- Node1 -->
<g id="node1" class="node"><title>Node1</title>
<polygon fill="#bfbfbf" stroke="black" points="435.5,-203 435.5,-263 560.5,-263 560.5,-203 435.5,-203"/>
<text text-anchor="start" x="443.5" y="-250" font-family="Helvetica,sans-Serif" font-size="10.00">/home/kavonszadkowski</text>
<text text-anchor="start" x="443.5" y="-237" font-family="Helvetica,sans-Serif" font-size="10.00">/limes&#45;dev/simulation</text>
<text text-anchor="start" x="443.5" y="-224" font-family="Helvetica,sans-Serif" font-size="10.00">/mars/gui/src/dialogs</text>
<text text-anchor="middle" x="498" y="-211" font-family="Helvetica,sans-Serif" font-size="10.00">/DialogLights.cpp</text>
</g>
<!-- Node2 -->
<g id="node3" class="node"><title>Node2</title>
<a xlink:href="../../d4/d78/_dialog_lights_8h.html" target="_top" xlink:title="DialogLights.h">
<polygon fill="white" stroke="black" points="168.5,-137.5 168.5,-158.5 247.5,-158.5 247.5,-137.5 168.5,-137.5"/>
<text text-anchor="middle" x="208" y="-145.5" font-family="Helvetica,sans-Serif" font-size="10.00">DialogLights.h</text>
</a>
</g>
<!-- Node1&#45;&gt;Node2 -->
<g id="edge2" class="edge"><title>Node1&#45;&gt;Node2</title>
<path fill="none" stroke="midnightblue" d="M435.375,-217.292C386.247,-204.578 316.32,-185.617 256,-166 252.205,-164.766 248.266,-163.411 244.351,-162.017"/>
<polygon fill="midnightblue" stroke="midnightblue" points="245.356,-158.658 234.762,-158.515 242.954,-165.233 245.356,-158.658"/>
</g>
<!-- Node8 -->
<g id="node17" class="node"><title>Node8</title>
<polygon fill="white" stroke="#bfbfbf" points="264.5,-137.5 264.5,-158.5 409.5,-158.5 409.5,-137.5 264.5,-137.5"/>
<text text-anchor="middle" x="337" y="-145.5" font-family="Helvetica,sans-Serif" font-size="10.00">mars/main_gui/GuiInterface.h</text>
</g>
<!-- Node1&#45;&gt;Node8 -->
<g id="edge18" class="edge"><title>Node1&#45;&gt;Node8</title>
<path fill="none" stroke="midnightblue" d="M440.784,-202.793C415.546,-189.468 386.967,-174.38 366.198,-163.415"/>
<polygon fill="midnightblue" stroke="midnightblue" points="367.723,-160.262 357.246,-158.689 364.455,-166.453 367.723,-160.262"/>
</g>
<!-- Node9 -->
<g id="node19" class="node"><title>Node9</title>
<polygon fill="white" stroke="#bfbfbf" points="426.5,-131 426.5,-165 569.5,-165 569.5,-131 426.5,-131"/>
<text text-anchor="start" x="434.5" y="-152" font-family="Helvetica,sans-Serif" font-size="10.00">mars/interfaces/graphics</text>
<text text-anchor="middle" x="498" y="-139" font-family="Helvetica,sans-Serif" font-size="10.00">/GraphicsManagerInterface.h</text>
</g>
<!-- Node1&#45;&gt;Node9 -->
<g id="edge20" class="edge"><title>Node1&#45;&gt;Node9</title>
<path fill="none" stroke="midnightblue" d="M498,-202.793C498,-193.837 498,-184.084 498,-175.322"/>
<polygon fill="midnightblue" stroke="midnightblue" points="501.5,-175.246 498,-165.246 494.5,-175.246 501.5,-175.246"/>
</g>
<!-- Node10 -->
<g id="node21" class="node"><title>Node10</title>
<polygon fill="white" stroke="#bfbfbf" points="586.5,-137.5 586.5,-158.5 661.5,-158.5 661.5,-137.5 586.5,-137.5"/>
<text text-anchor="middle" x="624" y="-145.5" font-family="Helvetica,sans-Serif" font-size="10.00">QPushButton</text>
</g>
<!-- Node1&#45;&gt;Node10 -->
<g id="edge22" class="edge"><title>Node1&#45;&gt;Node10</title>
<path fill="none" stroke="midnightblue" d="M542.778,-202.793C561.995,-189.829 583.688,-175.195 599.818,-164.313"/>
<polygon fill="midnightblue" stroke="midnightblue" points="601.823,-167.183 608.156,-158.689 597.908,-161.38 601.823,-167.183"/>
</g>
<!-- Node11 -->
<g id="node23" class="node"><title>Node11</title>
<polygon fill="white" stroke="#bfbfbf" points="678.5,-137.5 678.5,-158.5 759.5,-158.5 759.5,-137.5 678.5,-137.5"/>
<text text-anchor="middle" x="719" y="-145.5" font-family="Helvetica,sans-Serif" font-size="10.00">QMessageBox</text>
</g>
<!-- Node1&#45;&gt;Node11 -->
<g id="edge24" class="edge"><title>Node1&#45;&gt;Node11</title>
<path fill="none" stroke="midnightblue" d="M560.739,-208.87C599.828,-193.836 648.791,-175.004 681.822,-162.299"/>
<polygon fill="midnightblue" stroke="midnightblue" points="683.457,-165.421 691.534,-158.564 680.944,-158.887 683.457,-165.421"/>
</g>
<!-- Node3 -->
<g id="node5" class="node"><title>Node3</title>
<polygon fill="white" stroke="#bfbfbf" points="1.5,-72.5 1.5,-93.5 146.5,-93.5 146.5,-72.5 1.5,-72.5"/>
<text text-anchor="middle" x="74" y="-80.5" font-family="Helvetica,sans-Serif" font-size="10.00">mars/main_gui/BaseWidget.h</text>
</g>
<!-- Node2&#45;&gt;Node3 -->
<g id="edge4" class="edge"><title>Node2&#45;&gt;Node3</title>
<path fill="none" stroke="midnightblue" d="M186.172,-137.412C164.077,-126.694 129.713,-110.025 104.841,-97.9601"/>
<polygon fill="midnightblue" stroke="midnightblue" points="106.343,-94.7989 95.8183,-93.5835 103.288,-101.097 106.343,-94.7989"/>
</g>
<!-- Node4 -->
<g id="node7" class="node"><title>Node4</title>
<polygon fill="white" stroke="#bfbfbf" points="0,-7.5 0,-28.5 156,-28.5 156,-7.5 0,-7.5"/>
<text text-anchor="middle" x="78" y="-15.5" font-family="Helvetica,sans-Serif" font-size="10.00">mars/main_gui/PropertyDialog.h</text>
</g>
<!-- Node2&#45;&gt;Node4 -->
<g id="edge6" class="edge"><title>Node2&#45;&gt;Node4</title>
<path fill="none" stroke="midnightblue" d="M202.166,-137.303C193.343,-121.746 175.447,-92.5011 155,-72 140.253,-57.2141 121.022,-43.7237 105.468,-33.9251"/>
<polygon fill="midnightblue" stroke="midnightblue" points="107.15,-30.8507 96.7968,-28.6005 103.487,-36.8158 107.15,-30.8507"/>
</g>
<!-- Node5 -->
<g id="node9" class="node"><title>Node5</title>
<polygon fill="white" stroke="#bfbfbf" points="327.5,-1 327.5,-35 430.5,-35 430.5,-1 327.5,-1"/>
<text text-anchor="start" x="335.5" y="-22" font-family="Helvetica,sans-Serif" font-size="10.00">mars/interfaces/sim</text>
<text text-anchor="middle" x="379" y="-9" font-family="Helvetica,sans-Serif" font-size="10.00">/ControlCenter.h</text>
</g>
<!-- Node2&#45;&gt;Node5 -->
<g id="edge8" class="edge"><title>Node2&#45;&gt;Node5</title>
<path fill="none" stroke="midnightblue" d="M225.632,-137.493C242.76,-127.065 269.288,-110.32 291,-94 312.829,-77.5912 336.162,-57.3015 353.313,-41.8147"/>
<polygon fill="midnightblue" stroke="midnightblue" points="355.687,-44.3861 360.73,-35.0684 350.977,-39.2076 355.687,-44.3861"/>
</g>
<!-- Node6 -->
<g id="node11" class="node"><title>Node6</title>
<a xlink:href="../../de/d15/_light_handler_8h.html" target="_top" xlink:title="Provides the GUI properties for handling a light &#45; creating and editing. ">
<polygon fill="white" stroke="black" points="202,-72.5 202,-93.5 282,-93.5 282,-72.5 202,-72.5"/>
<text text-anchor="middle" x="242" y="-80.5" font-family="Helvetica,sans-Serif" font-size="10.00">LightHandler.h</text>
</a>
</g>
<!-- Node2&#45;&gt;Node6 -->
<g id="edge10" class="edge"><title>Node2&#45;&gt;Node6</title>
<path fill="none" stroke="midnightblue" d="M213.614,-137.267C218.516,-127.896 225.755,-114.057 231.695,-102.7"/>
<polygon fill="midnightblue" stroke="midnightblue" points="234.956,-104.017 236.49,-93.5337 228.754,-100.772 234.956,-104.017"/>
</g>
<!-- Node6&#45;&gt;Node4 -->
<g id="edge12" class="edge"><title>Node6&#45;&gt;Node4</title>
<path fill="none" stroke="midnightblue" d="M215.286,-72.412C187.767,-61.5052 144.699,-44.4357 114.147,-32.3266"/>
<polygon fill="midnightblue" stroke="midnightblue" points="115.289,-29.0144 104.703,-28.5835 112.71,-35.5219 115.289,-29.0144"/>
</g>
<!-- Node6&#45;&gt;Node5 -->
<g id="edge14" class="edge"><title>Node6&#45;&gt;Node5</title>
<path fill="none" stroke="midnightblue" d="M264.316,-72.412C283.125,-63.488 310.63,-50.4382 333.989,-39.3556"/>
<polygon fill="midnightblue" stroke="midnightblue" points="335.508,-42.5091 343.042,-35.0604 332.507,-36.1848 335.508,-42.5091"/>
</g>
<!-- Node7 -->
<g id="node15" class="node"><title>Node7</title>
<polygon fill="white" stroke="#bfbfbf" points="173.5,-7.5 173.5,-28.5 310.5,-28.5 310.5,-7.5 173.5,-7.5"/>
<text text-anchor="middle" x="242" y="-15.5" font-family="Helvetica,sans-Serif" font-size="10.00">mars/interfaces/LightData.h</text>
</g>
<!-- Node6&#45;&gt;Node7 -->
<g id="edge16" class="edge"><title>Node6&#45;&gt;Node7</title>
<path fill="none" stroke="midnightblue" d="M242,-72.2666C242,-63.1799 242,-49.8919 242,-38.7395"/>
<polygon fill="midnightblue" stroke="midnightblue" points="245.5,-38.5337 242,-28.5337 238.5,-38.5337 245.5,-38.5337"/>
</g>
</g>
</svg>
