<?xml version="1.0" encoding="UTF-8" standalone="no"?>
<!DOCTYPE svg PUBLIC "-//W3C//DTD SVG 1.1//EN"
 "http://www.w3.org/Graphics/SVG/1.1/DTD/svg11.dtd">
<!-- Generated by graphviz version 2.26.3 (20100126.1600)
 -->
<!-- Title: /home/kavonszadkowski/limes&#45;dev/simulation/mars/graphics/src/GraphicsCamera.h Pages: 1 -->
<svg width="1074pt" height="336pt"
 viewBox="0.00 0.00 1074.00 336.00" xmlns="http://www.w3.org/2000/svg" xmlns:xlink="http://www.w3.org/1999/xlink">
<g id="graph1" class="graph" transform="scale(1 1) rotate(0) translate(4 332)">
<title>/home/kavonszadkowski/limes&#45;dev/simulation/mars/graphics/src/GraphicsCamera.h</title>
<polygon fill="white" stroke="white" points="-4,5 -4,-332 1071,-332 1071,5 -4,5"/>
<!-- Node1 -->
<g id="node1" class="node"><title>Node1</title>
<polygon fill="#bfbfbf" stroke="black" points="410,-280.5 410,-327.5 592,-327.5 592,-280.5 410,-280.5"/>
<text text-anchor="start" x="418" y="-314.5" font-family="Helvetica,sans-Serif" font-size="10.00">/home/kavonszadkowski</text>
<text text-anchor="start" x="418" y="-301.5" font-family="Helvetica,sans-Serif" font-size="10.00">/limes&#45;dev/simulation</text>
<text text-anchor="middle" x="501" y="-288.5" font-family="Helvetica,sans-Serif" font-size="10.00">/mars/graphics/src/GraphicsCamera.h</text>
</g>
<!-- Node2 -->
<g id="node3" class="node"><title>Node2</title>
<a xlink:href="../../d6/dac/_graphics_camera_8cpp.html" target="_top" xlink:title="/home/kavonszadkowski\l/limes&#45;dev/simulation\l/mars/graphics/src/GraphicsCamera.cpp">
<polygon fill="white" stroke="black" points="303.5,-196.5 303.5,-243.5 496.5,-243.5 496.5,-196.5 303.5,-196.5"/>
<text text-anchor="start" x="311.5" y="-230.5" font-family="Helvetica,sans-Serif" font-size="10.00">/home/kavonszadkowski</text>
<text text-anchor="start" x="311.5" y="-217.5" font-family="Helvetica,sans-Serif" font-size="10.00">/limes&#45;dev/simulation</text>
<text text-anchor="middle" x="400" y="-204.5" font-family="Helvetica,sans-Serif" font-size="10.00">/mars/graphics/src/GraphicsCamera.cpp</text>
</a>
</g>
<!-- Node1&#45;&gt;Node2 -->
<g id="edge2" class="edge"><title>Node1&#45;&gt;Node2</title>
<path fill="none" stroke="midnightblue" d="M464.6,-273.726C452.735,-263.859 439.742,-253.053 428.54,-243.736"/>
<polygon fill="midnightblue" stroke="midnightblue" points="462.671,-276.674 472.597,-280.378 467.147,-271.292 462.671,-276.674"/>
</g>
<!-- Node3 -->
<g id="node5" class="node"><title>Node3</title>
<a xlink:href="../../d7/d60/_graphics_widget_8h.html" target="_top" xlink:title="/home/kavonszadkowski\l/limes&#45;dev/simulation\l/mars/graphics/src/GraphicsWidget.h">
<polygon fill="white" stroke="black" points="513.5,-196.5 513.5,-243.5 692.5,-243.5 692.5,-196.5 513.5,-196.5"/>
<text text-anchor="start" x="521.5" y="-230.5" font-family="Helvetica,sans-Serif" font-size="10.00">/home/kavonszadkowski</text>
<text text-anchor="start" x="521.5" y="-217.5" font-family="Helvetica,sans-Serif" font-size="10.00">/limes&#45;dev/simulation</text>
<text text-anchor="middle" x="603" y="-204.5" font-family="Helvetica,sans-Serif" font-size="10.00">/mars/graphics/src/GraphicsWidget.h</text>
</a>
</g>
<!-- Node1&#45;&gt;Node3 -->
<g id="edge4" class="edge"><title>Node1&#45;&gt;Node3</title>
<path fill="none" stroke="midnightblue" d="M537.416,-274.011C549.49,-264.067 562.756,-253.142 574.178,-243.736"/>
<polygon fill="midnightblue" stroke="midnightblue" points="535.178,-271.319 529.684,-280.378 539.628,-276.722 535.178,-271.319"/>
</g>
<!-- Node4 -->
<g id="node7" class="node"><title>Node4</title>
<a xlink:href="../../d8/d50/_coords_primitive_8h.html" target="_top" xlink:title="/home/kavonszadkowski\l/limes&#45;dev/simulation\l/mars/graphics/src/3d\l_objects/CoordsPrimitive.h">
<polygon fill="white" stroke="black" points="344,-99 344,-159 478,-159 478,-99 344,-99"/>
<text text-anchor="start" x="352" y="-146" font-family="Helvetica,sans-Serif" font-size="10.00">/home/kavonszadkowski</text>
<text text-anchor="start" x="352" y="-133" font-family="Helvetica,sans-Serif" font-size="10.00">/limes&#45;dev/simulation</text>
<text text-anchor="start" x="352" y="-120" font-family="Helvetica,sans-Serif" font-size="10.00">/mars/graphics/src/3d</text>
<text text-anchor="middle" x="411" y="-107" font-family="Helvetica,sans-Serif" font-size="10.00">_objects/CoordsPrimitive.h</text>
</a>
</g>
<!-- Node3&#45;&gt;Node4 -->
<g id="edge6" class="edge"><title>Node3&#45;&gt;Node4</title>
<path fill="none" stroke="midnightblue" d="M543.836,-191.959C521.852,-181.539 496.829,-169.679 474.475,-159.085"/>
<polygon fill="midnightblue" stroke="midnightblue" points="542.52,-195.208 553.055,-196.328 545.518,-188.883 542.52,-195.208"/>
</g>
<!-- Node6 -->
<g id="node11" class="node"><title>Node6</title>
<a xlink:href="../../d7/d19/_graphics_manager_8cpp.html" target="_top" xlink:title="/home/kavonszadkowski\l/limes&#45;dev/simulation\l/mars/graphics/src/GraphicsManager.cpp">
<polygon fill="white" stroke="black" points="462,-7.5 462,-54.5 658,-54.5 658,-7.5 462,-7.5"/>
<text text-anchor="start" x="470" y="-41.5" font-family="Helvetica,sans-Serif" font-size="10.00">/home/kavonszadkowski</text>
<text text-anchor="start" x="470" y="-28.5" font-family="Helvetica,sans-Serif" font-size="10.00">/limes&#45;dev/simulation</text>
<text text-anchor="middle" x="560" y="-15.5" font-family="Helvetica,sans-Serif" font-size="10.00">/mars/graphics/src/GraphicsManager.cpp</text>
</a>
</g>
<!-- Node3&#45;&gt;Node6 -->
<g id="edge28" class="edge"><title>Node3&#45;&gt;Node6</title>
<path fill="none" stroke="midnightblue" d="M620.428,-187.151C631.328,-161.994 641.191,-126.829 629,-98 621.782,-80.9293 607.851,-66.0659 594.385,-54.705"/>
<polygon fill="midnightblue" stroke="midnightblue" points="617.234,-185.72 616.244,-196.268 623.596,-188.64 617.234,-185.72"/>
</g>
<!-- Node7 -->
<g id="node13" class="node"><title>Node7</title>
<a xlink:href="../../d4/d88/_o_s_g_draw_item_8h.html" target="_top" xlink:title="/home/kavonszadkowski\l/limes&#45;dev/simulation\l/mars/graphics/src/wrapper\l/OSGDrawItem.h">
<polygon fill="white" stroke="black" points="191.5,-99 191.5,-159 326.5,-159 326.5,-99 191.5,-99"/>
<text text-anchor="start" x="199.5" y="-146" font-family="Helvetica,sans-Serif" font-size="10.00">/home/kavonszadkowski</text>
<text text-anchor="start" x="199.5" y="-133" font-family="Helvetica,sans-Serif" font-size="10.00">/limes&#45;dev/simulation</text>
<text text-anchor="start" x="199.5" y="-120" font-family="Helvetica,sans-Serif" font-size="10.00">/mars/graphics/src/wrapper</text>
<text text-anchor="middle" x="259" y="-107" font-family="Helvetica,sans-Serif" font-size="10.00">/OSGDrawItem.h</text>
</a>
</g>
<!-- Node3&#45;&gt;Node7 -->
<g id="edge12" class="edge"><title>Node3&#45;&gt;Node7</title>
<path fill="none" stroke="midnightblue" d="M503.327,-195.676C427.904,-179.085 405.799,-181.745 335,-160 332.276,-159.163 329.513,-158.268 326.735,-157.329"/>
<polygon fill="midnightblue" stroke="midnightblue" points="502.782,-199.141 513.305,-197.914 504.314,-192.31 502.782,-199.141"/>
</g>
<!-- Node10 -->
<g id="node21" class="node"><title>Node10</title>
<a xlink:href="../../d1/dd9/_grid_primitive_8h.html" target="_top" xlink:title="/home/kavonszadkowski\l/limes&#45;dev/simulation\l/mars/graphics/src/3d\l_objects/GridPrimitive.h">
<polygon fill="white" stroke="black" points="495.5,-99 495.5,-159 620.5,-159 620.5,-99 495.5,-99"/>
<text text-anchor="start" x="503.5" y="-146" font-family="Helvetica,sans-Serif" font-size="10.00">/home/kavonszadkowski</text>
<text text-anchor="start" x="503.5" y="-133" font-family="Helvetica,sans-Serif" font-size="10.00">/limes&#45;dev/simulation</text>
<text text-anchor="start" x="503.5" y="-120" font-family="Helvetica,sans-Serif" font-size="10.00">/mars/graphics/src/3d</text>
<text text-anchor="middle" x="558" y="-107" font-family="Helvetica,sans-Serif" font-size="10.00">_objects/GridPrimitive.h</text>
</a>
</g>
<!-- Node3&#45;&gt;Node10 -->
<g id="edge22" class="edge"><title>Node3&#45;&gt;Node10</title>
<path fill="none" stroke="midnightblue" d="M586.673,-186.983C582.196,-177.931 577.367,-168.164 572.971,-159.274"/>
<polygon fill="midnightblue" stroke="midnightblue" points="583.607,-188.678 591.177,-196.091 589.881,-185.575 583.607,-188.678"/>
</g>
<!-- Node11 -->
<g id="node26" class="node"><title>Node11</title>
<a xlink:href="../../dc/d63/_qt_osg_mix_graphics_widget_8h.html" target="_top" xlink:title="/home/kavonszadkowski\l/limes&#45;dev/simulation\l/mars/graphics/src/QtOsgMixGraphics\lWidget.h">
<polygon fill="white" stroke="black" points="676,-99 676,-159 860,-159 860,-99 676,-99"/>
<text text-anchor="start" x="684" y="-146" font-family="Helvetica,sans-Serif" font-size="10.00">/home/kavonszadkowski</text>
<text text-anchor="start" x="684" y="-133" font-family="Helvetica,sans-Serif" font-size="10.00">/limes&#45;dev/simulation</text>
<text text-anchor="start" x="684" y="-120" font-family="Helvetica,sans-Serif" font-size="10.00">/mars/graphics/src/QtOsgMixGraphics</text>
<text text-anchor="middle" x="768" y="-107" font-family="Helvetica,sans-Serif" font-size="10.00">Widget.h</text>
</a>
</g>
<!-- Node3&#45;&gt;Node11 -->
<g id="edge30" class="edge"><title>Node3&#45;&gt;Node11</title>
<path fill="none" stroke="midnightblue" d="M654.858,-191.399C673.504,-181.116 694.584,-169.49 713.451,-159.085"/>
<polygon fill="midnightblue" stroke="midnightblue" points="652.987,-188.434 645.921,-196.328 656.368,-194.564 652.987,-188.434"/>
</g>
<!-- Node12 -->
<g id="node29" class="node"><title>Node12</title>
<a xlink:href="../../d0/d77/_graphics_widget_8cpp.html" target="_top" xlink:title="/home/kavonszadkowski\l/limes&#45;dev/simulation\l/mars/graphics/src/GraphicsWidget.cpp">
<polygon fill="white" stroke="black" points="877.5,-7.5 877.5,-54.5 1066.5,-54.5 1066.5,-7.5 877.5,-7.5"/>
<text text-anchor="start" x="885.5" y="-41.5" font-family="Helvetica,sans-Serif" font-size="10.00">/home/kavonszadkowski</text>
<text text-anchor="start" x="885.5" y="-28.5" font-family="Helvetica,sans-Serif" font-size="10.00">/limes&#45;dev/simulation</text>
<text text-anchor="middle" x="972" y="-15.5" font-family="Helvetica,sans-Serif" font-size="10.00">/mars/graphics/src/GraphicsWidget.cpp</text>
</a>
</g>
<!-- Node3&#45;&gt;Node12 -->
<g id="edge38" class="edge"><title>Node3&#45;&gt;Node12</title>
<path fill="none" stroke="midnightblue" d="M702.646,-204.585C766.06,-193.442 841.292,-177.349 869,-160 911.022,-133.688 943.287,-84.0265 959.791,-54.59"/>
<polygon fill="midnightblue" stroke="midnightblue" points="701.834,-201.173 692.579,-206.33 703.03,-208.07 701.834,-201.173"/>
</g>
<!-- Node5 -->
<g id="node9" class="node"><title>Node5</title>
<a xlink:href="../../d1/d38/_coords_primitive_8cpp.html" target="_top" xlink:title="/home/kavonszadkowski\l/limes&#45;dev/simulation\l/mars/graphics/src/3d\l_objects/CoordsPrimitive.cpp">
<polygon fill="white" stroke="black" points="151.5,-1 151.5,-61 296.5,-61 296.5,-1 151.5,-1"/>
<text text-anchor="start" x="159.5" y="-48" font-family="Helvetica,sans-Serif" font-size="10.00">/home/kavonszadkowski</text>
<text text-anchor="start" x="159.5" y="-35" font-family="Helvetica,sans-Serif" font-size="10.00">/limes&#45;dev/simulation</text>
<text text-anchor="start" x="159.5" y="-22" font-family="Helvetica,sans-Serif" font-size="10.00">/mars/graphics/src/3d</text>
<text text-anchor="middle" x="224" y="-9" font-family="Helvetica,sans-Serif" font-size="10.00">_objects/CoordsPrimitive.cpp</text>
</a>
</g>
<!-- Node4&#45;&gt;Node5 -->
<g id="edge8" class="edge"><title>Node4&#45;&gt;Node5</title>
<path fill="none" stroke="midnightblue" d="M344.581,-94.1923C323.895,-83.3513 301.273,-71.496 281.269,-61.0124"/>
<polygon fill="midnightblue" stroke="midnightblue" points="343.141,-97.389 353.623,-98.9308 346.39,-91.1888 343.141,-97.389"/>
</g>
<!-- Node4&#45;&gt;Node6 -->
<g id="edge10" class="edge"><title>Node4&#45;&gt;Node6</title>
<path fill="none" stroke="midnightblue" d="M465.422,-93.2057C484.907,-80.3898 506.373,-66.2714 523.922,-54.7289"/>
<polygon fill="midnightblue" stroke="midnightblue" points="463.352,-90.3777 456.921,-98.7971 467.199,-96.2261 463.352,-90.3777"/>
</g>
<!-- Node7&#45;&gt;Node5 -->
<g id="edge14" class="edge"><title>Node7&#45;&gt;Node5</title>
<path fill="none" stroke="midnightblue" d="M244.817,-89.2865C241.479,-79.9401 237.974,-70.1258 234.811,-61.2718"/>
<polygon fill="midnightblue" stroke="midnightblue" points="241.554,-90.5569 248.213,-98.7971 248.146,-88.2025 241.554,-90.5569"/>
</g>
<!-- Node7&#45;&gt;Node6 -->
<g id="edge18" class="edge"><title>Node7&#45;&gt;Node6</title>
<path fill="none" stroke="midnightblue" d="M336.585,-97.6499C365.696,-88.1249 427.612,-69.7979 479.449,-54.5682"/>
<polygon fill="midnightblue" stroke="midnightblue" points="335.178,-94.4309 326.827,-100.95 337.421,-101.062 335.178,-94.4309"/>
</g>
<!-- Node8 -->
<g id="node16" class="node"><title>Node8</title>
<a xlink:href="../../d7/d6e/_grid_primitive_8cpp.html" target="_top" xlink:title="/home/kavonszadkowski\l/limes&#45;dev/simulation\l/mars/graphics/src/3d\l_objects/GridPrimitive.cpp">
<polygon fill="white" stroke="black" points="313.5,-1 313.5,-61 444.5,-61 444.5,-1 313.5,-1"/>
<text text-anchor="start" x="321.5" y="-48" font-family="Helvetica,sans-Serif" font-size="10.00">/home/kavonszadkowski</text>
<text text-anchor="start" x="321.5" y="-35" font-family="Helvetica,sans-Serif" font-size="10.00">/limes&#45;dev/simulation</text>
<text text-anchor="start" x="321.5" y="-22" font-family="Helvetica,sans-Serif" font-size="10.00">/mars/graphics/src/3d</text>
<text text-anchor="middle" x="379" y="-9" font-family="Helvetica,sans-Serif" font-size="10.00">_objects/GridPrimitive.cpp</text>
</a>
</g>
<!-- Node7&#45;&gt;Node8 -->
<g id="edge16" class="edge"><title>Node7&#45;&gt;Node8</title>
<path fill="none" stroke="midnightblue" d="M304.036,-92.2207C316.53,-82.0169 329.95,-71.0578 341.932,-61.2718"/>
<polygon fill="midnightblue" stroke="midnightblue" points="301.515,-89.7609 295.983,-98.7971 305.942,-95.1826 301.515,-89.7609"/>
</g>
<!-- Node9 -->
<g id="node19" class="node"><title>Node9</title>
<a xlink:href="../../d3/d7e/_o_s_g_draw_item_8cpp.html" target="_top" xlink:title="/home/kavonszadkowski\l/limes&#45;dev/simulation\l/mars/graphics/src/wrapper\l/OSGDrawItem.cpp">
<polygon fill="white" stroke="black" points="-0.5,-1 -0.5,-61 134.5,-61 134.5,-1 -0.5,-1"/>
<text text-anchor="start" x="7.5" y="-48" font-family="Helvetica,sans-Serif" font-size="10.00">/home/kavonszadkowski</text>
<text text-anchor="start" x="7.5" y="-35" font-family="Helvetica,sans-Serif" font-size="10.00">/limes&#45;dev/simulation</text>
<text text-anchor="start" x="7.5" y="-22" font-family="Helvetica,sans-Serif" font-size="10.00">/mars/graphics/src/wrapper</text>
<text text-anchor="middle" x="67" y="-9" font-family="Helvetica,sans-Serif" font-size="10.00">/OSGDrawItem.cpp</text>
</a>
</g>
<!-- Node7&#45;&gt;Node9 -->
<g id="edge20" class="edge"><title>Node7&#45;&gt;Node9</title>
<path fill="none" stroke="midnightblue" d="M191.091,-94.3381C169.774,-83.4577 146.431,-71.543 125.8,-61.0124"/>
<polygon fill="midnightblue" stroke="midnightblue" points="189.591,-97.5019 200.089,-98.9308 192.773,-91.2671 189.591,-97.5019"/>
</g>
<!-- Node10&#45;&gt;Node6 -->
<g id="edge26" class="edge"><title>Node10&#45;&gt;Node6</title>
<path fill="none" stroke="midnightblue" d="M558.827,-88.5002C559.061,-77.0087 559.309,-64.8739 559.516,-54.7289"/>
<polygon fill="midnightblue" stroke="midnightblue" points="555.321,-88.7278 558.616,-98.7971 562.32,-88.8706 555.321,-88.7278"/>
</g>
<!-- Node10&#45;&gt;Node8 -->
<g id="edge24" class="edge"><title>Node10&#45;&gt;Node8</title>
<path fill="none" stroke="midnightblue" d="M493.96,-93.939C474.342,-83.1982 452.943,-71.4827 433.984,-61.1032"/>
<polygon fill="midnightblue" stroke="midnightblue" points="492.381,-97.0648 502.834,-98.7971 495.743,-90.9248 492.381,-97.0648"/>
</g>
<!-- Node11&#45;&gt;Node6 -->
<g id="edge32" class="edge"><title>Node11&#45;&gt;Node6</title>
<path fill="none" stroke="midnightblue" d="M694.822,-94.5219C666.819,-81.3282 635.539,-66.5904 610.163,-54.6345"/>
<polygon fill="midnightblue" stroke="midnightblue" points="693.642,-97.8347 704.18,-98.9308 696.625,-91.5024 693.642,-97.8347"/>
</g>
<!-- Node11&#45;&gt;Node12 -->
<g id="edge34" class="edge"><title>Node11&#45;&gt;Node12</title>
<path fill="none" stroke="midnightblue" d="M839.771,-94.5219C867.235,-81.3282 897.914,-66.5904 922.802,-54.6345"/>
<polygon fill="midnightblue" stroke="midnightblue" points="838.091,-91.4457 830.593,-98.9308 841.123,-97.7554 838.091,-91.4457"/>
</g>
<!-- Node13 -->
<g id="node31" class="node"><title>Node13</title>
<a xlink:href="../../d0/dcf/_qt_osg_mix_graphics_widget_8cpp.html" target="_top" xlink:title="/home/kavonszadkowski\l/limes&#45;dev/simulation\l/mars/graphics/src/QtOsgMixGraphics\lWidget.cpp">
<polygon fill="white" stroke="black" points="676,-1 676,-61 860,-61 860,-1 676,-1"/>
<text text-anchor="start" x="684" y="-48" font-family="Helvetica,sans-Serif" font-size="10.00">/home/kavonszadkowski</text>
<text text-anchor="start" x="684" y="-35" font-family="Helvetica,sans-Serif" font-size="10.00">/limes&#45;dev/simulation</text>
<text text-anchor="start" x="684" y="-22" font-family="Helvetica,sans-Serif" font-size="10.00">/mars/graphics/src/QtOsgMixGraphics</text>
<text text-anchor="middle" x="768" y="-9" font-family="Helvetica,sans-Serif" font-size="10.00">Widget.cpp</text>
</a>
</g>
<!-- Node11&#45;&gt;Node13 -->
<g id="edge36" class="edge"><title>Node11&#45;&gt;Node13</title>
<path fill="none" stroke="midnightblue" d="M768,-88.6956C768,-79.5273 768,-69.9394 768,-61.2718"/>
<polygon fill="midnightblue" stroke="midnightblue" points="764.5,-88.7971 768,-98.7971 771.5,-88.7972 764.5,-88.7971"/>
</g>
</g>
</svg>
