<?xml version="1.0" encoding="UTF-8" standalone="no"?>
<!DOCTYPE svg PUBLIC "-//W3C//DTD SVG 1.1//EN"
 "http://www.w3.org/Graphics/SVG/1.1/DTD/svg11.dtd">
<!-- Generated by graphviz version 2.26.3 (20100126.1600)
 -->
<!-- Title: /home/kavonszadkowski/limes&#45;dev/simulation/mars/graphics/src/3d_objects/PlaneDrawObject.h Pages: 1 -->
<svg width="312pt" height="168pt"
 viewBox="0.00 0.00 312.00 168.00" xmlns="http://www.w3.org/2000/svg" xmlns:xlink="http://www.w3.org/1999/xlink">
<g id="graph1" class="graph" transform="scale(1 1) rotate(0) translate(4 164)">
<title>/home/kavonszadkowski/limes&#45;dev/simulation/mars/graphics/src/3d_objects/PlaneDrawObject.h</title>
<polygon fill="white" stroke="white" points="-4,5 -4,-164 309,-164 309,5 -4,5"/>
<!-- Node1 -->
<g id="node1" class="node"><title>Node1</title>
<polygon fill="#bfbfbf" stroke="black" points="85.5,-99 85.5,-159 226.5,-159 226.5,-99 85.5,-99"/>
<text text-anchor="start" x="93.5" y="-146" font-family="Helvetica,sans-Serif" font-size="10.00">/home/kavonszadkowski</text>
<text text-anchor="start" x="93.5" y="-133" font-family="Helvetica,sans-Serif" font-size="10.00">/limes&#45;dev/simulation</text>
<text text-anchor="start" x="93.5" y="-120" font-family="Helvetica,sans-Serif" font-size="10.00">/mars/graphics/src/3d</text>
<text text-anchor="middle" x="156" y="-107" font-family="Helvetica,sans-Serif" font-size="10.00">_objects/PlaneDrawObject.h</text>
</g>
<!-- Node2 -->
<g id="node3" class="node"><title>Node2</title>
<a xlink:href="../../d8/db3/_plane_draw_object_8cpp.html" target="_top" xlink:title="/home/kavonszadkowski\l/limes&#45;dev/simulation\l/mars/graphics/src/3d\l_objects/PlaneDrawObject.cpp">
<polygon fill="white" stroke="black" points="0,-1 0,-61 152,-61 152,-1 0,-1"/>
<text text-anchor="start" x="8" y="-48" font-family="Helvetica,sans-Serif" font-size="10.00">/home/kavonszadkowski</text>
<text text-anchor="start" x="8" y="-35" font-family="Helvetica,sans-Serif" font-size="10.00">/limes&#45;dev/simulation</text>
<text text-anchor="start" x="8" y="-22" font-family="Helvetica,sans-Serif" font-size="10.00">/mars/graphics/src/3d</text>
<text text-anchor="middle" x="76" y="-9" font-family="Helvetica,sans-Serif" font-size="10.00">_objects/PlaneDrawObject.cpp</text>
</a>
</g>
<!-- Node1&#45;&gt;Node2 -->
<g id="edge2" class="edge"><title>Node1&#45;&gt;Node2</title>
<path fill="none" stroke="midnightblue" d="M124.782,-90.7581C116.797,-80.9758 108.32,-70.5918 100.712,-61.2718"/>
<polygon fill="midnightblue" stroke="midnightblue" points="122.309,-93.2638 131.345,-98.7971 127.732,-88.8372 122.309,-93.2638"/>
</g>
<!-- Node3 -->
<g id="node5" class="node"><title>Node3</title>
<a xlink:href="../../df/d9f/_o_s_g_node_struct_8cpp.html" target="_top" xlink:title="/home/kavonszadkowski\l/limes&#45;dev/simulation\l/mars/graphics/src/wrapper\l/OSGNodeStruct.cpp">
<polygon fill="white" stroke="black" points="169.5,-1 169.5,-61 304.5,-61 304.5,-1 169.5,-1"/>
<text text-anchor="start" x="177.5" y="-48" font-family="Helvetica,sans-Serif" font-size="10.00">/home/kavonszadkowski</text>
<text text-anchor="start" x="177.5" y="-35" font-family="Helvetica,sans-Serif" font-size="10.00">/limes&#45;dev/simulation</text>
<text text-anchor="start" x="177.5" y="-22" font-family="Helvetica,sans-Serif" font-size="10.00">/mars/graphics/src/wrapper</text>
<text text-anchor="middle" x="237" y="-9" font-family="Helvetica,sans-Serif" font-size="10.00">/OSGNodeStruct.cpp</text>
</a>
</g>
<!-- Node1&#45;&gt;Node3 -->
<g id="edge4" class="edge"><title>Node1&#45;&gt;Node3</title>
<path fill="none" stroke="midnightblue" d="M187.366,-91.0514C195.522,-81.1836 204.199,-70.685 211.979,-61.2718"/>
<polygon fill="midnightblue" stroke="midnightblue" points="184.637,-88.8593 180.964,-98.7971 190.032,-93.319 184.637,-88.8593"/>
</g>
</g>
</svg>
