<?xml version="1.0" encoding="UTF-8" standalone="no"?>
<!DOCTYPE svg PUBLIC "-//W3C//DTD SVG 1.1//EN"
 "http://www.w3.org/Graphics/SVG/1.1/DTD/svg11.dtd">
<!-- Generated by graphviz version 2.36.0 (20140111.2315)
 -->
<!-- Title: /media/kavonszadkowski/work/marsdocs/mars/gui/src/dialogs/Dialog_Graphics_Options.cpp Pages: 1 -->
<svg width="874pt" height="198pt"
 viewBox="0.00 0.00 874.00 198.00" xmlns="http://www.w3.org/2000/svg" xmlns:xlink="http://www.w3.org/1999/xlink">
<g id="graph0" class="graph" transform="scale(1 1) rotate(0) translate(4 194)">
<title>/media/kavonszadkowski/work/marsdocs/mars/gui/src/dialogs/Dialog_Graphics_Options.cpp</title>
<polygon fill="white" stroke="none" points="-4,4 -4,-194 870,-194 870,4 -4,4"/>
<!-- Node1 -->
<g id="node1" class="node"><title>Node1</title>
<polygon fill="#bfbfbf" stroke="black" points="483,-137 483,-189 625,-189 625,-137 483,-137"/>
<text text-anchor="start" x="491" y="-177" font-family="Helvetica,sans-Serif" font-size="10.00">/media/kavonszadkowski</text>
<text text-anchor="start" x="491" y="-166" font-family="Helvetica,sans-Serif" font-size="10.00">/work/marsdocs/mars/gui</text>
<text text-anchor="start" x="491" y="-155" font-family="Helvetica,sans-Serif" font-size="10.00">/src/dialogs/Dialog_Graphics</text>
<text text-anchor="middle" x="554" y="-144" font-family="Helvetica,sans-Serif" font-size="10.00">_Options.cpp</text>
</g>
<!-- Node2 -->
<g id="node2" class="node"><title>Node2</title>
<g id="a_node2"><a xlink:href="../../d6/d6d/_dialog___graphics___options_8h.html" target="_top" xlink:title="Dialog_Graphics_Options.h">
<polygon fill="white" stroke="black" points="247,-74.5 247,-93.5 383,-93.5 383,-74.5 247,-74.5"/>
<text text-anchor="middle" x="315" y="-81.5" font-family="Helvetica,sans-Serif" font-size="10.00">Dialog_Graphics_Options.h</text>
</a>
</g>
</g>
<!-- Node1&#45;&gt;Node2 -->
<g id="edge1" class="edge"><title>Node1&#45;&gt;Node2</title>
<path fill="none" stroke="midnightblue" d="M482.939,-139.106C439.607,-125.145 386.047,-107.89 351.233,-96.6734"/>
<polygon fill="midnightblue" stroke="midnightblue" points="352.091,-93.2727 341.499,-93.5374 349.944,-99.9354 352.091,-93.2727"/>
</g>
<!-- Node7 -->
<g id="node7" class="node"><title>Node7</title>
<polygon fill="white" stroke="#bfbfbf" points="401.5,-74.5 401.5,-93.5 546.5,-93.5 546.5,-74.5 401.5,-74.5"/>
<text text-anchor="middle" x="474" y="-81.5" font-family="Helvetica,sans-Serif" font-size="10.00">mars/main_gui/GuiInterface.h</text>
</g>
<!-- Node1&#45;&gt;Node7 -->
<g id="edge6" class="edge"><title>Node1&#45;&gt;Node7</title>
<path fill="none" stroke="midnightblue" d="M527.805,-136.787C515.459,-124.904 501.112,-111.096 490.34,-100.727"/>
<polygon fill="midnightblue" stroke="midnightblue" points="492.523,-97.9707 482.891,-93.5577 487.669,-103.014 492.523,-97.9707"/>
</g>
<!-- Node8 -->
<g id="node8" class="node"><title>Node8</title>
<polygon fill="white" stroke="#bfbfbf" points="565,-69 565,-99 705,-99 705,-69 565,-69"/>
<text text-anchor="start" x="573" y="-87" font-family="Helvetica,sans-Serif" font-size="10.00">mars/interfaces/graphics</text>
<text text-anchor="middle" x="635" y="-76" font-family="Helvetica,sans-Serif" font-size="10.00">/GraphicsCameraInterface.h</text>
</g>
<!-- Node1&#45;&gt;Node8 -->
<g id="edge7" class="edge"><title>Node1&#45;&gt;Node8</title>
<path fill="none" stroke="midnightblue" d="M580.522,-136.787C590.862,-126.959 602.587,-115.813 612.503,-106.386"/>
<polygon fill="midnightblue" stroke="midnightblue" points="615.171,-108.679 620.008,-99.252 610.348,-103.605 615.171,-108.679"/>
</g>
<!-- Node9 -->
<g id="node9" class="node"><title>Node9</title>
<polygon fill="white" stroke="#bfbfbf" points="723.5,-69 723.5,-99 866.5,-99 866.5,-69 723.5,-69"/>
<text text-anchor="start" x="731.5" y="-87" font-family="Helvetica,sans-Serif" font-size="10.00">mars/interfaces/graphics</text>
<text text-anchor="middle" x="795" y="-76" font-family="Helvetica,sans-Serif" font-size="10.00">/GraphicsManagerInterface.h</text>
</g>
<!-- Node1&#45;&gt;Node9 -->
<g id="edge8" class="edge"><title>Node1&#45;&gt;Node9</title>
<path fill="none" stroke="midnightblue" d="M625.004,-139.314C662.158,-127.443 706.909,-113.145 741.168,-102.199"/>
<polygon fill="midnightblue" stroke="midnightblue" points="742.529,-105.439 750.99,-99.0614 740.399,-98.771 742.529,-105.439"/>
</g>
<!-- Node3 -->
<g id="node3" class="node"><title>Node3</title>
<polygon fill="white" stroke="#bfbfbf" points="-0.5,-6.5 -0.5,-25.5 144.5,-25.5 144.5,-6.5 -0.5,-6.5"/>
<text text-anchor="middle" x="72" y="-13.5" font-family="Helvetica,sans-Serif" font-size="10.00">mars/main_gui/BaseWidget.h</text>
</g>
<!-- Node2&#45;&gt;Node3 -->
<g id="edge2" class="edge"><title>Node2&#45;&gt;Node3</title>
<path fill="none" stroke="midnightblue" d="M283.232,-74.3717C239.634,-62.5301 161.207,-41.2291 113.159,-28.179"/>
<polygon fill="midnightblue" stroke="midnightblue" points="113.959,-24.7694 103.391,-25.5259 112.124,-31.5247 113.959,-24.7694"/>
</g>
<!-- Node4 -->
<g id="node4" class="node"><title>Node4</title>
<polygon fill="white" stroke="#bfbfbf" points="163,-6.5 163,-25.5 319,-25.5 319,-6.5 163,-6.5"/>
<text text-anchor="middle" x="241" y="-13.5" font-family="Helvetica,sans-Serif" font-size="10.00">mars/main_gui/PropertyDialog.h</text>
</g>
<!-- Node2&#45;&gt;Node4 -->
<g id="edge3" class="edge"><title>Node2&#45;&gt;Node4</title>
<path fill="none" stroke="midnightblue" d="M305.326,-74.3717C293.536,-63.8564 273.383,-45.8819 258.771,-32.8496"/>
<polygon fill="midnightblue" stroke="midnightblue" points="260.705,-29.8853 250.913,-25.8411 256.046,-35.1093 260.705,-29.8853"/>
</g>
<!-- Node5 -->
<g id="node5" class="node"><title>Node5</title>
<polygon fill="white" stroke="#bfbfbf" points="337.5,-1 337.5,-31 440.5,-31 440.5,-1 337.5,-1"/>
<text text-anchor="start" x="345.5" y="-19" font-family="Helvetica,sans-Serif" font-size="10.00">mars/interfaces/sim</text>
<text text-anchor="middle" x="389" y="-8" font-family="Helvetica,sans-Serif" font-size="10.00">/ControlCenter.h</text>
</g>
<!-- Node2&#45;&gt;Node5 -->
<g id="edge4" class="edge"><title>Node2&#45;&gt;Node5</title>
<path fill="none" stroke="midnightblue" d="M324.674,-74.3717C334.958,-65.2 351.604,-50.3536 365.386,-38.0615"/>
<polygon fill="midnightblue" stroke="midnightblue" points="367.966,-40.4497 373.1,-31.1815 363.307,-35.2256 367.966,-40.4497"/>
</g>
<!-- Node6 -->
<g id="node6" class="node"><title>Node6</title>
<polygon fill="white" stroke="#bfbfbf" points="459,-6.5 459,-25.5 609,-25.5 609,-6.5 459,-6.5"/>
<text text-anchor="middle" x="534" y="-13.5" font-family="Helvetica,sans-Serif" font-size="10.00">mars/interfaces/GraphicData.h</text>
</g>
<!-- Node2&#45;&gt;Node6 -->
<g id="edge5" class="edge"><title>Node2&#45;&gt;Node6</title>
<path fill="none" stroke="midnightblue" d="M343.63,-74.3717C382.676,-62.6045 452.718,-41.4961 496.087,-28.4257"/>
<polygon fill="midnightblue" stroke="midnightblue" points="497.145,-31.7626 505.71,-25.5259 495.125,-25.0603 497.145,-31.7626"/>
</g>
</g>
</svg>
