<?xml version="1.0" encoding="UTF-8" standalone="no"?>
<!DOCTYPE svg PUBLIC "-//W3C//DTD SVG 1.1//EN"
 "http://www.w3.org/Graphics/SVG/1.1/DTD/svg11.dtd">
<!-- Generated by graphviz version 2.36.0 (20140111.2315)
 -->
<!-- Title: mars::smurf::SMURFLoader Pages: 1 -->
<svg width="150pt" height="152pt"
 viewBox="0.00 0.00 150.00 152.00" xmlns="http://www.w3.org/2000/svg" xmlns:xlink="http://www.w3.org/1999/xlink">
<g id="graph0" class="graph" transform="scale(1 1) rotate(0) translate(4 148)">
<title>mars::smurf::SMURFLoader</title>
<polygon fill="white" stroke="none" points="-4,4 -4,-148 146,-148 146,4 -4,4"/>
<!-- Node1 -->
<g id="node1" class="node"><title>Node1</title>
<polygon fill="#bfbfbf" stroke="black" points="1,-0.5 1,-19.5 141,-19.5 141,-0.5 1,-0.5"/>
<text text-anchor="middle" x="71" y="-7.5" font-family="Helvetica,sans-Serif" font-size="10.00">mars::smurf::SMURFLoader</text>
</g>
<!-- Node2 -->
<g id="node2" class="node"><title>Node2</title>
<g id="a_node2"><a xlink:href="../../d3/d03/classmars_1_1interfaces_1_1_load_scene_interface.html" target="_top" xlink:title="mars::interfaces::LoadScene\lInterface">
<polygon fill="white" stroke="black" points="0,-57 0,-87 142,-87 142,-57 0,-57"/>
<text text-anchor="start" x="8" y="-75" font-family="Helvetica,sans-Serif" font-size="10.00">mars::interfaces::LoadScene</text>
<text text-anchor="middle" x="71" y="-64" font-family="Helvetica,sans-Serif" font-size="10.00">Interface</text>
</a>
</g>
</g>
<!-- Node2&#45;&gt;Node1 -->
<g id="edge1" class="edge"><title>Node2&#45;&gt;Node1</title>
<path fill="none" stroke="midnightblue" d="M71,-46.5858C71,-37.0743 71,-26.7864 71,-19.7305"/>
<polygon fill="midnightblue" stroke="midnightblue" points="67.5001,-46.7808 71,-56.7808 74.5001,-46.7809 67.5001,-46.7808"/>
</g>
<!-- Node3 -->
<g id="node3" class="node"><title>Node3</title>
<polygon fill="white" stroke="#bfbfbf" points="37,-124.5 37,-143.5 105,-143.5 105,-124.5 37,-124.5"/>
<text text-anchor="middle" x="71" y="-131.5" font-family="Helvetica,sans-Serif" font-size="10.00">LibInterface</text>
</g>
<!-- Node3&#45;&gt;Node2 -->
<g id="edge2" class="edge"><title>Node3&#45;&gt;Node2</title>
<path fill="none" stroke="midnightblue" d="M71,-114.371C71,-105.585 71,-95.2721 71,-87.1408"/>
<polygon fill="midnightblue" stroke="midnightblue" points="67.5001,-114.403 71,-124.403 74.5001,-114.403 67.5001,-114.403"/>
</g>
</g>
</svg>
