<?xml version="1.0" encoding="UTF-8" standalone="no"?>
<!DOCTYPE svg PUBLIC "-//W3C//DTD SVG 1.1//EN"
 "http://www.w3.org/Graphics/SVG/1.1/DTD/svg11.dtd">
<!-- Generated by graphviz version 2.26.3 (20100126.1600)
 -->
<!-- Title: mars::smurf::SMURFLoader Pages: 1 -->
<svg width="150pt" height="160pt"
 viewBox="0.00 0.00 150.00 160.00" xmlns="http://www.w3.org/2000/svg" xmlns:xlink="http://www.w3.org/1999/xlink">
<g id="graph1" class="graph" transform="scale(1 1) rotate(0) translate(4 156)">
<title>mars::smurf::SMURFLoader</title>
<polygon fill="white" stroke="white" points="-4,5 -4,-156 147,-156 147,5 -4,5"/>
<!-- Node1 -->
<g id="node1" class="node"><title>Node1</title>
<polygon fill="#bfbfbf" stroke="black" points="1,-0.5 1,-21.5 141,-21.5 141,-0.5 1,-0.5"/>
<text text-anchor="middle" x="71" y="-8.5" font-family="Helvetica,sans-Serif" font-size="10.00">mars::smurf::SMURFLoader</text>
</g>
<!-- Node2 -->
<g id="node2" class="node"><title>Node2</title>
<a xlink:href="../../d3/d03/classmars_1_1interfaces_1_1_load_scene_interface.html" target="_top" xlink:title="mars::interfaces::LoadScene\lInterface">
<polygon fill="white" stroke="black" points="0,-59 0,-93 142,-93 142,-59 0,-59"/>
<text text-anchor="start" x="8" y="-80" font-family="Helvetica,sans-Serif" font-size="10.00">mars::interfaces::LoadScene</text>
<text text-anchor="middle" x="71" y="-67" font-family="Helvetica,sans-Serif" font-size="10.00">Interface</text>
</a>
</g>
<!-- Node2&#45;&gt;Node1 -->
<g id="edge2" class="edge"><title>Node2&#45;&gt;Node1</title>
<path fill="none" stroke="midnightblue" d="M71,-48.6879C71,-39.2415 71,-29.1949 71,-21.8521"/>
<polygon fill="midnightblue" stroke="midnightblue" points="67.5001,-48.922 71,-58.922 74.5001,-48.922 67.5001,-48.922"/>
</g>
<!-- Node3 -->
<g id="node4" class="node"><title>Node3</title>
<polygon fill="white" stroke="#bfbfbf" points="37,-130.5 37,-151.5 105,-151.5 105,-130.5 37,-130.5"/>
<text text-anchor="middle" x="71" y="-138.5" font-family="Helvetica,sans-Serif" font-size="10.00">LibInterface</text>
</g>
<!-- Node3&#45;&gt;Node2 -->
<g id="edge4" class="edge"><title>Node3&#45;&gt;Node2</title>
<path fill="none" stroke="midnightblue" d="M71,-120.131C71,-111.405 71,-101.391 71,-93.1099"/>
<polygon fill="midnightblue" stroke="midnightblue" points="67.5001,-120.267 71,-130.267 74.5001,-120.267 67.5001,-120.267"/>
</g>
</g>
</svg>
