<?xml version="1.0" encoding="UTF-8" standalone="no"?>
<!DOCTYPE svg PUBLIC "-//W3C//DTD SVG 1.1//EN"
 "http://www.w3.org/Graphics/SVG/1.1/DTD/svg11.dtd">
<!-- Generated by graphviz version 2.36.0 (20140111.2315)
 -->
<!-- Title: mars::data_broker_gui::DataItemWrapper Pages: 1 -->
<svg width="120pt" height="130pt"
 viewBox="0.00 0.00 120.00 130.00" xmlns="http://www.w3.org/2000/svg" xmlns:xlink="http://www.w3.org/1999/xlink">
<g id="graph0" class="graph" transform="scale(1 1) rotate(0) translate(4 126)">
<title>mars::data_broker_gui::DataItemWrapper</title>
<polygon fill="white" stroke="none" points="-4,4 -4,-126 116,-126 116,4 -4,4"/>
<!-- Node1 -->
<g id="node1" class="node"><title>Node1</title>
<polygon fill="#bfbfbf" stroke="black" points="-0.5,-1 -0.5,-31 112.5,-31 112.5,-1 -0.5,-1"/>
<text text-anchor="start" x="7.5" y="-19" font-family="Helvetica,sans-Serif" font-size="10.00">mars::data_broker_gui</text>
<text text-anchor="middle" x="56" y="-8" font-family="Helvetica,sans-Serif" font-size="10.00">::DataItemWrapper</text>
</g>
<!-- Node2 -->
<g id="node2" class="node"><title>Node2</title>
<polygon fill="white" stroke="#bfbfbf" points="35.5,-102.5 35.5,-121.5 76.5,-121.5 76.5,-102.5 35.5,-102.5"/>
<text text-anchor="middle" x="56" y="-109.5" font-family="Helvetica,sans-Serif" font-size="10.00">string</text>
</g>
<!-- Node2&#45;&gt;Node1 -->
<g id="edge1" class="edge"><title>Node2&#45;&gt;Node1</title>
<path fill="none" stroke="#9a32cd" stroke-dasharray="5,2" d="M56,-92.1742C56,-74.1467 56,-47.3541 56,-31.0982"/>
<polygon fill="#9a32cd" stroke="#9a32cd" points="52.5001,-92.3252 56,-102.325 59.5001,-92.3252 52.5001,-92.3252"/>
<text text-anchor="middle" x="83" y="-75.5" font-family="Helvetica,sans-Serif" font-size="10.00"> groupName</text>
<text text-anchor="middle" x="83" y="-64.5" font-family="Helvetica,sans-Serif" font-size="10.00">dataName</text>
<text text-anchor="middle" x="83" y="-53.5" font-family="Helvetica,sans-Serif" font-size="10.00">itemName</text>
</g>
</g>
</svg>
