<?xml version="1.0" encoding="UTF-8" standalone="no"?>
<!DOCTYPE svg PUBLIC "-//W3C//DTD SVG 1.1//EN"
 "http://www.w3.org/Graphics/SVG/1.1/DTD/svg11.dtd">
<!-- Generated by graphviz version 2.26.3 (20100126.1600)
 -->
<!-- Title: /home/kavonszadkowski/limes&#45;dev/simulation/mars/interfaces/src/MotorData.cpp Pages: 1 -->
<svg width="400pt" height="172pt"
 viewBox="0.00 0.00 400.00 172.00" xmlns="http://www.w3.org/2000/svg" xmlns:xlink="http://www.w3.org/1999/xlink">
<g id="graph1" class="graph" transform="scale(1 1) rotate(0) translate(4 168)">
<title>/home/kavonszadkowski/limes&#45;dev/simulation/mars/interfaces/src/MotorData.cpp</title>
<polygon fill="white" stroke="white" points="-4,5 -4,-168 397,-168 397,5 -4,5"/>
<!-- Node1 -->
<g id="node1" class="node"><title>Node1</title>
<polygon fill="#bfbfbf" stroke="black" points="122.5,-116.5 122.5,-163.5 293.5,-163.5 293.5,-116.5 122.5,-116.5"/>
<text text-anchor="start" x="130.5" y="-150.5" font-family="Helvetica,sans-Serif" font-size="10.00">/home/kavonszadkowski</text>
<text text-anchor="start" x="130.5" y="-137.5" font-family="Helvetica,sans-Serif" font-size="10.00">/limes&#45;dev/simulation</text>
<text text-anchor="middle" x="208" y="-124.5" font-family="Helvetica,sans-Serif" font-size="10.00">/mars/interfaces/src/MotorData.cpp</text>
</g>
<!-- Node2 -->
<g id="node3" class="node"><title>Node2</title>
<a xlink:href="../../d7/dde/_motor_data_8h.html" target="_top" xlink:title="MotorData.h">
<polygon fill="white" stroke="black" points="121.5,-58.5 121.5,-79.5 192.5,-79.5 192.5,-58.5 121.5,-58.5"/>
<text text-anchor="middle" x="157" y="-66.5" font-family="Helvetica,sans-Serif" font-size="10.00">MotorData.h</text>
</a>
</g>
<!-- Node1&#45;&gt;Node2 -->
<g id="edge2" class="edge"><title>Node1&#45;&gt;Node2</title>
<path fill="none" stroke="midnightblue" d="M191.018,-116.358C184.394,-107.137 176.904,-96.7092 170.641,-87.9908"/>
<polygon fill="midnightblue" stroke="midnightblue" points="173.324,-85.7262 164.647,-79.6462 167.639,-89.81 173.324,-85.7262"/>
</g>
<!-- Node6 -->
<g id="node11" class="node"><title>Node6</title>
<a xlink:href="../../d5/d36/_load_center_8h.html" target="_top" xlink:title="sim/LoadCenter.h">
<polygon fill="white" stroke="black" points="238,-58.5 238,-79.5 332,-79.5 332,-58.5 238,-58.5"/>
<text text-anchor="middle" x="285" y="-66.5" font-family="Helvetica,sans-Serif" font-size="10.00">sim/LoadCenter.h</text>
</a>
</g>
<!-- Node1&#45;&gt;Node6 -->
<g id="edge10" class="edge"><title>Node1&#45;&gt;Node6</title>
<path fill="none" stroke="midnightblue" d="M233.64,-116.358C244.167,-106.651 256.143,-95.6082 265.881,-86.6289"/>
<polygon fill="midnightblue" stroke="midnightblue" points="268.475,-88.9982 273.454,-79.6462 263.73,-83.852 268.475,-88.9982"/>
</g>
<!-- Node3 -->
<g id="node5" class="node"><title>Node3</title>
<polygon fill="white" stroke="#bfbfbf" points="237.5,-0.5 237.5,-21.5 278.5,-21.5 278.5,-0.5 237.5,-0.5"/>
<text text-anchor="middle" x="258" y="-8.5" font-family="Helvetica,sans-Serif" font-size="10.00">string</text>
</g>
<!-- Node2&#45;&gt;Node3 -->
<g id="edge4" class="edge"><title>Node2&#45;&gt;Node3</title>
<path fill="none" stroke="midnightblue" d="M175.525,-58.3619C190.901,-49.532 212.996,-36.844 230.447,-26.8224"/>
<polygon fill="midnightblue" stroke="midnightblue" points="232.664,-29.5857 239.592,-21.5707 229.178,-23.5154 232.664,-29.5857"/>
</g>
<!-- Node4 -->
<g id="node7" class="node"><title>Node4</title>
<a xlink:href="../../dd/d9e/_m_a_r_s_defs_8h.html" target="_top" xlink:title="MARSDefs.h">
<polygon fill="white" stroke="black" points="-0.5,-0.5 -0.5,-21.5 74.5,-21.5 74.5,-0.5 -0.5,-0.5"/>
<text text-anchor="middle" x="37" y="-8.5" font-family="Helvetica,sans-Serif" font-size="10.00">MARSDefs.h</text>
</a>
</g>
<!-- Node2&#45;&gt;Node4 -->
<g id="edge6" class="edge"><title>Node2&#45;&gt;Node4</title>
<path fill="none" stroke="midnightblue" d="M135.269,-58.4966C116.526,-49.4378 89.2335,-36.2462 68.1643,-26.0628"/>
<polygon fill="midnightblue" stroke="midnightblue" points="69.5015,-22.8217 58.9749,-21.6212 66.4553,-29.1242 69.5015,-22.8217"/>
</g>
<!-- Node5 -->
<g id="node9" class="node"><title>Node5</title>
<polygon fill="white" stroke="#bfbfbf" points="92,-0.5 92,-21.5 220,-21.5 220,-0.5 92,-0.5"/>
<text text-anchor="middle" x="156" y="-8.5" font-family="Helvetica,sans-Serif" font-size="10.00">configmaps/ConfigData.h</text>
</g>
<!-- Node2&#45;&gt;Node5 -->
<g id="edge8" class="edge"><title>Node2&#45;&gt;Node5</title>
<path fill="none" stroke="midnightblue" d="M156.817,-58.3619C156.688,-50.9219 156.513,-40.7427 156.357,-31.7276"/>
<polygon fill="midnightblue" stroke="midnightblue" points="159.854,-31.5088 156.182,-21.5707 152.855,-31.6295 159.854,-31.5088"/>
</g>
<!-- Node6&#45;&gt;Node3 -->
<g id="edge14" class="edge"><title>Node6&#45;&gt;Node3</title>
<path fill="none" stroke="midnightblue" d="M280.048,-58.3619C276.47,-50.6766 271.532,-40.0686 267.236,-30.8399"/>
<polygon fill="midnightblue" stroke="midnightblue" points="270.314,-29.1594 262.921,-21.5707 263.968,-32.1136 270.314,-29.1594"/>
</g>
<!-- Node7 -->
<g id="node13" class="node"><title>Node7</title>
<polygon fill="white" stroke="#bfbfbf" points="295.5,-0.5 295.5,-21.5 330.5,-21.5 330.5,-0.5 295.5,-0.5"/>
<text text-anchor="middle" x="313" y="-8.5" font-family="Helvetica,sans-Serif" font-size="10.00">map</text>
</g>
<!-- Node6&#45;&gt;Node7 -->
<g id="edge12" class="edge"><title>Node6&#45;&gt;Node7</title>
<path fill="none" stroke="midnightblue" d="M290.136,-58.3619C293.846,-50.6766 298.967,-40.0686 303.422,-30.8399"/>
<polygon fill="midnightblue" stroke="midnightblue" points="306.701,-32.0978 307.897,-21.5707 300.397,-29.0545 306.701,-32.0978"/>
</g>
<!-- Node8 -->
<g id="node16" class="node"><title>Node8</title>
<polygon fill="white" stroke="#bfbfbf" points="348,-0.5 348,-21.5 392,-21.5 392,-0.5 348,-0.5"/>
<text text-anchor="middle" x="370" y="-8.5" font-family="Helvetica,sans-Serif" font-size="10.00">vector</text>
</g>
<!-- Node6&#45;&gt;Node8 -->
<g id="edge16" class="edge"><title>Node6&#45;&gt;Node8</title>
<path fill="none" stroke="midnightblue" d="M300.59,-58.3619C313.291,-49.6955 331.438,-37.3126 345.992,-27.3819"/>
<polygon fill="midnightblue" stroke="midnightblue" points="348.221,-30.0982 354.509,-21.5707 344.276,-24.316 348.221,-30.0982"/>
</g>
</g>
</svg>
