<?xml version="1.0" encoding="UTF-8" standalone="no"?>
<!DOCTYPE svg PUBLIC "-//W3C//DTD SVG 1.1//EN"
 "http://www.w3.org/Graphics/SVG/1.1/DTD/svg11.dtd">
<!-- Generated by graphviz version 2.36.0 (20140111.2315)
 -->
<!-- Title: /media/kavonszadkowski/work/marsdocs/mars/interfaces/src/MotorData.cpp Pages: 1 -->
<svg width="404pt" height="162pt"
 viewBox="0.00 0.00 404.00 162.00" xmlns="http://www.w3.org/2000/svg" xmlns:xlink="http://www.w3.org/1999/xlink">
<g id="graph0" class="graph" transform="scale(1 1) rotate(0) translate(4 158)">
<title>/media/kavonszadkowski/work/marsdocs/mars/interfaces/src/MotorData.cpp</title>
<polygon fill="white" stroke="none" points="-4,4 -4,-158 400,-158 400,4 -4,4"/>
<!-- Node1 -->
<g id="node1" class="node"><title>Node1</title>
<polygon fill="#bfbfbf" stroke="black" points="130.5,-112.5 130.5,-153.5 287.5,-153.5 287.5,-112.5 130.5,-112.5"/>
<text text-anchor="start" x="138.5" y="-141.5" font-family="Helvetica,sans-Serif" font-size="10.00">/media/kavonszadkowski</text>
<text text-anchor="start" x="138.5" y="-130.5" font-family="Helvetica,sans-Serif" font-size="10.00">/work/marsdocs/mars/interfaces</text>
<text text-anchor="middle" x="209" y="-119.5" font-family="Helvetica,sans-Serif" font-size="10.00">/src/MotorData.cpp</text>
</g>
<!-- Node2 -->
<g id="node2" class="node"><title>Node2</title>
<g id="a_node2"><a xlink:href="../../d7/dde/_motor_data_8h.html" target="_top" xlink:title="MotorData.h">
<polygon fill="white" stroke="black" points="122.5,-56.5 122.5,-75.5 193.5,-75.5 193.5,-56.5 122.5,-56.5"/>
<text text-anchor="middle" x="158" y="-63.5" font-family="Helvetica,sans-Serif" font-size="10.00">MotorData.h</text>
</a>
</g>
</g>
<!-- Node1&#45;&gt;Node2 -->
<g id="edge1" class="edge"><title>Node1&#45;&gt;Node2</title>
<path fill="none" stroke="midnightblue" d="M193.698,-112.498C186.481,-103.299 177.958,-92.4362 171.05,-83.6323"/>
<polygon fill="midnightblue" stroke="midnightblue" points="173.715,-81.3594 164.789,-75.6525 168.208,-85.6804 173.715,-81.3594"/>
</g>
<!-- Node6 -->
<g id="node6" class="node"><title>Node6</title>
<g id="a_node6"><a xlink:href="../../d5/d36/_load_center_8h.html" target="_top" xlink:title="sim/LoadCenter.h">
<polygon fill="white" stroke="black" points="241,-56.5 241,-75.5 335,-75.5 335,-56.5 241,-56.5"/>
<text text-anchor="middle" x="288" y="-63.5" font-family="Helvetica,sans-Serif" font-size="10.00">sim/LoadCenter.h</text>
</a>
</g>
</g>
<!-- Node1&#45;&gt;Node6 -->
<g id="edge5" class="edge"><title>Node1&#45;&gt;Node6</title>
<path fill="none" stroke="midnightblue" d="M232.703,-112.498C244.582,-102.724 258.743,-91.0719 269.761,-82.0066"/>
<polygon fill="midnightblue" stroke="midnightblue" points="271.986,-84.7089 277.484,-75.6525 267.538,-79.3034 271.986,-84.7089"/>
</g>
<!-- Node3 -->
<g id="node3" class="node"><title>Node3</title>
<polygon fill="white" stroke="#bfbfbf" points="239.5,-0.5 239.5,-19.5 280.5,-19.5 280.5,-0.5 239.5,-0.5"/>
<text text-anchor="middle" x="260" y="-7.5" font-family="Helvetica,sans-Serif" font-size="10.00">string</text>
</g>
<!-- Node2&#45;&gt;Node3 -->
<g id="edge2" class="edge"><title>Node2&#45;&gt;Node3</title>
<path fill="none" stroke="midnightblue" d="M174.388,-56.324C190.671,-47.7034 215.867,-34.3643 234.716,-24.3855"/>
<polygon fill="midnightblue" stroke="midnightblue" points="236.452,-27.4267 243.653,-19.6545 233.177,-21.2402 236.452,-27.4267"/>
</g>
<!-- Node4 -->
<g id="node4" class="node"><title>Node4</title>
<g id="a_node4"><a xlink:href="../../dd/d9e/_m_a_r_s_defs_8h.html" target="_top" xlink:title="MARSDefs.h">
<polygon fill="white" stroke="black" points="-0.5,-0.5 -0.5,-19.5 74.5,-19.5 74.5,-0.5 -0.5,-0.5"/>
<text text-anchor="middle" x="37" y="-7.5" font-family="Helvetica,sans-Serif" font-size="10.00">MARSDefs.h</text>
</a>
</g>
</g>
<!-- Node2&#45;&gt;Node4 -->
<g id="edge3" class="edge"><title>Node2&#45;&gt;Node4</title>
<path fill="none" stroke="midnightblue" d="M138.827,-56.4435C119.091,-47.6356 88.1148,-33.8116 65.5066,-23.722"/>
<polygon fill="midnightblue" stroke="midnightblue" points="66.6414,-20.3957 56.0831,-19.5164 63.7886,-26.788 66.6414,-20.3957"/>
</g>
<!-- Node5 -->
<g id="node5" class="node"><title>Node5</title>
<polygon fill="white" stroke="#bfbfbf" points="93,-0.5 93,-19.5 221,-19.5 221,-0.5 93,-0.5"/>
<text text-anchor="middle" x="157" y="-7.5" font-family="Helvetica,sans-Serif" font-size="10.00">configmaps/ConfigData.h</text>
</g>
<!-- Node2&#45;&gt;Node5 -->
<g id="edge4" class="edge"><title>Node2&#45;&gt;Node5</title>
<path fill="none" stroke="midnightblue" d="M157.835,-56.083C157.704,-49.0059 157.516,-38.8611 157.352,-29.9865"/>
<polygon fill="midnightblue" stroke="midnightblue" points="160.847,-29.6845 157.162,-19.7511 153.848,-29.8142 160.847,-29.6845"/>
</g>
<!-- Node6&#45;&gt;Node3 -->
<g id="edge7" class="edge"><title>Node6&#45;&gt;Node3</title>
<path fill="none" stroke="midnightblue" d="M283.376,-56.083C279.544,-48.6913 273.976,-37.9533 269.235,-28.8111"/>
<polygon fill="midnightblue" stroke="midnightblue" points="272.248,-27.0175 264.538,-19.7511 266.034,-30.2398 272.248,-27.0175"/>
</g>
<!-- Node7 -->
<g id="node7" class="node"><title>Node7</title>
<polygon fill="white" stroke="#bfbfbf" points="298.5,-0.5 298.5,-19.5 333.5,-19.5 333.5,-0.5 298.5,-0.5"/>
<text text-anchor="middle" x="316" y="-7.5" font-family="Helvetica,sans-Serif" font-size="10.00">map</text>
</g>
<!-- Node6&#45;&gt;Node7 -->
<g id="edge6" class="edge"><title>Node6&#45;&gt;Node7</title>
<path fill="none" stroke="midnightblue" d="M292.624,-56.083C296.456,-48.6913 302.024,-37.9533 306.765,-28.8111"/>
<polygon fill="midnightblue" stroke="midnightblue" points="309.966,-30.2398 311.462,-19.7511 303.752,-27.0175 309.966,-30.2398"/>
</g>
<!-- Node8 -->
<g id="node8" class="node"><title>Node8</title>
<polygon fill="white" stroke="#bfbfbf" points="352,-0.5 352,-19.5 396,-19.5 396,-0.5 352,-0.5"/>
<text text-anchor="middle" x="374" y="-7.5" font-family="Helvetica,sans-Serif" font-size="10.00">vector</text>
</g>
<!-- Node6&#45;&gt;Node8 -->
<g id="edge8" class="edge"><title>Node6&#45;&gt;Node8</title>
<path fill="none" stroke="midnightblue" d="M301.817,-56.324C315.233,-47.9002 335.824,-34.9709 351.586,-25.0741"/>
<polygon fill="midnightblue" stroke="midnightblue" points="353.609,-27.9364 360.217,-19.6545 349.887,-22.0081 353.609,-27.9364"/>
</g>
</g>
</svg>
