<?xml version="1.0" encoding="UTF-8" standalone="no"?>
<!DOCTYPE svg PUBLIC "-//W3C//DTD SVG 1.1//EN"
 "http://www.w3.org/Graphics/SVG/1.1/DTD/svg11.dtd">
<!-- Generated by graphviz version 2.36.0 (20140111.2315)
 -->
<!-- Title: /media/kavonszadkowski/work/marsdocs/mars/interfaces/src/sim/MarsPluginTemplateGUI.h Pages: 1 -->
<svg width="1828pt" height="298pt"
 viewBox="0.00 0.00 1828.00 298.00" xmlns="http://www.w3.org/2000/svg" xmlns:xlink="http://www.w3.org/1999/xlink">
<g id="graph0" class="graph" transform="scale(1 1) rotate(0) translate(4 294)">
<title>/media/kavonszadkowski/work/marsdocs/mars/interfaces/src/sim/MarsPluginTemplateGUI.h</title>
<polygon fill="white" stroke="none" points="-4,4 -4,-294 1824,-294 1824,4 -4,4"/>
<!-- Node1 -->
<g id="node1" class="node"><title>Node1</title>
<polygon fill="#bfbfbf" stroke="black" points="1206,-248.5 1206,-289.5 1376,-289.5 1376,-248.5 1206,-248.5"/>
<text text-anchor="start" x="1214" y="-277.5" font-family="Helvetica,sans-Serif" font-size="10.00">/media/kavonszadkowski</text>
<text text-anchor="start" x="1214" y="-266.5" font-family="Helvetica,sans-Serif" font-size="10.00">/work/marsdocs/mars/interfaces</text>
<text text-anchor="middle" x="1291" y="-255.5" font-family="Helvetica,sans-Serif" font-size="10.00">/src/sim/MarsPluginTemplateGUI.h</text>
</g>
<!-- Node2 -->
<g id="node2" class="node"><title>Node2</title>
<g id="a_node2"><a xlink:href="../../d8/dbb/_control_center_8h.html" target="_top" xlink:title="&quot;ControlCenter&quot; contains the instances of all modules of the simulation. The modules are connected vi...">
<polygon fill="white" stroke="black" points="63,-186.5 63,-205.5 149,-205.5 149,-186.5 63,-186.5"/>
<text text-anchor="middle" x="106" y="-193.5" font-family="Helvetica,sans-Serif" font-size="10.00">ControlCenter.h</text>
</a>
</g>
</g>
<!-- Node1&#45;&gt;Node2 -->
<g id="edge1" class="edge"><title>Node1&#45;&gt;Node2</title>
<path fill="none" stroke="midnightblue" d="M1205.78,-268.205C1018.86,-267.671 559.151,-260.991 178,-212 169.353,-210.889 160.196,-209.303 151.417,-207.575"/>
<polygon fill="midnightblue" stroke="midnightblue" points="151.838,-204.088 141.338,-205.501 150.427,-210.945 151.838,-204.088"/>
</g>
<!-- Node6 -->
<g id="node6" class="node"><title>Node6</title>
<g id="a_node6"><a xlink:href="../../dd/d9e/_m_a_r_s_defs_8h.html" target="_top" xlink:title="../MARSDefs.h">
<polygon fill="white" stroke="black" points="365,-0.5 365,-19.5 449,-19.5 449,-0.5 365,-0.5"/>
<text text-anchor="middle" x="407" y="-7.5" font-family="Helvetica,sans-Serif" font-size="10.00">../MARSDefs.h</text>
</a>
</g>
</g>
<!-- Node1&#45;&gt;Node6 -->
<g id="edge5" class="edge"><title>Node1&#45;&gt;Node6</title>
<path fill="none" stroke="midnightblue" d="M1205.72,-267.248C976.891,-263.209 358.484,-238.327 238,-88 202.998,-44.3278 293.167,-24.4782 354.85,-16.224"/>
<polygon fill="midnightblue" stroke="midnightblue" points="355.382,-19.6847 364.86,-14.9512 354.499,-12.7406 355.382,-19.6847"/>
</g>
<!-- Node7 -->
<g id="node7" class="node"><title>Node7</title>
<g id="a_node7"><a xlink:href="../../d4/d1e/_plugin_interface_8h.html" target="_top" xlink:title="&quot;PluginInterface&quot; is an interface to load dynamically Plugin into the simulation ">
<polygon fill="white" stroke="black" points="1312,-124.5 1312,-143.5 1402,-143.5 1402,-124.5 1312,-124.5"/>
<text text-anchor="middle" x="1357" y="-131.5" font-family="Helvetica,sans-Serif" font-size="10.00">PluginInterface.h</text>
</a>
</g>
</g>
<!-- Node1&#45;&gt;Node7 -->
<g id="edge6" class="edge"><title>Node1&#45;&gt;Node7</title>
<path fill="none" stroke="midnightblue" d="M1298.49,-248.387C1305.63,-230.293 1317.04,-202.854 1329,-180 1333.96,-170.523 1340.19,-160.373 1345.51,-152.117"/>
<polygon fill="midnightblue" stroke="midnightblue" points="1348.45,-154.014 1351.02,-143.735 1342.6,-150.169 1348.45,-154.014"/>
</g>
<!-- Node9 -->
<g id="node9" class="node"><title>Node9</title>
<polygon fill="white" stroke="#bfbfbf" points="1343.5,-62.5 1343.5,-81.5 1384.5,-81.5 1384.5,-62.5 1343.5,-62.5"/>
<text text-anchor="middle" x="1364" y="-69.5" font-family="Helvetica,sans-Serif" font-size="10.00">string</text>
</g>
<!-- Node1&#45;&gt;Node9 -->
<g id="edge44" class="edge"><title>Node1&#45;&gt;Node9</title>
<path fill="none" stroke="midnightblue" d="M1288.04,-248.058C1284.72,-218.988 1282.2,-164.078 1303,-124 1311.06,-108.471 1326.09,-95.8171 1339.22,-86.9981"/>
<polygon fill="midnightblue" stroke="midnightblue" points="1341.31,-89.8184 1347.89,-81.5172 1337.57,-83.9012 1341.31,-89.8184"/>
</g>
<!-- Node10 -->
<g id="node10" class="node"><title>Node10</title>
<g id="a_node10"><a xlink:href="../../d0/d74/_simulator_interface_8h.html" target="_top" xlink:title="&quot;SimulatorInterface&quot; provides an interface for using the Simulator class ">
<polygon fill="white" stroke="black" points="1067,-186.5 1067,-205.5 1171,-205.5 1171,-186.5 1067,-186.5"/>
<text text-anchor="middle" x="1119" y="-193.5" font-family="Helvetica,sans-Serif" font-size="10.00">SimulatorInterface.h</text>
</a>
</g>
</g>
<!-- Node1&#45;&gt;Node10 -->
<g id="edge9" class="edge"><title>Node1&#45;&gt;Node10</title>
<path fill="none" stroke="midnightblue" d="M1243.54,-248.411C1213.39,-235.963 1175.26,-220.225 1149.19,-209.461"/>
<polygon fill="midnightblue" stroke="midnightblue" points="1150.41,-206.177 1139.83,-205.597 1147.73,-212.648 1150.41,-206.177"/>
</g>
<!-- Node24 -->
<g id="node24" class="node"><title>Node24</title>
<polygon fill="white" stroke="#bfbfbf" points="1338,-186.5 1338,-205.5 1480,-205.5 1480,-186.5 1338,-186.5"/>
<text text-anchor="middle" x="1409" y="-193.5" font-family="Helvetica,sans-Serif" font-size="10.00">lib_manager/LibInterface.hpp</text>
</g>
<!-- Node1&#45;&gt;Node24 -->
<g id="edge42" class="edge"><title>Node1&#45;&gt;Node24</title>
<path fill="none" stroke="midnightblue" d="M1323.56,-248.411C1343.42,-236.457 1368.33,-221.468 1386.12,-210.765"/>
<polygon fill="midnightblue" stroke="midnightblue" points="1387.95,-213.752 1394.71,-205.597 1384.34,-207.754 1387.95,-213.752"/>
</g>
<!-- Node25 -->
<g id="node25" class="node"><title>Node25</title>
<polygon fill="white" stroke="#bfbfbf" points="1498.5,-181 1498.5,-211 1657.5,-211 1657.5,-181 1498.5,-181"/>
<text text-anchor="start" x="1506.5" y="-199" font-family="Helvetica,sans-Serif" font-size="10.00">mars/cfg_manager/CFGManager</text>
<text text-anchor="middle" x="1578" y="-188" font-family="Helvetica,sans-Serif" font-size="10.00">Interface.h</text>
</g>
<!-- Node1&#45;&gt;Node25 -->
<g id="edge43" class="edge"><title>Node1&#45;&gt;Node25</title>
<path fill="none" stroke="midnightblue" d="M1370.18,-248.411C1414.58,-237.429 1469.32,-223.886 1511.48,-213.457"/>
<polygon fill="midnightblue" stroke="midnightblue" points="1512.49,-216.811 1521.36,-211.012 1510.81,-210.016 1512.49,-216.811"/>
</g>
<!-- Node26 -->
<g id="node26" class="node"><title>Node26</title>
<polygon fill="white" stroke="#bfbfbf" points="1675.5,-186.5 1675.5,-205.5 1820.5,-205.5 1820.5,-186.5 1675.5,-186.5"/>
<text text-anchor="middle" x="1748" y="-193.5" font-family="Helvetica,sans-Serif" font-size="10.00">mars/main_gui/GuiInterface.h</text>
</g>
<!-- Node1&#45;&gt;Node26 -->
<g id="edge45" class="edge"><title>Node1&#45;&gt;Node26</title>
<path fill="none" stroke="midnightblue" d="M1376.02,-256.112C1452.1,-245.281 1566.65,-228.501 1666,-212 1674.71,-210.553 1683.93,-208.943 1692.92,-207.331"/>
<polygon fill="midnightblue" stroke="midnightblue" points="1693.72,-210.744 1702.93,-205.518 1692.47,-203.856 1693.72,-210.744"/>
</g>
<!-- Node3 -->
<g id="node3" class="node"><title>Node3</title>
<g id="a_node3"><a xlink:href="../../dc/d43/_logging_8hpp.html" target="_top" xlink:title="../Logging.hpp">
<polygon fill="white" stroke="black" points="67,-124.5 67,-143.5 145,-143.5 145,-124.5 67,-124.5"/>
<text text-anchor="middle" x="106" y="-131.5" font-family="Helvetica,sans-Serif" font-size="10.00">../Logging.hpp</text>
</a>
</g>
</g>
<!-- Node2&#45;&gt;Node3 -->
<g id="edge2" class="edge"><title>Node2&#45;&gt;Node3</title>
<path fill="none" stroke="midnightblue" d="M106,-186.403C106,-177.938 106,-164.728 106,-153.82"/>
<polygon fill="midnightblue" stroke="midnightblue" points="109.5,-153.581 106,-143.581 102.5,-153.581 109.5,-153.581"/>
</g>
<!-- Node5 -->
<g id="node5" class="node"><title>Node5</title>
<polygon fill="white" stroke="#bfbfbf" points="-0.5,-124.5 -0.5,-143.5 48.5,-143.5 48.5,-124.5 -0.5,-124.5"/>
<text text-anchor="middle" x="24" y="-131.5" font-family="Helvetica,sans-Serif" font-size="10.00">cstddef</text>
</g>
<!-- Node2&#45;&gt;Node5 -->
<g id="edge4" class="edge"><title>Node2&#45;&gt;Node5</title>
<path fill="none" stroke="midnightblue" d="M94.2514,-186.403C81.0989,-176.78 59.5664,-161.024 43.8017,-149.489"/>
<polygon fill="midnightblue" stroke="midnightblue" points="45.8639,-146.661 35.7268,-143.581 41.7303,-152.31 45.8639,-146.661"/>
</g>
<!-- Node4 -->
<g id="node4" class="node"><title>Node4</title>
<polygon fill="white" stroke="#bfbfbf" points="18.5,-57 18.5,-87 163.5,-87 163.5,-57 18.5,-57"/>
<text text-anchor="start" x="26.5" y="-75" font-family="Helvetica,sans-Serif" font-size="10.00">mars/data_broker/DataBroker</text>
<text text-anchor="middle" x="91" y="-64" font-family="Helvetica,sans-Serif" font-size="10.00">Interface.h</text>
</g>
<!-- Node3&#45;&gt;Node4 -->
<g id="edge3" class="edge"><title>Node3&#45;&gt;Node4</title>
<path fill="none" stroke="midnightblue" d="M103.851,-124.403C102.066,-117.265 99.4379,-106.752 97.0226,-97.0903"/>
<polygon fill="midnightblue" stroke="midnightblue" points="100.356,-95.9933 94.5352,-87.1408 93.5651,-97.6911 100.356,-95.9933"/>
</g>
<!-- Node8 -->
<g id="node8" class="node"><title>Node8</title>
<polygon fill="white" stroke="#bfbfbf" points="1403,-62.5 1403,-81.5 1549,-81.5 1549,-62.5 1403,-62.5"/>
<text text-anchor="middle" x="1476" y="-69.5" font-family="Helvetica,sans-Serif" font-size="10.00">mars/interfaces/MARSDefs.h</text>
</g>
<!-- Node7&#45;&gt;Node8 -->
<g id="edge7" class="edge"><title>Node7&#45;&gt;Node8</title>
<path fill="none" stroke="midnightblue" d="M1374.05,-124.403C1393.84,-114.423 1426.72,-97.8487 1449.77,-86.2253"/>
<polygon fill="midnightblue" stroke="midnightblue" points="1451.63,-89.208 1458.98,-81.5806 1448.48,-82.9575 1451.63,-89.208"/>
</g>
<!-- Node7&#45;&gt;Node9 -->
<g id="edge8" class="edge"><title>Node7&#45;&gt;Node9</title>
<path fill="none" stroke="midnightblue" d="M1358,-124.403C1358.99,-115.938 1360.53,-102.728 1361.8,-91.8199"/>
<polygon fill="midnightblue" stroke="midnightblue" points="1365.32,-91.9188 1363,-81.5806 1358.36,-91.1076 1365.32,-91.9188"/>
</g>
<!-- Node10&#45;&gt;Node7 -->
<g id="edge14" class="edge"><title>Node10&#45;&gt;Node7</title>
<path fill="none" stroke="midnightblue" d="M1152.85,-186.467C1195.05,-175.827 1267.27,-157.622 1313.53,-145.959"/>
<polygon fill="midnightblue" stroke="midnightblue" points="1314.43,-149.342 1323.27,-143.503 1312.72,-142.554 1314.43,-149.342"/>
</g>
<!-- Node11 -->
<g id="node11" class="node"><title>Node11</title>
<g id="a_node11"><a xlink:href="../../d7/dec/_physics_interface_8h.html" target="_top" xlink:title="&quot;PhysicsInterface&quot; includes the methods to handle the physically world. ">
<polygon fill="white" stroke="black" points="749,-62.5 749,-81.5 847,-81.5 847,-62.5 749,-62.5"/>
<text text-anchor="middle" x="798" y="-69.5" font-family="Helvetica,sans-Serif" font-size="10.00">PhysicsInterface.h</text>
</a>
</g>
</g>
<!-- Node10&#45;&gt;Node11 -->
<g id="edge10" class="edge"><title>Node10&#45;&gt;Node11</title>
<path fill="none" stroke="midnightblue" d="M1096.43,-186.421C1040.48,-165.158 895.252,-109.962 830.263,-85.2618"/>
<polygon fill="midnightblue" stroke="midnightblue" points="831.138,-81.8504 820.547,-81.5693 828.651,-88.3937 831.138,-81.8504"/>
</g>
<!-- Node14 -->
<g id="node14" class="node"><title>Node14</title>
<g id="a_node14"><a xlink:href="../../dc/d3b/sim__common_8h.html" target="_top" xlink:title="../sim_common.h">
<polygon fill="white" stroke="black" points="498,-124.5 498,-143.5 590,-143.5 590,-124.5 498,-124.5"/>
<text text-anchor="middle" x="544" y="-131.5" font-family="Helvetica,sans-Serif" font-size="10.00">../sim_common.h</text>
</a>
</g>
</g>
<!-- Node10&#45;&gt;Node14 -->
<g id="edge15" class="edge"><title>Node10&#45;&gt;Node14</title>
<path fill="none" stroke="midnightblue" d="M1066.96,-189.57C959.057,-178.31 711.75,-152.504 600.293,-140.874"/>
<polygon fill="midnightblue" stroke="midnightblue" points="600.569,-137.384 590.26,-139.827 599.842,-144.346 600.569,-137.384"/>
</g>
<!-- Node20 -->
<g id="node20" class="node"><title>Node20</title>
<g id="a_node20"><a xlink:href="../../d4/d78/draw__structs_8h.html" target="_top" xlink:title="../graphics/draw_structs.h">
<polygon fill="white" stroke="black" points="1114,-124.5 1114,-143.5 1244,-143.5 1244,-124.5 1114,-124.5"/>
<text text-anchor="middle" x="1179" y="-131.5" font-family="Helvetica,sans-Serif" font-size="10.00">../graphics/draw_structs.h</text>
</a>
</g>
</g>
<!-- Node10&#45;&gt;Node20 -->
<g id="edge28" class="edge"><title>Node10&#45;&gt;Node20</title>
<path fill="none" stroke="midnightblue" d="M1127.6,-186.403C1136.86,-177.136 1151.82,-162.183 1163.21,-150.788"/>
<polygon fill="midnightblue" stroke="midnightblue" points="1165.82,-153.127 1170.42,-143.581 1160.87,-148.177 1165.82,-153.127"/>
</g>
<!-- Node22 -->
<g id="node22" class="node"><title>Node22</title>
<g id="a_node22"><a xlink:href="../../da/d1b/_light_data_8h.html" target="_top" xlink:title="../LightData.h">
<polygon fill="white" stroke="black" points="1020,-124.5 1020,-143.5 1096,-143.5 1096,-124.5 1020,-124.5"/>
<text text-anchor="middle" x="1058" y="-131.5" font-family="Helvetica,sans-Serif" font-size="10.00">../LightData.h</text>
</a>
</g>
</g>
<!-- Node10&#45;&gt;Node22 -->
<g id="edge37" class="edge"><title>Node10&#45;&gt;Node22</title>
<path fill="none" stroke="midnightblue" d="M1110.26,-186.403C1100.84,-177.136 1085.64,-162.183 1074.05,-150.788"/>
<polygon fill="midnightblue" stroke="midnightblue" points="1076.31,-148.098 1066.72,-143.581 1071.4,-153.088 1076.31,-148.098"/>
</g>
<!-- Node11&#45;&gt;Node6 -->
<g id="edge11" class="edge"><title>Node11&#45;&gt;Node6</title>
<path fill="none" stroke="midnightblue" d="M767.223,-62.468C758.178,-60.1529 748.234,-57.7935 739,-56 640.899,-36.9458 524.938,-23.1987 459.275,-16.2174"/>
<polygon fill="midnightblue" stroke="midnightblue" points="459.49,-12.7208 449.179,-15.1553 458.758,-19.6824 459.49,-12.7208"/>
</g>
<!-- Node12 -->
<g id="node12" class="node"><title>Node12</title>
<polygon fill="white" stroke="#bfbfbf" points="658.5,-0.5 658.5,-19.5 757.5,-19.5 757.5,-0.5 658.5,-0.5"/>
<text text-anchor="middle" x="708" y="-7.5" font-family="Helvetica,sans-Serif" font-size="10.00">mars/utils/Vector.h</text>
</g>
<!-- Node11&#45;&gt;Node12 -->
<g id="edge12" class="edge"><title>Node11&#45;&gt;Node12</title>
<path fill="none" stroke="midnightblue" d="M785.105,-62.4035C770.536,-52.6905 746.598,-36.7319 729.255,-25.1697"/>
<polygon fill="midnightblue" stroke="midnightblue" points="731.133,-22.2155 720.871,-19.5806 727.25,-28.0398 731.133,-22.2155"/>
</g>
<!-- Node13 -->
<g id="node13" class="node"><title>Node13</title>
<polygon fill="white" stroke="#bfbfbf" points="1222,-0.5 1222,-19.5 1266,-19.5 1266,-0.5 1222,-0.5"/>
<text text-anchor="middle" x="1244" y="-7.5" font-family="Helvetica,sans-Serif" font-size="10.00">vector</text>
</g>
<!-- Node11&#45;&gt;Node13 -->
<g id="edge13" class="edge"><title>Node11&#45;&gt;Node13</title>
<path fill="none" stroke="midnightblue" d="M847.006,-64.4073C938.857,-52.0506 1134.59,-25.7191 1211.76,-15.3374"/>
<polygon fill="midnightblue" stroke="midnightblue" points="1212.39,-18.7835 1221.84,-13.9814 1211.46,-11.846 1212.39,-18.7835"/>
</g>
<!-- Node14&#45;&gt;Node6 -->
<g id="edge16" class="edge"><title>Node14&#45;&gt;Node6</title>
<path fill="none" stroke="midnightblue" d="M497.839,-132.958C423.041,-131.8 280.522,-124.695 249,-88 215.049,-48.4772 296.677,-27.4217 354.809,-17.7812"/>
<polygon fill="midnightblue" stroke="midnightblue" points="355.666,-21.189 364.995,-16.1666 354.571,-14.2753 355.666,-21.189"/>
</g>
<!-- Node14&#45;&gt;Node12 -->
<g id="edge17" class="edge"><title>Node14&#45;&gt;Node12</title>
<path fill="none" stroke="midnightblue" d="M497.673,-125.422C444.743,-114.841 369.291,-92.6961 401,-56 432.263,-19.8203 567.804,-12.1792 647.96,-10.8941"/>
<polygon fill="midnightblue" stroke="midnightblue" points="648.454,-14.3881 658.407,-10.7575 648.363,-7.38868 648.454,-14.3881"/>
</g>
<!-- Node15 -->
<g id="node15" class="node"><title>Node15</title>
<polygon fill="white" stroke="#bfbfbf" points="410,-62.5 410,-81.5 528,-81.5 528,-62.5 410,-62.5"/>
<text text-anchor="middle" x="469" y="-69.5" font-family="Helvetica,sans-Serif" font-size="10.00">mars/utils/Quaternion.h</text>
</g>
<!-- Node14&#45;&gt;Node15 -->
<g id="edge18" class="edge"><title>Node14&#45;&gt;Node15</title>
<path fill="none" stroke="midnightblue" d="M533.254,-124.403C521.447,-114.958 502.257,-99.6056 487.918,-88.1342"/>
<polygon fill="midnightblue" stroke="midnightblue" points="489.721,-85.0945 479.726,-81.5806 485.348,-90.5606 489.721,-85.0945"/>
</g>
<!-- Node16 -->
<g id="node16" class="node"><title>Node16</title>
<polygon fill="white" stroke="#bfbfbf" points="939,-0.5 939,-19.5 1033,-19.5 1033,-0.5 939,-0.5"/>
<text text-anchor="middle" x="986" y="-7.5" font-family="Helvetica,sans-Serif" font-size="10.00">mars/utils/Color.h</text>
</g>
<!-- Node14&#45;&gt;Node16 -->
<g id="edge19" class="edge"><title>Node14&#45;&gt;Node16</title>
<path fill="none" stroke="midnightblue" d="M590.116,-131.855C652.021,-129.09 764.658,-119.708 855,-88 897.787,-72.9826 942.176,-43.4172 966.725,-25.6107"/>
<polygon fill="midnightblue" stroke="midnightblue" points="968.862,-28.3837 974.833,-19.6311 964.707,-22.7502 968.862,-28.3837"/>
</g>
<!-- Node17 -->
<g id="node17" class="node"><title>Node17</title>
<g id="a_node17"><a xlink:href="../../d1/d98/node_state_8h.html" target="_top" xlink:title="nodeState.h">
<polygon fill="white" stroke="black" points="584.5,-62.5 584.5,-81.5 653.5,-81.5 653.5,-62.5 584.5,-62.5"/>
<text text-anchor="middle" x="619" y="-69.5" font-family="Helvetica,sans-Serif" font-size="10.00">nodeState.h</text>
</a>
</g>
</g>
<!-- Node14&#45;&gt;Node17 -->
<g id="edge20" class="edge"><title>Node14&#45;&gt;Node17</title>
<path fill="none" stroke="midnightblue" d="M554.746,-124.403C566.553,-114.958 585.743,-99.6056 600.082,-88.1342"/>
<polygon fill="midnightblue" stroke="midnightblue" points="602.652,-90.5606 608.274,-81.5806 598.279,-85.0945 602.652,-90.5606"/>
</g>
<!-- Node18 -->
<g id="node18" class="node"><title>Node18</title>
<g id="a_node18"><a xlink:href="../../dd/d54/contact__params_8h.html" target="_top" xlink:title="contact_params.h">
<polygon fill="white" stroke="black" points="258.5,-62.5 258.5,-81.5 353.5,-81.5 353.5,-62.5 258.5,-62.5"/>
<text text-anchor="middle" x="306" y="-69.5" font-family="Helvetica,sans-Serif" font-size="10.00">contact_params.h</text>
</a>
</g>
</g>
<!-- Node14&#45;&gt;Node18 -->
<g id="edge22" class="edge"><title>Node14&#45;&gt;Node18</title>
<path fill="none" stroke="midnightblue" d="M510.153,-124.467C467.948,-113.827 395.732,-95.6215 349.472,-83.9593"/>
<polygon fill="midnightblue" stroke="midnightblue" points="350.282,-80.5542 339.73,-81.5034 348.571,-87.3418 350.282,-80.5542"/>
</g>
<!-- Node19 -->
<g id="node19" class="node"><title>Node19</title>
<g id="a_node19"><a xlink:href="../../d7/dc4/snmesh_8h.html" target="_top" xlink:title="snmesh.h">
<polygon fill="white" stroke="black" points="671.5,-62.5 671.5,-81.5 730.5,-81.5 730.5,-62.5 671.5,-62.5"/>
<text text-anchor="middle" x="701" y="-69.5" font-family="Helvetica,sans-Serif" font-size="10.00">snmesh.h</text>
</a>
</g>
</g>
<!-- Node14&#45;&gt;Node19 -->
<g id="edge25" class="edge"><title>Node14&#45;&gt;Node19</title>
<path fill="none" stroke="midnightblue" d="M566.629,-124.392C590.388,-115.349 628.831,-100.703 662,-88 664.371,-87.0919 666.823,-86.1517 669.289,-85.2053"/>
<polygon fill="midnightblue" stroke="midnightblue" points="670.651,-88.4315 678.73,-81.5778 668.14,-81.8972 670.651,-88.4315"/>
</g>
<!-- Node17&#45;&gt;Node12 -->
<g id="edge21" class="edge"><title>Node17&#45;&gt;Node12</title>
<path fill="none" stroke="midnightblue" d="M631.752,-62.4035C646.027,-52.7797 669.397,-37.0242 686.508,-25.4891"/>
<polygon fill="midnightblue" stroke="midnightblue" points="688.937,-28.0727 695.272,-19.5806 685.024,-22.2684 688.937,-28.0727"/>
</g>
<!-- Node18&#45;&gt;Node6 -->
<g id="edge23" class="edge"><title>Node18&#45;&gt;Node6</title>
<path fill="none" stroke="midnightblue" d="M320.471,-62.4035C337.046,-52.5569 364.426,-36.2915 383.947,-24.6949"/>
<polygon fill="midnightblue" stroke="midnightblue" points="385.746,-27.6971 392.556,-19.5806 382.171,-21.6789 385.746,-27.6971"/>
</g>
<!-- Node18&#45;&gt;Node12 -->
<g id="edge24" class="edge"><title>Node18&#45;&gt;Node12</title>
<path fill="none" stroke="midnightblue" d="M338.36,-62.4865C347.865,-60.1718 358.311,-57.808 368,-56 465.569,-37.7933 580.231,-24.2175 648.358,-16.9613"/>
<polygon fill="midnightblue" stroke="midnightblue" points="648.896,-20.424 658.473,-15.8939 648.161,-13.4627 648.896,-20.424"/>
</g>
<!-- Node19&#45;&gt;Node6 -->
<g id="edge26" class="edge"><title>Node19&#45;&gt;Node6</title>
<path fill="none" stroke="midnightblue" d="M681.007,-62.4623C674.979,-60.1199 668.291,-57.7473 662,-56 592.967,-36.8258 511.055,-24.0847 459.056,-17.1982"/>
<polygon fill="midnightblue" stroke="midnightblue" points="459.436,-13.7182 449.068,-15.8988 458.533,-20.6597 459.436,-13.7182"/>
</g>
<!-- Node19&#45;&gt;Node16 -->
<g id="edge27" class="edge"><title>Node19&#45;&gt;Node16</title>
<path fill="none" stroke="midnightblue" d="M721,-62.4871C727.029,-60.1454 733.715,-57.7669 740,-56 803.542,-38.1368 878.37,-25.6201 928.67,-18.3994"/>
<polygon fill="midnightblue" stroke="midnightblue" points="929.293,-21.8463 938.705,-16.9825 928.314,-14.9151 929.293,-21.8463"/>
</g>
<!-- Node20&#45;&gt;Node6 -->
<g id="edge32" class="edge"><title>Node20&#45;&gt;Node6</title>
<path fill="none" stroke="midnightblue" d="M1113.65,-124.861C1110.73,-124.557 1107.83,-124.268 1105,-124 987.477,-112.87 684.458,-132.209 575,-88 554.527,-79.7312 556.199,-66.9051 537,-56 510.6,-41.0044 478.362,-29.8051 452.595,-22.3297"/>
<polygon fill="midnightblue" stroke="midnightblue" points="453.278,-18.8862 442.704,-19.5494 451.384,-25.6251 453.278,-18.8862"/>
</g>
<!-- Node20&#45;&gt;Node9 -->
<g id="edge35" class="edge"><title>Node20&#45;&gt;Node9</title>
<path fill="none" stroke="midnightblue" d="M1211.24,-124.47C1241.85,-116.102 1289,-102.517 1329,-88 1331.12,-87.2303 1333.3,-86.3993 1335.48,-85.5369"/>
<polygon fill="midnightblue" stroke="midnightblue" points="1336.99,-88.6988 1344.9,-81.6491 1334.32,-82.228 1336.99,-88.6988"/>
</g>
<!-- Node20&#45;&gt;Node12 -->
<g id="edge34" class="edge"><title>Node20&#45;&gt;Node12</title>
<path fill="none" stroke="midnightblue" d="M1171.07,-124.474C1155.2,-108.024 1117.63,-72.1124 1078,-56 1023.17,-33.7038 857.741,-20.293 767.795,-14.4549"/>
<polygon fill="midnightblue" stroke="midnightblue" points="767.945,-10.9575 757.743,-13.8136 767.5,-17.9433 767.945,-10.9575"/>
</g>
<!-- Node20&#45;&gt;Node13 -->
<g id="edge36" class="edge"><title>Node20&#45;&gt;Node13</title>
<path fill="none" stroke="midnightblue" d="M1238.68,-124.432C1260.43,-118.103 1282.88,-107.106 1296,-88 1304.05,-76.2765 1301.91,-68.9351 1296,-56 1290.22,-43.3602 1278.95,-32.911 1268.37,-25.2737"/>
<polygon fill="midnightblue" stroke="midnightblue" points="1270.04,-22.1817 1259.78,-19.5333 1266.15,-28.0009 1270.04,-22.1817"/>
</g>
<!-- Node20&#45;&gt;Node16 -->
<g id="edge33" class="edge"><title>Node20&#45;&gt;Node16</title>
<path fill="none" stroke="midnightblue" d="M1178.15,-124.43C1176.1,-108.542 1169.45,-74.4581 1149,-56 1120.14,-29.9491 1077.52,-18.8085 1043.1,-14.1232"/>
<polygon fill="midnightblue" stroke="midnightblue" points="1043.52,-10.6481 1033.17,-12.9162 1042.67,-17.597 1043.52,-10.6481"/>
</g>
<!-- Node21 -->
<g id="node21" class="node"><title>Node21</title>
<g id="a_node21"><a xlink:href="../../dd/dd2/_draw_interface_8h.html" target="_top" xlink:title="DrawInterface.h">
<polygon fill="white" stroke="black" points="1201,-62.5 1201,-81.5 1287,-81.5 1287,-62.5 1201,-62.5"/>
<text text-anchor="middle" x="1244" y="-69.5" font-family="Helvetica,sans-Serif" font-size="10.00">DrawInterface.h</text>
</a>
</g>
</g>
<!-- Node20&#45;&gt;Node21 -->
<g id="edge29" class="edge"><title>Node20&#45;&gt;Node21</title>
<path fill="none" stroke="midnightblue" d="M1183.41,-124.403C1191.6,-114.958 1207.88,-99.6056 1221.65,-88.1342"/>
<polygon fill="midnightblue" stroke="midnightblue" points="1224.21,-90.5733 1229.81,-81.5806 1219.82,-85.1171 1224.21,-90.5733"/>
</g>
<!-- Node21&#45;&gt;Node13 -->
<g id="edge31" class="edge"><title>Node21&#45;&gt;Node13</title>
<path fill="none" stroke="midnightblue" d="M1244,-62.4035C1244,-53.9381 1244,-40.7283 1244,-29.8199"/>
<polygon fill="midnightblue" stroke="midnightblue" points="1247.5,-29.5806 1244,-19.5806 1240.5,-29.5806 1247.5,-29.5806"/>
</g>
<!-- Node21&#45;&gt;Node20 -->
<g id="edge30" class="edge"><title>Node21&#45;&gt;Node20</title>
<path fill="none" stroke="midnightblue" d="M1239.6,-81.5806C1231.42,-91.0195 1215.14,-106.371 1201.37,-117.846"/>
<polygon fill="midnightblue" stroke="midnightblue" points="1198.81,-115.41 1193.21,-124.403 1203.2,-120.866 1198.81,-115.41"/>
</g>
<!-- Node22&#45;&gt;Node9 -->
<g id="edge41" class="edge"><title>Node22&#45;&gt;Node9</title>
<path fill="none" stroke="midnightblue" d="M1096.22,-125.672C1099.19,-125.105 1102.14,-124.543 1105,-124 1189.87,-107.877 1211.37,-105.306 1296,-88 1308.15,-85.5152 1321.48,-82.6129 1333.1,-80.0268"/>
<polygon fill="midnightblue" stroke="midnightblue" points="1334.21,-83.3649 1343.2,-77.7618 1332.68,-76.5345 1334.21,-83.3649"/>
</g>
<!-- Node22&#45;&gt;Node12 -->
<g id="edge40" class="edge"><title>Node22&#45;&gt;Node12</title>
<path fill="none" stroke="midnightblue" d="M1032.76,-124.409C1007.22,-115.617 966.671,-101.386 932,-88 897.427,-74.6523 889.87,-68.5498 855,-56 819.619,-43.2663 778.658,-30.9188 748.975,-22.3893"/>
<polygon fill="midnightblue" stroke="midnightblue" points="749.55,-18.9139 738.974,-19.5371 747.631,-25.6455 749.55,-18.9139"/>
</g>
<!-- Node22&#45;&gt;Node16 -->
<g id="edge38" class="edge"><title>Node22&#45;&gt;Node16</title>
<path fill="none" stroke="midnightblue" d="M1064.39,-124.25C1074.52,-109.229 1091.75,-78.0281 1078,-56 1068.24,-40.3644 1051.3,-30.013 1034.6,-23.2301"/>
<polygon fill="midnightblue" stroke="midnightblue" points="1035.44,-19.8098 1024.85,-19.6357 1033.02,-26.378 1035.44,-19.8098"/>
</g>
<!-- Node23 -->
<g id="node23" class="node"><title>Node23</title>
<polygon fill="white" stroke="#bfbfbf" points="941,-62.5 941,-81.5 1069,-81.5 1069,-62.5 941,-62.5"/>
<text text-anchor="middle" x="1005" y="-69.5" font-family="Helvetica,sans-Serif" font-size="10.00">configmaps/ConfigData.h</text>
</g>
<!-- Node22&#45;&gt;Node23 -->
<g id="edge39" class="edge"><title>Node22&#45;&gt;Node23</title>
<path fill="none" stroke="midnightblue" d="M1050.41,-124.403C1042.3,-115.225 1029.27,-100.47 1019.24,-89.1173"/>
<polygon fill="midnightblue" stroke="midnightblue" points="1021.82,-86.7582 1012.58,-81.5806 1016.58,-91.3925 1021.82,-86.7582"/>
</g>
</g>
</svg>
