<?xml version="1.0" encoding="UTF-8" standalone="no"?>
<!DOCTYPE svg PUBLIC "-//W3C//DTD SVG 1.1//EN"
 "http://www.w3.org/Graphics/SVG/1.1/DTD/svg11.dtd">
<!-- Generated by graphviz version 2.26.3 (20100126.1600)
 -->
<!-- Title: /home/kavonszadkowski/limes&#45;dev/simulation/mars/sim/src/sensors/NodeArraySensor.h Pages: 1 -->
<svg width="726pt" height="214pt"
 viewBox="0.00 0.00 726.00 214.00" xmlns="http://www.w3.org/2000/svg" xmlns:xlink="http://www.w3.org/1999/xlink">
<g id="graph1" class="graph" transform="scale(1 1) rotate(0) translate(4 210)">
<title>/home/kavonszadkowski/limes&#45;dev/simulation/mars/sim/src/sensors/NodeArraySensor.h</title>
<polygon fill="white" stroke="white" points="-4,5 -4,-210 723,-210 723,5 -4,5"/>
<!-- Node1 -->
<g id="node1" class="node"><title>Node1</title>
<polygon fill="#bfbfbf" stroke="black" points="140.5,-145 140.5,-205 265.5,-205 265.5,-145 140.5,-145"/>
<text text-anchor="start" x="148.5" y="-192" font-family="Helvetica,sans-Serif" font-size="10.00">/home/kavonszadkowski</text>
<text text-anchor="start" x="148.5" y="-179" font-family="Helvetica,sans-Serif" font-size="10.00">/limes&#45;dev/simulation</text>
<text text-anchor="start" x="148.5" y="-166" font-family="Helvetica,sans-Serif" font-size="10.00">/mars/sim/src/sensors</text>
<text text-anchor="middle" x="203" y="-153" font-family="Helvetica,sans-Serif" font-size="10.00">/NodeArraySensor.h</text>
</g>
<!-- Node2 -->
<g id="node3" class="node"><title>Node2</title>
<polygon fill="white" stroke="#bfbfbf" points="0,-79.5 0,-100.5 128,-100.5 128,-79.5 0,-79.5"/>
<text text-anchor="middle" x="64" y="-87.5" font-family="Helvetica,sans-Serif" font-size="10.00">configmaps/ConfigData.h</text>
</g>
<!-- Node1&#45;&gt;Node2 -->
<g id="edge2" class="edge"><title>Node1&#45;&gt;Node2</title>
<path fill="none" stroke="midnightblue" d="M153.602,-144.793C132.206,-131.709 108.028,-116.923 90.1843,-106.012"/>
<polygon fill="midnightblue" stroke="midnightblue" points="91.8363,-102.92 81.4791,-100.689 88.1844,-108.892 91.8363,-102.92"/>
</g>
<!-- Node3 -->
<g id="node5" class="node"><title>Node3</title>
<polygon fill="white" stroke="#bfbfbf" points="87.5,-1 87.5,-35 190.5,-35 190.5,-1 87.5,-1"/>
<text text-anchor="start" x="95.5" y="-22" font-family="Helvetica,sans-Serif" font-size="10.00">mars/interfaces/sim</text>
<text text-anchor="middle" x="139" y="-9" font-family="Helvetica,sans-Serif" font-size="10.00">/SensorInterface.h</text>
</g>
<!-- Node1&#45;&gt;Node3 -->
<g id="edge4" class="edge"><title>Node1&#45;&gt;Node3</title>
<path fill="none" stroke="midnightblue" d="M190.217,-144.69C185.407,-133.212 179.915,-120.019 175,-108 166.334,-86.8073 156.711,-62.7201 149.596,-44.801"/>
<polygon fill="midnightblue" stroke="midnightblue" points="152.762,-43.2913 145.823,-35.2853 146.255,-45.8713 152.762,-43.2913"/>
</g>
<!-- Node4 -->
<g id="node7" class="node"><title>Node4</title>
<polygon fill="white" stroke="#bfbfbf" points="184,-73 184,-107 318,-107 318,-73 184,-73"/>
<text text-anchor="start" x="192" y="-94" font-family="Helvetica,sans-Serif" font-size="10.00">mars/data_broker/Receiver</text>
<text text-anchor="middle" x="251" y="-81" font-family="Helvetica,sans-Serif" font-size="10.00">Interface.h</text>
</g>
<!-- Node1&#45;&gt;Node4 -->
<g id="edge6" class="edge"><title>Node1&#45;&gt;Node4</title>
<path fill="none" stroke="midnightblue" d="M220.058,-144.793C225.338,-135.443 231.108,-125.225 236.22,-116.172"/>
<polygon fill="midnightblue" stroke="midnightblue" points="239.392,-117.674 241.261,-107.246 233.296,-114.232 239.392,-117.674"/>
</g>
<!-- Node5 -->
<g id="node9" class="node"><title>Node5</title>
<a xlink:href="../../d5/df7/_i_d_list_config_8h.html" target="_top" xlink:title="IDListConfig.h">
<polygon fill="white" stroke="black" points="369,-79.5 369,-100.5 449,-100.5 449,-79.5 369,-79.5"/>
<text text-anchor="middle" x="409" y="-87.5" font-family="Helvetica,sans-Serif" font-size="10.00">IDListConfig.h</text>
</a>
</g>
<!-- Node1&#45;&gt;Node5 -->
<g id="edge8" class="edge"><title>Node1&#45;&gt;Node5</title>
<path fill="none" stroke="midnightblue" d="M265.646,-149.151C301.167,-134.494 344.293,-116.699 373.908,-104.48"/>
<polygon fill="midnightblue" stroke="midnightblue" points="375.494,-107.611 383.403,-100.562 372.824,-101.141 375.494,-107.611"/>
</g>
<!-- Node5&#45;&gt;Node3 -->
<g id="edge18" class="edge"><title>Node5&#45;&gt;Node3</title>
<path fill="none" stroke="midnightblue" d="M368.615,-80.1216C328.308,-70.1498 264.375,-54.03 200.505,-36.3745"/>
<polygon fill="midnightblue" stroke="midnightblue" points="201.245,-32.9474 190.673,-33.644 199.372,-39.6922 201.245,-32.9474"/>
</g>
<!-- Node6 -->
<g id="node11" class="node"><title>Node6</title>
<polygon fill="white" stroke="#bfbfbf" points="208,-7.5 208,-28.5 354,-28.5 354,-7.5 208,-7.5"/>
<text text-anchor="middle" x="281" y="-15.5" font-family="Helvetica,sans-Serif" font-size="10.00">mars/interfaces/MARSDefs.h</text>
</g>
<!-- Node5&#45;&gt;Node6 -->
<g id="edge10" class="edge"><title>Node5&#45;&gt;Node6</title>
<path fill="none" stroke="midnightblue" d="M390.113,-79.3762C368.654,-67.3054 333.427,-47.4905 308.823,-33.6506"/>
<polygon fill="midnightblue" stroke="midnightblue" points="310.396,-30.5196 299.964,-28.6674 306.964,-36.6206 310.396,-30.5196"/>
</g>
<!-- Node7 -->
<g id="node13" class="node"><title>Node7</title>
<polygon fill="white" stroke="#bfbfbf" points="371.5,-1 371.5,-35 478.5,-35 478.5,-1 371.5,-1"/>
<text text-anchor="start" x="379.5" y="-22" font-family="Helvetica,sans-Serif" font-size="10.00">mars/interfaces/sim</text>
<text text-anchor="middle" x="425" y="-9" font-family="Helvetica,sans-Serif" font-size="10.00">/SimulatorInterface.h</text>
</g>
<!-- Node5&#45;&gt;Node7 -->
<g id="edge12" class="edge"><title>Node5&#45;&gt;Node7</title>
<path fill="none" stroke="midnightblue" d="M411.361,-79.3762C413.364,-70.3602 416.328,-57.0239 418.981,-45.0839"/>
<polygon fill="midnightblue" stroke="midnightblue" points="422.449,-45.6155 421.201,-35.0944 415.615,-44.097 422.449,-45.6155"/>
</g>
<!-- Node8 -->
<g id="node15" class="node"><title>Node8</title>
<polygon fill="white" stroke="#bfbfbf" points="495.5,-1 495.5,-35 598.5,-35 598.5,-1 495.5,-1"/>
<text text-anchor="start" x="503.5" y="-22" font-family="Helvetica,sans-Serif" font-size="10.00">mars/interfaces/sim</text>
<text text-anchor="middle" x="547" y="-9" font-family="Helvetica,sans-Serif" font-size="10.00">/ControlCenter.h</text>
</g>
<!-- Node5&#45;&gt;Node8 -->
<g id="edge14" class="edge"><title>Node5&#45;&gt;Node8</title>
<path fill="none" stroke="midnightblue" d="M429.362,-79.3762C449.261,-68.9942 480.14,-52.8833 505.269,-39.7727"/>
<polygon fill="midnightblue" stroke="midnightblue" points="506.989,-42.8231 514.236,-35.0944 503.751,-36.617 506.989,-42.8231"/>
</g>
<!-- Node9 -->
<g id="node17" class="node"><title>Node9</title>
<polygon fill="white" stroke="#bfbfbf" points="615.5,-1 615.5,-35 718.5,-35 718.5,-1 615.5,-1"/>
<text text-anchor="start" x="623.5" y="-22" font-family="Helvetica,sans-Serif" font-size="10.00">mars/interfaces/sim</text>
<text text-anchor="middle" x="667" y="-9" font-family="Helvetica,sans-Serif" font-size="10.00">/LoadCenter.h</text>
</g>
<!-- Node5&#45;&gt;Node9 -->
<g id="edge16" class="edge"><title>Node5&#45;&gt;Node9</title>
<path fill="none" stroke="midnightblue" d="M448.903,-79.4339C486.837,-69.3185 545.741,-53.4298 605.355,-36.4425"/>
<polygon fill="midnightblue" stroke="midnightblue" points="606.661,-39.7094 615.314,-33.596 604.737,-32.9789 606.661,-39.7094"/>
</g>
</g>
</svg>
