<?xml version="1.0" encoding="UTF-8" standalone="no"?>
<!DOCTYPE svg PUBLIC "-//W3C//DTD SVG 1.1//EN"
 "http://www.w3.org/Graphics/SVG/1.1/DTD/svg11.dtd">
<!-- Generated by graphviz version 2.26.3 (20100126.1600)
 -->
<!-- Title: mars::gui::Dialog_Create_Material Pages: 1 -->
<svg width="460pt" height="306pt"
 viewBox="0.00 0.00 460.00 306.00" xmlns="http://www.w3.org/2000/svg" xmlns:xlink="http://www.w3.org/1999/xlink">
<g id="graph1" class="graph" transform="scale(1 1) rotate(0) translate(4 302)">
<title>mars::gui::Dialog_Create_Material</title>
<polygon fill="white" stroke="white" points="-4,5 -4,-302 457,-302 457,5 -4,5"/>
<!-- Node1 -->
<g id="node1" class="node"><title>Node1</title>
<polygon fill="#bfbfbf" stroke="black" points="81.5,-1 81.5,-35 206.5,-35 206.5,-1 81.5,-1"/>
<text text-anchor="start" x="89.5" y="-22" font-family="Helvetica,sans-Serif" font-size="10.00">mars::gui::Dialog_Create</text>
<text text-anchor="middle" x="144" y="-9" font-family="Helvetica,sans-Serif" font-size="10.00">_Material</text>
</g>
<!-- Node2 -->
<g id="node2" class="node"><title>Node2</title>
<polygon fill="white" stroke="#bfbfbf" points="-0.5,-93.5 -0.5,-114.5 52.5,-114.5 52.5,-93.5 -0.5,-93.5"/>
<text text-anchor="middle" x="26" y="-101.5" font-family="Helvetica,sans-Serif" font-size="10.00">QObject</text>
</g>
<!-- Node2&#45;&gt;Node1 -->
<g id="edge2" class="edge"><title>Node2&#45;&gt;Node1</title>
<path fill="none" stroke="midnightblue" d="M48.6512,-87.4915C69.2572,-72.4735 99.5549,-50.3922 120.44,-35.1709"/>
<polygon fill="midnightblue" stroke="midnightblue" points="46.4891,-84.7363 40.4691,-93.4547 50.612,-90.3933 46.4891,-84.7363"/>
</g>
<!-- Node3 -->
<g id="node4" class="node"><title>Node3</title>
<a xlink:href="../../d9/d1d/classmars_1_1interfaces_1_1_material_data.html" target="_top" xlink:title="MaterialData is a struct to exchange material information of nodes. ">
<polygon fill="white" stroke="black" points="69.5,-93.5 69.5,-114.5 218.5,-114.5 218.5,-93.5 69.5,-93.5"/>
<text text-anchor="middle" x="144" y="-101.5" font-family="Helvetica,sans-Serif" font-size="10.00">mars::interfaces::MaterialData</text>
</a>
</g>
<!-- Node3&#45;&gt;Node1 -->
<g id="edge4" class="edge"><title>Node3&#45;&gt;Node1</title>
<path fill="none" stroke="#9a32cd" stroke-dasharray="5,2" d="M144,-83.3098C144,-68.5851 144,-49.0331 144,-35.1709"/>
<polygon fill="#9a32cd" stroke="#9a32cd" points="140.5,-83.4547 144,-93.4547 147.5,-83.4547 140.5,-83.4547"/>
<text text-anchor="middle" x="163" y="-58.5" font-family="Helvetica,sans-Serif" font-size="10.00"> material</text>
</g>
<!-- Node4 -->
<g id="node6" class="node"><title>Node4</title>
<polygon fill="white" stroke="#bfbfbf" points="55.5,-269.5 55.5,-290.5 96.5,-290.5 96.5,-269.5 55.5,-269.5"/>
<text text-anchor="middle" x="76" y="-277.5" font-family="Helvetica,sans-Serif" font-size="10.00">string</text>
</g>
<!-- Node4&#45;&gt;Node3 -->
<g id="edge6" class="edge"><title>Node4&#45;&gt;Node3</title>
<path fill="none" stroke="#9a32cd" stroke-dasharray="5,2" d="M72.6103,-259.026C69.0435,-230.037 66.6594,-177.109 89,-140 95.7691,-128.756 107.555,-120.35 118.485,-114.5"/>
<polygon fill="#9a32cd" stroke="#9a32cd" points="69.1837,-259.794 74.0381,-269.211 76.1159,-258.822 69.1837,-259.794"/>
<text text-anchor="middle" x="116.5" y="-202.5" font-family="Helvetica,sans-Serif" font-size="10.00"> normalmap</text>
<text text-anchor="middle" x="116.5" y="-189.5" font-family="Helvetica,sans-Serif" font-size="10.00">bumpmap</text>
<text text-anchor="middle" x="116.5" y="-176.5" font-family="Helvetica,sans-Serif" font-size="10.00">texturename</text>
</g>
<!-- Node5 -->
<g id="node8" class="node"><title>Node5</title>
<a xlink:href="../../d4/d7c/classmars_1_1utils_1_1_color.html" target="_top" xlink:title="mars::utils::Color">
<polygon fill="white" stroke="black" points="114,-269.5 114,-290.5 206,-290.5 206,-269.5 114,-269.5"/>
<text text-anchor="middle" x="160" y="-277.5" font-family="Helvetica,sans-Serif" font-size="10.00">mars::utils::Color</text>
</a>
</g>
<!-- Node5&#45;&gt;Node3 -->
<g id="edge8" class="edge"><title>Node5&#45;&gt;Node3</title>
<path fill="none" stroke="#9a32cd" stroke-dasharray="5,2" d="M158.082,-258.906C154.643,-221.072 147.544,-142.983 144.964,-114.604"/>
<polygon fill="#9a32cd" stroke="#9a32cd" points="154.632,-259.613 159.023,-269.255 161.603,-258.98 154.632,-259.613"/>
<text text-anchor="middle" x="188" y="-235" font-family="Helvetica,sans-Serif" font-size="10.00"> ambientBack</text>
<text text-anchor="middle" x="188" y="-222" font-family="Helvetica,sans-Serif" font-size="10.00">specularBack</text>
<text text-anchor="middle" x="188" y="-209" font-family="Helvetica,sans-Serif" font-size="10.00">specularFront</text>
<text text-anchor="middle" x="188" y="-196" font-family="Helvetica,sans-Serif" font-size="10.00">emissionBack</text>
<text text-anchor="middle" x="188" y="-183" font-family="Helvetica,sans-Serif" font-size="10.00">ambientFront</text>
<text text-anchor="middle" x="188" y="-170" font-family="Helvetica,sans-Serif" font-size="10.00">diffuseBack</text>
<text text-anchor="middle" x="188" y="-157" font-family="Helvetica,sans-Serif" font-size="10.00">diffuseFront</text>
<text text-anchor="middle" x="188" y="-144" font-family="Helvetica,sans-Serif" font-size="10.00">emissionFront</text>
</g>
<!-- Node6 -->
<g id="node10" class="node"><title>Node6</title>
<a xlink:href="../../de/d11/classmars_1_1main__gui_1_1_property_dialog.html" target="_top" xlink:title="The PropertyDialog provides the QtProperty functionality. ">
<polygon fill="white" stroke="black" points="236,-87 236,-121 362,-121 362,-87 236,-87"/>
<text text-anchor="start" x="244" y="-108" font-family="Helvetica,sans-Serif" font-size="10.00">mars::main_gui::Property</text>
<text text-anchor="middle" x="299" y="-95" font-family="Helvetica,sans-Serif" font-size="10.00">Dialog</text>
</a>
</g>
<!-- Node6&#45;&gt;Node1 -->
<g id="edge10" class="edge"><title>Node6&#45;&gt;Node1</title>
<path fill="none" stroke="#9a32cd" stroke-dasharray="5,2" d="M259.05,-81.8344C232.754,-67.2444 198.853,-48.4343 174.676,-35.0201"/>
<polygon fill="#9a32cd" stroke="#9a32cd" points="257.564,-85.0121 268.006,-86.8033 260.96,-78.8911 257.564,-85.0121"/>
<text text-anchor="middle" x="245.5" y="-58.5" font-family="Helvetica,sans-Serif" font-size="10.00"> parent</text>
</g>
<!-- Node7 -->
<g id="node12" class="node"><title>Node7</title>
<polygon fill="white" stroke="#bfbfbf" points="256,-269.5 256,-290.5 308,-290.5 308,-269.5 256,-269.5"/>
<text text-anchor="middle" x="282" y="-277.5" font-family="Helvetica,sans-Serif" font-size="10.00">QDialog</text>
</g>
<!-- Node7&#45;&gt;Node6 -->
<g id="edge12" class="edge"><title>Node7&#45;&gt;Node6</title>
<path fill="none" stroke="midnightblue" d="M284.012,-259.169C287.41,-223.995 294.219,-153.496 297.353,-121.053"/>
<polygon fill="midnightblue" stroke="midnightblue" points="280.516,-258.965 283.038,-269.255 287.483,-259.638 280.516,-258.965"/>
</g>
<!-- Node8 -->
<g id="node14" class="node"><title>Node8</title>
<a xlink:href="../../dd/d38/classmars_1_1main__gui_1_1_property_callback.html" target="_top" xlink:title="Introduced for Windows compatibility. ">
<polygon fill="white" stroke="black" points="326,-263 326,-297 452,-297 452,-263 326,-263"/>
<text text-anchor="start" x="334" y="-284" font-family="Helvetica,sans-Serif" font-size="10.00">mars::main_gui::Property</text>
<text text-anchor="middle" x="389" y="-271" font-family="Helvetica,sans-Serif" font-size="10.00">Callback</text>
</a>
</g>
<!-- Node8&#45;&gt;Node6 -->
<g id="edge14" class="edge"><title>Node8&#45;&gt;Node6</title>
<path fill="none" stroke="#9a32cd" stroke-dasharray="5,2" d="M375.564,-253.725C356.848,-217.126 323.46,-151.833 307.697,-121.007"/>
<polygon fill="#9a32cd" stroke="#9a32cd" points="372.537,-255.494 380.207,-262.804 378.77,-252.307 372.537,-255.494"/>
<text text-anchor="middle" x="407.5" y="-189.5" font-family="Helvetica,sans-Serif" font-size="10.00"> propertyCallback</text>
</g>
</g>
</svg>
