<?xml version="1.0" encoding="UTF-8" standalone="no"?>
<!DOCTYPE svg PUBLIC "-//W3C//DTD SVG 1.1//EN"
 "http://www.w3.org/Graphics/SVG/1.1/DTD/svg11.dtd">
<!-- Generated by graphviz version 2.26.3 (20100126.1600)
 -->
<!-- Title: mars::sim::geom_data Pages: 1 -->
<svg width="132pt" height="116pt"
 viewBox="0.00 0.00 132.00 116.00" xmlns="http://www.w3.org/2000/svg" xmlns:xlink="http://www.w3.org/1999/xlink">
<g id="graph1" class="graph" transform="scale(1 1) rotate(0) translate(4 112)">
<title>mars::sim::geom_data</title>
<polygon fill="white" stroke="white" points="-4,5 -4,-112 129,-112 129,5 -4,5"/>
<!-- Node1 -->
<g id="node1" class="node"><title>Node1</title>
<polygon fill="#bfbfbf" stroke="black" points="5,-0.5 5,-21.5 119,-21.5 119,-0.5 5,-0.5"/>
<text text-anchor="middle" x="62" y="-8.5" font-family="Helvetica,sans-Serif" font-size="10.00">mars::sim::geom_data</text>
</g>
<!-- Node2 -->
<g id="node2" class="node"><title>Node2</title>
<a xlink:href="../../dc/d1d/structmars_1_1interfaces_1_1contact__params.html" target="_top" xlink:title="mars::interfaces::contact\l_params">
<polygon fill="white" stroke="black" points="-0.5,-73 -0.5,-107 124.5,-107 124.5,-73 -0.5,-73"/>
<text text-anchor="start" x="7.5" y="-94" font-family="Helvetica,sans-Serif" font-size="10.00">mars::interfaces::contact</text>
<text text-anchor="middle" x="62" y="-81" font-family="Helvetica,sans-Serif" font-size="10.00">_params</text>
</a>
</g>
<!-- Node2&#45;&gt;Node1 -->
<g id="edge2" class="edge"><title>Node2&#45;&gt;Node1</title>
<path fill="none" stroke="#9a32cd" stroke-dasharray="5,2" d="M62,-62.6228C62,-48.4727 62,-32.0243 62,-21.5672"/>
<polygon fill="#9a32cd" stroke="#9a32cd" points="58.5001,-62.8581 62,-72.8582 65.5001,-62.8582 58.5001,-62.8581"/>
<text text-anchor="middle" x="85" y="-44.5" font-family="Helvetica,sans-Serif" font-size="10.00"> c_params</text>
</g>
</g>
</svg>
