<?xml version="1.0" encoding="UTF-8" standalone="no"?>
<!DOCTYPE svg PUBLIC "-//W3C//DTD SVG 1.1//EN"
 "http://www.w3.org/Graphics/SVG/1.1/DTD/svg11.dtd">
<!-- Generated by graphviz version 2.26.3 (20100126.1600)
 -->
<!-- Title: mars::sim::ScanningSonarConfig Pages: 1 -->
<svg width="152pt" height="176pt"
 viewBox="0.00 0.00 152.00 176.00" xmlns="http://www.w3.org/2000/svg" xmlns:xlink="http://www.w3.org/1999/xlink">
<g id="graph1" class="graph" transform="scale(1 1) rotate(0) translate(4 172)">
<title>mars::sim::ScanningSonarConfig</title>
<polygon fill="white" stroke="white" points="-4,5 -4,-172 149,-172 149,5 -4,5"/>
<!-- Node1 -->
<g id="node1" class="node"><title>Node1</title>
<polygon fill="#bfbfbf" stroke="black" points="6,-1 6,-35 138,-35 138,-1 6,-1"/>
<text text-anchor="start" x="14" y="-22" font-family="Helvetica,sans-Serif" font-size="10.00">mars::sim::ScanningSonar</text>
<text text-anchor="middle" x="72" y="-9" font-family="Helvetica,sans-Serif" font-size="10.00">Config</text>
</g>
<!-- Node2 -->
<g id="node2" class="node"><title>Node2</title>
<a xlink:href="../../d4/d5f/classmars_1_1interfaces_1_1_base_config.html" target="_top" xlink:title="mars::interfaces::BaseConfig">
<polygon fill="white" stroke="black" points="0,-74.5 0,-95.5 144,-95.5 144,-74.5 0,-74.5"/>
<text text-anchor="middle" x="72" y="-82.5" font-family="Helvetica,sans-Serif" font-size="10.00">mars::interfaces::BaseConfig</text>
</a>
</g>
<!-- Node2&#45;&gt;Node1 -->
<g id="edge2" class="edge"><title>Node2&#45;&gt;Node1</title>
<path fill="none" stroke="midnightblue" d="M72,-64.1655C72,-54.7973 72,-43.8796 72,-35.0139"/>
<polygon fill="midnightblue" stroke="midnightblue" points="68.5001,-64.2353 72,-74.2353 75.5001,-64.2353 68.5001,-64.2353"/>
</g>
<!-- Node3 -->
<g id="node4" class="node"><title>Node3</title>
<polygon fill="white" stroke="#bfbfbf" points="51.5,-146.5 51.5,-167.5 92.5,-167.5 92.5,-146.5 51.5,-146.5"/>
<text text-anchor="middle" x="72" y="-154.5" font-family="Helvetica,sans-Serif" font-size="10.00">string</text>
</g>
<!-- Node3&#45;&gt;Node2 -->
<g id="edge4" class="edge"><title>Node3&#45;&gt;Node2</title>
<path fill="none" stroke="#9a32cd" stroke-dasharray="5,2" d="M72,-136.235C72,-122.969 72,-106.319 72,-95.6674"/>
<polygon fill="#9a32cd" stroke="#9a32cd" points="68.5001,-136.376 72,-146.376 75.5001,-136.376 68.5001,-136.376"/>
<text text-anchor="middle" x="86" y="-118.5" font-family="Helvetica,sans-Serif" font-size="10.00"> name</text>
</g>
</g>
</svg>
