<?xml version="1.0" encoding="UTF-8" standalone="no"?>
<!DOCTYPE svg PUBLIC "-//W3C//DTD SVG 1.1//EN"
 "http://www.w3.org/Graphics/SVG/1.1/DTD/svg11.dtd">
<!-- Generated by graphviz version 2.36.0 (20140111.2315)
 -->
<!-- Title: /media/kavonszadkowski/work/marsdocs/mars/viz/src/GraphicsTimer.cpp Pages: 1 -->
<svg width="288pt" height="174pt"
 viewBox="0.00 0.00 288.00 174.00" xmlns="http://www.w3.org/2000/svg" xmlns:xlink="http://www.w3.org/1999/xlink">
<g id="graph0" class="graph" transform="scale(1 1) rotate(0) translate(4 170)">
<title>/media/kavonszadkowski/work/marsdocs/mars/viz/src/GraphicsTimer.cpp</title>
<polygon fill="white" stroke="none" points="-4,4 -4,-170 284,-170 284,4 -4,4"/>
<!-- Node1 -->
<g id="node1" class="node"><title>Node1</title>
<polygon fill="#bfbfbf" stroke="black" points="85.5,-124.5 85.5,-165.5 212.5,-165.5 212.5,-124.5 85.5,-124.5"/>
<text text-anchor="start" x="93.5" y="-153.5" font-family="Helvetica,sans-Serif" font-size="10.00">/media/kavonszadkowski</text>
<text text-anchor="start" x="93.5" y="-142.5" font-family="Helvetica,sans-Serif" font-size="10.00">/work/marsdocs/mars/viz</text>
<text text-anchor="middle" x="149" y="-131.5" font-family="Helvetica,sans-Serif" font-size="10.00">/src/GraphicsTimer.cpp</text>
</g>
<!-- Node2 -->
<g id="node2" class="node"><title>Node2</title>
<g id="a_node2"><a xlink:href="../../dc/dc8/viz_2src_2_graphics_timer_8h.html" target="_top" xlink:title="GraphicsTimer.h">
<polygon fill="white" stroke="black" points="50.5,-68.5 50.5,-87.5 139.5,-87.5 139.5,-68.5 50.5,-68.5"/>
<text text-anchor="middle" x="95" y="-75.5" font-family="Helvetica,sans-Serif" font-size="10.00">GraphicsTimer.h</text>
</a>
</g>
</g>
<!-- Node1&#45;&gt;Node2 -->
<g id="edge1" class="edge"><title>Node1&#45;&gt;Node2</title>
<path fill="none" stroke="midnightblue" d="M132.798,-124.498C125.076,-115.203 115.943,-104.21 108.59,-95.3579"/>
<polygon fill="midnightblue" stroke="midnightblue" points="111.271,-93.1078 102.188,-87.6525 105.886,-97.581 111.271,-93.1078"/>
</g>
<!-- Node6 -->
<g id="node6" class="node"><title>Node6</title>
<polygon fill="white" stroke="#bfbfbf" points="158,-68.5 158,-87.5 250,-87.5 250,-68.5 158,-68.5"/>
<text text-anchor="middle" x="204" y="-75.5" font-family="Helvetica,sans-Serif" font-size="10.00">mars/utils/misc.h</text>
</g>
<!-- Node1&#45;&gt;Node6 -->
<g id="edge5" class="edge"><title>Node1&#45;&gt;Node6</title>
<path fill="none" stroke="midnightblue" d="M165.502,-124.498C173.367,-115.203 182.669,-104.21 190.159,-95.3579"/>
<polygon fill="midnightblue" stroke="midnightblue" points="192.891,-97.5472 196.679,-87.6525 187.547,-93.0256 192.891,-97.5472"/>
</g>
<!-- Node3 -->
<g id="node3" class="node"><title>Node3</title>
<polygon fill="white" stroke="#bfbfbf" points="-0.5,-6.5 -0.5,-25.5 52.5,-25.5 52.5,-6.5 -0.5,-6.5"/>
<text text-anchor="middle" x="26" y="-13.5" font-family="Helvetica,sans-Serif" font-size="10.00">QObject</text>
</g>
<!-- Node2&#45;&gt;Node3 -->
<g id="edge2" class="edge"><title>Node2&#45;&gt;Node3</title>
<path fill="none" stroke="midnightblue" d="M85.114,-68.4035C74.354,-59.047 56.929,-43.8948 43.7788,-32.4599"/>
<polygon fill="midnightblue" stroke="midnightblue" points="45.7104,-29.5013 35.8677,-25.5806 41.1171,-34.7835 45.7104,-29.5013"/>
</g>
<!-- Node4 -->
<g id="node4" class="node"><title>Node4</title>
<polygon fill="white" stroke="#bfbfbf" points="70.5,-6.5 70.5,-25.5 119.5,-25.5 119.5,-6.5 70.5,-6.5"/>
<text text-anchor="middle" x="95" y="-13.5" font-family="Helvetica,sans-Serif" font-size="10.00">QTimer</text>
</g>
<!-- Node2&#45;&gt;Node4 -->
<g id="edge3" class="edge"><title>Node2&#45;&gt;Node4</title>
<path fill="none" stroke="midnightblue" d="M95,-68.4035C95,-59.9381 95,-46.7283 95,-35.8199"/>
<polygon fill="midnightblue" stroke="midnightblue" points="98.5001,-35.5806 95,-25.5806 91.5001,-35.5806 98.5001,-35.5806"/>
</g>
<!-- Node5 -->
<g id="node5" class="node"><title>Node5</title>
<polygon fill="white" stroke="#bfbfbf" points="137.5,-1 137.5,-31 280.5,-31 280.5,-1 137.5,-1"/>
<text text-anchor="start" x="145.5" y="-19" font-family="Helvetica,sans-Serif" font-size="10.00">mars/interfaces/graphics</text>
<text text-anchor="middle" x="209" y="-8" font-family="Helvetica,sans-Serif" font-size="10.00">/GraphicsManagerInterface.h</text>
</g>
<!-- Node2&#45;&gt;Node5 -->
<g id="edge4" class="edge"><title>Node2&#45;&gt;Node5</title>
<path fill="none" stroke="midnightblue" d="M111.333,-68.4035C127.422,-59.9355 152.531,-46.7204 173.261,-35.8101"/>
<polygon fill="midnightblue" stroke="midnightblue" points="174.913,-38.8955 182.132,-31.1408 171.653,-32.7011 174.913,-38.8955"/>
</g>
</g>
</svg>
