<?xml version="1.0" encoding="UTF-8" standalone="no"?>
<!DOCTYPE svg PUBLIC "-//W3C//DTD SVG 1.1//EN"
 "http://www.w3.org/Graphics/SVG/1.1/DTD/svg11.dtd">
<!-- Generated by graphviz version 2.36.0 (20140111.2315)
 -->
<!-- Title: /media/kavonszadkowski/work/marsdocs/mars/viz/src/Viz.h Pages: 1 -->
<svg width="582pt" height="118pt"
 viewBox="0.00 0.00 582.00 118.00" xmlns="http://www.w3.org/2000/svg" xmlns:xlink="http://www.w3.org/1999/xlink">
<g id="graph0" class="graph" transform="scale(1 1) rotate(0) translate(4 114)">
<title>/media/kavonszadkowski/work/marsdocs/mars/viz/src/Viz.h</title>
<polygon fill="white" stroke="none" points="-4,4 -4,-114 578,-114 578,4 -4,4"/>
<!-- Node1 -->
<g id="node1" class="node"><title>Node1</title>
<polygon fill="#bfbfbf" stroke="black" points="218.5,-68.5 218.5,-109.5 345.5,-109.5 345.5,-68.5 218.5,-68.5"/>
<text text-anchor="start" x="226.5" y="-97.5" font-family="Helvetica,sans-Serif" font-size="10.00">/media/kavonszadkowski</text>
<text text-anchor="start" x="226.5" y="-86.5" font-family="Helvetica,sans-Serif" font-size="10.00">/work/marsdocs/mars/viz</text>
<text text-anchor="middle" x="282" y="-75.5" font-family="Helvetica,sans-Serif" font-size="10.00">/src/Viz.h</text>
</g>
<!-- Node2 -->
<g id="node2" class="node"><title>Node2</title>
<polygon fill="white" stroke="#bfbfbf" points="0,-6.5 0,-25.5 142,-25.5 142,-6.5 0,-6.5"/>
<text text-anchor="middle" x="71" y="-13.5" font-family="Helvetica,sans-Serif" font-size="10.00">lib_manager/LibInterface.hpp</text>
</g>
<!-- Node1&#45;&gt;Node2 -->
<g id="edge1" class="edge"><title>Node1&#45;&gt;Node2</title>
<path fill="none" stroke="midnightblue" d="M223.785,-68.411C186.031,-55.7071 138.091,-39.5756 106.076,-28.8027"/>
<polygon fill="midnightblue" stroke="midnightblue" points="106.868,-25.3765 96.2738,-25.5045 104.635,-32.011 106.868,-25.3765"/>
</g>
<!-- Node3 -->
<g id="node3" class="node"><title>Node3</title>
<polygon fill="white" stroke="#bfbfbf" points="160.5,-1 160.5,-31 263.5,-31 263.5,-1 160.5,-1"/>
<text text-anchor="start" x="168.5" y="-19" font-family="Helvetica,sans-Serif" font-size="10.00">mars/interfaces/sim</text>
<text text-anchor="middle" x="212" y="-8" font-family="Helvetica,sans-Serif" font-size="10.00">/ControlCenter.h</text>
</g>
<!-- Node1&#45;&gt;Node3 -->
<g id="edge2" class="edge"><title>Node1&#45;&gt;Node3</title>
<path fill="none" stroke="midnightblue" d="M262.501,-68.2225C253.308,-58.898 242.327,-47.76 232.956,-38.2552"/>
<polygon fill="midnightblue" stroke="midnightblue" points="235.364,-35.7123 225.851,-31.0485 230.379,-40.6269 235.364,-35.7123"/>
</g>
<!-- Node4 -->
<g id="node4" class="node"><title>Node4</title>
<polygon fill="white" stroke="#bfbfbf" points="282,-6.5 282,-25.5 422,-25.5 422,-6.5 282,-6.5"/>
<text text-anchor="middle" x="352" y="-13.5" font-family="Helvetica,sans-Serif" font-size="10.00">mars/interfaces/NodeData.h</text>
</g>
<!-- Node1&#45;&gt;Node4 -->
<g id="edge3" class="edge"><title>Node1&#45;&gt;Node4</title>
<path fill="none" stroke="midnightblue" d="M301.499,-68.2225C312.459,-57.1055 325.961,-43.4105 336.246,-32.979"/>
<polygon fill="midnightblue" stroke="midnightblue" points="338.86,-35.3132 343.388,-25.7349 333.875,-30.3987 338.86,-35.3132"/>
</g>
<!-- Node5 -->
<g id="node5" class="node"><title>Node5</title>
<polygon fill="white" stroke="#bfbfbf" points="440,-1 440,-31 574,-31 574,-1 440,-1"/>
<text text-anchor="start" x="448" y="-19" font-family="Helvetica,sans-Serif" font-size="10.00">mars/data_broker/Receiver</text>
<text text-anchor="middle" x="507" y="-8" font-family="Helvetica,sans-Serif" font-size="10.00">Interface.h</text>
</g>
<!-- Node1&#45;&gt;Node5 -->
<g id="edge4" class="edge"><title>Node1&#45;&gt;Node5</title>
<path fill="none" stroke="midnightblue" d="M344.078,-68.411C378.145,-57.6608 419.991,-44.4561 452.743,-34.1211"/>
<polygon fill="midnightblue" stroke="midnightblue" points="454.113,-37.3589 462.597,-31.0117 452.007,-30.6833 454.113,-37.3589"/>
</g>
</g>
</svg>
