<?xml version="1.0" encoding="UTF-8" standalone="no"?>
<!DOCTYPE svg PUBLIC "-//W3C//DTD SVG 1.1//EN"
 "http://www.w3.org/Graphics/SVG/1.1/DTD/svg11.dtd">
<!-- Generated by graphviz version 2.36.0 (20140111.2315)
 -->
<!-- Title: /media/kavonszadkowski/work/marsdocs/mars/common/gui/main_gui/src/MyQMdiArea.h Pages: 1 -->
<svg width="202pt" height="106pt"
 viewBox="0.00 0.00 202.00 106.00" xmlns="http://www.w3.org/2000/svg" xmlns:xlink="http://www.w3.org/1999/xlink">
<g id="graph0" class="graph" transform="scale(1 1) rotate(0) translate(4 102)">
<title>/media/kavonszadkowski/work/marsdocs/mars/common/gui/main_gui/src/MyQMdiArea.h</title>
<polygon fill="white" stroke="none" points="-4,4 -4,-102 198,-102 198,4 -4,4"/>
<!-- Node1 -->
<g id="node1" class="node"><title>Node1</title>
<polygon fill="#bfbfbf" stroke="black" points="27.5,-56.5 27.5,-97.5 186.5,-97.5 186.5,-56.5 27.5,-56.5"/>
<text text-anchor="start" x="35.5" y="-85.5" font-family="Helvetica,sans-Serif" font-size="10.00">/media/kavonszadkowski</text>
<text text-anchor="start" x="35.5" y="-74.5" font-family="Helvetica,sans-Serif" font-size="10.00">/work/marsdocs/mars/common</text>
<text text-anchor="middle" x="107" y="-63.5" font-family="Helvetica,sans-Serif" font-size="10.00">/gui/main_gui/src/MyQMdiArea.h</text>
</g>
<!-- Node2 -->
<g id="node2" class="node"><title>Node2</title>
<polygon fill="white" stroke="#bfbfbf" points="0,-0.5 0,-19.5 60,-19.5 60,-0.5 0,-0.5"/>
<text text-anchor="middle" x="30" y="-7.5" font-family="Helvetica,sans-Serif" font-size="10.00">QMdiArea</text>
</g>
<!-- Node1&#45;&gt;Node2 -->
<g id="edge1" class="edge"><title>Node1&#45;&gt;Node2</title>
<path fill="none" stroke="midnightblue" d="M83.8975,-56.4979C72.4325,-46.8196 58.7864,-35.3002 48.0938,-26.274"/>
<polygon fill="midnightblue" stroke="midnightblue" points="50.149,-23.4286 40.2499,-19.6525 45.6336,-28.7775 50.149,-23.4286"/>
</g>
<!-- Node3 -->
<g id="node3" class="node"><title>Node3</title>
<polygon fill="white" stroke="#bfbfbf" points="78.5,-0.5 78.5,-19.5 135.5,-19.5 135.5,-0.5 78.5,-0.5"/>
<text text-anchor="middle" x="107" y="-7.5" font-family="Helvetica,sans-Serif" font-size="10.00">QPixmap</text>
</g>
<!-- Node1&#45;&gt;Node3 -->
<g id="edge2" class="edge"><title>Node1&#45;&gt;Node3</title>
<path fill="none" stroke="midnightblue" d="M107,-56.4979C107,-48.0653 107,-38.2351 107,-29.874"/>
<polygon fill="midnightblue" stroke="midnightblue" points="110.5,-29.6525 107,-19.6525 103.5,-29.6525 110.5,-29.6525"/>
</g>
<!-- Node4 -->
<g id="node4" class="node"><title>Node4</title>
<polygon fill="white" stroke="#bfbfbf" points="153.5,-0.5 153.5,-19.5 194.5,-19.5 194.5,-0.5 153.5,-0.5"/>
<text text-anchor="middle" x="174" y="-7.5" font-family="Helvetica,sans-Serif" font-size="10.00">string</text>
</g>
<!-- Node1&#45;&gt;Node4 -->
<g id="edge3" class="edge"><title>Node1&#45;&gt;Node4</title>
<path fill="none" stroke="midnightblue" d="M127.102,-56.4979C136.881,-47.0113 148.483,-35.7557 157.7,-26.8131"/>
<polygon fill="midnightblue" stroke="midnightblue" points="160.341,-29.1277 165.081,-19.6525 155.467,-24.1036 160.341,-29.1277"/>
</g>
</g>
</svg>
