<?xml version="1.0" encoding="UTF-8" standalone="no"?>
<!DOCTYPE svg PUBLIC "-//W3C//DTD SVG 1.1//EN"
 "http://www.w3.org/Graphics/SVG/1.1/DTD/svg11.dtd">
<!-- Generated by graphviz version 2.36.0 (20140111.2315)
 -->
<!-- Title: mars::gui::Dialog_Import_Mesh Pages: 1 -->
<svg width="988pt" height="1113pt"
 viewBox="0.00 0.00 988.00 1113.00" xmlns="http://www.w3.org/2000/svg" xmlns:xlink="http://www.w3.org/1999/xlink">
<g id="graph0" class="graph" transform="scale(1 1) rotate(0) translate(4 1109)">
<title>mars::gui::Dialog_Import_Mesh</title>
<polygon fill="white" stroke="none" points="-4,4 -4,-1109 984,-1109 984,4 -4,4"/>
<!-- Node1 -->
<g id="node1" class="node"><title>Node1</title>
<polygon fill="#bfbfbf" stroke="black" points="826.5,-674.5 826.5,-693.5 979.5,-693.5 979.5,-674.5 826.5,-674.5"/>
<text text-anchor="middle" x="903" y="-681.5" font-family="Helvetica,sans-Serif" font-size="10.00">mars::gui::Dialog_Import_Mesh</text>
</g>
<!-- Node2 -->
<g id="node2" class="node"><title>Node2</title>
<g id="a_node2"><a xlink:href="../../d4/dcf/classmars_1_1main__gui_1_1_base_widget.html" target="_top" xlink:title="mars::main_gui::BaseWidget">
<polygon fill="white" stroke="black" points="612.5,-954.5 612.5,-973.5 755.5,-973.5 755.5,-954.5 612.5,-954.5"/>
<text text-anchor="middle" x="684" y="-961.5" font-family="Helvetica,sans-Serif" font-size="10.00">mars::main_gui::BaseWidget</text>
</a>
</g>
</g>
<!-- Node2&#45;&gt;Node1 -->
<g id="edge1" class="edge"><title>Node2&#45;&gt;Node1</title>
<path fill="none" stroke="midnightblue" d="M700.561,-946.559C724.423,-919.591 771.156,-865.876 808,-818 842.836,-772.734 880.917,-715.943 895.672,-693.63"/>
<polygon fill="midnightblue" stroke="midnightblue" points="697.681,-944.532 693.659,-954.334 702.916,-949.179 697.681,-944.532"/>
</g>
<!-- Node3 -->
<g id="node3" class="node"><title>Node3</title>
<polygon fill="white" stroke="#bfbfbf" points="326.5,-1085.5 326.5,-1104.5 381.5,-1104.5 381.5,-1085.5 326.5,-1085.5"/>
<text text-anchor="middle" x="354" y="-1092.5" font-family="Helvetica,sans-Serif" font-size="10.00">QWidget</text>
</g>
<!-- Node3&#45;&gt;Node2 -->
<g id="edge2" class="edge"><title>Node3&#45;&gt;Node2</title>
<path fill="none" stroke="midnightblue" d="M391.635,-1097.2C440.634,-1098.54 528.881,-1095.3 594,-1061 633.835,-1040.02 665.065,-993.886 677.345,-973.738"/>
<polygon fill="midnightblue" stroke="midnightblue" points="391.625,-1093.69 381.507,-1096.83 391.377,-1100.69 391.625,-1093.69"/>
</g>
<!-- Node4 -->
<g id="node4" class="node"><title>Node4</title>
<g id="a_node4"><a xlink:href="../../d4/d1a/classmars_1_1cfg__manager_1_1_c_f_g_client.html" target="_top" xlink:title="mars::cfg_manager::\lCFGClient">
<polygon fill="white" stroke="black" points="300.5,-1036 300.5,-1066 407.5,-1066 407.5,-1036 300.5,-1036"/>
<text text-anchor="start" x="308.5" y="-1054" font-family="Helvetica,sans-Serif" font-size="10.00">mars::cfg_manager::</text>
<text text-anchor="middle" x="354" y="-1043" font-family="Helvetica,sans-Serif" font-size="10.00">CFGClient</text>
</a>
</g>
</g>
<!-- Node4&#45;&gt;Node2 -->
<g id="edge3" class="edge"><title>Node4&#45;&gt;Node2</title>
<path fill="none" stroke="midnightblue" d="M418.045,-1057.7C467.592,-1060.55 537.441,-1059.11 594,-1037 629.177,-1023.25 660.923,-990.011 675.131,-973.557"/>
<polygon fill="midnightblue" stroke="midnightblue" points="417.999,-1054.19 407.793,-1057.03 417.545,-1061.18 417.999,-1054.19"/>
</g>
<!-- Node5 -->
<g id="node5" class="node"><title>Node5</title>
<g id="a_node5"><a xlink:href="../../dc/dc3/structmars_1_1cfg__manager_1_1cfg_property_struct.html" target="_top" xlink:title="mars::cfg_manager::\lcfgPropertyStruct">
<polygon fill="white" stroke="black" points="300.5,-978 300.5,-1008 407.5,-1008 407.5,-978 300.5,-978"/>
<text text-anchor="start" x="308.5" y="-996" font-family="Helvetica,sans-Serif" font-size="10.00">mars::cfg_manager::</text>
<text text-anchor="middle" x="354" y="-985" font-family="Helvetica,sans-Serif" font-size="10.00">cfgPropertyStruct</text>
</a>
</g>
</g>
<!-- Node5&#45;&gt;Node2 -->
<g id="edge4" class="edge"><title>Node5&#45;&gt;Node2</title>
<path fill="none" stroke="#9a32cd" stroke-dasharray="5,2" d="M417.87,-985.378C428.583,-984.177 439.605,-983.003 450,-982 504.418,-976.749 566.104,-972.039 612.329,-968.755"/>
<polygon fill="#9a32cd" stroke="#9a32cd" points="417.264,-981.924 407.724,-986.532 418.056,-988.879 417.264,-981.924"/>
<text text-anchor="middle" x="522" y="-1029" font-family="Helvetica,sans-Serif" font-size="10.00"> wTop</text>
<text text-anchor="middle" x="522" y="-1018" font-family="Helvetica,sans-Serif" font-size="10.00">wWidth</text>
<text text-anchor="middle" x="522" y="-1007" font-family="Helvetica,sans-Serif" font-size="10.00">wHeight</text>
<text text-anchor="middle" x="522" y="-996" font-family="Helvetica,sans-Serif" font-size="10.00">wLeft</text>
<text text-anchor="middle" x="522" y="-985" font-family="Helvetica,sans-Serif" font-size="10.00">hidden</text>
</g>
<!-- Node6 -->
<g id="node6" class="node"><title>Node6</title>
<polygon fill="white" stroke="#bfbfbf" points="60.5,-938.5 60.5,-957.5 101.5,-957.5 101.5,-938.5 60.5,-938.5"/>
<text text-anchor="middle" x="81" y="-945.5" font-family="Helvetica,sans-Serif" font-size="10.00">string</text>
</g>
<!-- Node6&#45;&gt;Node2 -->
<g id="edge8" class="edge"><title>Node6&#45;&gt;Node2</title>
<path fill="none" stroke="#9a32cd" stroke-dasharray="5,2" d="M111.85,-948.795C203.208,-951.227 480.771,-958.616 612.357,-962.119"/>
<polygon fill="#9a32cd" stroke="#9a32cd" points="111.744,-945.291 101.655,-948.523 111.558,-952.288 111.744,-945.291"/>
<text text-anchor="middle" x="354" y="-960" font-family="Helvetica,sans-Serif" font-size="10.00"> widgetName</text>
</g>
<!-- Node6&#45;&gt;Node5 -->
<g id="edge5" class="edge"><title>Node6&#45;&gt;Node5</title>
<path fill="none" stroke="#9a32cd" stroke-dasharray="5,2" d="M112.012,-952.984C157.417,-960.523 244.209,-974.935 300.301,-984.249"/>
<polygon fill="#9a32cd" stroke="#9a32cd" points="112.366,-949.494 101.927,-951.309 111.219,-956.4 112.366,-949.494"/>
<text text-anchor="middle" x="219" y="-980" font-family="Helvetica,sans-Serif" font-size="10.00"> sValue</text>
</g>
<!-- Node12 -->
<g id="node12" class="node"><title>Node12</title>
<g id="a_node12"><a xlink:href="../../d9/d1d/classmars_1_1interfaces_1_1_material_data.html" target="_top" xlink:title="MaterialData is a struct to exchange material information of nodes. ">
<polygon fill="white" stroke="black" points="279.5,-783.5 279.5,-802.5 428.5,-802.5 428.5,-783.5 279.5,-783.5"/>
<text text-anchor="middle" x="354" y="-790.5" font-family="Helvetica,sans-Serif" font-size="10.00">mars::interfaces::MaterialData</text>
</a>
</g>
</g>
<!-- Node6&#45;&gt;Node12 -->
<g id="edge13" class="edge"><title>Node6&#45;&gt;Node12</title>
<path fill="none" stroke="#9a32cd" stroke-dasharray="5,2" d="M104.092,-932.765C123.422,-919.971 152.614,-901.921 180,-890 213.139,-875.574 225.847,-883.505 258,-867 292.594,-849.242 327.068,-818.224 343.335,-802.589"/>
<polygon fill="#9a32cd" stroke="#9a32cd" points="102.048,-929.922 95.6971,-938.402 105.95,-935.733 102.048,-929.922"/>
<text text-anchor="middle" x="219" y="-926" font-family="Helvetica,sans-Serif" font-size="10.00"> normalmap</text>
<text text-anchor="middle" x="219" y="-915" font-family="Helvetica,sans-Serif" font-size="10.00">bumpmap</text>
<text text-anchor="middle" x="219" y="-904" font-family="Helvetica,sans-Serif" font-size="10.00">name</text>
<text text-anchor="middle" x="219" y="-893" font-family="Helvetica,sans-Serif" font-size="10.00">texturename</text>
</g>
<!-- Node7 -->
<g id="node7" class="node"><title>Node7</title>
<g id="a_node7"><a xlink:href="../../d4/da6/classmars_1_1cfg__manager_1_1_c_f_g_manager_interface.html" target="_top" xlink:title="mars::cfg_manager::\lCFGManagerInterface">
<polygon fill="white" stroke="black" points="297.5,-519 297.5,-549 410.5,-549 410.5,-519 297.5,-519"/>
<text text-anchor="start" x="305.5" y="-537" font-family="Helvetica,sans-Serif" font-size="10.00">mars::cfg_manager::</text>
<text text-anchor="middle" x="354" y="-526" font-family="Helvetica,sans-Serif" font-size="10.00">CFGManagerInterface</text>
</a>
</g>
</g>
<!-- Node7&#45;&gt;Node2 -->
<g id="edge6" class="edge"><title>Node7&#45;&gt;Node2</title>
<path fill="none" stroke="#9a32cd" stroke-dasharray="5,2" d="M419.481,-547.079C424.221,-550.03 428.504,-553.624 432,-558 463.446,-597.362 426.012,-739.696 450,-784 498.311,-873.226 611.789,-932.304 660.328,-954.341"/>
<polygon fill="#9a32cd" stroke="#9a32cd" points="421.018,-543.934 410.53,-542.435 417.794,-550.147 421.018,-543.934"/>
<text text-anchor="middle" x="522" y="-921" font-family="Helvetica,sans-Serif" font-size="10.00"> cfg</text>
</g>
<!-- Node18 -->
<g id="node18" class="node"><title>Node18</title>
<g id="a_node18"><a xlink:href="../../d7/d4e/classmars_1_1interfaces_1_1_control_center.html" target="_top" xlink:title="The declaration of the ControlCenter. ">
<polygon fill="white" stroke="black" points="621.5,-253 621.5,-283 746.5,-283 746.5,-253 621.5,-253"/>
<text text-anchor="start" x="629.5" y="-271" font-family="Helvetica,sans-Serif" font-size="10.00">mars::interfaces::Control</text>
<text text-anchor="middle" x="684" y="-260" font-family="Helvetica,sans-Serif" font-size="10.00">Center</text>
</a>
</g>
</g>
<!-- Node7&#45;&gt;Node18 -->
<g id="edge30" class="edge"><title>Node7&#45;&gt;Node18</title>
<path fill="none" stroke="#9a32cd" stroke-dasharray="5,2" d="M405.522,-515.443C419.812,-510.469 435.439,-505.288 450,-501 513.181,-482.395 543.346,-508.097 594,-466 653.13,-416.86 674.537,-320.305 680.794,-283.107"/>
<polygon fill="#9a32cd" stroke="#9a32cd" points="404.142,-512.218 395.872,-518.839 406.467,-518.821 404.142,-512.218"/>
<text text-anchor="middle" x="522" y="-504" font-family="Helvetica,sans-Serif" font-size="10.00"> cfg</text>
</g>
<!-- Node8 -->
<g id="node8" class="node"><title>Node8</title>
<polygon fill="white" stroke="#bfbfbf" points="47,-463.5 47,-482.5 115,-482.5 115,-463.5 47,-463.5"/>
<text text-anchor="middle" x="81" y="-470.5" font-family="Helvetica,sans-Serif" font-size="10.00">LibInterface</text>
</g>
<!-- Node8&#45;&gt;Node7 -->
<g id="edge7" class="edge"><title>Node8&#45;&gt;Node7</title>
<path fill="none" stroke="midnightblue" d="M118.448,-485.817C136.754,-491.924 159.374,-498.974 180,-504 218.797,-513.455 263.189,-521.089 297.29,-526.29"/>
<polygon fill="midnightblue" stroke="midnightblue" points="119.356,-482.43 108.762,-482.54 117.113,-489.06 119.356,-482.43"/>
</g>
<!-- Node19 -->
<g id="node19" class="node"><title>Node19</title>
<g id="a_node19"><a xlink:href="../../d1/d93/classmars_1_1interfaces_1_1_graphics_manager_interface.html" target="_top" xlink:title="mars::interfaces::Graphics\lManagerInterface">
<polygon fill="white" stroke="black" points="288,-431 288,-461 420,-461 420,-431 288,-431"/>
<text text-anchor="start" x="296" y="-449" font-family="Helvetica,sans-Serif" font-size="10.00">mars::interfaces::Graphics</text>
<text text-anchor="middle" x="354" y="-438" font-family="Helvetica,sans-Serif" font-size="10.00">ManagerInterface</text>
</a>
</g>
</g>
<!-- Node8&#45;&gt;Node19 -->
<g id="edge26" class="edge"><title>Node8&#45;&gt;Node19</title>
<path fill="none" stroke="midnightblue" d="M125.282,-468.688C169.133,-464.319 237.505,-457.507 287.895,-452.486"/>
<polygon fill="midnightblue" stroke="midnightblue" points="124.834,-465.215 115.23,-469.689 125.528,-472.181 124.834,-465.215"/>
</g>
<!-- Node23 -->
<g id="node23" class="node"><title>Node23</title>
<g id="a_node23"><a xlink:href="../../d6/d2e/classmars_1_1data__broker_1_1_data_broker_interface.html" target="_top" xlink:title="The interface every DataBroker should implement. ">
<polygon fill="white" stroke="black" points="302,-284 302,-314 406,-314 406,-284 302,-284"/>
<text text-anchor="start" x="310" y="-302" font-family="Helvetica,sans-Serif" font-size="10.00">mars::data_broker::</text>
<text text-anchor="middle" x="354" y="-291" font-family="Helvetica,sans-Serif" font-size="10.00">DataBrokerInterface</text>
</a>
</g>
</g>
<!-- Node8&#45;&gt;Node23 -->
<g id="edge32" class="edge"><title>Node8&#45;&gt;Node23</title>
<path fill="none" stroke="midnightblue" d="M98.8438,-456.523C130.815,-426.084 203.596,-360.71 276,-323 284.072,-318.796 293.009,-315.179 301.852,-312.123"/>
<polygon fill="midnightblue" stroke="midnightblue" points="96.401,-454.017 91.6198,-463.471 101.253,-459.062 96.401,-454.017"/>
</g>
<!-- Node31 -->
<g id="node31" class="node"><title>Node31</title>
<g id="a_node31"><a xlink:href="../../d7/df2/classmars_1_1main__gui_1_1_gui_interface.html" target="_top" xlink:title="The abstract GuiInterface class provides the menu and docking functionality of the GUI...">
<polygon fill="white" stroke="black" points="450.5,-521.5 450.5,-540.5 593.5,-540.5 593.5,-521.5 450.5,-521.5"/>
<text text-anchor="middle" x="522" y="-528.5" font-family="Helvetica,sans-Serif" font-size="10.00">mars::main_gui::GuiInterface</text>
</a>
</g>
</g>
<!-- Node8&#45;&gt;Node31 -->
<g id="edge41" class="edge"><title>Node8&#45;&gt;Node31</title>
<path fill="none" stroke="midnightblue" d="M125.461,-473.742C192.258,-475.713 323.777,-482.895 432,-509 440.344,-511.013 441.774,-513.549 450,-516 456.641,-517.978 463.705,-519.799 470.705,-521.438"/>
<polygon fill="midnightblue" stroke="midnightblue" points="125.401,-470.239 115.31,-473.468 125.212,-477.237 125.401,-470.239"/>
</g>
<!-- Node9 -->
<g id="node9" class="node"><title>Node9</title>
<g id="a_node9"><a xlink:href="../../dd/d38/classmars_1_1main__gui_1_1_property_callback.html" target="_top" xlink:title="Introduced for Windows compatibility. ">
<polygon fill="white" stroke="black" points="18,-717 18,-747 144,-747 144,-717 18,-717"/>
<text text-anchor="start" x="26" y="-735" font-family="Helvetica,sans-Serif" font-size="10.00">mars::main_gui::Property</text>
<text text-anchor="middle" x="81" y="-724" font-family="Helvetica,sans-Serif" font-size="10.00">Callback</text>
</a>
</g>
</g>
<!-- Node9&#45;&gt;Node1 -->
<g id="edge9" class="edge"><title>Node9&#45;&gt;Node1</title>
<path fill="none" stroke="midnightblue" d="M154.501,-740.096C278.675,-752.214 539.601,-770.028 756,-734 802.25,-726.3 853.494,-705.762 881.291,-693.537"/>
<polygon fill="midnightblue" stroke="midnightblue" points="154.653,-736.594 144.356,-739.089 153.961,-743.56 154.653,-736.594"/>
</g>
<!-- Node14 -->
<g id="node14" class="node"><title>Node14</title>
<g id="a_node14"><a xlink:href="../../de/d11/classmars_1_1main__gui_1_1_property_dialog.html" target="_top" xlink:title="The PropertyDialog provides the QtProperty functionality. ">
<polygon fill="white" stroke="black" points="291,-671 291,-701 417,-701 417,-671 291,-671"/>
<text text-anchor="start" x="299" y="-689" font-family="Helvetica,sans-Serif" font-size="10.00">mars::main_gui::Property</text>
<text text-anchor="middle" x="354" y="-678" font-family="Helvetica,sans-Serif" font-size="10.00">Dialog</text>
</a>
</g>
</g>
<!-- Node9&#45;&gt;Node14 -->
<g id="edge17" class="edge"><title>Node9&#45;&gt;Node14</title>
<path fill="none" stroke="#9a32cd" stroke-dasharray="5,2" d="M154.181,-719.748C196.703,-712.53 249.959,-703.49 290.648,-696.584"/>
<polygon fill="#9a32cd" stroke="#9a32cd" points="153.446,-716.322 144.173,-721.447 154.618,-723.224 153.446,-716.322"/>
<text text-anchor="middle" x="219" y="-718" font-family="Helvetica,sans-Serif" font-size="10.00"> propertyCallback</text>
</g>
<!-- Node10 -->
<g id="node10" class="node"><title>Node10</title>
<g id="a_node10"><a xlink:href="../../dd/d96/classmars_1_1gui_1_1_dialog___create___material.html" target="_top" xlink:title="Creates the &quot;Create Material&quot; Dialog window. ">
<polygon fill="white" stroke="black" points="621.5,-695 621.5,-725 746.5,-725 746.5,-695 621.5,-695"/>
<text text-anchor="start" x="629.5" y="-713" font-family="Helvetica,sans-Serif" font-size="10.00">mars::gui::Dialog_Create</text>
<text text-anchor="middle" x="684" y="-702" font-family="Helvetica,sans-Serif" font-size="10.00">_Material</text>
</a>
</g>
</g>
<!-- Node10&#45;&gt;Node1 -->
<g id="edge10" class="edge"><title>Node10&#45;&gt;Node1</title>
<path fill="none" stroke="#9a32cd" stroke-dasharray="5,2" d="M756.687,-701.411C779.03,-698.734 803.736,-695.774 826.342,-693.065"/>
<polygon fill="#9a32cd" stroke="#9a32cd" points="756.116,-697.954 746.603,-702.619 756.948,-704.904 756.116,-697.954"/>
<text text-anchor="middle" x="791" y="-703" font-family="Helvetica,sans-Serif" font-size="10.00"> dcm</text>
</g>
<!-- Node11 -->
<g id="node11" class="node"><title>Node11</title>
<polygon fill="white" stroke="#bfbfbf" points="327.5,-617.5 327.5,-636.5 380.5,-636.5 380.5,-617.5 327.5,-617.5"/>
<text text-anchor="middle" x="354" y="-624.5" font-family="Helvetica,sans-Serif" font-size="10.00">QObject</text>
</g>
<!-- Node11&#45;&gt;Node10 -->
<g id="edge11" class="edge"><title>Node11&#45;&gt;Node10</title>
<path fill="none" stroke="midnightblue" d="M390.853,-624.725C449.322,-621.724 561.914,-619.122 594,-641 609.773,-651.755 598.283,-666.723 612,-680 618.25,-686.049 625.903,-690.961 633.845,-694.922"/>
<polygon fill="midnightblue" stroke="midnightblue" points="390.392,-621.245 380.597,-625.284 390.773,-628.235 390.392,-621.245"/>
</g>
<!-- Node16 -->
<g id="node16" class="node"><title>Node16</title>
<g id="a_node16"><a xlink:href="../../d0/d4e/classmars_1_1gui_1_1_widget___node___options.html" target="_top" xlink:title="A widget to show the actual properties of a node to the user. ">
<polygon fill="white" stroke="black" points="623,-591 623,-621 745,-621 745,-591 623,-591"/>
<text text-anchor="start" x="631" y="-609" font-family="Helvetica,sans-Serif" font-size="10.00">mars::gui::Widget_Node</text>
<text text-anchor="middle" x="684" y="-598" font-family="Helvetica,sans-Serif" font-size="10.00">_Options</text>
</a>
</g>
</g>
<!-- Node11&#45;&gt;Node16 -->
<g id="edge19" class="edge"><title>Node11&#45;&gt;Node16</title>
<path fill="none" stroke="midnightblue" d="M390.712,-622.245C408.501,-620.035 430.353,-617.557 450,-616 508.525,-611.362 575.502,-608.77 622.581,-607.394"/>
<polygon fill="midnightblue" stroke="midnightblue" points="390.237,-618.778 380.756,-623.507 391.117,-625.722 390.237,-618.778"/>
</g>
<!-- Node12&#45;&gt;Node1 -->
<g id="edge22" class="edge"><title>Node12&#45;&gt;Node1</title>
<path fill="none" stroke="#9a32cd" stroke-dasharray="5,2" d="M427.795,-803.672C520.234,-814.004 682.76,-821.239 808,-768 846.873,-751.475 880.56,-712.123 894.786,-693.755"/>
<polygon fill="#9a32cd" stroke="#9a32cd" points="428.037,-800.177 417.7,-802.5 427.23,-807.13 428.037,-800.177"/>
<text text-anchor="middle" x="684" y="-813" font-family="Helvetica,sans-Serif" font-size="10.00"> material</text>
</g>
<!-- Node12&#45;&gt;Node10 -->
<g id="edge12" class="edge"><title>Node12&#45;&gt;Node10</title>
<path fill="none" stroke="#9a32cd" stroke-dasharray="5,2" d="M402.343,-781.02C460.79,-766.23 560.222,-741.069 623.697,-725.007"/>
<polygon fill="#9a32cd" stroke="#9a32cd" points="401.462,-777.633 392.626,-783.479 403.179,-784.419 401.462,-777.633"/>
<text text-anchor="middle" x="522" y="-772" font-family="Helvetica,sans-Serif" font-size="10.00"> material</text>
</g>
<!-- Node13 -->
<g id="node13" class="node"><title>Node13</title>
<g id="a_node13"><a xlink:href="../../d4/d7c/classmars_1_1utils_1_1_color.html" target="_top" xlink:title="mars::utils::Color">
<polygon fill="white" stroke="black" points="35,-768.5 35,-787.5 127,-787.5 127,-768.5 35,-768.5"/>
<text text-anchor="middle" x="81" y="-775.5" font-family="Helvetica,sans-Serif" font-size="10.00">mars::utils::Color</text>
</a>
</g>
</g>
<!-- Node13&#45;&gt;Node12 -->
<g id="edge14" class="edge"><title>Node13&#45;&gt;Node12</title>
<path fill="none" stroke="#9a32cd" stroke-dasharray="5,2" d="M137.68,-776.319C172.343,-775.768 217.825,-775.941 258,-779 270.8,-779.975 284.494,-781.63 297.387,-783.467"/>
<polygon fill="#9a32cd" stroke="#9a32cd" points="137.221,-772.827 127.287,-776.511 137.35,-779.826 137.221,-772.827"/>
<text text-anchor="middle" x="219" y="-859" font-family="Helvetica,sans-Serif" font-size="10.00"> ambientBack</text>
<text text-anchor="middle" x="219" y="-848" font-family="Helvetica,sans-Serif" font-size="10.00">specularBack</text>
<text text-anchor="middle" x="219" y="-837" font-family="Helvetica,sans-Serif" font-size="10.00">specularFront</text>
<text text-anchor="middle" x="219" y="-826" font-family="Helvetica,sans-Serif" font-size="10.00">emissionBack</text>
<text text-anchor="middle" x="219" y="-815" font-family="Helvetica,sans-Serif" font-size="10.00">ambientFront</text>
<text text-anchor="middle" x="219" y="-804" font-family="Helvetica,sans-Serif" font-size="10.00">diffuseBack</text>
<text text-anchor="middle" x="219" y="-793" font-family="Helvetica,sans-Serif" font-size="10.00">diffuseFront</text>
<text text-anchor="middle" x="219" y="-782" font-family="Helvetica,sans-Serif" font-size="10.00">emissionFront</text>
</g>
<!-- Node14&#45;&gt;Node1 -->
<g id="edge23" class="edge"><title>Node14&#45;&gt;Node1</title>
<path fill="none" stroke="#9a32cd" stroke-dasharray="5,2" d="M427.178,-681.056C507.463,-676.206 641.017,-670.067 756,-674 778.853,-674.782 803.682,-676.25 826.274,-677.825"/>
<polygon fill="#9a32cd" stroke="#9a32cd" points="426.941,-677.564 417.174,-681.671 427.37,-684.551 426.941,-677.564"/>
<text text-anchor="middle" x="684" y="-677" font-family="Helvetica,sans-Serif" font-size="10.00"> pDialog</text>
</g>
<!-- Node14&#45;&gt;Node10 -->
<g id="edge15" class="edge"><title>Node14&#45;&gt;Node10</title>
<path fill="none" stroke="#9a32cd" stroke-dasharray="5,2" d="M427.133,-694.808C434.846,-695.613 442.581,-696.364 450,-697 507.926,-701.965 574.123,-705.449 621.117,-707.551"/>
<polygon fill="#9a32cd" stroke="#9a32cd" points="427.352,-691.311 417.035,-693.722 426.603,-698.271 427.352,-691.311"/>
<text text-anchor="middle" x="522" y="-710" font-family="Helvetica,sans-Serif" font-size="10.00"> parent</text>
</g>
<!-- Node14&#45;&gt;Node16 -->
<g id="edge21" class="edge"><title>Node14&#45;&gt;Node16</title>
<path fill="none" stroke="#9a32cd" stroke-dasharray="5,2" d="M421.175,-668.354C430.834,-665.846 440.666,-663.329 450,-661 452.145,-660.465 554.488,-636.316 622.808,-620.199"/>
<polygon fill="#9a32cd" stroke="#9a32cd" points="419.993,-665.045 411.201,-670.957 421.761,-671.818 419.993,-665.045"/>
<text text-anchor="middle" x="522" y="-664" font-family="Helvetica,sans-Serif" font-size="10.00"> parent</text>
</g>
<!-- Node15 -->
<g id="node15" class="node"><title>Node15</title>
<polygon fill="white" stroke="#bfbfbf" points="55,-676.5 55,-695.5 107,-695.5 107,-676.5 55,-676.5"/>
<text text-anchor="middle" x="81" y="-683.5" font-family="Helvetica,sans-Serif" font-size="10.00">QDialog</text>
</g>
<!-- Node15&#45;&gt;Node14 -->
<g id="edge16" class="edge"><title>Node15&#45;&gt;Node14</title>
<path fill="none" stroke="midnightblue" d="M117.2,-686C161.158,-686 237.117,-686 290.933,-686"/>
<polygon fill="midnightblue" stroke="midnightblue" points="117.009,-682.5 107.009,-686 117.009,-689.5 117.009,-682.5"/>
</g>
<!-- Node16&#45;&gt;Node1 -->
<g id="edge18" class="edge"><title>Node16&#45;&gt;Node1</title>
<path fill="none" stroke="#9a32cd" stroke-dasharray="5,2" d="M755.195,-623.212C772.631,-628.085 791.148,-633.777 808,-640 835.214,-650.049 865.377,-664.862 884.016,-674.471"/>
<polygon fill="#9a32cd" stroke="#9a32cd" points="755.644,-619.706 745.075,-620.44 753.795,-626.457 755.644,-619.706"/>
<text text-anchor="middle" x="791" y="-643" font-family="Helvetica,sans-Serif" font-size="10.00"> wno</text>
</g>
<!-- Node17 -->
<g id="node17" class="node"><title>Node17</title>
<g id="a_node17"><a xlink:href="../../dc/d1d/structmars_1_1interfaces_1_1contact__params.html" target="_top" xlink:title="mars::interfaces::contact\l_params">
<polygon fill="white" stroke="black" points="291.5,-568 291.5,-598 416.5,-598 416.5,-568 291.5,-568"/>
<text text-anchor="start" x="299.5" y="-586" font-family="Helvetica,sans-Serif" font-size="10.00">mars::interfaces::contact</text>
<text text-anchor="middle" x="354" y="-575" font-family="Helvetica,sans-Serif" font-size="10.00">_params</text>
</a>
</g>
</g>
<!-- Node17&#45;&gt;Node16 -->
<g id="edge20" class="edge"><title>Node17&#45;&gt;Node16</title>
<path fill="none" stroke="#9a32cd" stroke-dasharray="5,2" d="M426.694,-584.653C474.222,-586.153 537.923,-588.939 594,-594 603.317,-594.841 613.155,-595.947 622.759,-597.147"/>
<polygon fill="#9a32cd" stroke="#9a32cd" points="426.604,-581.148 416.502,-584.343 426.391,-588.145 426.604,-581.148"/>
<text text-anchor="middle" x="522" y="-597" font-family="Helvetica,sans-Serif" font-size="10.00"> my_cp</text>
</g>
<!-- Node18&#45;&gt;Node1 -->
<g id="edge24" class="edge"><title>Node18&#45;&gt;Node1</title>
<path fill="none" stroke="#9a32cd" stroke-dasharray="5,2" d="M697.814,-292.566C739.387,-372.263 869.407,-621.518 896.873,-674.171"/>
<polygon fill="#9a32cd" stroke="#9a32cd" points="700.709,-290.547 692.981,-283.299 694.502,-293.784 700.709,-290.547"/>
<text text-anchor="middle" x="791" y="-504" font-family="Helvetica,sans-Serif" font-size="10.00"> control</text>
</g>
<!-- Node19&#45;&gt;Node18 -->
<g id="edge25" class="edge"><title>Node19&#45;&gt;Node18</title>
<path fill="none" stroke="#9a32cd" stroke-dasharray="5,2" d="M430.184,-450.75C480.368,-450.343 545.751,-442.594 594,-411 641.705,-379.763 668.373,-313.143 678.374,-283.168"/>
<polygon fill="#9a32cd" stroke="#9a32cd" points="430.045,-447.249 420.039,-450.734 430.034,-454.249 430.045,-447.249"/>
<text text-anchor="middle" x="522" y="-454" font-family="Helvetica,sans-Serif" font-size="10.00"> graphics</text>
</g>
<!-- Node20 -->
<g id="node20" class="node"><title>Node20</title>
<g id="a_node20"><a xlink:href="../../d2/da9/classmars_1_1interfaces_1_1_controller_manager_interface.html" target="_top" xlink:title="&quot;ControllerManagerInterface&quot; declares the interfaces for all controller operations that are used for ...">
<polygon fill="white" stroke="black" points="286.5,-235 286.5,-265 421.5,-265 421.5,-235 286.5,-235"/>
<text text-anchor="start" x="294.5" y="-253" font-family="Helvetica,sans-Serif" font-size="10.00">mars::interfaces::Controller</text>
<text text-anchor="middle" x="354" y="-242" font-family="Helvetica,sans-Serif" font-size="10.00">ManagerInterface</text>
</a>
</g>
</g>
<!-- Node20&#45;&gt;Node18 -->
<g id="edge27" class="edge"><title>Node20&#45;&gt;Node18</title>
<path fill="none" stroke="#9a32cd" stroke-dasharray="5,2" d="M431.599,-251.654C478.522,-252.973 539.779,-255.241 594,-259 602.831,-259.612 612.142,-260.398 621.281,-261.25"/>
<polygon fill="#9a32cd" stroke="#9a32cd" points="431.602,-248.153 421.51,-251.379 431.411,-255.151 431.602,-248.153"/>
<text text-anchor="middle" x="522" y="-262" font-family="Helvetica,sans-Serif" font-size="10.00"> controllers</text>
</g>
<!-- Node21 -->
<g id="node21" class="node"><title>Node21</title>
<g id="a_node21"><a xlink:href="../../d6/d60/classmars_1_1interfaces_1_1_joint_manager_interface.html" target="_top" xlink:title="Interface class for the node organization. ">
<polygon fill="white" stroke="black" points="278,-186 278,-216 430,-216 430,-186 278,-186"/>
<text text-anchor="start" x="286" y="-204" font-family="Helvetica,sans-Serif" font-size="10.00">mars::interfaces::JointManager</text>
<text text-anchor="middle" x="354" y="-193" font-family="Helvetica,sans-Serif" font-size="10.00">Interface</text>
</a>
</g>
</g>
<!-- Node21&#45;&gt;Node18 -->
<g id="edge28" class="edge"><title>Node21&#45;&gt;Node18</title>
<path fill="none" stroke="#9a32cd" stroke-dasharray="5,2" d="M440.118,-210.57C486.067,-216.638 543.552,-225.689 594,-238 610.316,-241.982 627.91,-247.616 643.112,-252.928"/>
<polygon fill="#9a32cd" stroke="#9a32cd" points="440.565,-207.098 430.198,-209.282 439.664,-214.04 440.565,-207.098"/>
<text text-anchor="middle" x="522" y="-241" font-family="Helvetica,sans-Serif" font-size="10.00"> joints</text>
</g>
<!-- Node22 -->
<g id="node22" class="node"><title>Node22</title>
<g id="a_node22"><a xlink:href="../../df/d82/classmars_1_1interfaces_1_1_entity_manager_interface.html" target="_top" xlink:title="mars::interfaces::Entity\lManagerInterface">
<polygon fill="white" stroke="black" points="294.5,-137 294.5,-167 413.5,-167 413.5,-137 294.5,-137"/>
<text text-anchor="start" x="302.5" y="-155" font-family="Helvetica,sans-Serif" font-size="10.00">mars::interfaces::Entity</text>
<text text-anchor="middle" x="354" y="-144" font-family="Helvetica,sans-Serif" font-size="10.00">ManagerInterface</text>
</a>
</g>
</g>
<!-- Node22&#45;&gt;Node18 -->
<g id="edge29" class="edge"><title>Node22&#45;&gt;Node18</title>
<path fill="none" stroke="#9a32cd" stroke-dasharray="5,2" d="M424.065,-156.584C473.274,-161.894 539.993,-173.342 594,-198 623.506,-211.471 651.949,-236.657 668.442,-252.86"/>
<polygon fill="#9a32cd" stroke="#9a32cd" points="424.145,-153.074 413.842,-155.541 423.435,-160.038 424.145,-153.074"/>
<text text-anchor="middle" x="522" y="-201" font-family="Helvetica,sans-Serif" font-size="10.00"> entities</text>
</g>
<!-- Node23&#45;&gt;Node18 -->
<g id="edge31" class="edge"><title>Node23&#45;&gt;Node18</title>
<path fill="none" stroke="#9a32cd" stroke-dasharray="5,2" d="M416.48,-293.189C475.093,-287.65 562.877,-279.353 621.498,-273.813"/>
<polygon fill="#9a32cd" stroke="#9a32cd" points="415.876,-289.731 406.25,-294.156 416.535,-296.7 415.876,-289.731"/>
<text text-anchor="middle" x="522" y="-304" font-family="Helvetica,sans-Serif" font-size="10.00"> dataBroker</text>
<text text-anchor="middle" x="522" y="-293" font-family="Helvetica,sans-Serif" font-size="10.00">theDataBroker</text>
</g>
<!-- Node24 -->
<g id="node24" class="node"><title>Node24</title>
<g id="a_node24"><a xlink:href="../../db/da9/classmars_1_1interfaces_1_1_sensor_manager_interface.html" target="_top" xlink:title="&quot;SensorManagerInterface&quot; declares the interfaces for all sensor operations that are used for the comm...">
<polygon fill="white" stroke="black" points="292,-49 292,-79 416,-79 416,-49 292,-49"/>
<text text-anchor="start" x="300" y="-67" font-family="Helvetica,sans-Serif" font-size="10.00">mars::interfaces::Sensor</text>
<text text-anchor="middle" x="354" y="-56" font-family="Helvetica,sans-Serif" font-size="10.00">ManagerInterface</text>
</a>
</g>
</g>
<!-- Node24&#45;&gt;Node18 -->
<g id="edge33" class="edge"><title>Node24&#45;&gt;Node18</title>
<path fill="none" stroke="#9a32cd" stroke-dasharray="5,2" d="M426.324,-55.4926C477.402,-53.1527 545.454,-58.0976 594,-92 650.566,-131.503 673.224,-217.859 680.307,-252.837"/>
<polygon fill="#9a32cd" stroke="#9a32cd" points="425.808,-52.016 416.021,-56.0728 426.202,-59.0049 425.808,-52.016"/>
<text text-anchor="middle" x="522" y="-95" font-family="Helvetica,sans-Serif" font-size="10.00"> sensors</text>
</g>
<!-- Node25 -->
<g id="node25" class="node"><title>Node25</title>
<g id="a_node25"><a xlink:href="../../db/de9/classmars_1_1interfaces_1_1_motor_manager_interface.html" target="_top" xlink:title="&quot;MotorManagerInterface&quot; declares the interfaces for all motor operations that are used for the commun...">
<polygon fill="white" stroke="black" points="276.5,-0 276.5,-30 431.5,-30 431.5,-0 276.5,-0"/>
<text text-anchor="start" x="284.5" y="-18" font-family="Helvetica,sans-Serif" font-size="10.00">mars::interfaces::MotorManager</text>
<text text-anchor="middle" x="354" y="-7" font-family="Helvetica,sans-Serif" font-size="10.00">Interface</text>
</a>
</g>
</g>
<!-- Node25&#45;&gt;Node18 -->
<g id="edge34" class="edge"><title>Node25&#45;&gt;Node18</title>
<path fill="none" stroke="#9a32cd" stroke-dasharray="5,2" d="M441.667,-3.69753C490.994,-1.96399 551.27,-8.33035 594,-41 664.114,-94.6064 679.056,-211.47 682.186,-252.992"/>
<polygon fill="#9a32cd" stroke="#9a32cd" points="441.463,-0.203135 431.637,-4.16521 441.789,-7.19554 441.463,-0.203135"/>
<text text-anchor="middle" x="522" y="-44" font-family="Helvetica,sans-Serif" font-size="10.00"> motors</text>
</g>
<!-- Node26 -->
<g id="node26" class="node"><title>Node26</title>
<g id="a_node26"><a xlink:href="../../d9/d6a/classmars_1_1interfaces_1_1_load_center.html" target="_top" xlink:title="mars::interfaces::LoadCenter">
<polygon fill="white" stroke="black" points="282.5,-98.5 282.5,-117.5 425.5,-117.5 425.5,-98.5 282.5,-98.5"/>
<text text-anchor="middle" x="354" y="-105.5" font-family="Helvetica,sans-Serif" font-size="10.00">mars::interfaces::LoadCenter</text>
</a>
</g>
</g>
<!-- Node26&#45;&gt;Node18 -->
<g id="edge35" class="edge"><title>Node26&#45;&gt;Node18</title>
<path fill="none" stroke="#9a32cd" stroke-dasharray="5,2" d="M436.009,-105.754C484.971,-107.907 546.824,-117.134 594,-146 636.267,-171.862 664.634,-226.034 676.588,-252.619"/>
<polygon fill="#9a32cd" stroke="#9a32cd" points="435.882,-102.247 425.766,-105.397 435.638,-109.243 435.882,-102.247"/>
<text text-anchor="middle" x="522" y="-149" font-family="Helvetica,sans-Serif" font-size="10.00"> loadCenter</text>
</g>
<!-- Node27 -->
<g id="node27" class="node"><title>Node27</title>
<g id="a_node27"><a xlink:href="../../d1/d51/classmars_1_1interfaces_1_1_load_heightmap_interface.html" target="_top" xlink:title="mars::interfaces::LoadHeightmap\lInterface">
<polygon fill="white" stroke="black" points="0.5,-69 0.5,-99 161.5,-99 161.5,-69 0.5,-69"/>
<text text-anchor="start" x="8.5" y="-87" font-family="Helvetica,sans-Serif" font-size="10.00">mars::interfaces::LoadHeightmap</text>
<text text-anchor="middle" x="81" y="-76" font-family="Helvetica,sans-Serif" font-size="10.00">Interface</text>
</a>
</g>
</g>
<!-- Node27&#45;&gt;Node26 -->
<g id="edge36" class="edge"><title>Node27&#45;&gt;Node26</title>
<path fill="none" stroke="#9a32cd" stroke-dasharray="5,2" d="M171.854,-91.9575C207.838,-95.1443 248.686,-98.7618 282.472,-101.754"/>
<polygon fill="#9a32cd" stroke="#9a32cd" points="172.113,-88.4669 161.843,-91.071 171.495,-95.4396 172.113,-88.4669"/>
<text text-anchor="middle" x="219" y="-103" font-family="Helvetica,sans-Serif" font-size="10.00"> loadHeightmap</text>
</g>
<!-- Node28 -->
<g id="node28" class="node"><title>Node28</title>
<g id="a_node28"><a xlink:href="../../d7/d02/classmars_1_1interfaces_1_1_load_mesh_interface.html" target="_top" xlink:title="mars::interfaces::LoadMesh\lInterface">
<polygon fill="white" stroke="black" points="12,-118 12,-148 150,-148 150,-118 12,-118"/>
<text text-anchor="start" x="20" y="-136" font-family="Helvetica,sans-Serif" font-size="10.00">mars::interfaces::LoadMesh</text>
<text text-anchor="middle" x="81" y="-125" font-family="Helvetica,sans-Serif" font-size="10.00">Interface</text>
</a>
</g>
</g>
<!-- Node28&#45;&gt;Node26 -->
<g id="edge37" class="edge"><title>Node28&#45;&gt;Node26</title>
<path fill="none" stroke="#9a32cd" stroke-dasharray="5,2" d="M160.155,-125.79C198.625,-122.241 244.656,-117.995 282.097,-114.541"/>
<polygon fill="#9a32cd" stroke="#9a32cd" points="159.671,-122.32 150.035,-126.724 160.314,-129.29 159.671,-122.32"/>
<text text-anchor="middle" x="219" y="-127" font-family="Helvetica,sans-Serif" font-size="10.00"> loadMesh</text>
</g>
<!-- Node29 -->
<g id="node29" class="node"><title>Node29</title>
<g id="a_node29"><a xlink:href="../../d7/d4c/classmars_1_1interfaces_1_1_node_manager_interface.html" target="_top" xlink:title="&quot;NodeManagerInterface&quot; declares the interfaces for all NodeOperations that are used for the communica...">
<polygon fill="white" stroke="black" points="277,-382 277,-412 431,-412 431,-382 277,-382"/>
<text text-anchor="start" x="285" y="-400" font-family="Helvetica,sans-Serif" font-size="10.00">mars::interfaces::NodeManager</text>
<text text-anchor="middle" x="354" y="-389" font-family="Helvetica,sans-Serif" font-size="10.00">Interface</text>
</a>
</g>
</g>
<!-- Node29&#45;&gt;Node18 -->
<g id="edge38" class="edge"><title>Node29&#45;&gt;Node18</title>
<path fill="none" stroke="#9a32cd" stroke-dasharray="5,2" d="M441.404,-395.794C488.721,-392.046 547.097,-382.202 594,-358 628.565,-340.164 657.879,-303.968 672.679,-283.327"/>
<polygon fill="#9a32cd" stroke="#9a32cd" points="440.901,-392.321 431.175,-396.524 441.399,-399.303 440.901,-392.321"/>
<text text-anchor="middle" x="522" y="-399" font-family="Helvetica,sans-Serif" font-size="10.00"> nodes</text>
</g>
<!-- Node30 -->
<g id="node30" class="node"><title>Node30</title>
<g id="a_node30"><a xlink:href="../../dc/de5/classmars_1_1interfaces_1_1_simulator_interface.html" target="_top" xlink:title="mars::interfaces::Simulator\lInterface">
<polygon fill="white" stroke="black" points="287,-333 287,-363 421,-363 421,-333 287,-333"/>
<text text-anchor="start" x="295" y="-351" font-family="Helvetica,sans-Serif" font-size="10.00">mars::interfaces::Simulator</text>
<text text-anchor="middle" x="354" y="-340" font-family="Helvetica,sans-Serif" font-size="10.00">Interface</text>
</a>
</g>
</g>
<!-- Node30&#45;&gt;Node18 -->
<g id="edge39" class="edge"><title>Node30&#45;&gt;Node18</title>
<path fill="none" stroke="#9a32cd" stroke-dasharray="5,2" d="M431.337,-344.802C479.046,-341.098 541.23,-333.128 594,-316 618.045,-308.195 643.199,-293.984 660.607,-283.042"/>
<polygon fill="#9a32cd" stroke="#9a32cd" points="430.797,-341.332 421.078,-345.55 431.306,-348.313 430.797,-341.332"/>
<text text-anchor="middle" x="522" y="-346" font-family="Helvetica,sans-Serif" font-size="10.00"> sim</text>
</g>
<!-- Node31&#45;&gt;Node1 -->
<g id="edge40" class="edge"><title>Node31&#45;&gt;Node1</title>
<path fill="none" stroke="#9a32cd" stroke-dasharray="5,2" d="M603.602,-534.661C649.816,-539.133 707.995,-548.884 756,-570 815.463,-596.155 871.988,-652.013 893.189,-674.414"/>
<polygon fill="#9a32cd" stroke="#9a32cd" points="603.906,-531.174 593.632,-533.759 603.276,-538.146 603.906,-531.174"/>
<text text-anchor="middle" x="684" y="-573" font-family="Helvetica,sans-Serif" font-size="10.00"> mainGui</text>
</g>
</g>
</svg>
