<?xml version="1.0" encoding="UTF-8" standalone="no"?>
<!DOCTYPE svg PUBLIC "-//W3C//DTD SVG 1.1//EN"
 "http://www.w3.org/Graphics/SVG/1.1/DTD/svg11.dtd">
<!-- Generated by graphviz version 2.36.0 (20140111.2315)
 -->
<!-- Title: /media/kavonszadkowski/work/marsdocs/mars/plugins/connexion_plugin/linux/ConnexionHID.cpp Pages: 1 -->
<svg width="618pt" height="162pt"
 viewBox="0.00 0.00 618.00 162.00" xmlns="http://www.w3.org/2000/svg" xmlns:xlink="http://www.w3.org/1999/xlink">
<g id="graph0" class="graph" transform="scale(1 1) rotate(0) translate(4 158)">
<title>/media/kavonszadkowski/work/marsdocs/mars/plugins/connexion_plugin/linux/ConnexionHID.cpp</title>
<polygon fill="white" stroke="none" points="-4,4 -4,-158 614,-158 614,4 -4,4"/>
<!-- Node1 -->
<g id="node1" class="node"><title>Node1</title>
<polygon fill="#bfbfbf" stroke="black" points="228,-112.5 228,-153.5 432,-153.5 432,-112.5 228,-112.5"/>
<text text-anchor="start" x="236" y="-141.5" font-family="Helvetica,sans-Serif" font-size="10.00">/media/kavonszadkowski</text>
<text text-anchor="start" x="236" y="-130.5" font-family="Helvetica,sans-Serif" font-size="10.00">/work/marsdocs/mars/plugins</text>
<text text-anchor="middle" x="330" y="-119.5" font-family="Helvetica,sans-Serif" font-size="10.00">/connexion_plugin/linux/ConnexionHID.cpp</text>
</g>
<!-- Node2 -->
<g id="node2" class="node"><title>Node2</title>
<g id="a_node2"><a xlink:href="../../df/de6/_connexion_h_i_d_8h.html" target="_top" xlink:title="../ConnexionHID.h">
<polygon fill="white" stroke="black" points="0,-56.5 0,-75.5 98,-75.5 98,-56.5 0,-56.5"/>
<text text-anchor="middle" x="49" y="-63.5" font-family="Helvetica,sans-Serif" font-size="10.00">../ConnexionHID.h</text>
</a>
</g>
</g>
<!-- Node1&#45;&gt;Node2 -->
<g id="edge1" class="edge"><title>Node1&#45;&gt;Node2</title>
<path fill="none" stroke="midnightblue" d="M245.691,-112.498C196.66,-101.156 136.697,-87.2859 95.9604,-77.8627"/>
<polygon fill="midnightblue" stroke="midnightblue" points="96.5677,-74.4108 86.0361,-75.5671 94.99,-81.2308 96.5677,-74.4108"/>
</g>
<!-- Node3 -->
<g id="node3" class="node"><title>Node3</title>
<polygon fill="white" stroke="#bfbfbf" points="14,-0.5 14,-19.5 160,-19.5 160,-0.5 14,-0.5"/>
<text text-anchor="middle" x="87" y="-7.5" font-family="Helvetica,sans-Serif" font-size="10.00">mars/interfaces/MARSDefs.h</text>
</g>
<!-- Node1&#45;&gt;Node3 -->
<g id="edge3" class="edge"><title>Node1&#45;&gt;Node3</title>
<path fill="none" stroke="midnightblue" d="M231.212,-112.46C202.34,-104.035 171.67,-92.2587 146,-76 126.168,-63.4393 108.842,-42.4622 98.1858,-27.744"/>
<polygon fill="midnightblue" stroke="midnightblue" points="101.041,-25.7198 92.45,-19.5198 95.2998,-29.7242 101.041,-25.7198"/>
</g>
<!-- Node4 -->
<g id="node4" class="node"><title>Node4</title>
<polygon fill="white" stroke="#bfbfbf" points="154.5,-56.5 154.5,-75.5 223.5,-75.5 223.5,-56.5 154.5,-56.5"/>
<text text-anchor="middle" x="189" y="-63.5" font-family="Helvetica,sans-Serif" font-size="10.00">linux/input.h</text>
</g>
<!-- Node1&#45;&gt;Node4 -->
<g id="edge4" class="edge"><title>Node1&#45;&gt;Node4</title>
<path fill="none" stroke="midnightblue" d="M287.695,-112.498C264.83,-101.957 237.228,-89.2326 217.034,-79.9235"/>
<polygon fill="midnightblue" stroke="midnightblue" points="218.316,-76.6605 207.769,-75.6525 215.385,-83.0176 218.316,-76.6605"/>
</g>
<!-- Node5 -->
<g id="node5" class="node"><title>Node5</title>
<polygon fill="white" stroke="#bfbfbf" points="241.5,-56.5 241.5,-75.5 290.5,-75.5 290.5,-56.5 241.5,-56.5"/>
<text text-anchor="middle" x="266" y="-63.5" font-family="Helvetica,sans-Serif" font-size="10.00">dirent.h</text>
</g>
<!-- Node1&#45;&gt;Node5 -->
<g id="edge5" class="edge"><title>Node1&#45;&gt;Node5</title>
<path fill="none" stroke="midnightblue" d="M310.798,-112.498C301.457,-103.011 290.375,-91.7557 281.57,-82.8131"/>
<polygon fill="midnightblue" stroke="midnightblue" points="284.029,-80.3226 274.519,-75.6525 279.041,-85.2338 284.029,-80.3226"/>
</g>
<!-- Node6 -->
<g id="node6" class="node"><title>Node6</title>
<polygon fill="white" stroke="#bfbfbf" points="308.5,-56.5 308.5,-75.5 351.5,-75.5 351.5,-56.5 308.5,-56.5"/>
<text text-anchor="middle" x="330" y="-63.5" font-family="Helvetica,sans-Serif" font-size="10.00">cstdio</text>
</g>
<!-- Node1&#45;&gt;Node6 -->
<g id="edge6" class="edge"><title>Node1&#45;&gt;Node6</title>
<path fill="none" stroke="midnightblue" d="M330,-112.498C330,-104.065 330,-94.2351 330,-85.874"/>
<polygon fill="midnightblue" stroke="midnightblue" points="333.5,-85.6525 330,-75.6525 326.5,-85.6525 333.5,-85.6525"/>
</g>
<!-- Node7 -->
<g id="node7" class="node"><title>Node7</title>
<polygon fill="white" stroke="#bfbfbf" points="370,-56.5 370,-75.5 414,-75.5 414,-56.5 370,-56.5"/>
<text text-anchor="middle" x="392" y="-63.5" font-family="Helvetica,sans-Serif" font-size="10.00">fcntl.h</text>
</g>
<!-- Node1&#45;&gt;Node7 -->
<g id="edge7" class="edge"><title>Node1&#45;&gt;Node7</title>
<path fill="none" stroke="midnightblue" d="M348.602,-112.498C357.559,-103.107 368.17,-91.9829 376.658,-83.0848"/>
<polygon fill="midnightblue" stroke="midnightblue" points="379.377,-85.3043 383.747,-75.6525 374.312,-80.4729 379.377,-85.3043"/>
</g>
<!-- Node8 -->
<g id="node8" class="node"><title>Node8</title>
<polygon fill="white" stroke="#bfbfbf" points="432.5,-56.5 432.5,-75.5 483.5,-75.5 483.5,-56.5 432.5,-56.5"/>
<text text-anchor="middle" x="458" y="-63.5" font-family="Helvetica,sans-Serif" font-size="10.00">unistd.h</text>
</g>
<!-- Node1&#45;&gt;Node8 -->
<g id="edge8" class="edge"><title>Node1&#45;&gt;Node8</title>
<path fill="none" stroke="midnightblue" d="M368.404,-112.498C388.878,-102.101 413.536,-89.5792 431.797,-80.3062"/>
<polygon fill="midnightblue" stroke="midnightblue" points="433.63,-83.301 440.961,-75.6525 430.46,-77.0596 433.63,-83.301"/>
</g>
<!-- Node9 -->
<g id="node9" class="node"><title>Node9</title>
<polygon fill="white" stroke="#bfbfbf" points="502,-56.5 502,-75.5 548,-75.5 548,-56.5 502,-56.5"/>
<text text-anchor="middle" x="525" y="-63.5" font-family="Helvetica,sans-Serif" font-size="10.00">cstring</text>
</g>
<!-- Node1&#45;&gt;Node9 -->
<g id="edge9" class="edge"><title>Node1&#45;&gt;Node9</title>
<path fill="none" stroke="midnightblue" d="M388.506,-112.498C422.277,-101.241 463.521,-87.493 491.776,-78.0746"/>
<polygon fill="midnightblue" stroke="midnightblue" points="493.18,-81.296 501.56,-74.8133 490.967,-74.6552 493.18,-81.296"/>
</g>
<!-- Node10 -->
<g id="node10" class="node"><title>Node10</title>
<polygon fill="white" stroke="#bfbfbf" points="566,-56.5 566,-75.5 610,-75.5 610,-56.5 566,-56.5"/>
<text text-anchor="middle" x="588" y="-63.5" font-family="Helvetica,sans-Serif" font-size="10.00">cmath</text>
</g>
<!-- Node1&#45;&gt;Node10 -->
<g id="edge10" class="edge"><title>Node1&#45;&gt;Node10</title>
<path fill="none" stroke="midnightblue" d="M412.693,-112.456C453.289,-102.657 503.128,-90.3286 555.811,-76.2473"/>
<polygon fill="midnightblue" stroke="midnightblue" points="556.929,-79.5711 565.679,-73.5978 555.114,-72.8105 556.929,-79.5711"/>
</g>
<!-- Node2&#45;&gt;Node3 -->
<g id="edge2" class="edge"><title>Node2&#45;&gt;Node3</title>
<path fill="none" stroke="midnightblue" d="M55.2749,-56.083C60.6425,-48.4554 68.5176,-37.2645 75.0787,-27.9408"/>
<polygon fill="midnightblue" stroke="midnightblue" points="77.9492,-29.9434 80.8418,-19.7511 72.2245,-25.9149 77.9492,-29.9434"/>
</g>
</g>
</svg>
