<?xml version="1.0" encoding="UTF-8" standalone="no"?>
<!DOCTYPE svg PUBLIC "-//W3C//DTD SVG 1.1//EN"
 "http://www.w3.org/Graphics/SVG/1.1/DTD/svg11.dtd">
<!-- Generated by graphviz version 2.26.3 (20100126.1600)
 -->
<!-- Title: /home/kavonszadkowski/limes&#45;dev/simulation/mars/common/gui/cfg_manager_gui/src/MainCfgGui.h Pages: 1 -->
<svg width="1186pt" height="200pt"
 viewBox="0.00 0.00 1186.00 200.00" xmlns="http://www.w3.org/2000/svg" xmlns:xlink="http://www.w3.org/1999/xlink">
<g id="graph1" class="graph" transform="scale(1 1) rotate(0) translate(4 196)">
<title>/home/kavonszadkowski/limes&#45;dev/simulation/mars/common/gui/cfg_manager_gui/src/MainCfgGui.h</title>
<polygon fill="white" stroke="white" points="-4,5 -4,-196 1183,-196 1183,5 -4,5"/>
<!-- Node1 -->
<g id="node1" class="node"><title>Node1</title>
<polygon fill="#bfbfbf" stroke="black" points="577.5,-131 577.5,-191 734.5,-191 734.5,-131 577.5,-131"/>
<text text-anchor="start" x="585.5" y="-178" font-family="Helvetica,sans-Serif" font-size="10.00">/home/kavonszadkowski</text>
<text text-anchor="start" x="585.5" y="-165" font-family="Helvetica,sans-Serif" font-size="10.00">/limes&#45;dev/simulation</text>
<text text-anchor="start" x="585.5" y="-152" font-family="Helvetica,sans-Serif" font-size="10.00">/mars/common/gui/cfg_manager</text>
<text text-anchor="middle" x="656" y="-139" font-family="Helvetica,sans-Serif" font-size="10.00">_gui/src/MainCfgGui.h</text>
</g>
<!-- Node2 -->
<g id="node3" class="node"><title>Node2</title>
<a xlink:href="../../db/d28/_cfg_widget_8h.html" target="_top" xlink:title="CfgWidget.h">
<polygon fill="white" stroke="black" points="207.5,-72.5 207.5,-93.5 278.5,-93.5 278.5,-72.5 207.5,-72.5"/>
<text text-anchor="middle" x="243" y="-80.5" font-family="Helvetica,sans-Serif" font-size="10.00">CfgWidget.h</text>
</a>
</g>
<!-- Node1&#45;&gt;Node2 -->
<g id="edge2" class="edge"><title>Node1&#45;&gt;Node2</title>
<path fill="none" stroke="midnightblue" d="M577.369,-147.435C503.531,-134.482 390.055,-114.023 292,-94 290.911,-93.7776 289.809,-93.5501 288.697,-93.3185"/>
<polygon fill="midnightblue" stroke="midnightblue" points="289.07,-89.8192 278.56,-91.1528 287.608,-96.6648 289.07,-89.8192"/>
</g>
<!-- Node5 -->
<g id="node9" class="node"><title>Node5</title>
<polygon fill="white" stroke="#bfbfbf" points="-0.5,-7.5 -0.5,-28.5 50.5,-28.5 50.5,-7.5 -0.5,-7.5"/>
<text text-anchor="middle" x="25" y="-15.5" font-family="Helvetica,sans-Serif" font-size="10.00">QMutex</text>
</g>
<!-- Node1&#45;&gt;Node5 -->
<g id="edge30" class="edge"><title>Node1&#45;&gt;Node5</title>
<path fill="none" stroke="midnightblue" d="M577.159,-155.392C485.096,-147.484 328.866,-129.825 199,-94 145.494,-79.2398 87.099,-51.0178 53.3935,-33.4278"/>
<polygon fill="midnightblue" stroke="midnightblue" points="54.6394,-30.1277 44.1623,-28.5527 51.3705,-36.3176 54.6394,-30.1277"/>
</g>
<!-- Node6 -->
<g id="node11" class="node"><title>Node6</title>
<polygon fill="white" stroke="#bfbfbf" points="467.5,-1 467.5,-35 626.5,-35 626.5,-1 467.5,-1"/>
<text text-anchor="start" x="475.5" y="-22" font-family="Helvetica,sans-Serif" font-size="10.00">mars/cfg_manager/CFGManager</text>
<text text-anchor="middle" x="547" y="-9" font-family="Helvetica,sans-Serif" font-size="10.00">Interface.h</text>
</g>
<!-- Node1&#45;&gt;Node6 -->
<g id="edge22" class="edge"><title>Node1&#45;&gt;Node6</title>
<path fill="none" stroke="midnightblue" d="M577.387,-156.27C489.777,-149.165 356.272,-132.237 325,-94 318.81,-86.4312 318.958,-79.6877 325,-72 329.368,-66.4424 397.719,-50.328 457.435,-37.1382"/>
<polygon fill="midnightblue" stroke="midnightblue" points="458.301,-40.5315 467.315,-34.9649 456.797,-33.695 458.301,-40.5315"/>
</g>
<!-- Node9 -->
<g id="node17" class="node"><title>Node9</title>
<polygon fill="white" stroke="#bfbfbf" points="333.5,-72.5 333.5,-93.5 478.5,-93.5 478.5,-72.5 333.5,-72.5"/>
<text text-anchor="middle" x="406" y="-80.5" font-family="Helvetica,sans-Serif" font-size="10.00">mars/main_gui/GuiInterface.h</text>
</g>
<!-- Node1&#45;&gt;Node9 -->
<g id="edge16" class="edge"><title>Node1&#45;&gt;Node9</title>
<path fill="none" stroke="midnightblue" d="M577.242,-136.427C535.166,-123.3 484.953,-107.633 449.819,-96.6714"/>
<polygon fill="midnightblue" stroke="midnightblue" points="450.466,-93.207 439.877,-93.5697 448.381,-99.8893 450.466,-93.207"/>
</g>
<!-- Node10 -->
<g id="node19" class="node"><title>Node10</title>
<polygon fill="white" stroke="#bfbfbf" points="496,-72.5 496,-93.5 650,-93.5 650,-72.5 496,-72.5"/>
<text text-anchor="middle" x="573" y="-80.5" font-family="Helvetica,sans-Serif" font-size="10.00">mars/main_gui/MenuInterface.h</text>
</g>
<!-- Node1&#45;&gt;Node10 -->
<g id="edge18" class="edge"><title>Node1&#45;&gt;Node10</title>
<path fill="none" stroke="midnightblue" d="M623.672,-130.62C612.862,-120.461 601.177,-109.48 591.756,-100.626"/>
<polygon fill="midnightblue" stroke="midnightblue" points="594.127,-98.0511 584.443,-93.7535 589.333,-103.152 594.127,-98.0511"/>
</g>
<!-- Node11 -->
<g id="node21" class="node"><title>Node11</title>
<polygon fill="white" stroke="#bfbfbf" points="668,-72.5 668,-93.5 810,-93.5 810,-72.5 668,-72.5"/>
<text text-anchor="middle" x="739" y="-80.5" font-family="Helvetica,sans-Serif" font-size="10.00">lib_manager/LibInterface.hpp</text>
</g>
<!-- Node1&#45;&gt;Node11 -->
<g id="edge20" class="edge"><title>Node1&#45;&gt;Node11</title>
<path fill="none" stroke="midnightblue" d="M688.328,-130.62C699.138,-120.461 710.823,-109.48 720.244,-100.626"/>
<polygon fill="midnightblue" stroke="midnightblue" points="722.667,-103.152 727.557,-93.7535 717.873,-98.0511 722.667,-103.152"/>
</g>
<!-- Node12 -->
<g id="node24" class="node"><title>Node12</title>
<polygon fill="white" stroke="#bfbfbf" points="827.5,-72.5 827.5,-93.5 982.5,-93.5 982.5,-72.5 827.5,-72.5"/>
<text text-anchor="middle" x="905" y="-80.5" font-family="Helvetica,sans-Serif" font-size="10.00">mars/cfg_manager/CFGClient.h</text>
</g>
<!-- Node1&#45;&gt;Node12 -->
<g id="edge24" class="edge"><title>Node1&#45;&gt;Node12</title>
<path fill="none" stroke="midnightblue" d="M734.785,-136.32C776.671,-123.199 826.574,-107.567 861.478,-96.6333"/>
<polygon fill="midnightblue" stroke="midnightblue" points="862.858,-99.869 871.354,-93.5397 860.765,-93.1891 862.858,-99.869"/>
</g>
<!-- Node13 -->
<g id="node26" class="node"><title>Node13</title>
<polygon fill="white" stroke="#bfbfbf" points="999.5,-72.5 999.5,-93.5 1040.5,-93.5 1040.5,-72.5 999.5,-72.5"/>
<text text-anchor="middle" x="1020" y="-80.5" font-family="Helvetica,sans-Serif" font-size="10.00">string</text>
</g>
<!-- Node1&#45;&gt;Node13 -->
<g id="edge26" class="edge"><title>Node1&#45;&gt;Node13</title>
<path fill="none" stroke="midnightblue" d="M734.721,-149.034C800.832,-138.122 897.744,-120.113 989.509,-94.1367"/>
<polygon fill="midnightblue" stroke="midnightblue" points="990.582,-97.4699 999.23,-91.3488 988.653,-90.7411 990.582,-97.4699"/>
</g>
<!-- Node14 -->
<g id="node28" class="node"><title>Node14</title>
<polygon fill="white" stroke="#bfbfbf" points="1057.5,-72.5 1057.5,-93.5 1086.5,-93.5 1086.5,-72.5 1057.5,-72.5"/>
<text text-anchor="middle" x="1072" y="-80.5" font-family="Helvetica,sans-Serif" font-size="10.00">list</text>
</g>
<!-- Node1&#45;&gt;Node14 -->
<g id="edge28" class="edge"><title>Node1&#45;&gt;Node14</title>
<path fill="none" stroke="midnightblue" d="M734.691,-154.062C812.853,-145.719 935.755,-128.675 1047.42,-93.9188"/>
<polygon fill="midnightblue" stroke="midnightblue" points="1048.67,-97.1918 1057.15,-90.8344 1046.56,-90.5188 1048.67,-97.1918"/>
</g>
<!-- Node15 -->
<g id="node31" class="node"><title>Node15</title>
<polygon fill="white" stroke="#bfbfbf" points="1104,-72.5 1104,-93.5 1178,-93.5 1178,-72.5 1104,-72.5"/>
<text text-anchor="middle" x="1141" y="-80.5" font-family="Helvetica,sans-Serif" font-size="10.00">QTimerEvent</text>
</g>
<!-- Node1&#45;&gt;Node15 -->
<g id="edge32" class="edge"><title>Node1&#45;&gt;Node15</title>
<path fill="none" stroke="midnightblue" d="M734.85,-150.98C820.833,-139.598 962.642,-119.496 1094.06,-94.0706"/>
<polygon fill="midnightblue" stroke="midnightblue" points="1094.76,-97.5002 1103.9,-92.1518 1093.42,-90.6295 1094.76,-97.5002"/>
</g>
<!-- Node3 -->
<g id="node5" class="node"><title>Node3</title>
<polygon fill="white" stroke="#bfbfbf" points="67.5,-7.5 67.5,-28.5 122.5,-28.5 122.5,-7.5 67.5,-7.5"/>
<text text-anchor="middle" x="95" y="-15.5" font-family="Helvetica,sans-Serif" font-size="10.00">QWidget</text>
</g>
<!-- Node2&#45;&gt;Node3 -->
<g id="edge4" class="edge"><title>Node2&#45;&gt;Node3</title>
<path fill="none" stroke="midnightblue" d="M216.535,-72.472C193.703,-63.2523 159.936,-49.2879 131,-36 128.936,-35.0523 126.816,-34.0551 124.688,-33.0363"/>
<polygon fill="midnightblue" stroke="midnightblue" points="125.968,-29.7663 115.447,-28.5173 122.893,-36.0547 125.968,-29.7663"/>
</g>
<!-- Node4 -->
<g id="node7" class="node"><title>Node4</title>
<polygon fill="white" stroke="#bfbfbf" points="139.5,-7.5 139.5,-28.5 214.5,-28.5 214.5,-7.5 139.5,-7.5"/>
<text text-anchor="middle" x="177" y="-15.5" font-family="Helvetica,sans-Serif" font-size="10.00">QCloseEvent</text>
</g>
<!-- Node2&#45;&gt;Node4 -->
<g id="edge6" class="edge"><title>Node2&#45;&gt;Node4</title>
<path fill="none" stroke="midnightblue" d="M232.101,-72.2666C222.01,-62.328 206.815,-47.3635 194.936,-35.6645"/>
<polygon fill="midnightblue" stroke="midnightblue" points="197.277,-33.0569 187.696,-28.5337 192.365,-38.0443 197.277,-33.0569"/>
</g>
<!-- Node2&#45;&gt;Node5 -->
<g id="edge8" class="edge"><title>Node2&#45;&gt;Node5</title>
<path fill="none" stroke="midnightblue" d="M207.296,-76.4941C169.647,-69.0347 108.98,-55.2988 59,-36 56.7395,-35.1271 54.4368,-34.1401 52.1492,-33.0889"/>
<polygon fill="midnightblue" stroke="midnightblue" points="53.4912,-29.8475 42.9782,-28.5335 50.3772,-36.1168 53.4912,-29.8475"/>
</g>
<!-- Node2&#45;&gt;Node6 -->
<g id="edge10" class="edge"><title>Node2&#45;&gt;Node6</title>
<path fill="none" stroke="midnightblue" d="M278.583,-74.9587C283.097,-73.9542 287.656,-72.9476 292,-72 346.91,-60.0231 408.558,-46.9579 457.483,-36.6791"/>
<polygon fill="midnightblue" stroke="midnightblue" points="458.34,-40.0756 467.407,-34.5956 456.901,-33.225 458.34,-40.0756"/>
</g>
<!-- Node7 -->
<g id="node13" class="node"><title>Node7</title>
<polygon fill="white" stroke="#bfbfbf" points="232,-7.5 232,-28.5 388,-28.5 388,-7.5 232,-7.5"/>
<text text-anchor="middle" x="310" y="-15.5" font-family="Helvetica,sans-Serif" font-size="10.00">mars/main_gui/PropertyDialog.h</text>
</g>
<!-- Node2&#45;&gt;Node7 -->
<g id="edge12" class="edge"><title>Node2&#45;&gt;Node7</title>
<path fill="none" stroke="midnightblue" d="M254.064,-72.2666C264.308,-62.328 279.733,-47.3635 291.792,-35.6645"/>
<polygon fill="midnightblue" stroke="midnightblue" points="294.402,-38.009 299.142,-28.5337 289.528,-32.9848 294.402,-38.009"/>
</g>
<!-- Node8 -->
<g id="node15" class="node"><title>Node8</title>
<polygon fill="white" stroke="#bfbfbf" points="406,-7.5 406,-28.5 450,-28.5 450,-7.5 406,-7.5"/>
<text text-anchor="middle" x="428" y="-15.5" font-family="Helvetica,sans-Serif" font-size="10.00">vector</text>
</g>
<!-- Node2&#45;&gt;Node8 -->
<g id="edge14" class="edge"><title>Node2&#45;&gt;Node8</title>
<path fill="none" stroke="midnightblue" d="M278.689,-74.5982C310.445,-66.5425 357.795,-53.0928 397,-36 398.797,-35.2165 400.621,-34.3533 402.439,-33.4419"/>
<polygon fill="midnightblue" stroke="midnightblue" points="404.191,-36.4731 411.312,-28.6285 400.853,-30.3201 404.191,-36.4731"/>
</g>
</g>
</svg>
