<?xml version="1.0" encoding="UTF-8" standalone="no"?>
<!DOCTYPE svg PUBLIC "-//W3C//DTD SVG 1.1//EN"
 "http://www.w3.org/Graphics/SVG/1.1/DTD/svg11.dtd">
<!-- Generated by graphviz version 2.26.3 (20100126.1600)
 -->
<!-- Title: /home/kavonszadkowski/limes&#45;dev/simulation/mars/plugins/connexion_plugin/ConnexionWidget.h Pages: 1 -->
<svg width="309pt" height="266pt"
 viewBox="0.00 0.00 309.00 266.00" xmlns="http://www.w3.org/2000/svg" xmlns:xlink="http://www.w3.org/1999/xlink">
<g id="graph1" class="graph" transform="scale(1 1) rotate(0) translate(4 262)">
<title>/home/kavonszadkowski/limes&#45;dev/simulation/mars/plugins/connexion_plugin/ConnexionWidget.h</title>
<polygon fill="white" stroke="white" points="-4,5 -4,-262 306,-262 306,5 -4,5"/>
<!-- Node1 -->
<g id="node1" class="node"><title>Node1</title>
<polygon fill="#bfbfbf" stroke="black" points="81,-197 81,-257 217,-257 217,-197 81,-197"/>
<text text-anchor="start" x="89" y="-244" font-family="Helvetica,sans-Serif" font-size="10.00">/home/kavonszadkowski</text>
<text text-anchor="start" x="89" y="-231" font-family="Helvetica,sans-Serif" font-size="10.00">/limes&#45;dev/simulation</text>
<text text-anchor="start" x="89" y="-218" font-family="Helvetica,sans-Serif" font-size="10.00">/mars/plugins/connexion</text>
<text text-anchor="middle" x="149" y="-205" font-family="Helvetica,sans-Serif" font-size="10.00">_plugin/ConnexionWidget.h</text>
</g>
<!-- Node2 -->
<g id="node3" class="node"><title>Node2</title>
<a xlink:href="../../d7/d36/_connexion_plugin_8h.html" target="_top" xlink:title="A Plugin to use the 3D&#45;Mouse by 3Dconnexion in MARS to control the camera. ">
<polygon fill="white" stroke="black" points="5,-99 5,-159 137,-159 137,-99 5,-99"/>
<text text-anchor="start" x="13" y="-146" font-family="Helvetica,sans-Serif" font-size="10.00">/home/kavonszadkowski</text>
<text text-anchor="start" x="13" y="-133" font-family="Helvetica,sans-Serif" font-size="10.00">/limes&#45;dev/simulation</text>
<text text-anchor="start" x="13" y="-120" font-family="Helvetica,sans-Serif" font-size="10.00">/mars/plugins/connexion</text>
<text text-anchor="middle" x="71" y="-107" font-family="Helvetica,sans-Serif" font-size="10.00">_plugin/ConnexionPlugin.h</text>
</a>
</g>
<!-- Node1&#45;&gt;Node2 -->
<g id="edge2" class="edge"><title>Node1&#45;&gt;Node2</title>
<path fill="none" stroke="midnightblue" d="M118.563,-188.758C110.777,-178.976 102.512,-168.592 95.0939,-159.272"/>
<polygon fill="midnightblue" stroke="midnightblue" points="115.995,-191.152 124.961,-196.797 121.472,-186.793 115.995,-191.152"/>
</g>
<!-- Node4 -->
<g id="node7" class="node"><title>Node4</title>
<a xlink:href="../../da/d5d/_connexion_widget_8cpp.html" target="_top" xlink:title="/home/kavonszadkowski\l/limes&#45;dev/simulation\l/mars/plugins/connexion\l_plugin/ConnexionWidget.cpp">
<polygon fill="white" stroke="black" points="155,-99 155,-159 301,-159 301,-99 155,-99"/>
<text text-anchor="start" x="163" y="-146" font-family="Helvetica,sans-Serif" font-size="10.00">/home/kavonszadkowski</text>
<text text-anchor="start" x="163" y="-133" font-family="Helvetica,sans-Serif" font-size="10.00">/limes&#45;dev/simulation</text>
<text text-anchor="start" x="163" y="-120" font-family="Helvetica,sans-Serif" font-size="10.00">/mars/plugins/connexion</text>
<text text-anchor="middle" x="228" y="-107" font-family="Helvetica,sans-Serif" font-size="10.00">_plugin/ConnexionWidget.cpp</text>
</a>
</g>
<!-- Node1&#45;&gt;Node4 -->
<g id="edge6" class="edge"><title>Node1&#45;&gt;Node4</title>
<path fill="none" stroke="midnightblue" d="M179.828,-188.758C187.713,-178.976 196.084,-168.592 203.597,-159.272"/>
<polygon fill="midnightblue" stroke="midnightblue" points="176.898,-186.815 173.347,-196.797 182.348,-191.208 176.898,-186.815"/>
</g>
<!-- Node3 -->
<g id="node5" class="node"><title>Node3</title>
<a xlink:href="../../d9/df4/_connexion_plugin_8cpp.html" target="_top" xlink:title="A Plugin to use the 3D&#45;Mouse by 3Dconnexion in MARS to control the camera. ">
<polygon fill="white" stroke="black" points="-0.5,-1 -0.5,-61 142.5,-61 142.5,-1 -0.5,-1"/>
<text text-anchor="start" x="7.5" y="-48" font-family="Helvetica,sans-Serif" font-size="10.00">/home/kavonszadkowski</text>
<text text-anchor="start" x="7.5" y="-35" font-family="Helvetica,sans-Serif" font-size="10.00">/limes&#45;dev/simulation</text>
<text text-anchor="start" x="7.5" y="-22" font-family="Helvetica,sans-Serif" font-size="10.00">/mars/plugins/connexion</text>
<text text-anchor="middle" x="71" y="-9" font-family="Helvetica,sans-Serif" font-size="10.00">_plugin/ConnexionPlugin.cpp</text>
</a>
</g>
<!-- Node2&#45;&gt;Node3 -->
<g id="edge4" class="edge"><title>Node2&#45;&gt;Node3</title>
<path fill="none" stroke="midnightblue" d="M71,-88.6956C71,-79.5273 71,-69.9394 71,-61.2718"/>
<polygon fill="midnightblue" stroke="midnightblue" points="67.5001,-88.7971 71,-98.7971 74.5001,-88.7972 67.5001,-88.7971"/>
</g>
</g>
</svg>
