<?xml version="1.0" encoding="UTF-8" standalone="no"?>
<!DOCTYPE svg PUBLIC "-//W3C//DTD SVG 1.1//EN"
 "http://www.w3.org/Graphics/SVG/1.1/DTD/svg11.dtd">
<!-- Generated by graphviz version 2.36.0 (20140111.2315)
 -->
<!-- Title: /media/kavonszadkowski/work/marsdocs/mars/graphics/src/HUD.h Pages: 1 -->
<svg width="1181pt" height="162pt"
 viewBox="0.00 0.00 1181.00 162.00" xmlns="http://www.w3.org/2000/svg" xmlns:xlink="http://www.w3.org/1999/xlink">
<g id="graph0" class="graph" transform="scale(1 1) rotate(0) translate(4 158)">
<title>/media/kavonszadkowski/work/marsdocs/mars/graphics/src/HUD.h</title>
<polygon fill="white" stroke="none" points="-4,4 -4,-158 1177,-158 1177,4 -4,4"/>
<!-- Node1 -->
<g id="node1" class="node"><title>Node1</title>
<polygon fill="#bfbfbf" stroke="black" points="425.5,-112.5 425.5,-153.5 576.5,-153.5 576.5,-112.5 425.5,-112.5"/>
<text text-anchor="start" x="433.5" y="-141.5" font-family="Helvetica,sans-Serif" font-size="10.00">/media/kavonszadkowski</text>
<text text-anchor="start" x="433.5" y="-130.5" font-family="Helvetica,sans-Serif" font-size="10.00">/work/marsdocs/mars/graphics</text>
<text text-anchor="middle" x="501" y="-119.5" font-family="Helvetica,sans-Serif" font-size="10.00">/src/HUD.h</text>
</g>
<!-- Node2 -->
<g id="node2" class="node"><title>Node2</title>
<polygon fill="white" stroke="#bfbfbf" points="-0.5,-56.5 -0.5,-75.5 80.5,-75.5 80.5,-56.5 -0.5,-56.5"/>
<text text-anchor="middle" x="40" y="-63.5" font-family="Helvetica,sans-Serif" font-size="10.00">osg/Texture2D</text>
</g>
<!-- Node1&#45;&gt;Node2 -->
<g id="edge1" class="edge"><title>Node1&#45;&gt;Node2</title>
<path fill="none" stroke="midnightblue" d="M425.484,-122.692C345.111,-112.563 213.972,-95.4003 90.6364,-76.0414"/>
<polygon fill="midnightblue" stroke="midnightblue" points="91.0577,-72.5646 80.6345,-74.4638 89.9671,-79.4792 91.0577,-72.5646"/>
</g>
<!-- Node3 -->
<g id="node3" class="node"><title>Node3</title>
<polygon fill="white" stroke="#bfbfbf" points="99,-56.5 99,-75.5 169,-75.5 169,-56.5 99,-56.5"/>
<text text-anchor="middle" x="134" y="-63.5" font-family="Helvetica,sans-Serif" font-size="10.00">osg/Camera</text>
</g>
<!-- Node1&#45;&gt;Node3 -->
<g id="edge2" class="edge"><title>Node1&#45;&gt;Node3</title>
<path fill="none" stroke="midnightblue" d="M425.477,-118.861C361.028,-107.61 265.896,-90.9118 183,-76 181.731,-75.7717 180.444,-75.5396 179.145,-75.3047"/>
<polygon fill="midnightblue" stroke="midnightblue" points="179.523,-71.8161 169.058,-73.4715 178.271,-78.7033 179.523,-71.8161"/>
</g>
<!-- Node4 -->
<g id="node4" class="node"><title>Node4</title>
<polygon fill="white" stroke="#bfbfbf" points="585,-0.5 585,-19.5 647,-19.5 647,-0.5 585,-0.5"/>
<text text-anchor="middle" x="616" y="-7.5" font-family="Helvetica,sans-Serif" font-size="10.00">osg/Group</text>
</g>
<!-- Node1&#45;&gt;Node4 -->
<g id="edge3" class="edge"><title>Node1&#45;&gt;Node4</title>
<path fill="none" stroke="midnightblue" d="M425.481,-127.736C350.179,-121.719 242.068,-107.689 216,-76 210.353,-69.1354 210.076,-62.6274 216,-56 239.646,-29.5446 477.539,-16.7426 574.847,-12.5815"/>
<polygon fill="midnightblue" stroke="midnightblue" points="575.062,-16.0756 584.907,-12.1608 574.769,-9.08176 575.062,-16.0756"/>
</g>
<!-- Node5 -->
<g id="node5" class="node"><title>Node5</title>
<polygon fill="white" stroke="#bfbfbf" points="225.5,-56.5 225.5,-75.5 332.5,-75.5 332.5,-56.5 225.5,-56.5"/>
<text text-anchor="middle" x="279" y="-63.5" font-family="Helvetica,sans-Serif" font-size="10.00">osg/MatrixTransform</text>
</g>
<!-- Node1&#45;&gt;Node5 -->
<g id="edge4" class="edge"><title>Node1&#45;&gt;Node5</title>
<path fill="none" stroke="midnightblue" d="M434.393,-112.498C396.477,-101.396 350.288,-87.8725 318.166,-78.4676"/>
<polygon fill="midnightblue" stroke="midnightblue" points="318.84,-75.0181 308.26,-75.5671 316.873,-81.7361 318.84,-75.0181"/>
</g>
<!-- Node6 -->
<g id="node6" class="node"><title>Node6</title>
<polygon fill="white" stroke="#bfbfbf" points="351,-56.5 351,-75.5 491,-75.5 491,-56.5 351,-56.5"/>
<text text-anchor="middle" x="421" y="-63.5" font-family="Helvetica,sans-Serif" font-size="10.00">osgViewer/GraphicsWindow</text>
</g>
<!-- Node1&#45;&gt;Node6 -->
<g id="edge5" class="edge"><title>Node1&#45;&gt;Node6</title>
<path fill="none" stroke="midnightblue" d="M476.997,-112.498C464.968,-102.724 450.627,-91.0719 439.47,-82.0066"/>
<polygon fill="midnightblue" stroke="midnightblue" points="441.617,-79.242 431.649,-75.6525 437.203,-84.6749 441.617,-79.242"/>
</g>
<!-- Node7 -->
<g id="node7" class="node"><title>Node7</title>
<polygon fill="white" stroke="#bfbfbf" points="509,-56.5 509,-75.5 655,-75.5 655,-56.5 509,-56.5"/>
<text text-anchor="middle" x="582" y="-63.5" font-family="Helvetica,sans-Serif" font-size="10.00">mars/interfaces/MARSDefs.h</text>
</g>
<!-- Node1&#45;&gt;Node7 -->
<g id="edge6" class="edge"><title>Node1&#45;&gt;Node7</title>
<path fill="none" stroke="midnightblue" d="M525.303,-112.498C537.483,-102.724 552.003,-91.0719 563.299,-82.0066"/>
<polygon fill="midnightblue" stroke="midnightblue" points="565.609,-84.641 571.218,-75.6525 561.228,-79.1815 565.609,-84.641"/>
</g>
<!-- Node8 -->
<g id="node8" class="node"><title>Node8</title>
<polygon fill="white" stroke="#bfbfbf" points="673.5,-56.5 673.5,-75.5 772.5,-75.5 772.5,-56.5 673.5,-56.5"/>
<text text-anchor="middle" x="723" y="-63.5" font-family="Helvetica,sans-Serif" font-size="10.00">mars/utils/Vector.h</text>
</g>
<!-- Node1&#45;&gt;Node8 -->
<g id="edge7" class="edge"><title>Node1&#45;&gt;Node8</title>
<path fill="none" stroke="midnightblue" d="M567.607,-112.498C605.523,-101.396 651.712,-87.8725 683.834,-78.4676"/>
<polygon fill="midnightblue" stroke="midnightblue" points="685.127,-81.7361 693.74,-75.5671 683.16,-75.0181 685.127,-81.7361"/>
</g>
<!-- Node9 -->
<g id="node9" class="node"><title>Node9</title>
<polygon fill="white" stroke="#bfbfbf" points="791,-56.5 791,-75.5 909,-75.5 909,-56.5 791,-56.5"/>
<text text-anchor="middle" x="850" y="-63.5" font-family="Helvetica,sans-Serif" font-size="10.00">mars/utils/Quaternion.h</text>
</g>
<!-- Node1&#45;&gt;Node9 -->
<g id="edge8" class="edge"><title>Node1&#45;&gt;Node9</title>
<path fill="none" stroke="midnightblue" d="M576.728,-117.896C642.299,-105.684 735.615,-88.3038 794.468,-77.3427"/>
<polygon fill="midnightblue" stroke="midnightblue" points="795.134,-80.7789 804.324,-75.507 793.852,-73.8972 795.134,-80.7789"/>
</g>
<!-- Node10 -->
<g id="node10" class="node"><title>Node10</title>
<polygon fill="white" stroke="#bfbfbf" points="927,-56.5 927,-75.5 1021,-75.5 1021,-56.5 927,-56.5"/>
<text text-anchor="middle" x="974" y="-63.5" font-family="Helvetica,sans-Serif" font-size="10.00">mars/utils/Color.h</text>
</g>
<!-- Node1&#45;&gt;Node10 -->
<g id="edge9" class="edge"><title>Node1&#45;&gt;Node10</title>
<path fill="none" stroke="midnightblue" d="M576.795,-122.42C658.216,-111.992 791.678,-94.5101 916.813,-76.1444"/>
<polygon fill="midnightblue" stroke="midnightblue" points="917.576,-79.5698 926.96,-74.6505 916.557,-72.6445 917.576,-79.5698"/>
</g>
<!-- Node11 -->
<g id="node11" class="node"><title>Node11</title>
<g id="a_node11"><a xlink:href="../../dc/d75/_h_u_d_element_8h.html" target="_top" xlink:title="The &quot;HUDElement&quot;. ">
<polygon fill="white" stroke="black" points="1039,-56.5 1039,-75.5 1173,-75.5 1173,-56.5 1039,-56.5"/>
<text text-anchor="middle" x="1106" y="-63.5" font-family="Helvetica,sans-Serif" font-size="10.00">2d_objects/HUDElement.h</text>
</a>
</g>
</g>
<!-- Node1&#45;&gt;Node11 -->
<g id="edge10" class="edge"><title>Node1&#45;&gt;Node11</title>
<path fill="none" stroke="midnightblue" d="M576.808,-124.273C677.54,-113.94 861.344,-94.8515 1028.88,-76.1148"/>
<polygon fill="midnightblue" stroke="midnightblue" points="1029.32,-79.5871 1038.87,-74.9955 1028.54,-72.6306 1029.32,-79.5871"/>
</g>
<!-- Node11&#45;&gt;Node4 -->
<g id="edge11" class="edge"><title>Node11&#45;&gt;Node4</title>
<path fill="none" stroke="midnightblue" d="M1038.87,-57.0147C1035.87,-56.6694 1032.9,-56.3298 1030,-56 893.746,-40.5276 732.133,-23.28 657.534,-15.3812"/>
<polygon fill="midnightblue" stroke="midnightblue" points="657.485,-11.8566 647.172,-14.2849 656.748,-18.8177 657.485,-11.8566"/>
</g>
<!-- Node12 -->
<g id="node12" class="node"><title>Node12</title>
<polygon fill="white" stroke="#bfbfbf" points="1085.5,-0.5 1085.5,-19.5 1126.5,-19.5 1126.5,-0.5 1085.5,-0.5"/>
<text text-anchor="middle" x="1106" y="-7.5" font-family="Helvetica,sans-Serif" font-size="10.00">string</text>
</g>
<!-- Node11&#45;&gt;Node12 -->
<g id="edge12" class="edge"><title>Node11&#45;&gt;Node12</title>
<path fill="none" stroke="midnightblue" d="M1106,-56.083C1106,-49.0059 1106,-38.8611 1106,-29.9865"/>
<polygon fill="midnightblue" stroke="midnightblue" points="1109.5,-29.751 1106,-19.7511 1102.5,-29.7511 1109.5,-29.751"/>
</g>
</g>
</svg>
