<?xml version="1.0" encoding="UTF-8" standalone="no"?>
<!DOCTYPE svg PUBLIC "-//W3C//DTD SVG 1.1//EN"
 "http://www.w3.org/Graphics/SVG/1.1/DTD/svg11.dtd">
<!-- Generated by graphviz version 2.26.3 (20100126.1600)
 -->
<!-- Title: mars::plugins::db_adrf_receiver::DBADRFReceiver::DBMapData Pages: 1 -->
<svg width="150pt" height="154pt"
 viewBox="0.00 0.00 150.00 154.00" xmlns="http://www.w3.org/2000/svg" xmlns:xlink="http://www.w3.org/1999/xlink">
<g id="graph1" class="graph" transform="scale(1 1) rotate(0) translate(4 150)">
<title>mars::plugins::db_adrf_receiver::DBADRFReceiver::DBMapData</title>
<polygon fill="white" stroke="white" points="-4,5 -4,-150 147,-150 147,5 -4,5"/>
<!-- Node1 -->
<g id="node1" class="node"><title>Node1</title>
<polygon fill="#bfbfbf" stroke="black" points="-0.5,-0.5 -0.5,-47.5 142.5,-47.5 142.5,-0.5 -0.5,-0.5"/>
<text text-anchor="start" x="7.5" y="-34.5" font-family="Helvetica,sans-Serif" font-size="10.00">mars::plugins::db_adrf</text>
<text text-anchor="start" x="7.5" y="-21.5" font-family="Helvetica,sans-Serif" font-size="10.00">_receiver::DBADRFReceiver</text>
<text text-anchor="middle" x="71" y="-8.5" font-family="Helvetica,sans-Serif" font-size="10.00">::DBMapData</text>
</g>
<!-- Node2 -->
<g id="node2" class="node"><title>Node2</title>
<polygon fill="white" stroke="#bfbfbf" points="50.5,-124.5 50.5,-145.5 91.5,-145.5 91.5,-124.5 50.5,-124.5"/>
<text text-anchor="middle" x="71" y="-132.5" font-family="Helvetica,sans-Serif" font-size="10.00">string</text>
</g>
<!-- Node2&#45;&gt;Node1 -->
<g id="edge2" class="edge"><title>Node2&#45;&gt;Node1</title>
<path fill="none" stroke="#9a32cd" stroke-dasharray="5,2" d="M71,-114.12C71,-95.177 71,-67.2746 71,-47.5445"/>
<polygon fill="#9a32cd" stroke="#9a32cd" points="67.5001,-114.357 71,-124.357 74.5001,-114.357 67.5001,-114.357"/>
<text text-anchor="middle" x="98" y="-96.5" font-family="Helvetica,sans-Serif" font-size="10.00"> groupName</text>
<text text-anchor="middle" x="98" y="-83.5" font-family="Helvetica,sans-Serif" font-size="10.00">dataName</text>
<text text-anchor="middle" x="98" y="-70.5" font-family="Helvetica,sans-Serif" font-size="10.00">itemName</text>
</g>
</g>
</svg>
