<?xml version="1.0" encoding="UTF-8" standalone="no"?>
<!DOCTYPE svg PUBLIC "-//W3C//DTD SVG 1.1//EN"
 "http://www.w3.org/Graphics/SVG/1.1/DTD/svg11.dtd">
<!-- Generated by graphviz version 2.26.3 (20100126.1600)
 -->
<!-- Title: /home/kavonszadkowski/limes&#45;dev/simulation/mars/interfaces/src/sim/ControlCenter.cpp Pages: 1 -->
<svg width="152pt" height="186pt"
 viewBox="0.00 0.00 152.00 186.00" xmlns="http://www.w3.org/2000/svg" xmlns:xlink="http://www.w3.org/1999/xlink">
<g id="graph1" class="graph" transform="scale(1 1) rotate(0) translate(4 182)">
<title>/home/kavonszadkowski/limes&#45;dev/simulation/mars/interfaces/src/sim/ControlCenter.cpp</title>
<polygon fill="white" stroke="white" points="-4,5 -4,-182 149,-182 149,5 -4,5"/>
<!-- Node1 -->
<g id="node1" class="node"><title>Node1</title>
<polygon fill="#bfbfbf" stroke="black" points="16.5,-117 16.5,-177 141.5,-177 141.5,-117 16.5,-117"/>
<text text-anchor="start" x="24.5" y="-164" font-family="Helvetica,sans-Serif" font-size="10.00">/home/kavonszadkowski</text>
<text text-anchor="start" x="24.5" y="-151" font-family="Helvetica,sans-Serif" font-size="10.00">/limes&#45;dev/simulation</text>
<text text-anchor="start" x="24.5" y="-138" font-family="Helvetica,sans-Serif" font-size="10.00">/mars/interfaces/src/sim</text>
<text text-anchor="middle" x="79" y="-125" font-family="Helvetica,sans-Serif" font-size="10.00">/ControlCenter.cpp</text>
</g>
<!-- Node2 -->
<g id="node3" class="node"><title>Node2</title>
<a xlink:href="../../d8/dbb/_control_center_8h.html" target="_top" xlink:title="&quot;ControlCenter&quot; contains the instances of all modules of the simulation. The modules are connected vi...">
<polygon fill="white" stroke="black" points="36,-58.5 36,-79.5 122,-79.5 122,-58.5 36,-58.5"/>
<text text-anchor="middle" x="79" y="-66.5" font-family="Helvetica,sans-Serif" font-size="10.00">ControlCenter.h</text>
</a>
</g>
<!-- Node1&#45;&gt;Node2 -->
<g id="edge2" class="edge"><title>Node1&#45;&gt;Node2</title>
<path fill="none" stroke="midnightblue" d="M79,-116.62C79,-107.68 79,-98.1035 79,-89.9002"/>
<polygon fill="midnightblue" stroke="midnightblue" points="82.5001,-89.7534 79,-79.7535 75.5001,-89.7535 82.5001,-89.7534"/>
</g>
<!-- Node3 -->
<g id="node5" class="node"><title>Node3</title>
<polygon fill="white" stroke="#bfbfbf" points="0,-0.5 0,-21.5 78,-21.5 78,-0.5 0,-0.5"/>
<text text-anchor="middle" x="39" y="-8.5" font-family="Helvetica,sans-Serif" font-size="10.00">../Logging.hpp</text>
</g>
<!-- Node2&#45;&gt;Node3 -->
<g id="edge4" class="edge"><title>Node2&#45;&gt;Node3</title>
<path fill="none" stroke="midnightblue" d="M71.6634,-58.3619C66.194,-50.4313 58.5783,-39.3885 52.0763,-29.9606"/>
<polygon fill="midnightblue" stroke="midnightblue" points="54.8487,-27.8157 46.2901,-21.5707 49.0862,-31.7899 54.8487,-27.8157"/>
</g>
<!-- Node4 -->
<g id="node7" class="node"><title>Node4</title>
<polygon fill="white" stroke="#bfbfbf" points="95.5,-0.5 95.5,-21.5 144.5,-21.5 144.5,-0.5 95.5,-0.5"/>
<text text-anchor="middle" x="120" y="-8.5" font-family="Helvetica,sans-Serif" font-size="10.00">cstddef</text>
</g>
<!-- Node2&#45;&gt;Node4 -->
<g id="edge6" class="edge"><title>Node2&#45;&gt;Node4</title>
<path fill="none" stroke="midnightblue" d="M86.52,-58.3619C92.1261,-50.4313 99.9322,-39.3885 106.597,-29.9606"/>
<polygon fill="midnightblue" stroke="midnightblue" points="109.613,-31.7568 112.528,-21.5707 103.897,-27.7161 109.613,-31.7568"/>
</g>
</g>
</svg>
