<?xml version="1.0" encoding="UTF-8" standalone="no"?>
<!DOCTYPE svg PUBLIC "-//W3C//DTD SVG 1.1//EN"
 "http://www.w3.org/Graphics/SVG/1.1/DTD/svg11.dtd">
<!-- Generated by graphviz version 2.36.0 (20140111.2315)
 -->
<!-- Title: mars::main_gui::PropertyDialog Pages: 1 -->
<svg width="204pt" height="120pt"
 viewBox="0.00 0.00 204.00 120.00" xmlns="http://www.w3.org/2000/svg" xmlns:xlink="http://www.w3.org/1999/xlink">
<g id="graph0" class="graph" transform="scale(1 1) rotate(0) translate(4 116)">
<title>mars::main_gui::PropertyDialog</title>
<polygon fill="white" stroke="none" points="-4,4 -4,-116 200,-116 200,4 -4,4"/>
<!-- Node1 -->
<g id="node1" class="node"><title>Node1</title>
<polygon fill="#bfbfbf" stroke="black" points="16,-1 16,-31 142,-31 142,-1 16,-1"/>
<text text-anchor="start" x="24" y="-19" font-family="Helvetica,sans-Serif" font-size="10.00">mars::main_gui::Property</text>
<text text-anchor="middle" x="79" y="-8" font-family="Helvetica,sans-Serif" font-size="10.00">Dialog</text>
</g>
<!-- Node2 -->
<g id="node2" class="node"><title>Node2</title>
<polygon fill="white" stroke="#bfbfbf" points="0,-86.5 0,-105.5 52,-105.5 52,-86.5 0,-86.5"/>
<text text-anchor="middle" x="26" y="-93.5" font-family="Helvetica,sans-Serif" font-size="10.00">QDialog</text>
</g>
<!-- Node2&#45;&gt;Node1 -->
<g id="edge1" class="edge"><title>Node2&#45;&gt;Node1</title>
<path fill="none" stroke="midnightblue" d="M37.7568,-77.6976C47.2502,-63.7262 60.4463,-44.3055 69.3329,-31.227"/>
<polygon fill="midnightblue" stroke="midnightblue" points="34.5997,-76.1163 31.8744,-86.3546 40.3896,-80.0504 34.5997,-76.1163"/>
</g>
<!-- Node3 -->
<g id="node3" class="node"><title>Node3</title>
<g id="a_node3"><a xlink:href="../../dd/d38/classmars_1_1main__gui_1_1_property_callback.html" target="_top" xlink:title="Introduced for Windows compatibility. ">
<polygon fill="white" stroke="black" points="70,-81 70,-111 196,-111 196,-81 70,-81"/>
<text text-anchor="start" x="78" y="-99" font-family="Helvetica,sans-Serif" font-size="10.00">mars::main_gui::Property</text>
<text text-anchor="middle" x="133" y="-88" font-family="Helvetica,sans-Serif" font-size="10.00">Callback</text>
</a>
</g>
</g>
<!-- Node3&#45;&gt;Node1 -->
<g id="edge2" class="edge"><title>Node3&#45;&gt;Node1</title>
<path fill="none" stroke="#9a32cd" stroke-dasharray="5,2" d="M117.149,-72.1048C107.985,-58.8665 96.7404,-42.6251 88.8416,-31.2157"/>
<polygon fill="#9a32cd" stroke="#9a32cd" points="114.526,-74.4639 123.096,-80.6936 120.281,-70.4794 114.526,-74.4639"/>
<text text-anchor="middle" x="147.5" y="-53.5" font-family="Helvetica,sans-Serif" font-size="10.00"> propertyCallback</text>
</g>
</g>
</svg>
