<?xml version="1.0" encoding="UTF-8" standalone="no"?>
<!DOCTYPE svg PUBLIC "-//W3C//DTD SVG 1.1//EN"
 "http://www.w3.org/Graphics/SVG/1.1/DTD/svg11.dtd">
<!-- Generated by graphviz version 2.26.3 (20100126.1600)
 -->
<!-- Title: /home/kavonszadkowski/limes&#45;dev/simulation/mars/sim/src/sensors/NodeRotationSensor.h Pages: 1 -->
<svg width="342pt" height="168pt"
 viewBox="0.00 0.00 342.00 168.00" xmlns="http://www.w3.org/2000/svg" xmlns:xlink="http://www.w3.org/1999/xlink">
<g id="graph1" class="graph" transform="scale(1 1) rotate(0) translate(4 164)">
<title>/home/kavonszadkowski/limes&#45;dev/simulation/mars/sim/src/sensors/NodeRotationSensor.h</title>
<polygon fill="white" stroke="white" points="-4,5 -4,-164 339,-164 339,5 -4,5"/>
<!-- Node1 -->
<g id="node1" class="node"><title>Node1</title>
<polygon fill="#bfbfbf" stroke="black" points="119.5,-99 119.5,-159 244.5,-159 244.5,-99 119.5,-99"/>
<text text-anchor="start" x="127.5" y="-146" font-family="Helvetica,sans-Serif" font-size="10.00">/home/kavonszadkowski</text>
<text text-anchor="start" x="127.5" y="-133" font-family="Helvetica,sans-Serif" font-size="10.00">/limes&#45;dev/simulation</text>
<text text-anchor="start" x="127.5" y="-120" font-family="Helvetica,sans-Serif" font-size="10.00">/mars/sim/src/sensors</text>
<text text-anchor="middle" x="182" y="-107" font-family="Helvetica,sans-Serif" font-size="10.00">/NodeRotationSensor.h</text>
</g>
<!-- Node2 -->
<g id="node3" class="node"><title>Node2</title>
<a xlink:href="../../d4/d38/_sensor_manager_8cpp.html" target="_top" xlink:title="/home/kavonszadkowski\l/limes&#45;dev/simulation\l/mars/sim/src/core/SensorManager.cpp">
<polygon fill="white" stroke="black" points="0,-7.5 0,-54.5 188,-54.5 188,-7.5 0,-7.5"/>
<text text-anchor="start" x="8" y="-41.5" font-family="Helvetica,sans-Serif" font-size="10.00">/home/kavonszadkowski</text>
<text text-anchor="start" x="8" y="-28.5" font-family="Helvetica,sans-Serif" font-size="10.00">/limes&#45;dev/simulation</text>
<text text-anchor="middle" x="94" y="-15.5" font-family="Helvetica,sans-Serif" font-size="10.00">/mars/sim/src/core/SensorManager.cpp</text>
</a>
</g>
<!-- Node1&#45;&gt;Node2 -->
<g id="edge2" class="edge"><title>Node1&#45;&gt;Node2</title>
<path fill="none" stroke="midnightblue" d="M148.147,-91.3001C137.105,-79.0032 125.161,-65.7021 115.308,-54.7289"/>
<polygon fill="midnightblue" stroke="midnightblue" points="145.594,-93.6951 154.879,-98.7971 150.802,-89.0182 145.594,-93.6951"/>
</g>
<!-- Node3 -->
<g id="node5" class="node"><title>Node3</title>
<a xlink:href="../../d3/d2c/_node_rotation_sensor_8cpp.html" target="_top" xlink:title="/home/kavonszadkowski\l/limes&#45;dev/simulation\l/mars/sim/src/sensors\l/NodeRotationSensor.cpp">
<polygon fill="white" stroke="black" points="205.5,-1 205.5,-61 334.5,-61 334.5,-1 205.5,-1"/>
<text text-anchor="start" x="213.5" y="-48" font-family="Helvetica,sans-Serif" font-size="10.00">/home/kavonszadkowski</text>
<text text-anchor="start" x="213.5" y="-35" font-family="Helvetica,sans-Serif" font-size="10.00">/limes&#45;dev/simulation</text>
<text text-anchor="start" x="213.5" y="-22" font-family="Helvetica,sans-Serif" font-size="10.00">/mars/sim/src/sensors</text>
<text text-anchor="middle" x="270" y="-9" font-family="Helvetica,sans-Serif" font-size="10.00">/NodeRotationSensor.cpp</text>
</a>
</g>
<!-- Node1&#45;&gt;Node3 -->
<g id="edge4" class="edge"><title>Node1&#45;&gt;Node3</title>
<path fill="none" stroke="midnightblue" d="M215.813,-91.3443C224.75,-81.3916 234.281,-70.7782 242.817,-61.2718"/>
<polygon fill="midnightblue" stroke="midnightblue" points="213.198,-89.0182 209.121,-98.7971 218.406,-93.6951 213.198,-89.0182"/>
</g>
</g>
</svg>
