<?xml version="1.0" encoding="UTF-8" standalone="no"?>
<!DOCTYPE svg PUBLIC "-//W3C//DTD SVG 1.1//EN"
 "http://www.w3.org/Graphics/SVG/1.1/DTD/svg11.dtd">
<!-- Generated by graphviz version 2.36.0 (20140111.2315)
 -->
<!-- Title: /media/kavonszadkowski/work/marsdocs/mars/sim/src/sensors/NodeRotationSensor.h Pages: 1 -->
<svg width="353pt" height="128pt"
 viewBox="0.00 0.00 353.00 128.00" xmlns="http://www.w3.org/2000/svg" xmlns:xlink="http://www.w3.org/1999/xlink">
<g id="graph0" class="graph" transform="scale(1 1) rotate(0) translate(4 124)">
<title>/media/kavonszadkowski/work/marsdocs/mars/sim/src/sensors/NodeRotationSensor.h</title>
<polygon fill="white" stroke="none" points="-4,4 -4,-124 349,-124 349,4 -4,4"/>
<!-- Node1 -->
<g id="node1" class="node"><title>Node1</title>
<polygon fill="#bfbfbf" stroke="black" points="76.5,-78.5 76.5,-119.5 249.5,-119.5 249.5,-78.5 76.5,-78.5"/>
<text text-anchor="start" x="84.5" y="-107.5" font-family="Helvetica,sans-Serif" font-size="10.00">/media/kavonszadkowski</text>
<text text-anchor="start" x="84.5" y="-96.5" font-family="Helvetica,sans-Serif" font-size="10.00">/work/marsdocs/mars/sim</text>
<text text-anchor="middle" x="163" y="-85.5" font-family="Helvetica,sans-Serif" font-size="10.00">/src/sensors/NodeRotationSensor.h</text>
</g>
<!-- Node2 -->
<g id="node2" class="node"><title>Node2</title>
<g id="a_node2"><a xlink:href="../../d4/d38/_sensor_manager_8cpp.html" target="_top" xlink:title="/media/kavonszadkowski\l/work/marsdocs/mars/sim\l/src/core/SensorManager.cpp">
<polygon fill="white" stroke="black" points="-0.5,-0.5 -0.5,-41.5 144.5,-41.5 144.5,-0.5 -0.5,-0.5"/>
<text text-anchor="start" x="7.5" y="-29.5" font-family="Helvetica,sans-Serif" font-size="10.00">/media/kavonszadkowski</text>
<text text-anchor="start" x="7.5" y="-18.5" font-family="Helvetica,sans-Serif" font-size="10.00">/work/marsdocs/mars/sim</text>
<text text-anchor="middle" x="72" y="-7.5" font-family="Helvetica,sans-Serif" font-size="10.00">/src/core/SensorManager.cpp</text>
</a>
</g>
</g>
<!-- Node1&#45;&gt;Node2 -->
<g id="edge1" class="edge"><title>Node1&#45;&gt;Node2</title>
<path fill="none" stroke="midnightblue" d="M131.603,-71.7785C119.707,-61.8432 106.384,-50.7159 95.3553,-41.5056"/>
<polygon fill="midnightblue" stroke="midnightblue" points="129.646,-74.7043 139.565,-78.4281 134.133,-69.3316 129.646,-74.7043"/>
</g>
<!-- Node3 -->
<g id="node3" class="node"><title>Node3</title>
<g id="a_node3"><a xlink:href="../../d3/d2c/_node_rotation_sensor_8cpp.html" target="_top" xlink:title="/media/kavonszadkowski\l/work/marsdocs/mars/sim\l/src/sensors/NodeRotationSensor.cpp">
<polygon fill="white" stroke="black" points="162.5,-0.5 162.5,-41.5 345.5,-41.5 345.5,-0.5 162.5,-0.5"/>
<text text-anchor="start" x="170.5" y="-29.5" font-family="Helvetica,sans-Serif" font-size="10.00">/media/kavonszadkowski</text>
<text text-anchor="start" x="170.5" y="-18.5" font-family="Helvetica,sans-Serif" font-size="10.00">/work/marsdocs/mars/sim</text>
<text text-anchor="middle" x="254" y="-7.5" font-family="Helvetica,sans-Serif" font-size="10.00">/src/sensors/NodeRotationSensor.cpp</text>
</a>
</g>
</g>
<!-- Node1&#45;&gt;Node3 -->
<g id="edge2" class="edge"><title>Node1&#45;&gt;Node3</title>
<path fill="none" stroke="midnightblue" d="M194.397,-71.7785C206.293,-61.8432 219.616,-50.7159 230.645,-41.5056"/>
<polygon fill="midnightblue" stroke="midnightblue" points="191.867,-69.3316 186.435,-78.4281 196.354,-74.7043 191.867,-69.3316"/>
</g>
</g>
</svg>
