<?xml version="1.0" encoding="UTF-8" standalone="no"?>
<!DOCTYPE svg PUBLIC "-//W3C//DTD SVG 1.1//EN"
 "http://www.w3.org/Graphics/SVG/1.1/DTD/svg11.dtd">
<!-- Generated by graphviz version 2.36.0 (20140111.2315)
 -->
<!-- Title: /media/kavonszadkowski/work/marsdocs/mars/common/gui/main_gui/src/MainGUI.h Pages: 1 -->
<svg width="977pt" height="230pt"
 viewBox="0.00 0.00 977.00 230.00" xmlns="http://www.w3.org/2000/svg" xmlns:xlink="http://www.w3.org/1999/xlink">
<g id="graph0" class="graph" transform="scale(1 1) rotate(0) translate(4 226)">
<title>/media/kavonszadkowski/work/marsdocs/mars/common/gui/main_gui/src/MainGUI.h</title>
<polygon fill="white" stroke="none" points="-4,4 -4,-226 973,-226 973,4 -4,4"/>
<!-- Node1 -->
<g id="node1" class="node"><title>Node1</title>
<polygon fill="#bfbfbf" stroke="black" points="449,-180.5 449,-221.5 601,-221.5 601,-180.5 449,-180.5"/>
<text text-anchor="start" x="457" y="-209.5" font-family="Helvetica,sans-Serif" font-size="10.00">/media/kavonszadkowski</text>
<text text-anchor="start" x="457" y="-198.5" font-family="Helvetica,sans-Serif" font-size="10.00">/work/marsdocs/mars/common</text>
<text text-anchor="middle" x="525" y="-187.5" font-family="Helvetica,sans-Serif" font-size="10.00">/gui/main_gui/src/MainGUI.h</text>
</g>
<!-- Node2 -->
<g id="node2" class="node"><title>Node2</title>
<g id="a_node2"><a xlink:href="../../d2/da5/_menu_interface_8h.html" target="_top" xlink:title="MenuInterface.h">
<polygon fill="white" stroke="black" points="-0.5,-62.5 -0.5,-81.5 86.5,-81.5 86.5,-62.5 -0.5,-62.5"/>
<text text-anchor="middle" x="43" y="-69.5" font-family="Helvetica,sans-Serif" font-size="10.00">MenuInterface.h</text>
</a>
</g>
</g>
<!-- Node1&#45;&gt;Node2 -->
<g id="edge1" class="edge"><title>Node1&#45;&gt;Node2</title>
<path fill="none" stroke="midnightblue" d="M448.957,-192.115C382.923,-184.012 285.253,-168.986 203,-144 153.41,-128.936 98.8839,-102.433 68.0066,-86.4172"/>
<polygon fill="midnightblue" stroke="midnightblue" points="69.3302,-83.1592 58.8487,-81.6136 66.0786,-89.3582 69.3302,-83.1592"/>
</g>
<!-- Node3 -->
<g id="node3" class="node"><title>Node3</title>
<g id="a_node3"><a xlink:href="../../d4/df2/_gui_interface_8h.html" target="_top" xlink:title="GuiInterface.h">
<polygon fill="white" stroke="black" points="212,-124.5 212,-143.5 290,-143.5 290,-124.5 212,-124.5"/>
<text text-anchor="middle" x="251" y="-131.5" font-family="Helvetica,sans-Serif" font-size="10.00">GuiInterface.h</text>
</a>
</g>
</g>
<!-- Node1&#45;&gt;Node3 -->
<g id="edge2" class="edge"><title>Node1&#45;&gt;Node3</title>
<path fill="none" stroke="midnightblue" d="M448.676,-181.894C399.816,-170.303 338.053,-155.651 296.685,-145.838"/>
<polygon fill="midnightblue" stroke="midnightblue" points="297.425,-142.416 286.887,-143.513 295.809,-149.227 297.425,-142.416"/>
</g>
<!-- Node6 -->
<g id="node6" class="node"><title>Node6</title>
<g id="a_node6"><a xlink:href="../../df/da3/_my_q_mdi_area_8h.html" target="_top" xlink:title="MyQMdiArea.h">
<polygon fill="white" stroke="black" points="348,-124.5 348,-143.5 430,-143.5 430,-124.5 348,-124.5"/>
<text text-anchor="middle" x="389" y="-131.5" font-family="Helvetica,sans-Serif" font-size="10.00">MyQMdiArea.h</text>
</a>
</g>
</g>
<!-- Node1&#45;&gt;Node6 -->
<g id="edge6" class="edge"><title>Node1&#45;&gt;Node6</title>
<path fill="none" stroke="midnightblue" d="M484.196,-180.498C462.241,-170.005 435.759,-157.348 416.306,-148.051"/>
<polygon fill="midnightblue" stroke="midnightblue" points="417.635,-144.807 407.104,-143.652 414.617,-151.123 417.635,-144.807"/>
</g>
<!-- Node9 -->
<g id="node9" class="node"><title>Node9</title>
<g id="a_node9"><a xlink:href="../../dd/d00/_my_q_main_window_8h.html" target="_top" xlink:title="MyQMainWindow.h">
<polygon fill="white" stroke="black" points="576,-124.5 576,-143.5 678,-143.5 678,-124.5 576,-124.5"/>
<text text-anchor="middle" x="627" y="-131.5" font-family="Helvetica,sans-Serif" font-size="10.00">MyQMainWindow.h</text>
</a>
</g>
</g>
<!-- Node1&#45;&gt;Node9 -->
<g id="edge10" class="edge"><title>Node1&#45;&gt;Node9</title>
<path fill="none" stroke="midnightblue" d="M555.603,-180.498C571.392,-170.436 590.304,-158.385 604.696,-149.214"/>
<polygon fill="midnightblue" stroke="midnightblue" points="606.87,-151.978 613.422,-143.652 603.108,-146.075 606.87,-151.978"/>
</g>
<!-- Node15 -->
<g id="node15" class="node"><title>Node15</title>
<polygon fill="white" stroke="#bfbfbf" points="925,-62.5 925,-81.5 969,-81.5 969,-62.5 925,-62.5"/>
<text text-anchor="middle" x="947" y="-69.5" font-family="Helvetica,sans-Serif" font-size="10.00">vector</text>
</g>
<!-- Node1&#45;&gt;Node15 -->
<g id="edge19" class="edge"><title>Node1&#45;&gt;Node15</title>
<path fill="none" stroke="midnightblue" d="M587.696,-180.446C617.802,-170.488 654.167,-157.62 686,-144 703.909,-136.337 706.572,-130.314 725,-124 806.72,-96.002 833.96,-115.049 916,-88 917.916,-87.3682 919.866,-86.6422 921.808,-85.8579"/>
<polygon fill="midnightblue" stroke="midnightblue" points="923.56,-88.9077 931.247,-81.6164 920.691,-82.5227 923.56,-88.9077"/>
</g>
<!-- Node18 -->
<g id="node18" class="node"><title>Node18</title>
<polygon fill="white" stroke="#bfbfbf" points="734,-124.5 734,-143.5 776,-143.5 776,-124.5 734,-124.5"/>
<text text-anchor="middle" x="755" y="-131.5" font-family="Helvetica,sans-Serif" font-size="10.00">QtGui</text>
</g>
<!-- Node1&#45;&gt;Node18 -->
<g id="edge20" class="edge"><title>Node1&#45;&gt;Node18</title>
<path fill="none" stroke="midnightblue" d="M594.008,-180.498C637.23,-168.283 690.83,-153.135 723.973,-143.768"/>
<polygon fill="midnightblue" stroke="midnightblue" points="725.305,-147.029 733.976,-140.942 723.401,-140.293 725.305,-147.029"/>
</g>
<!-- Node3&#45;&gt;Node2 -->
<g id="edge3" class="edge"><title>Node3&#45;&gt;Node2</title>
<path fill="none" stroke="midnightblue" d="M221.199,-124.403C184.747,-113.889 122.92,-96.0539 82.5256,-84.4016"/>
<polygon fill="midnightblue" stroke="midnightblue" points="83.3244,-80.9894 72.746,-81.5806 81.3842,-87.7152 83.3244,-80.9894"/>
</g>
<!-- Node4 -->
<g id="node4" class="node"><title>Node4</title>
<polygon fill="white" stroke="#bfbfbf" points="265.5,-62.5 265.5,-81.5 306.5,-81.5 306.5,-62.5 265.5,-62.5"/>
<text text-anchor="middle" x="286" y="-69.5" font-family="Helvetica,sans-Serif" font-size="10.00">string</text>
</g>
<!-- Node3&#45;&gt;Node4 -->
<g id="edge4" class="edge"><title>Node3&#45;&gt;Node4</title>
<path fill="none" stroke="midnightblue" d="M256.015,-124.403C261.161,-115.582 269.312,-101.608 275.818,-90.4548"/>
<polygon fill="midnightblue" stroke="midnightblue" points="278.979,-91.982 280.995,-81.5806 272.933,-88.4548 278.979,-91.982"/>
</g>
<!-- Node5 -->
<g id="node5" class="node"><title>Node5</title>
<polygon fill="white" stroke="#bfbfbf" points="105,-62.5 105,-81.5 247,-81.5 247,-62.5 105,-62.5"/>
<text text-anchor="middle" x="176" y="-69.5" font-family="Helvetica,sans-Serif" font-size="10.00">lib_manager/LibInterface.hpp</text>
</g>
<!-- Node3&#45;&gt;Node5 -->
<g id="edge5" class="edge"><title>Node3&#45;&gt;Node5</title>
<path fill="none" stroke="midnightblue" d="M240.254,-124.403C228.447,-114.958 209.257,-99.6056 194.918,-88.1342"/>
<polygon fill="midnightblue" stroke="midnightblue" points="196.721,-85.0945 186.726,-81.5806 192.348,-90.5606 196.721,-85.0945"/>
</g>
<!-- Node6&#45;&gt;Node4 -->
<g id="edge9" class="edge"><title>Node6&#45;&gt;Node4</title>
<path fill="none" stroke="midnightblue" d="M374.243,-124.403C357.339,-114.557 329.417,-98.2915 309.51,-86.6949"/>
<polygon fill="midnightblue" stroke="midnightblue" points="311.133,-83.5898 300.73,-81.5806 307.609,-89.6384 311.133,-83.5898"/>
</g>
<!-- Node7 -->
<g id="node7" class="node"><title>Node7</title>
<polygon fill="white" stroke="#bfbfbf" points="325,-62.5 325,-81.5 385,-81.5 385,-62.5 325,-62.5"/>
<text text-anchor="middle" x="355" y="-69.5" font-family="Helvetica,sans-Serif" font-size="10.00">QMdiArea</text>
</g>
<!-- Node6&#45;&gt;Node7 -->
<g id="edge7" class="edge"><title>Node6&#45;&gt;Node7</title>
<path fill="none" stroke="midnightblue" d="M384.129,-124.403C379.13,-115.582 371.211,-101.608 364.891,-90.4548"/>
<polygon fill="midnightblue" stroke="midnightblue" points="367.838,-88.5553 359.862,-81.5806 361.747,-92.0064 367.838,-88.5553"/>
</g>
<!-- Node8 -->
<g id="node8" class="node"><title>Node8</title>
<polygon fill="white" stroke="#bfbfbf" points="403.5,-62.5 403.5,-81.5 460.5,-81.5 460.5,-62.5 403.5,-62.5"/>
<text text-anchor="middle" x="432" y="-69.5" font-family="Helvetica,sans-Serif" font-size="10.00">QPixmap</text>
</g>
<!-- Node6&#45;&gt;Node8 -->
<g id="edge8" class="edge"><title>Node6&#45;&gt;Node8</title>
<path fill="none" stroke="midnightblue" d="M395.161,-124.403C401.611,-115.403 411.904,-101.041 419.973,-89.7824"/>
<polygon fill="midnightblue" stroke="midnightblue" points="422.87,-91.7476 425.851,-81.5806 417.18,-87.6699 422.87,-91.7476"/>
</g>
<!-- Node10 -->
<g id="node10" class="node"><title>Node10</title>
<polygon fill="white" stroke="#bfbfbf" points="479,-62.5 479,-81.5 559,-81.5 559,-62.5 479,-62.5"/>
<text text-anchor="middle" x="519" y="-69.5" font-family="Helvetica,sans-Serif" font-size="10.00">QMainWindow</text>
</g>
<!-- Node9&#45;&gt;Node10 -->
<g id="edge11" class="edge"><title>Node9&#45;&gt;Node10</title>
<path fill="none" stroke="midnightblue" d="M611.526,-124.403C593.722,-114.512 564.259,-98.1442 543.368,-86.5378"/>
<polygon fill="midnightblue" stroke="midnightblue" points="544.886,-83.3775 534.445,-81.5806 541.487,-89.4966 544.886,-83.3775"/>
</g>
<!-- Node11 -->
<g id="node11" class="node"><title>Node11</title>
<g id="a_node11"><a xlink:href="../../da/dfe/_my_q_dock_widget_8h.html" target="_top" xlink:title="MyQDockWidget.h">
<polygon fill="white" stroke="black" points="577,-62.5 577,-81.5 677,-81.5 677,-62.5 577,-62.5"/>
<text text-anchor="middle" x="627" y="-69.5" font-family="Helvetica,sans-Serif" font-size="10.00">MyQDockWidget.h</text>
</a>
</g>
</g>
<!-- Node9&#45;&gt;Node11 -->
<g id="edge12" class="edge"><title>Node9&#45;&gt;Node11</title>
<path fill="none" stroke="midnightblue" d="M627,-124.403C627,-115.938 627,-102.728 627,-91.8199"/>
<polygon fill="midnightblue" stroke="midnightblue" points="630.5,-91.5806 627,-81.5806 623.5,-91.5806 630.5,-91.5806"/>
</g>
<!-- Node9&#45;&gt;Node15 -->
<g id="edge16" class="edge"><title>Node9&#45;&gt;Node15</title>
<path fill="none" stroke="midnightblue" d="M678.058,-125.887C754.918,-115.052 893.764,-94.9411 916,-88 918.133,-87.3342 920.304,-86.543 922.456,-85.6773"/>
<polygon fill="midnightblue" stroke="midnightblue" points="923.916,-88.8588 931.598,-81.5627 921.043,-82.4756 923.916,-88.8588"/>
</g>
<!-- Node16 -->
<g id="node16" class="node"><title>Node16</title>
<polygon fill="white" stroke="#bfbfbf" points="695.5,-62.5 695.5,-81.5 730.5,-81.5 730.5,-62.5 695.5,-62.5"/>
<text text-anchor="middle" x="713" y="-69.5" font-family="Helvetica,sans-Serif" font-size="10.00">map</text>
</g>
<!-- Node9&#45;&gt;Node16 -->
<g id="edge17" class="edge"><title>Node9&#45;&gt;Node16</title>
<path fill="none" stroke="midnightblue" d="M639.322,-124.403C653.116,-114.78 675.699,-99.0242 692.232,-87.4891"/>
<polygon fill="midnightblue" stroke="midnightblue" points="694.503,-90.1729 700.701,-81.5806 690.497,-84.432 694.503,-90.1729"/>
</g>
<!-- Node17 -->
<g id="node17" class="node"><title>Node17</title>
<polygon fill="white" stroke="#bfbfbf" points="748.5,-57 748.5,-87 907.5,-87 907.5,-57 748.5,-57"/>
<text text-anchor="start" x="756.5" y="-75" font-family="Helvetica,sans-Serif" font-size="10.00">mars/cfg_manager/CFGManager</text>
<text text-anchor="middle" x="828" y="-64" font-family="Helvetica,sans-Serif" font-size="10.00">Interface.h</text>
</g>
<!-- Node9&#45;&gt;Node17 -->
<g id="edge18" class="edge"><title>Node9&#45;&gt;Node17</title>
<path fill="none" stroke="midnightblue" d="M655.798,-124.403C685.792,-115.45 733.564,-101.19 771.191,-89.9579"/>
<polygon fill="midnightblue" stroke="midnightblue" points="772.434,-93.2395 781.015,-87.0253 770.432,-86.532 772.434,-93.2395"/>
</g>
<!-- Node12 -->
<g id="node12" class="node"><title>Node12</title>
<polygon fill="white" stroke="#bfbfbf" points="493,-0.5 493,-19.5 571,-19.5 571,-0.5 493,-0.5"/>
<text text-anchor="middle" x="532" y="-7.5" font-family="Helvetica,sans-Serif" font-size="10.00">QDockWidget</text>
</g>
<!-- Node11&#45;&gt;Node12 -->
<g id="edge13" class="edge"><title>Node11&#45;&gt;Node12</title>
<path fill="none" stroke="midnightblue" d="M613.389,-62.4035C597.939,-52.646 572.51,-36.5854 554.184,-25.0109"/>
<polygon fill="midnightblue" stroke="midnightblue" points="555.91,-21.9613 545.586,-19.5806 552.172,-27.8798 555.91,-21.9613"/>
</g>
<!-- Node13 -->
<g id="node13" class="node"><title>Node13</title>
<polygon fill="white" stroke="#bfbfbf" points="589.5,-0.5 589.5,-19.5 664.5,-19.5 664.5,-0.5 589.5,-0.5"/>
<text text-anchor="middle" x="627" y="-7.5" font-family="Helvetica,sans-Serif" font-size="10.00">QCloseEvent</text>
</g>
<!-- Node11&#45;&gt;Node13 -->
<g id="edge14" class="edge"><title>Node11&#45;&gt;Node13</title>
<path fill="none" stroke="midnightblue" d="M627,-62.4035C627,-53.9381 627,-40.7283 627,-29.8199"/>
<polygon fill="midnightblue" stroke="midnightblue" points="630.5,-29.5806 627,-19.5806 623.5,-29.5806 630.5,-29.5806"/>
</g>
<!-- Node14 -->
<g id="node14" class="node"><title>Node14</title>
<polygon fill="white" stroke="#bfbfbf" points="683,-0.5 683,-19.5 753,-19.5 753,-0.5 683,-0.5"/>
<text text-anchor="middle" x="718" y="-7.5" font-family="Helvetica,sans-Serif" font-size="10.00">QHideEvent</text>
</g>
<!-- Node11&#45;&gt;Node14 -->
<g id="edge15" class="edge"><title>Node11&#45;&gt;Node14</title>
<path fill="none" stroke="midnightblue" d="M640.038,-62.4035C654.769,-52.6905 678.973,-36.7319 696.509,-25.1697"/>
<polygon fill="midnightblue" stroke="midnightblue" points="698.564,-28.0072 704.986,-19.5806 694.711,-22.1632 698.564,-28.0072"/>
</g>
</g>
</svg>
