<?xml version="1.0" encoding="UTF-8" standalone="no"?>
<!DOCTYPE svg PUBLIC "-//W3C//DTD SVG 1.1//EN"
 "http://www.w3.org/Graphics/SVG/1.1/DTD/svg11.dtd">
<!-- Generated by graphviz version 2.26.3 (20100126.1600)
 -->
<!-- Title: /home/kavonszadkowski/limes&#45;dev/simulation/mars/gui/src/dialogs/Dialog_Import_Mesh.h Pages: 1 -->
<svg width="436pt" height="252pt"
 viewBox="0.00 0.00 436.00 252.00" xmlns="http://www.w3.org/2000/svg" xmlns:xlink="http://www.w3.org/1999/xlink">
<g id="graph1" class="graph" transform="scale(1 1) rotate(0) translate(4 248)">
<title>/home/kavonszadkowski/limes&#45;dev/simulation/mars/gui/src/dialogs/Dialog_Import_Mesh.h</title>
<polygon fill="white" stroke="white" points="-4,5 -4,-248 433,-248 433,5 -4,5"/>
<!-- Node1 -->
<g id="node1" class="node"><title>Node1</title>
<polygon fill="#bfbfbf" stroke="black" points="88.5,-183 88.5,-243 213.5,-243 213.5,-183 88.5,-183"/>
<text text-anchor="start" x="96.5" y="-230" font-family="Helvetica,sans-Serif" font-size="10.00">/home/kavonszadkowski</text>
<text text-anchor="start" x="96.5" y="-217" font-family="Helvetica,sans-Serif" font-size="10.00">/limes&#45;dev/simulation</text>
<text text-anchor="start" x="96.5" y="-204" font-family="Helvetica,sans-Serif" font-size="10.00">/mars/gui/src/dialogs</text>
<text text-anchor="middle" x="151" y="-191" font-family="Helvetica,sans-Serif" font-size="10.00">/Dialog_Import_Mesh.h</text>
</g>
<!-- Node2 -->
<g id="node3" class="node"><title>Node2</title>
<a xlink:href="../../d8/d3e/_dialog___import___mesh_8cpp.html" target="_top" xlink:title="/home/kavonszadkowski\l/limes&#45;dev/simulation\l/mars/gui/src/dialogs\l/Dialog_Import_Mesh.cpp">
<polygon fill="white" stroke="black" points="0,-85 0,-145 128,-145 128,-85 0,-85"/>
<text text-anchor="start" x="8" y="-132" font-family="Helvetica,sans-Serif" font-size="10.00">/home/kavonszadkowski</text>
<text text-anchor="start" x="8" y="-119" font-family="Helvetica,sans-Serif" font-size="10.00">/limes&#45;dev/simulation</text>
<text text-anchor="start" x="8" y="-106" font-family="Helvetica,sans-Serif" font-size="10.00">/mars/gui/src/dialogs</text>
<text text-anchor="middle" x="64" y="-93" font-family="Helvetica,sans-Serif" font-size="10.00">/Dialog_Import_Mesh.cpp</text>
</a>
</g>
<!-- Node1&#45;&gt;Node2 -->
<g id="edge2" class="edge"><title>Node1&#45;&gt;Node2</title>
<path fill="none" stroke="midnightblue" d="M117.311,-175.051C108.551,-165.184 99.2306,-154.685 90.874,-145.272"/>
<polygon fill="midnightblue" stroke="midnightblue" points="114.931,-177.642 124.187,-182.797 120.166,-172.995 114.931,-177.642"/>
</g>
<!-- Node3 -->
<g id="node5" class="node"><title>Node3</title>
<a xlink:href="../../d3/d92/_menu_simulation_8h.html" target="_top" xlink:title="Provides the Simulation and Control menu entries. ">
<polygon fill="white" stroke="black" points="145.5,-91.5 145.5,-138.5 332.5,-138.5 332.5,-91.5 145.5,-91.5"/>
<text text-anchor="start" x="153.5" y="-125.5" font-family="Helvetica,sans-Serif" font-size="10.00">/home/kavonszadkowski</text>
<text text-anchor="start" x="153.5" y="-112.5" font-family="Helvetica,sans-Serif" font-size="10.00">/limes&#45;dev/simulation</text>
<text text-anchor="middle" x="239" y="-99.5" font-family="Helvetica,sans-Serif" font-size="10.00">/mars/gui/src/menus/MenuSimulation.h</text>
</a>
</g>
<!-- Node1&#45;&gt;Node3 -->
<g id="edge4" class="edge"><title>Node1&#45;&gt;Node3</title>
<path fill="none" stroke="midnightblue" d="M184.853,-175.3C195.895,-163.003 207.839,-149.702 217.692,-138.729"/>
<polygon fill="midnightblue" stroke="midnightblue" points="182.198,-173.018 178.121,-182.797 187.406,-177.695 182.198,-173.018"/>
</g>
<!-- Node4 -->
<g id="node7" class="node"><title>Node4</title>
<a xlink:href="../../da/d1e/_mars_gui_8cpp.html" target="_top" xlink:title="/home/kavonszadkowski\l/limes&#45;dev/simulation\l/mars/gui/src/MarsGui.cpp">
<polygon fill="white" stroke="black" points="82,-0.5 82,-47.5 214,-47.5 214,-0.5 82,-0.5"/>
<text text-anchor="start" x="90" y="-34.5" font-family="Helvetica,sans-Serif" font-size="10.00">/home/kavonszadkowski</text>
<text text-anchor="start" x="90" y="-21.5" font-family="Helvetica,sans-Serif" font-size="10.00">/limes&#45;dev/simulation</text>
<text text-anchor="middle" x="148" y="-8.5" font-family="Helvetica,sans-Serif" font-size="10.00">/mars/gui/src/MarsGui.cpp</text>
</a>
</g>
<!-- Node3&#45;&gt;Node4 -->
<g id="edge6" class="edge"><title>Node3&#45;&gt;Node4</title>
<path fill="none" stroke="midnightblue" d="M207.94,-83.9399C196.1,-72.1 182.805,-58.8047 171.749,-47.7495"/>
<polygon fill="midnightblue" stroke="midnightblue" points="205.545,-86.4946 215.091,-91.0908 210.495,-81.5448 205.545,-86.4946"/>
</g>
<!-- Node5 -->
<g id="node9" class="node"><title>Node5</title>
<a xlink:href="../../d9/d82/_menu_simulation_8cpp.html" target="_top" xlink:title="/home/kavonszadkowski\l/limes&#45;dev/simulation\l/mars/gui/src/menus/MenuSimulation.cpp">
<polygon fill="white" stroke="black" points="231.5,-0.5 231.5,-47.5 428.5,-47.5 428.5,-0.5 231.5,-0.5"/>
<text text-anchor="start" x="239.5" y="-34.5" font-family="Helvetica,sans-Serif" font-size="10.00">/home/kavonszadkowski</text>
<text text-anchor="start" x="239.5" y="-21.5" font-family="Helvetica,sans-Serif" font-size="10.00">/limes&#45;dev/simulation</text>
<text text-anchor="middle" x="330" y="-8.5" font-family="Helvetica,sans-Serif" font-size="10.00">/mars/gui/src/menus/MenuSimulation.cpp</text>
</a>
</g>
<!-- Node3&#45;&gt;Node5 -->
<g id="edge8" class="edge"><title>Node3&#45;&gt;Node5</title>
<path fill="none" stroke="midnightblue" d="M270.06,-83.9399C281.9,-72.1 295.195,-58.8047 306.251,-47.7495"/>
<polygon fill="midnightblue" stroke="midnightblue" points="267.505,-81.5448 262.909,-91.0908 272.455,-86.4946 267.505,-81.5448"/>
</g>
</g>
</svg>
