<?xml version="1.0" encoding="UTF-8" standalone="no"?>
<!DOCTYPE svg PUBLIC "-//W3C//DTD SVG 1.1//EN"
 "http://www.w3.org/Graphics/SVG/1.1/DTD/svg11.dtd">
<!-- Generated by graphviz version 2.26.3 (20100126.1600)
 -->
<!-- Title: /home/kavonszadkowski/limes&#45;dev/simulation/mars/interfaces/src/sim/ControllerManagerInterface.h Pages: 1 -->
<svg width="600pt" height="186pt"
 viewBox="0.00 0.00 600.00 186.00" xmlns="http://www.w3.org/2000/svg" xmlns:xlink="http://www.w3.org/1999/xlink">
<g id="graph1" class="graph" transform="scale(1 1) rotate(0) translate(4 182)">
<title>/home/kavonszadkowski/limes&#45;dev/simulation/mars/interfaces/src/sim/ControllerManagerInterface.h</title>
<polygon fill="white" stroke="white" points="-4,5 -4,-182 597,-182 597,5 -4,5"/>
<!-- Node1 -->
<g id="node1" class="node"><title>Node1</title>
<polygon fill="#bfbfbf" stroke="black" points="163,-117 163,-177 309,-177 309,-117 163,-117"/>
<text text-anchor="start" x="171" y="-164" font-family="Helvetica,sans-Serif" font-size="10.00">/home/kavonszadkowski</text>
<text text-anchor="start" x="171" y="-151" font-family="Helvetica,sans-Serif" font-size="10.00">/limes&#45;dev/simulation</text>
<text text-anchor="start" x="171" y="-138" font-family="Helvetica,sans-Serif" font-size="10.00">/mars/interfaces/src/sim</text>
<text text-anchor="middle" x="236" y="-125" font-family="Helvetica,sans-Serif" font-size="10.00">/ControllerManagerInterface.h</text>
</g>
<!-- Node2 -->
<g id="node3" class="node"><title>Node2</title>
<a xlink:href="../../d5/d15/_controller_data_8h.html" target="_top" xlink:title="../ControllerData.h">
<polygon fill="white" stroke="black" points="120.5,-58.5 120.5,-79.5 217.5,-79.5 217.5,-58.5 120.5,-58.5"/>
<text text-anchor="middle" x="169" y="-66.5" font-family="Helvetica,sans-Serif" font-size="10.00">../ControllerData.h</text>
</a>
</g>
<!-- Node1&#45;&gt;Node2 -->
<g id="edge2" class="edge"><title>Node1&#45;&gt;Node2</title>
<path fill="none" stroke="midnightblue" d="M209.904,-116.62C201.44,-106.765 192.311,-96.1381 184.83,-87.4285"/>
<polygon fill="midnightblue" stroke="midnightblue" points="187.408,-85.0586 178.237,-79.7535 182.098,-89.6198 187.408,-85.0586"/>
</g>
<!-- Node3 -->
<g id="node5" class="node"><title>Node3</title>
<polygon fill="white" stroke="#bfbfbf" points="0,-0.5 0,-21.5 44,-21.5 44,-0.5 0,-0.5"/>
<text text-anchor="middle" x="22" y="-8.5" font-family="Helvetica,sans-Serif" font-size="10.00">vector</text>
</g>
<!-- Node1&#45;&gt;Node3 -->
<g id="edge22" class="edge"><title>Node1&#45;&gt;Node3</title>
<path fill="none" stroke="midnightblue" d="M175.603,-116.835C155.016,-105.91 132.127,-93.0357 112,-80 87.1474,-63.9038 60.4346,-42.9066 42.6241,-28.3218"/>
<polygon fill="midnightblue" stroke="midnightblue" points="44.5813,-25.3987 34.6431,-21.7267 40.1222,-30.7947 44.5813,-25.3987"/>
</g>
<!-- Node7 -->
<g id="node13" class="node"><title>Node7</title>
<a xlink:href="../../df/db0/core__objects__exchange_8h.html" target="_top" xlink:title="../core_objects_exchange.h">
<polygon fill="white" stroke="black" points="234.5,-58.5 234.5,-79.5 371.5,-79.5 371.5,-58.5 234.5,-58.5"/>
<text text-anchor="middle" x="303" y="-66.5" font-family="Helvetica,sans-Serif" font-size="10.00">../core_objects_exchange.h</text>
</a>
</g>
<!-- Node1&#45;&gt;Node7 -->
<g id="edge12" class="edge"><title>Node1&#45;&gt;Node7</title>
<path fill="none" stroke="midnightblue" d="M262.096,-116.62C270.56,-106.765 279.689,-96.1381 287.17,-87.4285"/>
<polygon fill="midnightblue" stroke="midnightblue" points="289.902,-89.6198 293.763,-79.7535 284.592,-85.0586 289.902,-89.6198"/>
</g>
<!-- Node10 -->
<g id="node22" class="node"><title>Node10</title>
<polygon fill="white" stroke="#bfbfbf" points="388.5,-58.5 388.5,-79.5 417.5,-79.5 417.5,-58.5 388.5,-58.5"/>
<text text-anchor="middle" x="403" y="-66.5" font-family="Helvetica,sans-Serif" font-size="10.00">list</text>
</g>
<!-- Node1&#45;&gt;Node10 -->
<g id="edge24" class="edge"><title>Node1&#45;&gt;Node10</title>
<path fill="none" stroke="midnightblue" d="M300.942,-116.962C323.486,-106.492 349.102,-94.5486 379.324,-80.2955"/>
<polygon fill="midnightblue" stroke="midnightblue" points="380.862,-83.4403 388.41,-76.0063 377.873,-77.1101 380.862,-83.4403"/>
</g>
<!-- Node2&#45;&gt;Node3 -->
<g id="edge4" class="edge"><title>Node2&#45;&gt;Node3</title>
<path fill="none" stroke="midnightblue" d="M142.379,-58.4966C117.435,-48.6548 80.1284,-33.935 53.6666,-23.4943"/>
<polygon fill="midnightblue" stroke="midnightblue" points="54.6911,-20.136 44.1043,-19.7214 52.1219,-26.6475 54.6911,-20.136"/>
</g>
<!-- Node4 -->
<g id="node7" class="node"><title>Node4</title>
<polygon fill="white" stroke="#bfbfbf" points="207.5,-0.5 207.5,-21.5 248.5,-21.5 248.5,-0.5 207.5,-0.5"/>
<text text-anchor="middle" x="228" y="-8.5" font-family="Helvetica,sans-Serif" font-size="10.00">string</text>
</g>
<!-- Node2&#45;&gt;Node4 -->
<g id="edge6" class="edge"><title>Node2&#45;&gt;Node4</title>
<path fill="none" stroke="midnightblue" d="M179.822,-58.3619C188.221,-50.1043 200.054,-38.4725 209.89,-28.8029"/>
<polygon fill="midnightblue" stroke="midnightblue" points="212.569,-31.077 217.247,-21.5707 207.662,-26.0851 212.569,-31.077"/>
</g>
<!-- Node5 -->
<g id="node9" class="node"><title>Node5</title>
<a xlink:href="../../dd/d9e/_m_a_r_s_defs_8h.html" target="_top" xlink:title="MARSDefs.h">
<polygon fill="white" stroke="black" points="265.5,-0.5 265.5,-21.5 340.5,-21.5 340.5,-0.5 265.5,-0.5"/>
<text text-anchor="middle" x="303" y="-8.5" font-family="Helvetica,sans-Serif" font-size="10.00">MARSDefs.h</text>
</a>
</g>
<!-- Node2&#45;&gt;Node5 -->
<g id="edge8" class="edge"><title>Node2&#45;&gt;Node5</title>
<path fill="none" stroke="midnightblue" d="M193.266,-58.4966C214.478,-49.3154 245.498,-35.8889 269.15,-25.6516"/>
<polygon fill="midnightblue" stroke="midnightblue" points="270.674,-28.8055 278.461,-21.6212 267.894,-22.3815 270.674,-28.8055"/>
</g>
<!-- Node6 -->
<g id="node11" class="node"><title>Node6</title>
<polygon fill="white" stroke="#bfbfbf" points="62,-0.5 62,-21.5 190,-21.5 190,-0.5 62,-0.5"/>
<text text-anchor="middle" x="126" y="-8.5" font-family="Helvetica,sans-Serif" font-size="10.00">configmaps/ConfigData.h</text>
</g>
<!-- Node2&#45;&gt;Node6 -->
<g id="edge10" class="edge"><title>Node2&#45;&gt;Node6</title>
<path fill="none" stroke="midnightblue" d="M161.113,-58.3619C155.173,-50.3496 146.878,-39.1605 139.841,-29.6696"/>
<polygon fill="midnightblue" stroke="midnightblue" points="142.604,-27.5193 133.837,-21.5707 136.981,-31.6883 142.604,-27.5193"/>
</g>
<!-- Node7&#45;&gt;Node4 -->
<g id="edge20" class="edge"><title>Node7&#45;&gt;Node4</title>
<path fill="none" stroke="midnightblue" d="M289.244,-58.3619C278.249,-49.859 262.627,-37.7785 249.914,-27.9466"/>
<polygon fill="midnightblue" stroke="midnightblue" points="251.721,-24.9195 241.669,-21.5707 247.438,-30.4569 251.721,-24.9195"/>
</g>
<!-- Node7&#45;&gt;Node5 -->
<g id="edge14" class="edge"><title>Node7&#45;&gt;Node5</title>
<path fill="none" stroke="midnightblue" d="M303,-58.3619C303,-50.9219 303,-40.7427 303,-31.7276"/>
<polygon fill="midnightblue" stroke="midnightblue" points="306.5,-31.5706 303,-21.5707 299.5,-31.5707 306.5,-31.5706"/>
</g>
<!-- Node8 -->
<g id="node16" class="node"><title>Node8</title>
<polygon fill="white" stroke="#bfbfbf" points="357.5,-0.5 357.5,-21.5 456.5,-21.5 456.5,-0.5 357.5,-0.5"/>
<text text-anchor="middle" x="407" y="-8.5" font-family="Helvetica,sans-Serif" font-size="10.00">mars/utils/Vector.h</text>
</g>
<!-- Node7&#45;&gt;Node8 -->
<g id="edge16" class="edge"><title>Node7&#45;&gt;Node8</title>
<path fill="none" stroke="midnightblue" d="M322.075,-58.3619C338.055,-49.4502 361.081,-36.6087 379.127,-26.5447"/>
<polygon fill="midnightblue" stroke="midnightblue" points="381.017,-29.4982 388.046,-21.5707 377.607,-23.3846 381.017,-29.4982"/>
</g>
<!-- Node9 -->
<g id="node18" class="node"><title>Node9</title>
<polygon fill="white" stroke="#bfbfbf" points="474,-0.5 474,-21.5 592,-21.5 592,-0.5 474,-0.5"/>
<text text-anchor="middle" x="533" y="-8.5" font-family="Helvetica,sans-Serif" font-size="10.00">mars/utils/Quaternion.h</text>
</g>
<!-- Node7&#45;&gt;Node9 -->
<g id="edge18" class="edge"><title>Node7&#45;&gt;Node9</title>
<path fill="none" stroke="midnightblue" d="M344.651,-58.4966C383.04,-48.8159 440.145,-34.4156 481.407,-24.0105"/>
<polygon fill="midnightblue" stroke="midnightblue" points="482.43,-27.3621 491.271,-21.5231 480.718,-20.5746 482.43,-27.3621"/>
</g>
</g>
</svg>
