<?xml version="1.0" encoding="UTF-8" standalone="no"?>
<!DOCTYPE svg PUBLIC "-//W3C//DTD SVG 1.1//EN"
 "http://www.w3.org/Graphics/SVG/1.1/DTD/svg11.dtd">
<!-- Generated by graphviz version 2.36.0 (20140111.2315)
 -->
<!-- Title: /media/kavonszadkowski/work/marsdocs/mars/interfaces/src/sim/ControllerManagerInterface.h Pages: 1 -->
<svg width="604pt" height="162pt"
 viewBox="0.00 0.00 604.00 162.00" xmlns="http://www.w3.org/2000/svg" xmlns:xlink="http://www.w3.org/1999/xlink">
<g id="graph0" class="graph" transform="scale(1 1) rotate(0) translate(4 158)">
<title>/media/kavonszadkowski/work/marsdocs/mars/interfaces/src/sim/ControllerManagerInterface.h</title>
<polygon fill="white" stroke="none" points="-4,4 -4,-158 600,-158 600,4 -4,4"/>
<!-- Node1 -->
<g id="node1" class="node"><title>Node1</title>
<polygon fill="#bfbfbf" stroke="black" points="146.5,-112.5 146.5,-153.5 327.5,-153.5 327.5,-112.5 146.5,-112.5"/>
<text text-anchor="start" x="154.5" y="-141.5" font-family="Helvetica,sans-Serif" font-size="10.00">/media/kavonszadkowski</text>
<text text-anchor="start" x="154.5" y="-130.5" font-family="Helvetica,sans-Serif" font-size="10.00">/work/marsdocs/mars/interfaces</text>
<text text-anchor="middle" x="237" y="-119.5" font-family="Helvetica,sans-Serif" font-size="10.00">/src/sim/ControllerManagerInterface.h</text>
</g>
<!-- Node2 -->
<g id="node2" class="node"><title>Node2</title>
<g id="a_node2"><a xlink:href="../../d5/d15/_controller_data_8h.html" target="_top" xlink:title="../ControllerData.h">
<polygon fill="white" stroke="black" points="121.5,-56.5 121.5,-75.5 218.5,-75.5 218.5,-56.5 121.5,-56.5"/>
<text text-anchor="middle" x="170" y="-63.5" font-family="Helvetica,sans-Serif" font-size="10.00">../ControllerData.h</text>
</a>
</g>
</g>
<!-- Node1&#45;&gt;Node2 -->
<g id="edge1" class="edge"><title>Node1&#45;&gt;Node2</title>
<path fill="none" stroke="midnightblue" d="M216.898,-112.498C207.119,-103.011 195.517,-91.7557 186.3,-82.8131"/>
<polygon fill="midnightblue" stroke="midnightblue" points="188.533,-80.1036 178.919,-75.6525 183.659,-85.1277 188.533,-80.1036"/>
</g>
<!-- Node3 -->
<g id="node3" class="node"><title>Node3</title>
<polygon fill="white" stroke="#bfbfbf" points="0,-0.5 0,-19.5 44,-19.5 44,-0.5 0,-0.5"/>
<text text-anchor="middle" x="22" y="-7.5" font-family="Helvetica,sans-Serif" font-size="10.00">vector</text>
</g>
<!-- Node1&#45;&gt;Node3 -->
<g id="edge11" class="edge"><title>Node1&#45;&gt;Node3</title>
<path fill="none" stroke="midnightblue" d="M187.173,-112.443C163.798,-102.576 135.892,-89.786 112,-76 85.9843,-60.9889 58.2918,-40.1671 40.6042,-26.1715"/>
<polygon fill="midnightblue" stroke="midnightblue" points="42.3213,-23.0625 32.3285,-19.5418 37.9447,-28.5256 42.3213,-23.0625"/>
</g>
<!-- Node7 -->
<g id="node7" class="node"><title>Node7</title>
<g id="a_node7"><a xlink:href="../../df/db0/core__objects__exchange_8h.html" target="_top" xlink:title="../core_objects_exchange.h">
<polygon fill="white" stroke="black" points="236.5,-56.5 236.5,-75.5 373.5,-75.5 373.5,-56.5 236.5,-56.5"/>
<text text-anchor="middle" x="305" y="-63.5" font-family="Helvetica,sans-Serif" font-size="10.00">../core_objects_exchange.h</text>
</a>
</g>
</g>
<!-- Node1&#45;&gt;Node7 -->
<g id="edge6" class="edge"><title>Node1&#45;&gt;Node7</title>
<path fill="none" stroke="midnightblue" d="M257.402,-112.498C267.327,-103.011 279.102,-91.7557 288.457,-82.8131"/>
<polygon fill="midnightblue" stroke="midnightblue" points="291.138,-85.0924 295.948,-75.6525 286.301,-80.0323 291.138,-85.0924"/>
</g>
<!-- Node10 -->
<g id="node10" class="node"><title>Node10</title>
<polygon fill="white" stroke="#bfbfbf" points="391.5,-56.5 391.5,-75.5 420.5,-75.5 420.5,-56.5 391.5,-56.5"/>
<text text-anchor="middle" x="406" y="-63.5" font-family="Helvetica,sans-Serif" font-size="10.00">list</text>
</g>
<!-- Node1&#45;&gt;Node10 -->
<g id="edge12" class="edge"><title>Node1&#45;&gt;Node10</title>
<path fill="none" stroke="midnightblue" d="M287.706,-112.498C318.842,-100.522 357.309,-85.7274 381.754,-76.3255"/>
<polygon fill="midnightblue" stroke="midnightblue" points="383.232,-79.5068 391.309,-72.6502 380.72,-72.9733 383.232,-79.5068"/>
</g>
<!-- Node2&#45;&gt;Node3 -->
<g id="edge2" class="edge"><title>Node2&#45;&gt;Node3</title>
<path fill="none" stroke="midnightblue" d="M146.549,-56.4435C121.577,-47.3322 81.8938,-32.8531 54.0471,-22.6929"/>
<polygon fill="midnightblue" stroke="midnightblue" points="54.9664,-19.3027 44.3725,-19.1629 52.5671,-25.8786 54.9664,-19.3027"/>
</g>
<!-- Node4 -->
<g id="node4" class="node"><title>Node4</title>
<polygon fill="white" stroke="#bfbfbf" points="208.5,-0.5 208.5,-19.5 249.5,-19.5 249.5,-0.5 208.5,-0.5"/>
<text text-anchor="middle" x="229" y="-7.5" font-family="Helvetica,sans-Serif" font-size="10.00">string</text>
</g>
<!-- Node2&#45;&gt;Node4 -->
<g id="edge3" class="edge"><title>Node2&#45;&gt;Node4</title>
<path fill="none" stroke="midnightblue" d="M179.479,-56.324C188.201,-48.3414 201.343,-36.3128 211.898,-26.6529"/>
<polygon fill="midnightblue" stroke="midnightblue" points="214.334,-29.1674 219.348,-19.8339 209.608,-24.0036 214.334,-29.1674"/>
</g>
<!-- Node5 -->
<g id="node5" class="node"><title>Node5</title>
<g id="a_node5"><a xlink:href="../../dd/d9e/_m_a_r_s_defs_8h.html" target="_top" xlink:title="MARSDefs.h">
<polygon fill="white" stroke="black" points="267.5,-0.5 267.5,-19.5 342.5,-19.5 342.5,-0.5 267.5,-0.5"/>
<text text-anchor="middle" x="305" y="-7.5" font-family="Helvetica,sans-Serif" font-size="10.00">MARSDefs.h</text>
</a>
</g>
</g>
<!-- Node2&#45;&gt;Node5 -->
<g id="edge4" class="edge"><title>Node2&#45;&gt;Node5</title>
<path fill="none" stroke="midnightblue" d="M191.391,-56.4435C213.707,-47.5171 248.903,-33.4387 274.208,-23.3168"/>
<polygon fill="midnightblue" stroke="midnightblue" points="275.724,-26.4801 283.709,-19.5164 273.124,-19.9807 275.724,-26.4801"/>
</g>
<!-- Node6 -->
<g id="node6" class="node"><title>Node6</title>
<polygon fill="white" stroke="#bfbfbf" points="62,-0.5 62,-19.5 190,-19.5 190,-0.5 62,-0.5"/>
<text text-anchor="middle" x="126" y="-7.5" font-family="Helvetica,sans-Serif" font-size="10.00">configmaps/ConfigData.h</text>
</g>
<!-- Node2&#45;&gt;Node6 -->
<g id="edge5" class="edge"><title>Node2&#45;&gt;Node6</title>
<path fill="none" stroke="midnightblue" d="M162.734,-56.083C156.455,-48.3768 147.212,-37.0333 139.569,-27.6531"/>
<polygon fill="midnightblue" stroke="midnightblue" points="142.161,-25.2926 133.131,-19.7511 136.734,-29.7143 142.161,-25.2926"/>
</g>
<!-- Node7&#45;&gt;Node4 -->
<g id="edge10" class="edge"><title>Node7&#45;&gt;Node4</title>
<path fill="none" stroke="midnightblue" d="M292.789,-56.324C281.224,-48.1066 263.625,-35.6017 249.839,-25.8069"/>
<polygon fill="midnightblue" stroke="midnightblue" points="251.612,-22.7729 241.433,-19.8339 247.557,-28.4791 251.612,-22.7729"/>
</g>
<!-- Node7&#45;&gt;Node5 -->
<g id="edge7" class="edge"><title>Node7&#45;&gt;Node5</title>
<path fill="none" stroke="midnightblue" d="M305,-56.083C305,-49.0059 305,-38.8611 305,-29.9865"/>
<polygon fill="midnightblue" stroke="midnightblue" points="308.5,-29.751 305,-19.7511 301.5,-29.7511 308.5,-29.751"/>
</g>
<!-- Node8 -->
<g id="node8" class="node"><title>Node8</title>
<polygon fill="white" stroke="#bfbfbf" points="360.5,-0.5 360.5,-19.5 459.5,-19.5 459.5,-0.5 360.5,-0.5"/>
<text text-anchor="middle" x="410" y="-7.5" font-family="Helvetica,sans-Serif" font-size="10.00">mars/utils/Vector.h</text>
</g>
<!-- Node7&#45;&gt;Node8 -->
<g id="edge8" class="edge"><title>Node7&#45;&gt;Node8</title>
<path fill="none" stroke="midnightblue" d="M321.87,-56.324C338.709,-47.6641 364.807,-34.2424 384.238,-24.249"/>
<polygon fill="midnightblue" stroke="midnightblue" points="385.88,-27.3405 393.172,-19.6545 382.678,-21.1155 385.88,-27.3405"/>
</g>
<!-- Node9 -->
<g id="node9" class="node"><title>Node9</title>
<polygon fill="white" stroke="#bfbfbf" points="478,-0.5 478,-19.5 596,-19.5 596,-0.5 478,-0.5"/>
<text text-anchor="middle" x="537" y="-7.5" font-family="Helvetica,sans-Serif" font-size="10.00">mars/utils/Quaternion.h</text>
</g>
<!-- Node7&#45;&gt;Node9 -->
<g id="edge9" class="edge"><title>Node7&#45;&gt;Node9</title>
<path fill="none" stroke="midnightblue" d="M341.761,-56.4435C382.063,-47.0629 446.809,-31.9926 490.585,-21.8036"/>
<polygon fill="midnightblue" stroke="midnightblue" points="491.465,-25.1924 500.411,-19.5164 489.878,-18.3746 491.465,-25.1924"/>
</g>
</g>
</svg>
