<?xml version="1.0" encoding="UTF-8" standalone="no"?>
<!DOCTYPE svg PUBLIC "-//W3C//DTD SVG 1.1//EN"
 "http://www.w3.org/Graphics/SVG/1.1/DTD/svg11.dtd">
<!-- Generated by graphviz version 2.26.3 (20100126.1600)
 -->
<!-- Title: /home/kavonszadkowski/limes&#45;dev/simulation/mars/sim/src/sensors/CameraSensor.h Pages: 1 -->
<svg width="1060pt" height="142pt"
 viewBox="0.00 0.00 1060.00 142.00" xmlns="http://www.w3.org/2000/svg" xmlns:xlink="http://www.w3.org/1999/xlink">
<g id="graph1" class="graph" transform="scale(1 1) rotate(0) translate(4 138)">
<title>/home/kavonszadkowski/limes&#45;dev/simulation/mars/sim/src/sensors/CameraSensor.h</title>
<polygon fill="white" stroke="white" points="-4,5 -4,-138 1057,-138 1057,5 -4,5"/>
<!-- Node1 -->
<g id="node1" class="node"><title>Node1</title>
<polygon fill="#bfbfbf" stroke="black" points="457.5,-73 457.5,-133 582.5,-133 582.5,-73 457.5,-73"/>
<text text-anchor="start" x="465.5" y="-120" font-family="Helvetica,sans-Serif" font-size="10.00">/home/kavonszadkowski</text>
<text text-anchor="start" x="465.5" y="-107" font-family="Helvetica,sans-Serif" font-size="10.00">/limes&#45;dev/simulation</text>
<text text-anchor="start" x="465.5" y="-94" font-family="Helvetica,sans-Serif" font-size="10.00">/mars/sim/src/sensors</text>
<text text-anchor="middle" x="520" y="-81" font-family="Helvetica,sans-Serif" font-size="10.00">/CameraSensor.h</text>
</g>
<!-- Node2 -->
<g id="node3" class="node"><title>Node2</title>
<polygon fill="white" stroke="#bfbfbf" points="0,-1 0,-35 134,-35 134,-1 0,-1"/>
<text text-anchor="start" x="8" y="-22" font-family="Helvetica,sans-Serif" font-size="10.00">mars/data_broker/Receiver</text>
<text text-anchor="middle" x="67" y="-9" font-family="Helvetica,sans-Serif" font-size="10.00">Interface.h</text>
</g>
<!-- Node1&#45;&gt;Node2 -->
<g id="edge2" class="edge"><title>Node1&#45;&gt;Node2</title>
<path fill="none" stroke="midnightblue" d="M457.42,-92.9938C384.577,-81.0967 260.453,-60.0523 144.231,-36.2002"/>
<polygon fill="midnightblue" stroke="midnightblue" points="144.592,-32.7009 134.091,-34.1076 143.177,-39.5565 144.592,-32.7009"/>
</g>
<!-- Node3 -->
<g id="node5" class="node"><title>Node3</title>
<polygon fill="white" stroke="#bfbfbf" points="151.5,-1 151.5,-35 254.5,-35 254.5,-1 151.5,-1"/>
<text text-anchor="start" x="159.5" y="-22" font-family="Helvetica,sans-Serif" font-size="10.00">mars/interfaces/sim</text>
<text text-anchor="middle" x="203" y="-9" font-family="Helvetica,sans-Serif" font-size="10.00">/SensorInterface.h</text>
</g>
<!-- Node1&#45;&gt;Node3 -->
<g id="edge4" class="edge"><title>Node1&#45;&gt;Node3</title>
<path fill="none" stroke="midnightblue" d="M457.248,-87.3203C407.449,-74.7216 335.829,-56.2584 264.706,-36.4382"/>
<polygon fill="midnightblue" stroke="midnightblue" points="265.249,-32.9559 254.676,-33.633 263.364,-39.6972 265.249,-32.9559"/>
</g>
<!-- Node4 -->
<g id="node7" class="node"><title>Node4</title>
<polygon fill="white" stroke="#bfbfbf" points="271.5,-7.5 271.5,-28.5 370.5,-28.5 370.5,-7.5 271.5,-7.5"/>
<text text-anchor="middle" x="321" y="-15.5" font-family="Helvetica,sans-Serif" font-size="10.00">mars/utils/Vector.h</text>
</g>
<!-- Node1&#45;&gt;Node4 -->
<g id="edge6" class="edge"><title>Node1&#45;&gt;Node4</title>
<path fill="none" stroke="midnightblue" d="M457.308,-76.2221C423.474,-61.7702 383.029,-44.4947 355.026,-32.5337"/>
<polygon fill="midnightblue" stroke="midnightblue" points="356.242,-29.2474 345.671,-28.538 353.493,-35.6847 356.242,-29.2474"/>
</g>
<!-- Node5 -->
<g id="node9" class="node"><title>Node5</title>
<polygon fill="white" stroke="#bfbfbf" points="388,-7.5 388,-28.5 506,-28.5 506,-7.5 388,-7.5"/>
<text text-anchor="middle" x="447" y="-15.5" font-family="Helvetica,sans-Serif" font-size="10.00">mars/utils/Quaternion.h</text>
</g>
<!-- Node1&#45;&gt;Node5 -->
<g id="edge8" class="edge"><title>Node1&#45;&gt;Node5</title>
<path fill="none" stroke="midnightblue" d="M494.057,-72.7928C483.71,-60.7441 472.123,-47.2532 463.037,-36.6729"/>
<polygon fill="midnightblue" stroke="midnightblue" points="465.527,-34.2008 456.357,-28.8949 460.217,-38.7616 465.527,-34.2008"/>
</g>
<!-- Node6 -->
<g id="node11" class="node"><title>Node6</title>
<polygon fill="white" stroke="#bfbfbf" points="524,-1 524,-35 664,-35 664,-1 524,-1"/>
<text text-anchor="start" x="532" y="-22" font-family="Helvetica,sans-Serif" font-size="10.00">mars/interfaces/graphics</text>
<text text-anchor="middle" x="594" y="-9" font-family="Helvetica,sans-Serif" font-size="10.00">/GraphicsWindowInterface.h</text>
</g>
<!-- Node1&#45;&gt;Node6 -->
<g id="edge10" class="edge"><title>Node1&#45;&gt;Node6</title>
<path fill="none" stroke="midnightblue" d="M546.298,-72.7928C554.78,-63.0495 564.084,-52.363 572.205,-43.0353"/>
<polygon fill="midnightblue" stroke="midnightblue" points="575.06,-45.0862 578.986,-35.2458 569.78,-40.4899 575.06,-45.0862"/>
</g>
<!-- Node7 -->
<g id="node13" class="node"><title>Node7</title>
<polygon fill="white" stroke="#bfbfbf" points="681.5,-1 681.5,-35 818.5,-35 818.5,-1 681.5,-1"/>
<text text-anchor="start" x="689.5" y="-22" font-family="Helvetica,sans-Serif" font-size="10.00">mars/interfaces/graphics</text>
<text text-anchor="middle" x="750" y="-9" font-family="Helvetica,sans-Serif" font-size="10.00">/GraphicsUpdateInterface.h</text>
</g>
<!-- Node1&#45;&gt;Node7 -->
<g id="edge12" class="edge"><title>Node1&#45;&gt;Node7</title>
<path fill="none" stroke="midnightblue" d="M582.545,-79.8857C617.413,-66.9995 660.47,-51.0872 694.192,-38.6248"/>
<polygon fill="midnightblue" stroke="midnightblue" points="695.721,-41.7909 703.888,-35.0413 693.295,-35.2249 695.721,-41.7909"/>
</g>
<!-- Node8 -->
<g id="node15" class="node"><title>Node8</title>
<polygon fill="white" stroke="#bfbfbf" points="836,-1 836,-35 976,-35 976,-1 836,-1"/>
<text text-anchor="start" x="844" y="-22" font-family="Helvetica,sans-Serif" font-size="10.00">mars/interfaces/graphics</text>
<text text-anchor="middle" x="906" y="-9" font-family="Helvetica,sans-Serif" font-size="10.00">/GraphicsCameraInterface.h</text>
</g>
<!-- Node1&#45;&gt;Node8 -->
<g id="edge14" class="edge"><title>Node1&#45;&gt;Node8</title>
<path fill="none" stroke="midnightblue" d="M582.656,-89.5015C642.542,-76.5597 735.645,-56.3361 825.939,-36.2281"/>
<polygon fill="midnightblue" stroke="midnightblue" points="826.797,-39.6227 835.796,-34.0308 825.274,-32.7904 826.797,-39.6227"/>
</g>
<!-- Node9 -->
<g id="node17" class="node"><title>Node9</title>
<polygon fill="white" stroke="#bfbfbf" points="993.5,-7.5 993.5,-28.5 1052.5,-28.5 1052.5,-7.5 993.5,-7.5"/>
<text text-anchor="middle" x="1023" y="-15.5" font-family="Helvetica,sans-Serif" font-size="10.00">inttypes.h</text>
</g>
<!-- Node1&#45;&gt;Node9 -->
<g id="edge16" class="edge"><title>Node1&#45;&gt;Node9</title>
<path fill="none" stroke="midnightblue" d="M582.58,-99.921C673.089,-94.1458 845.018,-78.19 985,-36 987.979,-35.1021 991.02,-34.0041 994.019,-32.7977"/>
<polygon fill="midnightblue" stroke="midnightblue" points="995.596,-35.9274 1003.33,-28.6863 992.769,-29.5238 995.596,-35.9274"/>
</g>
</g>
</svg>
