<?xml version="1.0" encoding="UTF-8" standalone="no"?>
<!DOCTYPE svg PUBLIC "-//W3C//DTD SVG 1.1//EN"
 "http://www.w3.org/Graphics/SVG/1.1/DTD/svg11.dtd">
<!-- Generated by graphviz version 2.26.3 (20100126.1600)
 -->
<!-- Title: mars::plugins::DataVaultWrapper::DataVaultWrapper Pages: 1 -->
<svg width="492pt" height="203pt"
 viewBox="0.00 0.00 492.00 203.00" xmlns="http://www.w3.org/2000/svg" xmlns:xlink="http://www.w3.org/1999/xlink">
<g id="graph1" class="graph" transform="scale(1 1) rotate(0) translate(4 199)">
<title>mars::plugins::DataVaultWrapper::DataVaultWrapper</title>
<polygon fill="white" stroke="white" points="-4,5 -4,-199 489,-199 489,5 -4,5"/>
<!-- Node1 -->
<g id="node1" class="node"><title>Node1</title>
<polygon fill="#bfbfbf" stroke="black" points="344,-69 344,-103 484,-103 484,-69 344,-69"/>
<text text-anchor="start" x="352" y="-90" font-family="Helvetica,sans-Serif" font-size="10.00">mars::plugins::DataVault</text>
<text text-anchor="middle" x="414" y="-77" font-family="Helvetica,sans-Serif" font-size="10.00">Wrapper::DataVaultWrapper</text>
</g>
<!-- Node2 -->
<g id="node2" class="node"><title>Node2</title>
<a xlink:href="../../da/df1/classmars_1_1interfaces_1_1_mars_plugin_template_g_u_i.html" target="_top" xlink:title="mars::interfaces::MarsPlugin\lTemplateGUI">
<polygon fill="white" stroke="black" points="161,-144 161,-178 303,-178 303,-144 161,-144"/>
<text text-anchor="start" x="169" y="-165" font-family="Helvetica,sans-Serif" font-size="10.00">mars::interfaces::MarsPlugin</text>
<text text-anchor="middle" x="232" y="-152" font-family="Helvetica,sans-Serif" font-size="10.00">TemplateGUI</text>
</a>
</g>
<!-- Node2&#45;&gt;Node1 -->
<g id="edge2" class="edge"><title>Node2&#45;&gt;Node1</title>
<path fill="none" stroke="midnightblue" d="M293.609,-140.53C298.501,-138.72 303.346,-136.866 308,-135 332.275,-125.267 359.001,-112.901 379.544,-103.027"/>
<polygon fill="midnightblue" stroke="midnightblue" points="292.393,-137.248 284.183,-143.946 294.778,-143.829 292.393,-137.248"/>
</g>
<!-- Node3 -->
<g id="node4" class="node"><title>Node3</title>
<polygon fill="white" stroke="#bfbfbf" points="26,-173.5 26,-194.5 94,-194.5 94,-173.5 26,-173.5"/>
<text text-anchor="middle" x="60" y="-181.5" font-family="Helvetica,sans-Serif" font-size="10.00">LibInterface</text>
</g>
<!-- Node3&#45;&gt;Node2 -->
<g id="edge4" class="edge"><title>Node3&#45;&gt;Node2</title>
<path fill="none" stroke="midnightblue" d="M104.639,-178.031C121.744,-175.743 141.715,-173.073 160.7,-170.534"/>
<polygon fill="midnightblue" stroke="midnightblue" points="103.841,-174.606 94.3934,-179.401 104.769,-181.545 103.841,-174.606"/>
</g>
<!-- Node4 -->
<g id="node6" class="node"><title>Node4</title>
<a xlink:href="../../d1/d70/classmars_1_1interfaces_1_1_plugin_interface.html" target="_top" xlink:title="The interface to load plugin dynamically into the simulation. ">
<polygon fill="white" stroke="black" points="0,-121 0,-155 120,-155 120,-121 0,-121"/>
<text text-anchor="start" x="8" y="-142" font-family="Helvetica,sans-Serif" font-size="10.00">mars::interfaces::Plugin</text>
<text text-anchor="middle" x="60" y="-129" font-family="Helvetica,sans-Serif" font-size="10.00">Interface</text>
</a>
</g>
<!-- Node4&#45;&gt;Node2 -->
<g id="edge6" class="edge"><title>Node4&#45;&gt;Node2</title>
<path fill="none" stroke="midnightblue" d="M130.184,-147.385C140.334,-148.742 150.788,-150.14 160.955,-151.5"/>
<polygon fill="midnightblue" stroke="midnightblue" points="130.533,-143.901 120.157,-146.044 129.605,-150.839 130.533,-143.901"/>
</g>
<!-- Node5 -->
<g id="node8" class="node"><title>Node5</title>
<a xlink:href="../../d0/d0e/classmars_1_1data__broker_1_1_receiver_interface.html" target="_top" xlink:title="Interface for classes that want to receive data from the DataBroker. ">
<polygon fill="white" stroke="black" points="181.5,-92 181.5,-126 282.5,-126 282.5,-92 181.5,-92"/>
<text text-anchor="start" x="189.5" y="-113" font-family="Helvetica,sans-Serif" font-size="10.00">mars::data_broker::</text>
<text text-anchor="middle" x="232" y="-100" font-family="Helvetica,sans-Serif" font-size="10.00">ReceiverInterface</text>
</a>
</g>
<!-- Node5&#45;&gt;Node1 -->
<g id="edge8" class="edge"><title>Node5&#45;&gt;Node1</title>
<path fill="none" stroke="midnightblue" d="M292.695,-101.33C309.097,-99.257 326.981,-96.9969 343.854,-94.8646"/>
<polygon fill="midnightblue" stroke="midnightblue" points="292.179,-97.867 282.697,-102.593 293.057,-104.812 292.179,-97.867"/>
</g>
<!-- Node6 -->
<g id="node10" class="node"><title>Node6</title>
<a xlink:href="../../d3/d52/classmars_1_1main__gui_1_1_menu_interface.html" target="_top" xlink:title="Provides the menuAction function. ">
<polygon fill="white" stroke="black" points="156,-52.5 156,-73.5 308,-73.5 308,-52.5 156,-52.5"/>
<text text-anchor="middle" x="232" y="-60.5" font-family="Helvetica,sans-Serif" font-size="10.00">mars::main_gui::MenuInterface</text>
</a>
</g>
<!-- Node6&#45;&gt;Node1 -->
<g id="edge10" class="edge"><title>Node6&#45;&gt;Node1</title>
<path fill="none" stroke="midnightblue" d="M318.221,-73.896C326.855,-74.9871 335.547,-76.0856 343.984,-77.1518"/>
<polygon fill="midnightblue" stroke="midnightblue" points="318.49,-70.4023 308.13,-72.6208 317.612,-77.347 318.49,-70.4023"/>
</g>
<!-- Node7 -->
<g id="node12" class="node"><title>Node7</title>
<a xlink:href="../../d4/d1a/classmars_1_1cfg__manager_1_1_c_f_g_client.html" target="_top" xlink:title="mars::cfg_manager::\lCFGClient">
<polygon fill="white" stroke="black" points="178.5,-0 178.5,-34 285.5,-34 285.5,-0 178.5,-0"/>
<text text-anchor="start" x="186.5" y="-21" font-family="Helvetica,sans-Serif" font-size="10.00">mars::cfg_manager::</text>
<text text-anchor="middle" x="232" y="-8" font-family="Helvetica,sans-Serif" font-size="10.00">CFGClient</text>
</a>
</g>
<!-- Node7&#45;&gt;Node1 -->
<g id="edge12" class="edge"><title>Node7&#45;&gt;Node1</title>
<path fill="none" stroke="midnightblue" d="M293.014,-37.5384C298.096,-39.3507 303.144,-41.1861 308,-43 329.766,-51.1309 353.778,-60.8113 373.436,-68.9266"/>
<polygon fill="midnightblue" stroke="midnightblue" points="293.835,-34.1169 283.24,-34.0934 291.508,-40.7188 293.835,-34.1169"/>
</g>
</g>
</svg>
