<?xml version="1.0" encoding="UTF-8" standalone="no"?>
<!DOCTYPE svg PUBLIC "-//W3C//DTD SVG 1.1//EN"
 "http://www.w3.org/Graphics/SVG/1.1/DTD/svg11.dtd">
<!-- Generated by graphviz version 2.36.0 (20140111.2315)
 -->
<!-- Title: /media/kavonszadkowski/work/marsdocs/mars/graphics/src/3d_objects/GridPrimitive.h Pages: 1 -->
<svg width="337pt" height="128pt"
 viewBox="0.00 0.00 337.00 128.00" xmlns="http://www.w3.org/2000/svg" xmlns:xlink="http://www.w3.org/1999/xlink">
<g id="graph0" class="graph" transform="scale(1 1) rotate(0) translate(4 124)">
<title>/media/kavonszadkowski/work/marsdocs/mars/graphics/src/3d_objects/GridPrimitive.h</title>
<polygon fill="white" stroke="none" points="-4,4 -4,-124 333,-124 333,4 -4,4"/>
<!-- Node1 -->
<g id="node1" class="node"><title>Node1</title>
<polygon fill="#bfbfbf" stroke="black" points="91.5,-78.5 91.5,-119.5 242.5,-119.5 242.5,-78.5 91.5,-78.5"/>
<text text-anchor="start" x="99.5" y="-107.5" font-family="Helvetica,sans-Serif" font-size="10.00">/media/kavonszadkowski</text>
<text text-anchor="start" x="99.5" y="-96.5" font-family="Helvetica,sans-Serif" font-size="10.00">/work/marsdocs/mars/graphics</text>
<text text-anchor="middle" x="167" y="-85.5" font-family="Helvetica,sans-Serif" font-size="10.00">/src/3d_objects/GridPrimitive.h</text>
</g>
<!-- Node2 -->
<g id="node2" class="node"><title>Node2</title>
<g id="a_node2"><a xlink:href="../../d7/d6e/_grid_primitive_8cpp.html" target="_top" xlink:title="/media/kavonszadkowski\l/work/marsdocs/mars/graphics\l/src/3d_objects/GridPrimitive.cpp">
<polygon fill="white" stroke="black" points="-0.5,-0.5 -0.5,-41.5 160.5,-41.5 160.5,-0.5 -0.5,-0.5"/>
<text text-anchor="start" x="7.5" y="-29.5" font-family="Helvetica,sans-Serif" font-size="10.00">/media/kavonszadkowski</text>
<text text-anchor="start" x="7.5" y="-18.5" font-family="Helvetica,sans-Serif" font-size="10.00">/work/marsdocs/mars/graphics</text>
<text text-anchor="middle" x="80" y="-7.5" font-family="Helvetica,sans-Serif" font-size="10.00">/src/3d_objects/GridPrimitive.cpp</text>
</a>
</g>
</g>
<!-- Node1&#45;&gt;Node2 -->
<g id="edge1" class="edge"><title>Node1&#45;&gt;Node2</title>
<path fill="none" stroke="midnightblue" d="M136.983,-71.7785C125.61,-61.8432 112.872,-50.7159 102.329,-41.5056"/>
<polygon fill="midnightblue" stroke="midnightblue" points="134.762,-74.4851 144.595,-78.4281 139.367,-69.2133 134.762,-74.4851"/>
</g>
<!-- Node3 -->
<g id="node3" class="node"><title>Node3</title>
<g id="a_node3"><a xlink:href="../../d7/d19/_graphics_manager_8cpp.html" target="_top" xlink:title="/media/kavonszadkowski\l/work/marsdocs/mars/graphics\l/src/GraphicsManager.cpp">
<polygon fill="white" stroke="black" points="178.5,-0.5 178.5,-41.5 329.5,-41.5 329.5,-0.5 178.5,-0.5"/>
<text text-anchor="start" x="186.5" y="-29.5" font-family="Helvetica,sans-Serif" font-size="10.00">/media/kavonszadkowski</text>
<text text-anchor="start" x="186.5" y="-18.5" font-family="Helvetica,sans-Serif" font-size="10.00">/work/marsdocs/mars/graphics</text>
<text text-anchor="middle" x="254" y="-7.5" font-family="Helvetica,sans-Serif" font-size="10.00">/src/GraphicsManager.cpp</text>
</a>
</g>
</g>
<!-- Node1&#45;&gt;Node3 -->
<g id="edge2" class="edge"><title>Node1&#45;&gt;Node3</title>
<path fill="none" stroke="midnightblue" d="M197.017,-71.7785C208.39,-61.8432 221.128,-50.7159 231.671,-41.5056"/>
<polygon fill="midnightblue" stroke="midnightblue" points="194.633,-69.2133 189.405,-78.4281 199.238,-74.4851 194.633,-69.2133"/>
</g>
</g>
</svg>
