<?xml version="1.0" encoding="UTF-8" standalone="no"?>
<!DOCTYPE svg PUBLIC "-//W3C//DTD SVG 1.1//EN"
 "http://www.w3.org/Graphics/SVG/1.1/DTD/svg11.dtd">
<!-- Generated by graphviz version 2.36.0 (20140111.2315)
 -->
<!-- Title: /media/kavonszadkowski/work/marsdocs/mars/interfaces/src/exceptions/SceneParseException.h Pages: 1 -->
<svg width="200pt" height="106pt"
 viewBox="0.00 0.00 200.00 106.00" xmlns="http://www.w3.org/2000/svg" xmlns:xlink="http://www.w3.org/1999/xlink">
<g id="graph0" class="graph" transform="scale(1 1) rotate(0) translate(4 102)">
<title>/media/kavonszadkowski/work/marsdocs/mars/interfaces/src/exceptions/SceneParseException.h</title>
<polygon fill="white" stroke="none" points="-4,4 -4,-102 196,-102 196,4 -4,4"/>
<!-- Node1 -->
<g id="node1" class="node"><title>Node1</title>
<polygon fill="#bfbfbf" stroke="black" points="1.5,-56.5 1.5,-97.5 192.5,-97.5 192.5,-56.5 1.5,-56.5"/>
<text text-anchor="start" x="9.5" y="-85.5" font-family="Helvetica,sans-Serif" font-size="10.00">/media/kavonszadkowski</text>
<text text-anchor="start" x="9.5" y="-74.5" font-family="Helvetica,sans-Serif" font-size="10.00">/work/marsdocs/mars/interfaces</text>
<text text-anchor="middle" x="97" y="-63.5" font-family="Helvetica,sans-Serif" font-size="10.00">/src/exceptions/SceneParseException.h</text>
</g>
<!-- Node2 -->
<g id="node2" class="node"><title>Node2</title>
<polygon fill="white" stroke="#bfbfbf" points="-0.5,-0.5 -0.5,-19.5 58.5,-19.5 58.5,-0.5 -0.5,-0.5"/>
<text text-anchor="middle" x="29" y="-7.5" font-family="Helvetica,sans-Serif" font-size="10.00">exception</text>
</g>
<!-- Node1&#45;&gt;Node2 -->
<g id="edge1" class="edge"><title>Node1&#45;&gt;Node2</title>
<path fill="none" stroke="midnightblue" d="M76.5978,-56.4979C66.6733,-47.0113 54.8982,-35.7557 45.5429,-26.8131"/>
<polygon fill="midnightblue" stroke="midnightblue" points="47.699,-24.0323 38.0518,-19.6525 42.8621,-29.0924 47.699,-24.0323"/>
</g>
<!-- Node3 -->
<g id="node3" class="node"><title>Node3</title>
<polygon fill="white" stroke="#bfbfbf" points="76.5,-0.5 76.5,-19.5 117.5,-19.5 117.5,-0.5 76.5,-0.5"/>
<text text-anchor="middle" x="97" y="-7.5" font-family="Helvetica,sans-Serif" font-size="10.00">string</text>
</g>
<!-- Node1&#45;&gt;Node3 -->
<g id="edge2" class="edge"><title>Node1&#45;&gt;Node3</title>
<path fill="none" stroke="midnightblue" d="M97,-56.4979C97,-48.0653 97,-38.2351 97,-29.874"/>
<polygon fill="midnightblue" stroke="midnightblue" points="100.5,-29.6525 97,-19.6525 93.5001,-29.6525 100.5,-29.6525"/>
</g>
<!-- Node4 -->
<g id="node4" class="node"><title>Node4</title>
<polygon fill="white" stroke="#bfbfbf" points="136,-0.5 136,-19.5 188,-19.5 188,-0.5 136,-0.5"/>
<text text-anchor="middle" x="162" y="-7.5" font-family="Helvetica,sans-Serif" font-size="10.00">sstream</text>
</g>
<!-- Node1&#45;&gt;Node4 -->
<g id="edge3" class="edge"><title>Node1&#45;&gt;Node4</title>
<path fill="none" stroke="midnightblue" d="M116.502,-56.4979C125.989,-47.0113 137.244,-35.7557 146.187,-26.8131"/>
<polygon fill="midnightblue" stroke="midnightblue" points="148.751,-29.1985 153.348,-19.6525 143.802,-24.2487 148.751,-29.1985"/>
</g>
</g>
</svg>
