<?xml version="1.0" encoding="UTF-8" standalone="no"?>
<!DOCTYPE svg PUBLIC "-//W3C//DTD SVG 1.1//EN"
 "http://www.w3.org/Graphics/SVG/1.1/DTD/svg11.dtd">
<!-- Generated by graphviz version 2.36.0 (20140111.2315)
 -->
<!-- Title: /media/kavonszadkowski/work/marsdocs/mars/common/utils/src/misc.h Pages: 1 -->
<svg width="331pt" height="106pt"
 viewBox="0.00 0.00 331.00 106.00" xmlns="http://www.w3.org/2000/svg" xmlns:xlink="http://www.w3.org/1999/xlink">
<g id="graph0" class="graph" transform="scale(1 1) rotate(0) translate(4 102)">
<title>/media/kavonszadkowski/work/marsdocs/mars/common/utils/src/misc.h</title>
<polygon fill="white" stroke="none" points="-4,4 -4,-102 327,-102 327,4 -4,4"/>
<!-- Node1 -->
<g id="node1" class="node"><title>Node1</title>
<polygon fill="#bfbfbf" stroke="black" points="94,-56.5 94,-97.5 246,-97.5 246,-56.5 94,-56.5"/>
<text text-anchor="start" x="102" y="-85.5" font-family="Helvetica,sans-Serif" font-size="10.00">/media/kavonszadkowski</text>
<text text-anchor="start" x="102" y="-74.5" font-family="Helvetica,sans-Serif" font-size="10.00">/work/marsdocs/mars/common</text>
<text text-anchor="middle" x="170" y="-63.5" font-family="Helvetica,sans-Serif" font-size="10.00">/utils/src/misc.h</text>
</g>
<!-- Node2 -->
<g id="node2" class="node"><title>Node2</title>
<polygon fill="white" stroke="#bfbfbf" points="0,-0.5 0,-19.5 62,-19.5 62,-0.5 0,-0.5"/>
<text text-anchor="middle" x="31" y="-7.5" font-family="Helvetica,sans-Serif" font-size="10.00">sys/time.h</text>
</g>
<!-- Node1&#45;&gt;Node2 -->
<g id="edge1" class="edge"><title>Node1&#45;&gt;Node2</title>
<path fill="none" stroke="midnightblue" d="M128.295,-56.4979C105.755,-45.9572 78.5435,-33.2326 58.6364,-23.9235"/>
<polygon fill="midnightblue" stroke="midnightblue" points="60.0441,-20.7181 49.503,-19.6525 57.0789,-27.059 60.0441,-20.7181"/>
</g>
<!-- Node3 -->
<g id="node3" class="node"><title>Node3</title>
<polygon fill="white" stroke="#bfbfbf" points="80.5,-0.5 80.5,-19.5 131.5,-19.5 131.5,-0.5 80.5,-0.5"/>
<text text-anchor="middle" x="106" y="-7.5" font-family="Helvetica,sans-Serif" font-size="10.00">unistd.h</text>
</g>
<!-- Node1&#45;&gt;Node3 -->
<g id="edge2" class="edge"><title>Node1&#45;&gt;Node3</title>
<path fill="none" stroke="midnightblue" d="M150.798,-56.4979C141.457,-47.0113 130.375,-35.7557 121.57,-26.8131"/>
<polygon fill="midnightblue" stroke="midnightblue" points="124.029,-24.3226 114.519,-19.6525 119.041,-29.2338 124.029,-24.3226"/>
</g>
<!-- Node4 -->
<g id="node4" class="node"><title>Node4</title>
<polygon fill="white" stroke="#bfbfbf" points="149.5,-0.5 149.5,-19.5 190.5,-19.5 190.5,-0.5 149.5,-0.5"/>
<text text-anchor="middle" x="170" y="-7.5" font-family="Helvetica,sans-Serif" font-size="10.00">string</text>
</g>
<!-- Node1&#45;&gt;Node4 -->
<g id="edge3" class="edge"><title>Node1&#45;&gt;Node4</title>
<path fill="none" stroke="midnightblue" d="M170,-56.4979C170,-48.0653 170,-38.2351 170,-29.874"/>
<polygon fill="midnightblue" stroke="midnightblue" points="173.5,-29.6525 170,-19.6525 166.5,-29.6525 173.5,-29.6525"/>
</g>
<!-- Node5 -->
<g id="node5" class="node"><title>Node5</title>
<polygon fill="white" stroke="#bfbfbf" points="209,-0.5 209,-19.5 253,-19.5 253,-0.5 209,-0.5"/>
<text text-anchor="middle" x="231" y="-7.5" font-family="Helvetica,sans-Serif" font-size="10.00">vector</text>
</g>
<!-- Node1&#45;&gt;Node5 -->
<g id="edge4" class="edge"><title>Node1&#45;&gt;Node5</title>
<path fill="none" stroke="midnightblue" d="M188.302,-56.4979C197.115,-47.1071 207.555,-35.9829 215.905,-27.0848"/>
<polygon fill="midnightblue" stroke="midnightblue" points="218.589,-29.3395 222.88,-19.6525 213.485,-24.5493 218.589,-29.3395"/>
</g>
<!-- Node6 -->
<g id="node6" class="node"><title>Node6</title>
<polygon fill="white" stroke="#bfbfbf" points="271,-0.5 271,-19.5 323,-19.5 323,-0.5 271,-0.5"/>
<text text-anchor="middle" x="297" y="-7.5" font-family="Helvetica,sans-Serif" font-size="10.00">sstream</text>
</g>
<!-- Node1&#45;&gt;Node6 -->
<g id="edge5" class="edge"><title>Node1&#45;&gt;Node6</title>
<path fill="none" stroke="midnightblue" d="M208.104,-56.4979C228.325,-46.1488 252.658,-33.6946 270.751,-24.4346"/>
<polygon fill="midnightblue" stroke="midnightblue" points="272.787,-27.3242 280.094,-19.6525 269.598,-21.093 272.787,-27.3242"/>
</g>
</g>
</svg>
