<?xml version="1.0" encoding="UTF-8" standalone="no"?>
<!DOCTYPE svg PUBLIC "-//W3C//DTD SVG 1.1//EN"
 "http://www.w3.org/Graphics/SVG/1.1/DTD/svg11.dtd">
<!-- Generated by graphviz version 2.26.3 (20100126.1600)
 -->
<!-- Title: /home/kavonszadkowski/limes&#45;dev/simulation/mars/common/cfg_manager/src/CFGDefs.h Pages: 1 -->
<svg width="148pt" height="128pt"
 viewBox="0.00 0.00 148.00 128.00" xmlns="http://www.w3.org/2000/svg" xmlns:xlink="http://www.w3.org/1999/xlink">
<g id="graph1" class="graph" transform="scale(1 1) rotate(0) translate(4 124)">
<title>/home/kavonszadkowski/limes&#45;dev/simulation/mars/common/cfg_manager/src/CFGDefs.h</title>
<polygon fill="white" stroke="white" points="-4,5 -4,-124 145,-124 145,5 -4,5"/>
<!-- Node1 -->
<g id="node1" class="node"><title>Node1</title>
<polygon fill="#bfbfbf" stroke="black" points="-0.5,-59 -0.5,-119 140.5,-119 140.5,-59 -0.5,-59"/>
<text text-anchor="start" x="7.5" y="-106" font-family="Helvetica,sans-Serif" font-size="10.00">/home/kavonszadkowski</text>
<text text-anchor="start" x="7.5" y="-93" font-family="Helvetica,sans-Serif" font-size="10.00">/limes&#45;dev/simulation</text>
<text text-anchor="start" x="7.5" y="-80" font-family="Helvetica,sans-Serif" font-size="10.00">/mars/common/cfg_manager</text>
<text text-anchor="middle" x="70" y="-67" font-family="Helvetica,sans-Serif" font-size="10.00">/src/CFGDefs.h</text>
</g>
<!-- Node2 -->
<g id="node3" class="node"><title>Node2</title>
<polygon fill="white" stroke="#bfbfbf" points="49.5,-0.5 49.5,-21.5 90.5,-21.5 90.5,-0.5 49.5,-0.5"/>
<text text-anchor="middle" x="70" y="-8.5" font-family="Helvetica,sans-Serif" font-size="10.00">string</text>
</g>
<!-- Node1&#45;&gt;Node2 -->
<g id="edge2" class="edge"><title>Node1&#45;&gt;Node2</title>
<path fill="none" stroke="midnightblue" d="M70,-58.6198C70,-49.6797 70,-40.1035 70,-31.9002"/>
<polygon fill="midnightblue" stroke="midnightblue" points="73.5001,-31.7534 70,-21.7535 66.5001,-31.7535 73.5001,-31.7534"/>
</g>
</g>
</svg>
