<?xml version="1.0" encoding="UTF-8" standalone="no"?>
<!DOCTYPE svg PUBLIC "-//W3C//DTD SVG 1.1//EN"
 "http://www.w3.org/Graphics/SVG/1.1/DTD/svg11.dtd">
<!-- Generated by graphviz version 2.36.0 (20140111.2315)
 -->
<!-- Title: /media/kavonszadkowski/work/marsdocs/mars/common/graphics/osg_points/src/PointsP.cpp Pages: 1 -->
<svg width="472pt" height="230pt"
 viewBox="0.00 0.00 472.00 230.00" xmlns="http://www.w3.org/2000/svg" xmlns:xlink="http://www.w3.org/1999/xlink">
<g id="graph0" class="graph" transform="scale(1 1) rotate(0) translate(4 226)">
<title>/media/kavonszadkowski/work/marsdocs/mars/common/graphics/osg_points/src/PointsP.cpp</title>
<polygon fill="white" stroke="none" points="-4,4 -4,-226 468,-226 468,4 -4,4"/>
<!-- Node1 -->
<g id="node1" class="node"><title>Node1</title>
<polygon fill="#bfbfbf" stroke="black" points="178,-169 178,-221 330,-221 330,-169 178,-169"/>
<text text-anchor="start" x="186" y="-209" font-family="Helvetica,sans-Serif" font-size="10.00">/media/kavonszadkowski</text>
<text text-anchor="start" x="186" y="-198" font-family="Helvetica,sans-Serif" font-size="10.00">/work/marsdocs/mars/common</text>
<text text-anchor="start" x="186" y="-187" font-family="Helvetica,sans-Serif" font-size="10.00">/graphics/osg_points/src</text>
<text text-anchor="middle" x="254" y="-176" font-family="Helvetica,sans-Serif" font-size="10.00">/PointsP.cpp</text>
</g>
<!-- Node2 -->
<g id="node2" class="node"><title>Node2</title>
<g id="a_node2"><a xlink:href="../../d1/ddb/_points_p_8hpp.html" target="_top" xlink:title="PointsP.hpp">
<polygon fill="white" stroke="black" points="182,-112.5 182,-131.5 252,-131.5 252,-112.5 182,-112.5"/>
<text text-anchor="middle" x="217" y="-119.5" font-family="Helvetica,sans-Serif" font-size="10.00">PointsP.hpp</text>
</a>
</g>
</g>
<!-- Node1&#45;&gt;Node2 -->
<g id="edge1" class="edge"><title>Node1&#45;&gt;Node2</title>
<path fill="none" stroke="midnightblue" d="M240.851,-168.768C236.014,-159.486 230.643,-149.179 226.224,-140.7"/>
<polygon fill="midnightblue" stroke="midnightblue" points="229.289,-139.008 221.564,-131.757 223.081,-142.243 229.289,-139.008"/>
</g>
<!-- Node9 -->
<g id="node9" class="node"><title>Node9</title>
<polygon fill="white" stroke="#bfbfbf" points="270.5,-112.5 270.5,-131.5 313.5,-131.5 313.5,-112.5 270.5,-112.5"/>
<text text-anchor="middle" x="292" y="-119.5" font-family="Helvetica,sans-Serif" font-size="10.00">cstdio</text>
</g>
<!-- Node1&#45;&gt;Node9 -->
<g id="edge8" class="edge"><title>Node1&#45;&gt;Node9</title>
<path fill="none" stroke="midnightblue" d="M267.504,-168.768C272.472,-159.486 277.988,-149.179 282.527,-140.7"/>
<polygon fill="midnightblue" stroke="midnightblue" points="285.68,-142.225 287.313,-131.757 279.508,-138.922 285.68,-142.225"/>
</g>
<!-- Node3 -->
<g id="node3" class="node"><title>Node3</title>
<g id="a_node3"><a xlink:href="../../d0/dba/_points_8hpp.html" target="_top" xlink:title="Points.hpp">
<polygon fill="white" stroke="black" points="-0.5,-56.5 -0.5,-75.5 62.5,-75.5 62.5,-56.5 -0.5,-56.5"/>
<text text-anchor="middle" x="31" y="-63.5" font-family="Helvetica,sans-Serif" font-size="10.00">Points.hpp</text>
</a>
</g>
</g>
<!-- Node2&#45;&gt;Node3 -->
<g id="edge2" class="edge"><title>Node2&#45;&gt;Node3</title>
<path fill="none" stroke="midnightblue" d="M187.528,-112.444C155.829,-103.241 105.268,-88.5617 70.2251,-78.3879"/>
<polygon fill="midnightblue" stroke="midnightblue" points="70.9137,-74.9434 60.3344,-75.5164 68.962,-81.6658 70.9137,-74.9434"/>
</g>
<!-- Node5 -->
<g id="node5" class="node"><title>Node5</title>
<polygon fill="white" stroke="#bfbfbf" points="81,-56.5 81,-75.5 145,-75.5 145,-56.5 81,-56.5"/>
<text text-anchor="middle" x="113" y="-63.5" font-family="Helvetica,sans-Serif" font-size="10.00">osg/Geode</text>
</g>
<!-- Node2&#45;&gt;Node5 -->
<g id="edge4" class="edge"><title>Node2&#45;&gt;Node5</title>
<path fill="none" stroke="midnightblue" d="M200.291,-112.324C183.688,-103.703 157.998,-90.3643 138.78,-80.3855"/>
<polygon fill="midnightblue" stroke="midnightblue" points="140.156,-77.1565 129.668,-75.6545 136.93,-83.3689 140.156,-77.1565"/>
</g>
<!-- Node6 -->
<g id="node6" class="node"><title>Node6</title>
<polygon fill="white" stroke="#bfbfbf" points="163.5,-56.5 163.5,-75.5 270.5,-75.5 270.5,-56.5 163.5,-56.5"/>
<text text-anchor="middle" x="217" y="-63.5" font-family="Helvetica,sans-Serif" font-size="10.00">osg/MatrixTransform</text>
</g>
<!-- Node2&#45;&gt;Node6 -->
<g id="edge5" class="edge"><title>Node2&#45;&gt;Node6</title>
<path fill="none" stroke="midnightblue" d="M217,-112.083C217,-105.006 217,-94.8611 217,-85.9865"/>
<polygon fill="midnightblue" stroke="midnightblue" points="220.5,-85.751 217,-75.7511 213.5,-85.7511 220.5,-85.751"/>
</g>
<!-- Node7 -->
<g id="node7" class="node"><title>Node7</title>
<polygon fill="white" stroke="#bfbfbf" points="289,-56.5 289,-75.5 367,-75.5 367,-56.5 289,-56.5"/>
<text text-anchor="middle" x="328" y="-63.5" font-family="Helvetica,sans-Serif" font-size="10.00">osg/Geometry</text>
</g>
<!-- Node2&#45;&gt;Node7 -->
<g id="edge6" class="edge"><title>Node2&#45;&gt;Node7</title>
<path fill="none" stroke="midnightblue" d="M234.834,-112.324C252.716,-103.625 280.475,-90.1202 301.046,-80.113"/>
<polygon fill="midnightblue" stroke="midnightblue" points="302.749,-83.1765 310.21,-75.6545 299.687,-76.8819 302.749,-83.1765"/>
</g>
<!-- Node8 -->
<g id="node8" class="node"><title>Node8</title>
<polygon fill="white" stroke="#bfbfbf" points="385.5,-56.5 385.5,-75.5 464.5,-75.5 464.5,-56.5 385.5,-56.5"/>
<text text-anchor="middle" x="425" y="-63.5" font-family="Helvetica,sans-Serif" font-size="10.00">osg/LineWidth</text>
</g>
<!-- Node2&#45;&gt;Node8 -->
<g id="edge7" class="edge"><title>Node2&#45;&gt;Node8</title>
<path fill="none" stroke="midnightblue" d="M249.958,-112.444C285.787,-103.142 343.163,-88.246 382.391,-78.062"/>
<polygon fill="midnightblue" stroke="midnightblue" points="383.396,-81.4171 392.196,-75.5164 381.637,-74.6417 383.396,-81.4171"/>
</g>
<!-- Node4 -->
<g id="node4" class="node"><title>Node4</title>
<polygon fill="white" stroke="#bfbfbf" points="9,-0.5 9,-19.5 53,-19.5 53,-0.5 9,-0.5"/>
<text text-anchor="middle" x="31" y="-7.5" font-family="Helvetica,sans-Serif" font-size="10.00">vector</text>
</g>
<!-- Node3&#45;&gt;Node4 -->
<g id="edge3" class="edge"><title>Node3&#45;&gt;Node4</title>
<path fill="none" stroke="midnightblue" d="M31,-56.083C31,-49.0059 31,-38.8611 31,-29.9865"/>
<polygon fill="midnightblue" stroke="midnightblue" points="34.5001,-29.751 31,-19.7511 27.5001,-29.7511 34.5001,-29.751"/>
</g>
</g>
</svg>
