<?xml version="1.0" encoding="UTF-8" standalone="no"?>
<!DOCTYPE svg PUBLIC "-//W3C//DTD SVG 1.1//EN"
 "http://www.w3.org/Graphics/SVG/1.1/DTD/svg11.dtd">
<!-- Generated by graphviz version 2.36.0 (20140111.2315)
 -->
<!-- Title: /media/kavonszadkowski/work/marsdocs/mars/gui/src/dialogs/Dialog_Motor_Control.h Pages: 1 -->
<svg width="642pt" height="130pt"
 viewBox="0.00 0.00 642.00 130.00" xmlns="http://www.w3.org/2000/svg" xmlns:xlink="http://www.w3.org/1999/xlink">
<g id="graph0" class="graph" transform="scale(1 1) rotate(0) translate(4 126)">
<title>/media/kavonszadkowski/work/marsdocs/mars/gui/src/dialogs/Dialog_Motor_Control.h</title>
<polygon fill="white" stroke="none" points="-4,4 -4,-126 638,-126 638,4 -4,4"/>
<!-- Node1 -->
<g id="node1" class="node"><title>Node1</title>
<polygon fill="#bfbfbf" stroke="black" points="262,-69 262,-121 390,-121 390,-69 262,-69"/>
<text text-anchor="start" x="270" y="-109" font-family="Helvetica,sans-Serif" font-size="10.00">/media/kavonszadkowski</text>
<text text-anchor="start" x="270" y="-98" font-family="Helvetica,sans-Serif" font-size="10.00">/work/marsdocs/mars/gui</text>
<text text-anchor="start" x="270" y="-87" font-family="Helvetica,sans-Serif" font-size="10.00">/src/dialogs/Dialog_Motor</text>
<text text-anchor="middle" x="326" y="-76" font-family="Helvetica,sans-Serif" font-size="10.00">_Control.h</text>
</g>
<!-- Node2 -->
<g id="node2" class="node"><title>Node2</title>
<polygon fill="white" stroke="#bfbfbf" points="-0.5,-1 -0.5,-31 102.5,-31 102.5,-1 -0.5,-1"/>
<text text-anchor="start" x="7.5" y="-19" font-family="Helvetica,sans-Serif" font-size="10.00">mars/interfaces/sim</text>
<text text-anchor="middle" x="51" y="-8" font-family="Helvetica,sans-Serif" font-size="10.00">/ControlCenter.h</text>
</g>
<!-- Node1&#45;&gt;Node2 -->
<g id="edge1" class="edge"><title>Node1&#45;&gt;Node2</title>
<path fill="none" stroke="midnightblue" d="M261.872,-76.0441C216.278,-63.2779 155.463,-46.2497 110.861,-33.761"/>
<polygon fill="midnightblue" stroke="midnightblue" points="111.606,-30.3352 101.033,-31.0092 109.719,-37.0759 111.606,-30.3352"/>
</g>
<!-- Node3 -->
<g id="node3" class="node"><title>Node3</title>
<polygon fill="white" stroke="#bfbfbf" points="120.5,-1 120.5,-31 229.5,-31 229.5,-1 120.5,-1"/>
<text text-anchor="start" x="128.5" y="-19" font-family="Helvetica,sans-Serif" font-size="10.00">mars/interfaces/core</text>
<text text-anchor="middle" x="175" y="-8" font-family="Helvetica,sans-Serif" font-size="10.00">_objects_exchange.h</text>
</g>
<!-- Node1&#45;&gt;Node3 -->
<g id="edge2" class="edge"><title>Node1&#45;&gt;Node3</title>
<path fill="none" stroke="midnightblue" d="M276.557,-68.7873C255.417,-58.0073 231.17,-45.6431 211.671,-35.6999"/>
<polygon fill="midnightblue" stroke="midnightblue" points="213.013,-32.4555 202.515,-31.0307 209.833,-38.6915 213.013,-32.4555"/>
</g>
<!-- Node4 -->
<g id="node4" class="node"><title>Node4</title>
<polygon fill="white" stroke="#bfbfbf" points="248,-6.5 248,-25.5 404,-25.5 404,-6.5 248,-6.5"/>
<text text-anchor="middle" x="326" y="-13.5" font-family="Helvetica,sans-Serif" font-size="10.00">mars/main_gui/PropertyDialog.h</text>
</g>
<!-- Node1&#45;&gt;Node4 -->
<g id="edge3" class="edge"><title>Node1&#45;&gt;Node4</title>
<path fill="none" stroke="midnightblue" d="M326,-68.7873C326,-58.069 326,-45.7846 326,-35.8708"/>
<polygon fill="midnightblue" stroke="midnightblue" points="329.5,-35.5577 326,-25.5577 322.5,-35.5577 329.5,-35.5577"/>
</g>
<!-- Node5 -->
<g id="node5" class="node"><title>Node5</title>
<polygon fill="white" stroke="#bfbfbf" points="422.5,-6.5 422.5,-25.5 567.5,-25.5 567.5,-6.5 422.5,-6.5"/>
<text text-anchor="middle" x="495" y="-13.5" font-family="Helvetica,sans-Serif" font-size="10.00">mars/main_gui/BaseWidget.h</text>
</g>
<!-- Node1&#45;&gt;Node5 -->
<g id="edge4" class="edge"><title>Node1&#45;&gt;Node5</title>
<path fill="none" stroke="midnightblue" d="M381.337,-68.7873C409.976,-55.7389 443.709,-40.3695 466.946,-29.7818"/>
<polygon fill="midnightblue" stroke="midnightblue" points="468.569,-32.8889 476.217,-25.5577 465.666,-26.5189 468.569,-32.8889"/>
</g>
<!-- Node6 -->
<g id="node6" class="node"><title>Node6</title>
<polygon fill="white" stroke="#bfbfbf" points="585.5,-6.5 585.5,-25.5 634.5,-25.5 634.5,-6.5 585.5,-6.5"/>
<text text-anchor="middle" x="610" y="-13.5" font-family="Helvetica,sans-Serif" font-size="10.00">QSlider</text>
</g>
<!-- Node1&#45;&gt;Node6 -->
<g id="edge5" class="edge"><title>Node1&#45;&gt;Node6</title>
<path fill="none" stroke="midnightblue" d="M390.064,-81.3016C441.096,-70.4271 514.009,-53.1847 576,-32 578.267,-31.2255 580.591,-30.3601 582.908,-29.4466"/>
<polygon fill="midnightblue" stroke="midnightblue" points="584.368,-32.6295 592.232,-25.5291 581.657,-26.176 584.368,-32.6295"/>
</g>
</g>
</svg>
