<?xml version="1.0" encoding="UTF-8" standalone="no"?>
<!DOCTYPE svg PUBLIC "-//W3C//DTD SVG 1.1//EN"
 "http://www.w3.org/Graphics/SVG/1.1/DTD/svg11.dtd">
<!-- Generated by graphviz version 2.36.0 (20140111.2315)
 -->
<!-- Title: /media/kavonszadkowski/work/marsdocs/mars/interfaces/src/sim/SensorInterface.h Pages: 1 -->
<svg width="693pt" height="230pt"
 viewBox="0.00 0.00 693.00 230.00" xmlns="http://www.w3.org/2000/svg" xmlns:xlink="http://www.w3.org/1999/xlink">
<g id="graph0" class="graph" transform="scale(1 1) rotate(0) translate(4 226)">
<title>/media/kavonszadkowski/work/marsdocs/mars/interfaces/src/sim/SensorInterface.h</title>
<polygon fill="white" stroke="none" points="-4,4 -4,-226 689,-226 689,4 -4,4"/>
<!-- Node1 -->
<g id="node1" class="node"><title>Node1</title>
<polygon fill="#bfbfbf" stroke="black" points="210.5,-180.5 210.5,-221.5 367.5,-221.5 367.5,-180.5 210.5,-180.5"/>
<text text-anchor="start" x="218.5" y="-209.5" font-family="Helvetica,sans-Serif" font-size="10.00">/media/kavonszadkowski</text>
<text text-anchor="start" x="218.5" y="-198.5" font-family="Helvetica,sans-Serif" font-size="10.00">/work/marsdocs/mars/interfaces</text>
<text text-anchor="middle" x="289" y="-187.5" font-family="Helvetica,sans-Serif" font-size="10.00">/src/sim/SensorInterface.h</text>
</g>
<!-- Node2 -->
<g id="node2" class="node"><title>Node2</title>
<g id="a_node2"><a xlink:href="../../d8/dbb/_control_center_8h.html" target="_top" xlink:title="&quot;ControlCenter&quot; contains the instances of all modules of the simulation. The modules are connected vi...">
<polygon fill="white" stroke="black" points="120,-124.5 120,-143.5 206,-143.5 206,-124.5 120,-124.5"/>
<text text-anchor="middle" x="163" y="-131.5" font-family="Helvetica,sans-Serif" font-size="10.00">ControlCenter.h</text>
</a>
</g>
</g>
<!-- Node1&#45;&gt;Node2 -->
<g id="edge1" class="edge"><title>Node1&#45;&gt;Node2</title>
<path fill="none" stroke="midnightblue" d="M251.196,-180.498C231.135,-170.149 206.993,-157.695 189.042,-148.435"/>
<polygon fill="midnightblue" stroke="midnightblue" points="190.264,-145.127 179.773,-143.652 187.055,-151.348 190.264,-145.127"/>
</g>
<!-- Node6 -->
<g id="node6" class="node"><title>Node6</title>
<g id="a_node6"><a xlink:href="../../d5/dd6/sensor__bases_8h.html" target="_top" xlink:title="../sensor_bases.h">
<polygon fill="white" stroke="black" points="361.5,-124.5 361.5,-143.5 456.5,-143.5 456.5,-124.5 361.5,-124.5"/>
<text text-anchor="middle" x="409" y="-131.5" font-family="Helvetica,sans-Serif" font-size="10.00">../sensor_bases.h</text>
</a>
</g>
</g>
<!-- Node1&#45;&gt;Node6 -->
<g id="edge5" class="edge"><title>Node1&#45;&gt;Node6</title>
<path fill="none" stroke="midnightblue" d="M325.004,-180.498C344.11,-170.149 367.102,-157.695 384.198,-148.435"/>
<polygon fill="midnightblue" stroke="midnightblue" points="385.9,-151.493 393.026,-143.652 382.566,-145.338 385.9,-151.493"/>
</g>
<!-- Node3 -->
<g id="node3" class="node"><title>Node3</title>
<g id="a_node3"><a xlink:href="../../dc/d43/_logging_8hpp.html" target="_top" xlink:title="../Logging.hpp">
<polygon fill="white" stroke="black" points="34,-68.5 34,-87.5 112,-87.5 112,-68.5 34,-68.5"/>
<text text-anchor="middle" x="73" y="-75.5" font-family="Helvetica,sans-Serif" font-size="10.00">../Logging.hpp</text>
</a>
</g>
</g>
<!-- Node2&#45;&gt;Node3 -->
<g id="edge2" class="edge"><title>Node2&#45;&gt;Node3</title>
<path fill="none" stroke="midnightblue" d="M148.54,-124.324C134.5,-115.9 112.952,-102.971 96.4569,-93.0741"/>
<polygon fill="midnightblue" stroke="midnightblue" points="97.7999,-89.7983 87.4242,-87.6545 94.1984,-95.8007 97.7999,-89.7983"/>
</g>
<!-- Node5 -->
<g id="node5" class="node"><title>Node5</title>
<polygon fill="white" stroke="#bfbfbf" points="138.5,-68.5 138.5,-87.5 187.5,-87.5 187.5,-68.5 138.5,-68.5"/>
<text text-anchor="middle" x="163" y="-75.5" font-family="Helvetica,sans-Serif" font-size="10.00">cstddef</text>
</g>
<!-- Node2&#45;&gt;Node5 -->
<g id="edge4" class="edge"><title>Node2&#45;&gt;Node5</title>
<path fill="none" stroke="midnightblue" d="M163,-124.083C163,-117.006 163,-106.861 163,-97.9865"/>
<polygon fill="midnightblue" stroke="midnightblue" points="166.5,-97.751 163,-87.7511 159.5,-97.7511 166.5,-97.751"/>
</g>
<!-- Node4 -->
<g id="node4" class="node"><title>Node4</title>
<polygon fill="white" stroke="#bfbfbf" points="-0.5,-1 -0.5,-31 144.5,-31 144.5,-1 -0.5,-1"/>
<text text-anchor="start" x="7.5" y="-19" font-family="Helvetica,sans-Serif" font-size="10.00">mars/data_broker/DataBroker</text>
<text text-anchor="middle" x="72" y="-8" font-family="Helvetica,sans-Serif" font-size="10.00">Interface.h</text>
</g>
<!-- Node3&#45;&gt;Node4 -->
<g id="edge3" class="edge"><title>Node3&#45;&gt;Node4</title>
<path fill="none" stroke="midnightblue" d="M72.8567,-68.4035C72.739,-61.3405 72.5663,-50.975 72.4066,-41.399"/>
<polygon fill="midnightblue" stroke="midnightblue" points="75.9019,-41.0811 72.2357,-31.1408 68.9029,-41.1978 75.9019,-41.0811"/>
</g>
<!-- Node7 -->
<g id="node7" class="node"><title>Node7</title>
<g id="a_node7"><a xlink:href="../../df/db0/core__objects__exchange_8h.html" target="_top" xlink:title="core_objects_exchange.h">
<polygon fill="white" stroke="black" points="253,-68.5 253,-87.5 381,-87.5 381,-68.5 253,-68.5"/>
<text text-anchor="middle" x="317" y="-75.5" font-family="Helvetica,sans-Serif" font-size="10.00">core_objects_exchange.h</text>
</a>
</g>
</g>
<!-- Node6&#45;&gt;Node7 -->
<g id="edge6" class="edge"><title>Node6&#45;&gt;Node7</title>
<path fill="none" stroke="midnightblue" d="M394.219,-124.324C379.733,-115.822 357.427,-102.729 340.507,-92.7975"/>
<polygon fill="midnightblue" stroke="midnightblue" points="342.141,-89.6981 331.745,-87.6545 338.597,-95.735 342.141,-89.6981"/>
</g>
<!-- Node9 -->
<g id="node9" class="node"><title>Node9</title>
<polygon fill="white" stroke="#bfbfbf" points="162.5,-6.5 162.5,-25.5 261.5,-25.5 261.5,-6.5 162.5,-6.5"/>
<text text-anchor="middle" x="212" y="-13.5" font-family="Helvetica,sans-Serif" font-size="10.00">mars/utils/Vector.h</text>
</g>
<!-- Node6&#45;&gt;Node9 -->
<g id="edge13" class="edge"><title>Node6&#45;&gt;Node9</title>
<path fill="none" stroke="midnightblue" d="M361.304,-130.725C325.326,-126.683 276.74,-115.959 244,-88 228.295,-74.5881 219.939,-51.9035 215.753,-35.7869"/>
<polygon fill="midnightblue" stroke="midnightblue" points="219.127,-34.8394 213.483,-25.8732 212.303,-36.4022 219.127,-34.8394"/>
</g>
<!-- Node10 -->
<g id="node10" class="node"><title>Node10</title>
<polygon fill="white" stroke="#bfbfbf" points="432,-6.5 432,-25.5 550,-25.5 550,-6.5 432,-6.5"/>
<text text-anchor="middle" x="491" y="-13.5" font-family="Helvetica,sans-Serif" font-size="10.00">mars/utils/Quaternion.h</text>
</g>
<!-- Node6&#45;&gt;Node10 -->
<g id="edge12" class="edge"><title>Node6&#45;&gt;Node10</title>
<path fill="none" stroke="midnightblue" d="M409.873,-124.311C411.542,-111.151 416.143,-85.8119 428,-68 438.011,-52.9622 453.824,-40.1814 467.102,-31.1756"/>
<polygon fill="midnightblue" stroke="midnightblue" points="469.289,-33.9298 475.788,-25.5625 465.49,-28.0507 469.289,-33.9298"/>
</g>
<!-- Node12 -->
<g id="node12" class="node"><title>Node12</title>
<polygon fill="white" stroke="#bfbfbf" points="437,-68.5 437,-87.5 565,-87.5 565,-68.5 437,-68.5"/>
<text text-anchor="middle" x="501" y="-75.5" font-family="Helvetica,sans-Serif" font-size="10.00">configmaps/ConfigData.h</text>
</g>
<!-- Node6&#45;&gt;Node12 -->
<g id="edge11" class="edge"><title>Node6&#45;&gt;Node12</title>
<path fill="none" stroke="midnightblue" d="M423.781,-124.324C438.267,-115.822 460.573,-102.729 477.493,-92.7975"/>
<polygon fill="midnightblue" stroke="midnightblue" points="479.403,-95.735 486.255,-87.6545 475.859,-89.6981 479.403,-95.735"/>
</g>
<!-- Node13 -->
<g id="node13" class="node"><title>Node13</title>
<polygon fill="white" stroke="#bfbfbf" points="583,-68.5 583,-87.5 627,-87.5 627,-68.5 583,-68.5"/>
<text text-anchor="middle" x="605" y="-75.5" font-family="Helvetica,sans-Serif" font-size="10.00">vector</text>
</g>
<!-- Node6&#45;&gt;Node13 -->
<g id="edge14" class="edge"><title>Node6&#45;&gt;Node13</title>
<path fill="none" stroke="midnightblue" d="M440.982,-124.443C472.305,-116.026 521.631,-102.675 573.322,-88.159"/>
<polygon fill="midnightblue" stroke="midnightblue" points="574.319,-91.5142 582.997,-85.4359 572.423,-84.776 574.319,-91.5142"/>
</g>
<!-- Node14 -->
<g id="node14" class="node"><title>Node14</title>
<polygon fill="white" stroke="#bfbfbf" points="645,-68.5 645,-87.5 685,-87.5 685,-68.5 645,-68.5"/>
<text text-anchor="middle" x="665" y="-75.5" font-family="Helvetica,sans-Serif" font-size="10.00">limits</text>
</g>
<!-- Node6&#45;&gt;Node14 -->
<g id="edge15" class="edge"><title>Node6&#45;&gt;Node14</title>
<path fill="none" stroke="midnightblue" d="M456.909,-124.824C502.858,-116.661 574.051,-103.174 635,-88 635.099,-87.9754 635.198,-87.9506 635.297,-87.9257"/>
<polygon fill="midnightblue" stroke="midnightblue" points="636.005,-91.3603 644.739,-85.3625 634.171,-84.6049 636.005,-91.3603"/>
</g>
<!-- Node8 -->
<g id="node8" class="node"><title>Node8</title>
<g id="a_node8"><a xlink:href="../../dd/d9e/_m_a_r_s_defs_8h.html" target="_top" xlink:title="MARSDefs.h">
<polygon fill="white" stroke="black" points="279.5,-6.5 279.5,-25.5 354.5,-25.5 354.5,-6.5 279.5,-6.5"/>
<text text-anchor="middle" x="317" y="-13.5" font-family="Helvetica,sans-Serif" font-size="10.00">MARSDefs.h</text>
</a>
</g>
</g>
<!-- Node7&#45;&gt;Node8 -->
<g id="edge7" class="edge"><title>Node7&#45;&gt;Node8</title>
<path fill="none" stroke="midnightblue" d="M317,-68.4035C317,-59.9381 317,-46.7283 317,-35.8199"/>
<polygon fill="midnightblue" stroke="midnightblue" points="320.5,-35.5806 317,-25.5806 313.5,-35.5806 320.5,-35.5806"/>
</g>
<!-- Node7&#45;&gt;Node9 -->
<g id="edge8" class="edge"><title>Node7&#45;&gt;Node9</title>
<path fill="none" stroke="midnightblue" d="M301.956,-68.4035C284.725,-58.5569 256.26,-42.2915 235.966,-30.6949"/>
<polygon fill="midnightblue" stroke="midnightblue" points="237.435,-27.5032 227.016,-25.5806 233.962,-33.5809 237.435,-27.5032"/>
</g>
<!-- Node7&#45;&gt;Node10 -->
<g id="edge9" class="edge"><title>Node7&#45;&gt;Node10</title>
<path fill="none" stroke="midnightblue" d="M341.93,-68.4035C372.036,-58.0222 422.832,-40.5062 456.638,-28.849"/>
<polygon fill="midnightblue" stroke="midnightblue" points="457.804,-32.1494 466.116,-25.5806 455.522,-25.5318 457.804,-32.1494"/>
</g>
<!-- Node11 -->
<g id="node11" class="node"><title>Node11</title>
<polygon fill="white" stroke="#bfbfbf" points="372.5,-6.5 372.5,-25.5 413.5,-25.5 413.5,-6.5 372.5,-6.5"/>
<text text-anchor="middle" x="393" y="-13.5" font-family="Helvetica,sans-Serif" font-size="10.00">string</text>
</g>
<!-- Node7&#45;&gt;Node11 -->
<g id="edge10" class="edge"><title>Node7&#45;&gt;Node11</title>
<path fill="none" stroke="midnightblue" d="M327.889,-68.4035C339.966,-58.8688 359.667,-43.3154 374.24,-31.8106"/>
<polygon fill="midnightblue" stroke="midnightblue" points="376.451,-34.5242 382.131,-25.5806 372.114,-29.03 376.451,-34.5242"/>
</g>
</g>
</svg>
