<?xml version="1.0" encoding="UTF-8" standalone="no"?>
<!DOCTYPE svg PUBLIC "-//W3C//DTD SVG 1.1//EN"
 "http://www.w3.org/Graphics/SVG/1.1/DTD/svg11.dtd">
<!-- Generated by graphviz version 2.26.3 (20100126.1600)
 -->
<!-- Title: /home/kavonszadkowski/limes&#45;dev/simulation/mars/interfaces/src/snmesh.h Pages: 1 -->
<svg width="194pt" height="114pt"
 viewBox="0.00 0.00 194.00 114.00" xmlns="http://www.w3.org/2000/svg" xmlns:xlink="http://www.w3.org/1999/xlink">
<g id="graph1" class="graph" transform="scale(1 1) rotate(0) translate(4 110)">
<title>/home/kavonszadkowski/limes&#45;dev/simulation/mars/interfaces/src/snmesh.h</title>
<polygon fill="white" stroke="white" points="-4,5 -4,-110 191,-110 191,5 -4,5"/>
<!-- Node1 -->
<g id="node1" class="node"><title>Node1</title>
<polygon fill="#bfbfbf" stroke="black" points="13.5,-58.5 13.5,-105.5 162.5,-105.5 162.5,-58.5 13.5,-58.5"/>
<text text-anchor="start" x="21.5" y="-92.5" font-family="Helvetica,sans-Serif" font-size="10.00">/home/kavonszadkowski</text>
<text text-anchor="start" x="21.5" y="-79.5" font-family="Helvetica,sans-Serif" font-size="10.00">/limes&#45;dev/simulation</text>
<text text-anchor="middle" x="88" y="-66.5" font-family="Helvetica,sans-Serif" font-size="10.00">/mars/interfaces/src/snmesh.h</text>
</g>
<!-- Node2 -->
<g id="node3" class="node"><title>Node2</title>
<a xlink:href="../../dd/d9e/_m_a_r_s_defs_8h.html" target="_top" xlink:title="MARSDefs.h">
<polygon fill="white" stroke="black" points="-0.5,-0.5 -0.5,-21.5 74.5,-21.5 74.5,-0.5 -0.5,-0.5"/>
<text text-anchor="middle" x="37" y="-8.5" font-family="Helvetica,sans-Serif" font-size="10.00">MARSDefs.h</text>
</a>
</g>
<!-- Node1&#45;&gt;Node2 -->
<g id="edge2" class="edge"><title>Node1&#45;&gt;Node2</title>
<path fill="none" stroke="midnightblue" d="M71.0177,-58.358C64.3939,-49.1366 56.9038,-38.7092 50.6413,-29.9908"/>
<polygon fill="midnightblue" stroke="midnightblue" points="53.324,-27.7262 44.6473,-21.6462 47.6387,-31.81 53.324,-27.7262"/>
</g>
<!-- Node3 -->
<g id="node5" class="node"><title>Node3</title>
<polygon fill="white" stroke="#bfbfbf" points="92,-0.5 92,-21.5 186,-21.5 186,-0.5 92,-0.5"/>
<text text-anchor="middle" x="139" y="-8.5" font-family="Helvetica,sans-Serif" font-size="10.00">mars/utils/Color.h</text>
</g>
<!-- Node1&#45;&gt;Node3 -->
<g id="edge4" class="edge"><title>Node1&#45;&gt;Node3</title>
<path fill="none" stroke="midnightblue" d="M104.982,-58.358C111.606,-49.1366 119.096,-38.7092 125.359,-29.9908"/>
<polygon fill="midnightblue" stroke="midnightblue" points="128.361,-31.81 131.353,-21.6462 122.676,-27.7262 128.361,-31.81"/>
</g>
</g>
</svg>
