<?xml version="1.0" encoding="UTF-8" standalone="no"?>
<!DOCTYPE svg PUBLIC "-//W3C//DTD SVG 1.1//EN"
 "http://www.w3.org/Graphics/SVG/1.1/DTD/svg11.dtd">
<!-- Generated by graphviz version 2.26.3 (20100126.1600)
 -->
<!-- Title: /home/kavonszadkowski/limes&#45;dev/simulation/mars/sim/src/core/Simulator.cpp Pages: 1 -->
<svg width="3622pt" height="330pt"
 viewBox="0.00 0.00 3622.00 330.00" xmlns="http://www.w3.org/2000/svg" xmlns:xlink="http://www.w3.org/1999/xlink">
<g id="graph1" class="graph" transform="scale(1 1) rotate(0) translate(4 326)">
<title>/home/kavonszadkowski/limes&#45;dev/simulation/mars/sim/src/core/Simulator.cpp</title>
<polygon fill="white" stroke="white" points="-4,5 -4,-326 3619,-326 3619,5 -4,5"/>
<!-- Node1 -->
<g id="node1" class="node"><title>Node1</title>
<polygon fill="#bfbfbf" stroke="black" points="2219.5,-274.5 2219.5,-321.5 2380.5,-321.5 2380.5,-274.5 2219.5,-274.5"/>
<text text-anchor="start" x="2227.5" y="-308.5" font-family="Helvetica,sans-Serif" font-size="10.00">/home/kavonszadkowski</text>
<text text-anchor="start" x="2227.5" y="-295.5" font-family="Helvetica,sans-Serif" font-size="10.00">/limes&#45;dev/simulation</text>
<text text-anchor="middle" x="2300" y="-282.5" font-family="Helvetica,sans-Serif" font-size="10.00">/mars/sim/src/core/Simulator.cpp</text>
</g>
<!-- Node2 -->
<g id="node3" class="node"><title>Node2</title>
<polygon fill="white" stroke="#bfbfbf" points="1263.5,-209.5 1263.5,-230.5 1314.5,-230.5 1314.5,-209.5 1263.5,-209.5"/>
<text text-anchor="middle" x="1289" y="-217.5" font-family="Helvetica,sans-Serif" font-size="10.00">config.h</text>
</g>
<!-- Node1&#45;&gt;Node2 -->
<g id="edge2" class="edge"><title>Node1&#45;&gt;Node2</title>
<path fill="none" stroke="midnightblue" d="M2219.28,-296.844C2017.61,-293.343 1495.93,-280.35 1328,-238 1324.57,-237.135 1321.07,-235.972 1317.65,-234.652"/>
<polygon fill="midnightblue" stroke="midnightblue" points="1318.89,-231.375 1308.32,-230.631 1316.12,-237.804 1318.89,-231.375"/>
</g>
<!-- Node3 -->
<g id="node5" class="node"><title>Node3</title>
<a xlink:href="../../dc/d8c/_simulator_8h.html" target="_top" xlink:title="&quot;Simulator&quot; is the main class of the simulation ">
<polygon fill="white" stroke="black" points="955,-72.5 955,-93.5 1021,-93.5 1021,-72.5 955,-72.5"/>
<text text-anchor="middle" x="988" y="-80.5" font-family="Helvetica,sans-Serif" font-size="10.00">Simulator.h</text>
</a>
</g>
<!-- Node1&#45;&gt;Node3 -->
<g id="edge4" class="edge"><title>Node1&#45;&gt;Node3</title>
<path fill="none" stroke="midnightblue" d="M2219.19,-295.625C2030.95,-289.59 1567.76,-271.706 1416,-238 1372.73,-228.39 1364.55,-217.42 1323,-202 1216.99,-162.663 1091.15,-118.685 1028.15,-96.8537"/>
<polygon fill="midnightblue" stroke="midnightblue" points="1029.18,-93.5085 1018.59,-93.5442 1026.89,-100.123 1029.18,-93.5085"/>
</g>
<!-- Node17 -->
<g id="node33" class="node"><title>Node17</title>
<a xlink:href="../../df/d11/_physics_mapper_8h.html" target="_top" xlink:title="&quot;PhysicsMapper&quot; connects the implemented interface classes to the interface objects that are handled ...">
<polygon fill="white" stroke="black" points="1650,-209.5 1650,-230.5 1742,-230.5 1742,-209.5 1650,-209.5"/>
<text text-anchor="middle" x="1696" y="-217.5" font-family="Helvetica,sans-Serif" font-size="10.00">PhysicsMapper.h</text>
</a>
</g>
<!-- Node1&#45;&gt;Node17 -->
<g id="edge32" class="edge"><title>Node1&#45;&gt;Node17</title>
<path fill="none" stroke="midnightblue" d="M2219.16,-291.276C2116.26,-282.13 1933.21,-263.887 1778,-238 1768.92,-236.486 1759.33,-234.623 1750.03,-232.676"/>
<polygon fill="midnightblue" stroke="midnightblue" points="1750.61,-229.22 1740.1,-230.543 1749.14,-236.064 1750.61,-229.22"/>
</g>
<!-- Node21 -->
<g id="node46" class="node"><title>Node21</title>
<a xlink:href="../../d1/ddd/_node_manager_8h.html" target="_top" xlink:title="&quot;NodeManager&quot; is the class that manage all nodes and their operations and communication between the d...">
<polygon fill="white" stroke="black" points="1386,-72.5 1386,-93.5 1472,-93.5 1472,-72.5 1386,-72.5"/>
<text text-anchor="middle" x="1429" y="-80.5" font-family="Helvetica,sans-Serif" font-size="10.00">NodeManager.h</text>
</a>
</g>
<!-- Node1&#45;&gt;Node21 -->
<g id="edge50" class="edge"><title>Node1&#45;&gt;Node21</title>
<path fill="none" stroke="midnightblue" d="M2219.47,-294.789C2068.16,-288.077 1747.09,-270.43 1641,-238 1577.47,-218.578 1562.89,-206.21 1510,-166 1484.66,-146.731 1459.72,-119.599 1444.35,-101.67"/>
<polygon fill="midnightblue" stroke="midnightblue" points="1446.74,-99.0722 1437.62,-93.6822 1441.39,-103.584 1446.74,-99.0722"/>
</g>
<!-- Node23 -->
<g id="node53" class="node"><title>Node23</title>
<a xlink:href="../../d3/d28/_joint_manager_8h.html" target="_top" xlink:title="&quot;JointManager&quot; is the class that manage all joints and their operations and communication between the...">
<polygon fill="white" stroke="black" points="1836.5,-72.5 1836.5,-93.5 1919.5,-93.5 1919.5,-72.5 1836.5,-72.5"/>
<text text-anchor="middle" x="1878" y="-80.5" font-family="Helvetica,sans-Serif" font-size="10.00">JointManager.h</text>
</a>
</g>
<!-- Node1&#45;&gt;Node23 -->
<g id="edge60" class="edge"><title>Node1&#45;&gt;Node23</title>
<path fill="none" stroke="midnightblue" d="M2219.41,-288.03C2170.14,-279.594 2107.01,-264.478 2056,-238 2020.18,-219.406 1934.09,-137.651 1896.3,-100.948"/>
<polygon fill="midnightblue" stroke="midnightblue" points="1898.61,-98.3113 1889.01,-93.8381 1893.73,-103.324 1898.61,-98.3113"/>
</g>
<!-- Node25 -->
<g id="node59" class="node"><title>Node25</title>
<a xlink:href="../../d6/db4/_motor_manager_8h.html" target="_top" xlink:title="&quot;MotorManager&quot; implements the MotorManagerInterface. It is manages all motors and all motor operation...">
<polygon fill="white" stroke="black" points="2004.5,-72.5 2004.5,-93.5 2091.5,-93.5 2091.5,-72.5 2004.5,-72.5"/>
<text text-anchor="middle" x="2048" y="-80.5" font-family="Helvetica,sans-Serif" font-size="10.00">MotorManager.h</text>
</a>
</g>
<!-- Node1&#45;&gt;Node25 -->
<g id="edge68" class="edge"><title>Node1&#45;&gt;Node25</title>
<path fill="none" stroke="midnightblue" d="M2219.48,-284.629C2165.91,-274.12 2102.02,-257.944 2083,-238 2047.92,-201.207 2045.21,-137.071 2046.44,-104.02"/>
<polygon fill="midnightblue" stroke="midnightblue" points="2049.95,-103.895 2047,-93.7216 2042.96,-103.519 2049.95,-103.895"/>
</g>
<!-- Node27 -->
<g id="node65" class="node"><title>Node27</title>
<a xlink:href="../../df/d0e/_sensor_manager_8h.html" target="_top" xlink:title="SensorManager implements SensorManagerInterface and manages all sensors and all sensor operations tha...">
<polygon fill="white" stroke="black" points="2108.5,-72.5 2108.5,-93.5 2201.5,-93.5 2201.5,-72.5 2108.5,-72.5"/>
<text text-anchor="middle" x="2155" y="-80.5" font-family="Helvetica,sans-Serif" font-size="10.00">SensorManager.h</text>
</a>
</g>
<!-- Node1&#45;&gt;Node27 -->
<g id="edge76" class="edge"><title>Node1&#45;&gt;Node27</title>
<path fill="none" stroke="midnightblue" d="M2219.47,-284.069C2170.22,-273.723 2113.88,-257.967 2099,-238 2067.12,-195.217 2111.4,-132.524 2137.8,-101.624"/>
<polygon fill="midnightblue" stroke="midnightblue" points="2140.71,-103.612 2144.69,-93.7942 2135.45,-98.9862 2140.71,-103.612"/>
</g>
<!-- Node30 -->
<g id="node73" class="node"><title>Node30</title>
<a xlink:href="../../d4/d2e/_controller_manager_8h.html" target="_top" xlink:title="&quot;ControllerManager&quot; implements the ControllerManagerInterface. It is manages all controllers and all ...">
<polygon fill="white" stroke="black" points="1787,-209.5 1787,-230.5 1891,-230.5 1891,-209.5 1787,-209.5"/>
<text text-anchor="middle" x="1839" y="-217.5" font-family="Helvetica,sans-Serif" font-size="10.00">ControllerManager.h</text>
</a>
</g>
<!-- Node1&#45;&gt;Node30 -->
<g id="edge86" class="edge"><title>Node1&#45;&gt;Node30</title>
<path fill="none" stroke="midnightblue" d="M2219.2,-286.111C2143.33,-274.692 2026.74,-256.492 1926,-238 1916.98,-236.343 1907.45,-234.485 1898.14,-232.608"/>
<polygon fill="midnightblue" stroke="midnightblue" points="1898.65,-229.141 1888.16,-230.572 1897.25,-236 1898.65,-229.141"/>
</g>
<!-- Node31 -->
<g id="node75" class="node"><title>Node31</title>
<a xlink:href="../../d2/d94/_controller_8h.html" target="_top" xlink:title="&quot;Controller&quot; provides an architecture to log all relevant data from the simulation in file...">
<polygon fill="white" stroke="red" points="1369.5,-137.5 1369.5,-158.5 1436.5,-158.5 1436.5,-137.5 1369.5,-137.5"/>
<text text-anchor="middle" x="1403" y="-145.5" font-family="Helvetica,sans-Serif" font-size="10.00">Controller.h</text>
</a>
</g>
<!-- Node1&#45;&gt;Node31 -->
<g id="edge122" class="edge"><title>Node1&#45;&gt;Node31</title>
<path fill="none" stroke="midnightblue" d="M2219.42,-296.745C2019.71,-293.014 1513.38,-279.525 1450,-238 1425.89,-222.206 1413.41,-189.875 1407.53,-168.573"/>
<polygon fill="midnightblue" stroke="midnightblue" points="1410.86,-167.438 1405.04,-158.585 1404.06,-169.135 1410.86,-167.438"/>
</g>
<!-- Node34 -->
<g id="node88" class="node"><title>Node34</title>
<a xlink:href="../../d8/dba/_entity_manager_8h.html" target="_top" xlink:title="&quot;EntityManager&quot; is the class that manages information about simulation entities ">
<polygon fill="white" stroke="black" points="2362,-72.5 2362,-93.5 2450,-93.5 2450,-72.5 2362,-72.5"/>
<text text-anchor="middle" x="2406" y="-80.5" font-family="Helvetica,sans-Serif" font-size="10.00">EntityManager.h</text>
</a>
</g>
<!-- Node1&#45;&gt;Node34 -->
<g id="edge108" class="edge"><title>Node1&#45;&gt;Node34</title>
<path fill="none" stroke="midnightblue" d="M2219.43,-286.92C2154.62,-274.339 2079.19,-249.131 2111,-202 2164.85,-122.213 2282.13,-95.9084 2351.5,-87.2453"/>
<polygon fill="midnightblue" stroke="midnightblue" points="2352.26,-90.6803 2361.79,-86.0458 2351.45,-83.7274 2352.26,-90.6803"/>
</g>
<!-- Node38 -->
<g id="node100" class="node"><title>Node38</title>
<polygon fill="white" stroke="#bfbfbf" points="2120,-209.5 2120,-230.5 2212,-230.5 2212,-209.5 2120,-209.5"/>
<text text-anchor="middle" x="2166" y="-217.5" font-family="Helvetica,sans-Serif" font-size="10.00">mars/utils/misc.h</text>
</g>
<!-- Node1&#45;&gt;Node38 -->
<g id="edge124" class="edge"><title>Node1&#45;&gt;Node38</title>
<path fill="none" stroke="midnightblue" d="M2259.43,-274.386C2237.85,-261.824 2211.91,-246.726 2192.85,-235.628"/>
<polygon fill="midnightblue" stroke="midnightblue" points="2194.49,-232.536 2184.09,-230.53 2190.97,-238.586 2194.49,-232.536"/>
</g>
<!-- Node39 -->
<g id="node102" class="node"><title>Node39</title>
<polygon fill="white" stroke="#bfbfbf" points="2230,-203 2230,-237 2370,-237 2370,-203 2230,-203"/>
<text text-anchor="start" x="2238" y="-224" font-family="Helvetica,sans-Serif" font-size="10.00">mars/interfaces/SceneParse</text>
<text text-anchor="middle" x="2300" y="-211" font-family="Helvetica,sans-Serif" font-size="10.00">Exception.h</text>
</g>
<!-- Node1&#45;&gt;Node39 -->
<g id="edge126" class="edge"><title>Node1&#45;&gt;Node39</title>
<path fill="none" stroke="midnightblue" d="M2300,-274.174C2300,-265.638 2300,-255.952 2300,-247.156"/>
<polygon fill="midnightblue" stroke="midnightblue" points="2303.5,-247.003 2300,-237.003 2296.5,-247.003 2303.5,-247.003"/>
</g>
<!-- Node40 -->
<g id="node104" class="node"><title>Node40</title>
<polygon fill="white" stroke="#bfbfbf" points="2387.5,-203 2387.5,-237 2530.5,-237 2530.5,-203 2387.5,-203"/>
<text text-anchor="start" x="2395.5" y="-224" font-family="Helvetica,sans-Serif" font-size="10.00">mars/interfaces/graphics</text>
<text text-anchor="middle" x="2459" y="-211" font-family="Helvetica,sans-Serif" font-size="10.00">/GraphicsManagerInterface.h</text>
</g>
<!-- Node1&#45;&gt;Node40 -->
<g id="edge128" class="edge"><title>Node1&#45;&gt;Node40</title>
<path fill="none" stroke="midnightblue" d="M2348.14,-274.386C2369.38,-263.965 2394.18,-251.799 2414.93,-241.619"/>
<polygon fill="midnightblue" stroke="midnightblue" points="2416.72,-244.641 2424.15,-237.095 2413.63,-238.357 2416.72,-244.641"/>
</g>
<!-- Node41 -->
<g id="node106" class="node"><title>Node41</title>
<polygon fill="white" stroke="#bfbfbf" points="2547.5,-203 2547.5,-237 2650.5,-237 2650.5,-203 2547.5,-203"/>
<text text-anchor="start" x="2555.5" y="-224" font-family="Helvetica,sans-Serif" font-size="10.00">mars/interfaces/sim</text>
<text text-anchor="middle" x="2599" y="-211" font-family="Helvetica,sans-Serif" font-size="10.00">/LoadCenter.h</text>
</g>
<!-- Node1&#45;&gt;Node41 -->
<g id="edge130" class="edge"><title>Node1&#45;&gt;Node41</title>
<path fill="none" stroke="midnightblue" d="M2380.72,-278.703C2424.62,-267.982 2480.06,-254.073 2537.37,-238.4"/>
<polygon fill="midnightblue" stroke="midnightblue" points="2538.62,-241.687 2547.33,-235.663 2536.76,-234.937 2538.62,-241.687"/>
</g>
<!-- Node42 -->
<g id="node108" class="node"><title>Node42</title>
<polygon fill="white" stroke="#bfbfbf" points="2667.5,-203 2667.5,-237 2782.5,-237 2782.5,-203 2667.5,-203"/>
<text text-anchor="start" x="2675.5" y="-224" font-family="Helvetica,sans-Serif" font-size="10.00">mars/interfaces/sim</text>
<text text-anchor="middle" x="2725" y="-211" font-family="Helvetica,sans-Serif" font-size="10.00">/LoadSceneInterface.h</text>
</g>
<!-- Node1&#45;&gt;Node42 -->
<g id="edge132" class="edge"><title>Node1&#45;&gt;Node42</title>
<path fill="none" stroke="midnightblue" d="M2380.65,-286.893C2451.34,-276.613 2557.02,-259.934 2657.48,-238.235"/>
<polygon fill="midnightblue" stroke="midnightblue" points="2658.47,-241.601 2667.49,-236.05 2656.98,-234.762 2658.47,-241.601"/>
</g>
<!-- Node43 -->
<g id="node110" class="node"><title>Node43</title>
<polygon fill="white" stroke="#bfbfbf" points="2799.5,-203 2799.5,-237 2944.5,-237 2944.5,-203 2799.5,-203"/>
<text text-anchor="start" x="2807.5" y="-224" font-family="Helvetica,sans-Serif" font-size="10.00">mars/data_broker/DataBroker</text>
<text text-anchor="middle" x="2872" y="-211" font-family="Helvetica,sans-Serif" font-size="10.00">Interface.h</text>
</g>
<!-- Node1&#45;&gt;Node43 -->
<g id="edge134" class="edge"><title>Node1&#45;&gt;Node43</title>
<path fill="none" stroke="midnightblue" d="M2380.72,-290.562C2476.11,-281.227 2639.77,-263.501 2788.95,-238.276"/>
<polygon fill="midnightblue" stroke="midnightblue" points="2789.94,-241.658 2799.21,-236.526 2788.76,-234.758 2789.94,-241.658"/>
</g>
<!-- Node44 -->
<g id="node112" class="node"><title>Node44</title>
<polygon fill="white" stroke="#bfbfbf" points="2962,-209.5 2962,-230.5 3104,-230.5 3104,-209.5 2962,-209.5"/>
<text text-anchor="middle" x="3033" y="-217.5" font-family="Helvetica,sans-Serif" font-size="10.00">lib_manager/LibInterface.hpp</text>
</g>
<!-- Node1&#45;&gt;Node44 -->
<g id="edge136" class="edge"><title>Node1&#45;&gt;Node44</title>
<path fill="none" stroke="midnightblue" d="M2380.59,-293.966C2504.29,-287.016 2748.19,-270.311 2953,-238 2962.09,-236.566 2971.69,-234.709 2980.96,-232.734"/>
<polygon fill="midnightblue" stroke="midnightblue" points="2981.83,-236.125 2990.85,-230.559 2980.33,-229.288 2981.83,-236.125"/>
</g>
<!-- Node45 -->
<g id="node114" class="node"><title>Node45</title>
<polygon fill="white" stroke="#bfbfbf" points="3122,-209.5 3122,-230.5 3262,-230.5 3262,-209.5 3122,-209.5"/>
<text text-anchor="middle" x="3192" y="-217.5" font-family="Helvetica,sans-Serif" font-size="10.00">mars/interfaces/Logging.hpp</text>
</g>
<!-- Node1&#45;&gt;Node45 -->
<g id="edge138" class="edge"><title>Node1&#45;&gt;Node45</title>
<path fill="none" stroke="midnightblue" d="M2380.64,-296.061C2527.2,-291.649 2846.72,-277.93 3113,-238 3122.19,-236.621 3131.91,-234.755 3141.26,-232.744"/>
<polygon fill="midnightblue" stroke="midnightblue" points="3142.22,-236.115 3151.22,-230.522 3140.7,-229.283 3142.22,-236.115"/>
</g>
<!-- Node46 -->
<g id="node116" class="node"><title>Node46</title>
<polygon fill="white" stroke="#bfbfbf" points="3280,-209.5 3280,-230.5 3330,-230.5 3330,-209.5 3280,-209.5"/>
<text text-anchor="middle" x="3305" y="-217.5" font-family="Helvetica,sans-Serif" font-size="10.00">signal.h</text>
</g>
<!-- Node1&#45;&gt;Node46 -->
<g id="edge140" class="edge"><title>Node1&#45;&gt;Node46</title>
<path fill="none" stroke="midnightblue" d="M2380.78,-297.384C2582.58,-295.147 3104.45,-284.866 3271,-238 3273.68,-237.246 3276.39,-236.26 3279.05,-235.138"/>
<polygon fill="midnightblue" stroke="midnightblue" points="3280.83,-238.162 3288.3,-230.647 3277.77,-231.864 3280.83,-238.162"/>
</g>
<!-- Node47 -->
<g id="node118" class="node"><title>Node47</title>
<polygon fill="white" stroke="#bfbfbf" points="3348,-209.5 3348,-230.5 3400,-230.5 3400,-209.5 3348,-209.5"/>
<text text-anchor="middle" x="3374" y="-217.5" font-family="Helvetica,sans-Serif" font-size="10.00">getopt.h</text>
</g>
<!-- Node1&#45;&gt;Node47 -->
<g id="edge142" class="edge"><title>Node1&#45;&gt;Node47</title>
<path fill="none" stroke="midnightblue" d="M2380.53,-295.274C2608.48,-287.289 3247.6,-262.938 3339,-238 3341.84,-237.224 3344.72,-236.199 3347.54,-235.031"/>
<polygon fill="midnightblue" stroke="midnightblue" points="3349.24,-238.101 3356.78,-230.66 3346.24,-231.774 3349.24,-238.101"/>
</g>
<!-- Node48 -->
<g id="node120" class="node"><title>Node48</title>
<polygon fill="white" stroke="#bfbfbf" points="3417.5,-209.5 3417.5,-230.5 3476.5,-230.5 3476.5,-209.5 3417.5,-209.5"/>
<text text-anchor="middle" x="3447" y="-217.5" font-family="Helvetica,sans-Serif" font-size="10.00">stdexcept</text>
</g>
<!-- Node1&#45;&gt;Node48 -->
<g id="edge144" class="edge"><title>Node1&#45;&gt;Node48</title>
<path fill="none" stroke="midnightblue" d="M2380.77,-295.434C2619.32,-287.603 3310.29,-263.017 3409,-238 3412.26,-237.175 3415.57,-236.065 3418.81,-234.8"/>
<polygon fill="midnightblue" stroke="midnightblue" points="3420.47,-237.895 3428.21,-230.665 3417.65,-231.488 3420.47,-237.895"/>
</g>
<!-- Node49 -->
<g id="node122" class="node"><title>Node49</title>
<polygon fill="white" stroke="#bfbfbf" points="3494,-209.5 3494,-230.5 3550,-230.5 3550,-209.5 3494,-209.5"/>
<text text-anchor="middle" x="3522" y="-217.5" font-family="Helvetica,sans-Serif" font-size="10.00">algorithm</text>
</g>
<!-- Node1&#45;&gt;Node49 -->
<g id="edge146" class="edge"><title>Node1&#45;&gt;Node49</title>
<path fill="none" stroke="midnightblue" d="M2380.51,-295.79C2629.84,-288.686 3378.83,-265.301 3485,-238 3488.18,-237.182 3491.42,-236.076 3494.58,-234.813"/>
<polygon fill="midnightblue" stroke="midnightblue" points="3496.06,-237.984 3503.74,-230.682 3493.18,-231.604 3496.06,-237.984"/>
</g>
<!-- Node50 -->
<g id="node124" class="node"><title>Node50</title>
<polygon fill="white" stroke="#bfbfbf" points="3568,-209.5 3568,-230.5 3614,-230.5 3614,-209.5 3568,-209.5"/>
<text text-anchor="middle" x="3591" y="-217.5" font-family="Helvetica,sans-Serif" font-size="10.00">cctype</text>
</g>
<!-- Node1&#45;&gt;Node50 -->
<g id="edge148" class="edge"><title>Node1&#45;&gt;Node50</title>
<path fill="none" stroke="midnightblue" d="M2380.55,-296.318C2640.42,-290.591 3446.36,-270.392 3559,-238 3561.61,-237.25 3564.24,-236.251 3566.8,-235.107"/>
<polygon fill="midnightblue" stroke="midnightblue" points="3568.42,-238.213 3575.69,-230.512 3565.2,-231.994 3568.42,-238.213"/>
</g>
<!-- Node4 -->
<g id="node7" class="node"><title>Node4</title>
<polygon fill="white" stroke="#bfbfbf" points="843.5,-7.5 843.5,-28.5 1006.5,-28.5 1006.5,-7.5 843.5,-7.5"/>
<text text-anchor="middle" x="925" y="-15.5" font-family="Helvetica,sans-Serif" font-size="10.00">mars/data_broker/DataPackage.h</text>
</g>
<!-- Node3&#45;&gt;Node4 -->
<g id="edge6" class="edge"><title>Node3&#45;&gt;Node4</title>
<path fill="none" stroke="midnightblue" d="M977.597,-72.2666C968.056,-62.4227 953.736,-47.6481 942.446,-35.9996"/>
<polygon fill="midnightblue" stroke="midnightblue" points="944.683,-33.2785 935.21,-28.5337 939.656,-38.1503 944.683,-33.2785"/>
</g>
<!-- Node5 -->
<g id="node9" class="node"><title>Node5</title>
<polygon fill="white" stroke="#bfbfbf" points="1096,-1 1096,-35 1230,-35 1230,-1 1096,-1"/>
<text text-anchor="start" x="1104" y="-22" font-family="Helvetica,sans-Serif" font-size="10.00">mars/data_broker/Receiver</text>
<text text-anchor="middle" x="1163" y="-9" font-family="Helvetica,sans-Serif" font-size="10.00">Interface.h</text>
</g>
<!-- Node3&#45;&gt;Node5 -->
<g id="edge8" class="edge"><title>Node3&#45;&gt;Node5</title>
<path fill="none" stroke="midnightblue" d="M1016.51,-72.412C1041.06,-63.2905 1077.23,-49.8588 1107.48,-38.623"/>
<polygon fill="midnightblue" stroke="midnightblue" points="1108.91,-41.8233 1117.07,-35.0604 1106.48,-35.2613 1108.91,-41.8233"/>
</g>
<!-- Node6 -->
<g id="node11" class="node"><title>Node6</title>
<polygon fill="white" stroke="#bfbfbf" points="667.5,-1 667.5,-35 826.5,-35 826.5,-1 667.5,-1"/>
<text text-anchor="start" x="675.5" y="-22" font-family="Helvetica,sans-Serif" font-size="10.00">mars/cfg_manager/CFGManager</text>
<text text-anchor="middle" x="747" y="-9" font-family="Helvetica,sans-Serif" font-size="10.00">Interface.h</text>
</g>
<!-- Node3&#45;&gt;Node6 -->
<g id="edge10" class="edge"><title>Node3&#45;&gt;Node6</title>
<path fill="none" stroke="midnightblue" d="M954.995,-74.0983C920.406,-64.7693 864.949,-49.8119 819.994,-37.6872"/>
<polygon fill="midnightblue" stroke="midnightblue" points="820.847,-34.2922 810.281,-35.0674 819.024,-41.0507 820.847,-34.2922"/>
</g>
<!-- Node7 -->
<g id="node13" class="node"><title>Node7</title>
<polygon fill="white" stroke="#bfbfbf" points="-0.5,-7.5 -0.5,-28.5 100.5,-28.5 100.5,-7.5 -0.5,-7.5"/>
<text text-anchor="middle" x="50" y="-15.5" font-family="Helvetica,sans-Serif" font-size="10.00">mars/utils/Thread.h</text>
</g>
<!-- Node3&#45;&gt;Node7 -->
<g id="edge12" class="edge"><title>Node3&#45;&gt;Node7</title>
<path fill="none" stroke="midnightblue" d="M954.915,-82.3044C815.606,-79.2102 276.237,-65.5287 109,-36 102.633,-34.8758 95.9873,-33.2806 89.5489,-31.4993"/>
<polygon fill="midnightblue" stroke="midnightblue" points="90.2532,-28.058 79.6716,-28.5876 88.2739,-34.7724 90.2532,-28.058"/>
</g>
<!-- Node8 -->
<g id="node15" class="node"><title>Node8</title>
<polygon fill="white" stroke="#bfbfbf" points="1928,-7.5 1928,-28.5 2026,-28.5 2026,-7.5 1928,-7.5"/>
<text text-anchor="middle" x="1977" y="-15.5" font-family="Helvetica,sans-Serif" font-size="10.00">mars/utils/Mutex.h</text>
</g>
<!-- Node3&#45;&gt;Node8 -->
<g id="edge14" class="edge"><title>Node3&#45;&gt;Node8</title>
<path fill="none" stroke="midnightblue" d="M1021.05,-79.5169C1044.91,-77.1069 1077.92,-73.9877 1107,-72 1467.4,-47.3677 1563.12,-98.0462 1919,-36 1925.34,-34.8948 1931.95,-33.2935 1938.35,-31.4955"/>
<polygon fill="midnightblue" stroke="midnightblue" points="1939.58,-34.7801 1948.15,-28.5511 1937.57,-28.076 1939.58,-34.7801"/>
</g>
<!-- Node9 -->
<g id="node17" class="node"><title>Node9</title>
<polygon fill="white" stroke="#bfbfbf" points="118,-7.5 118,-28.5 250,-28.5 250,-7.5 118,-7.5"/>
<text text-anchor="middle" x="184" y="-15.5" font-family="Helvetica,sans-Serif" font-size="10.00">mars/utils/WaitCondition.h</text>
</g>
<!-- Node3&#45;&gt;Node9 -->
<g id="edge16" class="edge"><title>Node3&#45;&gt;Node9</title>
<path fill="none" stroke="midnightblue" d="M954.899,-81.6206C831.2,-76.3485 396.158,-56.7244 259,-36 250.246,-34.6773 241.011,-32.8371 232.127,-30.835"/>
<polygon fill="midnightblue" stroke="midnightblue" points="232.826,-27.4041 222.291,-28.5248 231.226,-34.2187 232.826,-27.4041"/>
</g>
<!-- Node10 -->
<g id="node19" class="node"><title>Node10</title>
<polygon fill="white" stroke="#bfbfbf" points="268,-7.5 268,-28.5 406,-28.5 406,-7.5 268,-7.5"/>
<text text-anchor="middle" x="337" y="-15.5" font-family="Helvetica,sans-Serif" font-size="10.00">mars/utils/ReadWriteLock.h</text>
</g>
<!-- Node3&#45;&gt;Node10 -->
<g id="edge18" class="edge"><title>Node3&#45;&gt;Node10</title>
<path fill="none" stroke="midnightblue" d="M954.859,-81.9614C866.594,-78.8333 618.665,-67.6815 415,-36 406.12,-34.6187 396.749,-32.7867 387.703,-30.8199"/>
<polygon fill="midnightblue" stroke="midnightblue" points="388.194,-27.343 377.67,-28.5588 386.655,-34.1717 388.194,-27.343"/>
</g>
<!-- Node11 -->
<g id="node21" class="node"><title>Node11</title>
<polygon fill="white" stroke="#bfbfbf" points="423.5,-1 423.5,-35 530.5,-35 530.5,-1 423.5,-1"/>
<text text-anchor="start" x="431.5" y="-22" font-family="Helvetica,sans-Serif" font-size="10.00">mars/interfaces/sim</text>
<text text-anchor="middle" x="477" y="-9" font-family="Helvetica,sans-Serif" font-size="10.00">/SimulatorInterface.h</text>
</g>
<!-- Node3&#45;&gt;Node11 -->
<g id="edge20" class="edge"><title>Node3&#45;&gt;Node11</title>
<path fill="none" stroke="midnightblue" d="M954.746,-81.5485C881.416,-77.9158 700.272,-66.5724 540.623,-36.1396"/>
<polygon fill="midnightblue" stroke="midnightblue" points="541.108,-32.6685 530.625,-34.2029 539.777,-39.5408 541.108,-32.6685"/>
</g>
<!-- Node12 -->
<g id="node23" class="node"><title>Node12</title>
<polygon fill="white" stroke="#bfbfbf" points="1545.5,-1 1545.5,-35 1648.5,-35 1648.5,-1 1545.5,-1"/>
<text text-anchor="start" x="1553.5" y="-22" font-family="Helvetica,sans-Serif" font-size="10.00">mars/interfaces/sim</text>
<text text-anchor="middle" x="1597" y="-9" font-family="Helvetica,sans-Serif" font-size="10.00">/PhysicsInterface.h</text>
</g>
<!-- Node3&#45;&gt;Node12 -->
<g id="edge22" class="edge"><title>Node3&#45;&gt;Node12</title>
<path fill="none" stroke="midnightblue" d="M1021.08,-79.865C1044.95,-77.6212 1077.96,-74.5576 1107,-72 1294.78,-55.4613 1346.81,-71.1901 1535.49,-36.0822"/>
<polygon fill="midnightblue" stroke="midnightblue" points="1536.28,-39.4954 1545.46,-34.2044 1534.98,-32.6165 1536.28,-39.4954"/>
</g>
<!-- Node13 -->
<g id="node25" class="node"><title>Node13</title>
<polygon fill="white" stroke="#bfbfbf" points="547.5,-1 547.5,-35 650.5,-35 650.5,-1 547.5,-1"/>
<text text-anchor="start" x="555.5" y="-22" font-family="Helvetica,sans-Serif" font-size="10.00">mars/interfaces/sim</text>
<text text-anchor="middle" x="599" y="-9" font-family="Helvetica,sans-Serif" font-size="10.00">/PluginInterface.h</text>
</g>
<!-- Node3&#45;&gt;Node13 -->
<g id="edge24" class="edge"><title>Node3&#45;&gt;Node13</title>
<path fill="none" stroke="midnightblue" d="M954.549,-79.8917C896.444,-74.1334 773.03,-60.3182 660.401,-36.1484"/>
<polygon fill="midnightblue" stroke="midnightblue" points="661.098,-32.7183 650.582,-34.0087 659.607,-39.5578 661.098,-32.7183"/>
</g>
<!-- Node14 -->
<g id="node27" class="node"><title>Node14</title>
<polygon fill="white" stroke="#bfbfbf" points="1665.5,-1 1665.5,-35 1768.5,-35 1768.5,-1 1665.5,-1"/>
<text text-anchor="start" x="1673.5" y="-22" font-family="Helvetica,sans-Serif" font-size="10.00">mars/interfaces/sim</text>
<text text-anchor="middle" x="1717" y="-9" font-family="Helvetica,sans-Serif" font-size="10.00">/ControlCenter.h</text>
</g>
<!-- Node3&#45;&gt;Node14 -->
<g id="edge26" class="edge"><title>Node3&#45;&gt;Node14</title>
<path fill="none" stroke="midnightblue" d="M1021.07,-79.7038C1044.93,-77.3831 1077.94,-74.2938 1107,-72 1347.87,-52.9878 1414.12,-78.7501 1655.34,-36.0797"/>
<polygon fill="midnightblue" stroke="midnightblue" points="1656.24,-39.4733 1665.47,-34.2656 1655.01,-32.5828 1656.24,-39.4733"/>
</g>
<!-- Node15 -->
<g id="node29" class="node"><title>Node15</title>
<polygon fill="white" stroke="#bfbfbf" points="1247.5,-1 1247.5,-35 1384.5,-35 1384.5,-1 1247.5,-1"/>
<text text-anchor="start" x="1255.5" y="-22" font-family="Helvetica,sans-Serif" font-size="10.00">mars/interfaces/graphics</text>
<text text-anchor="middle" x="1316" y="-9" font-family="Helvetica,sans-Serif" font-size="10.00">/GraphicsUpdateInterface.h</text>
</g>
<!-- Node3&#45;&gt;Node15 -->
<g id="edge28" class="edge"><title>Node3&#45;&gt;Node15</title>
<path fill="none" stroke="midnightblue" d="M1021.39,-77.2362C1067.73,-69.1286 1154.42,-53.5818 1237.36,-36.3061"/>
<polygon fill="midnightblue" stroke="midnightblue" points="1238.12,-39.7226 1247.19,-34.2463 1236.68,-32.8713 1238.12,-39.7226"/>
</g>
<!-- Node16 -->
<g id="node31" class="node"><title>Node16</title>
<polygon fill="white" stroke="#bfbfbf" points="1024,-7.5 1024,-28.5 1078,-28.5 1078,-7.5 1024,-7.5"/>
<text text-anchor="middle" x="1051" y="-15.5" font-family="Helvetica,sans-Serif" font-size="10.00">iostream</text>
</g>
<!-- Node3&#45;&gt;Node16 -->
<g id="edge30" class="edge"><title>Node3&#45;&gt;Node16</title>
<path fill="none" stroke="midnightblue" d="M998.403,-72.2666C1007.94,-62.4227 1022.26,-47.6481 1033.55,-35.9996"/>
<polygon fill="midnightblue" stroke="midnightblue" points="1036.34,-38.1503 1040.79,-28.5337 1031.32,-33.2785 1036.34,-38.1503"/>
</g>
<!-- Node18 -->
<g id="node35" class="node"><title>Node18</title>
<a xlink:href="../../d6/d89/_world_physics_8h.html" target="_top" xlink:title="&quot;WorldPhysics&quot; includes the methods to handle the physically world. ">
<polygon fill="white" stroke="red" points="1651,-72.5 1651,-93.5 1737,-93.5 1737,-72.5 1651,-72.5"/>
<text text-anchor="middle" x="1694" y="-80.5" font-family="Helvetica,sans-Serif" font-size="10.00">WorldPhysics.h</text>
</a>
</g>
<!-- Node17&#45;&gt;Node18 -->
<g id="edge34" class="edge"><title>Node17&#45;&gt;Node18</title>
<path fill="none" stroke="midnightblue" d="M1702.12,-209.254C1707.77,-198.647 1715.78,-181.775 1719,-166 1722.2,-150.323 1722.87,-145.524 1719,-130 1716.59,-120.332 1711.77,-110.471 1707.01,-102.295"/>
<polygon fill="midnightblue" stroke="midnightblue" points="1709.84,-100.221 1701.58,-93.5825 1703.9,-103.921 1709.84,-100.221"/>
</g>
<!-- Node19 -->
<g id="node40" class="node"><title>Node19</title>
<a xlink:href="../../d7/d43/_node_physics_8h.html" target="_top" xlink:title="&quot;NodePhysics&quot; implements the physical ode stuff for the nodes. ">
<polygon fill="white" stroke="red" points="1529.5,-137.5 1529.5,-158.5 1612.5,-158.5 1612.5,-137.5 1529.5,-137.5"/>
<text text-anchor="middle" x="1571" y="-145.5" font-family="Helvetica,sans-Serif" font-size="10.00">NodePhysics.h</text>
</a>
</g>
<!-- Node17&#45;&gt;Node19 -->
<g id="edge42" class="edge"><title>Node17&#45;&gt;Node19</title>
<path fill="none" stroke="midnightblue" d="M1677.56,-209.376C1656.69,-197.359 1622.5,-177.665 1598.49,-163.834"/>
<polygon fill="midnightblue" stroke="midnightblue" points="1599.93,-160.626 1589.52,-158.667 1596.44,-166.692 1599.93,-160.626"/>
</g>
<!-- Node20 -->
<g id="node43" class="node"><title>Node20</title>
<a xlink:href="../../dd/dbe/_joint_physics_8h.html" target="_top" xlink:title="JointPhysics.h">
<polygon fill="white" stroke="red" points="1629.5,-137.5 1629.5,-158.5 1710.5,-158.5 1710.5,-137.5 1629.5,-137.5"/>
<text text-anchor="middle" x="1670" y="-145.5" font-family="Helvetica,sans-Serif" font-size="10.00">JointPhysics.h</text>
</a>
</g>
<!-- Node17&#45;&gt;Node20 -->
<g id="edge46" class="edge"><title>Node17&#45;&gt;Node20</title>
<path fill="none" stroke="midnightblue" d="M1692.16,-209.376C1688.28,-198.635 1682.19,-181.761 1677.37,-168.422"/>
<polygon fill="midnightblue" stroke="midnightblue" points="1680.54,-166.884 1673.85,-158.667 1673.96,-169.262 1680.54,-166.884"/>
</g>
<!-- Node18&#45;&gt;Node8 -->
<g id="edge36" class="edge"><title>Node18&#45;&gt;Node8</title>
<path fill="none" stroke="midnightblue" d="M1737.42,-75.199C1782.94,-66.7242 1856.42,-52.2083 1919,-36 1924.29,-34.6287 1929.83,-33.0741 1935.28,-31.4667"/>
<polygon fill="midnightblue" stroke="midnightblue" points="1936.38,-34.789 1944.94,-28.5447 1934.36,-28.0885 1936.38,-34.789"/>
</g>
<!-- Node18&#45;&gt;Node12 -->
<g id="edge40" class="edge"><title>Node18&#45;&gt;Node12</title>
<path fill="none" stroke="midnightblue" d="M1677.98,-72.2666C1665.27,-63.7478 1647.05,-51.5365 1631.11,-40.8541"/>
<polygon fill="midnightblue" stroke="midnightblue" points="1632.79,-37.7691 1622.53,-35.1099 1628.89,-43.5842 1632.79,-37.7691"/>
</g>
<!-- Node18&#45;&gt;Node14 -->
<g id="edge38" class="edge"><title>Node18&#45;&gt;Node14</title>
<path fill="none" stroke="midnightblue" d="M1697.8,-72.2666C1700.45,-64.7732 1704.11,-54.4228 1707.53,-44.769"/>
<polygon fill="midnightblue" stroke="midnightblue" points="1710.91,-45.7046 1710.95,-35.1099 1704.31,-43.3695 1710.91,-45.7046"/>
</g>
<!-- Node19&#45;&gt;Node18 -->
<g id="edge44" class="edge"><title>Node19&#45;&gt;Node18</title>
<path fill="none" stroke="midnightblue" d="M1591.04,-137.412C1611.14,-126.788 1642.31,-110.318 1665.09,-98.28"/>
<polygon fill="midnightblue" stroke="midnightblue" points="1666.77,-101.35 1673.97,-93.5835 1663.5,-95.1613 1666.77,-101.35"/>
</g>
<!-- Node20&#45;&gt;Node18 -->
<g id="edge48" class="edge"><title>Node20&#45;&gt;Node18</title>
<path fill="none" stroke="midnightblue" d="M1673.96,-137.267C1677.39,-127.991 1682.43,-114.336 1686.6,-103.045"/>
<polygon fill="midnightblue" stroke="midnightblue" points="1689.93,-104.127 1690.11,-93.5337 1683.36,-101.702 1689.93,-104.127"/>
</g>
<!-- Node21&#45;&gt;Node8 -->
<g id="edge52" class="edge"><title>Node21&#45;&gt;Node8</title>
<path fill="none" stroke="midnightblue" d="M1472.38,-79.9876C1575.68,-72.6283 1833.96,-53.0861 1919,-36 1924.96,-34.8026 1931.18,-33.2315 1937.23,-31.5159"/>
<polygon fill="midnightblue" stroke="midnightblue" points="1938.62,-34.7531 1947.2,-28.5324 1936.62,-28.0471 1938.62,-34.7531"/>
</g>
<!-- Node21&#45;&gt;Node14 -->
<g id="edge56" class="edge"><title>Node21&#45;&gt;Node14</title>
<path fill="none" stroke="midnightblue" d="M1472.26,-74.5566C1524.29,-64.324 1609.53,-47.2981 1655.62,-36.212"/>
<polygon fill="midnightblue" stroke="midnightblue" points="1656.5,-39.599 1665.37,-33.8041 1654.82,-32.8031 1656.5,-39.599"/>
</g>
<!-- Node21&#45;&gt;Node15 -->
<g id="edge54" class="edge"><title>Node21&#45;&gt;Node15</title>
<path fill="none" stroke="midnightblue" d="M1410.59,-72.412C1395.48,-63.7165 1373.55,-51.1038 1354.61,-40.2106"/>
<polygon fill="midnightblue" stroke="midnightblue" points="1356.29,-37.1393 1345.88,-35.1869 1352.8,-43.207 1356.29,-37.1393"/>
</g>
<!-- Node22 -->
<g id="node51" class="node"><title>Node22</title>
<polygon fill="white" stroke="#bfbfbf" points="1401.5,-1 1401.5,-35 1528.5,-35 1528.5,-1 1401.5,-1"/>
<text text-anchor="start" x="1409.5" y="-22" font-family="Helvetica,sans-Serif" font-size="10.00">mars/interfaces/sim</text>
<text text-anchor="middle" x="1465" y="-9" font-family="Helvetica,sans-Serif" font-size="10.00">/NodeManagerInterface.h</text>
</g>
<!-- Node21&#45;&gt;Node22 -->
<g id="edge58" class="edge"><title>Node21&#45;&gt;Node22</title>
<path fill="none" stroke="midnightblue" d="M1434.94,-72.2666C1439.18,-64.6155 1445.07,-53.9857 1450.51,-44.1602"/>
<polygon fill="midnightblue" stroke="midnightblue" points="1453.74,-45.5535 1455.52,-35.1099 1447.62,-42.162 1453.74,-45.5535"/>
</g>
<!-- Node23&#45;&gt;Node8 -->
<g id="edge66" class="edge"><title>Node23&#45;&gt;Node8</title>
<path fill="none" stroke="midnightblue" d="M1894.35,-72.2666C1910.06,-61.9494 1934.02,-46.216 1952.11,-34.3421"/>
<polygon fill="midnightblue" stroke="midnightblue" points="1954.52,-36.9479 1960.96,-28.5337 1950.68,-31.0964 1954.52,-36.9479"/>
</g>
<!-- Node23&#45;&gt;Node14 -->
<g id="edge62" class="edge"><title>Node23&#45;&gt;Node14</title>
<path fill="none" stroke="midnightblue" d="M1851.77,-72.412C1829.38,-63.3695 1796.49,-50.091 1768.81,-38.9153"/>
<polygon fill="midnightblue" stroke="midnightblue" points="1769.84,-35.5587 1759.26,-35.0604 1767.22,-42.0496 1769.84,-35.5587"/>
</g>
<!-- Node24 -->
<g id="node56" class="node"><title>Node24</title>
<polygon fill="white" stroke="#bfbfbf" points="1785.5,-1 1785.5,-35 1910.5,-35 1910.5,-1 1785.5,-1"/>
<text text-anchor="start" x="1793.5" y="-22" font-family="Helvetica,sans-Serif" font-size="10.00">mars/interfaces/sim</text>
<text text-anchor="middle" x="1848" y="-9" font-family="Helvetica,sans-Serif" font-size="10.00">/JointManagerInterface.h</text>
</g>
<!-- Node23&#45;&gt;Node24 -->
<g id="edge64" class="edge"><title>Node23&#45;&gt;Node24</title>
<path fill="none" stroke="midnightblue" d="M1873.05,-72.2666C1869.55,-64.6943 1864.71,-54.2045 1860.21,-44.4644"/>
<polygon fill="midnightblue" stroke="midnightblue" points="1863.27,-42.7227 1855.9,-35.1099 1856.91,-45.6562 1863.27,-42.7227"/>
</g>
<!-- Node25&#45;&gt;Node8 -->
<g id="edge74" class="edge"><title>Node25&#45;&gt;Node8</title>
<path fill="none" stroke="midnightblue" d="M2036.28,-72.2666C2025.32,-62.2334 2008.76,-47.078 1995.93,-35.3311"/>
<polygon fill="midnightblue" stroke="midnightblue" points="1998.25,-32.7047 1988.51,-28.5337 1993.52,-37.8678 1998.25,-32.7047"/>
</g>
<!-- Node25&#45;&gt;Node14 -->
<g id="edge70" class="edge"><title>Node25&#45;&gt;Node14</title>
<path fill="none" stroke="midnightblue" d="M2004.5,-77.0949C1952.69,-69.7012 1863.41,-55.8212 1778.41,-36.2029"/>
<polygon fill="midnightblue" stroke="midnightblue" points="1779.14,-32.7788 1768.6,-33.9091 1777.54,-39.5948 1779.14,-32.7788"/>
</g>
<!-- Node26 -->
<g id="node62" class="node"><title>Node26</title>
<polygon fill="white" stroke="#bfbfbf" points="2044,-1 2044,-35 2172,-35 2172,-1 2044,-1"/>
<text text-anchor="start" x="2052" y="-22" font-family="Helvetica,sans-Serif" font-size="10.00">mars/interfaces/sim</text>
<text text-anchor="middle" x="2108" y="-9" font-family="Helvetica,sans-Serif" font-size="10.00">/MotorManagerInterface.h</text>
</g>
<!-- Node25&#45;&gt;Node26 -->
<g id="edge72" class="edge"><title>Node25&#45;&gt;Node26</title>
<path fill="none" stroke="midnightblue" d="M2057.91,-72.2666C2065.33,-64.2211 2075.8,-52.8819 2085.25,-42.6477"/>
<polygon fill="midnightblue" stroke="midnightblue" points="2088,-44.8319 2092.21,-35.1099 2082.85,-40.0839 2088,-44.8319"/>
</g>
<!-- Node27&#45;&gt;Node8 -->
<g id="edge82" class="edge"><title>Node27&#45;&gt;Node8</title>
<path fill="none" stroke="midnightblue" d="M2126.01,-72.412C2096.01,-61.458 2048.99,-44.2878 2015.8,-32.1696"/>
<polygon fill="midnightblue" stroke="midnightblue" points="2016.58,-28.726 2005.98,-28.5835 2014.18,-35.3014 2016.58,-28.726"/>
</g>
<!-- Node27&#45;&gt;Node14 -->
<g id="edge80" class="edge"><title>Node27&#45;&gt;Node14</title>
<path fill="none" stroke="midnightblue" d="M2108.24,-73.3625C2105.46,-72.8775 2102.69,-72.4188 2100,-72 1960.48,-50.3136 1920.32,-64.2128 1778.5,-36.1163"/>
<polygon fill="midnightblue" stroke="midnightblue" points="1779.05,-32.6579 1768.56,-34.1121 1777.67,-39.5198 1779.05,-32.6579"/>
</g>
<!-- Node28 -->
<g id="node67" class="node"><title>Node28</title>
<polygon fill="white" stroke="#bfbfbf" points="2190,-1 2190,-35 2324,-35 2324,-1 2190,-1"/>
<text text-anchor="start" x="2198" y="-22" font-family="Helvetica,sans-Serif" font-size="10.00">mars/interfaces/sim</text>
<text text-anchor="middle" x="2257" y="-9" font-family="Helvetica,sans-Serif" font-size="10.00">/SensorManagerInterface.h</text>
</g>
<!-- Node27&#45;&gt;Node28 -->
<g id="edge78" class="edge"><title>Node27&#45;&gt;Node28</title>
<path fill="none" stroke="midnightblue" d="M2171.84,-72.2666C2185.33,-63.6689 2204.73,-51.3101 2221.6,-40.5577"/>
<polygon fill="midnightblue" stroke="midnightblue" points="2223.6,-43.4356 2230.15,-35.1099 2219.84,-37.5324 2223.6,-43.4356"/>
</g>
<!-- Node29 -->
<g id="node71" class="node"><title>Node29</title>
<polygon fill="white" stroke="#bfbfbf" points="2342,-7.5 2342,-28.5 2470,-28.5 2470,-7.5 2342,-7.5"/>
<text text-anchor="middle" x="2406" y="-15.5" font-family="Helvetica,sans-Serif" font-size="10.00">configmaps/ConfigData.h</text>
</g>
<!-- Node27&#45;&gt;Node29 -->
<g id="edge84" class="edge"><title>Node27&#45;&gt;Node29</title>
<path fill="none" stroke="midnightblue" d="M2195.61,-72.4844C2239.26,-61.1799 2308.71,-43.195 2355.77,-31.0085"/>
<polygon fill="midnightblue" stroke="midnightblue" points="2356.65,-34.3958 2365.45,-28.5005 2354.89,-27.6193 2356.65,-34.3958"/>
</g>
<!-- Node30&#45;&gt;Node8 -->
<g id="edge106" class="edge"><title>Node30&#45;&gt;Node8</title>
<path fill="none" stroke="midnightblue" d="M1862.79,-209.419C1880.96,-200.26 1905.45,-185.428 1921,-166 1952.04,-127.226 1967.17,-69.4009 1973.38,-38.7735"/>
<polygon fill="midnightblue" stroke="midnightblue" points="1976.84,-39.284 1975.27,-28.806 1969.97,-37.9753 1976.84,-39.284"/>
</g>
<!-- Node30&#45;&gt;Node14 -->
<g id="edge102" class="edge"><title>Node30&#45;&gt;Node14</title>
<path fill="none" stroke="midnightblue" d="M1789.28,-209.41C1776.8,-206.868 1763.43,-204.243 1751,-202 1700.09,-192.814 1554.63,-205.308 1521,-166 1510.6,-153.843 1512.97,-143.839 1521,-130 1537.38,-101.78 1615.36,-62.8902 1667.89,-39.1476"/>
<polygon fill="midnightblue" stroke="midnightblue" points="1669.36,-42.3232 1677.06,-35.0403 1666.5,-35.9351 1669.36,-42.3232"/>
</g>
<!-- Node30&#45;&gt;Node31 -->
<g id="edge88" class="edge"><title>Node30&#45;&gt;Node31</title>
<path fill="none" stroke="midnightblue" d="M1790.23,-209.43C1777.49,-206.833 1763.76,-204.176 1751,-202 1634.7,-182.168 1604.23,-186.234 1488,-166 1474.5,-163.65 1459.88,-160.701 1446.63,-157.874"/>
<polygon fill="midnightblue" stroke="midnightblue" points="1447.32,-154.443 1436.81,-155.748 1445.84,-161.285 1447.32,-154.443"/>
</g>
<!-- Node33 -->
<g id="node85" class="node"><title>Node33</title>
<polygon fill="white" stroke="#bfbfbf" points="1766,-131 1766,-165 1912,-165 1912,-131 1766,-131"/>
<text text-anchor="start" x="1774" y="-152" font-family="Helvetica,sans-Serif" font-size="10.00">mars/interfaces/sim</text>
<text text-anchor="middle" x="1839" y="-139" font-family="Helvetica,sans-Serif" font-size="10.00">/ControllerManagerInterface.h</text>
</g>
<!-- Node30&#45;&gt;Node33 -->
<g id="edge104" class="edge"><title>Node30&#45;&gt;Node33</title>
<path fill="none" stroke="midnightblue" d="M1839,-209.376C1839,-200.451 1839,-187.293 1839,-175.446"/>
<polygon fill="midnightblue" stroke="midnightblue" points="1842.5,-175.094 1839,-165.094 1835.5,-175.094 1842.5,-175.094"/>
</g>
<!-- Node31&#45;&gt;Node7 -->
<g id="edge100" class="edge"><title>Node31&#45;&gt;Node7</title>
<path fill="none" stroke="midnightblue" d="M1369.4,-147.671C1220.24,-145.673 603.513,-131.734 109,-36 102.79,-34.7978 96.3053,-33.1923 90.0027,-31.4334"/>
<polygon fill="midnightblue" stroke="midnightblue" points="90.8961,-28.0479 80.3146,-28.5793 88.9179,-34.7626 90.8961,-28.0479"/>
</g>
<!-- Node31&#45;&gt;Node14 -->
<g id="edge98" class="edge"><title>Node31&#45;&gt;Node14</title>
<path fill="none" stroke="midnightblue" d="M1416.76,-137.425C1438.45,-121.218 1482.41,-90.2031 1524,-72 1577.25,-48.6918 1596.18,-52.3331 1655.45,-36.3441"/>
<polygon fill="midnightblue" stroke="midnightblue" points="1656.62,-39.6515 1665.32,-33.6023 1654.74,-32.9069 1656.62,-39.6515"/>
</g>
<!-- Node32 -->
<g id="node77" class="node"><title>Node32</title>
<a xlink:href="../../d6/de5/_sim_motor_8h.html" target="_top" xlink:title="SimMotor.h">
<polygon fill="white" stroke="red" points="1115.5,-72.5 1115.5,-93.5 1182.5,-93.5 1182.5,-72.5 1115.5,-72.5"/>
<text text-anchor="middle" x="1149" y="-80.5" font-family="Helvetica,sans-Serif" font-size="10.00">SimMotor.h</text>
</a>
</g>
<!-- Node31&#45;&gt;Node32 -->
<g id="edge90" class="edge"><title>Node31&#45;&gt;Node32</title>
<path fill="none" stroke="midnightblue" d="M1377.37,-137.427C1370.5,-134.801 1363.02,-132.13 1356,-130 1300.45,-113.151 1234.89,-99.2427 1192.67,-91.0351"/>
<polygon fill="midnightblue" stroke="midnightblue" points="1193.21,-87.5734 1182.73,-89.1227 1191.89,-94.4476 1193.21,-87.5734"/>
</g>
<!-- Node32&#45;&gt;Node4 -->
<g id="edge94" class="edge"><title>Node32&#45;&gt;Node4</title>
<path fill="none" stroke="midnightblue" d="M1115.46,-73.2688C1077.08,-62.1305 1013.99,-43.822 971.022,-31.3547"/>
<polygon fill="midnightblue" stroke="midnightblue" points="971.949,-27.9793 961.37,-28.5538 969.998,-34.702 971.949,-27.9793"/>
</g>
<!-- Node32&#45;&gt;Node5 -->
<g id="edge92" class="edge"><title>Node32&#45;&gt;Node5</title>
<path fill="none" stroke="midnightblue" d="M1151.31,-72.2666C1152.91,-64.8521 1155.11,-54.6403 1157.17,-45.0741"/>
<polygon fill="midnightblue" stroke="midnightblue" points="1160.63,-45.6226 1159.31,-35.1099 1153.79,-44.1487 1160.63,-45.6226"/>
</g>
<!-- Node32&#45;&gt;Node16 -->
<g id="edge96" class="edge"><title>Node32&#45;&gt;Node16</title>
<path fill="none" stroke="midnightblue" d="M1132.82,-72.2666C1117.26,-61.9494 1093.54,-46.216 1075.64,-34.3421"/>
<polygon fill="midnightblue" stroke="midnightblue" points="1077.15,-31.1444 1066.88,-28.5337 1073.28,-36.9779 1077.15,-31.1444"/>
</g>
<!-- Node34&#45;&gt;Node8 -->
<g id="edge118" class="edge"><title>Node34&#45;&gt;Node8</title>
<path fill="none" stroke="midnightblue" d="M2361.89,-79.9214C2291.95,-74.48 2151.59,-61.2734 2035,-36 2029.19,-34.7408 2023.13,-33.1633 2017.2,-31.4688"/>
<polygon fill="midnightblue" stroke="midnightblue" points="2018.02,-28.0595 2007.44,-28.542 2016.01,-34.765 2018.02,-28.0595"/>
</g>
<!-- Node34&#45;&gt;Node14 -->
<g id="edge112" class="edge"><title>Node34&#45;&gt;Node14</title>
<path fill="none" stroke="midnightblue" d="M2361.7,-80.2481C2233.6,-72.2153 1866.69,-48.6579 1778.49,-35.854"/>
<polygon fill="midnightblue" stroke="midnightblue" points="1778.97,-32.3867 1768.54,-34.2345 1777.84,-39.2958 1778.97,-32.3867"/>
</g>
<!-- Node34&#45;&gt;Node29 -->
<g id="edge120" class="edge"><title>Node34&#45;&gt;Node29</title>
<path fill="none" stroke="midnightblue" d="M2406,-72.2666C2406,-63.1799 2406,-49.8919 2406,-38.7395"/>
<polygon fill="midnightblue" stroke="midnightblue" points="2409.5,-38.5337 2406,-28.5337 2402.5,-38.5337 2409.5,-38.5337"/>
</g>
<!-- Node35 -->
<g id="node90" class="node"><title>Node35</title>
<polygon fill="white" stroke="#bfbfbf" points="2487.5,-7.5 2487.5,-28.5 2522.5,-28.5 2522.5,-7.5 2487.5,-7.5"/>
<text text-anchor="middle" x="2505" y="-15.5" font-family="Helvetica,sans-Serif" font-size="10.00">map</text>
</g>
<!-- Node34&#45;&gt;Node35 -->
<g id="edge110" class="edge"><title>Node34&#45;&gt;Node35</title>
<path fill="none" stroke="midnightblue" d="M2422.92,-72.3317C2437.78,-62.9075 2459.95,-48.7238 2479,-36 2479.78,-35.4798 2480.57,-34.9489 2481.37,-34.4112"/>
<polygon fill="midnightblue" stroke="midnightblue" points="2483.65,-37.0878 2489.94,-28.556 2479.7,-31.3083 2483.65,-37.0878"/>
</g>
<!-- Node36 -->
<g id="node93" class="node"><title>Node36</title>
<polygon fill="white" stroke="#bfbfbf" points="2540,-1 2540,-35 2664,-35 2664,-1 2540,-1"/>
<text text-anchor="start" x="2548" y="-22" font-family="Helvetica,sans-Serif" font-size="10.00">mars/interfaces/graphics</text>
<text text-anchor="middle" x="2602" y="-9" font-family="Helvetica,sans-Serif" font-size="10.00">/GraphicsEventClient.h</text>
</g>
<!-- Node34&#45;&gt;Node36 -->
<g id="edge114" class="edge"><title>Node34&#45;&gt;Node36</title>
<path fill="none" stroke="midnightblue" d="M2437.93,-72.412C2465.67,-63.2116 2506.64,-49.6259 2540.69,-38.3316"/>
<polygon fill="midnightblue" stroke="midnightblue" points="2542.17,-41.5303 2550.56,-35.0604 2539.96,-34.8861 2542.17,-41.5303"/>
</g>
<!-- Node37 -->
<g id="node95" class="node"><title>Node37</title>
<polygon fill="white" stroke="#bfbfbf" points="2681.5,-1 2681.5,-35 2810.5,-35 2810.5,-1 2681.5,-1"/>
<text text-anchor="start" x="2689.5" y="-22" font-family="Helvetica,sans-Serif" font-size="10.00">mars/interfaces/sim</text>
<text text-anchor="middle" x="2746" y="-9" font-family="Helvetica,sans-Serif" font-size="10.00">/EntityManagerInterface.h</text>
</g>
<!-- Node34&#45;&gt;Node37 -->
<g id="edge116" class="edge"><title>Node34&#45;&gt;Node37</title>
<path fill="none" stroke="midnightblue" d="M2450.11,-76.1709C2501.18,-68.0586 2588.01,-53.6271 2671.3,-36.2974"/>
<polygon fill="midnightblue" stroke="midnightblue" points="2672.11,-39.7045 2681.17,-34.2255 2670.67,-32.8537 2672.11,-39.7045"/>
</g>
</g>
</svg>
