<?xml version="1.0" encoding="UTF-8" standalone="no"?>
<!DOCTYPE svg PUBLIC "-//W3C//DTD SVG 1.1//EN"
 "http://www.w3.org/Graphics/SVG/1.1/DTD/svg11.dtd">
<!-- Generated by graphviz version 2.36.0 (20140111.2315)
 -->
<!-- Title: mars::plugins::SelectionTree Pages: 1 -->
<svg width="306pt" height="164pt"
 viewBox="0.00 0.00 306.00 164.00" xmlns="http://www.w3.org/2000/svg" xmlns:xlink="http://www.w3.org/1999/xlink">
<g id="graph0" class="graph" transform="scale(1 1) rotate(0) translate(4 160)">
<title>mars::plugins::SelectionTree</title>
<polygon fill="white" stroke="none" points="-4,4 -4,-160 302,-160 302,4 -4,4"/>
<!-- Node1 -->
<g id="node1" class="node"><title>Node1</title>
<polygon fill="#bfbfbf" stroke="black" points="83.5,-0.5 83.5,-19.5 224.5,-19.5 224.5,-0.5 83.5,-0.5"/>
<text text-anchor="middle" x="154" y="-7.5" font-family="Helvetica,sans-Serif" font-size="10.00">mars::plugins::SelectionTree</text>
</g>
<!-- Node2 -->
<g id="node2" class="node"><title>Node2</title>
<g id="a_node2"><a xlink:href="../../d4/dcf/classmars_1_1main__gui_1_1_base_widget.html" target="_top" xlink:title="mars::main_gui::BaseWidget">
<polygon fill="white" stroke="black" points="4.5,-62.5 4.5,-81.5 147.5,-81.5 147.5,-62.5 4.5,-62.5"/>
<text text-anchor="middle" x="76" y="-69.5" font-family="Helvetica,sans-Serif" font-size="10.00">mars::main_gui::BaseWidget</text>
</a>
</g>
</g>
<!-- Node2&#45;&gt;Node1 -->
<g id="edge1" class="edge"><title>Node2&#45;&gt;Node1</title>
<path fill="none" stroke="midnightblue" d="M95.2788,-56.1702C110.241,-44.6608 130.459,-29.1086 142.845,-19.5806"/>
<polygon fill="midnightblue" stroke="midnightblue" points="92.9678,-53.5321 87.1755,-62.4035 97.2358,-59.0805 92.9678,-53.5321"/>
</g>
<!-- Node3 -->
<g id="node3" class="node"><title>Node3</title>
<polygon fill="white" stroke="#bfbfbf" points="-0.5,-130.5 -0.5,-149.5 54.5,-149.5 54.5,-130.5 -0.5,-130.5"/>
<text text-anchor="middle" x="27" y="-137.5" font-family="Helvetica,sans-Serif" font-size="10.00">QWidget</text>
</g>
<!-- Node3&#45;&gt;Node2 -->
<g id="edge2" class="edge"><title>Node3&#45;&gt;Node2</title>
<path fill="none" stroke="midnightblue" d="M39.391,-122.31C48.9433,-109.444 61.7764,-92.1583 69.4361,-81.8411"/>
<polygon fill="midnightblue" stroke="midnightblue" points="36.5567,-120.256 33.4059,-130.372 42.1771,-124.429 36.5567,-120.256"/>
</g>
<!-- Node4 -->
<g id="node4" class="node"><title>Node4</title>
<g id="a_node4"><a xlink:href="../../d4/d1a/classmars_1_1cfg__manager_1_1_c_f_g_client.html" target="_top" xlink:title="mars::cfg_manager::\lCFGClient">
<polygon fill="white" stroke="black" points="72.5,-125 72.5,-155 179.5,-155 179.5,-125 72.5,-125"/>
<text text-anchor="start" x="80.5" y="-143" font-family="Helvetica,sans-Serif" font-size="10.00">mars::cfg_manager::</text>
<text text-anchor="middle" x="126" y="-132" font-family="Helvetica,sans-Serif" font-size="10.00">CFGClient</text>
</a>
</g>
</g>
<!-- Node4&#45;&gt;Node2 -->
<g id="edge3" class="edge"><title>Node4&#45;&gt;Node2</title>
<path fill="none" stroke="midnightblue" d="M108.936,-116.475C99.9214,-104.576 89.3714,-90.6503 82.6881,-81.8283"/>
<polygon fill="midnightblue" stroke="midnightblue" points="106.322,-118.822 115.151,-124.679 111.902,-114.595 106.322,-118.822"/>
</g>
<!-- Node5 -->
<g id="node5" class="node"><title>Node5</title>
<g id="a_node5"><a xlink:href="../../d8/d0b/classmars_1_1interfaces_1_1_graphics_event_client.html" target="_top" xlink:title="mars::interfaces::Graphics\lEventClient">
<polygon fill="white" stroke="black" points="166,-57 166,-87 298,-87 298,-57 166,-57"/>
<text text-anchor="start" x="174" y="-75" font-family="Helvetica,sans-Serif" font-size="10.00">mars::interfaces::Graphics</text>
<text text-anchor="middle" x="232" y="-64" font-family="Helvetica,sans-Serif" font-size="10.00">EventClient</text>
</a>
</g>
</g>
<!-- Node5&#45;&gt;Node1 -->
<g id="edge4" class="edge"><title>Node5&#45;&gt;Node1</title>
<path fill="none" stroke="midnightblue" d="M205.373,-50.5179C191.718,-40.0137 175.804,-27.7727 165.35,-19.7305"/>
<polygon fill="midnightblue" stroke="midnightblue" points="203.455,-53.4579 213.515,-56.7808 207.723,-47.9095 203.455,-53.4579"/>
</g>
</g>
</svg>
