<?xml version="1.0" encoding="UTF-8" standalone="no"?>
<!DOCTYPE svg PUBLIC "-//W3C//DTD SVG 1.1//EN"
 "http://www.w3.org/Graphics/SVG/1.1/DTD/svg11.dtd">
<!-- Generated by graphviz version 2.26.3 (20100126.1600)
 -->
<!-- Title: /home/kavonszadkowski/limes&#45;dev/simulation/mars/gui/src/NodeHandler.h Pages: 1 -->
<svg width="1008pt" height="200pt"
 viewBox="0.00 0.00 1008.00 200.00" xmlns="http://www.w3.org/2000/svg" xmlns:xlink="http://www.w3.org/1999/xlink">
<g id="graph1" class="graph" transform="scale(1 1) rotate(0) translate(4 196)">
<title>/home/kavonszadkowski/limes&#45;dev/simulation/mars/gui/src/NodeHandler.h</title>
<polygon fill="white" stroke="white" points="-4,5 -4,-196 1005,-196 1005,5 -4,5"/>
<!-- Node1 -->
<g id="node1" class="node"><title>Node1</title>
<polygon fill="#bfbfbf" stroke="black" points="365,-144.5 365,-191.5 507,-191.5 507,-144.5 365,-144.5"/>
<text text-anchor="start" x="373" y="-178.5" font-family="Helvetica,sans-Serif" font-size="10.00">/home/kavonszadkowski</text>
<text text-anchor="start" x="373" y="-165.5" font-family="Helvetica,sans-Serif" font-size="10.00">/limes&#45;dev/simulation</text>
<text text-anchor="middle" x="436" y="-152.5" font-family="Helvetica,sans-Serif" font-size="10.00">/mars/gui/src/NodeHandler.h</text>
</g>
<!-- Node2 -->
<g id="node3" class="node"><title>Node2</title>
<polygon fill="white" stroke="#bfbfbf" points="140,-7.5 140,-28.5 296,-28.5 296,-7.5 140,-7.5"/>
<text text-anchor="middle" x="218" y="-15.5" font-family="Helvetica,sans-Serif" font-size="10.00">mars/main_gui/PropertyDialog.h</text>
</g>
<!-- Node1&#45;&gt;Node2 -->
<g id="edge2" class="edge"><title>Node1&#45;&gt;Node2</title>
<path fill="none" stroke="midnightblue" d="M373.832,-144.437C351.785,-134.723 327.402,-122.356 307,-108 298.973,-102.352 258.801,-60.7508 235.262,-36.1315"/>
<polygon fill="midnightblue" stroke="midnightblue" points="237.702,-33.619 228.265,-28.802 232.638,-38.4523 237.702,-33.619"/>
</g>
<!-- Node3 -->
<g id="node5" class="node"><title>Node3</title>
<polygon fill="white" stroke="#bfbfbf" points="447.5,-73 447.5,-107 550.5,-107 550.5,-73 447.5,-73"/>
<text text-anchor="start" x="455.5" y="-94" font-family="Helvetica,sans-Serif" font-size="10.00">mars/interfaces/sim</text>
<text text-anchor="middle" x="499" y="-81" font-family="Helvetica,sans-Serif" font-size="10.00">/ControlCenter.h</text>
</g>
<!-- Node1&#45;&gt;Node3 -->
<g id="edge4" class="edge"><title>Node1&#45;&gt;Node3</title>
<path fill="none" stroke="midnightblue" d="M455.244,-144.174C462.745,-134.887 471.344,-124.241 478.923,-114.858"/>
<polygon fill="midnightblue" stroke="midnightblue" points="481.706,-116.982 485.267,-107.003 476.261,-112.583 481.706,-116.982"/>
</g>
<!-- Node4 -->
<g id="node7" class="node"><title>Node4</title>
<polygon fill="white" stroke="#bfbfbf" points="567.5,-79.5 567.5,-100.5 716.5,-100.5 716.5,-79.5 567.5,-79.5"/>
<text text-anchor="middle" x="642" y="-87.5" font-family="Helvetica,sans-Serif" font-size="10.00">mars/interfaces/terrainStruct.h</text>
</g>
<!-- Node1&#45;&gt;Node4 -->
<g id="edge6" class="edge"><title>Node1&#45;&gt;Node4</title>
<path fill="none" stroke="midnightblue" d="M498.086,-144.492C532.784,-131.354 574.879,-115.415 604.553,-104.179"/>
<polygon fill="midnightblue" stroke="midnightblue" points="605.999,-107.374 614.112,-100.56 603.52,-100.828 605.999,-107.374"/>
</g>
<!-- Node5 -->
<g id="node9" class="node"><title>Node5</title>
<polygon fill="white" stroke="#bfbfbf" points="733.5,-73 733.5,-107 842.5,-107 842.5,-73 733.5,-73"/>
<text text-anchor="start" x="741.5" y="-94" font-family="Helvetica,sans-Serif" font-size="10.00">mars/interfaces/core</text>
<text text-anchor="middle" x="788" y="-81" font-family="Helvetica,sans-Serif" font-size="10.00">_objects_exchange.h</text>
</g>
<!-- Node1&#45;&gt;Node5 -->
<g id="edge8" class="edge"><title>Node1&#45;&gt;Node5</title>
<path fill="none" stroke="midnightblue" d="M507.293,-154.716C563.58,-143.879 644.288,-127.574 723.303,-108.341"/>
<polygon fill="midnightblue" stroke="midnightblue" points="724.551,-111.638 733.43,-105.857 722.884,-104.84 724.551,-111.638"/>
</g>
<!-- Node6 -->
<g id="node11" class="node"><title>Node6</title>
<polygon fill="white" stroke="#bfbfbf" points="860,-79.5 860,-100.5 1000,-100.5 1000,-79.5 860,-79.5"/>
<text text-anchor="middle" x="930" y="-87.5" font-family="Helvetica,sans-Serif" font-size="10.00">mars/interfaces/NodeData.h</text>
</g>
<!-- Node1&#45;&gt;Node6 -->
<g id="edge10" class="edge"><title>Node1&#45;&gt;Node6</title>
<path fill="none" stroke="midnightblue" d="M507.147,-159.483C590.029,-149.151 730.939,-130.32 851,-108 859.35,-106.448 868.155,-104.627 876.737,-102.749"/>
<polygon fill="midnightblue" stroke="midnightblue" points="877.67,-106.127 886.667,-100.533 876.145,-99.2955 877.67,-106.127"/>
</g>
<!-- Node7 -->
<g id="node13" class="node"><title>Node7</title>
<a xlink:href="../../d2/da5/_dialog___create___material_8h.html" target="_top" xlink:title="Dialog_Create_Material.h">
<polygon fill="white" stroke="black" points="1.5,-79.5 1.5,-100.5 128.5,-100.5 128.5,-79.5 1.5,-79.5"/>
<text text-anchor="middle" x="65" y="-87.5" font-family="Helvetica,sans-Serif" font-size="10.00">Dialog_Create_Material.h</text>
</a>
</g>
<!-- Node1&#45;&gt;Node7 -->
<g id="edge12" class="edge"><title>Node1&#45;&gt;Node7</title>
<path fill="none" stroke="midnightblue" d="M364.816,-154.69C304.112,-143.107 214.606,-125.477 137,-108 130,-106.424 122.639,-104.681 115.404,-102.92"/>
<polygon fill="midnightblue" stroke="midnightblue" points="116.21,-99.5139 105.663,-100.52 114.536,-106.311 116.21,-99.5139"/>
</g>
<!-- Node9 -->
<g id="node18" class="node"><title>Node9</title>
<a xlink:href="../../db/d60/_dialog___edit___material_8h.html" target="_top" xlink:title="Dialog_Edit_Material.h">
<polygon fill="white" stroke="black" points="145.5,-79.5 145.5,-100.5 260.5,-100.5 260.5,-79.5 145.5,-79.5"/>
<text text-anchor="middle" x="203" y="-87.5" font-family="Helvetica,sans-Serif" font-size="10.00">Dialog_Edit_Material.h</text>
</a>
</g>
<!-- Node1&#45;&gt;Node9 -->
<g id="edge18" class="edge"><title>Node1&#45;&gt;Node9</title>
<path fill="none" stroke="midnightblue" d="M365.776,-144.492C326.019,-131.182 277.675,-114.999 244.049,-103.742"/>
<polygon fill="midnightblue" stroke="midnightblue" points="245.137,-100.415 234.544,-100.56 242.915,-107.053 245.137,-100.415"/>
</g>
<!-- Node10 -->
<g id="node22" class="node"><title>Node10</title>
<a xlink:href="../../d6/d5e/_widget___node___options___o_d_e_8h.html" target="_top" xlink:title="Widget_Node_Options\l_ODE.h">
<polygon fill="white" stroke="black" points="315.5,-73 315.5,-107 430.5,-107 430.5,-73 315.5,-73"/>
<text text-anchor="start" x="323.5" y="-94" font-family="Helvetica,sans-Serif" font-size="10.00">Widget_Node_Options</text>
<text text-anchor="middle" x="373" y="-81" font-family="Helvetica,sans-Serif" font-size="10.00">_ODE.h</text>
</a>
</g>
<!-- Node1&#45;&gt;Node10 -->
<g id="edge24" class="edge"><title>Node1&#45;&gt;Node10</title>
<path fill="none" stroke="midnightblue" d="M416.756,-144.174C409.255,-134.887 400.656,-124.241 393.077,-114.858"/>
<polygon fill="midnightblue" stroke="midnightblue" points="395.739,-112.583 386.733,-107.003 390.294,-116.982 395.739,-112.583"/>
</g>
<!-- Node7&#45;&gt;Node2 -->
<g id="edge16" class="edge"><title>Node7&#45;&gt;Node2</title>
<path fill="none" stroke="midnightblue" d="M87.5757,-79.3762C113.565,-67.1459 156.449,-46.9654 185.902,-33.105"/>
<polygon fill="midnightblue" stroke="midnightblue" points="187.774,-36.0923 195.332,-28.6674 184.793,-29.7586 187.774,-36.0923"/>
</g>
<!-- Node8 -->
<g id="node15" class="node"><title>Node8</title>
<polygon fill="white" stroke="#bfbfbf" points="0,-1 0,-35 122,-35 122,-1 0,-1"/>
<text text-anchor="start" x="8" y="-22" font-family="Helvetica,sans-Serif" font-size="10.00">mars/interfaces/Material</text>
<text text-anchor="middle" x="61" y="-9" font-family="Helvetica,sans-Serif" font-size="10.00">Data.h</text>
</g>
<!-- Node7&#45;&gt;Node8 -->
<g id="edge14" class="edge"><title>Node7&#45;&gt;Node8</title>
<path fill="none" stroke="midnightblue" d="M64.4098,-79.3762C63.9089,-70.3602 63.168,-57.0239 62.5047,-45.0839"/>
<polygon fill="midnightblue" stroke="midnightblue" points="65.9991,-44.8848 61.9497,-35.0944 59.0099,-45.2732 65.9991,-44.8848"/>
</g>
<!-- Node9&#45;&gt;Node2 -->
<g id="edge22" class="edge"><title>Node9&#45;&gt;Node2</title>
<path fill="none" stroke="midnightblue" d="M205.213,-79.3762C207.429,-68.7412 210.897,-52.0946 213.663,-38.8195"/>
<polygon fill="midnightblue" stroke="midnightblue" points="217.164,-39.1711 215.778,-28.6674 210.312,-37.7434 217.164,-39.1711"/>
</g>
<!-- Node9&#45;&gt;Node8 -->
<g id="edge20" class="edge"><title>Node9&#45;&gt;Node8</title>
<path fill="none" stroke="midnightblue" d="M182.047,-79.3762C161.572,-68.9942 129.798,-52.8833 103.941,-39.7727"/>
<polygon fill="midnightblue" stroke="midnightblue" points="105.216,-36.4951 94.7139,-35.0944 102.05,-42.7384 105.216,-36.4951"/>
</g>
<!-- Node10&#45;&gt;Node2 -->
<g id="edge26" class="edge"><title>Node10&#45;&gt;Node2</title>
<path fill="none" stroke="midnightblue" d="M336.267,-72.937C310.071,-60.7686 275.188,-44.5649 250.104,-32.913"/>
<polygon fill="midnightblue" stroke="midnightblue" points="251.553,-29.7267 241.009,-28.688 248.604,-36.0752 251.553,-29.7267"/>
</g>
<!-- Node11 -->
<g id="node25" class="node"><title>Node11</title>
<polygon fill="white" stroke="#bfbfbf" points="313.5,-1 313.5,-35 432.5,-35 432.5,-1 313.5,-1"/>
<text text-anchor="start" x="321.5" y="-22" font-family="Helvetica,sans-Serif" font-size="10.00">mars/interfaces/contact</text>
<text text-anchor="middle" x="373" y="-9" font-family="Helvetica,sans-Serif" font-size="10.00">_params.h</text>
</g>
<!-- Node10&#45;&gt;Node11 -->
<g id="edge28" class="edge"><title>Node10&#45;&gt;Node11</title>
<path fill="none" stroke="midnightblue" d="M373,-72.937C373,-64.8072 373,-54.8761 373,-45.7047"/>
<polygon fill="midnightblue" stroke="midnightblue" points="376.5,-45.4406 373,-35.4407 369.5,-45.4407 376.5,-45.4406"/>
</g>
<!-- Node12 -->
<g id="node27" class="node"><title>Node12</title>
<polygon fill="white" stroke="#bfbfbf" points="449.5,-1 449.5,-35 552.5,-35 552.5,-1 449.5,-1"/>
<text text-anchor="start" x="457.5" y="-22" font-family="Helvetica,sans-Serif" font-size="10.00">mars/interfaces/sim</text>
<text text-anchor="middle" x="501" y="-9" font-family="Helvetica,sans-Serif" font-size="10.00">_common.h</text>
</g>
<!-- Node10&#45;&gt;Node12 -->
<g id="edge30" class="edge"><title>Node10&#45;&gt;Node12</title>
<path fill="none" stroke="midnightblue" d="M403.334,-72.937C420.742,-63.1451 442.795,-50.7402 461.539,-40.1968"/>
<polygon fill="midnightblue" stroke="midnightblue" points="463.44,-43.1432 470.44,-35.19 460.008,-37.0422 463.44,-43.1432"/>
</g>
<!-- Node13 -->
<g id="node29" class="node"><title>Node13</title>
<polygon fill="white" stroke="#bfbfbf" points="569.5,-7.5 569.5,-28.5 668.5,-28.5 668.5,-7.5 569.5,-7.5"/>
<text text-anchor="middle" x="619" y="-15.5" font-family="Helvetica,sans-Serif" font-size="10.00">mars/utils/Vector.h</text>
</g>
<!-- Node10&#45;&gt;Node13 -->
<g id="edge32" class="edge"><title>Node10&#45;&gt;Node13</title>
<path fill="none" stroke="midnightblue" d="M430.689,-73.7719C467.934,-63.2104 517.4,-49.0257 561,-36 565.679,-34.6023 570.562,-33.1212 575.424,-31.6326"/>
<polygon fill="midnightblue" stroke="midnightblue" points="576.774,-34.8794 585.3,-28.591 574.713,-28.1895 576.774,-34.8794"/>
</g>
</g>
</svg>
