<?xml version="1.0" encoding="UTF-8" standalone="no"?>
<!DOCTYPE svg PUBLIC "-//W3C//DTD SVG 1.1//EN"
 "http://www.w3.org/Graphics/SVG/1.1/DTD/svg11.dtd">
<!-- Generated by graphviz version 2.26.3 (20100126.1600)
 -->
<!-- Title: mars::interfaces::PluginInterface Pages: 1 -->
<svg width="506pt" height="1634pt"
 viewBox="0.00 0.00 506.00 1634.00" xmlns="http://www.w3.org/2000/svg" xmlns:xlink="http://www.w3.org/1999/xlink">
<g id="graph1" class="graph" transform="scale(1 1) rotate(0) translate(4 1630)">
<title>mars::interfaces::PluginInterface</title>
<polygon fill="white" stroke="white" points="-4,5 -4,-1630 503,-1630 503,5 -4,5"/>
<!-- Node1 -->
<g id="node1" class="node"><title>Node1</title>
<polygon fill="#bfbfbf" stroke="black" points="0,-555 0,-589 120,-589 120,-555 0,-555"/>
<text text-anchor="start" x="8" y="-576" font-family="Helvetica,sans-Serif" font-size="10.00">mars::interfaces::Plugin</text>
<text text-anchor="middle" x="60" y="-563" font-family="Helvetica,sans-Serif" font-size="10.00">Interface</text>
</g>
<!-- Node2 -->
<g id="node3" class="node"><title>Node2</title>
<a xlink:href="../../d6/df6/classmars_1_1interfaces_1_1_mars_plugin_template.html" target="_top" xlink:title="mars::interfaces::MarsPlugin\lTemplate">
<polygon fill="white" stroke="black" points="156,-914 156,-948 298,-948 298,-914 156,-914"/>
<text text-anchor="start" x="164" y="-935" font-family="Helvetica,sans-Serif" font-size="10.00">mars::interfaces::MarsPlugin</text>
<text text-anchor="middle" x="227" y="-922" font-family="Helvetica,sans-Serif" font-size="10.00">Template</text>
</a>
</g>
<!-- Node1&#45;&gt;Node2 -->
<g id="edge2" class="edge"><title>Node1&#45;&gt;Node2</title>
<path fill="none" stroke="midnightblue" d="M72.4543,-598.773C105.049,-668.842 192.195,-856.181 219.026,-913.858"/>
<polygon fill="midnightblue" stroke="midnightblue" points="75.4461,-596.906 68.0548,-589.315 69.0992,-599.859 75.4461,-596.906"/>
</g>
<!-- Node29 -->
<g id="node60" class="node"><title>Node29</title>
<a xlink:href="../../da/df1/classmars_1_1interfaces_1_1_mars_plugin_template_g_u_i.html" target="_top" xlink:title="mars::interfaces::MarsPlugin\lTemplateGUI">
<polygon fill="white" stroke="black" points="156,-170 156,-204 298,-204 298,-170 156,-170"/>
<text text-anchor="start" x="164" y="-191" font-family="Helvetica,sans-Serif" font-size="10.00">mars::interfaces::MarsPlugin</text>
<text text-anchor="middle" x="227" y="-178" font-family="Helvetica,sans-Serif" font-size="10.00">TemplateGUI</text>
</a>
</g>
<!-- Node1&#45;&gt;Node29 -->
<g id="edge62" class="edge"><title>Node1&#45;&gt;Node29</title>
<path fill="none" stroke="midnightblue" d="M71.5151,-545.453C103.531,-471.643 192.993,-265.399 219.505,-204.28"/>
<polygon fill="midnightblue" stroke="midnightblue" points="68.1598,-544.393 67.3913,-554.96 74.5817,-547.179 68.1598,-544.393"/>
</g>
<!-- Node3 -->
<g id="node5" class="node"><title>Node3</title>
<a xlink:href="../../de/d5f/classeo1__plugin_1_1_e_o1_plugin.html" target="_top" xlink:title="eo1_plugin::EO1Plugin">
<polygon fill="white" stroke="black" points="358,-1604.5 358,-1625.5 474,-1625.5 474,-1604.5 358,-1604.5"/>
<text text-anchor="middle" x="416" y="-1612.5" font-family="Helvetica,sans-Serif" font-size="10.00">eo1_plugin::EO1Plugin</text>
</a>
</g>
<!-- Node2&#45;&gt;Node3 -->
<g id="edge4" class="edge"><title>Node2&#45;&gt;Node3</title>
<path fill="none" stroke="midnightblue" d="M227.513,-958.197C230.197,-1070.9 246.12,-1499.84 334,-1595 340.462,-1602 348.929,-1606.73 357.966,-1609.9"/>
<polygon fill="midnightblue" stroke="midnightblue" points="231.008,-957.934 227.286,-948.014 224.009,-958.089 231.008,-957.934"/>
</g>
<!-- Node4 -->
<g id="node7" class="node"><title>Node4</title>
<a xlink:href="../../de/d47/classeo__billboards_1_1_e_o_billboards.html" target="_top" xlink:title="eo_billboards::EOBillboards">
<polygon fill="white" stroke="black" points="347.5,-1564.5 347.5,-1585.5 484.5,-1585.5 484.5,-1564.5 347.5,-1564.5"/>
<text text-anchor="middle" x="416" y="-1572.5" font-family="Helvetica,sans-Serif" font-size="10.00">eo_billboards::EOBillboards</text>
</a>
</g>
<!-- Node2&#45;&gt;Node4 -->
<g id="edge6" class="edge"><title>Node2&#45;&gt;Node4</title>
<path fill="none" stroke="midnightblue" d="M227.824,-958.305C231.662,-1066.87 251.273,-1466.32 334,-1555 337.798,-1559.07 342.276,-1562.38 347.147,-1565.05"/>
<polygon fill="midnightblue" stroke="midnightblue" points="231.318,-958.05 227.483,-948.174 224.322,-958.286 231.318,-958.05"/>
</g>
<!-- Node5 -->
<g id="node9" class="node"><title>Node5</title>
<a xlink:href="../../d4/d0e/classmars_1_1entity__generation_1_1_entity_factory_manager.html" target="_top" xlink:title="mars::entity_generation\l::EntityFactoryManager">
<polygon fill="white" stroke="black" points="356.5,-1512 356.5,-1546 475.5,-1546 475.5,-1512 356.5,-1512"/>
<text text-anchor="start" x="364.5" y="-1533" font-family="Helvetica,sans-Serif" font-size="10.00">mars::entity_generation</text>
<text text-anchor="middle" x="416" y="-1520" font-family="Helvetica,sans-Serif" font-size="10.00">::EntityFactoryManager</text>
</a>
</g>
<!-- Node2&#45;&gt;Node5 -->
<g id="edge8" class="edge"><title>Node2&#45;&gt;Node5</title>
<path fill="none" stroke="midnightblue" d="M228.464,-958.173C234.5,-1060.38 260.688,-1420.14 334,-1503 340.037,-1509.82 347.852,-1514.87 356.256,-1518.6"/>
<polygon fill="midnightblue" stroke="midnightblue" points="231.95,-957.835 227.883,-948.052 224.962,-958.236 231.95,-957.835"/>
</g>
<!-- Node6 -->
<g id="node11" class="node"><title>Node6</title>
<a xlink:href="../../da/da1/classmars_1_1plugins_1_1____namespace_____1_1____classname____.html" target="_top" xlink:title="mars::plugins::__namespace\l__::__classname__">
<polygon fill="white" stroke="black" points="345,-1460 345,-1494 487,-1494 487,-1460 345,-1460"/>
<text text-anchor="start" x="353" y="-1481" font-family="Helvetica,sans-Serif" font-size="10.00">mars::plugins::__namespace</text>
<text text-anchor="middle" x="416" y="-1468" font-family="Helvetica,sans-Serif" font-size="10.00">__::__classname__</text>
</a>
</g>
<!-- Node2&#45;&gt;Node6 -->
<g id="edge10" class="edge"><title>Node2&#45;&gt;Node6</title>
<path fill="none" stroke="midnightblue" d="M229.309,-958.091C237.432,-1053.16 267.838,-1368.56 334,-1442 341.397,-1450.21 351.37,-1455.85 361.811,-1459.93"/>
<polygon fill="midnightblue" stroke="midnightblue" points="232.795,-957.778 228.469,-948.107 225.82,-958.365 232.795,-957.778"/>
</g>
<!-- Node2&#45;&gt;Node6 -->
<g id="edge12" class="edge"><title>Node2&#45;&gt;Node6</title>
<path fill="none" stroke="midnightblue" d="M228.772,-958.39C236.018,-1056.16 266.279,-1384.83 334,-1460 337.199,-1463.55 340.879,-1466.62 344.871,-1469.25"/>
<polygon fill="midnightblue" stroke="midnightblue" points="232.243,-957.865 228.036,-948.142 225.261,-958.367 232.243,-957.865"/>
</g>
<!-- Node7 -->
<g id="node14" class="node"><title>Node7</title>
<a xlink:href="../../d2/d1c/classmars_1_1plugins_1_1cartest_1_1_cartest.html" target="_top" xlink:title="mars::plugins::cartest\l::Cartest">
<polygon fill="white" stroke="black" points="360.5,-1408 360.5,-1442 471.5,-1442 471.5,-1408 360.5,-1408"/>
<text text-anchor="start" x="368.5" y="-1429" font-family="Helvetica,sans-Serif" font-size="10.00">mars::plugins::cartest</text>
<text text-anchor="middle" x="416" y="-1416" font-family="Helvetica,sans-Serif" font-size="10.00">::Cartest</text>
</a>
</g>
<!-- Node2&#45;&gt;Node7 -->
<g id="edge14" class="edge"><title>Node2&#45;&gt;Node7</title>
<path fill="none" stroke="midnightblue" d="M229.711,-958.358C239.154,-1048.34 273.363,-1333.16 334,-1399 341.082,-1406.69 350.422,-1412.12 360.256,-1415.95"/>
<polygon fill="midnightblue" stroke="midnightblue" points="233.166,-957.733 228.659,-948.145 226.203,-958.451 233.166,-957.733"/>
</g>
<!-- Node8 -->
<g id="node16" class="node"><title>Node8</title>
<a xlink:href="../../d7/d44/classmars_1_1plugins_1_1circle__drawing_1_1_circle_drawing.html" target="_top" xlink:title="mars::plugins::circle\l_drawing::CircleDrawing">
<polygon fill="white" stroke="black" points="354.5,-1356 354.5,-1390 477.5,-1390 477.5,-1356 354.5,-1356"/>
<text text-anchor="start" x="362.5" y="-1377" font-family="Helvetica,sans-Serif" font-size="10.00">mars::plugins::circle</text>
<text text-anchor="middle" x="416" y="-1364" font-family="Helvetica,sans-Serif" font-size="10.00">_drawing::CircleDrawing</text>
</a>
</g>
<!-- Node2&#45;&gt;Node8 -->
<g id="edge16" class="edge"><title>Node2&#45;&gt;Node8</title>
<path fill="none" stroke="midnightblue" d="M230.549,-958.32C241.874,-1041.51 279.621,-1289.53 334,-1347 339.645,-1352.97 346.65,-1357.57 354.169,-1361.12"/>
<polygon fill="midnightblue" stroke="midnightblue" points="234.012,-957.807 229.213,-948.361 227.074,-958.737 234.012,-957.807"/>
</g>
<!-- Node9 -->
<g id="node18" class="node"><title>Node9</title>
<a xlink:href="../../d2/dde/classmars_1_1plugins_1_1constraints__plugin_1_1_constraints_plugin.html" target="_top" xlink:title="mars::plugins::constraints\l_plugin::ConstraintsPlugin">
<polygon fill="white" stroke="black" points="350.5,-1304 350.5,-1338 481.5,-1338 481.5,-1304 350.5,-1304"/>
<text text-anchor="start" x="358.5" y="-1325" font-family="Helvetica,sans-Serif" font-size="10.00">mars::plugins::constraints</text>
<text text-anchor="middle" x="416" y="-1312" font-family="Helvetica,sans-Serif" font-size="10.00">_plugin::ConstraintsPlugin</text>
</a>
</g>
<!-- Node2&#45;&gt;Node9 -->
<g id="edge18" class="edge"><title>Node2&#45;&gt;Node9</title>
<path fill="none" stroke="midnightblue" d="M231.677,-958.62C245.105,-1034.86 285.907,-1245.88 334,-1295 338.702,-1299.8 344.284,-1303.72 350.292,-1306.91"/>
<polygon fill="midnightblue" stroke="midnightblue" points="235.059,-957.636 229.897,-948.383 228.162,-958.835 235.059,-957.636"/>
</g>
<!-- Node10 -->
<g id="node20" class="node"><title>Node10</title>
<a xlink:href="../../de/dc7/classmars_1_1plugins_1_1db__adrf__receiver_1_1_d_b_a_d_r_f_receiver.html" target="_top" xlink:title="mars::plugins::db_adrf\l_receiver::DBADRFReceiver">
<polygon fill="white" stroke="black" points="344.5,-1252 344.5,-1286 487.5,-1286 487.5,-1252 344.5,-1252"/>
<text text-anchor="start" x="352.5" y="-1273" font-family="Helvetica,sans-Serif" font-size="10.00">mars::plugins::db_adrf</text>
<text text-anchor="middle" x="416" y="-1260" font-family="Helvetica,sans-Serif" font-size="10.00">_receiver::DBADRFReceiver</text>
</a>
</g>
<!-- Node2&#45;&gt;Node10 -->
<g id="edge20" class="edge"><title>Node2&#45;&gt;Node10</title>
<path fill="none" stroke="midnightblue" d="M228.421,-958.574C233.024,-1018.85 252.443,-1163.32 334,-1243 337.419,-1246.34 341.264,-1249.25 345.375,-1251.79"/>
<polygon fill="midnightblue" stroke="midnightblue" points="231.895,-958.071 227.722,-948.333 224.911,-958.548 231.895,-958.071"/>
</g>
<!-- Node11 -->
<g id="node22" class="node"><title>Node11</title>
<a xlink:href="../../dd/dc0/classmars_1_1plugins_1_1db__adrf__sender_1_1_d_b_a_d_r_f_sender.html" target="_top" xlink:title="mars::plugins::db_adrf\l_sender::DBADRFSender">
<polygon fill="white" stroke="black" points="351,-1200 351,-1234 481,-1234 481,-1200 351,-1200"/>
<text text-anchor="start" x="359" y="-1221" font-family="Helvetica,sans-Serif" font-size="10.00">mars::plugins::db_adrf</text>
<text text-anchor="middle" x="416" y="-1208" font-family="Helvetica,sans-Serif" font-size="10.00">_sender::DBADRFSender</text>
</a>
</g>
<!-- Node2&#45;&gt;Node11 -->
<g id="edge22" class="edge"><title>Node2&#45;&gt;Node11</title>
<path fill="none" stroke="midnightblue" d="M230.509,-957.98C238.762,-1010.48 264.263,-1126.85 334,-1191 338.946,-1195.55 344.687,-1199.3 350.791,-1202.4"/>
<polygon fill="midnightblue" stroke="midnightblue" points="233.969,-957.455 229.04,-948.076 227.045,-958.482 233.969,-957.455"/>
</g>
<!-- Node12 -->
<g id="node24" class="node"><title>Node12</title>
<a xlink:href="../../d8/ded/classmars_1_1plugins_1_1db__to__cfg_1_1_db_to_cfg.html" target="_top" xlink:title="mars::plugins::db_to\l_cfg::DbToCfg">
<polygon fill="white" stroke="black" points="363.5,-1148 363.5,-1182 468.5,-1182 468.5,-1148 363.5,-1148"/>
<text text-anchor="start" x="371.5" y="-1169" font-family="Helvetica,sans-Serif" font-size="10.00">mars::plugins::db_to</text>
<text text-anchor="middle" x="416" y="-1156" font-family="Helvetica,sans-Serif" font-size="10.00">_cfg::DbToCfg</text>
</a>
</g>
<!-- Node2&#45;&gt;Node12 -->
<g id="edge24" class="edge"><title>Node2&#45;&gt;Node12</title>
<path fill="none" stroke="midnightblue" d="M233.575,-957.83C245.781,-1002.03 276.127,-1090.12 334,-1139 342.443,-1146.13 352.857,-1151.31 363.396,-1155.07"/>
<polygon fill="midnightblue" stroke="midnightblue" points="236.937,-956.853 230.984,-948.088 230.172,-958.652 236.937,-956.853"/>
</g>
<!-- Node13 -->
<g id="node26" class="node"><title>Node13</title>
<a xlink:href="../../d2/dfd/classmars_1_1plugins_1_1entityfactorytester_1_1_entityfactorytester.html" target="_top" xlink:title="mars::plugins::entityfactorytester\l::Entityfactorytester">
<polygon fill="white" stroke="black" points="336,-1096 336,-1130 496,-1130 496,-1096 336,-1096"/>
<text text-anchor="start" x="344" y="-1117" font-family="Helvetica,sans-Serif" font-size="10.00">mars::plugins::entityfactorytester</text>
<text text-anchor="middle" x="416" y="-1104" font-family="Helvetica,sans-Serif" font-size="10.00">::Entityfactorytester</text>
</a>
</g>
<!-- Node2&#45;&gt;Node13 -->
<g id="edge26" class="edge"><title>Node2&#45;&gt;Node13</title>
<path fill="none" stroke="midnightblue" d="M238.565,-957.834C254.885,-992.603 287.909,-1052.8 334,-1087 338.558,-1090.38 343.569,-1093.33 348.799,-1095.9"/>
<polygon fill="midnightblue" stroke="midnightblue" points="241.562,-955.972 234.224,-948.33 235.195,-958.88 241.562,-955.972"/>
</g>
<!-- Node14 -->
<g id="node28" class="node"><title>Node14</title>
<a xlink:href="../../d2/d2b/classmars_1_1plugins_1_1hud__calibration_1_1_hud_calibration.html" target="_top" xlink:title="mars::plugins::hud\l_calibration::HudCalibration">
<polygon fill="white" stroke="black" points="347.5,-1044 347.5,-1078 484.5,-1078 484.5,-1044 347.5,-1044"/>
<text text-anchor="start" x="355.5" y="-1065" font-family="Helvetica,sans-Serif" font-size="10.00">mars::plugins::hud</text>
<text text-anchor="middle" x="416" y="-1052" font-family="Helvetica,sans-Serif" font-size="10.00">_calibration::HudCalibration</text>
</a>
</g>
<!-- Node2&#45;&gt;Node14 -->
<g id="edge28" class="edge"><title>Node2&#45;&gt;Node14</title>
<path fill="none" stroke="midnightblue" d="M246.805,-956.067C266.581,-979.543 299,-1014.06 334,-1035 339.639,-1038.37 345.762,-1041.36 352.036,-1043.98"/>
<polygon fill="midnightblue" stroke="midnightblue" points="249.423,-953.741 240.354,-948.264 244.028,-958.201 249.423,-953.741"/>
</g>
<!-- Node15 -->
<g id="node30" class="node"><title>Node15</title>
<a xlink:href="../../d2/dff/classmars_1_1plugins_1_1kais__3rd__car_1_1_kais__3rd_car.html" target="_top" xlink:title="mars::plugins::kais\l_3rd_car::Kais_3rdCar">
<polygon fill="white" stroke="black" points="359,-992 359,-1026 473,-1026 473,-992 359,-992"/>
<text text-anchor="start" x="367" y="-1013" font-family="Helvetica,sans-Serif" font-size="10.00">mars::plugins::kais</text>
<text text-anchor="middle" x="416" y="-1000" font-family="Helvetica,sans-Serif" font-size="10.00">_3rd_car::Kais_3rdCar</text>
</a>
</g>
<!-- Node2&#45;&gt;Node15 -->
<g id="edge30" class="edge"><title>Node2&#45;&gt;Node15</title>
<path fill="none" stroke="midnightblue" d="M268.199,-952.76C287.825,-962.674 311.809,-974.144 334,-983 341.906,-986.155 350.357,-989.194 358.718,-992.013"/>
<polygon fill="midnightblue" stroke="midnightblue" points="269.726,-949.61 259.227,-948.184 266.545,-955.846 269.726,-949.61"/>
</g>
<!-- Node16 -->
<g id="node32" class="node"><title>Node16</title>
<a xlink:href="../../de/db0/classmars_1_1plugins_1_1_line_laser_1_1_line_laser.html" target="_top" xlink:title="mars::plugins::LineLaser\l::LineLaser">
<polygon fill="white" stroke="black" points="354.5,-940 354.5,-974 477.5,-974 477.5,-940 354.5,-940"/>
<text text-anchor="start" x="362.5" y="-961" font-family="Helvetica,sans-Serif" font-size="10.00">mars::plugins::LineLaser</text>
<text text-anchor="middle" x="416" y="-948" font-family="Helvetica,sans-Serif" font-size="10.00">::LineLaser</text>
</a>
</g>
<!-- Node2&#45;&gt;Node16 -->
<g id="edge32" class="edge"><title>Node2&#45;&gt;Node16</title>
<path fill="none" stroke="midnightblue" d="M308.273,-942.18C323.76,-944.311 339.731,-946.508 354.476,-948.536"/>
<polygon fill="midnightblue" stroke="midnightblue" points="308.567,-938.688 298.183,-940.792 307.613,-945.623 308.567,-938.688"/>
</g>
<!-- Node17 -->
<g id="node34" class="node"><title>Node17</title>
<a xlink:href="../../d5/dbb/classmars_1_1plugins_1_1mars__stream__window_1_1_stream_window.html" target="_top" xlink:title="mars::plugins::mars\l_stream_window::StreamWindow">
<polygon fill="white" stroke="black" points="334.5,-888 334.5,-922 497.5,-922 497.5,-888 334.5,-888"/>
<text text-anchor="start" x="342.5" y="-909" font-family="Helvetica,sans-Serif" font-size="10.00">mars::plugins::mars</text>
<text text-anchor="middle" x="416" y="-896" font-family="Helvetica,sans-Serif" font-size="10.00">_stream_window::StreamWindow</text>
</a>
</g>
<!-- Node2&#45;&gt;Node17 -->
<g id="edge34" class="edge"><title>Node2&#45;&gt;Node17</title>
<path fill="none" stroke="midnightblue" d="M308.266,-919.821C316.929,-918.629 325.743,-917.416 334.41,-916.224"/>
<polygon fill="midnightblue" stroke="midnightblue" points="307.613,-916.377 298.183,-921.208 308.567,-923.312 307.613,-916.377"/>
</g>
<!-- Node18 -->
<g id="node36" class="node"><title>Node18</title>
<a xlink:href="../../d3/d53/classmars_1_1plugins_1_1mars__video__player_1_1_mars_video_player.html" target="_top" xlink:title="mars::plugins::mars\l_video_player::MarsVideoPlayer">
<polygon fill="white" stroke="black" points="337.5,-836 337.5,-870 494.5,-870 494.5,-836 337.5,-836"/>
<text text-anchor="start" x="345.5" y="-857" font-family="Helvetica,sans-Serif" font-size="10.00">mars::plugins::mars</text>
<text text-anchor="middle" x="416" y="-844" font-family="Helvetica,sans-Serif" font-size="10.00">_video_player::MarsVideoPlayer</text>
</a>
</g>
<!-- Node2&#45;&gt;Node18 -->
<g id="edge36" class="edge"><title>Node2&#45;&gt;Node18</title>
<path fill="none" stroke="midnightblue" d="M268.199,-909.24C287.825,-899.326 311.809,-887.856 334,-879 341.768,-875.9 350.061,-872.912 358.278,-870.136"/>
<polygon fill="midnightblue" stroke="midnightblue" points="266.545,-906.154 259.227,-913.816 269.726,-912.39 266.545,-906.154"/>
</g>
<!-- Node19 -->
<g id="node38" class="node"><title>Node19</title>
<a xlink:href="../../d7/d1f/classmars_1_1plugins_1_1obstacle__generator_1_1_obstacle_generator.html" target="_top" xlink:title="mars::plugins::obstacle\l_generator::ObstacleGenerator">
<polygon fill="white" stroke="black" points="341,-784 341,-818 491,-818 491,-784 341,-784"/>
<text text-anchor="start" x="349" y="-805" font-family="Helvetica,sans-Serif" font-size="10.00">mars::plugins::obstacle</text>
<text text-anchor="middle" x="416" y="-792" font-family="Helvetica,sans-Serif" font-size="10.00">_generator::ObstacleGenerator</text>
</a>
</g>
<!-- Node2&#45;&gt;Node19 -->
<g id="edge38" class="edge"><title>Node2&#45;&gt;Node19</title>
<path fill="none" stroke="midnightblue" d="M246.805,-905.933C266.581,-882.457 299,-847.938 334,-827 339.639,-823.626 345.762,-820.645 352.036,-818.019"/>
<polygon fill="midnightblue" stroke="midnightblue" points="244.028,-903.799 240.354,-913.736 249.423,-908.259 244.028,-903.799"/>
</g>
<!-- Node20 -->
<g id="node40" class="node"><title>Node20</title>
<a xlink:href="../../d7/df7/classmars_1_1plugins_1_1output__inertias_1_1_output_inertias.html" target="_top" xlink:title="mars::plugins::output\l_inertias::OutputInertias">
<polygon fill="white" stroke="black" points="355.5,-732 355.5,-766 476.5,-766 476.5,-732 355.5,-732"/>
<text text-anchor="start" x="363.5" y="-753" font-family="Helvetica,sans-Serif" font-size="10.00">mars::plugins::output</text>
<text text-anchor="middle" x="416" y="-740" font-family="Helvetica,sans-Serif" font-size="10.00">_inertias::OutputInertias</text>
</a>
</g>
<!-- Node2&#45;&gt;Node20 -->
<g id="edge40" class="edge"><title>Node2&#45;&gt;Node20</title>
<path fill="none" stroke="midnightblue" d="M235.955,-904.193C251.188,-867.295 285.301,-802.132 334,-766 340.357,-761.284 347.596,-757.406 355.08,-754.301"/>
<polygon fill="midnightblue" stroke="midnightblue" points="232.578,-903.216 232.163,-913.803 239.089,-905.786 232.578,-903.216"/>
</g>
<!-- Node2&#45;&gt;Node20 -->
<g id="edge42" class="edge"><title>Node2&#45;&gt;Node20</title>
<path fill="none" stroke="midnightblue" d="M241.392,-904.824C258.536,-871.891 290.43,-816.326 334,-784 344.795,-775.991 358.134,-770.4 370.895,-766.125"/>
<polygon fill="midnightblue" stroke="midnightblue" points="238.201,-903.376 236.749,-913.871 244.428,-906.572 238.201,-903.376"/>
</g>
<!-- Node21 -->
<g id="node43" class="node"><title>Node21</title>
<a xlink:href="../../d2/d19/classmars_1_1plugins_1_1path__drawer_1_1_path_drawer.html" target="_top" xlink:title="mars::plugins::path\l_drawer::PathDrawer">
<polygon fill="white" stroke="black" points="361.5,-680 361.5,-714 470.5,-714 470.5,-680 361.5,-680"/>
<text text-anchor="start" x="369.5" y="-701" font-family="Helvetica,sans-Serif" font-size="10.00">mars::plugins::path</text>
<text text-anchor="middle" x="416" y="-688" font-family="Helvetica,sans-Serif" font-size="10.00">_drawer::PathDrawer</text>
</a>
</g>
<!-- Node2&#45;&gt;Node21 -->
<g id="edge44" class="edge"><title>Node2&#45;&gt;Node21</title>
<path fill="none" stroke="midnightblue" d="M233.575,-904.17C245.781,-859.97 276.127,-771.881 334,-723 341.873,-716.351 351.458,-711.397 361.262,-707.708"/>
<polygon fill="midnightblue" stroke="midnightblue" points="230.172,-903.348 230.984,-913.912 236.937,-905.147 230.172,-903.348"/>
</g>
<!-- Node22 -->
<g id="node45" class="node"><title>Node22</title>
<a xlink:href="../../da/dde/classmars_1_1plugins_1_1_sonar_plugin_1_1_sonar_plugin.html" target="_top" xlink:title="mars::plugins::SonarPlugin\l::SonarPlugin">
<polygon fill="white" stroke="black" points="349,-628 349,-662 483,-662 483,-628 349,-628"/>
<text text-anchor="start" x="357" y="-649" font-family="Helvetica,sans-Serif" font-size="10.00">mars::plugins::SonarPlugin</text>
<text text-anchor="middle" x="416" y="-636" font-family="Helvetica,sans-Serif" font-size="10.00">::SonarPlugin</text>
</a>
</g>
<!-- Node2&#45;&gt;Node22 -->
<g id="edge46" class="edge"><title>Node2&#45;&gt;Node22</title>
<path fill="none" stroke="midnightblue" d="M230.509,-904.02C238.762,-851.518 264.263,-735.153 334,-671 338.396,-666.956 343.421,-663.54 348.77,-660.656"/>
<polygon fill="midnightblue" stroke="midnightblue" points="227.045,-903.518 229.04,-913.924 233.969,-904.545 227.045,-903.518"/>
</g>
<!-- Node23 -->
<g id="node47" class="node"><title>Node23</title>
<a xlink:href="../../d7/d9a/classmars_1_1plugins_1_1_test_wireframe_1_1_test_wireframe.html" target="_top" xlink:title="mars::plugins::TestWireframe\l::TestWireframe">
<polygon fill="white" stroke="black" points="343,-576 343,-610 489,-610 489,-576 343,-576"/>
<text text-anchor="start" x="351" y="-597" font-family="Helvetica,sans-Serif" font-size="10.00">mars::plugins::TestWireframe</text>
<text text-anchor="middle" x="416" y="-584" font-family="Helvetica,sans-Serif" font-size="10.00">::TestWireframe</text>
</a>
</g>
<!-- Node2&#45;&gt;Node23 -->
<g id="edge48" class="edge"><title>Node2&#45;&gt;Node23</title>
<path fill="none" stroke="midnightblue" d="M228.421,-903.426C233.024,-843.147 252.443,-698.675 334,-619 337.419,-615.66 341.264,-612.749 345.375,-610.212"/>
<polygon fill="midnightblue" stroke="midnightblue" points="224.911,-903.452 227.722,-913.667 231.895,-903.929 224.911,-903.452"/>
</g>
<!-- Node24 -->
<g id="node49" class="node"><title>Node24</title>
<a xlink:href="../../dc/dd5/classmars_1_1plugins_1_1_text3_d_1_1_text3_d.html" target="_top" xlink:title="mars::plugins::Text3D\l::Text3D">
<polygon fill="white" stroke="black" points="359.5,-524 359.5,-558 472.5,-558 472.5,-524 359.5,-524"/>
<text text-anchor="start" x="367.5" y="-545" font-family="Helvetica,sans-Serif" font-size="10.00">mars::plugins::Text3D</text>
<text text-anchor="middle" x="416" y="-532" font-family="Helvetica,sans-Serif" font-size="10.00">::Text3D</text>
</a>
</g>
<!-- Node2&#45;&gt;Node24 -->
<g id="edge50" class="edge"><title>Node2&#45;&gt;Node24</title>
<path fill="none" stroke="midnightblue" d="M231.677,-903.38C245.105,-827.135 285.907,-616.121 334,-567 341,-559.85 349.953,-554.662 359.357,-550.898"/>
<polygon fill="midnightblue" stroke="midnightblue" points="228.162,-903.165 229.897,-913.617 235.059,-904.364 228.162,-903.165"/>
</g>
<!-- Node25 -->
<g id="node51" class="node"><title>Node25</title>
<a xlink:href="../../d3/dcf/classmars_1_1plugins_1_1_walkers_1_1_walkers.html" target="_top" xlink:title="mars::plugins::Walkers\l::Walkers">
<polygon fill="white" stroke="black" points="357.5,-472 357.5,-506 474.5,-506 474.5,-472 357.5,-472"/>
<text text-anchor="start" x="365.5" y="-493" font-family="Helvetica,sans-Serif" font-size="10.00">mars::plugins::Walkers</text>
<text text-anchor="middle" x="416" y="-480" font-family="Helvetica,sans-Serif" font-size="10.00">::Walkers</text>
</a>
</g>
<!-- Node2&#45;&gt;Node25 -->
<g id="edge52" class="edge"><title>Node2&#45;&gt;Node25</title>
<path fill="none" stroke="midnightblue" d="M230.549,-903.68C241.874,-820.491 279.621,-572.472 334,-515 340.467,-508.166 348.716,-503.12 357.48,-499.398"/>
<polygon fill="midnightblue" stroke="midnightblue" points="227.074,-903.263 229.213,-913.639 234.012,-904.193 227.074,-903.263"/>
</g>
<!-- Node26 -->
<g id="node53" class="node"><title>Node26</title>
<a xlink:href="../../de/da8/classmars_1_1smurf_1_1_s_m_u_r_f.html" target="_top" xlink:title="mars::smurf::SMURF">
<polygon fill="white" stroke="black" points="360.5,-432.5 360.5,-453.5 471.5,-453.5 471.5,-432.5 360.5,-432.5"/>
<text text-anchor="middle" x="416" y="-440.5" font-family="Helvetica,sans-Serif" font-size="10.00">mars::smurf::SMURF</text>
</a>
</g>
<!-- Node2&#45;&gt;Node26 -->
<g id="edge54" class="edge"><title>Node2&#45;&gt;Node26</title>
<path fill="none" stroke="midnightblue" d="M229.17,-903.825C237.508,-812.293 270.259,-518.67 334,-454 341.2,-446.695 350.594,-441.889 360.443,-438.946"/>
<polygon fill="midnightblue" stroke="midnightblue" points="225.668,-903.687 228.274,-913.957 232.641,-904.304 225.668,-903.687"/>
</g>
<!-- Node2&#45;&gt;Node26 -->
<g id="edge56" class="edge"><title>Node2&#45;&gt;Node26</title>
<path fill="none" stroke="midnightblue" d="M229.912,-903.63C239.329,-814.346 272.008,-534.895 334,-472 343.772,-462.086 357.584,-456.775 371.091,-453.557"/>
<polygon fill="midnightblue" stroke="midnightblue" points="226.409,-903.471 228.854,-913.78 233.372,-904.196 226.409,-903.471"/>
</g>
<!-- Node27 -->
<g id="node56" class="node"><title>Node27</title>
<a xlink:href="../../d9/d8e/classmars__video__player_1_1_mars_video_player.html" target="_top" xlink:title="mars_video_player::\lMarsVideoPlayer">
<polygon fill="white" stroke="black" points="364,-380 364,-414 468,-414 468,-380 364,-380"/>
<text text-anchor="start" x="372" y="-401" font-family="Helvetica,sans-Serif" font-size="10.00">mars_video_player::</text>
<text text-anchor="middle" x="416" y="-388" font-family="Helvetica,sans-Serif" font-size="10.00">MarsVideoPlayer</text>
</a>
</g>
<!-- Node2&#45;&gt;Node27 -->
<g id="edge58" class="edge"><title>Node2&#45;&gt;Node27</title>
<path fill="none" stroke="midnightblue" d="M229.188,-903.524C237.287,-808.449 268.546,-495.31 334,-423 341.918,-414.253 352.758,-408.429 363.962,-404.556"/>
<polygon fill="midnightblue" stroke="midnightblue" points="225.677,-903.507 228.334,-913.764 232.653,-904.089 225.677,-903.507"/>
</g>
<!-- Node28 -->
<g id="node58" class="node"><title>Node28</title>
<a xlink:href="../../d0/de9/class_uebung1_plugin.html" target="_top" xlink:title="Uebung1Plugin">
<polygon fill="white" stroke="black" points="374.5,-340.5 374.5,-361.5 457.5,-361.5 457.5,-340.5 374.5,-340.5"/>
<text text-anchor="middle" x="416" y="-348.5" font-family="Helvetica,sans-Serif" font-size="10.00">Uebung1Plugin</text>
</a>
</g>
<!-- Node2&#45;&gt;Node28 -->
<g id="edge60" class="edge"><title>Node2&#45;&gt;Node28</title>
<path fill="none" stroke="midnightblue" d="M228.397,-903.903C234.158,-802.812 259.393,-449.468 334,-371 344.4,-360.062 359.705,-354.688 374.285,-352.171"/>
<polygon fill="midnightblue" stroke="midnightblue" points="224.9,-903.746 227.843,-913.924 231.889,-904.132 224.9,-903.746"/>
</g>
<!-- Node30 -->
<g id="node62" class="node"><title>Node30</title>
<a xlink:href="../../d3/d61/class_cave_movie_control.html" target="_top" xlink:title="CaveMovieControl">
<polygon fill="white" stroke="black" points="367,-300.5 367,-321.5 465,-321.5 465,-300.5 367,-300.5"/>
<text text-anchor="middle" x="416" y="-308.5" font-family="Helvetica,sans-Serif" font-size="10.00">CaveMovieControl</text>
</a>
</g>
<!-- Node29&#45;&gt;Node30 -->
<g id="edge64" class="edge"><title>Node29&#45;&gt;Node30</title>
<path fill="none" stroke="midnightblue" d="M246.166,-212.194C265.683,-236.07 298.108,-271.149 334,-291 344.002,-296.532 355.521,-300.549 366.705,-303.462"/>
<polygon fill="midnightblue" stroke="midnightblue" points="248.798,-209.88 239.817,-204.259 243.332,-214.254 248.798,-209.88"/>
</g>
<!-- Node31 -->
<g id="node64" class="node"><title>Node31</title>
<a xlink:href="../../d8/da0/classmars_1_1plugins_1_1_camera_g_u_i_1_1_camera_g_u_i.html" target="_top" xlink:title="mars::plugins::CameraGUI\l::CameraGUI">
<polygon fill="white" stroke="black" points="349,-248 349,-282 483,-282 483,-248 349,-248"/>
<text text-anchor="start" x="357" y="-269" font-family="Helvetica,sans-Serif" font-size="10.00">mars::plugins::CameraGUI</text>
<text text-anchor="middle" x="416" y="-256" font-family="Helvetica,sans-Serif" font-size="10.00">::CameraGUI</text>
</a>
</g>
<!-- Node29&#45;&gt;Node31 -->
<g id="edge66" class="edge"><title>Node29&#45;&gt;Node31</title>
<path fill="none" stroke="midnightblue" d="M268.199,-208.76C287.825,-218.674 311.809,-230.144 334,-239 341.768,-242.1 350.061,-245.088 358.278,-247.864"/>
<polygon fill="midnightblue" stroke="midnightblue" points="269.726,-205.61 259.227,-204.184 266.545,-211.846 269.726,-205.61"/>
</g>
<!-- Node32 -->
<g id="node66" class="node"><title>Node32</title>
<a xlink:href="../../de/dbe/classmars_1_1plugins_1_1_cave_demo_hud_control_1_1_cave_demo_hud_control.html" target="_top" xlink:title="mars::plugins::CaveDemoHud\lControl::CaveDemoHudControl">
<polygon fill="white" stroke="black" points="339.5,-196 339.5,-230 492.5,-230 492.5,-196 339.5,-196"/>
<text text-anchor="start" x="347.5" y="-217" font-family="Helvetica,sans-Serif" font-size="10.00">mars::plugins::CaveDemoHud</text>
<text text-anchor="middle" x="416" y="-204" font-family="Helvetica,sans-Serif" font-size="10.00">Control::CaveDemoHudControl</text>
</a>
</g>
<!-- Node29&#45;&gt;Node32 -->
<g id="edge68" class="edge"><title>Node29&#45;&gt;Node32</title>
<path fill="none" stroke="midnightblue" d="M308.336,-198.189C318.576,-199.598 329.027,-201.035 339.195,-202.434"/>
<polygon fill="midnightblue" stroke="midnightblue" points="308.567,-194.688 298.183,-196.792 307.613,-201.623 308.567,-194.688"/>
</g>
<!-- Node33 -->
<g id="node68" class="node"><title>Node33</title>
<a xlink:href="../../d4/db9/classmars_1_1plugins_1_1connexion__plugin_1_1_connexion_plugin.html" target="_top" xlink:title="mars::plugins::connexion\l_plugin::ConnexionPlugin">
<polygon fill="white" stroke="black" points="352.5,-144 352.5,-178 479.5,-178 479.5,-144 352.5,-144"/>
<text text-anchor="start" x="360.5" y="-165" font-family="Helvetica,sans-Serif" font-size="10.00">mars::plugins::connexion</text>
<text text-anchor="middle" x="416" y="-152" font-family="Helvetica,sans-Serif" font-size="10.00">_plugin::ConnexionPlugin</text>
</a>
</g>
<!-- Node29&#45;&gt;Node33 -->
<g id="edge70" class="edge"><title>Node29&#45;&gt;Node33</title>
<path fill="none" stroke="midnightblue" d="M308.296,-175.816C323.029,-173.79 338.199,-171.703 352.335,-169.758"/>
<polygon fill="midnightblue" stroke="midnightblue" points="307.613,-172.377 298.183,-177.208 308.567,-179.312 307.613,-172.377"/>
</g>
<!-- Node34 -->
<g id="node70" class="node"><title>Node34</title>
<a xlink:href="../../da/d09/classmars_1_1plugins_1_1_data_vault_wrapper_1_1_data_vault_wrapper.html" target="_top" xlink:title="mars::plugins::DataVault\lWrapper::DataVaultWrapper">
<polygon fill="white" stroke="black" points="346,-92 346,-126 486,-126 486,-92 346,-92"/>
<text text-anchor="start" x="354" y="-113" font-family="Helvetica,sans-Serif" font-size="10.00">mars::plugins::DataVault</text>
<text text-anchor="middle" x="416" y="-100" font-family="Helvetica,sans-Serif" font-size="10.00">Wrapper::DataVaultWrapper</text>
</a>
</g>
<!-- Node29&#45;&gt;Node34 -->
<g id="edge72" class="edge"><title>Node29&#45;&gt;Node34</title>
<path fill="none" stroke="midnightblue" d="M268.199,-165.24C287.825,-155.326 311.809,-143.856 334,-135 341.768,-131.9 350.061,-128.912 358.278,-126.136"/>
<polygon fill="midnightblue" stroke="midnightblue" points="266.545,-162.154 259.227,-169.816 269.726,-168.39 266.545,-162.154"/>
</g>
<!-- Node35 -->
<g id="node72" class="node"><title>Node35</title>
<a xlink:href="../../d5/d33/classmars_1_1plugins_1_1_plot3_d_1_1_plot3_d.html" target="_top" xlink:title="mars::plugins::Plot3D\l::Plot3D">
<polygon fill="white" stroke="black" points="360.5,-40 360.5,-74 471.5,-74 471.5,-40 360.5,-40"/>
<text text-anchor="start" x="368.5" y="-61" font-family="Helvetica,sans-Serif" font-size="10.00">mars::plugins::Plot3D</text>
<text text-anchor="middle" x="416" y="-48" font-family="Helvetica,sans-Serif" font-size="10.00">::Plot3D</text>
</a>
</g>
<!-- Node29&#45;&gt;Node35 -->
<g id="edge74" class="edge"><title>Node29&#45;&gt;Node35</title>
<path fill="none" stroke="midnightblue" d="M246.805,-161.933C266.581,-138.457 299,-103.938 334,-83 342.074,-78.1698 351.141,-74.1423 360.222,-70.815"/>
<polygon fill="midnightblue" stroke="midnightblue" points="244.028,-159.799 240.354,-169.736 249.423,-164.259 244.028,-159.799"/>
</g>
<!-- Node36 -->
<g id="node74" class="node"><title>Node36</title>
<a xlink:href="../../d2/d7d/classmars_1_1sim__state_1_1_sim_state.html" target="_top" xlink:title="mars::sim_state::SimState">
<polygon fill="white" stroke="black" points="349,-0.5 349,-21.5 483,-21.5 483,-0.5 349,-0.5"/>
<text text-anchor="middle" x="416" y="-8.5" font-family="Helvetica,sans-Serif" font-size="10.00">mars::sim_state::SimState</text>
</a>
</g>
<!-- Node29&#45;&gt;Node36 -->
<g id="edge76" class="edge"><title>Node29&#45;&gt;Node36</title>
<path fill="none" stroke="midnightblue" d="M237.975,-160.238C253.826,-125.027 286.531,-63.7842 334,-31 339.546,-27.1695 345.747,-24.0698 352.188,-21.562"/>
<polygon fill="midnightblue" stroke="midnightblue" points="234.571,-159.286 233.775,-169.851 240.986,-162.089 234.571,-159.286"/>
</g>
</g>
</svg>
