<?xml version="1.0" encoding="UTF-8" standalone="no"?>
<!DOCTYPE svg PUBLIC "-//W3C//DTD SVG 1.1//EN"
 "http://www.w3.org/Graphics/SVG/1.1/DTD/svg11.dtd">
<!-- Generated by graphviz version 2.36.0 (20140111.2315)
 -->
<!-- Title: mars::interfaces::PluginInterface Pages: 1 -->
<svg width="492pt" height="605pt"
 viewBox="0.00 0.00 492.00 605.00" xmlns="http://www.w3.org/2000/svg" xmlns:xlink="http://www.w3.org/1999/xlink">
<g id="graph0" class="graph" transform="scale(1 1) rotate(0) translate(4 601)">
<title>mars::interfaces::PluginInterface</title>
<polygon fill="white" stroke="none" points="-4,4 -4,-601 488,-601 488,4 -4,4"/>
<!-- Node1 -->
<g id="node1" class="node"><title>Node1</title>
<polygon fill="#bfbfbf" stroke="black" points="0,-259 0,-289 120,-289 120,-259 0,-259"/>
<text text-anchor="start" x="8" y="-277" font-family="Helvetica,sans-Serif" font-size="10.00">mars::interfaces::Plugin</text>
<text text-anchor="middle" x="60" y="-266" font-family="Helvetica,sans-Serif" font-size="10.00">Interface</text>
</g>
<!-- Node2 -->
<g id="node2" class="node"><title>Node2</title>
<g id="a_node2"><a xlink:href="../../d6/df6/classmars_1_1interfaces_1_1_mars_plugin_template.html" target="_top" xlink:title="mars::interfaces::MarsPlugin\lTemplate">
<polygon fill="white" stroke="black" points="156,-371 156,-401 298,-401 298,-371 156,-371"/>
<text text-anchor="start" x="164" y="-389" font-family="Helvetica,sans-Serif" font-size="10.00">mars::interfaces::MarsPlugin</text>
<text text-anchor="middle" x="227" y="-378" font-family="Helvetica,sans-Serif" font-size="10.00">Template</text>
</a>
</g>
</g>
<!-- Node1&#45;&gt;Node2 -->
<g id="edge1" class="edge"><title>Node1&#45;&gt;Node2</title>
<path fill="none" stroke="midnightblue" d="M91.935,-294.998C124.519,-317.116 175.016,-351.393 203.837,-370.956"/>
<polygon fill="midnightblue" stroke="midnightblue" points="93.4923,-291.825 83.2526,-289.105 89.5609,-297.617 93.4923,-291.825"/>
</g>
<!-- Node11 -->
<g id="node11" class="node"><title>Node11</title>
<g id="a_node11"><a xlink:href="../../da/df1/classmars_1_1interfaces_1_1_mars_plugin_template_g_u_i.html" target="_top" xlink:title="mars::interfaces::MarsPlugin\lTemplateGUI">
<polygon fill="white" stroke="black" points="156,-147 156,-177 298,-177 298,-147 156,-147"/>
<text text-anchor="start" x="164" y="-165" font-family="Helvetica,sans-Serif" font-size="10.00">mars::interfaces::MarsPlugin</text>
<text text-anchor="middle" x="227" y="-154" font-family="Helvetica,sans-Serif" font-size="10.00">TemplateGUI</text>
</a>
</g>
</g>
<!-- Node1&#45;&gt;Node11 -->
<g id="edge10" class="edge"><title>Node1&#45;&gt;Node11</title>
<path fill="none" stroke="midnightblue" d="M91.935,-253.002C124.519,-230.884 175.016,-196.607 203.837,-177.044"/>
<polygon fill="midnightblue" stroke="midnightblue" points="89.5609,-250.383 83.2526,-258.895 93.4923,-256.175 89.5609,-250.383"/>
</g>
<!-- Node3 -->
<g id="node3" class="node"><title>Node3</title>
<g id="a_node3"><a xlink:href="../../d4/d0e/classmars_1_1entity__generation_1_1_entity_factory_manager.html" target="_top" xlink:title="mars::entity_generation\l::EntityFactoryManager">
<polygon fill="white" stroke="black" points="349.5,-567 349.5,-597 468.5,-597 468.5,-567 349.5,-567"/>
<text text-anchor="start" x="357.5" y="-585" font-family="Helvetica,sans-Serif" font-size="10.00">mars::entity_generation</text>
<text text-anchor="middle" x="409" y="-574" font-family="Helvetica,sans-Serif" font-size="10.00">::EntityFactoryManager</text>
</a>
</g>
</g>
<!-- Node2&#45;&gt;Node3 -->
<g id="edge2" class="edge"><title>Node2&#45;&gt;Node3</title>
<path fill="none" stroke="midnightblue" d="M236.993,-410.76C251.673,-447.803 284.233,-517.504 334,-557 338.886,-560.878 344.406,-564.169 350.173,-566.96"/>
<polygon fill="midnightblue" stroke="midnightblue" points="240.184,-409.307 233.327,-401.231 233.651,-411.821 240.184,-409.307"/>
</g>
<!-- Node4 -->
<g id="node4" class="node"><title>Node4</title>
<g id="a_node4"><a xlink:href="../../d4/da8/classmars_1_1plugin_1_1_terrain_plugin_1_1_terrain_plugin.html" target="_top" xlink:title="mars::plugin::TerrainPlugin\l::TerrainPlugin">
<polygon fill="white" stroke="black" points="342.5,-518 342.5,-548 475.5,-548 475.5,-518 342.5,-518"/>
<text text-anchor="start" x="350.5" y="-536" font-family="Helvetica,sans-Serif" font-size="10.00">mars::plugin::TerrainPlugin</text>
<text text-anchor="middle" x="409" y="-525" font-family="Helvetica,sans-Serif" font-size="10.00">::TerrainPlugin</text>
</a>
</g>
</g>
<!-- Node2&#45;&gt;Node4 -->
<g id="edge3" class="edge"><title>Node2&#45;&gt;Node4</title>
<path fill="none" stroke="midnightblue" d="M242.79,-409.59C261.072,-436.933 294.636,-481.608 334,-508 339.744,-511.851 346.137,-515.16 352.691,-517.99"/>
<polygon fill="midnightblue" stroke="midnightblue" points="245.595,-407.483 237.19,-401.033 239.737,-411.317 245.595,-407.483"/>
</g>
<!-- Node5 -->
<g id="node5" class="node"><title>Node5</title>
<g id="a_node5"><a xlink:href="../../da/da1/classmars_1_1plugins_1_1____namespace_____1_1____classname____.html" target="_top" xlink:title="mars::plugins::__namespace\l__::__classname__">
<polygon fill="white" stroke="black" points="338,-245 338,-275 480,-275 480,-245 338,-245"/>
<text text-anchor="start" x="346" y="-263" font-family="Helvetica,sans-Serif" font-size="10.00">mars::plugins::__namespace</text>
<text text-anchor="middle" x="409" y="-252" font-family="Helvetica,sans-Serif" font-size="10.00">__::__classname__</text>
</a>
</g>
</g>
<!-- Node2&#45;&gt;Node5 -->
<g id="edge4" class="edge"><title>Node2&#45;&gt;Node5</title>
<path fill="none" stroke="midnightblue" d="M246.739,-363.049C266.359,-340.361 299.122,-306.074 334,-285 340.267,-281.213 347.183,-277.911 354.195,-275.059"/>
<polygon fill="midnightblue" stroke="midnightblue" points="243.931,-360.949 240.126,-370.837 249.266,-365.48 243.931,-360.949"/>
</g>
<!-- Node6 -->
<g id="node6" class="node"><title>Node6</title>
<g id="a_node6"><a xlink:href="../../d2/dde/classmars_1_1plugins_1_1constraints__plugin_1_1_constraints_plugin.html" target="_top" xlink:title="mars::plugins::constraints\l_plugin::ConstraintsPlugin">
<polygon fill="white" stroke="black" points="343.5,-469 343.5,-499 474.5,-499 474.5,-469 343.5,-469"/>
<text text-anchor="start" x="351.5" y="-487" font-family="Helvetica,sans-Serif" font-size="10.00">mars::plugins::constraints</text>
<text text-anchor="middle" x="409" y="-476" font-family="Helvetica,sans-Serif" font-size="10.00">_plugin::ConstraintsPlugin</text>
</a>
</g>
</g>
<!-- Node2&#45;&gt;Node6 -->
<g id="edge5" class="edge"><title>Node2&#45;&gt;Node6</title>
<path fill="none" stroke="midnightblue" d="M254.535,-407.369C275.231,-423.25 305.204,-444.573 334,-459 341.274,-462.644 349.204,-465.954 357.082,-468.885"/>
<polygon fill="midnightblue" stroke="midnightblue" points="256.578,-404.525 246.536,-401.148 252.28,-410.05 256.578,-404.525"/>
</g>
<!-- Node7 -->
<g id="node7" class="node"><title>Node7</title>
<g id="a_node7"><a xlink:href="../../d7/d1f/classmars_1_1plugins_1_1obstacle__generator_1_1_obstacle_generator.html" target="_top" xlink:title="mars::plugins::obstacle\l_generator::ObstacleGenerator">
<polygon fill="white" stroke="black" points="334,-420 334,-450 484,-450 484,-420 334,-420"/>
<text text-anchor="start" x="342" y="-438" font-family="Helvetica,sans-Serif" font-size="10.00">mars::plugins::obstacle</text>
<text text-anchor="middle" x="409" y="-427" font-family="Helvetica,sans-Serif" font-size="10.00">_generator::ObstacleGenerator</text>
</a>
</g>
</g>
<!-- Node2&#45;&gt;Node7 -->
<g id="edge6" class="edge"><title>Node2&#45;&gt;Node7</title>
<path fill="none" stroke="midnightblue" d="M293.198,-403.748C312.707,-409.059 333.902,-414.829 352.708,-419.948"/>
<polygon fill="midnightblue" stroke="midnightblue" points="294.043,-400.351 283.475,-401.101 292.204,-407.105 294.043,-400.351"/>
</g>
<!-- Node8 -->
<g id="node8" class="node"><title>Node8</title>
<g id="a_node8"><a xlink:href="../../dc/dd5/classmars_1_1plugins_1_1_text3_d_1_1_text3_d.html" target="_top" xlink:title="mars::plugins::Text3D\l::Text3D">
<polygon fill="white" stroke="black" points="352.5,-371 352.5,-401 465.5,-401 465.5,-371 352.5,-371"/>
<text text-anchor="start" x="360.5" y="-389" font-family="Helvetica,sans-Serif" font-size="10.00">mars::plugins::Text3D</text>
<text text-anchor="middle" x="409" y="-378" font-family="Helvetica,sans-Serif" font-size="10.00">::Text3D</text>
</a>
</g>
</g>
<!-- Node2&#45;&gt;Node8 -->
<g id="edge7" class="edge"><title>Node2&#45;&gt;Node8</title>
<path fill="none" stroke="midnightblue" d="M308.311,-386C323.16,-386 338.365,-386 352.283,-386"/>
<polygon fill="midnightblue" stroke="midnightblue" points="308.108,-382.5 298.108,-386 308.108,-389.5 308.108,-382.5"/>
</g>
<!-- Node9 -->
<g id="node9" class="node"><title>Node9</title>
<g id="a_node9"><a xlink:href="../../d0/dd8/classmars_1_1smurf_1_1_p_r_i_m_i_t_i_v_e_s.html" target="_top" xlink:title="mars::smurf::PRIMITIVES">
<polygon fill="white" stroke="black" points="342.5,-332.5 342.5,-351.5 475.5,-351.5 475.5,-332.5 342.5,-332.5"/>
<text text-anchor="middle" x="409" y="-339.5" font-family="Helvetica,sans-Serif" font-size="10.00">mars::smurf::PRIMITIVES</text>
</a>
</g>
</g>
<!-- Node2&#45;&gt;Node9 -->
<g id="edge8" class="edge"><title>Node2&#45;&gt;Node9</title>
<path fill="none" stroke="midnightblue" d="M299.167,-368.604C322.993,-362.779 348.663,-356.505 369.086,-351.512"/>
<polygon fill="midnightblue" stroke="midnightblue" points="298.325,-365.206 289.442,-370.981 299.987,-372.006 298.325,-365.206"/>
</g>
<!-- Node10 -->
<g id="node10" class="node"><title>Node10</title>
<g id="a_node10"><a xlink:href="../../de/da8/classmars_1_1smurf_1_1_s_m_u_r_f.html" target="_top" xlink:title="mars::smurf::SMURF">
<polygon fill="white" stroke="black" points="353.5,-294.5 353.5,-313.5 464.5,-313.5 464.5,-294.5 353.5,-294.5"/>
<text text-anchor="middle" x="409" y="-301.5" font-family="Helvetica,sans-Serif" font-size="10.00">mars::smurf::SMURF</text>
</a>
</g>
</g>
<!-- Node2&#45;&gt;Node10 -->
<g id="edge9" class="edge"><title>Node2&#45;&gt;Node10</title>
<path fill="none" stroke="midnightblue" d="M257.694,-365.223C278.307,-351.599 306.842,-334.284 334,-323 342.942,-319.285 352.801,-316.144 362.328,-313.551"/>
<polygon fill="midnightblue" stroke="midnightblue" points="255.725,-362.329 249.371,-370.808 259.625,-368.142 255.725,-362.329"/>
</g>
<!-- Node11&#45;&gt;Node5 -->
<g id="edge12" class="edge"><title>Node11&#45;&gt;Node5</title>
<path fill="none" stroke="midnightblue" d="M254.535,-183.369C275.231,-199.25 305.204,-220.573 334,-235 341.274,-238.644 349.204,-241.954 357.082,-244.885"/>
<polygon fill="midnightblue" stroke="midnightblue" points="256.578,-180.525 246.536,-177.148 252.28,-186.05 256.578,-180.525"/>
</g>
<!-- Node12 -->
<g id="node12" class="node"><title>Node12</title>
<g id="a_node12"><a xlink:href="../../d5/d94/classmars_1_1plugin_1_1_sky_dome_plugin_1_1_sky_dome_plugin.html" target="_top" xlink:title="mars::plugin::SkyDomePlugin\l::SkyDomePlugin">
<polygon fill="white" stroke="black" points="336,-196 336,-226 482,-226 482,-196 336,-196"/>
<text text-anchor="start" x="344" y="-214" font-family="Helvetica,sans-Serif" font-size="10.00">mars::plugin::SkyDomePlugin</text>
<text text-anchor="middle" x="409" y="-203" font-family="Helvetica,sans-Serif" font-size="10.00">::SkyDomePlugin</text>
</a>
</g>
</g>
<!-- Node11&#45;&gt;Node12 -->
<g id="edge11" class="edge"><title>Node11&#45;&gt;Node12</title>
<path fill="none" stroke="midnightblue" d="M293.198,-179.748C312.707,-185.059 333.902,-190.829 352.708,-195.948"/>
<polygon fill="midnightblue" stroke="midnightblue" points="294.043,-176.351 283.475,-177.101 292.204,-183.105 294.043,-176.351"/>
</g>
<!-- Node13 -->
<g id="node13" class="node"><title>Node13</title>
<g id="a_node13"><a xlink:href="../../d5/dec/classmars_1_1plugins_1_1connectors_1_1_connectors.html" target="_top" xlink:title="mars::plugins::connectors\l::Connectors">
<polygon fill="white" stroke="black" points="344.5,-147 344.5,-177 473.5,-177 473.5,-147 344.5,-147"/>
<text text-anchor="start" x="352.5" y="-165" font-family="Helvetica,sans-Serif" font-size="10.00">mars::plugins::connectors</text>
<text text-anchor="middle" x="409" y="-154" font-family="Helvetica,sans-Serif" font-size="10.00">::Connectors</text>
</a>
</g>
</g>
<!-- Node11&#45;&gt;Node13 -->
<g id="edge13" class="edge"><title>Node11&#45;&gt;Node13</title>
<path fill="none" stroke="midnightblue" d="M308.179,-162C320.259,-162 332.577,-162 344.25,-162"/>
<polygon fill="midnightblue" stroke="midnightblue" points="308.108,-158.5 298.108,-162 308.108,-165.5 308.108,-158.5"/>
</g>
<!-- Node14 -->
<g id="node14" class="node"><title>Node14</title>
<g id="a_node14"><a xlink:href="../../d4/db9/classmars_1_1plugins_1_1connexion__plugin_1_1_connexion_plugin.html" target="_top" xlink:title="mars::plugins::connexion\l_plugin::ConnexionPlugin">
<polygon fill="white" stroke="black" points="345.5,-98 345.5,-128 472.5,-128 472.5,-98 345.5,-98"/>
<text text-anchor="start" x="353.5" y="-116" font-family="Helvetica,sans-Serif" font-size="10.00">mars::plugins::connexion</text>
<text text-anchor="middle" x="409" y="-105" font-family="Helvetica,sans-Serif" font-size="10.00">_plugin::ConnexionPlugin</text>
</a>
</g>
</g>
<!-- Node11&#45;&gt;Node14 -->
<g id="edge14" class="edge"><title>Node11&#45;&gt;Node14</title>
<path fill="none" stroke="midnightblue" d="M293.198,-144.252C312.707,-138.941 333.902,-133.171 352.708,-128.052"/>
<polygon fill="midnightblue" stroke="midnightblue" points="292.204,-140.895 283.475,-146.899 294.043,-147.649 292.204,-140.895"/>
</g>
<!-- Node15 -->
<g id="node15" class="node"><title>Node15</title>
<g id="a_node15"><a xlink:href="../../d8/dbc/classmars_1_1plugins_1_1_entity_view_1_1_entity_view.html" target="_top" xlink:title="mars::plugins::EntityView\l::EntityView">
<polygon fill="white" stroke="black" points="345,-49 345,-79 473,-79 473,-49 345,-49"/>
<text text-anchor="start" x="353" y="-67" font-family="Helvetica,sans-Serif" font-size="10.00">mars::plugins::EntityView</text>
<text text-anchor="middle" x="409" y="-56" font-family="Helvetica,sans-Serif" font-size="10.00">::EntityView</text>
</a>
</g>
</g>
<!-- Node11&#45;&gt;Node15 -->
<g id="edge15" class="edge"><title>Node11&#45;&gt;Node15</title>
<path fill="none" stroke="midnightblue" d="M254.535,-140.631C275.231,-124.75 305.204,-103.427 334,-89 341.274,-85.3555 349.204,-82.0461 357.082,-79.1149"/>
<polygon fill="midnightblue" stroke="midnightblue" points="252.28,-137.95 246.536,-146.852 256.578,-143.475 252.28,-137.95"/>
</g>
<!-- Node16 -->
<g id="node16" class="node"><title>Node16</title>
<g id="a_node16"><a xlink:href="../../d5/d33/classmars_1_1plugins_1_1_plot3_d_1_1_plot3_d.html" target="_top" xlink:title="mars::plugins::Plot3D\l::Plot3D">
<polygon fill="white" stroke="black" points="353.5,-0 353.5,-30 464.5,-30 464.5,-0 353.5,-0"/>
<text text-anchor="start" x="361.5" y="-18" font-family="Helvetica,sans-Serif" font-size="10.00">mars::plugins::Plot3D</text>
<text text-anchor="middle" x="409" y="-7" font-family="Helvetica,sans-Serif" font-size="10.00">::Plot3D</text>
</a>
</g>
</g>
<!-- Node11&#45;&gt;Node16 -->
<g id="edge16" class="edge"><title>Node11&#45;&gt;Node16</title>
<path fill="none" stroke="midnightblue" d="M242.689,-138.129C260.873,-110.477 294.344,-65.3544 334,-39 339.962,-35.038 346.627,-31.6878 353.448,-28.8659"/>
<polygon fill="midnightblue" stroke="midnightblue" points="239.587,-136.48 237.121,-146.784 245.475,-140.267 239.587,-136.48"/>
</g>
</g>
</svg>
