<?xml version="1.0" encoding="UTF-8" standalone="no"?>
<!DOCTYPE svg PUBLIC "-//W3C//DTD SVG 1.1//EN"
 "http://www.w3.org/Graphics/SVG/1.1/DTD/svg11.dtd">
<!-- Generated by graphviz version 2.36.0 (20140111.2315)
 -->
<!-- Title: mars::log_console::ConsoleInterface Pages: 1 -->
<svg width="108pt" height="108pt"
 viewBox="0.00 0.00 108.00 108.00" xmlns="http://www.w3.org/2000/svg" xmlns:xlink="http://www.w3.org/1999/xlink">
<g id="graph0" class="graph" transform="scale(1 1) rotate(0) translate(4 104)">
<title>mars::log_console::ConsoleInterface</title>
<polygon fill="white" stroke="none" points="-4,4 -4,-104 104,-104 104,4 -4,4"/>
<!-- Node1 -->
<g id="node1" class="node"><title>Node1</title>
<polygon fill="#bfbfbf" stroke="black" points="-1,-69 -1,-99 101,-99 101,-69 -1,-69"/>
<text text-anchor="start" x="7" y="-87" font-family="Helvetica,sans-Serif" font-size="10.00">mars::log_console::</text>
<text text-anchor="middle" x="50" y="-76" font-family="Helvetica,sans-Serif" font-size="10.00">ConsoleInterface</text>
</g>
<!-- Node2 -->
<g id="node2" class="node"><title>Node2</title>
<g id="a_node2"><a xlink:href="../../da/d36/classmars_1_1log__console_1_1_main_console.html" target="_top" xlink:title="mars::log_console::\lMainConsole">
<polygon fill="white" stroke="black" points="-1,-1 -1,-31 101,-31 101,-1 -1,-1"/>
<text text-anchor="start" x="7" y="-19" font-family="Helvetica,sans-Serif" font-size="10.00">mars::log_console::</text>
<text text-anchor="middle" x="50" y="-8" font-family="Helvetica,sans-Serif" font-size="10.00">MainConsole</text>
</a>
</g>
</g>
<!-- Node1&#45;&gt;Node2 -->
<g id="edge1" class="edge"><title>Node1&#45;&gt;Node2</title>
<path fill="none" stroke="midnightblue" d="M50,-58.5322C50,-49.3606 50,-39.2449 50,-31.2931"/>
<polygon fill="midnightblue" stroke="midnightblue" points="46.5001,-58.6789 50,-68.679 53.5001,-58.679 46.5001,-58.6789"/>
</g>
</g>
</svg>
