<?xml version="1.0" encoding="UTF-8" standalone="no"?>
<!DOCTYPE svg PUBLIC "-//W3C//DTD SVG 1.1//EN"
 "http://www.w3.org/Graphics/SVG/1.1/DTD/svg11.dtd">
<!-- Generated by graphviz version 2.26.3 (20100126.1600)
 -->
<!-- Title: mars::log_console::ConsoleInterface Pages: 1 -->
<svg width="110pt" height="116pt"
 viewBox="0.00 0.00 110.00 116.00" xmlns="http://www.w3.org/2000/svg" xmlns:xlink="http://www.w3.org/1999/xlink">
<g id="graph1" class="graph" transform="scale(1 1) rotate(0) translate(4 112)">
<title>mars::log_console::ConsoleInterface</title>
<polygon fill="white" stroke="white" points="-4,5 -4,-112 107,-112 107,5 -4,5"/>
<!-- Node1 -->
<g id="node1" class="node"><title>Node1</title>
<polygon fill="#bfbfbf" stroke="black" points="0,-73 0,-107 102,-107 102,-73 0,-73"/>
<text text-anchor="start" x="8" y="-94" font-family="Helvetica,sans-Serif" font-size="10.00">mars::log_console::</text>
<text text-anchor="middle" x="51" y="-81" font-family="Helvetica,sans-Serif" font-size="10.00">ConsoleInterface</text>
</g>
<!-- Node2 -->
<g id="node3" class="node"><title>Node2</title>
<a xlink:href="../../da/d36/classmars_1_1log__console_1_1_main_console.html" target="_top" xlink:title="mars::log_console::\lMainConsole">
<polygon fill="white" stroke="black" points="0,-1 0,-35 102,-35 102,-1 0,-1"/>
<text text-anchor="start" x="8" y="-22" font-family="Helvetica,sans-Serif" font-size="10.00">mars::log_console::</text>
<text text-anchor="middle" x="51" y="-9" font-family="Helvetica,sans-Serif" font-size="10.00">MainConsole</text>
</a>
</g>
<!-- Node1&#45;&gt;Node2 -->
<g id="edge2" class="edge"><title>Node1&#45;&gt;Node2</title>
<path fill="none" stroke="midnightblue" d="M51,-62.7193C51,-53.572 51,-43.6255 51,-35.4407"/>
<polygon fill="midnightblue" stroke="midnightblue" points="47.5001,-62.937 51,-72.937 54.5001,-62.937 47.5001,-62.937"/>
</g>
</g>
</svg>
