<?xml version="1.0" encoding="UTF-8" standalone="no"?>
<!DOCTYPE svg PUBLIC "-//W3C//DTD SVG 1.1//EN"
 "http://www.w3.org/Graphics/SVG/1.1/DTD/svg11.dtd">
<!-- Generated by graphviz version 2.26.3 (20100126.1600)
 -->
<!-- Title: /home/kavonszadkowski/limes&#45;dev/simulation/mars/common/graphics/osg_plot/src/CurveP.h Pages: 1 -->
<svg width="278pt" height="168pt"
 viewBox="0.00 0.00 278.00 168.00" xmlns="http://www.w3.org/2000/svg" xmlns:xlink="http://www.w3.org/1999/xlink">
<g id="graph1" class="graph" transform="scale(1 1) rotate(0) translate(4 164)">
<title>/home/kavonszadkowski/limes&#45;dev/simulation/mars/common/graphics/osg_plot/src/CurveP.h</title>
<polygon fill="white" stroke="white" points="-4,5 -4,-164 275,-164 275,5 -4,5"/>
<!-- Node1 -->
<g id="node1" class="node"><title>Node1</title>
<polygon fill="#bfbfbf" stroke="black" points="73.5,-99 73.5,-159 198.5,-159 198.5,-99 73.5,-99"/>
<text text-anchor="start" x="81.5" y="-146" font-family="Helvetica,sans-Serif" font-size="10.00">/home/kavonszadkowski</text>
<text text-anchor="start" x="81.5" y="-133" font-family="Helvetica,sans-Serif" font-size="10.00">/limes&#45;dev/simulation</text>
<text text-anchor="start" x="81.5" y="-120" font-family="Helvetica,sans-Serif" font-size="10.00">/mars/common/graphics</text>
<text text-anchor="middle" x="136" y="-107" font-family="Helvetica,sans-Serif" font-size="10.00">/osg_plot/src/CurveP.h</text>
</g>
<!-- Node2 -->
<g id="node3" class="node"><title>Node2</title>
<a xlink:href="../../d0/da7/_curve_p_8cpp.html" target="_top" xlink:title="/home/kavonszadkowski\l/limes&#45;dev/simulation\l/mars/common/graphics\l/osg_plot/src/CurveP.cpp">
<polygon fill="white" stroke="black" points="0,-1 0,-61 128,-61 128,-1 0,-1"/>
<text text-anchor="start" x="8" y="-48" font-family="Helvetica,sans-Serif" font-size="10.00">/home/kavonszadkowski</text>
<text text-anchor="start" x="8" y="-35" font-family="Helvetica,sans-Serif" font-size="10.00">/limes&#45;dev/simulation</text>
<text text-anchor="start" x="8" y="-22" font-family="Helvetica,sans-Serif" font-size="10.00">/mars/common/graphics</text>
<text text-anchor="middle" x="64" y="-9" font-family="Helvetica,sans-Serif" font-size="10.00">/osg_plot/src/CurveP.cpp</text>
</a>
</g>
<!-- Node1&#45;&gt;Node2 -->
<g id="edge2" class="edge"><title>Node1&#45;&gt;Node2</title>
<path fill="none" stroke="midnightblue" d="M107.688,-90.4645C100.564,-80.7683 93.0194,-70.4986 86.2405,-61.2718"/>
<polygon fill="midnightblue" stroke="midnightblue" points="105.069,-92.8106 113.81,-98.7971 110.71,-88.666 105.069,-92.8106"/>
</g>
<!-- Node3 -->
<g id="node5" class="node"><title>Node3</title>
<a xlink:href="../../df/d52/_plot_8cpp.html" target="_top" xlink:title="A. ">
<polygon fill="white" stroke="black" points="145.5,-1 145.5,-61 270.5,-61 270.5,-1 145.5,-1"/>
<text text-anchor="start" x="153.5" y="-48" font-family="Helvetica,sans-Serif" font-size="10.00">/home/kavonszadkowski</text>
<text text-anchor="start" x="153.5" y="-35" font-family="Helvetica,sans-Serif" font-size="10.00">/limes&#45;dev/simulation</text>
<text text-anchor="start" x="153.5" y="-22" font-family="Helvetica,sans-Serif" font-size="10.00">/mars/common/graphics</text>
<text text-anchor="middle" x="208" y="-9" font-family="Helvetica,sans-Serif" font-size="10.00">/osg_plot/src/Plot.cpp</text>
</a>
</g>
<!-- Node1&#45;&gt;Node3 -->
<g id="edge4" class="edge"><title>Node1&#45;&gt;Node3</title>
<path fill="none" stroke="midnightblue" d="M164.312,-90.4645C171.436,-80.7683 178.981,-70.4986 185.759,-61.2718"/>
<polygon fill="midnightblue" stroke="midnightblue" points="161.29,-88.666 158.19,-98.7971 166.931,-92.8106 161.29,-88.666"/>
</g>
</g>
</svg>
