<?xml version="1.0" encoding="UTF-8" standalone="no"?>
<!DOCTYPE svg PUBLIC "-//W3C//DTD SVG 1.1//EN"
 "http://www.w3.org/Graphics/SVG/1.1/DTD/svg11.dtd">
<!-- Generated by graphviz version 2.26.3 (20100126.1600)
 -->
<!-- Title: mars::gui::CaptureConfig Pages: 1 -->
<svg width="892pt" height="590pt"
 viewBox="0.00 0.00 892.00 590.00" xmlns="http://www.w3.org/2000/svg" xmlns:xlink="http://www.w3.org/1999/xlink">
<g id="graph1" class="graph" transform="scale(1 1) rotate(0) translate(4 586)">
<title>mars::gui::CaptureConfig</title>
<polygon fill="white" stroke="white" points="-4,5 -4,-586 889,-586 889,5 -4,5"/>
<!-- Node1 -->
<g id="node1" class="node"><title>Node1</title>
<polygon fill="#bfbfbf" stroke="black" points="758,-475.5 758,-496.5 884,-496.5 884,-475.5 758,-475.5"/>
<text text-anchor="middle" x="821" y="-483.5" font-family="Helvetica,sans-Serif" font-size="10.00">mars::gui::CaptureConfig</text>
</g>
<!-- Node2 -->
<g id="node2" class="node"><title>Node2</title>
<polygon fill="white" stroke="#bfbfbf" points="319,-560.5 319,-581.5 373,-581.5 373,-560.5 319,-560.5"/>
<text text-anchor="middle" x="346" y="-568.5" font-family="Helvetica,sans-Serif" font-size="10.00">QThread</text>
</g>
<!-- Node2&#45;&gt;Node1 -->
<g id="edge2" class="edge"><title>Node2&#45;&gt;Node1</title>
<path fill="none" stroke="midnightblue" d="M383.847,-573.933C455.953,-578.099 616.81,-580.507 740,-532 764.076,-522.52 789.698,-506.921 805.528,-496.555"/>
<polygon fill="midnightblue" stroke="midnightblue" points="383.66,-570.414 373.462,-573.284 383.224,-577.401 383.66,-570.414"/>
</g>
<!-- Node20 -->
<g id="node40" class="node"><title>Node20</title>
<a xlink:href="../../d6/d6f/classmars_1_1gui_1_1_image_process.html" target="_top" xlink:title="mars::gui::ImageProcess">
<polygon fill="white" stroke="black" points="527,-521.5 527,-542.5 653,-542.5 653,-521.5 527,-521.5"/>
<text text-anchor="middle" x="590" y="-529.5" font-family="Helvetica,sans-Serif" font-size="10.00">mars::gui::ImageProcess</text>
</a>
</g>
<!-- Node2&#45;&gt;Node20 -->
<g id="edge44" class="edge"><title>Node2&#45;&gt;Node20</title>
<path fill="none" stroke="midnightblue" d="M383.185,-565.056C421.302,-558.964 481.282,-549.377 526.854,-542.093"/>
<polygon fill="midnightblue" stroke="midnightblue" points="382.367,-561.643 373.045,-566.677 383.472,-568.555 382.367,-561.643"/>
</g>
<!-- Node3 -->
<g id="node4" class="node"><title>Node3</title>
<a xlink:href="../../db/dc3/classmars_1_1interfaces_1_1_graphics_camera_interface.html" target="_top" xlink:title="mars::interfaces::Graphics\lCameraInterface">
<polygon fill="white" stroke="black" points="524,-469 524,-503 656,-503 656,-469 524,-469"/>
<text text-anchor="start" x="532" y="-490" font-family="Helvetica,sans-Serif" font-size="10.00">mars::interfaces::Graphics</text>
<text text-anchor="middle" x="590" y="-477" font-family="Helvetica,sans-Serif" font-size="10.00">CameraInterface</text>
</a>
</g>
<!-- Node3&#45;&gt;Node1 -->
<g id="edge4" class="edge"><title>Node3&#45;&gt;Node1</title>
<path fill="none" stroke="#9a32cd" stroke-dasharray="5,2" d="M666.512,-486C696.179,-486 729.734,-486 757.974,-486"/>
<polygon fill="#9a32cd" stroke="#9a32cd" points="666.195,-482.5 656.195,-486 666.195,-489.5 666.195,-482.5"/>
<text text-anchor="middle" x="707" y="-490" font-family="Helvetica,sans-Serif" font-size="10.00"> gc</text>
</g>
<!-- Node4 -->
<g id="node6" class="node"><title>Node4</title>
<a xlink:href="../../d9/d3b/classmars_1_1interfaces_1_1_graphics_window_interface.html" target="_top" xlink:title="mars::interfaces::Graphics\lWindowInterface">
<polygon fill="white" stroke="black" points="524,-417 524,-451 656,-451 656,-417 524,-417"/>
<text text-anchor="start" x="532" y="-438" font-family="Helvetica,sans-Serif" font-size="10.00">mars::interfaces::Graphics</text>
<text text-anchor="middle" x="590" y="-425" font-family="Helvetica,sans-Serif" font-size="10.00">WindowInterface</text>
</a>
</g>
<!-- Node4&#45;&gt;Node1 -->
<g id="edge6" class="edge"><title>Node4&#45;&gt;Node1</title>
<path fill="none" stroke="#9a32cd" stroke-dasharray="5,2" d="M666.101,-451.131C701.803,-459.168 743.212,-468.489 774.229,-475.471"/>
<polygon fill="#9a32cd" stroke="#9a32cd" points="666.72,-447.683 656.195,-448.901 665.183,-454.512 666.72,-447.683"/>
<text text-anchor="middle" x="707" y="-471" font-family="Helvetica,sans-Serif" font-size="10.00"> gw</text>
</g>
<!-- Node5 -->
<g id="node8" class="node"><title>Node5</title>
<a xlink:href="../../d7/d4e/classmars_1_1interfaces_1_1_control_center.html" target="_top" xlink:title="The declaration of the ControlCenter. ">
<polygon fill="white" stroke="black" points="527.5,-274 527.5,-308 652.5,-308 652.5,-274 527.5,-274"/>
<text text-anchor="start" x="535.5" y="-295" font-family="Helvetica,sans-Serif" font-size="10.00">mars::interfaces::Control</text>
<text text-anchor="middle" x="590" y="-282" font-family="Helvetica,sans-Serif" font-size="10.00">Center</text>
</a>
</g>
<!-- Node5&#45;&gt;Node1 -->
<g id="edge8" class="edge"><title>Node5&#45;&gt;Node1</title>
<path fill="none" stroke="#9a32cd" stroke-dasharray="5,2" d="M618.423,-314.993C668.938,-357.636 772.418,-444.989 808.364,-475.333"/>
<polygon fill="#9a32cd" stroke="#9a32cd" points="620.399,-312.081 610.5,-308.305 615.883,-317.43 620.399,-312.081"/>
<text text-anchor="middle" x="707" y="-421" font-family="Helvetica,sans-Serif" font-size="10.00"> control</text>
</g>
<!-- Node6 -->
<g id="node10" class="node"><title>Node6</title>
<a xlink:href="../../d1/d93/classmars_1_1interfaces_1_1_graphics_manager_interface.html" target="_top" xlink:title="mars::interfaces::Graphics\lManagerInterface">
<polygon fill="white" stroke="black" points="280,-508 280,-542 412,-542 412,-508 280,-508"/>
<text text-anchor="start" x="288" y="-529" font-family="Helvetica,sans-Serif" font-size="10.00">mars::interfaces::Graphics</text>
<text text-anchor="middle" x="346" y="-516" font-family="Helvetica,sans-Serif" font-size="10.00">ManagerInterface</text>
</a>
</g>
<!-- Node6&#45;&gt;Node5 -->
<g id="edge10" class="edge"><title>Node6&#45;&gt;Node5</title>
<path fill="none" stroke="#9a32cd" stroke-dasharray="5,2" d="M422.288,-512.387C452.051,-503.875 484.19,-489.669 506,-466 524.29,-446.151 513.309,-432.783 524,-408 539.981,-370.954 564.504,-330.546 578.725,-308.239"/>
<polygon fill="#9a32cd" stroke="#9a32cd" points="421.058,-509.093 412.303,-515.061 422.869,-515.855 421.058,-509.093"/>
<text text-anchor="middle" x="474" y="-508" font-family="Helvetica,sans-Serif" font-size="10.00"> graphics</text>
</g>
<!-- Node7 -->
<g id="node12" class="node"><title>Node7</title>
<polygon fill="white" stroke="#bfbfbf" points="47,-462.5 47,-483.5 115,-483.5 115,-462.5 47,-462.5"/>
<text text-anchor="middle" x="81" y="-470.5" font-family="Helvetica,sans-Serif" font-size="10.00">LibInterface</text>
</g>
<!-- Node7&#45;&gt;Node6 -->
<g id="edge12" class="edge"><title>Node7&#45;&gt;Node6</title>
<path fill="none" stroke="midnightblue" d="M125.064,-481.647C167.239,-489.922 231.411,-502.515 279.747,-511.999"/>
<polygon fill="midnightblue" stroke="midnightblue" points="125.588,-478.183 115.102,-479.692 124.241,-485.052 125.588,-478.183"/>
</g>
<!-- Node11 -->
<g id="node20" class="node"><title>Node11</title>
<a xlink:href="../../d4/da6/classmars_1_1cfg__manager_1_1_c_f_g_manager_interface.html" target="_top" xlink:title="mars::cfg_manager::\lCFGManagerInterface">
<polygon fill="white" stroke="black" points="289.5,-456 289.5,-490 402.5,-490 402.5,-456 289.5,-456"/>
<text text-anchor="start" x="297.5" y="-477" font-family="Helvetica,sans-Serif" font-size="10.00">mars::cfg_manager::</text>
<text text-anchor="middle" x="346" y="-464" font-family="Helvetica,sans-Serif" font-size="10.00">CFGManagerInterface</text>
</a>
</g>
<!-- Node7&#45;&gt;Node11 -->
<g id="edge22" class="edge"><title>Node7&#45;&gt;Node11</title>
<path fill="none" stroke="midnightblue" d="M125.147,-473C170.173,-473 240.21,-473 289.312,-473"/>
<polygon fill="midnightblue" stroke="midnightblue" points="125.102,-469.5 115.102,-473 125.102,-476.5 125.102,-469.5"/>
</g>
<!-- Node12 -->
<g id="node23" class="node"><title>Node12</title>
<a xlink:href="../../d6/d2e/classmars_1_1data__broker_1_1_data_broker_interface.html" target="_top" xlink:title="The interface every DataBroker should implement. ">
<polygon fill="white" stroke="black" points="294,-404 294,-438 398,-438 398,-404 294,-404"/>
<text text-anchor="start" x="302" y="-425" font-family="Helvetica,sans-Serif" font-size="10.00">mars::data_broker::</text>
<text text-anchor="middle" x="346" y="-412" font-family="Helvetica,sans-Serif" font-size="10.00">DataBrokerInterface</text>
</a>
</g>
<!-- Node7&#45;&gt;Node12 -->
<g id="edge26" class="edge"><title>Node7&#45;&gt;Node12</title>
<path fill="none" stroke="midnightblue" d="M125.155,-464.336C171.569,-455.228 244.55,-440.907 293.788,-431.245"/>
<polygon fill="midnightblue" stroke="midnightblue" points="124.241,-460.948 115.102,-466.308 125.588,-467.817 124.241,-460.948"/>
</g>
<!-- Node8 -->
<g id="node14" class="node"><title>Node8</title>
<a xlink:href="../../d2/da9/classmars_1_1interfaces_1_1_controller_manager_interface.html" target="_top" xlink:title="&quot;ControllerManagerInterface&quot; declares the interfaces for all controller operations that are used for ...">
<polygon fill="white" stroke="black" points="278.5,-352 278.5,-386 413.5,-386 413.5,-352 278.5,-352"/>
<text text-anchor="start" x="286.5" y="-373" font-family="Helvetica,sans-Serif" font-size="10.00">mars::interfaces::Controller</text>
<text text-anchor="middle" x="346" y="-360" font-family="Helvetica,sans-Serif" font-size="10.00">ManagerInterface</text>
</a>
</g>
<!-- Node8&#45;&gt;Node5 -->
<g id="edge14" class="edge"><title>Node8&#45;&gt;Node5</title>
<path fill="none" stroke="#9a32cd" stroke-dasharray="5,2" d="M419.698,-349.211C446.967,-341.522 478.04,-332.327 506,-323 519.471,-318.506 533.98,-313.164 547.085,-308.144"/>
<polygon fill="#9a32cd" stroke="#9a32cd" points="418.521,-345.905 409.836,-351.973 420.409,-352.646 418.521,-345.905"/>
<text text-anchor="middle" x="474" y="-345" font-family="Helvetica,sans-Serif" font-size="10.00"> controllers</text>
</g>
<!-- Node9 -->
<g id="node16" class="node"><title>Node9</title>
<a xlink:href="../../d6/d60/classmars_1_1interfaces_1_1_joint_manager_interface.html" target="_top" xlink:title="Interface class for the node organization. ">
<polygon fill="white" stroke="black" points="270,-300 270,-334 422,-334 422,-300 270,-300"/>
<text text-anchor="start" x="278" y="-321" font-family="Helvetica,sans-Serif" font-size="10.00">mars::interfaces::JointManager</text>
<text text-anchor="middle" x="346" y="-308" font-family="Helvetica,sans-Serif" font-size="10.00">Interface</text>
</a>
</g>
<!-- Node9&#45;&gt;Node5 -->
<g id="edge16" class="edge"><title>Node9&#45;&gt;Node5</title>
<path fill="none" stroke="#9a32cd" stroke-dasharray="5,2" d="M432.259,-307.809C463.652,-304.463 498.509,-300.749 527.455,-297.665"/>
<polygon fill="#9a32cd" stroke="#9a32cd" points="431.772,-304.34 422.199,-308.88 432.514,-311.301 431.772,-304.34"/>
<text text-anchor="middle" x="474" y="-310" font-family="Helvetica,sans-Serif" font-size="10.00"> joints</text>
</g>
<!-- Node10 -->
<g id="node18" class="node"><title>Node10</title>
<a xlink:href="../../df/d82/classmars_1_1interfaces_1_1_entity_manager_interface.html" target="_top" xlink:title="mars::interfaces::Entity\lManagerInterface">
<polygon fill="white" stroke="black" points="286.5,-248 286.5,-282 405.5,-282 405.5,-248 286.5,-248"/>
<text text-anchor="start" x="294.5" y="-269" font-family="Helvetica,sans-Serif" font-size="10.00">mars::interfaces::Entity</text>
<text text-anchor="middle" x="346" y="-256" font-family="Helvetica,sans-Serif" font-size="10.00">ManagerInterface</text>
</a>
</g>
<!-- Node10&#45;&gt;Node5 -->
<g id="edge18" class="edge"><title>Node10&#45;&gt;Node5</title>
<path fill="none" stroke="#9a32cd" stroke-dasharray="5,2" d="M415.85,-272.443C450.911,-276.179 493.049,-280.669 527.093,-284.297"/>
<polygon fill="#9a32cd" stroke="#9a32cd" points="416.004,-268.94 405.689,-271.36 415.262,-275.9 416.004,-268.94"/>
<text text-anchor="middle" x="474" y="-285" font-family="Helvetica,sans-Serif" font-size="10.00"> entities</text>
</g>
<!-- Node11&#45;&gt;Node5 -->
<g id="edge20" class="edge"><title>Node11&#45;&gt;Node5</title>
<path fill="none" stroke="#9a32cd" stroke-dasharray="5,2" d="M412.471,-460.202C443.285,-451.788 478.975,-438.268 506,-417 544.014,-387.083 570.777,-335.08 582.825,-308.195"/>
<polygon fill="#9a32cd" stroke="#9a32cd" points="411.451,-456.851 402.655,-462.758 413.214,-463.625 411.451,-456.851"/>
<text text-anchor="middle" x="474" y="-453" font-family="Helvetica,sans-Serif" font-size="10.00"> cfg</text>
</g>
<!-- Node12&#45;&gt;Node5 -->
<g id="edge24" class="edge"><title>Node12&#45;&gt;Node5</title>
<path fill="none" stroke="#9a32cd" stroke-dasharray="5,2" d="M408.05,-400.96C413.47,-399.015 418.849,-397.015 424,-395 461.236,-380.437 471.884,-378.85 506,-358 530.035,-343.311 554.941,-322.64 571.328,-308.155"/>
<polygon fill="#9a32cd" stroke="#9a32cd" points="406.565,-397.772 398.291,-404.39 408.886,-404.376 406.565,-397.772"/>
<text text-anchor="middle" x="474" y="-404" font-family="Helvetica,sans-Serif" font-size="10.00"> dataBroker</text>
<text text-anchor="middle" x="474" y="-391" font-family="Helvetica,sans-Serif" font-size="10.00">theDataBroker</text>
</g>
<!-- Node13 -->
<g id="node26" class="node"><title>Node13</title>
<a xlink:href="../../db/da9/classmars_1_1interfaces_1_1_sensor_manager_interface.html" target="_top" xlink:title="&quot;SensorManagerInterface&quot; declares the interfaces for all sensor operations that are used for the comm...">
<polygon fill="white" stroke="black" points="284,-196 284,-230 408,-230 408,-196 284,-196"/>
<text text-anchor="start" x="292" y="-217" font-family="Helvetica,sans-Serif" font-size="10.00">mars::interfaces::Sensor</text>
<text text-anchor="middle" x="346" y="-204" font-family="Helvetica,sans-Serif" font-size="10.00">ManagerInterface</text>
</a>
</g>
<!-- Node13&#45;&gt;Node5 -->
<g id="edge28" class="edge"><title>Node13&#45;&gt;Node5</title>
<path fill="none" stroke="#9a32cd" stroke-dasharray="5,2" d="M418.345,-231.695C445.962,-239.262 477.62,-248.461 506,-258 520.109,-262.742 535.315,-268.509 548.859,-273.888"/>
<polygon fill="#9a32cd" stroke="#9a32cd" points="418.934,-228.228 408.366,-228.983 417.098,-234.983 418.934,-228.228"/>
<text text-anchor="middle" x="474" y="-262" font-family="Helvetica,sans-Serif" font-size="10.00"> sensors</text>
</g>
<!-- Node14 -->
<g id="node28" class="node"><title>Node14</title>
<a xlink:href="../../db/de9/classmars_1_1interfaces_1_1_motor_manager_interface.html" target="_top" xlink:title="&quot;MotorManagerInterface&quot; declares the interfaces for all motor operations that are used for the commun...">
<polygon fill="white" stroke="black" points="268.5,-144 268.5,-178 423.5,-178 423.5,-144 268.5,-144"/>
<text text-anchor="start" x="276.5" y="-165" font-family="Helvetica,sans-Serif" font-size="10.00">mars::interfaces::MotorManager</text>
<text text-anchor="middle" x="346" y="-152" font-family="Helvetica,sans-Serif" font-size="10.00">Interface</text>
</a>
</g>
<!-- Node14&#45;&gt;Node5 -->
<g id="edge30" class="edge"><title>Node14&#45;&gt;Node5</title>
<path fill="none" stroke="#9a32cd" stroke-dasharray="5,2" d="M408.531,-181.34C413.783,-183.201 418.995,-185.101 424,-187 461.049,-201.055 472.126,-201.439 506,-222 530.684,-236.983 555.867,-258.703 572.136,-273.755"/>
<polygon fill="#9a32cd" stroke="#9a32cd" points="409.667,-178.03 399.073,-178.043 407.363,-184.64 409.667,-178.03"/>
<text text-anchor="middle" x="474" y="-226" font-family="Helvetica,sans-Serif" font-size="10.00"> motors</text>
</g>
<!-- Node15 -->
<g id="node30" class="node"><title>Node15</title>
<a xlink:href="../../d9/d6a/classmars_1_1interfaces_1_1_load_center.html" target="_top" xlink:title="mars::interfaces::LoadCenter">
<polygon fill="white" stroke="black" points="274.5,-104.5 274.5,-125.5 417.5,-125.5 417.5,-104.5 274.5,-104.5"/>
<text text-anchor="middle" x="346" y="-112.5" font-family="Helvetica,sans-Serif" font-size="10.00">mars::interfaces::LoadCenter</text>
</a>
</g>
<!-- Node15&#45;&gt;Node5 -->
<g id="edge32" class="edge"><title>Node15&#45;&gt;Node5</title>
<path fill="none" stroke="#9a32cd" stroke-dasharray="5,2" d="M406.827,-128.231C439.059,-137.63 477.717,-152.956 506,-177 539.528,-205.503 567.237,-249.881 580.873,-274"/>
<polygon fill="#9a32cd" stroke="#9a32cd" points="407.622,-124.819 397.049,-125.501 405.74,-131.561 407.622,-124.819"/>
<text text-anchor="middle" x="474" y="-181" font-family="Helvetica,sans-Serif" font-size="10.00"> loadCenter</text>
</g>
<!-- Node16 -->
<g id="node32" class="node"><title>Node16</title>
<a xlink:href="../../d1/d51/classmars_1_1interfaces_1_1_load_heightmap_interface.html" target="_top" xlink:title="mars::interfaces::LoadHeightmap\lInterface">
<polygon fill="white" stroke="black" points="0.5,-124 0.5,-158 161.5,-158 161.5,-124 0.5,-124"/>
<text text-anchor="start" x="8.5" y="-145" font-family="Helvetica,sans-Serif" font-size="10.00">mars::interfaces::LoadHeightmap</text>
<text text-anchor="middle" x="81" y="-132" font-family="Helvetica,sans-Serif" font-size="10.00">Interface</text>
</a>
</g>
<!-- Node16&#45;&gt;Node15 -->
<g id="edge34" class="edge"><title>Node16&#45;&gt;Node15</title>
<path fill="none" stroke="#9a32cd" stroke-dasharray="5,2" d="M171.844,-132.087C205.335,-128.801 242.778,-125.127 274.339,-122.031"/>
<polygon fill="#9a32cd" stroke="#9a32cd" points="171.198,-128.633 161.588,-133.093 171.882,-135.6 171.198,-128.633"/>
<text text-anchor="middle" x="215" y="-135" font-family="Helvetica,sans-Serif" font-size="10.00"> loadHeightmap</text>
</g>
<!-- Node17 -->
<g id="node34" class="node"><title>Node17</title>
<a xlink:href="../../d7/d02/classmars_1_1interfaces_1_1_load_mesh_interface.html" target="_top" xlink:title="mars::interfaces::LoadMesh\lInterface">
<polygon fill="white" stroke="black" points="12,-72 12,-106 150,-106 150,-72 12,-72"/>
<text text-anchor="start" x="20" y="-93" font-family="Helvetica,sans-Serif" font-size="10.00">mars::interfaces::LoadMesh</text>
<text text-anchor="middle" x="81" y="-80" font-family="Helvetica,sans-Serif" font-size="10.00">Interface</text>
</a>
</g>
<!-- Node17&#45;&gt;Node15 -->
<g id="edge36" class="edge"><title>Node17&#45;&gt;Node15</title>
<path fill="none" stroke="#9a32cd" stroke-dasharray="5,2" d="M160.315,-96.7819C196.535,-100.336 239.113,-104.513 274.353,-107.971"/>
<polygon fill="#9a32cd" stroke="#9a32cd" points="160.573,-93.2905 150.279,-95.7972 159.89,-100.257 160.573,-93.2905"/>
<text text-anchor="middle" x="215" y="-109" font-family="Helvetica,sans-Serif" font-size="10.00"> loadMesh</text>
</g>
<!-- Node18 -->
<g id="node36" class="node"><title>Node18</title>
<a xlink:href="../../d7/d4c/classmars_1_1interfaces_1_1_node_manager_interface.html" target="_top" xlink:title="&quot;NodeManagerInterface&quot; declares the interfaces for all NodeOperations that are used for the communica...">
<polygon fill="white" stroke="black" points="269,-52 269,-86 423,-86 423,-52 269,-52"/>
<text text-anchor="start" x="277" y="-73" font-family="Helvetica,sans-Serif" font-size="10.00">mars::interfaces::NodeManager</text>
<text text-anchor="middle" x="346" y="-60" font-family="Helvetica,sans-Serif" font-size="10.00">Interface</text>
</a>
</g>
<!-- Node18&#45;&gt;Node5 -->
<g id="edge38" class="edge"><title>Node18&#45;&gt;Node5</title>
<path fill="none" stroke="#9a32cd" stroke-dasharray="5,2" d="M432.981,-85.5045C458.725,-93.7149 485.482,-105.919 506,-124 553.359,-165.734 577.243,-240.451 585.985,-273.942"/>
<polygon fill="#9a32cd" stroke="#9a32cd" points="433.763,-82.0849 423.179,-82.5494 431.743,-88.787 433.763,-82.0849"/>
<text text-anchor="middle" x="474" y="-128" font-family="Helvetica,sans-Serif" font-size="10.00"> nodes</text>
</g>
<!-- Node19 -->
<g id="node38" class="node"><title>Node19</title>
<a xlink:href="../../dc/de5/classmars_1_1interfaces_1_1_simulator_interface.html" target="_top" xlink:title="mars::interfaces::Simulator\lInterface">
<polygon fill="white" stroke="black" points="279,-0 279,-34 413,-34 413,-0 279,-0"/>
<text text-anchor="start" x="287" y="-21" font-family="Helvetica,sans-Serif" font-size="10.00">mars::interfaces::Simulator</text>
<text text-anchor="middle" x="346" y="-8" font-family="Helvetica,sans-Serif" font-size="10.00">Interface</text>
</a>
</g>
<!-- Node19&#45;&gt;Node5 -->
<g id="edge40" class="edge"><title>Node19&#45;&gt;Node5</title>
<path fill="none" stroke="#9a32cd" stroke-dasharray="5,2" d="M423.008,-28.5649C452.088,-36.3408 483.539,-49.3267 506,-71 565.576,-128.487 583.46,-232.683 588.333,-273.723"/>
<polygon fill="#9a32cd" stroke="#9a32cd" points="423.804,-25.1563 413.254,-26.1226 422.104,-31.9467 423.804,-25.1563"/>
<text text-anchor="middle" x="474" y="-75" font-family="Helvetica,sans-Serif" font-size="10.00"> sim</text>
</g>
<!-- Node20&#45;&gt;Node1 -->
<g id="edge42" class="edge"><title>Node20&#45;&gt;Node1</title>
<path fill="none" stroke="#9a32cd" stroke-dasharray="5,2" d="M655.457,-519.579C681.751,-514.528 712.333,-508.577 740,-503 750.142,-500.956 760.986,-498.716 771.335,-496.554"/>
<polygon fill="#9a32cd" stroke="#9a32cd" points="654.767,-516.148 645.605,-521.468 656.085,-523.022 654.767,-516.148"/>
<text text-anchor="middle" x="707" y="-519" font-family="Helvetica,sans-Serif" font-size="10.00"> imageProcess</text>
</g>
</g>
</svg>
