<?xml version="1.0" encoding="UTF-8" standalone="no"?>
<!DOCTYPE svg PUBLIC "-//W3C//DTD SVG 1.1//EN"
 "http://www.w3.org/Graphics/SVG/1.1/DTD/svg11.dtd">
<!-- Generated by graphviz version 2.36.0 (20140111.2315)
 -->
<!-- Title: mars::cfg_manager::CFGParam Pages: 1 -->
<svg width="220pt" height="198pt"
 viewBox="0.00 0.00 220.00 198.00" xmlns="http://www.w3.org/2000/svg" xmlns:xlink="http://www.w3.org/1999/xlink">
<g id="graph0" class="graph" transform="scale(1 1) rotate(0) translate(4 194)">
<title>mars::cfg_manager::CFGParam</title>
<polygon fill="white" stroke="none" points="-4,4 -4,-194 216,-194 216,4 -4,4"/>
<!-- Node1 -->
<g id="node1" class="node"><title>Node1</title>
<polygon fill="#bfbfbf" stroke="black" points="62.5,-1 62.5,-31 169.5,-31 169.5,-1 62.5,-1"/>
<text text-anchor="start" x="70.5" y="-19" font-family="Helvetica,sans-Serif" font-size="10.00">mars::cfg_manager::</text>
<text text-anchor="middle" x="116" y="-8" font-family="Helvetica,sans-Serif" font-size="10.00">CFGParam</text>
</g>
<!-- Node2 -->
<g id="node2" class="node"><title>Node2</title>
<g id="a_node2"><a xlink:href="../../d6/d90/classmars_1_1utils_1_1_mutex.html" target="_top" xlink:title="mars::utils::Mutex">
<polygon fill="white" stroke="black" points="16.5,-90.5 16.5,-109.5 111.5,-109.5 111.5,-90.5 16.5,-90.5"/>
<text text-anchor="middle" x="64" y="-97.5" font-family="Helvetica,sans-Serif" font-size="10.00">mars::utils::Mutex</text>
</a>
</g>
</g>
<!-- Node2&#45;&gt;Node1 -->
<g id="edge1" class="edge"><title>Node2&#45;&gt;Node1</title>
<path fill="none" stroke="#9a32cd" stroke-dasharray="5,2" d="M60.3855,-80.276C59.4811,-70.6565 59.9387,-59.0814 65,-50 69.364,-42.1698 76.4525,-35.9013 83.9751,-31.0206"/>
<polygon fill="#9a32cd" stroke="#9a32cd" points="56.9574,-81.0211 61.8787,-90.4036 63.8825,-80 56.9574,-81.0211"/>
<text text-anchor="middle" x="106" y="-64" font-family="Helvetica,sans-Serif" font-size="10.00"> mutexCFGClients</text>
<text text-anchor="middle" x="106" y="-53" font-family="Helvetica,sans-Serif" font-size="10.00">mutexPropertys</text>
</g>
<!-- Node3 -->
<g id="node3" class="node"><title>Node3</title>
<g id="a_node3"><a xlink:href="../../d6/d9e/structmars_1_1utils_1_1_pthread_mutex_wrapper.html" target="_top" xlink:title="mars::utils::PthreadMutex\lWrapper">
<polygon fill="white" stroke="black" points="-0.5,-159 -0.5,-189 128.5,-189 128.5,-159 -0.5,-159"/>
<text text-anchor="start" x="7.5" y="-177" font-family="Helvetica,sans-Serif" font-size="10.00">mars::utils::PthreadMutex</text>
<text text-anchor="middle" x="64" y="-166" font-family="Helvetica,sans-Serif" font-size="10.00">Wrapper</text>
</a>
</g>
</g>
<!-- Node3&#45;&gt;Node2 -->
<g id="edge2" class="edge"><title>Node3&#45;&gt;Node2</title>
<path fill="none" stroke="#9a32cd" stroke-dasharray="5,2" d="M64,-148.688C64,-135.253 64,-119.38 64,-109.759"/>
<polygon fill="#9a32cd" stroke="#9a32cd" points="60.5001,-148.775 64,-158.775 67.5001,-148.775 60.5001,-148.775"/>
<text text-anchor="middle" x="86" y="-131.5" font-family="Helvetica,sans-Serif" font-size="10.00"> myMutex</text>
</g>
<!-- Node4 -->
<g id="node4" class="node"><title>Node4</title>
<polygon fill="white" stroke="#bfbfbf" points="148.5,-90.5 148.5,-109.5 189.5,-109.5 189.5,-90.5 148.5,-90.5"/>
<text text-anchor="middle" x="169" y="-97.5" font-family="Helvetica,sans-Serif" font-size="10.00">string</text>
</g>
<!-- Node4&#45;&gt;Node1 -->
<g id="edge3" class="edge"><title>Node4&#45;&gt;Node1</title>
<path fill="none" stroke="#9a32cd" stroke-dasharray="5,2" d="M162.421,-80.5734C158.609,-71.0494 153.315,-59.4702 147,-50 142.552,-43.3291 136.727,-36.7353 131.329,-31.2161"/>
<polygon fill="#9a32cd" stroke="#9a32cd" points="159.261,-82.1134 166.069,-90.2311 165.809,-79.6394 159.261,-82.1134"/>
<text text-anchor="middle" x="185" y="-64" font-family="Helvetica,sans-Serif" font-size="10.00"> group</text>
<text text-anchor="middle" x="185" y="-53" font-family="Helvetica,sans-Serif" font-size="10.00">paramName</text>
</g>
</g>
</svg>
