<?xml version="1.0" encoding="UTF-8" standalone="no"?>
<!DOCTYPE svg PUBLIC "-//W3C//DTD SVG 1.1//EN"
 "http://www.w3.org/Graphics/SVG/1.1/DTD/svg11.dtd">
<!-- Generated by graphviz version 2.26.3 (20100126.1600)
 -->
<!-- Title: /home/kavonszadkowski/limes&#45;dev/simulation/mars/common/gui/lib_manager_gui/src/LibManagerWidget.h Pages: 1 -->
<svg width="816pt" height="142pt"
 viewBox="0.00 0.00 816.00 142.00" xmlns="http://www.w3.org/2000/svg" xmlns:xlink="http://www.w3.org/1999/xlink">
<g id="graph1" class="graph" transform="scale(1 1) rotate(0) translate(4 138)">
<title>/home/kavonszadkowski/limes&#45;dev/simulation/mars/common/gui/lib_manager_gui/src/LibManagerWidget.h</title>
<polygon fill="white" stroke="white" points="-4,5 -4,-138 813,-138 813,5 -4,5"/>
<!-- Node1 -->
<g id="node1" class="node"><title>Node1</title>
<polygon fill="#bfbfbf" stroke="black" points="373.5,-73 373.5,-133 526.5,-133 526.5,-73 373.5,-73"/>
<text text-anchor="start" x="381.5" y="-120" font-family="Helvetica,sans-Serif" font-size="10.00">/home/kavonszadkowski</text>
<text text-anchor="start" x="381.5" y="-107" font-family="Helvetica,sans-Serif" font-size="10.00">/limes&#45;dev/simulation</text>
<text text-anchor="start" x="381.5" y="-94" font-family="Helvetica,sans-Serif" font-size="10.00">/mars/common/gui/lib_manager</text>
<text text-anchor="middle" x="450" y="-81" font-family="Helvetica,sans-Serif" font-size="10.00">_gui/src/LibManagerWidget.h</text>
</g>
<!-- Node2 -->
<g id="node3" class="node"><title>Node2</title>
<polygon fill="white" stroke="#bfbfbf" points="-0.5,-7.5 -0.5,-28.5 144.5,-28.5 144.5,-7.5 -0.5,-7.5"/>
<text text-anchor="middle" x="72" y="-15.5" font-family="Helvetica,sans-Serif" font-size="10.00">mars/main_gui/BaseWidget.h</text>
</g>
<!-- Node1&#45;&gt;Node2 -->
<g id="edge2" class="edge"><title>Node1&#45;&gt;Node2</title>
<path fill="none" stroke="midnightblue" d="M373.05,-85.6965C300.618,-69.4088 193.822,-45.3938 128.814,-30.7757"/>
<polygon fill="midnightblue" stroke="midnightblue" points="129.275,-27.2921 118.751,-28.5128 127.74,-34.1215 129.275,-27.2921"/>
</g>
<!-- Node3 -->
<g id="node5" class="node"><title>Node3</title>
<polygon fill="white" stroke="#bfbfbf" points="161.5,-1 161.5,-35 320.5,-35 320.5,-1 161.5,-1"/>
<text text-anchor="start" x="169.5" y="-22" font-family="Helvetica,sans-Serif" font-size="10.00">mars/cfg_manager/CFGManager</text>
<text text-anchor="middle" x="241" y="-9" font-family="Helvetica,sans-Serif" font-size="10.00">Interface.h</text>
</g>
<!-- Node1&#45;&gt;Node3 -->
<g id="edge4" class="edge"><title>Node1&#45;&gt;Node3</title>
<path fill="none" stroke="midnightblue" d="M376.02,-72.9126C348.323,-61.6481 317.49,-49.1085 292.289,-38.8591"/>
<polygon fill="midnightblue" stroke="midnightblue" points="293.506,-35.5758 282.924,-35.0505 290.869,-42.06 293.506,-35.5758"/>
</g>
<!-- Node4 -->
<g id="node7" class="node"><title>Node4</title>
<polygon fill="white" stroke="#bfbfbf" points="337.5,-7.5 337.5,-28.5 378.5,-28.5 378.5,-7.5 337.5,-7.5"/>
<text text-anchor="middle" x="358" y="-15.5" font-family="Helvetica,sans-Serif" font-size="10.00">string</text>
</g>
<!-- Node1&#45;&gt;Node4 -->
<g id="edge6" class="edge"><title>Node1&#45;&gt;Node4</title>
<path fill="none" stroke="midnightblue" d="M417.305,-72.7928C403.877,-60.3863 388.793,-46.4505 377.199,-35.7379"/>
<polygon fill="midnightblue" stroke="midnightblue" points="379.512,-33.1103 369.792,-28.8949 374.762,-38.2518 379.512,-33.1103"/>
</g>
<!-- Node5 -->
<g id="node9" class="node"><title>Node5</title>
<polygon fill="white" stroke="#bfbfbf" points="395.5,-7.5 395.5,-28.5 430.5,-28.5 430.5,-7.5 395.5,-7.5"/>
<text text-anchor="middle" x="413" y="-15.5" font-family="Helvetica,sans-Serif" font-size="10.00">map</text>
</g>
<!-- Node1&#45;&gt;Node5 -->
<g id="edge8" class="edge"><title>Node1&#45;&gt;Node5</title>
<path fill="none" stroke="midnightblue" d="M436.851,-72.7928C431.866,-61.3406 426.314,-48.5854 421.821,-38.2651"/>
<polygon fill="midnightblue" stroke="midnightblue" points="424.943,-36.667 417.742,-28.8949 418.525,-39.4609 424.943,-36.667"/>
</g>
<!-- Node6 -->
<g id="node11" class="node"><title>Node6</title>
<polygon fill="white" stroke="#bfbfbf" points="447.5,-7.5 447.5,-28.5 526.5,-28.5 526.5,-7.5 447.5,-7.5"/>
<text text-anchor="middle" x="487" y="-15.5" font-family="Helvetica,sans-Serif" font-size="10.00">QTableWidget</text>
</g>
<!-- Node1&#45;&gt;Node6 -->
<g id="edge10" class="edge"><title>Node1&#45;&gt;Node6</title>
<path fill="none" stroke="midnightblue" d="M463.149,-72.7928C468.134,-61.3406 473.686,-48.5854 478.179,-38.2651"/>
<polygon fill="midnightblue" stroke="midnightblue" points="481.475,-39.4609 482.258,-28.8949 475.057,-36.667 481.475,-39.4609"/>
</g>
<!-- Node7 -->
<g id="node13" class="node"><title>Node7</title>
<polygon fill="white" stroke="#bfbfbf" points="543.5,-7.5 543.5,-28.5 618.5,-28.5 618.5,-7.5 543.5,-7.5"/>
<text text-anchor="middle" x="581" y="-15.5" font-family="Helvetica,sans-Serif" font-size="10.00">QPushButton</text>
</g>
<!-- Node1&#45;&gt;Node7 -->
<g id="edge12" class="edge"><title>Node1&#45;&gt;Node7</title>
<path fill="none" stroke="midnightblue" d="M496.555,-72.7928C516.535,-59.8286 539.088,-45.1945 555.858,-34.3133"/>
<polygon fill="midnightblue" stroke="midnightblue" points="558.043,-37.0679 564.527,-28.6886 554.233,-31.1957 558.043,-37.0679"/>
</g>
<!-- Node8 -->
<g id="node15" class="node"><title>Node8</title>
<polygon fill="white" stroke="#bfbfbf" points="636,-7.5 636,-28.5 714,-28.5 714,-7.5 636,-7.5"/>
<text text-anchor="middle" x="675" y="-15.5" font-family="Helvetica,sans-Serif" font-size="10.00">QHBoxLayout</text>
</g>
<!-- Node1&#45;&gt;Node8 -->
<g id="edge14" class="edge"><title>Node1&#45;&gt;Node8</title>
<path fill="none" stroke="midnightblue" d="M526.803,-73.9856C564.09,-59.8994 607.213,-43.6084 637.293,-32.2447"/>
<polygon fill="midnightblue" stroke="midnightblue" points="638.85,-35.3983 646.967,-28.5901 636.376,-28.85 638.85,-35.3983"/>
</g>
<!-- Node9 -->
<g id="node17" class="node"><title>Node9</title>
<polygon fill="white" stroke="#bfbfbf" points="731.5,-7.5 731.5,-28.5 808.5,-28.5 808.5,-7.5 731.5,-7.5"/>
<text text-anchor="middle" x="770" y="-15.5" font-family="Helvetica,sans-Serif" font-size="10.00">QVBoxLayout</text>
</g>
<!-- Node1&#45;&gt;Node9 -->
<g id="edge16" class="edge"><title>Node1&#45;&gt;Node9</title>
<path fill="none" stroke="midnightblue" d="M526.607,-86.8938C581.72,-74.6548 657.56,-56.4729 723,-36 726.74,-34.8301 730.611,-33.5177 734.454,-32.1487"/>
<polygon fill="midnightblue" stroke="midnightblue" points="735.686,-35.4249 743.854,-28.6778 733.261,-28.8582 735.686,-35.4249"/>
</g>
</g>
</svg>
