<?xml version="1.0" encoding="UTF-8" standalone="no"?>
<!DOCTYPE svg PUBLIC "-//W3C//DTD SVG 1.1//EN"
 "http://www.w3.org/Graphics/SVG/1.1/DTD/svg11.dtd">
<!-- Generated by graphviz version 2.26.3 (20100126.1600)
 -->
<!-- Title: /home/kavonszadkowski/limes&#45;dev/simulation/mars/gui/src/dialogs/CameraConfig/CameraConfigurator.h Pages: 1 -->
<svg width="404pt" height="168pt"
 viewBox="0.00 0.00 404.00 168.00" xmlns="http://www.w3.org/2000/svg" xmlns:xlink="http://www.w3.org/1999/xlink">
<g id="graph1" class="graph" transform="scale(1 1) rotate(0) translate(4 164)">
<title>/home/kavonszadkowski/limes&#45;dev/simulation/mars/gui/src/dialogs/CameraConfig/CameraConfigurator.h</title>
<polygon fill="white" stroke="white" points="-4,5 -4,-164 401,-164 401,5 -4,5"/>
<!-- Node1 -->
<g id="node1" class="node"><title>Node1</title>
<polygon fill="#bfbfbf" stroke="black" points="108,-99 108,-159 290,-159 290,-99 108,-99"/>
<text text-anchor="start" x="116" y="-146" font-family="Helvetica,sans-Serif" font-size="10.00">/home/kavonszadkowski</text>
<text text-anchor="start" x="116" y="-133" font-family="Helvetica,sans-Serif" font-size="10.00">/limes&#45;dev/simulation</text>
<text text-anchor="start" x="116" y="-120" font-family="Helvetica,sans-Serif" font-size="10.00">/mars/gui/src/dialogs</text>
<text text-anchor="middle" x="199" y="-107" font-family="Helvetica,sans-Serif" font-size="10.00">/CameraConfig/CameraConfigurator.h</text>
</g>
<!-- Node2 -->
<g id="node3" class="node"><title>Node2</title>
<a xlink:href="../../d7/de1/_camera_configurator_8cpp.html" target="_top" xlink:title="&quot;CameraConfigurator&quot; provides some options to setup the camera of a 3d window ">
<polygon fill="white" stroke="black" points="0,-1 0,-61 192,-61 192,-1 0,-1"/>
<text text-anchor="start" x="8" y="-48" font-family="Helvetica,sans-Serif" font-size="10.00">/home/kavonszadkowski</text>
<text text-anchor="start" x="8" y="-35" font-family="Helvetica,sans-Serif" font-size="10.00">/limes&#45;dev/simulation</text>
<text text-anchor="start" x="8" y="-22" font-family="Helvetica,sans-Serif" font-size="10.00">/mars/gui/src/dialogs</text>
<text text-anchor="middle" x="96" y="-9" font-family="Helvetica,sans-Serif" font-size="10.00">/CameraConfig/CameraConfigurator.cpp</text>
</a>
</g>
<!-- Node1&#45;&gt;Node2 -->
<g id="edge2" class="edge"><title>Node1&#45;&gt;Node2</title>
<path fill="none" stroke="midnightblue" d="M159.731,-91.6368C149.181,-81.5998 137.906,-70.8714 127.816,-61.2718"/>
<polygon fill="midnightblue" stroke="midnightblue" points="157.599,-94.4397 167.256,-98.7971 162.424,-89.3684 157.599,-94.4397"/>
</g>
<!-- Node3 -->
<g id="node5" class="node"><title>Node3</title>
<a xlink:href="../../d0/de2/_menu_window_8cpp.html" target="_top" xlink:title="MenuWindow creates the menus and menu items in the Window menu of the simulation and manages the wind...">
<polygon fill="white" stroke="black" points="209.5,-7.5 209.5,-54.5 396.5,-54.5 396.5,-7.5 209.5,-7.5"/>
<text text-anchor="start" x="217.5" y="-41.5" font-family="Helvetica,sans-Serif" font-size="10.00">/home/kavonszadkowski</text>
<text text-anchor="start" x="217.5" y="-28.5" font-family="Helvetica,sans-Serif" font-size="10.00">/limes&#45;dev/simulation</text>
<text text-anchor="middle" x="303" y="-15.5" font-family="Helvetica,sans-Serif" font-size="10.00">/mars/gui/src/menus/MenuWindow.cpp</text>
</a>
</g>
<!-- Node1&#45;&gt;Node3 -->
<g id="edge4" class="edge"><title>Node1&#45;&gt;Node3</title>
<path fill="none" stroke="midnightblue" d="M238.639,-91.6479C251.791,-79.2544 266.063,-65.8056 277.818,-54.7289"/>
<polygon fill="midnightblue" stroke="midnightblue" points="235.93,-89.3918 231.052,-98.7971 240.73,-94.4863 235.93,-89.3918"/>
</g>
</g>
</svg>
