<?xml version="1.0" encoding="UTF-8" standalone="no"?>
<!DOCTYPE svg PUBLIC "-//W3C//DTD SVG 1.1//EN"
 "http://www.w3.org/Graphics/SVG/1.1/DTD/svg11.dtd">
<!-- Generated by graphviz version 2.26.3 (20100126.1600)
 -->
<!-- Title: mars::graphics::lightmanager Pages: 1 -->
<svg width="167pt" height="200pt"
 viewBox="0.00 0.00 167.00 200.00" xmlns="http://www.w3.org/2000/svg" xmlns:xlink="http://www.w3.org/1999/xlink">
<g id="graph1" class="graph" transform="scale(1 1) rotate(0) translate(4 196)">
<title>mars::graphics::lightmanager</title>
<polygon fill="white" stroke="white" points="-4,5 -4,-196 164,-196 164,5 -4,5"/>
<!-- Node1 -->
<g id="node1" class="node"><title>Node1</title>
<polygon fill="#bfbfbf" stroke="black" points="-0.5,-0.5 -0.5,-21.5 142.5,-21.5 142.5,-0.5 -0.5,-0.5"/>
<text text-anchor="middle" x="71" y="-8.5" font-family="Helvetica,sans-Serif" font-size="10.00">mars::graphics::lightmanager</text>
</g>
<!-- Node2 -->
<g id="node2" class="node"><title>Node2</title>
<a xlink:href="../../d4/d71/classmars_1_1interfaces_1_1_light_data.html" target="_top" xlink:title="LightData is a struct to exchange light information between the Dialog_Add_Light, the MainWindow and ...">
<polygon fill="white" stroke="black" points="3.5,-72.5 3.5,-93.5 138.5,-93.5 138.5,-72.5 3.5,-72.5"/>
<text text-anchor="middle" x="71" y="-80.5" font-family="Helvetica,sans-Serif" font-size="10.00">mars::interfaces::LightData</text>
</a>
</g>
<!-- Node2&#45;&gt;Node1 -->
<g id="edge2" class="edge"><title>Node2&#45;&gt;Node1</title>
<path fill="none" stroke="#9a32cd" stroke-dasharray="5,2" d="M71,-62.2348C71,-48.969 71,-32.3188 71,-21.6674"/>
<polygon fill="#9a32cd" stroke="#9a32cd" points="67.5001,-62.3761 71,-72.3762 74.5001,-62.3762 67.5001,-62.3761"/>
<text text-anchor="middle" x="87" y="-44.5" font-family="Helvetica,sans-Serif" font-size="10.00"> lStruct</text>
</g>
<!-- Node3 -->
<g id="node4" class="node"><title>Node3</title>
<polygon fill="white" stroke="#bfbfbf" points="8.5,-170.5 8.5,-191.5 49.5,-191.5 49.5,-170.5 8.5,-170.5"/>
<text text-anchor="middle" x="29" y="-178.5" font-family="Helvetica,sans-Serif" font-size="10.00">string</text>
</g>
<!-- Node3&#45;&gt;Node2 -->
<g id="edge4" class="edge"><title>Node3&#45;&gt;Node2</title>
<path fill="none" stroke="#9a32cd" stroke-dasharray="5,2" d="M37.6567,-160.801C46.4015,-140.396 59.5732,-109.663 66.4516,-93.6129"/>
<polygon fill="#9a32cd" stroke="#9a32cd" points="34.3775,-159.568 33.6552,-170.138 40.8115,-162.325 34.3775,-159.568"/>
<text text-anchor="middle" x="72" y="-129.5" font-family="Helvetica,sans-Serif" font-size="10.00"> name</text>
</g>
<!-- Node4 -->
<g id="node6" class="node"><title>Node4</title>
<a xlink:href="../../d4/d7c/classmars_1_1utils_1_1_color.html" target="_top" xlink:title="mars::utils::Color">
<polygon fill="white" stroke="black" points="67,-170.5 67,-191.5 159,-191.5 159,-170.5 67,-170.5"/>
<text text-anchor="middle" x="113" y="-178.5" font-family="Helvetica,sans-Serif" font-size="10.00">mars::utils::Color</text>
</a>
</g>
<!-- Node4&#45;&gt;Node2 -->
<g id="edge6" class="edge"><title>Node4&#45;&gt;Node2</title>
<path fill="none" stroke="#9a32cd" stroke-dasharray="5,2" d="M107.742,-160.731C103.741,-146.688 97.6293,-127.759 90,-112 86.905,-105.607 82.6265,-98.9464 78.9129,-93.6228"/>
<polygon fill="#9a32cd" stroke="#9a32cd" points="104.367,-161.66 110.379,-170.384 111.12,-159.815 104.367,-161.66"/>
<text text-anchor="middle" x="123" y="-142.5" font-family="Helvetica,sans-Serif" font-size="10.00"> ambient</text>
<text text-anchor="middle" x="123" y="-129.5" font-family="Helvetica,sans-Serif" font-size="10.00">diffuse</text>
<text text-anchor="middle" x="123" y="-116.5" font-family="Helvetica,sans-Serif" font-size="10.00">specular</text>
</g>
</g>
</svg>
