<?xml version="1.0" encoding="UTF-8" standalone="no"?>
<!DOCTYPE svg PUBLIC "-//W3C//DTD SVG 1.1//EN"
 "http://www.w3.org/Graphics/SVG/1.1/DTD/svg11.dtd">
<!-- Generated by graphviz version 2.36.0 (20140111.2315)
 -->
<!-- Title: mars::data_broker_gui::MainDataGui Pages: 1 -->
<svg width="1062pt" height="516pt"
 viewBox="0.00 0.00 1062.00 516.00" xmlns="http://www.w3.org/2000/svg" xmlns:xlink="http://www.w3.org/1999/xlink">
<g id="graph0" class="graph" transform="scale(1 1) rotate(0) translate(4 512)">
<title>mars::data_broker_gui::MainDataGui</title>
<polygon fill="white" stroke="none" points="-4,4 -4,-512 1058,-512 1058,4 -4,4"/>
<!-- Node1 -->
<g id="node1" class="node"><title>Node1</title>
<polygon fill="#bfbfbf" stroke="black" points="940.5,-346 940.5,-376 1053.5,-376 1053.5,-346 940.5,-346"/>
<text text-anchor="start" x="948.5" y="-364" font-family="Helvetica,sans-Serif" font-size="10.00">mars::data_broker_gui</text>
<text text-anchor="middle" x="997" y="-353" font-family="Helvetica,sans-Serif" font-size="10.00">::MainDataGui</text>
</g>
<!-- Node2 -->
<g id="node2" class="node"><title>Node2</title>
<polygon fill="white" stroke="#bfbfbf" points="725.5,-488.5 725.5,-507.5 778.5,-507.5 778.5,-488.5 725.5,-488.5"/>
<text text-anchor="middle" x="752" y="-495.5" font-family="Helvetica,sans-Serif" font-size="10.00">QObject</text>
</g>
<!-- Node2&#45;&gt;Node1 -->
<g id="edge1" class="edge"><title>Node2&#45;&gt;Node1</title>
<path fill="none" stroke="midnightblue" d="M788.843,-501.106C825.2,-502.487 881.705,-499.603 922,-474 959.013,-450.482 981.437,-401.028 990.837,-376.077"/>
<polygon fill="midnightblue" stroke="midnightblue" points="788.865,-497.603 778.701,-500.591 788.51,-504.594 788.865,-497.603"/>
</g>
<!-- Node3 -->
<g id="node3" class="node"><title>Node3</title>
<polygon fill="white" stroke="#bfbfbf" points="0,-390.5 0,-409.5 68,-409.5 68,-390.5 0,-390.5"/>
<text text-anchor="middle" x="34" y="-397.5" font-family="Helvetica,sans-Serif" font-size="10.00">LibInterface</text>
</g>
<!-- Node3&#45;&gt;Node1 -->
<g id="edge2" class="edge"><title>Node3&#45;&gt;Node1</title>
<path fill="none" stroke="midnightblue" d="M77.8384,-408.879C111.023,-414.986 158.227,-422 200,-422 200,-422 200,-422 753,-422 828.249,-422 912.767,-394.143 959.663,-376.079"/>
<polygon fill="midnightblue" stroke="midnightblue" points="78.4876,-405.44 68.0115,-407.021 77.1874,-412.318 78.4876,-405.44"/>
</g>
<!-- Node11 -->
<g id="node11" class="node"><title>Node11</title>
<g id="a_node11"><a xlink:href="../../d4/da6/classmars_1_1cfg__manager_1_1_c_f_g_manager_interface.html" target="_top" xlink:title="mars::cfg_manager::\lCFGManagerInterface">
<polygon fill="white" stroke="black" points="144.5,-346 144.5,-376 257.5,-376 257.5,-346 144.5,-346"/>
<text text-anchor="start" x="152.5" y="-364" font-family="Helvetica,sans-Serif" font-size="10.00">mars::cfg_manager::</text>
<text text-anchor="middle" x="201" y="-353" font-family="Helvetica,sans-Serif" font-size="10.00">CFGManagerInterface</text>
</a>
</g>
</g>
<!-- Node3&#45;&gt;Node11 -->
<g id="edge11" class="edge"><title>Node3&#45;&gt;Node11</title>
<path fill="none" stroke="midnightblue" d="M78.2379,-389.78C98.4229,-385.009 122.697,-379.272 144.243,-374.179"/>
<polygon fill="midnightblue" stroke="midnightblue" points="77.3169,-386.401 68.3902,-392.108 78.9272,-393.214 77.3169,-386.401"/>
</g>
<!-- Node13 -->
<g id="node13" class="node"><title>Node13</title>
<g id="a_node13"><a xlink:href="../../d6/d2e/classmars_1_1data__broker_1_1_data_broker_interface.html" target="_top" xlink:title="The interface every DataBroker should implement. ">
<polygon fill="white" stroke="black" points="464,-229 464,-259 568,-259 568,-229 464,-229"/>
<text text-anchor="start" x="472" y="-247" font-family="Helvetica,sans-Serif" font-size="10.00">mars::data_broker::</text>
<text text-anchor="middle" x="516" y="-236" font-family="Helvetica,sans-Serif" font-size="10.00">DataBrokerInterface</text>
</a>
</g>
</g>
<!-- Node3&#45;&gt;Node13 -->
<g id="edge16" class="edge"><title>Node3&#45;&gt;Node13</title>
<path fill="none" stroke="midnightblue" d="M55.7195,-384.414C75.8011,-369.983 107.602,-348.869 138,-336 249.364,-288.853 389.906,-262.591 463.958,-251.106"/>
<polygon fill="midnightblue" stroke="midnightblue" points="53.6271,-381.608 47.6168,-390.333 57.7563,-387.261 53.6271,-381.608"/>
</g>
<!-- Node14 -->
<g id="node14" class="node"><title>Node14</title>
<g id="a_node14"><a xlink:href="../../d7/df2/classmars_1_1main__gui_1_1_gui_interface.html" target="_top" xlink:title="The abstract GuiInterface class provides the menu and docking functionality of the GUI...">
<polygon fill="white" stroke="black" points="282.5,-450.5 282.5,-469.5 425.5,-469.5 425.5,-450.5 282.5,-450.5"/>
<text text-anchor="middle" x="354" y="-457.5" font-family="Helvetica,sans-Serif" font-size="10.00">mars::main_gui::GuiInterface</text>
</a>
</g>
</g>
<!-- Node3&#45;&gt;Node14 -->
<g id="edge20" class="edge"><title>Node3&#45;&gt;Node14</title>
<path fill="none" stroke="midnightblue" d="M52.6824,-415.992C61.9359,-423.4 73.8499,-431.535 86,-436 149.562,-459.357 227.121,-463.917 282.234,-463.501"/>
<polygon fill="midnightblue" stroke="midnightblue" points="54.9038,-413.287 45.0018,-409.518 50.3926,-418.639 54.9038,-413.287"/>
</g>
<!-- Node4 -->
<g id="node4" class="node"><title>Node4</title>
<g id="a_node4"><a xlink:href="../../d3/d52/classmars_1_1main__gui_1_1_menu_interface.html" target="_top" xlink:title="Provides the menuAction function. ">
<polygon fill="white" stroke="black" points="676,-105.5 676,-124.5 828,-124.5 828,-105.5 676,-105.5"/>
<text text-anchor="middle" x="752" y="-112.5" font-family="Helvetica,sans-Serif" font-size="10.00">mars::main_gui::MenuInterface</text>
</a>
</g>
</g>
<!-- Node4&#45;&gt;Node1 -->
<g id="edge3" class="edge"><title>Node4&#45;&gt;Node1</title>
<path fill="none" stroke="midnightblue" d="M838.005,-118.199C867.581,-123.251 899.061,-133.589 922,-154 980.45,-206.007 992.741,-307.46 995.319,-345.819"/>
<polygon fill="midnightblue" stroke="midnightblue" points="838.477,-114.731 828.063,-116.682 837.421,-121.651 838.477,-114.731"/>
</g>
<!-- Node5 -->
<g id="node5" class="node"><title>Node5</title>
<g id="a_node5"><a xlink:href="../../d1/daa/classmars_1_1data__broker__gui_1_1_data_conn_widget.html" target="_top" xlink:title="mars::data_broker_gui\l::DataConnWidget">
<polygon fill="white" stroke="black" points="695.5,-305 695.5,-335 808.5,-335 808.5,-305 695.5,-305"/>
<text text-anchor="start" x="703.5" y="-323" font-family="Helvetica,sans-Serif" font-size="10.00">mars::data_broker_gui</text>
<text text-anchor="middle" x="752" y="-312" font-family="Helvetica,sans-Serif" font-size="10.00">::DataConnWidget</text>
</a>
</g>
</g>
<!-- Node5&#45;&gt;Node1 -->
<g id="edge4" class="edge"><title>Node5&#45;&gt;Node1</title>
<path fill="none" stroke="#9a32cd" stroke-dasharray="5,2" d="M818.69,-331.084C856.657,-337.489 903.913,-345.463 940.09,-351.567"/>
<polygon fill="#9a32cd" stroke="#9a32cd" points="819.192,-327.619 808.749,-329.406 818.027,-334.521 819.192,-327.619"/>
<text text-anchor="middle" x="884" y="-351" font-family="Helvetica,sans-Serif" font-size="10.00"> dataConnWidget</text>
</g>
<!-- Node6 -->
<g id="node6" class="node"><title>Node6</title>
<g id="a_node6"><a xlink:href="../../d4/dcf/classmars_1_1main__gui_1_1_base_widget.html" target="_top" xlink:title="mars::main_gui::BaseWidget">
<polygon fill="white" stroke="black" points="444.5,-190.5 444.5,-209.5 587.5,-209.5 587.5,-190.5 444.5,-190.5"/>
<text text-anchor="middle" x="516" y="-197.5" font-family="Helvetica,sans-Serif" font-size="10.00">mars::main_gui::BaseWidget</text>
</a>
</g>
</g>
<!-- Node6&#45;&gt;Node5 -->
<g id="edge5" class="edge"><title>Node6&#45;&gt;Node5</title>
<path fill="none" stroke="midnightblue" d="M570.781,-212.583C576.677,-214.495 582.523,-216.632 588,-219 643.002,-242.782 701.242,-283.053 730.975,-304.869"/>
<polygon fill="midnightblue" stroke="midnightblue" points="571.451,-209.129 560.866,-209.579 569.421,-215.829 571.451,-209.129"/>
</g>
<!-- Node15 -->
<g id="node15" class="node"><title>Node15</title>
<g id="a_node15"><a xlink:href="../../de/df7/classmars_1_1data__broker__gui_1_1_data_widget.html" target="_top" xlink:title="mars::data_broker_gui\l::DataWidget">
<polygon fill="white" stroke="black" points="695.5,-144 695.5,-174 808.5,-174 808.5,-144 695.5,-144"/>
<text text-anchor="start" x="703.5" y="-162" font-family="Helvetica,sans-Serif" font-size="10.00">mars::data_broker_gui</text>
<text text-anchor="middle" x="752" y="-151" font-family="Helvetica,sans-Serif" font-size="10.00">::DataWidget</text>
</a>
</g>
</g>
<!-- Node6&#45;&gt;Node15 -->
<g id="edge22" class="edge"><title>Node6&#45;&gt;Node15</title>
<path fill="none" stroke="midnightblue" d="M545.999,-186.239C563.064,-178.829 585.295,-170.339 606,-166 635.107,-159.9 668.188,-157.936 695.396,-157.592"/>
<polygon fill="midnightblue" stroke="midnightblue" points="544.303,-183.164 536.6,-190.438 547.158,-189.555 544.303,-183.164"/>
</g>
<!-- Node7 -->
<g id="node7" class="node"><title>Node7</title>
<polygon fill="white" stroke="#bfbfbf" points="173.5,-88.5 173.5,-107.5 228.5,-107.5 228.5,-88.5 173.5,-88.5"/>
<text text-anchor="middle" x="201" y="-95.5" font-family="Helvetica,sans-Serif" font-size="10.00">QWidget</text>
</g>
<!-- Node7&#45;&gt;Node6 -->
<g id="edge6" class="edge"><title>Node7&#45;&gt;Node6</title>
<path fill="none" stroke="midnightblue" d="M238.629,-94.007C284.526,-90.5584 364.605,-89.7612 426,-117 463.273,-133.537 494.931,-172.314 508.255,-190.399"/>
<polygon fill="midnightblue" stroke="midnightblue" points="238.225,-90.5285 228.551,-94.8491 238.808,-97.5042 238.225,-90.5285"/>
</g>
<!-- Node8 -->
<g id="node8" class="node"><title>Node8</title>
<g id="a_node8"><a xlink:href="../../d4/d1a/classmars_1_1cfg__manager_1_1_c_f_g_client.html" target="_top" xlink:title="mars::cfg_manager::\lCFGClient">
<polygon fill="white" stroke="black" points="147.5,-227 147.5,-257 254.5,-257 254.5,-227 147.5,-227"/>
<text text-anchor="start" x="155.5" y="-245" font-family="Helvetica,sans-Serif" font-size="10.00">mars::cfg_manager::</text>
<text text-anchor="middle" x="201" y="-234" font-family="Helvetica,sans-Serif" font-size="10.00">CFGClient</text>
</a>
</g>
</g>
<!-- Node8&#45;&gt;Node6 -->
<g id="edge7" class="edge"><title>Node8&#45;&gt;Node6</title>
<path fill="none" stroke="midnightblue" d="M264.78,-235.232C309.743,-230.19 371.691,-222.845 426,-215 437.321,-213.365 449.423,-211.442 460.939,-209.529"/>
<polygon fill="midnightblue" stroke="midnightblue" points="264.144,-231.781 254.593,-236.367 264.92,-238.738 264.144,-231.781"/>
</g>
<!-- Node9 -->
<g id="node9" class="node"><title>Node9</title>
<g id="a_node9"><a xlink:href="../../dc/dc3/structmars_1_1cfg__manager_1_1cfg_property_struct.html" target="_top" xlink:title="mars::cfg_manager::\lcfgPropertyStruct">
<polygon fill="white" stroke="black" points="147.5,-129 147.5,-159 254.5,-159 254.5,-129 147.5,-129"/>
<text text-anchor="start" x="155.5" y="-147" font-family="Helvetica,sans-Serif" font-size="10.00">mars::cfg_manager::</text>
<text text-anchor="middle" x="201" y="-136" font-family="Helvetica,sans-Serif" font-size="10.00">cfgPropertyStruct</text>
</a>
</g>
</g>
<!-- Node9&#45;&gt;Node6 -->
<g id="edge8" class="edge"><title>Node9&#45;&gt;Node6</title>
<path fill="none" stroke="#9a32cd" stroke-dasharray="5,2" d="M264.75,-128.397C310.623,-119.891 373.697,-114.306 426,-132 460.445,-143.653 492.057,-174.565 506.596,-190.383"/>
<polygon fill="#9a32cd" stroke="#9a32cd" points="263.793,-125.018 254.649,-130.369 265.134,-131.888 263.793,-125.018"/>
<text text-anchor="middle" x="354" y="-179" font-family="Helvetica,sans-Serif" font-size="10.00"> wTop</text>
<text text-anchor="middle" x="354" y="-168" font-family="Helvetica,sans-Serif" font-size="10.00">wWidth</text>
<text text-anchor="middle" x="354" y="-157" font-family="Helvetica,sans-Serif" font-size="10.00">wHeight</text>
<text text-anchor="middle" x="354" y="-146" font-family="Helvetica,sans-Serif" font-size="10.00">wLeft</text>
<text text-anchor="middle" x="354" y="-135" font-family="Helvetica,sans-Serif" font-size="10.00">hidden</text>
</g>
<!-- Node10 -->
<g id="node10" class="node"><title>Node10</title>
<polygon fill="white" stroke="#bfbfbf" points="13.5,-168.5 13.5,-187.5 54.5,-187.5 54.5,-168.5 13.5,-168.5"/>
<text text-anchor="middle" x="34" y="-175.5" font-family="Helvetica,sans-Serif" font-size="10.00">string</text>
</g>
<!-- Node10&#45;&gt;Node6 -->
<g id="edge12" class="edge"><title>Node10&#45;&gt;Node6</title>
<path fill="none" stroke="#9a32cd" stroke-dasharray="5,2" d="M65.1459,-181.248C71.9955,-181.905 79.2434,-182.535 86,-183 212.044,-191.669 359.247,-196.311 444.333,-198.458"/>
<polygon fill="#9a32cd" stroke="#9a32cd" points="65.1371,-177.73 54.8379,-180.215 64.439,-184.695 65.1371,-177.73"/>
<text text-anchor="middle" x="201" y="-196" font-family="Helvetica,sans-Serif" font-size="10.00"> widgetName</text>
</g>
<!-- Node10&#45;&gt;Node9 -->
<g id="edge9" class="edge"><title>Node10&#45;&gt;Node9</title>
<path fill="none" stroke="#9a32cd" stroke-dasharray="5,2" d="M64.399,-171.942C87.3544,-167.212 119.848,-160.516 147.272,-154.865"/>
<polygon fill="#9a32cd" stroke="#9a32cd" points="63.6634,-168.52 54.5756,-173.966 65.0762,-175.376 63.6634,-168.52"/>
<text text-anchor="middle" x="103" y="-171" font-family="Helvetica,sans-Serif" font-size="10.00"> sValue</text>
</g>
<!-- Node11&#45;&gt;Node1 -->
<g id="edge17" class="edge"><title>Node11&#45;&gt;Node1</title>
<path fill="none" stroke="#9a32cd" stroke-dasharray="5,2" d="M267.55,-363.657C272.439,-363.795 277.297,-363.912 282,-364 345.989,-365.199 362,-364.065 426,-364 646.445,-363.778 701.578,-366.2 922,-363 927.911,-362.914 934.087,-362.795 940.242,-362.656"/>
<polygon fill="#9a32cd" stroke="#9a32cd" points="267.611,-360.158 257.509,-363.351 267.398,-367.154 267.611,-360.158"/>
<text text-anchor="middle" x="632" y="-368" font-family="Helvetica,sans-Serif" font-size="10.00"> cfg</text>
</g>
<!-- Node11&#45;&gt;Node5 -->
<g id="edge14" class="edge"><title>Node11&#45;&gt;Node5</title>
<path fill="none" stroke="#9a32cd" stroke-dasharray="5,2" d="M267.876,-356.08C376.953,-347.934 593.145,-331.789 695.19,-324.168"/>
<polygon fill="#9a32cd" stroke="#9a32cd" points="267.374,-352.608 257.662,-356.843 267.895,-359.589 267.374,-352.608"/>
<text text-anchor="middle" x="516" y="-346" font-family="Helvetica,sans-Serif" font-size="10.00"> cfg</text>
</g>
<!-- Node11&#45;&gt;Node6 -->
<g id="edge10" class="edge"><title>Node11&#45;&gt;Node6</title>
<path fill="none" stroke="#9a32cd" stroke-dasharray="5,2" d="M240.329,-341.031C299.988,-309.814 409.917,-251.698 426,-239 435.386,-231.589 433.803,-225.248 444,-219 450.31,-215.133 457.406,-212.044 464.607,-209.577"/>
<polygon fill="#9a32cd" stroke="#9a32cd" points="238.448,-338.065 231.208,-345.799 241.691,-344.268 238.448,-338.065"/>
<text text-anchor="middle" x="354" y="-320" font-family="Helvetica,sans-Serif" font-size="10.00"> cfg</text>
</g>
<!-- Node12 -->
<g id="node12" class="node"><title>Node12</title>
<g id="a_node12"><a xlink:href="../../d0/d0e/classmars_1_1data__broker_1_1_receiver_interface.html" target="_top" xlink:title="Interface for classes that want to receive data from the DataBroker. ">
<polygon fill="white" stroke="black" points="465.5,-278 465.5,-308 566.5,-308 566.5,-278 465.5,-278"/>
<text text-anchor="start" x="473.5" y="-296" font-family="Helvetica,sans-Serif" font-size="10.00">mars::data_broker::</text>
<text text-anchor="middle" x="516" y="-285" font-family="Helvetica,sans-Serif" font-size="10.00">ReceiverInterface</text>
</a>
</g>
</g>
<!-- Node12&#45;&gt;Node5 -->
<g id="edge13" class="edge"><title>Node12&#45;&gt;Node5</title>
<path fill="none" stroke="midnightblue" d="M576.856,-302.151C586.587,-303.522 596.566,-304.856 606,-306 635.375,-309.561 668.187,-312.792 695.158,-315.25"/>
<polygon fill="midnightblue" stroke="midnightblue" points="577.233,-298.67 566.838,-300.717 576.241,-305.599 577.233,-298.67"/>
</g>
<!-- Node12&#45;&gt;Node15 -->
<g id="edge23" class="edge"><title>Node12&#45;&gt;Node15</title>
<path fill="none" stroke="midnightblue" d="M576.613,-303.16C604.535,-304.452 636.339,-300.434 658,-281 689.012,-253.177 649.423,-221.087 676,-189 681.278,-182.628 688.107,-177.599 695.491,-173.634"/>
<polygon fill="midnightblue" stroke="midnightblue" points="576.745,-299.661 566.527,-302.463 576.262,-306.645 576.745,-299.661"/>
</g>
<!-- Node13&#45;&gt;Node1 -->
<g id="edge18" class="edge"><title>Node13&#45;&gt;Node1</title>
<path fill="none" stroke="#9a32cd" stroke-dasharray="5,2" d="M578.286,-246.435C641.816,-250.215 743.474,-259.8 828,-284 880.437,-299.012 937.315,-328.042 969.613,-345.852"/>
<polygon fill="#9a32cd" stroke="#9a32cd" points="578.221,-242.926 568.04,-245.856 577.826,-249.915 578.221,-242.926"/>
<text text-anchor="middle" x="752" y="-287" font-family="Helvetica,sans-Serif" font-size="10.00"> dataBroker</text>
</g>
<!-- Node13&#45;&gt;Node5 -->
<g id="edge15" class="edge"><title>Node13&#45;&gt;Node5</title>
<path fill="none" stroke="#9a32cd" stroke-dasharray="5,2" d="M572.88,-262.149C613.058,-275.198 666.606,-292.59 704.465,-304.886"/>
<polygon fill="#9a32cd" stroke="#9a32cd" points="573.823,-258.775 563.231,-259.015 571.661,-265.433 573.823,-258.775"/>
<text text-anchor="middle" x="632" y="-292" font-family="Helvetica,sans-Serif" font-size="10.00"> dataBroker</text>
</g>
<!-- Node13&#45;&gt;Node15 -->
<g id="edge25" class="edge"><title>Node13&#45;&gt;Node15</title>
<path fill="none" stroke="#9a32cd" stroke-dasharray="5,2" d="M577.418,-226.425C581.18,-224.228 584.753,-221.763 588,-219 600.724,-208.174 592.479,-195.813 606,-186 631.594,-167.426 666.24,-160.489 695.247,-158.284"/>
<polygon fill="#9a32cd" stroke="#9a32cd" points="575.651,-223.398 568.358,-231.083 578.852,-229.623 575.651,-223.398"/>
<text text-anchor="middle" x="632" y="-189" font-family="Helvetica,sans-Serif" font-size="10.00"> dataBroker</text>
</g>
<!-- Node14&#45;&gt;Node1 -->
<g id="edge19" class="edge"><title>Node14&#45;&gt;Node1</title>
<path fill="none" stroke="#9a32cd" stroke-dasharray="5,2" d="M435.89,-463.765C571.295,-468.881 837.34,-473.524 922,-436 950.596,-423.325 974.007,-394.12 986.401,-376.122"/>
<polygon fill="#9a32cd" stroke="#9a32cd" points="435.707,-460.255 425.578,-463.365 435.435,-467.25 435.707,-460.255"/>
<text text-anchor="middle" x="632" y="-471" font-family="Helvetica,sans-Serif" font-size="10.00"> gui</text>
</g>
<!-- Node15&#45;&gt;Node1 -->
<g id="edge21" class="edge"><title>Node15&#45;&gt;Node1</title>
<path fill="none" stroke="#9a32cd" stroke-dasharray="5,2" d="M818.947,-155.032C852.931,-156.319 893.173,-163.415 922,-186 974.192,-226.891 990.045,-311.453 994.448,-345.9"/>
<polygon fill="#9a32cd" stroke="#9a32cd" points="818.694,-151.526 808.621,-154.808 818.543,-158.524 818.694,-151.526"/>
<text text-anchor="middle" x="884" y="-189" font-family="Helvetica,sans-Serif" font-size="10.00"> dataWidget</text>
</g>
<!-- Node16 -->
<g id="node16" class="node"><title>Node16</title>
<g id="a_node16"><a xlink:href="../../dd/d38/classmars_1_1main__gui_1_1_property_callback.html" target="_top" xlink:title="Introduced for Windows compatibility. ">
<polygon fill="white" stroke="black" points="138,-39 138,-69 264,-69 264,-39 138,-39"/>
<text text-anchor="start" x="146" y="-57" font-family="Helvetica,sans-Serif" font-size="10.00">mars::main_gui::Property</text>
<text text-anchor="middle" x="201" y="-46" font-family="Helvetica,sans-Serif" font-size="10.00">Callback</text>
</a>
</g>
</g>
<!-- Node16&#45;&gt;Node15 -->
<g id="edge24" class="edge"><title>Node16&#45;&gt;Node15</title>
<path fill="none" stroke="midnightblue" d="M274.462,-64.25C318.409,-70.7326 375.557,-79.6347 426,-89 521.053,-106.647 630.854,-131.169 695.411,-146.014"/>
<polygon fill="midnightblue" stroke="midnightblue" points="274.844,-60.7687 264.442,-62.7801 273.828,-67.6945 274.844,-60.7687"/>
</g>
<!-- Node17 -->
<g id="node17" class="node"><title>Node17</title>
<g id="a_node17"><a xlink:href="../../de/d11/classmars_1_1main__gui_1_1_property_dialog.html" target="_top" xlink:title="The PropertyDialog provides the QtProperty functionality. ">
<polygon fill="white" stroke="black" points="453,-14 453,-44 579,-44 579,-14 453,-14"/>
<text text-anchor="start" x="461" y="-32" font-family="Helvetica,sans-Serif" font-size="10.00">mars::main_gui::Property</text>
<text text-anchor="middle" x="516" y="-21" font-family="Helvetica,sans-Serif" font-size="10.00">Dialog</text>
</a>
</g>
</g>
<!-- Node16&#45;&gt;Node17 -->
<g id="edge28" class="edge"><title>Node16&#45;&gt;Node17</title>
<path fill="none" stroke="#9a32cd" stroke-dasharray="5,2" d="M274.413,-48.2162C328.454,-43.8999 401.519,-38.064 452.905,-33.9597"/>
<polygon fill="#9a32cd" stroke="#9a32cd" points="273.903,-44.7457 264.213,-49.0309 274.46,-51.7235 273.903,-44.7457"/>
<text text-anchor="middle" x="354" y="-51" font-family="Helvetica,sans-Serif" font-size="10.00"> propertyCallback</text>
</g>
<!-- Node17&#45;&gt;Node15 -->
<g id="edge26" class="edge"><title>Node17&#45;&gt;Node15</title>
<path fill="none" stroke="#9a32cd" stroke-dasharray="5,2" d="M589.332,-22.7716C613.894,-24.4583 639.719,-30.9968 658,-48 686.594,-74.5957 650.026,-104.84 676,-134 681.295,-139.944 688.04,-144.478 695.307,-147.936"/>
<polygon fill="#9a32cd" stroke="#9a32cd" points="589.416,-19.2721 579.274,-22.336 589.113,-26.2655 589.416,-19.2721"/>
<text text-anchor="middle" x="632" y="-51" font-family="Helvetica,sans-Serif" font-size="10.00"> pDialog</text>
</g>
<!-- Node18 -->
<g id="node18" class="node"><title>Node18</title>
<polygon fill="white" stroke="#bfbfbf" points="175,-0.5 175,-19.5 227,-19.5 227,-0.5 175,-0.5"/>
<text text-anchor="middle" x="201" y="-7.5" font-family="Helvetica,sans-Serif" font-size="10.00">QDialog</text>
</g>
<!-- Node18&#45;&gt;Node17 -->
<g id="edge27" class="edge"><title>Node18&#45;&gt;Node17</title>
<path fill="none" stroke="midnightblue" d="M237.199,-12.1367C289.475,-15.31 388.393,-21.3146 452.987,-25.2357"/>
<polygon fill="midnightblue" stroke="midnightblue" points="237.279,-8.63517 227.085,-11.5227 236.855,-15.6223 237.279,-8.63517"/>
</g>
</g>
</svg>
