<?xml version="1.0" encoding="UTF-8" standalone="no"?>
<!DOCTYPE svg PUBLIC "-//W3C//DTD SVG 1.1//EN"
 "http://www.w3.org/Graphics/SVG/1.1/DTD/svg11.dtd">
<!-- Generated by graphviz version 2.36.0 (20140111.2315)
 -->
<!-- Title: /media/kavonszadkowski/work/marsdocs/mars/gui/src/dialogs/CameraConfig/CameraConfiguratorGUI.h Pages: 1 -->
<svg width="759pt" height="186pt"
 viewBox="0.00 0.00 759.00 186.00" xmlns="http://www.w3.org/2000/svg" xmlns:xlink="http://www.w3.org/1999/xlink">
<g id="graph0" class="graph" transform="scale(1 1) rotate(0) translate(4 182)">
<title>/media/kavonszadkowski/work/marsdocs/mars/gui/src/dialogs/CameraConfig/CameraConfiguratorGUI.h</title>
<polygon fill="white" stroke="none" points="-4,4 -4,-182 755,-182 755,4 -4,4"/>
<!-- Node1 -->
<g id="node1" class="node"><title>Node1</title>
<polygon fill="#bfbfbf" stroke="black" points="257,-125 257,-177 391,-177 391,-125 257,-125"/>
<text text-anchor="start" x="265" y="-165" font-family="Helvetica,sans-Serif" font-size="10.00">/media/kavonszadkowski</text>
<text text-anchor="start" x="265" y="-154" font-family="Helvetica,sans-Serif" font-size="10.00">/work/marsdocs/mars/gui</text>
<text text-anchor="start" x="265" y="-143" font-family="Helvetica,sans-Serif" font-size="10.00">/src/dialogs/CameraConfig</text>
<text text-anchor="middle" x="324" y="-132" font-family="Helvetica,sans-Serif" font-size="10.00">/CameraConfiguratorGUI.h</text>
</g>
<!-- Node2 -->
<g id="node2" class="node"><title>Node2</title>
<polygon fill="white" stroke="#bfbfbf" points="-0.5,-6.5 -0.5,-25.5 50.5,-25.5 50.5,-6.5 -0.5,-6.5"/>
<text text-anchor="middle" x="25" y="-13.5" font-family="Helvetica,sans-Serif" font-size="10.00">QMutex</text>
</g>
<!-- Node1&#45;&gt;Node2 -->
<g id="edge1" class="edge"><title>Node1&#45;&gt;Node2</title>
<path fill="none" stroke="midnightblue" d="M267.76,-124.984C204.139,-96.6838 102.999,-51.6951 53.7868,-29.8048"/>
<polygon fill="midnightblue" stroke="midnightblue" points="54.9436,-26.4888 44.3843,-25.6224 52.0986,-32.8846 54.9436,-26.4888"/>
</g>
<!-- Node3 -->
<g id="node3" class="node"><title>Node3</title>
<g id="a_node3"><a xlink:href="../../da/dd0/_camera_config_8h.html" target="_top" xlink:title="&quot;CameraConfig&quot; ">
<polygon fill="white" stroke="black" points="213,-68.5 213,-87.5 301,-87.5 301,-68.5 213,-68.5"/>
<text text-anchor="middle" x="257" y="-75.5" font-family="Helvetica,sans-Serif" font-size="10.00">CameraConfig.h</text>
</a>
</g>
</g>
<!-- Node1&#45;&gt;Node3 -->
<g id="edge2" class="edge"><title>Node1&#45;&gt;Node3</title>
<path fill="none" stroke="midnightblue" d="M300.19,-124.768C290.859,-114.881 280.432,-103.831 272.16,-95.0656"/>
<polygon fill="midnightblue" stroke="midnightblue" points="274.673,-92.628 265.264,-87.7572 269.582,-97.4323 274.673,-92.628"/>
</g>
<!-- Node9 -->
<g id="node9" class="node"><title>Node9</title>
<polygon fill="white" stroke="#bfbfbf" points="319.5,-68.5 319.5,-87.5 464.5,-87.5 464.5,-68.5 319.5,-68.5"/>
<text text-anchor="middle" x="392" y="-75.5" font-family="Helvetica,sans-Serif" font-size="10.00">mars/main_gui/BaseWidget.h</text>
</g>
<!-- Node1&#45;&gt;Node9 -->
<g id="edge9" class="edge"><title>Node1&#45;&gt;Node9</title>
<path fill="none" stroke="midnightblue" d="M348.166,-124.768C357.635,-114.881 368.218,-103.831 376.613,-95.0656"/>
<polygon fill="midnightblue" stroke="midnightblue" points="379.224,-97.4001 383.613,-87.7572 374.168,-92.5583 379.224,-97.4001"/>
</g>
<!-- Node10 -->
<g id="node10" class="node"><title>Node10</title>
<polygon fill="white" stroke="#bfbfbf" points="483,-68.5 483,-87.5 639,-87.5 639,-68.5 483,-68.5"/>
<text text-anchor="middle" x="561" y="-75.5" font-family="Helvetica,sans-Serif" font-size="10.00">mars/main_gui/PropertyDialog.h</text>
</g>
<!-- Node1&#45;&gt;Node10 -->
<g id="edge10" class="edge"><title>Node1&#45;&gt;Node10</title>
<path fill="none" stroke="midnightblue" d="M391.281,-129.844C433.754,-117.12 487.098,-101.139 522.527,-90.5256"/>
<polygon fill="midnightblue" stroke="midnightblue" points="523.893,-93.7703 532.468,-87.5477 521.884,-87.0648 523.893,-93.7703"/>
</g>
<!-- Node3&#45;&gt;Node2 -->
<g id="edge8" class="edge"><title>Node3&#45;&gt;Node2</title>
<path fill="none" stroke="midnightblue" d="M212.69,-69.4546C172.12,-61.9548 110.708,-49.1058 59,-32 56.726,-31.2477 54.3965,-30.3982 52.0755,-29.4954"/>
<polygon fill="midnightblue" stroke="midnightblue" points="53.3216,-26.2229 42.7453,-25.5973 50.6231,-32.6819 53.3216,-26.2229"/>
</g>
<!-- Node4 -->
<g id="node4" class="node"><title>Node4</title>
<polygon fill="white" stroke="#bfbfbf" points="68.5,-1 68.5,-31 171.5,-31 171.5,-1 68.5,-1"/>
<text text-anchor="start" x="76.5" y="-19" font-family="Helvetica,sans-Serif" font-size="10.00">mars/interfaces/sim</text>
<text text-anchor="middle" x="120" y="-8" font-family="Helvetica,sans-Serif" font-size="10.00">/ControlCenter.h</text>
</g>
<!-- Node3&#45;&gt;Node4 -->
<g id="edge3" class="edge"><title>Node3&#45;&gt;Node4</title>
<path fill="none" stroke="midnightblue" d="M237.371,-68.4035C217.624,-59.7549 186.569,-46.1545 161.363,-35.1152"/>
<polygon fill="midnightblue" stroke="midnightblue" points="162.589,-31.8311 152.024,-31.0253 159.78,-38.2431 162.589,-31.8311"/>
</g>
<!-- Node5 -->
<g id="node5" class="node"><title>Node5</title>
<polygon fill="white" stroke="#bfbfbf" points="190,-1 190,-31 324,-31 324,-1 190,-1"/>
<text text-anchor="start" x="198" y="-19" font-family="Helvetica,sans-Serif" font-size="10.00">mars/data_broker/Receiver</text>
<text text-anchor="middle" x="257" y="-8" font-family="Helvetica,sans-Serif" font-size="10.00">Interface.h</text>
</g>
<!-- Node3&#45;&gt;Node5 -->
<g id="edge4" class="edge"><title>Node3&#45;&gt;Node5</title>
<path fill="none" stroke="midnightblue" d="M257,-68.4035C257,-61.3405 257,-50.975 257,-41.399"/>
<polygon fill="midnightblue" stroke="midnightblue" points="260.5,-41.1408 257,-31.1408 253.5,-41.1408 260.5,-41.1408"/>
</g>
<!-- Node6 -->
<g id="node6" class="node"><title>Node6</title>
<polygon fill="white" stroke="#bfbfbf" points="342.5,-1 342.5,-31 497.5,-31 497.5,-1 342.5,-1"/>
<text text-anchor="start" x="350.5" y="-19" font-family="Helvetica,sans-Serif" font-size="10.00">mars/data_broker/DataPackage</text>
<text text-anchor="middle" x="420" y="-8" font-family="Helvetica,sans-Serif" font-size="10.00">Mapping.h</text>
</g>
<!-- Node3&#45;&gt;Node6 -->
<g id="edge5" class="edge"><title>Node3&#45;&gt;Node6</title>
<path fill="none" stroke="midnightblue" d="M280.354,-68.4035C304.263,-59.6025 342.103,-45.6737 372.366,-34.534"/>
<polygon fill="midnightblue" stroke="midnightblue" points="373.723,-37.7643 381.898,-31.0253 371.304,-31.1952 373.723,-37.7643"/>
</g>
<!-- Node7 -->
<g id="node7" class="node"><title>Node7</title>
<polygon fill="white" stroke="#bfbfbf" points="515.5,-6.5 515.5,-25.5 614.5,-25.5 614.5,-6.5 515.5,-6.5"/>
<text text-anchor="middle" x="565" y="-13.5" font-family="Helvetica,sans-Serif" font-size="10.00">mars/utils/Vector.h</text>
</g>
<!-- Node3&#45;&gt;Node7 -->
<g id="edge6" class="edge"><title>Node3&#45;&gt;Node7</title>
<path fill="none" stroke="midnightblue" d="M301.11,-69.4126C361.744,-58.9166 467.686,-40.3217 506,-32 511.69,-30.7641 517.664,-29.3654 523.535,-27.9313"/>
<polygon fill="midnightblue" stroke="midnightblue" points="524.397,-31.3237 533.252,-25.5067 522.702,-24.5319 524.397,-31.3237"/>
</g>
<!-- Node8 -->
<g id="node8" class="node"><title>Node8</title>
<polygon fill="white" stroke="#bfbfbf" points="633,-6.5 633,-25.5 751,-25.5 751,-6.5 633,-6.5"/>
<text text-anchor="middle" x="692" y="-13.5" font-family="Helvetica,sans-Serif" font-size="10.00">mars/utils/Quaternion.h</text>
</g>
<!-- Node3&#45;&gt;Node8 -->
<g id="edge7" class="edge"><title>Node3&#45;&gt;Node8</title>
<path fill="none" stroke="midnightblue" d="M301.176,-69.4515C304.498,-68.9409 307.8,-68.451 311,-68 449.221,-48.5199 485.297,-54.8543 623,-32 630.484,-30.7579 638.381,-29.2398 646.055,-27.6518"/>
<polygon fill="midnightblue" stroke="midnightblue" points="646.91,-31.0483 655.961,-25.5411 645.451,-24.202 646.91,-31.0483"/>
</g>
</g>
</svg>
