<?xml version="1.0" encoding="UTF-8" standalone="no"?>
<!DOCTYPE svg PUBLIC "-//W3C//DTD SVG 1.1//EN"
 "http://www.w3.org/Graphics/SVG/1.1/DTD/svg11.dtd">
<!-- Generated by graphviz version 2.36.0 (20140111.2315)
 -->
<!-- Title: mars::utils::Thread Pages: 1 -->
<svg width="294pt" height="202pt"
 viewBox="0.00 0.00 294.00 202.00" xmlns="http://www.w3.org/2000/svg" xmlns:xlink="http://www.w3.org/1999/xlink">
<g id="graph0" class="graph" transform="scale(1 1) rotate(0) translate(4 198)">
<title>mars::utils::Thread</title>
<polygon fill="white" stroke="none" points="-4,4 -4,-198 290,-198 290,4 -4,4"/>
<!-- Node1 -->
<g id="node1" class="node"><title>Node1</title>
<polygon fill="#bfbfbf" stroke="black" points="0,-87.5 0,-106.5 98,-106.5 98,-87.5 0,-87.5"/>
<text text-anchor="middle" x="49" y="-94.5" font-family="Helvetica,sans-Serif" font-size="10.00">mars::utils::Thread</text>
</g>
<!-- Node2 -->
<g id="node2" class="node"><title>Node2</title>
<g id="a_node2"><a xlink:href="../../d7/d09/classmars_1_1data__broker_1_1_data_broker.html" target="_top" xlink:title="Central class of the DataBroker library. ">
<polygon fill="white" stroke="black" points="159.5,-164 159.5,-194 260.5,-194 260.5,-164 159.5,-164"/>
<text text-anchor="start" x="167.5" y="-182" font-family="Helvetica,sans-Serif" font-size="10.00">mars::data_broker::</text>
<text text-anchor="middle" x="210" y="-171" font-family="Helvetica,sans-Serif" font-size="10.00">DataBroker</text>
</a>
</g>
</g>
<!-- Node1&#45;&gt;Node2 -->
<g id="edge1" class="edge"><title>Node1&#45;&gt;Node2</title>
<path fill="none" stroke="midnightblue" d="M70.1482,-113.006C86.5865,-125.475 110.804,-142.537 134,-154 141.998,-157.952 150.77,-161.509 159.407,-164.617"/>
<polygon fill="midnightblue" stroke="midnightblue" points="71.9263,-109.957 61.872,-106.616 67.6484,-115.498 71.9263,-109.957"/>
</g>
<!-- Node3 -->
<g id="node3" class="node"><title>Node3</title>
<g id="a_node3"><a xlink:href="../../dd/d4f/classmars_1_1sim_1_1_controller.html" target="_top" xlink:title="The class to log all data. ">
<polygon fill="white" stroke="black" points="156,-125.5 156,-144.5 264,-144.5 264,-125.5 156,-125.5"/>
<text text-anchor="middle" x="210" y="-132.5" font-family="Helvetica,sans-Serif" font-size="10.00">mars::sim::Controller</text>
</a>
</g>
</g>
<!-- Node1&#45;&gt;Node3 -->
<g id="edge2" class="edge"><title>Node1&#45;&gt;Node3</title>
<path fill="none" stroke="midnightblue" d="M100.077,-108.968C122.358,-114.293 148.229,-120.476 169.166,-125.48"/>
<polygon fill="midnightblue" stroke="midnightblue" points="100.662,-105.509 90.1224,-106.589 99.0349,-112.318 100.662,-105.509"/>
</g>
<!-- Node4 -->
<g id="node4" class="node"><title>Node4</title>
<g id="a_node4"><a xlink:href="../../d1/d86/classmars_1_1sim_1_1_rotating_ray_sensor.html" target="_top" xlink:title="mars::sim::RotatingRaySensor">
<polygon fill="white" stroke="black" points="134,-87.5 134,-106.5 286,-106.5 286,-87.5 134,-87.5"/>
<text text-anchor="middle" x="210" y="-94.5" font-family="Helvetica,sans-Serif" font-size="10.00">mars::sim::RotatingRaySensor</text>
</a>
</g>
</g>
<!-- Node1&#45;&gt;Node4 -->
<g id="edge3" class="edge"><title>Node1&#45;&gt;Node4</title>
<path fill="none" stroke="#8b1a1a" d="M108.384,-97C116.635,-97 125.213,-97 133.726,-97"/>
<polygon fill="#8b1a1a" stroke="#8b1a1a" points="108.137,-93.5001 98.1367,-97 108.137,-100.5 108.137,-93.5001"/>
</g>
<!-- Node5 -->
<g id="node5" class="node"><title>Node5</title>
<g id="a_node5"><a xlink:href="../../d9/d6a/classmars_1_1sim_1_1_simulator.html" target="_top" xlink:title="The Simulator class implements the main functions of the MARS simulation. ">
<polygon fill="white" stroke="black" points="156.5,-49.5 156.5,-68.5 263.5,-68.5 263.5,-49.5 156.5,-49.5"/>
<text text-anchor="middle" x="210" y="-56.5" font-family="Helvetica,sans-Serif" font-size="10.00">mars::sim::Simulator</text>
</a>
</g>
</g>
<!-- Node1&#45;&gt;Node5 -->
<g id="edge4" class="edge"><title>Node1&#45;&gt;Node5</title>
<path fill="none" stroke="midnightblue" d="M100.077,-85.032C122.358,-79.7069 148.229,-73.5238 169.166,-68.5201"/>
<polygon fill="midnightblue" stroke="midnightblue" points="99.0349,-81.6823 90.1224,-87.411 100.662,-88.4906 99.0349,-81.6823"/>
</g>
<!-- Node6 -->
<g id="node6" class="node"><title>Node6</title>
<g id="a_node6"><a xlink:href="../../d2/d90/classosg__terrain_1_1_multi_res_height_map_renderer.html" target="_top" xlink:title="osg_terrain::MultiResHeight\lMapRenderer">
<polygon fill="white" stroke="black" points="141,-0 141,-30 279,-30 279,-0 141,-0"/>
<text text-anchor="start" x="149" y="-18" font-family="Helvetica,sans-Serif" font-size="10.00">osg_terrain::MultiResHeight</text>
<text text-anchor="middle" x="210" y="-7" font-family="Helvetica,sans-Serif" font-size="10.00">MapRenderer</text>
</a>
</g>
</g>
<!-- Node1&#45;&gt;Node6 -->
<g id="edge5" class="edge"><title>Node1&#45;&gt;Node6</title>
<path fill="none" stroke="midnightblue" d="M70.1482,-80.9937C86.5865,-68.5248 110.804,-51.463 134,-40 141.383,-36.3516 149.425,-33.0401 157.411,-30.108"/>
<polygon fill="midnightblue" stroke="midnightblue" points="67.6484,-78.5019 61.872,-87.3836 71.9263,-84.0426 67.6484,-78.5019"/>
</g>
</g>
</svg>
