<?xml version="1.0" encoding="UTF-8" standalone="no"?>
<!DOCTYPE svg PUBLIC "-//W3C//DTD SVG 1.1//EN"
 "http://www.w3.org/Graphics/SVG/1.1/DTD/svg11.dtd">
<!-- Generated by graphviz version 2.26.3 (20100126.1600)
 -->
<!-- Title: /home/kavonszadkowski/limes&#45;dev/simulation/mars/sim/src/sensors/NodeContactForceSensor.cpp Pages: 1 -->
<svg width="726pt" height="358pt"
 viewBox="0.00 0.00 726.00 358.00" xmlns="http://www.w3.org/2000/svg" xmlns:xlink="http://www.w3.org/1999/xlink">
<g id="graph1" class="graph" transform="scale(1 1) rotate(0) translate(4 354)">
<title>/home/kavonszadkowski/limes&#45;dev/simulation/mars/sim/src/sensors/NodeContactForceSensor.cpp</title>
<polygon fill="white" stroke="white" points="-4,5 -4,-354 723,-354 723,5 -4,5"/>
<!-- Node1 -->
<g id="node1" class="node"><title>Node1</title>
<polygon fill="#bfbfbf" stroke="black" points="274,-289 274,-349 426,-349 426,-289 274,-289"/>
<text text-anchor="start" x="282" y="-336" font-family="Helvetica,sans-Serif" font-size="10.00">/home/kavonszadkowski</text>
<text text-anchor="start" x="282" y="-323" font-family="Helvetica,sans-Serif" font-size="10.00">/limes&#45;dev/simulation</text>
<text text-anchor="start" x="282" y="-310" font-family="Helvetica,sans-Serif" font-size="10.00">/mars/sim/src/sensors</text>
<text text-anchor="middle" x="350" y="-297" font-family="Helvetica,sans-Serif" font-size="10.00">/NodeContactForceSensor.cpp</text>
</g>
<!-- Node2 -->
<g id="node3" class="node"><title>Node2</title>
<a xlink:href="../../d3/d79/_node_contact_force_sensor_8h.html" target="_top" xlink:title="NodeContactForceSensor.h">
<polygon fill="white" stroke="black" points="67,-223.5 67,-244.5 205,-244.5 205,-223.5 67,-223.5"/>
<text text-anchor="middle" x="136" y="-231.5" font-family="Helvetica,sans-Serif" font-size="10.00">NodeContactForceSensor.h</text>
</a>
</g>
<!-- Node1&#45;&gt;Node2 -->
<g id="edge2" class="edge"><title>Node1&#45;&gt;Node2</title>
<path fill="none" stroke="midnightblue" d="M274.25,-288.913C239.402,-275.071 199.707,-259.304 171.818,-248.227"/>
<polygon fill="midnightblue" stroke="midnightblue" points="173.059,-244.954 162.474,-244.515 170.475,-251.46 173.059,-244.954"/>
</g>
<!-- Node13 -->
<g id="node26" class="node"><title>Node13</title>
<polygon fill="white" stroke="#bfbfbf" points="222.5,-217 222.5,-251 367.5,-251 367.5,-217 222.5,-217"/>
<text text-anchor="start" x="230.5" y="-238" font-family="Helvetica,sans-Serif" font-size="10.00">mars/data_broker/DataBroker</text>
<text text-anchor="middle" x="295" y="-225" font-family="Helvetica,sans-Serif" font-size="10.00">Interface.h</text>
</g>
<!-- Node1&#45;&gt;Node13 -->
<g id="edge26" class="edge"><title>Node1&#45;&gt;Node13</title>
<path fill="none" stroke="midnightblue" d="M330.454,-288.793C324.341,-279.345 317.653,-269.01 311.75,-259.887"/>
<polygon fill="midnightblue" stroke="midnightblue" points="314.53,-257.74 306.159,-251.246 308.653,-261.543 314.53,-257.74"/>
</g>
<!-- Node14 -->
<g id="node28" class="node"><title>Node14</title>
<polygon fill="white" stroke="#bfbfbf" points="384.5,-223.5 384.5,-244.5 427.5,-244.5 427.5,-223.5 384.5,-223.5"/>
<text text-anchor="middle" x="406" y="-231.5" font-family="Helvetica,sans-Serif" font-size="10.00">cstdio</text>
</g>
<!-- Node1&#45;&gt;Node14 -->
<g id="edge28" class="edge"><title>Node1&#45;&gt;Node14</title>
<path fill="none" stroke="midnightblue" d="M369.901,-288.793C377.682,-276.983 386.376,-263.787 393.282,-253.305"/>
<polygon fill="midnightblue" stroke="midnightblue" points="396.243,-255.171 398.822,-244.895 390.398,-251.32 396.243,-255.171"/>
</g>
<!-- Node15 -->
<g id="node30" class="node"><title>Node15</title>
<polygon fill="white" stroke="#bfbfbf" points="444.5,-223.5 444.5,-244.5 489.5,-244.5 489.5,-223.5 444.5,-223.5"/>
<text text-anchor="middle" x="467" y="-231.5" font-family="Helvetica,sans-Serif" font-size="10.00">cstdlib</text>
</g>
<!-- Node1&#45;&gt;Node15 -->
<g id="edge30" class="edge"><title>Node1&#45;&gt;Node15</title>
<path fill="none" stroke="midnightblue" d="M391.579,-288.793C409.259,-275.949 429.195,-261.465 444.128,-250.616"/>
<polygon fill="midnightblue" stroke="midnightblue" points="446.254,-253.398 452.287,-244.689 442.14,-247.735 446.254,-253.398"/>
</g>
<!-- Node3 -->
<g id="node5" class="node"><title>Node3</title>
<polygon fill="white" stroke="#bfbfbf" points="1,-145 1,-179 135,-179 135,-145 1,-145"/>
<text text-anchor="start" x="9" y="-166" font-family="Helvetica,sans-Serif" font-size="10.00">mars/data_broker/Producer</text>
<text text-anchor="middle" x="68" y="-153" font-family="Helvetica,sans-Serif" font-size="10.00">Interface.h</text>
</g>
<!-- Node2&#45;&gt;Node3 -->
<g id="edge4" class="edge"><title>Node2&#45;&gt;Node3</title>
<path fill="none" stroke="midnightblue" d="M125.966,-223.376C116.849,-213.723 103.054,-199.116 91.2089,-186.574"/>
<polygon fill="midnightblue" stroke="midnightblue" points="93.5555,-183.961 84.1447,-179.094 88.4664,-188.768 93.5555,-183.961"/>
</g>
<!-- Node4 -->
<g id="node7" class="node"><title>Node4</title>
<a xlink:href="../../d0/d9f/_node_array_sensor_8h.html" target="_top" xlink:title="NodeArraySensor.h">
<polygon fill="white" stroke="black" points="153,-151.5 153,-172.5 255,-172.5 255,-151.5 153,-151.5"/>
<text text-anchor="middle" x="204" y="-159.5" font-family="Helvetica,sans-Serif" font-size="10.00">NodeArraySensor.h</text>
</a>
</g>
<!-- Node2&#45;&gt;Node4 -->
<g id="edge6" class="edge"><title>Node2&#45;&gt;Node4</title>
<path fill="none" stroke="midnightblue" d="M146.034,-223.376C156.781,-211.997 174.028,-193.735 186.92,-180.085"/>
<polygon fill="midnightblue" stroke="midnightblue" points="189.603,-182.341 193.925,-172.667 184.514,-177.534 189.603,-182.341"/>
</g>
<!-- Node5 -->
<g id="node9" class="node"><title>Node5</title>
<polygon fill="white" stroke="#bfbfbf" points="0,-79.5 0,-100.5 128,-100.5 128,-79.5 0,-79.5"/>
<text text-anchor="middle" x="64" y="-87.5" font-family="Helvetica,sans-Serif" font-size="10.00">configmaps/ConfigData.h</text>
</g>
<!-- Node4&#45;&gt;Node5 -->
<g id="edge8" class="edge"><title>Node4&#45;&gt;Node5</title>
<path fill="none" stroke="midnightblue" d="M183.343,-151.376C159.665,-139.199 120.662,-119.141 93.7231,-105.286"/>
<polygon fill="midnightblue" stroke="midnightblue" points="95.2359,-102.128 84.7422,-100.667 92.0344,-108.353 95.2359,-102.128"/>
</g>
<!-- Node6 -->
<g id="node11" class="node"><title>Node6</title>
<polygon fill="white" stroke="#bfbfbf" points="87.5,-1 87.5,-35 190.5,-35 190.5,-1 87.5,-1"/>
<text text-anchor="start" x="95.5" y="-22" font-family="Helvetica,sans-Serif" font-size="10.00">mars/interfaces/sim</text>
<text text-anchor="middle" x="139" y="-9" font-family="Helvetica,sans-Serif" font-size="10.00">/SensorInterface.h</text>
</g>
<!-- Node4&#45;&gt;Node6 -->
<g id="edge10" class="edge"><title>Node4&#45;&gt;Node6</title>
<path fill="none" stroke="midnightblue" d="M197.862,-151.423C191.729,-140.665 182.201,-123.429 175,-108 165.257,-87.1242 155.64,-62.8392 148.8,-44.7606"/>
<polygon fill="midnightblue" stroke="midnightblue" points="151.991,-43.301 145.208,-35.1617 145.435,-45.7541 151.991,-43.301"/>
</g>
<!-- Node7 -->
<g id="node13" class="node"><title>Node7</title>
<polygon fill="white" stroke="#bfbfbf" points="184,-73 184,-107 318,-107 318,-73 184,-73"/>
<text text-anchor="start" x="192" y="-94" font-family="Helvetica,sans-Serif" font-size="10.00">mars/data_broker/Receiver</text>
<text text-anchor="middle" x="251" y="-81" font-family="Helvetica,sans-Serif" font-size="10.00">Interface.h</text>
</g>
<!-- Node4&#45;&gt;Node7 -->
<g id="edge12" class="edge"><title>Node4&#45;&gt;Node7</title>
<path fill="none" stroke="midnightblue" d="M210.935,-151.376C217.058,-141.996 226.234,-127.939 234.26,-115.644"/>
<polygon fill="midnightblue" stroke="midnightblue" points="237.306,-117.381 239.841,-107.094 231.444,-113.555 237.306,-117.381"/>
</g>
<!-- Node8 -->
<g id="node15" class="node"><title>Node8</title>
<a xlink:href="../../d5/df7/_i_d_list_config_8h.html" target="_top" xlink:title="IDListConfig.h">
<polygon fill="white" stroke="black" points="369,-79.5 369,-100.5 449,-100.5 449,-79.5 369,-79.5"/>
<text text-anchor="middle" x="409" y="-87.5" font-family="Helvetica,sans-Serif" font-size="10.00">IDListConfig.h</text>
</a>
</g>
<!-- Node4&#45;&gt;Node8 -->
<g id="edge14" class="edge"><title>Node4&#45;&gt;Node8</title>
<path fill="none" stroke="midnightblue" d="M234.248,-151.376C270.082,-138.791 329.885,-117.787 369.384,-103.914"/>
<polygon fill="midnightblue" stroke="midnightblue" points="370.686,-107.166 378.961,-100.55 368.367,-100.562 370.686,-107.166"/>
</g>
<!-- Node8&#45;&gt;Node6 -->
<g id="edge24" class="edge"><title>Node8&#45;&gt;Node6</title>
<path fill="none" stroke="midnightblue" d="M368.615,-80.1216C328.308,-70.1498 264.375,-54.03 200.505,-36.3745"/>
<polygon fill="midnightblue" stroke="midnightblue" points="201.245,-32.9474 190.673,-33.644 199.372,-39.6922 201.245,-32.9474"/>
</g>
<!-- Node9 -->
<g id="node17" class="node"><title>Node9</title>
<polygon fill="white" stroke="#bfbfbf" points="208,-7.5 208,-28.5 354,-28.5 354,-7.5 208,-7.5"/>
<text text-anchor="middle" x="281" y="-15.5" font-family="Helvetica,sans-Serif" font-size="10.00">mars/interfaces/MARSDefs.h</text>
</g>
<!-- Node8&#45;&gt;Node9 -->
<g id="edge16" class="edge"><title>Node8&#45;&gt;Node9</title>
<path fill="none" stroke="midnightblue" d="M390.113,-79.3762C368.654,-67.3054 333.427,-47.4905 308.823,-33.6506"/>
<polygon fill="midnightblue" stroke="midnightblue" points="310.396,-30.5196 299.964,-28.6674 306.964,-36.6206 310.396,-30.5196"/>
</g>
<!-- Node10 -->
<g id="node19" class="node"><title>Node10</title>
<polygon fill="white" stroke="#bfbfbf" points="371.5,-1 371.5,-35 478.5,-35 478.5,-1 371.5,-1"/>
<text text-anchor="start" x="379.5" y="-22" font-family="Helvetica,sans-Serif" font-size="10.00">mars/interfaces/sim</text>
<text text-anchor="middle" x="425" y="-9" font-family="Helvetica,sans-Serif" font-size="10.00">/SimulatorInterface.h</text>
</g>
<!-- Node8&#45;&gt;Node10 -->
<g id="edge18" class="edge"><title>Node8&#45;&gt;Node10</title>
<path fill="none" stroke="midnightblue" d="M411.361,-79.3762C413.364,-70.3602 416.328,-57.0239 418.981,-45.0839"/>
<polygon fill="midnightblue" stroke="midnightblue" points="422.449,-45.6155 421.201,-35.0944 415.615,-44.097 422.449,-45.6155"/>
</g>
<!-- Node11 -->
<g id="node21" class="node"><title>Node11</title>
<polygon fill="white" stroke="#bfbfbf" points="495.5,-1 495.5,-35 598.5,-35 598.5,-1 495.5,-1"/>
<text text-anchor="start" x="503.5" y="-22" font-family="Helvetica,sans-Serif" font-size="10.00">mars/interfaces/sim</text>
<text text-anchor="middle" x="547" y="-9" font-family="Helvetica,sans-Serif" font-size="10.00">/ControlCenter.h</text>
</g>
<!-- Node8&#45;&gt;Node11 -->
<g id="edge20" class="edge"><title>Node8&#45;&gt;Node11</title>
<path fill="none" stroke="midnightblue" d="M429.362,-79.3762C449.261,-68.9942 480.14,-52.8833 505.269,-39.7727"/>
<polygon fill="midnightblue" stroke="midnightblue" points="506.989,-42.8231 514.236,-35.0944 503.751,-36.617 506.989,-42.8231"/>
</g>
<!-- Node12 -->
<g id="node23" class="node"><title>Node12</title>
<polygon fill="white" stroke="#bfbfbf" points="615.5,-1 615.5,-35 718.5,-35 718.5,-1 615.5,-1"/>
<text text-anchor="start" x="623.5" y="-22" font-family="Helvetica,sans-Serif" font-size="10.00">mars/interfaces/sim</text>
<text text-anchor="middle" x="667" y="-9" font-family="Helvetica,sans-Serif" font-size="10.00">/LoadCenter.h</text>
</g>
<!-- Node8&#45;&gt;Node12 -->
<g id="edge22" class="edge"><title>Node8&#45;&gt;Node12</title>
<path fill="none" stroke="midnightblue" d="M448.903,-79.4339C486.837,-69.3185 545.741,-53.4298 605.355,-36.4425"/>
<polygon fill="midnightblue" stroke="midnightblue" points="606.661,-39.7094 615.314,-33.596 604.737,-32.9789 606.661,-39.7094"/>
</g>
</g>
</svg>
