<?xml version="1.0" encoding="UTF-8" standalone="no"?>
<!DOCTYPE svg PUBLIC "-//W3C//DTD SVG 1.1//EN"
 "http://www.w3.org/Graphics/SVG/1.1/DTD/svg11.dtd">
<!-- Generated by graphviz version 2.26.3 (20100126.1600)
 -->
<!-- Title: /home/kavonszadkowski/limes&#45;dev/simulation/mars/plugins/mars_plugin_collection/hud_calibration/src/HudCalibration.cpp Pages: 1 -->
<svg width="919pt" height="226pt"
 viewBox="0.00 0.00 919.00 226.00" xmlns="http://www.w3.org/2000/svg" xmlns:xlink="http://www.w3.org/1999/xlink">
<g id="graph1" class="graph" transform="scale(1 1) rotate(0) translate(4 222)">
<title>/home/kavonszadkowski/limes&#45;dev/simulation/mars/plugins/mars_plugin_collection/hud_calibration/src/HudCalibration.cpp</title>
<polygon fill="white" stroke="white" points="-4,5 -4,-222 916,-222 916,5 -4,5"/>
<!-- Node1 -->
<g id="node1" class="node"><title>Node1</title>
<polygon fill="#bfbfbf" stroke="black" points="518.5,-144.5 518.5,-217.5 649.5,-217.5 649.5,-144.5 518.5,-144.5"/>
<text text-anchor="start" x="526.5" y="-204.5" font-family="Helvetica,sans-Serif" font-size="10.00">/home/kavonszadkowski</text>
<text text-anchor="start" x="526.5" y="-191.5" font-family="Helvetica,sans-Serif" font-size="10.00">/limes&#45;dev/simulation</text>
<text text-anchor="start" x="526.5" y="-178.5" font-family="Helvetica,sans-Serif" font-size="10.00">/mars/plugins/mars_plugin</text>
<text text-anchor="start" x="526.5" y="-165.5" font-family="Helvetica,sans-Serif" font-size="10.00">_collection/hud_calibration</text>
<text text-anchor="middle" x="584" y="-152.5" font-family="Helvetica,sans-Serif" font-size="10.00">/src/HudCalibration.cpp</text>
</g>
<!-- Node2 -->
<g id="node3" class="node"><title>Node2</title>
<a xlink:href="../../d4/d96/_hud_calibration_8h.html" target="_top" xlink:title="creates ">
<polygon fill="white" stroke="black" points="320.5,-79.5 320.5,-100.5 409.5,-100.5 409.5,-79.5 320.5,-79.5"/>
<text text-anchor="middle" x="365" y="-87.5" font-family="Helvetica,sans-Serif" font-size="10.00">HudCalibration.h</text>
</a>
</g>
<!-- Node1&#45;&gt;Node2 -->
<g id="edge2" class="edge"><title>Node1&#45;&gt;Node2</title>
<path fill="none" stroke="midnightblue" d="M518.293,-153.697C479.357,-137.518 431.578,-117.665 399.814,-104.466"/>
<polygon fill="midnightblue" stroke="midnightblue" points="401.076,-101.2 390.499,-100.595 398.39,-107.665 401.076,-101.2"/>
</g>
<!-- Node8 -->
<g id="node15" class="node"><title>Node8</title>
<polygon fill="white" stroke="#bfbfbf" points="426.5,-73 426.5,-107 571.5,-107 571.5,-73 426.5,-73"/>
<text text-anchor="start" x="434.5" y="-94" font-family="Helvetica,sans-Serif" font-size="10.00">mars/data_broker/DataBroker</text>
<text text-anchor="middle" x="499" y="-81" font-family="Helvetica,sans-Serif" font-size="10.00">Interface.h</text>
</g>
<!-- Node1&#45;&gt;Node8 -->
<g id="edge14" class="edge"><title>Node1&#45;&gt;Node8</title>
<path fill="none" stroke="midnightblue" d="M549.672,-144.249C540.407,-134.33 530.603,-123.834 522.113,-114.744"/>
<polygon fill="midnightblue" stroke="midnightblue" points="524.42,-112.087 515.036,-107.168 519.305,-116.865 524.42,-112.087"/>
</g>
<!-- Node9 -->
<g id="node17" class="node"><title>Node9</title>
<polygon fill="white" stroke="#bfbfbf" points="588.5,-79.5 588.5,-100.5 751.5,-100.5 751.5,-79.5 588.5,-79.5"/>
<text text-anchor="middle" x="670" y="-87.5" font-family="Helvetica,sans-Serif" font-size="10.00">mars/data_broker/DataPackage.h</text>
</g>
<!-- Node1&#45;&gt;Node9 -->
<g id="edge16" class="edge"><title>Node1&#45;&gt;Node9</title>
<path fill="none" stroke="midnightblue" d="M618.732,-144.249C630.619,-131.671 643.383,-118.165 653.201,-107.776"/>
<polygon fill="midnightblue" stroke="midnightblue" points="655.747,-110.177 660.072,-100.506 650.659,-105.369 655.747,-110.177"/>
</g>
<!-- Node10 -->
<g id="node19" class="node"><title>Node10</title>
<polygon fill="white" stroke="#bfbfbf" points="768.5,-73 768.5,-107 911.5,-107 911.5,-73 768.5,-73"/>
<text text-anchor="start" x="776.5" y="-94" font-family="Helvetica,sans-Serif" font-size="10.00">mars/interfaces/graphics</text>
<text text-anchor="middle" x="840" y="-81" font-family="Helvetica,sans-Serif" font-size="10.00">/GraphicsManagerInterface.h</text>
</g>
<!-- Node1&#45;&gt;Node10 -->
<g id="edge18" class="edge"><title>Node1&#45;&gt;Node10</title>
<path fill="none" stroke="midnightblue" d="M649.594,-157.683C690.565,-143.12 742.829,-124.541 782.233,-110.534"/>
<polygon fill="midnightblue" stroke="midnightblue" points="783.709,-113.724 791.959,-107.077 781.364,-107.129 783.709,-113.724"/>
</g>
<!-- Node3 -->
<g id="node5" class="node"><title>Node3</title>
<polygon fill="white" stroke="#bfbfbf" points="-0.5,-1 -0.5,-35 116.5,-35 116.5,-1 -0.5,-1"/>
<text text-anchor="start" x="7.5" y="-22" font-family="Helvetica,sans-Serif" font-size="10.00">mars/interfaces/sim</text>
<text text-anchor="middle" x="58" y="-9" font-family="Helvetica,sans-Serif" font-size="10.00">/MarsPluginTemplate.h</text>
</g>
<!-- Node2&#45;&gt;Node3 -->
<g id="edge4" class="edge"><title>Node2&#45;&gt;Node3</title>
<path fill="none" stroke="midnightblue" d="M320.196,-80.4957C273.965,-70.5601 199.536,-54.2076 126.603,-36.3545"/>
<polygon fill="midnightblue" stroke="midnightblue" points="127.337,-32.931 116.791,-33.9412 125.665,-39.7284 127.337,-32.931"/>
</g>
<!-- Node4 -->
<g id="node7" class="node"><title>Node4</title>
<polygon fill="white" stroke="#bfbfbf" points="134,-7.5 134,-28.5 280,-28.5 280,-7.5 134,-7.5"/>
<text text-anchor="middle" x="207" y="-15.5" font-family="Helvetica,sans-Serif" font-size="10.00">mars/interfaces/MARSDefs.h</text>
</g>
<!-- Node2&#45;&gt;Node4 -->
<g id="edge6" class="edge"><title>Node2&#45;&gt;Node4</title>
<path fill="none" stroke="midnightblue" d="M341.687,-79.3762C314.654,-67.0574 269.921,-46.673 239.489,-32.8052"/>
<polygon fill="midnightblue" stroke="midnightblue" points="240.703,-29.512 230.152,-28.5501 237.8,-35.8818 240.703,-29.512"/>
</g>
<!-- Node5 -->
<g id="node9" class="node"><title>Node5</title>
<polygon fill="white" stroke="#bfbfbf" points="298,-1 298,-35 432,-35 432,-1 298,-1"/>
<text text-anchor="start" x="306" y="-22" font-family="Helvetica,sans-Serif" font-size="10.00">mars/data_broker/Receiver</text>
<text text-anchor="middle" x="365" y="-9" font-family="Helvetica,sans-Serif" font-size="10.00">Interface.h</text>
</g>
<!-- Node2&#45;&gt;Node5 -->
<g id="edge8" class="edge"><title>Node2&#45;&gt;Node5</title>
<path fill="none" stroke="midnightblue" d="M365,-79.3762C365,-70.4513 365,-57.2928 365,-45.4461"/>
<polygon fill="midnightblue" stroke="midnightblue" points="368.5,-45.0943 365,-35.0944 361.5,-45.0944 368.5,-45.0943"/>
</g>
<!-- Node6 -->
<g id="node11" class="node"><title>Node6</title>
<polygon fill="white" stroke="#bfbfbf" points="449.5,-1 449.5,-35 608.5,-35 608.5,-1 449.5,-1"/>
<text text-anchor="start" x="457.5" y="-22" font-family="Helvetica,sans-Serif" font-size="10.00">mars/cfg_manager/CFGManager</text>
<text text-anchor="middle" x="529" y="-9" font-family="Helvetica,sans-Serif" font-size="10.00">Interface.h</text>
</g>
<!-- Node2&#45;&gt;Node6 -->
<g id="edge10" class="edge"><title>Node2&#45;&gt;Node6</title>
<path fill="none" stroke="midnightblue" d="M389.199,-79.3762C413.158,-68.8576 450.511,-52.4584 480.582,-39.2567"/>
<polygon fill="midnightblue" stroke="midnightblue" points="482.313,-42.3191 490.063,-35.0944 479.499,-35.9096 482.313,-42.3191"/>
</g>
<!-- Node7 -->
<g id="node13" class="node"><title>Node7</title>
<polygon fill="white" stroke="#bfbfbf" points="625.5,-7.5 625.5,-28.5 666.5,-28.5 666.5,-7.5 625.5,-7.5"/>
<text text-anchor="middle" x="646" y="-15.5" font-family="Helvetica,sans-Serif" font-size="10.00">string</text>
</g>
<!-- Node2&#45;&gt;Node7 -->
<g id="edge12" class="edge"><title>Node2&#45;&gt;Node7</title>
<path fill="none" stroke="midnightblue" d="M393.371,-79.4987C401.273,-76.8116 409.909,-74.0934 418,-72 505.015,-49.4861 533.113,-68.2699 617,-36 618.825,-35.2979 620.662,-34.4777 622.476,-33.5816"/>
<polygon fill="midnightblue" stroke="midnightblue" points="624.216,-36.6187 631.212,-28.6625 620.782,-30.5191 624.216,-36.6187"/>
</g>
</g>
</svg>
