<?xml version="1.0" encoding="UTF-8" standalone="no"?>
<!DOCTYPE svg PUBLIC "-//W3C//DTD SVG 1.1//EN"
 "http://www.w3.org/Graphics/SVG/1.1/DTD/svg11.dtd">
<!-- Generated by graphviz version 2.26.3 (20100126.1600)
 -->
<!-- Title: mars::scene_loader::Zipit Pages: 1 -->
<svg width="117pt" height="116pt"
 viewBox="0.00 0.00 117.00 116.00" xmlns="http://www.w3.org/2000/svg" xmlns:xlink="http://www.w3.org/1999/xlink">
<g id="graph1" class="graph" transform="scale(1 1) rotate(0) translate(4 112)">
<title>mars::scene_loader::Zipit</title>
<polygon fill="white" stroke="white" points="-4,5 -4,-112 114,-112 114,5 -4,5"/>
<!-- Node1 -->
<g id="node1" class="node"><title>Node1</title>
<polygon fill="#bfbfbf" stroke="black" points="0,-1 0,-35 102,-35 102,-1 0,-1"/>
<text text-anchor="start" x="8" y="-22" font-family="Helvetica,sans-Serif" font-size="10.00">mars::scene_loader</text>
<text text-anchor="middle" x="51" y="-9" font-family="Helvetica,sans-Serif" font-size="10.00">::Zipit</text>
</g>
<!-- Node2 -->
<g id="node2" class="node"><title>Node2</title>
<polygon fill="white" stroke="#bfbfbf" points="30.5,-86.5 30.5,-107.5 71.5,-107.5 71.5,-86.5 30.5,-86.5"/>
<text text-anchor="middle" x="51" y="-94.5" font-family="Helvetica,sans-Serif" font-size="10.00">string</text>
</g>
<!-- Node2&#45;&gt;Node1 -->
<g id="edge2" class="edge"><title>Node2&#45;&gt;Node1</title>
<path fill="none" stroke="#9a32cd" stroke-dasharray="5,2" d="M51,-76.1618C51,-63.3635 51,-47.1713 51,-35.1236"/>
<polygon fill="#9a32cd" stroke="#9a32cd" points="47.5001,-76.3457 51,-86.3457 54.5001,-76.3457 47.5001,-76.3457"/>
<text text-anchor="middle" x="80" y="-58.5" font-family="Helvetica,sans-Serif" font-size="10.00"> zipFileName</text>
</g>
</g>
</svg>
