<?xml version="1.0" encoding="UTF-8" standalone="no"?>
<!DOCTYPE svg PUBLIC "-//W3C//DTD SVG 1.1//EN"
 "http://www.w3.org/Graphics/SVG/1.1/DTD/svg11.dtd">
<!-- Generated by graphviz version 2.36.0 (20140111.2315)
 -->
<!-- Title: /media/kavonszadkowski/work/marsdocs/mars/graphics/src/shadow/ShadowMap.h Pages: 1 -->
<svg width="689pt" height="206pt"
 viewBox="0.00 0.00 689.00 206.00" xmlns="http://www.w3.org/2000/svg" xmlns:xlink="http://www.w3.org/1999/xlink">
<g id="graph0" class="graph" transform="scale(1 1) rotate(0) translate(4 202)">
<title>/media/kavonszadkowski/work/marsdocs/mars/graphics/src/shadow/ShadowMap.h</title>
<polygon fill="white" stroke="none" points="-4,4 -4,-202 685,-202 685,4 -4,4"/>
<!-- Node1 -->
<g id="node1" class="node"><title>Node1</title>
<polygon fill="#bfbfbf" stroke="black" points="342.5,-156.5 342.5,-197.5 493.5,-197.5 493.5,-156.5 342.5,-156.5"/>
<text text-anchor="start" x="350.5" y="-185.5" font-family="Helvetica,sans-Serif" font-size="10.00">/media/kavonszadkowski</text>
<text text-anchor="start" x="350.5" y="-174.5" font-family="Helvetica,sans-Serif" font-size="10.00">/work/marsdocs/mars/graphics</text>
<text text-anchor="middle" x="418" y="-163.5" font-family="Helvetica,sans-Serif" font-size="10.00">/src/shadow/ShadowMap.h</text>
</g>
<!-- Node2 -->
<g id="node2" class="node"><title>Node2</title>
<g id="a_node2"><a xlink:href="../../d9/d47/_graphics_manager_8h.html" target="_top" xlink:title="/media/kavonszadkowski\l/work/marsdocs/mars/graphics\l/src/GraphicsManager.h">
<polygon fill="white" stroke="black" points="258.5,-78.5 258.5,-119.5 409.5,-119.5 409.5,-78.5 258.5,-78.5"/>
<text text-anchor="start" x="266.5" y="-107.5" font-family="Helvetica,sans-Serif" font-size="10.00">/media/kavonszadkowski</text>
<text text-anchor="start" x="266.5" y="-96.5" font-family="Helvetica,sans-Serif" font-size="10.00">/work/marsdocs/mars/graphics</text>
<text text-anchor="middle" x="334" y="-85.5" font-family="Helvetica,sans-Serif" font-size="10.00">/src/GraphicsManager.h</text>
</a>
</g>
</g>
<!-- Node1&#45;&gt;Node2 -->
<g id="edge1" class="edge"><title>Node1&#45;&gt;Node2</title>
<path fill="none" stroke="midnightblue" d="M388.701,-149.492C377.801,-139.629 365.641,-128.627 355.559,-119.506"/>
<polygon fill="midnightblue" stroke="midnightblue" points="386.604,-152.314 396.368,-156.428 391.301,-147.124 386.604,-152.314"/>
</g>
<!-- Node7 -->
<g id="node7" class="node"><title>Node7</title>
<g id="a_node7"><a xlink:href="../../d1/d11/_shadow_map_8cpp.html" target="_top" xlink:title="The ShadowMap is a clone of the original osgShadow::ShadowMap but allows to render the shadow texture...">
<polygon fill="white" stroke="black" points="427.5,-78.5 427.5,-119.5 578.5,-119.5 578.5,-78.5 427.5,-78.5"/>
<text text-anchor="start" x="435.5" y="-107.5" font-family="Helvetica,sans-Serif" font-size="10.00">/media/kavonszadkowski</text>
<text text-anchor="start" x="435.5" y="-96.5" font-family="Helvetica,sans-Serif" font-size="10.00">/work/marsdocs/mars/graphics</text>
<text text-anchor="middle" x="503" y="-85.5" font-family="Helvetica,sans-Serif" font-size="10.00">/src/shadow/ShadowMap.cpp</text>
</a>
</g>
</g>
<!-- Node1&#45;&gt;Node7 -->
<g id="edge6" class="edge"><title>Node1&#45;&gt;Node7</title>
<path fill="none" stroke="midnightblue" d="M447.648,-149.492C458.678,-139.629 470.983,-128.627 481.185,-119.506"/>
<polygon fill="midnightblue" stroke="midnightblue" points="445.011,-147.154 439.89,-156.428 449.677,-152.372 445.011,-147.154"/>
</g>
<!-- Node3 -->
<g id="node3" class="node"><title>Node3</title>
<g id="a_node3"><a xlink:href="../../d1/de8/_draw_object_8cpp.html" target="_top" xlink:title="/media/kavonszadkowski\l/work/marsdocs/mars/graphics\l/src/3d_objects/DrawObject.cpp">
<polygon fill="white" stroke="black" points="-0.5,-0.5 -0.5,-41.5 156.5,-41.5 156.5,-0.5 -0.5,-0.5"/>
<text text-anchor="start" x="7.5" y="-29.5" font-family="Helvetica,sans-Serif" font-size="10.00">/media/kavonszadkowski</text>
<text text-anchor="start" x="7.5" y="-18.5" font-family="Helvetica,sans-Serif" font-size="10.00">/work/marsdocs/mars/graphics</text>
<text text-anchor="middle" x="78" y="-7.5" font-family="Helvetica,sans-Serif" font-size="10.00">/src/3d_objects/DrawObject.cpp</text>
</a>
</g>
</g>
<!-- Node2&#45;&gt;Node3 -->
<g id="edge2" class="edge"><title>Node2&#45;&gt;Node3</title>
<path fill="none" stroke="midnightblue" d="M258.482,-75.5805C222.048,-64.7644 178.754,-51.9115 143.703,-41.5056"/>
<polygon fill="midnightblue" stroke="midnightblue" points="257.491,-78.9373 268.074,-78.4281 259.483,-72.2268 257.491,-78.9373"/>
</g>
<!-- Node4 -->
<g id="node4" class="node"><title>Node4</title>
<g id="a_node4"><a xlink:href="../../d7/d19/_graphics_manager_8cpp.html" target="_top" xlink:title="/media/kavonszadkowski\l/work/marsdocs/mars/graphics\l/src/GraphicsManager.cpp">
<polygon fill="white" stroke="black" points="174.5,-0.5 174.5,-41.5 325.5,-41.5 325.5,-0.5 174.5,-0.5"/>
<text text-anchor="start" x="182.5" y="-29.5" font-family="Helvetica,sans-Serif" font-size="10.00">/media/kavonszadkowski</text>
<text text-anchor="start" x="182.5" y="-18.5" font-family="Helvetica,sans-Serif" font-size="10.00">/work/marsdocs/mars/graphics</text>
<text text-anchor="middle" x="250" y="-7.5" font-family="Helvetica,sans-Serif" font-size="10.00">/src/GraphicsManager.cpp</text>
</a>
</g>
</g>
<!-- Node2&#45;&gt;Node4 -->
<g id="edge3" class="edge"><title>Node2&#45;&gt;Node4</title>
<path fill="none" stroke="midnightblue" d="M304.701,-71.4916C293.801,-61.6294 281.641,-50.6273 271.559,-41.5056"/>
<polygon fill="midnightblue" stroke="midnightblue" points="302.604,-74.3143 312.368,-78.4281 307.301,-69.1236 302.604,-74.3143"/>
</g>
<!-- Node5 -->
<g id="node5" class="node"><title>Node5</title>
<g id="a_node5"><a xlink:href="../../d0/d77/_graphics_widget_8cpp.html" target="_top" xlink:title="/media/kavonszadkowski\l/work/marsdocs/mars/graphics\l/src/GraphicsWidget.cpp">
<polygon fill="white" stroke="black" points="343.5,-0.5 343.5,-41.5 494.5,-41.5 494.5,-0.5 343.5,-0.5"/>
<text text-anchor="start" x="351.5" y="-29.5" font-family="Helvetica,sans-Serif" font-size="10.00">/media/kavonszadkowski</text>
<text text-anchor="start" x="351.5" y="-18.5" font-family="Helvetica,sans-Serif" font-size="10.00">/work/marsdocs/mars/graphics</text>
<text text-anchor="middle" x="419" y="-7.5" font-family="Helvetica,sans-Serif" font-size="10.00">/src/GraphicsWidget.cpp</text>
</a>
</g>
</g>
<!-- Node2&#45;&gt;Node5 -->
<g id="edge4" class="edge"><title>Node2&#45;&gt;Node5</title>
<path fill="none" stroke="midnightblue" d="M363.648,-71.4916C374.678,-61.6294 386.983,-50.6273 397.185,-41.5056"/>
<polygon fill="midnightblue" stroke="midnightblue" points="361.011,-69.1535 355.89,-78.4281 365.677,-74.3719 361.011,-69.1535"/>
</g>
<!-- Node6 -->
<g id="node6" class="node"><title>Node6</title>
<g id="a_node6"><a xlink:href="../../d0/dcf/_qt_osg_mix_graphics_widget_8cpp.html" target="_top" xlink:title="/media/kavonszadkowski\l/work/marsdocs/mars/graphics\l/src/QtOsgMixGraphicsWidget.cpp">
<polygon fill="white" stroke="black" points="512.5,-0.5 512.5,-41.5 681.5,-41.5 681.5,-0.5 512.5,-0.5"/>
<text text-anchor="start" x="520.5" y="-29.5" font-family="Helvetica,sans-Serif" font-size="10.00">/media/kavonszadkowski</text>
<text text-anchor="start" x="520.5" y="-18.5" font-family="Helvetica,sans-Serif" font-size="10.00">/work/marsdocs/mars/graphics</text>
<text text-anchor="middle" x="597" y="-7.5" font-family="Helvetica,sans-Serif" font-size="10.00">/src/QtOsgMixGraphicsWidget.cpp</text>
</a>
</g>
</g>
<!-- Node2&#45;&gt;Node6 -->
<g id="edge5" class="edge"><title>Node2&#45;&gt;Node6</title>
<path fill="none" stroke="midnightblue" d="M411.583,-75.5805C449.013,-64.7644 493.491,-51.9115 529.5,-41.5056"/>
<polygon fill="midnightblue" stroke="midnightblue" points="410.364,-72.2895 401.729,-78.4281 412.308,-79.0143 410.364,-72.2895"/>
</g>
</g>
</svg>
