<?xml version="1.0" encoding="UTF-8" standalone="no"?>
<!DOCTYPE svg PUBLIC "-//W3C//DTD SVG 1.1//EN"
 "http://www.w3.org/Graphics/SVG/1.1/DTD/svg11.dtd">
<!-- Generated by graphviz version 2.26.3 (20100126.1600)
 -->
<!-- Title: /home/kavonszadkowski/limes&#45;dev/simulation/mars/plugins/joystick_plugin/game_controller_test_app/src/MyDoubleSlider.cpp Pages: 1 -->
<svg width="214pt" height="198pt"
 viewBox="0.00 0.00 214.00 198.00" xmlns="http://www.w3.org/2000/svg" xmlns:xlink="http://www.w3.org/1999/xlink">
<g id="graph1" class="graph" transform="scale(1 1) rotate(0) translate(4 194)">
<title>/home/kavonszadkowski/limes&#45;dev/simulation/mars/plugins/joystick_plugin/game_controller_test_app/src/MyDoubleSlider.cpp</title>
<polygon fill="white" stroke="white" points="-4,5 -4,-194 211,-194 211,5 -4,5"/>
<!-- Node1 -->
<g id="node1" class="node"><title>Node1</title>
<polygon fill="#bfbfbf" stroke="black" points="13.5,-116.5 13.5,-189.5 180.5,-189.5 180.5,-116.5 13.5,-116.5"/>
<text text-anchor="start" x="21.5" y="-176.5" font-family="Helvetica,sans-Serif" font-size="10.00">/home/kavonszadkowski</text>
<text text-anchor="start" x="21.5" y="-163.5" font-family="Helvetica,sans-Serif" font-size="10.00">/limes&#45;dev/simulation</text>
<text text-anchor="start" x="21.5" y="-150.5" font-family="Helvetica,sans-Serif" font-size="10.00">/mars/plugins/joystick</text>
<text text-anchor="start" x="21.5" y="-137.5" font-family="Helvetica,sans-Serif" font-size="10.00">_plugin/game_controller</text>
<text text-anchor="middle" x="97" y="-124.5" font-family="Helvetica,sans-Serif" font-size="10.00">_test_app/src/MyDoubleSlider.cpp</text>
</g>
<!-- Node2 -->
<g id="node3" class="node"><title>Node2</title>
<a xlink:href="../../d2/db7/_my_double_slider_8h.html" target="_top" xlink:title="MyDoubleSlider.h">
<polygon fill="white" stroke="black" points="50,-58.5 50,-79.5 144,-79.5 144,-58.5 50,-58.5"/>
<text text-anchor="middle" x="97" y="-66.5" font-family="Helvetica,sans-Serif" font-size="10.00">MyDoubleSlider.h</text>
</a>
</g>
<!-- Node1&#45;&gt;Node2 -->
<g id="edge2" class="edge"><title>Node1&#45;&gt;Node2</title>
<path fill="none" stroke="midnightblue" d="M97,-116.401C97,-107.386 97,-98.0332 97,-90.0418"/>
<polygon fill="midnightblue" stroke="midnightblue" points="100.5,-89.8283 97,-79.8283 93.5001,-89.8284 100.5,-89.8283"/>
</g>
<!-- Node3 -->
<g id="node5" class="node"><title>Node3</title>
<polygon fill="white" stroke="#bfbfbf" points="-0.5,-0.5 -0.5,-21.5 82.5,-21.5 82.5,-0.5 -0.5,-0.5"/>
<text text-anchor="middle" x="41" y="-8.5" font-family="Helvetica,sans-Serif" font-size="10.00">QtGui/QWidget</text>
</g>
<!-- Node2&#45;&gt;Node3 -->
<g id="edge4" class="edge"><title>Node2&#45;&gt;Node3</title>
<path fill="none" stroke="midnightblue" d="M86.7287,-58.3619C78.7559,-50.1043 67.5252,-38.4725 58.189,-28.8029"/>
<polygon fill="midnightblue" stroke="midnightblue" points="60.67,-26.3336 51.2061,-21.5707 55.6342,-31.1958 60.67,-26.3336"/>
</g>
<!-- Node4 -->
<g id="node7" class="node"><title>Node4</title>
<polygon fill="white" stroke="#bfbfbf" points="99.5,-0.5 99.5,-21.5 206.5,-21.5 206.5,-0.5 99.5,-0.5"/>
<text text-anchor="middle" x="153" y="-8.5" font-family="Helvetica,sans-Serif" font-size="10.00">ui_MyDoubleSlider.h</text>
</g>
<!-- Node2&#45;&gt;Node4 -->
<g id="edge6" class="edge"><title>Node2&#45;&gt;Node4</title>
<path fill="none" stroke="midnightblue" d="M107.271,-58.3619C115.244,-50.1043 126.475,-38.4725 135.811,-28.8029"/>
<polygon fill="midnightblue" stroke="midnightblue" points="138.366,-31.1958 142.794,-21.5707 133.33,-26.3336 138.366,-31.1958"/>
</g>
</g>
</svg>
