<?xml version="1.0" encoding="UTF-8" standalone="no"?>
<!DOCTYPE svg PUBLIC "-//W3C//DTD SVG 1.1//EN"
 "http://www.w3.org/Graphics/SVG/1.1/DTD/svg11.dtd">
<!-- Generated by graphviz version 2.36.0 (20140111.2315)
 -->
<!-- Title: mars::graphics::nodemanager Pages: 1 -->
<svg width="1070pt" height="361pt"
 viewBox="0.00 0.00 1070.00 360.81" xmlns="http://www.w3.org/2000/svg" xmlns:xlink="http://www.w3.org/1999/xlink">
<g id="graph0" class="graph" transform="scale(1 1) rotate(0) translate(4 356.805)">
<title>mars::graphics::nodemanager</title>
<polygon fill="white" stroke="none" points="-4,4 -4,-356.805 1066,-356.805 1066,4 -4,4"/>
<!-- Node1 -->
<g id="node1" class="node"><title>Node1</title>
<polygon fill="#bfbfbf" stroke="black" points="916,-293.305 916,-312.305 1062,-312.305 1062,-293.305 916,-293.305"/>
<text text-anchor="middle" x="989" y="-300.305" font-family="Helvetica,sans-Serif" font-size="10.00">mars::graphics::nodemanager</text>
</g>
<!-- Node2 -->
<g id="node2" class="node"><title>Node2</title>
<g id="a_node2"><a xlink:href="../../d8/d4f/structmars_1_1interfaces_1_1_node_data.html" target="_top" xlink:title="NodeData is a struct to exchange node information between the GUI and the simulation. ">
<polygon fill="white" stroke="black" points="712.5,-218.305 712.5,-237.305 849.5,-237.305 849.5,-218.305 712.5,-218.305"/>
<text text-anchor="middle" x="781" y="-225.305" font-family="Helvetica,sans-Serif" font-size="10.00">mars::interfaces::NodeData</text>
</a>
</g>
</g>
<!-- Node2&#45;&gt;Node1 -->
<g id="edge1" class="edge"><title>Node2&#45;&gt;Node1</title>
<path fill="none" stroke="#9a32cd" stroke-dasharray="5,2" d="M818.118,-240.955C859.142,-255.891 925.106,-279.907 961.593,-293.191"/>
<polygon fill="#9a32cd" stroke="#9a32cd" points="819.103,-237.589 808.509,-237.456 816.708,-244.166 819.103,-237.589"/>
<text text-anchor="middle" x="883" y="-271.805" font-family="Helvetica,sans-Serif" font-size="10.00"> snode</text>
</g>
<!-- Node3 -->
<g id="node3" class="node"><title>Node3</title>
<g id="a_node3"><a xlink:href="../../dc/d1d/structmars_1_1interfaces_1_1contact__params.html" target="_top" xlink:title="mars::interfaces::contact\l_params">
<polygon fill="white" stroke="black" points="504.5,-274.805 504.5,-304.805 629.5,-304.805 629.5,-274.805 504.5,-274.805"/>
<text text-anchor="start" x="512.5" y="-292.805" font-family="Helvetica,sans-Serif" font-size="10.00">mars::interfaces::contact</text>
<text text-anchor="middle" x="567" y="-281.805" font-family="Helvetica,sans-Serif" font-size="10.00">_params</text>
</a>
</g>
</g>
<!-- Node3&#45;&gt;Node2 -->
<g id="edge2" class="edge"><title>Node3&#45;&gt;Node2</title>
<path fill="none" stroke="#9a32cd" stroke-dasharray="5,2" d="M639.43,-274.405C657.361,-270.1 676.482,-265.128 694,-259.805 715.492,-253.275 739.398,-244.23 756.539,-237.423"/>
<polygon fill="#9a32cd" stroke="#9a32cd" points="638.534,-271.02 629.607,-276.726 640.144,-277.832 638.534,-271.02"/>
<text text-anchor="middle" x="671" y="-274.805" font-family="Helvetica,sans-Serif" font-size="10.00"> c_params</text>
</g>
<!-- Node4 -->
<g id="node4" class="node"><title>Node4</title>
<g id="a_node4"><a xlink:href="../../d9/d1d/classmars_1_1interfaces_1_1_material_data.html" target="_top" xlink:title="MaterialData is a struct to exchange material information of nodes. ">
<polygon fill="white" stroke="black" points="190.5,-132.305 190.5,-151.305 339.5,-151.305 339.5,-132.305 190.5,-132.305"/>
<text text-anchor="middle" x="265" y="-139.305" font-family="Helvetica,sans-Serif" font-size="10.00">mars::interfaces::MaterialData</text>
</a>
</g>
</g>
<!-- Node4&#45;&gt;Node2 -->
<g id="edge3" class="edge"><title>Node4&#45;&gt;Node2</title>
<path fill="none" stroke="#9a32cd" stroke-dasharray="5,2" d="M349.826,-139.234C424.356,-138.799 535.795,-142.711 630,-164.805 680.323,-176.607 735.35,-203.729 762.641,-218.237"/>
<polygon fill="#9a32cd" stroke="#9a32cd" points="349.529,-135.737 339.56,-139.323 349.59,-142.736 349.529,-135.737"/>
<text text-anchor="middle" x="567" y="-167.805" font-family="Helvetica,sans-Serif" font-size="10.00"> material</text>
</g>
<!-- Node7 -->
<g id="node7" class="node"><title>Node7</title>
<g id="a_node7"><a xlink:href="../../de/dd2/structmars_1_1interfaces_1_1terrain_struct.html" target="_top" xlink:title="terrainStruct is a struct to exchange height maps between the GUI and the simulation ...">
<polygon fill="white" stroke="black" points="507,-185.805 507,-215.805 627,-215.805 627,-185.805 507,-185.805"/>
<text text-anchor="start" x="515" y="-203.805" font-family="Helvetica,sans-Serif" font-size="10.00">mars::interfaces::terrain</text>
<text text-anchor="middle" x="567" y="-192.805" font-family="Helvetica,sans-Serif" font-size="10.00">Struct</text>
</a>
</g>
</g>
<!-- Node4&#45;&gt;Node7 -->
<g id="edge7" class="edge"><title>Node4&#45;&gt;Node7</title>
<path fill="none" stroke="#9a32cd" stroke-dasharray="5,2" d="M349.634,-151.734C390.955,-157.397 441.396,-165.45 486,-175.805 497.765,-178.536 510.31,-182.124 521.893,-185.727"/>
<polygon fill="#9a32cd" stroke="#9a32cd" points="349.986,-148.25 339.608,-150.382 349.05,-155.187 349.986,-148.25"/>
<text text-anchor="middle" x="422" y="-178.805" font-family="Helvetica,sans-Serif" font-size="10.00"> material</text>
</g>
<!-- Node5 -->
<g id="node5" class="node"><title>Node5</title>
<polygon fill="white" stroke="#bfbfbf" points="25.5,-216.305 25.5,-235.305 66.5,-235.305 66.5,-216.305 25.5,-216.305"/>
<text text-anchor="middle" x="46" y="-223.305" font-family="Helvetica,sans-Serif" font-size="10.00">string</text>
</g>
<!-- Node5&#45;&gt;Node1 -->
<g id="edge12" class="edge"><title>Node5&#45;&gt;Node1</title>
<path fill="none" stroke="#9a32cd" stroke-dasharray="5,2" d="M64.214,-242.715C98.8896,-274.904 180.949,-341.805 264,-341.805 264,-341.805 264,-341.805 782,-341.805 845.153,-341.805 917.325,-323.891 957.283,-312.346"/>
<polygon fill="#9a32cd" stroke="#9a32cd" points="66.4762,-240.037 56.8118,-235.695 61.6593,-245.116 66.4762,-240.037"/>
<text text-anchor="middle" x="567" y="-344.805" font-family="Helvetica,sans-Serif" font-size="10.00"> name</text>
</g>
<!-- Node5&#45;&gt;Node2 -->
<g id="edge9" class="edge"><title>Node5&#45;&gt;Node2</title>
<path fill="none" stroke="#9a32cd" stroke-dasharray="5,2" d="M77.1145,-228.923C106.024,-231.727 150.939,-235.586 190,-236.805 305.998,-240.426 663.015,-232.744 694,-231.805 699.976,-231.624 706.184,-231.402 712.406,-231.156"/>
<polygon fill="#9a32cd" stroke="#9a32cd" points="77.1602,-225.411 66.864,-227.908 76.4703,-232.377 77.1602,-225.411"/>
<text text-anchor="middle" x="422" y="-261.805" font-family="Helvetica,sans-Serif" font-size="10.00"> origName</text>
<text text-anchor="middle" x="422" y="-250.805" font-family="Helvetica,sans-Serif" font-size="10.00">name</text>
<text text-anchor="middle" x="422" y="-239.805" font-family="Helvetica,sans-Serif" font-size="10.00">filename</text>
</g>
<!-- Node5&#45;&gt;Node4 -->
<g id="edge4" class="edge"><title>Node5&#45;&gt;Node4</title>
<path fill="none" stroke="#9a32cd" stroke-dasharray="5,2" d="M55.0848,-206.901C64.8277,-186.821 83.2897,-156.172 110,-142.805 144.31,-125.634 188.544,-127.399 220.796,-132.267"/>
<polygon fill="#9a32cd" stroke="#9a32cd" points="51.8815,-205.489 50.8955,-216.038 58.2447,-208.407 51.8815,-205.489"/>
<text text-anchor="middle" x="141" y="-178.805" font-family="Helvetica,sans-Serif" font-size="10.00"> normalmap</text>
<text text-anchor="middle" x="141" y="-167.805" font-family="Helvetica,sans-Serif" font-size="10.00">bumpmap</text>
<text text-anchor="middle" x="141" y="-156.805" font-family="Helvetica,sans-Serif" font-size="10.00">name</text>
<text text-anchor="middle" x="141" y="-145.805" font-family="Helvetica,sans-Serif" font-size="10.00">texturename</text>
</g>
<!-- Node5&#45;&gt;Node7 -->
<g id="edge8" class="edge"><title>Node5&#45;&gt;Node7</title>
<path fill="none" stroke="#9a32cd" stroke-dasharray="5,2" d="M77.1344,-223.139C106.058,-220.662 150.984,-217.031 190,-214.805 301.847,-208.423 432.584,-204.309 506.704,-202.288"/>
<polygon fill="#9a32cd" stroke="#9a32cd" points="76.5393,-219.677 66.8783,-224.026 77.1428,-226.651 76.5393,-219.677"/>
<text text-anchor="middle" x="265" y="-228.805" font-family="Helvetica,sans-Serif" font-size="10.00"> srcname</text>
<text text-anchor="middle" x="265" y="-217.805" font-family="Helvetica,sans-Serif" font-size="10.00">name</text>
</g>
<!-- Node6 -->
<g id="node6" class="node"><title>Node6</title>
<g id="a_node6"><a xlink:href="../../d4/d7c/classmars_1_1utils_1_1_color.html" target="_top" xlink:title="mars::utils::Color">
<polygon fill="white" stroke="black" points="0,-4.30504 0,-23.305 92,-23.305 92,-4.30504 0,-4.30504"/>
<text text-anchor="middle" x="46" y="-11.305" font-family="Helvetica,sans-Serif" font-size="10.00">mars::utils::Color</text>
</a>
</g>
</g>
<!-- Node6&#45;&gt;Node4 -->
<g id="edge5" class="edge"><title>Node6&#45;&gt;Node4</title>
<path fill="none" stroke="#9a32cd" stroke-dasharray="5,2" d="M102.449,-16.635C125.182,-19.7248 151.024,-25.8472 172,-37.805 213.675,-61.5628 246.151,-111.228 258.546,-132.167"/>
<polygon fill="#9a32cd" stroke="#9a32cd" points="102.596,-13.1277 92.2517,-15.4186 101.767,-20.0785 102.596,-13.1277"/>
<text text-anchor="middle" x="141" y="-117.805" font-family="Helvetica,sans-Serif" font-size="10.00"> ambientBack</text>
<text text-anchor="middle" x="141" y="-106.805" font-family="Helvetica,sans-Serif" font-size="10.00">specularBack</text>
<text text-anchor="middle" x="141" y="-95.805" font-family="Helvetica,sans-Serif" font-size="10.00">specularFront</text>
<text text-anchor="middle" x="141" y="-84.805" font-family="Helvetica,sans-Serif" font-size="10.00">emissionBack</text>
<text text-anchor="middle" x="141" y="-73.805" font-family="Helvetica,sans-Serif" font-size="10.00">ambientFront</text>
<text text-anchor="middle" x="141" y="-62.805" font-family="Helvetica,sans-Serif" font-size="10.00">diffuseBack</text>
<text text-anchor="middle" x="141" y="-51.805" font-family="Helvetica,sans-Serif" font-size="10.00">diffuseFront</text>
<text text-anchor="middle" x="141" y="-40.805" font-family="Helvetica,sans-Serif" font-size="10.00">emissionFront</text>
</g>
<!-- Node8 -->
<g id="node8" class="node"><title>Node8</title>
<g id="a_node8"><a xlink:href="../../d9/dec/structmars_1_1interfaces_1_1snmesh.html" target="_top" xlink:title="mars::interfaces::snmesh">
<polygon fill="white" stroke="black" points="358,-12.305 358,-31.305 486,-31.305 486,-12.305 358,-12.305"/>
<text text-anchor="middle" x="422" y="-19.305" font-family="Helvetica,sans-Serif" font-size="10.00">mars::interfaces::snmesh</text>
</a>
</g>
</g>
<!-- Node6&#45;&gt;Node8 -->
<g id="edge11" class="edge"><title>Node6&#45;&gt;Node8</title>
<path fill="none" stroke="#9a32cd" stroke-dasharray="5,2" d="M102.329,-3.59325C104.917,-3.28924 107.484,-3.02308 110,-2.80504 195.688,4.6195 294.906,-4.50803 357.792,-12.4909"/>
<polygon fill="#9a32cd" stroke="#9a32cd" points="101.749,-0.139438 92.3002,-4.93167 102.675,-7.07791 101.749,-0.139438"/>
<text text-anchor="middle" x="141" y="-5.80504" font-family="Helvetica,sans-Serif" font-size="10.00"> color</text>
</g>
<!-- Node7&#45;&gt;Node2 -->
<g id="edge6" class="edge"><title>Node7&#45;&gt;Node2</title>
<path fill="none" stroke="#9a32cd" stroke-dasharray="5,2" d="M637.19,-209.617C661.295,-212.687 688.3,-216.126 712.284,-219.181"/>
<polygon fill="#9a32cd" stroke="#9a32cd" points="637.416,-206.118 627.054,-208.326 636.531,-213.061 637.416,-206.118"/>
<text text-anchor="middle" x="671" y="-219.805" font-family="Helvetica,sans-Serif" font-size="10.00"> terrain</text>
</g>
<!-- Node8&#45;&gt;Node2 -->
<g id="edge10" class="edge"><title>Node8&#45;&gt;Node2</title>
<path fill="none" stroke="#9a32cd" stroke-dasharray="5,2" d="M474.533,-33.9047C531.913,-49.1217 625.572,-79.2952 694,-127.805 730.614,-153.761 761.574,-198.59 774.076,-218.178"/>
<polygon fill="#9a32cd" stroke="#9a32cd" points="475.162,-30.452 464.603,-31.3248 473.402,-37.2271 475.162,-30.452"/>
<text text-anchor="middle" x="567" y="-91.805" font-family="Helvetica,sans-Serif" font-size="10.00"> mesh</text>
</g>
</g>
</svg>
