<?xml version="1.0" encoding="UTF-8" standalone="no"?>
<!DOCTYPE svg PUBLIC "-//W3C//DTD SVG 1.1//EN"
 "http://www.w3.org/Graphics/SVG/1.1/DTD/svg11.dtd">
<!-- Generated by graphviz version 2.36.0 (20140111.2315)
 -->
<!-- Title: /media/kavonszadkowski/work/marsdocs/mars/interfaces/src/nodeState.h Pages: 1 -->
<svg width="746pt" height="284pt"
 viewBox="0.00 0.00 746.00 284.00" xmlns="http://www.w3.org/2000/svg" xmlns:xlink="http://www.w3.org/1999/xlink">
<g id="graph0" class="graph" transform="scale(1 1) rotate(0) translate(4 280)">
<title>/media/kavonszadkowski/work/marsdocs/mars/interfaces/src/nodeState.h</title>
<polygon fill="white" stroke="none" points="-4,4 -4,-280 742,-280 742,4 -4,4"/>
<!-- Node1 -->
<g id="node1" class="node"><title>Node1</title>
<polygon fill="#bfbfbf" stroke="black" points="350.5,-234.5 350.5,-275.5 507.5,-275.5 507.5,-234.5 350.5,-234.5"/>
<text text-anchor="start" x="358.5" y="-263.5" font-family="Helvetica,sans-Serif" font-size="10.00">/media/kavonszadkowski</text>
<text text-anchor="start" x="358.5" y="-252.5" font-family="Helvetica,sans-Serif" font-size="10.00">/work/marsdocs/mars/interfaces</text>
<text text-anchor="middle" x="429" y="-241.5" font-family="Helvetica,sans-Serif" font-size="10.00">/src/nodeState.h</text>
</g>
<!-- Node2 -->
<g id="node2" class="node"><title>Node2</title>
<g id="a_node2"><a xlink:href="../../dc/d3b/sim__common_8h.html" target="_top" xlink:title="/media/kavonszadkowski\l/work/marsdocs/mars/interfaces\l/src/sim_common.h">
<polygon fill="white" stroke="black" points="261.5,-156.5 261.5,-197.5 418.5,-197.5 418.5,-156.5 261.5,-156.5"/>
<text text-anchor="start" x="269.5" y="-185.5" font-family="Helvetica,sans-Serif" font-size="10.00">/media/kavonszadkowski</text>
<text text-anchor="start" x="269.5" y="-174.5" font-family="Helvetica,sans-Serif" font-size="10.00">/work/marsdocs/mars/interfaces</text>
<text text-anchor="middle" x="340" y="-163.5" font-family="Helvetica,sans-Serif" font-size="10.00">/src/sim_common.h</text>
</a>
</g>
</g>
<!-- Node1&#45;&gt;Node2 -->
<g id="edge1" class="edge"><title>Node1&#45;&gt;Node2</title>
<path fill="none" stroke="midnightblue" d="M398.293,-227.779C386.659,-217.843 373.628,-206.716 362.842,-197.506"/>
<polygon fill="midnightblue" stroke="midnightblue" points="396.203,-230.596 406.08,-234.428 400.749,-225.273 396.203,-230.596"/>
</g>
<!-- Node10 -->
<g id="node10" class="node"><title>Node10</title>
<g id="a_node10"><a xlink:href="../../d1/dd0/_node_manager_interface_8h.html" target="_top" xlink:title="&quot;NodeManagerInterface&quot; declares the interfaces for all NodeOperations that are used for the communica...">
<polygon fill="white" stroke="black" points="437,-156.5 437,-197.5 599,-197.5 599,-156.5 437,-156.5"/>
<text text-anchor="start" x="445" y="-185.5" font-family="Helvetica,sans-Serif" font-size="10.00">/media/kavonszadkowski</text>
<text text-anchor="start" x="445" y="-174.5" font-family="Helvetica,sans-Serif" font-size="10.00">/work/marsdocs/mars/interfaces</text>
<text text-anchor="middle" x="518" y="-163.5" font-family="Helvetica,sans-Serif" font-size="10.00">/src/sim/NodeManagerInterface.h</text>
</a>
</g>
</g>
<!-- Node1&#45;&gt;Node10 -->
<g id="edge9" class="edge"><title>Node1&#45;&gt;Node10</title>
<path fill="none" stroke="midnightblue" d="M459.707,-227.779C471.341,-217.843 484.372,-206.716 495.158,-197.506"/>
<polygon fill="midnightblue" stroke="midnightblue" points="457.251,-225.273 451.92,-234.428 461.797,-230.596 457.251,-225.273"/>
</g>
<!-- Node3 -->
<g id="node3" class="node"><title>Node3</title>
<g id="a_node3"><a xlink:href="../../d5/d60/utils_8h.html" target="_top" xlink:title="/media/kavonszadkowski\l/work/marsdocs/mars/interfaces\l/src/utils.h">
<polygon fill="white" stroke="black" points="86.5,-78.5 86.5,-119.5 243.5,-119.5 243.5,-78.5 86.5,-78.5"/>
<text text-anchor="start" x="94.5" y="-107.5" font-family="Helvetica,sans-Serif" font-size="10.00">/media/kavonszadkowski</text>
<text text-anchor="start" x="94.5" y="-96.5" font-family="Helvetica,sans-Serif" font-size="10.00">/work/marsdocs/mars/interfaces</text>
<text text-anchor="middle" x="165" y="-85.5" font-family="Helvetica,sans-Serif" font-size="10.00">/src/utils.h</text>
</a>
</g>
</g>
<!-- Node2&#45;&gt;Node3 -->
<g id="edge2" class="edge"><title>Node2&#45;&gt;Node3</title>
<path fill="none" stroke="midnightblue" d="M285.495,-152.329C261.212,-141.783 232.957,-129.513 209.914,-119.506"/>
<polygon fill="midnightblue" stroke="midnightblue" points="284.367,-155.655 294.933,-156.428 287.155,-149.234 284.367,-155.655"/>
</g>
<!-- Node6 -->
<g id="node6" class="node"><title>Node6</title>
<g id="a_node6"><a xlink:href="../../d4/d79/_controller_interface_8h.html" target="_top" xlink:title="&quot;ControllerInterface&quot; is an interface to load dynamically Controller into the simulation ...">
<polygon fill="white" stroke="black" points="261.5,-78.5 261.5,-119.5 418.5,-119.5 418.5,-78.5 261.5,-78.5"/>
<text text-anchor="start" x="269.5" y="-107.5" font-family="Helvetica,sans-Serif" font-size="10.00">/media/kavonszadkowski</text>
<text text-anchor="start" x="269.5" y="-96.5" font-family="Helvetica,sans-Serif" font-size="10.00">/work/marsdocs/mars/interfaces</text>
<text text-anchor="middle" x="340" y="-85.5" font-family="Helvetica,sans-Serif" font-size="10.00">/src/sim/ControllerInterface.h</text>
</a>
</g>
</g>
<!-- Node2&#45;&gt;Node6 -->
<g id="edge5" class="edge"><title>Node2&#45;&gt;Node6</title>
<path fill="none" stroke="midnightblue" d="M340,-146.297C340,-137.301 340,-127.653 340,-119.506"/>
<polygon fill="midnightblue" stroke="midnightblue" points="336.5,-146.428 340,-156.428 343.5,-146.428 336.5,-146.428"/>
</g>
<!-- Node7 -->
<g id="node7" class="node"><title>Node7</title>
<g id="a_node7"><a xlink:href="../../d0/d74/_simulator_interface_8h.html" target="_top" xlink:title="&quot;SimulatorInterface&quot; provides an interface for using the Simulator class ">
<polygon fill="white" stroke="black" points="436.5,-78.5 436.5,-119.5 593.5,-119.5 593.5,-78.5 436.5,-78.5"/>
<text text-anchor="start" x="444.5" y="-107.5" font-family="Helvetica,sans-Serif" font-size="10.00">/media/kavonszadkowski</text>
<text text-anchor="start" x="444.5" y="-96.5" font-family="Helvetica,sans-Serif" font-size="10.00">/work/marsdocs/mars/interfaces</text>
<text text-anchor="middle" x="515" y="-85.5" font-family="Helvetica,sans-Serif" font-size="10.00">/src/sim/SimulatorInterface.h</text>
</a>
</g>
</g>
<!-- Node2&#45;&gt;Node7 -->
<g id="edge6" class="edge"><title>Node2&#45;&gt;Node7</title>
<path fill="none" stroke="midnightblue" d="M394.505,-152.329C418.788,-141.783 447.043,-129.513 470.086,-119.506"/>
<polygon fill="midnightblue" stroke="midnightblue" points="392.845,-149.234 385.067,-156.428 395.633,-155.655 392.845,-149.234"/>
</g>
<!-- Node4 -->
<g id="node4" class="node"><title>Node4</title>
<g id="a_node4"><a xlink:href="../../df/d7f/_joint_data_8cpp.html" target="_top" xlink:title="/media/kavonszadkowski\l/work/marsdocs/mars/interfaces\l/src/JointData.cpp">
<polygon fill="white" stroke="black" points="-0.5,-0.5 -0.5,-41.5 156.5,-41.5 156.5,-0.5 -0.5,-0.5"/>
<text text-anchor="start" x="7.5" y="-29.5" font-family="Helvetica,sans-Serif" font-size="10.00">/media/kavonszadkowski</text>
<text text-anchor="start" x="7.5" y="-18.5" font-family="Helvetica,sans-Serif" font-size="10.00">/work/marsdocs/mars/interfaces</text>
<text text-anchor="middle" x="78" y="-7.5" font-family="Helvetica,sans-Serif" font-size="10.00">/src/JointData.cpp</text>
</a>
</g>
</g>
<!-- Node3&#45;&gt;Node4 -->
<g id="edge3" class="edge"><title>Node3&#45;&gt;Node4</title>
<path fill="none" stroke="midnightblue" d="M134.983,-71.7785C123.61,-61.8432 110.872,-50.7159 100.329,-41.5056"/>
<polygon fill="midnightblue" stroke="midnightblue" points="132.762,-74.4851 142.595,-78.4281 137.367,-69.2133 132.762,-74.4851"/>
</g>
<!-- Node5 -->
<g id="node5" class="node"><title>Node5</title>
<g id="a_node5"><a xlink:href="../../de/d06/utils_8cpp.html" target="_top" xlink:title="/media/kavonszadkowski\l/work/marsdocs/mars/interfaces\l/src/utils.cpp">
<polygon fill="white" stroke="black" points="174.5,-0.5 174.5,-41.5 331.5,-41.5 331.5,-0.5 174.5,-0.5"/>
<text text-anchor="start" x="182.5" y="-29.5" font-family="Helvetica,sans-Serif" font-size="10.00">/media/kavonszadkowski</text>
<text text-anchor="start" x="182.5" y="-18.5" font-family="Helvetica,sans-Serif" font-size="10.00">/work/marsdocs/mars/interfaces</text>
<text text-anchor="middle" x="253" y="-7.5" font-family="Helvetica,sans-Serif" font-size="10.00">/src/utils.cpp</text>
</a>
</g>
</g>
<!-- Node3&#45;&gt;Node5 -->
<g id="edge4" class="edge"><title>Node3&#45;&gt;Node5</title>
<path fill="none" stroke="midnightblue" d="M195.362,-71.7785C206.866,-61.8432 219.75,-50.7159 230.415,-41.5056"/>
<polygon fill="midnightblue" stroke="midnightblue" points="192.943,-69.243 187.662,-78.4281 197.518,-74.5408 192.943,-69.243"/>
</g>
<!-- Node8 -->
<g id="node8" class="node"><title>Node8</title>
<g id="a_node8"><a xlink:href="../../dd/d91/_mars_plugin_template_8h.html" target="_top" xlink:title="/media/kavonszadkowski\l/work/marsdocs/mars/interfaces\l/src/sim/MarsPluginTemplate.h">
<polygon fill="white" stroke="black" points="392.5,-0.5 392.5,-41.5 549.5,-41.5 549.5,-0.5 392.5,-0.5"/>
<text text-anchor="start" x="400.5" y="-29.5" font-family="Helvetica,sans-Serif" font-size="10.00">/media/kavonszadkowski</text>
<text text-anchor="start" x="400.5" y="-18.5" font-family="Helvetica,sans-Serif" font-size="10.00">/work/marsdocs/mars/interfaces</text>
<text text-anchor="middle" x="471" y="-7.5" font-family="Helvetica,sans-Serif" font-size="10.00">/src/sim/MarsPluginTemplate.h</text>
</a>
</g>
</g>
<!-- Node7&#45;&gt;Node8 -->
<g id="edge7" class="edge"><title>Node7&#45;&gt;Node8</title>
<path fill="none" stroke="midnightblue" d="M498.649,-69.7571C493.205,-60.354 487.266,-50.096 482.293,-41.5056"/>
<polygon fill="midnightblue" stroke="midnightblue" points="495.629,-71.5275 503.669,-78.4281 501.687,-68.0202 495.629,-71.5275"/>
</g>
<!-- Node9 -->
<g id="node9" class="node"><title>Node9</title>
<g id="a_node9"><a xlink:href="../../d4/d96/_mars_plugin_template_g_u_i_8h.html" target="_top" xlink:title="/media/kavonszadkowski\l/work/marsdocs/mars/interfaces\l/src/sim/MarsPluginTemplateGUI.h">
<polygon fill="white" stroke="black" points="568,-0.5 568,-41.5 738,-41.5 738,-0.5 568,-0.5"/>
<text text-anchor="start" x="576" y="-29.5" font-family="Helvetica,sans-Serif" font-size="10.00">/media/kavonszadkowski</text>
<text text-anchor="start" x="576" y="-18.5" font-family="Helvetica,sans-Serif" font-size="10.00">/work/marsdocs/mars/interfaces</text>
<text text-anchor="middle" x="653" y="-7.5" font-family="Helvetica,sans-Serif" font-size="10.00">/src/sim/MarsPluginTemplateGUI.h</text>
</a>
</g>
</g>
<!-- Node7&#45;&gt;Node9 -->
<g id="edge8" class="edge"><title>Node7&#45;&gt;Node9</title>
<path fill="none" stroke="midnightblue" d="M559.513,-73.4856C578.31,-63.1335 599.893,-51.2473 617.582,-41.5056"/>
<polygon fill="midnightblue" stroke="midnightblue" points="557.609,-70.5382 550.538,-78.4281 560.986,-76.6698 557.609,-70.5382"/>
</g>
</g>
</svg>
