<?xml version="1.0" encoding="UTF-8" standalone="no"?>
<!DOCTYPE svg PUBLIC "-//W3C//DTD SVG 1.1//EN"
 "http://www.w3.org/Graphics/SVG/1.1/DTD/svg11.dtd">
<!-- Generated by graphviz version 2.36.0 (20140111.2315)
 -->
<!-- Title: /media/kavonszadkowski/work/marsdocs/mars/sim/src/sensors/JointLoadSensor.h Pages: 1 -->
<svg width="713pt" height="254pt"
 viewBox="0.00 0.00 713.00 254.00" xmlns="http://www.w3.org/2000/svg" xmlns:xlink="http://www.w3.org/1999/xlink">
<g id="graph0" class="graph" transform="scale(1 1) rotate(0) translate(4 250)">
<title>/media/kavonszadkowski/work/marsdocs/mars/sim/src/sensors/JointLoadSensor.h</title>
<polygon fill="white" stroke="none" points="-4,4 -4,-250 709,-250 709,4 -4,4"/>
<!-- Node1 -->
<g id="node1" class="node"><title>Node1</title>
<polygon fill="#bfbfbf" stroke="black" points="391.5,-204.5 391.5,-245.5 546.5,-245.5 546.5,-204.5 391.5,-204.5"/>
<text text-anchor="start" x="399.5" y="-233.5" font-family="Helvetica,sans-Serif" font-size="10.00">/media/kavonszadkowski</text>
<text text-anchor="start" x="399.5" y="-222.5" font-family="Helvetica,sans-Serif" font-size="10.00">/work/marsdocs/mars/sim</text>
<text text-anchor="middle" x="469" y="-211.5" font-family="Helvetica,sans-Serif" font-size="10.00">/src/sensors/JointLoadSensor.h</text>
</g>
<!-- Node2 -->
<g id="node2" class="node"><title>Node2</title>
<g id="a_node2"><a xlink:href="../../d9/de3/_joint_array_sensor_8h.html" target="_top" xlink:title="JointArraySensor.h">
<polygon fill="white" stroke="black" points="248,-142.5 248,-161.5 348,-161.5 348,-142.5 248,-142.5"/>
<text text-anchor="middle" x="298" y="-149.5" font-family="Helvetica,sans-Serif" font-size="10.00">JointArraySensor.h</text>
</a>
</g>
</g>
<!-- Node1&#45;&gt;Node2 -->
<g id="edge1" class="edge"><title>Node1&#45;&gt;Node2</title>
<path fill="none" stroke="midnightblue" d="M421.821,-204.411C391.842,-191.963 353.937,-176.225 328.013,-165.461"/>
<polygon fill="midnightblue" stroke="midnightblue" points="329.283,-162.199 318.705,-161.597 326.598,-168.664 329.283,-162.199"/>
</g>
<!-- Node6 -->
<g id="node6" class="node"><title>Node6</title>
<polygon fill="white" stroke="#bfbfbf" points="434.5,-74.5 434.5,-93.5 597.5,-93.5 597.5,-74.5 434.5,-74.5"/>
<text text-anchor="middle" x="516" y="-81.5" font-family="Helvetica,sans-Serif" font-size="10.00">mars/data_broker/DataPackage.h</text>
</g>
<!-- Node1&#45;&gt;Node6 -->
<g id="edge13" class="edge"><title>Node1&#45;&gt;Node6</title>
<path fill="none" stroke="midnightblue" d="M471.581,-204.313C474.348,-186.168 479.525,-158.696 488,-136 492.399,-124.219 499.142,-111.835 504.908,-102.22"/>
<polygon fill="midnightblue" stroke="midnightblue" points="507.925,-103.996 510.226,-93.6538 501.978,-100.304 507.925,-103.996"/>
</g>
<!-- Node12 -->
<g id="node12" class="node"><title>Node12</title>
<polygon fill="white" stroke="#bfbfbf" points="497,-137 497,-167 631,-167 631,-137 497,-137"/>
<text text-anchor="start" x="505" y="-155" font-family="Helvetica,sans-Serif" font-size="10.00">mars/data_broker/Producer</text>
<text text-anchor="middle" x="564" y="-144" font-family="Helvetica,sans-Serif" font-size="10.00">Interface.h</text>
</g>
<!-- Node1&#45;&gt;Node12 -->
<g id="edge12" class="edge"><title>Node1&#45;&gt;Node12</title>
<path fill="none" stroke="midnightblue" d="M495.211,-204.411C508.186,-194.714 523.833,-183.02 536.924,-173.236"/>
<polygon fill="midnightblue" stroke="midnightblue" points="539.188,-175.913 545.103,-167.123 534.998,-170.306 539.188,-175.913"/>
</g>
<!-- Node3 -->
<g id="node3" class="node"><title>Node3</title>
<polygon fill="white" stroke="#bfbfbf" points="0,-74.5 0,-93.5 128,-93.5 128,-74.5 0,-74.5"/>
<text text-anchor="middle" x="64" y="-81.5" font-family="Helvetica,sans-Serif" font-size="10.00">configmaps/ConfigData.h</text>
</g>
<!-- Node2&#45;&gt;Node3 -->
<g id="edge2" class="edge"><title>Node2&#45;&gt;Node3</title>
<path fill="none" stroke="midnightblue" d="M267.409,-142.372C225.513,-130.555 150.219,-109.318 103.925,-96.261"/>
<polygon fill="midnightblue" stroke="midnightblue" points="104.803,-92.872 94.2281,-93.5259 102.902,-99.6091 104.803,-92.872"/>
</g>
<!-- Node4 -->
<g id="node4" class="node"><title>Node4</title>
<polygon fill="white" stroke="#bfbfbf" points="70.5,-1 70.5,-31 173.5,-31 173.5,-1 70.5,-1"/>
<text text-anchor="start" x="78.5" y="-19" font-family="Helvetica,sans-Serif" font-size="10.00">mars/interfaces/sim</text>
<text text-anchor="middle" x="122" y="-8" font-family="Helvetica,sans-Serif" font-size="10.00">/SensorInterface.h</text>
</g>
<!-- Node2&#45;&gt;Node4 -->
<g id="edge3" class="edge"><title>Node2&#45;&gt;Node4</title>
<path fill="none" stroke="midnightblue" d="M262.343,-142.458C235.989,-134.758 200.419,-121.314 175,-100 155.677,-83.7978 141.027,-58.7142 132.079,-40.3612"/>
<polygon fill="midnightblue" stroke="midnightblue" points="135.21,-38.7939 127.813,-31.2086 128.866,-41.7511 135.21,-38.7939"/>
</g>
<!-- Node5 -->
<g id="node5" class="node"><title>Node5</title>
<polygon fill="white" stroke="#bfbfbf" points="184,-69 184,-99 318,-99 318,-69 184,-69"/>
<text text-anchor="start" x="192" y="-87" font-family="Helvetica,sans-Serif" font-size="10.00">mars/data_broker/Receiver</text>
<text text-anchor="middle" x="251" y="-76" font-family="Helvetica,sans-Serif" font-size="10.00">Interface.h</text>
</g>
<!-- Node2&#45;&gt;Node5 -->
<g id="edge4" class="edge"><title>Node2&#45;&gt;Node5</title>
<path fill="none" stroke="midnightblue" d="M291.856,-142.372C285.568,-133.543 275.537,-119.456 266.987,-107.45"/>
<polygon fill="midnightblue" stroke="midnightblue" points="269.751,-105.297 261.099,-99.1815 264.049,-109.357 269.751,-105.297"/>
</g>
<!-- Node2&#45;&gt;Node6 -->
<g id="edge5" class="edge"><title>Node2&#45;&gt;Node6</title>
<path fill="none" stroke="midnightblue" d="M326.5,-142.372C365.367,-130.604 435.089,-109.496 478.261,-96.4257"/>
<polygon fill="midnightblue" stroke="midnightblue" points="479.282,-99.7734 487.839,-93.5259 477.254,-93.0737 479.282,-99.7734"/>
</g>
<!-- Node7 -->
<g id="node7" class="node"><title>Node7</title>
<g id="a_node7"><a xlink:href="../../d5/df7/_i_d_list_config_8h.html" target="_top" xlink:title="IDListConfig.h">
<polygon fill="white" stroke="black" points="336,-74.5 336,-93.5 416,-93.5 416,-74.5 336,-74.5"/>
<text text-anchor="middle" x="376" y="-81.5" font-family="Helvetica,sans-Serif" font-size="10.00">IDListConfig.h</text>
</a>
</g>
</g>
<!-- Node2&#45;&gt;Node7 -->
<g id="edge6" class="edge"><title>Node2&#45;&gt;Node7</title>
<path fill="none" stroke="midnightblue" d="M308.197,-142.372C320.74,-131.758 342.265,-113.545 357.699,-100.485"/>
<polygon fill="midnightblue" stroke="midnightblue" points="360.178,-102.972 365.551,-93.8411 355.657,-97.6287 360.178,-102.972"/>
</g>
<!-- Node7&#45;&gt;Node4 -->
<g id="edge11" class="edge"><title>Node7&#45;&gt;Node4</title>
<path fill="none" stroke="midnightblue" d="M349.117,-74.489C341.953,-72.2979 334.202,-69.9965 327,-68 313.06,-64.1352 238.434,-45.6621 183.221,-32.0555"/>
<polygon fill="midnightblue" stroke="midnightblue" points="184.05,-28.6551 173.504,-29.6614 182.376,-35.4519 184.05,-28.6551"/>
</g>
<!-- Node8 -->
<g id="node8" class="node"><title>Node8</title>
<polygon fill="white" stroke="#bfbfbf" points="192,-6.5 192,-25.5 338,-25.5 338,-6.5 192,-6.5"/>
<text text-anchor="middle" x="265" y="-13.5" font-family="Helvetica,sans-Serif" font-size="10.00">mars/interfaces/MARSDefs.h</text>
</g>
<!-- Node7&#45;&gt;Node8 -->
<g id="edge7" class="edge"><title>Node7&#45;&gt;Node8</title>
<path fill="none" stroke="midnightblue" d="M361.489,-74.3717C342.875,-63.3039 310.363,-43.9724 288.273,-30.838"/>
<polygon fill="midnightblue" stroke="midnightblue" points="289.899,-27.7329 279.515,-25.6305 286.321,-33.7496 289.899,-27.7329"/>
</g>
<!-- Node9 -->
<g id="node9" class="node"><title>Node9</title>
<polygon fill="white" stroke="#bfbfbf" points="356.5,-1 356.5,-31 463.5,-31 463.5,-1 356.5,-1"/>
<text text-anchor="start" x="364.5" y="-19" font-family="Helvetica,sans-Serif" font-size="10.00">mars/interfaces/sim</text>
<text text-anchor="middle" x="410" y="-8" font-family="Helvetica,sans-Serif" font-size="10.00">/SimulatorInterface.h</text>
</g>
<!-- Node7&#45;&gt;Node9 -->
<g id="edge8" class="edge"><title>Node7&#45;&gt;Node9</title>
<path fill="none" stroke="midnightblue" d="M380.445,-74.3717C384.905,-65.7143 391.969,-52.0008 398.073,-40.152"/>
<polygon fill="midnightblue" stroke="midnightblue" points="401.226,-41.6741 402.694,-31.1815 395.003,-38.4683 401.226,-41.6741"/>
</g>
<!-- Node10 -->
<g id="node10" class="node"><title>Node10</title>
<polygon fill="white" stroke="#bfbfbf" points="481.5,-1 481.5,-31 584.5,-31 584.5,-1 481.5,-1"/>
<text text-anchor="start" x="489.5" y="-19" font-family="Helvetica,sans-Serif" font-size="10.00">mars/interfaces/sim</text>
<text text-anchor="middle" x="533" y="-8" font-family="Helvetica,sans-Serif" font-size="10.00">/ControlCenter.h</text>
</g>
<!-- Node7&#45;&gt;Node10 -->
<g id="edge9" class="edge"><title>Node7&#45;&gt;Node10</title>
<path fill="none" stroke="midnightblue" d="M396.525,-74.3717C420.15,-64.4399 459.605,-47.8538 490.033,-35.0626"/>
<polygon fill="midnightblue" stroke="midnightblue" points="491.701,-38.1581 499.563,-31.0562 488.988,-31.7051 491.701,-38.1581"/>
</g>
<!-- Node11 -->
<g id="node11" class="node"><title>Node11</title>
<polygon fill="white" stroke="#bfbfbf" points="602.5,-1 602.5,-31 705.5,-31 705.5,-1 602.5,-1"/>
<text text-anchor="start" x="610.5" y="-19" font-family="Helvetica,sans-Serif" font-size="10.00">mars/interfaces/sim</text>
<text text-anchor="middle" x="654" y="-8" font-family="Helvetica,sans-Serif" font-size="10.00">/LoadCenter.h</text>
</g>
<!-- Node7&#45;&gt;Node11 -->
<g id="edge10" class="edge"><title>Node7&#45;&gt;Node11</title>
<path fill="none" stroke="midnightblue" d="M402.329,-74.4853C409.635,-72.247 417.595,-69.9231 425,-68 495.879,-49.5934 516.877,-49.1262 592.438,-32.0752"/>
<polygon fill="midnightblue" stroke="midnightblue" points="593.47,-35.4299 602.441,-29.7937 591.913,-28.6052 593.47,-35.4299"/>
</g>
</g>
</svg>
