<?xml version="1.0" encoding="UTF-8" standalone="no"?>
<!DOCTYPE svg PUBLIC "-//W3C//DTD SVG 1.1//EN"
 "http://www.w3.org/Graphics/SVG/1.1/DTD/svg11.dtd">
<!-- Generated by graphviz version 2.26.3 (20100126.1600)
 -->
<!-- Title: /home/kavonszadkowski/limes&#45;dev/simulation/mars/graphics/src/gui_helper_functions.cpp Pages: 1 -->
<svg width="1640pt" height="200pt"
 viewBox="0.00 0.00 1640.00 200.00" xmlns="http://www.w3.org/2000/svg" xmlns:xlink="http://www.w3.org/1999/xlink">
<g id="graph1" class="graph" transform="scale(1 1) rotate(0) translate(4 196)">
<title>/home/kavonszadkowski/limes&#45;dev/simulation/mars/graphics/src/gui_helper_functions.cpp</title>
<polygon fill="white" stroke="white" points="-4,5 -4,-196 1637,-196 1637,5 -4,5"/>
<!-- Node1 -->
<g id="node1" class="node"><title>Node1</title>
<polygon fill="#bfbfbf" stroke="black" points="995.5,-131 995.5,-191 1120.5,-191 1120.5,-131 995.5,-131"/>
<text text-anchor="start" x="1003.5" y="-178" font-family="Helvetica,sans-Serif" font-size="10.00">/home/kavonszadkowski</text>
<text text-anchor="start" x="1003.5" y="-165" font-family="Helvetica,sans-Serif" font-size="10.00">/limes&#45;dev/simulation</text>
<text text-anchor="start" x="1003.5" y="-152" font-family="Helvetica,sans-Serif" font-size="10.00">/mars/graphics/src/gui</text>
<text text-anchor="middle" x="1058" y="-139" font-family="Helvetica,sans-Serif" font-size="10.00">_helper_functions.cpp</text>
</g>
<!-- Node2 -->
<g id="node3" class="node"><title>Node2</title>
<a xlink:href="../../d7/da2/gui__helper__functions_8h.html" target="_top" xlink:title="gui_helper_functions.h">
<polygon fill="white" stroke="black" points="506,-72.5 506,-93.5 620,-93.5 620,-72.5 506,-72.5"/>
<text text-anchor="middle" x="563" y="-80.5" font-family="Helvetica,sans-Serif" font-size="10.00">gui_helper_functions.h</text>
</a>
</g>
<!-- Node1&#45;&gt;Node2 -->
<g id="edge2" class="edge"><title>Node1&#45;&gt;Node2</title>
<path fill="none" stroke="midnightblue" d="M995.447,-151.436C913.925,-138.925 766.645,-116.167 630.436,-94.2213"/>
<polygon fill="midnightblue" stroke="midnightblue" points="630.661,-90.7125 620.232,-92.5754 629.547,-97.6232 630.661,-90.7125"/>
</g>
<!-- Node15 -->
<g id="node29" class="node"><title>Node15</title>
<polygon fill="white" stroke="#bfbfbf" points="638,-72.5 638,-93.5 692,-93.5 692,-72.5 638,-72.5"/>
<text text-anchor="middle" x="665" y="-80.5" font-family="Helvetica,sans-Serif" font-size="10.00">iostream</text>
</g>
<!-- Node1&#45;&gt;Node15 -->
<g id="edge28" class="edge"><title>Node1&#45;&gt;Node15</title>
<path fill="none" stroke="midnightblue" d="M995.315,-151.4C925.768,-140.265 810.137,-120.313 701.823,-94.0122"/>
<polygon fill="midnightblue" stroke="midnightblue" points="702.583,-90.595 692.037,-91.6135 700.917,-97.3937 702.583,-90.595"/>
</g>
<!-- Node16 -->
<g id="node31" class="node"><title>Node16</title>
<polygon fill="white" stroke="#bfbfbf" points="709.5,-72.5 709.5,-93.5 812.5,-93.5 812.5,-72.5 709.5,-72.5"/>
<text text-anchor="middle" x="761" y="-80.5" font-family="Helvetica,sans-Serif" font-size="10.00">osg/TriangleFunctor</text>
</g>
<!-- Node1&#45;&gt;Node16 -->
<g id="edge30" class="edge"><title>Node1&#45;&gt;Node16</title>
<path fill="none" stroke="midnightblue" d="M995.377,-144.554C940.491,-130.139 861.759,-109.462 810.997,-96.1306"/>
<polygon fill="midnightblue" stroke="midnightblue" points="811.794,-92.7213 801.233,-93.5663 810.016,-99.4917 811.794,-92.7213"/>
</g>
<!-- Node17 -->
<g id="node33" class="node"><title>Node17</title>
<polygon fill="white" stroke="#bfbfbf" points="829.5,-72.5 829.5,-93.5 918.5,-93.5 918.5,-72.5 829.5,-72.5"/>
<text text-anchor="middle" x="874" y="-80.5" font-family="Helvetica,sans-Serif" font-size="10.00">osgDB/ReadFile</text>
</g>
<!-- Node1&#45;&gt;Node17 -->
<g id="edge32" class="edge"><title>Node1&#45;&gt;Node17</title>
<path fill="none" stroke="midnightblue" d="M995.449,-134.484C966.201,-122.085 932.514,-107.805 908.049,-97.434"/>
<polygon fill="midnightblue" stroke="midnightblue" points="909.399,-94.2047 898.826,-93.5242 906.667,-100.65 909.399,-94.2047"/>
</g>
<!-- Node18 -->
<g id="node35" class="node"><title>Node18</title>
<polygon fill="white" stroke="#bfbfbf" points="935.5,-72.5 935.5,-93.5 1042.5,-93.5 1042.5,-72.5 935.5,-72.5"/>
<text text-anchor="middle" x="989" y="-80.5" font-family="Helvetica,sans-Serif" font-size="10.00">osg/MatrixTransform</text>
</g>
<!-- Node1&#45;&gt;Node18 -->
<g id="edge34" class="edge"><title>Node1&#45;&gt;Node18</title>
<path fill="none" stroke="midnightblue" d="M1031.13,-130.62C1022.41,-120.765 1013.01,-110.138 1005.3,-101.428"/>
<polygon fill="midnightblue" stroke="midnightblue" points="1007.76,-98.9244 998.513,-93.7535 1002.52,-103.562 1007.76,-98.9244"/>
</g>
<!-- Node19 -->
<g id="node37" class="node"><title>Node19</title>
<polygon fill="white" stroke="#bfbfbf" points="1060,-72.5 1060,-93.5 1196,-93.5 1196,-72.5 1060,-72.5"/>
<text text-anchor="middle" x="1128" y="-80.5" font-family="Helvetica,sans-Serif" font-size="10.00">osg/ComputeBoundsVisitor</text>
</g>
<!-- Node1&#45;&gt;Node19 -->
<g id="edge36" class="edge"><title>Node1&#45;&gt;Node19</title>
<path fill="none" stroke="midnightblue" d="M1085.26,-130.62C1094.11,-120.765 1103.65,-110.138 1111.46,-101.428"/>
<polygon fill="midnightblue" stroke="midnightblue" points="1114.28,-103.534 1118.35,-93.7535 1109.07,-98.8582 1114.28,-103.534"/>
</g>
<!-- Node20 -->
<g id="node39" class="node"><title>Node20</title>
<polygon fill="white" stroke="#bfbfbf" points="1214,-72.5 1214,-93.5 1306,-93.5 1306,-72.5 1214,-72.5"/>
<text text-anchor="middle" x="1260" y="-80.5" font-family="Helvetica,sans-Serif" font-size="10.00">osgUtil/Optimizer</text>
</g>
<!-- Node1&#45;&gt;Node20 -->
<g id="edge38" class="edge"><title>Node1&#45;&gt;Node20</title>
<path fill="none" stroke="midnightblue" d="M1120.53,-136.854C1154.11,-123.887 1194.37,-108.344 1222.98,-97.2959"/>
<polygon fill="midnightblue" stroke="midnightblue" points="1224.51,-100.455 1232.58,-93.5873 1221.99,-93.9245 1224.51,-100.455"/>
</g>
<!-- Node21 -->
<g id="node41" class="node"><title>Node21</title>
<polygon fill="white" stroke="#bfbfbf" points="1324,-72.5 1324,-93.5 1394,-93.5 1394,-72.5 1324,-72.5"/>
<text text-anchor="middle" x="1359" y="-80.5" font-family="Helvetica,sans-Serif" font-size="10.00">opencv/cv.h</text>
</g>
<!-- Node1&#45;&gt;Node21 -->
<g id="edge40" class="edge"><title>Node1&#45;&gt;Node21</title>
<path fill="none" stroke="midnightblue" d="M1120.73,-144.744C1178.4,-129.801 1262.49,-108.01 1313.81,-94.7098"/>
<polygon fill="midnightblue" stroke="midnightblue" points="1314.82,-98.0642 1323.62,-92.1675 1313.06,-91.288 1314.82,-98.0642"/>
</g>
<!-- Node22 -->
<g id="node43" class="node"><title>Node22</title>
<polygon fill="white" stroke="#bfbfbf" points="1412,-72.5 1412,-93.5 1502,-93.5 1502,-72.5 1412,-72.5"/>
<text text-anchor="middle" x="1457" y="-80.5" font-family="Helvetica,sans-Serif" font-size="10.00">opencv/highgui.h</text>
</g>
<!-- Node1&#45;&gt;Node22 -->
<g id="edge42" class="edge"><title>Node1&#45;&gt;Node22</title>
<path fill="none" stroke="midnightblue" d="M1120.67,-149.007C1187.67,-136.147 1297.29,-114.988 1401.83,-94.2221"/>
<polygon fill="midnightblue" stroke="midnightblue" points="1402.8,-97.5972 1411.92,-92.214 1401.43,-90.7316 1402.8,-97.5972"/>
</g>
<!-- Node23 -->
<g id="node45" class="node"><title>Node23</title>
<polygon fill="white" stroke="#bfbfbf" points="1519.5,-72.5 1519.5,-93.5 1632.5,-93.5 1632.5,-72.5 1519.5,-72.5"/>
<text text-anchor="middle" x="1576" y="-80.5" font-family="Helvetica,sans-Serif" font-size="10.00">mars/utils/mathUtils.h</text>
</g>
<!-- Node1&#45;&gt;Node23 -->
<g id="edge44" class="edge"><title>Node1&#45;&gt;Node23</title>
<path fill="none" stroke="midnightblue" d="M1120.72,-152.145C1206.24,-139.975 1364.51,-117.122 1509.33,-94.2451"/>
<polygon fill="midnightblue" stroke="midnightblue" points="1509.96,-97.689 1519.29,-92.6683 1508.87,-90.7751 1509.96,-97.689"/>
</g>
<!-- Node3 -->
<g id="node5" class="node"><title>Node3</title>
<polygon fill="white" stroke="#bfbfbf" points="0,-7.5 0,-28.5 62,-28.5 62,-7.5 0,-7.5"/>
<text text-anchor="middle" x="31" y="-15.5" font-family="Helvetica,sans-Serif" font-size="10.00">osg/Group</text>
</g>
<!-- Node2&#45;&gt;Node3 -->
<g id="edge4" class="edge"><title>Node2&#45;&gt;Node3</title>
<path fill="none" stroke="midnightblue" d="M505.854,-79.8916C394.382,-73.4419 151.765,-57.4029 71,-36 67.584,-35.0948 64.092,-33.9262 60.6639,-32.6196"/>
<polygon fill="midnightblue" stroke="midnightblue" points="61.8626,-29.3268 51.2878,-28.6755 59.1483,-35.7792 61.8626,-29.3268"/>
</g>
<!-- Node4 -->
<g id="node7" class="node"><title>Node4</title>
<polygon fill="white" stroke="#bfbfbf" points="79.5,-7.5 79.5,-28.5 138.5,-28.5 138.5,-7.5 79.5,-7.5"/>
<text text-anchor="middle" x="109" y="-15.5" font-family="Helvetica,sans-Serif" font-size="10.00">osg/Node</text>
</g>
<!-- Node2&#45;&gt;Node4 -->
<g id="edge6" class="edge"><title>Node2&#45;&gt;Node4</title>
<path fill="none" stroke="midnightblue" d="M505.617,-78.8633C407.805,-71.4207 212.97,-54.7873 147,-36 143.841,-35.1003 140.618,-33.9607 137.452,-32.6933"/>
<polygon fill="midnightblue" stroke="midnightblue" points="138.803,-29.4641 128.242,-28.6202 135.972,-35.8659 138.803,-29.4641"/>
</g>
<!-- Node5 -->
<g id="node9" class="node"><title>Node5</title>
<polygon fill="white" stroke="#bfbfbf" points="156,-7.5 156,-28.5 220,-28.5 220,-7.5 156,-7.5"/>
<text text-anchor="middle" x="188" y="-15.5" font-family="Helvetica,sans-Serif" font-size="10.00">osg/Geode</text>
</g>
<!-- Node2&#45;&gt;Node5 -->
<g id="edge8" class="edge"><title>Node2&#45;&gt;Node5</title>
<path fill="none" stroke="midnightblue" d="M505.88,-79.7296C438.582,-74.7909 323.915,-62.959 229,-36 225.607,-35.0362 222.128,-33.8486 218.702,-32.5468"/>
<polygon fill="midnightblue" stroke="midnightblue" points="219.873,-29.2441 209.294,-28.6665 217.204,-35.7153 219.873,-29.2441"/>
</g>
<!-- Node6 -->
<g id="node11" class="node"><title>Node6</title>
<polygon fill="white" stroke="#bfbfbf" points="238,-7.5 238,-28.5 316,-28.5 316,-7.5 238,-7.5"/>
<text text-anchor="middle" x="277" y="-15.5" font-family="Helvetica,sans-Serif" font-size="10.00">osg/Geometry</text>
</g>
<!-- Node2&#45;&gt;Node6 -->
<g id="edge10" class="edge"><title>Node2&#45;&gt;Node6</title>
<path fill="none" stroke="midnightblue" d="M505.634,-74.3811C457.036,-66.4371 385.77,-53.269 325,-36 320.859,-34.8231 316.568,-33.4483 312.333,-31.9924"/>
<polygon fill="midnightblue" stroke="midnightblue" points="313.243,-28.5998 302.648,-28.5029 310.87,-35.1854 313.243,-28.5998"/>
</g>
<!-- Node7 -->
<g id="node13" class="node"><title>Node7</title>
<polygon fill="white" stroke="#bfbfbf" points="333.5,-7.5 333.5,-28.5 414.5,-28.5 414.5,-7.5 333.5,-7.5"/>
<text text-anchor="middle" x="374" y="-15.5" font-family="Helvetica,sans-Serif" font-size="10.00">osg/Texture2D</text>
</g>
<!-- Node2&#45;&gt;Node7 -->
<g id="edge12" class="edge"><title>Node2&#45;&gt;Node7</title>
<path fill="none" stroke="midnightblue" d="M530.66,-72.4296C502.228,-63.0681 459.766,-48.9216 423,-36 419.306,-34.7018 415.463,-33.3291 411.627,-31.944"/>
<polygon fill="midnightblue" stroke="midnightblue" points="412.788,-28.642 402.194,-28.511 410.394,-35.2199 412.788,-28.642"/>
</g>
<!-- Node8 -->
<g id="node15" class="node"><title>Node8</title>
<polygon fill="white" stroke="#bfbfbf" points="431.5,-7.5 431.5,-28.5 580.5,-28.5 580.5,-7.5 431.5,-7.5"/>
<text text-anchor="middle" x="506" y="-15.5" font-family="Helvetica,sans-Serif" font-size="10.00">osg/PositionAttitudeTransform</text>
</g>
<!-- Node2&#45;&gt;Node8 -->
<g id="edge14" class="edge"><title>Node2&#45;&gt;Node8</title>
<path fill="none" stroke="midnightblue" d="M553.588,-72.2666C545.038,-62.5173 532.248,-47.9317 522.08,-36.3365"/>
<polygon fill="midnightblue" stroke="midnightblue" points="524.462,-33.7447 515.237,-28.5337 519.199,-38.36 524.462,-33.7447"/>
</g>
<!-- Node9 -->
<g id="node17" class="node"><title>Node9</title>
<polygon fill="white" stroke="#bfbfbf" points="598,-7.5 598,-28.5 642,-28.5 642,-7.5 598,-7.5"/>
<text text-anchor="middle" x="620" y="-15.5" font-family="Helvetica,sans-Serif" font-size="10.00">vector</text>
</g>
<!-- Node2&#45;&gt;Node9 -->
<g id="edge16" class="edge"><title>Node2&#45;&gt;Node9</title>
<path fill="none" stroke="midnightblue" d="M572.412,-72.2666C580.962,-62.5173 593.752,-47.9317 603.92,-36.3365"/>
<polygon fill="midnightblue" stroke="midnightblue" points="606.801,-38.36 610.763,-28.5337 601.538,-33.7447 606.801,-38.36"/>
</g>
<!-- Node10 -->
<g id="node19" class="node"><title>Node10</title>
<polygon fill="white" stroke="#bfbfbf" points="660,-7.5 660,-28.5 712,-28.5 712,-7.5 660,-7.5"/>
<text text-anchor="middle" x="686" y="-15.5" font-family="Helvetica,sans-Serif" font-size="10.00">sstream</text>
</g>
<!-- Node2&#45;&gt;Node10 -->
<g id="edge18" class="edge"><title>Node2&#45;&gt;Node10</title>
<path fill="none" stroke="midnightblue" d="M583.036,-72.412C603.139,-61.7885 634.306,-45.3182 657.086,-33.28"/>
<polygon fill="midnightblue" stroke="midnightblue" points="658.767,-36.3503 665.973,-28.5835 655.496,-30.1613 658.767,-36.3503"/>
</g>
<!-- Node11 -->
<g id="node21" class="node"><title>Node11</title>
<polygon fill="white" stroke="#bfbfbf" points="729.5,-1 729.5,-35 832.5,-35 832.5,-1 729.5,-1"/>
<text text-anchor="start" x="737.5" y="-22" font-family="Helvetica,sans-Serif" font-size="10.00">mars/interfaces/sim</text>
<text text-anchor="middle" x="781" y="-9" font-family="Helvetica,sans-Serif" font-size="10.00">_common.h</text>
</g>
<!-- Node2&#45;&gt;Node11 -->
<g id="edge20" class="edge"><title>Node2&#45;&gt;Node11</title>
<path fill="none" stroke="midnightblue" d="M598.462,-72.4769C628.424,-63.58 672.735,-50.4092 719.578,-36.4221"/>
<polygon fill="midnightblue" stroke="midnightblue" points="720.712,-39.7364 729.292,-33.5208 718.708,-33.0292 720.712,-39.7364"/>
</g>
<!-- Node12 -->
<g id="node23" class="node"><title>Node12</title>
<polygon fill="white" stroke="#bfbfbf" points="849.5,-7.5 849.5,-28.5 998.5,-28.5 998.5,-7.5 849.5,-7.5"/>
<text text-anchor="middle" x="924" y="-15.5" font-family="Helvetica,sans-Serif" font-size="10.00">mars/interfaces/terrainStruct.h</text>
</g>
<!-- Node2&#45;&gt;Node12 -->
<g id="edge22" class="edge"><title>Node2&#45;&gt;Node12</title>
<path fill="none" stroke="midnightblue" d="M620.076,-73.4196C698.247,-60.2882 830.231,-38.0769 841,-36 849.52,-34.3567 858.51,-32.5177 867.302,-30.6598"/>
<polygon fill="midnightblue" stroke="midnightblue" points="868.063,-34.0765 877.11,-28.5636 866.599,-27.2311 868.063,-34.0765"/>
</g>
<!-- Node13 -->
<g id="node25" class="node"><title>Node13</title>
<polygon fill="white" stroke="#bfbfbf" points="1015.5,-1 1015.5,-35 1118.5,-35 1118.5,-1 1015.5,-1"/>
<text text-anchor="start" x="1023.5" y="-22" font-family="Helvetica,sans-Serif" font-size="10.00">mars/interfaces/sim</text>
<text text-anchor="middle" x="1067" y="-9" font-family="Helvetica,sans-Serif" font-size="10.00">/LoadCenter.h</text>
</g>
<!-- Node2&#45;&gt;Node13 -->
<g id="edge24" class="edge"><title>Node2&#45;&gt;Node13</title>
<path fill="none" stroke="midnightblue" d="M620.201,-73.2142C623.174,-72.7846 626.12,-72.3766 629,-72 793.067,-50.542 839.574,-67.7037 1005.4,-36.1127"/>
<polygon fill="midnightblue" stroke="midnightblue" points="1006.3,-39.5032 1015.45,-34.166 1004.97,-32.6309 1006.3,-39.5032"/>
</g>
<!-- Node14 -->
<g id="node27" class="node"><title>Node14</title>
<polygon fill="white" stroke="#bfbfbf" points="1135.5,-1 1135.5,-35 1278.5,-35 1278.5,-1 1135.5,-1"/>
<text text-anchor="start" x="1143.5" y="-22" font-family="Helvetica,sans-Serif" font-size="10.00">mars/interfaces/graphics</text>
<text text-anchor="middle" x="1207" y="-9" font-family="Helvetica,sans-Serif" font-size="10.00">/GraphicsManagerInterface.h</text>
</g>
<!-- Node2&#45;&gt;Node14 -->
<g id="edge26" class="edge"><title>Node2&#45;&gt;Node14</title>
<path fill="none" stroke="midnightblue" d="M620.191,-73.134C623.166,-72.7253 626.116,-72.3438 629,-72 846.123,-46.1155 905.736,-67.7913 1125.24,-36.1473"/>
<polygon fill="midnightblue" stroke="midnightblue" points="1125.75,-39.6103 1135.14,-34.7004 1124.74,-32.684 1125.75,-39.6103"/>
</g>
</g>
</svg>
