<?xml version="1.0" encoding="UTF-8" standalone="no"?>
<!DOCTYPE svg PUBLIC "-//W3C//DTD SVG 1.1//EN"
 "http://www.w3.org/Graphics/SVG/1.1/DTD/svg11.dtd">
<!-- Generated by graphviz version 2.36.0 (20140111.2315)
 -->
<!-- Title: /media/kavonszadkowski/work/marsdocs/mars/graphics/src/gui_helper_functions.cpp Pages: 1 -->
<svg width="1649pt" height="174pt"
 viewBox="0.00 0.00 1649.00 174.00" xmlns="http://www.w3.org/2000/svg" xmlns:xlink="http://www.w3.org/1999/xlink">
<g id="graph0" class="graph" transform="scale(1 1) rotate(0) translate(4 170)">
<title>/media/kavonszadkowski/work/marsdocs/mars/graphics/src/gui_helper_functions.cpp</title>
<polygon fill="white" stroke="none" points="-4,4 -4,-170 1645,-170 1645,4 -4,4"/>
<!-- Node1 -->
<g id="node1" class="node"><title>Node1</title>
<polygon fill="#bfbfbf" stroke="black" points="990.5,-124.5 990.5,-165.5 1141.5,-165.5 1141.5,-124.5 990.5,-124.5"/>
<text text-anchor="start" x="998.5" y="-153.5" font-family="Helvetica,sans-Serif" font-size="10.00">/media/kavonszadkowski</text>
<text text-anchor="start" x="998.5" y="-142.5" font-family="Helvetica,sans-Serif" font-size="10.00">/work/marsdocs/mars/graphics</text>
<text text-anchor="middle" x="1066" y="-131.5" font-family="Helvetica,sans-Serif" font-size="10.00">/src/gui_helper_functions.cpp</text>
</g>
<!-- Node2 -->
<g id="node2" class="node"><title>Node2</title>
<g id="a_node2"><a xlink:href="../../d7/da2/gui__helper__functions_8h.html" target="_top" xlink:title="gui_helper_functions.h">
<polygon fill="white" stroke="black" points="510,-68.5 510,-87.5 624,-87.5 624,-68.5 510,-68.5"/>
<text text-anchor="middle" x="567" y="-75.5" font-family="Helvetica,sans-Serif" font-size="10.00">gui_helper_functions.h</text>
</a>
</g>
</g>
<!-- Node1&#45;&gt;Node2 -->
<g id="edge1" class="edge"><title>Node1&#45;&gt;Node2</title>
<path fill="none" stroke="midnightblue" d="M990.497,-134.396C906.271,-123.646 765.66,-105.591 634.467,-88.1879"/>
<polygon fill="midnightblue" stroke="midnightblue" points="634.608,-84.676 624.234,-86.8293 633.686,-91.6151 634.608,-84.676"/>
</g>
<!-- Node15 -->
<g id="node15" class="node"><title>Node15</title>
<polygon fill="white" stroke="#bfbfbf" points="642,-68.5 642,-87.5 696,-87.5 696,-68.5 642,-68.5"/>
<text text-anchor="middle" x="669" y="-75.5" font-family="Helvetica,sans-Serif" font-size="10.00">iostream</text>
</g>
<!-- Node1&#45;&gt;Node15 -->
<g id="edge14" class="edge"><title>Node1&#45;&gt;Node15</title>
<path fill="none" stroke="midnightblue" d="M990.171,-134.097C917.091,-124.108 803.55,-107.415 706,-88 705.899,-87.9798 705.797,-87.9596 705.696,-87.9392"/>
<polygon fill="midnightblue" stroke="midnightblue" points="706.533,-84.5394 696.019,-85.8507 705.056,-91.3818 706.533,-84.5394"/>
</g>
<!-- Node16 -->
<g id="node16" class="node"><title>Node16</title>
<polygon fill="white" stroke="#bfbfbf" points="714.5,-68.5 714.5,-87.5 817.5,-87.5 817.5,-68.5 714.5,-68.5"/>
<text text-anchor="middle" x="766" y="-75.5" font-family="Helvetica,sans-Serif" font-size="10.00">osg/TriangleFunctor</text>
</g>
<!-- Node1&#45;&gt;Node16 -->
<g id="edge15" class="edge"><title>Node1&#45;&gt;Node16</title>
<path fill="none" stroke="midnightblue" d="M990.297,-127.598C935.476,-115.72 862.942,-100.004 815.407,-89.7049"/>
<polygon fill="midnightblue" stroke="midnightblue" points="815.879,-86.2259 805.364,-87.5289 814.396,-93.0672 815.879,-86.2259"/>
</g>
<!-- Node17 -->
<g id="node17" class="node"><title>Node17</title>
<polygon fill="white" stroke="#bfbfbf" points="835.5,-68.5 835.5,-87.5 924.5,-87.5 924.5,-68.5 835.5,-68.5"/>
<text text-anchor="middle" x="880" y="-75.5" font-family="Helvetica,sans-Serif" font-size="10.00">osgDB/ReadFile</text>
</g>
<!-- Node1&#45;&gt;Node17 -->
<g id="edge16" class="edge"><title>Node1&#45;&gt;Node17</title>
<path fill="none" stroke="midnightblue" d="M1010.19,-124.498C979.072,-113.622 941.296,-100.421 914.469,-91.0455"/>
<polygon fill="midnightblue" stroke="midnightblue" points="915.354,-87.6475 904.759,-87.6525 913.045,-94.2556 915.354,-87.6475"/>
</g>
<!-- Node18 -->
<g id="node18" class="node"><title>Node18</title>
<polygon fill="white" stroke="#bfbfbf" points="942.5,-68.5 942.5,-87.5 1049.5,-87.5 1049.5,-68.5 942.5,-68.5"/>
<text text-anchor="middle" x="996" y="-75.5" font-family="Helvetica,sans-Serif" font-size="10.00">osg/MatrixTransform</text>
</g>
<!-- Node1&#45;&gt;Node18 -->
<g id="edge17" class="edge"><title>Node1&#45;&gt;Node18</title>
<path fill="none" stroke="midnightblue" d="M1045,-124.498C1034.68,-114.915 1022.41,-103.528 1012.74,-94.5428"/>
<polygon fill="midnightblue" stroke="midnightblue" points="1015.03,-91.8922 1005.32,-87.6525 1010.26,-97.0218 1015.03,-91.8922"/>
</g>
<!-- Node19 -->
<g id="node19" class="node"><title>Node19</title>
<polygon fill="white" stroke="#bfbfbf" points="1068,-68.5 1068,-87.5 1204,-87.5 1204,-68.5 1068,-68.5"/>
<text text-anchor="middle" x="1136" y="-75.5" font-family="Helvetica,sans-Serif" font-size="10.00">osg/ComputeBoundsVisitor</text>
</g>
<!-- Node1&#45;&gt;Node19 -->
<g id="edge18" class="edge"><title>Node1&#45;&gt;Node19</title>
<path fill="none" stroke="midnightblue" d="M1087,-124.498C1097.32,-114.915 1109.59,-103.528 1119.26,-94.5428"/>
<polygon fill="midnightblue" stroke="midnightblue" points="1121.74,-97.0218 1126.68,-87.6525 1116.97,-91.8922 1121.74,-97.0218"/>
</g>
<!-- Node20 -->
<g id="node20" class="node"><title>Node20</title>
<polygon fill="white" stroke="#bfbfbf" points="1222,-68.5 1222,-87.5 1314,-87.5 1314,-68.5 1222,-68.5"/>
<text text-anchor="middle" x="1268" y="-75.5" font-family="Helvetica,sans-Serif" font-size="10.00">osgUtil/Optimizer</text>
</g>
<!-- Node1&#45;&gt;Node20 -->
<g id="edge19" class="edge"><title>Node1&#45;&gt;Node20</title>
<path fill="none" stroke="midnightblue" d="M1126.61,-124.498C1160.81,-113.493 1202.41,-100.106 1231.6,-90.7128"/>
<polygon fill="midnightblue" stroke="midnightblue" points="1232.93,-93.962 1241.38,-87.5671 1230.78,-87.2985 1232.93,-93.962"/>
</g>
<!-- Node21 -->
<g id="node21" class="node"><title>Node21</title>
<polygon fill="white" stroke="#bfbfbf" points="1332,-68.5 1332,-87.5 1402,-87.5 1402,-68.5 1332,-68.5"/>
<text text-anchor="middle" x="1367" y="-75.5" font-family="Helvetica,sans-Serif" font-size="10.00">opencv/cv.h</text>
</g>
<!-- Node1&#45;&gt;Node21 -->
<g id="edge20" class="edge"><title>Node1&#45;&gt;Node21</title>
<path fill="none" stroke="midnightblue" d="M1141.57,-127.682C1198.35,-115.419 1274.24,-99.0308 1321.87,-88.7453"/>
<polygon fill="midnightblue" stroke="midnightblue" points="1322.85,-92.1158 1331.88,-86.5838 1321.37,-85.2735 1322.85,-92.1158"/>
</g>
<!-- Node22 -->
<g id="node22" class="node"><title>Node22</title>
<polygon fill="white" stroke="#bfbfbf" points="1420,-68.5 1420,-87.5 1510,-87.5 1510,-68.5 1420,-68.5"/>
<text text-anchor="middle" x="1465" y="-75.5" font-family="Helvetica,sans-Serif" font-size="10.00">opencv/highgui.h</text>
</g>
<!-- Node1&#45;&gt;Node22 -->
<g id="edge21" class="edge"><title>Node1&#45;&gt;Node22</title>
<path fill="none" stroke="midnightblue" d="M1141.73,-131.802C1209.32,-120.894 1311.3,-104.382 1409.79,-88.1942"/>
<polygon fill="midnightblue" stroke="midnightblue" points="1410.62,-91.6042 1419.92,-86.5278 1409.49,-84.697 1410.62,-91.6042"/>
</g>
<!-- Node23 -->
<g id="node23" class="node"><title>Node23</title>
<polygon fill="white" stroke="#bfbfbf" points="1528.5,-68.5 1528.5,-87.5 1641.5,-87.5 1641.5,-68.5 1528.5,-68.5"/>
<text text-anchor="middle" x="1585" y="-75.5" font-family="Helvetica,sans-Serif" font-size="10.00">mars/utils/mathUtils.h</text>
</g>
<!-- Node1&#45;&gt;Node23 -->
<g id="edge22" class="edge"><title>Node1&#45;&gt;Node23</title>
<path fill="none" stroke="midnightblue" d="M1141.78,-134.926C1229.66,-124.337 1379.18,-106.116 1518.47,-88.0547"/>
<polygon fill="midnightblue" stroke="midnightblue" points="1519.01,-91.5134 1528.48,-86.7546 1518.11,-84.5717 1519.01,-91.5134"/>
</g>
<!-- Node3 -->
<g id="node3" class="node"><title>Node3</title>
<polygon fill="white" stroke="#bfbfbf" points="0,-6.5 0,-25.5 62,-25.5 62,-6.5 0,-6.5"/>
<text text-anchor="middle" x="31" y="-13.5" font-family="Helvetica,sans-Serif" font-size="10.00">osg/Group</text>
</g>
<!-- Node2&#45;&gt;Node3 -->
<g id="edge2" class="edge"><title>Node2&#45;&gt;Node3</title>
<path fill="none" stroke="midnightblue" d="M509.691,-76.7577C416.526,-75.2637 226.941,-67.6295 71,-32 67.4955,-31.1993 63.8842,-30.1641 60.3322,-29.0119"/>
<polygon fill="midnightblue" stroke="midnightblue" points="61.211,-25.6096 50.6163,-25.5525 58.8629,-32.2041 61.211,-25.6096"/>
</g>
<!-- Node4 -->
<g id="node4" class="node"><title>Node4</title>
<polygon fill="white" stroke="#bfbfbf" points="80.5,-6.5 80.5,-25.5 139.5,-25.5 139.5,-6.5 80.5,-6.5"/>
<text text-anchor="middle" x="110" y="-13.5" font-family="Helvetica,sans-Serif" font-size="10.00">osg/Node</text>
</g>
<!-- Node2&#45;&gt;Node4 -->
<g id="edge3" class="edge"><title>Node2&#45;&gt;Node4</title>
<path fill="none" stroke="midnightblue" d="M509.745,-75.529C428.468,-72.3874 275.459,-62.5728 149,-32 145.756,-31.2158 142.419,-30.2292 139.127,-29.1381"/>
<polygon fill="midnightblue" stroke="midnightblue" points="140.117,-25.7739 129.523,-25.6497 137.727,-32.3534 140.117,-25.7739"/>
</g>
<!-- Node5 -->
<g id="node5" class="node"><title>Node5</title>
<polygon fill="white" stroke="#bfbfbf" points="158,-6.5 158,-25.5 222,-25.5 222,-6.5 158,-6.5"/>
<text text-anchor="middle" x="190" y="-13.5" font-family="Helvetica,sans-Serif" font-size="10.00">osg/Geode</text>
</g>
<!-- Node2&#45;&gt;Node5 -->
<g id="edge4" class="edge"><title>Node2&#45;&gt;Node5</title>
<path fill="none" stroke="midnightblue" d="M509.818,-73.1492C442.383,-67.7368 327.281,-55.7589 231,-32 227.509,-31.1386 223.904,-30.0814 220.347,-28.9305"/>
<polygon fill="midnightblue" stroke="midnightblue" points="221.18,-25.5141 210.585,-25.5238 218.874,-32.1232 221.18,-25.5141"/>
</g>
<!-- Node6 -->
<g id="node6" class="node"><title>Node6</title>
<polygon fill="white" stroke="#bfbfbf" points="240,-6.5 240,-25.5 318,-25.5 318,-6.5 240,-6.5"/>
<text text-anchor="middle" x="279" y="-13.5" font-family="Helvetica,sans-Serif" font-size="10.00">osg/Geometry</text>
</g>
<!-- Node2&#45;&gt;Node6 -->
<g id="edge5" class="edge"><title>Node2&#45;&gt;Node6</title>
<path fill="none" stroke="midnightblue" d="M511.312,-68.4651C462.412,-60.5184 389.527,-47.5744 327,-32 322.806,-30.9554 318.44,-29.754 314.124,-28.4954"/>
<polygon fill="midnightblue" stroke="midnightblue" points="314.837,-25.0543 304.252,-25.502 312.806,-31.7531 314.837,-25.0543"/>
</g>
<!-- Node7 -->
<g id="node7" class="node"><title>Node7</title>
<polygon fill="white" stroke="#bfbfbf" points="336.5,-6.5 336.5,-25.5 417.5,-25.5 417.5,-6.5 336.5,-6.5"/>
<text text-anchor="middle" x="377" y="-13.5" font-family="Helvetica,sans-Serif" font-size="10.00">osg/Texture2D</text>
</g>
<!-- Node2&#45;&gt;Node7 -->
<g id="edge6" class="edge"><title>Node2&#45;&gt;Node7</title>
<path fill="none" stroke="midnightblue" d="M539.778,-68.4035C506.763,-57.9777 450.96,-40.3557 414.047,-28.6992"/>
<polygon fill="midnightblue" stroke="midnightblue" points="414.762,-25.2544 404.172,-25.5806 412.654,-31.9295 414.762,-25.2544"/>
</g>
<!-- Node8 -->
<g id="node8" class="node"><title>Node8</title>
<polygon fill="white" stroke="#bfbfbf" points="435.5,-6.5 435.5,-25.5 584.5,-25.5 584.5,-6.5 435.5,-6.5"/>
<text text-anchor="middle" x="510" y="-13.5" font-family="Helvetica,sans-Serif" font-size="10.00">osg/PositionAttitudeTransform</text>
</g>
<!-- Node2&#45;&gt;Node8 -->
<g id="edge7" class="edge"><title>Node2&#45;&gt;Node8</title>
<path fill="none" stroke="midnightblue" d="M558.833,-68.4035C550.114,-59.2252 536.096,-44.4699 525.311,-33.1173"/>
<polygon fill="midnightblue" stroke="midnightblue" points="527.577,-30.42 518.152,-25.5806 522.502,-35.2412 527.577,-30.42"/>
</g>
<!-- Node9 -->
<g id="node9" class="node"><title>Node9</title>
<polygon fill="white" stroke="#bfbfbf" points="602,-6.5 602,-25.5 646,-25.5 646,-6.5 602,-6.5"/>
<text text-anchor="middle" x="624" y="-13.5" font-family="Helvetica,sans-Serif" font-size="10.00">vector</text>
</g>
<!-- Node2&#45;&gt;Node9 -->
<g id="edge8" class="edge"><title>Node2&#45;&gt;Node9</title>
<path fill="none" stroke="midnightblue" d="M575.167,-68.4035C583.886,-59.2252 597.904,-44.4699 608.689,-33.1173"/>
<polygon fill="midnightblue" stroke="midnightblue" points="611.498,-35.2412 615.848,-25.5806 606.423,-30.42 611.498,-35.2412"/>
</g>
<!-- Node10 -->
<g id="node10" class="node"><title>Node10</title>
<polygon fill="white" stroke="#bfbfbf" points="664,-6.5 664,-25.5 716,-25.5 716,-6.5 664,-6.5"/>
<text text-anchor="middle" x="690" y="-13.5" font-family="Helvetica,sans-Serif" font-size="10.00">sstream</text>
</g>
<!-- Node2&#45;&gt;Node10 -->
<g id="edge9" class="edge"><title>Node2&#45;&gt;Node10</title>
<path fill="none" stroke="midnightblue" d="M584.623,-68.4035C605.174,-58.3787 639.364,-41.7006 663.207,-30.0699"/>
<polygon fill="midnightblue" stroke="midnightblue" points="664.957,-33.1106 672.41,-25.5806 661.888,-26.8192 664.957,-33.1106"/>
</g>
<!-- Node11 -->
<g id="node11" class="node"><title>Node11</title>
<polygon fill="white" stroke="#bfbfbf" points="734.5,-1 734.5,-31 837.5,-31 837.5,-1 734.5,-1"/>
<text text-anchor="start" x="742.5" y="-19" font-family="Helvetica,sans-Serif" font-size="10.00">mars/interfaces/sim</text>
<text text-anchor="middle" x="786" y="-8" font-family="Helvetica,sans-Serif" font-size="10.00">_common.h</text>
</g>
<!-- Node2&#45;&gt;Node11 -->
<g id="edge10" class="edge"><title>Node2&#45;&gt;Node11</title>
<path fill="none" stroke="midnightblue" d="M598.377,-68.4035C631.335,-59.3739 683.995,-44.9466 725.148,-33.6718"/>
<polygon fill="midnightblue" stroke="midnightblue" points="726.088,-37.0433 734.808,-31.0253 724.238,-30.2921 726.088,-37.0433"/>
</g>
<!-- Node12 -->
<g id="node12" class="node"><title>Node12</title>
<polygon fill="white" stroke="#bfbfbf" points="855.5,-6.5 855.5,-25.5 1004.5,-25.5 1004.5,-6.5 855.5,-6.5"/>
<text text-anchor="middle" x="930" y="-13.5" font-family="Helvetica,sans-Serif" font-size="10.00">mars/interfaces/terrainStruct.h</text>
</g>
<!-- Node2&#45;&gt;Node12 -->
<g id="edge11" class="edge"><title>Node2&#45;&gt;Node12</title>
<path fill="none" stroke="midnightblue" d="M621.575,-68.4752C677.85,-59.6196 768.124,-45.2326 846,-32 854.701,-30.5215 863.902,-28.9188 872.899,-27.3297"/>
<polygon fill="midnightblue" stroke="midnightblue" points="873.697,-30.7427 882.932,-25.5487 872.474,-23.8504 873.697,-30.7427"/>
</g>
<!-- Node13 -->
<g id="node13" class="node"><title>Node13</title>
<polygon fill="white" stroke="#bfbfbf" points="1022.5,-1 1022.5,-31 1125.5,-31 1125.5,-1 1022.5,-1"/>
<text text-anchor="start" x="1030.5" y="-19" font-family="Helvetica,sans-Serif" font-size="10.00">mars/interfaces/sim</text>
<text text-anchor="middle" x="1074" y="-8" font-family="Helvetica,sans-Serif" font-size="10.00">/LoadCenter.h</text>
</g>
<!-- Node2&#45;&gt;Node13 -->
<g id="edge12" class="edge"><title>Node2&#45;&gt;Node13</title>
<path fill="none" stroke="midnightblue" d="M624.219,-69.051C627.188,-68.6845 630.128,-68.3317 633,-68 798.316,-48.9059 844.008,-59.8928 1012.26,-31.9587"/>
<polygon fill="midnightblue" stroke="midnightblue" points="1012.91,-35.3974 1022.19,-30.2874 1011.75,-28.4943 1012.91,-35.3974"/>
</g>
<!-- Node14 -->
<g id="node14" class="node"><title>Node14</title>
<polygon fill="white" stroke="#bfbfbf" points="1143.5,-1 1143.5,-31 1286.5,-31 1286.5,-1 1143.5,-1"/>
<text text-anchor="start" x="1151.5" y="-19" font-family="Helvetica,sans-Serif" font-size="10.00">mars/interfaces/graphics</text>
<text text-anchor="middle" x="1215" y="-8" font-family="Helvetica,sans-Serif" font-size="10.00">/GraphicsManagerInterface.h</text>
</g>
<!-- Node2&#45;&gt;Node14 -->
<g id="edge13" class="edge"><title>Node2&#45;&gt;Node14</title>
<path fill="none" stroke="midnightblue" d="M624.211,-68.9713C627.181,-68.6256 630.124,-68.2991 633,-68 851.791,-45.2451 910.848,-59.9241 1133.06,-32.0218"/>
<polygon fill="midnightblue" stroke="midnightblue" points="1133.6,-35.4814 1143.08,-30.7489 1132.72,-28.5372 1133.6,-35.4814"/>
</g>
</g>
</svg>
