<?xml version="1.0" encoding="UTF-8" standalone="no"?>
<!DOCTYPE svg PUBLIC "-//W3C//DTD SVG 1.1//EN"
 "http://www.w3.org/Graphics/SVG/1.1/DTD/svg11.dtd">
<!-- Generated by graphviz version 2.36.0 (20140111.2315)
 -->
<!-- Title: /media/kavonszadkowski/work/marsdocs/mars/sim/src/core/JointManager.h Pages: 1 -->
<svg width="446pt" height="128pt"
 viewBox="0.00 0.00 446.00 128.00" xmlns="http://www.w3.org/2000/svg" xmlns:xlink="http://www.w3.org/1999/xlink">
<g id="graph0" class="graph" transform="scale(1 1) rotate(0) translate(4 124)">
<title>/media/kavonszadkowski/work/marsdocs/mars/sim/src/core/JointManager.h</title>
<polygon fill="white" stroke="none" points="-4,4 -4,-124 442,-124 442,4 -4,4"/>
<!-- Node1 -->
<g id="node1" class="node"><title>Node1</title>
<polygon fill="#bfbfbf" stroke="black" points="156,-78.5 156,-119.5 286,-119.5 286,-78.5 156,-78.5"/>
<text text-anchor="start" x="164" y="-107.5" font-family="Helvetica,sans-Serif" font-size="10.00">/media/kavonszadkowski</text>
<text text-anchor="start" x="164" y="-96.5" font-family="Helvetica,sans-Serif" font-size="10.00">/work/marsdocs/mars/sim</text>
<text text-anchor="middle" x="221" y="-85.5" font-family="Helvetica,sans-Serif" font-size="10.00">/src/core/JointManager.h</text>
</g>
<!-- Node2 -->
<g id="node2" class="node"><title>Node2</title>
<g id="a_node2"><a xlink:href="../../d9/d28/_joint_manager_8cpp.html" target="_top" xlink:title="&quot;JointManager&quot; is the class that manage all joints and their operations and communication between the...">
<polygon fill="white" stroke="black" points="-0.5,-0.5 -0.5,-41.5 134.5,-41.5 134.5,-0.5 -0.5,-0.5"/>
<text text-anchor="start" x="7.5" y="-29.5" font-family="Helvetica,sans-Serif" font-size="10.00">/media/kavonszadkowski</text>
<text text-anchor="start" x="7.5" y="-18.5" font-family="Helvetica,sans-Serif" font-size="10.00">/work/marsdocs/mars/sim</text>
<text text-anchor="middle" x="67" y="-7.5" font-family="Helvetica,sans-Serif" font-size="10.00">/src/core/JointManager.cpp</text>
</a>
</g>
</g>
<!-- Node1&#45;&gt;Node2 -->
<g id="edge1" class="edge"><title>Node1&#45;&gt;Node2</title>
<path fill="none" stroke="midnightblue" d="M172.182,-73.9082C151.007,-63.4581 126.533,-51.3801 106.524,-41.5056"/>
<polygon fill="midnightblue" stroke="midnightblue" points="170.825,-77.1412 181.341,-78.4281 173.923,-70.864 170.825,-77.1412"/>
</g>
<!-- Node3 -->
<g id="node3" class="node"><title>Node3</title>
<g id="a_node3"><a xlink:href="../../d1/dc7/_node_manager_8cpp.html" target="_top" xlink:title="&quot;NodeManager&quot; is the class that manage all nodes and their operations and communication between the d...">
<polygon fill="white" stroke="black" points="152.5,-0.5 152.5,-41.5 289.5,-41.5 289.5,-0.5 152.5,-0.5"/>
<text text-anchor="start" x="160.5" y="-29.5" font-family="Helvetica,sans-Serif" font-size="10.00">/media/kavonszadkowski</text>
<text text-anchor="start" x="160.5" y="-18.5" font-family="Helvetica,sans-Serif" font-size="10.00">/work/marsdocs/mars/sim</text>
<text text-anchor="middle" x="221" y="-7.5" font-family="Helvetica,sans-Serif" font-size="10.00">/src/core/NodeManager.cpp</text>
</a>
</g>
</g>
<!-- Node1&#45;&gt;Node3 -->
<g id="edge2" class="edge"><title>Node1&#45;&gt;Node3</title>
<path fill="none" stroke="midnightblue" d="M221,-68.2965C221,-59.3009 221,-49.6532 221,-41.5056"/>
<polygon fill="midnightblue" stroke="midnightblue" points="217.5,-68.4281 221,-78.4281 224.5,-68.4281 217.5,-68.4281"/>
</g>
<!-- Node4 -->
<g id="node4" class="node"><title>Node4</title>
<g id="a_node4"><a xlink:href="../../d0/de2/_simulator_8cpp.html" target="_top" xlink:title="/media/kavonszadkowski\l/work/marsdocs/mars/sim\l/src/core/Simulator.cpp">
<polygon fill="white" stroke="black" points="308,-0.5 308,-41.5 438,-41.5 438,-0.5 308,-0.5"/>
<text text-anchor="start" x="316" y="-29.5" font-family="Helvetica,sans-Serif" font-size="10.00">/media/kavonszadkowski</text>
<text text-anchor="start" x="316" y="-18.5" font-family="Helvetica,sans-Serif" font-size="10.00">/work/marsdocs/mars/sim</text>
<text text-anchor="middle" x="373" y="-7.5" font-family="Helvetica,sans-Serif" font-size="10.00">/src/core/Simulator.cpp</text>
</a>
</g>
</g>
<!-- Node1&#45;&gt;Node4 -->
<g id="edge3" class="edge"><title>Node1&#45;&gt;Node4</title>
<path fill="none" stroke="midnightblue" d="M269.184,-73.9082C290.084,-63.4581 314.24,-51.3801 333.989,-41.5056"/>
<polygon fill="midnightblue" stroke="midnightblue" points="267.523,-70.8254 260.144,-78.4281 270.653,-77.0864 267.523,-70.8254"/>
</g>
</g>
</svg>
