<?xml version="1.0" encoding="UTF-8" standalone="no"?>
<!DOCTYPE svg PUBLIC "-//W3C//DTD SVG 1.1//EN"
 "http://www.w3.org/Graphics/SVG/1.1/DTD/svg11.dtd">
<!-- Generated by graphviz version 2.36.0 (20140111.2315)
 -->
<!-- Title: /media/kavonszadkowski/work/marsdocs/mars/common/graphics/osg_plot/src/Plot.h Pages: 1 -->
<svg width="419pt" height="162pt"
 viewBox="0.00 0.00 419.00 162.00" xmlns="http://www.w3.org/2000/svg" xmlns:xlink="http://www.w3.org/1999/xlink">
<g id="graph0" class="graph" transform="scale(1 1) rotate(0) translate(4 158)">
<title>/media/kavonszadkowski/work/marsdocs/mars/common/graphics/osg_plot/src/Plot.h</title>
<polygon fill="white" stroke="none" points="-4,4 -4,-158 415,-158 415,4 -4,4"/>
<!-- Node1 -->
<g id="node1" class="node"><title>Node1</title>
<polygon fill="#bfbfbf" stroke="black" points="157,-112.5 157,-153.5 309,-153.5 309,-112.5 157,-112.5"/>
<text text-anchor="start" x="165" y="-141.5" font-family="Helvetica,sans-Serif" font-size="10.00">/media/kavonszadkowski</text>
<text text-anchor="start" x="165" y="-130.5" font-family="Helvetica,sans-Serif" font-size="10.00">/work/marsdocs/mars/common</text>
<text text-anchor="middle" x="233" y="-119.5" font-family="Helvetica,sans-Serif" font-size="10.00">/graphics/osg_plot/src/Plot.h</text>
</g>
<!-- Node2 -->
<g id="node2" class="node"><title>Node2</title>
<g id="a_node2"><a xlink:href="../../da/de9/_curve_8h.html" target="_top" xlink:title="Curve.h">
<polygon fill="white" stroke="black" points="-0.5,-56.5 -0.5,-75.5 50.5,-75.5 50.5,-56.5 -0.5,-56.5"/>
<text text-anchor="middle" x="25" y="-63.5" font-family="Helvetica,sans-Serif" font-size="10.00">Curve.h</text>
</a>
</g>
</g>
<!-- Node1&#45;&gt;Node2 -->
<g id="edge1" class="edge"><title>Node1&#45;&gt;Node2</title>
<path fill="none" stroke="midnightblue" d="M170.593,-112.498C134.47,-101.209 90.3308,-87.4159 60.1858,-77.9955"/>
<polygon fill="midnightblue" stroke="midnightblue" points="61.1197,-74.6206 50.5309,-74.9784 59.0317,-81.3019 61.1197,-74.6206"/>
</g>
<!-- Node4 -->
<g id="node4" class="node"><title>Node4</title>
<polygon fill="white" stroke="#bfbfbf" points="68.5,-56.5 68.5,-75.5 175.5,-75.5 175.5,-56.5 68.5,-56.5"/>
<text text-anchor="middle" x="122" y="-63.5" font-family="Helvetica,sans-Serif" font-size="10.00">osg/MatrixTransform</text>
</g>
<!-- Node1&#45;&gt;Node4 -->
<g id="edge3" class="edge"><title>Node1&#45;&gt;Node4</title>
<path fill="none" stroke="midnightblue" d="M199.696,-112.498C182.351,-102.34 161.542,-90.1551 145.826,-80.9523"/>
<polygon fill="midnightblue" stroke="midnightblue" points="147.174,-77.6855 136.776,-75.6525 143.636,-83.726 147.174,-77.6855"/>
</g>
<!-- Node5 -->
<g id="node5" class="node"><title>Node5</title>
<polygon fill="white" stroke="#bfbfbf" points="194,-56.5 194,-75.5 272,-75.5 272,-56.5 194,-56.5"/>
<text text-anchor="middle" x="233" y="-63.5" font-family="Helvetica,sans-Serif" font-size="10.00">osg/Geometry</text>
</g>
<!-- Node1&#45;&gt;Node5 -->
<g id="edge4" class="edge"><title>Node1&#45;&gt;Node5</title>
<path fill="none" stroke="midnightblue" d="M233,-112.498C233,-104.065 233,-94.2351 233,-85.874"/>
<polygon fill="midnightblue" stroke="midnightblue" points="236.5,-85.6525 233,-75.6525 229.5,-85.6525 236.5,-85.6525"/>
</g>
<!-- Node6 -->
<g id="node6" class="node"><title>Node6</title>
<polygon fill="white" stroke="#bfbfbf" points="290,-56.5 290,-75.5 364,-75.5 364,-56.5 290,-56.5"/>
<text text-anchor="middle" x="327" y="-63.5" font-family="Helvetica,sans-Serif" font-size="10.00">osgText/Text</text>
</g>
<!-- Node1&#45;&gt;Node6 -->
<g id="edge5" class="edge"><title>Node1&#45;&gt;Node6</title>
<path fill="none" stroke="midnightblue" d="M261.203,-112.498C275.615,-102.532 292.85,-90.6142 306.065,-81.4764"/>
<polygon fill="midnightblue" stroke="midnightblue" points="308.253,-84.2189 314.487,-75.6525 304.271,-78.4613 308.253,-84.2189"/>
</g>
<!-- Node7 -->
<g id="node7" class="node"><title>Node7</title>
<polygon fill="white" stroke="#bfbfbf" points="382.5,-56.5 382.5,-75.5 411.5,-75.5 411.5,-56.5 382.5,-56.5"/>
<text text-anchor="middle" x="397" y="-63.5" font-family="Helvetica,sans-Serif" font-size="10.00">list</text>
</g>
<!-- Node1&#45;&gt;Node7 -->
<g id="edge6" class="edge"><title>Node1&#45;&gt;Node7</title>
<path fill="none" stroke="midnightblue" d="M282.205,-112.498C312.256,-100.588 349.342,-85.889 373.081,-76.4801"/>
<polygon fill="midnightblue" stroke="midnightblue" points="374.372,-79.7335 382.379,-72.7951 371.792,-73.226 374.372,-79.7335"/>
</g>
<!-- Node3 -->
<g id="node3" class="node"><title>Node3</title>
<polygon fill="white" stroke="#bfbfbf" points="4.5,-0.5 4.5,-19.5 45.5,-19.5 45.5,-0.5 4.5,-0.5"/>
<text text-anchor="middle" x="25" y="-7.5" font-family="Helvetica,sans-Serif" font-size="10.00">string</text>
</g>
<!-- Node2&#45;&gt;Node3 -->
<g id="edge2" class="edge"><title>Node2&#45;&gt;Node3</title>
<path fill="none" stroke="midnightblue" d="M25,-56.083C25,-49.0059 25,-38.8611 25,-29.9865"/>
<polygon fill="midnightblue" stroke="midnightblue" points="28.5001,-29.751 25,-19.7511 21.5001,-29.7511 28.5001,-29.751"/>
</g>
</g>
</svg>
