<?xml version="1.0" encoding="UTF-8" standalone="no"?>
<!DOCTYPE svg PUBLIC "-//W3C//DTD SVG 1.1//EN"
 "http://www.w3.org/Graphics/SVG/1.1/DTD/svg11.dtd">
<!-- Generated by graphviz version 2.36.0 (20140111.2315)
 -->
<!-- Title: /media/kavonszadkowski/work/marsdocs/mars/gui/src/dialogs/BlenderExportGUI.cpp Pages: 1 -->
<svg width="833pt" height="186pt"
 viewBox="0.00 0.00 833.00 186.00" xmlns="http://www.w3.org/2000/svg" xmlns:xlink="http://www.w3.org/1999/xlink">
<g id="graph0" class="graph" transform="scale(1 1) rotate(0) translate(4 182)">
<title>/media/kavonszadkowski/work/marsdocs/mars/gui/src/dialogs/BlenderExportGUI.cpp</title>
<polygon fill="white" stroke="none" points="-4,4 -4,-182 829,-182 829,4 -4,4"/>
<!-- Node1 -->
<g id="node1" class="node"><title>Node1</title>
<polygon fill="#bfbfbf" stroke="black" points="454,-136.5 454,-177.5 622,-177.5 622,-136.5 454,-136.5"/>
<text text-anchor="start" x="462" y="-165.5" font-family="Helvetica,sans-Serif" font-size="10.00">/media/kavonszadkowski</text>
<text text-anchor="start" x="462" y="-154.5" font-family="Helvetica,sans-Serif" font-size="10.00">/work/marsdocs/mars/gui</text>
<text text-anchor="middle" x="538" y="-143.5" font-family="Helvetica,sans-Serif" font-size="10.00">/src/dialogs/BlenderExportGUI.cpp</text>
</g>
<!-- Node2 -->
<g id="node2" class="node"><title>Node2</title>
<g id="a_node2"><a xlink:href="../../dd/dcd/_blender_export_g_u_i_8h.html" target="_top" xlink:title="&quot;BlenderExportGUI&quot; is a template for the widget interface of the MARS GUI ">
<polygon fill="white" stroke="black" points="189,-74.5 189,-93.5 293,-93.5 293,-74.5 189,-74.5"/>
<text text-anchor="middle" x="241" y="-81.5" font-family="Helvetica,sans-Serif" font-size="10.00">BlenderExportGUI.h</text>
</a>
</g>
</g>
<!-- Node1&#45;&gt;Node2 -->
<g id="edge1" class="edge"><title>Node1&#45;&gt;Node2</title>
<path fill="none" stroke="midnightblue" d="M455.601,-136.438C410.514,-125.715 353.671,-112.167 303,-100 297.549,-98.691 291.829,-97.3131 286.159,-95.9448"/>
<polygon fill="midnightblue" stroke="midnightblue" points="286.621,-92.4558 276.079,-93.5091 284.977,-99.26 286.621,-92.4558"/>
</g>
<!-- Node6 -->
<g id="node6" class="node"><title>Node6</title>
<polygon fill="white" stroke="#bfbfbf" points="311.5,-74.5 311.5,-93.5 456.5,-93.5 456.5,-74.5 311.5,-74.5"/>
<text text-anchor="middle" x="384" y="-81.5" font-family="Helvetica,sans-Serif" font-size="10.00">mars/main_gui/GuiInterface.h</text>
</g>
<!-- Node1&#45;&gt;Node6 -->
<g id="edge5" class="edge"><title>Node1&#45;&gt;Node6</title>
<path fill="none" stroke="midnightblue" d="M495.511,-136.411C468.869,-124.128 435.277,-108.641 411.96,-97.8908"/>
<polygon fill="midnightblue" stroke="midnightblue" points="413.193,-94.6053 402.647,-93.5968 410.263,-100.962 413.193,-94.6053"/>
</g>
<!-- Node7 -->
<g id="node7" class="node"><title>Node7</title>
<polygon fill="white" stroke="#bfbfbf" points="474.5,-69 474.5,-99 601.5,-99 601.5,-69 474.5,-69"/>
<text text-anchor="start" x="482.5" y="-87" font-family="Helvetica,sans-Serif" font-size="10.00">mars/interfaces/sim</text>
<text text-anchor="middle" x="538" y="-76" font-family="Helvetica,sans-Serif" font-size="10.00">/NodeManagerInterface.h</text>
</g>
<!-- Node1&#45;&gt;Node7 -->
<g id="edge6" class="edge"><title>Node1&#45;&gt;Node7</title>
<path fill="none" stroke="midnightblue" d="M538,-136.223C538,-127.821 538,-117.948 538,-109.123"/>
<polygon fill="midnightblue" stroke="midnightblue" points="541.5,-109.048 538,-99.0485 534.5,-109.049 541.5,-109.048"/>
</g>
<!-- Node8 -->
<g id="node8" class="node"><title>Node8</title>
<polygon fill="white" stroke="#bfbfbf" points="619.5,-69 619.5,-99 728.5,-99 728.5,-69 619.5,-69"/>
<text text-anchor="start" x="627.5" y="-87" font-family="Helvetica,sans-Serif" font-size="10.00">mars/interfaces/core</text>
<text text-anchor="middle" x="674" y="-76" font-family="Helvetica,sans-Serif" font-size="10.00">_objects_exchange.h</text>
</g>
<!-- Node1&#45;&gt;Node8 -->
<g id="edge7" class="edge"><title>Node1&#45;&gt;Node8</title>
<path fill="none" stroke="midnightblue" d="M575.523,-136.411C594.982,-126.252 618.64,-113.901 637.89,-103.852"/>
<polygon fill="midnightblue" stroke="midnightblue" points="639.703,-106.853 646.948,-99.1228 636.463,-100.648 639.703,-106.853"/>
</g>
<!-- Node9 -->
<g id="node9" class="node"><title>Node9</title>
<polygon fill="white" stroke="#bfbfbf" points="747,-74.5 747,-93.5 825,-93.5 825,-74.5 747,-74.5"/>
<text text-anchor="middle" x="786" y="-81.5" font-family="Helvetica,sans-Serif" font-size="10.00">QHBoxLayout</text>
</g>
<!-- Node1&#45;&gt;Node9 -->
<g id="edge8" class="edge"><title>Node1&#45;&gt;Node9</title>
<path fill="none" stroke="midnightblue" d="M609.03,-136.434C647.05,-125.855 694.644,-112.441 737,-100 740.828,-98.8757 744.818,-97.685 748.797,-96.4856"/>
<polygon fill="midnightblue" stroke="midnightblue" points="750.011,-99.7747 758.562,-93.5196 747.977,-93.0769 750.011,-99.7747"/>
</g>
<!-- Node3 -->
<g id="node3" class="node"><title>Node3</title>
<polygon fill="white" stroke="#bfbfbf" points="-0.5,-6.5 -0.5,-25.5 144.5,-25.5 144.5,-6.5 -0.5,-6.5"/>
<text text-anchor="middle" x="72" y="-13.5" font-family="Helvetica,sans-Serif" font-size="10.00">mars/main_gui/BaseWidget.h</text>
</g>
<!-- Node2&#45;&gt;Node3 -->
<g id="edge2" class="edge"><title>Node2&#45;&gt;Node3</title>
<path fill="none" stroke="midnightblue" d="M218.906,-74.3717C189.346,-62.8274 136.764,-42.2926 103.181,-29.1772"/>
<polygon fill="midnightblue" stroke="midnightblue" points="104.42,-25.9035 93.8314,-25.5259 101.873,-32.4239 104.42,-25.9035"/>
</g>
<!-- Node4 -->
<g id="node4" class="node"><title>Node4</title>
<polygon fill="white" stroke="#bfbfbf" points="163,-6.5 163,-25.5 319,-25.5 319,-6.5 163,-6.5"/>
<text text-anchor="middle" x="241" y="-13.5" font-family="Helvetica,sans-Serif" font-size="10.00">mars/main_gui/PropertyDialog.h</text>
</g>
<!-- Node2&#45;&gt;Node4 -->
<g id="edge3" class="edge"><title>Node2&#45;&gt;Node4</title>
<path fill="none" stroke="midnightblue" d="M241,-74.3717C241,-64.6426 241,-48.528 241,-35.8504"/>
<polygon fill="midnightblue" stroke="midnightblue" points="244.5,-35.8411 241,-25.8411 237.5,-35.8412 244.5,-35.8411"/>
</g>
<!-- Node5 -->
<g id="node5" class="node"><title>Node5</title>
<polygon fill="white" stroke="#bfbfbf" points="337.5,-1 337.5,-31 440.5,-31 440.5,-1 337.5,-1"/>
<text text-anchor="start" x="345.5" y="-19" font-family="Helvetica,sans-Serif" font-size="10.00">mars/interfaces/sim</text>
<text text-anchor="middle" x="389" y="-8" font-family="Helvetica,sans-Serif" font-size="10.00">/ControlCenter.h</text>
</g>
<!-- Node2&#45;&gt;Node5 -->
<g id="edge4" class="edge"><title>Node2&#45;&gt;Node5</title>
<path fill="none" stroke="midnightblue" d="M260.348,-74.3717C282.523,-64.4829 319.491,-47.9973 348.123,-35.2289"/>
<polygon fill="midnightblue" stroke="midnightblue" points="349.772,-38.3257 357.48,-31.0562 346.921,-31.9326 349.772,-38.3257"/>
</g>
</g>
</svg>
