<?xml version="1.0" encoding="UTF-8" standalone="no"?>
<!DOCTYPE svg PUBLIC "-//W3C//DTD SVG 1.1//EN"
 "http://www.w3.org/Graphics/SVG/1.1/DTD/svg11.dtd">
<!-- Generated by graphviz version 2.26.3 (20100126.1600)
 -->
<!-- Title: /home/kavonszadkowski/limes&#45;dev/simulation/mars/graphics/src/3d_objects/Clouds.h Pages: 1 -->
<svg width="214pt" height="128pt"
 viewBox="0.00 0.00 214.00 128.00" xmlns="http://www.w3.org/2000/svg" xmlns:xlink="http://www.w3.org/1999/xlink">
<g id="graph1" class="graph" transform="scale(1 1) rotate(0) translate(4 124)">
<title>/home/kavonszadkowski/limes&#45;dev/simulation/mars/graphics/src/3d_objects/Clouds.h</title>
<polygon fill="white" stroke="white" points="-4,5 -4,-124 211,-124 211,5 -4,5"/>
<!-- Node1 -->
<g id="node1" class="node"><title>Node1</title>
<polygon fill="#bfbfbf" stroke="black" points="26.5,-59 26.5,-119 151.5,-119 151.5,-59 26.5,-59"/>
<text text-anchor="start" x="34.5" y="-106" font-family="Helvetica,sans-Serif" font-size="10.00">/home/kavonszadkowski</text>
<text text-anchor="start" x="34.5" y="-93" font-family="Helvetica,sans-Serif" font-size="10.00">/limes&#45;dev/simulation</text>
<text text-anchor="start" x="34.5" y="-80" font-family="Helvetica,sans-Serif" font-size="10.00">/mars/graphics/src/3d</text>
<text text-anchor="middle" x="89" y="-67" font-family="Helvetica,sans-Serif" font-size="10.00">_objects/Clouds.h</text>
</g>
<!-- Node2 -->
<g id="node3" class="node"><title>Node2</title>
<polygon fill="white" stroke="#bfbfbf" points="-0.5,-0.5 -0.5,-21.5 40.5,-21.5 40.5,-0.5 -0.5,-0.5"/>
<text text-anchor="middle" x="20" y="-8.5" font-family="Helvetica,sans-Serif" font-size="10.00">string</text>
</g>
<!-- Node1&#45;&gt;Node2 -->
<g id="edge2" class="edge"><title>Node1&#45;&gt;Node2</title>
<path fill="none" stroke="midnightblue" d="M62.1252,-58.6198C53.4078,-48.7654 44.0068,-38.1381 36.3021,-29.4285"/>
<polygon fill="midnightblue" stroke="midnightblue" points="38.7599,-26.9244 29.5127,-21.7535 33.5169,-31.5625 38.7599,-26.9244"/>
</g>
<!-- Node3 -->
<g id="node5" class="node"><title>Node3</title>
<polygon fill="white" stroke="#bfbfbf" points="58,-0.5 58,-21.5 120,-21.5 120,-0.5 58,-0.5"/>
<text text-anchor="middle" x="89" y="-8.5" font-family="Helvetica,sans-Serif" font-size="10.00">osg/Group</text>
</g>
<!-- Node1&#45;&gt;Node3 -->
<g id="edge4" class="edge"><title>Node1&#45;&gt;Node3</title>
<path fill="none" stroke="midnightblue" d="M89,-58.6198C89,-49.6797 89,-40.1035 89,-31.9002"/>
<polygon fill="midnightblue" stroke="midnightblue" points="92.5001,-31.7534 89,-21.7535 85.5001,-31.7535 92.5001,-31.7534"/>
</g>
<!-- Node4 -->
<g id="node7" class="node"><title>Node4</title>
<polygon fill="white" stroke="#bfbfbf" points="138,-0.5 138,-21.5 206,-21.5 206,-0.5 138,-0.5"/>
<text text-anchor="middle" x="172" y="-8.5" font-family="Helvetica,sans-Serif" font-size="10.00">osg/TexMat</text>
</g>
<!-- Node1&#45;&gt;Node4 -->
<g id="edge6" class="edge"><title>Node1&#45;&gt;Node4</title>
<path fill="none" stroke="midnightblue" d="M121.328,-58.6198C132.138,-48.4606 143.823,-37.48 153.244,-28.6259"/>
<polygon fill="midnightblue" stroke="midnightblue" points="155.667,-31.1522 160.557,-21.7535 150.873,-26.0511 155.667,-31.1522"/>
</g>
</g>
</svg>
