<?xml version="1.0" encoding="UTF-8" standalone="no"?>
<!DOCTYPE svg PUBLIC "-//W3C//DTD SVG 1.1//EN"
 "http://www.w3.org/Graphics/SVG/1.1/DTD/svg11.dtd">
<!-- Generated by graphviz version 2.26.3 (20100126.1600)
 -->
<!-- Title: mars::main_gui::MainGUI Pages: 1 -->
<svg width="220pt" height="146pt"
 viewBox="0.00 0.00 220.00 146.00" xmlns="http://www.w3.org/2000/svg" xmlns:xlink="http://www.w3.org/1999/xlink">
<g id="graph1" class="graph" transform="scale(1 1) rotate(0) translate(4 142)">
<title>mars::main_gui::MainGUI</title>
<polygon fill="white" stroke="white" points="-4,5 -4,-142 217,-142 217,5 -4,5"/>
<!-- Node1 -->
<g id="node1" class="node"><title>Node1</title>
<polygon fill="#bfbfbf" stroke="black" points="19,-0.5 19,-21.5 147,-21.5 147,-0.5 19,-0.5"/>
<text text-anchor="middle" x="83" y="-8.5" font-family="Helvetica,sans-Serif" font-size="10.00">mars::main_gui::MainGUI</text>
</g>
<!-- Node2 -->
<g id="node2" class="node"><title>Node2</title>
<polygon fill="white" stroke="#bfbfbf" points="-0.5,-58.5 -0.5,-79.5 52.5,-79.5 52.5,-58.5 -0.5,-58.5"/>
<text text-anchor="middle" x="26" y="-66.5" font-family="Helvetica,sans-Serif" font-size="10.00">QObject</text>
</g>
<!-- Node2&#45;&gt;Node1 -->
<g id="edge2" class="edge"><title>Node2&#45;&gt;Node1</title>
<path fill="none" stroke="midnightblue" d="M43.5737,-51.118C53.087,-41.4377 64.5145,-29.8098 72.6116,-21.5707"/>
<polygon fill="midnightblue" stroke="midnightblue" points="40.9677,-48.7763 36.4547,-58.3619 45.9603,-53.6829 40.9677,-48.7763"/>
</g>
<!-- Node3 -->
<g id="node4" class="node"><title>Node3</title>
<a xlink:href="../../d7/df2/classmars_1_1main__gui_1_1_gui_interface.html" target="_top" xlink:title="The abstract GuiInterface class provides the menu and docking functionality of the GUI...">
<polygon fill="white" stroke="black" points="69.5,-58.5 69.5,-79.5 212.5,-79.5 212.5,-58.5 69.5,-58.5"/>
<text text-anchor="middle" x="141" y="-66.5" font-family="Helvetica,sans-Serif" font-size="10.00">mars::main_gui::GuiInterface</text>
</a>
</g>
<!-- Node3&#45;&gt;Node1 -->
<g id="edge4" class="edge"><title>Node3&#45;&gt;Node1</title>
<path fill="none" stroke="midnightblue" d="M123.118,-51.118C113.438,-41.4377 101.81,-29.8098 93.5707,-21.5707"/>
<polygon fill="midnightblue" stroke="midnightblue" points="120.816,-53.7657 130.362,-58.3619 125.766,-48.8159 120.816,-53.7657"/>
</g>
<!-- Node4 -->
<g id="node6" class="node"><title>Node4</title>
<polygon fill="white" stroke="#bfbfbf" points="107,-116.5 107,-137.5 175,-137.5 175,-116.5 107,-116.5"/>
<text text-anchor="middle" x="141" y="-124.5" font-family="Helvetica,sans-Serif" font-size="10.00">LibInterface</text>
</g>
<!-- Node4&#45;&gt;Node3 -->
<g id="edge6" class="edge"><title>Node4&#45;&gt;Node3</title>
<path fill="none" stroke="midnightblue" d="M141,-106.191C141,-97.1684 141,-86.9941 141,-79.5707"/>
<polygon fill="midnightblue" stroke="midnightblue" points="137.5,-106.362 141,-116.362 144.5,-106.362 137.5,-106.362"/>
</g>
</g>
</svg>
