<?xml version="1.0" encoding="UTF-8" standalone="no"?>
<!DOCTYPE svg PUBLIC "-//W3C//DTD SVG 1.1//EN"
 "http://www.w3.org/Graphics/SVG/1.1/DTD/svg11.dtd">
<!-- Generated by graphviz version 2.26.3 (20100126.1600)
 -->
<!-- Title: mars::app::GraphicsTimer Pages: 1 -->
<svg width="454pt" height="134pt"
 viewBox="0.00 0.00 454.00 134.00" xmlns="http://www.w3.org/2000/svg" xmlns:xlink="http://www.w3.org/1999/xlink">
<g id="graph1" class="graph" transform="scale(1 1) rotate(0) translate(4 130)">
<title>mars::app::GraphicsTimer</title>
<polygon fill="white" stroke="white" points="-4,5 -4,-130 451,-130 451,5 -4,5"/>
<!-- Node1 -->
<g id="node1" class="node"><title>Node1</title>
<polygon fill="#bfbfbf" stroke="black" points="316,-58.5 316,-79.5 446,-79.5 446,-58.5 316,-58.5"/>
<text text-anchor="middle" x="381" y="-66.5" font-family="Helvetica,sans-Serif" font-size="10.00">mars::app::GraphicsTimer</text>
</g>
<!-- Node2 -->
<g id="node2" class="node"><title>Node2</title>
<polygon fill="white" stroke="#bfbfbf" points="146.5,-104.5 146.5,-125.5 199.5,-125.5 199.5,-104.5 146.5,-104.5"/>
<text text-anchor="middle" x="173" y="-112.5" font-family="Helvetica,sans-Serif" font-size="10.00">QObject</text>
</g>
<!-- Node2&#45;&gt;Node1 -->
<g id="edge2" class="edge"><title>Node2&#45;&gt;Node1</title>
<path fill="none" stroke="midnightblue" d="M209.859,-106.849C244.26,-99.2405 295.781,-87.8464 333.304,-79.5481"/>
<polygon fill="midnightblue" stroke="midnightblue" points="208.775,-103.504 199.767,-109.08 210.286,-110.338 208.775,-103.504"/>
</g>
<!-- Node3 -->
<g id="node4" class="node"><title>Node3</title>
<a xlink:href="../../d1/d93/classmars_1_1interfaces_1_1_graphics_manager_interface.html" target="_top" xlink:title="mars::interfaces::Graphics\lManagerInterface">
<polygon fill="white" stroke="black" points="107,-52 107,-86 239,-86 239,-52 107,-52"/>
<text text-anchor="start" x="115" y="-73" font-family="Helvetica,sans-Serif" font-size="10.00">mars::interfaces::Graphics</text>
<text text-anchor="middle" x="173" y="-60" font-family="Helvetica,sans-Serif" font-size="10.00">ManagerInterface</text>
</a>
</g>
<!-- Node3&#45;&gt;Node1 -->
<g id="edge4" class="edge"><title>Node3&#45;&gt;Node1</title>
<path fill="none" stroke="#9a32cd" stroke-dasharray="5,2" d="M249.315,-69C271.131,-69 294.7,-69 315.786,-69"/>
<polygon fill="#9a32cd" stroke="#9a32cd" points="249.098,-65.5001 239.098,-69 249.098,-72.5001 249.098,-65.5001"/>
<text text-anchor="middle" x="278" y="-73" font-family="Helvetica,sans-Serif" font-size="10.00"> graphics</text>
</g>
<!-- Node4 -->
<g id="node6" class="node"><title>Node4</title>
<polygon fill="white" stroke="#bfbfbf" points="0,-58.5 0,-79.5 68,-79.5 68,-58.5 0,-58.5"/>
<text text-anchor="middle" x="34" y="-66.5" font-family="Helvetica,sans-Serif" font-size="10.00">LibInterface</text>
</g>
<!-- Node4&#45;&gt;Node3 -->
<g id="edge6" class="edge"><title>Node4&#45;&gt;Node3</title>
<path fill="none" stroke="midnightblue" d="M78.2974,-69C87.3635,-69 97.0915,-69 106.736,-69"/>
<polygon fill="midnightblue" stroke="midnightblue" points="78.0033,-65.5001 68.0032,-69 78.0032,-72.5001 78.0033,-65.5001"/>
</g>
<!-- Node5 -->
<g id="node8" class="node"><title>Node5</title>
<a xlink:href="../../dc/de5/classmars_1_1interfaces_1_1_simulator_interface.html" target="_top" xlink:title="mars::interfaces::Simulator\lInterface">
<polygon fill="white" stroke="black" points="106,-0 106,-34 240,-34 240,-0 106,-0"/>
<text text-anchor="start" x="114" y="-21" font-family="Helvetica,sans-Serif" font-size="10.00">mars::interfaces::Simulator</text>
<text text-anchor="middle" x="173" y="-8" font-family="Helvetica,sans-Serif" font-size="10.00">Interface</text>
</a>
</g>
<!-- Node5&#45;&gt;Node1 -->
<g id="edge8" class="edge"><title>Node5&#45;&gt;Node1</title>
<path fill="none" stroke="#9a32cd" stroke-dasharray="5,2" d="M250.27,-36.3176C280.24,-43.81 313.386,-52.0966 338.804,-58.451"/>
<polygon fill="#9a32cd" stroke="#9a32cd" points="250.795,-32.841 240.244,-33.8111 249.097,-39.632 250.795,-32.841"/>
<text text-anchor="middle" x="278" y="-52" font-family="Helvetica,sans-Serif" font-size="10.00"> sim</text>
</g>
</g>
</svg>
