<?xml version="1.0" encoding="UTF-8" standalone="no"?>
<!DOCTYPE svg PUBLIC "-//W3C//DTD SVG 1.1//EN"
 "http://www.w3.org/Graphics/SVG/1.1/DTD/svg11.dtd">
<!-- Generated by graphviz version 2.36.0 (20140111.2315)
 -->
<!-- Title: mars::viz::Viz Pages: 1 -->
<svg width="816pt" height="602pt"
 viewBox="0.00 0.00 816.00 602.00" xmlns="http://www.w3.org/2000/svg" xmlns:xlink="http://www.w3.org/1999/xlink">
<g id="graph0" class="graph" transform="scale(1 1) rotate(0) translate(4 598)">
<title>mars::viz::Viz</title>
<polygon fill="white" stroke="none" points="-4,4 -4,-598 812,-598 812,4 -4,4"/>
<!-- Node1 -->
<g id="node1" class="node"><title>Node1</title>
<polygon fill="#bfbfbf" stroke="black" points="730.5,-485.5 730.5,-504.5 807.5,-504.5 807.5,-485.5 730.5,-485.5"/>
<text text-anchor="middle" x="769" y="-492.5" font-family="Helvetica,sans-Serif" font-size="10.00">mars::viz::Viz</text>
</g>
<!-- Node2 -->
<g id="node2" class="node"><title>Node2</title>
<polygon fill="white" stroke="#bfbfbf" points="524,-574.5 524,-593.5 650,-593.5 650,-574.5 524,-574.5"/>
<text text-anchor="middle" x="587" y="-581.5" font-family="Helvetica,sans-Serif" font-size="10.00">lib_manager::LibInterface</text>
</g>
<!-- Node2&#45;&gt;Node1 -->
<g id="edge1" class="edge"><title>Node2&#45;&gt;Node1</title>
<path fill="none" stroke="midnightblue" d="M631.63,-571.158C637.872,-568.966 644.154,-566.562 650,-564 689.56,-546.666 732.512,-519.104 754.038,-504.618"/>
<polygon fill="midnightblue" stroke="midnightblue" points="630.289,-567.916 621.924,-574.419 632.518,-574.552 630.289,-567.916"/>
</g>
<!-- Node3 -->
<g id="node3" class="node"><title>Node3</title>
<g id="a_node3"><a xlink:href="../../d0/d0e/classmars_1_1data__broker_1_1_receiver_interface.html" target="_top" xlink:title="Interface for classes that want to receive data from the DataBroker. ">
<polygon fill="white" stroke="black" points="536.5,-525 536.5,-555 637.5,-555 637.5,-525 536.5,-525"/>
<text text-anchor="start" x="544.5" y="-543" font-family="Helvetica,sans-Serif" font-size="10.00">mars::data_broker::</text>
<text text-anchor="middle" x="587" y="-532" font-family="Helvetica,sans-Serif" font-size="10.00">ReceiverInterface</text>
</a>
</g>
</g>
<!-- Node3&#45;&gt;Node1 -->
<g id="edge2" class="edge"><title>Node3&#45;&gt;Node1</title>
<path fill="none" stroke="midnightblue" d="M647.528,-525.118C674.889,-518.278 706.511,-510.372 730.49,-504.377"/>
<polygon fill="midnightblue" stroke="midnightblue" points="646.515,-521.764 637.662,-527.584 648.213,-528.554 646.515,-521.764"/>
</g>
<!-- Node4 -->
<g id="node4" class="node"><title>Node4</title>
<g id="a_node4"><a xlink:href="../../d1/d93/classmars_1_1interfaces_1_1_graphics_manager_interface.html" target="_top" xlink:title="mars::interfaces::Graphics\lManagerInterface">
<polygon fill="white" stroke="black" points="280,-480 280,-510 412,-510 412,-480 280,-480"/>
<text text-anchor="start" x="288" y="-498" font-family="Helvetica,sans-Serif" font-size="10.00">mars::interfaces::Graphics</text>
<text text-anchor="middle" x="346" y="-487" font-family="Helvetica,sans-Serif" font-size="10.00">ManagerInterface</text>
</a>
</g>
</g>
<!-- Node4&#45;&gt;Node1 -->
<g id="edge3" class="edge"><title>Node4&#45;&gt;Node1</title>
<path fill="none" stroke="#9a32cd" stroke-dasharray="5,2" d="M422.53,-495C513.133,-495 661.425,-495 730.456,-495"/>
<polygon fill="#9a32cd" stroke="#9a32cd" points="422.319,-491.5 412.319,-495 422.319,-498.5 422.319,-491.5"/>
<text text-anchor="middle" x="587" y="-498" font-family="Helvetica,sans-Serif" font-size="10.00"> graphics</text>
</g>
<!-- Node7 -->
<g id="node7" class="node"><title>Node7</title>
<g id="a_node7"><a xlink:href="../../d7/d4e/classmars_1_1interfaces_1_1_control_center.html" target="_top" xlink:title="The declaration of the ControlCenter. ">
<polygon fill="white" stroke="black" points="524.5,-260 524.5,-290 649.5,-290 649.5,-260 524.5,-260"/>
<text text-anchor="start" x="532.5" y="-278" font-family="Helvetica,sans-Serif" font-size="10.00">mars::interfaces::Control</text>
<text text-anchor="middle" x="587" y="-267" font-family="Helvetica,sans-Serif" font-size="10.00">Center</text>
</a>
</g>
</g>
<!-- Node4&#45;&gt;Node7 -->
<g id="edge7" class="edge"><title>Node4&#45;&gt;Node7</title>
<path fill="none" stroke="#9a32cd" stroke-dasharray="5,2" d="M406.412,-476.706C445.104,-463.826 491.068,-446.386 506,-432 548.961,-390.613 572.891,-321.183 581.856,-290.445"/>
<polygon fill="#9a32cd" stroke="#9a32cd" points="405.164,-473.432 396.755,-479.878 407.348,-480.083 405.164,-473.432"/>
<text text-anchor="middle" x="474" y="-467" font-family="Helvetica,sans-Serif" font-size="10.00"> graphics</text>
</g>
<!-- Node5 -->
<g id="node5" class="node"><title>Node5</title>
<polygon fill="white" stroke="#bfbfbf" points="47,-289.5 47,-308.5 115,-308.5 115,-289.5 47,-289.5"/>
<text text-anchor="middle" x="81" y="-296.5" font-family="Helvetica,sans-Serif" font-size="10.00">LibInterface</text>
</g>
<!-- Node5&#45;&gt;Node4 -->
<g id="edge4" class="edge"><title>Node5&#45;&gt;Node4</title>
<path fill="none" stroke="midnightblue" d="M96.2842,-316.406C125.226,-350.603 194.325,-426.964 268,-470 274.432,-473.757 281.501,-477.03 288.668,-479.859"/>
<polygon fill="midnightblue" stroke="midnightblue" points="98.9124,-314.093 89.8129,-308.666 93.5422,-318.583 98.9124,-314.093"/>
</g>
<!-- Node11 -->
<g id="node11" class="node"><title>Node11</title>
<g id="a_node11"><a xlink:href="../../d4/da6/classmars_1_1cfg__manager_1_1_c_f_g_manager_interface.html" target="_top" xlink:title="mars::cfg_manager::\lCFGManagerInterface">
<polygon fill="white" stroke="black" points="289.5,-284 289.5,-314 402.5,-314 402.5,-284 289.5,-284"/>
<text text-anchor="start" x="297.5" y="-302" font-family="Helvetica,sans-Serif" font-size="10.00">mars::cfg_manager::</text>
<text text-anchor="middle" x="346" y="-291" font-family="Helvetica,sans-Serif" font-size="10.00">CFGManagerInterface</text>
</a>
</g>
</g>
<!-- Node5&#45;&gt;Node11 -->
<g id="edge12" class="edge"><title>Node5&#45;&gt;Node11</title>
<path fill="none" stroke="midnightblue" d="M125.318,-299C170.178,-299 240.43,-299 289.371,-299"/>
<polygon fill="midnightblue" stroke="midnightblue" points="125.043,-295.5 115.043,-299 125.043,-302.5 125.043,-295.5"/>
</g>
<!-- Node12 -->
<g id="node12" class="node"><title>Node12</title>
<g id="a_node12"><a xlink:href="../../d6/d2e/classmars_1_1data__broker_1_1_data_broker_interface.html" target="_top" xlink:title="The interface every DataBroker should implement. ">
<polygon fill="white" stroke="black" points="294,-235 294,-265 398,-265 398,-235 294,-235"/>
<text text-anchor="start" x="302" y="-253" font-family="Helvetica,sans-Serif" font-size="10.00">mars::data_broker::</text>
<text text-anchor="middle" x="346" y="-242" font-family="Helvetica,sans-Serif" font-size="10.00">DataBrokerInterface</text>
</a>
</g>
</g>
<!-- Node5&#45;&gt;Node12 -->
<g id="edge14" class="edge"><title>Node5&#45;&gt;Node12</title>
<path fill="none" stroke="midnightblue" d="M125.041,-290.981C171.26,-282.37 244.664,-268.694 293.812,-259.537"/>
<polygon fill="midnightblue" stroke="midnightblue" points="124.233,-287.571 115.043,-292.844 125.515,-294.453 124.233,-287.571"/>
</g>
<!-- Node6 -->
<g id="node6" class="node"><title>Node6</title>
<polygon fill="white" stroke="#bfbfbf" points="566.5,-439.5 566.5,-458.5 607.5,-458.5 607.5,-439.5 566.5,-439.5"/>
<text text-anchor="middle" x="587" y="-446.5" font-family="Helvetica,sans-Serif" font-size="10.00">string</text>
</g>
<!-- Node6&#45;&gt;Node1 -->
<g id="edge5" class="edge"><title>Node6&#45;&gt;Node1</title>
<path fill="none" stroke="#9a32cd" stroke-dasharray="5,2" d="M617.796,-451.911C643.22,-454.898 680.548,-460.483 712,-470 725.044,-473.947 739.044,-480.197 749.783,-485.46"/>
<polygon fill="#9a32cd" stroke="#9a32cd" points="618.006,-448.413 607.68,-450.786 617.232,-455.37 618.006,-448.413"/>
<text text-anchor="middle" x="690" y="-473" font-family="Helvetica,sans-Serif" font-size="10.00"> configDir</text>
</g>
<!-- Node7&#45;&gt;Node1 -->
<g id="edge6" class="edge"><title>Node7&#45;&gt;Node1</title>
<path fill="none" stroke="#9a32cd" stroke-dasharray="5,2" d="M606.803,-297.981C645.555,-345.345 732.939,-452.148 759.914,-485.117"/>
<polygon fill="#9a32cd" stroke="#9a32cd" points="609.413,-295.645 600.372,-290.121 603.996,-300.077 609.413,-295.645"/>
<text text-anchor="middle" x="690" y="-427" font-family="Helvetica,sans-Serif" font-size="10.00"> control</text>
</g>
<!-- Node8 -->
<g id="node8" class="node"><title>Node8</title>
<g id="a_node8"><a xlink:href="../../d2/da9/classmars_1_1interfaces_1_1_controller_manager_interface.html" target="_top" xlink:title="&quot;ControllerManagerInterface&quot; declares the interfaces for all controller operations that are used for ...">
<polygon fill="white" stroke="black" points="278.5,-431 278.5,-461 413.5,-461 413.5,-431 278.5,-431"/>
<text text-anchor="start" x="286.5" y="-449" font-family="Helvetica,sans-Serif" font-size="10.00">mars::interfaces::Controller</text>
<text text-anchor="middle" x="346" y="-438" font-family="Helvetica,sans-Serif" font-size="10.00">ManagerInterface</text>
</a>
</g>
</g>
<!-- Node8&#45;&gt;Node7 -->
<g id="edge8" class="edge"><title>Node8&#45;&gt;Node7</title>
<path fill="none" stroke="#9a32cd" stroke-dasharray="5,2" d="M416.228,-427.813C446.087,-417.546 480.038,-402.387 506,-381 538.21,-354.467 564.864,-312.465 577.718,-290.131"/>
<polygon fill="#9a32cd" stroke="#9a32cd" points="415.081,-424.506 406.692,-430.977 417.285,-431.15 415.081,-424.506"/>
<text text-anchor="middle" x="474" y="-420" font-family="Helvetica,sans-Serif" font-size="10.00"> controllers</text>
</g>
<!-- Node9 -->
<g id="node9" class="node"><title>Node9</title>
<g id="a_node9"><a xlink:href="../../d6/d60/classmars_1_1interfaces_1_1_joint_manager_interface.html" target="_top" xlink:title="Interface class for the node organization. ">
<polygon fill="white" stroke="black" points="270,-382 270,-412 422,-412 422,-382 270,-382"/>
<text text-anchor="start" x="278" y="-400" font-family="Helvetica,sans-Serif" font-size="10.00">mars::interfaces::JointManager</text>
<text text-anchor="middle" x="346" y="-389" font-family="Helvetica,sans-Serif" font-size="10.00">Interface</text>
</a>
</g>
</g>
<!-- Node9&#45;&gt;Node7 -->
<g id="edge9" class="edge"><title>Node9&#45;&gt;Node7</title>
<path fill="none" stroke="#9a32cd" stroke-dasharray="5,2" d="M404.762,-378.796C411.277,-376.58 417.798,-374.288 424,-372 461.014,-358.342 471.961,-357.947 506,-338 529.641,-324.146 553.982,-303.973 569.508,-290.212"/>
<polygon fill="#9a32cd" stroke="#9a32cd" points="403.629,-375.484 395.259,-381.979 405.853,-382.121 403.629,-375.484"/>
<text text-anchor="middle" x="474" y="-369" font-family="Helvetica,sans-Serif" font-size="10.00"> joints</text>
</g>
<!-- Node10 -->
<g id="node10" class="node"><title>Node10</title>
<g id="a_node10"><a xlink:href="../../df/d82/classmars_1_1interfaces_1_1_entity_manager_interface.html" target="_top" xlink:title="mars::interfaces::Entity\lManagerInterface">
<polygon fill="white" stroke="black" points="286.5,-333 286.5,-363 405.5,-363 405.5,-333 286.5,-333"/>
<text text-anchor="start" x="294.5" y="-351" font-family="Helvetica,sans-Serif" font-size="10.00">mars::interfaces::Entity</text>
<text text-anchor="middle" x="346" y="-340" font-family="Helvetica,sans-Serif" font-size="10.00">ManagerInterface</text>
</a>
</g>
</g>
<!-- Node10&#45;&gt;Node7 -->
<g id="edge10" class="edge"><title>Node10&#45;&gt;Node7</title>
<path fill="none" stroke="#9a32cd" stroke-dasharray="5,2" d="M415.318,-331.04C443.565,-323.636 476.537,-314.485 506,-305 519.837,-300.545 534.804,-295.105 548.008,-290.086"/>
<polygon fill="#9a32cd" stroke="#9a32cd" points="414.334,-327.679 405.537,-333.584 416.096,-334.454 414.334,-327.679"/>
<text text-anchor="middle" x="474" y="-326" font-family="Helvetica,sans-Serif" font-size="10.00"> entities</text>
</g>
<!-- Node11&#45;&gt;Node7 -->
<g id="edge11" class="edge"><title>Node11&#45;&gt;Node7</title>
<path fill="none" stroke="#9a32cd" stroke-dasharray="5,2" d="M412.803,-292.392C447.618,-288.896 490.109,-284.629 524.291,-281.197"/>
<polygon fill="#9a32cd" stroke="#9a32cd" points="412.333,-288.922 402.733,-293.403 413.033,-295.887 412.333,-288.922"/>
<text text-anchor="middle" x="474" y="-293" font-family="Helvetica,sans-Serif" font-size="10.00"> cfg</text>
</g>
<!-- Node12&#45;&gt;Node7 -->
<g id="edge13" class="edge"><title>Node12&#45;&gt;Node7</title>
<path fill="none" stroke="#9a32cd" stroke-dasharray="5,2" d="M408.223,-250.807C437.854,-251.776 473.884,-253.807 506,-258 511.913,-258.772 518.04,-259.748 524.15,-260.841"/>
<polygon fill="#9a32cd" stroke="#9a32cd" points="408.125,-247.303 398.026,-250.507 407.919,-254.3 408.125,-247.303"/>
<text text-anchor="middle" x="474" y="-272" font-family="Helvetica,sans-Serif" font-size="10.00"> dataBroker</text>
<text text-anchor="middle" x="474" y="-261" font-family="Helvetica,sans-Serif" font-size="10.00">theDataBroker</text>
</g>
<!-- Node13 -->
<g id="node13" class="node"><title>Node13</title>
<g id="a_node13"><a xlink:href="../../db/da9/classmars_1_1interfaces_1_1_sensor_manager_interface.html" target="_top" xlink:title="&quot;SensorManagerInterface&quot; declares the interfaces for all sensor operations that are used for the comm...">
<polygon fill="white" stroke="black" points="284,-186 284,-216 408,-216 408,-186 284,-186"/>
<text text-anchor="start" x="292" y="-204" font-family="Helvetica,sans-Serif" font-size="10.00">mars::interfaces::Sensor</text>
<text text-anchor="middle" x="346" y="-193" font-family="Helvetica,sans-Serif" font-size="10.00">ManagerInterface</text>
</a>
</g>
</g>
<!-- Node13&#45;&gt;Node7 -->
<g id="edge15" class="edge"><title>Node13&#45;&gt;Node7</title>
<path fill="none" stroke="#9a32cd" stroke-dasharray="5,2" d="M418.247,-214.325C445.994,-220.355 477.831,-228.322 506,-238 523.367,-243.966 542.03,-252.469 556.959,-259.819"/>
<polygon fill="#9a32cd" stroke="#9a32cd" points="418.734,-210.85 408.225,-212.191 417.277,-217.696 418.734,-210.85"/>
<text text-anchor="middle" x="474" y="-241" font-family="Helvetica,sans-Serif" font-size="10.00"> sensors</text>
</g>
<!-- Node14 -->
<g id="node14" class="node"><title>Node14</title>
<g id="a_node14"><a xlink:href="../../db/de9/classmars_1_1interfaces_1_1_motor_manager_interface.html" target="_top" xlink:title="&quot;MotorManagerInterface&quot; declares the interfaces for all motor operations that are used for the commun...">
<polygon fill="white" stroke="black" points="268.5,-137 268.5,-167 423.5,-167 423.5,-137 268.5,-137"/>
<text text-anchor="start" x="276.5" y="-155" font-family="Helvetica,sans-Serif" font-size="10.00">mars::interfaces::MotorManager</text>
<text text-anchor="middle" x="346" y="-144" font-family="Helvetica,sans-Serif" font-size="10.00">Interface</text>
</a>
</g>
</g>
<!-- Node14&#45;&gt;Node7 -->
<g id="edge16" class="edge"><title>Node14&#45;&gt;Node7</title>
<path fill="none" stroke="#9a32cd" stroke-dasharray="5,2" d="M420.065,-169.988C448.053,-178.598 479.581,-190.477 506,-206 531.46,-220.959 556.538,-244.394 571.644,-259.726"/>
<polygon fill="#9a32cd" stroke="#9a32cd" points="420.91,-166.587 410.327,-167.077 418.906,-173.294 420.91,-166.587"/>
<text text-anchor="middle" x="474" y="-209" font-family="Helvetica,sans-Serif" font-size="10.00"> motors</text>
</g>
<!-- Node15 -->
<g id="node15" class="node"><title>Node15</title>
<g id="a_node15"><a xlink:href="../../d9/d6a/classmars_1_1interfaces_1_1_load_center.html" target="_top" xlink:title="mars::interfaces::LoadCenter">
<polygon fill="white" stroke="black" points="274.5,-98.5 274.5,-117.5 417.5,-117.5 417.5,-98.5 274.5,-98.5"/>
<text text-anchor="middle" x="346" y="-105.5" font-family="Helvetica,sans-Serif" font-size="10.00">mars::interfaces::LoadCenter</text>
</a>
</g>
</g>
<!-- Node15&#45;&gt;Node7 -->
<g id="edge17" class="edge"><title>Node15&#45;&gt;Node7</title>
<path fill="none" stroke="#9a32cd" stroke-dasharray="5,2" d="M413.376,-120.011C444.07,-128.149 479.506,-141.482 506,-163 540.129,-190.719 566.526,-236.451 578.674,-259.983"/>
<polygon fill="#9a32cd" stroke="#9a32cd" points="414.146,-116.596 403.594,-117.548 412.437,-123.384 414.146,-116.596"/>
<text text-anchor="middle" x="474" y="-166" font-family="Helvetica,sans-Serif" font-size="10.00"> loadCenter</text>
</g>
<!-- Node16 -->
<g id="node16" class="node"><title>Node16</title>
<g id="a_node16"><a xlink:href="../../d1/d51/classmars_1_1interfaces_1_1_load_heightmap_interface.html" target="_top" xlink:title="mars::interfaces::LoadHeightmap\lInterface">
<polygon fill="white" stroke="black" points="0.5,-118 0.5,-148 161.5,-148 161.5,-118 0.5,-118"/>
<text text-anchor="start" x="8.5" y="-136" font-family="Helvetica,sans-Serif" font-size="10.00">mars::interfaces::LoadHeightmap</text>
<text text-anchor="middle" x="81" y="-125" font-family="Helvetica,sans-Serif" font-size="10.00">Interface</text>
</a>
</g>
</g>
<!-- Node16&#45;&gt;Node15 -->
<g id="edge18" class="edge"><title>Node16&#45;&gt;Node15</title>
<path fill="none" stroke="#9a32cd" stroke-dasharray="5,2" d="M171.85,-124.459C205.256,-121.284 242.661,-117.728 274.133,-114.736"/>
<polygon fill="#9a32cd" stroke="#9a32cd" points="171.246,-121.001 161.622,-125.431 171.909,-127.969 171.246,-121.001"/>
<text text-anchor="middle" x="215" y="-127" font-family="Helvetica,sans-Serif" font-size="10.00"> loadHeightmap</text>
</g>
<!-- Node17 -->
<g id="node17" class="node"><title>Node17</title>
<g id="a_node17"><a xlink:href="../../d7/d02/classmars_1_1interfaces_1_1_load_mesh_interface.html" target="_top" xlink:title="mars::interfaces::LoadMesh\lInterface">
<polygon fill="white" stroke="black" points="12,-69 12,-99 150,-99 150,-69 12,-69"/>
<text text-anchor="start" x="20" y="-87" font-family="Helvetica,sans-Serif" font-size="10.00">mars::interfaces::LoadMesh</text>
<text text-anchor="middle" x="81" y="-76" font-family="Helvetica,sans-Serif" font-size="10.00">Interface</text>
</a>
</g>
</g>
<!-- Node17&#45;&gt;Node15 -->
<g id="edge19" class="edge"><title>Node17&#45;&gt;Node15</title>
<path fill="none" stroke="#9a32cd" stroke-dasharray="5,2" d="M160.116,-91.1285C196.387,-94.4383 239.183,-98.3437 274.462,-101.563"/>
<polygon fill="#9a32cd" stroke="#9a32cd" points="160.348,-87.6352 150.071,-90.2118 159.712,-94.6062 160.348,-87.6352"/>
<text text-anchor="middle" x="215" y="-102" font-family="Helvetica,sans-Serif" font-size="10.00"> loadMesh</text>
</g>
<!-- Node18 -->
<g id="node18" class="node"><title>Node18</title>
<g id="a_node18"><a xlink:href="../../d7/d4c/classmars_1_1interfaces_1_1_node_manager_interface.html" target="_top" xlink:title="&quot;NodeManagerInterface&quot; declares the interfaces for all NodeOperations that are used for the communica...">
<polygon fill="white" stroke="black" points="269,-49 269,-79 423,-79 423,-49 269,-49"/>
<text text-anchor="start" x="277" y="-67" font-family="Helvetica,sans-Serif" font-size="10.00">mars::interfaces::NodeManager</text>
<text text-anchor="middle" x="346" y="-56" font-family="Helvetica,sans-Serif" font-size="10.00">Interface</text>
</a>
</g>
</g>
<!-- Node18&#45;&gt;Node7 -->
<g id="edge20" class="edge"><title>Node18&#45;&gt;Node7</title>
<path fill="none" stroke="#9a32cd" stroke-dasharray="5,2" d="M432.959,-78.815C458.649,-86.5441 485.42,-98.2621 506,-116 552.112,-155.744 574.629,-228.476 582.559,-259.89"/>
<polygon fill="#9a32cd" stroke="#9a32cd" points="433.757,-75.4033 423.182,-76.0438 431.848,-82.138 433.757,-75.4033"/>
<text text-anchor="middle" x="474" y="-119" font-family="Helvetica,sans-Serif" font-size="10.00"> nodes</text>
</g>
<!-- Node19 -->
<g id="node19" class="node"><title>Node19</title>
<g id="a_node19"><a xlink:href="../../dc/de5/classmars_1_1interfaces_1_1_simulator_interface.html" target="_top" xlink:title="mars::interfaces::Simulator\lInterface">
<polygon fill="white" stroke="black" points="279,-0 279,-30 413,-30 413,-0 279,-0"/>
<text text-anchor="start" x="287" y="-18" font-family="Helvetica,sans-Serif" font-size="10.00">mars::interfaces::Simulator</text>
<text text-anchor="middle" x="346" y="-7" font-family="Helvetica,sans-Serif" font-size="10.00">Interface</text>
</a>
</g>
</g>
<!-- Node19&#45;&gt;Node7 -->
<g id="edge21" class="edge"><title>Node19&#45;&gt;Node7</title>
<path fill="none" stroke="#9a32cd" stroke-dasharray="5,2" d="M422.84,-25.3639C451.947,-32.7432 483.535,-45.3757 506,-67 563.003,-121.87 579.985,-221.807 584.511,-259.795"/>
<polygon fill="#9a32cd" stroke="#9a32cd" points="423.618,-21.9513 413.081,-23.0573 422.008,-28.7637 423.618,-21.9513"/>
<text text-anchor="middle" x="474" y="-70" font-family="Helvetica,sans-Serif" font-size="10.00"> sim</text>
</g>
</g>
</svg>
