<?xml version="1.0" encoding="UTF-8" standalone="no"?>
<!DOCTYPE svg PUBLIC "-//W3C//DTD SVG 1.1//EN"
 "http://www.w3.org/Graphics/SVG/1.1/DTD/svg11.dtd">
<!-- Generated by graphviz version 2.36.0 (20140111.2315)
 -->
<!-- Title: /media/kavonszadkowski/work/marsdocs/mars/common/gui/data_broker_plotter/src/DataBrokerPlotterLib.cpp Pages: 1 -->
<svg width="1931pt" height="186pt"
 viewBox="0.00 0.00 1931.00 186.00" xmlns="http://www.w3.org/2000/svg" xmlns:xlink="http://www.w3.org/1999/xlink">
<g id="graph0" class="graph" transform="scale(1 1) rotate(0) translate(4 182)">
<title>/media/kavonszadkowski/work/marsdocs/mars/common/gui/data_broker_plotter/src/DataBrokerPlotterLib.cpp</title>
<polygon fill="white" stroke="none" points="-4,4 -4,-182 1927,-182 1927,4 -4,4"/>
<!-- Node1 -->
<g id="node1" class="node"><title>Node1</title>
<polygon fill="#bfbfbf" stroke="black" points="1169,-125 1169,-177 1321,-177 1321,-125 1169,-125"/>
<text text-anchor="start" x="1177" y="-165" font-family="Helvetica,sans-Serif" font-size="10.00">/media/kavonszadkowski</text>
<text text-anchor="start" x="1177" y="-154" font-family="Helvetica,sans-Serif" font-size="10.00">/work/marsdocs/mars/common</text>
<text text-anchor="start" x="1177" y="-143" font-family="Helvetica,sans-Serif" font-size="10.00">/gui/data_broker_plotter</text>
<text text-anchor="middle" x="1245" y="-132" font-family="Helvetica,sans-Serif" font-size="10.00">/src/DataBrokerPlotterLib.cpp</text>
</g>
<!-- Node2 -->
<g id="node2" class="node"><title>Node2</title>
<g id="a_node2"><a xlink:href="../../dd/d85/_data_broker_plotter_8h.html" target="_top" xlink:title="DataBrokerPlotter.h">
<polygon fill="white" stroke="black" points="380.5,-68.5 380.5,-87.5 483.5,-87.5 483.5,-68.5 380.5,-68.5"/>
<text text-anchor="middle" x="432" y="-75.5" font-family="Helvetica,sans-Serif" font-size="10.00">DataBrokerPlotter.h</text>
</a>
</g>
</g>
<!-- Node1&#45;&gt;Node2 -->
<g id="edge1" class="edge"><title>Node1&#45;&gt;Node2</title>
<path fill="none" stroke="midnightblue" d="M1168.88,-143.352C1008.9,-129.381 640.493,-97.2078 493.853,-84.4017"/>
<polygon fill="midnightblue" stroke="midnightblue" points="493.951,-80.897 483.685,-83.5137 493.342,-87.8705 493.951,-80.897"/>
</g>
<!-- Node11 -->
<g id="node11" class="node"><title>Node11</title>
<g id="a_node11"><a xlink:href="../../dd/d72/_data_broker_plotter_lib_8h.html" target="_top" xlink:title="DataBrokerPlotterLib.h">
<polygon fill="white" stroke="black" points="1138,-68.5 1138,-87.5 1254,-87.5 1254,-68.5 1138,-68.5"/>
<text text-anchor="middle" x="1196" y="-75.5" font-family="Helvetica,sans-Serif" font-size="10.00">DataBrokerPlotterLib.h</text>
</a>
</g>
</g>
<!-- Node1&#45;&gt;Node11 -->
<g id="edge10" class="edge"><title>Node1&#45;&gt;Node11</title>
<path fill="none" stroke="midnightblue" d="M1227.59,-124.768C1221.04,-115.284 1213.76,-104.731 1207.84,-96.15"/>
<polygon fill="midnightblue" stroke="midnightblue" points="1210.6,-93.9994 1202.04,-87.7572 1204.84,-97.9755 1210.6,-93.9994"/>
</g>
<!-- Node20 -->
<g id="node20" class="node"><title>Node20</title>
<polygon fill="white" stroke="#bfbfbf" points="1272.5,-68.5 1272.5,-87.5 1315.5,-87.5 1315.5,-68.5 1272.5,-68.5"/>
<text text-anchor="middle" x="1294" y="-75.5" font-family="Helvetica,sans-Serif" font-size="10.00">cstdio</text>
</g>
<!-- Node1&#45;&gt;Node20 -->
<g id="edge22" class="edge"><title>Node1&#45;&gt;Node20</title>
<path fill="none" stroke="midnightblue" d="M1262.41,-124.768C1268.96,-115.284 1276.24,-104.731 1282.16,-96.15"/>
<polygon fill="midnightblue" stroke="midnightblue" points="1285.16,-97.9755 1287.96,-87.7572 1279.4,-93.9994 1285.16,-97.9755"/>
</g>
<!-- Node21 -->
<g id="node21" class="node"><title>Node21</title>
<polygon fill="white" stroke="#bfbfbf" points="1334,-68.5 1334,-87.5 1388,-87.5 1388,-68.5 1334,-68.5"/>
<text text-anchor="middle" x="1361" y="-75.5" font-family="Helvetica,sans-Serif" font-size="10.00">iostream</text>
</g>
<!-- Node1&#45;&gt;Node21 -->
<g id="edge23" class="edge"><title>Node1&#45;&gt;Node21</title>
<path fill="none" stroke="midnightblue" d="M1285.9,-124.968C1303.51,-114.19 1323.43,-101.997 1338.32,-92.879"/>
<polygon fill="midnightblue" stroke="midnightblue" points="1340.18,-95.8446 1346.89,-87.6389 1336.53,-89.8742 1340.18,-95.8446"/>
</g>
<!-- Node3 -->
<g id="node3" class="node"><title>Node3</title>
<polygon fill="white" stroke="#bfbfbf" points="225,-6.5 225,-25.5 303,-25.5 303,-6.5 225,-6.5"/>
<text text-anchor="middle" x="264" y="-13.5" font-family="Helvetica,sans-Serif" font-size="10.00">qcustomplot.h</text>
</g>
<!-- Node2&#45;&gt;Node3 -->
<g id="edge2" class="edge"><title>Node2&#45;&gt;Node3</title>
<path fill="none" stroke="midnightblue" d="M407.93,-68.4035C378.987,-58.0668 330.238,-40.6564 297.598,-28.9994"/>
<polygon fill="midnightblue" stroke="midnightblue" points="298.62,-25.6479 288.026,-25.5806 296.266,-32.2401 298.62,-25.6479"/>
</g>
<!-- Node4 -->
<g id="node4" class="node"><title>Node4</title>
<polygon fill="white" stroke="#bfbfbf" points="321.5,-6.5 321.5,-25.5 376.5,-25.5 376.5,-6.5 321.5,-6.5"/>
<text text-anchor="middle" x="349" y="-13.5" font-family="Helvetica,sans-Serif" font-size="10.00">QPainter</text>
</g>
<!-- Node2&#45;&gt;Node4 -->
<g id="edge3" class="edge"><title>Node2&#45;&gt;Node4</title>
<path fill="none" stroke="midnightblue" d="M420.108,-68.4035C406.795,-58.7797 385,-43.0242 369.043,-31.4891"/>
<polygon fill="midnightblue" stroke="midnightblue" points="371.025,-28.6026 360.87,-25.5806 366.924,-34.2756 371.025,-28.6026"/>
</g>
<!-- Node5 -->
<g id="node5" class="node"><title>Node5</title>
<polygon fill="white" stroke="#bfbfbf" points="394.5,-6.5 394.5,-25.5 469.5,-25.5 469.5,-6.5 394.5,-6.5"/>
<text text-anchor="middle" x="432" y="-13.5" font-family="Helvetica,sans-Serif" font-size="10.00">QCloseEvent</text>
</g>
<!-- Node2&#45;&gt;Node5 -->
<g id="edge4" class="edge"><title>Node2&#45;&gt;Node5</title>
<path fill="none" stroke="midnightblue" d="M432,-68.4035C432,-59.9381 432,-46.7283 432,-35.8199"/>
<polygon fill="midnightblue" stroke="midnightblue" points="435.5,-35.5806 432,-25.5806 428.5,-35.5806 435.5,-35.5806"/>
</g>
<!-- Node6 -->
<g id="node6" class="node"><title>Node6</title>
<polygon fill="white" stroke="#bfbfbf" points="487.5,-6.5 487.5,-25.5 538.5,-25.5 538.5,-6.5 487.5,-6.5"/>
<text text-anchor="middle" x="513" y="-13.5" font-family="Helvetica,sans-Serif" font-size="10.00">QMutex</text>
</g>
<!-- Node2&#45;&gt;Node6 -->
<g id="edge5" class="edge"><title>Node2&#45;&gt;Node6</title>
<path fill="none" stroke="midnightblue" d="M443.605,-68.4035C456.477,-58.8688 477.474,-43.3154 493.006,-31.8106"/>
<polygon fill="midnightblue" stroke="midnightblue" points="495.464,-34.3454 501.416,-25.5806 491.297,-28.7204 495.464,-34.3454"/>
</g>
<!-- Node7 -->
<g id="node7" class="node"><title>Node7</title>
<polygon fill="white" stroke="#bfbfbf" points="557,-1 557,-31 691,-31 691,-1 557,-1"/>
<text text-anchor="start" x="565" y="-19" font-family="Helvetica,sans-Serif" font-size="10.00">mars/data_broker/Receiver</text>
<text text-anchor="middle" x="624" y="-8" font-family="Helvetica,sans-Serif" font-size="10.00">Interface.h</text>
</g>
<!-- Node2&#45;&gt;Node7 -->
<g id="edge6" class="edge"><title>Node2&#45;&gt;Node7</title>
<path fill="none" stroke="midnightblue" d="M459.509,-68.4035C488.038,-59.4882 533.405,-45.311 569.275,-34.1014"/>
<polygon fill="midnightblue" stroke="midnightblue" points="570.618,-37.3488 579.119,-31.0253 568.53,-30.6675 570.618,-37.3488"/>
</g>
<!-- Node8 -->
<g id="node8" class="node"><title>Node8</title>
<polygon fill="white" stroke="#bfbfbf" points="709.5,-1 709.5,-31 854.5,-31 854.5,-1 709.5,-1"/>
<text text-anchor="start" x="717.5" y="-19" font-family="Helvetica,sans-Serif" font-size="10.00">mars/data_broker/DataBroker</text>
<text text-anchor="middle" x="782" y="-8" font-family="Helvetica,sans-Serif" font-size="10.00">Interface.h</text>
</g>
<!-- Node2&#45;&gt;Node8 -->
<g id="edge7" class="edge"><title>Node2&#45;&gt;Node8</title>
<path fill="none" stroke="midnightblue" d="M483.666,-68.554C535.555,-60.0198 618.076,-46.3079 699.243,-32.1188"/>
<polygon fill="midnightblue" stroke="midnightblue" points="699.886,-35.5594 709.132,-30.3863 698.678,-28.6644 699.886,-35.5594"/>
</g>
<!-- Node9 -->
<g id="node9" class="node"><title>Node9</title>
<polygon fill="white" stroke="#bfbfbf" points="-0.5,-6.5 -0.5,-25.5 144.5,-25.5 144.5,-6.5 -0.5,-6.5"/>
<text text-anchor="middle" x="72" y="-13.5" font-family="Helvetica,sans-Serif" font-size="10.00">mars/main_gui/BaseWidget.h</text>
</g>
<!-- Node2&#45;&gt;Node9 -->
<g id="edge8" class="edge"><title>Node2&#45;&gt;Node9</title>
<path fill="none" stroke="midnightblue" d="M380.454,-68.9793C324.605,-60.2135 232.897,-45.6003 154,-32 145.594,-30.551 136.713,-28.9742 128.02,-27.4052"/>
<polygon fill="midnightblue" stroke="midnightblue" points="128.406,-23.9182 117.942,-25.575 127.156,-30.8055 128.406,-23.9182"/>
</g>
<!-- Node10 -->
<g id="node10" class="node"><title>Node10</title>
<polygon fill="white" stroke="#bfbfbf" points="163,-6.5 163,-25.5 207,-25.5 207,-6.5 163,-6.5"/>
<text text-anchor="middle" x="185" y="-13.5" font-family="Helvetica,sans-Serif" font-size="10.00">vector</text>
</g>
<!-- Node2&#45;&gt;Node10 -->
<g id="edge9" class="edge"><title>Node2&#45;&gt;Node10</title>
<path fill="none" stroke="midnightblue" d="M380.431,-69.904C336.067,-62.9427 270.757,-50.635 216,-32 214.09,-31.3499 212.144,-30.6105 210.206,-29.8166"/>
<polygon fill="midnightblue" stroke="midnightblue" points="211.328,-26.4828 200.774,-25.5549 208.446,-32.8619 211.328,-26.4828"/>
</g>
<!-- Node11&#45;&gt;Node6 -->
<g id="edge20" class="edge"><title>Node11&#45;&gt;Node6</title>
<path fill="none" stroke="midnightblue" d="M1137.98,-75.4546C1000.69,-71.3979 659.123,-58.8538 548,-32 545.108,-31.3012 542.152,-30.3846 539.243,-29.3483"/>
<polygon fill="midnightblue" stroke="midnightblue" points="540.28,-25.9932 529.697,-25.5069 537.667,-32.4871 540.28,-25.9932"/>
</g>
<!-- Node11&#45;&gt;Node7 -->
<g id="edge14" class="edge"><title>Node11&#45;&gt;Node7</title>
<path fill="none" stroke="midnightblue" d="M1137.74,-73.6917C1046.72,-68.0889 865.123,-55.1657 701.335,-32.0947"/>
<polygon fill="midnightblue" stroke="midnightblue" points="701.465,-28.578 691.072,-30.6322 700.478,-35.508 701.465,-28.578"/>
</g>
<!-- Node11&#45;&gt;Node8 -->
<g id="edge15" class="edge"><title>Node11&#45;&gt;Node8</title>
<path fill="none" stroke="midnightblue" d="M1137.82,-70.0114C1073.41,-62.0772 966.24,-48.299 864.928,-32.2689"/>
<polygon fill="midnightblue" stroke="midnightblue" points="865.255,-28.7768 854.829,-30.6601 864.154,-35.6897 865.255,-28.7768"/>
</g>
<!-- Node12 -->
<g id="node12" class="node"><title>Node12</title>
<polygon fill="white" stroke="#bfbfbf" points="872.5,-6.5 872.5,-25.5 1017.5,-25.5 1017.5,-6.5 872.5,-6.5"/>
<text text-anchor="middle" x="945" y="-13.5" font-family="Helvetica,sans-Serif" font-size="10.00">mars/main_gui/GuiInterface.h</text>
</g>
<!-- Node11&#45;&gt;Node12 -->
<g id="edge11" class="edge"><title>Node11&#45;&gt;Node12</title>
<path fill="none" stroke="midnightblue" d="M1160.3,-68.4672C1115.7,-57.8048 1039.31,-39.5452 990.54,-27.886"/>
<polygon fill="midnightblue" stroke="midnightblue" points="991.112,-24.4243 980.572,-25.5034 989.485,-31.2325 991.112,-24.4243"/>
</g>
<!-- Node13 -->
<g id="node13" class="node"><title>Node13</title>
<polygon fill="white" stroke="#bfbfbf" points="1036,-6.5 1036,-25.5 1190,-25.5 1190,-6.5 1036,-6.5"/>
<text text-anchor="middle" x="1113" y="-13.5" font-family="Helvetica,sans-Serif" font-size="10.00">mars/main_gui/MenuInterface.h</text>
</g>
<!-- Node11&#45;&gt;Node13 -->
<g id="edge12" class="edge"><title>Node11&#45;&gt;Node13</title>
<path fill="none" stroke="midnightblue" d="M1184.11,-68.4035C1170.8,-58.7797 1149,-43.0242 1133.04,-31.4891"/>
<polygon fill="midnightblue" stroke="midnightblue" points="1135.02,-28.6026 1124.87,-25.5806 1130.92,-34.2756 1135.02,-28.6026"/>
</g>
<!-- Node14 -->
<g id="node14" class="node"><title>Node14</title>
<polygon fill="white" stroke="#bfbfbf" points="1208,-6.5 1208,-25.5 1350,-25.5 1350,-6.5 1208,-6.5"/>
<text text-anchor="middle" x="1279" y="-13.5" font-family="Helvetica,sans-Serif" font-size="10.00">lib_manager/LibInterface.hpp</text>
</g>
<!-- Node11&#45;&gt;Node14 -->
<g id="edge13" class="edge"><title>Node11&#45;&gt;Node14</title>
<path fill="none" stroke="midnightblue" d="M1207.89,-68.4035C1221.2,-58.7797 1243,-43.0242 1258.96,-31.4891"/>
<polygon fill="midnightblue" stroke="midnightblue" points="1261.08,-34.2756 1267.13,-25.5806 1256.98,-28.6026 1261.08,-34.2756"/>
</g>
<!-- Node15 -->
<g id="node15" class="node"><title>Node15</title>
<polygon fill="white" stroke="#bfbfbf" points="1368.5,-1 1368.5,-31 1527.5,-31 1527.5,-1 1368.5,-1"/>
<text text-anchor="start" x="1376.5" y="-19" font-family="Helvetica,sans-Serif" font-size="10.00">mars/cfg_manager/CFGManager</text>
<text text-anchor="middle" x="1448" y="-8" font-family="Helvetica,sans-Serif" font-size="10.00">Interface.h</text>
</g>
<!-- Node11&#45;&gt;Node15 -->
<g id="edge16" class="edge"><title>Node11&#45;&gt;Node15</title>
<path fill="none" stroke="midnightblue" d="M1231.84,-68.4672C1270.02,-59.3755 1331.41,-44.7599 1379.02,-33.4228"/>
<polygon fill="midnightblue" stroke="midnightblue" points="1380.05,-36.7776 1388.96,-31.0565 1378.42,-29.968 1380.05,-36.7776"/>
</g>
<!-- Node16 -->
<g id="node16" class="node"><title>Node16</title>
<polygon fill="white" stroke="#bfbfbf" points="1545.5,-6.5 1545.5,-25.5 1700.5,-25.5 1700.5,-6.5 1545.5,-6.5"/>
<text text-anchor="middle" x="1623" y="-13.5" font-family="Helvetica,sans-Serif" font-size="10.00">mars/cfg_manager/CFGClient.h</text>
</g>
<!-- Node11&#45;&gt;Node16 -->
<g id="edge17" class="edge"><title>Node11&#45;&gt;Node16</title>
<path fill="none" stroke="midnightblue" d="M1254.27,-69.2918C1351.2,-56.4677 1535.13,-32.132 1536,-32 1545.56,-30.5439 1555.69,-28.8946 1565.53,-27.2357"/>
<polygon fill="midnightblue" stroke="midnightblue" points="1566.37,-30.6423 1575.64,-25.5111 1565.2,-23.7419 1566.37,-30.6423"/>
</g>
<!-- Node17 -->
<g id="node17" class="node"><title>Node17</title>
<polygon fill="white" stroke="#bfbfbf" points="1718.5,-6.5 1718.5,-25.5 1759.5,-25.5 1759.5,-6.5 1718.5,-6.5"/>
<text text-anchor="middle" x="1739" y="-13.5" font-family="Helvetica,sans-Serif" font-size="10.00">string</text>
</g>
<!-- Node11&#45;&gt;Node17 -->
<g id="edge18" class="edge"><title>Node11&#45;&gt;Node17</title>
<path fill="none" stroke="midnightblue" d="M1254.22,-69.097C1257.52,-68.7096 1260.8,-68.3407 1264,-68 1461.31,-46.9757 1517.88,-85.3437 1709,-32 1710.98,-31.4482 1712.98,-30.7639 1714.96,-29.9942"/>
<polygon fill="midnightblue" stroke="midnightblue" points="1716.85,-32.9803 1724.5,-25.6502 1713.95,-26.6099 1716.85,-32.9803"/>
</g>
<!-- Node18 -->
<g id="node18" class="node"><title>Node18</title>
<polygon fill="white" stroke="#bfbfbf" points="1777.5,-6.5 1777.5,-25.5 1830.5,-25.5 1830.5,-6.5 1777.5,-6.5"/>
<text text-anchor="middle" x="1804" y="-13.5" font-family="Helvetica,sans-Serif" font-size="10.00">QObject</text>
</g>
<!-- Node11&#45;&gt;Node18 -->
<g id="edge19" class="edge"><title>Node11&#45;&gt;Node18</title>
<path fill="none" stroke="midnightblue" d="M1254.21,-69.0609C1257.52,-68.6827 1260.8,-68.3256 1264,-68 1487.42,-45.2569 1549.5,-83.8636 1768,-32 1771,-31.288 1774.07,-30.3548 1777.09,-29.3016"/>
<polygon fill="midnightblue" stroke="midnightblue" points="1778.4,-32.5508 1786.44,-25.6522 1775.85,-26.0306 1778.4,-32.5508"/>
</g>
<!-- Node19 -->
<g id="node19" class="node"><title>Node19</title>
<polygon fill="white" stroke="#bfbfbf" points="1849,-6.5 1849,-25.5 1923,-25.5 1923,-6.5 1849,-6.5"/>
<text text-anchor="middle" x="1886" y="-13.5" font-family="Helvetica,sans-Serif" font-size="10.00">QTimerEvent</text>
</g>
<!-- Node11&#45;&gt;Node19 -->
<g id="edge21" class="edge"><title>Node11&#45;&gt;Node19</title>
<path fill="none" stroke="midnightblue" d="M1254.21,-69.0272C1257.52,-68.6575 1260.8,-68.3116 1264,-68 1518.85,-43.1868 1587.35,-79.284 1839,-32 1843.57,-31.1405 1848.32,-29.9699 1852.97,-28.6591"/>
<polygon fill="midnightblue" stroke="midnightblue" points="1854.32,-31.9049 1862.86,-25.6319 1852.28,-25.2113 1854.32,-31.9049"/>
</g>
</g>
</svg>
