<?xml version="1.0" encoding="UTF-8" standalone="no"?>
<!DOCTYPE svg PUBLIC "-//W3C//DTD SVG 1.1//EN"
 "http://www.w3.org/Graphics/SVG/1.1/DTD/svg11.dtd">
<!-- Generated by graphviz version 2.36.0 (20140111.2315)
 -->
<!-- Title: mars::gui::MarsGui Pages: 1 -->
<svg width="926pt" height="796pt"
 viewBox="0.00 0.00 926.00 796.00" xmlns="http://www.w3.org/2000/svg" xmlns:xlink="http://www.w3.org/1999/xlink">
<g id="graph0" class="graph" transform="scale(1 1) rotate(0) translate(4 792)">
<title>mars::gui::MarsGui</title>
<polygon fill="white" stroke="none" points="-4,4 -4,-792 922,-792 922,4 -4,4"/>
<!-- Node1 -->
<g id="node1" class="node"><title>Node1</title>
<polygon fill="#bfbfbf" stroke="black" points="818,-596.5 818,-615.5 918,-615.5 918,-596.5 818,-596.5"/>
<text text-anchor="middle" x="868" y="-603.5" font-family="Helvetica,sans-Serif" font-size="10.00">mars::gui::MarsGui</text>
</g>
<!-- Node2 -->
<g id="node2" class="node"><title>Node2</title>
<g id="a_node2"><a xlink:href="../../d5/d1a/classmars_1_1interfaces_1_1_mars_gui_interface.html" target="_top" xlink:title="Sets up the main gui of the simulation and handles various generic gui options. ">
<polygon fill="white" stroke="black" points="449,-549 449,-579 579,-579 579,-549 449,-549"/>
<text text-anchor="start" x="457" y="-567" font-family="Helvetica,sans-Serif" font-size="10.00">mars::interfaces::MarsGui</text>
<text text-anchor="middle" x="514" y="-556" font-family="Helvetica,sans-Serif" font-size="10.00">Interface</text>
</a>
</g>
</g>
<!-- Node2&#45;&gt;Node1 -->
<g id="edge1" class="edge"><title>Node2&#45;&gt;Node1</title>
<path fill="none" stroke="midnightblue" d="M589.486,-572.888C658.258,-581.093 758.452,-593.048 817.754,-600.124"/>
<polygon fill="midnightblue" stroke="midnightblue" points="589.497,-569.364 579.153,-571.655 588.668,-576.315 589.497,-569.364"/>
</g>
<!-- Node3 -->
<g id="node3" class="node"><title>Node3</title>
<polygon fill="white" stroke="#bfbfbf" points="47,-514.5 47,-533.5 115,-533.5 115,-514.5 47,-514.5"/>
<text text-anchor="middle" x="81" y="-521.5" font-family="Helvetica,sans-Serif" font-size="10.00">LibInterface</text>
</g>
<!-- Node3&#45;&gt;Node2 -->
<g id="edge2" class="edge"><title>Node3&#45;&gt;Node2</title>
<path fill="none" stroke="midnightblue" d="M125.299,-530.459C142.333,-532.928 162.071,-535.701 180,-538 219.043,-543.006 228.794,-544.494 268,-548 329.349,-553.486 399.499,-557.876 448.969,-560.66"/>
<polygon fill="midnightblue" stroke="midnightblue" points="125.483,-526.949 115.082,-528.967 124.472,-533.875 125.483,-526.949"/>
</g>
<!-- Node8 -->
<g id="node8" class="node"><title>Node8</title>
<g id="a_node8"><a xlink:href="../../d1/d93/classmars_1_1interfaces_1_1_graphics_manager_interface.html" target="_top" xlink:title="mars::interfaces::Graphics\lManagerInterface">
<polygon fill="white" stroke="black" points="280,-215 280,-245 412,-245 412,-215 280,-215"/>
<text text-anchor="start" x="288" y="-233" font-family="Helvetica,sans-Serif" font-size="10.00">mars::interfaces::Graphics</text>
<text text-anchor="middle" x="346" y="-222" font-family="Helvetica,sans-Serif" font-size="10.00">ManagerInterface</text>
</a>
</g>
</g>
<!-- Node3&#45;&gt;Node8 -->
<g id="edge8" class="edge"><title>Node3&#45;&gt;Node8</title>
<path fill="none" stroke="midnightblue" d="M94.0798,-505.774C133.369,-446.586 255.709,-263.054 268,-254 272.622,-250.595 277.739,-247.665 283.074,-245.146"/>
<polygon fill="midnightblue" stroke="midnightblue" points="90.9349,-504.183 88.3235,-514.451 96.7681,-508.053 90.9349,-504.183"/>
</g>
<!-- Node12 -->
<g id="node12" class="node"><title>Node12</title>
<g id="a_node12"><a xlink:href="../../d4/da6/classmars_1_1cfg__manager_1_1_c_f_g_manager_interface.html" target="_top" xlink:title="mars::cfg_manager::\lCFGManagerInterface">
<polygon fill="white" stroke="black" points="289.5,-166 289.5,-196 402.5,-196 402.5,-166 289.5,-166"/>
<text text-anchor="start" x="297.5" y="-184" font-family="Helvetica,sans-Serif" font-size="10.00">mars::cfg_manager::</text>
<text text-anchor="middle" x="346" y="-173" font-family="Helvetica,sans-Serif" font-size="10.00">CFGManagerInterface</text>
</a>
</g>
</g>
<!-- Node3&#45;&gt;Node12 -->
<g id="edge13" class="edge"><title>Node3&#45;&gt;Node12</title>
<path fill="none" stroke="midnightblue" d="M86.3127,-504.262C96.6398,-460.273 126.03,-352.224 180,-278 209.885,-236.9 223.339,-229.243 268,-205 274.645,-201.393 281.913,-198.239 289.245,-195.509"/>
<polygon fill="midnightblue" stroke="midnightblue" points="82.8508,-503.702 84.0455,-514.229 89.6764,-505.255 82.8508,-503.702"/>
</g>
<!-- Node13 -->
<g id="node13" class="node"><title>Node13</title>
<g id="a_node13"><a xlink:href="../../d6/d2e/classmars_1_1data__broker_1_1_data_broker_interface.html" target="_top" xlink:title="The interface every DataBroker should implement. ">
<polygon fill="white" stroke="black" points="294,-509 294,-539 398,-539 398,-509 294,-509"/>
<text text-anchor="start" x="302" y="-527" font-family="Helvetica,sans-Serif" font-size="10.00">mars::data_broker::</text>
<text text-anchor="middle" x="346" y="-516" font-family="Helvetica,sans-Serif" font-size="10.00">DataBrokerInterface</text>
</a>
</g>
</g>
<!-- Node3&#45;&gt;Node13 -->
<g id="edge15" class="edge"><title>Node3&#45;&gt;Node13</title>
<path fill="none" stroke="midnightblue" d="M125.333,-524C171.569,-524 244.768,-524 293.812,-524"/>
<polygon fill="midnightblue" stroke="midnightblue" points="125.043,-520.5 115.043,-524 125.043,-527.5 125.043,-520.5"/>
</g>
<!-- Node21 -->
<g id="node21" class="node"><title>Node21</title>
<g id="a_node21"><a xlink:href="../../d7/df2/classmars_1_1main__gui_1_1_gui_interface.html" target="_top" xlink:title="The abstract GuiInterface class provides the menu and docking functionality of the GUI...">
<polygon fill="white" stroke="black" points="442.5,-596.5 442.5,-615.5 585.5,-615.5 585.5,-596.5 442.5,-596.5"/>
<text text-anchor="middle" x="514" y="-603.5" font-family="Helvetica,sans-Serif" font-size="10.00">mars::main_gui::GuiInterface</text>
</a>
</g>
</g>
<!-- Node3&#45;&gt;Node21 -->
<g id="edge24" class="edge"><title>Node3&#45;&gt;Node21</title>
<path fill="none" stroke="midnightblue" d="M115.757,-537.032C134.453,-543.825 158.247,-551.781 180,-557 269.354,-578.436 374.58,-592.026 442.465,-599.321"/>
<polygon fill="midnightblue" stroke="midnightblue" points="116.806,-533.688 106.213,-533.505 114.38,-540.254 116.806,-533.688"/>
</g>
<!-- Node4 -->
<g id="node4" class="node"><title>Node4</title>
<g id="a_node4"><a xlink:href="../../d4/d1a/classmars_1_1cfg__manager_1_1_c_f_g_client.html" target="_top" xlink:title="mars::cfg_manager::\lCFGClient">
<polygon fill="white" stroke="black" points="613.5,-636 613.5,-666 720.5,-666 720.5,-636 613.5,-636"/>
<text text-anchor="start" x="621.5" y="-654" font-family="Helvetica,sans-Serif" font-size="10.00">mars::cfg_manager::</text>
<text text-anchor="middle" x="667" y="-643" font-family="Helvetica,sans-Serif" font-size="10.00">CFGClient</text>
</a>
</g>
</g>
<!-- Node4&#45;&gt;Node1 -->
<g id="edge3" class="edge"><title>Node4&#45;&gt;Node1</title>
<path fill="none" stroke="midnightblue" d="M730.324,-636.907C761.097,-629.948 797.412,-621.736 824.872,-615.526"/>
<polygon fill="midnightblue" stroke="midnightblue" points="729.527,-633.498 720.545,-639.118 731.071,-640.326 729.527,-633.498"/>
</g>
<!-- Node5 -->
<g id="node5" class="node"><title>Node5</title>
<g id="a_node5"><a xlink:href="../../dc/dc3/structmars_1_1cfg__manager_1_1cfg_property_struct.html" target="_top" xlink:title="mars::cfg_manager::\lcfgPropertyStruct">
<polygon fill="white" stroke="black" points="613.5,-685 613.5,-715 720.5,-715 720.5,-685 613.5,-685"/>
<text text-anchor="start" x="621.5" y="-703" font-family="Helvetica,sans-Serif" font-size="10.00">mars::cfg_manager::</text>
<text text-anchor="middle" x="667" y="-692" font-family="Helvetica,sans-Serif" font-size="10.00">cfgPropertyStruct</text>
</a>
</g>
</g>
<!-- Node5&#45;&gt;Node1 -->
<g id="edge4" class="edge"><title>Node5&#45;&gt;Node1</title>
<path fill="none" stroke="#9a32cd" stroke-dasharray="5,2" d="M716.125,-680.911C720.828,-678.95 725.517,-676.959 730,-675 761.518,-661.23 769.285,-657.479 800,-642 817.098,-633.383 836.322,-622.978 849.778,-615.575"/>
<polygon fill="#9a32cd" stroke="#9a32cd" points="714.422,-677.827 706.508,-684.871 717.088,-684.3 714.422,-677.827"/>
<text text-anchor="middle" x="774" y="-780" font-family="Helvetica,sans-Serif" font-size="10.00"> dockArea</text>
<text text-anchor="middle" x="774" y="-769" font-family="Helvetica,sans-Serif" font-size="10.00">configPath</text>
<text text-anchor="middle" x="774" y="-758" font-family="Helvetica,sans-Serif" font-size="10.00">dockLeft</text>
<text text-anchor="middle" x="774" y="-747" font-family="Helvetica,sans-Serif" font-size="10.00">cfgW_width</text>
<text text-anchor="middle" x="774" y="-736" font-family="Helvetica,sans-Serif" font-size="10.00">cfgW_top</text>
<text text-anchor="middle" x="774" y="-725" font-family="Helvetica,sans-Serif" font-size="10.00">cfgW_left</text>
<text text-anchor="middle" x="774" y="-714" font-family="Helvetica,sans-Serif" font-size="10.00">dockWidth</text>
<text text-anchor="middle" x="774" y="-703" font-family="Helvetica,sans-Serif" font-size="10.00">dockFloat</text>
<text text-anchor="middle" x="774" y="-692" font-family="Helvetica,sans-Serif" font-size="10.00">marsStyle</text>
<text text-anchor="middle" x="774" y="-681" font-family="Helvetica,sans-Serif" font-size="10.00">dockTop</text>
<text text-anchor="middle" x="774" y="-670" font-family="Helvetica,sans-Serif" font-size="10.00">...</text>
</g>
<!-- Node6 -->
<g id="node6" class="node"><title>Node6</title>
<polygon fill="white" stroke="#bfbfbf" points="325.5,-690.5 325.5,-709.5 366.5,-709.5 366.5,-690.5 325.5,-690.5"/>
<text text-anchor="middle" x="346" y="-697.5" font-family="Helvetica,sans-Serif" font-size="10.00">string</text>
</g>
<!-- Node6&#45;&gt;Node5 -->
<g id="edge5" class="edge"><title>Node6&#45;&gt;Node5</title>
<path fill="none" stroke="#9a32cd" stroke-dasharray="5,2" d="M377.285,-700C431.586,-700 546.114,-700 613.459,-700"/>
<polygon fill="#9a32cd" stroke="#9a32cd" points="376.955,-696.5 366.955,-700 376.955,-703.5 376.955,-696.5"/>
<text text-anchor="middle" x="514" y="-703" font-family="Helvetica,sans-Serif" font-size="10.00"> sValue</text>
</g>
<!-- Node7 -->
<g id="node7" class="node"><title>Node7</title>
<g id="a_node7"><a xlink:href="../../d7/d4e/classmars_1_1interfaces_1_1_control_center.html" target="_top" xlink:title="The declaration of the ControlCenter. ">
<polygon fill="white" stroke="black" points="604.5,-288 604.5,-318 729.5,-318 729.5,-288 604.5,-288"/>
<text text-anchor="start" x="612.5" y="-306" font-family="Helvetica,sans-Serif" font-size="10.00">mars::interfaces::Control</text>
<text text-anchor="middle" x="667" y="-295" font-family="Helvetica,sans-Serif" font-size="10.00">Center</text>
</a>
</g>
</g>
<!-- Node7&#45;&gt;Node1 -->
<g id="edge6" class="edge"><title>Node7&#45;&gt;Node1</title>
<path fill="none" stroke="#9a32cd" stroke-dasharray="5,2" d="M683.605,-326.76C724.478,-388.995 833.388,-554.822 860.713,-596.428"/>
<polygon fill="#9a32cd" stroke="#9a32cd" points="686.284,-324.463 677.868,-318.026 680.433,-328.306 686.284,-324.463"/>
<text text-anchor="middle" x="774" y="-503" font-family="Helvetica,sans-Serif" font-size="10.00"> control</text>
</g>
<!-- Node8&#45;&gt;Node7 -->
<g id="edge7" class="edge"><title>Node8&#45;&gt;Node7</title>
<path fill="none" stroke="#9a32cd" stroke-dasharray="5,2" d="M421.955,-238.136C469.542,-244.379 532.094,-254.585 586,-270 602.323,-274.668 619.823,-281.645 634.281,-287.982"/>
<polygon fill="#9a32cd" stroke="#9a32cd" points="422.4,-234.665 412.036,-236.864 421.509,-241.608 422.4,-234.665"/>
<text text-anchor="middle" x="514" y="-273" font-family="Helvetica,sans-Serif" font-size="10.00"> graphics</text>
</g>
<!-- Node9 -->
<g id="node9" class="node"><title>Node9</title>
<g id="a_node9"><a xlink:href="../../d2/da9/classmars_1_1interfaces_1_1_controller_manager_interface.html" target="_top" xlink:title="&quot;ControllerManagerInterface&quot; declares the interfaces for all controller operations that are used for ...">
<polygon fill="white" stroke="black" points="278.5,-362 278.5,-392 413.5,-392 413.5,-362 278.5,-362"/>
<text text-anchor="start" x="286.5" y="-380" font-family="Helvetica,sans-Serif" font-size="10.00">mars::interfaces::Controller</text>
<text text-anchor="middle" x="346" y="-369" font-family="Helvetica,sans-Serif" font-size="10.00">ManagerInterface</text>
</a>
</g>
</g>
<!-- Node9&#45;&gt;Node7 -->
<g id="edge9" class="edge"><title>Node9&#45;&gt;Node7</title>
<path fill="none" stroke="#9a32cd" stroke-dasharray="5,2" d="M423.691,-367.634C471.022,-360.845 532.678,-350.173 586,-335 601.683,-330.537 618.514,-324.074 632.672,-318.122"/>
<polygon fill="#9a32cd" stroke="#9a32cd" points="422.927,-364.207 413.512,-369.066 423.902,-371.139 422.927,-364.207"/>
<text text-anchor="middle" x="514" y="-368" font-family="Helvetica,sans-Serif" font-size="10.00"> controllers</text>
</g>
<!-- Node10 -->
<g id="node10" class="node"><title>Node10</title>
<g id="a_node10"><a xlink:href="../../d6/d60/classmars_1_1interfaces_1_1_joint_manager_interface.html" target="_top" xlink:title="Interface class for the node organization. ">
<polygon fill="white" stroke="black" points="270,-313 270,-343 422,-343 422,-313 270,-313"/>
<text text-anchor="start" x="278" y="-331" font-family="Helvetica,sans-Serif" font-size="10.00">mars::interfaces::JointManager</text>
<text text-anchor="middle" x="346" y="-320" font-family="Helvetica,sans-Serif" font-size="10.00">Interface</text>
</a>
</g>
</g>
<!-- Node10&#45;&gt;Node7 -->
<g id="edge10" class="edge"><title>Node10&#45;&gt;Node7</title>
<path fill="none" stroke="#9a32cd" stroke-dasharray="5,2" d="M432.483,-321.301C486.69,-317.052 555.552,-311.656 604.416,-307.826"/>
<polygon fill="#9a32cd" stroke="#9a32cd" points="431.891,-317.836 422.195,-322.107 432.438,-324.815 431.891,-317.836"/>
<text text-anchor="middle" x="514" y="-323" font-family="Helvetica,sans-Serif" font-size="10.00"> joints</text>
</g>
<!-- Node11 -->
<g id="node11" class="node"><title>Node11</title>
<g id="a_node11"><a xlink:href="../../df/d82/classmars_1_1interfaces_1_1_entity_manager_interface.html" target="_top" xlink:title="mars::interfaces::Entity\lManagerInterface">
<polygon fill="white" stroke="black" points="286.5,-264 286.5,-294 405.5,-294 405.5,-264 286.5,-264"/>
<text text-anchor="start" x="294.5" y="-282" font-family="Helvetica,sans-Serif" font-size="10.00">mars::interfaces::Entity</text>
<text text-anchor="middle" x="346" y="-271" font-family="Helvetica,sans-Serif" font-size="10.00">ManagerInterface</text>
</a>
</g>
</g>
<!-- Node11&#45;&gt;Node7 -->
<g id="edge11" class="edge"><title>Node11&#45;&gt;Node7</title>
<path fill="none" stroke="#9a32cd" stroke-dasharray="5,2" d="M416.194,-283.03C463.938,-285.958 528.859,-290.232 586,-295 591.981,-295.499 598.21,-296.056 604.435,-296.638"/>
<polygon fill="#9a32cd" stroke="#9a32cd" points="416.166,-279.522 405.972,-282.407 415.74,-286.509 416.166,-279.522"/>
<text text-anchor="middle" x="514" y="-298" font-family="Helvetica,sans-Serif" font-size="10.00"> entities</text>
</g>
<!-- Node12&#45;&gt;Node7 -->
<g id="edge12" class="edge"><title>Node12&#45;&gt;Node7</title>
<path fill="none" stroke="#9a32cd" stroke-dasharray="5,2" d="M412.576,-183.683C462.513,-188.015 531.685,-199.07 586,-227 614.792,-241.805 640.434,-270.184 654.537,-287.763"/>
<polygon fill="#9a32cd" stroke="#9a32cd" points="412.787,-180.189 402.54,-182.88 412.229,-187.167 412.787,-180.189"/>
<text text-anchor="middle" x="514" y="-230" font-family="Helvetica,sans-Serif" font-size="10.00"> cfg</text>
</g>
<!-- Node13&#45;&gt;Node7 -->
<g id="edge14" class="edge"><title>Node13&#45;&gt;Node7</title>
<path fill="none" stroke="#9a32cd" stroke-dasharray="5,2" d="M408.461,-519.208C474.555,-513.556 572.095,-503.584 586,-493 643.954,-448.885 660.322,-354.845 664.598,-318.129"/>
<polygon fill="#9a32cd" stroke="#9a32cd" points="407.811,-515.75 398.14,-520.077 408.399,-522.725 407.811,-515.75"/>
<text text-anchor="middle" x="514" y="-530" font-family="Helvetica,sans-Serif" font-size="10.00"> dataBroker</text>
<text text-anchor="middle" x="514" y="-519" font-family="Helvetica,sans-Serif" font-size="10.00">theDataBroker</text>
</g>
<!-- Node14 -->
<g id="node14" class="node"><title>Node14</title>
<g id="a_node14"><a xlink:href="../../db/da9/classmars_1_1interfaces_1_1_sensor_manager_interface.html" target="_top" xlink:title="&quot;SensorManagerInterface&quot; declares the interfaces for all sensor operations that are used for the comm...">
<polygon fill="white" stroke="black" points="284,-117 284,-147 408,-147 408,-117 284,-117"/>
<text text-anchor="start" x="292" y="-135" font-family="Helvetica,sans-Serif" font-size="10.00">mars::interfaces::Sensor</text>
<text text-anchor="middle" x="346" y="-124" font-family="Helvetica,sans-Serif" font-size="10.00">ManagerInterface</text>
</a>
</g>
</g>
<!-- Node14&#45;&gt;Node7 -->
<g id="edge16" class="edge"><title>Node14&#45;&gt;Node7</title>
<path fill="none" stroke="#9a32cd" stroke-dasharray="5,2" d="M418.313,-128.853C469.081,-129.996 536.755,-138.728 586,-172 628.396,-200.644 652.198,-260.01 661.449,-287.902"/>
<polygon fill="#9a32cd" stroke="#9a32cd" points="418.117,-125.35 408.072,-128.719 418.026,-132.349 418.117,-125.35"/>
<text text-anchor="middle" x="514" y="-175" font-family="Helvetica,sans-Serif" font-size="10.00"> sensors</text>
</g>
<!-- Node15 -->
<g id="node15" class="node"><title>Node15</title>
<g id="a_node15"><a xlink:href="../../db/de9/classmars_1_1interfaces_1_1_motor_manager_interface.html" target="_top" xlink:title="&quot;MotorManagerInterface&quot; declares the interfaces for all motor operations that are used for the commun...">
<polygon fill="white" stroke="black" points="268.5,-68 268.5,-98 423.5,-98 423.5,-68 268.5,-68"/>
<text text-anchor="start" x="276.5" y="-86" font-family="Helvetica,sans-Serif" font-size="10.00">mars::interfaces::MotorManager</text>
<text text-anchor="middle" x="346" y="-75" font-family="Helvetica,sans-Serif" font-size="10.00">Interface</text>
</a>
</g>
</g>
<!-- Node15&#45;&gt;Node7 -->
<g id="edge17" class="edge"><title>Node15&#45;&gt;Node7</title>
<path fill="none" stroke="#9a32cd" stroke-dasharray="5,2" d="M433.533,-75.1033C482.815,-75.1116 543.089,-83.2513 586,-116 642.983,-159.488 659.899,-251.592 664.46,-287.865"/>
<polygon fill="#9a32cd" stroke="#9a32cd" points="433.475,-71.6036 423.513,-75.212 433.55,-78.6032 433.475,-71.6036"/>
<text text-anchor="middle" x="514" y="-119" font-family="Helvetica,sans-Serif" font-size="10.00"> motors</text>
</g>
<!-- Node16 -->
<g id="node16" class="node"><title>Node16</title>
<g id="a_node16"><a xlink:href="../../d9/d6a/classmars_1_1interfaces_1_1_load_center.html" target="_top" xlink:title="mars::interfaces::LoadCenter">
<polygon fill="white" stroke="black" points="274.5,-29.5 274.5,-48.5 417.5,-48.5 417.5,-29.5 274.5,-29.5"/>
<text text-anchor="middle" x="346" y="-36.5" font-family="Helvetica,sans-Serif" font-size="10.00">mars::interfaces::LoadCenter</text>
</a>
</g>
</g>
<!-- Node16&#45;&gt;Node7 -->
<g id="edge18" class="edge"><title>Node16&#45;&gt;Node7</title>
<path fill="none" stroke="#9a32cd" stroke-dasharray="5,2" d="M403.576,-28.0652C456.47,-21.2395 534.78,-20.2823 586,-61 658.741,-118.826 665.974,-244.626 666.225,-287.968"/>
<polygon fill="#9a32cd" stroke="#9a32cd" points="402.77,-24.644 393.352,-29.498 403.741,-31.5762 402.77,-24.644"/>
<text text-anchor="middle" x="514" y="-64" font-family="Helvetica,sans-Serif" font-size="10.00"> loadCenter</text>
</g>
<!-- Node17 -->
<g id="node17" class="node"><title>Node17</title>
<g id="a_node17"><a xlink:href="../../d1/d51/classmars_1_1interfaces_1_1_load_heightmap_interface.html" target="_top" xlink:title="mars::interfaces::LoadHeightmap\lInterface">
<polygon fill="white" stroke="black" points="0.5,-0 0.5,-30 161.5,-30 161.5,-0 0.5,-0"/>
<text text-anchor="start" x="8.5" y="-18" font-family="Helvetica,sans-Serif" font-size="10.00">mars::interfaces::LoadHeightmap</text>
<text text-anchor="middle" x="81" y="-7" font-family="Helvetica,sans-Serif" font-size="10.00">Interface</text>
</a>
</g>
</g>
<!-- Node17&#45;&gt;Node16 -->
<g id="edge19" class="edge"><title>Node17&#45;&gt;Node16</title>
<path fill="none" stroke="#9a32cd" stroke-dasharray="5,2" d="M171.85,-23.1993C205.256,-26.2477 242.661,-29.6611 274.133,-32.533"/>
<polygon fill="#9a32cd" stroke="#9a32cd" points="171.899,-19.6893 161.622,-22.2659 171.263,-26.6603 171.899,-19.6893"/>
<text text-anchor="middle" x="215" y="-33" font-family="Helvetica,sans-Serif" font-size="10.00"> loadHeightmap</text>
</g>
<!-- Node18 -->
<g id="node18" class="node"><title>Node18</title>
<g id="a_node18"><a xlink:href="../../d7/d02/classmars_1_1interfaces_1_1_load_mesh_interface.html" target="_top" xlink:title="mars::interfaces::LoadMesh\lInterface">
<polygon fill="white" stroke="black" points="12,-49 12,-79 150,-79 150,-49 12,-49"/>
<text text-anchor="start" x="20" y="-67" font-family="Helvetica,sans-Serif" font-size="10.00">mars::interfaces::LoadMesh</text>
<text text-anchor="middle" x="81" y="-56" font-family="Helvetica,sans-Serif" font-size="10.00">Interface</text>
</a>
</g>
</g>
<!-- Node18&#45;&gt;Node16 -->
<g id="edge20" class="edge"><title>Node18&#45;&gt;Node16</title>
<path fill="none" stroke="#9a32cd" stroke-dasharray="5,2" d="M160.116,-56.5745C196.387,-53.1267 239.183,-49.0586 274.462,-45.7051"/>
<polygon fill="#9a32cd" stroke="#9a32cd" points="159.695,-53.0987 150.071,-57.5294 160.357,-60.0673 159.695,-53.0987"/>
<text text-anchor="middle" x="215" y="-58" font-family="Helvetica,sans-Serif" font-size="10.00"> loadMesh</text>
</g>
<!-- Node19 -->
<g id="node19" class="node"><title>Node19</title>
<g id="a_node19"><a xlink:href="../../d7/d4c/classmars_1_1interfaces_1_1_node_manager_interface.html" target="_top" xlink:title="&quot;NodeManagerInterface&quot; declares the interfaces for all NodeOperations that are used for the communica...">
<polygon fill="white" stroke="black" points="269,-460 269,-490 423,-490 423,-460 269,-460"/>
<text text-anchor="start" x="277" y="-478" font-family="Helvetica,sans-Serif" font-size="10.00">mars::interfaces::NodeManager</text>
<text text-anchor="middle" x="346" y="-467" font-family="Helvetica,sans-Serif" font-size="10.00">Interface</text>
</a>
</g>
</g>
<!-- Node19&#45;&gt;Node7 -->
<g id="edge21" class="edge"><title>Node19&#45;&gt;Node7</title>
<path fill="none" stroke="#9a32cd" stroke-dasharray="5,2" d="M433.199,-478.134C481.791,-475.921 541.484,-466.163 586,-436 628.83,-406.98 652.415,-346.677 661.531,-318.34"/>
<polygon fill="#9a32cd" stroke="#9a32cd" points="432.877,-474.643 423.008,-478.497 433.126,-481.639 432.877,-474.643"/>
<text text-anchor="middle" x="514" y="-481" font-family="Helvetica,sans-Serif" font-size="10.00"> nodes</text>
</g>
<!-- Node20 -->
<g id="node20" class="node"><title>Node20</title>
<g id="a_node20"><a xlink:href="../../dc/de5/classmars_1_1interfaces_1_1_simulator_interface.html" target="_top" xlink:title="mars::interfaces::Simulator\lInterface">
<polygon fill="white" stroke="black" points="279,-411 279,-441 413,-441 413,-411 279,-411"/>
<text text-anchor="start" x="287" y="-429" font-family="Helvetica,sans-Serif" font-size="10.00">mars::interfaces::Simulator</text>
<text text-anchor="middle" x="346" y="-418" font-family="Helvetica,sans-Serif" font-size="10.00">Interface</text>
</a>
</g>
</g>
<!-- Node20&#45;&gt;Node7 -->
<g id="edge22" class="edge"><title>Node20&#45;&gt;Node7</title>
<path fill="none" stroke="#9a32cd" stroke-dasharray="5,2" d="M423.377,-422.418C472.192,-417.513 535.567,-406.142 586,-380 615.095,-364.919 640.826,-335.912 654.831,-318.125"/>
<polygon fill="#9a32cd" stroke="#9a32cd" points="422.822,-418.954 413.191,-423.369 423.473,-425.924 422.822,-418.954"/>
<text text-anchor="middle" x="514" y="-424" font-family="Helvetica,sans-Serif" font-size="10.00"> sim</text>
</g>
<!-- Node21&#45;&gt;Node1 -->
<g id="edge23" class="edge"><title>Node21&#45;&gt;Node1</title>
<path fill="none" stroke="#9a32cd" stroke-dasharray="5,2" d="M596.13,-606C664.608,-606 760.412,-606 817.824,-606"/>
<polygon fill="#9a32cd" stroke="#9a32cd" points="595.809,-602.5 585.809,-606 595.809,-609.5 595.809,-602.5"/>
<text text-anchor="middle" x="667" y="-609" font-family="Helvetica,sans-Serif" font-size="10.00"> gui</text>
</g>
</g>
</svg>
