<?xml version="1.0" encoding="UTF-8" standalone="no"?>
<!DOCTYPE svg PUBLIC "-//W3C//DTD SVG 1.1//EN"
 "http://www.w3.org/Graphics/SVG/1.1/DTD/svg11.dtd">
<!-- Generated by graphviz version 2.26.3 (20100126.1600)
 -->
<!-- Title: /home/kavonszadkowski/limes&#45;dev/simulation/mars/plugins/mars_plugin_collection/CameraGUI/src/CameraWidget.h Pages: 1 -->
<svg width="1270pt" height="154pt"
 viewBox="0.00 0.00 1270.00 154.00" xmlns="http://www.w3.org/2000/svg" xmlns:xlink="http://www.w3.org/1999/xlink">
<g id="graph1" class="graph" transform="scale(1 1) rotate(0) translate(4 150)">
<title>/home/kavonszadkowski/limes&#45;dev/simulation/mars/plugins/mars_plugin_collection/CameraGUI/src/CameraWidget.h</title>
<polygon fill="white" stroke="white" points="-4,5 -4,-150 1267,-150 1267,5 -4,5"/>
<!-- Node1 -->
<g id="node1" class="node"><title>Node1</title>
<polygon fill="#bfbfbf" stroke="black" points="641.5,-72.5 641.5,-145.5 776.5,-145.5 776.5,-72.5 641.5,-72.5"/>
<text text-anchor="start" x="649.5" y="-132.5" font-family="Helvetica,sans-Serif" font-size="10.00">/home/kavonszadkowski</text>
<text text-anchor="start" x="649.5" y="-119.5" font-family="Helvetica,sans-Serif" font-size="10.00">/limes&#45;dev/simulation</text>
<text text-anchor="start" x="649.5" y="-106.5" font-family="Helvetica,sans-Serif" font-size="10.00">/mars/plugins/mars_plugin</text>
<text text-anchor="start" x="649.5" y="-93.5" font-family="Helvetica,sans-Serif" font-size="10.00">_collection/CameraGUI/src</text>
<text text-anchor="middle" x="709" y="-80.5" font-family="Helvetica,sans-Serif" font-size="10.00">/CameraWidget.h</text>
</g>
<!-- Node2 -->
<g id="node3" class="node"><title>Node2</title>
<polygon fill="white" stroke="#bfbfbf" points="-0.5,-7.5 -0.5,-28.5 144.5,-28.5 144.5,-7.5 -0.5,-7.5"/>
<text text-anchor="middle" x="72" y="-15.5" font-family="Helvetica,sans-Serif" font-size="10.00">mars/main_gui/BaseWidget.h</text>
</g>
<!-- Node1&#45;&gt;Node2 -->
<g id="edge2" class="edge"><title>Node1&#45;&gt;Node2</title>
<path fill="none" stroke="midnightblue" d="M641.092,-102.036C536.039,-90.8235 327.973,-66.8662 153,-36 144.239,-34.4545 134.991,-32.6071 126,-30.6934"/>
<polygon fill="midnightblue" stroke="midnightblue" points="126.515,-27.2236 116,-28.5172 125.027,-34.0635 126.515,-27.2236"/>
</g>
<!-- Node3 -->
<g id="node5" class="node"><title>Node3</title>
<polygon fill="white" stroke="#bfbfbf" points="162,-7.5 162,-28.5 290,-28.5 290,-7.5 162,-7.5"/>
<text text-anchor="middle" x="226" y="-15.5" font-family="Helvetica,sans-Serif" font-size="10.00">configmaps/ConfigData.h</text>
</g>
<!-- Node1&#45;&gt;Node3 -->
<g id="edge4" class="edge"><title>Node1&#45;&gt;Node3</title>
<path fill="none" stroke="midnightblue" d="M641.265,-98.3369C559.754,-85.1834 418.882,-61.4239 299,-36 291.72,-34.456 284.061,-32.7069 276.554,-30.9207"/>
<polygon fill="midnightblue" stroke="midnightblue" points="277.36,-27.5147 266.817,-28.5652 275.714,-34.3184 277.36,-27.5147"/>
</g>
<!-- Node4 -->
<g id="node7" class="node"><title>Node4</title>
<polygon fill="white" stroke="#bfbfbf" points="308,-1 308,-35 418,-35 418,-1 308,-1"/>
<text text-anchor="start" x="316" y="-22" font-family="Helvetica,sans-Serif" font-size="10.00">mars/config_map_gui</text>
<text text-anchor="middle" x="363" y="-9" font-family="Helvetica,sans-Serif" font-size="10.00">/DataWidget.h</text>
</g>
<!-- Node1&#45;&gt;Node4 -->
<g id="edge6" class="edge"><title>Node1&#45;&gt;Node4</title>
<path fill="none" stroke="midnightblue" d="M641.375,-91.916C586.53,-77.9636 506.964,-57.5044 428.233,-36.3094"/>
<polygon fill="midnightblue" stroke="midnightblue" points="428.704,-32.8114 418.138,-33.5863 426.881,-39.5699 428.704,-32.8114"/>
</g>
<!-- Node5 -->
<g id="node9" class="node"><title>Node5</title>
<polygon fill="white" stroke="#bfbfbf" points="436,-1 436,-35 566,-35 566,-1 436,-1"/>
<text text-anchor="start" x="444" y="-22" font-family="Helvetica,sans-Serif" font-size="10.00">mars/graphics/wrapper</text>
<text text-anchor="middle" x="501" y="-9" font-family="Helvetica,sans-Serif" font-size="10.00">/OSGHudElementStruct.h</text>
</g>
<!-- Node1&#45;&gt;Node5 -->
<g id="edge8" class="edge"><title>Node1&#45;&gt;Node5</title>
<path fill="none" stroke="midnightblue" d="M641.468,-79.4549C611.439,-66.317 576.765,-51.147 549.38,-39.1663"/>
<polygon fill="midnightblue" stroke="midnightblue" points="550.582,-35.8718 540.017,-35.0701 547.776,-42.2849 550.582,-35.8718"/>
</g>
<!-- Node6 -->
<g id="node11" class="node"><title>Node6</title>
<polygon fill="white" stroke="#bfbfbf" points="583.5,-1 583.5,-35 686.5,-35 686.5,-1 583.5,-1"/>
<text text-anchor="start" x="591.5" y="-22" font-family="Helvetica,sans-Serif" font-size="10.00">mars/interfaces/sim</text>
<text text-anchor="middle" x="635" y="-9" font-family="Helvetica,sans-Serif" font-size="10.00">/ControlCenter.h</text>
</g>
<!-- Node1&#45;&gt;Node6 -->
<g id="edge10" class="edge"><title>Node1&#45;&gt;Node6</title>
<path fill="none" stroke="midnightblue" d="M679.115,-72.2491C671.13,-62.4298 662.685,-52.0455 655.346,-43.0199"/>
<polygon fill="midnightblue" stroke="midnightblue" points="657.986,-40.7185 648.961,-35.1682 652.555,-45.135 657.986,-40.7185"/>
</g>
<!-- Node7 -->
<g id="node13" class="node"><title>Node7</title>
<polygon fill="white" stroke="#bfbfbf" points="703.5,-7.5 703.5,-28.5 862.5,-28.5 862.5,-7.5 703.5,-7.5"/>
<text text-anchor="middle" x="783" y="-15.5" font-family="Helvetica,sans-Serif" font-size="10.00">mars/graphics/GraphicsWidget.h</text>
</g>
<!-- Node1&#45;&gt;Node7 -->
<g id="edge12" class="edge"><title>Node1&#45;&gt;Node7</title>
<path fill="none" stroke="midnightblue" d="M738.885,-72.2491C748.914,-59.9172 759.666,-46.6941 768.045,-36.3904"/>
<polygon fill="midnightblue" stroke="midnightblue" points="770.863,-38.4723 774.457,-28.5055 765.432,-34.0558 770.863,-38.4723"/>
</g>
<!-- Node8 -->
<g id="node15" class="node"><title>Node8</title>
<polygon fill="white" stroke="#bfbfbf" points="879.5,-7.5 879.5,-28.5 1024.5,-28.5 1024.5,-7.5 879.5,-7.5"/>
<text text-anchor="middle" x="952" y="-15.5" font-family="Helvetica,sans-Serif" font-size="10.00">mars/main_gui/GuiInterface.h</text>
</g>
<!-- Node1&#45;&gt;Node8 -->
<g id="edge14" class="edge"><title>Node1&#45;&gt;Node8</title>
<path fill="none" stroke="midnightblue" d="M776.689,-83.6514C820.975,-67.067 877.213,-46.0066 913.88,-32.2753"/>
<polygon fill="midnightblue" stroke="midnightblue" points="915.54,-35.3913 923.677,-28.6065 913.085,-28.8358 915.54,-35.3913"/>
</g>
<!-- Node9 -->
<g id="node17" class="node"><title>Node9</title>
<polygon fill="white" stroke="#bfbfbf" points="1041.5,-7.5 1041.5,-28.5 1096.5,-28.5 1096.5,-7.5 1041.5,-7.5"/>
<text text-anchor="middle" x="1069" y="-15.5" font-family="Helvetica,sans-Serif" font-size="10.00">QWidget</text>
</g>
<!-- Node1&#45;&gt;Node9 -->
<g id="edge16" class="edge"><title>Node1&#45;&gt;Node9</title>
<path fill="none" stroke="midnightblue" d="M776.735,-98.6602C843.231,-87.3714 946.921,-66.7041 1033,-36 1035.56,-35.0852 1038.18,-34.0318 1040.78,-32.9032"/>
<polygon fill="midnightblue" stroke="midnightblue" points="1042.38,-36.0173 1049.95,-28.5998 1039.41,-29.6806 1042.38,-36.0173"/>
</g>
<!-- Node10 -->
<g id="node19" class="node"><title>Node10</title>
<polygon fill="white" stroke="#bfbfbf" points="1113.5,-7.5 1113.5,-28.5 1172.5,-28.5 1172.5,-7.5 1113.5,-7.5"/>
<text text-anchor="middle" x="1143" y="-15.5" font-family="Helvetica,sans-Serif" font-size="10.00">QLineEdit</text>
</g>
<!-- Node1&#45;&gt;Node10 -->
<g id="edge18" class="edge"><title>Node1&#45;&gt;Node10</title>
<path fill="none" stroke="midnightblue" d="M776.521,-101.974C856.408,-92.4294 992.737,-72.2502 1105,-36 1107.96,-35.0439 1110.99,-33.9071 1113.98,-32.6764"/>
<polygon fill="midnightblue" stroke="midnightblue" points="1115.57,-35.7989 1123.28,-28.5311 1112.72,-29.4052 1115.57,-35.7989"/>
</g>
<!-- Node11 -->
<g id="node21" class="node"><title>Node11</title>
<polygon fill="white" stroke="#bfbfbf" points="1189.5,-7.5 1189.5,-28.5 1262.5,-28.5 1262.5,-7.5 1189.5,-7.5"/>
<text text-anchor="middle" x="1226" y="-15.5" font-family="Helvetica,sans-Serif" font-size="10.00">QComboBox</text>
</g>
<!-- Node1&#45;&gt;Node11 -->
<g id="edge20" class="edge"><title>Node1&#45;&gt;Node11</title>
<path fill="none" stroke="midnightblue" d="M776.838,-103.386C869.443,-94.6236 1040.03,-74.5551 1181,-36 1184.91,-34.9317 1188.93,-33.629 1192.9,-32.2176"/>
<polygon fill="midnightblue" stroke="midnightblue" points="1194.42,-35.3835 1202.52,-28.5576 1191.93,-28.8405 1194.42,-35.3835"/>
</g>
</g>
</svg>
