<?xml version="1.0" encoding="UTF-8" standalone="no"?>
<!DOCTYPE svg PUBLIC "-//W3C//DTD SVG 1.1//EN"
 "http://www.w3.org/Graphics/SVG/1.1/DTD/svg11.dtd">
<!-- Generated by graphviz version 2.36.0 (20140111.2315)
 -->
<!-- Title: /media/kavonszadkowski/work/marsdocs/mars/interfaces/src/utils.h Pages: 1 -->
<svg width="339pt" height="128pt"
 viewBox="0.00 0.00 339.00 128.00" xmlns="http://www.w3.org/2000/svg" xmlns:xlink="http://www.w3.org/1999/xlink">
<g id="graph0" class="graph" transform="scale(1 1) rotate(0) translate(4 124)">
<title>/media/kavonszadkowski/work/marsdocs/mars/interfaces/src/utils.h</title>
<polygon fill="white" stroke="none" points="-4,4 -4,-124 335,-124 335,4 -4,4"/>
<!-- Node1 -->
<g id="node1" class="node"><title>Node1</title>
<polygon fill="#bfbfbf" stroke="black" points="86.5,-78.5 86.5,-119.5 243.5,-119.5 243.5,-78.5 86.5,-78.5"/>
<text text-anchor="start" x="94.5" y="-107.5" font-family="Helvetica,sans-Serif" font-size="10.00">/media/kavonszadkowski</text>
<text text-anchor="start" x="94.5" y="-96.5" font-family="Helvetica,sans-Serif" font-size="10.00">/work/marsdocs/mars/interfaces</text>
<text text-anchor="middle" x="165" y="-85.5" font-family="Helvetica,sans-Serif" font-size="10.00">/src/utils.h</text>
</g>
<!-- Node2 -->
<g id="node2" class="node"><title>Node2</title>
<g id="a_node2"><a xlink:href="../../df/d7f/_joint_data_8cpp.html" target="_top" xlink:title="/media/kavonszadkowski\l/work/marsdocs/mars/interfaces\l/src/JointData.cpp">
<polygon fill="white" stroke="black" points="-0.5,-0.5 -0.5,-41.5 156.5,-41.5 156.5,-0.5 -0.5,-0.5"/>
<text text-anchor="start" x="7.5" y="-29.5" font-family="Helvetica,sans-Serif" font-size="10.00">/media/kavonszadkowski</text>
<text text-anchor="start" x="7.5" y="-18.5" font-family="Helvetica,sans-Serif" font-size="10.00">/work/marsdocs/mars/interfaces</text>
<text text-anchor="middle" x="78" y="-7.5" font-family="Helvetica,sans-Serif" font-size="10.00">/src/JointData.cpp</text>
</a>
</g>
</g>
<!-- Node1&#45;&gt;Node2 -->
<g id="edge1" class="edge"><title>Node1&#45;&gt;Node2</title>
<path fill="none" stroke="midnightblue" d="M134.983,-71.7785C123.61,-61.8432 110.872,-50.7159 100.329,-41.5056"/>
<polygon fill="midnightblue" stroke="midnightblue" points="132.762,-74.4851 142.595,-78.4281 137.367,-69.2133 132.762,-74.4851"/>
</g>
<!-- Node3 -->
<g id="node3" class="node"><title>Node3</title>
<g id="a_node3"><a xlink:href="../../de/d06/utils_8cpp.html" target="_top" xlink:title="/media/kavonszadkowski\l/work/marsdocs/mars/interfaces\l/src/utils.cpp">
<polygon fill="white" stroke="black" points="174.5,-0.5 174.5,-41.5 331.5,-41.5 331.5,-0.5 174.5,-0.5"/>
<text text-anchor="start" x="182.5" y="-29.5" font-family="Helvetica,sans-Serif" font-size="10.00">/media/kavonszadkowski</text>
<text text-anchor="start" x="182.5" y="-18.5" font-family="Helvetica,sans-Serif" font-size="10.00">/work/marsdocs/mars/interfaces</text>
<text text-anchor="middle" x="253" y="-7.5" font-family="Helvetica,sans-Serif" font-size="10.00">/src/utils.cpp</text>
</a>
</g>
</g>
<!-- Node1&#45;&gt;Node3 -->
<g id="edge2" class="edge"><title>Node1&#45;&gt;Node3</title>
<path fill="none" stroke="midnightblue" d="M195.362,-71.7785C206.866,-61.8432 219.75,-50.7159 230.415,-41.5056"/>
<polygon fill="midnightblue" stroke="midnightblue" points="192.943,-69.243 187.662,-78.4281 197.518,-74.5408 192.943,-69.243"/>
</g>
</g>
</svg>
