<?xml version="1.0" encoding="UTF-8" standalone="no"?>
<!DOCTYPE svg PUBLIC "-//W3C//DTD SVG 1.1//EN"
 "http://www.w3.org/Graphics/SVG/1.1/DTD/svg11.dtd">
<!-- Generated by graphviz version 2.36.0 (20140111.2315)
 -->
<!-- Title: /media/kavonszadkowski/work/marsdocs/mars/sim/src/physics/NodePhysics.h Pages: 1 -->
<svg width="957pt" height="206pt"
 viewBox="0.00 0.00 957.00 206.00" xmlns="http://www.w3.org/2000/svg" xmlns:xlink="http://www.w3.org/1999/xlink">
<g id="graph0" class="graph" transform="scale(1 1) rotate(0) translate(4 202)">
<title>/media/kavonszadkowski/work/marsdocs/mars/sim/src/physics/NodePhysics.h</title>
<polygon fill="white" stroke="none" points="-4,4 -4,-202 953,-202 953,4 -4,4"/>
<!-- Node1 -->
<g id="node1" class="node"><title>Node1</title>
<polygon fill="#bfbfbf" stroke="black" points="550,-156.5 550,-197.5 690,-197.5 690,-156.5 550,-156.5"/>
<text text-anchor="start" x="558" y="-185.5" font-family="Helvetica,sans-Serif" font-size="10.00">/media/kavonszadkowski</text>
<text text-anchor="start" x="558" y="-174.5" font-family="Helvetica,sans-Serif" font-size="10.00">/work/marsdocs/mars/sim</text>
<text text-anchor="middle" x="620" y="-163.5" font-family="Helvetica,sans-Serif" font-size="10.00">/src/physics/NodePhysics.h</text>
</g>
<!-- Node2 -->
<g id="node2" class="node"><title>Node2</title>
<g id="a_node2"><a xlink:href="../../df/d11/_physics_mapper_8h.html" target="_top" xlink:title="&quot;PhysicsMapper&quot; connects the implemented interface classes to the interface objects that are handled ...">
<polygon fill="white" stroke="black" points="311,-78.5 311,-119.5 445,-119.5 445,-78.5 311,-78.5"/>
<text text-anchor="start" x="319" y="-107.5" font-family="Helvetica,sans-Serif" font-size="10.00">/media/kavonszadkowski</text>
<text text-anchor="start" x="319" y="-96.5" font-family="Helvetica,sans-Serif" font-size="10.00">/work/marsdocs/mars/sim</text>
<text text-anchor="middle" x="378" y="-85.5" font-family="Helvetica,sans-Serif" font-size="10.00">/src/core/PhysicsMapper.h</text>
</a>
</g>
</g>
<!-- Node1&#45;&gt;Node2 -->
<g id="edge1" class="edge"><title>Node1&#45;&gt;Node2</title>
<path fill="none" stroke="midnightblue" d="M547.731,-153.304C513.475,-142.546 472.962,-129.823 440.11,-119.506"/>
<polygon fill="midnightblue" stroke="midnightblue" points="547.09,-156.771 557.679,-156.428 549.187,-150.093 547.09,-156.771"/>
</g>
<!-- Node8 -->
<g id="node8" class="node"><title>Node8</title>
<g id="a_node8"><a xlink:href="../../d0/df0/_joint_physics_8cpp.html" target="_top" xlink:title="/media/kavonszadkowski\l/work/marsdocs/mars/sim\l/src/physics/JointPhysics.cpp">
<polygon fill="white" stroke="black" points="463,-78.5 463,-119.5 611,-119.5 611,-78.5 463,-78.5"/>
<text text-anchor="start" x="471" y="-107.5" font-family="Helvetica,sans-Serif" font-size="10.00">/media/kavonszadkowski</text>
<text text-anchor="start" x="471" y="-96.5" font-family="Helvetica,sans-Serif" font-size="10.00">/work/marsdocs/mars/sim</text>
<text text-anchor="middle" x="537" y="-85.5" font-family="Helvetica,sans-Serif" font-size="10.00">/src/physics/JointPhysics.cpp</text>
</a>
</g>
</g>
<!-- Node1&#45;&gt;Node8 -->
<g id="edge7" class="edge"><title>Node1&#45;&gt;Node8</title>
<path fill="none" stroke="midnightblue" d="M591.05,-149.492C580.28,-139.629 568.264,-128.627 558.302,-119.506"/>
<polygon fill="midnightblue" stroke="midnightblue" points="588.887,-152.256 598.625,-156.428 593.614,-147.094 588.887,-152.256"/>
</g>
<!-- Node9 -->
<g id="node9" class="node"><title>Node9</title>
<g id="a_node9"><a xlink:href="../../d6/dee/_node_physics_8cpp.html" target="_top" xlink:title="/media/kavonszadkowski\l/work/marsdocs/mars/sim\l/src/physics/NodePhysics.cpp">
<polygon fill="white" stroke="black" points="629,-78.5 629,-119.5 779,-119.5 779,-78.5 629,-78.5"/>
<text text-anchor="start" x="637" y="-107.5" font-family="Helvetica,sans-Serif" font-size="10.00">/media/kavonszadkowski</text>
<text text-anchor="start" x="637" y="-96.5" font-family="Helvetica,sans-Serif" font-size="10.00">/work/marsdocs/mars/sim</text>
<text text-anchor="middle" x="704" y="-85.5" font-family="Helvetica,sans-Serif" font-size="10.00">/src/physics/NodePhysics.cpp</text>
</a>
</g>
</g>
<!-- Node1&#45;&gt;Node9 -->
<g id="edge8" class="edge"><title>Node1&#45;&gt;Node9</title>
<path fill="none" stroke="midnightblue" d="M649.299,-149.492C660.199,-139.629 672.359,-128.627 682.441,-119.506"/>
<polygon fill="midnightblue" stroke="midnightblue" points="646.699,-147.124 641.632,-156.428 651.396,-152.314 646.699,-147.124"/>
</g>
<!-- Node10 -->
<g id="node10" class="node"><title>Node10</title>
<g id="a_node10"><a xlink:href="../../d0/dad/_world_physics_8cpp.html" target="_top" xlink:title="&quot;WorldPhysics&quot; includes the methods to handle the physically world. ">
<polygon fill="white" stroke="black" points="797,-78.5 797,-119.5 949,-119.5 949,-78.5 797,-78.5"/>
<text text-anchor="start" x="805" y="-107.5" font-family="Helvetica,sans-Serif" font-size="10.00">/media/kavonszadkowski</text>
<text text-anchor="start" x="805" y="-96.5" font-family="Helvetica,sans-Serif" font-size="10.00">/work/marsdocs/mars/sim</text>
<text text-anchor="middle" x="873" y="-85.5" font-family="Helvetica,sans-Serif" font-size="10.00">/src/physics/WorldPhysics.cpp</text>
</a>
</g>
</g>
<!-- Node1&#45;&gt;Node10 -->
<g id="edge9" class="edge"><title>Node1&#45;&gt;Node10</title>
<path fill="none" stroke="midnightblue" d="M695.093,-153.442C731.004,-142.655 773.574,-129.867 808.067,-119.506"/>
<polygon fill="midnightblue" stroke="midnightblue" points="693.724,-150.199 685.154,-156.428 695.738,-156.903 693.724,-150.199"/>
</g>
<!-- Node3 -->
<g id="node3" class="node"><title>Node3</title>
<g id="a_node3"><a xlink:href="../../d9/d28/_joint_manager_8cpp.html" target="_top" xlink:title="&quot;JointManager&quot; is the class that manage all joints and their operations and communication between the...">
<polygon fill="white" stroke="black" points="-0.5,-0.5 -0.5,-41.5 134.5,-41.5 134.5,-0.5 -0.5,-0.5"/>
<text text-anchor="start" x="7.5" y="-29.5" font-family="Helvetica,sans-Serif" font-size="10.00">/media/kavonszadkowski</text>
<text text-anchor="start" x="7.5" y="-18.5" font-family="Helvetica,sans-Serif" font-size="10.00">/work/marsdocs/mars/sim</text>
<text text-anchor="middle" x="67" y="-7.5" font-family="Helvetica,sans-Serif" font-size="10.00">/src/core/JointManager.cpp</text>
</a>
</g>
</g>
<!-- Node2&#45;&gt;Node3 -->
<g id="edge2" class="edge"><title>Node2&#45;&gt;Node3</title>
<path fill="none" stroke="midnightblue" d="M300.907,-80.1081C254.985,-69.3311 195.588,-55.1833 143,-42 140.221,-41.3033 137.386,-40.5863 134.524,-39.857"/>
<polygon fill="midnightblue" stroke="midnightblue" points="300.255,-83.5501 310.79,-82.4242 301.852,-76.7347 300.255,-83.5501"/>
</g>
<!-- Node4 -->
<g id="node4" class="node"><title>Node4</title>
<g id="a_node4"><a xlink:href="../../d5/d2a/_motor_manager_8cpp.html" target="_top" xlink:title="&quot;MotorManager&quot; implements MotorManagerInterface. It is manages all motors and all motor operations th...">
<polygon fill="white" stroke="black" points="152.5,-0.5 152.5,-41.5 291.5,-41.5 291.5,-0.5 152.5,-0.5"/>
<text text-anchor="start" x="160.5" y="-29.5" font-family="Helvetica,sans-Serif" font-size="10.00">/media/kavonszadkowski</text>
<text text-anchor="start" x="160.5" y="-18.5" font-family="Helvetica,sans-Serif" font-size="10.00">/work/marsdocs/mars/sim</text>
<text text-anchor="middle" x="222" y="-7.5" font-family="Helvetica,sans-Serif" font-size="10.00">/src/core/MotorManager.cpp</text>
</a>
</g>
</g>
<!-- Node2&#45;&gt;Node4 -->
<g id="edge3" class="edge"><title>Node2&#45;&gt;Node4</title>
<path fill="none" stroke="midnightblue" d="M328.548,-73.9082C307.098,-63.4581 282.307,-51.3801 262.038,-41.5056"/>
<polygon fill="midnightblue" stroke="midnightblue" points="327.303,-77.1948 337.826,-78.4281 330.369,-70.9019 327.303,-77.1948"/>
</g>
<!-- Node5 -->
<g id="node5" class="node"><title>Node5</title>
<g id="a_node5"><a xlink:href="../../d1/dc7/_node_manager_8cpp.html" target="_top" xlink:title="&quot;NodeManager&quot; is the class that manage all nodes and their operations and communication between the d...">
<polygon fill="white" stroke="black" points="309.5,-0.5 309.5,-41.5 446.5,-41.5 446.5,-0.5 309.5,-0.5"/>
<text text-anchor="start" x="317.5" y="-29.5" font-family="Helvetica,sans-Serif" font-size="10.00">/media/kavonszadkowski</text>
<text text-anchor="start" x="317.5" y="-18.5" font-family="Helvetica,sans-Serif" font-size="10.00">/work/marsdocs/mars/sim</text>
<text text-anchor="middle" x="378" y="-7.5" font-family="Helvetica,sans-Serif" font-size="10.00">/src/core/NodeManager.cpp</text>
</a>
</g>
</g>
<!-- Node2&#45;&gt;Node5 -->
<g id="edge4" class="edge"><title>Node2&#45;&gt;Node5</title>
<path fill="none" stroke="midnightblue" d="M378,-68.2965C378,-59.3009 378,-49.6532 378,-41.5056"/>
<polygon fill="midnightblue" stroke="midnightblue" points="374.5,-68.4281 378,-78.4281 381.5,-68.4281 374.5,-68.4281"/>
</g>
<!-- Node6 -->
<g id="node6" class="node"><title>Node6</title>
<g id="a_node6"><a xlink:href="../../de/dc6/_physics_mapper_8cpp.html" target="_top" xlink:title="&quot;PhysicsMapper&quot; connects the implemented interface classes to the interface objects that are handled ...">
<polygon fill="white" stroke="black" points="465,-0.5 465,-41.5 609,-41.5 609,-0.5 465,-0.5"/>
<text text-anchor="start" x="473" y="-29.5" font-family="Helvetica,sans-Serif" font-size="10.00">/media/kavonszadkowski</text>
<text text-anchor="start" x="473" y="-18.5" font-family="Helvetica,sans-Serif" font-size="10.00">/work/marsdocs/mars/sim</text>
<text text-anchor="middle" x="537" y="-7.5" font-family="Helvetica,sans-Serif" font-size="10.00">/src/core/PhysicsMapper.cpp</text>
</a>
</g>
</g>
<!-- Node2&#45;&gt;Node6 -->
<g id="edge5" class="edge"><title>Node2&#45;&gt;Node6</title>
<path fill="none" stroke="midnightblue" d="M428.109,-74.0487C450.039,-63.5665 475.441,-51.4244 496.192,-41.5056"/>
<polygon fill="midnightblue" stroke="midnightblue" points="426.459,-70.9577 418.946,-78.4281 429.478,-77.2733 426.459,-70.9577"/>
</g>
<!-- Node7 -->
<g id="node7" class="node"><title>Node7</title>
<g id="a_node7"><a xlink:href="../../d0/de2/_simulator_8cpp.html" target="_top" xlink:title="/media/kavonszadkowski\l/work/marsdocs/mars/sim\l/src/core/Simulator.cpp">
<polygon fill="white" stroke="black" points="627,-0.5 627,-41.5 757,-41.5 757,-0.5 627,-0.5"/>
<text text-anchor="start" x="635" y="-29.5" font-family="Helvetica,sans-Serif" font-size="10.00">/media/kavonszadkowski</text>
<text text-anchor="start" x="635" y="-18.5" font-family="Helvetica,sans-Serif" font-size="10.00">/work/marsdocs/mars/sim</text>
<text text-anchor="middle" x="692" y="-7.5" font-family="Helvetica,sans-Serif" font-size="10.00">/src/core/Simulator.cpp</text>
</a>
</g>
</g>
<!-- Node2&#45;&gt;Node7 -->
<g id="edge6" class="edge"><title>Node2&#45;&gt;Node7</title>
<path fill="none" stroke="midnightblue" d="M455.261,-77.7469C528.273,-60.4039 548.63,-58.9779 618,-42 620.844,-41.304 623.745,-40.5799 626.674,-39.8377"/>
<polygon fill="midnightblue" stroke="midnightblue" points="454.008,-74.448 445.099,-80.182 455.639,-81.2553 454.008,-74.448"/>
</g>
</g>
</svg>
