<?xml version="1.0" encoding="UTF-8" standalone="no"?>
<!DOCTYPE svg PUBLIC "-//W3C//DTD SVG 1.1//EN"
 "http://www.w3.org/Graphics/SVG/1.1/DTD/svg11.dtd">
<!-- Generated by graphviz version 2.36.0 (20140111.2315)
 -->
<!-- Title: /media/kavonszadkowski/work/marsdocs/mars/common/graphics/osg_material_manager/src/shader/shader&#45;types.h Pages: 1 -->
<svg width="946pt" height="332pt"
 viewBox="0.00 0.00 946.00 332.00" xmlns="http://www.w3.org/2000/svg" xmlns:xlink="http://www.w3.org/1999/xlink">
<g id="graph0" class="graph" transform="scale(1 1) rotate(0) translate(4 328)">
<title>/media/kavonszadkowski/work/marsdocs/mars/common/graphics/osg_material_manager/src/shader/shader&#45;types.h</title>
<polygon fill="white" stroke="none" points="-4,4 -4,-328 942,-328 942,4 -4,4"/>
<!-- Node1 -->
<g id="node1" class="node"><title>Node1</title>
<polygon fill="#bfbfbf" stroke="black" points="673,-271 673,-323 831,-323 831,-271 673,-271"/>
<text text-anchor="start" x="681" y="-311" font-family="Helvetica,sans-Serif" font-size="10.00">/media/kavonszadkowski</text>
<text text-anchor="start" x="681" y="-300" font-family="Helvetica,sans-Serif" font-size="10.00">/work/marsdocs/mars/common</text>
<text text-anchor="start" x="681" y="-289" font-family="Helvetica,sans-Serif" font-size="10.00">/graphics/osg_material_manager</text>
<text text-anchor="middle" x="752" y="-278" font-family="Helvetica,sans-Serif" font-size="10.00">/src/shader/shader&#45;types.h</text>
</g>
<!-- Node2 -->
<g id="node2" class="node"><title>Node2</title>
<g id="a_node2"><a xlink:href="../../dc/d90/shader-function_8h.html" target="_top" xlink:title="/media/kavonszadkowski\l/work/marsdocs/mars/common\l/graphics/osg_material_manager\l/src/shader/shader&#45;function.h">
<polygon fill="white" stroke="black" points="337,-181 337,-233 495,-233 495,-181 337,-181"/>
<text text-anchor="start" x="345" y="-221" font-family="Helvetica,sans-Serif" font-size="10.00">/media/kavonszadkowski</text>
<text text-anchor="start" x="345" y="-210" font-family="Helvetica,sans-Serif" font-size="10.00">/work/marsdocs/mars/common</text>
<text text-anchor="start" x="345" y="-199" font-family="Helvetica,sans-Serif" font-size="10.00">/graphics/osg_material_manager</text>
<text text-anchor="middle" x="416" y="-188" font-family="Helvetica,sans-Serif" font-size="10.00">/src/shader/shader&#45;function.h</text>
</a>
</g>
</g>
<!-- Node1&#45;&gt;Node2 -->
<g id="edge1" class="edge"><title>Node1&#45;&gt;Node2</title>
<path fill="none" stroke="midnightblue" d="M662.893,-272.663C610.782,-259.014 545.568,-241.934 495.252,-228.756"/>
<polygon fill="midnightblue" stroke="midnightblue" points="662.238,-276.109 672.798,-275.257 664.011,-269.337 662.238,-276.109"/>
</g>
<!-- Node7 -->
<g id="node7" class="node"><title>Node7</title>
<g id="a_node7"><a xlink:href="../../d8/d5c/bumpmapping_8cpp.html" target="_top" xlink:title="/media/kavonszadkowski\l/work/marsdocs/mars/common\l/graphics/osg_material_manager\l/src/shader/bumpmapping.cpp">
<polygon fill="white" stroke="black" points="655,-1 655,-53 813,-53 813,-1 655,-1"/>
<text text-anchor="start" x="663" y="-41" font-family="Helvetica,sans-Serif" font-size="10.00">/media/kavonszadkowski</text>
<text text-anchor="start" x="663" y="-30" font-family="Helvetica,sans-Serif" font-size="10.00">/work/marsdocs/mars/common</text>
<text text-anchor="start" x="663" y="-19" font-family="Helvetica,sans-Serif" font-size="10.00">/graphics/osg_material_manager</text>
<text text-anchor="middle" x="734" y="-8" font-family="Helvetica,sans-Serif" font-size="10.00">/src/shader/bumpmapping.cpp</text>
</a>
</g>
</g>
<!-- Node1&#45;&gt;Node7 -->
<g id="edge13" class="edge"><title>Node1&#45;&gt;Node7</title>
<path fill="none" stroke="midnightblue" d="M749.615,-260.49C745.926,-205.561 738.925,-101.328 735.702,-53.341"/>
<polygon fill="midnightblue" stroke="midnightblue" points="746.144,-261.044 750.307,-270.787 753.129,-260.575 746.144,-261.044"/>
</g>
<!-- Node11 -->
<g id="node11" class="node"><title>Node11</title>
<g id="a_node11"><a xlink:href="../../da/dfc/shader-types_8cpp.html" target="_top" xlink:title="/media/kavonszadkowski\l/work/marsdocs/mars/common\l/graphics/osg_material_manager\l/src/shader/shader&#45;types.cpp">
<polygon fill="white" stroke="black" points="780,-181 780,-233 938,-233 938,-181 780,-181"/>
<text text-anchor="start" x="788" y="-221" font-family="Helvetica,sans-Serif" font-size="10.00">/media/kavonszadkowski</text>
<text text-anchor="start" x="788" y="-210" font-family="Helvetica,sans-Serif" font-size="10.00">/work/marsdocs/mars/common</text>
<text text-anchor="start" x="788" y="-199" font-family="Helvetica,sans-Serif" font-size="10.00">/graphics/osg_material_manager</text>
<text text-anchor="middle" x="859" y="-188" font-family="Helvetica,sans-Serif" font-size="10.00">/src/shader/shader&#45;types.cpp</text>
</a>
</g>
</g>
<!-- Node1&#45;&gt;Node11 -->
<g id="edge14" class="edge"><title>Node1&#45;&gt;Node11</title>
<path fill="none" stroke="midnightblue" d="M790.614,-264.242C803.018,-254.042 816.581,-242.887 828.334,-233.221"/>
<polygon fill="midnightblue" stroke="midnightblue" points="788.162,-261.727 782.662,-270.783 792.609,-267.134 788.162,-261.727"/>
</g>
<!-- Node3 -->
<g id="node3" class="node"><title>Node3</title>
<g id="a_node3"><a xlink:href="../../d3/d70/shader-generator_8h.html" target="_top" xlink:title="/media/kavonszadkowski\l/work/marsdocs/mars/common\l/graphics/osg_material_manager\l/src/shader/shader&#45;generator.h">
<polygon fill="white" stroke="black" points="390,-91 390,-143 548,-143 548,-91 390,-91"/>
<text text-anchor="start" x="398" y="-131" font-family="Helvetica,sans-Serif" font-size="10.00">/media/kavonszadkowski</text>
<text text-anchor="start" x="398" y="-120" font-family="Helvetica,sans-Serif" font-size="10.00">/work/marsdocs/mars/common</text>
<text text-anchor="start" x="398" y="-109" font-family="Helvetica,sans-Serif" font-size="10.00">/graphics/osg_material_manager</text>
<text text-anchor="middle" x="469" y="-98" font-family="Helvetica,sans-Serif" font-size="10.00">/src/shader/shader&#45;generator.h</text>
</a>
</g>
</g>
<!-- Node2&#45;&gt;Node3 -->
<g id="edge2" class="edge"><title>Node2&#45;&gt;Node3</title>
<path fill="none" stroke="midnightblue" d="M436.498,-171.965C442.287,-162.354 448.478,-152.074 453.888,-143.092"/>
<polygon fill="midnightblue" stroke="midnightblue" points="433.491,-170.175 431.33,-180.547 439.487,-173.786 433.491,-170.175"/>
</g>
<!-- Node4 -->
<g id="node4" class="node"><title>Node4</title>
<g id="a_node4"><a xlink:href="../../dd/d2b/_osg_material_8cpp.html" target="_top" xlink:title="/media/kavonszadkowski\l/work/marsdocs/mars/common\l/graphics/osg_material_manager\l/src/OsgMaterial.cpp">
<polygon fill="white" stroke="black" points="283,-1 283,-53 441,-53 441,-1 283,-1"/>
<text text-anchor="start" x="291" y="-41" font-family="Helvetica,sans-Serif" font-size="10.00">/media/kavonszadkowski</text>
<text text-anchor="start" x="291" y="-30" font-family="Helvetica,sans-Serif" font-size="10.00">/work/marsdocs/mars/common</text>
<text text-anchor="start" x="291" y="-19" font-family="Helvetica,sans-Serif" font-size="10.00">/graphics/osg_material_manager</text>
<text text-anchor="middle" x="362" y="-8" font-family="Helvetica,sans-Serif" font-size="10.00">/src/OsgMaterial.cpp</text>
</a>
</g>
</g>
<!-- Node2&#45;&gt;Node4 -->
<g id="edge5" class="edge"><title>Node2&#45;&gt;Node4</title>
<path fill="none" stroke="midnightblue" d="M393.932,-171.901C389.033,-163.096 384.317,-153.433 381,-144 370.372,-113.775 365.633,-76.9935 363.558,-53.0657"/>
<polygon fill="midnightblue" stroke="midnightblue" points="391.005,-173.83 399.053,-180.721 397.059,-170.316 391.005,-173.83"/>
</g>
<!-- Node6 -->
<g id="node6" class="node"><title>Node6</title>
<g id="a_node6"><a xlink:href="../../dc/db6/bumpmapping_8h.html" target="_top" xlink:title="/media/kavonszadkowski\l/work/marsdocs/mars/common\l/graphics/osg_material_manager\l/src/shader/bumpmapping.h">
<polygon fill="white" stroke="black" points="566,-91 566,-143 724,-143 724,-91 566,-91"/>
<text text-anchor="start" x="574" y="-131" font-family="Helvetica,sans-Serif" font-size="10.00">/media/kavonszadkowski</text>
<text text-anchor="start" x="574" y="-120" font-family="Helvetica,sans-Serif" font-size="10.00">/work/marsdocs/mars/common</text>
<text text-anchor="start" x="574" y="-109" font-family="Helvetica,sans-Serif" font-size="10.00">/graphics/osg_material_manager</text>
<text text-anchor="middle" x="645" y="-98" font-family="Helvetica,sans-Serif" font-size="10.00">/src/shader/bumpmapping.h</text>
</a>
</g>
</g>
<!-- Node2&#45;&gt;Node6 -->
<g id="edge6" class="edge"><title>Node2&#45;&gt;Node6</title>
<path fill="none" stroke="midnightblue" d="M490.87,-177.229C519.506,-166.225 551.914,-153.771 579.598,-143.133"/>
<polygon fill="midnightblue" stroke="midnightblue" points="489.395,-174.046 481.316,-180.901 491.906,-180.58 489.395,-174.046"/>
</g>
<!-- Node8 -->
<g id="node8" class="node"><title>Node8</title>
<g id="a_node8"><a xlink:href="../../d0/d27/pixellight_8h.html" target="_top" xlink:title="/media/kavonszadkowski\l/work/marsdocs/mars/common\l/graphics/osg_material_manager\l/src/shader/pixellight.h">
<polygon fill="white" stroke="black" points="0,-91 0,-143 158,-143 158,-91 0,-91"/>
<text text-anchor="start" x="8" y="-131" font-family="Helvetica,sans-Serif" font-size="10.00">/media/kavonszadkowski</text>
<text text-anchor="start" x="8" y="-120" font-family="Helvetica,sans-Serif" font-size="10.00">/work/marsdocs/mars/common</text>
<text text-anchor="start" x="8" y="-109" font-family="Helvetica,sans-Serif" font-size="10.00">/graphics/osg_material_manager</text>
<text text-anchor="middle" x="79" y="-98" font-family="Helvetica,sans-Serif" font-size="10.00">/src/shader/pixellight.h</text>
</a>
</g>
</g>
<!-- Node2&#45;&gt;Node8 -->
<g id="edge9" class="edge"><title>Node2&#45;&gt;Node8</title>
<path fill="none" stroke="midnightblue" d="M327.023,-184.834C279.421,-173.261 219.874,-158.386 167,-144 164.079,-143.205 161.108,-142.385 158.108,-141.548"/>
<polygon fill="midnightblue" stroke="midnightblue" points="326.45,-188.296 336.993,-187.252 328.1,-181.493 326.45,-188.296"/>
</g>
<!-- Node10 -->
<g id="node10" class="node"><title>Node10</title>
<g id="a_node10"><a xlink:href="../../d0/d72/shader-function_8cpp.html" target="_top" xlink:title="/media/kavonszadkowski\l/work/marsdocs/mars/common\l/graphics/osg_material_manager\l/src/shader/shader&#45;function.cpp">
<polygon fill="white" stroke="black" points="176,-91 176,-143 334,-143 334,-91 176,-91"/>
<text text-anchor="start" x="184" y="-131" font-family="Helvetica,sans-Serif" font-size="10.00">/media/kavonszadkowski</text>
<text text-anchor="start" x="184" y="-120" font-family="Helvetica,sans-Serif" font-size="10.00">/work/marsdocs/mars/common</text>
<text text-anchor="start" x="184" y="-109" font-family="Helvetica,sans-Serif" font-size="10.00">/graphics/osg_material_manager</text>
<text text-anchor="middle" x="255" y="-98" font-family="Helvetica,sans-Serif" font-size="10.00">/src/shader/shader&#45;function.cpp</text>
</a>
</g>
</g>
<!-- Node2&#45;&gt;Node10 -->
<g id="edge12" class="edge"><title>Node2&#45;&gt;Node10</title>
<path fill="none" stroke="midnightblue" d="M361.041,-175.96C341.451,-165.253 319.61,-153.315 300.864,-143.069"/>
<polygon fill="midnightblue" stroke="midnightblue" points="359.41,-179.058 369.864,-180.783 362.768,-172.915 359.41,-179.058"/>
</g>
<!-- Node3&#45;&gt;Node4 -->
<g id="edge3" class="edge"><title>Node3&#45;&gt;Node4</title>
<path fill="none" stroke="midnightblue" d="M430.386,-84.2423C417.982,-74.0416 404.419,-62.8871 392.666,-53.221"/>
<polygon fill="midnightblue" stroke="midnightblue" points="428.391,-87.1339 438.338,-90.7827 432.838,-81.7275 428.391,-87.1339"/>
</g>
<!-- Node5 -->
<g id="node5" class="node"><title>Node5</title>
<g id="a_node5"><a xlink:href="../../dc/d40/shader-generator_8cpp.html" target="_top" xlink:title="/media/kavonszadkowski\l/work/marsdocs/mars/common\l/graphics/osg_material_manager\l/src/shader/shader&#45;generator.cpp">
<polygon fill="white" stroke="black" points="459,-1 459,-53 619,-53 619,-1 459,-1"/>
<text text-anchor="start" x="467" y="-41" font-family="Helvetica,sans-Serif" font-size="10.00">/media/kavonszadkowski</text>
<text text-anchor="start" x="467" y="-30" font-family="Helvetica,sans-Serif" font-size="10.00">/work/marsdocs/mars/common</text>
<text text-anchor="start" x="467" y="-19" font-family="Helvetica,sans-Serif" font-size="10.00">/graphics/osg_material_manager</text>
<text text-anchor="middle" x="539" y="-8" font-family="Helvetica,sans-Serif" font-size="10.00">/src/shader/shader&#45;generator.cpp</text>
</a>
</g>
</g>
<!-- Node3&#45;&gt;Node5 -->
<g id="edge4" class="edge"><title>Node3&#45;&gt;Node5</title>
<path fill="none" stroke="midnightblue" d="M495.606,-82.5528C503.384,-72.7746 511.75,-62.2575 519.04,-53.0921"/>
<polygon fill="midnightblue" stroke="midnightblue" points="492.733,-80.5419 489.247,-90.5468 498.211,-84.8996 492.733,-80.5419"/>
</g>
<!-- Node6&#45;&gt;Node4 -->
<g id="edge7" class="edge"><title>Node6&#45;&gt;Node4</title>
<path fill="none" stroke="midnightblue" d="M556.065,-88.3454C519.254,-76.8989 476.911,-63.7321 441.188,-52.624"/>
<polygon fill="midnightblue" stroke="midnightblue" points="555.204,-91.7429 565.792,-91.3701 557.283,-85.0586 555.204,-91.7429"/>
</g>
<!-- Node6&#45;&gt;Node7 -->
<g id="edge8" class="edge"><title>Node6&#45;&gt;Node7</title>
<path fill="none" stroke="midnightblue" d="M677.939,-83.4308C688.077,-73.4069 699.075,-62.5325 708.623,-53.0921"/>
<polygon fill="midnightblue" stroke="midnightblue" points="675.393,-81.0269 670.742,-90.5468 680.314,-86.0045 675.393,-81.0269"/>
</g>
<!-- Node8&#45;&gt;Node4 -->
<g id="edge10" class="edge"><title>Node8&#45;&gt;Node4</title>
<path fill="none" stroke="midnightblue" d="M167.935,-88.3454C204.746,-76.8989 247.089,-63.7321 282.812,-52.624"/>
<polygon fill="midnightblue" stroke="midnightblue" points="166.717,-85.0586 158.208,-91.3701 168.796,-91.7429 166.717,-85.0586"/>
</g>
<!-- Node9 -->
<g id="node9" class="node"><title>Node9</title>
<g id="a_node9"><a xlink:href="../../dd/df6/pixellight_8cpp.html" target="_top" xlink:title="/media/kavonszadkowski\l/work/marsdocs/mars/common\l/graphics/osg_material_manager\l/src/shader/pixellight.cpp">
<polygon fill="white" stroke="black" points="0,-1 0,-53 158,-53 158,-1 0,-1"/>
<text text-anchor="start" x="8" y="-41" font-family="Helvetica,sans-Serif" font-size="10.00">/media/kavonszadkowski</text>
<text text-anchor="start" x="8" y="-30" font-family="Helvetica,sans-Serif" font-size="10.00">/work/marsdocs/mars/common</text>
<text text-anchor="start" x="8" y="-19" font-family="Helvetica,sans-Serif" font-size="10.00">/graphics/osg_material_manager</text>
<text text-anchor="middle" x="79" y="-8" font-family="Helvetica,sans-Serif" font-size="10.00">/src/shader/pixellight.cpp</text>
</a>
</g>
</g>
<!-- Node8&#45;&gt;Node9 -->
<g id="edge11" class="edge"><title>Node8&#45;&gt;Node9</title>
<path fill="none" stroke="midnightblue" d="M79,-80.4892C79,-71.3088 79,-61.616 79,-53.0921"/>
<polygon fill="midnightblue" stroke="midnightblue" points="75.5001,-80.5467 79,-90.5468 82.5001,-80.5468 75.5001,-80.5467"/>
</g>
</g>
</svg>
