<?xml version="1.0" encoding="UTF-8" standalone="no"?>
<!DOCTYPE svg PUBLIC "-//W3C//DTD SVG 1.1//EN"
 "http://www.w3.org/Graphics/SVG/1.1/DTD/svg11.dtd">
<!-- Generated by graphviz version 2.36.0 (20140111.2315)
 -->
<!-- Title: /media/kavonszadkowski/work/marsdocs/mars/common/gui/cfg_manager_gui/src/MainCfgGui.cpp Pages: 1 -->
<svg width="1263pt" height="242pt"
 viewBox="0.00 0.00 1263.00 242.00" xmlns="http://www.w3.org/2000/svg" xmlns:xlink="http://www.w3.org/1999/xlink">
<g id="graph0" class="graph" transform="scale(1 1) rotate(0) translate(4 238)">
<title>/media/kavonszadkowski/work/marsdocs/mars/common/gui/cfg_manager_gui/src/MainCfgGui.cpp</title>
<polygon fill="white" stroke="none" points="-4,4 -4,-238 1259,-238 1259,4 -4,4"/>
<!-- Node1 -->
<g id="node1" class="node"><title>Node1</title>
<polygon fill="#bfbfbf" stroke="black" points="731,-181 731,-233 883,-233 883,-181 731,-181"/>
<text text-anchor="start" x="739" y="-221" font-family="Helvetica,sans-Serif" font-size="10.00">/media/kavonszadkowski</text>
<text text-anchor="start" x="739" y="-210" font-family="Helvetica,sans-Serif" font-size="10.00">/work/marsdocs/mars/common</text>
<text text-anchor="start" x="739" y="-199" font-family="Helvetica,sans-Serif" font-size="10.00">/gui/cfg_manager_gui/src</text>
<text text-anchor="middle" x="807" y="-188" font-family="Helvetica,sans-Serif" font-size="10.00">/MainCfgGui.cpp</text>
</g>
<!-- Node2 -->
<g id="node2" class="node"><title>Node2</title>
<g id="a_node2"><a xlink:href="../../de/d07/_main_cfg_gui_8h.html" target="_top" xlink:title="MainCfgGui.h">
<polygon fill="white" stroke="black" points="690.5,-124.5 690.5,-143.5 767.5,-143.5 767.5,-124.5 690.5,-124.5"/>
<text text-anchor="middle" x="729" y="-131.5" font-family="Helvetica,sans-Serif" font-size="10.00">MainCfgGui.h</text>
</a>
</g>
</g>
<!-- Node1&#45;&gt;Node2 -->
<g id="edge1" class="edge"><title>Node1&#45;&gt;Node2</title>
<path fill="none" stroke="midnightblue" d="M779.28,-180.768C768.197,-170.679 755.783,-159.379 746.063,-150.532"/>
<polygon fill="midnightblue" stroke="midnightblue" points="748.372,-147.9 738.621,-143.757 743.66,-153.077 748.372,-147.9"/>
</g>
<!-- Node18 -->
<g id="node18" class="node"><title>Node18</title>
<polygon fill="white" stroke="#bfbfbf" points="785.5,-124.5 785.5,-143.5 828.5,-143.5 828.5,-124.5 785.5,-124.5"/>
<text text-anchor="middle" x="807" y="-131.5" font-family="Helvetica,sans-Serif" font-size="10.00">cstdio</text>
</g>
<!-- Node1&#45;&gt;Node18 -->
<g id="edge19" class="edge"><title>Node1&#45;&gt;Node18</title>
<path fill="none" stroke="midnightblue" d="M807,-180.768C807,-171.89 807,-162.074 807,-153.816"/>
<polygon fill="midnightblue" stroke="midnightblue" points="810.5,-153.757 807,-143.757 803.5,-153.757 810.5,-153.757"/>
</g>
<!-- Node19 -->
<g id="node19" class="node"><title>Node19</title>
<polygon fill="white" stroke="#bfbfbf" points="847,-124.5 847,-143.5 901,-143.5 901,-124.5 847,-124.5"/>
<text text-anchor="middle" x="874" y="-131.5" font-family="Helvetica,sans-Serif" font-size="10.00">iostream</text>
</g>
<!-- Node1&#45;&gt;Node19 -->
<g id="edge20" class="edge"><title>Node1&#45;&gt;Node19</title>
<path fill="none" stroke="midnightblue" d="M830.81,-180.768C840.141,-170.881 850.568,-159.831 858.84,-151.066"/>
<polygon fill="midnightblue" stroke="midnightblue" points="861.418,-153.432 865.736,-143.757 856.327,-148.628 861.418,-153.432"/>
</g>
<!-- Node3 -->
<g id="node3" class="node"><title>Node3</title>
<g id="a_node3"><a xlink:href="../../db/d28/_cfg_widget_8h.html" target="_top" xlink:title="CfgWidget.h">
<polygon fill="white" stroke="black" points="277.5,-68.5 277.5,-87.5 348.5,-87.5 348.5,-68.5 277.5,-68.5"/>
<text text-anchor="middle" x="313" y="-75.5" font-family="Helvetica,sans-Serif" font-size="10.00">CfgWidget.h</text>
</a>
</g>
</g>
<!-- Node2&#45;&gt;Node3 -->
<g id="edge2" class="edge"><title>Node2&#45;&gt;Node3</title>
<path fill="none" stroke="midnightblue" d="M690.437,-128.974C623.606,-121.837 482.003,-106.012 363,-88 361.556,-87.7814 360.089,-87.5534 358.609,-87.3181"/>
<polygon fill="midnightblue" stroke="midnightblue" points="359.177,-83.8646 348.739,-85.6828 358.032,-90.7705 359.177,-83.8646"/>
</g>
<!-- Node6 -->
<g id="node6" class="node"><title>Node6</title>
<polygon fill="white" stroke="#bfbfbf" points="-0.5,-6.5 -0.5,-25.5 50.5,-25.5 50.5,-6.5 -0.5,-6.5"/>
<text text-anchor="middle" x="25" y="-13.5" font-family="Helvetica,sans-Serif" font-size="10.00">QMutex</text>
</g>
<!-- Node2&#45;&gt;Node6 -->
<g id="edge17" class="edge"><title>Node2&#45;&gt;Node6</title>
<path fill="none" stroke="midnightblue" d="M690.456,-131.382C610.923,-127.572 423.08,-116.148 268,-88 173.38,-70.8262 149.704,-63.9469 59,-32 56.874,-31.2512 54.6949,-30.4274 52.517,-29.563"/>
<polygon fill="midnightblue" stroke="midnightblue" points="53.7183,-26.2713 43.1435,-25.6204 51.0044,-32.7238 53.7183,-26.2713"/>
</g>
<!-- Node7 -->
<g id="node7" class="node"><title>Node7</title>
<polygon fill="white" stroke="#bfbfbf" points="634.5,-1 634.5,-31 793.5,-31 793.5,-1 634.5,-1"/>
<text text-anchor="start" x="642.5" y="-19" font-family="Helvetica,sans-Serif" font-size="10.00">mars/cfg_manager/CFGManager</text>
<text text-anchor="middle" x="714" y="-8" font-family="Helvetica,sans-Serif" font-size="10.00">Interface.h</text>
</g>
<!-- Node2&#45;&gt;Node7 -->
<g id="edge13" class="edge"><title>Node2&#45;&gt;Node7</title>
<path fill="none" stroke="midnightblue" d="M690.231,-133.807C610.978,-134.536 434.694,-131.148 397,-88 347.93,-31.8303 212.666,-98.5655 624.292,-32.0987"/>
<polygon fill="midnightblue" stroke="midnightblue" points="625.121,-35.5101 634.43,-30.4526 623.999,-28.6005 625.121,-35.5101"/>
</g>
<!-- Node11 -->
<g id="node11" class="node"><title>Node11</title>
<polygon fill="white" stroke="#bfbfbf" points="405.5,-68.5 405.5,-87.5 550.5,-87.5 550.5,-68.5 405.5,-68.5"/>
<text text-anchor="middle" x="478" y="-75.5" font-family="Helvetica,sans-Serif" font-size="10.00">mars/main_gui/GuiInterface.h</text>
</g>
<!-- Node2&#45;&gt;Node11 -->
<g id="edge10" class="edge"><title>Node2&#45;&gt;Node11</title>
<path fill="none" stroke="midnightblue" d="M690.331,-124.681C646.553,-115.262 575.125,-99.8953 527.357,-89.6186"/>
<polygon fill="midnightblue" stroke="midnightblue" points="528.054,-86.1885 517.541,-87.5069 526.581,-93.032 528.054,-86.1885"/>
</g>
<!-- Node12 -->
<g id="node12" class="node"><title>Node12</title>
<polygon fill="white" stroke="#bfbfbf" points="569,-68.5 569,-87.5 723,-87.5 723,-68.5 569,-68.5"/>
<text text-anchor="middle" x="646" y="-75.5" font-family="Helvetica,sans-Serif" font-size="10.00">mars/main_gui/MenuInterface.h</text>
</g>
<!-- Node2&#45;&gt;Node12 -->
<g id="edge11" class="edge"><title>Node2&#45;&gt;Node12</title>
<path fill="none" stroke="midnightblue" d="M715.665,-124.324C702.838,-115.979 683.215,-103.212 668.06,-93.3524"/>
<polygon fill="midnightblue" stroke="midnightblue" points="669.593,-90.1742 659.302,-87.6545 665.776,-96.0417 669.593,-90.1742"/>
</g>
<!-- Node13 -->
<g id="node13" class="node"><title>Node13</title>
<polygon fill="white" stroke="#bfbfbf" points="741,-68.5 741,-87.5 883,-87.5 883,-68.5 741,-68.5"/>
<text text-anchor="middle" x="812" y="-75.5" font-family="Helvetica,sans-Serif" font-size="10.00">lib_manager/LibInterface.hpp</text>
</g>
<!-- Node2&#45;&gt;Node13 -->
<g id="edge12" class="edge"><title>Node2&#45;&gt;Node13</title>
<path fill="none" stroke="midnightblue" d="M742.335,-124.324C755.162,-115.979 774.785,-103.212 789.94,-93.3524"/>
<polygon fill="midnightblue" stroke="midnightblue" points="792.224,-96.0417 798.698,-87.6545 788.407,-90.1742 792.224,-96.0417"/>
</g>
<!-- Node14 -->
<g id="node14" class="node"><title>Node14</title>
<polygon fill="white" stroke="#bfbfbf" points="901.5,-68.5 901.5,-87.5 1056.5,-87.5 1056.5,-68.5 901.5,-68.5"/>
<text text-anchor="middle" x="979" y="-75.5" font-family="Helvetica,sans-Serif" font-size="10.00">mars/cfg_manager/CFGClient.h</text>
</g>
<!-- Node2&#45;&gt;Node14 -->
<g id="edge14" class="edge"><title>Node2&#45;&gt;Node14</title>
<path fill="none" stroke="midnightblue" d="M767.515,-124.681C811.119,-115.262 882.262,-99.8953 929.84,-89.6186"/>
<polygon fill="midnightblue" stroke="midnightblue" points="930.581,-93.0394 939.616,-87.5069 929.103,-86.1972 930.581,-93.0394"/>
</g>
<!-- Node15 -->
<g id="node15" class="node"><title>Node15</title>
<polygon fill="white" stroke="#bfbfbf" points="1074.5,-68.5 1074.5,-87.5 1115.5,-87.5 1115.5,-68.5 1074.5,-68.5"/>
<text text-anchor="middle" x="1095" y="-75.5" font-family="Helvetica,sans-Serif" font-size="10.00">string</text>
</g>
<!-- Node2&#45;&gt;Node15 -->
<g id="edge15" class="edge"><title>Node2&#45;&gt;Node15</title>
<path fill="none" stroke="midnightblue" d="M767.738,-125.527C770.867,-124.987 773.984,-124.471 777,-124 901.217,-104.61 936.978,-114.112 1064.32,-87.7867"/>
<polygon fill="midnightblue" stroke="midnightblue" points="1065.39,-91.1371 1074.46,-85.6551 1063.95,-84.2868 1065.39,-91.1371"/>
</g>
<!-- Node16 -->
<g id="node16" class="node"><title>Node16</title>
<polygon fill="white" stroke="#bfbfbf" points="1133.5,-68.5 1133.5,-87.5 1162.5,-87.5 1162.5,-68.5 1133.5,-68.5"/>
<text text-anchor="middle" x="1148" y="-75.5" font-family="Helvetica,sans-Serif" font-size="10.00">list</text>
</g>
<!-- Node2&#45;&gt;Node16 -->
<g id="edge16" class="edge"><title>Node2&#45;&gt;Node16</title>
<path fill="none" stroke="midnightblue" d="M767.727,-125.457C770.859,-124.933 773.979,-124.439 777,-124 927.141,-102.174 971.188,-122.593 1123.28,-87.519"/>
<polygon fill="midnightblue" stroke="midnightblue" points="1124.53,-90.8224 1133.46,-85.1275 1122.93,-84.008 1124.53,-90.8224"/>
</g>
<!-- Node17 -->
<g id="node17" class="node"><title>Node17</title>
<polygon fill="white" stroke="#bfbfbf" points="1181,-68.5 1181,-87.5 1255,-87.5 1255,-68.5 1181,-68.5"/>
<text text-anchor="middle" x="1218" y="-75.5" font-family="Helvetica,sans-Serif" font-size="10.00">QTimerEvent</text>
</g>
<!-- Node2&#45;&gt;Node17 -->
<g id="edge18" class="edge"><title>Node2&#45;&gt;Node17</title>
<path fill="none" stroke="midnightblue" d="M767.721,-125.416C770.855,-124.901 773.977,-124.421 777,-124 947.932,-100.22 995.143,-112.103 1170.76,-87.8747"/>
<polygon fill="midnightblue" stroke="midnightblue" points="1171.44,-91.3135 1180.86,-86.4613 1170.47,-84.3811 1171.44,-91.3135"/>
</g>
<!-- Node4 -->
<g id="node4" class="node"><title>Node4</title>
<polygon fill="white" stroke="#bfbfbf" points="68.5,-6.5 68.5,-25.5 123.5,-25.5 123.5,-6.5 68.5,-6.5"/>
<text text-anchor="middle" x="96" y="-13.5" font-family="Helvetica,sans-Serif" font-size="10.00">QWidget</text>
</g>
<!-- Node3&#45;&gt;Node4 -->
<g id="edge3" class="edge"><title>Node3&#45;&gt;Node4</title>
<path fill="none" stroke="midnightblue" d="M277.172,-69.7677C240.327,-61.9416 181.498,-48.3612 132,-32 129.581,-31.2005 127.096,-30.312 124.615,-29.3779"/>
<polygon fill="midnightblue" stroke="midnightblue" points="125.813,-26.0874 115.227,-25.6413 123.224,-32.5912 125.813,-26.0874"/>
</g>
<!-- Node5 -->
<g id="node5" class="node"><title>Node5</title>
<polygon fill="white" stroke="#bfbfbf" points="141.5,-6.5 141.5,-25.5 216.5,-25.5 216.5,-6.5 141.5,-6.5"/>
<text text-anchor="middle" x="179" y="-13.5" font-family="Helvetica,sans-Serif" font-size="10.00">QCloseEvent</text>
</g>
<!-- Node3&#45;&gt;Node5 -->
<g id="edge4" class="edge"><title>Node3&#45;&gt;Node5</title>
<path fill="none" stroke="midnightblue" d="M293.801,-68.4035C271.213,-58.2896 233.501,-41.4036 207.499,-29.761"/>
<polygon fill="midnightblue" stroke="midnightblue" points="208.721,-26.4729 198.163,-25.5806 205.86,-32.8617 208.721,-26.4729"/>
</g>
<!-- Node3&#45;&gt;Node6 -->
<g id="edge5" class="edge"><title>Node3&#45;&gt;Node6</title>
<path fill="none" stroke="midnightblue" d="M277.449,-73.4295C227.749,-67.8269 135.048,-55.1432 59,-32 56.5697,-31.2604 54.0826,-30.3935 51.6138,-29.4558"/>
<polygon fill="midnightblue" stroke="midnightblue" points="52.9187,-26.208 42.3408,-25.6093 50.2366,-32.6738 52.9187,-26.208"/>
</g>
<!-- Node3&#45;&gt;Node7 -->
<g id="edge6" class="edge"><title>Node3&#45;&gt;Node7</title>
<path fill="none" stroke="midnightblue" d="M348.749,-70.3791C353.535,-69.5473 358.383,-68.7324 363,-68 475.913,-50.0884 507.122,-49.7731 624.349,-32.067"/>
<polygon fill="midnightblue" stroke="midnightblue" points="625.083,-35.4957 634.443,-30.5317 624.03,-28.5753 625.083,-35.4957"/>
</g>
<!-- Node8 -->
<g id="node8" class="node"><title>Node8</title>
<polygon fill="white" stroke="#bfbfbf" points="235,-6.5 235,-25.5 391,-25.5 391,-6.5 235,-6.5"/>
<text text-anchor="middle" x="313" y="-13.5" font-family="Helvetica,sans-Serif" font-size="10.00">mars/main_gui/PropertyDialog.h</text>
</g>
<!-- Node3&#45;&gt;Node8 -->
<g id="edge7" class="edge"><title>Node3&#45;&gt;Node8</title>
<path fill="none" stroke="midnightblue" d="M313,-68.4035C313,-59.9381 313,-46.7283 313,-35.8199"/>
<polygon fill="midnightblue" stroke="midnightblue" points="316.5,-35.5806 313,-25.5806 309.5,-35.5806 316.5,-35.5806"/>
</g>
<!-- Node9 -->
<g id="node9" class="node"><title>Node9</title>
<polygon fill="white" stroke="#bfbfbf" points="409.5,-6.5 409.5,-25.5 554.5,-25.5 554.5,-6.5 409.5,-6.5"/>
<text text-anchor="middle" x="482" y="-13.5" font-family="Helvetica,sans-Serif" font-size="10.00">mars/main_gui/BaseWidget.h</text>
</g>
<!-- Node3&#45;&gt;Node9 -->
<g id="edge8" class="edge"><title>Node3&#45;&gt;Node9</title>
<path fill="none" stroke="midnightblue" d="M337.214,-68.4035C366.329,-58.0668 415.368,-40.6564 448.202,-28.9994"/>
<polygon fill="midnightblue" stroke="midnightblue" points="449.579,-32.2247 457.831,-25.5806 447.237,-25.6281 449.579,-32.2247"/>
</g>
<!-- Node10 -->
<g id="node10" class="node"><title>Node10</title>
<polygon fill="white" stroke="#bfbfbf" points="573,-6.5 573,-25.5 617,-25.5 617,-6.5 573,-6.5"/>
<text text-anchor="middle" x="595" y="-13.5" font-family="Helvetica,sans-Serif" font-size="10.00">vector</text>
</g>
<!-- Node3&#45;&gt;Node10 -->
<g id="edge9" class="edge"><title>Node3&#45;&gt;Node10</title>
<path fill="none" stroke="midnightblue" d="M348.526,-70.609C417.498,-58.2009 562.84,-32.051 563,-32 565.138,-31.3195 567.317,-30.5273 569.484,-29.6694"/>
<polygon fill="midnightblue" stroke="midnightblue" points="570.962,-32.8428 578.722,-25.6287 568.157,-26.4295 570.962,-32.8428"/>
</g>
</g>
</svg>
