<?xml version="1.0" encoding="UTF-8" standalone="no"?>
<!DOCTYPE svg PUBLIC "-//W3C//DTD SVG 1.1//EN"
 "http://www.w3.org/Graphics/SVG/1.1/DTD/svg11.dtd">
<!-- Generated by graphviz version 2.26.3 (20100126.1600)
 -->
<!-- Title: /home/kavonszadkowski/limes&#45;dev/simulation/mars/plugins/mars_plugin_collection/CaveDemoHudControl/src/ControlWidget.h Pages: 1 -->
<svg width="172pt" height="140pt"
 viewBox="0.00 0.00 172.00 140.00" xmlns="http://www.w3.org/2000/svg" xmlns:xlink="http://www.w3.org/1999/xlink">
<g id="graph1" class="graph" transform="scale(1 1) rotate(0) translate(4 136)">
<title>/home/kavonszadkowski/limes&#45;dev/simulation/mars/plugins/mars_plugin_collection/CaveDemoHudControl/src/ControlWidget.h</title>
<polygon fill="white" stroke="white" points="-4,5 -4,-136 169,-136 169,5 -4,5"/>
<!-- Node1 -->
<g id="node1" class="node"><title>Node1</title>
<polygon fill="#bfbfbf" stroke="black" points="-0.5,-58.5 -0.5,-131.5 164.5,-131.5 164.5,-58.5 -0.5,-58.5"/>
<text text-anchor="start" x="7.5" y="-118.5" font-family="Helvetica,sans-Serif" font-size="10.00">/home/kavonszadkowski</text>
<text text-anchor="start" x="7.5" y="-105.5" font-family="Helvetica,sans-Serif" font-size="10.00">/limes&#45;dev/simulation</text>
<text text-anchor="start" x="7.5" y="-92.5" font-family="Helvetica,sans-Serif" font-size="10.00">/mars/plugins/mars_plugin</text>
<text text-anchor="start" x="7.5" y="-79.5" font-family="Helvetica,sans-Serif" font-size="10.00">_collection/CaveDemoHudControl</text>
<text text-anchor="middle" x="82" y="-66.5" font-family="Helvetica,sans-Serif" font-size="10.00">/src/ControlWidget.h</text>
</g>
<!-- Node2 -->
<g id="node3" class="node"><title>Node2</title>
<polygon fill="white" stroke="#bfbfbf" points="19.5,-0.5 19.5,-21.5 74.5,-21.5 74.5,-0.5 19.5,-0.5"/>
<text text-anchor="middle" x="47" y="-8.5" font-family="Helvetica,sans-Serif" font-size="10.00">QWidget</text>
</g>
<!-- Node1&#45;&gt;Node2 -->
<g id="edge2" class="edge"><title>Node1&#45;&gt;Node2</title>
<path fill="none" stroke="midnightblue" d="M66.7503,-58.4007C62.8645,-49.0749 58.8282,-39.3878 55.425,-31.22"/>
<polygon fill="midnightblue" stroke="midnightblue" points="58.5888,-29.7129 51.5118,-21.8283 52.1272,-32.4053 58.5888,-29.7129"/>
</g>
<!-- Node3 -->
<g id="node5" class="node"><title>Node3</title>
<polygon fill="white" stroke="#bfbfbf" points="92,-0.5 92,-21.5 142,-21.5 142,-0.5 92,-0.5"/>
<text text-anchor="middle" x="117" y="-8.5" font-family="Helvetica,sans-Serif" font-size="10.00">QString</text>
</g>
<!-- Node1&#45;&gt;Node3 -->
<g id="edge4" class="edge"><title>Node1&#45;&gt;Node3</title>
<path fill="none" stroke="midnightblue" d="M97.2497,-58.4007C101.135,-49.0749 105.172,-39.3878 108.575,-31.22"/>
<polygon fill="midnightblue" stroke="midnightblue" points="111.873,-32.4053 112.488,-21.8283 105.411,-29.7129 111.873,-32.4053"/>
</g>
</g>
</svg>
