<?xml version="1.0" encoding="UTF-8" standalone="no"?>
<!DOCTYPE svg PUBLIC "-//W3C//DTD SVG 1.1//EN"
 "http://www.w3.org/Graphics/SVG/1.1/DTD/svg11.dtd">
<!-- Generated by graphviz version 2.36.0 (20140111.2315)
 -->
<!-- Title: /media/kavonszadkowski/work/marsdocs/mars/common/data_broker/src/DataBrokerInterface.h Pages: 1 -->
<svg width="519pt" height="218pt"
 viewBox="0.00 0.00 519.09 218.00" xmlns="http://www.w3.org/2000/svg" xmlns:xlink="http://www.w3.org/1999/xlink">
<g id="graph0" class="graph" transform="scale(1 1) rotate(0) translate(4 214)">
<title>/media/kavonszadkowski/work/marsdocs/mars/common/data_broker/src/DataBrokerInterface.h</title>
<polygon fill="white" stroke="none" points="-4,4 -4,-214 515.092,-214 515.092,4 -4,4"/>
<!-- Node1 -->
<g id="node1" class="node"><title>Node1</title>
<polygon fill="#bfbfbf" stroke="black" points="162.092,-168.5 162.092,-209.5 348.092,-209.5 348.092,-168.5 162.092,-168.5"/>
<text text-anchor="start" x="170.092" y="-197.5" font-family="Helvetica,sans-Serif" font-size="10.00">/media/kavonszadkowski</text>
<text text-anchor="start" x="170.092" y="-186.5" font-family="Helvetica,sans-Serif" font-size="10.00">/work/marsdocs/mars/common</text>
<text text-anchor="middle" x="255.092" y="-175.5" font-family="Helvetica,sans-Serif" font-size="10.00">/data_broker/src/DataBrokerInterface.h</text>
</g>
<!-- Node2 -->
<g id="node2" class="node"><title>Node2</title>
<g id="a_node2"><a xlink:href="../../dd/dc5/_data_package_8h.html" target="_top" xlink:title="DataPackage.h">
<polygon fill="white" stroke="black" points="95.092,-112.5 95.092,-131.5 179.092,-131.5 179.092,-112.5 95.092,-112.5"/>
<text text-anchor="middle" x="137.092" y="-119.5" font-family="Helvetica,sans-Serif" font-size="10.00">DataPackage.h</text>
</a>
</g>
</g>
<!-- Node1&#45;&gt;Node2 -->
<g id="edge1" class="edge"><title>Node1&#45;&gt;Node2</title>
<path fill="none" stroke="midnightblue" d="M219.688,-168.498C201.075,-158.245 178.71,-145.925 161.949,-136.693"/>
<polygon fill="midnightblue" stroke="midnightblue" points="163.247,-133.412 152.8,-131.652 159.87,-139.543 163.247,-133.412"/>
</g>
<!-- Node4 -->
<g id="node4" class="node"><title>Node4</title>
<polygon fill="white" stroke="#bfbfbf" points="54.092,-0.5 54.092,-19.5 98.092,-19.5 98.092,-0.5 54.092,-0.5"/>
<text text-anchor="middle" x="76.092" y="-7.5" font-family="Helvetica,sans-Serif" font-size="10.00">vector</text>
</g>
<!-- Node1&#45;&gt;Node4 -->
<g id="edge13" class="edge"><title>Node1&#45;&gt;Node4</title>
<path fill="none" stroke="midnightblue" d="M161.998,-175.365C103.632,-161.817 33.825,-133.809 3.09199,-76 -9.12764,-53.0146 19.5098,-34.2364 44.4267,-22.8767"/>
<polygon fill="midnightblue" stroke="midnightblue" points="45.8944,-26.0555 53.7012,-18.8929 43.1316,-19.6238 45.8944,-26.0555"/>
</g>
<!-- Node5 -->
<g id="node5" class="node"><title>Node5</title>
<polygon fill="white" stroke="#bfbfbf" points="196.592,-0.5 196.592,-19.5 237.592,-19.5 237.592,-0.5 196.592,-0.5"/>
<text text-anchor="middle" x="217.092" y="-7.5" font-family="Helvetica,sans-Serif" font-size="10.00">string</text>
</g>
<!-- Node1&#45;&gt;Node5 -->
<g id="edge12" class="edge"><title>Node1&#45;&gt;Node5</title>
<path fill="none" stroke="midnightblue" d="M250.88,-168.382C243.484,-133.932 228.265,-63.0422 221.051,-29.4424"/>
<polygon fill="midnightblue" stroke="midnightblue" points="224.456,-28.6263 218.935,-19.5838 217.612,-30.0957 224.456,-28.6263"/>
</g>
<!-- Node7 -->
<g id="node7" class="node"><title>Node7</title>
<g id="a_node7"><a xlink:href="../../dc/d8b/_data_info_8h.html" target="_top" xlink:title="DataInfo.h">
<polygon fill="white" stroke="black" points="264.092,-56.5 264.092,-75.5 326.092,-75.5 326.092,-56.5 264.092,-56.5"/>
<text text-anchor="middle" x="295.092" y="-63.5" font-family="Helvetica,sans-Serif" font-size="10.00">DataInfo.h</text>
</a>
</g>
</g>
<!-- Node1&#45;&gt;Node7 -->
<g id="edge8" class="edge"><title>Node1&#45;&gt;Node7</title>
<path fill="none" stroke="midnightblue" d="M261.608,-168.29C269.218,-145.27 281.702,-107.503 289.086,-85.1677"/>
<polygon fill="midnightblue" stroke="midnightblue" points="292.442,-86.168 292.257,-75.5748 285.795,-83.9709 292.442,-86.168"/>
</g>
<!-- Node8 -->
<g id="node8" class="node"><title>Node8</title>
<polygon fill="white" stroke="#bfbfbf" points="302.092,-112.5 302.092,-131.5 444.092,-131.5 444.092,-112.5 302.092,-112.5"/>
<text text-anchor="middle" x="373.092" y="-119.5" font-family="Helvetica,sans-Serif" font-size="10.00">lib_manager/LibInterface.hpp</text>
</g>
<!-- Node1&#45;&gt;Node8 -->
<g id="edge10" class="edge"><title>Node1&#45;&gt;Node8</title>
<path fill="none" stroke="midnightblue" d="M290.496,-168.498C309.109,-158.245 331.474,-145.925 348.235,-136.693"/>
<polygon fill="midnightblue" stroke="midnightblue" points="350.314,-139.543 357.384,-131.652 346.937,-133.412 350.314,-139.543"/>
</g>
<!-- Node9 -->
<g id="node9" class="node"><title>Node9</title>
<polygon fill="white" stroke="#bfbfbf" points="462.592,-112.5 462.592,-131.5 511.592,-131.5 511.592,-112.5 462.592,-112.5"/>
<text text-anchor="middle" x="487.092" y="-119.5" font-family="Helvetica,sans-Serif" font-size="10.00">cstdarg</text>
</g>
<!-- Node1&#45;&gt;Node9 -->
<g id="edge11" class="edge"><title>Node1&#45;&gt;Node9</title>
<path fill="none" stroke="midnightblue" d="M324.7,-168.498C366.914,-156.671 418.942,-142.094 452.551,-132.677"/>
<polygon fill="midnightblue" stroke="midnightblue" points="453.673,-135.998 462.358,-129.93 451.785,-129.257 453.673,-135.998"/>
</g>
<!-- Node3 -->
<g id="node3" class="node"><title>Node3</title>
<g id="a_node3"><a xlink:href="../../da/d5a/_data_item_8h.html" target="_top" xlink:title="DataItem.h">
<polygon fill="white" stroke="black" points="104.592,-56.5 104.592,-75.5 169.592,-75.5 169.592,-56.5 104.592,-56.5"/>
<text text-anchor="middle" x="137.092" y="-63.5" font-family="Helvetica,sans-Serif" font-size="10.00">DataItem.h</text>
</a>
</g>
</g>
<!-- Node2&#45;&gt;Node3 -->
<g id="edge2" class="edge"><title>Node2&#45;&gt;Node3</title>
<path fill="none" stroke="midnightblue" d="M137.092,-112.083C137.092,-105.006 137.092,-94.8611 137.092,-85.9865"/>
<polygon fill="midnightblue" stroke="midnightblue" points="140.592,-85.751 137.092,-75.7511 133.592,-85.7511 140.592,-85.751"/>
</g>
<!-- Node2&#45;&gt;Node4 -->
<g id="edge6" class="edge"><title>Node2&#45;&gt;Node4</title>
<path fill="none" stroke="midnightblue" d="M126.649,-112.397C117.133,-104.028 103.342,-90.4869 95.092,-76 86.9106,-61.633 81.9843,-43.4364 79.2057,-29.9527"/>
<polygon fill="midnightblue" stroke="midnightblue" points="82.6112,-29.1201 77.3525,-19.9225 75.7277,-30.392 82.6112,-29.1201"/>
</g>
<!-- Node2&#45;&gt;Node5 -->
<g id="edge7" class="edge"><title>Node2&#45;&gt;Node5</title>
<path fill="none" stroke="midnightblue" d="M145.806,-112.485C154.506,-103.753 167.998,-89.567 178.092,-76 189.36,-60.8555 200.245,-42.2759 207.638,-28.8651"/>
<polygon fill="midnightblue" stroke="midnightblue" points="210.884,-30.2213 212.56,-19.7598 204.726,-26.8926 210.884,-30.2213"/>
</g>
<!-- Node6 -->
<g id="node6" class="node"><title>Node6</title>
<polygon fill="white" stroke="#bfbfbf" points="12.592,-56.5 12.592,-75.5 47.592,-75.5 47.592,-56.5 12.592,-56.5"/>
<text text-anchor="middle" x="30.092" y="-63.5" font-family="Helvetica,sans-Serif" font-size="10.00">map</text>
</g>
<!-- Node2&#45;&gt;Node6 -->
<g id="edge5" class="edge"><title>Node2&#45;&gt;Node6</title>
<path fill="none" stroke="midnightblue" d="M119.901,-112.324C102.741,-103.664 76.1463,-90.2424 56.3447,-80.249"/>
<polygon fill="midnightblue" stroke="midnightblue" points="57.7452,-77.0354 47.2407,-75.6545 54.5913,-83.2847 57.7452,-77.0354"/>
</g>
<!-- Node3&#45;&gt;Node4 -->
<g id="edge3" class="edge"><title>Node3&#45;&gt;Node4</title>
<path fill="none" stroke="midnightblue" d="M127.291,-56.324C118.274,-48.3414 104.686,-36.3128 93.7739,-26.6529"/>
<polygon fill="midnightblue" stroke="midnightblue" points="95.8786,-23.8416 86.071,-19.8339 91.2387,-29.083 95.8786,-23.8416"/>
</g>
<!-- Node3&#45;&gt;Node5 -->
<g id="edge4" class="edge"><title>Node3&#45;&gt;Node5</title>
<path fill="none" stroke="midnightblue" d="M149.945,-56.324C162.308,-47.979 181.222,-35.2122 195.829,-25.3524"/>
<polygon fill="midnightblue" stroke="midnightblue" points="197.94,-28.1503 204.27,-19.6545 194.024,-22.3483 197.94,-28.1503"/>
</g>
<!-- Node7&#45;&gt;Node5 -->
<g id="edge9" class="edge"><title>Node7&#45;&gt;Node5</title>
<path fill="none" stroke="midnightblue" d="M282.56,-56.324C270.506,-47.979 252.065,-35.2122 237.823,-25.3524"/>
<polygon fill="midnightblue" stroke="midnightblue" points="239.807,-22.469 229.593,-19.6545 235.823,-28.2243 239.807,-22.469"/>
</g>
</g>
</svg>
