<?xml version="1.0" encoding="UTF-8" standalone="no"?>
<!DOCTYPE svg PUBLIC "-//W3C//DTD SVG 1.1//EN"
 "http://www.w3.org/Graphics/SVG/1.1/DTD/svg11.dtd">
<!-- Generated by graphviz version 2.26.3 (20100126.1600)
 -->
<!-- Title: mars::graphics::GLSLAttribute Pages: 1 -->
<svg width="156pt" height="114pt"
 viewBox="0.00 0.00 156.00 114.00" xmlns="http://www.w3.org/2000/svg" xmlns:xlink="http://www.w3.org/1999/xlink">
<g id="graph1" class="graph" transform="scale(1 1) rotate(0) translate(4 110)">
<title>mars::graphics::GLSLAttribute</title>
<polygon fill="white" stroke="white" points="-4,5 -4,-110 153,-110 153,5 -4,5"/>
<!-- Node1 -->
<g id="node1" class="node"><title>Node1</title>
<polygon fill="#bfbfbf" stroke="black" points="-0.5,-0.5 -0.5,-21.5 148.5,-21.5 148.5,-0.5 -0.5,-0.5"/>
<text text-anchor="middle" x="74" y="-8.5" font-family="Helvetica,sans-Serif" font-size="10.00">mars::graphics::GLSLAttribute</text>
</g>
<!-- Node2 -->
<g id="node2" class="node"><title>Node2</title>
<polygon fill="white" stroke="#bfbfbf" points="53.5,-84.5 53.5,-105.5 94.5,-105.5 94.5,-84.5 53.5,-84.5"/>
<text text-anchor="middle" x="74" y="-92.5" font-family="Helvetica,sans-Serif" font-size="10.00">string</text>
</g>
<!-- Node2&#45;&gt;Node1 -->
<g id="edge2" class="edge"><title>Node2&#45;&gt;Node1</title>
<path fill="none" stroke="#9a32cd" stroke-dasharray="5,2" d="M74,-73.9452C74,-57.2568 74,-34.6387 74,-21.5523"/>
<polygon fill="#9a32cd" stroke="#9a32cd" points="70.5001,-74.3613 74,-84.3613 77.5001,-74.3614 70.5001,-74.3613"/>
<text text-anchor="middle" x="86.5" y="-57" font-family="Helvetica,sans-Serif" font-size="10.00"> type</text>
<text text-anchor="middle" x="86.5" y="-44" font-family="Helvetica,sans-Serif" font-size="10.00">name</text>
</g>
</g>
</svg>
