<?xml version="1.0" encoding="UTF-8" standalone="no"?>
<!DOCTYPE svg PUBLIC "-//W3C//DTD SVG 1.1//EN"
 "http://www.w3.org/Graphics/SVG/1.1/DTD/svg11.dtd">
<!-- Generated by graphviz version 2.36.0 (20140111.2315)
 -->
<!-- Title: /media/kavonszadkowski/work/marsdocs/mars/scene_loader/src/Load.h Pages: 1 -->
<svg width="584pt" height="118pt"
 viewBox="0.00 0.00 584.00 118.00" xmlns="http://www.w3.org/2000/svg" xmlns:xlink="http://www.w3.org/1999/xlink">
<g id="graph0" class="graph" transform="scale(1 1) rotate(0) translate(4 114)">
<title>/media/kavonszadkowski/work/marsdocs/mars/scene_loader/src/Load.h</title>
<polygon fill="white" stroke="none" points="-4,4 -4,-114 580,-114 580,4 -4,4"/>
<!-- Node1 -->
<g id="node1" class="node"><title>Node1</title>
<polygon fill="#bfbfbf" stroke="black" points="168,-68.5 168,-109.5 308,-109.5 308,-68.5 168,-68.5"/>
<text text-anchor="start" x="176" y="-97.5" font-family="Helvetica,sans-Serif" font-size="10.00">/media/kavonszadkowski</text>
<text text-anchor="start" x="176" y="-86.5" font-family="Helvetica,sans-Serif" font-size="10.00">/work/marsdocs/mars/scene</text>
<text text-anchor="middle" x="238" y="-75.5" font-family="Helvetica,sans-Serif" font-size="10.00">_loader/src/Load.h</text>
</g>
<!-- Node2 -->
<g id="node2" class="node"><title>Node2</title>
<polygon fill="white" stroke="#bfbfbf" points="-0.5,-6.5 -0.5,-25.5 34.5,-25.5 34.5,-6.5 -0.5,-6.5"/>
<text text-anchor="middle" x="17" y="-13.5" font-family="Helvetica,sans-Serif" font-size="10.00">map</text>
</g>
<!-- Node1&#45;&gt;Node2 -->
<g id="edge1" class="edge"><title>Node1&#45;&gt;Node2</title>
<path fill="none" stroke="midnightblue" d="M167.998,-72.3008C130.21,-62.7392 83.2032,-49.0672 43,-32 41.8128,-31.496 40.6121,-30.9492 39.4116,-30.3727"/>
<polygon fill="midnightblue" stroke="midnightblue" points="40.9118,-27.2061 30.4416,-25.5859 37.6162,-33.3818 40.9118,-27.2061"/>
</g>
<!-- Node3 -->
<g id="node3" class="node"><title>Node3</title>
<polygon fill="white" stroke="#bfbfbf" points="52.5,-1 52.5,-31 155.5,-31 155.5,-1 52.5,-1"/>
<text text-anchor="start" x="60.5" y="-19" font-family="Helvetica,sans-Serif" font-size="10.00">mars/interfaces/sim</text>
<text text-anchor="middle" x="104" y="-8" font-family="Helvetica,sans-Serif" font-size="10.00">/ControlCenter.h</text>
</g>
<!-- Node1&#45;&gt;Node3 -->
<g id="edge2" class="edge"><title>Node1&#45;&gt;Node3</title>
<path fill="none" stroke="midnightblue" d="M201.029,-68.411C181.856,-58.2521 158.546,-45.9014 139.579,-35.8517"/>
<polygon fill="midnightblue" stroke="midnightblue" points="141.129,-32.7121 130.654,-31.1228 137.852,-38.8975 141.129,-32.7121"/>
</g>
<!-- Node4 -->
<g id="node4" class="node"><title>Node4</title>
<polygon fill="white" stroke="#bfbfbf" points="174,-6.5 174,-25.5 302,-25.5 302,-6.5 174,-6.5"/>
<text text-anchor="middle" x="238" y="-13.5" font-family="Helvetica,sans-Serif" font-size="10.00">configmaps/ConfigData.h</text>
</g>
<!-- Node1&#45;&gt;Node4 -->
<g id="edge3" class="edge"><title>Node1&#45;&gt;Node4</title>
<path fill="none" stroke="midnightblue" d="M238,-68.2225C238,-58.0864 238,-45.8072 238,-35.8125"/>
<polygon fill="midnightblue" stroke="midnightblue" points="241.5,-35.7349 238,-25.7349 234.5,-35.7349 241.5,-35.7349"/>
</g>
<!-- Node5 -->
<g id="node5" class="node"><title>Node5</title>
<polygon fill="white" stroke="#bfbfbf" points="320,-1 320,-31 436,-31 436,-1 320,-1"/>
<text text-anchor="start" x="328" y="-19" font-family="Helvetica,sans-Serif" font-size="10.00">mars/interfaces/sensor</text>
<text text-anchor="middle" x="378" y="-8" font-family="Helvetica,sans-Serif" font-size="10.00">_bases.h</text>
</g>
<!-- Node1&#45;&gt;Node5 -->
<g id="edge4" class="edge"><title>Node1&#45;&gt;Node5</title>
<path fill="none" stroke="midnightblue" d="M276.626,-68.411C296.749,-58.2059 321.233,-45.789 341.097,-35.7148"/>
<polygon fill="midnightblue" stroke="midnightblue" points="342.817,-38.7674 350.152,-31.1228 339.65,-32.5244 342.817,-38.7674"/>
</g>
<!-- Node6 -->
<g id="node6" class="node"><title>Node6</title>
<polygon fill="white" stroke="#bfbfbf" points="454,-1 454,-31 576,-31 576,-1 454,-1"/>
<text text-anchor="start" x="462" y="-19" font-family="Helvetica,sans-Serif" font-size="10.00">mars/interfaces/Material</text>
<text text-anchor="middle" x="515" y="-8" font-family="Helvetica,sans-Serif" font-size="10.00">Data.h</text>
</g>
<!-- Node1&#45;&gt;Node6 -->
<g id="edge5" class="edge"><title>Node1&#45;&gt;Node6</title>
<path fill="none" stroke="midnightblue" d="M308.257,-69.9919C351.974,-58.7864 407.785,-44.481 450.399,-33.5585"/>
<polygon fill="midnightblue" stroke="midnightblue" points="451.287,-36.9441 460.104,-31.0707 449.548,-30.1633 451.287,-36.9441"/>
</g>
</g>
</svg>
