<?xml version="1.0" encoding="UTF-8" standalone="no"?>
<!DOCTYPE svg PUBLIC "-//W3C//DTD SVG 1.1//EN"
 "http://www.w3.org/Graphics/SVG/1.1/DTD/svg11.dtd">
<!-- Generated by graphviz version 2.26.3 (20100126.1600)
 -->
<!-- Title: /home/kavonszadkowski/limes&#45;dev/simulation/mars/scene_loader/src/Load.h Pages: 1 -->
<svg width="582pt" height="142pt"
 viewBox="0.00 0.00 582.00 142.00" xmlns="http://www.w3.org/2000/svg" xmlns:xlink="http://www.w3.org/1999/xlink">
<g id="graph1" class="graph" transform="scale(1 1) rotate(0) translate(4 138)">
<title>/home/kavonszadkowski/limes&#45;dev/simulation/mars/scene_loader/src/Load.h</title>
<polygon fill="white" stroke="white" points="-4,5 -4,-138 579,-138 579,5 -4,5"/>
<!-- Node1 -->
<g id="node1" class="node"><title>Node1</title>
<polygon fill="#bfbfbf" stroke="black" points="173.5,-73 173.5,-133 298.5,-133 298.5,-73 173.5,-73"/>
<text text-anchor="start" x="181.5" y="-120" font-family="Helvetica,sans-Serif" font-size="10.00">/home/kavonszadkowski</text>
<text text-anchor="start" x="181.5" y="-107" font-family="Helvetica,sans-Serif" font-size="10.00">/limes&#45;dev/simulation</text>
<text text-anchor="start" x="181.5" y="-94" font-family="Helvetica,sans-Serif" font-size="10.00">/mars/scene_loader/src</text>
<text text-anchor="middle" x="236" y="-81" font-family="Helvetica,sans-Serif" font-size="10.00">/Load.h</text>
</g>
<!-- Node2 -->
<g id="node3" class="node"><title>Node2</title>
<polygon fill="white" stroke="#bfbfbf" points="-0.5,-7.5 -0.5,-28.5 34.5,-28.5 34.5,-7.5 -0.5,-7.5"/>
<text text-anchor="middle" x="17" y="-15.5" font-family="Helvetica,sans-Serif" font-size="10.00">map</text>
</g>
<!-- Node1&#45;&gt;Node2 -->
<g id="edge2" class="edge"><title>Node1&#45;&gt;Node2</title>
<path fill="none" stroke="midnightblue" d="M173.405,-85.9893C134.753,-74.3476 84.7453,-57.1967 43,-36 41.8435,-35.4128 40.6791,-34.7806 39.5179,-34.1169"/>
<polygon fill="midnightblue" stroke="midnightblue" points="41.1895,-31.0324 30.8705,-28.6303 37.4393,-36.9431 41.1895,-31.0324"/>
</g>
<!-- Node3 -->
<g id="node5" class="node"><title>Node3</title>
<polygon fill="white" stroke="#bfbfbf" points="51.5,-1 51.5,-35 154.5,-35 154.5,-1 51.5,-1"/>
<text text-anchor="start" x="59.5" y="-22" font-family="Helvetica,sans-Serif" font-size="10.00">mars/interfaces/sim</text>
<text text-anchor="middle" x="103" y="-9" font-family="Helvetica,sans-Serif" font-size="10.00">/ControlCenter.h</text>
</g>
<!-- Node1&#45;&gt;Node3 -->
<g id="edge4" class="edge"><title>Node1&#45;&gt;Node3</title>
<path fill="none" stroke="midnightblue" d="M188.735,-72.7928C172.132,-62.1824 153.78,-50.4534 138.329,-40.5788"/>
<polygon fill="midnightblue" stroke="midnightblue" points="139.913,-37.4375 129.602,-35.0015 136.144,-43.3359 139.913,-37.4375"/>
</g>
<!-- Node4 -->
<g id="node7" class="node"><title>Node4</title>
<polygon fill="white" stroke="#bfbfbf" points="172,-7.5 172,-28.5 300,-28.5 300,-7.5 172,-7.5"/>
<text text-anchor="middle" x="236" y="-15.5" font-family="Helvetica,sans-Serif" font-size="10.00">configmaps/ConfigData.h</text>
</g>
<!-- Node1&#45;&gt;Node4 -->
<g id="edge6" class="edge"><title>Node1&#45;&gt;Node4</title>
<path fill="none" stroke="midnightblue" d="M236,-72.7928C236,-61.5792 236,-49.1163 236,-38.9133"/>
<polygon fill="midnightblue" stroke="midnightblue" points="239.5,-38.8949 236,-28.8949 232.5,-38.8949 239.5,-38.8949"/>
</g>
<!-- Node5 -->
<g id="node9" class="node"><title>Node5</title>
<polygon fill="white" stroke="#bfbfbf" points="318,-1 318,-35 434,-35 434,-1 318,-1"/>
<text text-anchor="start" x="326" y="-22" font-family="Helvetica,sans-Serif" font-size="10.00">mars/interfaces/sensor</text>
<text text-anchor="middle" x="376" y="-9" font-family="Helvetica,sans-Serif" font-size="10.00">_bases.h</text>
</g>
<!-- Node1&#45;&gt;Node5 -->
<g id="edge8" class="edge"><title>Node1&#45;&gt;Node5</title>
<path fill="none" stroke="midnightblue" d="M285.753,-72.7928C303.392,-62.0832 322.909,-50.2341 339.267,-40.3024"/>
<polygon fill="midnightblue" stroke="midnightblue" points="341.266,-43.1831 347.998,-35.0015 337.633,-37.1996 341.266,-43.1831"/>
</g>
<!-- Node6 -->
<g id="node11" class="node"><title>Node6</title>
<polygon fill="white" stroke="#bfbfbf" points="452,-1 452,-35 574,-35 574,-1 452,-1"/>
<text text-anchor="start" x="460" y="-22" font-family="Helvetica,sans-Serif" font-size="10.00">mars/interfaces/Material</text>
<text text-anchor="middle" x="513" y="-9" font-family="Helvetica,sans-Serif" font-size="10.00">Data.h</text>
</g>
<!-- Node1&#45;&gt;Node6 -->
<g id="edge10" class="edge"><title>Node1&#45;&gt;Node6</title>
<path fill="none" stroke="midnightblue" d="M298.51,-83.8184C342.959,-70.1788 402.532,-51.8982 447.615,-38.064"/>
<polygon fill="midnightblue" stroke="midnightblue" points="448.76,-41.3738 457.293,-35.0942 446.706,-34.6818 448.76,-41.3738"/>
</g>
</g>
</svg>
