<?xml version="1.0" encoding="UTF-8" standalone="no"?>
<!DOCTYPE svg PUBLIC "-//W3C//DTD SVG 1.1//EN"
 "http://www.w3.org/Graphics/SVG/1.1/DTD/svg11.dtd">
<!-- Generated by graphviz version 2.36.0 (20140111.2315)
 -->
<!-- Title: mars::gui::DialogNodes Pages: 1 -->
<svg width="452pt" height="148pt"
 viewBox="0.00 0.00 452.00 148.00" xmlns="http://www.w3.org/2000/svg" xmlns:xlink="http://www.w3.org/1999/xlink">
<g id="graph0" class="graph" transform="scale(1 1) rotate(0) translate(4 144)">
<title>mars::gui::DialogNodes</title>
<polygon fill="white" stroke="none" points="-4,4 -4,-144 448,-144 448,4 -4,4"/>
<!-- Node1 -->
<g id="node1" class="node"><title>Node1</title>
<polygon fill="#bfbfbf" stroke="black" points="324.5,-54.5 324.5,-73.5 443.5,-73.5 443.5,-54.5 324.5,-54.5"/>
<text text-anchor="middle" x="384" y="-61.5" font-family="Helvetica,sans-Serif" font-size="10.00">mars::gui::DialogNodes</text>
</g>
<!-- Node2 -->
<g id="node2" class="node"><title>Node2</title>
<g id="a_node2"><a xlink:href="../../d4/dcf/classmars_1_1main__gui_1_1_base_widget.html" target="_top" xlink:title="mars::main_gui::BaseWidget">
<polygon fill="white" stroke="black" points="144.5,-98.5 144.5,-117.5 287.5,-117.5 287.5,-98.5 144.5,-98.5"/>
<text text-anchor="middle" x="216" y="-105.5" font-family="Helvetica,sans-Serif" font-size="10.00">mars::main_gui::BaseWidget</text>
</a>
</g>
</g>
<!-- Node2&#45;&gt;Node1 -->
<g id="edge1" class="edge"><title>Node2&#45;&gt;Node1</title>
<path fill="none" stroke="midnightblue" d="M262.856,-95.8453C289.419,-88.8045 322.377,-80.0688 347.051,-73.5287"/>
<polygon fill="midnightblue" stroke="midnightblue" points="261.789,-92.5073 253.02,-98.4527 263.583,-99.2736 261.789,-92.5073"/>
</g>
<!-- Node3 -->
<g id="node3" class="node"><title>Node3</title>
<polygon fill="white" stroke="#bfbfbf" points="26.5,-120.5 26.5,-139.5 81.5,-139.5 81.5,-120.5 26.5,-120.5"/>
<text text-anchor="middle" x="54" y="-127.5" font-family="Helvetica,sans-Serif" font-size="10.00">QWidget</text>
</g>
<!-- Node3&#45;&gt;Node2 -->
<g id="edge2" class="edge"><title>Node3&#45;&gt;Node2</title>
<path fill="none" stroke="midnightblue" d="M91.7888,-124.942C107.808,-122.739 127.129,-120.082 145.671,-117.533"/>
<polygon fill="midnightblue" stroke="midnightblue" points="91.2104,-121.488 81.7804,-126.318 92.164,-128.423 91.2104,-121.488"/>
</g>
<!-- Node4 -->
<g id="node4" class="node"><title>Node4</title>
<g id="a_node4"><a xlink:href="../../d4/d1a/classmars_1_1cfg__manager_1_1_c_f_g_client.html" target="_top" xlink:title="mars::cfg_manager::\lCFGClient">
<polygon fill="white" stroke="black" points="0.5,-71 0.5,-101 107.5,-101 107.5,-71 0.5,-71"/>
<text text-anchor="start" x="8.5" y="-89" font-family="Helvetica,sans-Serif" font-size="10.00">mars::cfg_manager::</text>
<text text-anchor="middle" x="54" y="-78" font-family="Helvetica,sans-Serif" font-size="10.00">CFGClient</text>
</a>
</g>
</g>
<!-- Node4&#45;&gt;Node2 -->
<g id="edge3" class="edge"><title>Node4&#45;&gt;Node2</title>
<path fill="none" stroke="midnightblue" d="M117.949,-94.6555C127.048,-95.9066 136.456,-97.2002 145.671,-98.4673"/>
<polygon fill="midnightblue" stroke="midnightblue" points="118.217,-91.1595 107.833,-93.2646 117.263,-98.0942 118.217,-91.1595"/>
</g>
<!-- Node5 -->
<g id="node5" class="node"><title>Node5</title>
<g id="a_node5"><a xlink:href="../../dd/d38/classmars_1_1main__gui_1_1_property_callback.html" target="_top" xlink:title="Introduced for Windows compatibility. ">
<polygon fill="white" stroke="black" points="153,-49 153,-79 279,-79 279,-49 153,-49"/>
<text text-anchor="start" x="161" y="-67" font-family="Helvetica,sans-Serif" font-size="10.00">mars::main_gui::Property</text>
<text text-anchor="middle" x="216" y="-56" font-family="Helvetica,sans-Serif" font-size="10.00">Callback</text>
</a>
</g>
</g>
<!-- Node5&#45;&gt;Node1 -->
<g id="edge4" class="edge"><title>Node5&#45;&gt;Node1</title>
<path fill="none" stroke="midnightblue" d="M289.473,-64C301.177,-64 313.164,-64 324.485,-64"/>
<polygon fill="midnightblue" stroke="midnightblue" points="289.285,-60.5001 279.285,-64 289.285,-67.5001 289.285,-60.5001"/>
</g>
<!-- Node6 -->
<g id="node6" class="node"><title>Node6</title>
<g id="a_node6"><a xlink:href="../../d8/d0b/classmars_1_1interfaces_1_1_graphics_event_client.html" target="_top" xlink:title="mars::interfaces::Graphics\lEventClient">
<polygon fill="white" stroke="black" points="150,-0 150,-30 282,-30 282,-0 150,-0"/>
<text text-anchor="start" x="158" y="-18" font-family="Helvetica,sans-Serif" font-size="10.00">mars::interfaces::Graphics</text>
<text text-anchor="middle" x="216" y="-7" font-family="Helvetica,sans-Serif" font-size="10.00">EventClient</text>
</a>
</g>
</g>
<!-- Node6&#45;&gt;Node1 -->
<g id="edge5" class="edge"><title>Node6&#45;&gt;Node1</title>
<path fill="none" stroke="midnightblue" d="M277.798,-32.9464C302.431,-40.2175 329.879,-48.3197 350.561,-54.4246"/>
<polygon fill="midnightblue" stroke="midnightblue" points="278.742,-29.5757 268.16,-30.1014 276.76,-36.2894 278.742,-29.5757"/>
</g>
</g>
</svg>
