<?xml version="1.0" encoding="UTF-8" standalone="no"?>
<!DOCTYPE svg PUBLIC "-//W3C//DTD SVG 1.1//EN"
 "http://www.w3.org/Graphics/SVG/1.1/DTD/svg11.dtd">
<!-- Generated by graphviz version 2.36.0 (20140111.2315)
 -->
<!-- Title: /media/kavonszadkowski/work/marsdocs/mars/gui/src/dialogs/DialogMotors.h Pages: 1 -->
<svg width="591pt" height="174pt"
 viewBox="0.00 0.00 591.00 174.00" xmlns="http://www.w3.org/2000/svg" xmlns:xlink="http://www.w3.org/1999/xlink">
<g id="graph0" class="graph" transform="scale(1 1) rotate(0) translate(4 170)">
<title>/media/kavonszadkowski/work/marsdocs/mars/gui/src/dialogs/DialogMotors.h</title>
<polygon fill="white" stroke="none" points="-4,4 -4,-170 587,-170 587,4 -4,4"/>
<!-- Node1 -->
<g id="node1" class="node"><title>Node1</title>
<polygon fill="#bfbfbf" stroke="black" points="124,-124.5 124,-165.5 260,-165.5 260,-124.5 124,-124.5"/>
<text text-anchor="start" x="132" y="-153.5" font-family="Helvetica,sans-Serif" font-size="10.00">/media/kavonszadkowski</text>
<text text-anchor="start" x="132" y="-142.5" font-family="Helvetica,sans-Serif" font-size="10.00">/work/marsdocs/mars/gui</text>
<text text-anchor="middle" x="192" y="-131.5" font-family="Helvetica,sans-Serif" font-size="10.00">/src/dialogs/DialogMotors.h</text>
</g>
<!-- Node2 -->
<g id="node2" class="node"><title>Node2</title>
<polygon fill="white" stroke="#bfbfbf" points="-0.5,-68.5 -0.5,-87.5 144.5,-87.5 144.5,-68.5 -0.5,-68.5"/>
<text text-anchor="middle" x="72" y="-75.5" font-family="Helvetica,sans-Serif" font-size="10.00">mars/main_gui/BaseWidget.h</text>
</g>
<!-- Node1&#45;&gt;Node2 -->
<g id="edge1" class="edge"><title>Node1&#45;&gt;Node2</title>
<path fill="none" stroke="midnightblue" d="M155.996,-124.498C136.89,-114.149 113.898,-101.695 96.8024,-92.4346"/>
<polygon fill="midnightblue" stroke="midnightblue" points="98.4338,-89.3378 87.9738,-87.6525 95.0998,-95.4929 98.4338,-89.3378"/>
</g>
<!-- Node3 -->
<g id="node3" class="node"><title>Node3</title>
<polygon fill="white" stroke="#bfbfbf" points="20,-6.5 20,-25.5 176,-25.5 176,-6.5 20,-6.5"/>
<text text-anchor="middle" x="98" y="-13.5" font-family="Helvetica,sans-Serif" font-size="10.00">mars/main_gui/PropertyDialog.h</text>
</g>
<!-- Node1&#45;&gt;Node3 -->
<g id="edge2" class="edge"><title>Node1&#45;&gt;Node3</title>
<path fill="none" stroke="midnightblue" d="M184.252,-124.497C177.37,-108.466 166.349,-85.6096 153,-68 142.845,-54.6033 128.946,-41.749 117.661,-32.2966"/>
<polygon fill="midnightblue" stroke="midnightblue" points="119.613,-29.3728 109.646,-25.7789 115.196,-34.8037 119.613,-29.3728"/>
</g>
<!-- Node4 -->
<g id="node4" class="node"><title>Node4</title>
<polygon fill="white" stroke="#bfbfbf" points="194.5,-1 194.5,-31 297.5,-31 297.5,-1 194.5,-1"/>
<text text-anchor="start" x="202.5" y="-19" font-family="Helvetica,sans-Serif" font-size="10.00">mars/interfaces/sim</text>
<text text-anchor="middle" x="246" y="-8" font-family="Helvetica,sans-Serif" font-size="10.00">/ControlCenter.h</text>
</g>
<!-- Node1&#45;&gt;Node4 -->
<g id="edge3" class="edge"><title>Node1&#45;&gt;Node4</title>
<path fill="none" stroke="midnightblue" d="M200.319,-124.435C209.897,-101.908 225.627,-64.9139 235.899,-40.7552"/>
<polygon fill="midnightblue" stroke="midnightblue" points="239.242,-41.8391 239.934,-31.2669 232.8,-39.1 239.242,-41.8391"/>
</g>
<!-- Node5 -->
<g id="node5" class="node"><title>Node5</title>
<g id="a_node5"><a xlink:href="../../df/dfb/_motor_handler_8h.html" target="_top" xlink:title="MotorHandler.h">
<polygon fill="white" stroke="black" points="239.5,-68.5 239.5,-87.5 322.5,-87.5 322.5,-68.5 239.5,-68.5"/>
<text text-anchor="middle" x="281" y="-75.5" font-family="Helvetica,sans-Serif" font-size="10.00">MotorHandler.h</text>
</a>
</g>
</g>
<!-- Node1&#45;&gt;Node5 -->
<g id="edge4" class="edge"><title>Node1&#45;&gt;Node5</title>
<path fill="none" stroke="midnightblue" d="M218.703,-124.498C232.217,-114.628 248.353,-102.843 260.817,-93.7407"/>
<polygon fill="midnightblue" stroke="midnightblue" points="263.141,-96.3769 269.153,-87.6525 259.013,-90.724 263.141,-96.3769"/>
</g>
<!-- Node5&#45;&gt;Node3 -->
<g id="edge5" class="edge"><title>Node5&#45;&gt;Node3</title>
<path fill="none" stroke="midnightblue" d="M254.781,-68.4035C222.982,-57.9777 169.235,-40.3557 133.683,-28.6992"/>
<polygon fill="midnightblue" stroke="midnightblue" points="134.764,-25.3704 124.171,-25.5806 132.583,-32.022 134.764,-25.3704"/>
</g>
<!-- Node5&#45;&gt;Node4 -->
<g id="edge6" class="edge"><title>Node5&#45;&gt;Node4</title>
<path fill="none" stroke="midnightblue" d="M275.985,-68.4035C271.644,-60.9608 265.163,-49.8509 259.336,-39.8619"/>
<polygon fill="midnightblue" stroke="midnightblue" points="262.311,-38.015 254.249,-31.1408 256.264,-41.5422 262.311,-38.015"/>
</g>
<!-- Node6 -->
<g id="node6" class="node"><title>Node6</title>
<polygon fill="white" stroke="#bfbfbf" points="315.5,-1 315.5,-31 424.5,-31 424.5,-1 315.5,-1"/>
<text text-anchor="start" x="323.5" y="-19" font-family="Helvetica,sans-Serif" font-size="10.00">mars/interfaces/core</text>
<text text-anchor="middle" x="370" y="-8" font-family="Helvetica,sans-Serif" font-size="10.00">_objects_exchange.h</text>
</g>
<!-- Node5&#45;&gt;Node6 -->
<g id="edge7" class="edge"><title>Node5&#45;&gt;Node6</title>
<path fill="none" stroke="midnightblue" d="M293.752,-68.4035C305.918,-60.2014 324.691,-47.5454 340.565,-36.8441"/>
<polygon fill="midnightblue" stroke="midnightblue" points="342.689,-39.6329 349.024,-31.1408 338.776,-33.8287 342.689,-39.6329"/>
</g>
<!-- Node7 -->
<g id="node7" class="node"><title>Node7</title>
<polygon fill="white" stroke="#bfbfbf" points="442.5,-6.5 442.5,-25.5 583.5,-25.5 583.5,-6.5 442.5,-6.5"/>
<text text-anchor="middle" x="513" y="-13.5" font-family="Helvetica,sans-Serif" font-size="10.00">mars/interfaces/MotorData.h</text>
</g>
<!-- Node5&#45;&gt;Node7 -->
<g id="edge8" class="edge"><title>Node5&#45;&gt;Node7</title>
<path fill="none" stroke="midnightblue" d="M314.24,-68.4035C355.242,-57.7995 425.029,-39.7511 470.054,-28.1067"/>
<polygon fill="midnightblue" stroke="midnightblue" points="471.017,-31.473 479.822,-25.5806 469.264,-24.696 471.017,-31.473"/>
</g>
</g>
</svg>
