<?xml version="1.0" encoding="UTF-8" standalone="no"?>
<!DOCTYPE svg PUBLIC "-//W3C//DTD SVG 1.1//EN"
 "http://www.w3.org/Graphics/SVG/1.1/DTD/svg11.dtd">
<!-- Generated by graphviz version 2.26.3 (20100126.1600)
 -->
<!-- Title: /home/kavonszadkowski/limes&#45;dev/simulation/mars/gui/src/dialogs/DialogMotors.h Pages: 1 -->
<svg width="587pt" height="200pt"
 viewBox="0.00 0.00 587.00 200.00" xmlns="http://www.w3.org/2000/svg" xmlns:xlink="http://www.w3.org/1999/xlink">
<g id="graph1" class="graph" transform="scale(1 1) rotate(0) translate(4 196)">
<title>/home/kavonszadkowski/limes&#45;dev/simulation/mars/gui/src/dialogs/DialogMotors.h</title>
<polygon fill="white" stroke="white" points="-4,5 -4,-196 584,-196 584,5 -4,5"/>
<!-- Node1 -->
<g id="node1" class="node"><title>Node1</title>
<polygon fill="#bfbfbf" stroke="black" points="128.5,-131 128.5,-191 253.5,-191 253.5,-131 128.5,-131"/>
<text text-anchor="start" x="136.5" y="-178" font-family="Helvetica,sans-Serif" font-size="10.00">/home/kavonszadkowski</text>
<text text-anchor="start" x="136.5" y="-165" font-family="Helvetica,sans-Serif" font-size="10.00">/limes&#45;dev/simulation</text>
<text text-anchor="start" x="136.5" y="-152" font-family="Helvetica,sans-Serif" font-size="10.00">/mars/gui/src/dialogs</text>
<text text-anchor="middle" x="191" y="-139" font-family="Helvetica,sans-Serif" font-size="10.00">/DialogMotors.h</text>
</g>
<!-- Node2 -->
<g id="node3" class="node"><title>Node2</title>
<polygon fill="white" stroke="#bfbfbf" points="-0.5,-72.5 -0.5,-93.5 144.5,-93.5 144.5,-72.5 -0.5,-72.5"/>
<text text-anchor="middle" x="72" y="-80.5" font-family="Helvetica,sans-Serif" font-size="10.00">mars/main_gui/BaseWidget.h</text>
</g>
<!-- Node1&#45;&gt;Node2 -->
<g id="edge2" class="edge"><title>Node1&#45;&gt;Node2</title>
<path fill="none" stroke="midnightblue" d="M144.991,-130.843C128.574,-120.082 110.71,-108.373 96.7644,-99.2321"/>
<polygon fill="midnightblue" stroke="midnightblue" points="98.5024,-96.1865 88.2202,-93.6317 94.665,-102.041 98.5024,-96.1865"/>
</g>
<!-- Node3 -->
<g id="node5" class="node"><title>Node3</title>
<polygon fill="white" stroke="#bfbfbf" points="19,-7.5 19,-28.5 175,-28.5 175,-7.5 19,-7.5"/>
<text text-anchor="middle" x="97" y="-15.5" font-family="Helvetica,sans-Serif" font-size="10.00">mars/main_gui/PropertyDialog.h</text>
</g>
<!-- Node1&#45;&gt;Node3 -->
<g id="edge4" class="edge"><title>Node1&#45;&gt;Node3</title>
<path fill="none" stroke="midnightblue" d="M181.454,-130.611C175.002,-112.652 165.396,-89.9823 153,-72 143.501,-58.2201 130.076,-45.1276 118.752,-35.286"/>
<polygon fill="midnightblue" stroke="midnightblue" points="120.868,-32.4926 110.964,-28.7309 116.361,-37.8482 120.868,-32.4926"/>
</g>
<!-- Node4 -->
<g id="node7" class="node"><title>Node4</title>
<polygon fill="white" stroke="#bfbfbf" points="192.5,-1 192.5,-35 295.5,-35 295.5,-1 192.5,-1"/>
<text text-anchor="start" x="200.5" y="-22" font-family="Helvetica,sans-Serif" font-size="10.00">mars/interfaces/sim</text>
<text text-anchor="middle" x="244" y="-9" font-family="Helvetica,sans-Serif" font-size="10.00">/ControlCenter.h</text>
</g>
<!-- Node1&#45;&gt;Node4 -->
<g id="edge6" class="edge"><title>Node1&#45;&gt;Node4</title>
<path fill="none" stroke="midnightblue" d="M202.24,-130.673C211.652,-105.279 224.96,-69.3718 234.005,-44.9668"/>
<polygon fill="midnightblue" stroke="midnightblue" points="237.404,-45.8689 237.597,-35.2758 230.84,-43.4362 237.404,-45.8689"/>
</g>
<!-- Node5 -->
<g id="node9" class="node"><title>Node5</title>
<a xlink:href="../../df/dfb/_motor_handler_8h.html" target="_top" xlink:title="MotorHandler.h">
<polygon fill="white" stroke="black" points="237.5,-72.5 237.5,-93.5 320.5,-93.5 320.5,-72.5 237.5,-72.5"/>
<text text-anchor="middle" x="279" y="-80.5" font-family="Helvetica,sans-Serif" font-size="10.00">MotorHandler.h</text>
</a>
</g>
<!-- Node1&#45;&gt;Node5 -->
<g id="edge8" class="edge"><title>Node1&#45;&gt;Node5</title>
<path fill="none" stroke="midnightblue" d="M225.023,-130.843C236.625,-120.56 249.203,-109.411 259.297,-100.464"/>
<polygon fill="midnightblue" stroke="midnightblue" points="261.631,-103.072 266.793,-93.8199 256.988,-97.8338 261.631,-103.072"/>
</g>
<!-- Node5&#45;&gt;Node3 -->
<g id="edge10" class="edge"><title>Node5&#45;&gt;Node3</title>
<path fill="none" stroke="midnightblue" d="M249.353,-72.412C218.55,-61.4108 170.191,-44.1396 136.237,-32.0132"/>
<polygon fill="midnightblue" stroke="midnightblue" points="137.228,-28.6508 126.634,-28.5835 134.874,-35.243 137.228,-28.6508"/>
</g>
<!-- Node5&#45;&gt;Node4 -->
<g id="edge12" class="edge"><title>Node5&#45;&gt;Node4</title>
<path fill="none" stroke="midnightblue" d="M273.22,-72.2666C269.101,-64.6155 263.377,-53.9857 258.086,-44.1602"/>
<polygon fill="midnightblue" stroke="midnightblue" points="261.036,-42.2552 253.213,-35.1099 254.872,-45.5739 261.036,-42.2552"/>
</g>
<!-- Node6 -->
<g id="node13" class="node"><title>Node6</title>
<polygon fill="white" stroke="#bfbfbf" points="312.5,-1 312.5,-35 421.5,-35 421.5,-1 312.5,-1"/>
<text text-anchor="start" x="320.5" y="-22" font-family="Helvetica,sans-Serif" font-size="10.00">mars/interfaces/core</text>
<text text-anchor="middle" x="367" y="-9" font-family="Helvetica,sans-Serif" font-size="10.00">_objects_exchange.h</text>
</g>
<!-- Node5&#45;&gt;Node6 -->
<g id="edge14" class="edge"><title>Node5&#45;&gt;Node6</title>
<path fill="none" stroke="midnightblue" d="M293.531,-72.2666C304.958,-63.8267 321.291,-51.7623 335.657,-41.1512"/>
<polygon fill="midnightblue" stroke="midnightblue" points="337.872,-43.8665 343.836,-35.1099 333.713,-38.2359 337.872,-43.8665"/>
</g>
<!-- Node7 -->
<g id="node15" class="node"><title>Node7</title>
<polygon fill="white" stroke="#bfbfbf" points="438.5,-7.5 438.5,-28.5 579.5,-28.5 579.5,-7.5 438.5,-7.5"/>
<text text-anchor="middle" x="509" y="-15.5" font-family="Helvetica,sans-Serif" font-size="10.00">mars/interfaces/MotorData.h</text>
</g>
<!-- Node5&#45;&gt;Node7 -->
<g id="edge16" class="edge"><title>Node5&#45;&gt;Node7</title>
<path fill="none" stroke="midnightblue" d="M316.209,-72.4844C355.959,-61.2508 419.051,-43.4205 462.156,-31.2386"/>
<polygon fill="midnightblue" stroke="midnightblue" points="463.173,-34.5882 471.844,-28.5005 461.269,-27.8521 463.173,-34.5882"/>
</g>
</g>
</svg>
