<?xml version="1.0" encoding="UTF-8" standalone="no"?>
<!DOCTYPE svg PUBLIC "-//W3C//DTD SVG 1.1//EN"
 "http://www.w3.org/Graphics/SVG/1.1/DTD/svg11.dtd">
<!-- Generated by graphviz version 2.26.3 (20100126.1600)
 -->
<!-- Title: /home/kavonszadkowski/limes&#45;dev/simulation/mars/gui/src/dialogs/CameraConfig/CameraConfig.h Pages: 1 -->
<svg width="488pt" height="376pt"
 viewBox="0.00 0.00 488.00 376.00" xmlns="http://www.w3.org/2000/svg" xmlns:xlink="http://www.w3.org/1999/xlink">
<g id="graph1" class="graph" transform="scale(1 1) rotate(0) translate(4 372)">
<title>/home/kavonszadkowski/limes&#45;dev/simulation/mars/gui/src/dialogs/CameraConfig/CameraConfig.h</title>
<polygon fill="white" stroke="white" points="-4,5 -4,-372 485,-372 485,5 -4,5"/>
<!-- Node1 -->
<g id="node1" class="node"><title>Node1</title>
<polygon fill="#bfbfbf" stroke="black" points="117.5,-307 117.5,-367 274.5,-367 274.5,-307 117.5,-307"/>
<text text-anchor="start" x="125.5" y="-354" font-family="Helvetica,sans-Serif" font-size="10.00">/home/kavonszadkowski</text>
<text text-anchor="start" x="125.5" y="-341" font-family="Helvetica,sans-Serif" font-size="10.00">/limes&#45;dev/simulation</text>
<text text-anchor="start" x="125.5" y="-328" font-family="Helvetica,sans-Serif" font-size="10.00">/mars/gui/src/dialogs</text>
<text text-anchor="middle" x="196" y="-315" font-family="Helvetica,sans-Serif" font-size="10.00">/CameraConfig/CameraConfig.h</text>
</g>
<!-- Node2 -->
<g id="node3" class="node"><title>Node2</title>
<a xlink:href="../../de/ddb/_camera_config_8cpp.html" target="_top" xlink:title="&quot;CameraConfig&quot; ">
<polygon fill="white" stroke="black" points="12.5,-209 12.5,-269 179.5,-269 179.5,-209 12.5,-209"/>
<text text-anchor="start" x="20.5" y="-256" font-family="Helvetica,sans-Serif" font-size="10.00">/home/kavonszadkowski</text>
<text text-anchor="start" x="20.5" y="-243" font-family="Helvetica,sans-Serif" font-size="10.00">/limes&#45;dev/simulation</text>
<text text-anchor="start" x="20.5" y="-230" font-family="Helvetica,sans-Serif" font-size="10.00">/mars/gui/src/dialogs</text>
<text text-anchor="middle" x="96" y="-217" font-family="Helvetica,sans-Serif" font-size="10.00">/CameraConfig/CameraConfig.cpp</text>
</a>
</g>
<!-- Node1&#45;&gt;Node2 -->
<g id="edge2" class="edge"><title>Node1&#45;&gt;Node2</title>
<path fill="none" stroke="midnightblue" d="M157.874,-299.637C147.632,-289.6 136.685,-278.871 126.89,-269.272"/>
<polygon fill="midnightblue" stroke="midnightblue" points="155.589,-302.298 165.181,-306.797 160.488,-297.298 155.589,-302.298"/>
</g>
<!-- Node3 -->
<g id="node5" class="node"><title>Node3</title>
<a xlink:href="../../d3/d45/_camera_configurator_g_u_i_8h.html" target="_top" xlink:title="&quot;CameraConfiguratorGUI&quot; is a template for the widget interface of the MARS GUI ">
<polygon fill="white" stroke="black" points="197,-209 197,-269 397,-269 397,-209 197,-209"/>
<text text-anchor="start" x="205" y="-256" font-family="Helvetica,sans-Serif" font-size="10.00">/home/kavonszadkowski</text>
<text text-anchor="start" x="205" y="-243" font-family="Helvetica,sans-Serif" font-size="10.00">/limes&#45;dev/simulation</text>
<text text-anchor="start" x="205" y="-230" font-family="Helvetica,sans-Serif" font-size="10.00">/mars/gui/src/dialogs</text>
<text text-anchor="middle" x="297" y="-217" font-family="Helvetica,sans-Serif" font-size="10.00">/CameraConfig/CameraConfiguratorGUI.h</text>
</a>
</g>
<!-- Node1&#45;&gt;Node3 -->
<g id="edge4" class="edge"><title>Node1&#45;&gt;Node3</title>
<path fill="none" stroke="midnightblue" d="M234.507,-299.637C244.851,-289.6 255.908,-278.871 265.801,-269.272"/>
<polygon fill="midnightblue" stroke="midnightblue" points="231.867,-297.322 227.127,-306.797 236.742,-302.345 231.867,-297.322"/>
</g>
<!-- Node4 -->
<g id="node7" class="node"><title>Node4</title>
<a xlink:href="../../d0/da1/_camera_configurator_8h.html" target="_top" xlink:title="&quot;CameraConfigurator&quot; provides some options to setup the camera of a 3d window ">
<polygon fill="white" stroke="black" points="108,-105 108,-165 290,-165 290,-105 108,-105"/>
<text text-anchor="start" x="116" y="-152" font-family="Helvetica,sans-Serif" font-size="10.00">/home/kavonszadkowski</text>
<text text-anchor="start" x="116" y="-139" font-family="Helvetica,sans-Serif" font-size="10.00">/limes&#45;dev/simulation</text>
<text text-anchor="start" x="116" y="-126" font-family="Helvetica,sans-Serif" font-size="10.00">/mars/gui/src/dialogs</text>
<text text-anchor="middle" x="199" y="-113" font-family="Helvetica,sans-Serif" font-size="10.00">/CameraConfig/CameraConfigurator.h</text>
</a>
</g>
<!-- Node3&#45;&gt;Node4 -->
<g id="edge6" class="edge"><title>Node3&#45;&gt;Node4</title>
<path fill="none" stroke="midnightblue" d="M261.764,-201.607C250.437,-189.586 238.043,-176.433 227.282,-165.014"/>
<polygon fill="midnightblue" stroke="midnightblue" points="259.249,-204.041 268.654,-208.919 264.344,-199.241 259.249,-204.041"/>
</g>
<!-- Node7 -->
<g id="node13" class="node"><title>Node7</title>
<a xlink:href="../../d9/d3e/_camera_configurator_g_u_i_8cpp.html" target="_top" xlink:title="/home/kavonszadkowski\l/limes&#45;dev/simulation\l/mars/gui/src/dialogs\l/CameraConfig/CameraConfigurator\lGUI.cpp">
<polygon fill="white" stroke="black" points="307.5,-98.5 307.5,-171.5 480.5,-171.5 480.5,-98.5 307.5,-98.5"/>
<text text-anchor="start" x="315.5" y="-158.5" font-family="Helvetica,sans-Serif" font-size="10.00">/home/kavonszadkowski</text>
<text text-anchor="start" x="315.5" y="-145.5" font-family="Helvetica,sans-Serif" font-size="10.00">/limes&#45;dev/simulation</text>
<text text-anchor="start" x="315.5" y="-132.5" font-family="Helvetica,sans-Serif" font-size="10.00">/mars/gui/src/dialogs</text>
<text text-anchor="start" x="315.5" y="-119.5" font-family="Helvetica,sans-Serif" font-size="10.00">/CameraConfig/CameraConfigurator</text>
<text text-anchor="middle" x="394" y="-106.5" font-family="Helvetica,sans-Serif" font-size="10.00">GUI.cpp</text>
</a>
</g>
<!-- Node3&#45;&gt;Node7 -->
<g id="edge12" class="edge"><title>Node3&#45;&gt;Node7</title>
<path fill="none" stroke="midnightblue" d="M332.122,-201.343C341.145,-191.669 350.838,-181.277 359.812,-171.655"/>
<polygon fill="midnightblue" stroke="midnightblue" points="329.318,-199.219 325.056,-208.919 334.437,-203.993 329.318,-199.219"/>
</g>
<!-- Node5 -->
<g id="node9" class="node"><title>Node5</title>
<a xlink:href="../../d7/de1/_camera_configurator_8cpp.html" target="_top" xlink:title="&quot;CameraConfigurator&quot; provides some options to setup the camera of a 3d window ">
<polygon fill="white" stroke="black" points="0,-1 0,-61 192,-61 192,-1 0,-1"/>
<text text-anchor="start" x="8" y="-48" font-family="Helvetica,sans-Serif" font-size="10.00">/home/kavonszadkowski</text>
<text text-anchor="start" x="8" y="-35" font-family="Helvetica,sans-Serif" font-size="10.00">/limes&#45;dev/simulation</text>
<text text-anchor="start" x="8" y="-22" font-family="Helvetica,sans-Serif" font-size="10.00">/mars/gui/src/dialogs</text>
<text text-anchor="middle" x="96" y="-9" font-family="Helvetica,sans-Serif" font-size="10.00">/CameraConfig/CameraConfigurator.cpp</text>
</a>
</g>
<!-- Node4&#45;&gt;Node5 -->
<g id="edge8" class="edge"><title>Node4&#45;&gt;Node5</title>
<path fill="none" stroke="midnightblue" d="M161.966,-97.6067C150.062,-85.5865 137.035,-72.433 125.725,-61.0135"/>
<polygon fill="midnightblue" stroke="midnightblue" points="159.684,-100.277 169.208,-104.919 164.658,-95.3508 159.684,-100.277"/>
</g>
<!-- Node6 -->
<g id="node11" class="node"><title>Node6</title>
<a xlink:href="../../d0/de2/_menu_window_8cpp.html" target="_top" xlink:title="MenuWindow creates the menus and menu items in the Window menu of the simulation and manages the wind...">
<polygon fill="white" stroke="black" points="209.5,-7.5 209.5,-54.5 396.5,-54.5 396.5,-7.5 209.5,-7.5"/>
<text text-anchor="start" x="217.5" y="-41.5" font-family="Helvetica,sans-Serif" font-size="10.00">/home/kavonszadkowski</text>
<text text-anchor="start" x="217.5" y="-28.5" font-family="Helvetica,sans-Serif" font-size="10.00">/limes&#45;dev/simulation</text>
<text text-anchor="middle" x="303" y="-15.5" font-family="Helvetica,sans-Serif" font-size="10.00">/mars/gui/src/menus/MenuWindow.cpp</text>
</a>
</g>
<!-- Node4&#45;&gt;Node6 -->
<g id="edge10" class="edge"><title>Node4&#45;&gt;Node6</title>
<path fill="none" stroke="midnightblue" d="M236.384,-97.6156C250.679,-83.3211 266.577,-67.4229 279.256,-54.7436"/>
<polygon fill="midnightblue" stroke="midnightblue" points="233.677,-95.3729 229.081,-104.919 238.627,-100.323 233.677,-95.3729"/>
</g>
</g>
</svg>
