<?xml version="1.0" encoding="UTF-8" standalone="no"?>
<!DOCTYPE svg PUBLIC "-//W3C//DTD SVG 1.1//EN"
 "http://www.w3.org/Graphics/SVG/1.1/DTD/svg11.dtd">
<!-- Generated by graphviz version 2.36.0 (20140111.2315)
 -->
<!-- Title: /media/kavonszadkowski/work/marsdocs/mars/gui/src/dialogs/CameraConfig/CameraConfig.h Pages: 1 -->
<svg width="382pt" height="332pt"
 viewBox="0.00 0.00 382.00 332.00" xmlns="http://www.w3.org/2000/svg" xmlns:xlink="http://www.w3.org/1999/xlink">
<g id="graph0" class="graph" transform="scale(1 1) rotate(0) translate(4 328)">
<title>/media/kavonszadkowski/work/marsdocs/mars/gui/src/dialogs/CameraConfig/CameraConfig.h</title>
<polygon fill="white" stroke="none" points="-4,4 -4,-328 378,-328 378,4 -4,4"/>
<!-- Node1 -->
<g id="node1" class="node"><title>Node1</title>
<polygon fill="#bfbfbf" stroke="black" points="80.5,-271 80.5,-323 213.5,-323 213.5,-271 80.5,-271"/>
<text text-anchor="start" x="88.5" y="-311" font-family="Helvetica,sans-Serif" font-size="10.00">/media/kavonszadkowski</text>
<text text-anchor="start" x="88.5" y="-300" font-family="Helvetica,sans-Serif" font-size="10.00">/work/marsdocs/mars/gui</text>
<text text-anchor="start" x="88.5" y="-289" font-family="Helvetica,sans-Serif" font-size="10.00">/src/dialogs/CameraConfig</text>
<text text-anchor="middle" x="147" y="-278" font-family="Helvetica,sans-Serif" font-size="10.00">/CameraConfig.h</text>
</g>
<!-- Node2 -->
<g id="node2" class="node"><title>Node2</title>
<g id="a_node2"><a xlink:href="../../de/ddb/_camera_config_8cpp.html" target="_top" xlink:title="&quot;CameraConfig&quot; ">
<polygon fill="white" stroke="black" points="4.5,-181 4.5,-233 137.5,-233 137.5,-181 4.5,-181"/>
<text text-anchor="start" x="12.5" y="-221" font-family="Helvetica,sans-Serif" font-size="10.00">/media/kavonszadkowski</text>
<text text-anchor="start" x="12.5" y="-210" font-family="Helvetica,sans-Serif" font-size="10.00">/work/marsdocs/mars/gui</text>
<text text-anchor="start" x="12.5" y="-199" font-family="Helvetica,sans-Serif" font-size="10.00">/src/dialogs/CameraConfig</text>
<text text-anchor="middle" x="71" y="-188" font-family="Helvetica,sans-Serif" font-size="10.00">/CameraConfig.cpp</text>
</a>
</g>
</g>
<!-- Node1&#45;&gt;Node2 -->
<g id="edge1" class="edge"><title>Node1&#45;&gt;Node2</title>
<path fill="none" stroke="midnightblue" d="M118.367,-262.846C109.851,-252.985 100.665,-242.349 92.6705,-233.092"/>
<polygon fill="midnightblue" stroke="midnightblue" points="115.833,-265.266 125.018,-270.547 121.13,-260.691 115.833,-265.266"/>
</g>
<!-- Node3 -->
<g id="node3" class="node"><title>Node3</title>
<g id="a_node3"><a xlink:href="../../d3/d45/_camera_configurator_g_u_i_8h.html" target="_top" xlink:title="&quot;CameraConfiguratorGUI&quot; is a template for the widget interface of the MARS GUI ">
<polygon fill="white" stroke="black" points="156,-181 156,-233 290,-233 290,-181 156,-181"/>
<text text-anchor="start" x="164" y="-221" font-family="Helvetica,sans-Serif" font-size="10.00">/media/kavonszadkowski</text>
<text text-anchor="start" x="164" y="-210" font-family="Helvetica,sans-Serif" font-size="10.00">/work/marsdocs/mars/gui</text>
<text text-anchor="start" x="164" y="-199" font-family="Helvetica,sans-Serif" font-size="10.00">/src/dialogs/CameraConfig</text>
<text text-anchor="middle" x="223" y="-188" font-family="Helvetica,sans-Serif" font-size="10.00">/CameraConfiguratorGUI.h</text>
</a>
</g>
</g>
<!-- Node1&#45;&gt;Node3 -->
<g id="edge2" class="edge"><title>Node1&#45;&gt;Node3</title>
<path fill="none" stroke="midnightblue" d="M175.633,-262.846C184.149,-252.985 193.335,-242.349 201.33,-233.092"/>
<polygon fill="midnightblue" stroke="midnightblue" points="172.87,-260.691 168.982,-270.547 178.167,-265.266 172.87,-260.691"/>
</g>
<!-- Node4 -->
<g id="node4" class="node"><title>Node4</title>
<g id="a_node4"><a xlink:href="../../d0/da1/_camera_configurator_8h.html" target="_top" xlink:title="&quot;CameraConfigurator&quot; provides some options to setup the camera of a 3d window ">
<polygon fill="white" stroke="black" points="78.5,-91 78.5,-143 211.5,-143 211.5,-91 78.5,-91"/>
<text text-anchor="start" x="86.5" y="-131" font-family="Helvetica,sans-Serif" font-size="10.00">/media/kavonszadkowski</text>
<text text-anchor="start" x="86.5" y="-120" font-family="Helvetica,sans-Serif" font-size="10.00">/work/marsdocs/mars/gui</text>
<text text-anchor="start" x="86.5" y="-109" font-family="Helvetica,sans-Serif" font-size="10.00">/src/dialogs/CameraConfig</text>
<text text-anchor="middle" x="145" y="-98" font-family="Helvetica,sans-Serif" font-size="10.00">/CameraConfigurator.h</text>
</a>
</g>
</g>
<!-- Node3&#45;&gt;Node4 -->
<g id="edge3" class="edge"><title>Node3&#45;&gt;Node4</title>
<path fill="none" stroke="midnightblue" d="M193.613,-172.846C184.873,-162.985 175.446,-152.349 167.241,-143.092"/>
<polygon fill="midnightblue" stroke="midnightblue" points="191.187,-175.385 200.439,-180.547 196.425,-170.742 191.187,-175.385"/>
</g>
<!-- Node7 -->
<g id="node7" class="node"><title>Node7</title>
<g id="a_node7"><a xlink:href="../../d9/d3e/_camera_configurator_g_u_i_8cpp.html" target="_top" xlink:title="/media/kavonszadkowski\l/work/marsdocs/mars/gui\l/src/dialogs/CameraConfig\l/CameraConfiguratorGUI.cpp">
<polygon fill="white" stroke="black" points="230,-91 230,-143 374,-143 374,-91 230,-91"/>
<text text-anchor="start" x="238" y="-131" font-family="Helvetica,sans-Serif" font-size="10.00">/media/kavonszadkowski</text>
<text text-anchor="start" x="238" y="-120" font-family="Helvetica,sans-Serif" font-size="10.00">/work/marsdocs/mars/gui</text>
<text text-anchor="start" x="238" y="-109" font-family="Helvetica,sans-Serif" font-size="10.00">/src/dialogs/CameraConfig</text>
<text text-anchor="middle" x="302" y="-98" font-family="Helvetica,sans-Serif" font-size="10.00">/CameraConfiguratorGUI.cpp</text>
</a>
</g>
</g>
<!-- Node3&#45;&gt;Node7 -->
<g id="edge6" class="edge"><title>Node3&#45;&gt;Node7</title>
<path fill="none" stroke="midnightblue" d="M252.763,-172.846C261.616,-162.985 271.164,-152.349 279.474,-143.092"/>
<polygon fill="midnightblue" stroke="midnightblue" points="249.926,-170.767 245.85,-180.547 255.135,-175.443 249.926,-170.767"/>
</g>
<!-- Node5 -->
<g id="node5" class="node"><title>Node5</title>
<g id="a_node5"><a xlink:href="../../d7/de1/_camera_configurator_8cpp.html" target="_top" xlink:title="&quot;CameraConfigurator&quot; provides some options to setup the camera of a 3d window ">
<polygon fill="white" stroke="black" points="-0.5,-1 -0.5,-53 132.5,-53 132.5,-1 -0.5,-1"/>
<text text-anchor="start" x="7.5" y="-41" font-family="Helvetica,sans-Serif" font-size="10.00">/media/kavonszadkowski</text>
<text text-anchor="start" x="7.5" y="-30" font-family="Helvetica,sans-Serif" font-size="10.00">/work/marsdocs/mars/gui</text>
<text text-anchor="start" x="7.5" y="-19" font-family="Helvetica,sans-Serif" font-size="10.00">/src/dialogs/CameraConfig</text>
<text text-anchor="middle" x="66" y="-8" font-family="Helvetica,sans-Serif" font-size="10.00">/CameraConfigurator.cpp</text>
</a>
</g>
</g>
<!-- Node4&#45;&gt;Node5 -->
<g id="edge4" class="edge"><title>Node4&#45;&gt;Node5</title>
<path fill="none" stroke="midnightblue" d="M115.237,-82.8459C106.384,-72.9851 96.8362,-62.3492 88.5259,-53.0921"/>
<polygon fill="midnightblue" stroke="midnightblue" points="112.865,-85.4435 122.15,-90.5468 118.074,-80.7673 112.865,-85.4435"/>
</g>
<!-- Node6 -->
<g id="node6" class="node"><title>Node6</title>
<g id="a_node6"><a xlink:href="../../d0/de2/_menu_window_8cpp.html" target="_top" xlink:title="MenuWindow creates the menus and menu items in the Window menu of the simulation and manages the wind...">
<polygon fill="white" stroke="black" points="151,-6.5 151,-47.5 297,-47.5 297,-6.5 151,-6.5"/>
<text text-anchor="start" x="159" y="-35.5" font-family="Helvetica,sans-Serif" font-size="10.00">/media/kavonszadkowski</text>
<text text-anchor="start" x="159" y="-24.5" font-family="Helvetica,sans-Serif" font-size="10.00">/work/marsdocs/mars/gui</text>
<text text-anchor="middle" x="224" y="-13.5" font-family="Helvetica,sans-Serif" font-size="10.00">/src/menus/MenuWindow.cpp</text>
</a>
</g>
</g>
<!-- Node4&#45;&gt;Node6 -->
<g id="edge5" class="edge"><title>Node4&#45;&gt;Node6</title>
<path fill="none" stroke="midnightblue" d="M174.702,-82.9141C185.409,-70.988 197.14,-57.92 206.472,-47.5249"/>
<polygon fill="midnightblue" stroke="midnightblue" points="171.926,-80.7673 167.85,-90.5468 177.135,-85.4435 171.926,-80.7673"/>
</g>
</g>
</svg>
