<?xml version="1.0" encoding="UTF-8" standalone="no"?>
<!DOCTYPE svg PUBLIC "-//W3C//DTD SVG 1.1//EN"
 "http://www.w3.org/Graphics/SVG/1.1/DTD/svg11.dtd">
<!-- Generated by graphviz version 2.36.0 (20140111.2315)
 -->
<!-- Title: /media/kavonszadkowski/work/marsdocs/mars/entity_generation/primitives/src/primitives.h Pages: 1 -->
<svg width="146pt" height="152pt"
 viewBox="0.00 0.00 146.00 152.00" xmlns="http://www.w3.org/2000/svg" xmlns:xlink="http://www.w3.org/1999/xlink">
<g id="graph0" class="graph" transform="scale(1 1) rotate(0) translate(4 148)">
<title>/media/kavonszadkowski/work/marsdocs/mars/entity_generation/primitives/src/primitives.h</title>
<polygon fill="white" stroke="none" points="-4,4 -4,-148 142,-148 142,4 -4,4"/>
<!-- Node1 -->
<g id="node1" class="node"><title>Node1</title>
<polygon fill="#bfbfbf" stroke="black" points="0,-91 0,-143 138,-143 138,-91 0,-91"/>
<text text-anchor="start" x="8" y="-131" font-family="Helvetica,sans-Serif" font-size="10.00">/media/kavonszadkowski</text>
<text text-anchor="start" x="8" y="-120" font-family="Helvetica,sans-Serif" font-size="10.00">/work/marsdocs/mars/entity</text>
<text text-anchor="start" x="8" y="-109" font-family="Helvetica,sans-Serif" font-size="10.00">_generation/primitives/src</text>
<text text-anchor="middle" x="69" y="-98" font-family="Helvetica,sans-Serif" font-size="10.00">/primitives.h</text>
</g>
<!-- Node2 -->
<g id="node2" class="node"><title>Node2</title>
<g id="a_node2"><a xlink:href="../../d9/d38/primitives_8cpp.html" target="_top" xlink:title="/media/kavonszadkowski\l/work/marsdocs/mars/entity\l_generation/primitives/src\l/primitives.cpp">
<polygon fill="white" stroke="black" points="0,-1 0,-53 138,-53 138,-1 0,-1"/>
<text text-anchor="start" x="8" y="-41" font-family="Helvetica,sans-Serif" font-size="10.00">/media/kavonszadkowski</text>
<text text-anchor="start" x="8" y="-30" font-family="Helvetica,sans-Serif" font-size="10.00">/work/marsdocs/mars/entity</text>
<text text-anchor="start" x="8" y="-19" font-family="Helvetica,sans-Serif" font-size="10.00">_generation/primitives/src</text>
<text text-anchor="middle" x="69" y="-8" font-family="Helvetica,sans-Serif" font-size="10.00">/primitives.cpp</text>
</a>
</g>
</g>
<!-- Node1&#45;&gt;Node2 -->
<g id="edge1" class="edge"><title>Node1&#45;&gt;Node2</title>
<path fill="none" stroke="midnightblue" d="M69,-80.4892C69,-71.3088 69,-61.616 69,-53.0921"/>
<polygon fill="midnightblue" stroke="midnightblue" points="65.5001,-80.5467 69,-90.5468 72.5001,-80.5468 65.5001,-80.5467"/>
</g>
</g>
</svg>
