<?xml version="1.0" encoding="UTF-8" standalone="no"?>
<!DOCTYPE svg PUBLIC "-//W3C//DTD SVG 1.1//EN"
 "http://www.w3.org/Graphics/SVG/1.1/DTD/svg11.dtd">
<!-- Generated by graphviz version 2.36.0 (20140111.2315)
 -->
<!-- Title: /media/kavonszadkowski/work/marsdocs/mars/plugins/connexion_plugin/win32/ConnexionHID.cpp Pages: 1 -->
<svg width="479pt" height="162pt"
 viewBox="0.00 0.00 479.00 162.00" xmlns="http://www.w3.org/2000/svg" xmlns:xlink="http://www.w3.org/1999/xlink">
<g id="graph0" class="graph" transform="scale(1 1) rotate(0) translate(4 158)">
<title>/media/kavonszadkowski/work/marsdocs/mars/plugins/connexion_plugin/win32/ConnexionHID.cpp</title>
<polygon fill="white" stroke="none" points="-4,4 -4,-158 475,-158 475,4 -4,4"/>
<!-- Node1 -->
<g id="node1" class="node"><title>Node1</title>
<polygon fill="#bfbfbf" stroke="black" points="187.5,-112.5 187.5,-153.5 396.5,-153.5 396.5,-112.5 187.5,-112.5"/>
<text text-anchor="start" x="195.5" y="-141.5" font-family="Helvetica,sans-Serif" font-size="10.00">/media/kavonszadkowski</text>
<text text-anchor="start" x="195.5" y="-130.5" font-family="Helvetica,sans-Serif" font-size="10.00">/work/marsdocs/mars/plugins</text>
<text text-anchor="middle" x="292" y="-119.5" font-family="Helvetica,sans-Serif" font-size="10.00">/connexion_plugin/win32/ConnexionHID.cpp</text>
</g>
<!-- Node2 -->
<g id="node2" class="node"><title>Node2</title>
<g id="a_node2"><a xlink:href="../../df/de6/_connexion_h_i_d_8h.html" target="_top" xlink:title="../ConnexionHID.h">
<polygon fill="white" stroke="black" points="24,-56.5 24,-75.5 122,-75.5 122,-56.5 24,-56.5"/>
<text text-anchor="middle" x="73" y="-63.5" font-family="Helvetica,sans-Serif" font-size="10.00">../ConnexionHID.h</text>
</a>
</g>
</g>
<!-- Node1&#45;&gt;Node2 -->
<g id="edge1" class="edge"><title>Node1&#45;&gt;Node2</title>
<path fill="none" stroke="midnightblue" d="M226.293,-112.498C188.889,-101.396 143.324,-87.8725 111.637,-78.4676"/>
<polygon fill="midnightblue" stroke="midnightblue" points="112.447,-75.0572 101.864,-75.5671 110.455,-81.7678 112.447,-75.0572"/>
</g>
<!-- Node4 -->
<g id="node4" class="node"><title>Node4</title>
<polygon fill="white" stroke="#bfbfbf" points="140,-56.5 140,-75.5 238,-75.5 238,-56.5 140,-56.5"/>
<text text-anchor="middle" x="189" y="-63.5" font-family="Helvetica,sans-Serif" font-size="10.00">mars/utils/Mutex.h</text>
</g>
<!-- Node1&#45;&gt;Node4 -->
<g id="edge3" class="edge"><title>Node1&#45;&gt;Node4</title>
<path fill="none" stroke="midnightblue" d="M261.097,-112.498C245.153,-102.436 226.056,-90.3849 211.523,-81.2136"/>
<polygon fill="midnightblue" stroke="midnightblue" points="213.036,-78.0295 202.711,-75.6525 209.3,-83.9493 213.036,-78.0295"/>
</g>
<!-- Node5 -->
<g id="node5" class="node"><title>Node5</title>
<polygon fill="white" stroke="#bfbfbf" points="256,-56.5 256,-75.5 328,-75.5 328,-56.5 256,-56.5"/>
<text text-anchor="middle" x="292" y="-63.5" font-family="Helvetica,sans-Serif" font-size="10.00">QApplication</text>
</g>
<!-- Node1&#45;&gt;Node5 -->
<g id="edge4" class="edge"><title>Node1&#45;&gt;Node5</title>
<path fill="none" stroke="midnightblue" d="M292,-112.498C292,-104.065 292,-94.2351 292,-85.874"/>
<polygon fill="midnightblue" stroke="midnightblue" points="295.5,-85.6525 292,-75.6525 288.5,-85.6525 295.5,-85.6525"/>
</g>
<!-- Node6 -->
<g id="node6" class="node"><title>Node6</title>
<polygon fill="white" stroke="#bfbfbf" points="346,-56.5 346,-75.5 390,-75.5 390,-56.5 346,-56.5"/>
<text text-anchor="middle" x="368" y="-63.5" font-family="Helvetica,sans-Serif" font-size="10.00">cmath</text>
</g>
<!-- Node1&#45;&gt;Node6 -->
<g id="edge5" class="edge"><title>Node1&#45;&gt;Node6</title>
<path fill="none" stroke="midnightblue" d="M314.803,-112.498C326.119,-102.82 339.587,-91.3002 350.141,-82.274"/>
<polygon fill="midnightblue" stroke="midnightblue" points="352.558,-84.8121 357.883,-75.6525 348.009,-79.4923 352.558,-84.8121"/>
</g>
<!-- Node7 -->
<g id="node7" class="node"><title>Node7</title>
<polygon fill="white" stroke="#bfbfbf" points="408.5,-56.5 408.5,-75.5 471.5,-75.5 471.5,-56.5 408.5,-56.5"/>
<text text-anchor="middle" x="440" y="-63.5" font-family="Helvetica,sans-Serif" font-size="10.00">windows.h</text>
</g>
<!-- Node1&#45;&gt;Node7 -->
<g id="edge6" class="edge"><title>Node1&#45;&gt;Node7</title>
<path fill="none" stroke="midnightblue" d="M336.405,-112.498C360.514,-101.909 389.642,-89.1169 410.863,-79.7968"/>
<polygon fill="midnightblue" stroke="midnightblue" points="412.55,-82.8783 420.299,-75.6525 409.736,-76.4692 412.55,-82.8783"/>
</g>
<!-- Node3 -->
<g id="node3" class="node"><title>Node3</title>
<polygon fill="white" stroke="#bfbfbf" points="0,-0.5 0,-19.5 146,-19.5 146,-0.5 0,-0.5"/>
<text text-anchor="middle" x="73" y="-7.5" font-family="Helvetica,sans-Serif" font-size="10.00">mars/interfaces/MARSDefs.h</text>
</g>
<!-- Node2&#45;&gt;Node3 -->
<g id="edge2" class="edge"><title>Node2&#45;&gt;Node3</title>
<path fill="none" stroke="midnightblue" d="M73,-56.083C73,-49.0059 73,-38.8611 73,-29.9865"/>
<polygon fill="midnightblue" stroke="midnightblue" points="76.5001,-29.751 73,-19.7511 69.5001,-29.7511 76.5001,-29.751"/>
</g>
</g>
</svg>
