<?xml version="1.0" encoding="UTF-8" standalone="no"?>
<!DOCTYPE svg PUBLIC "-//W3C//DTD SVG 1.1//EN"
 "http://www.w3.org/Graphics/SVG/1.1/DTD/svg11.dtd">
<!-- Generated by graphviz version 2.26.3 (20100126.1600)
 -->
<!-- Title: CaveMovieControl Pages: 1 -->
<svg width="1352pt" height="643pt"
 viewBox="0.00 0.00 1352.00 643.42" xmlns="http://www.w3.org/2000/svg" xmlns:xlink="http://www.w3.org/1999/xlink">
<g id="graph1" class="graph" transform="scale(1 1) rotate(0) translate(4 639.424)">
<title>CaveMovieControl</title>
<polygon fill="white" stroke="white" points="-4,5 -4,-639.424 1349,-639.424 1349,5 -4,5"/>
<!-- Node1 -->
<g id="node1" class="node"><title>Node1</title>
<polygon fill="#bfbfbf" stroke="black" points="1246,-398.924 1246,-419.924 1344,-419.924 1344,-398.924 1246,-398.924"/>
<text text-anchor="middle" x="1295" y="-406.924" font-family="Helvetica,sans-Serif" font-size="10.00">CaveMovieControl</text>
</g>
<!-- Node2 -->
<g id="node2" class="node"><title>Node2</title>
<a xlink:href="../../da/df1/classmars_1_1interfaces_1_1_mars_plugin_template_g_u_i.html" target="_top" xlink:title="mars::interfaces::MarsPlugin\lTemplateGUI">
<polygon fill="white" stroke="black" points="1025,-503.424 1025,-537.424 1167,-537.424 1167,-503.424 1025,-503.424"/>
<text text-anchor="start" x="1033" y="-524.424" font-family="Helvetica,sans-Serif" font-size="10.00">mars::interfaces::MarsPlugin</text>
<text text-anchor="middle" x="1096" y="-511.424" font-family="Helvetica,sans-Serif" font-size="10.00">TemplateGUI</text>
</a>
</g>
<!-- Node2&#45;&gt;Node1 -->
<g id="edge2" class="edge"><title>Node2&#45;&gt;Node1</title>
<path fill="none" stroke="midnightblue" d="M1135.88,-498.517C1162.1,-484.077 1197.14,-464.709 1228,-447.424 1244.45,-438.21 1263.11,-427.619 1276.55,-419.962"/>
<polygon fill="midnightblue" stroke="midnightblue" points="1134.06,-495.52 1126.99,-503.408 1137.44,-501.652 1134.06,-495.52"/>
</g>
<!-- Node3 -->
<g id="node4" class="node"><title>Node3</title>
<polygon fill="white" stroke="#bfbfbf" points="47,-462.924 47,-483.924 115,-483.924 115,-462.924 47,-462.924"/>
<text text-anchor="middle" x="81" y="-470.924" font-family="Helvetica,sans-Serif" font-size="10.00">LibInterface</text>
</g>
<!-- Node3&#45;&gt;Node2 -->
<g id="edge4" class="edge"><title>Node3&#45;&gt;Node2</title>
<path fill="none" stroke="midnightblue" d="M105.921,-489.275C151.622,-516.776 252.727,-570.424 346,-570.424 346,-570.424 346,-570.424 860,-570.424 925.126,-570.424 998.209,-551.976 1045.55,-537.491"/>
<polygon fill="midnightblue" stroke="midnightblue" points="107.641,-486.225 97.285,-483.99 103.987,-492.195 107.641,-486.225"/>
</g>
<!-- Node6 -->
<g id="node10" class="node"><title>Node6</title>
<a xlink:href="../../d1/d93/classmars_1_1interfaces_1_1_graphics_manager_interface.html" target="_top" xlink:title="mars::interfaces::Graphics\lManagerInterface">
<polygon fill="white" stroke="black" points="280,-248.424 280,-282.424 412,-282.424 412,-248.424 280,-248.424"/>
<text text-anchor="start" x="288" y="-269.424" font-family="Helvetica,sans-Serif" font-size="10.00">mars::interfaces::Graphics</text>
<text text-anchor="middle" x="346" y="-256.424" font-family="Helvetica,sans-Serif" font-size="10.00">ManagerInterface</text>
</a>
</g>
<!-- Node3&#45;&gt;Node6 -->
<g id="edge12" class="edge"><title>Node3&#45;&gt;Node6</title>
<path fill="none" stroke="midnightblue" d="M95.5641,-454.381C124.534,-417.739 193.084,-337.026 268,-291.424 273.487,-288.084 279.455,-285.115 285.565,-282.49"/>
<polygon fill="midnightblue" stroke="midnightblue" points="92.4657,-452.662 89.072,-462.698 97.9839,-456.969 92.4657,-452.662"/>
</g>
<!-- Node10 -->
<g id="node19" class="node"><title>Node10</title>
<a xlink:href="../../d4/da6/classmars_1_1cfg__manager_1_1_c_f_g_manager_interface.html" target="_top" xlink:title="mars::cfg_manager::\lCFGManagerInterface">
<polygon fill="white" stroke="black" points="289.5,-196.424 289.5,-230.424 402.5,-230.424 402.5,-196.424 289.5,-196.424"/>
<text text-anchor="start" x="297.5" y="-217.424" font-family="Helvetica,sans-Serif" font-size="10.00">mars::cfg_manager::</text>
<text text-anchor="middle" x="346" y="-204.424" font-family="Helvetica,sans-Serif" font-size="10.00">CFGManagerInterface</text>
</a>
</g>
<!-- Node3&#45;&gt;Node10 -->
<g id="edge22" class="edge"><title>Node3&#45;&gt;Node10</title>
<path fill="none" stroke="midnightblue" d="M89.2287,-453.68C103.886,-420.119 137.051,-350.968 180,-303.424 212.418,-267.538 224.999,-261.553 268,-239.424 274.727,-235.962 282.012,-232.82 289.335,-230.012"/>
<polygon fill="midnightblue" stroke="midnightblue" points="86.004,-452.32 85.2837,-462.89 92.4386,-455.076 86.004,-452.32"/>
</g>
<!-- Node11 -->
<g id="node22" class="node"><title>Node11</title>
<a xlink:href="../../d6/d2e/classmars_1_1data__broker_1_1_data_broker_interface.html" target="_top" xlink:title="The interface every DataBroker should implement. ">
<polygon fill="white" stroke="black" points="294,-456.424 294,-490.424 398,-490.424 398,-456.424 294,-456.424"/>
<text text-anchor="start" x="302" y="-477.424" font-family="Helvetica,sans-Serif" font-size="10.00">mars::data_broker::</text>
<text text-anchor="middle" x="346" y="-464.424" font-family="Helvetica,sans-Serif" font-size="10.00">DataBrokerInterface</text>
</a>
</g>
<!-- Node3&#45;&gt;Node11 -->
<g id="edge26" class="edge"><title>Node3&#45;&gt;Node11</title>
<path fill="none" stroke="midnightblue" d="M125.155,-473.424C171.569,-473.424 244.55,-473.424 293.788,-473.424"/>
<polygon fill="midnightblue" stroke="midnightblue" points="125.102,-469.924 115.102,-473.424 125.102,-476.924 125.102,-469.924"/>
</g>
<!-- Node20 -->
<g id="node41" class="node"><title>Node20</title>
<a xlink:href="../../d7/df2/classmars_1_1main__gui_1_1_gui_interface.html" target="_top" xlink:title="The abstract GuiInterface class provides the menu and docking functionality of the GUI...">
<polygon fill="white" stroke="black" points="442.5,-597.924 442.5,-618.924 585.5,-618.924 585.5,-597.924 442.5,-597.924"/>
<text text-anchor="middle" x="514" y="-605.924" font-family="Helvetica,sans-Serif" font-size="10.00">mars::main_gui::GuiInterface</text>
</a>
</g>
<!-- Node3&#45;&gt;Node20 -->
<g id="edge46" class="edge"><title>Node3&#45;&gt;Node20</title>
<path fill="none" stroke="midnightblue" d="M91.8919,-493.089C107.555,-519.189 139.113,-564.314 180,-584.424 262.946,-625.221 371.7,-624.599 442.207,-618.27"/>
<polygon fill="midnightblue" stroke="midnightblue" points="94.7271,-491.002 86.6806,-484.109 88.6728,-494.515 94.7271,-491.002"/>
</g>
<!-- Node4 -->
<g id="node6" class="node"><title>Node4</title>
<a xlink:href="../../d1/d70/classmars_1_1interfaces_1_1_plugin_interface.html" target="_top" xlink:title="The interface to load plugin dynamically into the simulation. ">
<polygon fill="white" stroke="black" points="800,-468.424 800,-502.424 920,-502.424 920,-468.424 800,-468.424"/>
<text text-anchor="start" x="808" y="-489.424" font-family="Helvetica,sans-Serif" font-size="10.00">mars::interfaces::Plugin</text>
<text text-anchor="middle" x="860" y="-476.424" font-family="Helvetica,sans-Serif" font-size="10.00">Interface</text>
</a>
</g>
<!-- Node4&#45;&gt;Node2 -->
<g id="edge6" class="edge"><title>Node4&#45;&gt;Node2</title>
<path fill="none" stroke="midnightblue" d="M930.075,-495.817C959.899,-500.24 994.644,-505.393 1024.61,-509.837"/>
<polygon fill="midnightblue" stroke="midnightblue" points="930.569,-492.352 920.163,-494.347 929.542,-499.276 930.569,-492.352"/>
</g>
<!-- Node5 -->
<g id="node8" class="node"><title>Node5</title>
<a xlink:href="../../d7/d4e/classmars_1_1interfaces_1_1_control_center.html" target="_top" xlink:title="The declaration of the ControlCenter. ">
<polygon fill="white" stroke="black" points="604.5,-282.424 604.5,-316.424 729.5,-316.424 729.5,-282.424 604.5,-282.424"/>
<text text-anchor="start" x="612.5" y="-303.424" font-family="Helvetica,sans-Serif" font-size="10.00">mars::interfaces::Control</text>
<text text-anchor="middle" x="667" y="-290.424" font-family="Helvetica,sans-Serif" font-size="10.00">Center</text>
</a>
</g>
<!-- Node5&#45;&gt;Node4 -->
<g id="edge8" class="edge"><title>Node5&#45;&gt;Node4</title>
<path fill="none" stroke="#9a32cd" stroke-dasharray="5,2" d="M684.022,-325.199C707.111,-358.622 751.123,-417.158 800,-455.424 806.144,-460.234 813.182,-464.582 820.225,-468.379"/>
<polygon fill="#9a32cd" stroke="#9a32cd" points="686.87,-323.163 678.345,-316.872 681.087,-327.106 686.87,-323.163"/>
<text text-anchor="middle" x="765" y="-440.424" font-family="Helvetica,sans-Serif" font-size="10.00"> control</text>
</g>
<!-- Node6&#45;&gt;Node5 -->
<g id="edge10" class="edge"><title>Node6&#45;&gt;Node5</title>
<path fill="none" stroke="#9a32cd" stroke-dasharray="5,2" d="M422.215,-271.32C469.448,-275.245 531.33,-280.874 586,-287.424 591.928,-288.134 598.092,-288.935 604.253,-289.776"/>
<polygon fill="#9a32cd" stroke="#9a32cd" points="422.316,-267.817 412.063,-270.484 421.742,-274.793 422.316,-267.817"/>
<text text-anchor="middle" x="514" y="-291.424" font-family="Helvetica,sans-Serif" font-size="10.00"> graphics</text>
</g>
<!-- Node7 -->
<g id="node13" class="node"><title>Node7</title>
<a xlink:href="../../d2/da9/classmars_1_1interfaces_1_1_controller_manager_interface.html" target="_top" xlink:title="&quot;ControllerManagerInterface&quot; declares the interfaces for all controller operations that are used for ...">
<polygon fill="white" stroke="black" points="278.5,-404.424 278.5,-438.424 413.5,-438.424 413.5,-404.424 278.5,-404.424"/>
<text text-anchor="start" x="286.5" y="-425.424" font-family="Helvetica,sans-Serif" font-size="10.00">mars::interfaces::Controller</text>
<text text-anchor="middle" x="346" y="-412.424" font-family="Helvetica,sans-Serif" font-size="10.00">ManagerInterface</text>
</a>
</g>
<!-- Node7&#45;&gt;Node5 -->
<g id="edge14" class="edge"><title>Node7&#45;&gt;Node5</title>
<path fill="none" stroke="#9a32cd" stroke-dasharray="5,2" d="M423.811,-417.05C472.59,-411.741 535.556,-400.059 586,-374.424 613.678,-360.359 638.763,-334.061 653.453,-316.645"/>
<polygon fill="#9a32cd" stroke="#9a32cd" points="423.22,-413.592 413.627,-418.089 423.93,-420.556 423.22,-413.592"/>
<text text-anchor="middle" x="514" y="-417.424" font-family="Helvetica,sans-Serif" font-size="10.00"> controllers</text>
</g>
<!-- Node8 -->
<g id="node15" class="node"><title>Node8</title>
<a xlink:href="../../d6/d60/classmars_1_1interfaces_1_1_joint_manager_interface.html" target="_top" xlink:title="Interface class for the node organization. ">
<polygon fill="white" stroke="black" points="270,-352.424 270,-386.424 422,-386.424 422,-352.424 270,-352.424"/>
<text text-anchor="start" x="278" y="-373.424" font-family="Helvetica,sans-Serif" font-size="10.00">mars::interfaces::JointManager</text>
<text text-anchor="middle" x="346" y="-360.424" font-family="Helvetica,sans-Serif" font-size="10.00">Interface</text>
</a>
</g>
<!-- Node8&#45;&gt;Node5 -->
<g id="edge16" class="edge"><title>Node8&#45;&gt;Node5</title>
<path fill="none" stroke="#9a32cd" stroke-dasharray="5,2" d="M432.134,-359.099C478.228,-352.566 535.703,-342.8 586,-329.424 599.043,-325.955 612.927,-321.218 625.447,-316.532"/>
<polygon fill="#9a32cd" stroke="#9a32cd" points="431.601,-355.639 422.179,-360.485 432.566,-362.573 431.601,-355.639"/>
<text text-anchor="middle" x="514" y="-361.424" font-family="Helvetica,sans-Serif" font-size="10.00"> joints</text>
</g>
<!-- Node9 -->
<g id="node17" class="node"><title>Node9</title>
<a xlink:href="../../df/d82/classmars_1_1interfaces_1_1_entity_manager_interface.html" target="_top" xlink:title="mars::interfaces::Entity\lManagerInterface">
<polygon fill="white" stroke="black" points="286.5,-300.424 286.5,-334.424 405.5,-334.424 405.5,-300.424 286.5,-300.424"/>
<text text-anchor="start" x="294.5" y="-321.424" font-family="Helvetica,sans-Serif" font-size="10.00">mars::interfaces::Entity</text>
<text text-anchor="middle" x="346" y="-308.424" font-family="Helvetica,sans-Serif" font-size="10.00">ManagerInterface</text>
</a>
</g>
<!-- Node9&#45;&gt;Node5 -->
<g id="edge18" class="edge"><title>Node9&#45;&gt;Node5</title>
<path fill="none" stroke="#9a32cd" stroke-dasharray="5,2" d="M415.848,-313.507C472.025,-310.357 550.249,-305.971 604.406,-302.934"/>
<polygon fill="#9a32cd" stroke="#9a32cd" points="415.414,-310.026 405.625,-314.081 415.806,-317.015 415.414,-310.026"/>
<text text-anchor="middle" x="514" y="-316.424" font-family="Helvetica,sans-Serif" font-size="10.00"> entities</text>
</g>
<!-- Node10&#45;&gt;Node5 -->
<g id="edge20" class="edge"><title>Node10&#45;&gt;Node5</title>
<path fill="none" stroke="#9a32cd" stroke-dasharray="5,2" d="M412.689,-219.745C461.647,-225.727 529.224,-236.808 586,-256.424 604.81,-262.923 624.563,-273.327 639.853,-282.274"/>
<polygon fill="#9a32cd" stroke="#9a32cd" points="412.877,-216.243 402.535,-218.545 412.055,-223.195 412.877,-216.243"/>
<text text-anchor="middle" x="514" y="-260.424" font-family="Helvetica,sans-Serif" font-size="10.00"> cfg</text>
</g>
<!-- Node11&#45;&gt;Node5 -->
<g id="edge24" class="edge"><title>Node11&#45;&gt;Node5</title>
<path fill="none" stroke="#9a32cd" stroke-dasharray="5,2" d="M408.436,-462.316C479.391,-449.681 585.534,-430.741 586,-430.424 627.349,-402.308 651.51,-345.368 661.531,-316.717"/>
<polygon fill="#9a32cd" stroke="#9a32cd" points="407.471,-458.933 398.239,-464.132 408.698,-465.824 407.471,-458.933"/>
<text text-anchor="middle" x="514" y="-472.424" font-family="Helvetica,sans-Serif" font-size="10.00"> dataBroker</text>
<text text-anchor="middle" x="514" y="-459.424" font-family="Helvetica,sans-Serif" font-size="10.00">theDataBroker</text>
</g>
<!-- Node12 -->
<g id="node25" class="node"><title>Node12</title>
<a xlink:href="../../db/da9/classmars_1_1interfaces_1_1_sensor_manager_interface.html" target="_top" xlink:title="&quot;SensorManagerInterface&quot; declares the interfaces for all sensor operations that are used for the comm...">
<polygon fill="white" stroke="black" points="284,-144.424 284,-178.424 408,-178.424 408,-144.424 284,-144.424"/>
<text text-anchor="start" x="292" y="-165.424" font-family="Helvetica,sans-Serif" font-size="10.00">mars::interfaces::Sensor</text>
<text text-anchor="middle" x="346" y="-152.424" font-family="Helvetica,sans-Serif" font-size="10.00">ManagerInterface</text>
</a>
</g>
<!-- Node12&#45;&gt;Node5 -->
<g id="edge28" class="edge"><title>Node12&#45;&gt;Node5</title>
<path fill="none" stroke="#9a32cd" stroke-dasharray="5,2" d="M418.31,-163.119C468.288,-167.094 534.739,-178.133 586,-207.424 617.78,-225.584 643.421,-260.872 656.825,-282.074"/>
<polygon fill="#9a32cd" stroke="#9a32cd" points="418.45,-159.62 408.225,-162.395 417.948,-166.602 418.45,-159.62"/>
<text text-anchor="middle" x="514" y="-211.424" font-family="Helvetica,sans-Serif" font-size="10.00"> sensors</text>
</g>
<!-- Node13 -->
<g id="node27" class="node"><title>Node13</title>
<a xlink:href="../../db/de9/classmars_1_1interfaces_1_1_motor_manager_interface.html" target="_top" xlink:title="&quot;MotorManagerInterface&quot; declares the interfaces for all motor operations that are used for the commun...">
<polygon fill="white" stroke="black" points="268.5,-92.4242 268.5,-126.424 423.5,-126.424 423.5,-92.4242 268.5,-92.4242"/>
<text text-anchor="start" x="276.5" y="-113.424" font-family="Helvetica,sans-Serif" font-size="10.00">mars::interfaces::MotorManager</text>
<text text-anchor="middle" x="346" y="-100.424" font-family="Helvetica,sans-Serif" font-size="10.00">Interface</text>
</a>
</g>
<!-- Node13&#45;&gt;Node5 -->
<g id="edge30" class="edge"><title>Node13&#45;&gt;Node5</title>
<path fill="none" stroke="#9a32cd" stroke-dasharray="5,2" d="M433.923,-105.89C482.755,-108.116 542.281,-118.186 586,-149.424 632.235,-182.46 654.68,-250.317 663.013,-282.181"/>
<polygon fill="#9a32cd" stroke="#9a32cd" points="433.792,-102.383 423.675,-105.529 433.545,-109.379 433.792,-102.383"/>
<text text-anchor="middle" x="514" y="-153.424" font-family="Helvetica,sans-Serif" font-size="10.00"> motors</text>
</g>
<!-- Node14 -->
<g id="node29" class="node"><title>Node14</title>
<a xlink:href="../../d9/d6a/classmars_1_1interfaces_1_1_load_center.html" target="_top" xlink:title="mars::interfaces::LoadCenter">
<polygon fill="white" stroke="black" points="274.5,-52.9242 274.5,-73.9242 417.5,-73.9242 417.5,-52.9242 274.5,-52.9242"/>
<text text-anchor="middle" x="346" y="-60.9242" font-family="Helvetica,sans-Serif" font-size="10.00">mars::interfaces::LoadCenter</text>
</a>
</g>
<!-- Node14&#45;&gt;Node5 -->
<g id="edge32" class="edge"><title>Node14&#45;&gt;Node5</title>
<path fill="none" stroke="#9a32cd" stroke-dasharray="5,2" d="M427.757,-52.5868C478.252,-50.3786 541.645,-56.2448 586,-90.4242 648.419,-138.523 662.772,-241.301 666.044,-282.158"/>
<polygon fill="#9a32cd" stroke="#9a32cd" points="427.306,-49.1062 417.514,-53.1515 427.692,-56.0956 427.306,-49.1062"/>
<text text-anchor="middle" x="514" y="-94.4242" font-family="Helvetica,sans-Serif" font-size="10.00"> loadCenter</text>
</g>
<!-- Node15 -->
<g id="node31" class="node"><title>Node15</title>
<a xlink:href="../../d1/d51/classmars_1_1interfaces_1_1_load_heightmap_interface.html" target="_top" xlink:title="mars::interfaces::LoadHeightmap\lInterface">
<polygon fill="white" stroke="black" points="0.5,-20.4242 0.5,-54.4242 161.5,-54.4242 161.5,-20.4242 0.5,-20.4242"/>
<text text-anchor="start" x="8.5" y="-41.4242" font-family="Helvetica,sans-Serif" font-size="10.00">mars::interfaces::LoadHeightmap</text>
<text text-anchor="middle" x="81" y="-28.4242" font-family="Helvetica,sans-Serif" font-size="10.00">Interface</text>
</a>
</g>
<!-- Node15&#45;&gt;Node14 -->
<g id="edge34" class="edge"><title>Node15&#45;&gt;Node14</title>
<path fill="none" stroke="#9a32cd" stroke-dasharray="5,2" d="M171.844,-46.3372C205.335,-49.623 242.778,-53.2967 274.339,-56.3933"/>
<polygon fill="#9a32cd" stroke="#9a32cd" points="171.882,-42.8242 161.588,-45.3309 171.198,-49.7907 171.882,-42.8242"/>
<text text-anchor="middle" x="215" y="-58.4242" font-family="Helvetica,sans-Serif" font-size="10.00"> loadHeightmap</text>
</g>
<!-- Node16 -->
<g id="node33" class="node"><title>Node16</title>
<a xlink:href="../../d7/d02/classmars_1_1interfaces_1_1_load_mesh_interface.html" target="_top" xlink:title="mars::interfaces::LoadMesh\lInterface">
<polygon fill="white" stroke="black" points="12,-72.4242 12,-106.424 150,-106.424 150,-72.4242 12,-72.4242"/>
<text text-anchor="start" x="20" y="-93.4242" font-family="Helvetica,sans-Serif" font-size="10.00">mars::interfaces::LoadMesh</text>
<text text-anchor="middle" x="81" y="-80.4242" font-family="Helvetica,sans-Serif" font-size="10.00">Interface</text>
</a>
</g>
<!-- Node16&#45;&gt;Node14 -->
<g id="edge36" class="edge"><title>Node16&#45;&gt;Node14</title>
<path fill="none" stroke="#9a32cd" stroke-dasharray="5,2" d="M160.315,-81.6423C196.535,-78.0886 239.113,-73.9112 274.353,-70.4536"/>
<polygon fill="#9a32cd" stroke="#9a32cd" points="159.89,-78.1671 150.279,-82.6269 160.573,-85.1337 159.89,-78.1671"/>
<text text-anchor="middle" x="215" y="-84.4242" font-family="Helvetica,sans-Serif" font-size="10.00"> loadMesh</text>
</g>
<!-- Node17 -->
<g id="node35" class="node"><title>Node17</title>
<a xlink:href="../../d7/d4c/classmars_1_1interfaces_1_1_node_manager_interface.html" target="_top" xlink:title="&quot;NodeManagerInterface&quot; declares the interfaces for all NodeOperations that are used for the communica...">
<polygon fill="white" stroke="black" points="269,-0.424161 269,-34.4242 423,-34.4242 423,-0.424161 269,-0.424161"/>
<text text-anchor="start" x="277" y="-21.4242" font-family="Helvetica,sans-Serif" font-size="10.00">mars::interfaces::NodeManager</text>
<text text-anchor="middle" x="346" y="-8.42416" font-family="Helvetica,sans-Serif" font-size="10.00">Interface</text>
</a>
</g>
<!-- Node17&#45;&gt;Node5 -->
<g id="edge38" class="edge"><title>Node17&#45;&gt;Node5</title>
<path fill="none" stroke="#9a32cd" stroke-dasharray="5,2" d="M433.377,-1.49155C483.173,2.53018 543.85,-1.75712 586,-35.4242 625.894,-67.2896 655.476,-228.89 664.289,-282.278"/>
<polygon fill="#9a32cd" stroke="#9a32cd" points="432.882,1.97761 423.249,-2.43419 433.531,-4.99227 432.882,1.97761"/>
<text text-anchor="middle" x="514" y="-39.4242" font-family="Helvetica,sans-Serif" font-size="10.00"> nodes</text>
</g>
<!-- Node18 -->
<g id="node37" class="node"><title>Node18</title>
<a xlink:href="../../dc/de5/classmars_1_1interfaces_1_1_simulator_interface.html" target="_top" xlink:title="mars::interfaces::Simulator\lInterface">
<polygon fill="white" stroke="black" points="279,-508.424 279,-542.424 413,-542.424 413,-508.424 279,-508.424"/>
<text text-anchor="start" x="287" y="-529.424" font-family="Helvetica,sans-Serif" font-size="10.00">mars::interfaces::Simulator</text>
<text text-anchor="middle" x="346" y="-516.424" font-family="Helvetica,sans-Serif" font-size="10.00">Interface</text>
</a>
</g>
<!-- Node18&#45;&gt;Node2 -->
<g id="edge48" class="edge"><title>Node18&#45;&gt;Node2</title>
<path fill="none" stroke="#9a32cd" stroke-dasharray="5,2" d="M423.44,-524.908C569.522,-523.934 883.736,-521.839 1024.84,-520.899"/>
<polygon fill="#9a32cd" stroke="#9a32cd" points="423.194,-521.409 413.218,-524.976 423.241,-528.409 423.194,-521.409"/>
<text text-anchor="middle" x="765" y="-526.424" font-family="Helvetica,sans-Serif" font-size="10.00"> mars</text>
</g>
<!-- Node18&#45;&gt;Node5 -->
<g id="edge40" class="edge"><title>Node18&#45;&gt;Node5</title>
<path fill="none" stroke="#9a32cd" stroke-dasharray="5,2" d="M423.093,-509.033C429.482,-507.775 435.847,-506.556 442,-505.424 505.742,-493.701 534.651,-521.968 586,-482.424 640.642,-440.345 659.246,-353.496 664.846,-316.605"/>
<polygon fill="#9a32cd" stroke="#9a32cd" points="422.182,-505.645 413.06,-511.034 423.551,-512.51 422.182,-505.645"/>
<text text-anchor="middle" x="514" y="-509.424" font-family="Helvetica,sans-Serif" font-size="10.00"> sim</text>
</g>
<!-- Node19 -->
<g id="node39" class="node"><title>Node19</title>
<polygon fill="white" stroke="#bfbfbf" points="839.5,-424.924 839.5,-445.924 880.5,-445.924 880.5,-424.924 839.5,-424.924"/>
<text text-anchor="middle" x="860" y="-432.924" font-family="Helvetica,sans-Serif" font-size="10.00">string</text>
</g>
<!-- Node19&#45;&gt;Node1 -->
<g id="edge52" class="edge"><title>Node19&#45;&gt;Node1</title>
<path fill="none" stroke="#9a32cd" stroke-dasharray="5,2" d="M890.854,-433.846C954.106,-430.571 1103.05,-422.651 1228,-414.424 1233.82,-414.041 1239.92,-413.617 1245.97,-413.182"/>
<polygon fill="#9a32cd" stroke="#9a32cd" points="890.564,-430.356 880.758,-434.367 890.925,-437.347 890.564,-430.356"/>
<text text-anchor="middle" x="1096" y="-430.424" font-family="Helvetica,sans-Serif" font-size="10.00"> ips_</text>
</g>
<!-- Node19&#45;&gt;Node2 -->
<g id="edge42" class="edge"><title>Node19&#45;&gt;Node2</title>
<path fill="none" stroke="#9a32cd" stroke-dasharray="5,2" d="M890.812,-439.706C920.098,-444.391 965.033,-453.191 1002,-467.424 1026.3,-476.781 1051.93,-491.602 1070.27,-503.195"/>
<polygon fill="#9a32cd" stroke="#9a32cd" points="891.19,-436.223 880.774,-438.164 890.127,-443.142 891.19,-436.223"/>
<text text-anchor="middle" x="970" y="-484.424" font-family="Helvetica,sans-Serif" font-size="10.00"> configPath</text>
<text text-anchor="middle" x="970" y="-471.424" font-family="Helvetica,sans-Serif" font-size="10.00">resourcesPath</text>
</g>
<!-- Node20&#45;&gt;Node2 -->
<g id="edge44" class="edge"><title>Node20&#45;&gt;Node2</title>
<path fill="none" stroke="#9a32cd" stroke-dasharray="5,2" d="M595.954,-617.638C694.972,-625.803 865.288,-630.253 1002,-584.424 1031.2,-574.635 1059.72,-553.011 1077.54,-537.611"/>
<polygon fill="#9a32cd" stroke="#9a32cd" points="595.977,-614.127 585.714,-616.759 595.378,-621.102 595.977,-614.127"/>
<text text-anchor="middle" x="765" y="-626.424" font-family="Helvetica,sans-Serif" font-size="10.00"> gui</text>
</g>
<!-- Node21 -->
<g id="node45" class="node"><title>Node21</title>
<a xlink:href="../../d3/d52/classmars_1_1main__gui_1_1_menu_interface.html" target="_top" xlink:title="Provides the menuAction function. ">
<polygon fill="white" stroke="black" points="1020,-375.924 1020,-396.924 1172,-396.924 1172,-375.924 1020,-375.924"/>
<text text-anchor="middle" x="1096" y="-383.924" font-family="Helvetica,sans-Serif" font-size="10.00">mars::main_gui::MenuInterface</text>
</a>
</g>
<!-- Node21&#45;&gt;Node1 -->
<g id="edge50" class="edge"><title>Node21&#45;&gt;Node1</title>
<path fill="none" stroke="midnightblue" d="M1182.31,-396.4C1204,-398.906 1226.54,-401.511 1245.71,-403.727"/>
<polygon fill="midnightblue" stroke="midnightblue" points="1182.42,-392.889 1172.09,-395.218 1181.62,-399.843 1182.42,-392.889"/>
</g>
<!-- Node22 -->
<g id="node48" class="node"><title>Node22</title>
<a xlink:href="../../d8/d29/class_my_sock.html" target="_top" xlink:title="MySock">
<polygon fill="white" stroke="black" points="1069.5,-335.924 1069.5,-356.924 1122.5,-356.924 1122.5,-335.924 1069.5,-335.924"/>
<text text-anchor="middle" x="1096" y="-343.924" font-family="Helvetica,sans-Serif" font-size="10.00">MySock</text>
</a>
</g>
<!-- Node22&#45;&gt;Node1 -->
<g id="edge54" class="edge"><title>Node22&#45;&gt;Node1</title>
<path fill="none" stroke="#9a32cd" stroke-dasharray="5,2" d="M1132.68,-354.699C1159.4,-361.075 1196.31,-370.611 1228,-381.424 1242.8,-386.472 1258.98,-393.199 1271.73,-398.794"/>
<polygon fill="#9a32cd" stroke="#9a32cd" points="1133.16,-351.214 1122.62,-352.331 1131.55,-358.028 1133.16,-351.214"/>
<text text-anchor="middle" x="1209" y="-385.424" font-family="Helvetica,sans-Serif" font-size="10.00"> clients_</text>
</g>
</g>
</svg>
