<?xml version="1.0" encoding="UTF-8" standalone="no"?>
<!DOCTYPE svg PUBLIC "-//W3C//DTD SVG 1.1//EN"
 "http://www.w3.org/Graphics/SVG/1.1/DTD/svg11.dtd">
<!-- Generated by graphviz version 2.36.0 (20140111.2315)
 -->
<!-- Title: mars::smurf::SMURFLoader Pages: 1 -->
<svg width="1622pt" height="693pt"
 viewBox="0.00 0.00 1622.00 693.00" xmlns="http://www.w3.org/2000/svg" xmlns:xlink="http://www.w3.org/1999/xlink">
<g id="graph0" class="graph" transform="scale(1 1) rotate(0) translate(4 689)">
<title>mars::smurf::SMURFLoader</title>
<polygon fill="white" stroke="none" points="-4,4 -4,-689 1618,-689 1618,4 -4,4"/>
<!-- Node1 -->
<g id="node1" class="node"><title>Node1</title>
<polygon fill="#bfbfbf" stroke="black" points="1474,-412.5 1474,-431.5 1614,-431.5 1614,-412.5 1474,-412.5"/>
<text text-anchor="middle" x="1544" y="-419.5" font-family="Helvetica,sans-Serif" font-size="10.00">mars::smurf::SMURFLoader</text>
</g>
<!-- Node2 -->
<g id="node2" class="node"><title>Node2</title>
<g id="a_node2"><a xlink:href="../../d3/d03/classmars_1_1interfaces_1_1_load_scene_interface.html" target="_top" xlink:title="mars::interfaces::LoadScene\lInterface">
<polygon fill="white" stroke="black" points="442,-74 442,-104 584,-104 584,-74 442,-74"/>
<text text-anchor="start" x="450" y="-92" font-family="Helvetica,sans-Serif" font-size="10.00">mars::interfaces::LoadScene</text>
<text text-anchor="middle" x="513" y="-81" font-family="Helvetica,sans-Serif" font-size="10.00">Interface</text>
</a>
</g>
</g>
<!-- Node2&#45;&gt;Node1 -->
<g id="edge1" class="edge"><title>Node2&#45;&gt;Node1</title>
<path fill="none" stroke="midnightblue" d="M583.708,-107.872C583.805,-107.915 583.903,-107.957 584,-108 669.597,-145.543 668.531,-220 762,-220 762,-220 762,-220 1307,-220 1426.73,-220 1516.28,-371.907 1537.95,-412.257"/>
<polygon fill="midnightblue" stroke="midnightblue" points="584.939,-104.595 574.354,-104.132 582.34,-111.095 584.939,-104.595"/>
</g>
<!-- Node3 -->
<g id="node3" class="node"><title>Node3</title>
<polygon fill="white" stroke="#bfbfbf" points="47,-424.5 47,-443.5 115,-443.5 115,-424.5 47,-424.5"/>
<text text-anchor="middle" x="81" y="-431.5" font-family="Helvetica,sans-Serif" font-size="10.00">LibInterface</text>
</g>
<!-- Node3&#45;&gt;Node2 -->
<g id="edge2" class="edge"><title>Node3&#45;&gt;Node2</title>
<path fill="none" stroke="midnightblue" d="M86.8095,-414.275C101.989,-356.702 154.735,-188.326 268,-115 319.317,-81.7779 389.771,-77.6313 441.783,-80.4027"/>
<polygon fill="midnightblue" stroke="midnightblue" points="83.3451,-413.697 84.2677,-424.252 90.1284,-415.425 83.3451,-413.697"/>
</g>
<!-- Node5 -->
<g id="node5" class="node"><title>Node5</title>
<g id="a_node5"><a xlink:href="../../d6/df6/classmars_1_1interfaces_1_1_mars_plugin_template.html" target="_top" xlink:title="mars::interfaces::MarsPlugin\lTemplate">
<polygon fill="white" stroke="black" points="1028,-534 1028,-564 1170,-564 1170,-534 1028,-534"/>
<text text-anchor="start" x="1036" y="-552" font-family="Helvetica,sans-Serif" font-size="10.00">mars::interfaces::MarsPlugin</text>
<text text-anchor="middle" x="1099" y="-541" font-family="Helvetica,sans-Serif" font-size="10.00">Template</text>
</a>
</g>
</g>
<!-- Node3&#45;&gt;Node5 -->
<g id="edge5" class="edge"><title>Node3&#45;&gt;Node5</title>
<path fill="none" stroke="midnightblue" d="M94.2869,-452.184C128.147,-499.893 228.083,-625 345,-625 345,-625 345,-625 864,-625 873.771,-625 989.147,-586.164 1054.15,-564.015"/>
<polygon fill="midnightblue" stroke="midnightblue" points="96.9935,-449.946 88.4105,-443.734 91.2466,-453.943 96.9935,-449.946"/>
</g>
<!-- Node8 -->
<g id="node8" class="node"><title>Node8</title>
<g id="a_node8"><a xlink:href="../../d1/d93/classmars_1_1interfaces_1_1_graphics_manager_interface.html" target="_top" xlink:title="mars::interfaces::Graphics\lManagerInterface">
<polygon fill="white" stroke="black" points="280,-321 280,-351 412,-351 412,-321 280,-321"/>
<text text-anchor="start" x="288" y="-339" font-family="Helvetica,sans-Serif" font-size="10.00">mars::interfaces::Graphics</text>
<text text-anchor="middle" x="346" y="-328" font-family="Helvetica,sans-Serif" font-size="10.00">ManagerInterface</text>
</a>
</g>
</g>
<!-- Node3&#45;&gt;Node8 -->
<g id="edge9" class="edge"><title>Node3&#45;&gt;Node8</title>
<path fill="none" stroke="midnightblue" d="M113.625,-420.559C150.412,-405.126 213.118,-379.438 268,-360 276.579,-356.961 285.766,-353.919 294.699,-351.07"/>
<polygon fill="midnightblue" stroke="midnightblue" points="112.267,-417.334 104.408,-424.439 114.983,-423.785 112.267,-417.334"/>
</g>
<!-- Node12 -->
<g id="node12" class="node"><title>Node12</title>
<g id="a_node12"><a xlink:href="../../d4/da6/classmars_1_1cfg__manager_1_1_c_f_g_manager_interface.html" target="_top" xlink:title="mars::cfg_manager::\lCFGManagerInterface">
<polygon fill="white" stroke="black" points="289.5,-468 289.5,-498 402.5,-498 402.5,-468 289.5,-468"/>
<text text-anchor="start" x="297.5" y="-486" font-family="Helvetica,sans-Serif" font-size="10.00">mars::cfg_manager::</text>
<text text-anchor="middle" x="346" y="-475" font-family="Helvetica,sans-Serif" font-size="10.00">CFGManagerInterface</text>
</a>
</g>
</g>
<!-- Node3&#45;&gt;Node12 -->
<g id="edge14" class="edge"><title>Node3&#45;&gt;Node12</title>
<path fill="none" stroke="midnightblue" d="M125.035,-442.018C169.881,-450.373 240.327,-463.498 289.371,-472.636"/>
<polygon fill="midnightblue" stroke="midnightblue" points="125.515,-438.547 115.043,-440.156 124.233,-445.429 125.515,-438.547"/>
</g>
<!-- Node13 -->
<g id="node13" class="node"><title>Node13</title>
<g id="a_node13"><a xlink:href="../../d6/d2e/classmars_1_1data__broker_1_1_data_broker_interface.html" target="_top" xlink:title="The interface every DataBroker should implement. ">
<polygon fill="white" stroke="black" points="294,-419 294,-449 398,-449 398,-419 294,-419"/>
<text text-anchor="start" x="302" y="-437" font-family="Helvetica,sans-Serif" font-size="10.00">mars::data_broker::</text>
<text text-anchor="middle" x="346" y="-426" font-family="Helvetica,sans-Serif" font-size="10.00">DataBrokerInterface</text>
</a>
</g>
</g>
<!-- Node3&#45;&gt;Node13 -->
<g id="edge16" class="edge"><title>Node3&#45;&gt;Node13</title>
<path fill="none" stroke="midnightblue" d="M125.333,-434C171.569,-434 244.768,-434 293.812,-434"/>
<polygon fill="midnightblue" stroke="midnightblue" points="125.043,-430.5 115.043,-434 125.043,-437.5 125.043,-430.5"/>
</g>
<!-- Node4 -->
<g id="node4" class="node"><title>Node4</title>
<g id="a_node4"><a xlink:href="../../d4/d0e/classmars_1_1entity__generation_1_1_entity_factory_manager.html" target="_top" xlink:title="mars::entity_generation\l::EntityFactoryManager">
<polygon fill="white" stroke="black" points="1246.5,-562 1246.5,-592 1365.5,-592 1365.5,-562 1246.5,-562"/>
<text text-anchor="start" x="1254.5" y="-580" font-family="Helvetica,sans-Serif" font-size="10.00">mars::entity_generation</text>
<text text-anchor="middle" x="1306" y="-569" font-family="Helvetica,sans-Serif" font-size="10.00">::EntityFactoryManager</text>
</a>
</g>
</g>
<!-- Node4&#45;&gt;Node1 -->
<g id="edge3" class="edge"><title>Node4&#45;&gt;Node1</title>
<path fill="none" stroke="#9a32cd" stroke-dasharray="5,2" d="M1338.51,-556.305C1390.17,-522.374 1490.9,-456.219 1528.44,-431.564"/>
<polygon fill="#9a32cd" stroke="#9a32cd" points="1336.5,-553.441 1330.06,-561.856 1340.34,-559.291 1336.5,-553.441"/>
<text text-anchor="middle" x="1420" y="-526" font-family="Helvetica,sans-Serif" font-size="10.00"> factoryManager</text>
</g>
<!-- Node5&#45;&gt;Node4 -->
<g id="edge4" class="edge"><title>Node5&#45;&gt;Node4</title>
<path fill="none" stroke="midnightblue" d="M1180.28,-559.965C1202.33,-562.977 1225.83,-566.186 1246.41,-568.997"/>
<polygon fill="midnightblue" stroke="midnightblue" points="1180.64,-556.482 1170.26,-558.597 1179.7,-563.418 1180.64,-556.482"/>
</g>
<!-- Node6 -->
<g id="node6" class="node"><title>Node6</title>
<g id="a_node6"><a xlink:href="../../d1/d70/classmars_1_1interfaces_1_1_plugin_interface.html" target="_top" xlink:title="The interface to load plugin dynamically into the simulation. ">
<polygon fill="white" stroke="black" points="803,-513 803,-543 923,-543 923,-513 803,-513"/>
<text text-anchor="start" x="811" y="-531" font-family="Helvetica,sans-Serif" font-size="10.00">mars::interfaces::Plugin</text>
<text text-anchor="middle" x="863" y="-520" font-family="Helvetica,sans-Serif" font-size="10.00">Interface</text>
</a>
</g>
</g>
<!-- Node6&#45;&gt;Node5 -->
<g id="edge6" class="edge"><title>Node6&#45;&gt;Node5</title>
<path fill="none" stroke="midnightblue" d="M933.354,-534.224C963.123,-536.896 997.853,-540.012 1027.72,-542.693"/>
<polygon fill="midnightblue" stroke="midnightblue" points="933.321,-530.707 923.048,-533.299 932.695,-537.679 933.321,-530.707"/>
</g>
<!-- Node7 -->
<g id="node7" class="node"><title>Node7</title>
<g id="a_node7"><a xlink:href="../../d7/d4e/classmars_1_1interfaces_1_1_control_center.html" target="_top" xlink:title="The declaration of the ControlCenter. ">
<polygon fill="white" stroke="black" points="602.5,-370 602.5,-400 727.5,-400 727.5,-370 602.5,-370"/>
<text text-anchor="start" x="610.5" y="-388" font-family="Helvetica,sans-Serif" font-size="10.00">mars::interfaces::Control</text>
<text text-anchor="middle" x="665" y="-377" font-family="Helvetica,sans-Serif" font-size="10.00">Center</text>
</a>
</g>
</g>
<!-- Node7&#45;&gt;Node1 -->
<g id="edge30" class="edge"><title>Node7&#45;&gt;Node1</title>
<path fill="none" stroke="#9a32cd" stroke-dasharray="5,2" d="M737.996,-386.086C775.047,-386.556 820.941,-387 862,-387 862,-387 862,-387 1307,-387 1376.59,-387 1456.48,-402.073 1503.18,-412.436"/>
<polygon fill="#9a32cd" stroke="#9a32cd" points="737.836,-382.584 727.791,-385.953 737.745,-389.583 737.836,-382.584"/>
<text text-anchor="middle" x="1099" y="-390" font-family="Helvetica,sans-Serif" font-size="10.00"> control</text>
</g>
<!-- Node7&#45;&gt;Node6 -->
<g id="edge7" class="edge"><title>Node7&#45;&gt;Node6</title>
<path fill="none" stroke="#9a32cd" stroke-dasharray="5,2" d="M693.562,-406.191C720.097,-426.469 761.471,-457.761 798,-484 811.689,-493.833 827.269,-504.554 839.629,-512.951"/>
<polygon fill="#9a32cd" stroke="#9a32cd" points="695.561,-403.314 685.493,-400.015 691.306,-408.872 695.561,-403.314"/>
<text text-anchor="middle" x="763" y="-474" font-family="Helvetica,sans-Serif" font-size="10.00"> control</text>
</g>
<!-- Node8&#45;&gt;Node7 -->
<g id="edge8" class="edge"><title>Node8&#45;&gt;Node7</title>
<path fill="none" stroke="#9a32cd" stroke-dasharray="5,2" d="M422.276,-345.96C468.925,-352.34 530.033,-361.074 584,-370 589.995,-370.992 596.233,-372.073 602.463,-373.187"/>
<polygon fill="#9a32cd" stroke="#9a32cd" points="422.631,-342.476 412.25,-344.595 421.686,-349.412 422.631,-342.476"/>
<text text-anchor="middle" x="513" y="-373" font-family="Helvetica,sans-Serif" font-size="10.00"> graphics</text>
</g>
<!-- Node9 -->
<g id="node9" class="node"><title>Node9</title>
<g id="a_node9"><a xlink:href="../../d2/da9/classmars_1_1interfaces_1_1_controller_manager_interface.html" target="_top" xlink:title="&quot;ControllerManagerInterface&quot; declares the interfaces for all controller operations that are used for ...">
<polygon fill="white" stroke="black" points="278.5,-125 278.5,-155 413.5,-155 413.5,-125 278.5,-125"/>
<text text-anchor="start" x="286.5" y="-143" font-family="Helvetica,sans-Serif" font-size="10.00">mars::interfaces::Controller</text>
<text text-anchor="middle" x="346" y="-132" font-family="Helvetica,sans-Serif" font-size="10.00">ManagerInterface</text>
</a>
</g>
</g>
<!-- Node9&#45;&gt;Node7 -->
<g id="edge10" class="edge"><title>Node9&#45;&gt;Node7</title>
<path fill="none" stroke="#9a32cd" stroke-dasharray="5,2" d="M423.9,-140.755C483.778,-142.943 560.537,-149.781 584,-170 606.384,-189.289 592.372,-206.064 602,-234 619.452,-284.638 644.929,-342.81 657.069,-369.791"/>
<polygon fill="#9a32cd" stroke="#9a32cd" points="423.8,-137.25 413.691,-140.42 423.571,-144.246 423.8,-137.25"/>
<text text-anchor="middle" x="513" y="-173" font-family="Helvetica,sans-Serif" font-size="10.00"> controllers</text>
</g>
<!-- Node10 -->
<g id="node10" class="node"><title>Node10</title>
<g id="a_node10"><a xlink:href="../../d6/d60/classmars_1_1interfaces_1_1_joint_manager_interface.html" target="_top" xlink:title="Interface class for the node organization. ">
<polygon fill="white" stroke="black" points="270,-517 270,-547 422,-547 422,-517 270,-517"/>
<text text-anchor="start" x="278" y="-535" font-family="Helvetica,sans-Serif" font-size="10.00">mars::interfaces::JointManager</text>
<text text-anchor="middle" x="346" y="-524" font-family="Helvetica,sans-Serif" font-size="10.00">Interface</text>
</a>
</g>
</g>
<!-- Node10&#45;&gt;Node7 -->
<g id="edge11" class="edge"><title>Node10&#45;&gt;Node7</title>
<path fill="none" stroke="#9a32cd" stroke-dasharray="5,2" d="M432.428,-521.9C494.914,-513.968 570.956,-502.969 584,-495 621.48,-472.102 646.728,-424.409 657.734,-400.039"/>
<polygon fill="#9a32cd" stroke="#9a32cd" points="431.617,-518.475 422.132,-523.195 432.49,-525.42 431.617,-518.475"/>
<text text-anchor="middle" x="513" y="-524" font-family="Helvetica,sans-Serif" font-size="10.00"> joints</text>
</g>
<!-- Node11 -->
<g id="node11" class="node"><title>Node11</title>
<g id="a_node11"><a xlink:href="../../df/d82/classmars_1_1interfaces_1_1_entity_manager_interface.html" target="_top" xlink:title="mars::interfaces::Entity\lManagerInterface">
<polygon fill="white" stroke="black" points="286.5,-370 286.5,-400 405.5,-400 405.5,-370 286.5,-370"/>
<text text-anchor="start" x="294.5" y="-388" font-family="Helvetica,sans-Serif" font-size="10.00">mars::interfaces::Entity</text>
<text text-anchor="middle" x="346" y="-377" font-family="Helvetica,sans-Serif" font-size="10.00">ManagerInterface</text>
</a>
</g>
</g>
<!-- Node11&#45;&gt;Node7 -->
<g id="edge12" class="edge"><title>Node11&#45;&gt;Node7</title>
<path fill="none" stroke="#9a32cd" stroke-dasharray="5,2" d="M415.617,-385C471.163,-385 548.709,-385 602.312,-385"/>
<polygon fill="#9a32cd" stroke="#9a32cd" points="415.512,-381.5 405.512,-385 415.512,-388.5 415.512,-381.5"/>
<text text-anchor="middle" x="513" y="-388" font-family="Helvetica,sans-Serif" font-size="10.00"> entities</text>
</g>
<!-- Node12&#45;&gt;Node7 -->
<g id="edge13" class="edge"><title>Node12&#45;&gt;Node7</title>
<path fill="none" stroke="#9a32cd" stroke-dasharray="5,2" d="M413.002,-482.31C461.98,-479.68 529.439,-471.509 584,-448 609.977,-436.807 634.733,-414.996 649.646,-400.212"/>
<polygon fill="#9a32cd" stroke="#9a32cd" points="412.666,-478.822 402.843,-482.791 412.997,-485.814 412.666,-478.822"/>
<text text-anchor="middle" x="513" y="-483" font-family="Helvetica,sans-Serif" font-size="10.00"> cfg</text>
</g>
<!-- Node13&#45;&gt;Node7 -->
<g id="edge15" class="edge"><title>Node13&#45;&gt;Node7</title>
<path fill="none" stroke="#9a32cd" stroke-dasharray="5,2" d="M408.622,-425.897C456.522,-419.42 524.589,-409.827 584,-400 589.995,-399.008 596.233,-397.927 602.463,-396.813"/>
<polygon fill="#9a32cd" stroke="#9a32cd" points="407.858,-422.468 398.415,-427.271 408.792,-429.405 407.858,-422.468"/>
<text text-anchor="middle" x="513" y="-436" font-family="Helvetica,sans-Serif" font-size="10.00"> dataBroker</text>
<text text-anchor="middle" x="513" y="-425" font-family="Helvetica,sans-Serif" font-size="10.00">theDataBroker</text>
</g>
<!-- Node14 -->
<g id="node14" class="node"><title>Node14</title>
<g id="a_node14"><a xlink:href="../../db/da9/classmars_1_1interfaces_1_1_sensor_manager_interface.html" target="_top" xlink:title="&quot;SensorManagerInterface&quot; declares the interfaces for all sensor operations that are used for the comm...">
<polygon fill="white" stroke="black" points="284,-272 284,-302 408,-302 408,-272 284,-272"/>
<text text-anchor="start" x="292" y="-290" font-family="Helvetica,sans-Serif" font-size="10.00">mars::interfaces::Sensor</text>
<text text-anchor="middle" x="346" y="-279" font-family="Helvetica,sans-Serif" font-size="10.00">ManagerInterface</text>
</a>
</g>
</g>
<!-- Node14&#45;&gt;Node7 -->
<g id="edge17" class="edge"><title>Node14&#45;&gt;Node7</title>
<path fill="none" stroke="#9a32cd" stroke-dasharray="5,2" d="M418.199,-294.117C466.319,-300.599 530.575,-312.559 584,-334 606.318,-342.957 629.2,-358.285 644.743,-369.805"/>
<polygon fill="#9a32cd" stroke="#9a32cd" points="418.554,-290.633 408.186,-292.815 417.651,-297.575 418.554,-290.633"/>
<text text-anchor="middle" x="513" y="-337" font-family="Helvetica,sans-Serif" font-size="10.00"> sensors</text>
</g>
<!-- Node15 -->
<g id="node15" class="node"><title>Node15</title>
<g id="a_node15"><a xlink:href="../../db/de9/classmars_1_1interfaces_1_1_motor_manager_interface.html" target="_top" xlink:title="&quot;MotorManagerInterface&quot; declares the interfaces for all motor operations that are used for the commun...">
<polygon fill="white" stroke="black" points="268.5,-223 268.5,-253 423.5,-253 423.5,-223 268.5,-223"/>
<text text-anchor="start" x="276.5" y="-241" font-family="Helvetica,sans-Serif" font-size="10.00">mars::interfaces::MotorManager</text>
<text text-anchor="middle" x="346" y="-230" font-family="Helvetica,sans-Serif" font-size="10.00">Interface</text>
</a>
</g>
</g>
<!-- Node15&#45;&gt;Node7 -->
<g id="edge18" class="edge"><title>Node15&#45;&gt;Node7</title>
<path fill="none" stroke="#9a32cd" stroke-dasharray="5,2" d="M433.889,-240.365C481.183,-245.076 539.041,-256.663 584,-284 618.786,-305.151 644.545,-347.277 656.531,-369.863"/>
<polygon fill="#9a32cd" stroke="#9a32cd" points="433.934,-236.854 423.658,-239.435 433.3,-243.826 433.934,-236.854"/>
<text text-anchor="middle" x="513" y="-287" font-family="Helvetica,sans-Serif" font-size="10.00"> motors</text>
</g>
<!-- Node16 -->
<g id="node16" class="node"><title>Node16</title>
<g id="a_node16"><a xlink:href="../../d9/d6a/classmars_1_1interfaces_1_1_load_center.html" target="_top" xlink:title="mars::interfaces::LoadCenter">
<polygon fill="white" stroke="black" points="274.5,-48.5 274.5,-67.5 417.5,-67.5 417.5,-48.5 274.5,-48.5"/>
<text text-anchor="middle" x="346" y="-55.5" font-family="Helvetica,sans-Serif" font-size="10.00">mars::interfaces::LoadCenter</text>
</a>
</g>
</g>
<!-- Node16&#45;&gt;Node7 -->
<g id="edge19" class="edge"><title>Node16&#45;&gt;Node7</title>
<path fill="none" stroke="#9a32cd" stroke-dasharray="5,2" d="M370.853,-72.7712C389.535,-83.6556 416.536,-97.918 442,-106 472.404,-115.65 561.222,-104.669 584,-127 618.436,-160.759 588.76,-187.63 602,-234 616.706,-285.502 643.491,-343.262 656.504,-369.968"/>
<polygon fill="#9a32cd" stroke="#9a32cd" points="372.529,-69.6952 362.145,-67.5898 368.949,-75.7109 372.529,-69.6952"/>
<text text-anchor="middle" x="513" y="-130" font-family="Helvetica,sans-Serif" font-size="10.00"> loadCenter</text>
</g>
<!-- Node17 -->
<g id="node17" class="node"><title>Node17</title>
<g id="a_node17"><a xlink:href="../../d1/d51/classmars_1_1interfaces_1_1_load_heightmap_interface.html" target="_top" xlink:title="mars::interfaces::LoadHeightmap\lInterface">
<polygon fill="white" stroke="black" points="0.5,-0 0.5,-30 161.5,-30 161.5,-0 0.5,-0"/>
<text text-anchor="start" x="8.5" y="-18" font-family="Helvetica,sans-Serif" font-size="10.00">mars::interfaces::LoadHeightmap</text>
<text text-anchor="middle" x="81" y="-7" font-family="Helvetica,sans-Serif" font-size="10.00">Interface</text>
</a>
</g>
</g>
<!-- Node17&#45;&gt;Node16 -->
<g id="edge20" class="edge"><title>Node17&#45;&gt;Node16</title>
<path fill="none" stroke="#9a32cd" stroke-dasharray="5,2" d="M171.664,-29.66C209.626,-35.8666 252.779,-42.9221 286.532,-48.4406"/>
<polygon fill="#9a32cd" stroke="#9a32cd" points="172.056,-26.1776 161.622,-28.0181 170.927,-33.0859 172.056,-26.1776"/>
<text text-anchor="middle" x="215" y="-45" font-family="Helvetica,sans-Serif" font-size="10.00"> loadHeightmap</text>
</g>
<!-- Node18 -->
<g id="node18" class="node"><title>Node18</title>
<g id="a_node18"><a xlink:href="../../d7/d02/classmars_1_1interfaces_1_1_load_mesh_interface.html" target="_top" xlink:title="mars::interfaces::LoadMesh\lInterface">
<polygon fill="white" stroke="black" points="12,-49 12,-79 150,-79 150,-49 12,-49"/>
<text text-anchor="start" x="20" y="-67" font-family="Helvetica,sans-Serif" font-size="10.00">mars::interfaces::LoadMesh</text>
<text text-anchor="middle" x="81" y="-56" font-family="Helvetica,sans-Serif" font-size="10.00">Interface</text>
</a>
</g>
</g>
<!-- Node18&#45;&gt;Node16 -->
<g id="edge21" class="edge"><title>Node18&#45;&gt;Node16</title>
<path fill="none" stroke="#9a32cd" stroke-dasharray="5,2" d="M160.116,-62.2179C196.387,-61.3904 239.183,-60.4141 274.462,-59.6092"/>
<polygon fill="#9a32cd" stroke="#9a32cd" points="159.989,-58.7198 150.071,-62.447 160.148,-65.718 159.989,-58.7198"/>
<text text-anchor="middle" x="215" y="-65" font-family="Helvetica,sans-Serif" font-size="10.00"> loadMesh</text>
</g>
<!-- Node19 -->
<g id="node19" class="node"><title>Node19</title>
<g id="a_node19"><a xlink:href="../../d7/d4c/classmars_1_1interfaces_1_1_node_manager_interface.html" target="_top" xlink:title="&quot;NodeManagerInterface&quot; declares the interfaces for all NodeOperations that are used for the communica...">
<polygon fill="white" stroke="black" points="269,-174 269,-204 423,-204 423,-174 269,-174"/>
<text text-anchor="start" x="277" y="-192" font-family="Helvetica,sans-Serif" font-size="10.00">mars::interfaces::NodeManager</text>
<text text-anchor="middle" x="346" y="-181" font-family="Helvetica,sans-Serif" font-size="10.00">Interface</text>
</a>
</g>
</g>
<!-- Node19&#45;&gt;Node7 -->
<g id="edge22" class="edge"><title>Node19&#45;&gt;Node7</title>
<path fill="none" stroke="#9a32cd" stroke-dasharray="5,2" d="M433.299,-184.418C481.758,-186.067 540.95,-195.576 584,-227 633.171,-262.892 654.137,-337.78 661.113,-369.871"/>
<polygon fill="#9a32cd" stroke="#9a32cd" points="433.21,-180.915 423.131,-184.18 433.046,-187.913 433.21,-180.915"/>
<text text-anchor="middle" x="513" y="-230" font-family="Helvetica,sans-Serif" font-size="10.00"> nodes</text>
</g>
<!-- Node20 -->
<g id="node20" class="node"><title>Node20</title>
<g id="a_node20"><a xlink:href="../../dc/de5/classmars_1_1interfaces_1_1_simulator_interface.html" target="_top" xlink:title="mars::interfaces::Simulator\lInterface">
<polygon fill="white" stroke="black" points="279,-566 279,-596 413,-596 413,-566 279,-566"/>
<text text-anchor="start" x="287" y="-584" font-family="Helvetica,sans-Serif" font-size="10.00">mars::interfaces::Simulator</text>
<text text-anchor="middle" x="346" y="-573" font-family="Helvetica,sans-Serif" font-size="10.00">Interface</text>
</a>
</g>
</g>
<!-- Node20&#45;&gt;Node5 -->
<g id="edge25" class="edge"><title>Node20&#45;&gt;Node5</title>
<path fill="none" stroke="#9a32cd" stroke-dasharray="5,2" d="M423.448,-577.851C546.843,-572.751 797.577,-562.313 1010,-553 1015.81,-552.745 1021.83,-552.478 1027.87,-552.208"/>
<polygon fill="#9a32cd" stroke="#9a32cd" points="423.193,-574.359 413.346,-578.269 423.482,-581.353 423.193,-574.359"/>
<text text-anchor="middle" x="763" y="-568" font-family="Helvetica,sans-Serif" font-size="10.00"> mars</text>
</g>
<!-- Node20&#45;&gt;Node7 -->
<g id="edge23" class="edge"><title>Node20&#45;&gt;Node7</title>
<path fill="none" stroke="#9a32cd" stroke-dasharray="5,2" d="M410.478,-563.388C420.967,-560.739 431.759,-558.172 442,-556 504.543,-542.738 531.888,-570.039 584,-533 630.662,-499.835 652.767,-430.699 660.566,-400.113"/>
<polygon fill="#9a32cd" stroke="#9a32cd" points="409.355,-560.062 400.541,-565.942 411.098,-566.842 409.355,-560.062"/>
<text text-anchor="middle" x="513" y="-559" font-family="Helvetica,sans-Serif" font-size="10.00"> sim</text>
</g>
<!-- Node21 -->
<g id="node21" class="node"><title>Node21</title>
<polygon fill="white" stroke="#bfbfbf" points="842.5,-455.5 842.5,-474.5 883.5,-474.5 883.5,-455.5 842.5,-455.5"/>
<text text-anchor="middle" x="863" y="-462.5" font-family="Helvetica,sans-Serif" font-size="10.00">string</text>
</g>
<!-- Node21&#45;&gt;Node1 -->
<g id="edge29" class="edge"><title>Node21&#45;&gt;Node1</title>
<path fill="none" stroke="#9a32cd" stroke-dasharray="5,2" d="M893.709,-463.119C994.93,-456.708 1328.1,-435.609 1473.78,-426.384"/>
<polygon fill="#9a32cd" stroke="#9a32cd" points="893.348,-459.634 883.589,-463.759 893.79,-466.62 893.348,-459.634"/>
<text text-anchor="middle" x="1208" y="-447" font-family="Helvetica,sans-Serif" font-size="10.00"> tmpPath</text>
</g>
<!-- Node21&#45;&gt;Node5 -->
<g id="edge24" class="edge"><title>Node21&#45;&gt;Node5</title>
<path fill="none" stroke="#9a32cd" stroke-dasharray="5,2" d="M893.36,-472.945C923.088,-481.246 970.223,-495.115 1010,-510 1028.94,-517.087 1049.63,-526.187 1066.19,-533.814"/>
<polygon fill="#9a32cd" stroke="#9a32cd" points="894.182,-469.541 883.611,-470.248 892.316,-476.288 894.182,-469.541"/>
<text text-anchor="middle" x="978" y="-524" font-family="Helvetica,sans-Serif" font-size="10.00"> configPath</text>
<text text-anchor="middle" x="978" y="-513" font-family="Helvetica,sans-Serif" font-size="10.00">resourcesPath</text>
</g>
<!-- Node22 -->
<g id="node22" class="node"><title>Node22</title>
<g id="a_node22"><a xlink:href="../../d4/d1a/classmars_1_1cfg__manager_1_1_c_f_g_client.html" target="_top" xlink:title="mars::cfg_manager::\lCFGClient">
<polygon fill="white" stroke="black" points="1045.5,-583 1045.5,-613 1152.5,-613 1152.5,-583 1045.5,-583"/>
<text text-anchor="start" x="1053.5" y="-601" font-family="Helvetica,sans-Serif" font-size="10.00">mars::cfg_manager::</text>
<text text-anchor="middle" x="1099" y="-590" font-family="Helvetica,sans-Serif" font-size="10.00">CFGClient</text>
</a>
</g>
</g>
<!-- Node22&#45;&gt;Node4 -->
<g id="edge26" class="edge"><title>Node22&#45;&gt;Node4</title>
<path fill="none" stroke="midnightblue" d="M1162.53,-591.594C1189.23,-588.859 1220.22,-585.685 1246.47,-582.996"/>
<polygon fill="midnightblue" stroke="midnightblue" points="1162.12,-588.118 1152.53,-592.619 1162.83,-595.082 1162.12,-588.118"/>
</g>
<!-- Node23 -->
<g id="node23" class="node"><title>Node23</title>
<g id="a_node23"><a xlink:href="../../d6/d90/classmars_1_1utils_1_1_mutex.html" target="_top" xlink:title="mars::utils::Mutex">
<polygon fill="white" stroke="black" points="1051.5,-657.5 1051.5,-676.5 1146.5,-676.5 1146.5,-657.5 1051.5,-657.5"/>
<text text-anchor="middle" x="1099" y="-664.5" font-family="Helvetica,sans-Serif" font-size="10.00">mars::utils::Mutex</text>
</a>
</g>
</g>
<!-- Node23&#45;&gt;Node4 -->
<g id="edge27" class="edge"><title>Node23&#45;&gt;Node4</title>
<path fill="none" stroke="#9a32cd" stroke-dasharray="5,2" d="M1131.38,-653.223C1168.99,-636.713 1231.78,-609.147 1270.65,-592.08"/>
<polygon fill="#9a32cd" stroke="#9a32cd" points="1129.69,-650.144 1121.94,-657.368 1132.5,-656.553 1129.69,-650.144"/>
<text text-anchor="middle" x="1208" y="-631" font-family="Helvetica,sans-Serif" font-size="10.00"> iMutex</text>
</g>
<!-- Node24 -->
<g id="node24" class="node"><title>Node24</title>
<g id="a_node24"><a xlink:href="../../d6/d9e/structmars_1_1utils_1_1_pthread_mutex_wrapper.html" target="_top" xlink:title="mars::utils::PthreadMutex\lWrapper">
<polygon fill="white" stroke="black" points="798.5,-654 798.5,-684 927.5,-684 927.5,-654 798.5,-654"/>
<text text-anchor="start" x="806.5" y="-672" font-family="Helvetica,sans-Serif" font-size="10.00">mars::utils::PthreadMutex</text>
<text text-anchor="middle" x="863" y="-661" font-family="Helvetica,sans-Serif" font-size="10.00">Wrapper</text>
</a>
</g>
</g>
<!-- Node24&#45;&gt;Node23 -->
<g id="edge28" class="edge"><title>Node24&#45;&gt;Node23</title>
<path fill="none" stroke="#9a32cd" stroke-dasharray="5,2" d="M937.925,-668.368C975.106,-668.05 1019.03,-667.675 1051.45,-667.398"/>
<polygon fill="#9a32cd" stroke="#9a32cd" points="937.602,-664.871 927.632,-668.456 937.662,-671.87 937.602,-664.871"/>
<text text-anchor="middle" x="978" y="-672" font-family="Helvetica,sans-Serif" font-size="10.00"> myMutex</text>
</g>
</g>
</svg>
