<?xml version="1.0" encoding="UTF-8" standalone="no"?>
<!DOCTYPE svg PUBLIC "-//W3C//DTD SVG 1.1//EN"
 "http://www.w3.org/Graphics/SVG/1.1/DTD/svg11.dtd">
<!-- Generated by graphviz version 2.26.3 (20100126.1600)
 -->
<!-- Title: /home/kavonszadkowski/limes&#45;dev/simulation/mars/interfaces/src/graphics/GraphicsWindowInterface.h Pages: 1 -->
<svg width="503pt" height="244pt"
 viewBox="0.00 0.00 503.00 244.00" xmlns="http://www.w3.org/2000/svg" xmlns:xlink="http://www.w3.org/1999/xlink">
<g id="graph1" class="graph" transform="scale(1 1) rotate(0) translate(4 240)">
<title>/home/kavonszadkowski/limes&#45;dev/simulation/mars/interfaces/src/graphics/GraphicsWindowInterface.h</title>
<polygon fill="white" stroke="white" points="-4,5 -4,-240 500,-240 500,5 -4,5"/>
<!-- Node1 -->
<g id="node1" class="node"><title>Node1</title>
<polygon fill="#bfbfbf" stroke="black" points="247.5,-175 247.5,-235 390.5,-235 390.5,-175 247.5,-175"/>
<text text-anchor="start" x="255.5" y="-222" font-family="Helvetica,sans-Serif" font-size="10.00">/home/kavonszadkowski</text>
<text text-anchor="start" x="255.5" y="-209" font-family="Helvetica,sans-Serif" font-size="10.00">/limes&#45;dev/simulation</text>
<text text-anchor="start" x="255.5" y="-196" font-family="Helvetica,sans-Serif" font-size="10.00">/mars/interfaces/src/graphics</text>
<text text-anchor="middle" x="319" y="-183" font-family="Helvetica,sans-Serif" font-size="10.00">/GraphicsWindowInterface.h</text>
</g>
<!-- Node2 -->
<g id="node3" class="node"><title>Node2</title>
<a xlink:href="../../d5/df7/_graphics_camera_interface_8h.html" target="_top" xlink:title="GraphicsCameraInterface.h">
<polygon fill="white" stroke="black" points="100.5,-116.5 100.5,-137.5 237.5,-137.5 237.5,-116.5 100.5,-116.5"/>
<text text-anchor="middle" x="169" y="-124.5" font-family="Helvetica,sans-Serif" font-size="10.00">GraphicsCameraInterface.h</text>
</a>
</g>
<!-- Node1&#45;&gt;Node2 -->
<g id="edge2" class="edge"><title>Node1&#45;&gt;Node2</title>
<path fill="none" stroke="midnightblue" d="M261.006,-174.843C239.721,-163.775 216.506,-151.703 198.721,-142.455"/>
<polygon fill="midnightblue" stroke="midnightblue" points="199.933,-139.14 189.446,-137.632 196.703,-145.351 199.933,-139.14"/>
</g>
<!-- Node7 -->
<g id="node13" class="node"><title>Node7</title>
<a xlink:href="../../db/d67/_graphics_event_interface_8h.html" target="_top" xlink:title="GraphicsEventInterface.h">
<polygon fill="white" stroke="black" points="255,-116.5 255,-137.5 383,-137.5 383,-116.5 255,-116.5"/>
<text text-anchor="middle" x="319" y="-124.5" font-family="Helvetica,sans-Serif" font-size="10.00">GraphicsEventInterface.h</text>
</a>
</g>
<!-- Node1&#45;&gt;Node7 -->
<g id="edge12" class="edge"><title>Node1&#45;&gt;Node7</title>
<path fill="none" stroke="midnightblue" d="M319,-174.62C319,-165.68 319,-156.103 319,-147.9"/>
<polygon fill="midnightblue" stroke="midnightblue" points="322.5,-147.753 319,-137.753 315.5,-147.753 322.5,-147.753"/>
</g>
<!-- Node9 -->
<g id="node17" class="node"><title>Node9</title>
<polygon fill="white" stroke="#bfbfbf" points="401,-116.5 401,-137.5 495,-137.5 495,-116.5 401,-116.5"/>
<text text-anchor="middle" x="448" y="-124.5" font-family="Helvetica,sans-Serif" font-size="10.00">mars/utils/Color.h</text>
</g>
<!-- Node1&#45;&gt;Node9 -->
<g id="edge16" class="edge"><title>Node1&#45;&gt;Node9</title>
<path fill="none" stroke="midnightblue" d="M368.875,-174.843C386.841,-163.98 406.406,-152.15 421.585,-142.972"/>
<polygon fill="midnightblue" stroke="midnightblue" points="423.67,-145.801 430.417,-137.632 420.048,-139.811 423.67,-145.801"/>
</g>
<!-- Node3 -->
<g id="node5" class="node"><title>Node3</title>
<a xlink:href="../../db/da3/camera_struct_8h.html" target="_top" xlink:title="../cameraStruct.h">
<polygon fill="white" stroke="black" points="66,-58.5 66,-79.5 158,-79.5 158,-58.5 66,-58.5"/>
<text text-anchor="middle" x="112" y="-66.5" font-family="Helvetica,sans-Serif" font-size="10.00">../cameraStruct.h</text>
</a>
</g>
<!-- Node2&#45;&gt;Node3 -->
<g id="edge4" class="edge"><title>Node2&#45;&gt;Node3</title>
<path fill="none" stroke="midnightblue" d="M158.545,-116.362C150.43,-108.104 138.999,-96.4725 129.496,-86.8029"/>
<polygon fill="midnightblue" stroke="midnightblue" points="131.894,-84.2497 122.388,-79.5707 126.901,-89.1562 131.894,-84.2497"/>
</g>
<!-- Node6 -->
<g id="node11" class="node"><title>Node6</title>
<polygon fill="white" stroke="#bfbfbf" points="176,-58.5 176,-79.5 220,-79.5 220,-58.5 176,-58.5"/>
<text text-anchor="middle" x="198" y="-66.5" font-family="Helvetica,sans-Serif" font-size="10.00">vector</text>
</g>
<!-- Node2&#45;&gt;Node6 -->
<g id="edge10" class="edge"><title>Node2&#45;&gt;Node6</title>
<path fill="none" stroke="midnightblue" d="M174.319,-116.362C178.203,-108.595 183.579,-97.8426 188.227,-88.5458"/>
<polygon fill="midnightblue" stroke="midnightblue" points="191.373,-90.0802 192.715,-79.5707 185.112,-86.9497 191.373,-90.0802"/>
</g>
<!-- Node4 -->
<g id="node7" class="node"><title>Node4</title>
<polygon fill="white" stroke="#bfbfbf" points="-0.5,-0.5 -0.5,-21.5 98.5,-21.5 98.5,-0.5 -0.5,-0.5"/>
<text text-anchor="middle" x="49" y="-8.5" font-family="Helvetica,sans-Serif" font-size="10.00">mars/utils/Vector.h</text>
</g>
<!-- Node3&#45;&gt;Node4 -->
<g id="edge6" class="edge"><title>Node3&#45;&gt;Node4</title>
<path fill="none" stroke="midnightblue" d="M100.445,-58.3619C91.3866,-50.0226 78.5903,-38.2418 68.0263,-28.5162"/>
<polygon fill="midnightblue" stroke="midnightblue" points="70.2095,-25.7688 60.4819,-21.5707 65.4683,-30.9187 70.2095,-25.7688"/>
</g>
<!-- Node5 -->
<g id="node9" class="node"><title>Node5</title>
<polygon fill="white" stroke="#bfbfbf" points="116,-0.5 116,-21.5 234,-21.5 234,-0.5 116,-0.5"/>
<text text-anchor="middle" x="175" y="-8.5" font-family="Helvetica,sans-Serif" font-size="10.00">mars/utils/Quaternion.h</text>
</g>
<!-- Node3&#45;&gt;Node5 -->
<g id="edge8" class="edge"><title>Node3&#45;&gt;Node5</title>
<path fill="none" stroke="midnightblue" d="M123.555,-58.3619C132.613,-50.0226 145.41,-38.2418 155.974,-28.5162"/>
<polygon fill="midnightblue" stroke="midnightblue" points="158.532,-30.9187 163.518,-21.5707 153.79,-25.7688 158.532,-30.9187"/>
</g>
<!-- Node8 -->
<g id="node15" class="node"><title>Node8</title>
<a xlink:href="../../d9/d90/_gui_event_interface_8h.html" target="_top" xlink:title="GuiEventInterface.h">
<polygon fill="white" stroke="black" points="267,-58.5 267,-79.5 371,-79.5 371,-58.5 267,-58.5"/>
<text text-anchor="middle" x="319" y="-66.5" font-family="Helvetica,sans-Serif" font-size="10.00">GuiEventInterface.h</text>
</a>
</g>
<!-- Node7&#45;&gt;Node8 -->
<g id="edge14" class="edge"><title>Node7&#45;&gt;Node8</title>
<path fill="none" stroke="midnightblue" d="M319,-116.362C319,-108.922 319,-98.7427 319,-89.7276"/>
<polygon fill="midnightblue" stroke="midnightblue" points="322.5,-89.5706 319,-79.5707 315.5,-89.5707 322.5,-89.5706"/>
</g>
</g>
</svg>
