<?xml version="1.0" encoding="UTF-8" standalone="no"?>
<!DOCTYPE svg PUBLIC "-//W3C//DTD SVG 1.1//EN"
 "http://www.w3.org/Graphics/SVG/1.1/DTD/svg11.dtd">
<!-- Generated by graphviz version 2.36.0 (20140111.2315)
 -->
<!-- Title: /media/kavonszadkowski/work/marsdocs/mars/gui/src/dialogs/DialogControllers.cpp Pages: 1 -->
<svg width="752pt" height="310pt"
 viewBox="0.00 0.00 752.00 310.00" xmlns="http://www.w3.org/2000/svg" xmlns:xlink="http://www.w3.org/1999/xlink">
<g id="graph0" class="graph" transform="scale(1 1) rotate(0) translate(4 306)">
<title>/media/kavonszadkowski/work/marsdocs/mars/gui/src/dialogs/DialogControllers.cpp</title>
<polygon fill="white" stroke="none" points="-4,4 -4,-306 748,-306 748,4 -4,4"/>
<!-- Node1 -->
<g id="node1" class="node"><title>Node1</title>
<polygon fill="#bfbfbf" stroke="black" points="285,-260.5 285,-301.5 449,-301.5 449,-260.5 285,-260.5"/>
<text text-anchor="start" x="293" y="-289.5" font-family="Helvetica,sans-Serif" font-size="10.00">/media/kavonszadkowski</text>
<text text-anchor="start" x="293" y="-278.5" font-family="Helvetica,sans-Serif" font-size="10.00">/work/marsdocs/mars/gui</text>
<text text-anchor="middle" x="367" y="-267.5" font-family="Helvetica,sans-Serif" font-size="10.00">/src/dialogs/DialogControllers.cpp</text>
</g>
<!-- Node2 -->
<g id="node2" class="node"><title>Node2</title>
<g id="a_node2"><a xlink:href="../../dd/d7e/_dialog_controllers_8h.html" target="_top" xlink:title="A controller tree widget holding all controllers as properties. ">
<polygon fill="white" stroke="black" points="176,-198.5 176,-217.5 276,-217.5 276,-198.5 176,-198.5"/>
<text text-anchor="middle" x="226" y="-205.5" font-family="Helvetica,sans-Serif" font-size="10.00">DialogControllers.h</text>
</a>
</g>
</g>
<!-- Node1&#45;&gt;Node2 -->
<g id="edge1" class="edge"><title>Node1&#45;&gt;Node2</title>
<path fill="none" stroke="midnightblue" d="M328.098,-260.411C303.923,-248.238 273.497,-232.917 252.174,-222.18"/>
<polygon fill="midnightblue" stroke="midnightblue" points="253.578,-218.968 243.073,-217.597 250.43,-225.22 253.578,-218.968"/>
</g>
<!-- Node14 -->
<g id="node14" class="node"><title>Node14</title>
<polygon fill="white" stroke="#bfbfbf" points="294.5,-198.5 294.5,-217.5 439.5,-217.5 439.5,-198.5 294.5,-198.5"/>
<text text-anchor="middle" x="367" y="-205.5" font-family="Helvetica,sans-Serif" font-size="10.00">mars/main_gui/GuiInterface.h</text>
</g>
<!-- Node1&#45;&gt;Node14 -->
<g id="edge15" class="edge"><title>Node1&#45;&gt;Node14</title>
<path fill="none" stroke="midnightblue" d="M367,-260.223C367,-250.086 367,-237.807 367,-227.813"/>
<polygon fill="midnightblue" stroke="midnightblue" points="370.5,-227.735 367,-217.735 363.5,-227.735 370.5,-227.735"/>
</g>
<!-- Node15 -->
<g id="node15" class="node"><title>Node15</title>
<polygon fill="white" stroke="#bfbfbf" points="458,-193 458,-223 604,-223 604,-193 458,-193"/>
<text text-anchor="start" x="466" y="-211" font-family="Helvetica,sans-Serif" font-size="10.00">mars/interfaces/sim</text>
<text text-anchor="middle" x="531" y="-200" font-family="Helvetica,sans-Serif" font-size="10.00">/ControllerManagerInterface.h</text>
</g>
<!-- Node1&#45;&gt;Node15 -->
<g id="edge16" class="edge"><title>Node1&#45;&gt;Node15</title>
<path fill="none" stroke="midnightblue" d="M412.248,-260.411C436.33,-249.985 465.745,-237.251 489.274,-227.064"/>
<polygon fill="midnightblue" stroke="midnightblue" points="490.848,-230.197 498.635,-223.012 488.067,-223.773 490.848,-230.197"/>
</g>
<!-- Node3 -->
<g id="node3" class="node"><title>Node3</title>
<polygon fill="white" stroke="#bfbfbf" points="14.5,-130.5 14.5,-149.5 159.5,-149.5 159.5,-130.5 14.5,-130.5"/>
<text text-anchor="middle" x="87" y="-137.5" font-family="Helvetica,sans-Serif" font-size="10.00">mars/main_gui/BaseWidget.h</text>
</g>
<!-- Node2&#45;&gt;Node3 -->
<g id="edge2" class="edge"><title>Node2&#45;&gt;Node3</title>
<path fill="none" stroke="midnightblue" d="M207.828,-198.372C183.999,-187.057 141.979,-167.105 114.311,-153.968"/>
<polygon fill="midnightblue" stroke="midnightblue" points="115.711,-150.758 105.176,-149.63 112.708,-157.081 115.711,-150.758"/>
</g>
<!-- Node4 -->
<g id="node4" class="node"><title>Node4</title>
<polygon fill="white" stroke="#bfbfbf" points="0,-62.5 0,-81.5 156,-81.5 156,-62.5 0,-62.5"/>
<text text-anchor="middle" x="78" y="-69.5" font-family="Helvetica,sans-Serif" font-size="10.00">mars/main_gui/PropertyDialog.h</text>
</g>
<!-- Node2&#45;&gt;Node4 -->
<g id="edge3" class="edge"><title>Node2&#45;&gt;Node4</title>
<path fill="none" stroke="midnightblue" d="M221.619,-198.29C213.108,-182.045 192.966,-146.714 168,-124 150.353,-107.944 126.786,-94.8188 108.194,-85.9057"/>
<polygon fill="midnightblue" stroke="midnightblue" points="109.528,-82.6663 98.9836,-81.6355 106.584,-89.017 109.528,-82.6663"/>
</g>
<!-- Node5 -->
<g id="node5" class="node"><title>Node5</title>
<polygon fill="white" stroke="#bfbfbf" points="174.5,-57 174.5,-87 277.5,-87 277.5,-57 174.5,-57"/>
<text text-anchor="start" x="182.5" y="-75" font-family="Helvetica,sans-Serif" font-size="10.00">mars/interfaces/sim</text>
<text text-anchor="middle" x="226" y="-64" font-family="Helvetica,sans-Serif" font-size="10.00">/ControlCenter.h</text>
</g>
<!-- Node2&#45;&gt;Node5 -->
<g id="edge4" class="edge"><title>Node2&#45;&gt;Node5</title>
<path fill="none" stroke="midnightblue" d="M226,-198.208C226,-177.984 226,-127.575 226,-97.2443"/>
<polygon fill="midnightblue" stroke="midnightblue" points="229.5,-97.0713 226,-87.0713 222.5,-97.0713 229.5,-97.0713"/>
</g>
<!-- Node6 -->
<g id="node6" class="node"><title>Node6</title>
<polygon fill="white" stroke="#bfbfbf" points="374,-125 374,-155 498,-155 498,-125 374,-125"/>
<text text-anchor="start" x="382" y="-143" font-family="Helvetica,sans-Serif" font-size="10.00">mars/interfaces/graphics</text>
<text text-anchor="middle" x="436" y="-132" font-family="Helvetica,sans-Serif" font-size="10.00">/GraphicsEventClient.h</text>
</g>
<!-- Node2&#45;&gt;Node6 -->
<g id="edge5" class="edge"><title>Node2&#45;&gt;Node6</title>
<path fill="none" stroke="midnightblue" d="M253.454,-198.372C285.876,-188.182 340.585,-170.988 381.674,-158.074"/>
<polygon fill="midnightblue" stroke="midnightblue" points="382.785,-161.394 391.276,-155.056 380.686,-154.716 382.785,-161.394"/>
</g>
<!-- Node7 -->
<g id="node7" class="node"><title>Node7</title>
<g id="a_node7"><a xlink:href="../../d0/dfb/_controller_handler_8h.html" target="_top" xlink:title="ControllerHandler.h">
<polygon fill="white" stroke="black" points="254.5,-130.5 254.5,-149.5 355.5,-149.5 355.5,-130.5 254.5,-130.5"/>
<text text-anchor="middle" x="305" y="-137.5" font-family="Helvetica,sans-Serif" font-size="10.00">ControllerHandler.h</text>
</a>
</g>
</g>
<!-- Node2&#45;&gt;Node7 -->
<g id="edge6" class="edge"><title>Node2&#45;&gt;Node7</title>
<path fill="none" stroke="midnightblue" d="M236.328,-198.372C249.102,-187.699 271.075,-169.343 286.724,-156.268"/>
<polygon fill="midnightblue" stroke="midnightblue" points="289.239,-158.728 294.67,-149.63 284.751,-153.356 289.239,-158.728"/>
</g>
<!-- Node7&#45;&gt;Node4 -->
<g id="edge7" class="edge"><title>Node7&#45;&gt;Node4</title>
<path fill="none" stroke="midnightblue" d="M275.324,-130.372C234.767,-118.58 161.946,-97.4071 117.014,-84.3432"/>
<polygon fill="midnightblue" stroke="midnightblue" points="117.903,-80.957 107.324,-81.5259 115.949,-87.6787 117.903,-80.957"/>
</g>
<!-- Node7&#45;&gt;Node5 -->
<g id="edge8" class="edge"><title>Node7&#45;&gt;Node5</title>
<path fill="none" stroke="midnightblue" d="M294.672,-130.372C283.591,-121.114 265.591,-106.076 250.798,-93.7175"/>
<polygon fill="midnightblue" stroke="midnightblue" points="252.893,-90.9069 242.975,-87.1815 248.405,-96.2789 252.893,-90.9069"/>
</g>
<!-- Node8 -->
<g id="node8" class="node"><title>Node8</title>
<polygon fill="white" stroke="#bfbfbf" points="295.5,-57 295.5,-87 404.5,-87 404.5,-57 295.5,-57"/>
<text text-anchor="start" x="303.5" y="-75" font-family="Helvetica,sans-Serif" font-size="10.00">mars/interfaces/core</text>
<text text-anchor="middle" x="350" y="-64" font-family="Helvetica,sans-Serif" font-size="10.00">_objects_exchange.h</text>
</g>
<!-- Node7&#45;&gt;Node8 -->
<g id="edge9" class="edge"><title>Node7&#45;&gt;Node8</title>
<path fill="none" stroke="midnightblue" d="M310.883,-130.372C316.903,-121.543 326.507,-107.456 334.693,-95.4503"/>
<polygon fill="midnightblue" stroke="midnightblue" points="337.589,-97.4154 340.331,-87.1815 331.806,-93.472 337.589,-97.4154"/>
</g>
<!-- Node9 -->
<g id="node9" class="node"><title>Node9</title>
<polygon fill="white" stroke="#bfbfbf" points="422.5,-57 422.5,-87 551.5,-87 551.5,-57 422.5,-57"/>
<text text-anchor="start" x="430.5" y="-75" font-family="Helvetica,sans-Serif" font-size="10.00">mars/interfaces/Controller</text>
<text text-anchor="middle" x="487" y="-64" font-family="Helvetica,sans-Serif" font-size="10.00">Data.h</text>
</g>
<!-- Node7&#45;&gt;Node9 -->
<g id="edge10" class="edge"><title>Node7&#45;&gt;Node9</title>
<path fill="none" stroke="midnightblue" d="M328.793,-130.372C356.537,-120.311 403.109,-103.422 438.56,-90.5662"/>
<polygon fill="midnightblue" stroke="midnightblue" points="440.031,-93.7558 448.239,-87.0562 437.645,-87.1751 440.031,-93.7558"/>
</g>
<!-- Node10 -->
<g id="node10" class="node"><title>Node10</title>
<g id="a_node10"><a xlink:href="../../d6/d43/_selection_dialog_8h.html" target="_top" xlink:title="The SelectionDialog class is used to select a sorted list of objects. ">
<polygon fill="white" stroke="black" points="569.5,-62.5 569.5,-81.5 662.5,-81.5 662.5,-62.5 569.5,-62.5"/>
<text text-anchor="middle" x="616" y="-69.5" font-family="Helvetica,sans-Serif" font-size="10.00">SelectionDialog.h</text>
</a>
</g>
</g>
<!-- Node7&#45;&gt;Node10 -->
<g id="edge11" class="edge"><title>Node7&#45;&gt;Node10</title>
<path fill="none" stroke="midnightblue" d="M337.61,-130.455C346.47,-128.24 356.081,-125.936 365,-124 451.125,-105.303 474.034,-107.417 560,-88 565.145,-86.8379 570.53,-85.523 575.842,-84.1666"/>
<polygon fill="midnightblue" stroke="midnightblue" points="577.097,-87.4561 585.883,-81.5361 575.323,-80.6846 577.097,-87.4561"/>
</g>
<!-- Node11 -->
<g id="node11" class="node"><title>Node11</title>
<polygon fill="white" stroke="#bfbfbf" points="520,-0.5 520,-19.5 562,-19.5 562,-0.5 520,-0.5"/>
<text text-anchor="middle" x="541" y="-7.5" font-family="Helvetica,sans-Serif" font-size="10.00">QtGui</text>
</g>
<!-- Node10&#45;&gt;Node11 -->
<g id="edge12" class="edge"><title>Node10&#45;&gt;Node11</title>
<path fill="none" stroke="midnightblue" d="M605.254,-62.4035C593.447,-52.9579 574.257,-37.6056 559.918,-26.1342"/>
<polygon fill="midnightblue" stroke="midnightblue" points="561.721,-23.0945 551.726,-19.5806 557.348,-28.5606 561.721,-23.0945"/>
</g>
<!-- Node12 -->
<g id="node12" class="node"><title>Node12</title>
<polygon fill="white" stroke="#bfbfbf" points="580.5,-0.5 580.5,-19.5 651.5,-19.5 651.5,-0.5 580.5,-0.5"/>
<text text-anchor="middle" x="616" y="-7.5" font-family="Helvetica,sans-Serif" font-size="10.00">QListWidget</text>
</g>
<!-- Node10&#45;&gt;Node12 -->
<g id="edge13" class="edge"><title>Node10&#45;&gt;Node12</title>
<path fill="none" stroke="midnightblue" d="M616,-62.4035C616,-53.9381 616,-40.7283 616,-29.8199"/>
<polygon fill="midnightblue" stroke="midnightblue" points="619.5,-29.5806 616,-19.5806 612.5,-29.5806 619.5,-29.5806"/>
</g>
<!-- Node13 -->
<g id="node13" class="node"><title>Node13</title>
<polygon fill="white" stroke="#bfbfbf" points="669.5,-0.5 669.5,-19.5 744.5,-19.5 744.5,-0.5 669.5,-0.5"/>
<text text-anchor="middle" x="707" y="-7.5" font-family="Helvetica,sans-Serif" font-size="10.00">QPushButton</text>
</g>
<!-- Node10&#45;&gt;Node13 -->
<g id="edge14" class="edge"><title>Node10&#45;&gt;Node13</title>
<path fill="none" stroke="midnightblue" d="M629.038,-62.4035C643.769,-52.6905 667.973,-36.7319 685.509,-25.1697"/>
<polygon fill="midnightblue" stroke="midnightblue" points="687.564,-28.0072 693.986,-19.5806 683.711,-22.1632 687.564,-28.0072"/>
</g>
</g>
</svg>
