<?xml version="1.0" encoding="UTF-8" standalone="no"?>
<!DOCTYPE svg PUBLIC "-//W3C//DTD SVG 1.1//EN"
 "http://www.w3.org/Graphics/SVG/1.1/DTD/svg11.dtd">
<!-- Generated by graphviz version 2.26.3 (20100126.1600)
 -->
<!-- Title: /home/kavonszadkowski/limes&#45;dev/simulation/mars/interfaces/src/terrainStruct.h Pages: 1 -->
<svg width="178pt" height="154pt"
 viewBox="0.00 0.00 178.00 154.00" xmlns="http://www.w3.org/2000/svg" xmlns:xlink="http://www.w3.org/1999/xlink">
<g id="graph1" class="graph" transform="scale(1 1) rotate(0) translate(4 150)">
<title>/home/kavonszadkowski/limes&#45;dev/simulation/mars/interfaces/src/terrainStruct.h</title>
<polygon fill="white" stroke="white" points="-4,5 -4,-150 175,-150 175,5 -4,5"/>
<!-- Node1 -->
<g id="node1" class="node"><title>Node1</title>
<polygon fill="#bfbfbf" stroke="black" points="18,-85 18,-145 152,-145 152,-85 18,-85"/>
<text text-anchor="start" x="26" y="-132" font-family="Helvetica,sans-Serif" font-size="10.00">/home/kavonszadkowski</text>
<text text-anchor="start" x="26" y="-119" font-family="Helvetica,sans-Serif" font-size="10.00">/limes&#45;dev/simulation</text>
<text text-anchor="start" x="26" y="-106" font-family="Helvetica,sans-Serif" font-size="10.00">/mars/interfaces/src/terrain</text>
<text text-anchor="middle" x="85" y="-93" font-family="Helvetica,sans-Serif" font-size="10.00">Struct.h</text>
</g>
<!-- Node2 -->
<g id="node3" class="node"><title>Node2</title>
<a xlink:href="../../d2/db6/_node_data_8cpp.html" target="_top" xlink:title="/home/kavonszadkowski\l/limes&#45;dev/simulation\l/mars/interfaces/src/NodeData.cpp">
<polygon fill="white" stroke="black" points="0,-0.5 0,-47.5 170,-47.5 170,-0.5 0,-0.5"/>
<text text-anchor="start" x="8" y="-34.5" font-family="Helvetica,sans-Serif" font-size="10.00">/home/kavonszadkowski</text>
<text text-anchor="start" x="8" y="-21.5" font-family="Helvetica,sans-Serif" font-size="10.00">/limes&#45;dev/simulation</text>
<text text-anchor="middle" x="85" y="-8.5" font-family="Helvetica,sans-Serif" font-size="10.00">/mars/interfaces/src/NodeData.cpp</text>
</a>
</g>
<!-- Node1&#45;&gt;Node2 -->
<g id="edge2" class="edge"><title>Node1&#45;&gt;Node2</title>
<path fill="none" stroke="midnightblue" d="M85,-74.7244C85,-65.4836 85,-55.9515 85,-47.68"/>
<polygon fill="midnightblue" stroke="midnightblue" points="81.5001,-74.951 85,-84.951 88.5001,-74.951 81.5001,-74.951"/>
</g>
</g>
</svg>
