<?xml version="1.0" encoding="UTF-8" standalone="no"?>
<!DOCTYPE svg PUBLIC "-//W3C//DTD SVG 1.1//EN"
 "http://www.w3.org/Graphics/SVG/1.1/DTD/svg11.dtd">
<!-- Generated by graphviz version 2.36.0 (20140111.2315)
 -->
<!-- Title: mars::gui::NodeHandler Pages: 1 -->
<svg width="1126pt" height="1118pt"
 viewBox="0.00 0.00 1126.00 1118.00" xmlns="http://www.w3.org/2000/svg" xmlns:xlink="http://www.w3.org/1999/xlink">
<g id="graph0" class="graph" transform="scale(1 1) rotate(0) translate(4 1114)">
<title>mars::gui::NodeHandler</title>
<polygon fill="white" stroke="none" points="-4,4 -4,-1114 1122,-1114 1122,4 -4,4"/>
<!-- Node1 -->
<g id="node1" class="node"><title>Node1</title>
<polygon fill="#bfbfbf" stroke="black" points="998,-744.5 998,-763.5 1118,-763.5 1118,-744.5 998,-744.5"/>
<text text-anchor="middle" x="1058" y="-751.5" font-family="Helvetica,sans-Serif" font-size="10.00">mars::gui::NodeHandler</text>
</g>
<!-- Node2 -->
<g id="node2" class="node"><title>Node2</title>
<polygon fill="white" stroke="#bfbfbf" points="567.5,-710.5 567.5,-729.5 620.5,-729.5 620.5,-710.5 567.5,-710.5"/>
<text text-anchor="middle" x="594" y="-717.5" font-family="Helvetica,sans-Serif" font-size="10.00">QObject</text>
</g>
<!-- Node2&#45;&gt;Node1 -->
<g id="edge1" class="edge"><title>Node2&#45;&gt;Node1</title>
<path fill="none" stroke="midnightblue" d="M630.67,-728.058C648.448,-731.934 670.304,-736.489 690,-740 817.133,-762.662 850.907,-761.351 980,-758 985.754,-757.851 991.748,-757.639 997.738,-757.389"/>
<polygon fill="midnightblue" stroke="midnightblue" points="631.24,-724.6 620.721,-725.867 629.734,-731.436 631.24,-724.6"/>
</g>
<!-- Node3 -->
<g id="node3" class="node"><title>Node3</title>
<g id="a_node3"><a xlink:href="../../dd/d96/classmars_1_1gui_1_1_dialog___create___material.html" target="_top" xlink:title="Creates the &quot;Create Material&quot; Dialog window. ">
<polygon fill="white" stroke="black" points="778.5,-713 778.5,-743 903.5,-743 903.5,-713 778.5,-713"/>
<text text-anchor="start" x="786.5" y="-731" font-family="Helvetica,sans-Serif" font-size="10.00">mars::gui::Dialog_Create</text>
<text text-anchor="middle" x="841" y="-720" font-family="Helvetica,sans-Serif" font-size="10.00">_Material</text>
</a>
</g>
</g>
<!-- Node2&#45;&gt;Node3 -->
<g id="edge3" class="edge"><title>Node2&#45;&gt;Node3</title>
<path fill="none" stroke="midnightblue" d="M631.01,-722.172C648.764,-723.173 670.5,-724.292 690,-725 719.023,-726.054 751.22,-726.759 778.319,-727.219"/>
<polygon fill="midnightblue" stroke="midnightblue" points="630.979,-718.665 620.795,-721.585 630.578,-725.653 630.979,-718.665"/>
</g>
<!-- Node10 -->
<g id="node10" class="node"><title>Node10</title>
<g id="a_node10"><a xlink:href="../../d0/d4e/classmars_1_1gui_1_1_widget___node___options.html" target="_top" xlink:title="A widget to show the actual properties of a node to the user. ">
<polygon fill="white" stroke="black" points="780,-664 780,-694 902,-694 902,-664 780,-664"/>
<text text-anchor="start" x="788" y="-682" font-family="Helvetica,sans-Serif" font-size="10.00">mars::gui::Widget_Node</text>
<text text-anchor="middle" x="841" y="-671" font-family="Helvetica,sans-Serif" font-size="10.00">_Options</text>
</a>
</g>
</g>
<!-- Node2&#45;&gt;Node10 -->
<g id="edge11" class="edge"><title>Node2&#45;&gt;Node10</title>
<path fill="none" stroke="midnightblue" d="M631.059,-716.652C663.404,-713.368 712.088,-707.727 754,-700 763.22,-698.3 772.929,-696.218 782.37,-694.032"/>
<polygon fill="midnightblue" stroke="midnightblue" points="630.355,-713.205 620.75,-717.675 631.046,-720.171 630.355,-713.205"/>
</g>
<!-- Node30 -->
<g id="node30" class="node"><title>Node30</title>
<g id="a_node30"><a xlink:href="../../df/dd9/classmars_1_1gui_1_1_dialog___edit___material.html" target="_top" xlink:title="mars::gui::Dialog_Edit\l_Material">
<polygon fill="white" stroke="black" points="784.5,-615 784.5,-645 897.5,-645 897.5,-615 784.5,-615"/>
<text text-anchor="start" x="792.5" y="-633" font-family="Helvetica,sans-Serif" font-size="10.00">mars::gui::Dialog_Edit</text>
<text text-anchor="middle" x="841" y="-622" font-family="Helvetica,sans-Serif" font-size="10.00">_Material</text>
</a>
</g>
</g>
<!-- Node2&#45;&gt;Node30 -->
<g id="edge45" class="edge"><title>Node2&#45;&gt;Node30</title>
<path fill="none" stroke="midnightblue" d="M619.005,-705.038C637.767,-693.862 664.803,-678.875 690,-669 720.438,-657.07 755.772,-647.68 784.498,-641.105"/>
<polygon fill="midnightblue" stroke="midnightblue" points="616.997,-702.162 610.253,-710.333 620.621,-708.151 616.997,-702.162"/>
</g>
<!-- Node3&#45;&gt;Node1 -->
<g id="edge2" class="edge"><title>Node3&#45;&gt;Node1</title>
<path fill="none" stroke="#9a32cd" stroke-dasharray="5,2" d="M913.893,-736.694C941.208,-739.997 971.98,-743.719 997.971,-746.862"/>
<polygon fill="#9a32cd" stroke="#9a32cd" points="913.958,-733.177 903.61,-735.451 913.118,-740.126 913.958,-733.177"/>
<text text-anchor="middle" x="954" y="-748" font-family="Helvetica,sans-Serif" font-size="10.00"> dcm</text>
</g>
<!-- Node4 -->
<g id="node4" class="node"><title>Node4</title>
<g id="a_node4"><a xlink:href="../../d9/d1d/classmars_1_1interfaces_1_1_material_data.html" target="_top" xlink:title="MaterialData is a struct to exchange material information of nodes. ">
<polygon fill="white" stroke="black" points="196.5,-943.5 196.5,-962.5 345.5,-962.5 345.5,-943.5 196.5,-943.5"/>
<text text-anchor="middle" x="271" y="-950.5" font-family="Helvetica,sans-Serif" font-size="10.00">mars::interfaces::MaterialData</text>
</a>
</g>
</g>
<!-- Node4&#45;&gt;Node1 -->
<g id="edge14" class="edge"><title>Node4&#45;&gt;Node1</title>
<path fill="none" stroke="#9a32cd" stroke-dasharray="5,2" d="M297.546,-967.444C316.869,-977.755 344.366,-991.139 370,-999 484.727,-1034.18 805.922,-1058.73 910,-999 1004.86,-944.557 1045.37,-802.138 1054.78,-763.687"/>
<polygon fill="#9a32cd" stroke="#9a32cd" points="299.218,-964.369 288.761,-962.667 295.874,-970.519 299.218,-964.369"/>
<text text-anchor="middle" x="722" y="-1039" font-family="Helvetica,sans-Serif" font-size="10.00"> material</text>
</g>
<!-- Node4&#45;&gt;Node3 -->
<g id="edge4" class="edge"><title>Node4&#45;&gt;Node3</title>
<path fill="none" stroke="#9a32cd" stroke-dasharray="5,2" d="M355.559,-941.867C404.031,-931.044 462.361,-909.766 498,-868 523.913,-837.632 485.072,-805.242 516,-780 569.714,-736.161 604.883,-762.608 672,-780 680.859,-782.296 681.141,-787.704 690,-790 717.535,-797.135 726.932,-798.74 754,-790 782.375,-780.838 809.277,-758.444 825.207,-743.233"/>
<polygon fill="#9a32cd" stroke="#9a32cd" points="354.748,-938.461 345.691,-943.958 356.2,-945.308 354.748,-938.461"/>
<text text-anchor="middle" x="594" y="-783" font-family="Helvetica,sans-Serif" font-size="10.00"> material</text>
</g>
<!-- Node12 -->
<g id="node12" class="node"><title>Node12</title>
<g id="a_node12"><a xlink:href="../../de/dd2/structmars_1_1interfaces_1_1terrain_struct.html" target="_top" xlink:title="terrainStruct is a struct to exchange height maps between the GUI and the simulation ...">
<polygon fill="white" stroke="black" points="534,-983 534,-1013 654,-1013 654,-983 534,-983"/>
<text text-anchor="start" x="542" y="-1001" font-family="Helvetica,sans-Serif" font-size="10.00">mars::interfaces::terrain</text>
<text text-anchor="middle" x="594" y="-990" font-family="Helvetica,sans-Serif" font-size="10.00">Struct</text>
</a>
</g>
</g>
<!-- Node4&#45;&gt;Node12 -->
<g id="edge17" class="edge"><title>Node4&#45;&gt;Node12</title>
<path fill="none" stroke="#9a32cd" stroke-dasharray="5,2" d="M350.07,-963.944C406.737,-971.888 482.22,-982.47 533.919,-989.718"/>
<polygon fill="#9a32cd" stroke="#9a32cd" points="350.465,-960.466 340.076,-962.543 349.493,-967.398 350.465,-960.466"/>
<text text-anchor="middle" x="434" y="-987" font-family="Helvetica,sans-Serif" font-size="10.00"> material</text>
</g>
<!-- Node13 -->
<g id="node13" class="node"><title>Node13</title>
<g id="a_node13"><a xlink:href="../../d8/d4f/structmars_1_1interfaces_1_1_node_data.html" target="_top" xlink:title="NodeData is a struct to exchange node information between the GUI and the simulation. ">
<polygon fill="white" stroke="black" points="772.5,-885.5 772.5,-904.5 909.5,-904.5 909.5,-885.5 772.5,-885.5"/>
<text text-anchor="middle" x="841" y="-892.5" font-family="Helvetica,sans-Serif" font-size="10.00">mars::interfaces::NodeData</text>
</a>
</g>
</g>
<!-- Node4&#45;&gt;Node13 -->
<g id="edge21" class="edge"><title>Node4&#45;&gt;Node13</title>
<path fill="none" stroke="#9a32cd" stroke-dasharray="5,2" d="M355.731,-953.182C452.433,-952.07 615.936,-946.115 754,-921 774.564,-917.259 797.163,-910.311 814.032,-904.538"/>
<polygon fill="#9a32cd" stroke="#9a32cd" points="355.684,-949.682 345.719,-953.282 355.754,-956.681 355.684,-949.682"/>
<text text-anchor="middle" x="594" y="-951" font-family="Helvetica,sans-Serif" font-size="10.00"> material</text>
</g>
<!-- Node4&#45;&gt;Node30 -->
<g id="edge46" class="edge"><title>Node4&#45;&gt;Node30</title>
<path fill="none" stroke="#9a32cd" stroke-dasharray="5,2" d="M287.439,-935.864C305.404,-917.018 336.862,-887.255 370,-871 422.283,-845.353 458.894,-886.15 498,-843 543.979,-792.266 470.847,-741.47 516,-690 582.397,-614.313 710.639,-614.336 784.306,-621.742"/>
<polygon fill="#9a32cd" stroke="#9a32cd" points="284.642,-933.731 280.388,-943.434 289.765,-938.502 284.642,-933.731"/>
<text text-anchor="middle" x="594" y="-693" font-family="Helvetica,sans-Serif" font-size="10.00"> material</text>
</g>
<!-- Node5 -->
<g id="node5" class="node"><title>Node5</title>
<polygon fill="white" stroke="#bfbfbf" points="25.5,-972.5 25.5,-991.5 66.5,-991.5 66.5,-972.5 25.5,-972.5"/>
<text text-anchor="middle" x="46" y="-979.5" font-family="Helvetica,sans-Serif" font-size="10.00">string</text>
</g>
<!-- Node5&#45;&gt;Node1 -->
<g id="edge15" class="edge"><title>Node5&#45;&gt;Node1</title>
<path fill="none" stroke="#9a32cd" stroke-dasharray="5,2" d="M66.0879,-998.301C102.917,-1028.03 187.455,-1088 270,-1088 270,-1088 270,-1088 842,-1088 1000.61,-1088 1047.76,-818.399 1055.71,-763.636"/>
<polygon fill="#9a32cd" stroke="#9a32cd" points="68.1192,-995.44 58.1758,-991.782 63.6679,-1000.84 68.1192,-995.44"/>
<text text-anchor="middle" x="594" y="-1102" font-family="Helvetica,sans-Serif" font-size="10.00"> actualName</text>
<text text-anchor="middle" x="594" y="-1091" font-family="Helvetica,sans-Serif" font-size="10.00">nodeName</text>
</g>
<!-- Node5&#45;&gt;Node4 -->
<g id="edge5" class="edge"><title>Node5&#45;&gt;Node4</title>
<path fill="none" stroke="#9a32cd" stroke-dasharray="5,2" d="M72.5943,-967.747C83.7297,-962.316 97.1495,-956.769 110,-954 137.834,-948.002 169.029,-946.647 196.432,-947.178"/>
<polygon fill="#9a32cd" stroke="#9a32cd" points="70.7757,-964.746 63.4684,-972.418 73.9648,-970.977 70.7757,-964.746"/>
<text text-anchor="middle" x="141" y="-990" font-family="Helvetica,sans-Serif" font-size="10.00"> normalmap</text>
<text text-anchor="middle" x="141" y="-979" font-family="Helvetica,sans-Serif" font-size="10.00">bumpmap</text>
<text text-anchor="middle" x="141" y="-968" font-family="Helvetica,sans-Serif" font-size="10.00">name</text>
<text text-anchor="middle" x="141" y="-957" font-family="Helvetica,sans-Serif" font-size="10.00">texturename</text>
</g>
<!-- Node5&#45;&gt;Node12 -->
<g id="edge18" class="edge"><title>Node5&#45;&gt;Node12</title>
<path fill="none" stroke="#9a32cd" stroke-dasharray="5,2" d="M76.5136,-991.109C86.9811,-993.908 98.9144,-996.614 110,-998 261.852,-1016.98 442.663,-1008.9 533.971,-1002.69"/>
<polygon fill="#9a32cd" stroke="#9a32cd" points="77.1946,-987.664 66.6203,-988.325 75.2983,-994.403 77.1946,-987.664"/>
<text text-anchor="middle" x="271" y="-1024" font-family="Helvetica,sans-Serif" font-size="10.00"> srcname</text>
<text text-anchor="middle" x="271" y="-1013" font-family="Helvetica,sans-Serif" font-size="10.00">name</text>
</g>
<!-- Node5&#45;&gt;Node13 -->
<g id="edge23" class="edge"><title>Node5&#45;&gt;Node13</title>
<path fill="none" stroke="#9a32cd" stroke-dasharray="5,2" d="M48.164,-961.949C51.4045,-926.941 63.6607,-855.41 110,-824 132.809,-808.539 144.564,-821.431 172,-824 326.916,-838.508 361.26,-872.713 516,-889 592.929,-897.097 612.659,-891.595 690,-893 716.951,-893.489 746.628,-893.91 772.422,-894.237"/>
<polygon fill="#9a32cd" stroke="#9a32cd" points="44.6444,-962.074 47.3745,-972.311 51.6242,-962.606 44.6444,-962.074"/>
<text text-anchor="middle" x="434" y="-912" font-family="Helvetica,sans-Serif" font-size="10.00"> origName</text>
<text text-anchor="middle" x="434" y="-901" font-family="Helvetica,sans-Serif" font-size="10.00">name</text>
<text text-anchor="middle" x="434" y="-890" font-family="Helvetica,sans-Serif" font-size="10.00">filename</text>
</g>
<!-- Node6 -->
<g id="node6" class="node"><title>Node6</title>
<g id="a_node6"><a xlink:href="../../d4/d7c/classmars_1_1utils_1_1_color.html" target="_top" xlink:title="mars::utils::Color">
<polygon fill="white" stroke="black" points="0,-797.5 0,-816.5 92,-816.5 92,-797.5 0,-797.5"/>
<text text-anchor="middle" x="46" y="-804.5" font-family="Helvetica,sans-Serif" font-size="10.00">mars::utils::Color</text>
</a>
</g>
</g>
<!-- Node6&#45;&gt;Node4 -->
<g id="edge6" class="edge"><title>Node6&#45;&gt;Node4</title>
<path fill="none" stroke="#9a32cd" stroke-dasharray="5,2" d="M91.5183,-819.548C116.386,-827.728 147.251,-839.893 172,-856 211.125,-881.462 247.507,-924.415 262.623,-943.439"/>
<polygon fill="#9a32cd" stroke="#9a32cd" points="92.5515,-816.204 81.9608,-816.501 90.4253,-822.873 92.5515,-816.204"/>
<text text-anchor="middle" x="141" y="-936" font-family="Helvetica,sans-Serif" font-size="10.00"> ambientBack</text>
<text text-anchor="middle" x="141" y="-925" font-family="Helvetica,sans-Serif" font-size="10.00">specularBack</text>
<text text-anchor="middle" x="141" y="-914" font-family="Helvetica,sans-Serif" font-size="10.00">specularFront</text>
<text text-anchor="middle" x="141" y="-903" font-family="Helvetica,sans-Serif" font-size="10.00">emissionBack</text>
<text text-anchor="middle" x="141" y="-892" font-family="Helvetica,sans-Serif" font-size="10.00">ambientFront</text>
<text text-anchor="middle" x="141" y="-881" font-family="Helvetica,sans-Serif" font-size="10.00">diffuseBack</text>
<text text-anchor="middle" x="141" y="-870" font-family="Helvetica,sans-Serif" font-size="10.00">diffuseFront</text>
<text text-anchor="middle" x="141" y="-859" font-family="Helvetica,sans-Serif" font-size="10.00">emissionFront</text>
</g>
<!-- Node14 -->
<g id="node14" class="node"><title>Node14</title>
<g id="a_node14"><a xlink:href="../../d9/dec/structmars_1_1interfaces_1_1snmesh.html" target="_top" xlink:title="mars::interfaces::snmesh">
<polygon fill="white" stroke="black" points="370,-763.5 370,-782.5 498,-782.5 498,-763.5 370,-763.5"/>
<text text-anchor="middle" x="434" y="-770.5" font-family="Helvetica,sans-Serif" font-size="10.00">mars::interfaces::snmesh</text>
</a>
</g>
</g>
<!-- Node6&#45;&gt;Node14 -->
<g id="edge25" class="edge"><title>Node6&#45;&gt;Node14</title>
<path fill="none" stroke="#9a32cd" stroke-dasharray="5,2" d="M77.6881,-793.596C87.7876,-789.784 99.1991,-786.1 110,-784 198.95,-766.705 304.219,-766.853 369.816,-769.32"/>
<polygon fill="#9a32cd" stroke="#9a32cd" points="76.1042,-790.459 68.0971,-797.397 78.6832,-796.966 76.1042,-790.459"/>
<text text-anchor="middle" x="141" y="-787" font-family="Helvetica,sans-Serif" font-size="10.00"> color</text>
</g>
<!-- Node7 -->
<g id="node7" class="node"><title>Node7</title>
<g id="a_node7"><a xlink:href="../../de/d11/classmars_1_1main__gui_1_1_property_dialog.html" target="_top" xlink:title="The PropertyDialog provides the QtProperty functionality. ">
<polygon fill="white" stroke="black" points="531,-573 531,-603 657,-603 657,-573 531,-573"/>
<text text-anchor="start" x="539" y="-591" font-family="Helvetica,sans-Serif" font-size="10.00">mars::main_gui::Property</text>
<text text-anchor="middle" x="594" y="-580" font-family="Helvetica,sans-Serif" font-size="10.00">Dialog</text>
</a>
</g>
</g>
<!-- Node7&#45;&gt;Node1 -->
<g id="edge26" class="edge"><title>Node7&#45;&gt;Node1</title>
<path fill="none" stroke="#9a32cd" stroke-dasharray="5,2" d="M648.066,-570.124C661.585,-566.347 676.198,-562.923 690,-561 787.926,-547.354 822.229,-548.482 910,-594 980.656,-630.643 1034.7,-715.576 1051.52,-744.303"/>
<polygon fill="#9a32cd" stroke="#9a32cd" points="647.069,-566.769 638.443,-572.92 649.023,-573.491 647.069,-566.769"/>
<text text-anchor="middle" x="841" y="-597" font-family="Helvetica,sans-Serif" font-size="10.00"> pDialog</text>
</g>
<!-- Node7&#45;&gt;Node3 -->
<g id="edge7" class="edge"><title>Node7&#45;&gt;Node3</title>
<path fill="none" stroke="#9a32cd" stroke-dasharray="5,2" d="M634.214,-608.23C647.063,-615.917 660.881,-625.404 672,-636 682.174,-645.696 679.382,-652.791 690,-662 720.782,-688.697 734.598,-686.834 772,-703 779.967,-706.443 788.579,-709.847 796.91,-712.982"/>
<polygon fill="#9a32cd" stroke="#9a32cd" points="635.928,-605.178 625.518,-603.205 632.425,-611.239 635.928,-605.178"/>
<text text-anchor="middle" x="722" y="-699" font-family="Helvetica,sans-Serif" font-size="10.00"> parent</text>
</g>
<!-- Node7&#45;&gt;Node10 -->
<g id="edge13" class="edge"><title>Node7&#45;&gt;Node10</title>
<path fill="none" stroke="#9a32cd" stroke-dasharray="5,2" d="M645.03,-606.725C680.466,-619.971 729.129,-638.126 772,-654 780.729,-657.232 790.093,-660.684 798.996,-663.96"/>
<polygon fill="#9a32cd" stroke="#9a32cd" points="645.994,-603.349 635.402,-603.125 643.543,-609.906 645.994,-603.349"/>
<text text-anchor="middle" x="722" y="-650" font-family="Helvetica,sans-Serif" font-size="10.00"> parent</text>
</g>
<!-- Node7&#45;&gt;Node30 -->
<g id="edge47" class="edge"><title>Node7&#45;&gt;Node30</title>
<path fill="none" stroke="#9a32cd" stroke-dasharray="5,2" d="M653.355,-570.688C683.907,-564.371 721.6,-560.955 754,-571 781.671,-579.579 808.347,-600.481 824.463,-614.951"/>
<polygon fill="#9a32cd" stroke="#9a32cd" points="652.288,-567.339 643.285,-572.926 653.806,-574.173 652.288,-567.339"/>
<text text-anchor="middle" x="722" y="-574" font-family="Helvetica,sans-Serif" font-size="10.00"> parent</text>
</g>
<!-- Node8 -->
<g id="node8" class="node"><title>Node8</title>
<polygon fill="white" stroke="#bfbfbf" points="245,-556.5 245,-575.5 297,-575.5 297,-556.5 245,-556.5"/>
<text text-anchor="middle" x="271" y="-563.5" font-family="Helvetica,sans-Serif" font-size="10.00">QDialog</text>
</g>
<!-- Node8&#45;&gt;Node7 -->
<g id="edge8" class="edge"><title>Node8&#45;&gt;Node7</title>
<path fill="none" stroke="midnightblue" d="M307.251,-568.416C360.989,-572.099 464.163,-579.17 530.721,-583.732"/>
<polygon fill="midnightblue" stroke="midnightblue" points="307.404,-564.918 297.188,-567.726 306.926,-571.902 307.404,-564.918"/>
</g>
<!-- Node9 -->
<g id="node9" class="node"><title>Node9</title>
<g id="a_node9"><a xlink:href="../../dd/d38/classmars_1_1main__gui_1_1_property_callback.html" target="_top" xlink:title="Introduced for Windows compatibility. ">
<polygon fill="white" stroke="black" points="208,-595 208,-625 334,-625 334,-595 208,-595"/>
<text text-anchor="start" x="216" y="-613" font-family="Helvetica,sans-Serif" font-size="10.00">mars::main_gui::Property</text>
<text text-anchor="middle" x="271" y="-602" font-family="Helvetica,sans-Serif" font-size="10.00">Callback</text>
</a>
</g>
</g>
<!-- Node9&#45;&gt;Node7 -->
<g id="edge9" class="edge"><title>Node9&#45;&gt;Node7</title>
<path fill="none" stroke="#9a32cd" stroke-dasharray="5,2" d="M344.503,-605.031C400.642,-601.183 477.572,-595.911 530.901,-592.256"/>
<polygon fill="#9a32cd" stroke="#9a32cd" points="344.01,-601.556 334.273,-605.732 344.489,-608.54 344.01,-601.556"/>
<text text-anchor="middle" x="434" y="-606" font-family="Helvetica,sans-Serif" font-size="10.00"> propertyCallback</text>
</g>
<!-- Node10&#45;&gt;Node1 -->
<g id="edge10" class="edge"><title>Node10&#45;&gt;Node1</title>
<path fill="none" stroke="#9a32cd" stroke-dasharray="5,2" d="M900.05,-697.128C924.796,-705.063 953.919,-714.675 980,-724 998.103,-730.472 1018.35,-738.388 1033.54,-744.464"/>
<polygon fill="#9a32cd" stroke="#9a32cd" points="901.035,-693.769 890.444,-694.062 898.906,-700.437 901.035,-693.769"/>
<text text-anchor="middle" x="954" y="-727" font-family="Helvetica,sans-Serif" font-size="10.00"> wno</text>
</g>
<!-- Node11 -->
<g id="node11" class="node"><title>Node11</title>
<g id="a_node11"><a xlink:href="../../dc/d1d/structmars_1_1interfaces_1_1contact__params.html" target="_top" xlink:title="mars::interfaces::contact\l_params">
<polygon fill="white" stroke="black" points="531.5,-801 531.5,-831 656.5,-831 656.5,-801 531.5,-801"/>
<text text-anchor="start" x="539.5" y="-819" font-family="Helvetica,sans-Serif" font-size="10.00">mars::interfaces::contact</text>
<text text-anchor="middle" x="594" y="-808" font-family="Helvetica,sans-Serif" font-size="10.00">_params</text>
</a>
</g>
</g>
<!-- Node11&#45;&gt;Node10 -->
<g id="edge12" class="edge"><title>Node11&#45;&gt;Node10</title>
<path fill="none" stroke="#9a32cd" stroke-dasharray="5,2" d="M650.325,-796.887C657.786,-793.61 665.204,-789.966 672,-786 712.647,-762.278 718.182,-749.529 754,-719 762.146,-712.057 762.781,-708.438 772,-703 777.607,-699.692 783.742,-696.738 789.959,-694.13"/>
<polygon fill="#9a32cd" stroke="#9a32cd" points="648.764,-793.746 640.893,-800.839 651.469,-800.202 648.764,-793.746"/>
<text text-anchor="middle" x="722" y="-778" font-family="Helvetica,sans-Serif" font-size="10.00"> my_cp</text>
</g>
<!-- Node11&#45;&gt;Node13 -->
<g id="edge20" class="edge"><title>Node11&#45;&gt;Node13</title>
<path fill="none" stroke="#9a32cd" stroke-dasharray="5,2" d="M666.815,-831.873C694.377,-838.651 725.938,-847.256 754,-857 777.593,-865.192 803.703,-877.166 820.895,-885.474"/>
<polygon fill="#9a32cd" stroke="#9a32cd" points="667.399,-828.413 656.856,-829.46 665.75,-835.216 667.399,-828.413"/>
<text text-anchor="middle" x="722" y="-860" font-family="Helvetica,sans-Serif" font-size="10.00"> c_params</text>
</g>
<!-- Node12&#45;&gt;Node1 -->
<g id="edge16" class="edge"><title>Node12&#45;&gt;Node1</title>
<path fill="none" stroke="#9a32cd" stroke-dasharray="5,2" d="M664.523,-999.916C692.682,-999.187 725.267,-996.408 754,-989 865.149,-960.341 899.222,-945.551 980,-864 1012.32,-831.373 1040.49,-783.822 1051.77,-763.636"/>
<polygon fill="#9a32cd" stroke="#9a32cd" points="664.301,-996.419 654.365,-1000.1 664.426,-1003.42 664.301,-996.419"/>
<text text-anchor="middle" x="841" y="-987" font-family="Helvetica,sans-Serif" font-size="10.00"> terrain</text>
</g>
<!-- Node12&#45;&gt;Node13 -->
<g id="edge22" class="edge"><title>Node12&#45;&gt;Node13</title>
<path fill="none" stroke="#9a32cd" stroke-dasharray="5,2" d="M663.999,-981.824C699.097,-973.102 737.716,-962.6 754,-955 783.2,-941.373 813.133,-917.907 828.827,-904.722"/>
<polygon fill="#9a32cd" stroke="#9a32cd" points="663.087,-978.444 654.214,-984.233 664.761,-985.241 663.087,-978.444"/>
<text text-anchor="middle" x="722" y="-978" font-family="Helvetica,sans-Serif" font-size="10.00"> terrain</text>
</g>
<!-- Node13&#45;&gt;Node1 -->
<g id="edge19" class="edge"><title>Node13&#45;&gt;Node1</title>
<path fill="none" stroke="#9a32cd" stroke-dasharray="5,2" d="M865.198,-879.786C909.672,-850.62 1005.76,-787.602 1042.4,-763.573"/>
<polygon fill="#9a32cd" stroke="#9a32cd" points="863.221,-876.898 856.778,-885.308 867.059,-882.751 863.221,-876.898"/>
<text text-anchor="middle" x="954" y="-852" font-family="Helvetica,sans-Serif" font-size="10.00"> node</text>
<text text-anchor="middle" x="954" y="-841" font-family="Helvetica,sans-Serif" font-size="10.00">myRelNode</text>
</g>
<!-- Node14&#45;&gt;Node13 -->
<g id="edge24" class="edge"><title>Node14&#45;&gt;Node13</title>
<path fill="none" stroke="#9a32cd" stroke-dasharray="5,2" d="M498.999,-789.937C512.488,-808.3 499.285,-825.755 516,-840 535.243,-856.399 683.162,-876.456 772.347,-887.244"/>
<polygon fill="#9a32cd" stroke="#9a32cd" points="501.484,-787.471 492.084,-782.583 496.384,-792.266 501.484,-787.471"/>
<text text-anchor="middle" x="594" y="-877" font-family="Helvetica,sans-Serif" font-size="10.00"> mesh</text>
</g>
<!-- Node15 -->
<g id="node15" class="node"><title>Node15</title>
<g id="a_node15"><a xlink:href="../../d7/d4e/classmars_1_1interfaces_1_1_control_center.html" target="_top" xlink:title="The declaration of the ControlCenter. ">
<polygon fill="white" stroke="black" points="778.5,-283 778.5,-313 903.5,-313 903.5,-283 778.5,-283"/>
<text text-anchor="start" x="786.5" y="-301" font-family="Helvetica,sans-Serif" font-size="10.00">mars::interfaces::Control</text>
<text text-anchor="middle" x="841" y="-290" font-family="Helvetica,sans-Serif" font-size="10.00">Center</text>
</a>
</g>
</g>
<!-- Node15&#45;&gt;Node1 -->
<g id="edge27" class="edge"><title>Node15&#45;&gt;Node1</title>
<path fill="none" stroke="#9a32cd" stroke-dasharray="5,2" d="M860.054,-321.37C888.78,-359.467 945.193,-438.142 980,-512 1020.6,-598.146 1047.5,-711.204 1054.92,-744.431"/>
<polygon fill="#9a32cd" stroke="#9a32cd" points="862.541,-318.858 853.705,-313.012 856.968,-323.092 862.541,-318.858"/>
<text text-anchor="middle" x="954" y="-515" font-family="Helvetica,sans-Serif" font-size="10.00"> control</text>
</g>
<!-- Node16 -->
<g id="node16" class="node"><title>Node16</title>
<g id="a_node16"><a xlink:href="../../d1/d93/classmars_1_1interfaces_1_1_graphics_manager_interface.html" target="_top" xlink:title="mars::interfaces::Graphics\lManagerInterface">
<polygon fill="white" stroke="black" points="528,-411 528,-441 660,-441 660,-411 528,-411"/>
<text text-anchor="start" x="536" y="-429" font-family="Helvetica,sans-Serif" font-size="10.00">mars::interfaces::Graphics</text>
<text text-anchor="middle" x="594" y="-418" font-family="Helvetica,sans-Serif" font-size="10.00">ManagerInterface</text>
</a>
</g>
</g>
<!-- Node16&#45;&gt;Node15 -->
<g id="edge28" class="edge"><title>Node16&#45;&gt;Node15</title>
<path fill="none" stroke="#9a32cd" stroke-dasharray="5,2" d="M670.197,-408.896C697.639,-400.874 728.238,-389.761 754,-375 783.213,-358.262 811.121,-330.331 826.856,-313.107"/>
<polygon fill="#9a32cd" stroke="#9a32cd" points="668.914,-405.621 660.245,-411.712 670.82,-412.357 668.914,-405.621"/>
<text text-anchor="middle" x="722" y="-406" font-family="Helvetica,sans-Serif" font-size="10.00"> graphics</text>
</g>
<!-- Node17 -->
<g id="node17" class="node"><title>Node17</title>
<polygon fill="white" stroke="#bfbfbf" points="237,-367.5 237,-386.5 305,-386.5 305,-367.5 237,-367.5"/>
<text text-anchor="middle" x="271" y="-374.5" font-family="Helvetica,sans-Serif" font-size="10.00">LibInterface</text>
</g>
<!-- Node17&#45;&gt;Node16 -->
<g id="edge29" class="edge"><title>Node17&#45;&gt;Node16</title>
<path fill="none" stroke="midnightblue" d="M315.194,-383.594C369.854,-391.937 464.502,-406.385 527.929,-416.067"/>
<polygon fill="midnightblue" stroke="midnightblue" points="315.557,-380.108 305.144,-382.059 314.501,-387.028 315.557,-380.108"/>
</g>
<!-- Node21 -->
<g id="node21" class="node"><title>Node21</title>
<g id="a_node21"><a xlink:href="../../d4/da6/classmars_1_1cfg__manager_1_1_c_f_g_manager_interface.html" target="_top" xlink:title="mars::cfg_manager::\lCFGManagerInterface">
<polygon fill="white" stroke="black" points="537.5,-362 537.5,-392 650.5,-392 650.5,-362 537.5,-362"/>
<text text-anchor="start" x="545.5" y="-380" font-family="Helvetica,sans-Serif" font-size="10.00">mars::cfg_manager::</text>
<text text-anchor="middle" x="594" y="-369" font-family="Helvetica,sans-Serif" font-size="10.00">CFGManagerInterface</text>
</a>
</g>
</g>
<!-- Node17&#45;&gt;Node21 -->
<g id="edge34" class="edge"><title>Node17&#45;&gt;Node21</title>
<path fill="none" stroke="midnightblue" d="M315.338,-377C372.781,-377 474.207,-377 537.282,-377"/>
<polygon fill="midnightblue" stroke="midnightblue" points="315.144,-373.5 305.144,-377 315.144,-380.5 315.144,-373.5"/>
</g>
<!-- Node22 -->
<g id="node22" class="node"><title>Node22</title>
<g id="a_node22"><a xlink:href="../../d6/d2e/classmars_1_1data__broker_1_1_data_broker_interface.html" target="_top" xlink:title="The interface every DataBroker should implement. ">
<polygon fill="white" stroke="black" points="542,-313 542,-343 646,-343 646,-313 542,-313"/>
<text text-anchor="start" x="550" y="-331" font-family="Helvetica,sans-Serif" font-size="10.00">mars::data_broker::</text>
<text text-anchor="middle" x="594" y="-320" font-family="Helvetica,sans-Serif" font-size="10.00">DataBrokerInterface</text>
</a>
</g>
</g>
<!-- Node17&#45;&gt;Node22 -->
<g id="edge36" class="edge"><title>Node17&#45;&gt;Node22</title>
<path fill="none" stroke="midnightblue" d="M315.223,-370.402C374.069,-361.419 479.227,-345.367 541.905,-335.8"/>
<polygon fill="midnightblue" stroke="midnightblue" points="314.501,-366.972 305.144,-371.941 315.557,-373.892 314.501,-366.972"/>
</g>
<!-- Node18 -->
<g id="node18" class="node"><title>Node18</title>
<g id="a_node18"><a xlink:href="../../d2/da9/classmars_1_1interfaces_1_1_controller_manager_interface.html" target="_top" xlink:title="&quot;ControllerManagerInterface&quot; declares the interfaces for all controller operations that are used for ...">
<polygon fill="white" stroke="black" points="526.5,-264 526.5,-294 661.5,-294 661.5,-264 526.5,-264"/>
<text text-anchor="start" x="534.5" y="-282" font-family="Helvetica,sans-Serif" font-size="10.00">mars::interfaces::Controller</text>
<text text-anchor="middle" x="594" y="-271" font-family="Helvetica,sans-Serif" font-size="10.00">ManagerInterface</text>
</a>
</g>
</g>
<!-- Node18&#45;&gt;Node15 -->
<g id="edge30" class="edge"><title>Node18&#45;&gt;Node15</title>
<path fill="none" stroke="#9a32cd" stroke-dasharray="5,2" d="M671.869,-279.404C697.984,-280.076 727.305,-281.418 754,-284 761.83,-284.757 770.027,-285.784 778.119,-286.941"/>
<polygon fill="#9a32cd" stroke="#9a32cd" points="671.731,-275.9 661.653,-279.17 671.571,-282.898 671.731,-275.9"/>
<text text-anchor="middle" x="722" y="-287" font-family="Helvetica,sans-Serif" font-size="10.00"> controllers</text>
</g>
<!-- Node19 -->
<g id="node19" class="node"><title>Node19</title>
<g id="a_node19"><a xlink:href="../../d6/d60/classmars_1_1interfaces_1_1_joint_manager_interface.html" target="_top" xlink:title="Interface class for the node organization. ">
<polygon fill="white" stroke="black" points="518,-215 518,-245 670,-245 670,-215 518,-215"/>
<text text-anchor="start" x="526" y="-233" font-family="Helvetica,sans-Serif" font-size="10.00">mars::interfaces::JointManager</text>
<text text-anchor="middle" x="594" y="-222" font-family="Helvetica,sans-Serif" font-size="10.00">Interface</text>
</a>
</g>
</g>
<!-- Node19&#45;&gt;Node15 -->
<g id="edge31" class="edge"><title>Node19&#45;&gt;Node15</title>
<path fill="none" stroke="#9a32cd" stroke-dasharray="5,2" d="M680.165,-247.08C704.209,-252.497 730.278,-258.936 754,-266 770.184,-270.82 787.71,-277.134 802.692,-282.88"/>
<polygon fill="#9a32cd" stroke="#9a32cd" points="680.874,-243.653 670.353,-244.901 679.356,-250.486 680.874,-243.653"/>
<text text-anchor="middle" x="722" y="-269" font-family="Helvetica,sans-Serif" font-size="10.00"> joints</text>
</g>
<!-- Node20 -->
<g id="node20" class="node"><title>Node20</title>
<g id="a_node20"><a xlink:href="../../df/d82/classmars_1_1interfaces_1_1_entity_manager_interface.html" target="_top" xlink:title="mars::interfaces::Entity\lManagerInterface">
<polygon fill="white" stroke="black" points="534.5,-166 534.5,-196 653.5,-196 653.5,-166 534.5,-166"/>
<text text-anchor="start" x="542.5" y="-184" font-family="Helvetica,sans-Serif" font-size="10.00">mars::interfaces::Entity</text>
<text text-anchor="middle" x="594" y="-173" font-family="Helvetica,sans-Serif" font-size="10.00">ManagerInterface</text>
</a>
</g>
</g>
<!-- Node20&#45;&gt;Node15 -->
<g id="edge32" class="edge"><title>Node20&#45;&gt;Node15</title>
<path fill="none" stroke="#9a32cd" stroke-dasharray="5,2" d="M654.689,-199.22C660.554,-201.125 666.403,-203.072 672,-205 708.837,-217.691 719.679,-217.559 754,-236 779.132,-249.503 805.357,-269.384 822.139,-282.969"/>
<polygon fill="#9a32cd" stroke="#9a32cd" points="655.437,-195.784 644.846,-196.062 653.299,-202.45 655.437,-195.784"/>
<text text-anchor="middle" x="722" y="-239" font-family="Helvetica,sans-Serif" font-size="10.00"> entities</text>
</g>
<!-- Node21&#45;&gt;Node15 -->
<g id="edge33" class="edge"><title>Node21&#45;&gt;Node15</title>
<path fill="none" stroke="#9a32cd" stroke-dasharray="5,2" d="M660.843,-366.432C689.888,-360.774 724.136,-352.725 754,-342 775.309,-334.347 798.059,-322.53 814.805,-313.068"/>
<polygon fill="#9a32cd" stroke="#9a32cd" points="659.976,-363.034 650.802,-368.334 661.279,-369.912 659.976,-363.034"/>
<text text-anchor="middle" x="722" y="-363" font-family="Helvetica,sans-Serif" font-size="10.00"> cfg</text>
</g>
<!-- Node22&#45;&gt;Node15 -->
<g id="edge35" class="edge"><title>Node22&#45;&gt;Node15</title>
<path fill="none" stroke="#9a32cd" stroke-dasharray="5,2" d="M656.271,-320.497C693.481,-315.941 740.836,-310.143 778.15,-305.573"/>
<polygon fill="#9a32cd" stroke="#9a32cd" points="655.562,-317.058 646.062,-321.748 656.413,-324.006 655.562,-317.058"/>
<text text-anchor="middle" x="722" y="-330" font-family="Helvetica,sans-Serif" font-size="10.00"> dataBroker</text>
<text text-anchor="middle" x="722" y="-319" font-family="Helvetica,sans-Serif" font-size="10.00">theDataBroker</text>
</g>
<!-- Node23 -->
<g id="node23" class="node"><title>Node23</title>
<g id="a_node23"><a xlink:href="../../db/da9/classmars_1_1interfaces_1_1_sensor_manager_interface.html" target="_top" xlink:title="&quot;SensorManagerInterface&quot; declares the interfaces for all sensor operations that are used for the comm...">
<polygon fill="white" stroke="black" points="532,-117 532,-147 656,-147 656,-117 532,-117"/>
<text text-anchor="start" x="540" y="-135" font-family="Helvetica,sans-Serif" font-size="10.00">mars::interfaces::Sensor</text>
<text text-anchor="middle" x="594" y="-124" font-family="Helvetica,sans-Serif" font-size="10.00">ManagerInterface</text>
</a>
</g>
</g>
<!-- Node23&#45;&gt;Node15 -->
<g id="edge37" class="edge"><title>Node23&#45;&gt;Node15</title>
<path fill="none" stroke="#9a32cd" stroke-dasharray="5,2" d="M662.317,-150.296C692.419,-160.692 727.098,-175.924 754,-197 786.451,-222.423 815.568,-261.673 830.147,-282.984"/>
<polygon fill="#9a32cd" stroke="#9a32cd" points="663.314,-146.938 652.72,-147.089 661.096,-153.578 663.314,-146.938"/>
<text text-anchor="middle" x="722" y="-200" font-family="Helvetica,sans-Serif" font-size="10.00"> sensors</text>
</g>
<!-- Node24 -->
<g id="node24" class="node"><title>Node24</title>
<g id="a_node24"><a xlink:href="../../db/de9/classmars_1_1interfaces_1_1_motor_manager_interface.html" target="_top" xlink:title="&quot;MotorManagerInterface&quot; declares the interfaces for all motor operations that are used for the commun...">
<polygon fill="white" stroke="black" points="516.5,-68 516.5,-98 671.5,-98 671.5,-68 516.5,-68"/>
<text text-anchor="start" x="524.5" y="-86" font-family="Helvetica,sans-Serif" font-size="10.00">mars::interfaces::MotorManager</text>
<text text-anchor="middle" x="594" y="-75" font-family="Helvetica,sans-Serif" font-size="10.00">Interface</text>
</a>
</g>
</g>
<!-- Node24&#45;&gt;Node15 -->
<g id="edge38" class="edge"><title>Node24&#45;&gt;Node15</title>
<path fill="none" stroke="#9a32cd" stroke-dasharray="5,2" d="M670.749,-101.308C699.537,-111.288 730.92,-126.198 754,-148 796.334,-187.99 823.894,-253.512 834.76,-282.904"/>
<polygon fill="#9a32cd" stroke="#9a32cd" points="671.695,-97.934 661.101,-98.1095 669.492,-104.578 671.695,-97.934"/>
<text text-anchor="middle" x="722" y="-151" font-family="Helvetica,sans-Serif" font-size="10.00"> motors</text>
</g>
<!-- Node25 -->
<g id="node25" class="node"><title>Node25</title>
<g id="a_node25"><a xlink:href="../../d9/d6a/classmars_1_1interfaces_1_1_load_center.html" target="_top" xlink:title="mars::interfaces::LoadCenter">
<polygon fill="white" stroke="black" points="522.5,-29.5 522.5,-48.5 665.5,-48.5 665.5,-29.5 522.5,-29.5"/>
<text text-anchor="middle" x="594" y="-36.5" font-family="Helvetica,sans-Serif" font-size="10.00">mars::interfaces::LoadCenter</text>
</a>
</g>
</g>
<!-- Node25&#45;&gt;Node15 -->
<g id="edge39" class="edge"><title>Node25&#45;&gt;Node15</title>
<path fill="none" stroke="#9a32cd" stroke-dasharray="5,2" d="M671.718,-51.0859C700.798,-59.1662 732.132,-72.6203 754,-95 808.436,-150.71 830.671,-246.126 837.501,-282.918"/>
<polygon fill="#9a32cd" stroke="#9a32cd" points="672.518,-47.6777 661.959,-48.5465 670.755,-54.4521 672.518,-47.6777"/>
<text text-anchor="middle" x="722" y="-98" font-family="Helvetica,sans-Serif" font-size="10.00"> loadCenter</text>
</g>
<!-- Node26 -->
<g id="node26" class="node"><title>Node26</title>
<g id="a_node26"><a xlink:href="../../d1/d51/classmars_1_1interfaces_1_1_load_heightmap_interface.html" target="_top" xlink:title="mars::interfaces::LoadHeightmap\lInterface">
<polygon fill="white" stroke="black" points="190.5,-0 190.5,-30 351.5,-30 351.5,-0 190.5,-0"/>
<text text-anchor="start" x="198.5" y="-18" font-family="Helvetica,sans-Serif" font-size="10.00">mars::interfaces::LoadHeightmap</text>
<text text-anchor="middle" x="271" y="-7" font-family="Helvetica,sans-Serif" font-size="10.00">Interface</text>
</a>
</g>
</g>
<!-- Node26&#45;&gt;Node25 -->
<g id="edge40" class="edge"><title>Node26&#45;&gt;Node25</title>
<path fill="none" stroke="#9a32cd" stroke-dasharray="5,2" d="M361.595,-21.0672C403.103,-23.9488 453.075,-27.5183 498,-31 505.921,-31.6139 514.211,-32.2788 522.454,-32.954"/>
<polygon fill="#9a32cd" stroke="#9a32cd" points="361.726,-17.568 351.509,-20.3689 361.243,-24.5513 361.726,-17.568"/>
<text text-anchor="middle" x="434" y="-34" font-family="Helvetica,sans-Serif" font-size="10.00"> loadHeightmap</text>
</g>
<!-- Node27 -->
<g id="node27" class="node"><title>Node27</title>
<g id="a_node27"><a xlink:href="../../d7/d02/classmars_1_1interfaces_1_1_load_mesh_interface.html" target="_top" xlink:title="mars::interfaces::LoadMesh\lInterface">
<polygon fill="white" stroke="black" points="202,-49 202,-79 340,-79 340,-49 202,-49"/>
<text text-anchor="start" x="210" y="-67" font-family="Helvetica,sans-Serif" font-size="10.00">mars::interfaces::LoadMesh</text>
<text text-anchor="middle" x="271" y="-56" font-family="Helvetica,sans-Serif" font-size="10.00">Interface</text>
</a>
</g>
</g>
<!-- Node27&#45;&gt;Node25 -->
<g id="edge41" class="edge"><title>Node27&#45;&gt;Node25</title>
<path fill="none" stroke="#9a32cd" stroke-dasharray="5,2" d="M350.351,-57.8979C402.849,-53.8092 471.401,-48.4703 522.245,-44.5105"/>
<polygon fill="#9a32cd" stroke="#9a32cd" points="349.774,-54.4322 340.076,-58.6981 350.317,-61.411 349.774,-54.4322"/>
<text text-anchor="middle" x="434" y="-59" font-family="Helvetica,sans-Serif" font-size="10.00"> loadMesh</text>
</g>
<!-- Node28 -->
<g id="node28" class="node"><title>Node28</title>
<g id="a_node28"><a xlink:href="../../d7/d4c/classmars_1_1interfaces_1_1_node_manager_interface.html" target="_top" xlink:title="&quot;NodeManagerInterface&quot; declares the interfaces for all NodeOperations that are used for the communica...">
<polygon fill="white" stroke="black" points="517,-509 517,-539 671,-539 671,-509 517,-509"/>
<text text-anchor="start" x="525" y="-527" font-family="Helvetica,sans-Serif" font-size="10.00">mars::interfaces::NodeManager</text>
<text text-anchor="middle" x="594" y="-516" font-family="Helvetica,sans-Serif" font-size="10.00">Interface</text>
</a>
</g>
</g>
<!-- Node28&#45;&gt;Node15 -->
<g id="edge42" class="edge"><title>Node28&#45;&gt;Node15</title>
<path fill="none" stroke="#9a32cd" stroke-dasharray="5,2" d="M680.937,-506.092C706.756,-497.393 733.607,-484.625 754,-466 801.903,-422.248 827.152,-345.676 836.134,-313.226"/>
<polygon fill="#9a32cd" stroke="#9a32cd" points="679.569,-502.855 671.107,-509.231 681.698,-509.523 679.569,-502.855"/>
<text text-anchor="middle" x="722" y="-506" font-family="Helvetica,sans-Serif" font-size="10.00"> nodes</text>
</g>
<!-- Node29 -->
<g id="node29" class="node"><title>Node29</title>
<g id="a_node29"><a xlink:href="../../dc/de5/classmars_1_1interfaces_1_1_simulator_interface.html" target="_top" xlink:title="mars::interfaces::Simulator\lInterface">
<polygon fill="white" stroke="black" points="527,-460 527,-490 661,-490 661,-460 527,-460"/>
<text text-anchor="start" x="535" y="-478" font-family="Helvetica,sans-Serif" font-size="10.00">mars::interfaces::Simulator</text>
<text text-anchor="middle" x="594" y="-467" font-family="Helvetica,sans-Serif" font-size="10.00">Interface</text>
</a>
</g>
</g>
<!-- Node29&#45;&gt;Node15 -->
<g id="edge43" class="edge"><title>Node29&#45;&gt;Node15</title>
<path fill="none" stroke="#9a32cd" stroke-dasharray="5,2" d="M670.955,-458.421C699.034,-449.679 729.868,-436.749 754,-418 791.849,-388.594 820.291,-338.118 832.874,-313.045"/>
<polygon fill="#9a32cd" stroke="#9a32cd" points="669.737,-455.132 661.153,-461.341 671.736,-461.84 669.737,-455.132"/>
<text text-anchor="middle" x="722" y="-454" font-family="Helvetica,sans-Serif" font-size="10.00"> sim</text>
</g>
<!-- Node30&#45;&gt;Node1 -->
<g id="edge44" class="edge"><title>Node30&#45;&gt;Node1</title>
<path fill="none" stroke="#9a32cd" stroke-dasharray="5,2" d="M897.508,-648.71C901.77,-650.414 905.976,-652.184 910,-654 942.463,-668.645 950.39,-673.211 980,-693 1004.67,-709.489 1031.38,-731.744 1045.95,-744.309"/>
<polygon fill="#9a32cd" stroke="#9a32cd" points="898.73,-645.43 888.14,-645.095 896.21,-651.96 898.73,-645.43"/>
<text text-anchor="middle" x="954" y="-696" font-family="Helvetica,sans-Serif" font-size="10.00"> dem</text>
</g>
</g>
</svg>
