<?xml version="1.0" encoding="UTF-8" standalone="no"?>
<!DOCTYPE svg PUBLIC "-//W3C//DTD SVG 1.1//EN"
 "http://www.w3.org/Graphics/SVG/1.1/DTD/svg11.dtd">
<!-- Generated by graphviz version 2.26.3 (20100126.1600)
 -->
<!-- Title: /home/kavonszadkowski/limes&#45;dev/simulation/mars/graphics/src/wrapper/OSGHudElementStruct.h Pages: 1 -->
<svg width="362pt" height="168pt"
 viewBox="0.00 0.00 362.00 168.00" xmlns="http://www.w3.org/2000/svg" xmlns:xlink="http://www.w3.org/1999/xlink">
<g id="graph1" class="graph" transform="scale(1 1) rotate(0) translate(4 164)">
<title>/home/kavonszadkowski/limes&#45;dev/simulation/mars/graphics/src/wrapper/OSGHudElementStruct.h</title>
<polygon fill="white" stroke="white" points="-4,5 -4,-164 359,-164 359,5 -4,5"/>
<!-- Node1 -->
<g id="node1" class="node"><title>Node1</title>
<polygon fill="#bfbfbf" stroke="black" points="123.5,-99 123.5,-159 258.5,-159 258.5,-99 123.5,-99"/>
<text text-anchor="start" x="131.5" y="-146" font-family="Helvetica,sans-Serif" font-size="10.00">/home/kavonszadkowski</text>
<text text-anchor="start" x="131.5" y="-133" font-family="Helvetica,sans-Serif" font-size="10.00">/limes&#45;dev/simulation</text>
<text text-anchor="start" x="131.5" y="-120" font-family="Helvetica,sans-Serif" font-size="10.00">/mars/graphics/src/wrapper</text>
<text text-anchor="middle" x="191" y="-107" font-family="Helvetica,sans-Serif" font-size="10.00">/OSGHudElementStruct.h</text>
</g>
<!-- Node2 -->
<g id="node3" class="node"><title>Node2</title>
<a xlink:href="../../d7/d19/_graphics_manager_8cpp.html" target="_top" xlink:title="/home/kavonszadkowski\l/limes&#45;dev/simulation\l/mars/graphics/src/GraphicsManager.cpp">
<polygon fill="white" stroke="black" points="0,-7.5 0,-54.5 196,-54.5 196,-7.5 0,-7.5"/>
<text text-anchor="start" x="8" y="-41.5" font-family="Helvetica,sans-Serif" font-size="10.00">/home/kavonszadkowski</text>
<text text-anchor="start" x="8" y="-28.5" font-family="Helvetica,sans-Serif" font-size="10.00">/limes&#45;dev/simulation</text>
<text text-anchor="middle" x="98" y="-15.5" font-family="Helvetica,sans-Serif" font-size="10.00">/mars/graphics/src/GraphicsManager.cpp</text>
</a>
</g>
<!-- Node1&#45;&gt;Node2 -->
<g id="edge2" class="edge"><title>Node1&#45;&gt;Node2</title>
<path fill="none" stroke="midnightblue" d="M155.224,-91.3001C143.554,-79.0032 130.932,-65.7021 120.518,-54.7289"/>
<polygon fill="midnightblue" stroke="midnightblue" points="152.916,-93.9527 162.338,-98.7971 157.993,-89.1341 152.916,-93.9527"/>
</g>
<!-- Node3 -->
<g id="node5" class="node"><title>Node3</title>
<a xlink:href="../../d5/da7/_o_s_g_hud_element_struct_8cpp.html" target="_top" xlink:title="/home/kavonszadkowski\l/limes&#45;dev/simulation\l/mars/graphics/src/wrapper\l/OSGHudElementStruct.cpp">
<polygon fill="white" stroke="black" points="214,-1 214,-61 354,-61 354,-1 214,-1"/>
<text text-anchor="start" x="222" y="-48" font-family="Helvetica,sans-Serif" font-size="10.00">/home/kavonszadkowski</text>
<text text-anchor="start" x="222" y="-35" font-family="Helvetica,sans-Serif" font-size="10.00">/limes&#45;dev/simulation</text>
<text text-anchor="start" x="222" y="-22" font-family="Helvetica,sans-Serif" font-size="10.00">/mars/graphics/src/wrapper</text>
<text text-anchor="middle" x="284" y="-9" font-family="Helvetica,sans-Serif" font-size="10.00">/OSGHudElementStruct.cpp</text>
</a>
</g>
<!-- Node1&#45;&gt;Node3 -->
<g id="edge4" class="edge"><title>Node1&#45;&gt;Node3</title>
<path fill="none" stroke="midnightblue" d="M226.734,-91.3443C236.179,-81.3916 246.251,-70.7782 255.273,-61.2718"/>
<polygon fill="midnightblue" stroke="midnightblue" points="224.007,-89.1341 219.662,-98.7971 229.084,-93.9527 224.007,-89.1341"/>
</g>
</g>
</svg>
