<?xml version="1.0" encoding="UTF-8" standalone="no"?>
<!DOCTYPE svg PUBLIC "-//W3C//DTD SVG 1.1//EN"
 "http://www.w3.org/Graphics/SVG/1.1/DTD/svg11.dtd">
<!-- Generated by graphviz version 2.26.3 (20100126.1600)
 -->
<!-- Title: mars::gui::Widget_Node_State Pages: 1 -->
<svg width="876pt" height="742pt"
 viewBox="0.00 0.00 876.00 742.00" xmlns="http://www.w3.org/2000/svg" xmlns:xlink="http://www.w3.org/1999/xlink">
<g id="graph1" class="graph" transform="scale(1 1) rotate(0) translate(4 738)">
<title>mars::gui::Widget_Node_State</title>
<polygon fill="white" stroke="white" points="-4,5 -4,-738 873,-738 873,5 -4,5"/>
<!-- Node1 -->
<g id="node1" class="node"><title>Node1</title>
<polygon fill="#bfbfbf" stroke="black" points="746,-570 746,-604 868,-604 868,-570 746,-570"/>
<text text-anchor="start" x="754" y="-591" font-family="Helvetica,sans-Serif" font-size="10.00">mars::gui::Widget_Node</text>
<text text-anchor="middle" x="807" y="-578" font-family="Helvetica,sans-Serif" font-size="10.00">_State</text>
</g>
<!-- Node2 -->
<g id="node2" class="node"><title>Node2</title>
<polygon fill="white" stroke="#bfbfbf" points="574.5,-712.5 574.5,-733.5 627.5,-733.5 627.5,-712.5 574.5,-712.5"/>
<text text-anchor="middle" x="601" y="-720.5" font-family="Helvetica,sans-Serif" font-size="10.00">QObject</text>
</g>
<!-- Node2&#45;&gt;Node1 -->
<g id="edge2" class="edge"><title>Node2&#45;&gt;Node1</title>
<path fill="none" stroke="midnightblue" d="M637.475,-712.818C646.289,-709.977 655.588,-706.655 664,-703 693.932,-689.994 702.06,-686.804 728,-667 752.824,-648.049 777.477,-621.537 792.477,-604.317"/>
<polygon fill="midnightblue" stroke="midnightblue" points="636.321,-709.511 627.804,-715.813 638.392,-716.198 636.321,-709.511"/>
</g>
<!-- Node3 -->
<g id="node4" class="node"><title>Node3</title>
<a xlink:href="../../d0/d0e/classmars_1_1data__broker_1_1_receiver_interface.html" target="_top" xlink:title="Interface for classes that want to receive data from the DataBroker. ">
<polygon fill="white" stroke="black" points="550.5,-660 550.5,-694 651.5,-694 651.5,-660 550.5,-660"/>
<text text-anchor="start" x="558.5" y="-681" font-family="Helvetica,sans-Serif" font-size="10.00">mars::data_broker::</text>
<text text-anchor="middle" x="601" y="-668" font-family="Helvetica,sans-Serif" font-size="10.00">ReceiverInterface</text>
</a>
</g>
<!-- Node3&#45;&gt;Node1 -->
<g id="edge4" class="edge"><title>Node3&#45;&gt;Node1</title>
<path fill="none" stroke="midnightblue" d="M661.765,-667.356C683.327,-662.601 707.353,-655.732 728,-646 750.762,-635.272 773.432,-617.41 788.61,-604.145"/>
<polygon fill="midnightblue" stroke="midnightblue" points="660.798,-663.982 651.729,-669.459 662.234,-670.834 660.798,-663.982"/>
</g>
<!-- Node4 -->
<g id="node6" class="node"><title>Node4</title>
<a xlink:href="../../dd/d38/classmars_1_1main__gui_1_1_property_callback.html" target="_top" xlink:title="Introduced for Windows compatibility. ">
<polygon fill="white" stroke="black" points="283,-608 283,-642 409,-642 409,-608 283,-608"/>
<text text-anchor="start" x="291" y="-629" font-family="Helvetica,sans-Serif" font-size="10.00">mars::main_gui::Property</text>
<text text-anchor="middle" x="346" y="-616" font-family="Helvetica,sans-Serif" font-size="10.00">Callback</text>
</a>
</g>
<!-- Node4&#45;&gt;Node1 -->
<g id="edge6" class="edge"><title>Node4&#45;&gt;Node1</title>
<path fill="none" stroke="midnightblue" d="M419.185,-626.198C496.524,-626.251 621.761,-622.875 728,-604 733.801,-602.969 739.826,-601.819 745.843,-600.617"/>
<polygon fill="midnightblue" stroke="midnightblue" points="419.073,-622.698 409.063,-626.171 419.054,-629.698 419.073,-622.698"/>
</g>
<!-- Node7 -->
<g id="node12" class="node"><title>Node7</title>
<a xlink:href="../../de/d11/classmars_1_1main__gui_1_1_property_dialog.html" target="_top" xlink:title="The PropertyDialog provides the QtProperty functionality. ">
<polygon fill="white" stroke="black" points="538,-570 538,-604 664,-604 664,-570 538,-570"/>
<text text-anchor="start" x="546" y="-591" font-family="Helvetica,sans-Serif" font-size="10.00">mars::main_gui::Property</text>
<text text-anchor="middle" x="601" y="-578" font-family="Helvetica,sans-Serif" font-size="10.00">Dialog</text>
</a>
</g>
<!-- Node4&#45;&gt;Node7 -->
<g id="edge16" class="edge"><title>Node4&#45;&gt;Node7</title>
<path fill="none" stroke="#9a32cd" stroke-dasharray="5,2" d="M419.171,-609.026C426.861,-607.565 434.578,-606.191 442,-605 473.407,-599.962 508.527,-595.83 537.756,-592.801"/>
<polygon fill="#9a32cd" stroke="#9a32cd" points="418.251,-605.639 409.104,-610.986 419.589,-612.51 418.251,-605.639"/>
<text text-anchor="middle" x="481" y="-609" font-family="Helvetica,sans-Serif" font-size="10.00"> propertyCallback</text>
</g>
<!-- Node5 -->
<g id="node8" class="node"><title>Node5</title>
<a xlink:href="../../da/d29/structmars_1_1gui_1_1node__data.html" target="_top" xlink:title="mars::gui::node_data">
<polygon fill="white" stroke="black" points="547,-530.5 547,-551.5 655,-551.5 655,-530.5 547,-530.5"/>
<text text-anchor="middle" x="601" y="-538.5" font-family="Helvetica,sans-Serif" font-size="10.00">mars::gui::node_data</text>
</a>
</g>
<!-- Node5&#45;&gt;Node1 -->
<g id="edge8" class="edge"><title>Node5&#45;&gt;Node1</title>
<path fill="none" stroke="#9a32cd" stroke-dasharray="5,2" d="M658.054,-553.74C685.354,-559.836 718.069,-567.142 745.877,-573.351"/>
<polygon fill="#9a32cd" stroke="#9a32cd" points="658.783,-550.317 648.261,-551.553 657.257,-557.149 658.783,-550.317"/>
<text text-anchor="middle" x="705" y="-572" font-family="Helvetica,sans-Serif" font-size="10.00"> data</text>
</g>
<!-- Node6 -->
<g id="node10" class="node"><title>Node6</title>
<a xlink:href="../../d9/d68/classmars_1_1data__broker_1_1_data_package_mapping.html" target="_top" xlink:title="A DataPackageMapping can be used by a Receiver &#160;to more conveniently retrieve values from a DataPacka...">
<polygon fill="white" stroke="black" points="544.5,-478 544.5,-512 657.5,-512 657.5,-478 544.5,-478"/>
<text text-anchor="start" x="552.5" y="-499" font-family="Helvetica,sans-Serif" font-size="10.00">mars::data_broker::</text>
<text text-anchor="middle" x="601" y="-486" font-family="Helvetica,sans-Serif" font-size="10.00">DataPackageMapping</text>
</a>
</g>
<!-- Node6&#45;&gt;Node1 -->
<g id="edge10" class="edge"><title>Node6&#45;&gt;Node1</title>
<path fill="none" stroke="#9a32cd" stroke-dasharray="5,2" d="M662.556,-515.49C683.615,-523.1 707.118,-532.268 728,-542 745.597,-550.201 764.522,-560.91 779.436,-569.823"/>
<polygon fill="#9a32cd" stroke="#9a32cd" points="663.665,-512.17 653.07,-512.107 661.313,-518.763 663.665,-512.17"/>
<text text-anchor="middle" x="705" y="-546" font-family="Helvetica,sans-Serif" font-size="10.00"> dbMapper</text>
</g>
<!-- Node7&#45;&gt;Node1 -->
<g id="edge12" class="edge"><title>Node7&#45;&gt;Node1</title>
<path fill="none" stroke="#9a32cd" stroke-dasharray="5,2" d="M674.404,-587C697.739,-587 723.29,-587 745.68,-587"/>
<polygon fill="#9a32cd" stroke="#9a32cd" points="674.207,-583.5 664.207,-587 674.207,-590.5 674.207,-583.5"/>
<text text-anchor="middle" x="705" y="-591" font-family="Helvetica,sans-Serif" font-size="10.00"> pDialog</text>
</g>
<!-- Node8 -->
<g id="node14" class="node"><title>Node8</title>
<polygon fill="white" stroke="#bfbfbf" points="320,-560.5 320,-581.5 372,-581.5 372,-560.5 320,-560.5"/>
<text text-anchor="middle" x="346" y="-568.5" font-family="Helvetica,sans-Serif" font-size="10.00">QDialog</text>
</g>
<!-- Node8&#45;&gt;Node7 -->
<g id="edge14" class="edge"><title>Node8&#45;&gt;Node7</title>
<path fill="none" stroke="midnightblue" d="M382.537,-573.292C423.005,-575.832 488.984,-579.972 537.86,-583.038"/>
<polygon fill="midnightblue" stroke="midnightblue" points="382.529,-569.785 372.329,-572.652 382.09,-576.771 382.529,-569.785"/>
</g>
<!-- Node9 -->
<g id="node17" class="node"><title>Node9</title>
<a xlink:href="../../d7/d4e/classmars_1_1interfaces_1_1_control_center.html" target="_top" xlink:title="The declaration of the ControlCenter. ">
<polygon fill="white" stroke="black" points="538.5,-274 538.5,-308 663.5,-308 663.5,-274 538.5,-274"/>
<text text-anchor="start" x="546.5" y="-295" font-family="Helvetica,sans-Serif" font-size="10.00">mars::interfaces::Control</text>
<text text-anchor="middle" x="601" y="-282" font-family="Helvetica,sans-Serif" font-size="10.00">Center</text>
</a>
</g>
<!-- Node9&#45;&gt;Node1 -->
<g id="edge18" class="edge"><title>Node9&#45;&gt;Node1</title>
<path fill="none" stroke="#9a32cd" stroke-dasharray="5,2" d="M618.803,-316.581C659.863,-375.58 760.328,-519.938 795.001,-569.759"/>
<polygon fill="#9a32cd" stroke="#9a32cd" points="621.551,-314.402 612.966,-308.194 615.805,-318.401 621.551,-314.402"/>
<text text-anchor="middle" x="705" y="-469" font-family="Helvetica,sans-Serif" font-size="10.00"> control</text>
</g>
<!-- Node10 -->
<g id="node19" class="node"><title>Node10</title>
<a xlink:href="../../d1/d93/classmars_1_1interfaces_1_1_graphics_manager_interface.html" target="_top" xlink:title="mars::interfaces::Graphics\lManagerInterface">
<polygon fill="white" stroke="black" points="280,-508 280,-542 412,-542 412,-508 280,-508"/>
<text text-anchor="start" x="288" y="-529" font-family="Helvetica,sans-Serif" font-size="10.00">mars::interfaces::Graphics</text>
<text text-anchor="middle" x="346" y="-516" font-family="Helvetica,sans-Serif" font-size="10.00">ManagerInterface</text>
</a>
</g>
<!-- Node10&#45;&gt;Node9 -->
<g id="edge20" class="edge"><title>Node10&#45;&gt;Node9</title>
<path fill="none" stroke="#9a32cd" stroke-dasharray="5,2" d="M422.541,-518.135C455.734,-511.72 493.078,-499.436 520,-476 572.361,-430.417 592.181,-344.677 598.474,-308.166"/>
<polygon fill="#9a32cd" stroke="#9a32cd" points="421.621,-514.744 412.39,-519.943 422.849,-521.635 421.621,-514.744"/>
<text text-anchor="middle" x="481" y="-516" font-family="Helvetica,sans-Serif" font-size="10.00"> graphics</text>
</g>
<!-- Node11 -->
<g id="node21" class="node"><title>Node11</title>
<polygon fill="white" stroke="#bfbfbf" points="47,-462.5 47,-483.5 115,-483.5 115,-462.5 47,-462.5"/>
<text text-anchor="middle" x="81" y="-470.5" font-family="Helvetica,sans-Serif" font-size="10.00">LibInterface</text>
</g>
<!-- Node11&#45;&gt;Node10 -->
<g id="edge22" class="edge"><title>Node11&#45;&gt;Node10</title>
<path fill="none" stroke="midnightblue" d="M125.064,-481.647C167.239,-489.922 231.411,-502.515 279.747,-511.999"/>
<polygon fill="midnightblue" stroke="midnightblue" points="125.588,-478.183 115.102,-479.692 124.241,-485.052 125.588,-478.183"/>
</g>
<!-- Node15 -->
<g id="node29" class="node"><title>Node15</title>
<a xlink:href="../../d4/da6/classmars_1_1cfg__manager_1_1_c_f_g_manager_interface.html" target="_top" xlink:title="mars::cfg_manager::\lCFGManagerInterface">
<polygon fill="white" stroke="black" points="289.5,-456 289.5,-490 402.5,-490 402.5,-456 289.5,-456"/>
<text text-anchor="start" x="297.5" y="-477" font-family="Helvetica,sans-Serif" font-size="10.00">mars::cfg_manager::</text>
<text text-anchor="middle" x="346" y="-464" font-family="Helvetica,sans-Serif" font-size="10.00">CFGManagerInterface</text>
</a>
</g>
<!-- Node11&#45;&gt;Node15 -->
<g id="edge32" class="edge"><title>Node11&#45;&gt;Node15</title>
<path fill="none" stroke="midnightblue" d="M125.147,-473C170.173,-473 240.21,-473 289.312,-473"/>
<polygon fill="midnightblue" stroke="midnightblue" points="125.102,-469.5 115.102,-473 125.102,-476.5 125.102,-469.5"/>
</g>
<!-- Node16 -->
<g id="node32" class="node"><title>Node16</title>
<a xlink:href="../../d6/d2e/classmars_1_1data__broker_1_1_data_broker_interface.html" target="_top" xlink:title="The interface every DataBroker should implement. ">
<polygon fill="white" stroke="black" points="294,-404 294,-438 398,-438 398,-404 294,-404"/>
<text text-anchor="start" x="302" y="-425" font-family="Helvetica,sans-Serif" font-size="10.00">mars::data_broker::</text>
<text text-anchor="middle" x="346" y="-412" font-family="Helvetica,sans-Serif" font-size="10.00">DataBrokerInterface</text>
</a>
</g>
<!-- Node11&#45;&gt;Node16 -->
<g id="edge36" class="edge"><title>Node11&#45;&gt;Node16</title>
<path fill="none" stroke="midnightblue" d="M125.155,-464.336C171.569,-455.228 244.55,-440.907 293.788,-431.245"/>
<polygon fill="midnightblue" stroke="midnightblue" points="124.241,-460.948 115.102,-466.308 125.588,-467.817 124.241,-460.948"/>
</g>
<!-- Node12 -->
<g id="node23" class="node"><title>Node12</title>
<a xlink:href="../../d2/da9/classmars_1_1interfaces_1_1_controller_manager_interface.html" target="_top" xlink:title="&quot;ControllerManagerInterface&quot; declares the interfaces for all controller operations that are used for ...">
<polygon fill="white" stroke="black" points="278.5,-352 278.5,-386 413.5,-386 413.5,-352 278.5,-352"/>
<text text-anchor="start" x="286.5" y="-373" font-family="Helvetica,sans-Serif" font-size="10.00">mars::interfaces::Controller</text>
<text text-anchor="middle" x="346" y="-360" font-family="Helvetica,sans-Serif" font-size="10.00">ManagerInterface</text>
</a>
</g>
<!-- Node12&#45;&gt;Node9 -->
<g id="edge24" class="edge"><title>Node12&#45;&gt;Node9</title>
<path fill="none" stroke="#9a32cd" stroke-dasharray="5,2" d="M423.635,-351.282C453.963,-343.748 488.866,-334.317 520,-324 533.982,-319.367 548.997,-313.507 562.255,-308.015"/>
<polygon fill="#9a32cd" stroke="#9a32cd" points="422.414,-347.978 413.538,-353.763 424.084,-354.776 422.414,-347.978"/>
<text text-anchor="middle" x="481" y="-350" font-family="Helvetica,sans-Serif" font-size="10.00"> controllers</text>
</g>
<!-- Node13 -->
<g id="node25" class="node"><title>Node13</title>
<a xlink:href="../../d6/d60/classmars_1_1interfaces_1_1_joint_manager_interface.html" target="_top" xlink:title="Interface class for the node organization. ">
<polygon fill="white" stroke="black" points="270,-300 270,-334 422,-334 422,-300 270,-300"/>
<text text-anchor="start" x="278" y="-321" font-family="Helvetica,sans-Serif" font-size="10.00">mars::interfaces::JointManager</text>
<text text-anchor="middle" x="346" y="-308" font-family="Helvetica,sans-Serif" font-size="10.00">Interface</text>
</a>
</g>
<!-- Node13&#45;&gt;Node9 -->
<g id="edge26" class="edge"><title>Node13&#45;&gt;Node9</title>
<path fill="none" stroke="#9a32cd" stroke-dasharray="5,2" d="M432.287,-308.202C466.963,-304.667 506.196,-300.666 538.097,-297.414"/>
<polygon fill="#9a32cd" stroke="#9a32cd" points="431.756,-304.738 422.163,-309.234 432.466,-311.702 431.756,-304.738"/>
<text text-anchor="middle" x="481" y="-311" font-family="Helvetica,sans-Serif" font-size="10.00"> joints</text>
</g>
<!-- Node14 -->
<g id="node27" class="node"><title>Node14</title>
<a xlink:href="../../df/d82/classmars_1_1interfaces_1_1_entity_manager_interface.html" target="_top" xlink:title="mars::interfaces::Entity\lManagerInterface">
<polygon fill="white" stroke="black" points="286.5,-248 286.5,-282 405.5,-282 405.5,-248 286.5,-248"/>
<text text-anchor="start" x="294.5" y="-269" font-family="Helvetica,sans-Serif" font-size="10.00">mars::interfaces::Entity</text>
<text text-anchor="middle" x="346" y="-256" font-family="Helvetica,sans-Serif" font-size="10.00">ManagerInterface</text>
</a>
</g>
<!-- Node14&#45;&gt;Node9 -->
<g id="edge28" class="edge"><title>Node14&#45;&gt;Node9</title>
<path fill="none" stroke="#9a32cd" stroke-dasharray="5,2" d="M415.706,-271.597C447.521,-274.663 485.678,-278.417 520,-282 525.91,-282.617 532.062,-283.274 538.216,-283.941"/>
<polygon fill="#9a32cd" stroke="#9a32cd" points="415.902,-268.1 405.613,-270.627 415.232,-275.068 415.902,-268.1"/>
<text text-anchor="middle" x="481" y="-286" font-family="Helvetica,sans-Serif" font-size="10.00"> entities</text>
</g>
<!-- Node15&#45;&gt;Node9 -->
<g id="edge30" class="edge"><title>Node15&#45;&gt;Node9</title>
<path fill="none" stroke="#9a32cd" stroke-dasharray="5,2" d="M412.938,-466.485C447.684,-460.322 489.191,-448.331 520,-425 560.525,-394.312 585.066,-336.957 595.351,-308.268"/>
<polygon fill="#9a32cd" stroke="#9a32cd" points="412.16,-463.066 402.862,-468.145 413.298,-469.973 412.16,-463.066"/>
<text text-anchor="middle" x="481" y="-463" font-family="Helvetica,sans-Serif" font-size="10.00"> cfg</text>
</g>
<!-- Node16&#45;&gt;Node9 -->
<g id="edge34" class="edge"><title>Node16&#45;&gt;Node9</title>
<path fill="none" stroke="#9a32cd" stroke-dasharray="5,2" d="M408.121,-406.868C442.533,-397.459 485.25,-383.09 520,-363 545.736,-348.121 570.559,-324.182 585.792,-308.034"/>
<polygon fill="#9a32cd" stroke="#9a32cd" points="406.953,-403.557 398.189,-409.511 408.753,-410.322 406.953,-403.557"/>
<text text-anchor="middle" x="481" y="-412" font-family="Helvetica,sans-Serif" font-size="10.00"> dataBroker</text>
<text text-anchor="middle" x="481" y="-399" font-family="Helvetica,sans-Serif" font-size="10.00">theDataBroker</text>
</g>
<!-- Node17 -->
<g id="node35" class="node"><title>Node17</title>
<a xlink:href="../../db/da9/classmars_1_1interfaces_1_1_sensor_manager_interface.html" target="_top" xlink:title="&quot;SensorManagerInterface&quot; declares the interfaces for all sensor operations that are used for the comm...">
<polygon fill="white" stroke="black" points="284,-196 284,-230 408,-230 408,-196 284,-196"/>
<text text-anchor="start" x="292" y="-217" font-family="Helvetica,sans-Serif" font-size="10.00">mars::interfaces::Sensor</text>
<text text-anchor="middle" x="346" y="-204" font-family="Helvetica,sans-Serif" font-size="10.00">ManagerInterface</text>
</a>
</g>
<!-- Node17&#45;&gt;Node9 -->
<g id="edge38" class="edge"><title>Node17&#45;&gt;Node9</title>
<path fill="none" stroke="#9a32cd" stroke-dasharray="5,2" d="M418.285,-228.716C449.834,-236.231 487.067,-245.993 520,-257 534.465,-261.834 549.988,-268.08 563.537,-273.896"/>
<polygon fill="#9a32cd" stroke="#9a32cd" points="418.79,-225.24 408.255,-226.357 417.187,-232.054 418.79,-225.24"/>
<text text-anchor="middle" x="481" y="-261" font-family="Helvetica,sans-Serif" font-size="10.00"> sensors</text>
</g>
<!-- Node18 -->
<g id="node37" class="node"><title>Node18</title>
<a xlink:href="../../db/de9/classmars_1_1interfaces_1_1_motor_manager_interface.html" target="_top" xlink:title="&quot;MotorManagerInterface&quot; declares the interfaces for all motor operations that are used for the commun...">
<polygon fill="white" stroke="black" points="268.5,-144 268.5,-178 423.5,-178 423.5,-144 268.5,-144"/>
<text text-anchor="start" x="276.5" y="-165" font-family="Helvetica,sans-Serif" font-size="10.00">mars::interfaces::MotorManager</text>
<text text-anchor="middle" x="346" y="-152" font-family="Helvetica,sans-Serif" font-size="10.00">Interface</text>
</a>
</g>
<!-- Node18&#45;&gt;Node9 -->
<g id="edge40" class="edge"><title>Node18&#45;&gt;Node9</title>
<path fill="none" stroke="#9a32cd" stroke-dasharray="5,2" d="M430.691,-181.026C460.104,-189.95 492.569,-202.11 520,-218 546.046,-233.087 570.984,-257.594 586.143,-273.999"/>
<polygon fill="#9a32cd" stroke="#9a32cd" points="431.426,-177.594 420.845,-178.122 429.446,-184.308 431.426,-177.594"/>
<text text-anchor="middle" x="481" y="-222" font-family="Helvetica,sans-Serif" font-size="10.00"> motors</text>
</g>
<!-- Node19 -->
<g id="node39" class="node"><title>Node19</title>
<a xlink:href="../../d9/d6a/classmars_1_1interfaces_1_1_load_center.html" target="_top" xlink:title="mars::interfaces::LoadCenter">
<polygon fill="white" stroke="black" points="274.5,-104.5 274.5,-125.5 417.5,-125.5 417.5,-104.5 274.5,-104.5"/>
<text text-anchor="middle" x="346" y="-112.5" font-family="Helvetica,sans-Serif" font-size="10.00">mars::interfaces::LoadCenter</text>
</a>
</g>
<!-- Node19&#45;&gt;Node9 -->
<g id="edge42" class="edge"><title>Node19&#45;&gt;Node9</title>
<path fill="none" stroke="#9a32cd" stroke-dasharray="5,2" d="M427.929,-126.61C459.139,-134.161 493.53,-146.585 520,-167 557.465,-195.895 582.919,-247.312 594.273,-273.948"/>
<polygon fill="#9a32cd" stroke="#9a32cd" points="428.45,-123.139 417.922,-124.326 426.892,-129.964 428.45,-123.139"/>
<text text-anchor="middle" x="481" y="-171" font-family="Helvetica,sans-Serif" font-size="10.00"> loadCenter</text>
</g>
<!-- Node20 -->
<g id="node41" class="node"><title>Node20</title>
<a xlink:href="../../d1/d51/classmars_1_1interfaces_1_1_load_heightmap_interface.html" target="_top" xlink:title="mars::interfaces::LoadHeightmap\lInterface">
<polygon fill="white" stroke="black" points="0.5,-124 0.5,-158 161.5,-158 161.5,-124 0.5,-124"/>
<text text-anchor="start" x="8.5" y="-145" font-family="Helvetica,sans-Serif" font-size="10.00">mars::interfaces::LoadHeightmap</text>
<text text-anchor="middle" x="81" y="-132" font-family="Helvetica,sans-Serif" font-size="10.00">Interface</text>
</a>
</g>
<!-- Node20&#45;&gt;Node19 -->
<g id="edge44" class="edge"><title>Node20&#45;&gt;Node19</title>
<path fill="none" stroke="#9a32cd" stroke-dasharray="5,2" d="M171.844,-132.087C205.335,-128.801 242.778,-125.127 274.339,-122.031"/>
<polygon fill="#9a32cd" stroke="#9a32cd" points="171.198,-128.633 161.588,-133.093 171.882,-135.6 171.198,-128.633"/>
<text text-anchor="middle" x="215" y="-135" font-family="Helvetica,sans-Serif" font-size="10.00"> loadHeightmap</text>
</g>
<!-- Node21 -->
<g id="node43" class="node"><title>Node21</title>
<a xlink:href="../../d7/d02/classmars_1_1interfaces_1_1_load_mesh_interface.html" target="_top" xlink:title="mars::interfaces::LoadMesh\lInterface">
<polygon fill="white" stroke="black" points="12,-72 12,-106 150,-106 150,-72 12,-72"/>
<text text-anchor="start" x="20" y="-93" font-family="Helvetica,sans-Serif" font-size="10.00">mars::interfaces::LoadMesh</text>
<text text-anchor="middle" x="81" y="-80" font-family="Helvetica,sans-Serif" font-size="10.00">Interface</text>
</a>
</g>
<!-- Node21&#45;&gt;Node19 -->
<g id="edge46" class="edge"><title>Node21&#45;&gt;Node19</title>
<path fill="none" stroke="#9a32cd" stroke-dasharray="5,2" d="M160.315,-96.7819C196.535,-100.336 239.113,-104.513 274.353,-107.971"/>
<polygon fill="#9a32cd" stroke="#9a32cd" points="160.573,-93.2905 150.279,-95.7972 159.89,-100.257 160.573,-93.2905"/>
<text text-anchor="middle" x="215" y="-109" font-family="Helvetica,sans-Serif" font-size="10.00"> loadMesh</text>
</g>
<!-- Node22 -->
<g id="node45" class="node"><title>Node22</title>
<a xlink:href="../../d7/d4c/classmars_1_1interfaces_1_1_node_manager_interface.html" target="_top" xlink:title="&quot;NodeManagerInterface&quot; declares the interfaces for all NodeOperations that are used for the communica...">
<polygon fill="white" stroke="black" points="269,-52 269,-86 423,-86 423,-52 269,-52"/>
<text text-anchor="start" x="277" y="-73" font-family="Helvetica,sans-Serif" font-size="10.00">mars::interfaces::NodeManager</text>
<text text-anchor="middle" x="346" y="-60" font-family="Helvetica,sans-Serif" font-size="10.00">Interface</text>
</a>
</g>
<!-- Node22&#45;&gt;Node9 -->
<g id="edge48" class="edge"><title>Node22&#45;&gt;Node9</title>
<path fill="none" stroke="#9a32cd" stroke-dasharray="5,2" d="M433.485,-76.2425C463.616,-82.472 495.825,-93.7471 520,-114 571.032,-156.753 591.489,-238.522 598.208,-273.942"/>
<polygon fill="#9a32cd" stroke="#9a32cd" points="433.839,-72.7472 423.361,-74.3177 432.531,-79.624 433.839,-72.7472"/>
<text text-anchor="middle" x="481" y="-118" font-family="Helvetica,sans-Serif" font-size="10.00"> nodes</text>
</g>
<!-- Node23 -->
<g id="node47" class="node"><title>Node23</title>
<a xlink:href="../../dc/de5/classmars_1_1interfaces_1_1_simulator_interface.html" target="_top" xlink:title="mars::interfaces::Simulator\lInterface">
<polygon fill="white" stroke="black" points="279,-0 279,-34 413,-34 413,-0 279,-0"/>
<text text-anchor="start" x="287" y="-21" font-family="Helvetica,sans-Serif" font-size="10.00">mars::interfaces::Simulator</text>
<text text-anchor="middle" x="346" y="-8" font-family="Helvetica,sans-Serif" font-size="10.00">Interface</text>
</a>
</g>
<!-- Node23&#45;&gt;Node9 -->
<g id="edge50" class="edge"><title>Node23&#45;&gt;Node9</title>
<path fill="none" stroke="#9a32cd" stroke-dasharray="5,2" d="M423.247,-21.0287C456.58,-26.4655 493.84,-38.0201 520,-62 583.416,-120.131 597.199,-231.033 600.181,-273.688"/>
<polygon fill="#9a32cd" stroke="#9a32cd" points="423.447,-17.5207 413.045,-19.5309 422.431,-24.4464 423.447,-17.5207"/>
<text text-anchor="middle" x="481" y="-66" font-family="Helvetica,sans-Serif" font-size="10.00"> sim</text>
</g>
</g>
</svg>
