<?xml version="1.0" encoding="UTF-8" standalone="no"?>
<!DOCTYPE svg PUBLIC "-//W3C//DTD SVG 1.1//EN"
 "http://www.w3.org/Graphics/SVG/1.1/DTD/svg11.dtd">
<!-- Generated by graphviz version 2.36.0 (20140111.2315)
 -->
<!-- Title: mars::gui::Widget_Node_State Pages: 1 -->
<svg width="876pt" height="704pt"
 viewBox="0.00 0.00 876.00 704.00" xmlns="http://www.w3.org/2000/svg" xmlns:xlink="http://www.w3.org/1999/xlink">
<g id="graph0" class="graph" transform="scale(1 1) rotate(0) translate(4 700)">
<title>mars::gui::Widget_Node_State</title>
<polygon fill="white" stroke="none" points="-4,4 -4,-700 872,-700 872,4 -4,4"/>
<!-- Node1 -->
<g id="node1" class="node"><title>Node1</title>
<polygon fill="#bfbfbf" stroke="black" points="746,-539 746,-569 868,-569 868,-539 746,-539"/>
<text text-anchor="start" x="754" y="-557" font-family="Helvetica,sans-Serif" font-size="10.00">mars::gui::Widget_Node</text>
<text text-anchor="middle" x="807" y="-546" font-family="Helvetica,sans-Serif" font-size="10.00">_State</text>
</g>
<!-- Node2 -->
<g id="node2" class="node"><title>Node2</title>
<polygon fill="white" stroke="#bfbfbf" points="574.5,-676.5 574.5,-695.5 627.5,-695.5 627.5,-676.5 574.5,-676.5"/>
<text text-anchor="middle" x="601" y="-683.5" font-family="Helvetica,sans-Serif" font-size="10.00">QObject</text>
</g>
<!-- Node2&#45;&gt;Node1 -->
<g id="edge1" class="edge"><title>Node2&#45;&gt;Node1</title>
<path fill="none" stroke="midnightblue" d="M637.326,-675.71C646.142,-672.842 655.502,-669.534 664,-666 693.55,-653.713 702.215,-651.956 728,-633 753.934,-613.935 779.225,-586.125 793.676,-569.093"/>
<polygon fill="midnightblue" stroke="midnightblue" points="636.165,-672.407 627.68,-678.751 638.269,-679.083 636.165,-672.407"/>
</g>
<!-- Node3 -->
<g id="node3" class="node"><title>Node3</title>
<g id="a_node3"><a xlink:href="../../d0/d0e/classmars_1_1data__broker_1_1_receiver_interface.html" target="_top" xlink:title="Interface for classes that want to receive data from the DataBroker. ">
<polygon fill="white" stroke="black" points="550.5,-627 550.5,-657 651.5,-657 651.5,-627 550.5,-627"/>
<text text-anchor="start" x="558.5" y="-645" font-family="Helvetica,sans-Serif" font-size="10.00">mars::data_broker::</text>
<text text-anchor="middle" x="601" y="-634" font-family="Helvetica,sans-Serif" font-size="10.00">ReceiverInterface</text>
</a>
</g>
</g>
<!-- Node3&#45;&gt;Node1 -->
<g id="edge2" class="edge"><title>Node3&#45;&gt;Node1</title>
<path fill="none" stroke="midnightblue" d="M661.726,-632.945C683.258,-628.356 707.33,-621.644 728,-612 751.55,-601.012 774.993,-582.255 789.935,-569.052"/>
<polygon fill="midnightblue" stroke="midnightblue" points="660.819,-629.557 651.71,-634.968 662.205,-636.419 660.819,-629.557"/>
</g>
<!-- Node4 -->
<g id="node4" class="node"><title>Node4</title>
<g id="a_node4"><a xlink:href="../../dd/d38/classmars_1_1main__gui_1_1_property_callback.html" target="_top" xlink:title="Introduced for Windows compatibility. ">
<polygon fill="white" stroke="black" points="283,-576 283,-606 409,-606 409,-576 283,-576"/>
<text text-anchor="start" x="291" y="-594" font-family="Helvetica,sans-Serif" font-size="10.00">mars::main_gui::Property</text>
<text text-anchor="middle" x="346" y="-583" font-family="Helvetica,sans-Serif" font-size="10.00">Callback</text>
</a>
</g>
</g>
<!-- Node4&#45;&gt;Node1 -->
<g id="edge3" class="edge"><title>Node4&#45;&gt;Node1</title>
<path fill="none" stroke="midnightblue" d="M419.339,-588.092C450.337,-586.841 486.945,-585.357 520,-584 584.002,-581.372 600.208,-583.8 664,-578 692.606,-575.399 699.665,-573.714 728,-569 733.713,-568.05 739.651,-567.007 745.587,-565.929"/>
<polygon fill="midnightblue" stroke="midnightblue" points="418.907,-584.607 409.056,-588.507 419.189,-591.601 418.907,-584.607"/>
</g>
<!-- Node7 -->
<g id="node7" class="node"><title>Node7</title>
<g id="a_node7"><a xlink:href="../../de/d11/classmars_1_1main__gui_1_1_property_dialog.html" target="_top" xlink:title="The PropertyDialog provides the QtProperty functionality. ">
<polygon fill="white" stroke="black" points="538,-539 538,-569 664,-569 664,-539 538,-539"/>
<text text-anchor="start" x="546" y="-557" font-family="Helvetica,sans-Serif" font-size="10.00">mars::main_gui::Property</text>
<text text-anchor="middle" x="601" y="-546" font-family="Helvetica,sans-Serif" font-size="10.00">Dialog</text>
</a>
</g>
</g>
<!-- Node4&#45;&gt;Node7 -->
<g id="edge8" class="edge"><title>Node4&#45;&gt;Node7</title>
<path fill="none" stroke="#9a32cd" stroke-dasharray="5,2" d="M419.27,-576.781C426.932,-575.431 434.618,-574.142 442,-573 473.536,-568.122 508.777,-563.778 537.961,-560.479"/>
<polygon fill="#9a32cd" stroke="#9a32cd" points="418.463,-573.37 409.24,-578.584 419.701,-580.259 418.463,-573.37"/>
<text text-anchor="middle" x="481" y="-576" font-family="Helvetica,sans-Serif" font-size="10.00"> propertyCallback</text>
</g>
<!-- Node5 -->
<g id="node5" class="node"><title>Node5</title>
<g id="a_node5"><a xlink:href="../../da/d29/structmars_1_1gui_1_1node__data.html" target="_top" xlink:title="mars::gui::node_data">
<polygon fill="white" stroke="black" points="547,-500.5 547,-519.5 655,-519.5 655,-500.5 547,-500.5"/>
<text text-anchor="middle" x="601" y="-507.5" font-family="Helvetica,sans-Serif" font-size="10.00">mars::gui::node_data</text>
</a>
</g>
</g>
<!-- Node5&#45;&gt;Node1 -->
<g id="edge4" class="edge"><title>Node5&#45;&gt;Node1</title>
<path fill="none" stroke="#9a32cd" stroke-dasharray="5,2" d="M656.156,-521.681C683.803,-527.644 717.514,-534.915 745.955,-541.049"/>
<polygon fill="#9a32cd" stroke="#9a32cd" points="656.778,-518.234 646.265,-519.547 655.302,-525.077 656.778,-518.234"/>
<text text-anchor="middle" x="705" y="-538" font-family="Helvetica,sans-Serif" font-size="10.00"> data</text>
</g>
<!-- Node6 -->
<g id="node6" class="node"><title>Node6</title>
<g id="a_node6"><a xlink:href="../../d9/d68/classmars_1_1data__broker_1_1_data_package_mapping.html" target="_top" xlink:title="A DataPackageMapping can be used by a Receiver &#160;to more conveniently retrieve values from a DataPacka...">
<polygon fill="white" stroke="black" points="544.5,-451 544.5,-481 657.5,-481 657.5,-451 544.5,-451"/>
<text text-anchor="start" x="552.5" y="-469" font-family="Helvetica,sans-Serif" font-size="10.00">mars::data_broker::</text>
<text text-anchor="middle" x="601" y="-458" font-family="Helvetica,sans-Serif" font-size="10.00">DataPackageMapping</text>
</a>
</g>
</g>
<!-- Node6&#45;&gt;Node1 -->
<g id="edge5" class="edge"><title>Node6&#45;&gt;Node1</title>
<path fill="none" stroke="#9a32cd" stroke-dasharray="5,2" d="M656.285,-484.541C678.742,-492.65 704.885,-502.664 728,-513 745.457,-520.806 764.463,-530.764 779.343,-538.912"/>
<polygon fill="#9a32cd" stroke="#9a32cd" points="657.173,-481.142 646.579,-481.071 654.817,-487.733 657.173,-481.142"/>
<text text-anchor="middle" x="705" y="-516" font-family="Helvetica,sans-Serif" font-size="10.00"> dbMapper</text>
</g>
<!-- Node7&#45;&gt;Node1 -->
<g id="edge6" class="edge"><title>Node7&#45;&gt;Node1</title>
<path fill="none" stroke="#9a32cd" stroke-dasharray="5,2" d="M674.242,-554C697.605,-554 723.251,-554 745.658,-554"/>
<polygon fill="#9a32cd" stroke="#9a32cd" points="674.038,-550.5 664.038,-554 674.038,-557.5 674.038,-550.5"/>
<text text-anchor="middle" x="705" y="-557" font-family="Helvetica,sans-Serif" font-size="10.00"> pDialog</text>
</g>
<!-- Node8 -->
<g id="node8" class="node"><title>Node8</title>
<polygon fill="white" stroke="#bfbfbf" points="320,-529.5 320,-548.5 372,-548.5 372,-529.5 320,-529.5"/>
<text text-anchor="middle" x="346" y="-536.5" font-family="Helvetica,sans-Serif" font-size="10.00">QDialog</text>
</g>
<!-- Node8&#45;&gt;Node7 -->
<g id="edge7" class="edge"><title>Node8&#45;&gt;Node7</title>
<path fill="none" stroke="midnightblue" d="M382.302,-541.093C422.507,-543.477 488.948,-547.416 537.874,-550.317"/>
<polygon fill="midnightblue" stroke="midnightblue" points="382.373,-537.591 372.184,-540.493 381.959,-544.579 382.373,-537.591"/>
</g>
<!-- Node9 -->
<g id="node9" class="node"><title>Node9</title>
<g id="a_node9"><a xlink:href="../../d7/d4e/classmars_1_1interfaces_1_1_control_center.html" target="_top" xlink:title="The declaration of the ControlCenter. ">
<polygon fill="white" stroke="black" points="538.5,-259 538.5,-289 663.5,-289 663.5,-259 538.5,-259"/>
<text text-anchor="start" x="546.5" y="-277" font-family="Helvetica,sans-Serif" font-size="10.00">mars::interfaces::Control</text>
<text text-anchor="middle" x="601" y="-266" font-family="Helvetica,sans-Serif" font-size="10.00">Center</text>
</a>
</g>
</g>
<!-- Node9&#45;&gt;Node1 -->
<g id="edge9" class="edge"><title>Node9&#45;&gt;Node1</title>
<path fill="none" stroke="#9a32cd" stroke-dasharray="5,2" d="M618.93,-297.237C659.477,-352.89 761.282,-492.623 794.978,-538.872"/>
<polygon fill="#9a32cd" stroke="#9a32cd" points="621.685,-295.075 612.968,-289.054 616.028,-299.197 621.685,-295.075"/>
<text text-anchor="middle" x="705" y="-443" font-family="Helvetica,sans-Serif" font-size="10.00"> control</text>
</g>
<!-- Node10 -->
<g id="node10" class="node"><title>Node10</title>
<g id="a_node10"><a xlink:href="../../d1/d93/classmars_1_1interfaces_1_1_graphics_manager_interface.html" target="_top" xlink:title="mars::interfaces::Graphics\lManagerInterface">
<polygon fill="white" stroke="black" points="280,-480 280,-510 412,-510 412,-480 280,-480"/>
<text text-anchor="start" x="288" y="-498" font-family="Helvetica,sans-Serif" font-size="10.00">mars::interfaces::Graphics</text>
<text text-anchor="middle" x="346" y="-487" font-family="Helvetica,sans-Serif" font-size="10.00">ManagerInterface</text>
</a>
</g>
</g>
<!-- Node10&#45;&gt;Node9 -->
<g id="edge10" class="edge"><title>Node10&#45;&gt;Node9</title>
<path fill="none" stroke="#9a32cd" stroke-dasharray="5,2" d="M422.48,-489.362C455.533,-483.509 492.879,-471.888 520,-449 571.06,-405.91 591.167,-323.337 597.52,-289.273"/>
<polygon fill="#9a32cd" stroke="#9a32cd" points="421.687,-485.944 412.376,-490.999 422.807,-492.854 421.687,-485.944"/>
<text text-anchor="middle" x="481" y="-487" font-family="Helvetica,sans-Serif" font-size="10.00"> graphics</text>
</g>
<!-- Node11 -->
<g id="node11" class="node"><title>Node11</title>
<polygon fill="white" stroke="#bfbfbf" points="47,-436.5 47,-455.5 115,-455.5 115,-436.5 47,-436.5"/>
<text text-anchor="middle" x="81" y="-443.5" font-family="Helvetica,sans-Serif" font-size="10.00">LibInterface</text>
</g>
<!-- Node11&#45;&gt;Node10 -->
<g id="edge11" class="edge"><title>Node11&#45;&gt;Node10</title>
<path fill="none" stroke="midnightblue" d="M124.956,-454.003C166.98,-461.833 231.535,-473.86 279.873,-482.866"/>
<polygon fill="midnightblue" stroke="midnightblue" points="125.515,-450.547 115.043,-452.156 124.233,-457.429 125.515,-450.547"/>
</g>
<!-- Node15 -->
<g id="node15" class="node"><title>Node15</title>
<g id="a_node15"><a xlink:href="../../d4/da6/classmars_1_1cfg__manager_1_1_c_f_g_manager_interface.html" target="_top" xlink:title="mars::cfg_manager::\lCFGManagerInterface">
<polygon fill="white" stroke="black" points="289.5,-431 289.5,-461 402.5,-461 402.5,-431 289.5,-431"/>
<text text-anchor="start" x="297.5" y="-449" font-family="Helvetica,sans-Serif" font-size="10.00">mars::cfg_manager::</text>
<text text-anchor="middle" x="346" y="-438" font-family="Helvetica,sans-Serif" font-size="10.00">CFGManagerInterface</text>
</a>
</g>
</g>
<!-- Node11&#45;&gt;Node15 -->
<g id="edge16" class="edge"><title>Node11&#45;&gt;Node15</title>
<path fill="none" stroke="midnightblue" d="M125.318,-446C170.178,-446 240.43,-446 289.371,-446"/>
<polygon fill="midnightblue" stroke="midnightblue" points="125.043,-442.5 115.043,-446 125.043,-449.5 125.043,-442.5"/>
</g>
<!-- Node16 -->
<g id="node16" class="node"><title>Node16</title>
<g id="a_node16"><a xlink:href="../../d6/d2e/classmars_1_1data__broker_1_1_data_broker_interface.html" target="_top" xlink:title="The interface every DataBroker should implement. ">
<polygon fill="white" stroke="black" points="294,-382 294,-412 398,-412 398,-382 294,-382"/>
<text text-anchor="start" x="302" y="-400" font-family="Helvetica,sans-Serif" font-size="10.00">mars::data_broker::</text>
<text text-anchor="middle" x="346" y="-389" font-family="Helvetica,sans-Serif" font-size="10.00">DataBrokerInterface</text>
</a>
</g>
</g>
<!-- Node11&#45;&gt;Node16 -->
<g id="edge18" class="edge"><title>Node11&#45;&gt;Node16</title>
<path fill="none" stroke="midnightblue" d="M125.041,-437.981C171.26,-429.37 244.664,-415.694 293.812,-406.537"/>
<polygon fill="midnightblue" stroke="midnightblue" points="124.233,-434.571 115.043,-439.844 125.515,-441.453 124.233,-434.571"/>
</g>
<!-- Node12 -->
<g id="node12" class="node"><title>Node12</title>
<g id="a_node12"><a xlink:href="../../d2/da9/classmars_1_1interfaces_1_1_controller_manager_interface.html" target="_top" xlink:title="&quot;ControllerManagerInterface&quot; declares the interfaces for all controller operations that are used for ...">
<polygon fill="white" stroke="black" points="278.5,-333 278.5,-363 413.5,-363 413.5,-333 278.5,-333"/>
<text text-anchor="start" x="286.5" y="-351" font-family="Helvetica,sans-Serif" font-size="10.00">mars::interfaces::Controller</text>
<text text-anchor="middle" x="346" y="-340" font-family="Helvetica,sans-Serif" font-size="10.00">ManagerInterface</text>
</a>
</g>
</g>
<!-- Node12&#45;&gt;Node9 -->
<g id="edge12" class="edge"><title>Node12&#45;&gt;Node9</title>
<path fill="none" stroke="#9a32cd" stroke-dasharray="5,2" d="M423.741,-331.122C453.976,-323.903 488.853,-314.862 520,-305 534.626,-300.369 550.433,-294.446 564.104,-289.021"/>
<polygon fill="#9a32cd" stroke="#9a32cd" points="422.605,-327.794 413.678,-333.5 424.215,-334.607 422.605,-327.794"/>
<text text-anchor="middle" x="481" y="-330" font-family="Helvetica,sans-Serif" font-size="10.00"> controllers</text>
</g>
<!-- Node13 -->
<g id="node13" class="node"><title>Node13</title>
<g id="a_node13"><a xlink:href="../../d6/d60/classmars_1_1interfaces_1_1_joint_manager_interface.html" target="_top" xlink:title="Interface class for the node organization. ">
<polygon fill="white" stroke="black" points="270,-284 270,-314 422,-314 422,-284 270,-284"/>
<text text-anchor="start" x="278" y="-302" font-family="Helvetica,sans-Serif" font-size="10.00">mars::interfaces::JointManager</text>
<text text-anchor="middle" x="346" y="-291" font-family="Helvetica,sans-Serif" font-size="10.00">Interface</text>
</a>
</g>
</g>
<!-- Node13&#45;&gt;Node9 -->
<g id="edge13" class="edge"><title>Node13&#45;&gt;Node9</title>
<path fill="none" stroke="#9a32cd" stroke-dasharray="5,2" d="M432.354,-290.566C467.061,-287.136 506.406,-283.248 538.253,-280.101"/>
<polygon fill="#9a32cd" stroke="#9a32cd" points="431.831,-287.1 422.223,-291.567 432.519,-294.066 431.831,-287.1"/>
<text text-anchor="middle" x="481" y="-293" font-family="Helvetica,sans-Serif" font-size="10.00"> joints</text>
</g>
<!-- Node14 -->
<g id="node14" class="node"><title>Node14</title>
<g id="a_node14"><a xlink:href="../../df/d82/classmars_1_1interfaces_1_1_entity_manager_interface.html" target="_top" xlink:title="mars::interfaces::Entity\lManagerInterface">
<polygon fill="white" stroke="black" points="286.5,-235 286.5,-265 405.5,-265 405.5,-235 286.5,-235"/>
<text text-anchor="start" x="294.5" y="-253" font-family="Helvetica,sans-Serif" font-size="10.00">mars::interfaces::Entity</text>
<text text-anchor="middle" x="346" y="-242" font-family="Helvetica,sans-Serif" font-size="10.00">ManagerInterface</text>
</a>
</g>
</g>
<!-- Node14&#45;&gt;Node9 -->
<g id="edge14" class="edge"><title>Node14&#45;&gt;Node9</title>
<path fill="none" stroke="#9a32cd" stroke-dasharray="5,2" d="M415.92,-256.255C447.625,-259.164 485.728,-262.702 520,-266 525.974,-266.575 532.199,-267.183 538.421,-267.795"/>
<polygon fill="#9a32cd" stroke="#9a32cd" points="416.141,-252.761 405.863,-255.335 415.503,-259.732 416.141,-252.761"/>
<text text-anchor="middle" x="481" y="-269" font-family="Helvetica,sans-Serif" font-size="10.00"> entities</text>
</g>
<!-- Node15&#45;&gt;Node9 -->
<g id="edge15" class="edge"><title>Node15&#45;&gt;Node9</title>
<path fill="none" stroke="#9a32cd" stroke-dasharray="5,2" d="M412.583,-440.6C447.223,-435.031 488.882,-423.764 520,-401 559.96,-371.768 584.672,-315.97 594.758,-289.143"/>
<polygon fill="#9a32cd" stroke="#9a32cd" points="411.925,-437.159 402.546,-442.087 412.952,-444.083 411.925,-437.159"/>
<text text-anchor="middle" x="481" y="-437" font-family="Helvetica,sans-Serif" font-size="10.00"> cfg</text>
</g>
<!-- Node16&#45;&gt;Node9 -->
<g id="edge17" class="edge"><title>Node16&#45;&gt;Node9</title>
<path fill="none" stroke="#9a32cd" stroke-dasharray="5,2" d="M408.243,-383.857C442.472,-374.987 485.128,-361.33 520,-342 545.668,-327.772 570.692,-304.544 585.73,-289.265"/>
<polygon fill="#9a32cd" stroke="#9a32cd" points="407.21,-380.508 398.368,-386.345 408.92,-387.296 407.21,-380.508"/>
<text text-anchor="middle" x="481" y="-389" font-family="Helvetica,sans-Serif" font-size="10.00"> dataBroker</text>
<text text-anchor="middle" x="481" y="-378" font-family="Helvetica,sans-Serif" font-size="10.00">theDataBroker</text>
</g>
<!-- Node17 -->
<g id="node17" class="node"><title>Node17</title>
<g id="a_node17"><a xlink:href="../../db/da9/classmars_1_1interfaces_1_1_sensor_manager_interface.html" target="_top" xlink:title="&quot;SensorManagerInterface&quot; declares the interfaces for all sensor operations that are used for the comm...">
<polygon fill="white" stroke="black" points="284,-186 284,-216 408,-216 408,-186 284,-186"/>
<text text-anchor="start" x="292" y="-204" font-family="Helvetica,sans-Serif" font-size="10.00">mars::interfaces::Sensor</text>
<text text-anchor="middle" x="346" y="-193" font-family="Helvetica,sans-Serif" font-size="10.00">ManagerInterface</text>
</a>
</g>
</g>
<!-- Node17&#45;&gt;Node9 -->
<g id="edge19" class="edge"><title>Node17&#45;&gt;Node9</title>
<path fill="none" stroke="#9a32cd" stroke-dasharray="5,2" d="M418.305,-216.771C449.72,-224.22 486.93,-233.727 520,-244 534.024,-248.356 549.165,-253.83 562.463,-258.905"/>
<polygon fill="#9a32cd" stroke="#9a32cd" points="418.857,-213.306 408.322,-214.427 417.257,-220.12 418.857,-213.306"/>
<text text-anchor="middle" x="481" y="-247" font-family="Helvetica,sans-Serif" font-size="10.00"> sensors</text>
</g>
<!-- Node18 -->
<g id="node18" class="node"><title>Node18</title>
<g id="a_node18"><a xlink:href="../../db/de9/classmars_1_1interfaces_1_1_motor_manager_interface.html" target="_top" xlink:title="&quot;MotorManagerInterface&quot; declares the interfaces for all motor operations that are used for the commun...">
<polygon fill="white" stroke="black" points="268.5,-137 268.5,-167 423.5,-167 423.5,-137 268.5,-137"/>
<text text-anchor="start" x="276.5" y="-155" font-family="Helvetica,sans-Serif" font-size="10.00">mars::interfaces::MotorManager</text>
<text text-anchor="middle" x="346" y="-144" font-family="Helvetica,sans-Serif" font-size="10.00">Interface</text>
</a>
</g>
</g>
<!-- Node18&#45;&gt;Node9 -->
<g id="edge20" class="edge"><title>Node18&#45;&gt;Node9</title>
<path fill="none" stroke="#9a32cd" stroke-dasharray="5,2" d="M421.467,-169.859C452.997,-179.089 489.43,-192.032 520,-209 544.722,-222.722 569.401,-244.266 584.674,-258.749"/>
<polygon fill="#9a32cd" stroke="#9a32cd" points="422.428,-166.493 411.851,-167.113 420.506,-173.224 422.428,-166.493"/>
<text text-anchor="middle" x="481" y="-212" font-family="Helvetica,sans-Serif" font-size="10.00"> motors</text>
</g>
<!-- Node19 -->
<g id="node19" class="node"><title>Node19</title>
<g id="a_node19"><a xlink:href="../../d9/d6a/classmars_1_1interfaces_1_1_load_center.html" target="_top" xlink:title="mars::interfaces::LoadCenter">
<polygon fill="white" stroke="black" points="274.5,-98.5 274.5,-117.5 417.5,-117.5 417.5,-98.5 274.5,-98.5"/>
<text text-anchor="middle" x="346" y="-105.5" font-family="Helvetica,sans-Serif" font-size="10.00">mars::interfaces::LoadCenter</text>
</a>
</g>
</g>
<!-- Node19&#45;&gt;Node9 -->
<g id="edge21" class="edge"><title>Node19&#45;&gt;Node9</title>
<path fill="none" stroke="#9a32cd" stroke-dasharray="5,2" d="M423.074,-119.807C455.379,-127.687 491.968,-140.686 520,-162 555,-188.611 581.015,-234.828 592.881,-258.72"/>
<polygon fill="#9a32cd" stroke="#9a32cd" points="423.732,-116.367 413.201,-117.522 422.154,-123.187 423.732,-116.367"/>
<text text-anchor="middle" x="481" y="-165" font-family="Helvetica,sans-Serif" font-size="10.00"> loadCenter</text>
</g>
<!-- Node20 -->
<g id="node20" class="node"><title>Node20</title>
<g id="a_node20"><a xlink:href="../../d1/d51/classmars_1_1interfaces_1_1_load_heightmap_interface.html" target="_top" xlink:title="mars::interfaces::LoadHeightmap\lInterface">
<polygon fill="white" stroke="black" points="0.5,-118 0.5,-148 161.5,-148 161.5,-118 0.5,-118"/>
<text text-anchor="start" x="8.5" y="-136" font-family="Helvetica,sans-Serif" font-size="10.00">mars::interfaces::LoadHeightmap</text>
<text text-anchor="middle" x="81" y="-125" font-family="Helvetica,sans-Serif" font-size="10.00">Interface</text>
</a>
</g>
</g>
<!-- Node20&#45;&gt;Node19 -->
<g id="edge22" class="edge"><title>Node20&#45;&gt;Node19</title>
<path fill="none" stroke="#9a32cd" stroke-dasharray="5,2" d="M171.85,-124.459C205.256,-121.284 242.661,-117.728 274.133,-114.736"/>
<polygon fill="#9a32cd" stroke="#9a32cd" points="171.246,-121.001 161.622,-125.431 171.909,-127.969 171.246,-121.001"/>
<text text-anchor="middle" x="215" y="-127" font-family="Helvetica,sans-Serif" font-size="10.00"> loadHeightmap</text>
</g>
<!-- Node21 -->
<g id="node21" class="node"><title>Node21</title>
<g id="a_node21"><a xlink:href="../../d7/d02/classmars_1_1interfaces_1_1_load_mesh_interface.html" target="_top" xlink:title="mars::interfaces::LoadMesh\lInterface">
<polygon fill="white" stroke="black" points="12,-69 12,-99 150,-99 150,-69 12,-69"/>
<text text-anchor="start" x="20" y="-87" font-family="Helvetica,sans-Serif" font-size="10.00">mars::interfaces::LoadMesh</text>
<text text-anchor="middle" x="81" y="-76" font-family="Helvetica,sans-Serif" font-size="10.00">Interface</text>
</a>
</g>
</g>
<!-- Node21&#45;&gt;Node19 -->
<g id="edge23" class="edge"><title>Node21&#45;&gt;Node19</title>
<path fill="none" stroke="#9a32cd" stroke-dasharray="5,2" d="M160.116,-91.1285C196.387,-94.4383 239.183,-98.3437 274.462,-101.563"/>
<polygon fill="#9a32cd" stroke="#9a32cd" points="160.348,-87.6352 150.071,-90.2118 159.712,-94.6062 160.348,-87.6352"/>
<text text-anchor="middle" x="215" y="-102" font-family="Helvetica,sans-Serif" font-size="10.00"> loadMesh</text>
</g>
<!-- Node22 -->
<g id="node22" class="node"><title>Node22</title>
<g id="a_node22"><a xlink:href="../../d7/d4c/classmars_1_1interfaces_1_1_node_manager_interface.html" target="_top" xlink:title="&quot;NodeManagerInterface&quot; declares the interfaces for all NodeOperations that are used for the communica...">
<polygon fill="white" stroke="black" points="269,-49 269,-79 423,-79 423,-49 269,-49"/>
<text text-anchor="start" x="277" y="-67" font-family="Helvetica,sans-Serif" font-size="10.00">mars::interfaces::NodeManager</text>
<text text-anchor="middle" x="346" y="-56" font-family="Helvetica,sans-Serif" font-size="10.00">Interface</text>
</a>
</g>
</g>
<!-- Node22&#45;&gt;Node9 -->
<g id="edge24" class="edge"><title>Node22&#45;&gt;Node9</title>
<path fill="none" stroke="#9a32cd" stroke-dasharray="5,2" d="M433.333,-72.7192C463.379,-79.3376 495.629,-90.8893 520,-111 568.142,-150.726 589.671,-226.508 596.955,-258.808"/>
<polygon fill="#9a32cd" stroke="#9a32cd" points="433.741,-69.2303 423.243,-70.6586 432.34,-76.0888 433.741,-69.2303"/>
<text text-anchor="middle" x="481" y="-114" font-family="Helvetica,sans-Serif" font-size="10.00"> nodes</text>
</g>
<!-- Node23 -->
<g id="node23" class="node"><title>Node23</title>
<g id="a_node23"><a xlink:href="../../dc/de5/classmars_1_1interfaces_1_1_simulator_interface.html" target="_top" xlink:title="mars::interfaces::Simulator\lInterface">
<polygon fill="white" stroke="black" points="279,-0 279,-30 413,-30 413,-0 279,-0"/>
<text text-anchor="start" x="287" y="-18" font-family="Helvetica,sans-Serif" font-size="10.00">mars::interfaces::Simulator</text>
<text text-anchor="middle" x="346" y="-7" font-family="Helvetica,sans-Serif" font-size="10.00">Interface</text>
</a>
</g>
</g>
<!-- Node23&#45;&gt;Node9 -->
<g id="edge25" class="edge"><title>Node23&#45;&gt;Node9</title>
<path fill="none" stroke="#9a32cd" stroke-dasharray="5,2" d="M423.227,-19.7836C456.432,-25.4622 493.691,-37.1842 520,-61 580.18,-115.477 595.294,-219.746 598.914,-258.764"/>
<polygon fill="#9a32cd" stroke="#9a32cd" points="423.487,-16.2821 413.068,-18.2086 422.414,-23.1995 423.487,-16.2821"/>
<text text-anchor="middle" x="481" y="-64" font-family="Helvetica,sans-Serif" font-size="10.00"> sim</text>
</g>
</g>
</svg>
