<?xml version="1.0" encoding="UTF-8" standalone="no"?>
<!DOCTYPE svg PUBLIC "-//W3C//DTD SVG 1.1//EN"
 "http://www.w3.org/Graphics/SVG/1.1/DTD/svg11.dtd">
<!-- Generated by graphviz version 2.26.3 (20100126.1600)
 -->
<!-- Title: data_broker_plotter::DataBrokerPlotterLib Pages: 1 -->
<svg width="468pt" height="292pt"
 viewBox="0.00 0.00 468.00 292.00" xmlns="http://www.w3.org/2000/svg" xmlns:xlink="http://www.w3.org/1999/xlink">
<g id="graph1" class="graph" transform="scale(1 1) rotate(0) translate(4 288)">
<title>data_broker_plotter::DataBrokerPlotterLib</title>
<polygon fill="white" stroke="white" points="-4,5 -4,-288 465,-288 465,5 -4,5"/>
<!-- Node1 -->
<g id="node1" class="node"><title>Node1</title>
<polygon fill="#bfbfbf" stroke="black" points="346.5,-120 346.5,-154 459.5,-154 459.5,-120 346.5,-120"/>
<text text-anchor="start" x="354.5" y="-141" font-family="Helvetica,sans-Serif" font-size="10.00">data_broker_plotter</text>
<text text-anchor="middle" x="403" y="-128" font-family="Helvetica,sans-Serif" font-size="10.00">::DataBrokerPlotterLib</text>
</g>
<!-- Node2 -->
<g id="node2" class="node"><title>Node2</title>
<polygon fill="white" stroke="#bfbfbf" points="155.5,-262.5 155.5,-283.5 208.5,-283.5 208.5,-262.5 155.5,-262.5"/>
<text text-anchor="middle" x="182" y="-270.5" font-family="Helvetica,sans-Serif" font-size="10.00">QObject</text>
</g>
<!-- Node2&#45;&gt;Node1 -->
<g id="edge2" class="edge"><title>Node2&#45;&gt;Node1</title>
<path fill="none" stroke="midnightblue" d="M218.829,-274.463C250.209,-273.995 295.289,-269.109 328,-248 363.37,-225.174 386.217,-179.138 396.568,-154.122"/>
<polygon fill="midnightblue" stroke="midnightblue" points="218.747,-270.963 208.749,-274.469 218.752,-277.963 218.747,-270.963"/>
</g>
<!-- Node3 -->
<g id="node4" class="node"><title>Node3</title>
<polygon fill="white" stroke="#bfbfbf" points="0,-149.5 0,-170.5 68,-170.5 68,-149.5 0,-149.5"/>
<text text-anchor="middle" x="34" y="-157.5" font-family="Helvetica,sans-Serif" font-size="10.00">LibInterface</text>
</g>
<!-- Node3&#45;&gt;Node1 -->
<g id="edge4" class="edge"><title>Node3&#45;&gt;Node1</title>
<path fill="none" stroke="midnightblue" d="M50.5583,-177.809C64.0386,-190.913 84.3268,-207.669 106,-215 169.994,-236.646 191.991,-229.372 258,-215 305.202,-204.722 353.275,-174.022 380.497,-154.342"/>
<polygon fill="midnightblue" stroke="midnightblue" points="52.9673,-175.268 43.4489,-170.615 47.9881,-180.188 52.9673,-175.268"/>
</g>
<!-- Node5 -->
<g id="node8" class="node"><title>Node5</title>
<a xlink:href="../../d4/da6/classmars_1_1cfg__manager_1_1_c_f_g_manager_interface.html" target="_top" xlink:title="mars::cfg_manager::\lCFGManagerInterface">
<polygon fill="white" stroke="black" points="125.5,-172 125.5,-206 238.5,-206 238.5,-172 125.5,-172"/>
<text text-anchor="start" x="133.5" y="-193" font-family="Helvetica,sans-Serif" font-size="10.00">mars::cfg_manager::</text>
<text text-anchor="middle" x="182" y="-180" font-family="Helvetica,sans-Serif" font-size="10.00">CFGManagerInterface</text>
</a>
</g>
<!-- Node3&#45;&gt;Node5 -->
<g id="edge10" class="edge"><title>Node3&#45;&gt;Node5</title>
<path fill="none" stroke="midnightblue" d="M78.2138,-168.664C92.9877,-171.558 109.663,-174.826 125.255,-177.881"/>
<polygon fill="midnightblue" stroke="midnightblue" points="78.8126,-165.214 68.3262,-166.726 77.4665,-172.084 78.8126,-165.214"/>
</g>
<!-- Node6 -->
<g id="node11" class="node"><title>Node6</title>
<a xlink:href="../../d6/d2e/classmars_1_1data__broker_1_1_data_broker_interface.html" target="_top" xlink:title="The interface every DataBroker should implement. ">
<polygon fill="white" stroke="black" points="130,-120 130,-154 234,-154 234,-120 130,-120"/>
<text text-anchor="start" x="138" y="-141" font-family="Helvetica,sans-Serif" font-size="10.00">mars::data_broker::</text>
<text text-anchor="middle" x="182" y="-128" font-family="Helvetica,sans-Serif" font-size="10.00">DataBrokerInterface</text>
</a>
</g>
<!-- Node3&#45;&gt;Node6 -->
<g id="edge14" class="edge"><title>Node3&#45;&gt;Node6</title>
<path fill="none" stroke="midnightblue" d="M78.5801,-153.072C94.7354,-150.561 113.125,-147.704 129.873,-145.101"/>
<polygon fill="midnightblue" stroke="midnightblue" points="77.6701,-149.671 68.3262,-154.666 78.7451,-156.588 77.6701,-149.671"/>
</g>
<!-- Node8 -->
<g id="node16" class="node"><title>Node8</title>
<a xlink:href="../../d7/df2/classmars_1_1main__gui_1_1_gui_interface.html" target="_top" xlink:title="The abstract GuiInterface class provides the menu and docking functionality of the GUI...">
<polygon fill="white" stroke="black" points="110.5,-80.5 110.5,-101.5 253.5,-101.5 253.5,-80.5 110.5,-80.5"/>
<text text-anchor="middle" x="182" y="-88.5" font-family="Helvetica,sans-Serif" font-size="10.00">mars::main_gui::GuiInterface</text>
</a>
</g>
<!-- Node3&#45;&gt;Node8 -->
<g id="edge20" class="edge"><title>Node3&#45;&gt;Node8</title>
<path fill="none" stroke="midnightblue" d="M54.605,-143.175C68.422,-132.622 87.4265,-119.461 106,-111 114.195,-107.267 123.215,-104.13 132.092,-101.529"/>
<polygon fill="midnightblue" stroke="midnightblue" points="52.441,-140.424 46.7225,-149.343 56.7549,-145.937 52.441,-140.424"/>
</g>
<!-- Node4 -->
<g id="node6" class="node"><title>Node4</title>
<a xlink:href="../../d3/d52/classmars_1_1main__gui_1_1_menu_interface.html" target="_top" xlink:title="Provides the menuAction function. ">
<polygon fill="white" stroke="black" points="106,-40.5 106,-61.5 258,-61.5 258,-40.5 106,-40.5"/>
<text text-anchor="middle" x="182" y="-48.5" font-family="Helvetica,sans-Serif" font-size="10.00">mars::main_gui::MenuInterface</text>
</a>
</g>
<!-- Node4&#45;&gt;Node1 -->
<g id="edge6" class="edge"><title>Node4&#45;&gt;Node1</title>
<path fill="none" stroke="midnightblue" d="M237.033,-64.2942C244.144,-66.3587 251.285,-68.6076 258,-71 297.343,-85.016 340.721,-105.46 369.686,-119.872"/>
<polygon fill="midnightblue" stroke="midnightblue" points="237.968,-60.9217 227.395,-61.5974 236.082,-67.6627 237.968,-60.9217"/>
</g>
<!-- Node5&#45;&gt;Node1 -->
<g id="edge8" class="edge"><title>Node5&#45;&gt;Node1</title>
<path fill="none" stroke="#9a32cd" stroke-dasharray="5,2" d="M248.52,-173.348C279.642,-166.025 316.328,-157.393 346.137,-150.379"/>
<polygon fill="#9a32cd" stroke="#9a32cd" points="247.559,-169.979 238.626,-175.676 249.162,-176.793 247.559,-169.979"/>
<text text-anchor="middle" x="302" y="-170" font-family="Helvetica,sans-Serif" font-size="10.00"> cfg</text>
</g>
<!-- Node6&#45;&gt;Node1 -->
<g id="edge12" class="edge"><title>Node6&#45;&gt;Node1</title>
<path fill="none" stroke="#9a32cd" stroke-dasharray="5,2" d="M244.237,-137C276.26,-137 315.015,-137 346.217,-137"/>
<polygon fill="#9a32cd" stroke="#9a32cd" points="244.094,-133.5 234.094,-137 244.094,-140.5 244.094,-133.5"/>
<text text-anchor="middle" x="302" y="-141" font-family="Helvetica,sans-Serif" font-size="10.00"> dataBroker</text>
</g>
<!-- Node7 -->
<g id="node14" class="node"><title>Node7</title>
<polygon fill="white" stroke="#bfbfbf" points="161.5,-0.5 161.5,-21.5 202.5,-21.5 202.5,-0.5 161.5,-0.5"/>
<text text-anchor="middle" x="182" y="-8.5" font-family="Helvetica,sans-Serif" font-size="10.00">string</text>
</g>
<!-- Node7&#45;&gt;Node1 -->
<g id="edge16" class="edge"><title>Node7&#45;&gt;Node1</title>
<path fill="none" stroke="#9a32cd" stroke-dasharray="5,2" d="M212.511,-16.7218C243.633,-23.6363 292.291,-37.5102 328,-62 352.146,-78.5597 375.23,-103.481 389.256,-119.989"/>
<polygon fill="#9a32cd" stroke="#9a32cd" points="213.181,-13.2862 202.673,-14.6385 211.731,-20.1343 213.181,-13.2862"/>
<text text-anchor="middle" x="302" y="-66" font-family="Helvetica,sans-Serif" font-size="10.00"> configPath</text>
</g>
<!-- Node8&#45;&gt;Node1 -->
<g id="edge18" class="edge"><title>Node8&#45;&gt;Node1</title>
<path fill="none" stroke="#9a32cd" stroke-dasharray="5,2" d="M246.722,-103.469C272.098,-108.458 301.445,-114.354 328,-120 333.877,-121.249 340.005,-122.585 346.114,-123.938"/>
<polygon fill="#9a32cd" stroke="#9a32cd" points="247.329,-100.021 236.842,-101.532 245.982,-106.89 247.329,-100.021"/>
<text text-anchor="middle" x="302" y="-124" font-family="Helvetica,sans-Serif" font-size="10.00"> gui</text>
</g>
</g>
</svg>
