<?xml version="1.0" encoding="UTF-8" standalone="no"?>
<!DOCTYPE svg PUBLIC "-//W3C//DTD SVG 1.1//EN"
 "http://www.w3.org/Graphics/SVG/1.1/DTD/svg11.dtd">
<!-- Generated by graphviz version 2.36.0 (20140111.2315)
 -->
<!-- Title: data_broker_plotter::DataBrokerPlotterLib Pages: 1 -->
<svg width="468pt" height="279pt"
 viewBox="0.00 0.00 468.00 279.00" xmlns="http://www.w3.org/2000/svg" xmlns:xlink="http://www.w3.org/1999/xlink">
<g id="graph0" class="graph" transform="scale(1 1) rotate(0) translate(4 275)">
<title>data_broker_plotter::DataBrokerPlotterLib</title>
<polygon fill="white" stroke="none" points="-4,4 -4,-275 464,-275 464,4 -4,4"/>
<!-- Node1 -->
<g id="node1" class="node"><title>Node1</title>
<polygon fill="#bfbfbf" stroke="black" points="346.5,-115 346.5,-145 459.5,-145 459.5,-115 346.5,-115"/>
<text text-anchor="start" x="354.5" y="-133" font-family="Helvetica,sans-Serif" font-size="10.00">data_broker_plotter</text>
<text text-anchor="middle" x="403" y="-122" font-family="Helvetica,sans-Serif" font-size="10.00">::DataBrokerPlotterLib</text>
</g>
<!-- Node2 -->
<g id="node2" class="node"><title>Node2</title>
<polygon fill="white" stroke="#bfbfbf" points="155.5,-251.5 155.5,-270.5 208.5,-270.5 208.5,-251.5 155.5,-251.5"/>
<text text-anchor="middle" x="182" y="-258.5" font-family="Helvetica,sans-Serif" font-size="10.00">QObject</text>
</g>
<!-- Node2&#45;&gt;Node1 -->
<g id="edge1" class="edge"><title>Node2&#45;&gt;Node1</title>
<path fill="none" stroke="midnightblue" d="M219.085,-262.615C250.223,-262.334 295.226,-257.772 328,-237 363.102,-214.753 385.974,-169.21 396.062,-145.351"/>
<polygon fill="midnightblue" stroke="midnightblue" points="218.712,-259.113 208.693,-262.556 218.672,-266.113 218.712,-259.113"/>
</g>
<!-- Node3 -->
<g id="node3" class="node"><title>Node3</title>
<polygon fill="white" stroke="#bfbfbf" points="0,-141.5 0,-160.5 68,-160.5 68,-141.5 0,-141.5"/>
<text text-anchor="middle" x="34" y="-148.5" font-family="Helvetica,sans-Serif" font-size="10.00">LibInterface</text>
</g>
<!-- Node3&#45;&gt;Node1 -->
<g id="edge2" class="edge"><title>Node3&#45;&gt;Node1</title>
<path fill="none" stroke="midnightblue" d="M51.3861,-167.775C64.7552,-180.183 84.8343,-196.078 106,-203 170.209,-223.998 191.824,-216.583 258,-203 305.225,-193.307 353.995,-163.685 380.916,-145.29"/>
<polygon fill="midnightblue" stroke="midnightblue" points="53.6009,-165.048 43.9794,-160.612 48.7345,-170.08 53.6009,-165.048"/>
</g>
<!-- Node5 -->
<g id="node5" class="node"><title>Node5</title>
<g id="a_node5"><a xlink:href="../../d4/da6/classmars_1_1cfg__manager_1_1_c_f_g_manager_interface.html" target="_top" xlink:title="mars::cfg_manager::\lCFGManagerInterface">
<polygon fill="white" stroke="black" points="125.5,-164 125.5,-194 238.5,-194 238.5,-164 125.5,-164"/>
<text text-anchor="start" x="133.5" y="-182" font-family="Helvetica,sans-Serif" font-size="10.00">mars::cfg_manager::</text>
<text text-anchor="middle" x="182" y="-171" font-family="Helvetica,sans-Serif" font-size="10.00">CFGManagerInterface</text>
</a>
</g>
</g>
<!-- Node3&#45;&gt;Node5 -->
<g id="edge5" class="edge"><title>Node3&#45;&gt;Node5</title>
<path fill="none" stroke="midnightblue" d="M78.0378,-159.254C92.8656,-162.098 109.689,-165.324 125.376,-168.332"/>
<polygon fill="midnightblue" stroke="midnightblue" points="78.6099,-155.8 68.1297,-157.354 77.2914,-162.675 78.6099,-155.8"/>
</g>
<!-- Node6 -->
<g id="node6" class="node"><title>Node6</title>
<g id="a_node6"><a xlink:href="../../d6/d2e/classmars_1_1data__broker_1_1_data_broker_interface.html" target="_top" xlink:title="The interface every DataBroker should implement. ">
<polygon fill="white" stroke="black" points="130,-115 130,-145 234,-145 234,-115 130,-115"/>
<text text-anchor="start" x="138" y="-133" font-family="Helvetica,sans-Serif" font-size="10.00">mars::data_broker::</text>
<text text-anchor="middle" x="182" y="-122" font-family="Helvetica,sans-Serif" font-size="10.00">DataBrokerInterface</text>
</a>
</g>
</g>
<!-- Node3&#45;&gt;Node6 -->
<g id="edge7" class="edge"><title>Node3&#45;&gt;Node6</title>
<path fill="none" stroke="midnightblue" d="M78.3935,-144.758C94.5901,-142.429 113.128,-139.762 129.951,-137.343"/>
<polygon fill="midnightblue" stroke="midnightblue" points="77.5295,-141.347 68.1297,-146.235 78.5261,-148.275 77.5295,-141.347"/>
</g>
<!-- Node8 -->
<g id="node8" class="node"><title>Node8</title>
<g id="a_node8"><a xlink:href="../../d7/df2/classmars_1_1main__gui_1_1_gui_interface.html" target="_top" xlink:title="The abstract GuiInterface class provides the menu and docking functionality of the GUI...">
<polygon fill="white" stroke="black" points="110.5,-76.5 110.5,-95.5 253.5,-95.5 253.5,-76.5 110.5,-76.5"/>
<text text-anchor="middle" x="182" y="-83.5" font-family="Helvetica,sans-Serif" font-size="10.00">mars::main_gui::GuiInterface</text>
</a>
</g>
</g>
<!-- Node3&#45;&gt;Node8 -->
<g id="edge10" class="edge"><title>Node3&#45;&gt;Node8</title>
<path fill="none" stroke="midnightblue" d="M55.5538,-135.097C69.2068,-125.204 87.8904,-112.903 106,-105 114.618,-101.239 124.13,-98.1144 133.404,-95.5591"/>
<polygon fill="midnightblue" stroke="midnightblue" points="53.305,-132.407 47.3648,-141.18 57.4794,-138.026 53.305,-132.407"/>
</g>
<!-- Node4 -->
<g id="node4" class="node"><title>Node4</title>
<g id="a_node4"><a xlink:href="../../d3/d52/classmars_1_1main__gui_1_1_menu_interface.html" target="_top" xlink:title="Provides the menuAction function. ">
<polygon fill="white" stroke="black" points="106,-38.5 106,-57.5 258,-57.5 258,-38.5 106,-38.5"/>
<text text-anchor="middle" x="182" y="-45.5" font-family="Helvetica,sans-Serif" font-size="10.00">mars::main_gui::MenuInterface</text>
</a>
</g>
</g>
<!-- Node4&#45;&gt;Node1 -->
<g id="edge3" class="edge"><title>Node4&#45;&gt;Node1</title>
<path fill="none" stroke="midnightblue" d="M235.646,-60.1681C243.206,-62.2533 250.844,-64.5467 258,-67 298.269,-80.8048 342.932,-101.179 371.682,-114.99"/>
<polygon fill="midnightblue" stroke="midnightblue" points="236.361,-56.7368 225.798,-57.5509 234.563,-63.502 236.361,-56.7368"/>
</g>
<!-- Node5&#45;&gt;Node1 -->
<g id="edge4" class="edge"><title>Node5&#45;&gt;Node1</title>
<path fill="none" stroke="#9a32cd" stroke-dasharray="5,2" d="M248.431,-164.36C279.543,-157.399 316.352,-149.163 346.133,-142.5"/>
<polygon fill="#9a32cd" stroke="#9a32cd" points="247.541,-160.973 238.546,-166.572 249.069,-167.804 247.541,-160.973"/>
<text text-anchor="middle" x="302" y="-161" font-family="Helvetica,sans-Serif" font-size="10.00"> cfg</text>
</g>
<!-- Node6&#45;&gt;Node1 -->
<g id="edge6" class="edge"><title>Node6&#45;&gt;Node1</title>
<path fill="none" stroke="#9a32cd" stroke-dasharray="5,2" d="M244.198,-130C276.196,-130 315.075,-130 346.236,-130"/>
<polygon fill="#9a32cd" stroke="#9a32cd" points="244.069,-126.5 234.069,-130 244.069,-133.5 244.069,-126.5"/>
<text text-anchor="middle" x="302" y="-133" font-family="Helvetica,sans-Serif" font-size="10.00"> dataBroker</text>
</g>
<!-- Node7 -->
<g id="node7" class="node"><title>Node7</title>
<polygon fill="white" stroke="#bfbfbf" points="161.5,-0.5 161.5,-19.5 202.5,-19.5 202.5,-0.5 161.5,-0.5"/>
<text text-anchor="middle" x="182" y="-7.5" font-family="Helvetica,sans-Serif" font-size="10.00">string</text>
</g>
<!-- Node7&#45;&gt;Node1 -->
<g id="edge8" class="edge"><title>Node7&#45;&gt;Node1</title>
<path fill="none" stroke="#9a32cd" stroke-dasharray="5,2" d="M212.819,-15.6168C243.617,-22.4396 292.109,-36.1113 328,-60 351.702,-75.7759 374.86,-99.3953 388.784,-114.753"/>
<polygon fill="#9a32cd" stroke="#9a32cd" points="213.22,-12.1245 202.713,-13.4836 211.774,-18.9736 213.22,-12.1245"/>
<text text-anchor="middle" x="302" y="-63" font-family="Helvetica,sans-Serif" font-size="10.00"> configPath</text>
</g>
<!-- Node8&#45;&gt;Node1 -->
<g id="edge9" class="edge"><title>Node8&#45;&gt;Node1</title>
<path fill="none" stroke="#9a32cd" stroke-dasharray="5,2" d="M240.595,-97.4833C267.201,-102.797 299.212,-109.204 328,-115 333.911,-116.19 340.087,-117.437 346.243,-118.682"/>
<polygon fill="#9a32cd" stroke="#9a32cd" points="241.172,-94.0295 230.68,-95.5037 239.801,-100.894 241.172,-94.0295"/>
<text text-anchor="middle" x="302" y="-118" font-family="Helvetica,sans-Serif" font-size="10.00"> gui</text>
</g>
</g>
</svg>
