<?xml version="1.0" encoding="UTF-8" standalone="no"?>
<!DOCTYPE svg PUBLIC "-//W3C//DTD SVG 1.1//EN"
 "http://www.w3.org/Graphics/SVG/1.1/DTD/svg11.dtd">
<!-- Generated by graphviz version 2.26.3 (20100126.1600)
 -->
<!-- Title: /home/kavonszadkowski/limes&#45;dev/simulation/mars/graphics/src/shader/shader&#45;types.h Pages: 1 -->
<svg width="138pt" height="128pt"
 viewBox="0.00 0.00 138.00 128.00" xmlns="http://www.w3.org/2000/svg" xmlns:xlink="http://www.w3.org/1999/xlink">
<g id="graph1" class="graph" transform="scale(1 1) rotate(0) translate(4 124)">
<title>/home/kavonszadkowski/limes&#45;dev/simulation/mars/graphics/src/shader/shader&#45;types.h</title>
<polygon fill="white" stroke="white" points="-4,5 -4,-124 135,-124 135,5 -4,5"/>
<!-- Node1 -->
<g id="node1" class="node"><title>Node1</title>
<polygon fill="#bfbfbf" stroke="black" points="0,-59 0,-119 130,-119 130,-59 0,-59"/>
<text text-anchor="start" x="8" y="-106" font-family="Helvetica,sans-Serif" font-size="10.00">/home/kavonszadkowski</text>
<text text-anchor="start" x="8" y="-93" font-family="Helvetica,sans-Serif" font-size="10.00">/limes&#45;dev/simulation</text>
<text text-anchor="start" x="8" y="-80" font-family="Helvetica,sans-Serif" font-size="10.00">/mars/graphics/src/shader</text>
<text text-anchor="middle" x="65" y="-67" font-family="Helvetica,sans-Serif" font-size="10.00">/shader&#45;types.h</text>
</g>
<!-- Node2 -->
<g id="node3" class="node"><title>Node2</title>
<polygon fill="white" stroke="#bfbfbf" points="12.5,-0.5 12.5,-21.5 53.5,-21.5 53.5,-0.5 12.5,-0.5"/>
<text text-anchor="middle" x="33" y="-8.5" font-family="Helvetica,sans-Serif" font-size="10.00">string</text>
</g>
<!-- Node1&#45;&gt;Node2 -->
<g id="edge2" class="edge"><title>Node1&#45;&gt;Node2</title>
<path fill="none" stroke="midnightblue" d="M52.5363,-58.6198C48.7436,-49.3749 44.6717,-39.4498 41.2322,-31.0661"/>
<polygon fill="midnightblue" stroke="midnightblue" points="44.4454,-29.6767 37.4117,-21.7535 37.9692,-32.3336 44.4454,-29.6767"/>
</g>
<!-- Node3 -->
<g id="node5" class="node"><title>Node3</title>
<polygon fill="white" stroke="#bfbfbf" points="71,-0.5 71,-21.5 123,-21.5 123,-0.5 71,-0.5"/>
<text text-anchor="middle" x="97" y="-8.5" font-family="Helvetica,sans-Serif" font-size="10.00">ostream</text>
</g>
<!-- Node1&#45;&gt;Node3 -->
<g id="edge4" class="edge"><title>Node1&#45;&gt;Node3</title>
<path fill="none" stroke="midnightblue" d="M77.4637,-58.6198C81.2564,-49.3749 85.3283,-39.4498 88.7678,-31.0661"/>
<polygon fill="midnightblue" stroke="midnightblue" points="92.0308,-32.3336 92.5883,-21.7535 85.5546,-29.6767 92.0308,-32.3336"/>
</g>
</g>
</svg>
