<?xml version="1.0" encoding="UTF-8" standalone="no"?>
<!DOCTYPE svg PUBLIC "-//W3C//DTD SVG 1.1//EN"
 "http://www.w3.org/Graphics/SVG/1.1/DTD/svg11.dtd">
<!-- Generated by graphviz version 2.36.0 (20140111.2315)
 -->
<!-- Title: /media/kavonszadkowski/work/marsdocs/mars/interfaces/src/NodeData.h Pages: 1 -->
<svg width="630pt" height="162pt"
 viewBox="0.00 0.00 630.00 162.00" xmlns="http://www.w3.org/2000/svg" xmlns:xlink="http://www.w3.org/1999/xlink">
<g id="graph0" class="graph" transform="scale(1 1) rotate(0) translate(4 158)">
<title>/media/kavonszadkowski/work/marsdocs/mars/interfaces/src/NodeData.h</title>
<polygon fill="white" stroke="none" points="-4,4 -4,-158 626,-158 626,4 -4,4"/>
<!-- Node1 -->
<g id="node1" class="node"><title>Node1</title>
<polygon fill="#bfbfbf" stroke="black" points="221.5,-112.5 221.5,-153.5 378.5,-153.5 378.5,-112.5 221.5,-112.5"/>
<text text-anchor="start" x="229.5" y="-141.5" font-family="Helvetica,sans-Serif" font-size="10.00">/media/kavonszadkowski</text>
<text text-anchor="start" x="229.5" y="-130.5" font-family="Helvetica,sans-Serif" font-size="10.00">/work/marsdocs/mars/interfaces</text>
<text text-anchor="middle" x="300" y="-119.5" font-family="Helvetica,sans-Serif" font-size="10.00">/src/NodeData.h</text>
</g>
<!-- Node2 -->
<g id="node2" class="node"><title>Node2</title>
<g id="a_node2"><a xlink:href="../../d7/dc4/snmesh_8h.html" target="_top" xlink:title="snmesh.h">
<polygon fill="white" stroke="black" points="178.5,-56.5 178.5,-75.5 237.5,-75.5 237.5,-56.5 178.5,-56.5"/>
<text text-anchor="middle" x="208" y="-63.5" font-family="Helvetica,sans-Serif" font-size="10.00">snmesh.h</text>
</a>
</g>
</g>
<!-- Node1&#45;&gt;Node2 -->
<g id="edge1" class="edge"><title>Node1&#45;&gt;Node2</title>
<path fill="none" stroke="midnightblue" d="M272.397,-112.498C258.292,-102.532 241.423,-90.6142 228.49,-81.4764"/>
<polygon fill="midnightblue" stroke="midnightblue" points="230.433,-78.5643 220.247,-75.6525 226.394,-84.2814 230.433,-78.5643"/>
</g>
<!-- Node3 -->
<g id="node3" class="node"><title>Node3</title>
<g id="a_node3"><a xlink:href="../../dd/d9e/_m_a_r_s_defs_8h.html" target="_top" xlink:title="MARSDefs.h">
<polygon fill="white" stroke="black" points="-0.5,-0.5 -0.5,-19.5 74.5,-19.5 74.5,-0.5 -0.5,-0.5"/>
<text text-anchor="middle" x="37" y="-7.5" font-family="Helvetica,sans-Serif" font-size="10.00">MARSDefs.h</text>
</a>
</g>
</g>
<!-- Node1&#45;&gt;Node3 -->
<g id="edge11" class="edge"><title>Node1&#45;&gt;Node3</title>
<path fill="none" stroke="midnightblue" d="M221.342,-122.649C159.411,-113.745 79.7169,-98.3621 56,-76 43.4455,-64.1626 39.0412,-44.5341 37.5684,-29.9384"/>
<polygon fill="midnightblue" stroke="midnightblue" points="41.0364,-29.3178 36.9161,-19.557 34.0502,-29.7569 41.0364,-29.3178"/>
</g>
<!-- Node5 -->
<g id="node5" class="node"><title>Node5</title>
<g id="a_node5"><a xlink:href="../../de/d75/_material_data_8h.html" target="_top" xlink:title="MaterialData.h">
<polygon fill="white" stroke="black" points="294,-56.5 294,-75.5 374,-75.5 374,-56.5 294,-56.5"/>
<text text-anchor="middle" x="334" y="-63.5" font-family="Helvetica,sans-Serif" font-size="10.00">MaterialData.h</text>
</a>
</g>
</g>
<!-- Node1&#45;&gt;Node5 -->
<g id="edge4" class="edge"><title>Node1&#45;&gt;Node5</title>
<path fill="none" stroke="midnightblue" d="M310.201,-112.498C314.812,-103.682 320.223,-93.3385 324.719,-84.7432"/>
<polygon fill="midnightblue" stroke="midnightblue" points="327.94,-86.1357 329.474,-75.6525 321.738,-82.8912 327.94,-86.1357"/>
</g>
<!-- Node8 -->
<g id="node8" class="node"><title>Node8</title>
<g id="a_node8"><a xlink:href="../../dd/d54/contact__params_8h.html" target="_top" xlink:title="contact_params.h">
<polygon fill="white" stroke="black" points="65.5,-56.5 65.5,-75.5 160.5,-75.5 160.5,-56.5 65.5,-56.5"/>
<text text-anchor="middle" x="113" y="-63.5" font-family="Helvetica,sans-Serif" font-size="10.00">contact_params.h</text>
</a>
</g>
</g>
<!-- Node1&#45;&gt;Node8 -->
<g id="edge8" class="edge"><title>Node1&#45;&gt;Node8</title>
<path fill="none" stroke="midnightblue" d="M243.894,-112.498C212.604,-101.622 174.625,-88.4206 147.654,-79.0455"/>
<polygon fill="midnightblue" stroke="midnightblue" points="148.487,-75.6298 137.893,-75.6525 146.189,-82.2418 148.487,-75.6298"/>
</g>
<!-- Node9 -->
<g id="node9" class="node"><title>Node9</title>
<polygon fill="white" stroke="#bfbfbf" points="92.5,-0.5 92.5,-19.5 191.5,-19.5 191.5,-0.5 92.5,-0.5"/>
<text text-anchor="middle" x="142" y="-7.5" font-family="Helvetica,sans-Serif" font-size="10.00">mars/utils/Vector.h</text>
</g>
<!-- Node1&#45;&gt;Node9 -->
<g id="edge12" class="edge"><title>Node1&#45;&gt;Node9</title>
<path fill="none" stroke="midnightblue" d="M289.971,-112.228C280.572,-95.3732 265.119,-71.4834 246,-56 227.474,-40.9975 203.186,-30.1154 182.741,-22.8143"/>
<polygon fill="midnightblue" stroke="midnightblue" points="183.649,-19.4264 173.055,-19.5154 181.393,-26.0526 183.649,-19.4264"/>
</g>
<!-- Node10 -->
<g id="node10" class="node"><title>Node10</title>
<polygon fill="white" stroke="#bfbfbf" points="392,-56.5 392,-75.5 510,-75.5 510,-56.5 392,-56.5"/>
<text text-anchor="middle" x="451" y="-63.5" font-family="Helvetica,sans-Serif" font-size="10.00">mars/utils/Quaternion.h</text>
</g>
<!-- Node1&#45;&gt;Node10 -->
<g id="edge13" class="edge"><title>Node1&#45;&gt;Node10</title>
<path fill="none" stroke="midnightblue" d="M345.305,-112.498C370.014,-101.861 399.89,-89.001 421.566,-79.6705"/>
<polygon fill="midnightblue" stroke="midnightblue" points="423.098,-82.8212 430.9,-75.6525 420.331,-76.3916 423.098,-82.8212"/>
</g>
<!-- Node11 -->
<g id="node11" class="node"><title>Node11</title>
<polygon fill="white" stroke="#bfbfbf" points="528.5,-56.5 528.5,-75.5 569.5,-75.5 569.5,-56.5 528.5,-56.5"/>
<text text-anchor="middle" x="549" y="-63.5" font-family="Helvetica,sans-Serif" font-size="10.00">string</text>
</g>
<!-- Node1&#45;&gt;Node11 -->
<g id="edge14" class="edge"><title>Node1&#45;&gt;Node11</title>
<path fill="none" stroke="midnightblue" d="M378.507,-112.756C417.879,-102.908 466.497,-90.4515 518.606,-76.0253"/>
<polygon fill="midnightblue" stroke="midnightblue" points="519.679,-79.3599 528.375,-73.3088 517.803,-72.6158 519.679,-79.3599"/>
</g>
<!-- Node12 -->
<g id="node12" class="node"><title>Node12</title>
<polygon fill="white" stroke="#bfbfbf" points="587.5,-56.5 587.5,-75.5 622.5,-75.5 622.5,-56.5 587.5,-56.5"/>
<text text-anchor="middle" x="605" y="-63.5" font-family="Helvetica,sans-Serif" font-size="10.00">map</text>
</g>
<!-- Node1&#45;&gt;Node12 -->
<g id="edge15" class="edge"><title>Node1&#45;&gt;Node12</title>
<path fill="none" stroke="midnightblue" d="M378.784,-118.798C432.366,-109.2 504.957,-94.9908 577.593,-75.8312"/>
<polygon fill="midnightblue" stroke="midnightblue" points="578.616,-79.1808 587.375,-73.2205 576.811,-72.4175 578.616,-79.1808"/>
</g>
<!-- Node2&#45;&gt;Node3 -->
<g id="edge2" class="edge"><title>Node2&#45;&gt;Node3</title>
<path fill="none" stroke="midnightblue" d="M180.905,-56.4435C152.012,-47.3196 106.075,-32.8133 73.8946,-22.6509"/>
<polygon fill="midnightblue" stroke="midnightblue" points="74.5585,-19.1903 63.9687,-19.5164 72.4505,-25.8654 74.5585,-19.1903"/>
</g>
<!-- Node4 -->
<g id="node4" class="node"><title>Node4</title>
<polygon fill="white" stroke="#bfbfbf" points="210,-0.5 210,-19.5 304,-19.5 304,-0.5 210,-0.5"/>
<text text-anchor="middle" x="257" y="-7.5" font-family="Helvetica,sans-Serif" font-size="10.00">mars/utils/Color.h</text>
</g>
<!-- Node2&#45;&gt;Node4 -->
<g id="edge3" class="edge"><title>Node2&#45;&gt;Node4</title>
<path fill="none" stroke="midnightblue" d="M216.091,-56.083C223.155,-48.2982 233.588,-36.8015 242.149,-27.3665"/>
<polygon fill="midnightblue" stroke="midnightblue" points="244.931,-29.5087 249.059,-19.7511 239.747,-24.8047 244.931,-29.5087"/>
</g>
<!-- Node5&#45;&gt;Node4 -->
<g id="edge5" class="edge"><title>Node5&#45;&gt;Node4</title>
<path fill="none" stroke="midnightblue" d="M321.629,-56.324C309.842,-48.0577 291.868,-35.4527 277.864,-25.6322"/>
<polygon fill="midnightblue" stroke="midnightblue" points="279.538,-22.5307 269.341,-19.6545 275.518,-28.2619 279.538,-22.5307"/>
</g>
<!-- Node6 -->
<g id="node6" class="node"><title>Node6</title>
<polygon fill="white" stroke="#bfbfbf" points="392,-0.5 392,-19.5 520,-19.5 520,-0.5 392,-0.5"/>
<text text-anchor="middle" x="456" y="-7.5" font-family="Helvetica,sans-Serif" font-size="10.00">configmaps/ConfigData.h</text>
</g>
<!-- Node5&#45;&gt;Node6 -->
<g id="edge6" class="edge"><title>Node5&#45;&gt;Node6</title>
<path fill="none" stroke="midnightblue" d="M353.331,-56.4435C373.32,-47.5961 404.743,-33.6875 427.564,-23.5865"/>
<polygon fill="midnightblue" stroke="midnightblue" points="429.032,-26.7645 436.759,-19.5164 426.198,-20.3635 429.032,-26.7645"/>
</g>
<!-- Node7 -->
<g id="node7" class="node"><title>Node7</title>
<polygon fill="white" stroke="#bfbfbf" points="322,-0.5 322,-19.5 374,-19.5 374,-0.5 322,-0.5"/>
<text text-anchor="middle" x="348" y="-7.5" font-family="Helvetica,sans-Serif" font-size="10.00">sstream</text>
</g>
<!-- Node5&#45;&gt;Node7 -->
<g id="edge7" class="edge"><title>Node5&#45;&gt;Node7</title>
<path fill="none" stroke="midnightblue" d="M336.312,-56.083C338.167,-48.9272 340.835,-38.6353 343.154,-29.6911"/>
<polygon fill="midnightblue" stroke="midnightblue" points="346.609,-30.3094 345.731,-19.7511 339.834,-28.5527 346.609,-30.3094"/>
</g>
<!-- Node8&#45;&gt;Node3 -->
<g id="edge9" class="edge"><title>Node8&#45;&gt;Node3</title>
<path fill="none" stroke="midnightblue" d="M100.789,-56.324C89.2241,-48.1066 71.6246,-35.6017 57.8393,-25.8069"/>
<polygon fill="midnightblue" stroke="midnightblue" points="59.612,-22.7729 49.4329,-19.8339 55.5575,-28.4791 59.612,-22.7729"/>
</g>
<!-- Node8&#45;&gt;Node9 -->
<g id="edge10" class="edge"><title>Node8&#45;&gt;Node9</title>
<path fill="none" stroke="midnightblue" d="M117.789,-56.083C121.758,-48.6913 127.525,-37.9533 132.435,-28.8111"/>
<polygon fill="midnightblue" stroke="midnightblue" points="135.653,-30.217 137.3,-19.7511 129.486,-26.9051 135.653,-30.217"/>
</g>
</g>
</svg>
