<?xml version="1.0" encoding="UTF-8" standalone="no"?>
<!DOCTYPE svg PUBLIC "-//W3C//DTD SVG 1.1//EN"
 "http://www.w3.org/Graphics/SVG/1.1/DTD/svg11.dtd">
<!-- Generated by graphviz version 2.36.0 (20140111.2315)
 -->
<!-- Title: /media/kavonszadkowski/work/marsdocs/mars/entity_generation/primitives/src/primitives.h Pages: 1 -->
<svg width="623pt" height="140pt"
 viewBox="0.00 0.00 623.00 140.00" xmlns="http://www.w3.org/2000/svg" xmlns:xlink="http://www.w3.org/1999/xlink">
<g id="graph0" class="graph" transform="scale(1 1) rotate(0) translate(4 136)">
<title>/media/kavonszadkowski/work/marsdocs/mars/entity_generation/primitives/src/primitives.h</title>
<polygon fill="white" stroke="none" points="-4,4 -4,-136 619,-136 619,4 -4,4"/>
<!-- Node1 -->
<g id="node1" class="node"><title>Node1</title>
<polygon fill="#bfbfbf" stroke="black" points="191,-79 191,-131 329,-131 329,-79 191,-79"/>
<text text-anchor="start" x="199" y="-119" font-family="Helvetica,sans-Serif" font-size="10.00">/media/kavonszadkowski</text>
<text text-anchor="start" x="199" y="-108" font-family="Helvetica,sans-Serif" font-size="10.00">/work/marsdocs/mars/entity</text>
<text text-anchor="start" x="199" y="-97" font-family="Helvetica,sans-Serif" font-size="10.00">_generation/primitives/src</text>
<text text-anchor="middle" x="260" y="-86" font-family="Helvetica,sans-Serif" font-size="10.00">/primitives.h</text>
</g>
<!-- Node2 -->
<g id="node2" class="node"><title>Node2</title>
<polygon fill="white" stroke="#bfbfbf" points="-0.5,-11.5 -0.5,-30.5 34.5,-30.5 34.5,-11.5 -0.5,-11.5"/>
<text text-anchor="middle" x="17" y="-18.5" font-family="Helvetica,sans-Serif" font-size="10.00">map</text>
</g>
<!-- Node1&#45;&gt;Node2 -->
<g id="edge1" class="edge"><title>Node1&#45;&gt;Node2</title>
<path fill="none" stroke="midnightblue" d="M190.549,-90.7219C147.013,-80.8053 90.5289,-64.9679 44,-42 40.9661,-40.5024 37.921,-38.6568 35.0255,-36.6977"/>
<polygon fill="midnightblue" stroke="midnightblue" points="37.0676,-33.8547 26.9488,-30.7148 32.9009,-39.4796 37.0676,-33.8547"/>
</g>
<!-- Node3 -->
<g id="node3" class="node"><title>Node3</title>
<polygon fill="white" stroke="#bfbfbf" points="53,-11.5 53,-30.5 181,-30.5 181,-11.5 53,-11.5"/>
<text text-anchor="middle" x="117" y="-18.5" font-family="Helvetica,sans-Serif" font-size="10.00">configmaps/ConfigData.h</text>
</g>
<!-- Node1&#45;&gt;Node3 -->
<g id="edge2" class="edge"><title>Node1&#45;&gt;Node3</title>
<path fill="none" stroke="midnightblue" d="M216.318,-78.9517C191.389,-64.6564 161.114,-47.296 140.592,-35.528"/>
<polygon fill="midnightblue" stroke="midnightblue" points="142.319,-32.484 131.903,-30.5458 138.837,-38.5565 142.319,-32.484"/>
</g>
<!-- Node4 -->
<g id="node4" class="node"><title>Node4</title>
<polygon fill="white" stroke="#bfbfbf" points="199,-6 199,-36 321,-36 321,-6 199,-6"/>
<text text-anchor="start" x="207" y="-24" font-family="Helvetica,sans-Serif" font-size="10.00">mars/interfaces/Material</text>
<text text-anchor="middle" x="260" y="-13" font-family="Helvetica,sans-Serif" font-size="10.00">Data.h</text>
</g>
<!-- Node1&#45;&gt;Node4 -->
<g id="edge3" class="edge"><title>Node1&#45;&gt;Node4</title>
<path fill="none" stroke="midnightblue" d="M260,-78.9517C260,-68.7136 260,-56.9032 260,-46.7011"/>
<polygon fill="midnightblue" stroke="midnightblue" points="263.5,-46.4124 260,-36.4124 256.5,-46.4124 263.5,-46.4124"/>
</g>
<!-- Node5 -->
<g id="node5" class="node"><title>Node5</title>
<polygon fill="white" stroke="#bfbfbf" points="339.5,-6 339.5,-36 456.5,-36 456.5,-6 339.5,-6"/>
<text text-anchor="start" x="347.5" y="-24" font-family="Helvetica,sans-Serif" font-size="10.00">mars/interfaces/sim</text>
<text text-anchor="middle" x="398" y="-13" font-family="Helvetica,sans-Serif" font-size="10.00">/MarsPluginTemplate.h</text>
</g>
<!-- Node1&#45;&gt;Node5 -->
<g id="edge4" class="edge"><title>Node1&#45;&gt;Node5</title>
<path fill="none" stroke="midnightblue" d="M302.154,-78.9517C322.453,-66.89 346.425,-52.646 365.317,-41.4205"/>
<polygon fill="midnightblue" stroke="midnightblue" points="367.335,-44.2923 374.144,-36.1751 363.76,-38.2745 367.335,-44.2923"/>
</g>
<!-- Node6 -->
<g id="node6" class="node"><title>Node6</title>
<polygon fill="white" stroke="#bfbfbf" points="475,-0.5 475,-41.5 615,-41.5 615,-0.5 475,-0.5"/>
<text text-anchor="start" x="483" y="-29.5" font-family="Helvetica,sans-Serif" font-size="10.00">mars/entity_generation</text>
<text text-anchor="start" x="483" y="-18.5" font-family="Helvetica,sans-Serif" font-size="10.00">/entity_factory/EntityFactory</text>
<text text-anchor="middle" x="545" y="-7.5" font-family="Helvetica,sans-Serif" font-size="10.00">Interface.h</text>
</g>
<!-- Node1&#45;&gt;Node6 -->
<g id="edge5" class="edge"><title>Node1&#45;&gt;Node6</title>
<path fill="none" stroke="midnightblue" d="M329.354,-84.0454C370.932,-72.0826 423.909,-56.8403 466.948,-44.4571"/>
<polygon fill="midnightblue" stroke="midnightblue" points="468.172,-47.7469 476.815,-41.6182 466.237,-41.0198 468.172,-47.7469"/>
</g>
</g>
</svg>
