<?xml version="1.0" encoding="UTF-8" standalone="no"?>
<!DOCTYPE svg PUBLIC "-//W3C//DTD SVG 1.1//EN"
 "http://www.w3.org/Graphics/SVG/1.1/DTD/svg11.dtd">
<!-- Generated by graphviz version 2.36.0 (20140111.2315)
 -->
<!-- Title: mars::gui::MenuWindow Pages: 1 -->
<svg width="1208pt" height="967pt"
 viewBox="0.00 0.00 1208.00 967.00" xmlns="http://www.w3.org/2000/svg" xmlns:xlink="http://www.w3.org/1999/xlink">
<g id="graph0" class="graph" transform="scale(1 1) rotate(0) translate(4 963)">
<title>mars::gui::MenuWindow</title>
<polygon fill="white" stroke="none" points="-4,4 -4,-963 1204,-963 1204,4 -4,4"/>
<!-- Node1 -->
<g id="node1" class="node"><title>Node1</title>
<polygon fill="#bfbfbf" stroke="black" points="1078,-730.5 1078,-749.5 1200,-749.5 1200,-730.5 1078,-730.5"/>
<text text-anchor="middle" x="1139" y="-737.5" font-family="Helvetica,sans-Serif" font-size="10.00">mars::gui::MenuWindow</text>
</g>
<!-- Node2 -->
<g id="node2" class="node"><title>Node2</title>
<polygon fill="white" stroke="#bfbfbf" points="903.5,-939.5 903.5,-958.5 956.5,-958.5 956.5,-939.5 903.5,-939.5"/>
<text text-anchor="middle" x="930" y="-946.5" font-family="Helvetica,sans-Serif" font-size="10.00">QObject</text>
</g>
<!-- Node2&#45;&gt;Node1 -->
<g id="edge1" class="edge"><title>Node2&#45;&gt;Node1</title>
<path fill="none" stroke="midnightblue" d="M966.583,-946.4C995.164,-942.522 1034.59,-932.89 1060,-909 1109.67,-862.292 1130.45,-777.771 1136.22,-749.5"/>
<polygon fill="midnightblue" stroke="midnightblue" points="966.109,-942.932 956.59,-947.584 966.932,-949.883 966.109,-942.932"/>
</g>
<!-- Node3 -->
<g id="node3" class="node"><title>Node3</title>
<g id="a_node3"><a xlink:href="../../d3/d52/classmars_1_1main__gui_1_1_menu_interface.html" target="_top" xlink:title="Provides the menuAction function. ">
<polygon fill="white" stroke="black" points="854,-901.5 854,-920.5 1006,-920.5 1006,-901.5 854,-901.5"/>
<text text-anchor="middle" x="930" y="-908.5" font-family="Helvetica,sans-Serif" font-size="10.00">mars::main_gui::MenuInterface</text>
</a>
</g>
</g>
<!-- Node3&#45;&gt;Node1 -->
<g id="edge2" class="edge"><title>Node3&#45;&gt;Node1</title>
<path fill="none" stroke="midnightblue" d="M1016,-906.346C1031.69,-902.506 1047.15,-896.436 1060,-887 1108.43,-851.429 1129.66,-776.618 1135.91,-749.814"/>
<polygon fill="midnightblue" stroke="midnightblue" points="1015.26,-902.926 1006.23,-908.459 1016.74,-909.768 1015.26,-902.926"/>
</g>
<!-- Node4 -->
<g id="node4" class="node"><title>Node4</title>
<g id="a_node4"><a xlink:href="../../d4/d1a/classmars_1_1cfg__manager_1_1_c_f_g_client.html" target="_top" xlink:title="mars::cfg_manager::\lCFGClient">
<polygon fill="white" stroke="black" points="292.5,-779 292.5,-809 399.5,-809 399.5,-779 292.5,-779"/>
<text text-anchor="start" x="300.5" y="-797" font-family="Helvetica,sans-Serif" font-size="10.00">mars::cfg_manager::</text>
<text text-anchor="middle" x="346" y="-786" font-family="Helvetica,sans-Serif" font-size="10.00">CFGClient</text>
</a>
</g>
</g>
<!-- Node4&#45;&gt;Node1 -->
<g id="edge3" class="edge"><title>Node4&#45;&gt;Node1</title>
<path fill="none" stroke="midnightblue" d="M409.036,-810.749C414.218,-812.919 419.276,-815.33 424,-818 433.318,-823.266 431.995,-830.196 442,-834 497.668,-855.165 516.649,-838.929 576,-834 771.938,-817.727 1002.38,-770.063 1095.65,-749.559"/>
<polygon fill="midnightblue" stroke="midnightblue" points="410.206,-807.449 399.617,-807.1 407.677,-813.976 410.206,-807.449"/>
</g>
<!-- Node6 -->
<g id="node6" class="node"><title>Node6</title>
<g id="a_node6"><a xlink:href="../../d4/dcf/classmars_1_1main__gui_1_1_base_widget.html" target="_top" xlink:title="mars::main_gui::BaseWidget">
<polygon fill="white" stroke="black" points="594.5,-685.5 594.5,-704.5 737.5,-704.5 737.5,-685.5 594.5,-685.5"/>
<text text-anchor="middle" x="666" y="-692.5" font-family="Helvetica,sans-Serif" font-size="10.00">mars::main_gui::BaseWidget</text>
</a>
</g>
</g>
<!-- Node4&#45;&gt;Node6 -->
<g id="edge7" class="edge"><title>Node4&#45;&gt;Node6</title>
<path fill="none" stroke="midnightblue" d="M393.739,-775.228C408.97,-769.53 426.062,-763.574 442,-759 500.481,-742.216 517.79,-748.7 576,-731 600.079,-723.678 626.717,-712.469 644.518,-704.505"/>
<polygon fill="midnightblue" stroke="midnightblue" points="392.134,-772.094 384.03,-778.918 394.621,-778.637 392.134,-772.094"/>
</g>
<!-- Node5 -->
<g id="node5" class="node"><title>Node5</title>
<g id="a_node5"><a xlink:href="../../df/dda/classmars_1_1gui_1_1_blender_export_g_u_i.html" target="_top" xlink:title="mars::gui::BlenderExportGUI">
<polygon fill="white" stroke="black" points="858.5,-251.5 858.5,-270.5 1001.5,-270.5 1001.5,-251.5 858.5,-251.5"/>
<text text-anchor="middle" x="930" y="-258.5" font-family="Helvetica,sans-Serif" font-size="10.00">mars::gui::BlenderExportGUI</text>
</a>
</g>
</g>
<!-- Node5&#45;&gt;Node1 -->
<g id="edge4" class="edge"><title>Node5&#45;&gt;Node1</title>
<path fill="none" stroke="#9a32cd" stroke-dasharray="5,2" d="M947.245,-278.091C963.905,-296.384 989.631,-326.861 1006,-357 1081.36,-495.75 1126.06,-685.69 1135.92,-730.333"/>
<polygon fill="#9a32cd" stroke="#9a32cd" points="949.658,-275.546 940.295,-270.588 944.523,-280.303 949.658,-275.546"/>
<text text-anchor="middle" x="1042" y="-471" font-family="Helvetica,sans-Serif" font-size="10.00"> blender</text>
</g>
<!-- Node6&#45;&gt;Node5 -->
<g id="edge5" class="edge"><title>Node6&#45;&gt;Node5</title>
<path fill="none" stroke="midnightblue" d="M677.45,-676.514C704.16,-629.196 776.985,-499.764 836,-391 844.154,-375.972 844.701,-371.348 854,-357 875.626,-323.633 905.937,-287.5 920.513,-270.659"/>
<polygon fill="midnightblue" stroke="midnightblue" points="674.342,-674.899 672.472,-685.327 680.437,-678.342 674.342,-674.899"/>
</g>
<!-- Node29 -->
<g id="node29" class="node"><title>Node29</title>
<g id="a_node29"><a xlink:href="../../da/d1a/classmars_1_1gui_1_1_controller_config_g_u_i.html" target="_top" xlink:title="mars::gui::ControllerConfigGUI">
<polygon fill="white" stroke="black" points="854,-366.5 854,-385.5 1006,-385.5 1006,-366.5 854,-366.5"/>
<text text-anchor="middle" x="930" y="-373.5" font-family="Helvetica,sans-Serif" font-size="10.00">mars::gui::ControllerConfigGUI</text>
</a>
</g>
</g>
<!-- Node6&#45;&gt;Node29 -->
<g id="edge36" class="edge"><title>Node6&#45;&gt;Node29</title>
<path fill="none" stroke="midnightblue" d="M712.759,-682.357C750.378,-669.834 802.726,-647.209 836,-611 900.424,-540.892 922.452,-420.786 927.668,-385.819"/>
<polygon fill="midnightblue" stroke="midnightblue" points="711.502,-679.084 703.051,-685.474 713.642,-685.749 711.502,-679.084"/>
</g>
<!-- Node7 -->
<g id="node7" class="node"><title>Node7</title>
<polygon fill="white" stroke="#bfbfbf" points="318.5,-693.5 318.5,-712.5 373.5,-712.5 373.5,-693.5 318.5,-693.5"/>
<text text-anchor="middle" x="346" y="-700.5" font-family="Helvetica,sans-Serif" font-size="10.00">QWidget</text>
</g>
<!-- Node7&#45;&gt;Node6 -->
<g id="edge6" class="edge"><title>Node7&#45;&gt;Node6</title>
<path fill="none" stroke="midnightblue" d="M383.841,-702.073C435.149,-700.782 529.139,-698.418 594.243,-696.78"/>
<polygon fill="midnightblue" stroke="midnightblue" points="383.474,-698.581 373.566,-702.332 383.65,-705.579 383.474,-698.581"/>
</g>
<!-- Node8 -->
<g id="node8" class="node"><title>Node8</title>
<g id="a_node8"><a xlink:href="../../dc/dc3/structmars_1_1cfg__manager_1_1cfg_property_struct.html" target="_top" xlink:title="mars::cfg_manager::\lcfgPropertyStruct">
<polygon fill="white" stroke="black" points="292.5,-828 292.5,-858 399.5,-858 399.5,-828 292.5,-828"/>
<text text-anchor="start" x="300.5" y="-846" font-family="Helvetica,sans-Serif" font-size="10.00">mars::cfg_manager::</text>
<text text-anchor="middle" x="346" y="-835" font-family="Helvetica,sans-Serif" font-size="10.00">cfgPropertyStruct</text>
</a>
</g>
</g>
<!-- Node8&#45;&gt;Node1 -->
<g id="edge43" class="edge"><title>Node8&#45;&gt;Node1</title>
<path fill="none" stroke="#9a32cd" stroke-dasharray="5,2" d="M409.817,-851.307C420.537,-852.428 431.574,-853.398 442,-854 501.457,-857.431 516.517,-856.93 576,-854 768.549,-844.514 819.764,-846.812 1006,-797 1048.68,-785.584 1095.44,-762.706 1120.24,-749.673"/>
<polygon fill="#9a32cd" stroke="#9a32cd" points="409.99,-847.805 399.668,-850.193 409.226,-854.764 409.99,-847.805"/>
<text text-anchor="middle" x="796" y="-892" font-family="Helvetica,sans-Serif" font-size="10.00"> cfgShowGrid</text>
<text text-anchor="middle" x="796" y="-881" font-family="Helvetica,sans-Serif" font-size="10.00">cfgVisRep</text>
<text text-anchor="middle" x="796" y="-870" font-family="Helvetica,sans-Serif" font-size="10.00">cfgShowCoords</text>
<text text-anchor="middle" x="796" y="-859" font-family="Helvetica,sans-Serif" font-size="10.00">cfgShowContacts</text>
<text text-anchor="middle" x="796" y="-848" font-family="Helvetica,sans-Serif" font-size="10.00">cfgShowSelection</text>
</g>
<!-- Node8&#45;&gt;Node6 -->
<g id="edge8" class="edge"><title>Node8&#45;&gt;Node6</title>
<path fill="none" stroke="#9a32cd" stroke-dasharray="5,2" d="M409.483,-824.793C414.485,-822.711 419.384,-820.447 424,-818 432.954,-813.253 433.118,-808.881 442,-804 497.441,-773.532 519.668,-784.786 576,-756 605.525,-740.913 636.768,-717.528 653.239,-704.532"/>
<polygon fill="#9a32cd" stroke="#9a32cd" points="407.83,-821.68 399.783,-828.572 410.371,-828.203 407.83,-821.68"/>
<text text-anchor="middle" x="509" y="-851" font-family="Helvetica,sans-Serif" font-size="10.00"> wTop</text>
<text text-anchor="middle" x="509" y="-840" font-family="Helvetica,sans-Serif" font-size="10.00">wWidth</text>
<text text-anchor="middle" x="509" y="-829" font-family="Helvetica,sans-Serif" font-size="10.00">wHeight</text>
<text text-anchor="middle" x="509" y="-818" font-family="Helvetica,sans-Serif" font-size="10.00">wLeft</text>
<text text-anchor="middle" x="509" y="-807" font-family="Helvetica,sans-Serif" font-size="10.00">hidden</text>
</g>
<!-- Node9 -->
<g id="node9" class="node"><title>Node9</title>
<polygon fill="white" stroke="#bfbfbf" points="60.5,-739.5 60.5,-758.5 101.5,-758.5 101.5,-739.5 60.5,-739.5"/>
<text text-anchor="middle" x="81" y="-746.5" font-family="Helvetica,sans-Serif" font-size="10.00">string</text>
</g>
<!-- Node9&#45;&gt;Node6 -->
<g id="edge12" class="edge"><title>Node9&#45;&gt;Node6</title>
<path fill="none" stroke="#9a32cd" stroke-dasharray="5,2" d="M111.849,-746.907C171.299,-742.679 308.703,-732.618 424,-722 491.643,-715.771 508.512,-713.722 576,-706 581.878,-705.327 587.972,-704.612 594.088,-703.882"/>
<polygon fill="#9a32cd" stroke="#9a32cd" points="111.406,-743.429 101.678,-747.627 111.9,-750.412 111.406,-743.429"/>
<text text-anchor="middle" x="346" y="-738" font-family="Helvetica,sans-Serif" font-size="10.00"> widgetName</text>
</g>
<!-- Node9&#45;&gt;Node8 -->
<g id="edge9" class="edge"><title>Node9&#45;&gt;Node8</title>
<path fill="none" stroke="#9a32cd" stroke-dasharray="5,2" d="M111.253,-760.278C147.778,-774.261 212.244,-798.616 268,-818 277.558,-821.323 287.831,-824.754 297.66,-827.97"/>
<polygon fill="#9a32cd" stroke="#9a32cd" points="112.313,-756.936 101.723,-756.622 109.806,-763.472 112.313,-756.936"/>
<text text-anchor="middle" x="215" y="-814" font-family="Helvetica,sans-Serif" font-size="10.00"> sValue</text>
</g>
<!-- Node30 -->
<g id="node30" class="node"><title>Node30</title>
<g id="a_node30"><a xlink:href="../../d6/dde/structmars_1_1gui_1_1_controller_config_g_u_i_1_1_controller_elem.html" target="_top" xlink:title="mars::gui::ControllerConfig\lGUI::ControllerElem">
<polygon fill="white" stroke="black" points="442,-615 442,-645 576,-645 576,-615 442,-615"/>
<text text-anchor="start" x="450" y="-633" font-family="Helvetica,sans-Serif" font-size="10.00">mars::gui::ControllerConfig</text>
<text text-anchor="middle" x="509" y="-622" font-family="Helvetica,sans-Serif" font-size="10.00">GUI::ControllerElem</text>
</a>
</g>
</g>
<!-- Node9&#45;&gt;Node30 -->
<g id="edge42" class="edge"><title>Node9&#45;&gt;Node30</title>
<path fill="none" stroke="#9a32cd" stroke-dasharray="5,2" d="M111.054,-737.678C147.376,-723.797 211.637,-700.131 268,-684 326.1,-667.372 393.296,-652.627 441.782,-642.765"/>
<polygon fill="#9a32cd" stroke="#9a32cd" points="109.659,-734.465 101.58,-741.32 112.17,-740.999 109.659,-734.465"/>
<text text-anchor="middle" x="215" y="-716" font-family="Helvetica,sans-Serif" font-size="10.00"> name</text>
</g>
<!-- Node10 -->
<g id="node10" class="node"><title>Node10</title>
<g id="a_node10"><a xlink:href="../../d4/da6/classmars_1_1cfg__manager_1_1_c_f_g_manager_interface.html" target="_top" xlink:title="mars::cfg_manager::\lCFGManagerInterface">
<polygon fill="white" stroke="black" points="289.5,-606 289.5,-636 402.5,-636 402.5,-606 289.5,-606"/>
<text text-anchor="start" x="297.5" y="-624" font-family="Helvetica,sans-Serif" font-size="10.00">mars::cfg_manager::</text>
<text text-anchor="middle" x="346" y="-613" font-family="Helvetica,sans-Serif" font-size="10.00">CFGManagerInterface</text>
</a>
</g>
</g>
<!-- Node10&#45;&gt;Node6 -->
<g id="edge10" class="edge"><title>Node10&#45;&gt;Node6</title>
<path fill="none" stroke="#9a32cd" stroke-dasharray="5,2" d="M409.839,-638.722C420.544,-641.591 431.571,-644.453 442,-647 502.015,-661.66 571.695,-676.277 616.975,-685.46"/>
<polygon fill="#9a32cd" stroke="#9a32cd" points="410.692,-635.327 400.125,-636.095 408.864,-642.085 410.692,-635.327"/>
<text text-anchor="middle" x="509" y="-680" font-family="Helvetica,sans-Serif" font-size="10.00"> cfg</text>
</g>
<!-- Node15 -->
<g id="node15" class="node"><title>Node15</title>
<g id="a_node15"><a xlink:href="../../d7/d4e/classmars_1_1interfaces_1_1_control_center.html" target="_top" xlink:title="The declaration of the ControlCenter. ">
<polygon fill="white" stroke="black" points="603.5,-361 603.5,-391 728.5,-391 728.5,-361 603.5,-361"/>
<text text-anchor="start" x="611.5" y="-379" font-family="Helvetica,sans-Serif" font-size="10.00">mars::interfaces::Control</text>
<text text-anchor="middle" x="666" y="-368" font-family="Helvetica,sans-Serif" font-size="10.00">Center</text>
</a>
</g>
</g>
<!-- Node10&#45;&gt;Node15 -->
<g id="edge23" class="edge"><title>Node10&#45;&gt;Node15</title>
<path fill="none" stroke="#9a32cd" stroke-dasharray="5,2" d="M412.36,-603.65C422.258,-601.266 432.375,-598.966 442,-597 471.532,-590.969 553.819,-596.409 576,-576 600.908,-553.081 581.575,-533.485 594,-502 610.683,-459.726 639.268,-414.243 654.585,-391.222"/>
<polygon fill="#9a32cd" stroke="#9a32cd" points="411.442,-600.271 402.563,-606.052 413.109,-607.07 411.442,-600.271"/>
<text text-anchor="middle" x="509" y="-600" font-family="Helvetica,sans-Serif" font-size="10.00"> cfg</text>
</g>
<!-- Node11 -->
<g id="node11" class="node"><title>Node11</title>
<polygon fill="white" stroke="#bfbfbf" points="47,-259.5 47,-278.5 115,-278.5 115,-259.5 47,-259.5"/>
<text text-anchor="middle" x="81" y="-266.5" font-family="Helvetica,sans-Serif" font-size="10.00">LibInterface</text>
</g>
<!-- Node11&#45;&gt;Node10 -->
<g id="edge11" class="edge"><title>Node11&#45;&gt;Node10</title>
<path fill="none" stroke="midnightblue" d="M87.5597,-288.487C104.629,-344.819 161.679,-509.355 268,-596 274.319,-601.15 281.728,-605.249 289.407,-608.51"/>
<polygon fill="midnightblue" stroke="midnightblue" points="90.8641,-287.318 84.6761,-278.719 84.1505,-289.3 90.8641,-287.318"/>
</g>
<!-- Node16 -->
<g id="node16" class="node"><title>Node16</title>
<g id="a_node16"><a xlink:href="../../d1/d93/classmars_1_1interfaces_1_1_graphics_manager_interface.html" target="_top" xlink:title="mars::interfaces::Graphics\lManagerInterface">
<polygon fill="white" stroke="black" points="280,-312 280,-342 412,-342 412,-312 280,-312"/>
<text text-anchor="start" x="288" y="-330" font-family="Helvetica,sans-Serif" font-size="10.00">mars::interfaces::Graphics</text>
<text text-anchor="middle" x="346" y="-319" font-family="Helvetica,sans-Serif" font-size="10.00">ManagerInterface</text>
</a>
</g>
</g>
<!-- Node11&#45;&gt;Node16 -->
<g id="edge19" class="edge"><title>Node11&#45;&gt;Node16</title>
<path fill="none" stroke="midnightblue" d="M124.956,-278.473C166.98,-287.741 231.535,-301.977 279.873,-312.637"/>
<polygon fill="midnightblue" stroke="midnightblue" points="125.562,-275.023 115.043,-276.287 124.054,-281.859 125.562,-275.023"/>
</g>
<!-- Node20 -->
<g id="node20" class="node"><title>Node20</title>
<g id="a_node20"><a xlink:href="../../d6/d2e/classmars_1_1data__broker_1_1_data_broker_interface.html" target="_top" xlink:title="The interface every DataBroker should implement. ">
<polygon fill="white" stroke="black" points="294,-165 294,-195 398,-195 398,-165 294,-165"/>
<text text-anchor="start" x="302" y="-183" font-family="Helvetica,sans-Serif" font-size="10.00">mars::data_broker::</text>
<text text-anchor="middle" x="346" y="-172" font-family="Helvetica,sans-Serif" font-size="10.00">DataBrokerInterface</text>
</a>
</g>
</g>
<!-- Node11&#45;&gt;Node20 -->
<g id="edge25" class="edge"><title>Node11&#45;&gt;Node20</title>
<path fill="none" stroke="midnightblue" d="M117.838,-256.069C155.203,-242.683 215.526,-221.341 268,-204 276.908,-201.056 286.427,-198.009 295.628,-195.115"/>
<polygon fill="midnightblue" stroke="midnightblue" points="116.623,-252.787 108.393,-259.459 118.987,-259.375 116.623,-252.787"/>
</g>
<!-- Node28 -->
<g id="node28" class="node"><title>Node28</title>
<g id="a_node28"><a xlink:href="../../d7/df2/classmars_1_1main__gui_1_1_gui_interface.html" target="_top" xlink:title="The abstract GuiInterface class provides the menu and docking functionality of the GUI...">
<polygon fill="white" stroke="black" points="594.5,-152.5 594.5,-171.5 737.5,-171.5 737.5,-152.5 594.5,-152.5"/>
<text text-anchor="middle" x="666" y="-159.5" font-family="Helvetica,sans-Serif" font-size="10.00">mars::main_gui::GuiInterface</text>
</a>
</g>
</g>
<!-- Node11&#45;&gt;Node28 -->
<g id="edge34" class="edge"><title>Node11&#45;&gt;Node28</title>
<path fill="none" stroke="midnightblue" d="M100.694,-252.677C132.46,-226.13 200.151,-174.6 268,-155 390.353,-119.655 542.873,-138.971 618.294,-152.462"/>
<polygon fill="midnightblue" stroke="midnightblue" points="98.0719,-250.312 92.7173,-259.454 102.604,-255.647 98.0719,-250.312"/>
</g>
<!-- Node12 -->
<g id="node12" class="node"><title>Node12</title>
<g id="a_node12"><a xlink:href="../../dd/d38/classmars_1_1main__gui_1_1_property_callback.html" target="_top" xlink:title="Introduced for Windows compatibility. ">
<polygon fill="white" stroke="black" points="283,-39 283,-69 409,-69 409,-39 283,-39"/>
<text text-anchor="start" x="291" y="-57" font-family="Helvetica,sans-Serif" font-size="10.00">mars::main_gui::Property</text>
<text text-anchor="middle" x="346" y="-46" font-family="Helvetica,sans-Serif" font-size="10.00">Callback</text>
</a>
</g>
</g>
<!-- Node12&#45;&gt;Node5 -->
<g id="edge13" class="edge"><title>Node12&#45;&gt;Node5</title>
<path fill="none" stroke="midnightblue" d="M419.144,-63.4163C426.854,-64.3321 434.586,-65.2122 442,-66 485.694,-70.6431 801.908,-72.278 836,-100 857.601,-117.565 841.513,-135.116 854,-160 872.514,-196.894 904.57,-234.363 920.082,-251.448"/>
<polygon fill="midnightblue" stroke="midnightblue" points="419.395,-59.9213 409.048,-62.1965 418.556,-66.8708 419.395,-59.9213"/>
</g>
<!-- Node13 -->
<g id="node13" class="node"><title>Node13</title>
<g id="a_node13"><a xlink:href="../../de/d11/classmars_1_1main__gui_1_1_property_dialog.html" target="_top" xlink:title="The PropertyDialog provides the QtProperty functionality. ">
<polygon fill="white" stroke="black" points="603,-27 603,-57 729,-57 729,-27 603,-27"/>
<text text-anchor="start" x="611" y="-45" font-family="Helvetica,sans-Serif" font-size="10.00">mars::main_gui::Property</text>
<text text-anchor="middle" x="666" y="-34" font-family="Helvetica,sans-Serif" font-size="10.00">Dialog</text>
</a>
</g>
</g>
<!-- Node12&#45;&gt;Node13 -->
<g id="edge16" class="edge"><title>Node12&#45;&gt;Node13</title>
<path fill="none" stroke="#9a32cd" stroke-dasharray="5,2" d="M419.158,-51.277C474.511,-49.1883 550.12,-46.3351 602.817,-44.3465"/>
<polygon fill="#9a32cd" stroke="#9a32cd" points="418.929,-47.7831 409.069,-51.6578 419.193,-54.7781 418.929,-47.7831"/>
<text text-anchor="middle" x="509" y="-54" font-family="Helvetica,sans-Serif" font-size="10.00"> propertyCallback</text>
</g>
<!-- Node12&#45;&gt;Node29 -->
<g id="edge37" class="edge"><title>Node12&#45;&gt;Node29</title>
<path fill="none" stroke="midnightblue" d="M405.61,-71.9942C473.197,-92.77 575.209,-124.217 576,-125 594.581,-143.39 576.945,-161.187 594,-181 672.321,-271.986 734.895,-236.266 836,-301 868.142,-321.579 902.124,-351.321 918.696,-366.423"/>
<polygon fill="midnightblue" stroke="midnightblue" points="406.491,-68.6035 395.904,-69.0113 404.435,-75.2946 406.491,-68.6035"/>
</g>
<!-- Node13&#45;&gt;Node5 -->
<g id="edge14" class="edge"><title>Node13&#45;&gt;Node5</title>
<path fill="none" stroke="#9a32cd" stroke-dasharray="5,2" d="M739.349,-31.8735C772.768,-31.3388 810.583,-37.2528 836,-61 868.678,-91.5312 836.203,-118.973 854,-160 870.34,-197.669 903.129,-234.481 919.395,-251.38"/>
<polygon fill="#9a32cd" stroke="#9a32cd" points="739.008,-28.3833 729.137,-32.2339 739.254,-35.3789 739.008,-28.3833"/>
<text text-anchor="middle" x="796" y="-64" font-family="Helvetica,sans-Serif" font-size="10.00"> pDialog</text>
</g>
<!-- Node13&#45;&gt;Node29 -->
<g id="edge38" class="edge"><title>Node13&#45;&gt;Node29</title>
<path fill="none" stroke="#9a32cd" stroke-dasharray="5,2" d="M721.109,-61.1174C759.64,-77.6782 809.171,-105.571 836,-147 868.424,-197.068 830.834,-225.032 854,-280 869.196,-316.056 901.596,-350.134 918.4,-366.263"/>
<polygon fill="#9a32cd" stroke="#9a32cd" points="722.147,-57.7588 711.57,-57.1499 719.459,-64.222 722.147,-57.7588"/>
<text text-anchor="middle" x="796" y="-150" font-family="Helvetica,sans-Serif" font-size="10.00"> pDialog</text>
</g>
<!-- Node14 -->
<g id="node14" class="node"><title>Node14</title>
<polygon fill="white" stroke="#bfbfbf" points="320,-0.5 320,-19.5 372,-19.5 372,-0.5 320,-0.5"/>
<text text-anchor="middle" x="346" y="-7.5" font-family="Helvetica,sans-Serif" font-size="10.00">QDialog</text>
</g>
<!-- Node14&#45;&gt;Node13 -->
<g id="edge15" class="edge"><title>Node14&#45;&gt;Node13</title>
<path fill="none" stroke="midnightblue" d="M382.183,-13.5404C435.357,-18.8913 536.963,-29.1157 602.807,-35.7416"/>
<polygon fill="midnightblue" stroke="midnightblue" points="382.519,-10.0566 372.219,-12.5377 381.818,-17.0215 382.519,-10.0566"/>
</g>
<!-- Node15&#45;&gt;Node1 -->
<g id="edge44" class="edge"><title>Node15&#45;&gt;Node1</title>
<path fill="none" stroke="#9a32cd" stroke-dasharray="5,2" d="M694.683,-397.394C784.06,-466.467 1062.75,-681.849 1125.41,-730.269"/>
<polygon fill="#9a32cd" stroke="#9a32cd" points="696.691,-394.523 686.639,-391.177 692.411,-400.062 696.691,-394.523"/>
<text text-anchor="middle" x="930" y="-638" font-family="Helvetica,sans-Serif" font-size="10.00"> control</text>
</g>
<!-- Node15&#45;&gt;Node5 -->
<g id="edge17" class="edge"><title>Node15&#45;&gt;Node5</title>
<path fill="none" stroke="#9a32cd" stroke-dasharray="5,2" d="M710.68,-356.827C767.433,-331.917 864.333,-289.384 907.34,-270.507"/>
<polygon fill="#9a32cd" stroke="#9a32cd" points="709.002,-353.742 701.252,-360.966 711.815,-360.151 709.002,-353.742"/>
<text text-anchor="middle" x="796" y="-339" font-family="Helvetica,sans-Serif" font-size="10.00"> control</text>
</g>
<!-- Node15&#45;&gt;Node29 -->
<g id="edge39" class="edge"><title>Node15&#45;&gt;Node29</title>
<path fill="none" stroke="#9a32cd" stroke-dasharray="5,2" d="M739.072,-376C774.669,-376 817.599,-376 853.633,-376"/>
<polygon fill="#9a32cd" stroke="#9a32cd" points="738.759,-372.5 728.759,-376 738.759,-379.5 738.759,-372.5"/>
<text text-anchor="middle" x="796" y="-379" font-family="Helvetica,sans-Serif" font-size="10.00"> control</text>
</g>
<!-- Node16&#45;&gt;Node15 -->
<g id="edge18" class="edge"><title>Node16&#45;&gt;Node15</title>
<path fill="none" stroke="#9a32cd" stroke-dasharray="5,2" d="M422.114,-337.774C466.84,-344.284 524.701,-352.87 576,-361 584.821,-362.398 594.127,-363.917 603.263,-365.434"/>
<polygon fill="#9a32cd" stroke="#9a32cd" points="422.599,-334.308 412.199,-336.334 421.592,-341.235 422.599,-334.308"/>
<text text-anchor="middle" x="509" y="-364" font-family="Helvetica,sans-Serif" font-size="10.00"> graphics</text>
</g>
<!-- Node17 -->
<g id="node17" class="node"><title>Node17</title>
<g id="a_node17"><a xlink:href="../../d2/da9/classmars_1_1interfaces_1_1_controller_manager_interface.html" target="_top" xlink:title="&quot;ControllerManagerInterface&quot; declares the interfaces for all controller operations that are used for ...">
<polygon fill="white" stroke="black" points="278.5,-459 278.5,-489 413.5,-489 413.5,-459 278.5,-459"/>
<text text-anchor="start" x="286.5" y="-477" font-family="Helvetica,sans-Serif" font-size="10.00">mars::interfaces::Controller</text>
<text text-anchor="middle" x="346" y="-466" font-family="Helvetica,sans-Serif" font-size="10.00">ManagerInterface</text>
</a>
</g>
</g>
<!-- Node17&#45;&gt;Node15 -->
<g id="edge20" class="edge"><title>Node17&#45;&gt;Node15</title>
<path fill="none" stroke="#9a32cd" stroke-dasharray="5,2" d="M423.701,-463.922C468.976,-456.509 526.858,-444.454 576,-426 599.892,-417.028 625.065,-402.329 642.519,-391.185"/>
<polygon fill="#9a32cd" stroke="#9a32cd" points="422.977,-460.493 413.654,-465.525 424.08,-467.405 422.977,-460.493"/>
<text text-anchor="middle" x="509" y="-463" font-family="Helvetica,sans-Serif" font-size="10.00"> controllers</text>
</g>
<!-- Node18 -->
<g id="node18" class="node"><title>Node18</title>
<g id="a_node18"><a xlink:href="../../d6/d60/classmars_1_1interfaces_1_1_joint_manager_interface.html" target="_top" xlink:title="Interface class for the node organization. ">
<polygon fill="white" stroke="black" points="270,-410 270,-440 422,-440 422,-410 270,-410"/>
<text text-anchor="start" x="278" y="-428" font-family="Helvetica,sans-Serif" font-size="10.00">mars::interfaces::JointManager</text>
<text text-anchor="middle" x="346" y="-417" font-family="Helvetica,sans-Serif" font-size="10.00">Interface</text>
</a>
</g>
</g>
<!-- Node18&#45;&gt;Node15 -->
<g id="edge21" class="edge"><title>Node18&#45;&gt;Node15</title>
<path fill="none" stroke="#9a32cd" stroke-dasharray="5,2" d="M431.985,-412.786C475.149,-406.481 528.399,-398.544 576,-391 584.821,-389.602 594.127,-388.083 603.263,-386.566"/>
<polygon fill="#9a32cd" stroke="#9a32cd" points="431.479,-409.323 422.089,-414.229 432.49,-416.25 431.479,-409.323"/>
<text text-anchor="middle" x="509" y="-414" font-family="Helvetica,sans-Serif" font-size="10.00"> joints</text>
</g>
<!-- Node19 -->
<g id="node19" class="node"><title>Node19</title>
<g id="a_node19"><a xlink:href="../../df/d82/classmars_1_1interfaces_1_1_entity_manager_interface.html" target="_top" xlink:title="mars::interfaces::Entity\lManagerInterface">
<polygon fill="white" stroke="black" points="286.5,-361 286.5,-391 405.5,-391 405.5,-361 286.5,-361"/>
<text text-anchor="start" x="294.5" y="-379" font-family="Helvetica,sans-Serif" font-size="10.00">mars::interfaces::Entity</text>
<text text-anchor="middle" x="346" y="-368" font-family="Helvetica,sans-Serif" font-size="10.00">ManagerInterface</text>
</a>
</g>
</g>
<!-- Node19&#45;&gt;Node15 -->
<g id="edge22" class="edge"><title>Node19&#45;&gt;Node15</title>
<path fill="none" stroke="#9a32cd" stroke-dasharray="5,2" d="M415.85,-376C471.665,-376 549.616,-376 603.391,-376"/>
<polygon fill="#9a32cd" stroke="#9a32cd" points="415.697,-372.5 405.697,-376 415.697,-379.5 415.697,-372.5"/>
<text text-anchor="middle" x="509" y="-379" font-family="Helvetica,sans-Serif" font-size="10.00"> entities</text>
</g>
<!-- Node20&#45;&gt;Node15 -->
<g id="edge24" class="edge"><title>Node20&#45;&gt;Node15</title>
<path fill="none" stroke="#9a32cd" stroke-dasharray="5,2" d="M408.433,-182.109C466.857,-185.202 549.624,-192.748 576,-211 589.817,-220.561 639.253,-322.058 657.854,-360.951"/>
<polygon fill="#9a32cd" stroke="#9a32cd" points="408.352,-178.601 398.19,-181.599 408.004,-185.592 408.352,-178.601"/>
<text text-anchor="middle" x="509" y="-225" font-family="Helvetica,sans-Serif" font-size="10.00"> dataBroker</text>
<text text-anchor="middle" x="509" y="-214" font-family="Helvetica,sans-Serif" font-size="10.00">theDataBroker</text>
</g>
<!-- Node21 -->
<g id="node21" class="node"><title>Node21</title>
<g id="a_node21"><a xlink:href="../../db/da9/classmars_1_1interfaces_1_1_sensor_manager_interface.html" target="_top" xlink:title="&quot;SensorManagerInterface&quot; declares the interfaces for all sensor operations that are used for the comm...">
<polygon fill="white" stroke="black" points="284,-263 284,-293 408,-293 408,-263 284,-263"/>
<text text-anchor="start" x="292" y="-281" font-family="Helvetica,sans-Serif" font-size="10.00">mars::interfaces::Sensor</text>
<text text-anchor="middle" x="346" y="-270" font-family="Helvetica,sans-Serif" font-size="10.00">ManagerInterface</text>
</a>
</g>
</g>
<!-- Node21&#45;&gt;Node15 -->
<g id="edge26" class="edge"><title>Node21&#45;&gt;Node15</title>
<path fill="none" stroke="#9a32cd" stroke-dasharray="5,2" d="M418.038,-287.7C464.045,-295.31 524.718,-307.871 576,-327 599.632,-335.815 624.633,-350.072 642.1,-360.94"/>
<polygon fill="#9a32cd" stroke="#9a32cd" points="418.587,-284.243 408.157,-286.104 417.471,-291.154 418.587,-284.243"/>
<text text-anchor="middle" x="509" y="-330" font-family="Helvetica,sans-Serif" font-size="10.00"> sensors</text>
</g>
<!-- Node22 -->
<g id="node22" class="node"><title>Node22</title>
<g id="a_node22"><a xlink:href="../../db/de9/classmars_1_1interfaces_1_1_motor_manager_interface.html" target="_top" xlink:title="&quot;MotorManagerInterface&quot; declares the interfaces for all motor operations that are used for the commun...">
<polygon fill="white" stroke="black" points="268.5,-214 268.5,-244 423.5,-244 423.5,-214 268.5,-214"/>
<text text-anchor="start" x="276.5" y="-232" font-family="Helvetica,sans-Serif" font-size="10.00">mars::interfaces::MotorManager</text>
<text text-anchor="middle" x="346" y="-221" font-family="Helvetica,sans-Serif" font-size="10.00">Interface</text>
</a>
</g>
</g>
<!-- Node22&#45;&gt;Node15 -->
<g id="edge27" class="edge"><title>Node22&#45;&gt;Node15</title>
<path fill="none" stroke="#9a32cd" stroke-dasharray="5,2" d="M433.672,-234.815C478.553,-240.876 532.836,-253.163 576,-278 611.857,-298.632 641.29,-338.7 655.606,-360.672"/>
<polygon fill="#9a32cd" stroke="#9a32cd" points="434.02,-231.331 423.659,-233.544 433.139,-238.276 434.02,-231.331"/>
<text text-anchor="middle" x="509" y="-281" font-family="Helvetica,sans-Serif" font-size="10.00"> motors</text>
</g>
<!-- Node23 -->
<g id="node23" class="node"><title>Node23</title>
<g id="a_node23"><a xlink:href="../../d9/d6a/classmars_1_1interfaces_1_1_load_center.html" target="_top" xlink:title="mars::interfaces::LoadCenter">
<polygon fill="white" stroke="black" points="274.5,-88.5 274.5,-107.5 417.5,-107.5 417.5,-88.5 274.5,-88.5"/>
<text text-anchor="middle" x="346" y="-95.5" font-family="Helvetica,sans-Serif" font-size="10.00">mars::interfaces::LoadCenter</text>
</a>
</g>
</g>
<!-- Node23&#45;&gt;Node15 -->
<g id="edge28" class="edge"><title>Node23&#45;&gt;Node15</title>
<path fill="none" stroke="#9a32cd" stroke-dasharray="5,2" d="M390.41,-110.498C454.938,-129.239 569.341,-163.163 576,-170 596.318,-190.86 583.481,-205.846 594,-233 612.723,-281.333 641.977,-335.357 656.387,-360.968"/>
<polygon fill="#9a32cd" stroke="#9a32cd" points="391.085,-107.049 380.506,-107.627 389.136,-113.773 391.085,-107.049"/>
<text text-anchor="middle" x="509" y="-173" font-family="Helvetica,sans-Serif" font-size="10.00"> loadCenter</text>
</g>
<!-- Node24 -->
<g id="node24" class="node"><title>Node24</title>
<g id="a_node24"><a xlink:href="../../d1/d51/classmars_1_1interfaces_1_1_load_heightmap_interface.html" target="_top" xlink:title="mars::interfaces::LoadHeightmap\lInterface">
<polygon fill="white" stroke="black" points="0.5,-89 0.5,-119 161.5,-119 161.5,-89 0.5,-89"/>
<text text-anchor="start" x="8.5" y="-107" font-family="Helvetica,sans-Serif" font-size="10.00">mars::interfaces::LoadHeightmap</text>
<text text-anchor="middle" x="81" y="-96" font-family="Helvetica,sans-Serif" font-size="10.00">Interface</text>
</a>
</g>
</g>
<!-- Node24&#45;&gt;Node23 -->
<g id="edge29" class="edge"><title>Node24&#45;&gt;Node23</title>
<path fill="none" stroke="#9a32cd" stroke-dasharray="5,2" d="M171.85,-101.95C205.256,-101.188 242.661,-100.335 274.133,-99.6167"/>
<polygon fill="#9a32cd" stroke="#9a32cd" points="171.54,-98.4563 161.622,-102.184 171.7,-105.454 171.54,-98.4563"/>
<text text-anchor="middle" x="215" y="-105" font-family="Helvetica,sans-Serif" font-size="10.00"> loadHeightmap</text>
</g>
<!-- Node25 -->
<g id="node25" class="node"><title>Node25</title>
<g id="a_node25"><a xlink:href="../../d7/d02/classmars_1_1interfaces_1_1_load_mesh_interface.html" target="_top" xlink:title="mars::interfaces::LoadMesh\lInterface">
<polygon fill="white" stroke="black" points="12,-40 12,-70 150,-70 150,-40 12,-40"/>
<text text-anchor="start" x="20" y="-58" font-family="Helvetica,sans-Serif" font-size="10.00">mars::interfaces::LoadMesh</text>
<text text-anchor="middle" x="81" y="-47" font-family="Helvetica,sans-Serif" font-size="10.00">Interface</text>
</a>
</g>
</g>
<!-- Node25&#45;&gt;Node23 -->
<g id="edge30" class="edge"><title>Node25&#45;&gt;Node23</title>
<path fill="none" stroke="#9a32cd" stroke-dasharray="5,2" d="M160.187,-67.7834C200.711,-74.4091 249.368,-82.3643 286.582,-88.4488"/>
<polygon fill="#9a32cd" stroke="#9a32cd" points="160.505,-64.289 150.071,-66.1295 159.375,-71.1973 160.505,-64.289"/>
<text text-anchor="middle" x="215" y="-85" font-family="Helvetica,sans-Serif" font-size="10.00"> loadMesh</text>
</g>
<!-- Node26 -->
<g id="node26" class="node"><title>Node26</title>
<g id="a_node26"><a xlink:href="../../d7/d4c/classmars_1_1interfaces_1_1_node_manager_interface.html" target="_top" xlink:title="&quot;NodeManagerInterface&quot; declares the interfaces for all NodeOperations that are used for the communica...">
<polygon fill="white" stroke="black" points="269,-557 269,-587 423,-587 423,-557 269,-557"/>
<text text-anchor="start" x="277" y="-575" font-family="Helvetica,sans-Serif" font-size="10.00">mars::interfaces::NodeManager</text>
<text text-anchor="middle" x="346" y="-564" font-family="Helvetica,sans-Serif" font-size="10.00">Interface</text>
</a>
</g>
</g>
<!-- Node26&#45;&gt;Node15 -->
<g id="edge31" class="edge"><title>Node26&#45;&gt;Node15</title>
<path fill="none" stroke="#9a32cd" stroke-dasharray="5,2" d="M433.407,-564.566C488.31,-558.408 553.192,-548.031 576,-532 577.646,-530.843 634.546,-430.048 656.489,-391.112"/>
<polygon fill="#9a32cd" stroke="#9a32cd" points="432.847,-561.106 423.284,-565.667 433.604,-568.065 432.847,-561.106"/>
<text text-anchor="middle" x="509" y="-567" font-family="Helvetica,sans-Serif" font-size="10.00"> nodes</text>
</g>
<!-- Node27 -->
<g id="node27" class="node"><title>Node27</title>
<g id="a_node27"><a xlink:href="../../dc/de5/classmars_1_1interfaces_1_1_simulator_interface.html" target="_top" xlink:title="mars::interfaces::Simulator\lInterface">
<polygon fill="white" stroke="black" points="279,-508 279,-538 413,-538 413,-508 279,-508"/>
<text text-anchor="start" x="287" y="-526" font-family="Helvetica,sans-Serif" font-size="10.00">mars::interfaces::Simulator</text>
<text text-anchor="middle" x="346" y="-515" font-family="Helvetica,sans-Serif" font-size="10.00">Interface</text>
</a>
</g>
</g>
<!-- Node27&#45;&gt;Node15 -->
<g id="edge32" class="edge"><title>Node27&#45;&gt;Node15</title>
<path fill="none" stroke="#9a32cd" stroke-dasharray="5,2" d="M423.12,-518.997C469.841,-513.741 529.434,-501.822 576,-475 612.249,-454.121 641.73,-413.277 655.893,-391.137"/>
<polygon fill="#9a32cd" stroke="#9a32cd" points="422.636,-515.528 413.054,-520.049 423.364,-522.49 422.636,-515.528"/>
<text text-anchor="middle" x="509" y="-520" font-family="Helvetica,sans-Serif" font-size="10.00"> sim</text>
</g>
<!-- Node28&#45;&gt;Node1 -->
<g id="edge45" class="edge"><title>Node28&#45;&gt;Node1</title>
<path fill="none" stroke="#9a32cd" stroke-dasharray="5,2" d="M748.056,-154.009C825.959,-151.22 941.145,-160.817 1006,-231 1078.18,-309.11 1128.32,-666.683 1136.74,-730.304"/>
<polygon fill="#9a32cd" stroke="#9a32cd" points="747.635,-150.524 737.797,-154.455 747.939,-157.517 747.635,-150.524"/>
<text text-anchor="middle" x="930" y="-234" font-family="Helvetica,sans-Serif" font-size="10.00"> mainGui</text>
</g>
<!-- Node28&#45;&gt;Node5 -->
<g id="edge33" class="edge"><title>Node28&#45;&gt;Node5</title>
<path fill="none" stroke="#9a32cd" stroke-dasharray="5,2" d="M747.748,-160.045C776.586,-161.922 808.68,-167.079 836,-179 873.88,-195.529 907.253,-233.389 921.571,-251.287"/>
<polygon fill="#9a32cd" stroke="#9a32cd" points="747.868,-156.547 737.697,-159.513 747.497,-163.537 747.868,-156.547"/>
<text text-anchor="middle" x="796" y="-182" font-family="Helvetica,sans-Serif" font-size="10.00"> mainGui</text>
</g>
<!-- Node28&#45;&gt;Node29 -->
<g id="edge40" class="edge"><title>Node28&#45;&gt;Node29</title>
<path fill="none" stroke="#9a32cd" stroke-dasharray="5,2" d="M706.366,-174.616C721.815,-179.507 739.714,-185.098 756,-190 791.426,-200.663 810.07,-186.612 836,-213 857.611,-234.993 840.233,-252.41 854,-280 871.564,-315.2 903.197,-349.928 919.184,-366.288"/>
<polygon fill="#9a32cd" stroke="#9a32cd" points="707.2,-171.209 696.61,-171.518 705.082,-177.88 707.2,-171.209"/>
<text text-anchor="middle" x="796" y="-216" font-family="Helvetica,sans-Serif" font-size="10.00"> mainGui</text>
</g>
<!-- Node29&#45;&gt;Node1 -->
<g id="edge35" class="edge"><title>Node29&#45;&gt;Node1</title>
<path fill="none" stroke="#9a32cd" stroke-dasharray="5,2" d="M941.589,-394.619C979.083,-460.551 1104.78,-681.583 1132.54,-730.403"/>
<polygon fill="#9a32cd" stroke="#9a32cd" points="944.523,-392.699 936.537,-385.736 938.438,-396.159 944.523,-392.699"/>
<text text-anchor="middle" x="1042" y="-605" font-family="Helvetica,sans-Serif" font-size="10.00"> cc</text>
</g>
<!-- Node30&#45;&gt;Node29 -->
<g id="edge41" class="edge"><title>Node30&#45;&gt;Node29</title>
<path fill="none" stroke="#9a32cd" stroke-dasharray="5,2" d="M573.909,-610.964C574.612,-610.646 575.309,-610.325 576,-610 720.702,-541.911 874.332,-420.61 917.268,-385.666"/>
<polygon fill="#9a32cd" stroke="#9a32cd" points="572.396,-607.802 564.507,-614.875 575.084,-614.266 572.396,-607.802"/>
<text text-anchor="middle" x="666" y="-603" font-family="Helvetica,sans-Serif" font-size="10.00"> controllerElem</text>
</g>
</g>
</svg>
