<?xml version="1.0" encoding="UTF-8" standalone="no"?>
<!DOCTYPE svg PUBLIC "-//W3C//DTD SVG 1.1//EN"
 "http://www.w3.org/Graphics/SVG/1.1/DTD/svg11.dtd">
<!-- Generated by graphviz version 2.26.3 (20100126.1600)
 -->
<!-- Title: /home/kavonszadkowski/limes&#45;dev/simulation/mars/common/gui/data_broker_plotter/src/DataBrokerPlotter.cpp Pages: 1 -->
<svg width="1918pt" height="212pt"
 viewBox="0.00 0.00 1918.00 212.00" xmlns="http://www.w3.org/2000/svg" xmlns:xlink="http://www.w3.org/1999/xlink">
<g id="graph1" class="graph" transform="scale(1 1) rotate(0) translate(4 208)">
<title>/home/kavonszadkowski/limes&#45;dev/simulation/mars/common/gui/data_broker_plotter/src/DataBrokerPlotter.cpp</title>
<polygon fill="white" stroke="white" points="-4,5 -4,-208 1915,-208 1915,5 -4,5"/>
<!-- Node1 -->
<g id="node1" class="node"><title>Node1</title>
<polygon fill="#bfbfbf" stroke="black" points="1113,-130.5 1113,-203.5 1263,-203.5 1263,-130.5 1113,-130.5"/>
<text text-anchor="start" x="1121" y="-190.5" font-family="Helvetica,sans-Serif" font-size="10.00">/home/kavonszadkowski</text>
<text text-anchor="start" x="1121" y="-177.5" font-family="Helvetica,sans-Serif" font-size="10.00">/limes&#45;dev/simulation</text>
<text text-anchor="start" x="1121" y="-164.5" font-family="Helvetica,sans-Serif" font-size="10.00">/mars/common/gui/data</text>
<text text-anchor="start" x="1121" y="-151.5" font-family="Helvetica,sans-Serif" font-size="10.00">_broker_plotter/src/DataBroker</text>
<text text-anchor="middle" x="1188" y="-138.5" font-family="Helvetica,sans-Serif" font-size="10.00">Plotter.cpp</text>
</g>
<!-- Node2 -->
<g id="node3" class="node"><title>Node2</title>
<a xlink:href="../../dd/d85/_data_broker_plotter_8h.html" target="_top" xlink:title="DataBrokerPlotter.h">
<polygon fill="white" stroke="black" points="377.5,-72.5 377.5,-93.5 480.5,-93.5 480.5,-72.5 377.5,-72.5"/>
<text text-anchor="middle" x="429" y="-80.5" font-family="Helvetica,sans-Serif" font-size="10.00">DataBrokerPlotter.h</text>
</a>
</g>
<!-- Node1&#45;&gt;Node2 -->
<g id="edge2" class="edge"><title>Node1&#45;&gt;Node2</title>
<path fill="none" stroke="midnightblue" d="M1112.8,-158.677C962.828,-142.08 629.111,-105.147 490.848,-89.8448"/>
<polygon fill="midnightblue" stroke="midnightblue" points="491.165,-86.3587 480.841,-88.7373 490.395,-93.3162 491.165,-86.3587"/>
</g>
<!-- Node11 -->
<g id="node21" class="node"><title>Node11</title>
<a xlink:href="../../dd/d72/_data_broker_plotter_lib_8h.html" target="_top" xlink:title="DataBrokerPlotterLib.h">
<polygon fill="white" stroke="black" points="1130,-72.5 1130,-93.5 1246,-93.5 1246,-72.5 1130,-72.5"/>
<text text-anchor="middle" x="1188" y="-80.5" font-family="Helvetica,sans-Serif" font-size="10.00">DataBrokerPlotterLib.h</text>
</a>
</g>
<!-- Node1&#45;&gt;Node11 -->
<g id="edge20" class="edge"><title>Node1&#45;&gt;Node11</title>
<path fill="none" stroke="midnightblue" d="M1188,-130.401C1188,-121.386 1188,-112.033 1188,-104.042"/>
<polygon fill="midnightblue" stroke="midnightblue" points="1191.5,-103.828 1188,-93.8283 1184.5,-103.828 1191.5,-103.828"/>
</g>
<!-- Node20 -->
<g id="node42" class="node"><title>Node20</title>
<polygon fill="white" stroke="#bfbfbf" points="1263.5,-72.5 1263.5,-93.5 1340.5,-93.5 1340.5,-72.5 1263.5,-72.5"/>
<text text-anchor="middle" x="1302" y="-80.5" font-family="Helvetica,sans-Serif" font-size="10.00">QVBoxLayout</text>
</g>
<!-- Node1&#45;&gt;Node20 -->
<g id="edge44" class="edge"><title>Node1&#45;&gt;Node20</title>
<path fill="none" stroke="midnightblue" d="M1237.67,-130.401C1252.25,-119.657 1267.48,-108.433 1279.46,-99.6058"/>
<polygon fill="midnightblue" stroke="midnightblue" points="1281.58,-102.392 1287.56,-93.6427 1277.43,-96.757 1281.58,-102.392"/>
</g>
<!-- Node3 -->
<g id="node5" class="node"><title>Node3</title>
<polygon fill="white" stroke="#bfbfbf" points="224,-7.5 224,-28.5 302,-28.5 302,-7.5 224,-7.5"/>
<text text-anchor="middle" x="263" y="-15.5" font-family="Helvetica,sans-Serif" font-size="10.00">qcustomplot.h</text>
</g>
<!-- Node2&#45;&gt;Node3 -->
<g id="edge4" class="edge"><title>Node2&#45;&gt;Node3</title>
<path fill="none" stroke="midnightblue" d="M401.96,-72.412C374.106,-61.5052 330.513,-44.4357 299.588,-32.3266"/>
<polygon fill="midnightblue" stroke="midnightblue" points="300.616,-28.9706 290.029,-28.5835 298.064,-35.4887 300.616,-28.9706"/>
</g>
<!-- Node4 -->
<g id="node7" class="node"><title>Node4</title>
<polygon fill="white" stroke="#bfbfbf" points="319.5,-7.5 319.5,-28.5 374.5,-28.5 374.5,-7.5 319.5,-7.5"/>
<text text-anchor="middle" x="347" y="-15.5" font-family="Helvetica,sans-Serif" font-size="10.00">QPainter</text>
</g>
<!-- Node2&#45;&gt;Node4 -->
<g id="edge6" class="edge"><title>Node2&#45;&gt;Node4</title>
<path fill="none" stroke="midnightblue" d="M415.459,-72.2666C402.683,-62.1387 383.322,-46.7916 368.446,-34.9995"/>
<polygon fill="midnightblue" stroke="midnightblue" points="370.299,-32.0029 360.289,-28.5337 365.951,-37.4885 370.299,-32.0029"/>
</g>
<!-- Node5 -->
<g id="node9" class="node"><title>Node5</title>
<polygon fill="white" stroke="#bfbfbf" points="391.5,-7.5 391.5,-28.5 466.5,-28.5 466.5,-7.5 391.5,-7.5"/>
<text text-anchor="middle" x="429" y="-15.5" font-family="Helvetica,sans-Serif" font-size="10.00">QCloseEvent</text>
</g>
<!-- Node2&#45;&gt;Node5 -->
<g id="edge8" class="edge"><title>Node2&#45;&gt;Node5</title>
<path fill="none" stroke="midnightblue" d="M429,-72.2666C429,-63.1799 429,-49.8919 429,-38.7395"/>
<polygon fill="midnightblue" stroke="midnightblue" points="432.5,-38.5337 429,-28.5337 425.5,-38.5337 432.5,-38.5337"/>
</g>
<!-- Node6 -->
<g id="node11" class="node"><title>Node6</title>
<polygon fill="white" stroke="#bfbfbf" points="483.5,-7.5 483.5,-28.5 534.5,-28.5 534.5,-7.5 483.5,-7.5"/>
<text text-anchor="middle" x="509" y="-15.5" font-family="Helvetica,sans-Serif" font-size="10.00">QMutex</text>
</g>
<!-- Node2&#45;&gt;Node6 -->
<g id="edge10" class="edge"><title>Node2&#45;&gt;Node6</title>
<path fill="none" stroke="midnightblue" d="M442.21,-72.2666C454.675,-62.1387 473.564,-46.7916 488.077,-34.9995"/>
<polygon fill="midnightblue" stroke="midnightblue" points="490.481,-37.5561 496.035,-28.5337 486.067,-32.1233 490.481,-37.5561"/>
</g>
<!-- Node7 -->
<g id="node13" class="node"><title>Node7</title>
<polygon fill="white" stroke="#bfbfbf" points="552,-1 552,-35 686,-35 686,-1 552,-1"/>
<text text-anchor="start" x="560" y="-22" font-family="Helvetica,sans-Serif" font-size="10.00">mars/data_broker/Receiver</text>
<text text-anchor="middle" x="619" y="-9" font-family="Helvetica,sans-Serif" font-size="10.00">Interface.h</text>
</g>
<!-- Node2&#45;&gt;Node7 -->
<g id="edge12" class="edge"><title>Node2&#45;&gt;Node7</title>
<path fill="none" stroke="midnightblue" d="M459.95,-72.412C486.843,-63.2116 526.555,-49.6259 559.569,-38.3316"/>
<polygon fill="midnightblue" stroke="midnightblue" points="560.802,-41.6089 569.131,-35.0604 558.537,-34.9858 560.802,-41.6089"/>
</g>
<!-- Node8 -->
<g id="node15" class="node"><title>Node8</title>
<polygon fill="white" stroke="#bfbfbf" points="703.5,-1 703.5,-35 848.5,-35 848.5,-1 703.5,-1"/>
<text text-anchor="start" x="711.5" y="-22" font-family="Helvetica,sans-Serif" font-size="10.00">mars/data_broker/DataBroker</text>
<text text-anchor="middle" x="776" y="-9" font-family="Helvetica,sans-Serif" font-size="10.00">Interface.h</text>
</g>
<!-- Node2&#45;&gt;Node8 -->
<g id="edge14" class="edge"><title>Node2&#45;&gt;Node8</title>
<path fill="none" stroke="midnightblue" d="M480.616,-74.5681C532.098,-66.0035 613.69,-52.0139 693.011,-36.3589"/>
<polygon fill="midnightblue" stroke="midnightblue" points="694.047,-39.7217 703.174,-34.3414 692.684,-32.8557 694.047,-39.7217"/>
</g>
<!-- Node9 -->
<g id="node17" class="node"><title>Node9</title>
<polygon fill="white" stroke="#bfbfbf" points="-0.5,-7.5 -0.5,-28.5 144.5,-28.5 144.5,-7.5 -0.5,-7.5"/>
<text text-anchor="middle" x="72" y="-15.5" font-family="Helvetica,sans-Serif" font-size="10.00">mars/main_gui/BaseWidget.h</text>
</g>
<!-- Node2&#45;&gt;Node9 -->
<g id="edge16" class="edge"><title>Node2&#45;&gt;Node9</title>
<path fill="none" stroke="midnightblue" d="M377.483,-75.0165C321.938,-66.2246 230.986,-51.2953 153,-36 144.77,-34.3859 136.094,-32.575 127.601,-30.7403"/>
<polygon fill="midnightblue" stroke="midnightblue" points="128.269,-27.3037 117.752,-28.5859 126.773,-34.142 128.269,-27.3037"/>
</g>
<!-- Node10 -->
<g id="node19" class="node"><title>Node10</title>
<polygon fill="white" stroke="#bfbfbf" points="162,-7.5 162,-28.5 206,-28.5 206,-7.5 162,-7.5"/>
<text text-anchor="middle" x="184" y="-15.5" font-family="Helvetica,sans-Serif" font-size="10.00">vector</text>
</g>
<!-- Node2&#45;&gt;Node10 -->
<g id="edge18" class="edge"><title>Node2&#45;&gt;Node10</title>
<path fill="none" stroke="midnightblue" d="M377.104,-76.2107C332.934,-69.3563 268.35,-56.7619 215,-36 212.927,-35.1931 210.828,-34.2605 208.751,-33.2532"/>
<polygon fill="midnightblue" stroke="midnightblue" points="210.401,-30.1663 199.935,-28.5153 207.087,-36.3322 210.401,-30.1663"/>
</g>
<!-- Node11&#45;&gt;Node6 -->
<g id="edge40" class="edge"><title>Node11&#45;&gt;Node6</title>
<path fill="none" stroke="midnightblue" d="M1129.83,-81.8196C992.666,-78.5446 652.325,-67.4156 543,-36 540.324,-35.231 537.618,-34.2352 534.963,-33.1067"/>
<polygon fill="midnightblue" stroke="midnightblue" points="536.235,-29.8338 525.712,-28.6074 533.174,-36.1287 536.235,-29.8338"/>
</g>
<!-- Node11&#45;&gt;Node7 -->
<g id="edge28" class="edge"><title>Node11&#45;&gt;Node7</title>
<path fill="none" stroke="midnightblue" d="M1129.98,-80.0599C1039.38,-74.8996 858.688,-62.3275 696.216,-36.0719"/>
<polygon fill="midnightblue" stroke="midnightblue" points="696.47,-32.567 686.036,-34.4047 695.338,-39.475 696.47,-32.567"/>
</g>
<!-- Node11&#45;&gt;Node8 -->
<g id="edge30" class="edge"><title>Node11&#45;&gt;Node8</title>
<path fill="none" stroke="midnightblue" d="M1129.78,-76.122C1065.63,-68.2322 959.215,-54.2275 858.812,-36.2657"/>
<polygon fill="midnightblue" stroke="midnightblue" points="859.267,-32.7913 848.804,-34.4583 858.022,-39.6799 859.267,-32.7913"/>
</g>
<!-- Node12 -->
<g id="node23" class="node"><title>Node12</title>
<polygon fill="white" stroke="#bfbfbf" points="865.5,-7.5 865.5,-28.5 1010.5,-28.5 1010.5,-7.5 865.5,-7.5"/>
<text text-anchor="middle" x="938" y="-15.5" font-family="Helvetica,sans-Serif" font-size="10.00">mars/main_gui/GuiInterface.h</text>
</g>
<!-- Node11&#45;&gt;Node12 -->
<g id="edge22" class="edge"><title>Node11&#45;&gt;Node12</title>
<path fill="none" stroke="midnightblue" d="M1147.56,-72.4844C1104.17,-61.2035 1035.19,-43.2702 988.327,-31.085"/>
<polygon fill="midnightblue" stroke="midnightblue" points="988.946,-27.6295 978.387,-28.5005 987.184,-34.4043 988.946,-27.6295"/>
</g>
<!-- Node13 -->
<g id="node25" class="node"><title>Node13</title>
<polygon fill="white" stroke="#bfbfbf" points="1028,-7.5 1028,-28.5 1182,-28.5 1182,-7.5 1028,-7.5"/>
<text text-anchor="middle" x="1105" y="-15.5" font-family="Helvetica,sans-Serif" font-size="10.00">mars/main_gui/MenuInterface.h</text>
</g>
<!-- Node11&#45;&gt;Node13 -->
<g id="edge24" class="edge"><title>Node11&#45;&gt;Node13</title>
<path fill="none" stroke="midnightblue" d="M1174.29,-72.2666C1161.36,-62.1387 1141.76,-46.7916 1126.71,-34.9995"/>
<polygon fill="midnightblue" stroke="midnightblue" points="1128.48,-31.9438 1118.45,-28.5337 1124.17,-37.455 1128.48,-31.9438"/>
</g>
<!-- Node14 -->
<g id="node27" class="node"><title>Node14</title>
<polygon fill="white" stroke="#bfbfbf" points="1200,-7.5 1200,-28.5 1342,-28.5 1342,-7.5 1200,-7.5"/>
<text text-anchor="middle" x="1271" y="-15.5" font-family="Helvetica,sans-Serif" font-size="10.00">lib_manager/LibInterface.hpp</text>
</g>
<!-- Node11&#45;&gt;Node14 -->
<g id="edge26" class="edge"><title>Node11&#45;&gt;Node14</title>
<path fill="none" stroke="midnightblue" d="M1201.71,-72.2666C1214.64,-62.1387 1234.24,-46.7916 1249.29,-34.9995"/>
<polygon fill="midnightblue" stroke="midnightblue" points="1251.83,-37.455 1257.55,-28.5337 1247.52,-31.9438 1251.83,-37.455"/>
</g>
<!-- Node15 -->
<g id="node31" class="node"><title>Node15</title>
<polygon fill="white" stroke="#bfbfbf" points="1359.5,-1 1359.5,-35 1518.5,-35 1518.5,-1 1359.5,-1"/>
<text text-anchor="start" x="1367.5" y="-22" font-family="Helvetica,sans-Serif" font-size="10.00">mars/cfg_manager/CFGManager</text>
<text text-anchor="middle" x="1439" y="-9" font-family="Helvetica,sans-Serif" font-size="10.00">Interface.h</text>
</g>
<!-- Node11&#45;&gt;Node15 -->
<g id="edge32" class="edge"><title>Node11&#45;&gt;Node15</title>
<path fill="none" stroke="midnightblue" d="M1228.61,-72.4844C1264.85,-63.0978 1318.89,-49.1054 1363.12,-37.651"/>
<polygon fill="midnightblue" stroke="midnightblue" points="1364.17,-40.994 1372.97,-35.0987 1362.41,-34.2175 1364.17,-40.994"/>
</g>
<!-- Node16 -->
<g id="node33" class="node"><title>Node16</title>
<polygon fill="white" stroke="#bfbfbf" points="1535.5,-7.5 1535.5,-28.5 1690.5,-28.5 1690.5,-7.5 1535.5,-7.5"/>
<text text-anchor="middle" x="1613" y="-15.5" font-family="Helvetica,sans-Serif" font-size="10.00">mars/cfg_manager/CFGClient.h</text>
</g>
<!-- Node11&#45;&gt;Node16 -->
<g id="edge34" class="edge"><title>Node11&#45;&gt;Node16</title>
<path fill="none" stroke="midnightblue" d="M1246.09,-73.3497C1249.1,-72.8847 1252.08,-72.4321 1255,-72 1375.63,-54.1198 1406.79,-56.5051 1527,-36 1536.37,-34.4009 1546.28,-32.5131 1555.91,-30.5721"/>
<polygon fill="midnightblue" stroke="midnightblue" points="1556.72,-33.98 1565.81,-28.5399 1555.31,-27.123 1556.72,-33.98"/>
</g>
<!-- Node17 -->
<g id="node35" class="node"><title>Node17</title>
<polygon fill="white" stroke="#bfbfbf" points="1707.5,-7.5 1707.5,-28.5 1748.5,-28.5 1748.5,-7.5 1707.5,-7.5"/>
<text text-anchor="middle" x="1728" y="-15.5" font-family="Helvetica,sans-Serif" font-size="10.00">string</text>
</g>
<!-- Node11&#45;&gt;Node17 -->
<g id="edge36" class="edge"><title>Node11&#45;&gt;Node17</title>
<path fill="none" stroke="midnightblue" d="M1246.06,-73.1689C1249.08,-72.7512 1252.07,-72.3581 1255,-72 1451.51,-47.9424 1510.96,-97.9396 1699,-36 1700.94,-35.3604 1702.89,-34.5663 1704.8,-33.6709"/>
<polygon fill="midnightblue" stroke="midnightblue" points="1706.88,-36.5172 1713.92,-28.5968 1703.48,-30.4002 1706.88,-36.5172"/>
</g>
<!-- Node18 -->
<g id="node37" class="node"><title>Node18</title>
<polygon fill="white" stroke="#bfbfbf" points="1765.5,-7.5 1765.5,-28.5 1818.5,-28.5 1818.5,-7.5 1765.5,-7.5"/>
<text text-anchor="middle" x="1792" y="-15.5" font-family="Helvetica,sans-Serif" font-size="10.00">QObject</text>
</g>
<!-- Node11&#45;&gt;Node18 -->
<g id="edge38" class="edge"><title>Node11&#45;&gt;Node18</title>
<path fill="none" stroke="midnightblue" d="M1246.06,-73.1356C1249.08,-72.7266 1252.07,-72.3445 1255,-72 1477.15,-45.8533 1541.62,-96.3748 1757,-36 1759.84,-35.2047 1762.71,-34.1665 1765.53,-32.9898"/>
<polygon fill="midnightblue" stroke="midnightblue" points="1767.23,-36.0573 1774.76,-28.6078 1764.23,-29.7334 1767.23,-36.0573"/>
</g>
<!-- Node19 -->
<g id="node40" class="node"><title>Node19</title>
<polygon fill="white" stroke="#bfbfbf" points="1836,-7.5 1836,-28.5 1910,-28.5 1910,-7.5 1836,-7.5"/>
<text text-anchor="middle" x="1873" y="-15.5" font-family="Helvetica,sans-Serif" font-size="10.00">QTimerEvent</text>
</g>
<!-- Node11&#45;&gt;Node19 -->
<g id="edge42" class="edge"><title>Node11&#45;&gt;Node19</title>
<path fill="none" stroke="midnightblue" d="M1246.06,-73.1044C1249.08,-72.7035 1252.07,-72.3317 1255,-72 1508.11,-43.3302 1578.3,-91.0716 1827,-36 1831.45,-35.0139 1836.04,-33.6605 1840.52,-32.1351"/>
<polygon fill="midnightblue" stroke="midnightblue" points="1841.88,-35.3615 1850.04,-28.5966 1839.44,-28.8001 1841.88,-35.3615"/>
</g>
</g>
</svg>
