<?xml version="1.0" encoding="UTF-8" standalone="no"?>
<!DOCTYPE svg PUBLIC "-//W3C//DTD SVG 1.1//EN"
 "http://www.w3.org/Graphics/SVG/1.1/DTD/svg11.dtd">
<!-- Generated by graphviz version 2.26.3 (20100126.1600)
 -->
<!-- Title: /home/kavonszadkowski/limes&#45;dev/simulation/mars/interfaces/src/sensor_bases.h Pages: 1 -->
<svg width="570pt" height="266pt"
 viewBox="0.00 0.00 570.00 266.00" xmlns="http://www.w3.org/2000/svg" xmlns:xlink="http://www.w3.org/1999/xlink">
<g id="graph1" class="graph" transform="scale(1 1) rotate(0) translate(4 262)">
<title>/home/kavonszadkowski/limes&#45;dev/simulation/mars/interfaces/src/sensor_bases.h</title>
<polygon fill="white" stroke="white" points="-4,5 -4,-262 567,-262 567,5 -4,5"/>
<!-- Node1 -->
<g id="node1" class="node"><title>Node1</title>
<polygon fill="#bfbfbf" stroke="black" points="208,-197 208,-257 344,-257 344,-197 208,-197"/>
<text text-anchor="start" x="216" y="-244" font-family="Helvetica,sans-Serif" font-size="10.00">/home/kavonszadkowski</text>
<text text-anchor="start" x="216" y="-231" font-family="Helvetica,sans-Serif" font-size="10.00">/limes&#45;dev/simulation</text>
<text text-anchor="start" x="216" y="-218" font-family="Helvetica,sans-Serif" font-size="10.00">/mars/interfaces/src/sensor</text>
<text text-anchor="middle" x="276" y="-205" font-family="Helvetica,sans-Serif" font-size="10.00">_bases.h</text>
</g>
<!-- Node2 -->
<g id="node3" class="node"><title>Node2</title>
<a xlink:href="../../d0/ddf/_node_interface_8h.html" target="_top" xlink:title="&quot;NodeInterface&quot; declares the interfaces for the Nodes to the physical layer. ">
<polygon fill="white" stroke="black" points="-0.5,-99 -0.5,-159 124.5,-159 124.5,-99 -0.5,-99"/>
<text text-anchor="start" x="7.5" y="-146" font-family="Helvetica,sans-Serif" font-size="10.00">/home/kavonszadkowski</text>
<text text-anchor="start" x="7.5" y="-133" font-family="Helvetica,sans-Serif" font-size="10.00">/limes&#45;dev/simulation</text>
<text text-anchor="start" x="7.5" y="-120" font-family="Helvetica,sans-Serif" font-size="10.00">/mars/interfaces/src/sim</text>
<text text-anchor="middle" x="62" y="-107" font-family="Helvetica,sans-Serif" font-size="10.00">/NodeInterface.h</text>
</a>
</g>
<!-- Node1&#45;&gt;Node2 -->
<g id="edge2" class="edge"><title>Node1&#45;&gt;Node2</title>
<path fill="none" stroke="midnightblue" d="M200.919,-192.617C175.982,-181.197 148.5,-168.612 124.607,-157.67"/>
<polygon fill="midnightblue" stroke="midnightblue" points="199.789,-195.949 210.339,-196.931 202.704,-189.585 199.789,-195.949"/>
</g>
<!-- Node4 -->
<g id="node7" class="node"><title>Node4</title>
<a xlink:href="../../d1/dd0/_node_manager_interface_8h.html" target="_top" xlink:title="&quot;NodeManagerInterface&quot; declares the interfaces for all NodeOperations that are used for the communica...">
<polygon fill="white" stroke="black" points="141.5,-99 141.5,-159 268.5,-159 268.5,-99 141.5,-99"/>
<text text-anchor="start" x="149.5" y="-146" font-family="Helvetica,sans-Serif" font-size="10.00">/home/kavonszadkowski</text>
<text text-anchor="start" x="149.5" y="-133" font-family="Helvetica,sans-Serif" font-size="10.00">/limes&#45;dev/simulation</text>
<text text-anchor="start" x="149.5" y="-120" font-family="Helvetica,sans-Serif" font-size="10.00">/mars/interfaces/src/sim</text>
<text text-anchor="middle" x="205" y="-107" font-family="Helvetica,sans-Serif" font-size="10.00">/NodeManagerInterface.h</text>
</a>
</g>
<!-- Node1&#45;&gt;Node4 -->
<g id="edge6" class="edge"><title>Node1&#45;&gt;Node4</title>
<path fill="none" stroke="midnightblue" d="M248.081,-188.464C241.057,-178.768 233.616,-168.499 226.932,-159.272"/>
<polygon fill="midnightblue" stroke="midnightblue" points="245.417,-190.752 254.118,-196.797 251.086,-186.646 245.417,-190.752"/>
</g>
<!-- Node5 -->
<g id="node9" class="node"><title>Node5</title>
<a xlink:href="../../da/da8/_sensor_interface_8h.html" target="_top" xlink:title="/home/kavonszadkowski\l/limes&#45;dev/simulation\l/mars/interfaces/src/sim\l/SensorInterface.h">
<polygon fill="white" stroke="black" points="285.5,-99 285.5,-159 410.5,-159 410.5,-99 285.5,-99"/>
<text text-anchor="start" x="293.5" y="-146" font-family="Helvetica,sans-Serif" font-size="10.00">/home/kavonszadkowski</text>
<text text-anchor="start" x="293.5" y="-133" font-family="Helvetica,sans-Serif" font-size="10.00">/limes&#45;dev/simulation</text>
<text text-anchor="start" x="293.5" y="-120" font-family="Helvetica,sans-Serif" font-size="10.00">/mars/interfaces/src/sim</text>
<text text-anchor="middle" x="348" y="-107" font-family="Helvetica,sans-Serif" font-size="10.00">/SensorInterface.h</text>
</a>
</g>
<!-- Node1&#45;&gt;Node5 -->
<g id="edge8" class="edge"><title>Node1&#45;&gt;Node5</title>
<path fill="none" stroke="midnightblue" d="M304.312,-188.464C311.436,-178.768 318.981,-168.499 325.759,-159.272"/>
<polygon fill="midnightblue" stroke="midnightblue" points="301.29,-186.666 298.19,-196.797 306.931,-190.811 301.29,-186.666"/>
</g>
<!-- Node6 -->
<g id="node11" class="node"><title>Node6</title>
<a xlink:href="../../d0/ddd/_sensor_manager_interface_8h.html" target="_top" xlink:title="&quot;SensorManagerInterface&quot; declares the interfaces for all sensor operations that are used for the comm...">
<polygon fill="white" stroke="black" points="428,-99 428,-159 562,-159 562,-99 428,-99"/>
<text text-anchor="start" x="436" y="-146" font-family="Helvetica,sans-Serif" font-size="10.00">/home/kavonszadkowski</text>
<text text-anchor="start" x="436" y="-133" font-family="Helvetica,sans-Serif" font-size="10.00">/limes&#45;dev/simulation</text>
<text text-anchor="start" x="436" y="-120" font-family="Helvetica,sans-Serif" font-size="10.00">/mars/interfaces/src/sim</text>
<text text-anchor="middle" x="495" y="-107" font-family="Helvetica,sans-Serif" font-size="10.00">/SensorManagerInterface.h</text>
</a>
</g>
<!-- Node1&#45;&gt;Node6 -->
<g id="edge10" class="edge"><title>Node1&#45;&gt;Node6</title>
<path fill="none" stroke="midnightblue" d="M352.483,-192.775C377.059,-181.777 404.084,-169.684 427.932,-159.012"/>
<polygon fill="midnightblue" stroke="midnightblue" points="350.894,-189.651 343.196,-196.931 353.753,-196.041 350.894,-189.651"/>
</g>
<!-- Node3 -->
<g id="node5" class="node"><title>Node3</title>
<a xlink:href="../../db/d35/_joint_interface_8h.html" target="_top" xlink:title="/home/kavonszadkowski\l/limes&#45;dev/simulation\l/mars/interfaces/src/sim\l/JointInterface.h">
<polygon fill="white" stroke="black" points="-0.5,-1 -0.5,-61 124.5,-61 124.5,-1 -0.5,-1"/>
<text text-anchor="start" x="7.5" y="-48" font-family="Helvetica,sans-Serif" font-size="10.00">/home/kavonszadkowski</text>
<text text-anchor="start" x="7.5" y="-35" font-family="Helvetica,sans-Serif" font-size="10.00">/limes&#45;dev/simulation</text>
<text text-anchor="start" x="7.5" y="-22" font-family="Helvetica,sans-Serif" font-size="10.00">/mars/interfaces/src/sim</text>
<text text-anchor="middle" x="62" y="-9" font-family="Helvetica,sans-Serif" font-size="10.00">/JointInterface.h</text>
</a>
</g>
<!-- Node2&#45;&gt;Node3 -->
<g id="edge4" class="edge"><title>Node2&#45;&gt;Node3</title>
<path fill="none" stroke="midnightblue" d="M62,-88.6956C62,-79.5273 62,-69.9394 62,-61.2718"/>
<polygon fill="midnightblue" stroke="midnightblue" points="58.5001,-88.7971 62,-98.7971 65.5001,-88.7972 58.5001,-88.7971"/>
</g>
</g>
</svg>
