<?xml version="1.0" encoding="UTF-8" standalone="no"?>
<!DOCTYPE svg PUBLIC "-//W3C//DTD SVG 1.1//EN"
 "http://www.w3.org/Graphics/SVG/1.1/DTD/svg11.dtd">
<!-- Generated by graphviz version 2.36.0 (20140111.2315)
 -->
<!-- Title: /media/kavonszadkowski/work/marsdocs/mars/interfaces/src/sensor_bases.h Pages: 1 -->
<svg width="709pt" height="206pt"
 viewBox="0.00 0.00 709.00 206.00" xmlns="http://www.w3.org/2000/svg" xmlns:xlink="http://www.w3.org/1999/xlink">
<g id="graph0" class="graph" transform="scale(1 1) rotate(0) translate(4 202)">
<title>/media/kavonszadkowski/work/marsdocs/mars/interfaces/src/sensor_bases.h</title>
<polygon fill="white" stroke="none" points="-4,4 -4,-202 705,-202 705,4 -4,4"/>
<!-- Node1 -->
<g id="node1" class="node"><title>Node1</title>
<polygon fill="#bfbfbf" stroke="black" points="266.5,-156.5 266.5,-197.5 423.5,-197.5 423.5,-156.5 266.5,-156.5"/>
<text text-anchor="start" x="274.5" y="-185.5" font-family="Helvetica,sans-Serif" font-size="10.00">/media/kavonszadkowski</text>
<text text-anchor="start" x="274.5" y="-174.5" font-family="Helvetica,sans-Serif" font-size="10.00">/work/marsdocs/mars/interfaces</text>
<text text-anchor="middle" x="345" y="-163.5" font-family="Helvetica,sans-Serif" font-size="10.00">/src/sensor_bases.h</text>
</g>
<!-- Node2 -->
<g id="node2" class="node"><title>Node2</title>
<g id="a_node2"><a xlink:href="../../d0/ddf/_node_interface_8h.html" target="_top" xlink:title="&quot;NodeInterface&quot; declares the interfaces for the Nodes to the physical layer. ">
<polygon fill="white" stroke="black" points="-0.5,-78.5 -0.5,-119.5 156.5,-119.5 156.5,-78.5 -0.5,-78.5"/>
<text text-anchor="start" x="7.5" y="-107.5" font-family="Helvetica,sans-Serif" font-size="10.00">/media/kavonszadkowski</text>
<text text-anchor="start" x="7.5" y="-96.5" font-family="Helvetica,sans-Serif" font-size="10.00">/work/marsdocs/mars/interfaces</text>
<text text-anchor="middle" x="78" y="-85.5" font-family="Helvetica,sans-Serif" font-size="10.00">/src/sim/NodeInterface.h</text>
</a>
</g>
</g>
<!-- Node1&#45;&gt;Node2 -->
<g id="edge1" class="edge"><title>Node1&#45;&gt;Node2</title>
<path fill="none" stroke="midnightblue" d="M266.237,-153.58C228.238,-142.764 183.084,-129.911 146.526,-119.506"/>
<polygon fill="midnightblue" stroke="midnightblue" points="265.665,-157.057 276.241,-156.428 267.581,-150.324 265.665,-157.057"/>
</g>
<!-- Node4 -->
<g id="node4" class="node"><title>Node4</title>
<g id="a_node4"><a xlink:href="../../d1/dd0/_node_manager_interface_8h.html" target="_top" xlink:title="&quot;NodeManagerInterface&quot; declares the interfaces for all NodeOperations that are used for the communica...">
<polygon fill="white" stroke="black" points="175,-78.5 175,-119.5 337,-119.5 337,-78.5 175,-78.5"/>
<text text-anchor="start" x="183" y="-107.5" font-family="Helvetica,sans-Serif" font-size="10.00">/media/kavonszadkowski</text>
<text text-anchor="start" x="183" y="-96.5" font-family="Helvetica,sans-Serif" font-size="10.00">/work/marsdocs/mars/interfaces</text>
<text text-anchor="middle" x="256" y="-85.5" font-family="Helvetica,sans-Serif" font-size="10.00">/src/sim/NodeManagerInterface.h</text>
</a>
</g>
</g>
<!-- Node1&#45;&gt;Node4 -->
<g id="edge3" class="edge"><title>Node1&#45;&gt;Node4</title>
<path fill="none" stroke="midnightblue" d="M314.293,-149.779C302.659,-139.843 289.628,-128.716 278.842,-119.506"/>
<polygon fill="midnightblue" stroke="midnightblue" points="312.203,-152.596 322.08,-156.428 316.749,-147.273 312.203,-152.596"/>
</g>
<!-- Node5 -->
<g id="node5" class="node"><title>Node5</title>
<g id="a_node5"><a xlink:href="../../da/da8/_sensor_interface_8h.html" target="_top" xlink:title="/media/kavonszadkowski\l/work/marsdocs/mars/interfaces\l/src/sim/SensorInterface.h">
<polygon fill="white" stroke="black" points="355.5,-78.5 355.5,-119.5 512.5,-119.5 512.5,-78.5 355.5,-78.5"/>
<text text-anchor="start" x="363.5" y="-107.5" font-family="Helvetica,sans-Serif" font-size="10.00">/media/kavonszadkowski</text>
<text text-anchor="start" x="363.5" y="-96.5" font-family="Helvetica,sans-Serif" font-size="10.00">/work/marsdocs/mars/interfaces</text>
<text text-anchor="middle" x="434" y="-85.5" font-family="Helvetica,sans-Serif" font-size="10.00">/src/sim/SensorInterface.h</text>
</a>
</g>
</g>
<!-- Node1&#45;&gt;Node5 -->
<g id="edge4" class="edge"><title>Node1&#45;&gt;Node5</title>
<path fill="none" stroke="midnightblue" d="M375.707,-149.779C387.341,-139.843 400.372,-128.716 411.158,-119.506"/>
<polygon fill="midnightblue" stroke="midnightblue" points="373.251,-147.273 367.92,-156.428 377.797,-152.596 373.251,-147.273"/>
</g>
<!-- Node6 -->
<g id="node6" class="node"><title>Node6</title>
<g id="a_node6"><a xlink:href="../../d0/ddd/_sensor_manager_interface_8h.html" target="_top" xlink:title="&quot;SensorManagerInterface&quot; declares the interfaces for all sensor operations that are used for the comm...">
<polygon fill="white" stroke="black" points="531,-78.5 531,-119.5 701,-119.5 701,-78.5 531,-78.5"/>
<text text-anchor="start" x="539" y="-107.5" font-family="Helvetica,sans-Serif" font-size="10.00">/media/kavonszadkowski</text>
<text text-anchor="start" x="539" y="-96.5" font-family="Helvetica,sans-Serif" font-size="10.00">/work/marsdocs/mars/interfaces</text>
<text text-anchor="middle" x="616" y="-85.5" font-family="Helvetica,sans-Serif" font-size="10.00">/src/sim/SensorManagerInterface.h</text>
</a>
</g>
</g>
<!-- Node1&#45;&gt;Node6 -->
<g id="edge5" class="edge"><title>Node1&#45;&gt;Node6</title>
<path fill="none" stroke="midnightblue" d="M424.451,-153.718C463.121,-142.874 509.184,-129.956 546.447,-119.506"/>
<polygon fill="midnightblue" stroke="midnightblue" points="423.473,-150.358 414.789,-156.428 425.363,-157.098 423.473,-150.358"/>
</g>
<!-- Node3 -->
<g id="node3" class="node"><title>Node3</title>
<g id="a_node3"><a xlink:href="../../db/d35/_joint_interface_8h.html" target="_top" xlink:title="/media/kavonszadkowski\l/work/marsdocs/mars/interfaces\l/src/sim/JointInterface.h">
<polygon fill="white" stroke="black" points="-0.5,-0.5 -0.5,-41.5 156.5,-41.5 156.5,-0.5 -0.5,-0.5"/>
<text text-anchor="start" x="7.5" y="-29.5" font-family="Helvetica,sans-Serif" font-size="10.00">/media/kavonszadkowski</text>
<text text-anchor="start" x="7.5" y="-18.5" font-family="Helvetica,sans-Serif" font-size="10.00">/work/marsdocs/mars/interfaces</text>
<text text-anchor="middle" x="78" y="-7.5" font-family="Helvetica,sans-Serif" font-size="10.00">/src/sim/JointInterface.h</text>
</a>
</g>
</g>
<!-- Node2&#45;&gt;Node3 -->
<g id="edge2" class="edge"><title>Node2&#45;&gt;Node3</title>
<path fill="none" stroke="midnightblue" d="M78,-68.2965C78,-59.3009 78,-49.6532 78,-41.5056"/>
<polygon fill="midnightblue" stroke="midnightblue" points="74.5001,-68.4281 78,-78.4281 81.5001,-68.4281 74.5001,-68.4281"/>
</g>
</g>
</svg>
