<?xml version="1.0" encoding="UTF-8" standalone="no"?>
<!DOCTYPE svg PUBLIC "-//W3C//DTD SVG 1.1//EN"
 "http://www.w3.org/Graphics/SVG/1.1/DTD/svg11.dtd">
<!-- Generated by graphviz version 2.36.0 (20140111.2315)
 -->
<!-- Title: /media/kavonszadkowski/work/marsdocs/mars/plugins/Plot3D/src/MotorPlotConfig.h Pages: 1 -->
<svg width="315pt" height="118pt"
 viewBox="0.00 0.00 315.00 118.00" xmlns="http://www.w3.org/2000/svg" xmlns:xlink="http://www.w3.org/1999/xlink">
<g id="graph0" class="graph" transform="scale(1 1) rotate(0) translate(4 114)">
<title>/media/kavonszadkowski/work/marsdocs/mars/plugins/Plot3D/src/MotorPlotConfig.h</title>
<polygon fill="white" stroke="none" points="-4,4 -4,-114 311,-114 311,4 -4,4"/>
<!-- Node1 -->
<g id="node1" class="node"><title>Node1</title>
<polygon fill="#bfbfbf" stroke="black" points="103,-68.5 103,-109.5 251,-109.5 251,-68.5 103,-68.5"/>
<text text-anchor="start" x="111" y="-97.5" font-family="Helvetica,sans-Serif" font-size="10.00">/media/kavonszadkowski</text>
<text text-anchor="start" x="111" y="-86.5" font-family="Helvetica,sans-Serif" font-size="10.00">/work/marsdocs/mars/plugins</text>
<text text-anchor="middle" x="177" y="-75.5" font-family="Helvetica,sans-Serif" font-size="10.00">/Plot3D/src/MotorPlotConfig.h</text>
</g>
<!-- Node2 -->
<g id="node2" class="node"><title>Node2</title>
<polygon fill="white" stroke="#bfbfbf" points="-0.5,-1 -0.5,-31 102.5,-31 102.5,-1 -0.5,-1"/>
<text text-anchor="start" x="7.5" y="-19" font-family="Helvetica,sans-Serif" font-size="10.00">mars/interfaces/sim</text>
<text text-anchor="middle" x="51" y="-8" font-family="Helvetica,sans-Serif" font-size="10.00">/ControlCenter.h</text>
</g>
<!-- Node1&#45;&gt;Node2 -->
<g id="edge1" class="edge"><title>Node1&#45;&gt;Node2</title>
<path fill="none" stroke="midnightblue" d="M142.236,-68.411C124.372,-58.3444 102.688,-46.1257 84.9426,-36.1264"/>
<polygon fill="midnightblue" stroke="midnightblue" points="86.4933,-32.9828 76.063,-31.1228 83.0569,-39.0813 86.4933,-32.9828"/>
</g>
<!-- Node3 -->
<g id="node3" class="node"><title>Node3</title>
<polygon fill="white" stroke="#bfbfbf" points="121,-6.5 121,-25.5 165,-25.5 165,-6.5 121,-6.5"/>
<text text-anchor="middle" x="143" y="-13.5" font-family="Helvetica,sans-Serif" font-size="10.00">vector</text>
</g>
<!-- Node1&#45;&gt;Node3 -->
<g id="edge2" class="edge"><title>Node1&#45;&gt;Node3</title>
<path fill="none" stroke="midnightblue" d="M167.529,-68.2225C162.519,-57.7594 156.415,-45.0128 151.549,-34.8526"/>
<polygon fill="midnightblue" stroke="midnightblue" points="154.659,-33.2424 147.183,-25.7349 148.345,-36.2658 154.659,-33.2424"/>
</g>
<!-- Node4 -->
<g id="node4" class="node"><title>Node4</title>
<polygon fill="white" stroke="#bfbfbf" points="183.5,-6.5 183.5,-25.5 238.5,-25.5 238.5,-6.5 183.5,-6.5"/>
<text text-anchor="middle" x="211" y="-13.5" font-family="Helvetica,sans-Serif" font-size="10.00">QWidget</text>
</g>
<!-- Node1&#45;&gt;Node4 -->
<g id="edge3" class="edge"><title>Node1&#45;&gt;Node4</title>
<path fill="none" stroke="midnightblue" d="M186.471,-68.2225C191.481,-57.7594 197.585,-45.0128 202.451,-34.8526"/>
<polygon fill="midnightblue" stroke="midnightblue" points="205.655,-36.2658 206.817,-25.7349 199.341,-33.2424 205.655,-36.2658"/>
</g>
<!-- Node5 -->
<g id="node5" class="node"><title>Node5</title>
<polygon fill="white" stroke="#bfbfbf" points="257,-6.5 257,-25.5 307,-25.5 307,-6.5 257,-6.5"/>
<text text-anchor="middle" x="282" y="-13.5" font-family="Helvetica,sans-Serif" font-size="10.00">QString</text>
</g>
<!-- Node1&#45;&gt;Node5 -->
<g id="edge4" class="edge"><title>Node1&#45;&gt;Node5</title>
<path fill="none" stroke="midnightblue" d="M205.97,-68.411C223.324,-56.6763 245.003,-42.0171 260.766,-31.3581"/>
<polygon fill="midnightblue" stroke="midnightblue" points="262.963,-34.0978 269.286,-25.5968 259.042,-28.299 262.963,-34.0978"/>
</g>
</g>
</svg>
