<?xml version="1.0" encoding="UTF-8" standalone="no"?>
<!DOCTYPE svg PUBLIC "-//W3C//DTD SVG 1.1//EN"
 "http://www.w3.org/Graphics/SVG/1.1/DTD/svg11.dtd">
<!-- Generated by graphviz version 2.26.3 (20100126.1600)
 -->
<!-- Title: /home/kavonszadkowski/limes&#45;dev/simulation/mars/plugins/mars_plugin_collection/cave_movie_control/src/CaveMovieControl.h Pages: 1 -->
<svg width="868pt" height="212pt"
 viewBox="0.00 0.00 868.00 212.00" xmlns="http://www.w3.org/2000/svg" xmlns:xlink="http://www.w3.org/1999/xlink">
<g id="graph1" class="graph" transform="scale(1 1) rotate(0) translate(4 208)">
<title>/home/kavonszadkowski/limes&#45;dev/simulation/mars/plugins/mars_plugin_collection/cave_movie_control/src/CaveMovieControl.h</title>
<polygon fill="white" stroke="white" points="-4,5 -4,-208 865,-208 865,5 -4,5"/>
<!-- Node1 -->
<g id="node1" class="node"><title>Node1</title>
<polygon fill="#bfbfbf" stroke="black" points="186.5,-130.5 186.5,-203.5 339.5,-203.5 339.5,-130.5 186.5,-130.5"/>
<text text-anchor="start" x="194.5" y="-190.5" font-family="Helvetica,sans-Serif" font-size="10.00">/home/kavonszadkowski</text>
<text text-anchor="start" x="194.5" y="-177.5" font-family="Helvetica,sans-Serif" font-size="10.00">/limes&#45;dev/simulation</text>
<text text-anchor="start" x="194.5" y="-164.5" font-family="Helvetica,sans-Serif" font-size="10.00">/mars/plugins/mars_plugin</text>
<text text-anchor="start" x="194.5" y="-151.5" font-family="Helvetica,sans-Serif" font-size="10.00">_collection/cave_movie_control</text>
<text text-anchor="middle" x="263" y="-138.5" font-family="Helvetica,sans-Serif" font-size="10.00">/src/CaveMovieControl.h</text>
</g>
<!-- Node2 -->
<g id="node3" class="node"><title>Node2</title>
<polygon fill="white" stroke="#bfbfbf" points="-0.5,-59 -0.5,-93 116.5,-93 116.5,-59 -0.5,-59"/>
<text text-anchor="start" x="7.5" y="-80" font-family="Helvetica,sans-Serif" font-size="10.00">mars/interfaces/sim</text>
<text text-anchor="middle" x="58" y="-67" font-family="Helvetica,sans-Serif" font-size="10.00">/MarsPluginTemplate.h</text>
</g>
<!-- Node1&#45;&gt;Node2 -->
<g id="edge2" class="edge"><title>Node1&#45;&gt;Node2</title>
<path fill="none" stroke="midnightblue" d="M186.374,-132.986C159.267,-120.952 129.576,-107.773 105.582,-97.1218"/>
<polygon fill="midnightblue" stroke="midnightblue" points="106.908,-93.8809 96.3475,-93.0226 104.067,-100.279 106.908,-93.8809"/>
</g>
<!-- Node3 -->
<g id="node5" class="node"><title>Node3</title>
<polygon fill="white" stroke="#bfbfbf" points="134,-65.5 134,-86.5 288,-86.5 288,-65.5 134,-65.5"/>
<text text-anchor="middle" x="211" y="-73.5" font-family="Helvetica,sans-Serif" font-size="10.00">mars/main_gui/MenuInterface.h</text>
</g>
<!-- Node1&#45;&gt;Node3 -->
<g id="edge4" class="edge"><title>Node1&#45;&gt;Node3</title>
<path fill="none" stroke="midnightblue" d="M241.999,-130.249C235.164,-118.287 227.85,-105.487 222.043,-95.3255"/>
<polygon fill="midnightblue" stroke="midnightblue" points="225.003,-93.4514 217.003,-86.5055 218.926,-96.9245 225.003,-93.4514"/>
</g>
<!-- Node4 -->
<g id="node7" class="node"><title>Node4</title>
<polygon fill="white" stroke="#bfbfbf" points="163.5,-0.5 163.5,-21.5 212.5,-21.5 212.5,-0.5 163.5,-0.5"/>
<text text-anchor="middle" x="188" y="-8.5" font-family="Helvetica,sans-Serif" font-size="10.00">string.h</text>
</g>
<!-- Node1&#45;&gt;Node4 -->
<g id="edge6" class="edge"><title>Node1&#45;&gt;Node4</title>
<path fill="none" stroke="midnightblue" d="M289.325,-130.441C301.891,-108.157 311.38,-79.8605 297,-58 292.542,-51.2226 252.331,-35.0016 222.036,-23.5179"/>
<polygon fill="midnightblue" stroke="midnightblue" points="223.198,-20.2158 212.606,-19.9739 220.735,-26.7683 223.198,-20.2158"/>
</g>
<!-- Node5 -->
<g id="node9" class="node"><title>Node5</title>
<a xlink:href="../../db/d17/cave__movie__control_2src_2_my_sock_8h.html" target="_top" xlink:title="MySock.h">
<polygon fill="white" stroke="black" points="471.5,-65.5 471.5,-86.5 532.5,-86.5 532.5,-65.5 471.5,-65.5"/>
<text text-anchor="middle" x="502" y="-73.5" font-family="Helvetica,sans-Serif" font-size="10.00">MySock.h</text>
</a>
</g>
<!-- Node1&#45;&gt;Node5 -->
<g id="edge8" class="edge"><title>Node1&#45;&gt;Node5</title>
<path fill="none" stroke="midnightblue" d="M339.607,-137.832C381.486,-121.886 431.468,-102.855 464.815,-90.1582"/>
<polygon fill="midnightblue" stroke="midnightblue" points="466.08,-93.4217 474.181,-86.5924 463.59,-86.8798 466.08,-93.4217"/>
</g>
<!-- Node5&#45;&gt;Node4 -->
<g id="edge24" class="edge"><title>Node5&#45;&gt;Node4</title>
<path fill="none" stroke="midnightblue" d="M471.35,-71.4686C421.11,-63.7493 318.017,-46.6879 222.566,-22.1931"/>
<polygon fill="midnightblue" stroke="midnightblue" points="223.32,-18.7729 212.761,-19.6432 221.558,-25.5475 223.32,-18.7729"/>
</g>
<!-- Node6 -->
<g id="node11" class="node"><title>Node6</title>
<polygon fill="white" stroke="#bfbfbf" points="230,-0.5 230,-21.5 276,-21.5 276,-0.5 230,-0.5"/>
<text text-anchor="middle" x="253" y="-8.5" font-family="Helvetica,sans-Serif" font-size="10.00">dlfcn.h</text>
</g>
<!-- Node5&#45;&gt;Node6 -->
<g id="edge10" class="edge"><title>Node5&#45;&gt;Node6</title>
<path fill="none" stroke="midnightblue" d="M471.227,-69.2326C430.778,-60.1442 357.368,-42.9864 285.948,-22.1198"/>
<polygon fill="midnightblue" stroke="midnightblue" points="286.925,-18.7589 276.343,-19.2871 284.944,-25.473 286.925,-18.7589"/>
</g>
<!-- Node7 -->
<g id="node13" class="node"><title>Node7</title>
<polygon fill="white" stroke="#bfbfbf" points="294,-0.5 294,-21.5 362,-21.5 362,-0.5 294,-0.5"/>
<text text-anchor="middle" x="328" y="-8.5" font-family="Helvetica,sans-Serif" font-size="10.00">sys/types.h</text>
</g>
<!-- Node5&#45;&gt;Node7 -->
<g id="edge12" class="edge"><title>Node5&#45;&gt;Node7</title>
<path fill="none" stroke="midnightblue" d="M473.657,-65.412C444.334,-54.458 398.37,-37.2878 365.931,-25.1696"/>
<polygon fill="midnightblue" stroke="midnightblue" points="366.924,-21.8043 356.331,-21.5835 364.474,-28.3617 366.924,-21.8043"/>
</g>
<!-- Node8 -->
<g id="node15" class="node"><title>Node8</title>
<polygon fill="white" stroke="#bfbfbf" points="379.5,-0.5 379.5,-21.5 452.5,-21.5 452.5,-0.5 379.5,-0.5"/>
<text text-anchor="middle" x="416" y="-8.5" font-family="Helvetica,sans-Serif" font-size="10.00">sys/socket.h</text>
</g>
<!-- Node5&#45;&gt;Node8 -->
<g id="edge14" class="edge"><title>Node5&#45;&gt;Node8</title>
<path fill="none" stroke="midnightblue" d="M487.799,-65.2666C474.274,-55.0441 453.713,-39.5043 438.056,-27.6699"/>
<polygon fill="midnightblue" stroke="midnightblue" points="440.025,-24.7712 429.937,-21.5337 435.804,-30.3556 440.025,-24.7712"/>
</g>
<!-- Node9 -->
<g id="node17" class="node"><title>Node9</title>
<polygon fill="white" stroke="#bfbfbf" points="469.5,-0.5 469.5,-21.5 534.5,-21.5 534.5,-0.5 469.5,-0.5"/>
<text text-anchor="middle" x="502" y="-8.5" font-family="Helvetica,sans-Serif" font-size="10.00">netinet/in.h</text>
</g>
<!-- Node5&#45;&gt;Node9 -->
<g id="edge16" class="edge"><title>Node5&#45;&gt;Node9</title>
<path fill="none" stroke="midnightblue" d="M502,-65.2666C502,-56.1799 502,-42.8919 502,-31.7395"/>
<polygon fill="midnightblue" stroke="midnightblue" points="505.5,-31.5337 502,-21.5337 498.5,-31.5337 505.5,-31.5337"/>
</g>
<!-- Node10 -->
<g id="node19" class="node"><title>Node10</title>
<polygon fill="white" stroke="#bfbfbf" points="551.5,-0.5 551.5,-21.5 602.5,-21.5 602.5,-0.5 551.5,-0.5"/>
<text text-anchor="middle" x="577" y="-8.5" font-family="Helvetica,sans-Serif" font-size="10.00">unistd.h</text>
</g>
<!-- Node5&#45;&gt;Node10 -->
<g id="edge18" class="edge"><title>Node5&#45;&gt;Node10</title>
<path fill="none" stroke="midnightblue" d="M514.385,-65.2666C525.962,-55.2334 543.448,-40.078 557.003,-28.3311"/>
<polygon fill="midnightblue" stroke="midnightblue" points="559.581,-30.728 564.846,-21.5337 554.997,-25.4381 559.581,-30.728"/>
</g>
<!-- Node11 -->
<g id="node21" class="node"><title>Node11</title>
<polygon fill="white" stroke="#bfbfbf" points="619.5,-0.5 619.5,-21.5 668.5,-21.5 668.5,-0.5 619.5,-0.5"/>
<text text-anchor="middle" x="644" y="-8.5" font-family="Helvetica,sans-Serif" font-size="10.00">netdb.h</text>
</g>
<!-- Node5&#45;&gt;Node11 -->
<g id="edge20" class="edge"><title>Node5&#45;&gt;Node11</title>
<path fill="none" stroke="midnightblue" d="M525.131,-65.412C548.648,-54.6468 585.282,-37.878 611.666,-25.8009"/>
<polygon fill="midnightblue" stroke="midnightblue" points="613.243,-28.9281 620.879,-21.5835 610.33,-22.5633 613.243,-28.9281"/>
</g>
<!-- Node12 -->
<g id="node23" class="node"><title>Node12</title>
<polygon fill="white" stroke="#bfbfbf" points="686,-0.5 686,-21.5 730,-21.5 730,-0.5 686,-0.5"/>
<text text-anchor="middle" x="708" y="-8.5" font-family="Helvetica,sans-Serif" font-size="10.00">fcntl.h</text>
</g>
<!-- Node5&#45;&gt;Node12 -->
<g id="edge22" class="edge"><title>Node5&#45;&gt;Node12</title>
<path fill="none" stroke="midnightblue" d="M532.787,-66.9232C565.921,-57.0619 620.378,-40.5882 676.022,-22.2441"/>
<polygon fill="midnightblue" stroke="midnightblue" points="677.295,-25.5095 685.687,-19.0425 675.094,-18.8645 677.295,-25.5095"/>
</g>
<!-- Node13 -->
<g id="node26" class="node"><title>Node13</title>
<polygon fill="white" stroke="#bfbfbf" points="748,-0.5 748,-21.5 796,-21.5 796,-0.5 748,-0.5"/>
<text text-anchor="middle" x="772" y="-8.5" font-family="Helvetica,sans-Serif" font-size="10.00">stdlib.h</text>
</g>
<!-- Node5&#45;&gt;Node13 -->
<g id="edge26" class="edge"><title>Node5&#45;&gt;Node13</title>
<path fill="none" stroke="midnightblue" d="M532.542,-70.0367C576.14,-61.3091 658.857,-43.9544 738.268,-22.0214"/>
<polygon fill="midnightblue" stroke="midnightblue" points="739.242,-25.3834 747.933,-19.3242 737.361,-18.641 739.242,-25.3834"/>
</g>
<!-- Node14 -->
<g id="node28" class="node"><title>Node14</title>
<polygon fill="white" stroke="#bfbfbf" points="814,-0.5 814,-21.5 860,-21.5 860,-0.5 814,-0.5"/>
<text text-anchor="middle" x="837" y="-8.5" font-family="Helvetica,sans-Serif" font-size="10.00">stdio.h</text>
</g>
<!-- Node5&#45;&gt;Node14 -->
<g id="edge28" class="edge"><title>Node5&#45;&gt;Node14</title>
<path fill="none" stroke="midnightblue" d="M532.874,-72.1069C586.381,-65.0154 699.844,-48.4598 803.984,-21.9816"/>
<polygon fill="midnightblue" stroke="midnightblue" points="804.9,-25.3601 813.709,-19.4728 803.151,-18.5821 804.9,-25.3601"/>
</g>
</g>
</svg>
