<?xml version="1.0" encoding="UTF-8" standalone="no"?>
<!DOCTYPE svg PUBLIC "-//W3C//DTD SVG 1.1//EN"
 "http://www.w3.org/Graphics/SVG/1.1/DTD/svg11.dtd">
<!-- Generated by graphviz version 2.36.0 (20140111.2315)
 -->
<!-- Title: mars::sim::EntityManager Pages: 1 -->
<svg width="277pt" height="96pt"
 viewBox="0.00 0.00 277.00 96.00" xmlns="http://www.w3.org/2000/svg" xmlns:xlink="http://www.w3.org/1999/xlink">
<g id="graph0" class="graph" transform="scale(1 1) rotate(0) translate(4 92)">
<title>mars::sim::EntityManager</title>
<polygon fill="white" stroke="none" points="-4,4 -4,-92 273,-92 273,4 -4,4"/>
<!-- Node1 -->
<g id="node1" class="node"><title>Node1</title>
<polygon fill="#bfbfbf" stroke="black" points="73.5,-0.5 73.5,-19.5 202.5,-19.5 202.5,-0.5 73.5,-0.5"/>
<text text-anchor="middle" x="138" y="-7.5" font-family="Helvetica,sans-Serif" font-size="10.00">mars::sim::EntityManager</text>
</g>
<!-- Node2 -->
<g id="node2" class="node"><title>Node2</title>
<g id="a_node2"><a xlink:href="../../d8/d0b/classmars_1_1interfaces_1_1_graphics_event_client.html" target="_top" xlink:title="mars::interfaces::Graphics\lEventClient">
<polygon fill="white" stroke="black" points="0,-57 0,-87 132,-87 132,-57 0,-57"/>
<text text-anchor="start" x="8" y="-75" font-family="Helvetica,sans-Serif" font-size="10.00">mars::interfaces::Graphics</text>
<text text-anchor="middle" x="66" y="-64" font-family="Helvetica,sans-Serif" font-size="10.00">EventClient</text>
</a>
</g>
</g>
<!-- Node2&#45;&gt;Node1 -->
<g id="edge1" class="edge"><title>Node2&#45;&gt;Node1</title>
<path fill="none" stroke="midnightblue" d="M90.9358,-50.2202C103.46,-39.7831 117.964,-27.6968 127.523,-19.7305"/>
<polygon fill="midnightblue" stroke="midnightblue" points="88.5046,-47.6902 83.063,-56.7808 92.9859,-53.0677 88.5046,-47.6902"/>
</g>
<!-- Node3 -->
<g id="node3" class="node"><title>Node3</title>
<g id="a_node3"><a xlink:href="../../df/d82/classmars_1_1interfaces_1_1_entity_manager_interface.html" target="_top" xlink:title="mars::interfaces::Entity\lManagerInterface">
<polygon fill="white" stroke="black" points="150.5,-57 150.5,-87 269.5,-87 269.5,-57 150.5,-57"/>
<text text-anchor="start" x="158.5" y="-75" font-family="Helvetica,sans-Serif" font-size="10.00">mars::interfaces::Entity</text>
<text text-anchor="middle" x="210" y="-64" font-family="Helvetica,sans-Serif" font-size="10.00">ManagerInterface</text>
</a>
</g>
</g>
<!-- Node3&#45;&gt;Node1 -->
<g id="edge2" class="edge"><title>Node3&#45;&gt;Node1</title>
<path fill="none" stroke="midnightblue" d="M185.064,-50.2202C172.54,-39.7831 158.036,-27.6968 148.477,-19.7305"/>
<polygon fill="midnightblue" stroke="midnightblue" points="183.014,-53.0677 192.937,-56.7808 187.495,-47.6902 183.014,-53.0677"/>
</g>
</g>
</svg>
