<?xml version="1.0" encoding="UTF-8" standalone="no"?>
<!DOCTYPE svg PUBLIC "-//W3C//DTD SVG 1.1//EN"
 "http://www.w3.org/Graphics/SVG/1.1/DTD/svg11.dtd">
<!-- Generated by graphviz version 2.36.0 (20140111.2315)
 -->
<!-- Title: mars::cfg_manager_gui::MainCfgGui Pages: 1 -->
<svg width="768pt" height="559pt"
 viewBox="0.00 0.00 768.00 559.00" xmlns="http://www.w3.org/2000/svg" xmlns:xlink="http://www.w3.org/1999/xlink">
<g id="graph0" class="graph" transform="scale(1 1) rotate(0) translate(4 555)">
<title>mars::cfg_manager_gui::MainCfgGui</title>
<polygon fill="white" stroke="none" points="-4,4 -4,-555 764,-555 764,4 -4,4"/>
<!-- Node1 -->
<g id="node1" class="node"><title>Node1</title>
<polygon fill="#bfbfbf" stroke="black" points="416.5,-386 416.5,-416 535.5,-416 535.5,-386 416.5,-386"/>
<text text-anchor="start" x="424.5" y="-404" font-family="Helvetica,sans-Serif" font-size="10.00">mars::cfg_manager_gui</text>
<text text-anchor="middle" x="476" y="-393" font-family="Helvetica,sans-Serif" font-size="10.00">::MainCfgGui</text>
</g>
<!-- Node9 -->
<g id="node9" class="node"><title>Node9</title>
<g id="a_node9"><a xlink:href="../../df/d3f/classmars_1_1cfg__manager__gui_1_1_cfg_widget.html" target="_top" xlink:title="mars::cfg_manager_gui\l::CfgWidget">
<polygon fill="white" stroke="black" points="640.5,-149 640.5,-179 759.5,-179 759.5,-149 640.5,-149"/>
<text text-anchor="start" x="648.5" y="-167" font-family="Helvetica,sans-Serif" font-size="10.00">mars::cfg_manager_gui</text>
<text text-anchor="middle" x="700" y="-156" font-family="Helvetica,sans-Serif" font-size="10.00">::CfgWidget</text>
</a>
</g>
</g>
<!-- Node1&#45;&gt;Node9 -->
<g id="edge17" class="edge"><title>Node1&#45;&gt;Node9</title>
<path fill="none" stroke="#9a32cd" stroke-dasharray="5,2" d="M492.437,-377.543C509.241,-352.724 537.535,-312.948 566,-282 602.987,-241.786 652.407,-200.772 679.387,-179.287"/>
<polygon fill="#9a32cd" stroke="#9a32cd" points="489.451,-375.712 486.787,-385.966 495.264,-379.611 489.451,-375.712"/>
<text text-anchor="middle" x="594" y="-285" font-family="Helvetica,sans-Serif" font-size="10.00"> mainCfgGui</text>
</g>
<!-- Node2 -->
<g id="node2" class="node"><title>Node2</title>
<polygon fill="white" stroke="#bfbfbf" points="187.5,-531.5 187.5,-550.5 240.5,-550.5 240.5,-531.5 187.5,-531.5"/>
<text text-anchor="middle" x="214" y="-538.5" font-family="Helvetica,sans-Serif" font-size="10.00">QObject</text>
</g>
<!-- Node2&#45;&gt;Node1 -->
<g id="edge1" class="edge"><title>Node2&#45;&gt;Node1</title>
<path fill="none" stroke="midnightblue" d="M250.611,-538.061C286.874,-533.744 343.636,-523.243 386,-498 421.34,-476.942 450.984,-437.542 465.47,-416.003"/>
<polygon fill="midnightblue" stroke="midnightblue" points="250.065,-534.599 240.505,-539.166 250.826,-541.558 250.065,-534.599"/>
</g>
<!-- Node3 -->
<g id="node3" class="node"><title>Node3</title>
<polygon fill="white" stroke="#bfbfbf" points="0,-417.5 0,-436.5 68,-436.5 68,-417.5 0,-417.5"/>
<text text-anchor="middle" x="34" y="-424.5" font-family="Helvetica,sans-Serif" font-size="10.00">LibInterface</text>
</g>
<!-- Node3&#45;&gt;Node1 -->
<g id="edge2" class="edge"><title>Node3&#45;&gt;Node1</title>
<path fill="none" stroke="midnightblue" d="M78.5196,-425.626C144.902,-423.363 275.409,-418.264 386,-410 395.757,-409.271 406.101,-408.356 416.154,-407.39"/>
<polygon fill="midnightblue" stroke="midnightblue" points="78.3061,-422.131 68.4292,-425.964 78.5411,-429.127 78.3061,-422.131"/>
</g>
<!-- Node8 -->
<g id="node8" class="node"><title>Node8</title>
<g id="a_node8"><a xlink:href="../../d4/da6/classmars_1_1cfg__manager_1_1_c_f_g_manager_interface.html" target="_top" xlink:title="mars::cfg_manager::\lCFGManagerInterface">
<polygon fill="white" stroke="black" points="157.5,-368 157.5,-398 270.5,-398 270.5,-368 157.5,-368"/>
<text text-anchor="start" x="165.5" y="-386" font-family="Helvetica,sans-Serif" font-size="10.00">mars::cfg_manager::</text>
<text text-anchor="middle" x="214" y="-375" font-family="Helvetica,sans-Serif" font-size="10.00">CFGManagerInterface</text>
</a>
</g>
</g>
<!-- Node3&#45;&gt;Node8 -->
<g id="edge8" class="edge"><title>Node3&#45;&gt;Node8</title>
<path fill="none" stroke="midnightblue" d="M77.974,-415.085C80.6873,-414.369 83.3797,-413.669 86,-413 109.269,-407.06 135.042,-400.896 157.256,-395.711"/>
<polygon fill="midnightblue" stroke="midnightblue" points="76.9041,-411.748 68.1491,-417.715 78.714,-418.51 76.9041,-411.748"/>
</g>
<!-- Node15 -->
<g id="node15" class="node"><title>Node15</title>
<g id="a_node15"><a xlink:href="../../d7/df2/classmars_1_1main__gui_1_1_gui_interface.html" target="_top" xlink:title="The abstract GuiInterface class provides the menu and docking functionality of the GUI...">
<polygon fill="white" stroke="black" points="142.5,-455.5 142.5,-474.5 285.5,-474.5 285.5,-455.5 142.5,-455.5"/>
<text text-anchor="middle" x="214" y="-462.5" font-family="Helvetica,sans-Serif" font-size="10.00">mars::main_gui::GuiInterface</text>
</a>
</g>
</g>
<!-- Node3&#45;&gt;Node15 -->
<g id="edge22" class="edge"><title>Node3&#45;&gt;Node15</title>
<path fill="none" stroke="midnightblue" d="M77.9401,-439.055C80.6617,-439.736 83.3653,-440.39 86,-441 109.173,-446.361 134.93,-451.397 157.158,-455.458"/>
<polygon fill="midnightblue" stroke="midnightblue" points="78.6541,-435.624 68.0959,-436.504 76.8985,-442.4 78.6541,-435.624"/>
</g>
<!-- Node4 -->
<g id="node4" class="node"><title>Node4</title>
<g id="a_node4"><a xlink:href="../../d3/d52/classmars_1_1main__gui_1_1_menu_interface.html" target="_top" xlink:title="Provides the menuAction function. ">
<polygon fill="white" stroke="black" points="138,-493.5 138,-512.5 290,-512.5 290,-493.5 138,-493.5"/>
<text text-anchor="middle" x="214" y="-500.5" font-family="Helvetica,sans-Serif" font-size="10.00">mars::main_gui::MenuInterface</text>
</a>
</g>
</g>
<!-- Node4&#45;&gt;Node1 -->
<g id="edge3" class="edge"><title>Node4&#45;&gt;Node1</title>
<path fill="none" stroke="midnightblue" d="M300.437,-495.935C328.584,-491.429 359.455,-484.057 386,-472 415.874,-458.431 444.427,-432.606 460.811,-416.125"/>
<polygon fill="midnightblue" stroke="midnightblue" points="299.574,-492.525 290.203,-497.468 300.611,-499.448 299.574,-492.525"/>
</g>
<!-- Node5 -->
<g id="node5" class="node"><title>Node5</title>
<g id="a_node5"><a xlink:href="../../d4/d1a/classmars_1_1cfg__manager_1_1_c_f_g_client.html" target="_top" xlink:title="mars::cfg_manager::\lCFGClient">
<polygon fill="white" stroke="black" points="160.5,-174 160.5,-204 267.5,-204 267.5,-174 160.5,-174"/>
<text text-anchor="start" x="168.5" y="-192" font-family="Helvetica,sans-Serif" font-size="10.00">mars::cfg_manager::</text>
<text text-anchor="middle" x="214" y="-181" font-family="Helvetica,sans-Serif" font-size="10.00">CFGClient</text>
</a>
</g>
</g>
<!-- Node5&#45;&gt;Node1 -->
<g id="edge4" class="edge"><title>Node5&#45;&gt;Node1</title>
<path fill="none" stroke="midnightblue" d="M277.619,-179.474C312.495,-177.533 355,-181.101 386,-203 449.103,-247.578 468.214,-347.729 473.324,-385.864"/>
<polygon fill="midnightblue" stroke="midnightblue" points="277.256,-175.991 267.532,-180.198 277.757,-182.973 277.256,-175.991"/>
</g>
<!-- Node10 -->
<g id="node10" class="node"><title>Node10</title>
<g id="a_node10"><a xlink:href="../../d4/dcf/classmars_1_1main__gui_1_1_base_widget.html" target="_top" xlink:title="mars::main_gui::BaseWidget">
<polygon fill="white" stroke="black" points="404.5,-154.5 404.5,-173.5 547.5,-173.5 547.5,-154.5 404.5,-154.5"/>
<text text-anchor="middle" x="476" y="-161.5" font-family="Helvetica,sans-Serif" font-size="10.00">mars::main_gui::BaseWidget</text>
</a>
</g>
</g>
<!-- Node5&#45;&gt;Node10 -->
<g id="edge12" class="edge"><title>Node5&#45;&gt;Node10</title>
<path fill="none" stroke="midnightblue" d="M277.625,-181.297C287.773,-180.134 298.173,-178.993 308,-178 339.553,-174.812 374.512,-171.801 404.256,-169.394"/>
<polygon fill="midnightblue" stroke="midnightblue" points="277.121,-177.832 267.592,-182.463 277.929,-184.785 277.121,-177.832"/>
</g>
<!-- Node6 -->
<g id="node6" class="node"><title>Node6</title>
<g id="a_node6"><a xlink:href="../../dc/dc3/structmars_1_1cfg__manager_1_1cfg_property_struct.html" target="_top" xlink:title="mars::cfg_manager::\lcfgPropertyStruct">
<polygon fill="white" stroke="black" points="160.5,-223 160.5,-253 267.5,-253 267.5,-223 160.5,-223"/>
<text text-anchor="start" x="168.5" y="-241" font-family="Helvetica,sans-Serif" font-size="10.00">mars::cfg_manager::</text>
<text text-anchor="middle" x="214" y="-230" font-family="Helvetica,sans-Serif" font-size="10.00">cfgPropertyStruct</text>
</a>
</g>
</g>
<!-- Node6&#45;&gt;Node1 -->
<g id="edge5" class="edge"><title>Node6&#45;&gt;Node1</title>
<path fill="none" stroke="#9a32cd" stroke-dasharray="5,2" d="M238.689,-260.225C256.656,-276.209 282.529,-297.428 308,-312 340.239,-330.444 352.991,-324.971 386,-342 410.877,-354.834 437.372,-373.055 454.92,-385.843"/>
<polygon fill="#9a32cd" stroke="#9a32cd" points="240.785,-257.401 231.02,-253.292 236.091,-262.594 240.785,-257.401"/>
<text text-anchor="middle" x="347" y="-378" font-family="Helvetica,sans-Serif" font-size="10.00"> cfgW_width</text>
<text text-anchor="middle" x="347" y="-367" font-family="Helvetica,sans-Serif" font-size="10.00">cfgW_top</text>
<text text-anchor="middle" x="347" y="-356" font-family="Helvetica,sans-Serif" font-size="10.00">cfgW_left</text>
<text text-anchor="middle" x="347" y="-345" font-family="Helvetica,sans-Serif" font-size="10.00">cfgW_height</text>
</g>
<!-- Node6&#45;&gt;Node10 -->
<g id="edge13" class="edge"><title>Node6&#45;&gt;Node10</title>
<path fill="none" stroke="#9a32cd" stroke-dasharray="5,2" d="M277.32,-220.263C328.852,-205.596 400.059,-185.329 441.451,-173.549"/>
<polygon fill="#9a32cd" stroke="#9a32cd" points="276.275,-216.921 267.615,-223.025 278.191,-223.654 276.275,-216.921"/>
<text text-anchor="middle" x="347" y="-257" font-family="Helvetica,sans-Serif" font-size="10.00"> wTop</text>
<text text-anchor="middle" x="347" y="-246" font-family="Helvetica,sans-Serif" font-size="10.00">wWidth</text>
<text text-anchor="middle" x="347" y="-235" font-family="Helvetica,sans-Serif" font-size="10.00">wHeight</text>
<text text-anchor="middle" x="347" y="-224" font-family="Helvetica,sans-Serif" font-size="10.00">wLeft</text>
<text text-anchor="middle" x="347" y="-213" font-family="Helvetica,sans-Serif" font-size="10.00">hidden</text>
</g>
<!-- Node7 -->
<g id="node7" class="node"><title>Node7</title>
<polygon fill="white" stroke="#bfbfbf" points="13.5,-138.5 13.5,-157.5 54.5,-157.5 54.5,-138.5 13.5,-138.5"/>
<text text-anchor="middle" x="34" y="-145.5" font-family="Helvetica,sans-Serif" font-size="10.00">string</text>
</g>
<!-- Node7&#45;&gt;Node6 -->
<g id="edge6" class="edge"><title>Node7&#45;&gt;Node6</title>
<path fill="none" stroke="#9a32cd" stroke-dasharray="5,2" d="M56.2535,-163.563C76.4924,-177.852 108.203,-198.887 138,-213 145.691,-216.643 154.055,-219.987 162.316,-222.965"/>
<polygon fill="#9a32cd" stroke="#9a32cd" points="58.2355,-160.677 48.0656,-157.707 54.1633,-166.371 58.2355,-160.677"/>
<text text-anchor="middle" x="103" y="-206" font-family="Helvetica,sans-Serif" font-size="10.00"> sValue</text>
</g>
<!-- Node7&#45;&gt;Node10 -->
<g id="edge15" class="edge"><title>Node7&#45;&gt;Node10</title>
<path fill="none" stroke="#9a32cd" stroke-dasharray="5,2" d="M64.2778,-135.935C84.5767,-128.242 112.448,-118.993 138,-115 204.745,-104.569 223.01,-106.279 290,-115 347.329,-122.463 412.192,-142.418 447.862,-154.436"/>
<polygon fill="#9a32cd" stroke="#9a32cd" points="62.7352,-132.779 54.6854,-139.668 65.274,-139.303 62.7352,-132.779"/>
<text text-anchor="middle" x="214" y="-118" font-family="Helvetica,sans-Serif" font-size="10.00"> widgetName</text>
</g>
<!-- Node8&#45;&gt;Node1 -->
<g id="edge7" class="edge"><title>Node8&#45;&gt;Node1</title>
<path fill="none" stroke="#9a32cd" stroke-dasharray="5,2" d="M280.83,-387.557C322.497,-390.442 375.903,-394.139 416.156,-396.926"/>
<polygon fill="#9a32cd" stroke="#9a32cd" points="280.994,-384.061 270.777,-386.861 280.511,-391.044 280.994,-384.061"/>
<text text-anchor="middle" x="347" y="-398" font-family="Helvetica,sans-Serif" font-size="10.00"> cfg</text>
</g>
<!-- Node8&#45;&gt;Node10 -->
<g id="edge14" class="edge"><title>Node8&#45;&gt;Node10</title>
<path fill="none" stroke="#9a32cd" stroke-dasharray="5,2" d="M235.46,-360.369C253.179,-341.856 280.262,-316.04 308,-299 339.648,-279.558 355.715,-290.503 386,-269 424.579,-241.607 456.722,-193.776 469.306,-173.509"/>
<polygon fill="#9a32cd" stroke="#9a32cd" points="232.765,-358.126 228.465,-367.809 237.865,-362.921 232.765,-358.126"/>
<text text-anchor="middle" x="347" y="-302" font-family="Helvetica,sans-Serif" font-size="10.00"> cfg</text>
</g>
<!-- Node9&#45;&gt;Node1 -->
<g id="edge9" class="edge"><title>Node9&#45;&gt;Node1</title>
<path fill="none" stroke="#9a32cd" stroke-dasharray="5,2" d="M688.674,-188.487C675.913,-216.8 652.145,-263.765 622,-297 587.242,-335.32 536.127,-367.902 504.788,-385.925"/>
<polygon fill="#9a32cd" stroke="#9a32cd" points="691.891,-189.865 692.721,-179.303 685.486,-187.042 691.891,-189.865"/>
<text text-anchor="middle" x="594" y="-349" font-family="Helvetica,sans-Serif" font-size="10.00"> cfgWidget</text>
</g>
<!-- Node10&#45;&gt;Node9 -->
<g id="edge10" class="edge"><title>Node10&#45;&gt;Node9</title>
<path fill="none" stroke="midnightblue" d="M557.846,-164C585.091,-164 614.959,-164 640.176,-164"/>
<polygon fill="midnightblue" stroke="midnightblue" points="557.547,-160.5 547.547,-164 557.547,-167.5 557.547,-160.5"/>
</g>
<!-- Node11 -->
<g id="node11" class="node"><title>Node11</title>
<polygon fill="white" stroke="#bfbfbf" points="186.5,-135.5 186.5,-154.5 241.5,-154.5 241.5,-135.5 186.5,-135.5"/>
<text text-anchor="middle" x="214" y="-142.5" font-family="Helvetica,sans-Serif" font-size="10.00">QWidget</text>
</g>
<!-- Node11&#45;&gt;Node10 -->
<g id="edge11" class="edge"><title>Node11&#45;&gt;Node10</title>
<path fill="none" stroke="midnightblue" d="M251.829,-145.912C286.496,-146.963 339.841,-149.073 386,-153 391.895,-153.501 398.001,-154.096 404.125,-154.746"/>
<polygon fill="midnightblue" stroke="midnightblue" points="251.796,-142.41 241.699,-145.619 251.593,-149.407 251.796,-142.41"/>
</g>
<!-- Node12 -->
<g id="node12" class="node"><title>Node12</title>
<g id="a_node12"><a xlink:href="../../dd/d38/classmars_1_1main__gui_1_1_property_callback.html" target="_top" xlink:title="Introduced for Windows compatibility. ">
<polygon fill="white" stroke="black" points="151,-39 151,-69 277,-69 277,-39 151,-39"/>
<text text-anchor="start" x="159" y="-57" font-family="Helvetica,sans-Serif" font-size="10.00">mars::main_gui::Property</text>
<text text-anchor="middle" x="214" y="-46" font-family="Helvetica,sans-Serif" font-size="10.00">Callback</text>
</a>
</g>
</g>
<!-- Node12&#45;&gt;Node9 -->
<g id="edge16" class="edge"><title>Node12&#45;&gt;Node9</title>
<path fill="none" stroke="midnightblue" d="M287.215,-70.4125C383.374,-92.2669 551.614,-130.503 640.359,-150.673"/>
<polygon fill="midnightblue" stroke="midnightblue" points="287.811,-66.9587 277.284,-68.1554 286.259,-73.7846 287.811,-66.9587"/>
</g>
<!-- Node13 -->
<g id="node13" class="node"><title>Node13</title>
<g id="a_node13"><a xlink:href="../../de/d11/classmars_1_1main__gui_1_1_property_dialog.html" target="_top" xlink:title="The PropertyDialog provides the QtProperty functionality. ">
<polygon fill="white" stroke="black" points="413,-22 413,-52 539,-52 539,-22 413,-22"/>
<text text-anchor="start" x="421" y="-40" font-family="Helvetica,sans-Serif" font-size="10.00">mars::main_gui::Property</text>
<text text-anchor="middle" x="476" y="-29" font-family="Helvetica,sans-Serif" font-size="10.00">Dialog</text>
</a>
</g>
</g>
<!-- Node12&#45;&gt;Node13 -->
<g id="edge20" class="edge"><title>Node12&#45;&gt;Node13</title>
<path fill="none" stroke="#9a32cd" stroke-dasharray="5,2" d="M287.356,-49.269C326.776,-46.6915 375.063,-43.5343 412.782,-41.0681"/>
<polygon fill="#9a32cd" stroke="#9a32cd" points="287.027,-45.783 277.276,-49.9281 287.484,-52.7681 287.027,-45.783"/>
<text text-anchor="middle" x="347" y="-51" font-family="Helvetica,sans-Serif" font-size="10.00"> propertyCallback</text>
</g>
<!-- Node13&#45;&gt;Node9 -->
<g id="edge18" class="edge"><title>Node13&#45;&gt;Node9</title>
<path fill="none" stroke="#9a32cd" stroke-dasharray="5,2" d="M549.17,-35.05C573.716,-37.2484 600.384,-43.0174 622,-56 658.52,-77.934 682.469,-124.568 692.944,-148.747"/>
<polygon fill="#9a32cd" stroke="#9a32cd" points="549.387,-31.5567 539.163,-34.3351 548.889,-38.5389 549.387,-31.5567"/>
<text text-anchor="middle" x="594" y="-59" font-family="Helvetica,sans-Serif" font-size="10.00"> pDialog</text>
</g>
<!-- Node14 -->
<g id="node14" class="node"><title>Node14</title>
<polygon fill="white" stroke="#bfbfbf" points="188,-0.5 188,-19.5 240,-19.5 240,-0.5 188,-0.5"/>
<text text-anchor="middle" x="214" y="-7.5" font-family="Helvetica,sans-Serif" font-size="10.00">QDialog</text>
</g>
<!-- Node14&#45;&gt;Node13 -->
<g id="edge19" class="edge"><title>Node14&#45;&gt;Node13</title>
<path fill="none" stroke="midnightblue" d="M250.355,-13.6715C292.009,-17.9971 361.965,-25.2618 412.762,-30.5369"/>
<polygon fill="midnightblue" stroke="midnightblue" points="250.711,-10.1898 240.403,-12.638 249.988,-17.1523 250.711,-10.1898"/>
</g>
<!-- Node15&#45;&gt;Node1 -->
<g id="edge21" class="edge"><title>Node15&#45;&gt;Node1</title>
<path fill="none" stroke="#9a32cd" stroke-dasharray="5,2" d="M295.858,-458.404C324.682,-454.812 357.143,-449.327 386,-441 407.159,-434.895 429.779,-424.675 446.92,-416.094"/>
<polygon fill="#9a32cd" stroke="#9a32cd" points="295.343,-454.941 285.826,-459.597 296.17,-461.892 295.343,-454.941"/>
<text text-anchor="middle" x="347" y="-460" font-family="Helvetica,sans-Serif" font-size="10.00"> gui</text>
</g>
</g>
</svg>
