<?xml version="1.0" encoding="UTF-8" standalone="no"?>
<!DOCTYPE svg PUBLIC "-//W3C//DTD SVG 1.1//EN"
 "http://www.w3.org/Graphics/SVG/1.1/DTD/svg11.dtd">
<!-- Generated by graphviz version 2.26.3 (20100126.1600)
 -->
<!-- Title: mars::cfg_manager_gui::MainCfgGui Pages: 1 -->
<svg width="918pt" height="494pt"
 viewBox="0.00 0.00 918.00 494.26" xmlns="http://www.w3.org/2000/svg" xmlns:xlink="http://www.w3.org/1999/xlink">
<g id="graph1" class="graph" transform="scale(1 1) rotate(0) translate(4 490.264)">
<title>mars::cfg_manager_gui::MainCfgGui</title>
<polygon fill="white" stroke="white" points="-4,5 -4,-490.264 915,-490.264 915,5 -4,5"/>
<!-- Node1 -->
<g id="node1" class="node"><title>Node1</title>
<polygon fill="#bfbfbf" stroke="black" points="790.5,-252 790.5,-286 909.5,-286 909.5,-252 790.5,-252"/>
<text text-anchor="start" x="798.5" y="-273" font-family="Helvetica,sans-Serif" font-size="10.00">mars::cfg_manager_gui</text>
<text text-anchor="middle" x="850" y="-260" font-family="Helvetica,sans-Serif" font-size="10.00">::MainCfgGui</text>
</g>
<!-- Node2 -->
<g id="node2" class="node"><title>Node2</title>
<polygon fill="white" stroke="#bfbfbf" points="276.5,-188.5 276.5,-209.5 329.5,-209.5 329.5,-188.5 276.5,-188.5"/>
<text text-anchor="middle" x="303" y="-196.5" font-family="Helvetica,sans-Serif" font-size="10.00">QObject</text>
</g>
<!-- Node2&#45;&gt;Node1 -->
<g id="edge2" class="edge"><title>Node2&#45;&gt;Node1</title>
<path fill="none" stroke="midnightblue" d="M340.049,-201.633C419.567,-207.608 612.335,-223.821 772,-251 777.891,-252.003 784.004,-253.177 790.098,-254.436"/>
<polygon fill="midnightblue" stroke="midnightblue" points="339.827,-198.107 329.596,-200.858 339.309,-205.088 339.827,-198.107"/>
</g>
<!-- Node9 -->
<g id="node17" class="node"><title>Node9</title>
<a xlink:href="../../df/d3f/classmars_1_1cfg__manager__gui_1_1_cfg_widget.html" target="_top" xlink:title="mars::cfg_manager_gui\l::CfgWidget">
<polygon fill="white" stroke="black" points="562.5,-88 562.5,-122 681.5,-122 681.5,-88 562.5,-88"/>
<text text-anchor="start" x="570.5" y="-109" font-family="Helvetica,sans-Serif" font-size="10.00">mars::cfg_manager_gui</text>
<text text-anchor="middle" x="622" y="-96" font-family="Helvetica,sans-Serif" font-size="10.00">::CfgWidget</text>
</a>
</g>
<!-- Node2&#45;&gt;Node9 -->
<g id="edge20" class="edge"><title>Node2&#45;&gt;Node9</title>
<path fill="none" stroke="midnightblue" d="M339.299,-188.304C394.189,-172.129 498.834,-141.294 564.259,-122.015"/>
<polygon fill="midnightblue" stroke="midnightblue" points="338.252,-184.963 329.649,-191.147 340.231,-191.678 338.252,-184.963"/>
</g>
<!-- Node3 -->
<g id="node4" class="node"><title>Node3</title>
<polygon fill="white" stroke="#bfbfbf" points="29,-234.5 29,-255.5 97,-255.5 97,-234.5 29,-234.5"/>
<text text-anchor="middle" x="63" y="-242.5" font-family="Helvetica,sans-Serif" font-size="10.00">LibInterface</text>
</g>
<!-- Node3&#45;&gt;Node1 -->
<g id="edge4" class="edge"><title>Node3&#45;&gt;Node1</title>
<path fill="none" stroke="midnightblue" d="M76.4722,-264.075C102.964,-299.742 165.764,-375.581 240,-405 459.814,-492.109 573.013,-531.712 772,-404 815.054,-376.367 837.051,-315.953 845.616,-286.223"/>
<polygon fill="midnightblue" stroke="midnightblue" points="78.9724,-261.562 70.2576,-255.537 73.313,-265.682 78.9724,-261.562"/>
</g>
<!-- Node8 -->
<g id="node14" class="node"><title>Node8</title>
<a xlink:href="../../d4/da6/classmars_1_1cfg__manager_1_1_c_f_g_manager_interface.html" target="_top" xlink:title="mars::cfg_manager::\lCFGManagerInterface">
<polygon fill="white" stroke="black" points="246.5,-136 246.5,-170 359.5,-170 359.5,-136 246.5,-136"/>
<text text-anchor="start" x="254.5" y="-157" font-family="Helvetica,sans-Serif" font-size="10.00">mars::cfg_manager::</text>
<text text-anchor="middle" x="303" y="-144" font-family="Helvetica,sans-Serif" font-size="10.00">CFGManagerInterface</text>
</a>
</g>
<!-- Node3&#45;&gt;Node8 -->
<g id="edge16" class="edge"><title>Node3&#45;&gt;Node8</title>
<path fill="none" stroke="midnightblue" d="M99.9679,-230.829C142.591,-214.49 212.632,-187.641 258.284,-170.141"/>
<polygon fill="midnightblue" stroke="midnightblue" points="98.6157,-227.599 90.5311,-234.446 101.121,-234.135 98.6157,-227.599"/>
</g>
<!-- Node13 -->
<g id="node28" class="node"><title>Node13</title>
<a xlink:href="../../d7/df2/classmars_1_1main__gui_1_1_gui_interface.html" target="_top" xlink:title="The abstract GuiInterface class provides the menu and docking functionality of the GUI...">
<polygon fill="white" stroke="black" points="384.5,-234.5 384.5,-255.5 527.5,-255.5 527.5,-234.5 384.5,-234.5"/>
<text text-anchor="middle" x="456" y="-242.5" font-family="Helvetica,sans-Serif" font-size="10.00">mars::main_gui::GuiInterface</text>
</a>
</g>
<!-- Node3&#45;&gt;Node13 -->
<g id="edge34" class="edge"><title>Node3&#45;&gt;Node13</title>
<path fill="none" stroke="midnightblue" d="M107.464,-245C174.874,-245 303.61,-245 384.347,-245"/>
<polygon fill="midnightblue" stroke="midnightblue" points="107.189,-241.5 97.1887,-245 107.189,-248.5 107.189,-241.5"/>
</g>
<!-- Node4 -->
<g id="node6" class="node"><title>Node4</title>
<a xlink:href="../../d3/d52/classmars_1_1main__gui_1_1_menu_interface.html" target="_top" xlink:title="Provides the menuAction function. ">
<polygon fill="white" stroke="black" points="546,-328.5 546,-349.5 698,-349.5 698,-328.5 546,-328.5"/>
<text text-anchor="middle" x="622" y="-336.5" font-family="Helvetica,sans-Serif" font-size="10.00">mars::main_gui::MenuInterface</text>
</a>
</g>
<!-- Node4&#45;&gt;Node1 -->
<g id="edge6" class="edge"><title>Node4&#45;&gt;Node1</title>
<path fill="none" stroke="midnightblue" d="M673.743,-325.833C681.883,-323.632 690.187,-321.311 698,-319 732.498,-308.797 770.989,-296.122 800.606,-286.087"/>
<polygon fill="midnightblue" stroke="midnightblue" points="672.698,-322.489 663.939,-328.449 674.503,-329.252 672.698,-322.489"/>
</g>
<!-- Node5 -->
<g id="node8" class="node"><title>Node5</title>
<a xlink:href="../../d4/d1a/classmars_1_1cfg__manager_1_1_c_f_g_client.html" target="_top" xlink:title="mars::cfg_manager::\lCFGClient">
<polygon fill="white" stroke="black" points="568.5,-276 568.5,-310 675.5,-310 675.5,-276 568.5,-276"/>
<text text-anchor="start" x="576.5" y="-297" font-family="Helvetica,sans-Serif" font-size="10.00">mars::cfg_manager::</text>
<text text-anchor="middle" x="622" y="-284" font-family="Helvetica,sans-Serif" font-size="10.00">CFGClient</text>
</a>
</g>
<!-- Node5&#45;&gt;Node1 -->
<g id="edge8" class="edge"><title>Node5&#45;&gt;Node1</title>
<path fill="none" stroke="midnightblue" d="M686.086,-286.254C718.732,-282.818 758.182,-278.665 790.199,-275.295"/>
<polygon fill="midnightblue" stroke="midnightblue" points="685.323,-282.815 675.744,-287.343 686.056,-289.777 685.323,-282.815"/>
</g>
<!-- Node6 -->
<g id="node10" class="node"><title>Node6</title>
<a xlink:href="../../dc/dc3/structmars_1_1cfg__manager_1_1cfg_property_struct.html" target="_top" xlink:title="mars::cfg_manager::\lcfgPropertyStruct">
<polygon fill="white" stroke="black" points="568.5,-368 568.5,-402 675.5,-402 675.5,-368 568.5,-368"/>
<text text-anchor="start" x="576.5" y="-389" font-family="Helvetica,sans-Serif" font-size="10.00">mars::cfg_manager::</text>
<text text-anchor="middle" x="622" y="-376" font-family="Helvetica,sans-Serif" font-size="10.00">cfgPropertyStruct</text>
</a>
</g>
<!-- Node6&#45;&gt;Node1 -->
<g id="edge10" class="edge"><title>Node6&#45;&gt;Node1</title>
<path fill="none" stroke="#9a32cd" stroke-dasharray="5,2" d="M685.215,-364.336C689.575,-362.616 693.874,-360.832 698,-359 745.231,-338.033 796.138,-305.676 825.42,-286.007"/>
<polygon fill="#9a32cd" stroke="#9a32cd" points="683.713,-361.162 675.612,-367.99 686.203,-367.705 683.713,-361.162"/>
<text text-anchor="middle" x="744" y="-391" font-family="Helvetica,sans-Serif" font-size="10.00"> cfgW_width</text>
<text text-anchor="middle" x="744" y="-378" font-family="Helvetica,sans-Serif" font-size="10.00">cfgW_top</text>
<text text-anchor="middle" x="744" y="-365" font-family="Helvetica,sans-Serif" font-size="10.00">cfgW_left</text>
<text text-anchor="middle" x="744" y="-352" font-family="Helvetica,sans-Serif" font-size="10.00">cfgW_height</text>
</g>
<!-- Node7 -->
<g id="node12" class="node"><title>Node7</title>
<polygon fill="white" stroke="#bfbfbf" points="282.5,-374.5 282.5,-395.5 323.5,-395.5 323.5,-374.5 282.5,-374.5"/>
<text text-anchor="middle" x="303" y="-382.5" font-family="Helvetica,sans-Serif" font-size="10.00">string</text>
</g>
<!-- Node7&#45;&gt;Node6 -->
<g id="edge12" class="edge"><title>Node7&#45;&gt;Node6</title>
<path fill="none" stroke="#9a32cd" stroke-dasharray="5,2" d="M333.975,-385C388.259,-385 501.185,-385 568.382,-385"/>
<polygon fill="#9a32cd" stroke="#9a32cd" points="333.931,-381.5 323.93,-385 333.93,-388.5 333.931,-381.5"/>
<text text-anchor="middle" x="456" y="-389" font-family="Helvetica,sans-Serif" font-size="10.00"> sValue</text>
</g>
<!-- Node8&#45;&gt;Node1 -->
<g id="edge14" class="edge"><title>Node8&#45;&gt;Node1</title>
<path fill="none" stroke="#9a32cd" stroke-dasharray="5,2" d="M369.909,-156.021C449.365,-160.888 585.317,-173.269 698,-204 740.78,-215.667 787.286,-236.927 817.439,-251.951"/>
<polygon fill="#9a32cd" stroke="#9a32cd" points="369.745,-152.505 359.556,-155.41 369.333,-159.493 369.745,-152.505"/>
<text text-anchor="middle" x="622" y="-208" font-family="Helvetica,sans-Serif" font-size="10.00"> cfg</text>
</g>
<!-- Node8&#45;&gt;Node9 -->
<g id="edge24" class="edge"><title>Node8&#45;&gt;Node9</title>
<path fill="none" stroke="#9a32cd" stroke-dasharray="5,2" d="M333.5,-130.21C348.004,-120.754 366.068,-110.866 384,-106 443.019,-89.9843 513.344,-92.1525 562.176,-96.8324"/>
<polygon fill="#9a32cd" stroke="#9a32cd" points="331.278,-127.488 324.962,-135.994 335.204,-133.283 331.278,-127.488"/>
<text text-anchor="middle" x="456" y="-110" font-family="Helvetica,sans-Serif" font-size="10.00"> cfg</text>
</g>
<!-- Node9&#45;&gt;Node1 -->
<g id="edge18" class="edge"><title>Node9&#45;&gt;Node1</title>
<path fill="none" stroke="#9a32cd" stroke-dasharray="5,2" d="M691.914,-104.624C718.972,-107.512 748.918,-114.73 772,-131 814.514,-160.967 836.768,-221.904 845.505,-251.748"/>
<polygon fill="#9a32cd" stroke="#9a32cd" points="691.976,-101.116 681.706,-103.72 691.358,-108.089 691.976,-101.116"/>
<text text-anchor="middle" x="744" y="-135" font-family="Helvetica,sans-Serif" font-size="10.00"> cfgWidget</text>
</g>
<!-- Node10 -->
<g id="node20" class="node"><title>Node10</title>
<a xlink:href="../../dd/d38/classmars_1_1main__gui_1_1_property_callback.html" target="_top" xlink:title="Introduced for Windows compatibility. ">
<polygon fill="white" stroke="black" points="0,-48 0,-82 126,-82 126,-48 0,-48"/>
<text text-anchor="start" x="8" y="-69" font-family="Helvetica,sans-Serif" font-size="10.00">mars::main_gui::Property</text>
<text text-anchor="middle" x="63" y="-56" font-family="Helvetica,sans-Serif" font-size="10.00">Callback</text>
</a>
</g>
<!-- Node10&#45;&gt;Node9 -->
<g id="edge22" class="edge"><title>Node10&#45;&gt;Node9</title>
<path fill="none" stroke="midnightblue" d="M136.368,-66.5765C228.164,-69.0932 390.072,-75.328 528,-90 539.175,-91.1887 551.045,-92.8042 562.453,-94.536"/>
<polygon fill="midnightblue" stroke="midnightblue" points="136.435,-63.0772 126.345,-66.3089 136.248,-70.0747 136.435,-63.0772"/>
</g>
<!-- Node11 -->
<g id="node23" class="node"><title>Node11</title>
<a xlink:href="../../de/d11/classmars_1_1main__gui_1_1_property_dialog.html" target="_top" xlink:title="The PropertyDialog provides the QtProperty functionality. ">
<polygon fill="white" stroke="black" points="240,-10 240,-44 366,-44 366,-10 240,-10"/>
<text text-anchor="start" x="248" y="-31" font-family="Helvetica,sans-Serif" font-size="10.00">mars::main_gui::Property</text>
<text text-anchor="middle" x="303" y="-18" font-family="Helvetica,sans-Serif" font-size="10.00">Dialog</text>
</a>
</g>
<!-- Node10&#45;&gt;Node11 -->
<g id="edge30" class="edge"><title>Node10&#45;&gt;Node11</title>
<path fill="none" stroke="#9a32cd" stroke-dasharray="5,2" d="M135.947,-46.5261C138.66,-45.9862 141.351,-45.4749 144,-45 175.309,-39.3867 210.419,-35.1938 239.666,-32.2737"/>
<polygon fill="#9a32cd" stroke="#9a32cd" points="135.135,-43.1201 126.063,-48.5923 136.568,-49.9719 135.135,-43.1201"/>
<text text-anchor="middle" x="183" y="-49" font-family="Helvetica,sans-Serif" font-size="10.00"> propertyCallback</text>
</g>
<!-- Node11&#45;&gt;Node9 -->
<g id="edge26" class="edge"><title>Node11&#45;&gt;Node9</title>
<path fill="none" stroke="#9a32cd" stroke-dasharray="5,2" d="M376.456,-23.9932C421.316,-24.3099 479.233,-28.6242 528,-45 555.897,-54.3678 583.805,-73.7637 601.876,-87.9768"/>
<polygon fill="#9a32cd" stroke="#9a32cd" points="376.223,-20.4932 366.221,-23.9881 376.22,-27.4932 376.223,-20.4932"/>
<text text-anchor="middle" x="456" y="-49" font-family="Helvetica,sans-Serif" font-size="10.00"> pDialog</text>
</g>
<!-- Node12 -->
<g id="node25" class="node"><title>Node12</title>
<polygon fill="white" stroke="#bfbfbf" points="37,-0.5 37,-21.5 89,-21.5 89,-0.5 37,-0.5"/>
<text text-anchor="middle" x="63" y="-8.5" font-family="Helvetica,sans-Serif" font-size="10.00">QDialog</text>
</g>
<!-- Node12&#45;&gt;Node11 -->
<g id="edge28" class="edge"><title>Node12&#45;&gt;Node11</title>
<path fill="none" stroke="midnightblue" d="M99.5052,-13.4337C136.713,-15.9142 195.154,-19.8102 239.88,-22.792"/>
<polygon fill="midnightblue" stroke="midnightblue" points="99.3518,-9.91577 89.1411,-12.7427 98.8861,-16.9003 99.3518,-9.91577"/>
</g>
<!-- Node13&#45;&gt;Node1 -->
<g id="edge32" class="edge"><title>Node13&#45;&gt;Node1</title>
<path fill="none" stroke="#9a32cd" stroke-dasharray="5,2" d="M537.65,-246.793C584.594,-248.135 644.657,-250.379 698,-254 728.425,-256.065 762.188,-259.302 790.151,-262.241"/>
<polygon fill="#9a32cd" stroke="#9a32cd" points="537.63,-243.291 527.536,-246.512 537.435,-250.289 537.63,-243.291"/>
<text text-anchor="middle" x="622" y="-258" font-family="Helvetica,sans-Serif" font-size="10.00"> gui</text>
</g>
</g>
</svg>
