<?xml version="1.0" encoding="UTF-8" standalone="no"?>
<!DOCTYPE svg PUBLIC "-//W3C//DTD SVG 1.1//EN"
 "http://www.w3.org/Graphics/SVG/1.1/DTD/svg11.dtd">
<!-- Generated by graphviz version 2.36.0 (20140111.2315)
 -->
<!-- Title: osg_points::PointsP Pages: 1 -->
<svg width="167pt" height="84pt"
 viewBox="0.00 0.00 167.00 84.00" xmlns="http://www.w3.org/2000/svg" xmlns:xlink="http://www.w3.org/1999/xlink">
<g id="graph0" class="graph" transform="scale(1 1) rotate(0) translate(4 80)">
<title>osg_points::PointsP</title>
<polygon fill="white" stroke="none" points="-4,4 -4,-80 163,-80 163,4 -4,4"/>
<!-- Node1 -->
<g id="node1" class="node"><title>Node1</title>
<polygon fill="#bfbfbf" stroke="black" points="13,-0.5 13,-19.5 117,-19.5 117,-0.5 13,-0.5"/>
<text text-anchor="middle" x="65" y="-7.5" font-family="Helvetica,sans-Serif" font-size="10.00">osg_points::PointsP</text>
</g>
<!-- Node2 -->
<g id="node2" class="node"><title>Node2</title>
<polygon fill="white" stroke="#bfbfbf" points="-0.5,-56.5 -0.5,-75.5 42.5,-75.5 42.5,-56.5 -0.5,-56.5"/>
<text text-anchor="middle" x="21" y="-63.5" font-family="Helvetica,sans-Serif" font-size="10.00">Group</text>
</g>
<!-- Node2&#45;&gt;Node1 -->
<g id="edge1" class="edge"><title>Node2&#45;&gt;Node1</title>
<path fill="none" stroke="midnightblue" d="M34.7345,-48.144C42.4005,-38.7357 51.6333,-27.4046 57.8695,-19.7511"/>
<polygon fill="midnightblue" stroke="midnightblue" points="31.8691,-46.1198 28.2657,-56.083 37.2958,-50.5415 31.8691,-46.1198"/>
</g>
<!-- Node3 -->
<g id="node3" class="node"><title>Node3</title>
<g id="a_node3"><a xlink:href="../../d8/d45/classosg__points_1_1_points.html" target="_top" xlink:title="osg_points::Points">
<polygon fill="white" stroke="black" points="61,-56.5 61,-75.5 159,-75.5 159,-56.5 61,-56.5"/>
<text text-anchor="middle" x="110" y="-63.5" font-family="Helvetica,sans-Serif" font-size="10.00">osg_points::Points</text>
</a>
</g>
</g>
<!-- Node3&#45;&gt;Node1 -->
<g id="edge2" class="edge"><title>Node3&#45;&gt;Node1</title>
<path fill="none" stroke="midnightblue" d="M95.9533,-48.144C88.1131,-38.7357 78.6705,-27.4046 72.2926,-19.7511"/>
<polygon fill="midnightblue" stroke="midnightblue" points="93.4785,-50.6414 102.569,-56.083 98.8561,-46.1601 93.4785,-50.6414"/>
</g>
</g>
</svg>
