<?xml version="1.0" encoding="UTF-8" standalone="no"?>
<!DOCTYPE svg PUBLIC "-//W3C//DTD SVG 1.1//EN"
 "http://www.w3.org/Graphics/SVG/1.1/DTD/svg11.dtd">
<!-- Generated by graphviz version 2.26.3 (20100126.1600)
 -->
<!-- Title: mars::plugins::SonarPlugin::SonarPlugin Pages: 1 -->
<svg width="476pt" height="186pt"
 viewBox="0.00 0.00 476.00 186.00" xmlns="http://www.w3.org/2000/svg" xmlns:xlink="http://www.w3.org/1999/xlink">
<g id="graph1" class="graph" transform="scale(1 1) rotate(0) translate(4 182)">
<title>mars::plugins::SonarPlugin::SonarPlugin</title>
<polygon fill="white" stroke="white" points="-4,5 -4,-182 473,-182 473,5 -4,5"/>
<!-- Node1 -->
<g id="node1" class="node"><title>Node1</title>
<polygon fill="#bfbfbf" stroke="black" points="334,-78 334,-112 468,-112 468,-78 334,-78"/>
<text text-anchor="start" x="342" y="-99" font-family="Helvetica,sans-Serif" font-size="10.00">mars::plugins::SonarPlugin</text>
<text text-anchor="middle" x="401" y="-86" font-family="Helvetica,sans-Serif" font-size="10.00">::SonarPlugin</text>
</g>
<!-- Node2 -->
<g id="node2" class="node"><title>Node2</title>
<polygon fill="white" stroke="#bfbfbf" points="200.5,-156.5 200.5,-177.5 253.5,-177.5 253.5,-156.5 200.5,-156.5"/>
<text text-anchor="middle" x="227" y="-164.5" font-family="Helvetica,sans-Serif" font-size="10.00">QObject</text>
</g>
<!-- Node2&#45;&gt;Node1 -->
<g id="edge2" class="edge"><title>Node2&#45;&gt;Node1</title>
<path fill="none" stroke="midnightblue" d="M263.609,-158.139C274.796,-155.046 287.035,-151.266 298,-147 323.389,-137.122 350.872,-123.063 371.058,-112.054"/>
<polygon fill="midnightblue" stroke="midnightblue" points="262.459,-154.824 253.698,-160.781 264.262,-161.588 262.459,-154.824"/>
</g>
<!-- Node3 -->
<g id="node4" class="node"><title>Node3</title>
<a xlink:href="../../d6/df6/classmars_1_1interfaces_1_1_mars_plugin_template.html" target="_top" xlink:title="mars::interfaces::MarsPlugin\lTemplate">
<polygon fill="white" stroke="black" points="156,-104 156,-138 298,-138 298,-104 156,-104"/>
<text text-anchor="start" x="164" y="-125" font-family="Helvetica,sans-Serif" font-size="10.00">mars::interfaces::MarsPlugin</text>
<text text-anchor="middle" x="227" y="-112" font-family="Helvetica,sans-Serif" font-size="10.00">Template</text>
</a>
</g>
<!-- Node3&#45;&gt;Node1 -->
<g id="edge4" class="edge"><title>Node3&#45;&gt;Node1</title>
<path fill="none" stroke="midnightblue" d="M308.09,-108.883C316.714,-107.595 325.415,-106.294 333.852,-105.034"/>
<polygon fill="midnightblue" stroke="midnightblue" points="307.396,-105.448 298.023,-110.387 308.431,-112.371 307.396,-105.448"/>
</g>
<!-- Node4 -->
<g id="node6" class="node"><title>Node4</title>
<polygon fill="white" stroke="#bfbfbf" points="26,-133.5 26,-154.5 94,-154.5 94,-133.5 26,-133.5"/>
<text text-anchor="middle" x="60" y="-141.5" font-family="Helvetica,sans-Serif" font-size="10.00">LibInterface</text>
</g>
<!-- Node4&#45;&gt;Node3 -->
<g id="edge6" class="edge"><title>Node4&#45;&gt;Node3</title>
<path fill="none" stroke="midnightblue" d="M104.237,-137.907C120.101,-135.723 138.414,-133.2 155.974,-130.782"/>
<polygon fill="midnightblue" stroke="midnightblue" points="103.627,-134.458 94.1979,-139.29 104.582,-141.393 103.627,-134.458"/>
</g>
<!-- Node5 -->
<g id="node8" class="node"><title>Node5</title>
<a xlink:href="../../d1/d70/classmars_1_1interfaces_1_1_plugin_interface.html" target="_top" xlink:title="The interface to load plugin dynamically into the simulation. ">
<polygon fill="white" stroke="black" points="0,-81 0,-115 120,-115 120,-81 0,-81"/>
<text text-anchor="start" x="8" y="-102" font-family="Helvetica,sans-Serif" font-size="10.00">mars::interfaces::Plugin</text>
<text text-anchor="middle" x="60" y="-89" font-family="Helvetica,sans-Serif" font-size="10.00">Interface</text>
</a>
</g>
<!-- Node5&#45;&gt;Node3 -->
<g id="edge8" class="edge"><title>Node5&#45;&gt;Node3</title>
<path fill="none" stroke="midnightblue" d="M130.476,-107.706C138.919,-108.869 147.545,-110.057 155.995,-111.221"/>
<polygon fill="midnightblue" stroke="midnightblue" points="130.675,-104.201 120.291,-106.304 129.72,-111.135 130.675,-104.201"/>
</g>
<!-- Node6 -->
<g id="node10" class="node"><title>Node6</title>
<a xlink:href="../../d0/d0e/classmars_1_1data__broker_1_1_receiver_interface.html" target="_top" xlink:title="Interface for classes that want to receive data from the DataBroker. ">
<polygon fill="white" stroke="black" points="176.5,-52 176.5,-86 277.5,-86 277.5,-52 176.5,-52"/>
<text text-anchor="start" x="184.5" y="-73" font-family="Helvetica,sans-Serif" font-size="10.00">mars::data_broker::</text>
<text text-anchor="middle" x="227" y="-60" font-family="Helvetica,sans-Serif" font-size="10.00">ReceiverInterface</text>
</a>
</g>
<!-- Node6&#45;&gt;Node1 -->
<g id="edge10" class="edge"><title>Node6&#45;&gt;Node1</title>
<path fill="none" stroke="midnightblue" d="M287.898,-78.0997C302.785,-80.3242 318.795,-82.7165 333.952,-84.9813"/>
<polygon fill="midnightblue" stroke="midnightblue" points="288.203,-74.6065 277.796,-76.5902 287.169,-81.5297 288.203,-74.6065"/>
</g>
<!-- Node7 -->
<g id="node12" class="node"><title>Node7</title>
<a xlink:href="../../d4/d1a/classmars_1_1cfg__manager_1_1_c_f_g_client.html" target="_top" xlink:title="mars::cfg_manager::\lCFGClient">
<polygon fill="white" stroke="black" points="173.5,-0 173.5,-34 280.5,-34 280.5,-0 173.5,-0"/>
<text text-anchor="start" x="181.5" y="-21" font-family="Helvetica,sans-Serif" font-size="10.00">mars::cfg_manager::</text>
<text text-anchor="middle" x="227" y="-8" font-family="Helvetica,sans-Serif" font-size="10.00">CFGClient</text>
</a>
</g>
<!-- Node7&#45;&gt;Node1 -->
<g id="edge12" class="edge"><title>Node7&#45;&gt;Node1</title>
<path fill="none" stroke="midnightblue" d="M285.297,-37.7224C289.619,-39.4496 293.892,-41.2182 298,-43 322.442,-53.6021 349.288,-67.2234 369.443,-77.8651"/>
<polygon fill="midnightblue" stroke="midnightblue" points="286.39,-34.3922 275.802,-34.0182 283.846,-40.9135 286.39,-34.3922"/>
</g>
</g>
</svg>
