<?xml version="1.0" encoding="UTF-8" standalone="no"?>
<!DOCTYPE svg PUBLIC "-//W3C//DTD SVG 1.1//EN"
 "http://www.w3.org/Graphics/SVG/1.1/DTD/svg11.dtd">
<!-- Generated by graphviz version 2.36.0 (20140111.2315)
 -->
<!-- Title: mars::data_broker_gui::TreeItem Pages: 1 -->
<svg width="297pt" height="210pt"
 viewBox="0.00 0.00 297.00 210.00" xmlns="http://www.w3.org/2000/svg" xmlns:xlink="http://www.w3.org/1999/xlink">
<g id="graph0" class="graph" transform="scale(1 1) rotate(0) translate(4 206)">
<title>mars::data_broker_gui::TreeItem</title>
<polygon fill="white" stroke="none" points="-4,4 -4,-206 293,-206 293,4 -4,4"/>
<!-- Node1 -->
<g id="node1" class="node"><title>Node1</title>
<polygon fill="#bfbfbf" stroke="black" points="73.5,-1 73.5,-31 186.5,-31 186.5,-1 73.5,-1"/>
<text text-anchor="start" x="81.5" y="-19" font-family="Helvetica,sans-Serif" font-size="10.00">mars::data_broker_gui</text>
<text text-anchor="middle" x="130" y="-8" font-family="Helvetica,sans-Serif" font-size="10.00">::TreeItem</text>
</g>
<!-- Node1&#45;&gt;Node1 -->
<g id="edge5" class="edge"><title>Node1&#45;&gt;Node1</title>
<path fill="none" stroke="#9a32cd" stroke-dasharray="5,2" d="M196.683,-21.422C201.233,-20.1755 204,-18.3682 204,-16 204,-12.2109 196.917,-9.85757 186.777,-8.93991"/>
<polygon fill="#9a32cd" stroke="#9a32cd" points="196.072,-17.9754 186.777,-23.0601 197.214,-24.8816 196.072,-17.9754"/>
<text text-anchor="middle" x="225.5" y="-13.5" font-family="Helvetica,sans-Serif" font-size="10.00"> fromItem</text>
</g>
<!-- Node2 -->
<g id="node2" class="node"><title>Node2</title>
<polygon fill="white" stroke="#bfbfbf" points="0,-86.5 0,-105.5 94,-105.5 94,-86.5 0,-86.5"/>
<text text-anchor="middle" x="47" y="-93.5" font-family="Helvetica,sans-Serif" font-size="10.00">QTreeWidgetItem</text>
</g>
<!-- Node2&#45;&gt;Node1 -->
<g id="edge1" class="edge"><title>Node2&#45;&gt;Node1</title>
<path fill="none" stroke="midnightblue" d="M63.7226,-79.2848C78.6789,-65.2294 100.409,-44.8085 114.861,-31.227"/>
<polygon fill="midnightblue" stroke="midnightblue" points="61.0899,-76.9559 56.1996,-86.3546 65.8836,-82.0569 61.0899,-76.9559"/>
</g>
<!-- Node3 -->
<g id="node3" class="node"><title>Node3</title>
<g id="a_node3"><a xlink:href="../../d5/d34/structmars_1_1data__broker__gui_1_1_data_item_wrapper.html" target="_top" xlink:title="mars::data_broker_gui\l::DataItemWrapper">
<polygon fill="white" stroke="black" points="176.5,-81 176.5,-111 289.5,-111 289.5,-81 176.5,-81"/>
<text text-anchor="start" x="184.5" y="-99" font-family="Helvetica,sans-Serif" font-size="10.00">mars::data_broker_gui</text>
<text text-anchor="middle" x="233" y="-88" font-family="Helvetica,sans-Serif" font-size="10.00">::DataItemWrapper</text>
</a>
</g>
</g>
<!-- Node3&#45;&gt;Node1 -->
<g id="edge2" class="edge"><title>Node3&#45;&gt;Node1</title>
<path fill="none" stroke="#9a32cd" stroke-dasharray="5,2" d="M205.751,-74.3645C187.781,-60.7566 164.707,-43.2833 148.772,-31.2157"/>
<polygon fill="#9a32cd" stroke="#9a32cd" points="204.023,-77.4467 214.108,-80.6936 208.249,-71.8662 204.023,-77.4467"/>
<text text-anchor="middle" x="207" y="-53.5" font-family="Helvetica,sans-Serif" font-size="10.00"> wrapper</text>
</g>
<!-- Node4 -->
<g id="node4" class="node"><title>Node4</title>
<polygon fill="white" stroke="#bfbfbf" points="143.5,-182.5 143.5,-201.5 184.5,-201.5 184.5,-182.5 143.5,-182.5"/>
<text text-anchor="middle" x="164" y="-189.5" font-family="Helvetica,sans-Serif" font-size="10.00">string</text>
</g>
<!-- Node4&#45;&gt;Node1 -->
<g id="edge4" class="edge"><title>Node4&#45;&gt;Node1</title>
<path fill="none" stroke="#9a32cd" stroke-dasharray="5,2" d="M157.03,-172.815C151.259,-156.987 143.329,-133.305 139,-112 133.26,-83.7509 131.165,-50.0153 130.412,-31.3018"/>
<polygon fill="#9a32cd" stroke="#9a32cd" points="153.83,-174.25 160.61,-182.392 160.387,-171.799 153.83,-174.25"/>
<text text-anchor="middle" x="153" y="-93.5" font-family="Helvetica,sans-Serif" font-size="10.00"> name</text>
</g>
<!-- Node4&#45;&gt;Node3 -->
<g id="edge3" class="edge"><title>Node4&#45;&gt;Node3</title>
<path fill="none" stroke="#9a32cd" stroke-dasharray="5,2" d="M176.524,-173.939C189.738,-155.936 210.323,-127.893 222.651,-111.098"/>
<polygon fill="#9a32cd" stroke="#9a32cd" points="173.464,-172.193 170.368,-182.325 179.107,-176.335 173.464,-172.193"/>
<text text-anchor="middle" x="236" y="-155.5" font-family="Helvetica,sans-Serif" font-size="10.00"> groupName</text>
<text text-anchor="middle" x="236" y="-144.5" font-family="Helvetica,sans-Serif" font-size="10.00">dataName</text>
<text text-anchor="middle" x="236" y="-133.5" font-family="Helvetica,sans-Serif" font-size="10.00">itemName</text>
</g>
</g>
</svg>
