<?xml version="1.0" encoding="UTF-8" standalone="no"?>
<!DOCTYPE svg PUBLIC "-//W3C//DTD SVG 1.1//EN"
 "http://www.w3.org/Graphics/SVG/1.1/DTD/svg11.dtd">
<!-- Generated by graphviz version 2.36.0 (20140111.2315)
 -->
<!-- Title: /media/kavonszadkowski/work/marsdocs/mars/interfaces/src/sim/PluginInterface.h Pages: 1 -->
<svg width="215pt" height="106pt"
 viewBox="0.00 0.00 215.00 106.00" xmlns="http://www.w3.org/2000/svg" xmlns:xlink="http://www.w3.org/1999/xlink">
<g id="graph0" class="graph" transform="scale(1 1) rotate(0) translate(4 102)">
<title>/media/kavonszadkowski/work/marsdocs/mars/interfaces/src/sim/PluginInterface.h</title>
<polygon fill="white" stroke="none" points="-4,4 -4,-102 211,-102 211,4 -4,4"/>
<!-- Node1 -->
<g id="node1" class="node"><title>Node1</title>
<polygon fill="#bfbfbf" stroke="black" points="50.5,-56.5 50.5,-97.5 207.5,-97.5 207.5,-56.5 50.5,-56.5"/>
<text text-anchor="start" x="58.5" y="-85.5" font-family="Helvetica,sans-Serif" font-size="10.00">/media/kavonszadkowski</text>
<text text-anchor="start" x="58.5" y="-74.5" font-family="Helvetica,sans-Serif" font-size="10.00">/work/marsdocs/mars/interfaces</text>
<text text-anchor="middle" x="129" y="-63.5" font-family="Helvetica,sans-Serif" font-size="10.00">/src/sim/PluginInterface.h</text>
</g>
<!-- Node2 -->
<g id="node2" class="node"><title>Node2</title>
<polygon fill="white" stroke="#bfbfbf" points="0,-0.5 0,-19.5 146,-19.5 146,-0.5 0,-0.5"/>
<text text-anchor="middle" x="73" y="-7.5" font-family="Helvetica,sans-Serif" font-size="10.00">mars/interfaces/MARSDefs.h</text>
</g>
<!-- Node1&#45;&gt;Node2 -->
<g id="edge1" class="edge"><title>Node1&#45;&gt;Node2</title>
<path fill="none" stroke="midnightblue" d="M112.198,-56.4979C104.19,-47.2029 94.7191,-36.2097 87.0929,-27.3579"/>
<polygon fill="midnightblue" stroke="midnightblue" points="89.6332,-24.9441 80.4545,-19.6525 84.3299,-29.5131 89.6332,-24.9441"/>
</g>
<!-- Node3 -->
<g id="node3" class="node"><title>Node3</title>
<polygon fill="white" stroke="#bfbfbf" points="164.5,-0.5 164.5,-19.5 205.5,-19.5 205.5,-0.5 164.5,-0.5"/>
<text text-anchor="middle" x="185" y="-7.5" font-family="Helvetica,sans-Serif" font-size="10.00">string</text>
</g>
<!-- Node1&#45;&gt;Node3 -->
<g id="edge2" class="edge"><title>Node1&#45;&gt;Node3</title>
<path fill="none" stroke="midnightblue" d="M145.802,-56.4979C153.81,-47.2029 163.281,-36.2097 170.907,-27.3579"/>
<polygon fill="midnightblue" stroke="midnightblue" points="173.67,-29.5131 177.546,-19.6525 168.367,-24.9441 173.67,-29.5131"/>
</g>
</g>
</svg>
