<?xml version="1.0" encoding="UTF-8" standalone="no"?>
<!DOCTYPE svg PUBLIC "-//W3C//DTD SVG 1.1//EN"
 "http://www.w3.org/Graphics/SVG/1.1/DTD/svg11.dtd">
<!-- Generated by graphviz version 2.26.3 (20100126.1600)
 -->
<!-- Title: /home/kavonszadkowski/limes&#45;dev/simulation/mars/sim/src/sensors/MultiLevelLaserRangeFinder.h Pages: 1 -->
<svg width="376pt" height="168pt"
 viewBox="0.00 0.00 376.00 168.00" xmlns="http://www.w3.org/2000/svg" xmlns:xlink="http://www.w3.org/1999/xlink">
<g id="graph1" class="graph" transform="scale(1 1) rotate(0) translate(4 164)">
<title>/home/kavonszadkowski/limes&#45;dev/simulation/mars/sim/src/sensors/MultiLevelLaserRangeFinder.h</title>
<polygon fill="white" stroke="white" points="-4,5 -4,-164 373,-164 373,5 -4,5"/>
<!-- Node1 -->
<g id="node1" class="node"><title>Node1</title>
<polygon fill="#bfbfbf" stroke="black" points="114,-99 114,-159 266,-159 266,-99 114,-99"/>
<text text-anchor="start" x="122" y="-146" font-family="Helvetica,sans-Serif" font-size="10.00">/home/kavonszadkowski</text>
<text text-anchor="start" x="122" y="-133" font-family="Helvetica,sans-Serif" font-size="10.00">/limes&#45;dev/simulation</text>
<text text-anchor="start" x="122" y="-120" font-family="Helvetica,sans-Serif" font-size="10.00">/mars/sim/src/sensors</text>
<text text-anchor="middle" x="190" y="-107" font-family="Helvetica,sans-Serif" font-size="10.00">/MultiLevelLaserRangeFinder.h</text>
</g>
<!-- Node2 -->
<g id="node3" class="node"><title>Node2</title>
<a xlink:href="../../d4/d38/_sensor_manager_8cpp.html" target="_top" xlink:title="/home/kavonszadkowski\l/limes&#45;dev/simulation\l/mars/sim/src/core/SensorManager.cpp">
<polygon fill="white" stroke="black" points="0,-7.5 0,-54.5 188,-54.5 188,-7.5 0,-7.5"/>
<text text-anchor="start" x="8" y="-41.5" font-family="Helvetica,sans-Serif" font-size="10.00">/home/kavonszadkowski</text>
<text text-anchor="start" x="8" y="-28.5" font-family="Helvetica,sans-Serif" font-size="10.00">/limes&#45;dev/simulation</text>
<text text-anchor="middle" x="94" y="-15.5" font-family="Helvetica,sans-Serif" font-size="10.00">/mars/sim/src/core/SensorManager.cpp</text>
</a>
</g>
<!-- Node1&#45;&gt;Node2 -->
<g id="edge2" class="edge"><title>Node1&#45;&gt;Node2</title>
<path fill="none" stroke="midnightblue" d="M153.41,-91.6479C141.27,-79.2544 128.095,-65.8056 117.245,-54.7289"/>
<polygon fill="midnightblue" stroke="midnightblue" points="150.915,-94.1027 160.414,-98.7971 155.916,-89.2043 150.915,-94.1027"/>
</g>
<!-- Node3 -->
<g id="node5" class="node"><title>Node3</title>
<a xlink:href="../../d1/d3d/_multi_level_laser_range_finder_8cpp.html" target="_top" xlink:title="/home/kavonszadkowski\l/limes&#45;dev/simulation\l/mars/sim/src/sensors\l/MultiLevelLaserRangeFinder.cpp">
<polygon fill="white" stroke="black" points="206,-1 206,-61 368,-61 368,-1 206,-1"/>
<text text-anchor="start" x="214" y="-48" font-family="Helvetica,sans-Serif" font-size="10.00">/home/kavonszadkowski</text>
<text text-anchor="start" x="214" y="-35" font-family="Helvetica,sans-Serif" font-size="10.00">/limes&#45;dev/simulation</text>
<text text-anchor="start" x="214" y="-22" font-family="Helvetica,sans-Serif" font-size="10.00">/mars/sim/src/sensors</text>
<text text-anchor="middle" x="287" y="-9" font-family="Helvetica,sans-Serif" font-size="10.00">/MultiLevelLaserRangeFinder.cpp</text>
</a>
</g>
<!-- Node1&#45;&gt;Node3 -->
<g id="edge4" class="edge"><title>Node1&#45;&gt;Node3</title>
<path fill="none" stroke="midnightblue" d="M226.982,-91.6368C236.916,-81.5998 247.535,-70.8714 257.037,-61.2718"/>
<polygon fill="midnightblue" stroke="midnightblue" points="224.442,-89.2277 219.895,-98.7971 229.417,-94.152 224.442,-89.2277"/>
</g>
</g>
</svg>
