<?xml version="1.0" encoding="UTF-8" standalone="no"?>
<!DOCTYPE svg PUBLIC "-//W3C//DTD SVG 1.1//EN"
 "http://www.w3.org/Graphics/SVG/1.1/DTD/svg11.dtd">
<!-- Generated by graphviz version 2.26.3 (20100126.1600)
 -->
<!-- Title: mars::gui::SensorHandler Pages: 1 -->
<svg width="910pt" height="791pt"
 viewBox="0.00 0.00 910.00 791.00" xmlns="http://www.w3.org/2000/svg" xmlns:xlink="http://www.w3.org/1999/xlink">
<g id="graph1" class="graph" transform="scale(1 1) rotate(0) translate(4 787)">
<title>mars::gui::SensorHandler</title>
<polygon fill="white" stroke="white" points="-4,5 -4,-787 907,-787 907,5 -4,5"/>
<!-- Node1 -->
<g id="node1" class="node"><title>Node1</title>
<polygon fill="#bfbfbf" stroke="black" points="774,-647.5 774,-668.5 902,-668.5 902,-647.5 774,-647.5"/>
<text text-anchor="middle" x="838" y="-655.5" font-family="Helvetica,sans-Serif" font-size="10.00">mars::gui::SensorHandler</text>
</g>
<!-- Node2 -->
<g id="node2" class="node"><title>Node2</title>
<polygon fill="white" stroke="#bfbfbf" points="584.5,-761.5 584.5,-782.5 637.5,-782.5 637.5,-761.5 584.5,-761.5"/>
<text text-anchor="middle" x="611" y="-769.5" font-family="Helvetica,sans-Serif" font-size="10.00">QObject</text>
</g>
<!-- Node2&#45;&gt;Node1 -->
<g id="edge2" class="edge"><title>Node2&#45;&gt;Node1</title>
<path fill="none" stroke="midnightblue" d="M647.824,-773.167C678.509,-772.615 722.46,-768.179 756,-750 792.116,-730.425 820.183,-688.462 831.959,-668.705"/>
<polygon fill="midnightblue" stroke="midnightblue" points="647.546,-769.668 637.563,-773.217 647.579,-776.668 647.546,-769.668"/>
</g>
<!-- Node3 -->
<g id="node4" class="node"><title>Node3</title>
<a xlink:href="../../d7/d9d/classmars_1_1gui_1_1_selection_dialog.html" target="_top" xlink:title="mars::gui::SelectionDialog">
<polygon fill="white" stroke="black" points="545.5,-721.5 545.5,-742.5 676.5,-742.5 676.5,-721.5 545.5,-721.5"/>
<text text-anchor="middle" x="611" y="-729.5" font-family="Helvetica,sans-Serif" font-size="10.00">mars::gui::SelectionDialog</text>
</a>
</g>
<!-- Node3&#45;&gt;Node1 -->
<g id="edge4" class="edge"><title>Node3&#45;&gt;Node1</title>
<path fill="none" stroke="#9a32cd" stroke-dasharray="5,2" d="M662.85,-718.784C690.688,-711.327 725.462,-701.429 756,-691 775.75,-684.255 797.658,-675.363 813.858,-668.509"/>
<polygon fill="#9a32cd" stroke="#9a32cd" points="661.696,-715.469 652.929,-721.417 663.492,-722.235 661.696,-715.469"/>
<text text-anchor="middle" x="729" y="-737" font-family="Helvetica,sans-Serif" font-size="10.00"> jointDialog</text>
<text text-anchor="middle" x="729" y="-724" font-family="Helvetica,sans-Serif" font-size="10.00">nodeDialog</text>
<text text-anchor="middle" x="729" y="-711" font-family="Helvetica,sans-Serif" font-size="10.00">motorDialog</text>
</g>
<!-- Node4 -->
<g id="node6" class="node"><title>Node4</title>
<polygon fill="white" stroke="#bfbfbf" points="318.5,-721.5 318.5,-742.5 373.5,-742.5 373.5,-721.5 318.5,-721.5"/>
<text text-anchor="middle" x="346" y="-729.5" font-family="Helvetica,sans-Serif" font-size="10.00">QWidget</text>
</g>
<!-- Node4&#45;&gt;Node3 -->
<g id="edge6" class="edge"><title>Node4&#45;&gt;Node3</title>
<path fill="none" stroke="midnightblue" d="M383.952,-732C426.008,-732 494.588,-732 545.388,-732"/>
<polygon fill="midnightblue" stroke="midnightblue" points="383.859,-728.5 373.859,-732 383.859,-735.5 383.859,-728.5"/>
</g>
<!-- Node5 -->
<g id="node8" class="node"><title>Node5</title>
<a xlink:href="../../da/d73/classmars_1_1interfaces_1_1_base_sensor.html" target="_top" xlink:title="mars::interfaces::BaseSensor">
<polygon fill="white" stroke="black" points="538,-619.5 538,-640.5 684,-640.5 684,-619.5 538,-619.5"/>
<text text-anchor="middle" x="611" y="-627.5" font-family="Helvetica,sans-Serif" font-size="10.00">mars::interfaces::BaseSensor</text>
</a>
</g>
<!-- Node5&#45;&gt;Node1 -->
<g id="edge8" class="edge"><title>Node5&#45;&gt;Node1</title>
<path fill="none" stroke="#9a32cd" stroke-dasharray="5,2" d="M694.038,-640.243C720.372,-643.491 749.07,-647.031 773.863,-650.089"/>
<polygon fill="#9a32cd" stroke="#9a32cd" points="694.427,-636.764 684.074,-639.014 693.57,-643.711 694.427,-636.764"/>
<text text-anchor="middle" x="729" y="-651" font-family="Helvetica,sans-Serif" font-size="10.00"> mySensor</text>
</g>
<!-- Node6 -->
<g id="node10" class="node"><title>Node6</title>
<polygon fill="white" stroke="#bfbfbf" points="325.5,-663.5 325.5,-684.5 366.5,-684.5 366.5,-663.5 325.5,-663.5"/>
<text text-anchor="middle" x="346" y="-671.5" font-family="Helvetica,sans-Serif" font-size="10.00">string</text>
</g>
<!-- Node6&#45;&gt;Node1 -->
<g id="edge12" class="edge"><title>Node6&#45;&gt;Node1</title>
<path fill="none" stroke="#9a32cd" stroke-dasharray="5,2" d="M377.015,-673.529C445.448,-672.409 614.535,-669.209 756,-663 761.842,-662.744 767.916,-662.441 773.998,-662.114"/>
<polygon fill="#9a32cd" stroke="#9a32cd" points="376.859,-670.031 366.916,-673.69 376.971,-677.03 376.859,-670.031"/>
<text text-anchor="middle" x="611" y="-687" font-family="Helvetica,sans-Serif" font-size="10.00"> actualName</text>
<text text-anchor="middle" x="611" y="-674" font-family="Helvetica,sans-Serif" font-size="10.00">sensorName</text>
</g>
<!-- Node6&#45;&gt;Node5 -->
<g id="edge10" class="edge"><title>Node6&#45;&gt;Node5</title>
<path fill="none" stroke="#9a32cd" stroke-dasharray="5,2" d="M376.574,-665.3C395.327,-660.229 419.901,-654.053 442,-650 473.24,-644.271 508.044,-639.826 537.91,-636.598"/>
<polygon fill="#9a32cd" stroke="#9a32cd" points="375.523,-661.959 366.807,-667.984 377.377,-668.709 375.523,-661.959"/>
<text text-anchor="middle" x="481" y="-654" font-family="Helvetica,sans-Serif" font-size="10.00"> name</text>
</g>
<!-- Node7 -->
<g id="node13" class="node"><title>Node7</title>
<a xlink:href="../../de/d11/classmars_1_1main__gui_1_1_property_dialog.html" target="_top" xlink:title="The PropertyDialog provides the QtProperty functionality. ">
<polygon fill="white" stroke="black" points="548,-567 548,-601 674,-601 674,-567 548,-567"/>
<text text-anchor="start" x="556" y="-588" font-family="Helvetica,sans-Serif" font-size="10.00">mars::main_gui::Property</text>
<text text-anchor="middle" x="611" y="-575" font-family="Helvetica,sans-Serif" font-size="10.00">Dialog</text>
</a>
</g>
<!-- Node7&#45;&gt;Node1 -->
<g id="edge14" class="edge"><title>Node7&#45;&gt;Node1</title>
<path fill="none" stroke="#9a32cd" stroke-dasharray="5,2" d="M684.098,-602.27C707.275,-608.567 732.879,-616.052 756,-624 776.112,-630.914 798.369,-640.254 814.614,-647.395"/>
<polygon fill="#9a32cd" stroke="#9a32cd" points="684.893,-598.86 674.327,-599.646 683.077,-605.62 684.893,-598.86"/>
<text text-anchor="middle" x="729" y="-628" font-family="Helvetica,sans-Serif" font-size="10.00"> pDialog</text>
</g>
<!-- Node8 -->
<g id="node15" class="node"><title>Node8</title>
<polygon fill="white" stroke="#bfbfbf" points="320,-612.5 320,-633.5 372,-633.5 372,-612.5 320,-612.5"/>
<text text-anchor="middle" x="346" y="-620.5" font-family="Helvetica,sans-Serif" font-size="10.00">QDialog</text>
</g>
<!-- Node8&#45;&gt;Node7 -->
<g id="edge16" class="edge"><title>Node8&#45;&gt;Node7</title>
<path fill="none" stroke="midnightblue" d="M382.519,-617.861C417.738,-612.879 472.537,-605.061 520,-598 529.012,-596.659 538.522,-595.222 547.862,-593.797"/>
<polygon fill="midnightblue" stroke="midnightblue" points="381.66,-614.447 372.247,-619.312 382.639,-621.378 381.66,-614.447"/>
</g>
<!-- Node9 -->
<g id="node17" class="node"><title>Node9</title>
<a xlink:href="../../dd/d38/classmars_1_1main__gui_1_1_property_callback.html" target="_top" xlink:title="Introduced for Windows compatibility. ">
<polygon fill="white" stroke="black" points="283,-560 283,-594 409,-594 409,-560 283,-560"/>
<text text-anchor="start" x="291" y="-581" font-family="Helvetica,sans-Serif" font-size="10.00">mars::main_gui::Property</text>
<text text-anchor="middle" x="346" y="-568" font-family="Helvetica,sans-Serif" font-size="10.00">Callback</text>
</a>
</g>
<!-- Node9&#45;&gt;Node7 -->
<g id="edge18" class="edge"><title>Node9&#45;&gt;Node7</title>
<path fill="none" stroke="#9a32cd" stroke-dasharray="5,2" d="M419.193,-578.933C459.577,-580 509.223,-581.312 547.888,-582.333"/>
<polygon fill="#9a32cd" stroke="#9a32cd" points="419.226,-575.433 409.137,-578.668 419.041,-582.431 419.226,-575.433"/>
<text text-anchor="middle" x="481" y="-585" font-family="Helvetica,sans-Serif" font-size="10.00"> propertyCallback</text>
</g>
<!-- Node10 -->
<g id="node19" class="node"><title>Node10</title>
<a xlink:href="../../d7/d4e/classmars_1_1interfaces_1_1_control_center.html" target="_top" xlink:title="The declaration of the ControlCenter. ">
<polygon fill="white" stroke="black" points="548.5,-274 548.5,-308 673.5,-308 673.5,-274 548.5,-274"/>
<text text-anchor="start" x="556.5" y="-295" font-family="Helvetica,sans-Serif" font-size="10.00">mars::interfaces::Control</text>
<text text-anchor="middle" x="611" y="-282" font-family="Helvetica,sans-Serif" font-size="10.00">Center</text>
</a>
</g>
<!-- Node10&#45;&gt;Node1 -->
<g id="edge20" class="edge"><title>Node10&#45;&gt;Node1</title>
<path fill="none" stroke="#9a32cd" stroke-dasharray="5,2" d="M627.003,-316.873C672.428,-390.314 800.856,-597.947 831.415,-647.354"/>
<polygon fill="#9a32cd" stroke="#9a32cd" points="629.881,-314.872 621.644,-308.209 623.928,-318.555 629.881,-314.872"/>
<text text-anchor="middle" x="729" y="-522" font-family="Helvetica,sans-Serif" font-size="10.00"> control</text>
</g>
<!-- Node11 -->
<g id="node21" class="node"><title>Node11</title>
<a xlink:href="../../d1/d93/classmars_1_1interfaces_1_1_graphics_manager_interface.html" target="_top" xlink:title="mars::interfaces::Graphics\lManagerInterface">
<polygon fill="white" stroke="black" points="280,-508 280,-542 412,-542 412,-508 280,-508"/>
<text text-anchor="start" x="288" y="-529" font-family="Helvetica,sans-Serif" font-size="10.00">mars::interfaces::Graphics</text>
<text text-anchor="middle" x="346" y="-516" font-family="Helvetica,sans-Serif" font-size="10.00">ManagerInterface</text>
</a>
</g>
<!-- Node11&#45;&gt;Node10 -->
<g id="edge22" class="edge"><title>Node11&#45;&gt;Node10</title>
<path fill="none" stroke="#9a32cd" stroke-dasharray="5,2" d="M422.427,-514.932C455.42,-507.366 492.637,-494.132 520,-471 572.68,-426.464 598.17,-343.88 607.122,-308.179"/>
<polygon fill="#9a32cd" stroke="#9a32cd" points="421.379,-511.577 412.339,-517.103 422.852,-518.421 421.379,-511.577"/>
<text text-anchor="middle" x="481" y="-512" font-family="Helvetica,sans-Serif" font-size="10.00"> graphics</text>
</g>
<!-- Node12 -->
<g id="node23" class="node"><title>Node12</title>
<polygon fill="white" stroke="#bfbfbf" points="47,-462.5 47,-483.5 115,-483.5 115,-462.5 47,-462.5"/>
<text text-anchor="middle" x="81" y="-470.5" font-family="Helvetica,sans-Serif" font-size="10.00">LibInterface</text>
</g>
<!-- Node12&#45;&gt;Node11 -->
<g id="edge24" class="edge"><title>Node12&#45;&gt;Node11</title>
<path fill="none" stroke="midnightblue" d="M125.064,-481.647C167.239,-489.922 231.411,-502.515 279.747,-511.999"/>
<polygon fill="midnightblue" stroke="midnightblue" points="125.588,-478.183 115.102,-479.692 124.241,-485.052 125.588,-478.183"/>
</g>
<!-- Node16 -->
<g id="node31" class="node"><title>Node16</title>
<a xlink:href="../../d4/da6/classmars_1_1cfg__manager_1_1_c_f_g_manager_interface.html" target="_top" xlink:title="mars::cfg_manager::\lCFGManagerInterface">
<polygon fill="white" stroke="black" points="289.5,-456 289.5,-490 402.5,-490 402.5,-456 289.5,-456"/>
<text text-anchor="start" x="297.5" y="-477" font-family="Helvetica,sans-Serif" font-size="10.00">mars::cfg_manager::</text>
<text text-anchor="middle" x="346" y="-464" font-family="Helvetica,sans-Serif" font-size="10.00">CFGManagerInterface</text>
</a>
</g>
<!-- Node12&#45;&gt;Node16 -->
<g id="edge34" class="edge"><title>Node12&#45;&gt;Node16</title>
<path fill="none" stroke="midnightblue" d="M125.147,-473C170.173,-473 240.21,-473 289.312,-473"/>
<polygon fill="midnightblue" stroke="midnightblue" points="125.102,-469.5 115.102,-473 125.102,-476.5 125.102,-469.5"/>
</g>
<!-- Node17 -->
<g id="node34" class="node"><title>Node17</title>
<a xlink:href="../../d6/d2e/classmars_1_1data__broker_1_1_data_broker_interface.html" target="_top" xlink:title="The interface every DataBroker should implement. ">
<polygon fill="white" stroke="black" points="294,-404 294,-438 398,-438 398,-404 294,-404"/>
<text text-anchor="start" x="302" y="-425" font-family="Helvetica,sans-Serif" font-size="10.00">mars::data_broker::</text>
<text text-anchor="middle" x="346" y="-412" font-family="Helvetica,sans-Serif" font-size="10.00">DataBrokerInterface</text>
</a>
</g>
<!-- Node12&#45;&gt;Node17 -->
<g id="edge38" class="edge"><title>Node12&#45;&gt;Node17</title>
<path fill="none" stroke="midnightblue" d="M125.155,-464.336C171.569,-455.228 244.55,-440.907 293.788,-431.245"/>
<polygon fill="midnightblue" stroke="midnightblue" points="124.241,-460.948 115.102,-466.308 125.588,-467.817 124.241,-460.948"/>
</g>
<!-- Node13 -->
<g id="node25" class="node"><title>Node13</title>
<a xlink:href="../../d2/da9/classmars_1_1interfaces_1_1_controller_manager_interface.html" target="_top" xlink:title="&quot;ControllerManagerInterface&quot; declares the interfaces for all controller operations that are used for ...">
<polygon fill="white" stroke="black" points="278.5,-352 278.5,-386 413.5,-386 413.5,-352 278.5,-352"/>
<text text-anchor="start" x="286.5" y="-373" font-family="Helvetica,sans-Serif" font-size="10.00">mars::interfaces::Controller</text>
<text text-anchor="middle" x="346" y="-360" font-family="Helvetica,sans-Serif" font-size="10.00">ManagerInterface</text>
</a>
</g>
<!-- Node13&#45;&gt;Node10 -->
<g id="edge26" class="edge"><title>Node13&#45;&gt;Node10</title>
<path fill="none" stroke="#9a32cd" stroke-dasharray="5,2" d="M423.821,-350.55C454.031,-342.951 488.805,-333.666 520,-324 535.25,-319.275 551.713,-313.512 566.389,-308.133"/>
<polygon fill="#9a32cd" stroke="#9a32cd" points="422.617,-347.243 413.762,-353.06 424.312,-354.034 422.617,-347.243"/>
<text text-anchor="middle" x="481" y="-349" font-family="Helvetica,sans-Serif" font-size="10.00"> controllers</text>
</g>
<!-- Node14 -->
<g id="node27" class="node"><title>Node14</title>
<a xlink:href="../../d6/d60/classmars_1_1interfaces_1_1_joint_manager_interface.html" target="_top" xlink:title="Interface class for the node organization. ">
<polygon fill="white" stroke="black" points="270,-300 270,-334 422,-334 422,-300 270,-300"/>
<text text-anchor="start" x="278" y="-321" font-family="Helvetica,sans-Serif" font-size="10.00">mars::interfaces::JointManager</text>
<text text-anchor="middle" x="346" y="-308" font-family="Helvetica,sans-Serif" font-size="10.00">Interface</text>
</a>
</g>
<!-- Node14&#45;&gt;Node10 -->
<g id="edge28" class="edge"><title>Node14&#45;&gt;Node10</title>
<path fill="none" stroke="#9a32cd" stroke-dasharray="5,2" d="M432.273,-308.536C470.048,-304.829 513.554,-300.561 548.184,-297.163"/>
<polygon fill="#9a32cd" stroke="#9a32cd" points="431.904,-305.055 422.293,-309.515 432.587,-312.021 431.904,-305.055"/>
<text text-anchor="middle" x="481" y="-311" font-family="Helvetica,sans-Serif" font-size="10.00"> joints</text>
</g>
<!-- Node15 -->
<g id="node29" class="node"><title>Node15</title>
<a xlink:href="../../df/d82/classmars_1_1interfaces_1_1_entity_manager_interface.html" target="_top" xlink:title="mars::interfaces::Entity\lManagerInterface">
<polygon fill="white" stroke="black" points="286.5,-248 286.5,-282 405.5,-282 405.5,-248 286.5,-248"/>
<text text-anchor="start" x="294.5" y="-269" font-family="Helvetica,sans-Serif" font-size="10.00">mars::interfaces::Entity</text>
<text text-anchor="middle" x="346" y="-256" font-family="Helvetica,sans-Serif" font-size="10.00">ManagerInterface</text>
</a>
</g>
<!-- Node15&#45;&gt;Node10 -->
<g id="edge30" class="edge"><title>Node15&#45;&gt;Node10</title>
<path fill="none" stroke="#9a32cd" stroke-dasharray="5,2" d="M415.998,-271.868C457.038,-275.894 508.455,-280.939 548.187,-284.837"/>
<polygon fill="#9a32cd" stroke="#9a32cd" points="416.096,-268.361 405.802,-270.867 415.412,-275.327 416.096,-268.361"/>
<text text-anchor="middle" x="481" y="-285" font-family="Helvetica,sans-Serif" font-size="10.00"> entities</text>
</g>
<!-- Node16&#45;&gt;Node10 -->
<g id="edge32" class="edge"><title>Node16&#45;&gt;Node10</title>
<path fill="none" stroke="#9a32cd" stroke-dasharray="5,2" d="M412.69,-462.874C447.18,-455.15 488.525,-441.797 520,-419 560.852,-389.411 590.183,-335.742 603.311,-308.248"/>
<polygon fill="#9a32cd" stroke="#9a32cd" points="411.746,-459.496 402.693,-465 413.202,-466.343 411.746,-459.496"/>
<text text-anchor="middle" x="481" y="-458" font-family="Helvetica,sans-Serif" font-size="10.00"> cfg</text>
</g>
<!-- Node17&#45;&gt;Node10 -->
<g id="edge36" class="edge"><title>Node17&#45;&gt;Node10</title>
<path fill="none" stroke="#9a32cd" stroke-dasharray="5,2" d="M407.18,-400.667C412.868,-398.758 418.543,-396.847 424,-395 466.735,-380.533 480.338,-383.505 520,-362 547.48,-347.1 575.261,-323.995 592.771,-308.217"/>
<polygon fill="#9a32cd" stroke="#9a32cd" points="406,-397.371 397.629,-403.866 408.223,-404.009 406,-397.371"/>
<text text-anchor="middle" x="481" y="-406" font-family="Helvetica,sans-Serif" font-size="10.00"> dataBroker</text>
<text text-anchor="middle" x="481" y="-393" font-family="Helvetica,sans-Serif" font-size="10.00">theDataBroker</text>
</g>
<!-- Node18 -->
<g id="node37" class="node"><title>Node18</title>
<a xlink:href="../../db/da9/classmars_1_1interfaces_1_1_sensor_manager_interface.html" target="_top" xlink:title="&quot;SensorManagerInterface&quot; declares the interfaces for all sensor operations that are used for the comm...">
<polygon fill="white" stroke="black" points="284,-196 284,-230 408,-230 408,-196 284,-196"/>
<text text-anchor="start" x="292" y="-217" font-family="Helvetica,sans-Serif" font-size="10.00">mars::interfaces::Sensor</text>
<text text-anchor="middle" x="346" y="-204" font-family="Helvetica,sans-Serif" font-size="10.00">ManagerInterface</text>
</a>
</g>
<!-- Node18&#45;&gt;Node10 -->
<g id="edge40" class="edge"><title>Node18&#45;&gt;Node10</title>
<path fill="none" stroke="#9a32cd" stroke-dasharray="5,2" d="M418.082,-229.346C449.594,-236.975 486.854,-246.651 520,-257 535.938,-261.976 553.158,-268.188 568.285,-273.936"/>
<polygon fill="#9a32cd" stroke="#9a32cd" points="418.606,-225.872 408.065,-226.943 416.973,-232.679 418.606,-225.872"/>
<text text-anchor="middle" x="481" y="-261" font-family="Helvetica,sans-Serif" font-size="10.00"> sensors</text>
</g>
<!-- Node19 -->
<g id="node39" class="node"><title>Node19</title>
<a xlink:href="../../db/de9/classmars_1_1interfaces_1_1_motor_manager_interface.html" target="_top" xlink:title="&quot;MotorManagerInterface&quot; declares the interfaces for all motor operations that are used for the commun...">
<polygon fill="white" stroke="black" points="268.5,-144 268.5,-178 423.5,-178 423.5,-144 268.5,-144"/>
<text text-anchor="start" x="276.5" y="-165" font-family="Helvetica,sans-Serif" font-size="10.00">mars::interfaces::MotorManager</text>
<text text-anchor="middle" x="346" y="-152" font-family="Helvetica,sans-Serif" font-size="10.00">Interface</text>
</a>
</g>
<!-- Node19&#45;&gt;Node10 -->
<g id="edge42" class="edge"><title>Node19&#45;&gt;Node10</title>
<path fill="none" stroke="#9a32cd" stroke-dasharray="5,2" d="M427.033,-180.952C457.21,-190.06 491.12,-202.36 520,-218 548.14,-233.239 576.208,-257.474 593.574,-273.797"/>
<polygon fill="#9a32cd" stroke="#9a32cd" points="427.96,-177.576 417.378,-178.106 425.981,-184.29 427.96,-177.576"/>
<text text-anchor="middle" x="481" y="-222" font-family="Helvetica,sans-Serif" font-size="10.00"> motors</text>
</g>
<!-- Node20 -->
<g id="node41" class="node"><title>Node20</title>
<a xlink:href="../../d9/d6a/classmars_1_1interfaces_1_1_load_center.html" target="_top" xlink:title="mars::interfaces::LoadCenter">
<polygon fill="white" stroke="black" points="274.5,-104.5 274.5,-125.5 417.5,-125.5 417.5,-104.5 274.5,-104.5"/>
<text text-anchor="middle" x="346" y="-112.5" font-family="Helvetica,sans-Serif" font-size="10.00">mars::interfaces::LoadCenter</text>
</a>
</g>
<!-- Node20&#45;&gt;Node10 -->
<g id="edge44" class="edge"><title>Node20&#45;&gt;Node10</title>
<path fill="none" stroke="#9a32cd" stroke-dasharray="5,2" d="M423.419,-127.89C455.569,-136.044 491.858,-149.144 520,-170 558.434,-198.484 588.214,-247.625 602.219,-273.654"/>
<polygon fill="#9a32cd" stroke="#9a32cd" points="424.131,-124.461 413.588,-125.516 422.487,-131.266 424.131,-124.461"/>
<text text-anchor="middle" x="481" y="-174" font-family="Helvetica,sans-Serif" font-size="10.00"> loadCenter</text>
</g>
<!-- Node21 -->
<g id="node43" class="node"><title>Node21</title>
<a xlink:href="../../d1/d51/classmars_1_1interfaces_1_1_load_heightmap_interface.html" target="_top" xlink:title="mars::interfaces::LoadHeightmap\lInterface">
<polygon fill="white" stroke="black" points="0.5,-124 0.5,-158 161.5,-158 161.5,-124 0.5,-124"/>
<text text-anchor="start" x="8.5" y="-145" font-family="Helvetica,sans-Serif" font-size="10.00">mars::interfaces::LoadHeightmap</text>
<text text-anchor="middle" x="81" y="-132" font-family="Helvetica,sans-Serif" font-size="10.00">Interface</text>
</a>
</g>
<!-- Node21&#45;&gt;Node20 -->
<g id="edge46" class="edge"><title>Node21&#45;&gt;Node20</title>
<path fill="none" stroke="#9a32cd" stroke-dasharray="5,2" d="M171.844,-132.087C205.335,-128.801 242.778,-125.127 274.339,-122.031"/>
<polygon fill="#9a32cd" stroke="#9a32cd" points="171.198,-128.633 161.588,-133.093 171.882,-135.6 171.198,-128.633"/>
<text text-anchor="middle" x="215" y="-135" font-family="Helvetica,sans-Serif" font-size="10.00"> loadHeightmap</text>
</g>
<!-- Node22 -->
<g id="node45" class="node"><title>Node22</title>
<a xlink:href="../../d7/d02/classmars_1_1interfaces_1_1_load_mesh_interface.html" target="_top" xlink:title="mars::interfaces::LoadMesh\lInterface">
<polygon fill="white" stroke="black" points="12,-72 12,-106 150,-106 150,-72 12,-72"/>
<text text-anchor="start" x="20" y="-93" font-family="Helvetica,sans-Serif" font-size="10.00">mars::interfaces::LoadMesh</text>
<text text-anchor="middle" x="81" y="-80" font-family="Helvetica,sans-Serif" font-size="10.00">Interface</text>
</a>
</g>
<!-- Node22&#45;&gt;Node20 -->
<g id="edge48" class="edge"><title>Node22&#45;&gt;Node20</title>
<path fill="none" stroke="#9a32cd" stroke-dasharray="5,2" d="M160.315,-96.7819C196.535,-100.336 239.113,-104.513 274.353,-107.971"/>
<polygon fill="#9a32cd" stroke="#9a32cd" points="160.573,-93.2905 150.279,-95.7972 159.89,-100.257 160.573,-93.2905"/>
<text text-anchor="middle" x="215" y="-109" font-family="Helvetica,sans-Serif" font-size="10.00"> loadMesh</text>
</g>
<!-- Node23 -->
<g id="node47" class="node"><title>Node23</title>
<a xlink:href="../../d7/d4c/classmars_1_1interfaces_1_1_node_manager_interface.html" target="_top" xlink:title="&quot;NodeManagerInterface&quot; declares the interfaces for all NodeOperations that are used for the communica...">
<polygon fill="white" stroke="black" points="269,-52 269,-86 423,-86 423,-52 269,-52"/>
<text text-anchor="start" x="277" y="-73" font-family="Helvetica,sans-Serif" font-size="10.00">mars::interfaces::NodeManager</text>
<text text-anchor="middle" x="346" y="-60" font-family="Helvetica,sans-Serif" font-size="10.00">Interface</text>
</a>
</g>
<!-- Node23&#45;&gt;Node10 -->
<g id="edge50" class="edge"><title>Node23&#45;&gt;Node10</title>
<path fill="none" stroke="#9a32cd" stroke-dasharray="5,2" d="M433.374,-78.1108C463.339,-84.7786 495.468,-96.2616 520,-116 572.426,-158.183 597.985,-238.714 607.034,-273.87"/>
<polygon fill="#9a32cd" stroke="#9a32cd" points="433.811,-74.6272 423.309,-76.0292 432.393,-81.4821 433.811,-74.6272"/>
<text text-anchor="middle" x="481" y="-120" font-family="Helvetica,sans-Serif" font-size="10.00"> nodes</text>
</g>
<!-- Node24 -->
<g id="node49" class="node"><title>Node24</title>
<a xlink:href="../../dc/de5/classmars_1_1interfaces_1_1_simulator_interface.html" target="_top" xlink:title="mars::interfaces::Simulator\lInterface">
<polygon fill="white" stroke="black" points="279,-0 279,-34 413,-34 413,-0 279,-0"/>
<text text-anchor="start" x="287" y="-21" font-family="Helvetica,sans-Serif" font-size="10.00">mars::interfaces::Simulator</text>
<text text-anchor="middle" x="346" y="-8" font-family="Helvetica,sans-Serif" font-size="10.00">Interface</text>
</a>
</g>
<!-- Node24&#45;&gt;Node10 -->
<g id="edge52" class="edge"><title>Node24&#45;&gt;Node10</title>
<path fill="none" stroke="#9a32cd" stroke-dasharray="5,2" d="M423.238,-22.5771C456.39,-28.5384 493.507,-40.4496 520,-64 584.735,-121.546 604.085,-231.525 609.274,-273.83"/>
<polygon fill="#9a32cd" stroke="#9a32cd" points="423.528,-19.0779 413.093,-20.9117 422.394,-25.9854 423.528,-19.0779"/>
<text text-anchor="middle" x="481" y="-68" font-family="Helvetica,sans-Serif" font-size="10.00"> sim</text>
</g>
</g>
</svg>
