<?xml version="1.0" encoding="UTF-8" standalone="no"?>
<!DOCTYPE svg PUBLIC "-//W3C//DTD SVG 1.1//EN"
 "http://www.w3.org/Graphics/SVG/1.1/DTD/svg11.dtd">
<!-- Generated by graphviz version 2.26.3 (20100126.1600)
 -->
<!-- Title: mars::plugins::path_drawer::PathDrawer Pages: 1 -->
<svg width="1300pt" height="785pt"
 viewBox="0.00 0.00 1300.00 785.00" xmlns="http://www.w3.org/2000/svg" xmlns:xlink="http://www.w3.org/1999/xlink">
<g id="graph1" class="graph" transform="scale(1 1) rotate(0) translate(4 781)">
<title>mars::plugins::path_drawer::PathDrawer</title>
<polygon fill="white" stroke="white" points="-4,5 -4,-781 1297,-781 1297,5 -4,5"/>
<!-- Node1 -->
<g id="node1" class="node"><title>Node1</title>
<polygon fill="#bfbfbf" stroke="black" points="1182.5,-92 1182.5,-126 1291.5,-126 1291.5,-92 1182.5,-92"/>
<text text-anchor="start" x="1190.5" y="-113" font-family="Helvetica,sans-Serif" font-size="10.00">mars::plugins::path</text>
<text text-anchor="middle" x="1237" y="-100" font-family="Helvetica,sans-Serif" font-size="10.00">_drawer::PathDrawer</text>
</g>
<!-- Node2 -->
<g id="node2" class="node"><title>Node2</title>
<a xlink:href="../../d6/df6/classmars_1_1interfaces_1_1_mars_plugin_template.html" target="_top" xlink:title="mars::interfaces::MarsPlugin\lTemplate">
<polygon fill="white" stroke="black" points="940,-208 940,-242 1082,-242 1082,-208 940,-208"/>
<text text-anchor="start" x="948" y="-229" font-family="Helvetica,sans-Serif" font-size="10.00">mars::interfaces::MarsPlugin</text>
<text text-anchor="middle" x="1011" y="-216" font-family="Helvetica,sans-Serif" font-size="10.00">Template</text>
</a>
</g>
<!-- Node2&#45;&gt;Node1 -->
<g id="edge2" class="edge"><title>Node2&#45;&gt;Node1</title>
<path fill="none" stroke="midnightblue" d="M1083.39,-204.777C1109.67,-195.955 1139.03,-184.317 1164,-170 1185.06,-157.924 1206.01,-139.603 1220.02,-126.191"/>
<polygon fill="midnightblue" stroke="midnightblue" points="1082.27,-201.46 1073.86,-207.899 1084.45,-208.112 1082.27,-201.46"/>
</g>
<!-- Node3 -->
<g id="node4" class="node"><title>Node3</title>
<polygon fill="white" stroke="#bfbfbf" points="47,-692.5 47,-713.5 115,-713.5 115,-692.5 47,-692.5"/>
<text text-anchor="middle" x="81" y="-700.5" font-family="Helvetica,sans-Serif" font-size="10.00">LibInterface</text>
</g>
<!-- Node3&#45;&gt;Node2 -->
<g id="edge4" class="edge"><title>Node3&#45;&gt;Node2</title>
<path fill="none" stroke="midnightblue" d="M112.487,-717.821C161.339,-739.42 258.858,-777 346,-777 346,-777 346,-777 780,-777 898.95,-777 989.934,-335.297 1007.8,-242.126"/>
<polygon fill="midnightblue" stroke="midnightblue" points="113.658,-714.511 103.102,-713.602 110.788,-720.895 113.658,-714.511"/>
</g>
<!-- Node6 -->
<g id="node10" class="node"><title>Node6</title>
<a xlink:href="../../d1/d93/classmars_1_1interfaces_1_1_graphics_manager_interface.html" target="_top" xlink:title="mars::interfaces::Graphics\lManagerInterface">
<polygon fill="white" stroke="black" points="280,-715 280,-749 412,-749 412,-715 280,-715"/>
<text text-anchor="start" x="288" y="-736" font-family="Helvetica,sans-Serif" font-size="10.00">mars::interfaces::Graphics</text>
<text text-anchor="middle" x="346" y="-723" font-family="Helvetica,sans-Serif" font-size="10.00">ManagerInterface</text>
</a>
</g>
<!-- Node3&#45;&gt;Node6 -->
<g id="edge12" class="edge"><title>Node3&#45;&gt;Node6</title>
<path fill="none" stroke="midnightblue" d="M125.064,-707.822C167.239,-712.437 231.411,-719.46 279.747,-724.75"/>
<polygon fill="midnightblue" stroke="midnightblue" points="125.423,-704.341 115.102,-706.732 124.661,-711.299 125.423,-704.341"/>
</g>
<!-- Node10 -->
<g id="node19" class="node"><title>Node10</title>
<a xlink:href="../../d4/da6/classmars_1_1cfg__manager_1_1_c_f_g_manager_interface.html" target="_top" xlink:title="mars::cfg_manager::\lCFGManagerInterface">
<polygon fill="white" stroke="black" points="289.5,-663 289.5,-697 402.5,-697 402.5,-663 289.5,-663"/>
<text text-anchor="start" x="297.5" y="-684" font-family="Helvetica,sans-Serif" font-size="10.00">mars::cfg_manager::</text>
<text text-anchor="middle" x="346" y="-671" font-family="Helvetica,sans-Serif" font-size="10.00">CFGManagerInterface</text>
</a>
</g>
<!-- Node3&#45;&gt;Node10 -->
<g id="edge22" class="edge"><title>Node3&#45;&gt;Node10</title>
<path fill="none" stroke="midnightblue" d="M125.147,-699.168C170.173,-695.26 240.21,-689.182 289.312,-684.92"/>
<polygon fill="midnightblue" stroke="midnightblue" points="124.761,-695.689 115.102,-700.04 125.367,-702.662 124.761,-695.689"/>
</g>
<!-- Node11 -->
<g id="node22" class="node"><title>Node11</title>
<a xlink:href="../../d6/d2e/classmars_1_1data__broker_1_1_data_broker_interface.html" target="_top" xlink:title="The interface every DataBroker should implement. ">
<polygon fill="white" stroke="black" points="294,-611 294,-645 398,-645 398,-611 294,-611"/>
<text text-anchor="start" x="302" y="-632" font-family="Helvetica,sans-Serif" font-size="10.00">mars::data_broker::</text>
<text text-anchor="middle" x="346" y="-619" font-family="Helvetica,sans-Serif" font-size="10.00">DataBrokerInterface</text>
</a>
</g>
<!-- Node3&#45;&gt;Node11 -->
<g id="edge26" class="edge"><title>Node3&#45;&gt;Node11</title>
<path fill="none" stroke="midnightblue" d="M124.863,-690.586C171.262,-677.454 244.447,-656.741 293.788,-642.777"/>
<polygon fill="midnightblue" stroke="midnightblue" points="123.771,-687.258 115.102,-693.349 125.677,-693.993 123.771,-687.258"/>
</g>
<!-- Node4 -->
<g id="node6" class="node"><title>Node4</title>
<a xlink:href="../../d1/d70/classmars_1_1interfaces_1_1_plugin_interface.html" target="_top" xlink:title="The interface to load plugin dynamically into the simulation. ">
<polygon fill="white" stroke="black" points="720,-366 720,-400 840,-400 840,-366 720,-366"/>
<text text-anchor="start" x="728" y="-387" font-family="Helvetica,sans-Serif" font-size="10.00">mars::interfaces::Plugin</text>
<text text-anchor="middle" x="780" y="-374" font-family="Helvetica,sans-Serif" font-size="10.00">Interface</text>
</a>
</g>
<!-- Node4&#45;&gt;Node2 -->
<g id="edge6" class="edge"><title>Node4&#45;&gt;Node2</title>
<path fill="none" stroke="midnightblue" d="M813.441,-360.127C860.198,-328.146 944.06,-270.786 985.87,-242.188"/>
<polygon fill="midnightblue" stroke="midnightblue" points="811.439,-357.256 805.161,-365.79 815.391,-363.034 811.439,-357.256"/>
</g>
<!-- Node5 -->
<g id="node8" class="node"><title>Node5</title>
<a xlink:href="../../d7/d4e/classmars_1_1interfaces_1_1_control_center.html" target="_top" xlink:title="The declaration of the ControlCenter. ">
<polygon fill="white" stroke="black" points="524.5,-429 524.5,-463 649.5,-463 649.5,-429 524.5,-429"/>
<text text-anchor="start" x="532.5" y="-450" font-family="Helvetica,sans-Serif" font-size="10.00">mars::interfaces::Control</text>
<text text-anchor="middle" x="587" y="-437" font-family="Helvetica,sans-Serif" font-size="10.00">Center</text>
</a>
</g>
<!-- Node5&#45;&gt;Node4 -->
<g id="edge8" class="edge"><title>Node5&#45;&gt;Node4</title>
<path fill="none" stroke="#9a32cd" stroke-dasharray="5,2" d="M648.779,-425.834C674.218,-417.53 703.373,-408.013 727.73,-400.062"/>
<polygon fill="#9a32cd" stroke="#9a32cd" points="647.649,-422.521 639.229,-428.951 649.821,-429.175 647.649,-422.521"/>
<text text-anchor="middle" x="685" y="-422" font-family="Helvetica,sans-Serif" font-size="10.00"> control</text>
</g>
<!-- Node6&#45;&gt;Node5 -->
<g id="edge10" class="edge"><title>Node6&#45;&gt;Node5</title>
<path fill="none" stroke="#9a32cd" stroke-dasharray="5,2" d="M422.225,-721.055C451.659,-713.363 483.574,-700.273 506,-678 567.751,-616.671 582.522,-505.763 585.975,-463.237"/>
<polygon fill="#9a32cd" stroke="#9a32cd" points="421.242,-717.692 412.356,-723.462 422.9,-724.493 421.242,-717.692"/>
<text text-anchor="middle" x="474" y="-718" font-family="Helvetica,sans-Serif" font-size="10.00"> graphics</text>
</g>
<!-- Node7 -->
<g id="node13" class="node"><title>Node7</title>
<a xlink:href="../../d2/da9/classmars_1_1interfaces_1_1_controller_manager_interface.html" target="_top" xlink:title="&quot;ControllerManagerInterface&quot; declares the interfaces for all controller operations that are used for ...">
<polygon fill="white" stroke="black" points="278.5,-559 278.5,-593 413.5,-593 413.5,-559 278.5,-559"/>
<text text-anchor="start" x="286.5" y="-580" font-family="Helvetica,sans-Serif" font-size="10.00">mars::interfaces::Controller</text>
<text text-anchor="middle" x="346" y="-567" font-family="Helvetica,sans-Serif" font-size="10.00">ManagerInterface</text>
</a>
</g>
<!-- Node7&#45;&gt;Node5 -->
<g id="edge14" class="edge"><title>Node7&#45;&gt;Node5</title>
<path fill="none" stroke="#9a32cd" stroke-dasharray="5,2" d="M409.202,-555.484C414.229,-553.684 419.211,-551.845 424,-550 461.141,-535.692 472.194,-535.008 506,-514 529.704,-499.269 553.816,-478.059 569.494,-463.256"/>
<polygon fill="#9a32cd" stroke="#9a32cd" points="407.794,-552.269 399.519,-558.885 410.114,-558.873 407.794,-552.269"/>
<text text-anchor="middle" x="474" y="-546" font-family="Helvetica,sans-Serif" font-size="10.00"> controllers</text>
</g>
<!-- Node8 -->
<g id="node15" class="node"><title>Node8</title>
<a xlink:href="../../d6/d60/classmars_1_1interfaces_1_1_joint_manager_interface.html" target="_top" xlink:title="Interface class for the node organization. ">
<polygon fill="white" stroke="black" points="270,-507 270,-541 422,-541 422,-507 270,-507"/>
<text text-anchor="start" x="278" y="-528" font-family="Helvetica,sans-Serif" font-size="10.00">mars::interfaces::JointManager</text>
<text text-anchor="middle" x="346" y="-515" font-family="Helvetica,sans-Serif" font-size="10.00">Interface</text>
</a>
</g>
<!-- Node8&#45;&gt;Node5 -->
<g id="edge16" class="edge"><title>Node8&#45;&gt;Node5</title>
<path fill="none" stroke="#9a32cd" stroke-dasharray="5,2" d="M420.476,-504.196C447.579,-496.567 478.342,-487.415 506,-478 519.168,-473.517 533.333,-468.124 546.078,-463.053"/>
<polygon fill="#9a32cd" stroke="#9a32cd" points="419.358,-500.874 410.669,-506.935 421.241,-507.616 419.358,-500.874"/>
<text text-anchor="middle" x="474" y="-501" font-family="Helvetica,sans-Serif" font-size="10.00"> joints</text>
</g>
<!-- Node9 -->
<g id="node17" class="node"><title>Node9</title>
<a xlink:href="../../df/d82/classmars_1_1interfaces_1_1_entity_manager_interface.html" target="_top" xlink:title="mars::interfaces::Entity\lManagerInterface">
<polygon fill="white" stroke="black" points="286.5,-455 286.5,-489 405.5,-489 405.5,-455 286.5,-455"/>
<text text-anchor="start" x="294.5" y="-476" font-family="Helvetica,sans-Serif" font-size="10.00">mars::interfaces::Entity</text>
<text text-anchor="middle" x="346" y="-463" font-family="Helvetica,sans-Serif" font-size="10.00">ManagerInterface</text>
</a>
</g>
<!-- Node9&#45;&gt;Node5 -->
<g id="edge18" class="edge"><title>Node9&#45;&gt;Node5</title>
<path fill="none" stroke="#9a32cd" stroke-dasharray="5,2" d="M415.529,-464.499C449.865,-460.795 490.97,-456.36 524.326,-452.761"/>
<polygon fill="#9a32cd" stroke="#9a32cd" points="415.14,-461.021 405.573,-465.573 415.891,-467.98 415.14,-461.021"/>
<text text-anchor="middle" x="474" y="-465" font-family="Helvetica,sans-Serif" font-size="10.00"> entities</text>
</g>
<!-- Node10&#45;&gt;Node5 -->
<g id="edge20" class="edge"><title>Node10&#45;&gt;Node5</title>
<path fill="none" stroke="#9a32cd" stroke-dasharray="5,2" d="M412.89,-670.184C444.299,-662.627 480.373,-649.329 506,-626 555.921,-580.555 576.977,-498.461 584.031,-463.034"/>
<polygon fill="#9a32cd" stroke="#9a32cd" points="411.86,-666.828 402.875,-672.441 413.4,-673.657 411.86,-666.828"/>
<text text-anchor="middle" x="474" y="-665" font-family="Helvetica,sans-Serif" font-size="10.00"> cfg</text>
</g>
<!-- Node11&#45;&gt;Node5 -->
<g id="edge24" class="edge"><title>Node11&#45;&gt;Node5</title>
<path fill="none" stroke="#9a32cd" stroke-dasharray="5,2" d="M407.758,-611.32C439.739,-600.372 477.87,-583.47 506,-559 538.417,-530.802 564.914,-487.186 578.052,-463.225"/>
<polygon fill="#9a32cd" stroke="#9a32cd" points="406.445,-608.068 398.049,-614.529 408.642,-614.715 406.445,-608.068"/>
<text text-anchor="middle" x="474" y="-613" font-family="Helvetica,sans-Serif" font-size="10.00"> dataBroker</text>
<text text-anchor="middle" x="474" y="-600" font-family="Helvetica,sans-Serif" font-size="10.00">theDataBroker</text>
</g>
<!-- Node12 -->
<g id="node25" class="node"><title>Node12</title>
<a xlink:href="../../db/da9/classmars_1_1interfaces_1_1_sensor_manager_interface.html" target="_top" xlink:title="&quot;SensorManagerInterface&quot; declares the interfaces for all sensor operations that are used for the comm...">
<polygon fill="white" stroke="black" points="284,-403 284,-437 408,-437 408,-403 284,-403"/>
<text text-anchor="start" x="292" y="-424" font-family="Helvetica,sans-Serif" font-size="10.00">mars::interfaces::Sensor</text>
<text text-anchor="middle" x="346" y="-411" font-family="Helvetica,sans-Serif" font-size="10.00">ManagerInterface</text>
</a>
</g>
<!-- Node12&#45;&gt;Node5 -->
<g id="edge28" class="edge"><title>Node12&#45;&gt;Node5</title>
<path fill="none" stroke="#9a32cd" stroke-dasharray="5,2" d="M418.328,-427.803C452.076,-431.444 491.858,-435.736 524.309,-439.237"/>
<polygon fill="#9a32cd" stroke="#9a32cd" points="418.381,-424.289 408.063,-426.696 417.63,-431.248 418.381,-424.289"/>
<text text-anchor="middle" x="474" y="-440" font-family="Helvetica,sans-Serif" font-size="10.00"> sensors</text>
</g>
<!-- Node13 -->
<g id="node27" class="node"><title>Node13</title>
<a xlink:href="../../db/de9/classmars_1_1interfaces_1_1_motor_manager_interface.html" target="_top" xlink:title="&quot;MotorManagerInterface&quot; declares the interfaces for all motor operations that are used for the commun...">
<polygon fill="white" stroke="black" points="268.5,-351 268.5,-385 423.5,-385 423.5,-351 268.5,-351"/>
<text text-anchor="start" x="276.5" y="-372" font-family="Helvetica,sans-Serif" font-size="10.00">mars::interfaces::MotorManager</text>
<text text-anchor="middle" x="346" y="-359" font-family="Helvetica,sans-Serif" font-size="10.00">Interface</text>
</a>
</g>
<!-- Node13&#45;&gt;Node5 -->
<g id="edge30" class="edge"><title>Node13&#45;&gt;Node5</title>
<path fill="none" stroke="#9a32cd" stroke-dasharray="5,2" d="M423.058,-387.782C449.547,-395.08 479.257,-403.824 506,-413 519.788,-417.731 534.626,-423.554 547.787,-428.985"/>
<polygon fill="#9a32cd" stroke="#9a32cd" points="423.645,-384.314 413.077,-385.057 421.802,-391.067 423.645,-384.314"/>
<text text-anchor="middle" x="474" y="-417" font-family="Helvetica,sans-Serif" font-size="10.00"> motors</text>
</g>
<!-- Node14 -->
<g id="node29" class="node"><title>Node14</title>
<a xlink:href="../../d9/d6a/classmars_1_1interfaces_1_1_load_center.html" target="_top" xlink:title="mars::interfaces::LoadCenter">
<polygon fill="white" stroke="black" points="274.5,-311.5 274.5,-332.5 417.5,-332.5 417.5,-311.5 274.5,-311.5"/>
<text text-anchor="middle" x="346" y="-319.5" font-family="Helvetica,sans-Serif" font-size="10.00">mars::interfaces::LoadCenter</text>
</a>
</g>
<!-- Node14&#45;&gt;Node5 -->
<g id="edge32" class="edge"><title>Node14&#45;&gt;Node5</title>
<path fill="none" stroke="#9a32cd" stroke-dasharray="5,2" d="M401.578,-335.216C409.162,-337.32 416.808,-339.6 424,-342 461.425,-354.487 472.425,-355.282 506,-376 530.517,-391.128 555.039,-413.599 570.573,-428.974"/>
<polygon fill="#9a32cd" stroke="#9a32cd" points="402.253,-331.773 391.687,-332.556 400.435,-338.533 402.253,-331.773"/>
<text text-anchor="middle" x="474" y="-380" font-family="Helvetica,sans-Serif" font-size="10.00"> loadCenter</text>
</g>
<!-- Node15 -->
<g id="node31" class="node"><title>Node15</title>
<a xlink:href="../../d1/d51/classmars_1_1interfaces_1_1_load_heightmap_interface.html" target="_top" xlink:title="mars::interfaces::LoadHeightmap\lInterface">
<polygon fill="white" stroke="black" points="0.5,-331 0.5,-365 161.5,-365 161.5,-331 0.5,-331"/>
<text text-anchor="start" x="8.5" y="-352" font-family="Helvetica,sans-Serif" font-size="10.00">mars::interfaces::LoadHeightmap</text>
<text text-anchor="middle" x="81" y="-339" font-family="Helvetica,sans-Serif" font-size="10.00">Interface</text>
</a>
</g>
<!-- Node15&#45;&gt;Node14 -->
<g id="edge34" class="edge"><title>Node15&#45;&gt;Node14</title>
<path fill="none" stroke="#9a32cd" stroke-dasharray="5,2" d="M171.844,-339.087C205.335,-335.801 242.778,-332.127 274.339,-329.031"/>
<polygon fill="#9a32cd" stroke="#9a32cd" points="171.198,-335.633 161.588,-340.093 171.882,-342.6 171.198,-335.633"/>
<text text-anchor="middle" x="215" y="-342" font-family="Helvetica,sans-Serif" font-size="10.00"> loadHeightmap</text>
</g>
<!-- Node16 -->
<g id="node33" class="node"><title>Node16</title>
<a xlink:href="../../d7/d02/classmars_1_1interfaces_1_1_load_mesh_interface.html" target="_top" xlink:title="mars::interfaces::LoadMesh\lInterface">
<polygon fill="white" stroke="black" points="12,-279 12,-313 150,-313 150,-279 12,-279"/>
<text text-anchor="start" x="20" y="-300" font-family="Helvetica,sans-Serif" font-size="10.00">mars::interfaces::LoadMesh</text>
<text text-anchor="middle" x="81" y="-287" font-family="Helvetica,sans-Serif" font-size="10.00">Interface</text>
</a>
</g>
<!-- Node16&#45;&gt;Node14 -->
<g id="edge36" class="edge"><title>Node16&#45;&gt;Node14</title>
<path fill="none" stroke="#9a32cd" stroke-dasharray="5,2" d="M160.315,-303.782C196.535,-307.336 239.113,-311.513 274.353,-314.971"/>
<polygon fill="#9a32cd" stroke="#9a32cd" points="160.573,-300.29 150.279,-302.797 159.89,-307.257 160.573,-300.29"/>
<text text-anchor="middle" x="215" y="-316" font-family="Helvetica,sans-Serif" font-size="10.00"> loadMesh</text>
</g>
<!-- Node17 -->
<g id="node35" class="node"><title>Node17</title>
<a xlink:href="../../d7/d4c/classmars_1_1interfaces_1_1_node_manager_interface.html" target="_top" xlink:title="&quot;NodeManagerInterface&quot; declares the interfaces for all NodeOperations that are used for the communica...">
<polygon fill="white" stroke="black" points="269,-259 269,-293 423,-293 423,-259 269,-259"/>
<text text-anchor="start" x="277" y="-280" font-family="Helvetica,sans-Serif" font-size="10.00">mars::interfaces::NodeManager</text>
<text text-anchor="middle" x="346" y="-267" font-family="Helvetica,sans-Serif" font-size="10.00">Interface</text>
</a>
</g>
<!-- Node17&#45;&gt;Node5 -->
<g id="edge38" class="edge"><title>Node17&#45;&gt;Node5</title>
<path fill="none" stroke="#9a32cd" stroke-dasharray="5,2" d="M432.898,-294.88C458.13,-303.153 484.62,-314.796 506,-331 541.032,-357.551 566.846,-403.619 579.085,-428.632"/>
<polygon fill="#9a32cd" stroke="#9a32cd" points="433.891,-291.524 423.302,-291.872 431.797,-298.203 433.891,-291.524"/>
<text text-anchor="middle" x="474" y="-335" font-family="Helvetica,sans-Serif" font-size="10.00"> nodes</text>
</g>
<!-- Node18 -->
<g id="node37" class="node"><title>Node18</title>
<a xlink:href="../../dc/de5/classmars_1_1interfaces_1_1_simulator_interface.html" target="_top" xlink:title="mars::interfaces::Simulator\lInterface">
<polygon fill="white" stroke="black" points="279,-207 279,-241 413,-241 413,-207 279,-207"/>
<text text-anchor="start" x="287" y="-228" font-family="Helvetica,sans-Serif" font-size="10.00">mars::interfaces::Simulator</text>
<text text-anchor="middle" x="346" y="-215" font-family="Helvetica,sans-Serif" font-size="10.00">Interface</text>
</a>
</g>
<!-- Node18&#45;&gt;Node2 -->
<g id="edge44" class="edge"><title>Node18&#45;&gt;Node2</title>
<path fill="none" stroke="#9a32cd" stroke-dasharray="5,2" d="M423.391,-224.116C553.468,-224.312 814.02,-224.704 939.811,-224.893"/>
<polygon fill="#9a32cd" stroke="#9a32cd" points="423.12,-220.616 413.115,-224.101 423.11,-227.616 423.12,-220.616"/>
<text text-anchor="middle" x="685" y="-228" font-family="Helvetica,sans-Serif" font-size="10.00"> mars</text>
</g>
<!-- Node18&#45;&gt;Node5 -->
<g id="edge40" class="edge"><title>Node18&#45;&gt;Node5</title>
<path fill="none" stroke="#9a32cd" stroke-dasharray="5,2" d="M423,-238.709C451.772,-247.364 483.009,-260.921 506,-282 551.292,-323.526 574.392,-395.973 582.972,-428.873"/>
<polygon fill="#9a32cd" stroke="#9a32cd" points="423.928,-235.335 413.352,-235.959 422.009,-242.066 423.928,-235.335"/>
<text text-anchor="middle" x="474" y="-286" font-family="Helvetica,sans-Serif" font-size="10.00"> sim</text>
</g>
<!-- Node19 -->
<g id="node39" class="node"><title>Node19</title>
<polygon fill="white" stroke="#bfbfbf" points="759.5,-155.5 759.5,-176.5 800.5,-176.5 800.5,-155.5 759.5,-155.5"/>
<text text-anchor="middle" x="780" y="-163.5" font-family="Helvetica,sans-Serif" font-size="10.00">string</text>
</g>
<!-- Node19&#45;&gt;Node2 -->
<g id="edge42" class="edge"><title>Node19&#45;&gt;Node2</title>
<path fill="none" stroke="#9a32cd" stroke-dasharray="5,2" d="M810.958,-167.561C840.082,-169.631 884.671,-174.359 922,-185 941.549,-190.573 962.327,-199.71 978.886,-207.846"/>
<polygon fill="#9a32cd" stroke="#9a32cd" points="810.806,-164.044 800.601,-166.891 810.354,-171.029 810.806,-164.044"/>
<text text-anchor="middle" x="890" y="-202" font-family="Helvetica,sans-Serif" font-size="10.00"> configPath</text>
<text text-anchor="middle" x="890" y="-189" font-family="Helvetica,sans-Serif" font-size="10.00">resourcesPath</text>
</g>
<!-- Node22 -->
<g id="node46" class="node"><title>Node22</title>
<a xlink:href="../../dc/dc3/structmars_1_1cfg__manager_1_1cfg_property_struct.html" target="_top" xlink:title="mars::cfg_manager::\lcfgPropertyStruct">
<polygon fill="white" stroke="black" points="957.5,-144 957.5,-178 1064.5,-178 1064.5,-144 957.5,-144"/>
<text text-anchor="start" x="965.5" y="-165" font-family="Helvetica,sans-Serif" font-size="10.00">mars::cfg_manager::</text>
<text text-anchor="middle" x="1011" y="-152" font-family="Helvetica,sans-Serif" font-size="10.00">cfgPropertyStruct</text>
</a>
</g>
<!-- Node19&#45;&gt;Node22 -->
<g id="edge52" class="edge"><title>Node19&#45;&gt;Node22</title>
<path fill="none" stroke="#9a32cd" stroke-dasharray="5,2" d="M810.473,-157.769C824.782,-154.315 842.143,-150.708 858,-149 890.981,-145.448 928.07,-148.189 957.47,-151.942"/>
<polygon fill="#9a32cd" stroke="#9a32cd" points="809.508,-154.403 800.658,-160.228 811.209,-161.193 809.508,-154.403"/>
<text text-anchor="middle" x="890" y="-153" font-family="Helvetica,sans-Serif" font-size="10.00"> sValue</text>
</g>
<!-- Node20 -->
<g id="node42" class="node"><title>Node20</title>
<a xlink:href="../../d0/d0e/classmars_1_1data__broker_1_1_receiver_interface.html" target="_top" xlink:title="Interface for classes that want to receive data from the DataBroker. ">
<polygon fill="white" stroke="black" points="960.5,-92 960.5,-126 1061.5,-126 1061.5,-92 960.5,-92"/>
<text text-anchor="start" x="968.5" y="-113" font-family="Helvetica,sans-Serif" font-size="10.00">mars::data_broker::</text>
<text text-anchor="middle" x="1011" y="-100" font-family="Helvetica,sans-Serif" font-size="10.00">ReceiverInterface</text>
</a>
</g>
<!-- Node20&#45;&gt;Node1 -->
<g id="edge46" class="edge"><title>Node20&#45;&gt;Node1</title>
<path fill="none" stroke="midnightblue" d="M1072.08,-109C1106.39,-109 1148.86,-109 1182.1,-109"/>
<polygon fill="midnightblue" stroke="midnightblue" points="1071.72,-105.5 1061.72,-109 1071.72,-112.5 1071.72,-105.5"/>
</g>
<!-- Node21 -->
<g id="node44" class="node"><title>Node21</title>
<a xlink:href="../../d4/d1a/classmars_1_1cfg__manager_1_1_c_f_g_client.html" target="_top" xlink:title="mars::cfg_manager::\lCFGClient">
<polygon fill="white" stroke="black" points="957.5,-40 957.5,-74 1064.5,-74 1064.5,-40 957.5,-40"/>
<text text-anchor="start" x="965.5" y="-61" font-family="Helvetica,sans-Serif" font-size="10.00">mars::cfg_manager::</text>
<text text-anchor="middle" x="1011" y="-48" font-family="Helvetica,sans-Serif" font-size="10.00">CFGClient</text>
</a>
</g>
<!-- Node21&#45;&gt;Node1 -->
<g id="edge48" class="edge"><title>Node21&#45;&gt;Node1</title>
<path fill="none" stroke="midnightblue" d="M1074.38,-71.5825C1108.32,-79.3928 1149.72,-88.9185 1182.26,-96.404"/>
<polygon fill="midnightblue" stroke="midnightblue" points="1075.09,-68.1548 1064.56,-69.3233 1073.52,-74.9765 1075.09,-68.1548"/>
</g>
<!-- Node22&#45;&gt;Node1 -->
<g id="edge50" class="edge"><title>Node22&#45;&gt;Node1</title>
<path fill="none" stroke="#9a32cd" stroke-dasharray="5,2" d="M1074.38,-146.418C1108.32,-138.607 1149.72,-129.081 1182.26,-121.596"/>
<polygon fill="#9a32cd" stroke="#9a32cd" points="1073.52,-143.023 1064.56,-148.677 1075.09,-149.845 1073.52,-143.023"/>
<text text-anchor="middle" x="1132" y="-157" font-family="Helvetica,sans-Serif" font-size="10.00"> obj_file_struct</text>
<text text-anchor="middle" x="1132" y="-144" font-family="Helvetica,sans-Serif" font-size="10.00">svg_file_struct</text>
</g>
<!-- Node23 -->
<g id="node49" class="node"><title>Node23</title>
<a xlink:href="../../d0/db3/classosg__lines_1_1_lines.html" target="_top" xlink:title="osg_lines::Lines">
<polygon fill="white" stroke="black" points="967.5,-0.5 967.5,-21.5 1054.5,-21.5 1054.5,-0.5 967.5,-0.5"/>
<text text-anchor="middle" x="1011" y="-8.5" font-family="Helvetica,sans-Serif" font-size="10.00">osg_lines::Lines</text>
</a>
</g>
<!-- Node23&#45;&gt;Node1 -->
<g id="edge54" class="edge"><title>Node23&#45;&gt;Node1</title>
<path fill="none" stroke="#9a32cd" stroke-dasharray="5,2" d="M1060.41,-24.3225C1067.68,-26.4552 1075.06,-28.7151 1082,-31 1119.01,-43.1824 1129.21,-44.4682 1164,-62 1181.1,-70.6138 1199.19,-82.2482 1213.1,-91.7863"/>
<polygon fill="#9a32cd" stroke="#9a32cd" points="1061.2,-20.9051 1050.62,-21.5029 1059.26,-27.6321 1061.2,-20.9051"/>
<text text-anchor="middle" x="1132" y="-66" font-family="Helvetica,sans-Serif" font-size="10.00"> l</text>
</g>
</g>
</svg>
