<?xml version="1.0" encoding="UTF-8" standalone="no"?>
<!DOCTYPE svg PUBLIC "-//W3C//DTD SVG 1.1//EN"
 "http://www.w3.org/Graphics/SVG/1.1/DTD/svg11.dtd">
<!-- Generated by graphviz version 2.26.3 (20100126.1600)
 -->
<!-- Title: /home/kavonszadkowski/limes&#45;dev/simulation/mars/sim/src/sensors/RaySensor.h Pages: 1 -->
<svg width="656pt" height="142pt"
 viewBox="0.00 0.00 656.00 142.00" xmlns="http://www.w3.org/2000/svg" xmlns:xlink="http://www.w3.org/1999/xlink">
<g id="graph1" class="graph" transform="scale(1 1) rotate(0) translate(4 138)">
<title>/home/kavonszadkowski/limes&#45;dev/simulation/mars/sim/src/sensors/RaySensor.h</title>
<polygon fill="white" stroke="white" points="-4,5 -4,-138 653,-138 653,5 -4,5"/>
<!-- Node1 -->
<g id="node1" class="node"><title>Node1</title>
<polygon fill="#bfbfbf" stroke="black" points="258.5,-73 258.5,-133 383.5,-133 383.5,-73 258.5,-73"/>
<text text-anchor="start" x="266.5" y="-120" font-family="Helvetica,sans-Serif" font-size="10.00">/home/kavonszadkowski</text>
<text text-anchor="start" x="266.5" y="-107" font-family="Helvetica,sans-Serif" font-size="10.00">/limes&#45;dev/simulation</text>
<text text-anchor="start" x="266.5" y="-94" font-family="Helvetica,sans-Serif" font-size="10.00">/mars/sim/src/sensors</text>
<text text-anchor="middle" x="321" y="-81" font-family="Helvetica,sans-Serif" font-size="10.00">/RaySensor.h</text>
</g>
<!-- Node2 -->
<g id="node3" class="node"><title>Node2</title>
<polygon fill="white" stroke="#bfbfbf" points="-0.5,-1 -0.5,-35 102.5,-35 102.5,-1 -0.5,-1"/>
<text text-anchor="start" x="7.5" y="-22" font-family="Helvetica,sans-Serif" font-size="10.00">mars/interfaces/sim</text>
<text text-anchor="middle" x="51" y="-9" font-family="Helvetica,sans-Serif" font-size="10.00">/SensorInterface.h</text>
</g>
<!-- Node1&#45;&gt;Node2 -->
<g id="edge2" class="edge"><title>Node1&#45;&gt;Node2</title>
<path fill="none" stroke="midnightblue" d="M258.378,-83.2856C214.495,-69.4705 156.125,-51.0949 112.493,-37.3589"/>
<polygon fill="midnightblue" stroke="midnightblue" points="113.448,-33.9904 102.859,-34.326 111.346,-40.6674 113.448,-33.9904"/>
</g>
<!-- Node3 -->
<g id="node5" class="node"><title>Node3</title>
<polygon fill="white" stroke="#bfbfbf" points="120,-1 120,-35 254,-35 254,-1 120,-1"/>
<text text-anchor="start" x="128" y="-22" font-family="Helvetica,sans-Serif" font-size="10.00">mars/data_broker/Receiver</text>
<text text-anchor="middle" x="187" y="-9" font-family="Helvetica,sans-Serif" font-size="10.00">Interface.h</text>
</g>
<!-- Node1&#45;&gt;Node3 -->
<g id="edge4" class="edge"><title>Node1&#45;&gt;Node3</title>
<path fill="none" stroke="midnightblue" d="M273.379,-72.7928C256.652,-62.1824 238.162,-50.4534 222.595,-40.5788"/>
<polygon fill="midnightblue" stroke="midnightblue" points="224.122,-37.4025 213.802,-35.0015 220.372,-43.3136 224.122,-37.4025"/>
</g>
<!-- Node4 -->
<g id="node7" class="node"><title>Node4</title>
<polygon fill="white" stroke="#bfbfbf" points="271.5,-7.5 271.5,-28.5 370.5,-28.5 370.5,-7.5 271.5,-7.5"/>
<text text-anchor="middle" x="321" y="-15.5" font-family="Helvetica,sans-Serif" font-size="10.00">mars/utils/Vector.h</text>
</g>
<!-- Node1&#45;&gt;Node4 -->
<g id="edge6" class="edge"><title>Node1&#45;&gt;Node4</title>
<path fill="none" stroke="midnightblue" d="M321,-72.7928C321,-61.5792 321,-49.1163 321,-38.9133"/>
<polygon fill="midnightblue" stroke="midnightblue" points="324.5,-38.8949 321,-28.8949 317.5,-38.8949 324.5,-38.8949"/>
</g>
<!-- Node5 -->
<g id="node9" class="node"><title>Node5</title>
<polygon fill="white" stroke="#bfbfbf" points="388,-7.5 388,-28.5 506,-28.5 506,-7.5 388,-7.5"/>
<text text-anchor="middle" x="447" y="-15.5" font-family="Helvetica,sans-Serif" font-size="10.00">mars/utils/Quaternion.h</text>
</g>
<!-- Node1&#45;&gt;Node5 -->
<g id="edge8" class="edge"><title>Node1&#45;&gt;Node5</title>
<path fill="none" stroke="midnightblue" d="M365.778,-72.7928C384.995,-59.8286 406.688,-45.1945 422.818,-34.3133"/>
<polygon fill="midnightblue" stroke="midnightblue" points="424.823,-37.1827 431.156,-28.6886 420.908,-31.3796 424.823,-37.1827"/>
</g>
<!-- Node6 -->
<g id="node11" class="node"><title>Node6</title>
<polygon fill="white" stroke="#bfbfbf" points="524,-1 524,-35 648,-35 648,-1 524,-1"/>
<text text-anchor="start" x="532" y="-22" font-family="Helvetica,sans-Serif" font-size="10.00">mars/interfaces/graphics</text>
<text text-anchor="middle" x="586" y="-9" font-family="Helvetica,sans-Serif" font-size="10.00">/draw_structs.h</text>
</g>
<!-- Node1&#45;&gt;Node6 -->
<g id="edge10" class="edge"><title>Node1&#45;&gt;Node6</title>
<path fill="none" stroke="midnightblue" d="M383.801,-82.8562C425.832,-69.3748 480.942,-51.6978 523.011,-38.2039"/>
<polygon fill="midnightblue" stroke="midnightblue" points="524.139,-41.5178 532.593,-35.1307 522.001,-34.8523 524.139,-41.5178"/>
</g>
</g>
</svg>
