<?xml version="1.0" encoding="UTF-8" standalone="no"?>
<!DOCTYPE svg PUBLIC "-//W3C//DTD SVG 1.1//EN"
 "http://www.w3.org/Graphics/SVG/1.1/DTD/svg11.dtd">
<!-- Generated by graphviz version 2.36.0 (20140111.2315)
 -->
<!-- Title: mars::plugins::connectors::Connectors Pages: 1 -->
<svg width="482pt" height="241pt"
 viewBox="0.00 0.00 482.00 241.00" xmlns="http://www.w3.org/2000/svg" xmlns:xlink="http://www.w3.org/1999/xlink">
<g id="graph0" class="graph" transform="scale(1 1) rotate(0) translate(4 237)">
<title>mars::plugins::connectors::Connectors</title>
<polygon fill="white" stroke="none" points="-4,4 -4,-237 478,-237 478,4 -4,4"/>
<!-- Node1 -->
<g id="node1" class="node"><title>Node1</title>
<polygon fill="#bfbfbf" stroke="black" points="344.5,-93 344.5,-123 473.5,-123 473.5,-93 344.5,-93"/>
<text text-anchor="start" x="352.5" y="-111" font-family="Helvetica,sans-Serif" font-size="10.00">mars::plugins::connectors</text>
<text text-anchor="middle" x="409" y="-100" font-family="Helvetica,sans-Serif" font-size="10.00">::Connectors</text>
</g>
<!-- Node2 -->
<g id="node2" class="node"><title>Node2</title>
<g id="a_node2"><a xlink:href="../../da/df1/classmars_1_1interfaces_1_1_mars_plugin_template_g_u_i.html" target="_top" xlink:title="mars::interfaces::MarsPlugin\lTemplateGUI">
<polygon fill="white" stroke="black" points="161,-186 161,-216 303,-216 303,-186 161,-186"/>
<text text-anchor="start" x="169" y="-204" font-family="Helvetica,sans-Serif" font-size="10.00">mars::interfaces::MarsPlugin</text>
<text text-anchor="middle" x="232" y="-193" font-family="Helvetica,sans-Serif" font-size="10.00">TemplateGUI</text>
</a>
</g>
</g>
<!-- Node2&#45;&gt;Node1 -->
<g id="edge1" class="edge"><title>Node2&#45;&gt;Node1</title>
<path fill="none" stroke="midnightblue" d="M293.933,-182.29C298.759,-180.325 303.502,-178.225 308,-176 338.108,-161.103 369.643,-138.265 389.061,-123.231"/>
<polygon fill="midnightblue" stroke="midnightblue" points="292.659,-179.03 284.592,-185.898 295.181,-185.56 292.659,-179.03"/>
</g>
<!-- Node3 -->
<g id="node3" class="node"><title>Node3</title>
<polygon fill="white" stroke="#bfbfbf" points="26,-213.5 26,-232.5 94,-232.5 94,-213.5 26,-213.5"/>
<text text-anchor="middle" x="60" y="-220.5" font-family="Helvetica,sans-Serif" font-size="10.00">LibInterface</text>
</g>
<!-- Node3&#45;&gt;Node2 -->
<g id="edge2" class="edge"><title>Node3&#45;&gt;Node2</title>
<path fill="none" stroke="midnightblue" d="M104.457,-217.376C121.643,-215.152 141.832,-212.539 160.976,-210.062"/>
<polygon fill="midnightblue" stroke="midnightblue" points="103.649,-213.951 94.1813,-218.706 104.548,-220.894 103.649,-213.951"/>
</g>
<!-- Node4 -->
<g id="node4" class="node"><title>Node4</title>
<g id="a_node4"><a xlink:href="../../d1/d70/classmars_1_1interfaces_1_1_plugin_interface.html" target="_top" xlink:title="The interface to load plugin dynamically into the simulation. ">
<polygon fill="white" stroke="black" points="0,-164 0,-194 120,-194 120,-164 0,-164"/>
<text text-anchor="start" x="8" y="-182" font-family="Helvetica,sans-Serif" font-size="10.00">mars::interfaces::Plugin</text>
<text text-anchor="middle" x="60" y="-171" font-family="Helvetica,sans-Serif" font-size="10.00">Interface</text>
</a>
</g>
</g>
<!-- Node4&#45;&gt;Node2 -->
<g id="edge3" class="edge"><title>Node4&#45;&gt;Node2</title>
<path fill="none" stroke="midnightblue" d="M130.681,-188.018C140.615,-189.303 150.837,-190.626 160.781,-191.913"/>
<polygon fill="midnightblue" stroke="midnightblue" points="130.824,-184.507 120.458,-186.695 129.926,-191.449 130.824,-184.507"/>
</g>
<!-- Node5 -->
<g id="node5" class="node"><title>Node5</title>
<g id="a_node5"><a xlink:href="../../d0/d0e/classmars_1_1data__broker_1_1_receiver_interface.html" target="_top" xlink:title="Interface for classes that want to receive data from the DataBroker. ">
<polygon fill="white" stroke="black" points="181.5,-137 181.5,-167 282.5,-167 282.5,-137 181.5,-137"/>
<text text-anchor="start" x="189.5" y="-155" font-family="Helvetica,sans-Serif" font-size="10.00">mars::data_broker::</text>
<text text-anchor="middle" x="232" y="-144" font-family="Helvetica,sans-Serif" font-size="10.00">ReceiverInterface</text>
</a>
</g>
</g>
<!-- Node5&#45;&gt;Node1 -->
<g id="edge4" class="edge"><title>Node5&#45;&gt;Node1</title>
<path fill="none" stroke="midnightblue" d="M292.475,-137.046C310.473,-132.521 330.241,-127.551 348.257,-123.021"/>
<polygon fill="midnightblue" stroke="midnightblue" points="291.525,-133.676 282.68,-139.509 293.231,-140.465 291.525,-133.676"/>
</g>
<!-- Node6 -->
<g id="node6" class="node"><title>Node6</title>
<g id="a_node6"><a xlink:href="../../d3/d52/classmars_1_1main__gui_1_1_menu_interface.html" target="_top" xlink:title="Provides the menuAction function. ">
<polygon fill="white" stroke="black" points="156,-98.5 156,-117.5 308,-117.5 308,-98.5 156,-98.5"/>
<text text-anchor="middle" x="232" y="-105.5" font-family="Helvetica,sans-Serif" font-size="10.00">mars::main_gui::MenuInterface</text>
</a>
</g>
</g>
<!-- Node6&#45;&gt;Node1 -->
<g id="edge5" class="edge"><title>Node6&#45;&gt;Node1</title>
<path fill="none" stroke="midnightblue" d="M318.447,-108C327.177,-108 335.935,-108 344.372,-108"/>
<polygon fill="midnightblue" stroke="midnightblue" points="318.231,-104.5 308.231,-108 318.231,-111.5 318.231,-104.5"/>
</g>
<!-- Node7 -->
<g id="node7" class="node"><title>Node7</title>
<g id="a_node7"><a xlink:href="../../d4/d1a/classmars_1_1cfg__manager_1_1_c_f_g_client.html" target="_top" xlink:title="mars::cfg_manager::\lCFGClient">
<polygon fill="white" stroke="black" points="178.5,-49 178.5,-79 285.5,-79 285.5,-49 178.5,-49"/>
<text text-anchor="start" x="186.5" y="-67" font-family="Helvetica,sans-Serif" font-size="10.00">mars::cfg_manager::</text>
<text text-anchor="middle" x="232" y="-56" font-family="Helvetica,sans-Serif" font-size="10.00">CFGClient</text>
</a>
</g>
</g>
<!-- Node7&#45;&gt;Node1 -->
<g id="edge6" class="edge"><title>Node7&#45;&gt;Node1</title>
<path fill="none" stroke="midnightblue" d="M295.425,-79.6955C312.587,-84.0103 331.153,-88.6786 348.165,-92.9558"/>
<polygon fill="midnightblue" stroke="midnightblue" points="296.057,-76.2456 285.506,-77.2015 294.35,-83.0343 296.057,-76.2456"/>
</g>
<!-- Node8 -->
<g id="node8" class="node"><title>Node8</title>
<g id="a_node8"><a xlink:href="../../dc/d9e/classmars_1_1interfaces_1_1_entity_subscriber_interface.html" target="_top" xlink:title="The interface for notifying components of changes in simulation entities. ">
<polygon fill="white" stroke="black" points="172.5,-0 172.5,-30 291.5,-30 291.5,-0 172.5,-0"/>
<text text-anchor="start" x="180.5" y="-18" font-family="Helvetica,sans-Serif" font-size="10.00">mars::interfaces::Entity</text>
<text text-anchor="middle" x="232" y="-7" font-family="Helvetica,sans-Serif" font-size="10.00">SubscriberInterface</text>
</a>
</g>
</g>
<!-- Node8&#45;&gt;Node1 -->
<g id="edge7" class="edge"><title>Node8&#45;&gt;Node1</title>
<path fill="none" stroke="midnightblue" d="M296.177,-33.7071C300.23,-35.369 304.204,-37.1343 308,-39 338.477,-53.9801 370.172,-77.4091 389.499,-92.735"/>
<polygon fill="midnightblue" stroke="midnightblue" points="297.211,-30.3546 286.622,-30.0184 294.691,-36.885 297.211,-30.3546"/>
</g>
</g>
</svg>
