<?xml version="1.0" encoding="UTF-8" standalone="no"?>
<!DOCTYPE svg PUBLIC "-//W3C//DTD SVG 1.1//EN"
 "http://www.w3.org/Graphics/SVG/1.1/DTD/svg11.dtd">
<!-- Generated by graphviz version 2.36.0 (20140111.2315)
 -->
<!-- Title: /media/kavonszadkowski/work/marsdocs/mars/scene_loader/src/Save.h Pages: 1 -->
<svg width="1933pt" height="186pt"
 viewBox="0.00 0.00 1933.00 186.00" xmlns="http://www.w3.org/2000/svg" xmlns:xlink="http://www.w3.org/1999/xlink">
<g id="graph0" class="graph" transform="scale(1 1) rotate(0) translate(4 182)">
<title>/media/kavonszadkowski/work/marsdocs/mars/scene_loader/src/Save.h</title>
<polygon fill="white" stroke="none" points="-4,4 -4,-182 1929,-182 1929,4 -4,4"/>
<!-- Node1 -->
<g id="node1" class="node"><title>Node1</title>
<polygon fill="#bfbfbf" stroke="black" points="1570,-136.5 1570,-177.5 1710,-177.5 1710,-136.5 1570,-136.5"/>
<text text-anchor="start" x="1578" y="-165.5" font-family="Helvetica,sans-Serif" font-size="10.00">/media/kavonszadkowski</text>
<text text-anchor="start" x="1578" y="-154.5" font-family="Helvetica,sans-Serif" font-size="10.00">/work/marsdocs/mars/scene</text>
<text text-anchor="middle" x="1640" y="-143.5" font-family="Helvetica,sans-Serif" font-size="10.00">_loader/src/Save.h</text>
</g>
<!-- Node2 -->
<g id="node2" class="node"><title>Node2</title>
<polygon fill="white" stroke="#bfbfbf" points="1564.5,-6.5 1564.5,-25.5 1605.5,-25.5 1605.5,-6.5 1564.5,-6.5"/>
<text text-anchor="middle" x="1585" y="-13.5" font-family="Helvetica,sans-Serif" font-size="10.00">string</text>
</g>
<!-- Node1&#45;&gt;Node2 -->
<g id="edge1" class="edge"><title>Node1&#45;&gt;Node2</title>
<path fill="none" stroke="midnightblue" d="M1632.24,-136.38C1621.57,-109.413 1602.52,-61.2702 1592.17,-35.1175"/>
<polygon fill="midnightblue" stroke="midnightblue" points="1595.37,-33.6837 1588.43,-25.6729 1588.86,-36.2592 1595.37,-33.6837"/>
</g>
<!-- Node3 -->
<g id="node3" class="node"><title>Node3</title>
<polygon fill="white" stroke="#bfbfbf" points="1624,-6.5 1624,-25.5 1668,-25.5 1668,-6.5 1624,-6.5"/>
<text text-anchor="middle" x="1646" y="-13.5" font-family="Helvetica,sans-Serif" font-size="10.00">vector</text>
</g>
<!-- Node1&#45;&gt;Node3 -->
<g id="edge2" class="edge"><title>Node1&#45;&gt;Node3</title>
<path fill="none" stroke="midnightblue" d="M1640.85,-136.38C1642,-109.652 1644.05,-62.1244 1645.19,-35.8201"/>
<polygon fill="midnightblue" stroke="midnightblue" points="1648.69,-35.8146 1645.63,-25.6729 1641.7,-35.5126 1648.69,-35.8146"/>
</g>
<!-- Node4 -->
<g id="node4" class="node"><title>Node4</title>
<polygon fill="white" stroke="#bfbfbf" points="1729.5,-69 1729.5,-99 1832.5,-99 1832.5,-69 1729.5,-69"/>
<text text-anchor="start" x="1737.5" y="-87" font-family="Helvetica,sans-Serif" font-size="10.00">mars/interfaces/sim</text>
<text text-anchor="middle" x="1781" y="-76" font-family="Helvetica,sans-Serif" font-size="10.00">/ControlCenter.h</text>
</g>
<!-- Node1&#45;&gt;Node4 -->
<g id="edge3" class="edge"><title>Node1&#45;&gt;Node4</title>
<path fill="none" stroke="midnightblue" d="M1678.9,-136.411C1699.17,-126.206 1723.83,-113.789 1743.83,-103.715"/>
<polygon fill="midnightblue" stroke="midnightblue" points="1745.6,-106.746 1752.95,-99.1228 1742.45,-100.494 1745.6,-106.746"/>
</g>
<!-- Node5 -->
<g id="node5" class="node"><title>Node5</title>
<g id="a_node5"><a xlink:href="../../d7/d37/scene__loader_2src_2zipit_8h.html" target="_top" xlink:title="zipit.h">
<polygon fill="white" stroke="black" points="1668.5,-74.5 1668.5,-93.5 1711.5,-93.5 1711.5,-74.5 1668.5,-74.5"/>
<text text-anchor="middle" x="1690" y="-81.5" font-family="Helvetica,sans-Serif" font-size="10.00">zipit.h</text>
</a>
</g>
</g>
<!-- Node1&#45;&gt;Node5 -->
<g id="edge4" class="edge"><title>Node1&#45;&gt;Node5</title>
<path fill="none" stroke="midnightblue" d="M1653.93,-136.223C1661.45,-125.541 1670.65,-112.481 1677.87,-102.221"/>
<polygon fill="midnightblue" stroke="midnightblue" points="1680.95,-103.926 1683.85,-93.7349 1675.23,-99.8957 1680.95,-103.926"/>
</g>
<!-- Node9 -->
<g id="node9" class="node"><title>Node9</title>
<g id="a_node9"><a xlink:href="../../da/d47/_save_load_structs_8h.html" target="_top" xlink:title="SaveLoadStructs.h">
<polygon fill="white" stroke="black" points="1011,-74.5 1011,-93.5 1111,-93.5 1111,-74.5 1011,-74.5"/>
<text text-anchor="middle" x="1061" y="-81.5" font-family="Helvetica,sans-Serif" font-size="10.00">SaveLoadStructs.h</text>
</a>
</g>
</g>
<!-- Node1&#45;&gt;Node9 -->
<g id="edge10" class="edge"><title>Node1&#45;&gt;Node9</title>
<path fill="none" stroke="midnightblue" d="M1569.87,-147.4C1455.1,-133.327 1229.15,-105.619 1121.19,-92.3809"/>
<polygon fill="midnightblue" stroke="midnightblue" points="1121.47,-88.8891 1111.12,-91.1459 1120.62,-95.8371 1121.47,-88.8891"/>
</g>
<!-- Node5&#45;&gt;Node2 -->
<g id="edge5" class="edge"><title>Node5&#45;&gt;Node2</title>
<path fill="none" stroke="midnightblue" d="M1676.27,-74.3717C1658.74,-63.3533 1628.19,-44.1449 1607.3,-31.0142"/>
<polygon fill="midnightblue" stroke="midnightblue" points="1609.06,-27.989 1598.73,-25.6305 1605.33,-33.9155 1609.06,-27.989"/>
</g>
<!-- Node5&#45;&gt;Node3 -->
<g id="edge7" class="edge"><title>Node5&#45;&gt;Node3</title>
<path fill="none" stroke="midnightblue" d="M1684.25,-74.3717C1677.5,-64.2495 1666.14,-47.2154 1657.55,-34.3312"/>
<polygon fill="midnightblue" stroke="midnightblue" points="1660.35,-32.2202 1651.89,-25.8411 1654.53,-36.1031 1660.35,-32.2202"/>
</g>
<!-- Node6 -->
<g id="node6" class="node"><title>Node6</title>
<polygon fill="white" stroke="#bfbfbf" points="1686,-6.5 1686,-25.5 1736,-25.5 1736,-6.5 1686,-6.5"/>
<text text-anchor="middle" x="1711" y="-13.5" font-family="Helvetica,sans-Serif" font-size="10.00">fstream</text>
</g>
<!-- Node5&#45;&gt;Node6 -->
<g id="edge6" class="edge"><title>Node5&#45;&gt;Node6</title>
<path fill="none" stroke="midnightblue" d="M1692.75,-74.3717C1695.87,-64.5443 1701.07,-48.2018 1705.12,-35.4673"/>
<polygon fill="midnightblue" stroke="midnightblue" points="1708.49,-36.4316 1708.19,-25.8411 1701.82,-34.3091 1708.49,-36.4316"/>
</g>
<!-- Node7 -->
<g id="node7" class="node"><title>Node7</title>
<polygon fill="white" stroke="#bfbfbf" points="1754,-6.5 1754,-25.5 1836,-25.5 1836,-6.5 1754,-6.5"/>
<text text-anchor="middle" x="1795" y="-13.5" font-family="Helvetica,sans-Serif" font-size="10.00">minizip/unzip.h</text>
</g>
<!-- Node5&#45;&gt;Node7 -->
<g id="edge8" class="edge"><title>Node5&#45;&gt;Node7</title>
<path fill="none" stroke="midnightblue" d="M1703.73,-74.3717C1721.26,-63.3533 1751.81,-44.1449 1772.7,-31.0142"/>
<polygon fill="midnightblue" stroke="midnightblue" points="1774.67,-33.9155 1781.27,-25.6305 1770.94,-27.989 1774.67,-33.9155"/>
</g>
<!-- Node8 -->
<g id="node8" class="node"><title>Node8</title>
<polygon fill="white" stroke="#bfbfbf" points="1854.5,-6.5 1854.5,-25.5 1925.5,-25.5 1925.5,-6.5 1854.5,-6.5"/>
<text text-anchor="middle" x="1890" y="-13.5" font-family="Helvetica,sans-Serif" font-size="10.00">minizip/zip.h</text>
</g>
<!-- Node5&#45;&gt;Node8 -->
<g id="edge9" class="edge"><title>Node5&#45;&gt;Node8</title>
<path fill="none" stroke="midnightblue" d="M1706.5,-74.3794C1711.13,-72.1407 1716.2,-69.8431 1721,-68 1774.57,-47.4297 1790.21,-49.0769 1845,-32 1848.32,-30.9639 1851.78,-29.8608 1855.23,-28.7412"/>
<polygon fill="midnightblue" stroke="midnightblue" points="1856.42,-32.0329 1864.83,-25.5839 1854.24,-25.3832 1856.42,-32.0329"/>
</g>
<!-- Node9&#45;&gt;Node2 -->
<g id="edge23" class="edge"><title>Node9&#45;&gt;Node2</title>
<path fill="none" stroke="midnightblue" d="M1111.21,-83.708C1201.78,-83.7009 1397.71,-77.785 1555,-32 1556.97,-31.4263 1558.97,-30.7262 1560.95,-29.9454"/>
<polygon fill="midnightblue" stroke="midnightblue" points="1562.84,-32.9262 1570.48,-25.5801 1559.93,-26.5619 1562.84,-32.9262"/>
</g>
<!-- Node9&#45;&gt;Node3 -->
<g id="edge22" class="edge"><title>Node9&#45;&gt;Node3</title>
<path fill="none" stroke="midnightblue" d="M1111.02,-80.6006C1228.61,-74.6033 1519.79,-57.5816 1614,-32 1616.35,-31.3624 1618.74,-30.5624 1621.1,-29.6656"/>
<polygon fill="midnightblue" stroke="midnightblue" points="1622.68,-32.7935 1630.46,-25.6023 1619.89,-26.3719 1622.68,-32.7935"/>
</g>
<!-- Node10 -->
<g id="node10" class="node"><title>Node10</title>
<polygon fill="white" stroke="#bfbfbf" points="1290,-1 1290,-31 1406,-31 1406,-1 1290,-1"/>
<text text-anchor="start" x="1298" y="-19" font-family="Helvetica,sans-Serif" font-size="10.00">mars/interfaces/sensor</text>
<text text-anchor="middle" x="1348" y="-8" font-family="Helvetica,sans-Serif" font-size="10.00">_bases.h</text>
</g>
<!-- Node9&#45;&gt;Node10 -->
<g id="edge11" class="edge"><title>Node9&#45;&gt;Node10</title>
<path fill="none" stroke="midnightblue" d="M1098.23,-74.4393C1144.15,-63.8774 1223.13,-45.7165 1279.99,-32.6399"/>
<polygon fill="midnightblue" stroke="midnightblue" points="1281.02,-35.9945 1289.98,-30.3423 1279.45,-29.1725 1281.02,-35.9945"/>
</g>
<!-- Node11 -->
<g id="node11" class="node"><title>Node11</title>
<polygon fill="white" stroke="#bfbfbf" points="1424,-1 1424,-31 1546,-31 1546,-1 1424,-1"/>
<text text-anchor="start" x="1432" y="-19" font-family="Helvetica,sans-Serif" font-size="10.00">mars/interfaces/Material</text>
<text text-anchor="middle" x="1485" y="-8" font-family="Helvetica,sans-Serif" font-size="10.00">Data.h</text>
</g>
<!-- Node9&#45;&gt;Node11 -->
<g id="edge12" class="edge"><title>Node9&#45;&gt;Node11</title>
<path fill="none" stroke="midnightblue" d="M1111.14,-76.794C1179.73,-68.0693 1306.55,-51.0922 1414,-32 1414.1,-31.9821 1414.2,-31.9641 1414.3,-31.9462"/>
<polygon fill="midnightblue" stroke="midnightblue" points="1414.66,-35.4393 1423.86,-30.1796 1413.39,-28.5559 1414.66,-35.4393"/>
</g>
<!-- Node12 -->
<g id="node12" class="node"><title>Node12</title>
<polygon fill="white" stroke="#bfbfbf" points="-0.5,-6.5 -0.5,-25.5 140.5,-25.5 140.5,-6.5 -0.5,-6.5"/>
<text text-anchor="middle" x="70" y="-13.5" font-family="Helvetica,sans-Serif" font-size="10.00">mars/interfaces/MotorData.h</text>
</g>
<!-- Node9&#45;&gt;Node12 -->
<g id="edge13" class="edge"><title>Node9&#45;&gt;Node12</title>
<path fill="none" stroke="midnightblue" d="M1010.93,-82.4685C873.108,-80.516 476.7,-71.604 150,-32 140.317,-30.8262 130.04,-29.1949 120.193,-27.4382"/>
<polygon fill="midnightblue" stroke="midnightblue" points="120.6,-23.9542 110.13,-25.576 119.326,-30.8373 120.6,-23.9542"/>
</g>
<!-- Node13 -->
<g id="node13" class="node"><title>Node13</title>
<polygon fill="white" stroke="#bfbfbf" points="159,-6.5 159,-25.5 299,-25.5 299,-6.5 159,-6.5"/>
<text text-anchor="middle" x="229" y="-13.5" font-family="Helvetica,sans-Serif" font-size="10.00">mars/interfaces/NodeData.h</text>
</g>
<!-- Node9&#45;&gt;Node13 -->
<g id="edge14" class="edge"><title>Node9&#45;&gt;Node13</title>
<path fill="none" stroke="midnightblue" d="M1010.57,-81.6739C889.155,-78.0272 571.175,-65.7733 308,-32 298.545,-30.7867 288.514,-29.1535 278.886,-27.4107"/>
<polygon fill="midnightblue" stroke="midnightblue" points="279.514,-23.9674 269.04,-25.5679 278.226,-30.8479 279.514,-23.9674"/>
</g>
<!-- Node14 -->
<g id="node14" class="node"><title>Node14</title>
<polygon fill="white" stroke="#bfbfbf" points="317.5,-6.5 317.5,-25.5 454.5,-25.5 454.5,-6.5 317.5,-6.5"/>
<text text-anchor="middle" x="386" y="-13.5" font-family="Helvetica,sans-Serif" font-size="10.00">mars/interfaces/JointData.h</text>
</g>
<!-- Node9&#45;&gt;Node14 -->
<g id="edge15" class="edge"><title>Node9&#45;&gt;Node14</title>
<path fill="none" stroke="midnightblue" d="M1010.79,-80.5421C907.727,-75.096 665.004,-60.2067 463,-32 454.082,-30.7547 444.634,-29.1521 435.525,-27.4598"/>
<polygon fill="midnightblue" stroke="midnightblue" points="435.911,-23.9702 425.431,-25.5254 434.594,-30.8451 435.911,-23.9702"/>
</g>
<!-- Node15 -->
<g id="node15" class="node"><title>Node15</title>
<polygon fill="white" stroke="#bfbfbf" points="472.5,-1 472.5,-31 601.5,-31 601.5,-1 472.5,-1"/>
<text text-anchor="start" x="480.5" y="-19" font-family="Helvetica,sans-Serif" font-size="10.00">mars/interfaces/Controller</text>
<text text-anchor="middle" x="537" y="-8" font-family="Helvetica,sans-Serif" font-size="10.00">Data.h</text>
</g>
<!-- Node9&#45;&gt;Node15 -->
<g id="edge16" class="edge"><title>Node9&#45;&gt;Node15</title>
<path fill="none" stroke="midnightblue" d="M1010.75,-78.8065C929.032,-71.6616 762.117,-55.7121 611.706,-32.1954"/>
<polygon fill="midnightblue" stroke="midnightblue" points="612.247,-28.7376 601.823,-30.6355 611.155,-35.652 612.247,-28.7376"/>
</g>
<!-- Node16 -->
<g id="node16" class="node"><title>Node16</title>
<polygon fill="white" stroke="#bfbfbf" points="619.5,-1 619.5,-31 728.5,-31 728.5,-1 619.5,-1"/>
<text text-anchor="start" x="627.5" y="-19" font-family="Helvetica,sans-Serif" font-size="10.00">mars/interfaces/core</text>
<text text-anchor="middle" x="674" y="-8" font-family="Helvetica,sans-Serif" font-size="10.00">_objects_exchange.h</text>
</g>
<!-- Node9&#45;&gt;Node16 -->
<g id="edge17" class="edge"><title>Node9&#45;&gt;Node16</title>
<path fill="none" stroke="midnightblue" d="M1010.83,-76.3347C948.969,-67.8421 840.418,-52.0529 738.427,-32.2024"/>
<polygon fill="midnightblue" stroke="midnightblue" points="739.066,-28.7612 728.579,-30.2688 737.717,-35.63 739.066,-28.7612"/>
</g>
<!-- Node17 -->
<g id="node17" class="node"><title>Node17</title>
<polygon fill="white" stroke="#bfbfbf" points="746.5,-6.5 746.5,-25.5 883.5,-25.5 883.5,-6.5 746.5,-6.5"/>
<text text-anchor="middle" x="815" y="-13.5" font-family="Helvetica,sans-Serif" font-size="10.00">mars/interfaces/LightData.h</text>
</g>
<!-- Node9&#45;&gt;Node17 -->
<g id="edge18" class="edge"><title>Node9&#45;&gt;Node17</title>
<path fill="none" stroke="midnightblue" d="M1029.09,-74.4393C985.035,-62.6191 905.504,-41.2814 856.761,-28.2043"/>
<polygon fill="midnightblue" stroke="midnightblue" points="857.417,-24.7564 846.851,-25.5455 855.603,-31.5173 857.417,-24.7564"/>
</g>
<!-- Node18 -->
<g id="node18" class="node"><title>Node18</title>
<polygon fill="white" stroke="#bfbfbf" points="902,-6.5 902,-25.5 1052,-25.5 1052,-6.5 902,-6.5"/>
<text text-anchor="middle" x="977" y="-13.5" font-family="Helvetica,sans-Serif" font-size="10.00">mars/interfaces/GraphicData.h</text>
</g>
<!-- Node9&#45;&gt;Node18 -->
<g id="edge19" class="edge"><title>Node9&#45;&gt;Node18</title>
<path fill="none" stroke="midnightblue" d="M1050.02,-74.3717C1036.31,-63.6004 1012.64,-45.0021 995.972,-31.9065"/>
<polygon fill="midnightblue" stroke="midnightblue" points="998.01,-29.0566 987.984,-25.6305 993.685,-34.5608 998.01,-29.0566"/>
</g>
<!-- Node19 -->
<g id="node19" class="node"><title>Node19</title>
<polygon fill="white" stroke="#bfbfbf" points="1069.5,-6.5 1069.5,-25.5 1218.5,-25.5 1218.5,-6.5 1069.5,-6.5"/>
<text text-anchor="middle" x="1144" y="-13.5" font-family="Helvetica,sans-Serif" font-size="10.00">mars/interfaces/terrainStruct.h</text>
</g>
<!-- Node9&#45;&gt;Node19 -->
<g id="edge20" class="edge"><title>Node9&#45;&gt;Node19</title>
<path fill="none" stroke="midnightblue" d="M1071.85,-74.3717C1085.4,-63.6004 1108.79,-45.0021 1125.25,-31.9065"/>
<polygon fill="midnightblue" stroke="midnightblue" points="1127.5,-34.5939 1133.15,-25.6305 1123.14,-29.1149 1127.5,-34.5939"/>
</g>
<!-- Node20 -->
<g id="node20" class="node"><title>Node20</title>
<polygon fill="white" stroke="#bfbfbf" points="1236.5,-6.5 1236.5,-25.5 1271.5,-25.5 1271.5,-6.5 1236.5,-6.5"/>
<text text-anchor="middle" x="1254" y="-13.5" font-family="Helvetica,sans-Serif" font-size="10.00">map</text>
</g>
<!-- Node9&#45;&gt;Node20 -->
<g id="edge21" class="edge"><title>Node9&#45;&gt;Node20</title>
<path fill="none" stroke="midnightblue" d="M1096.41,-74.4222C1130.55,-65.6209 1183.31,-50.6044 1227,-32 1228.36,-31.4222 1229.73,-30.7955 1231.11,-30.137"/>
<polygon fill="midnightblue" stroke="midnightblue" points="1232.74,-33.2369 1239.99,-25.5125 1229.5,-27.0289 1232.74,-33.2369"/>
</g>
</g>
</svg>
