<?xml version="1.0" encoding="UTF-8" standalone="no"?>
<!DOCTYPE svg PUBLIC "-//W3C//DTD SVG 1.1//EN"
 "http://www.w3.org/Graphics/SVG/1.1/DTD/svg11.dtd">
<!-- Generated by graphviz version 2.26.3 (20100126.1600)
 -->
<!-- Title: /home/kavonszadkowski/limes&#45;dev/simulation/mars/common/graphics/osg_plot/src/Plot.cpp Pages: 1 -->
<svg width="524pt" height="244pt"
 viewBox="0.00 0.00 524.00 244.00" xmlns="http://www.w3.org/2000/svg" xmlns:xlink="http://www.w3.org/1999/xlink">
<g id="graph1" class="graph" transform="scale(1 1) rotate(0) translate(4 240)">
<title>/home/kavonszadkowski/limes&#45;dev/simulation/mars/common/graphics/osg_plot/src/Plot.cpp</title>
<polygon fill="white" stroke="white" points="-4,5 -4,-240 521,-240 521,5 -4,5"/>
<!-- Node1 -->
<g id="node1" class="node"><title>Node1</title>
<polygon fill="#bfbfbf" stroke="black" points="265.5,-175 265.5,-235 390.5,-235 390.5,-175 265.5,-175"/>
<text text-anchor="start" x="273.5" y="-222" font-family="Helvetica,sans-Serif" font-size="10.00">/home/kavonszadkowski</text>
<text text-anchor="start" x="273.5" y="-209" font-family="Helvetica,sans-Serif" font-size="10.00">/limes&#45;dev/simulation</text>
<text text-anchor="start" x="273.5" y="-196" font-family="Helvetica,sans-Serif" font-size="10.00">/mars/common/graphics</text>
<text text-anchor="middle" x="328" y="-183" font-family="Helvetica,sans-Serif" font-size="10.00">/osg_plot/src/Plot.cpp</text>
</g>
<!-- Node2 -->
<g id="node3" class="node"><title>Node2</title>
<a xlink:href="../../d6/d23/_plot_8h.html" target="_top" xlink:title="Plot.h">
<polygon fill="white" stroke="black" points="236,-116.5 236,-137.5 278,-137.5 278,-116.5 236,-116.5"/>
<text text-anchor="middle" x="257" y="-124.5" font-family="Helvetica,sans-Serif" font-size="10.00">Plot.h</text>
</a>
</g>
<!-- Node1&#45;&gt;Node2 -->
<g id="edge2" class="edge"><title>Node1&#45;&gt;Node2</title>
<path fill="none" stroke="midnightblue" d="M300.346,-174.62C291.284,-164.664 281.503,-153.919 273.53,-145.16"/>
<polygon fill="midnightblue" stroke="midnightblue" points="276.108,-142.793 266.788,-137.753 270.932,-147.505 276.108,-142.793"/>
</g>
<!-- Node9 -->
<g id="node17" class="node"><title>Node9</title>
<a xlink:href="../../db/d95/_curve_p_8h.html" target="_top" xlink:title="CurveP.h">
<polygon fill="white" stroke="black" points="160,-116.5 160,-137.5 218,-137.5 218,-116.5 160,-116.5"/>
<text text-anchor="middle" x="189" y="-124.5" font-family="Helvetica,sans-Serif" font-size="10.00">CurveP.h</text>
</a>
</g>
<!-- Node1&#45;&gt;Node9 -->
<g id="edge16" class="edge"><title>Node1&#45;&gt;Node9</title>
<path fill="none" stroke="midnightblue" d="M274.259,-174.843C254.717,-163.877 233.421,-151.927 217.001,-142.713"/>
<polygon fill="midnightblue" stroke="midnightblue" points="218.38,-139.473 207.946,-137.632 214.954,-145.578 218.38,-139.473"/>
</g>
<!-- Node10 -->
<g id="node23" class="node"><title>Node10</title>
<polygon fill="white" stroke="#bfbfbf" points="296,-116.5 296,-137.5 360,-137.5 360,-116.5 296,-116.5"/>
<text text-anchor="middle" x="328" y="-124.5" font-family="Helvetica,sans-Serif" font-size="10.00">osg/Geode</text>
</g>
<!-- Node1&#45;&gt;Node10 -->
<g id="edge26" class="edge"><title>Node1&#45;&gt;Node10</title>
<path fill="none" stroke="midnightblue" d="M328,-174.62C328,-165.68 328,-156.103 328,-147.9"/>
<polygon fill="midnightblue" stroke="midnightblue" points="331.5,-147.753 328,-137.753 324.5,-147.753 331.5,-147.753"/>
</g>
<!-- Node11 -->
<g id="node25" class="node"><title>Node11</title>
<polygon fill="white" stroke="#bfbfbf" points="377.5,-116.5 377.5,-137.5 456.5,-137.5 456.5,-116.5 377.5,-116.5"/>
<text text-anchor="middle" x="417" y="-124.5" font-family="Helvetica,sans-Serif" font-size="10.00">osg/LineWidth</text>
</g>
<!-- Node1&#45;&gt;Node11 -->
<g id="edge28" class="edge"><title>Node1&#45;&gt;Node11</title>
<path fill="none" stroke="midnightblue" d="M362.41,-174.843C374.143,-164.56 386.865,-153.411 397.073,-144.464"/>
<polygon fill="midnightblue" stroke="midnightblue" points="399.44,-147.043 404.654,-137.82 394.827,-141.779 399.44,-147.043"/>
</g>
<!-- Node12 -->
<g id="node27" class="node"><title>Node12</title>
<polygon fill="white" stroke="#bfbfbf" points="473.5,-116.5 473.5,-137.5 516.5,-137.5 516.5,-116.5 473.5,-116.5"/>
<text text-anchor="middle" x="495" y="-124.5" font-family="Helvetica,sans-Serif" font-size="10.00">cstdio</text>
</g>
<!-- Node1&#45;&gt;Node12 -->
<g id="edge30" class="edge"><title>Node1&#45;&gt;Node12</title>
<path fill="none" stroke="midnightblue" d="M390.66,-175.734C415.748,-164.016 443.518,-151.046 464.097,-141.434"/>
<polygon fill="midnightblue" stroke="midnightblue" points="465.715,-144.541 473.295,-137.138 462.753,-138.198 465.715,-144.541"/>
</g>
<!-- Node3 -->
<g id="node5" class="node"><title>Node3</title>
<a xlink:href="../../da/de9/_curve_8h.html" target="_top" xlink:title="Curve.h">
<polygon fill="white" stroke="black" points="311.5,-58.5 311.5,-79.5 362.5,-79.5 362.5,-58.5 311.5,-58.5"/>
<text text-anchor="middle" x="337" y="-66.5" font-family="Helvetica,sans-Serif" font-size="10.00">Curve.h</text>
</a>
</g>
<!-- Node2&#45;&gt;Node3 -->
<g id="edge4" class="edge"><title>Node2&#45;&gt;Node3</title>
<path fill="none" stroke="midnightblue" d="M271.673,-116.362C283.514,-107.777 300.385,-95.5459 314.016,-85.6636"/>
<polygon fill="midnightblue" stroke="midnightblue" points="316.378,-88.274 322.42,-79.5707 312.269,-82.6067 316.378,-88.274"/>
</g>
<!-- Node5 -->
<g id="node9" class="node"><title>Node5</title>
<polygon fill="white" stroke="#bfbfbf" points="-0.5,-58.5 -0.5,-79.5 106.5,-79.5 106.5,-58.5 -0.5,-58.5"/>
<text text-anchor="middle" x="53" y="-66.5" font-family="Helvetica,sans-Serif" font-size="10.00">osg/MatrixTransform</text>
</g>
<!-- Node2&#45;&gt;Node5 -->
<g id="edge8" class="edge"><title>Node2&#45;&gt;Node5</title>
<path fill="none" stroke="midnightblue" d="M235.774,-118.956C232.84,-117.921 229.855,-116.907 227,-116 186.829,-103.237 140.757,-90.8924 106.117,-82.0597"/>
<polygon fill="midnightblue" stroke="midnightblue" points="106.763,-78.6128 96.2093,-79.5496 105.043,-85.3984 106.763,-78.6128"/>
</g>
<!-- Node6 -->
<g id="node11" class="node"><title>Node6</title>
<polygon fill="white" stroke="#bfbfbf" points="124,-58.5 124,-79.5 202,-79.5 202,-58.5 124,-58.5"/>
<text text-anchor="middle" x="163" y="-66.5" font-family="Helvetica,sans-Serif" font-size="10.00">osg/Geometry</text>
</g>
<!-- Node2&#45;&gt;Node6 -->
<g id="edge10" class="edge"><title>Node2&#45;&gt;Node6</title>
<path fill="none" stroke="midnightblue" d="M239.759,-116.362C225.448,-107.532 204.885,-94.844 188.643,-84.8224"/>
<polygon fill="midnightblue" stroke="midnightblue" points="190.48,-81.8431 180.132,-79.5707 186.804,-87.8004 190.48,-81.8431"/>
</g>
<!-- Node7 -->
<g id="node13" class="node"><title>Node7</title>
<polygon fill="white" stroke="#bfbfbf" points="220,-58.5 220,-79.5 294,-79.5 294,-58.5 220,-58.5"/>
<text text-anchor="middle" x="257" y="-66.5" font-family="Helvetica,sans-Serif" font-size="10.00">osgText/Text</text>
</g>
<!-- Node2&#45;&gt;Node7 -->
<g id="edge12" class="edge"><title>Node2&#45;&gt;Node7</title>
<path fill="none" stroke="midnightblue" d="M257,-116.362C257,-108.922 257,-98.7427 257,-89.7276"/>
<polygon fill="midnightblue" stroke="midnightblue" points="260.5,-89.5706 257,-79.5707 253.5,-89.5707 260.5,-89.5706"/>
</g>
<!-- Node8 -->
<g id="node15" class="node"><title>Node8</title>
<polygon fill="white" stroke="#bfbfbf" points="379.5,-58.5 379.5,-79.5 408.5,-79.5 408.5,-58.5 379.5,-58.5"/>
<text text-anchor="middle" x="394" y="-66.5" font-family="Helvetica,sans-Serif" font-size="10.00">list</text>
</g>
<!-- Node2&#45;&gt;Node8 -->
<g id="edge14" class="edge"><title>Node2&#45;&gt;Node8</title>
<path fill="none" stroke="midnightblue" d="M278.159,-118.682C299.362,-110.259 333.112,-96.6196 370.012,-80.3077"/>
<polygon fill="midnightblue" stroke="midnightblue" points="371.743,-83.3685 379.456,-76.1046 368.896,-76.9733 371.743,-83.3685"/>
</g>
<!-- Node4 -->
<g id="node7" class="node"><title>Node4</title>
<polygon fill="white" stroke="#bfbfbf" points="316.5,-0.5 316.5,-21.5 357.5,-21.5 357.5,-0.5 316.5,-0.5"/>
<text text-anchor="middle" x="337" y="-8.5" font-family="Helvetica,sans-Serif" font-size="10.00">string</text>
</g>
<!-- Node3&#45;&gt;Node4 -->
<g id="edge6" class="edge"><title>Node3&#45;&gt;Node4</title>
<path fill="none" stroke="midnightblue" d="M337,-58.3619C337,-50.9219 337,-40.7427 337,-31.7276"/>
<polygon fill="midnightblue" stroke="midnightblue" points="340.5,-31.5706 337,-21.5707 333.5,-31.5707 340.5,-31.5706"/>
</g>
<!-- Node9&#45;&gt;Node3 -->
<g id="edge18" class="edge"><title>Node9&#45;&gt;Node3</title>
<path fill="none" stroke="midnightblue" d="M215.802,-116.497C239.881,-107.06 275.404,-93.139 301.773,-82.8052"/>
<polygon fill="midnightblue" stroke="midnightblue" points="303.355,-85.9446 311.388,-79.0371 300.8,-79.4272 303.355,-85.9446"/>
</g>
<!-- Node9&#45;&gt;Node5 -->
<g id="edge20" class="edge"><title>Node9&#45;&gt;Node5</title>
<path fill="none" stroke="midnightblue" d="M164.371,-116.497C142.843,-107.315 111.36,-93.8889 87.3554,-83.6516"/>
<polygon fill="midnightblue" stroke="midnightblue" points="88.4764,-80.3247 77.9049,-79.6212 85.7303,-86.7636 88.4764,-80.3247"/>
</g>
<!-- Node9&#45;&gt;Node6 -->
<g id="edge22" class="edge"><title>Node9&#45;&gt;Node6</title>
<path fill="none" stroke="midnightblue" d="M184.231,-116.362C180.786,-108.677 176.031,-98.0686 171.894,-88.8399"/>
<polygon fill="midnightblue" stroke="midnightblue" points="175.023,-87.264 167.739,-79.5707 168.635,-90.1275 175.023,-87.264"/>
</g>
<!-- Node9&#45;&gt;Node7 -->
<g id="edge24" class="edge"><title>Node9&#45;&gt;Node7</title>
<path fill="none" stroke="midnightblue" d="M201.472,-116.362C211.345,-107.941 225.333,-96.0105 236.798,-86.2308"/>
<polygon fill="midnightblue" stroke="midnightblue" points="239.27,-88.7231 244.607,-79.5707 234.727,-83.3972 239.27,-88.7231"/>
</g>
</g>
</svg>
