<?xml version="1.0" encoding="UTF-8" standalone="no"?>
<!DOCTYPE svg PUBLIC "-//W3C//DTD SVG 1.1//EN"
 "http://www.w3.org/Graphics/SVG/1.1/DTD/svg11.dtd">
<!-- Generated by graphviz version 2.36.0 (20140111.2315)
 -->
<!-- Title: /media/kavonszadkowski/work/marsdocs/mars/common/graphics/osg_plot/src/Plot.cpp Pages: 1 -->
<svg width="527pt" height="218pt"
 viewBox="0.00 0.00 527.00 218.00" xmlns="http://www.w3.org/2000/svg" xmlns:xlink="http://www.w3.org/1999/xlink">
<g id="graph0" class="graph" transform="scale(1 1) rotate(0) translate(4 214)">
<title>/media/kavonszadkowski/work/marsdocs/mars/common/graphics/osg_plot/src/Plot.cpp</title>
<polygon fill="white" stroke="none" points="-4,4 -4,-214 523,-214 523,4 -4,4"/>
<!-- Node1 -->
<g id="node1" class="node"><title>Node1</title>
<polygon fill="#bfbfbf" stroke="black" points="253,-168.5 253,-209.5 405,-209.5 405,-168.5 253,-168.5"/>
<text text-anchor="start" x="261" y="-197.5" font-family="Helvetica,sans-Serif" font-size="10.00">/media/kavonszadkowski</text>
<text text-anchor="start" x="261" y="-186.5" font-family="Helvetica,sans-Serif" font-size="10.00">/work/marsdocs/mars/common</text>
<text text-anchor="middle" x="329" y="-175.5" font-family="Helvetica,sans-Serif" font-size="10.00">/graphics/osg_plot/src/Plot.cpp</text>
</g>
<!-- Node2 -->
<g id="node2" class="node"><title>Node2</title>
<g id="a_node2"><a xlink:href="../../d6/d23/_plot_8h.html" target="_top" xlink:title="Plot.h">
<polygon fill="white" stroke="black" points="237,-112.5 237,-131.5 279,-131.5 279,-112.5 237,-112.5"/>
<text text-anchor="middle" x="258" y="-119.5" font-family="Helvetica,sans-Serif" font-size="10.00">Plot.h</text>
</a>
</g>
</g>
<!-- Node1&#45;&gt;Node2 -->
<g id="edge1" class="edge"><title>Node1&#45;&gt;Node2</title>
<path fill="none" stroke="midnightblue" d="M307.698,-168.498C297.231,-158.915 284.792,-147.528 274.978,-138.543"/>
<polygon fill="midnightblue" stroke="midnightblue" points="277.19,-135.824 267.451,-131.652 272.464,-140.987 277.19,-135.824"/>
</g>
<!-- Node9 -->
<g id="node9" class="node"><title>Node9</title>
<g id="a_node9"><a xlink:href="../../db/d95/_curve_p_8h.html" target="_top" xlink:title="CurveP.h">
<polygon fill="white" stroke="black" points="161,-112.5 161,-131.5 219,-131.5 219,-112.5 161,-112.5"/>
<text text-anchor="middle" x="190" y="-119.5" font-family="Helvetica,sans-Serif" font-size="10.00">CurveP.h</text>
</a>
</g>
</g>
<!-- Node1&#45;&gt;Node9 -->
<g id="edge8" class="edge"><title>Node1&#45;&gt;Node9</title>
<path fill="none" stroke="midnightblue" d="M287.295,-168.498C264.755,-157.957 237.544,-145.233 217.636,-135.923"/>
<polygon fill="midnightblue" stroke="midnightblue" points="219.044,-132.718 208.503,-131.652 216.079,-139.059 219.044,-132.718"/>
</g>
<!-- Node10 -->
<g id="node10" class="node"><title>Node10</title>
<polygon fill="white" stroke="#bfbfbf" points="297,-112.5 297,-131.5 361,-131.5 361,-112.5 297,-112.5"/>
<text text-anchor="middle" x="329" y="-119.5" font-family="Helvetica,sans-Serif" font-size="10.00">osg/Geode</text>
</g>
<!-- Node1&#45;&gt;Node10 -->
<g id="edge13" class="edge"><title>Node1&#45;&gt;Node10</title>
<path fill="none" stroke="midnightblue" d="M329,-168.498C329,-160.065 329,-150.235 329,-141.874"/>
<polygon fill="midnightblue" stroke="midnightblue" points="332.5,-141.652 329,-131.652 325.5,-141.653 332.5,-141.652"/>
</g>
<!-- Node11 -->
<g id="node11" class="node"><title>Node11</title>
<polygon fill="white" stroke="#bfbfbf" points="379.5,-112.5 379.5,-131.5 458.5,-131.5 458.5,-112.5 379.5,-112.5"/>
<text text-anchor="middle" x="419" y="-119.5" font-family="Helvetica,sans-Serif" font-size="10.00">osg/LineWidth</text>
</g>
<!-- Node1&#45;&gt;Node11 -->
<g id="edge14" class="edge"><title>Node1&#45;&gt;Node11</title>
<path fill="none" stroke="midnightblue" d="M356.003,-168.498C369.669,-158.628 385.986,-146.843 398.59,-137.741"/>
<polygon fill="midnightblue" stroke="midnightblue" points="400.962,-140.345 407.02,-131.652 396.864,-134.67 400.962,-140.345"/>
</g>
<!-- Node12 -->
<g id="node12" class="node"><title>Node12</title>
<polygon fill="white" stroke="#bfbfbf" points="476.5,-112.5 476.5,-131.5 519.5,-131.5 519.5,-112.5 476.5,-112.5"/>
<text text-anchor="middle" x="498" y="-119.5" font-family="Helvetica,sans-Serif" font-size="10.00">cstdio</text>
</g>
<!-- Node1&#45;&gt;Node12 -->
<g id="edge15" class="edge"><title>Node1&#45;&gt;Node12</title>
<path fill="none" stroke="midnightblue" d="M379.706,-168.498C408.076,-157.586 442.531,-144.334 466.921,-134.953"/>
<polygon fill="midnightblue" stroke="midnightblue" points="468.31,-138.169 476.387,-131.313 465.797,-131.636 468.31,-138.169"/>
</g>
<!-- Node3 -->
<g id="node3" class="node"><title>Node3</title>
<g id="a_node3"><a xlink:href="../../da/de9/_curve_8h.html" target="_top" xlink:title="Curve.h">
<polygon fill="white" stroke="black" points="313.5,-56.5 313.5,-75.5 364.5,-75.5 364.5,-56.5 313.5,-56.5"/>
<text text-anchor="middle" x="339" y="-63.5" font-family="Helvetica,sans-Serif" font-size="10.00">Curve.h</text>
</a>
</g>
</g>
<!-- Node2&#45;&gt;Node3 -->
<g id="edge2" class="edge"><title>Node2&#45;&gt;Node3</title>
<path fill="none" stroke="midnightblue" d="M271.014,-112.324C283.532,-103.979 302.682,-91.2122 317.471,-81.3524"/>
<polygon fill="midnightblue" stroke="midnightblue" points="319.639,-84.1137 326.018,-75.6545 315.756,-78.2894 319.639,-84.1137"/>
</g>
<!-- Node5 -->
<g id="node5" class="node"><title>Node5</title>
<polygon fill="white" stroke="#bfbfbf" points="-0.5,-56.5 -0.5,-75.5 106.5,-75.5 106.5,-56.5 -0.5,-56.5"/>
<text text-anchor="middle" x="53" y="-63.5" font-family="Helvetica,sans-Serif" font-size="10.00">osg/MatrixTransform</text>
</g>
<!-- Node2&#45;&gt;Node5 -->
<g id="edge4" class="edge"><title>Node2&#45;&gt;Node5</title>
<path fill="none" stroke="midnightblue" d="M236.678,-114.72C233.44,-113.793 230.135,-112.86 227,-112 183.045,-99.9383 132.597,-86.9894 97.3782,-78.0933"/>
<polygon fill="midnightblue" stroke="midnightblue" points="97.967,-74.6323 87.4148,-75.5821 96.2561,-81.42 97.967,-74.6323"/>
</g>
<!-- Node6 -->
<g id="node6" class="node"><title>Node6</title>
<polygon fill="white" stroke="#bfbfbf" points="125,-56.5 125,-75.5 203,-75.5 203,-56.5 125,-56.5"/>
<text text-anchor="middle" x="164" y="-63.5" font-family="Helvetica,sans-Serif" font-size="10.00">osg/Geometry</text>
</g>
<!-- Node2&#45;&gt;Node6 -->
<g id="edge5" class="edge"><title>Node2&#45;&gt;Node6</title>
<path fill="none" stroke="midnightblue" d="M242.897,-112.324C228.097,-103.822 205.306,-90.7288 188.018,-80.7975"/>
<polygon fill="midnightblue" stroke="midnightblue" points="189.48,-77.6009 179.065,-75.6545 185.993,-83.6707 189.48,-77.6009"/>
</g>
<!-- Node7 -->
<g id="node7" class="node"><title>Node7</title>
<polygon fill="white" stroke="#bfbfbf" points="221,-56.5 221,-75.5 295,-75.5 295,-56.5 221,-56.5"/>
<text text-anchor="middle" x="258" y="-63.5" font-family="Helvetica,sans-Serif" font-size="10.00">osgText/Text</text>
</g>
<!-- Node2&#45;&gt;Node7 -->
<g id="edge6" class="edge"><title>Node2&#45;&gt;Node7</title>
<path fill="none" stroke="midnightblue" d="M258,-112.083C258,-105.006 258,-94.8611 258,-85.9865"/>
<polygon fill="midnightblue" stroke="midnightblue" points="261.5,-85.751 258,-75.7511 254.5,-85.7511 261.5,-85.751"/>
</g>
<!-- Node8 -->
<g id="node8" class="node"><title>Node8</title>
<polygon fill="white" stroke="#bfbfbf" points="382.5,-56.5 382.5,-75.5 411.5,-75.5 411.5,-56.5 382.5,-56.5"/>
<text text-anchor="middle" x="397" y="-63.5" font-family="Helvetica,sans-Serif" font-size="10.00">list</text>
</g>
<!-- Node2&#45;&gt;Node8 -->
<g id="edge7" class="edge"><title>Node2&#45;&gt;Node8</title>
<path fill="none" stroke="midnightblue" d="M279.111,-112.799C304.187,-103.057 345.946,-86.834 372.444,-76.5399"/>
<polygon fill="midnightblue" stroke="midnightblue" points="374.06,-79.6667 382.114,-72.7829 371.526,-73.1418 374.06,-79.6667"/>
</g>
<!-- Node4 -->
<g id="node4" class="node"><title>Node4</title>
<polygon fill="white" stroke="#bfbfbf" points="318.5,-0.5 318.5,-19.5 359.5,-19.5 359.5,-0.5 318.5,-0.5"/>
<text text-anchor="middle" x="339" y="-7.5" font-family="Helvetica,sans-Serif" font-size="10.00">string</text>
</g>
<!-- Node3&#45;&gt;Node4 -->
<g id="edge3" class="edge"><title>Node3&#45;&gt;Node4</title>
<path fill="none" stroke="midnightblue" d="M339,-56.083C339,-49.0059 339,-38.8611 339,-29.9865"/>
<polygon fill="midnightblue" stroke="midnightblue" points="342.5,-29.751 339,-19.7511 335.5,-29.7511 342.5,-29.751"/>
</g>
<!-- Node9&#45;&gt;Node3 -->
<g id="edge9" class="edge"><title>Node9&#45;&gt;Node3</title>
<path fill="none" stroke="midnightblue" d="M213.609,-112.444C238.458,-103.438 277.774,-89.1891 305.754,-79.049"/>
<polygon fill="midnightblue" stroke="midnightblue" points="307.292,-82.2144 315.501,-75.5164 304.907,-75.6332 307.292,-82.2144"/>
</g>
<!-- Node9&#45;&gt;Node5 -->
<g id="edge10" class="edge"><title>Node9&#45;&gt;Node5</title>
<path fill="none" stroke="midnightblue" d="M168.292,-112.444C145.645,-103.517 109.928,-89.4387 84.2482,-79.3168"/>
<polygon fill="midnightblue" stroke="midnightblue" points="85.1934,-75.9273 74.6065,-75.5164 82.6264,-82.4397 85.1934,-75.9273"/>
</g>
<!-- Node9&#45;&gt;Node6 -->
<g id="edge11" class="edge"><title>Node9&#45;&gt;Node6</title>
<path fill="none" stroke="midnightblue" d="M185.707,-112.083C182.148,-104.691 176.978,-93.9533 172.576,-84.8111"/>
<polygon fill="midnightblue" stroke="midnightblue" points="175.705,-83.2427 168.213,-75.7511 169.398,-86.2795 175.705,-83.2427"/>
</g>
<!-- Node9&#45;&gt;Node7 -->
<g id="edge12" class="edge"><title>Node9&#45;&gt;Node7</title>
<path fill="none" stroke="midnightblue" d="M200.925,-112.324C211.175,-104.185 226.721,-91.8395 239.001,-82.0874"/>
<polygon fill="midnightblue" stroke="midnightblue" points="241.221,-84.7937 246.876,-75.8339 236.868,-79.3119 241.221,-84.7937"/>
</g>
</g>
</svg>
