<?xml version="1.0" encoding="UTF-8" standalone="no"?>
<!DOCTYPE svg PUBLIC "-//W3C//DTD SVG 1.1//EN"
 "http://www.w3.org/Graphics/SVG/1.1/DTD/svg11.dtd">
<!-- Generated by graphviz version 2.26.3 (20100126.1600)
 -->
<!-- Title: /home/kavonszadkowski/limes&#45;dev/simulation/mars/plugins/obstacle_generator/src/ObstacleGenerator.h Pages: 1 -->
<svg width="190pt" height="168pt"
 viewBox="0.00 0.00 190.00 168.00" xmlns="http://www.w3.org/2000/svg" xmlns:xlink="http://www.w3.org/1999/xlink">
<g id="graph1" class="graph" transform="scale(1 1) rotate(0) translate(4 164)">
<title>/home/kavonszadkowski/limes&#45;dev/simulation/mars/plugins/obstacle_generator/src/ObstacleGenerator.h</title>
<polygon fill="white" stroke="white" points="-4,5 -4,-164 187,-164 187,5 -4,5"/>
<!-- Node1 -->
<g id="node1" class="node"><title>Node1</title>
<polygon fill="#bfbfbf" stroke="black" points="5,-99 5,-159 177,-159 177,-99 5,-99"/>
<text text-anchor="start" x="13" y="-146" font-family="Helvetica,sans-Serif" font-size="10.00">/home/kavonszadkowski</text>
<text text-anchor="start" x="13" y="-133" font-family="Helvetica,sans-Serif" font-size="10.00">/limes&#45;dev/simulation</text>
<text text-anchor="start" x="13" y="-120" font-family="Helvetica,sans-Serif" font-size="10.00">/mars/plugins/obstacle</text>
<text text-anchor="middle" x="91" y="-107" font-family="Helvetica,sans-Serif" font-size="10.00">_generator/src/ObstacleGenerator.h</text>
</g>
<!-- Node2 -->
<g id="node3" class="node"><title>Node2</title>
<a xlink:href="../../d2/dde/_obstacle_generator_8cpp.html" target="_top" xlink:title="A. ">
<polygon fill="white" stroke="black" points="0,-1 0,-61 182,-61 182,-1 0,-1"/>
<text text-anchor="start" x="8" y="-48" font-family="Helvetica,sans-Serif" font-size="10.00">/home/kavonszadkowski</text>
<text text-anchor="start" x="8" y="-35" font-family="Helvetica,sans-Serif" font-size="10.00">/limes&#45;dev/simulation</text>
<text text-anchor="start" x="8" y="-22" font-family="Helvetica,sans-Serif" font-size="10.00">/mars/plugins/obstacle</text>
<text text-anchor="middle" x="91" y="-9" font-family="Helvetica,sans-Serif" font-size="10.00">_generator/src/ObstacleGenerator.cpp</text>
</a>
</g>
<!-- Node1&#45;&gt;Node2 -->
<g id="edge2" class="edge"><title>Node1&#45;&gt;Node2</title>
<path fill="none" stroke="midnightblue" d="M91,-88.6956C91,-79.5273 91,-69.9394 91,-61.2718"/>
<polygon fill="midnightblue" stroke="midnightblue" points="87.5001,-88.7971 91,-98.7971 94.5001,-88.7972 87.5001,-88.7971"/>
</g>
</g>
</svg>
