<?xml version="1.0" encoding="UTF-8" standalone="no"?>
<!DOCTYPE svg PUBLIC "-//W3C//DTD SVG 1.1//EN"
 "http://www.w3.org/Graphics/SVG/1.1/DTD/svg11.dtd">
<!-- Generated by graphviz version 2.36.0 (20140111.2315)
 -->
<!-- Title: /media/kavonszadkowski/work/marsdocs/mars/gui/src/Widget_Joint_State.cpp Pages: 1 -->
<svg width="892pt" height="186pt"
 viewBox="0.00 0.00 892.00 186.00" xmlns="http://www.w3.org/2000/svg" xmlns:xlink="http://www.w3.org/1999/xlink">
<g id="graph0" class="graph" transform="scale(1 1) rotate(0) translate(4 182)">
<title>/media/kavonszadkowski/work/marsdocs/mars/gui/src/Widget_Joint_State.cpp</title>
<polygon fill="white" stroke="none" points="-4,4 -4,-182 888,-182 888,4 -4,4"/>
<!-- Node1 -->
<g id="node1" class="node"><title>Node1</title>
<polygon fill="#bfbfbf" stroke="black" points="475,-136.5 475,-177.5 615,-177.5 615,-136.5 475,-136.5"/>
<text text-anchor="start" x="483" y="-165.5" font-family="Helvetica,sans-Serif" font-size="10.00">/media/kavonszadkowski</text>
<text text-anchor="start" x="483" y="-154.5" font-family="Helvetica,sans-Serif" font-size="10.00">/work/marsdocs/mars/gui</text>
<text text-anchor="middle" x="545" y="-143.5" font-family="Helvetica,sans-Serif" font-size="10.00">/src/Widget_Joint_State.cpp</text>
</g>
<!-- Node2 -->
<g id="node2" class="node"><title>Node2</title>
<g id="a_node2"><a xlink:href="../../de/d7d/_widget___joint___state_8h.html" target="_top" xlink:title="Widget_Joint_State.h">
<polygon fill="white" stroke="black" points="360,-74.5 360,-93.5 470,-93.5 470,-74.5 360,-74.5"/>
<text text-anchor="middle" x="415" y="-81.5" font-family="Helvetica,sans-Serif" font-size="10.00">Widget_Joint_State.h</text>
</a>
</g>
</g>
<!-- Node1&#45;&gt;Node2 -->
<g id="edge1" class="edge"><title>Node1&#45;&gt;Node2</title>
<path fill="none" stroke="midnightblue" d="M509.133,-136.411C487.044,-124.347 459.297,-109.193 439.665,-98.4711"/>
<polygon fill="midnightblue" stroke="midnightblue" points="441.195,-95.3184 430.741,-93.5968 437.839,-101.462 441.195,-95.3184"/>
</g>
<!-- Node9 -->
<g id="node9" class="node"><title>Node9</title>
<polygon fill="white" stroke="#bfbfbf" points="488.5,-74.5 488.5,-93.5 601.5,-93.5 601.5,-74.5 488.5,-74.5"/>
<text text-anchor="middle" x="545" y="-81.5" font-family="Helvetica,sans-Serif" font-size="10.00">mars/interfaces/utils.h</text>
</g>
<!-- Node1&#45;&gt;Node9 -->
<g id="edge8" class="edge"><title>Node1&#45;&gt;Node9</title>
<path fill="none" stroke="midnightblue" d="M545,-136.223C545,-126.086 545,-113.807 545,-103.813"/>
<polygon fill="midnightblue" stroke="midnightblue" points="548.5,-103.735 545,-93.7349 541.5,-103.735 548.5,-103.735"/>
</g>
<!-- Node10 -->
<g id="node10" class="node"><title>Node10</title>
<polygon fill="white" stroke="#bfbfbf" points="619.5,-69 619.5,-99 744.5,-99 744.5,-69 619.5,-69"/>
<text text-anchor="start" x="627.5" y="-87" font-family="Helvetica,sans-Serif" font-size="10.00">mars/interfaces/sim</text>
<text text-anchor="middle" x="682" y="-76" font-family="Helvetica,sans-Serif" font-size="10.00">/JointManagerInterface.h</text>
</g>
<!-- Node1&#45;&gt;Node10 -->
<g id="edge9" class="edge"><title>Node1&#45;&gt;Node10</title>
<path fill="none" stroke="midnightblue" d="M582.799,-136.411C602.401,-126.252 626.233,-113.901 645.624,-103.852"/>
<polygon fill="midnightblue" stroke="midnightblue" points="647.481,-106.832 654.749,-99.1228 644.26,-100.617 647.481,-106.832"/>
</g>
<!-- Node3 -->
<g id="node3" class="node"><title>Node3</title>
<polygon fill="white" stroke="#bfbfbf" points="0,-6.5 0,-25.5 156,-25.5 156,-6.5 0,-6.5"/>
<text text-anchor="middle" x="78" y="-13.5" font-family="Helvetica,sans-Serif" font-size="10.00">mars/main_gui/PropertyDialog.h</text>
</g>
<!-- Node2&#45;&gt;Node3 -->
<g id="edge2" class="edge"><title>Node2&#45;&gt;Node3</title>
<path fill="none" stroke="midnightblue" d="M371.289,-74.4393C309.797,-62.3965 197.863,-40.4746 131.483,-27.4745"/>
<polygon fill="midnightblue" stroke="midnightblue" points="132.12,-24.0328 121.634,-25.5455 130.775,-30.9023 132.12,-24.0328"/>
</g>
<!-- Node4 -->
<g id="node4" class="node"><title>Node4</title>
<polygon fill="white" stroke="#bfbfbf" points="174.5,-1 174.5,-31 277.5,-31 277.5,-1 174.5,-1"/>
<text text-anchor="start" x="182.5" y="-19" font-family="Helvetica,sans-Serif" font-size="10.00">mars/interfaces/sim</text>
<text text-anchor="middle" x="226" y="-8" font-family="Helvetica,sans-Serif" font-size="10.00">/ControlCenter.h</text>
</g>
<!-- Node2&#45;&gt;Node4 -->
<g id="edge3" class="edge"><title>Node2&#45;&gt;Node4</title>
<path fill="none" stroke="midnightblue" d="M390.292,-74.3717C361.358,-64.2679 312.703,-47.2774 275.832,-34.4016"/>
<polygon fill="midnightblue" stroke="midnightblue" points="276.847,-31.0488 266.252,-31.0562 274.539,-37.6574 276.847,-31.0488"/>
</g>
<!-- Node5 -->
<g id="node5" class="node"><title>Node5</title>
<polygon fill="white" stroke="#bfbfbf" points="295.5,-6.5 295.5,-25.5 394.5,-25.5 394.5,-6.5 295.5,-6.5"/>
<text text-anchor="middle" x="345" y="-13.5" font-family="Helvetica,sans-Serif" font-size="10.00">mars/utils/Vector.h</text>
</g>
<!-- Node2&#45;&gt;Node5 -->
<g id="edge4" class="edge"><title>Node2&#45;&gt;Node5</title>
<path fill="none" stroke="midnightblue" d="M405.849,-74.3717C394.696,-63.8564 375.632,-45.8819 361.81,-32.8496"/>
<polygon fill="midnightblue" stroke="midnightblue" points="364.054,-30.1547 354.377,-25.8411 359.252,-35.2479 364.054,-30.1547"/>
</g>
<!-- Node6 -->
<g id="node6" class="node"><title>Node6</title>
<polygon fill="white" stroke="#bfbfbf" points="413,-6.5 413,-25.5 559,-25.5 559,-6.5 413,-6.5"/>
<text text-anchor="middle" x="486" y="-13.5" font-family="Helvetica,sans-Serif" font-size="10.00">mars/interfaces/MARSDefs.h</text>
</g>
<!-- Node2&#45;&gt;Node6 -->
<g id="edge5" class="edge"><title>Node2&#45;&gt;Node6</title>
<path fill="none" stroke="midnightblue" d="M424.282,-74.3717C435.594,-63.8564 454.93,-45.8819 468.95,-32.8496"/>
<polygon fill="midnightblue" stroke="midnightblue" points="471.548,-35.2131 476.489,-25.8411 466.782,-30.0861 471.548,-35.2131"/>
</g>
<!-- Node7 -->
<g id="node7" class="node"><title>Node7</title>
<polygon fill="white" stroke="#bfbfbf" points="577,-1 577,-31 711,-31 711,-1 577,-1"/>
<text text-anchor="start" x="585" y="-19" font-family="Helvetica,sans-Serif" font-size="10.00">mars/data_broker/Receiver</text>
<text text-anchor="middle" x="644" y="-8" font-family="Helvetica,sans-Serif" font-size="10.00">Interface.h</text>
</g>
<!-- Node2&#45;&gt;Node7 -->
<g id="edge6" class="edge"><title>Node2&#45;&gt;Node7</title>
<path fill="none" stroke="midnightblue" d="M444.938,-74.3717C480.517,-64.1175 540.708,-46.7698 585.608,-33.8291"/>
<polygon fill="midnightblue" stroke="midnightblue" points="586.59,-37.1888 595.229,-31.0562 584.651,-30.4626 586.59,-37.1888"/>
</g>
<!-- Node8 -->
<g id="node8" class="node"><title>Node8</title>
<polygon fill="white" stroke="#bfbfbf" points="729.5,-1 729.5,-31 884.5,-31 884.5,-1 729.5,-1"/>
<text text-anchor="start" x="737.5" y="-19" font-family="Helvetica,sans-Serif" font-size="10.00">mars/data_broker/DataPackage</text>
<text text-anchor="middle" x="807" y="-8" font-family="Helvetica,sans-Serif" font-size="10.00">Mapping.h</text>
</g>
<!-- Node2&#45;&gt;Node8 -->
<g id="edge7" class="edge"><title>Node2&#45;&gt;Node8</title>
<path fill="none" stroke="midnightblue" d="M449.64,-74.4797C459.424,-72.2167 470.102,-69.8816 480,-68 582.858,-48.4481 611.833,-49.106 719.279,-32.0863"/>
<polygon fill="midnightblue" stroke="midnightblue" points="719.904,-35.5309 729.226,-30.496 718.799,-28.6187 719.904,-35.5309"/>
</g>
</g>
</svg>
