<?xml version="1.0" encoding="UTF-8" standalone="no"?>
<!DOCTYPE svg PUBLIC "-//W3C//DTD SVG 1.1//EN"
 "http://www.w3.org/Graphics/SVG/1.1/DTD/svg11.dtd">
<!-- Generated by graphviz version 2.26.3 (20100126.1600)
 -->
<!-- Title: /home/kavonszadkowski/limes&#45;dev/simulation/mars/common/gui/main_gui/src/MyQMainWindow.h Pages: 1 -->
<svg width="320pt" height="186pt"
 viewBox="0.00 0.00 320.00 186.00" xmlns="http://www.w3.org/2000/svg" xmlns:xlink="http://www.w3.org/1999/xlink">
<g id="graph1" class="graph" transform="scale(1 1) rotate(0) translate(4 182)">
<title>/home/kavonszadkowski/limes&#45;dev/simulation/mars/common/gui/main_gui/src/MyQMainWindow.h</title>
<polygon fill="white" stroke="white" points="-4,5 -4,-182 317,-182 317,5 -4,5"/>
<!-- Node1 -->
<g id="node1" class="node"><title>Node1</title>
<polygon fill="#bfbfbf" stroke="black" points="123,-117 123,-177 263,-177 263,-117 123,-117"/>
<text text-anchor="start" x="131" y="-164" font-family="Helvetica,sans-Serif" font-size="10.00">/home/kavonszadkowski</text>
<text text-anchor="start" x="131" y="-151" font-family="Helvetica,sans-Serif" font-size="10.00">/limes&#45;dev/simulation</text>
<text text-anchor="start" x="131" y="-138" font-family="Helvetica,sans-Serif" font-size="10.00">/mars/common/gui/main</text>
<text text-anchor="middle" x="193" y="-125" font-family="Helvetica,sans-Serif" font-size="10.00">_gui/src/MyQMainWindow.h</text>
</g>
<!-- Node2 -->
<g id="node3" class="node"><title>Node2</title>
<polygon fill="white" stroke="#bfbfbf" points="0,-58.5 0,-79.5 80,-79.5 80,-58.5 0,-58.5"/>
<text text-anchor="middle" x="40" y="-66.5" font-family="Helvetica,sans-Serif" font-size="10.00">QMainWindow</text>
</g>
<!-- Node1&#45;&gt;Node2 -->
<g id="edge2" class="edge"><title>Node1&#45;&gt;Node2</title>
<path fill="none" stroke="midnightblue" d="M133.846,-116.843C111.934,-105.672 88.0178,-93.4797 69.813,-84.1988"/>
<polygon fill="midnightblue" stroke="midnightblue" points="71.3533,-81.0555 60.8546,-79.6317 68.174,-87.2918 71.3533,-81.0555"/>
</g>
<!-- Node3 -->
<g id="node5" class="node"><title>Node3</title>
<a xlink:href="../../da/dfe/_my_q_dock_widget_8h.html" target="_top" xlink:title="MyQDockWidget.h">
<polygon fill="white" stroke="black" points="98,-58.5 98,-79.5 198,-79.5 198,-58.5 98,-58.5"/>
<text text-anchor="middle" x="148" y="-66.5" font-family="Helvetica,sans-Serif" font-size="10.00">MyQDockWidget.h</text>
</a>
</g>
<!-- Node1&#45;&gt;Node3 -->
<g id="edge4" class="edge"><title>Node1&#45;&gt;Node3</title>
<path fill="none" stroke="midnightblue" d="M175.473,-116.62C170.022,-107.172 164.161,-97.0132 159.259,-88.5155"/>
<polygon fill="midnightblue" stroke="midnightblue" points="162.233,-86.6663 154.204,-79.7535 156.17,-90.1644 162.233,-86.6663"/>
</g>
<!-- Node7 -->
<g id="node13" class="node"><title>Node7</title>
<polygon fill="white" stroke="#bfbfbf" points="216,-58.5 216,-79.5 260,-79.5 260,-58.5 216,-58.5"/>
<text text-anchor="middle" x="238" y="-66.5" font-family="Helvetica,sans-Serif" font-size="10.00">vector</text>
</g>
<!-- Node1&#45;&gt;Node7 -->
<g id="edge12" class="edge"><title>Node1&#45;&gt;Node7</title>
<path fill="none" stroke="midnightblue" d="M210.527,-116.62C215.978,-107.172 221.839,-97.0132 226.741,-88.5155"/>
<polygon fill="midnightblue" stroke="midnightblue" points="229.83,-90.1644 231.796,-79.7535 223.767,-86.6663 229.83,-90.1644"/>
</g>
<!-- Node8 -->
<g id="node15" class="node"><title>Node8</title>
<polygon fill="white" stroke="#bfbfbf" points="277.5,-58.5 277.5,-79.5 312.5,-79.5 312.5,-58.5 277.5,-58.5"/>
<text text-anchor="middle" x="295" y="-66.5" font-family="Helvetica,sans-Serif" font-size="10.00">map</text>
</g>
<!-- Node1&#45;&gt;Node8 -->
<g id="edge14" class="edge"><title>Node1&#45;&gt;Node8</title>
<path fill="none" stroke="midnightblue" d="M232.436,-116.843C246.15,-106.356 261.041,-94.9688 272.854,-85.9352"/>
<polygon fill="midnightblue" stroke="midnightblue" points="275.033,-88.6747 280.851,-79.8199 270.781,-83.1142 275.033,-88.6747"/>
</g>
<!-- Node4 -->
<g id="node7" class="node"><title>Node4</title>
<polygon fill="white" stroke="#bfbfbf" points="15,-0.5 15,-21.5 93,-21.5 93,-0.5 15,-0.5"/>
<text text-anchor="middle" x="54" y="-8.5" font-family="Helvetica,sans-Serif" font-size="10.00">QDockWidget</text>
</g>
<!-- Node3&#45;&gt;Node4 -->
<g id="edge6" class="edge"><title>Node3&#45;&gt;Node4</title>
<path fill="none" stroke="midnightblue" d="M130.759,-58.3619C116.448,-49.532 95.885,-36.844 79.6432,-26.8224"/>
<polygon fill="midnightblue" stroke="midnightblue" points="81.48,-23.8431 71.1317,-21.5707 77.8042,-29.8004 81.48,-23.8431"/>
</g>
<!-- Node5 -->
<g id="node9" class="node"><title>Node5</title>
<polygon fill="white" stroke="#bfbfbf" points="110.5,-0.5 110.5,-21.5 185.5,-21.5 185.5,-0.5 110.5,-0.5"/>
<text text-anchor="middle" x="148" y="-8.5" font-family="Helvetica,sans-Serif" font-size="10.00">QCloseEvent</text>
</g>
<!-- Node3&#45;&gt;Node5 -->
<g id="edge8" class="edge"><title>Node3&#45;&gt;Node5</title>
<path fill="none" stroke="midnightblue" d="M148,-58.3619C148,-50.9219 148,-40.7427 148,-31.7276"/>
<polygon fill="midnightblue" stroke="midnightblue" points="151.5,-31.5706 148,-21.5707 144.5,-31.5707 151.5,-31.5706"/>
</g>
<!-- Node6 -->
<g id="node11" class="node"><title>Node6</title>
<polygon fill="white" stroke="#bfbfbf" points="203,-0.5 203,-21.5 273,-21.5 273,-0.5 203,-0.5"/>
<text text-anchor="middle" x="238" y="-8.5" font-family="Helvetica,sans-Serif" font-size="10.00">QHideEvent</text>
</g>
<!-- Node3&#45;&gt;Node6 -->
<g id="edge10" class="edge"><title>Node3&#45;&gt;Node6</title>
<path fill="none" stroke="midnightblue" d="M164.507,-58.3619C178.082,-49.6138 197.533,-37.0786 213.015,-27.1015"/>
<polygon fill="midnightblue" stroke="midnightblue" points="215.088,-29.9297 221.597,-21.5707 211.296,-24.0457 215.088,-29.9297"/>
</g>
</g>
</svg>
