<?xml version="1.0" encoding="UTF-8" standalone="no"?>
<!DOCTYPE svg PUBLIC "-//W3C//DTD SVG 1.1//EN"
 "http://www.w3.org/Graphics/SVG/1.1/DTD/svg11.dtd">
<!-- Generated by graphviz version 2.26.3 (20100126.1600)
 -->
<!-- Title: /home/kavonszadkowski/limes&#45;dev/simulation/mars/interfaces/src/utils.h Pages: 1 -->
<svg width="836pt" height="230pt"
 viewBox="0.00 0.00 836.00 230.00" xmlns="http://www.w3.org/2000/svg" xmlns:xlink="http://www.w3.org/1999/xlink">
<g id="graph1" class="graph" transform="scale(1 1) rotate(0) translate(4 226)">
<title>/home/kavonszadkowski/limes&#45;dev/simulation/mars/interfaces/src/utils.h</title>
<polygon fill="white" stroke="white" points="-4,5 -4,-226 833,-226 833,5 -4,5"/>
<!-- Node1 -->
<g id="node1" class="node"><title>Node1</title>
<polygon fill="#bfbfbf" stroke="black" points="370.5,-174.5 370.5,-221.5 503.5,-221.5 503.5,-174.5 370.5,-174.5"/>
<text text-anchor="start" x="378.5" y="-208.5" font-family="Helvetica,sans-Serif" font-size="10.00">/home/kavonszadkowski</text>
<text text-anchor="start" x="378.5" y="-195.5" font-family="Helvetica,sans-Serif" font-size="10.00">/limes&#45;dev/simulation</text>
<text text-anchor="middle" x="437" y="-182.5" font-family="Helvetica,sans-Serif" font-size="10.00">/mars/interfaces/src/utils.h</text>
</g>
<!-- Node2 -->
<g id="node3" class="node"><title>Node2</title>
<a xlink:href="../../dd/d9e/_m_a_r_s_defs_8h.html" target="_top" xlink:title="MARSDefs.h">
<polygon fill="white" stroke="black" points="246.5,-0.5 246.5,-21.5 321.5,-21.5 321.5,-0.5 246.5,-0.5"/>
<text text-anchor="middle" x="284" y="-8.5" font-family="Helvetica,sans-Serif" font-size="10.00">MARSDefs.h</text>
</a>
</g>
<!-- Node1&#45;&gt;Node2 -->
<g id="edge2" class="edge"><title>Node1&#45;&gt;Node2</title>
<path fill="none" stroke="midnightblue" d="M370.389,-180.407C293.804,-158.572 175.686,-119.383 153,-80 132.126,-43.7614 190.694,-25.7152 236.16,-17.3746"/>
<polygon fill="midnightblue" stroke="midnightblue" points="236.95,-20.7903 246.211,-15.645 235.763,-13.8917 236.95,-20.7903"/>
</g>
<!-- Node3 -->
<g id="node5" class="node"><title>Node3</title>
<a xlink:href="../../dc/d3b/sim__common_8h.html" target="_top" xlink:title="sim_common.h">
<polygon fill="white" stroke="black" points="261.5,-116.5 261.5,-137.5 344.5,-137.5 344.5,-116.5 261.5,-116.5"/>
<text text-anchor="middle" x="303" y="-124.5" font-family="Helvetica,sans-Serif" font-size="10.00">sim_common.h</text>
</a>
</g>
<!-- Node1&#45;&gt;Node3 -->
<g id="edge4" class="edge"><title>Node1&#45;&gt;Node3</title>
<path fill="none" stroke="midnightblue" d="M392.38,-174.358C372.595,-163.875 349.868,-151.833 332.282,-142.515"/>
<polygon fill="midnightblue" stroke="midnightblue" points="333.568,-139.235 323.093,-137.646 330.29,-145.421 333.568,-139.235"/>
</g>
<!-- Node10 -->
<g id="node25" class="node"><title>Node10</title>
<a xlink:href="../../d7/d1b/_node_data_8h.html" target="_top" xlink:title="NodeData.h">
<polygon fill="white" stroke="black" points="518.5,-116.5 518.5,-137.5 587.5,-137.5 587.5,-116.5 518.5,-116.5"/>
<text text-anchor="middle" x="553" y="-124.5" font-family="Helvetica,sans-Serif" font-size="10.00">NodeData.h</text>
</a>
</g>
<!-- Node1&#45;&gt;Node10 -->
<g id="edge30" class="edge"><title>Node1&#45;&gt;Node10</title>
<path fill="none" stroke="midnightblue" d="M475.626,-174.358C492.437,-164.069 511.7,-152.278 526.801,-143.036"/>
<polygon fill="midnightblue" stroke="midnightblue" points="528.904,-145.852 535.606,-137.646 525.25,-139.881 528.904,-145.852"/>
</g>
<!-- Node13 -->
<g id="node37" class="node"><title>Node13</title>
<polygon fill="white" stroke="#bfbfbf" points="787.5,-58.5 787.5,-79.5 828.5,-79.5 828.5,-58.5 787.5,-58.5"/>
<text text-anchor="middle" x="808" y="-66.5" font-family="Helvetica,sans-Serif" font-size="10.00">string</text>
</g>
<!-- Node1&#45;&gt;Node13 -->
<g id="edge52" class="edge"><title>Node1&#45;&gt;Node13</title>
<path fill="none" stroke="midnightblue" d="M503.733,-175.642C570.726,-153.046 677.09,-116.76 778,-80.3035"/>
<polygon fill="midnightblue" stroke="midnightblue" points="779.222,-83.5836 787.434,-76.8891 776.839,-77.0015 779.222,-83.5836"/>
</g>
<!-- Node3&#45;&gt;Node2 -->
<g id="edge6" class="edge"><title>Node3&#45;&gt;Node2</title>
<path fill="none" stroke="midnightblue" d="M301.247,-116.295C298.108,-97.1314 291.478,-56.654 287.414,-31.8434"/>
<polygon fill="midnightblue" stroke="midnightblue" points="290.82,-30.9819 285.749,-21.6792 283.912,-32.1135 290.82,-30.9819"/>
</g>
<!-- Node4 -->
<g id="node8" class="node"><title>Node4</title>
<polygon fill="white" stroke="#bfbfbf" points="88.5,-0.5 88.5,-21.5 187.5,-21.5 187.5,-0.5 88.5,-0.5"/>
<text text-anchor="middle" x="138" y="-8.5" font-family="Helvetica,sans-Serif" font-size="10.00">mars/utils/Vector.h</text>
</g>
<!-- Node3&#45;&gt;Node4 -->
<g id="edge8" class="edge"><title>Node3&#45;&gt;Node4</title>
<path fill="none" stroke="midnightblue" d="M261.387,-118.847C222.299,-110.355 167.685,-96.063 153,-80 141.201,-67.0941 137.894,-47.1485 137.278,-32.0149"/>
<polygon fill="midnightblue" stroke="midnightblue" points="140.777,-31.5621 137.236,-21.5763 133.777,-31.5904 140.777,-31.5621"/>
</g>
<!-- Node5 -->
<g id="node10" class="node"><title>Node5</title>
<polygon fill="white" stroke="#bfbfbf" points="350,-58.5 350,-79.5 468,-79.5 468,-58.5 350,-58.5"/>
<text text-anchor="middle" x="409" y="-66.5" font-family="Helvetica,sans-Serif" font-size="10.00">mars/utils/Quaternion.h</text>
</g>
<!-- Node3&#45;&gt;Node5 -->
<g id="edge10" class="edge"><title>Node3&#45;&gt;Node5</title>
<path fill="none" stroke="midnightblue" d="M322.442,-116.362C338.804,-107.409 362.413,-94.4908 380.843,-84.4064"/>
<polygon fill="midnightblue" stroke="midnightblue" points="382.589,-87.4412 389.681,-79.5707 379.229,-81.3004 382.589,-87.4412"/>
</g>
<!-- Node6 -->
<g id="node12" class="node"><title>Node6</title>
<polygon fill="white" stroke="#bfbfbf" points="506,-0.5 506,-21.5 600,-21.5 600,-0.5 506,-0.5"/>
<text text-anchor="middle" x="553" y="-8.5" font-family="Helvetica,sans-Serif" font-size="10.00">mars/utils/Color.h</text>
</g>
<!-- Node3&#45;&gt;Node6 -->
<g id="edge12" class="edge"><title>Node3&#45;&gt;Node6</title>
<path fill="none" stroke="midnightblue" d="M305.849,-116.268C310.514,-100.874 321.296,-72.7556 341,-58 365.096,-39.9548 441.637,-26.1326 495.808,-18.2874"/>
<polygon fill="midnightblue" stroke="midnightblue" points="496.573,-21.7141 505.983,-16.8455 495.591,-14.7833 496.573,-21.7141"/>
</g>
<!-- Node7 -->
<g id="node14" class="node"><title>Node7</title>
<a xlink:href="../../d1/d98/node_state_8h.html" target="_top" xlink:title="nodeState.h">
<polygon fill="white" stroke="black" points="-0.5,-58.5 -0.5,-79.5 68.5,-79.5 68.5,-58.5 -0.5,-58.5"/>
<text text-anchor="middle" x="34" y="-66.5" font-family="Helvetica,sans-Serif" font-size="10.00">nodeState.h</text>
</a>
</g>
<!-- Node3&#45;&gt;Node7 -->
<g id="edge14" class="edge"><title>Node3&#45;&gt;Node7</title>
<path fill="none" stroke="midnightblue" d="M261.411,-118.359C216.958,-109.075 144.433,-93.7918 82,-80 80.9147,-79.7603 79.8159,-79.5165 78.7077,-79.2698"/>
<polygon fill="midnightblue" stroke="midnightblue" points="79.1176,-75.7746 68.5934,-76.996 77.5822,-82.6042 79.1176,-75.7746"/>
</g>
<!-- Node8 -->
<g id="node17" class="node"><title>Node8</title>
<a xlink:href="../../dd/d54/contact__params_8h.html" target="_top" xlink:title="contact_params.h">
<polygon fill="white" stroke="black" points="161.5,-58.5 161.5,-79.5 256.5,-79.5 256.5,-58.5 161.5,-58.5"/>
<text text-anchor="middle" x="209" y="-66.5" font-family="Helvetica,sans-Serif" font-size="10.00">contact_params.h</text>
</a>
</g>
<!-- Node3&#45;&gt;Node8 -->
<g id="edge18" class="edge"><title>Node3&#45;&gt;Node8</title>
<path fill="none" stroke="midnightblue" d="M285.759,-116.362C271.448,-107.532 250.885,-94.844 234.643,-84.8224"/>
<polygon fill="midnightblue" stroke="midnightblue" points="236.48,-81.8431 226.132,-79.5707 232.804,-87.8004 236.48,-81.8431"/>
</g>
<!-- Node9 -->
<g id="node21" class="node"><title>Node9</title>
<a xlink:href="../../d7/dc4/snmesh_8h.html" target="_top" xlink:title="snmesh.h">
<polygon fill="white" stroke="black" points="523.5,-58.5 523.5,-79.5 582.5,-79.5 582.5,-58.5 523.5,-58.5"/>
<text text-anchor="middle" x="553" y="-66.5" font-family="Helvetica,sans-Serif" font-size="10.00">snmesh.h</text>
</a>
</g>
<!-- Node3&#45;&gt;Node9 -->
<g id="edge24" class="edge"><title>Node3&#45;&gt;Node9</title>
<path fill="none" stroke="midnightblue" d="M344.563,-117.357C391.549,-106.457 467.481,-88.8404 513.569,-78.148"/>
<polygon fill="midnightblue" stroke="midnightblue" points="514.538,-81.5162 523.488,-75.8467 512.956,-74.6973 514.538,-81.5162"/>
</g>
<!-- Node7&#45;&gt;Node4 -->
<g id="edge16" class="edge"><title>Node7&#45;&gt;Node4</title>
<path fill="none" stroke="midnightblue" d="M53.0752,-58.3619C69.0547,-49.4502 92.081,-36.6087 110.127,-26.5447"/>
<polygon fill="midnightblue" stroke="midnightblue" points="112.017,-29.4982 119.046,-21.5707 108.607,-23.3846 112.017,-29.4982"/>
</g>
<!-- Node8&#45;&gt;Node2 -->
<g id="edge20" class="edge"><title>Node8&#45;&gt;Node2</title>
<path fill="none" stroke="midnightblue" d="M222.756,-58.3619C233.751,-49.859 249.373,-37.7785 262.086,-27.9466"/>
<polygon fill="midnightblue" stroke="midnightblue" points="264.562,-30.4569 270.331,-21.5707 260.279,-24.9195 264.562,-30.4569"/>
</g>
<!-- Node8&#45;&gt;Node4 -->
<g id="edge22" class="edge"><title>Node8&#45;&gt;Node4</title>
<path fill="none" stroke="midnightblue" d="M195.978,-58.3619C185.569,-49.859 170.781,-37.7785 158.745,-27.9466"/>
<polygon fill="midnightblue" stroke="midnightblue" points="160.899,-25.1866 150.94,-21.5707 156.47,-30.6077 160.899,-25.1866"/>
</g>
<!-- Node9&#45;&gt;Node2 -->
<g id="edge26" class="edge"><title>Node9&#45;&gt;Node2</title>
<path fill="none" stroke="midnightblue" d="M523.435,-61.249C518.942,-60.1255 514.354,-59.0091 510,-58 448.66,-43.7837 377.485,-29.3138 331.652,-20.2566"/>
<polygon fill="midnightblue" stroke="midnightblue" points="332.191,-16.7956 321.703,-18.2969 330.838,-23.6636 332.191,-16.7956"/>
</g>
<!-- Node9&#45;&gt;Node6 -->
<g id="edge28" class="edge"><title>Node9&#45;&gt;Node6</title>
<path fill="none" stroke="midnightblue" d="M553,-58.3619C553,-50.9219 553,-40.7427 553,-31.7276"/>
<polygon fill="midnightblue" stroke="midnightblue" points="556.5,-31.5706 553,-21.5707 549.5,-31.5707 556.5,-31.5706"/>
</g>
<!-- Node10&#45;&gt;Node2 -->
<g id="edge42" class="edge"><title>Node10&#45;&gt;Node2</title>
<path fill="none" stroke="midnightblue" d="M566.407,-116.347C582.838,-102.027 606.679,-76.2619 591,-58 574.348,-38.6046 413.9,-22.1532 331.836,-14.9274"/>
<polygon fill="midnightblue" stroke="midnightblue" points="332.019,-11.4302 321.754,-14.0514 331.413,-18.404 332.019,-11.4302"/>
</g>
<!-- Node10&#45;&gt;Node4 -->
<g id="edge44" class="edge"><title>Node10&#45;&gt;Node4</title>
<path fill="none" stroke="midnightblue" d="M544.985,-116.481C532.398,-100.819 506.38,-71.7406 477,-58 464.504,-52.156 291.699,-30.0522 197.776,-18.3583"/>
<polygon fill="midnightblue" stroke="midnightblue" points="198.191,-14.8829 187.835,-17.1228 197.327,-21.8295 198.191,-14.8829"/>
</g>
<!-- Node10&#45;&gt;Node5 -->
<g id="edge46" class="edge"><title>Node10&#45;&gt;Node5</title>
<path fill="none" stroke="midnightblue" d="M526.923,-116.497C503.925,-107.234 470.2,-93.6499 444.7,-83.3793"/>
<polygon fill="midnightblue" stroke="midnightblue" points="445.953,-80.1108 435.37,-79.6212 443.338,-86.6039 445.953,-80.1108"/>
</g>
<!-- Node10&#45;&gt;Node8 -->
<g id="edge40" class="edge"><title>Node10&#45;&gt;Node8</title>
<path fill="none" stroke="midnightblue" d="M518.441,-121.173C459.493,-111.234 338.91,-90.9035 266.91,-78.764"/>
<polygon fill="midnightblue" stroke="midnightblue" points="267.096,-75.2459 256.653,-77.0345 265.932,-82.1485 267.096,-75.2459"/>
</g>
<!-- Node10&#45;&gt;Node9 -->
<g id="edge32" class="edge"><title>Node10&#45;&gt;Node9</title>
<path fill="none" stroke="midnightblue" d="M553,-116.362C553,-108.922 553,-98.7427 553,-89.7276"/>
<polygon fill="midnightblue" stroke="midnightblue" points="556.5,-89.5706 553,-79.5707 549.5,-89.5707 556.5,-89.5706"/>
</g>
<!-- Node11 -->
<g id="node28" class="node"><title>Node11</title>
<a xlink:href="../../de/d75/_material_data_8h.html" target="_top" xlink:title="MaterialData.h">
<polygon fill="white" stroke="black" points="690,-58.5 690,-79.5 770,-79.5 770,-58.5 690,-58.5"/>
<text text-anchor="middle" x="730" y="-66.5" font-family="Helvetica,sans-Serif" font-size="10.00">MaterialData.h</text>
</a>
</g>
<!-- Node10&#45;&gt;Node11 -->
<g id="edge34" class="edge"><title>Node10&#45;&gt;Node11</title>
<path fill="none" stroke="midnightblue" d="M585.053,-116.497C613.909,-107.041 656.506,-93.0829 688.061,-82.7428"/>
<polygon fill="midnightblue" stroke="midnightblue" points="689.474,-85.963 697.887,-79.5231 687.294,-79.3111 689.474,-85.963"/>
</g>
<!-- Node10&#45;&gt;Node13 -->
<g id="edge48" class="edge"><title>Node10&#45;&gt;Node13</title>
<path fill="none" stroke="midnightblue" d="M587.876,-121.504C630.709,-114.372 705.648,-100.657 777.56,-80.1347"/>
<polygon fill="midnightblue" stroke="midnightblue" points="778.597,-83.4783 787.224,-77.3292 776.645,-76.7558 778.597,-83.4783"/>
</g>
<!-- Node14 -->
<g id="node39" class="node"><title>Node14</title>
<polygon fill="white" stroke="#bfbfbf" points="637.5,-58.5 637.5,-79.5 672.5,-79.5 672.5,-58.5 637.5,-58.5"/>
<text text-anchor="middle" x="655" y="-66.5" font-family="Helvetica,sans-Serif" font-size="10.00">map</text>
</g>
<!-- Node10&#45;&gt;Node14 -->
<g id="edge50" class="edge"><title>Node10&#45;&gt;Node14</title>
<path fill="none" stroke="midnightblue" d="M571.708,-116.362C587.674,-107.283 610.813,-94.1257 628.653,-83.9816"/>
<polygon fill="midnightblue" stroke="midnightblue" points="630.47,-86.9747 637.433,-78.9891 627.01,-80.8897 630.47,-86.9747"/>
</g>
<!-- Node11&#45;&gt;Node6 -->
<g id="edge36" class="edge"><title>Node11&#45;&gt;Node6</title>
<path fill="none" stroke="midnightblue" d="M697.947,-58.4966C669.091,-49.0411 626.494,-35.0829 594.939,-24.7428"/>
<polygon fill="midnightblue" stroke="midnightblue" points="595.706,-21.3111 585.113,-21.5231 593.526,-27.963 595.706,-21.3111"/>
</g>
<!-- Node12 -->
<g id="node31" class="node"><title>Node12</title>
<polygon fill="white" stroke="#bfbfbf" points="666,-0.5 666,-21.5 794,-21.5 794,-0.5 666,-0.5"/>
<text text-anchor="middle" x="730" y="-8.5" font-family="Helvetica,sans-Serif" font-size="10.00">configmaps/ConfigData.h</text>
</g>
<!-- Node11&#45;&gt;Node12 -->
<g id="edge38" class="edge"><title>Node11&#45;&gt;Node12</title>
<path fill="none" stroke="midnightblue" d="M730,-58.3619C730,-50.9219 730,-40.7427 730,-31.7276"/>
<polygon fill="midnightblue" stroke="midnightblue" points="733.5,-31.5706 730,-21.5707 726.5,-31.5707 733.5,-31.5706"/>
</g>
</g>
</svg>
