<?xml version="1.0" encoding="UTF-8" standalone="no"?>
<!DOCTYPE svg PUBLIC "-//W3C//DTD SVG 1.1//EN"
 "http://www.w3.org/Graphics/SVG/1.1/DTD/svg11.dtd">
<!-- Generated by graphviz version 2.36.0 (20140111.2315)
 -->
<!-- Title: /media/kavonszadkowski/work/marsdocs/mars/interfaces/src/utils.h Pages: 1 -->
<svg width="872pt" height="218pt"
 viewBox="0.00 0.00 872.00 218.00" xmlns="http://www.w3.org/2000/svg" xmlns:xlink="http://www.w3.org/1999/xlink">
<g id="graph0" class="graph" transform="scale(1 1) rotate(0) translate(4 214)">
<title>/media/kavonszadkowski/work/marsdocs/mars/interfaces/src/utils.h</title>
<polygon fill="white" stroke="none" points="-4,4 -4,-214 868,-214 868,4 -4,4"/>
<!-- Node1 -->
<g id="node1" class="node"><title>Node1</title>
<polygon fill="#bfbfbf" stroke="black" points="362.5,-168.5 362.5,-209.5 519.5,-209.5 519.5,-168.5 362.5,-168.5"/>
<text text-anchor="start" x="370.5" y="-197.5" font-family="Helvetica,sans-Serif" font-size="10.00">/media/kavonszadkowski</text>
<text text-anchor="start" x="370.5" y="-186.5" font-family="Helvetica,sans-Serif" font-size="10.00">/work/marsdocs/mars/interfaces</text>
<text text-anchor="middle" x="441" y="-175.5" font-family="Helvetica,sans-Serif" font-size="10.00">/src/utils.h</text>
</g>
<!-- Node2 -->
<g id="node2" class="node"><title>Node2</title>
<g id="a_node2"><a xlink:href="../../dd/d9e/_m_a_r_s_defs_8h.html" target="_top" xlink:title="MARSDefs.h">
<polygon fill="white" stroke="black" points="249.5,-0.5 249.5,-19.5 324.5,-19.5 324.5,-0.5 249.5,-0.5"/>
<text text-anchor="middle" x="287" y="-7.5" font-family="Helvetica,sans-Serif" font-size="10.00">MARSDefs.h</text>
</a>
</g>
</g>
<!-- Node1&#45;&gt;Node2 -->
<g id="edge1" class="edge"><title>Node1&#45;&gt;Node2</title>
<path fill="none" stroke="midnightblue" d="M362.213,-182.859C292.721,-173.508 196.14,-147.55 154,-76 132.614,-39.6893 193.186,-23.227 239.501,-16.0834"/>
<polygon fill="midnightblue" stroke="midnightblue" points="240.027,-19.5438 249.428,-14.6572 239.032,-12.6149 240.027,-19.5438"/>
</g>
<!-- Node3 -->
<g id="node3" class="node"><title>Node3</title>
<g id="a_node3"><a xlink:href="../../dc/d3b/sim__common_8h.html" target="_top" xlink:title="sim_common.h">
<polygon fill="white" stroke="black" points="264.5,-112.5 264.5,-131.5 347.5,-131.5 347.5,-112.5 264.5,-112.5"/>
<text text-anchor="middle" x="306" y="-119.5" font-family="Helvetica,sans-Serif" font-size="10.00">sim_common.h</text>
</a>
</g>
</g>
<!-- Node1&#45;&gt;Node3 -->
<g id="edge2" class="edge"><title>Node1&#45;&gt;Node3</title>
<path fill="none" stroke="midnightblue" d="M400.496,-168.498C378.703,-158.005 352.416,-145.348 333.105,-136.051"/>
<polygon fill="midnightblue" stroke="midnightblue" points="334.499,-132.837 323.971,-131.652 331.462,-139.144 334.499,-132.837"/>
</g>
<!-- Node10 -->
<g id="node10" class="node"><title>Node10</title>
<g id="a_node10"><a xlink:href="../../d7/d1b/_node_data_8h.html" target="_top" xlink:title="NodeData.h">
<polygon fill="white" stroke="black" points="522.5,-112.5 522.5,-131.5 591.5,-131.5 591.5,-112.5 522.5,-112.5"/>
<text text-anchor="middle" x="557" y="-119.5" font-family="Helvetica,sans-Serif" font-size="10.00">NodeData.h</text>
</a>
</g>
</g>
<!-- Node1&#45;&gt;Node10 -->
<g id="edge15" class="edge"><title>Node1&#45;&gt;Node10</title>
<path fill="none" stroke="midnightblue" d="M475.804,-168.498C494.102,-158.245 516.088,-145.925 532.564,-136.693"/>
<polygon fill="midnightblue" stroke="midnightblue" points="534.546,-139.594 541.559,-131.652 531.124,-133.488 534.546,-139.594"/>
</g>
<!-- Node14 -->
<g id="node14" class="node"><title>Node14</title>
<polygon fill="white" stroke="#bfbfbf" points="795.5,-56.5 795.5,-75.5 836.5,-75.5 836.5,-56.5 795.5,-56.5"/>
<text text-anchor="middle" x="816" y="-63.5" font-family="Helvetica,sans-Serif" font-size="10.00">string</text>
</g>
<!-- Node1&#45;&gt;Node14 -->
<g id="edge27" class="edge"><title>Node1&#45;&gt;Node14</title>
<path fill="none" stroke="midnightblue" d="M501.667,-168.425C582.96,-142.194 724.134,-96.6421 785.764,-76.7563"/>
<polygon fill="midnightblue" stroke="midnightblue" points="786.851,-80.0833 795.293,-73.6816 784.701,-73.4215 786.851,-80.0833"/>
</g>
<!-- Node3&#45;&gt;Node2 -->
<g id="edge3" class="edge"><title>Node3&#45;&gt;Node2</title>
<path fill="none" stroke="midnightblue" d="M304.509,-112.368C301.443,-94.617 294.37,-53.6664 290.212,-29.5974"/>
<polygon fill="midnightblue" stroke="midnightblue" points="293.635,-28.8498 288.484,-19.5914 286.737,-30.0413 293.635,-28.8498"/>
</g>
<!-- Node4 -->
<g id="node4" class="node"><title>Node4</title>
<polygon fill="white" stroke="#bfbfbf" points="89.5,-0.5 89.5,-19.5 188.5,-19.5 188.5,-0.5 89.5,-0.5"/>
<text text-anchor="middle" x="139" y="-7.5" font-family="Helvetica,sans-Serif" font-size="10.00">mars/utils/Vector.h</text>
</g>
<!-- Node3&#45;&gt;Node4 -->
<g id="edge4" class="edge"><title>Node3&#45;&gt;Node4</title>
<path fill="none" stroke="midnightblue" d="M264.293,-119.742C229.925,-116.418 182.381,-106.168 154,-76 142.479,-63.753 139.201,-44.4905 138.522,-30.1092"/>
<polygon fill="midnightblue" stroke="midnightblue" points="142.02,-29.8166 138.427,-19.8495 135.02,-29.8815 142.02,-29.8166"/>
</g>
<!-- Node5 -->
<g id="node5" class="node"><title>Node5</title>
<polygon fill="white" stroke="#bfbfbf" points="353,-56.5 353,-75.5 471,-75.5 471,-56.5 353,-56.5"/>
<text text-anchor="middle" x="412" y="-63.5" font-family="Helvetica,sans-Serif" font-size="10.00">mars/utils/Quaternion.h</text>
</g>
<!-- Node3&#45;&gt;Node5 -->
<g id="edge5" class="edge"><title>Node3&#45;&gt;Node5</title>
<path fill="none" stroke="midnightblue" d="M323.031,-112.324C340.03,-103.664 366.376,-90.2424 385.993,-80.249"/>
<polygon fill="midnightblue" stroke="midnightblue" points="387.69,-83.3125 395.012,-75.6545 384.512,-77.0752 387.69,-83.3125"/>
</g>
<!-- Node6 -->
<g id="node6" class="node"><title>Node6</title>
<polygon fill="white" stroke="#bfbfbf" points="510,-0.5 510,-19.5 604,-19.5 604,-0.5 510,-0.5"/>
<text text-anchor="middle" x="557" y="-7.5" font-family="Helvetica,sans-Serif" font-size="10.00">mars/utils/Color.h</text>
</g>
<!-- Node3&#45;&gt;Node6 -->
<g id="edge6" class="edge"><title>Node3&#45;&gt;Node6</title>
<path fill="none" stroke="midnightblue" d="M308.547,-112.269C313.157,-98.0925 324.283,-70.2254 344,-56 389.451,-23.2089 453.713,-13.3072 499.745,-10.7801"/>
<polygon fill="midnightblue" stroke="midnightblue" points="500.027,-14.2711 509.86,-10.3266 499.713,-7.27812 500.027,-14.2711"/>
</g>
<!-- Node7 -->
<g id="node7" class="node"><title>Node7</title>
<g id="a_node7"><a xlink:href="../../d1/d98/node_state_8h.html" target="_top" xlink:title="nodeState.h">
<polygon fill="white" stroke="black" points="-0.5,-56.5 -0.5,-75.5 68.5,-75.5 68.5,-56.5 -0.5,-56.5"/>
<text text-anchor="middle" x="34" y="-63.5" font-family="Helvetica,sans-Serif" font-size="10.00">nodeState.h</text>
</a>
</g>
</g>
<!-- Node3&#45;&gt;Node7 -->
<g id="edge7" class="edge"><title>Node3&#45;&gt;Node7</title>
<path fill="none" stroke="midnightblue" d="M264.393,-112.74C214.167,-102.768 130.047,-86.0681 78.5415,-75.8428"/>
<polygon fill="midnightblue" stroke="midnightblue" points="79.1852,-72.4023 68.695,-73.888 77.822,-79.2683 79.1852,-72.4023"/>
</g>
<!-- Node8 -->
<g id="node8" class="node"><title>Node8</title>
<g id="a_node8"><a xlink:href="../../dd/d54/contact__params_8h.html" target="_top" xlink:title="contact_params.h">
<polygon fill="white" stroke="black" points="163.5,-56.5 163.5,-75.5 258.5,-75.5 258.5,-56.5 163.5,-56.5"/>
<text text-anchor="middle" x="211" y="-63.5" font-family="Helvetica,sans-Serif" font-size="10.00">contact_params.h</text>
</a>
</g>
</g>
<!-- Node3&#45;&gt;Node8 -->
<g id="edge9" class="edge"><title>Node3&#45;&gt;Node8</title>
<path fill="none" stroke="midnightblue" d="M290.737,-112.324C275.779,-103.822 252.745,-90.7288 235.273,-80.7975"/>
<polygon fill="midnightblue" stroke="midnightblue" points="236.649,-77.5534 226.226,-75.6545 233.19,-83.639 236.649,-77.5534"/>
</g>
<!-- Node9 -->
<g id="node9" class="node"><title>Node9</title>
<g id="a_node9"><a xlink:href="../../d7/dc4/snmesh_8h.html" target="_top" xlink:title="snmesh.h">
<polygon fill="white" stroke="black" points="527.5,-56.5 527.5,-75.5 586.5,-75.5 586.5,-56.5 527.5,-56.5"/>
<text text-anchor="middle" x="557" y="-63.5" font-family="Helvetica,sans-Serif" font-size="10.00">snmesh.h</text>
</a>
</g>
</g>
<!-- Node3&#45;&gt;Node9 -->
<g id="edge12" class="edge"><title>Node3&#45;&gt;Node9</title>
<path fill="none" stroke="midnightblue" d="M345.772,-112.444C392.778,-102.331 470.519,-85.6055 517.435,-75.5121"/>
<polygon fill="midnightblue" stroke="midnightblue" points="518.2,-78.9277 527.24,-73.4026 516.727,-72.0842 518.2,-78.9277"/>
</g>
<!-- Node7&#45;&gt;Node4 -->
<g id="edge8" class="edge"><title>Node7&#45;&gt;Node4</title>
<path fill="none" stroke="midnightblue" d="M50.8701,-56.324C67.7088,-47.6641 93.8065,-34.2424 113.238,-24.249"/>
<polygon fill="midnightblue" stroke="midnightblue" points="114.88,-27.3405 122.172,-19.6545 111.678,-21.1155 114.88,-27.3405"/>
</g>
<!-- Node8&#45;&gt;Node2 -->
<g id="edge10" class="edge"><title>Node8&#45;&gt;Node2</title>
<path fill="none" stroke="midnightblue" d="M223.211,-56.324C234.776,-48.1066 252.375,-35.6017 266.161,-25.8069"/>
<polygon fill="midnightblue" stroke="midnightblue" points="268.443,-28.4791 274.567,-19.8339 264.388,-22.7729 268.443,-28.4791"/>
</g>
<!-- Node8&#45;&gt;Node4 -->
<g id="edge11" class="edge"><title>Node8&#45;&gt;Node4</title>
<path fill="none" stroke="midnightblue" d="M199.432,-56.324C188.58,-48.1849 172.119,-35.8395 159.117,-26.0874"/>
<polygon fill="midnightblue" stroke="midnightblue" points="160.879,-23.0339 150.779,-19.8339 156.679,-28.6339 160.879,-23.0339"/>
</g>
<!-- Node9&#45;&gt;Node2 -->
<g id="edge13" class="edge"><title>Node9&#45;&gt;Node2</title>
<path fill="none" stroke="midnightblue" d="M527.182,-58.879C522.439,-57.9116 517.586,-56.9255 513,-56 451.386,-43.5644 380.273,-29.4428 334.529,-20.389"/>
<polygon fill="midnightblue" stroke="midnightblue" points="335.09,-16.9322 324.601,-18.4246 333.732,-23.799 335.09,-16.9322"/>
</g>
<!-- Node9&#45;&gt;Node6 -->
<g id="edge14" class="edge"><title>Node9&#45;&gt;Node6</title>
<path fill="none" stroke="midnightblue" d="M557,-56.083C557,-49.0059 557,-38.8611 557,-29.9865"/>
<polygon fill="midnightblue" stroke="midnightblue" points="560.5,-29.751 557,-19.7511 553.5,-29.7511 560.5,-29.751"/>
</g>
<!-- Node10&#45;&gt;Node2 -->
<g id="edge22" class="edge"><title>Node10&#45;&gt;Node2</title>
<path fill="none" stroke="midnightblue" d="M568.59,-112.358C584.789,-99.2578 610.559,-73.9973 595,-56 561.938,-17.756 412.684,-11.3769 334.738,-10.7135"/>
<polygon fill="midnightblue" stroke="midnightblue" points="334.707,-7.21338 324.687,-10.6564 334.667,-14.2133 334.707,-7.21338"/>
</g>
<!-- Node10&#45;&gt;Node4 -->
<g id="edge23" class="edge"><title>Node10&#45;&gt;Node4</title>
<path fill="none" stroke="midnightblue" d="M549.955,-112.492C537.508,-98.118 510.082,-69.2952 480,-56 454.888,-44.9013 289.864,-26.5245 198.916,-17.055"/>
<polygon fill="midnightblue" stroke="midnightblue" points="199.051,-13.5503 188.744,-16.0008 198.329,-20.513 199.051,-13.5503"/>
</g>
<!-- Node10&#45;&gt;Node5 -->
<g id="edge24" class="edge"><title>Node10&#45;&gt;Node5</title>
<path fill="none" stroke="midnightblue" d="M534.024,-112.444C509.843,-103.438 471.582,-89.1891 444.354,-79.049"/>
<polygon fill="midnightblue" stroke="midnightblue" points="445.461,-75.7265 434.868,-75.5164 443.018,-82.2864 445.461,-75.7265"/>
</g>
<!-- Node10&#45;&gt;Node8 -->
<g id="edge21" class="edge"><title>Node10&#45;&gt;Node8</title>
<path fill="none" stroke="midnightblue" d="M522.24,-115.575C462.867,-106.309 341.331,-87.3407 268.948,-76.0439"/>
<polygon fill="midnightblue" stroke="midnightblue" points="269.059,-72.5189 258.639,-74.4349 267.979,-79.4352 269.059,-72.5189"/>
</g>
<!-- Node10&#45;&gt;Node9 -->
<g id="edge16" class="edge"><title>Node10&#45;&gt;Node9</title>
<path fill="none" stroke="midnightblue" d="M557,-112.083C557,-105.006 557,-94.8611 557,-85.9865"/>
<polygon fill="midnightblue" stroke="midnightblue" points="560.5,-85.751 557,-75.7511 553.5,-85.7511 560.5,-85.751"/>
</g>
<!-- Node11 -->
<g id="node11" class="node"><title>Node11</title>
<g id="a_node11"><a xlink:href="../../de/d75/_material_data_8h.html" target="_top" xlink:title="MaterialData.h">
<polygon fill="white" stroke="black" points="697,-56.5 697,-75.5 777,-75.5 777,-56.5 697,-56.5"/>
<text text-anchor="middle" x="737" y="-63.5" font-family="Helvetica,sans-Serif" font-size="10.00">MaterialData.h</text>
</a>
</g>
</g>
<!-- Node10&#45;&gt;Node11 -->
<g id="edge17" class="edge"><title>Node10&#45;&gt;Node11</title>
<path fill="none" stroke="midnightblue" d="M585.522,-112.444C616.066,-103.28 664.708,-88.6876 698.603,-78.5192"/>
<polygon fill="midnightblue" stroke="midnightblue" points="700.039,-81.7424 708.612,-75.5164 698.028,-75.0376 700.039,-81.7424"/>
</g>
<!-- Node10&#45;&gt;Node14 -->
<g id="edge25" class="edge"><title>Node10&#45;&gt;Node14</title>
<path fill="none" stroke="midnightblue" d="M591.76,-115.256C634.897,-107.891 710.875,-94.1445 785.391,-75.9415"/>
<polygon fill="midnightblue" stroke="midnightblue" points="786.548,-79.2609 795.416,-73.4629 784.868,-72.4655 786.548,-79.2609"/>
</g>
<!-- Node15 -->
<g id="node15" class="node"><title>Node15</title>
<polygon fill="white" stroke="#bfbfbf" points="643.5,-56.5 643.5,-75.5 678.5,-75.5 678.5,-56.5 643.5,-56.5"/>
<text text-anchor="middle" x="661" y="-63.5" font-family="Helvetica,sans-Serif" font-size="10.00">map</text>
</g>
<!-- Node10&#45;&gt;Node15 -->
<g id="edge26" class="edge"><title>Node10&#45;&gt;Node15</title>
<path fill="none" stroke="midnightblue" d="M573.709,-112.324C590.312,-103.703 616.002,-90.3643 635.22,-80.3855"/>
<polygon fill="midnightblue" stroke="midnightblue" points="637.07,-83.3689 644.332,-75.6545 633.844,-77.1565 637.07,-83.3689"/>
</g>
<!-- Node11&#45;&gt;Node6 -->
<g id="edge18" class="edge"><title>Node11&#45;&gt;Node6</title>
<path fill="none" stroke="midnightblue" d="M708.478,-56.4435C677.934,-47.2801 629.292,-32.6876 595.397,-22.5192"/>
<polygon fill="midnightblue" stroke="midnightblue" points="595.972,-19.0376 585.388,-19.5164 593.961,-25.7424 595.972,-19.0376"/>
</g>
<!-- Node12 -->
<g id="node12" class="node"><title>Node12</title>
<polygon fill="white" stroke="#bfbfbf" points="736,-0.5 736,-19.5 864,-19.5 864,-0.5 736,-0.5"/>
<text text-anchor="middle" x="800" y="-7.5" font-family="Helvetica,sans-Serif" font-size="10.00">configmaps/ConfigData.h</text>
</g>
<!-- Node11&#45;&gt;Node12 -->
<g id="edge19" class="edge"><title>Node11&#45;&gt;Node12</title>
<path fill="none" stroke="midnightblue" d="M747.122,-56.324C756.526,-48.2631 770.744,-36.0765 782.069,-26.3695"/>
<polygon fill="midnightblue" stroke="midnightblue" points="784.379,-28.9993 789.694,-19.8339 779.823,-23.6844 784.379,-28.9993"/>
</g>
<!-- Node13 -->
<g id="node13" class="node"><title>Node13</title>
<polygon fill="white" stroke="#bfbfbf" points="666,-0.5 666,-19.5 718,-19.5 718,-0.5 666,-0.5"/>
<text text-anchor="middle" x="692" y="-7.5" font-family="Helvetica,sans-Serif" font-size="10.00">sstream</text>
</g>
<!-- Node11&#45;&gt;Node13 -->
<g id="edge20" class="edge"><title>Node11&#45;&gt;Node13</title>
<path fill="none" stroke="midnightblue" d="M729.569,-56.083C723.147,-48.3768 713.694,-37.0333 705.878,-27.6531"/>
<polygon fill="midnightblue" stroke="midnightblue" points="708.383,-25.1927 699.293,-19.7511 703.006,-29.674 708.383,-25.1927"/>
</g>
</g>
</svg>
