<?xml version="1.0" encoding="UTF-8" standalone="no"?>
<!DOCTYPE svg PUBLIC "-//W3C//DTD SVG 1.1//EN"
 "http://www.w3.org/Graphics/SVG/1.1/DTD/svg11.dtd">
<!-- Generated by graphviz version 2.26.3 (20100126.1600)
 -->
<!-- Title: mars::utils::ReadWriteLocker Pages: 1 -->
<svg width="165pt" height="188pt"
 viewBox="0.00 0.00 165.00 188.00" xmlns="http://www.w3.org/2000/svg" xmlns:xlink="http://www.w3.org/1999/xlink">
<g id="graph1" class="graph" transform="scale(1 1) rotate(0) translate(4 184)">
<title>mars::utils::ReadWriteLocker</title>
<polygon fill="white" stroke="white" points="-4,5 -4,-184 162,-184 162,5 -4,5"/>
<!-- Node1 -->
<g id="node1" class="node"><title>Node1</title>
<polygon fill="#bfbfbf" stroke="black" points="0,-0.5 0,-21.5 144,-21.5 144,-0.5 0,-0.5"/>
<text text-anchor="middle" x="72" y="-8.5" font-family="Helvetica,sans-Serif" font-size="10.00">mars::utils::ReadWriteLocker</text>
</g>
<!-- Node2 -->
<g id="node2" class="node"><title>Node2</title>
<a xlink:href="../../d2/d30/classmars_1_1utils_1_1_read_write_lock.html" target="_top" xlink:title="mars::utils::ReadWriteLock">
<polygon fill="white" stroke="black" points="4,-72.5 4,-93.5 140,-93.5 140,-72.5 4,-72.5"/>
<text text-anchor="middle" x="72" y="-80.5" font-family="Helvetica,sans-Serif" font-size="10.00">mars::utils::ReadWriteLock</text>
</a>
</g>
<!-- Node2&#45;&gt;Node1 -->
<g id="edge2" class="edge"><title>Node2&#45;&gt;Node1</title>
<path fill="none" stroke="#9a32cd" stroke-dasharray="5,2" d="M72,-62.2348C72,-48.969 72,-32.3188 72,-21.6674"/>
<polygon fill="#9a32cd" stroke="#9a32cd" points="68.5001,-62.3761 72,-72.3762 75.5001,-62.3762 68.5001,-62.3761"/>
<text text-anchor="middle" x="114.5" y="-44.5" font-family="Helvetica,sans-Serif" font-size="10.00"> myReadWriteLock</text>
</g>
<!-- Node3 -->
<g id="node4" class="node"><title>Node3</title>
<a xlink:href="../../d7/d15/structmars_1_1utils_1_1_pthread_read_write_lock_wrapper.html" target="_top" xlink:title="mars::utils::PthreadRead\lWriteLockWrapper">
<polygon fill="white" stroke="black" points="9.5,-145 9.5,-179 134.5,-179 134.5,-145 9.5,-145"/>
<text text-anchor="start" x="17.5" y="-166" font-family="Helvetica,sans-Serif" font-size="10.00">mars::utils::PthreadRead</text>
<text text-anchor="middle" x="72" y="-153" font-family="Helvetica,sans-Serif" font-size="10.00">WriteLockWrapper</text>
</a>
</g>
<!-- Node3&#45;&gt;Node2 -->
<g id="edge4" class="edge"><title>Node3&#45;&gt;Node2</title>
<path fill="none" stroke="#9a32cd" stroke-dasharray="5,2" d="M72,-134.623C72,-120.473 72,-104.024 72,-93.5672"/>
<polygon fill="#9a32cd" stroke="#9a32cd" points="68.5001,-134.858 72,-144.858 75.5001,-134.858 68.5001,-134.858"/>
<text text-anchor="middle" x="114.5" y="-116.5" font-family="Helvetica,sans-Serif" font-size="10.00"> myReadWriteLock</text>
</g>
</g>
</svg>
