<?xml version="1.0" encoding="UTF-8" standalone="no"?>
<!DOCTYPE svg PUBLIC "-//W3C//DTD SVG 1.1//EN"
 "http://www.w3.org/Graphics/SVG/1.1/DTD/svg11.dtd">
<!-- Generated by graphviz version 2.36.0 (20140111.2315)
 -->
<!-- Title: /media/kavonszadkowski/work/marsdocs/mars/sim/src/sensors/RotatingRaySensor.cpp Pages: 1 -->
<svg width="1865pt" height="186pt"
 viewBox="0.00 0.00 1865.00 186.00" xmlns="http://www.w3.org/2000/svg" xmlns:xlink="http://www.w3.org/1999/xlink">
<g id="graph0" class="graph" transform="scale(1 1) rotate(0) translate(4 182)">
<title>/media/kavonszadkowski/work/marsdocs/mars/sim/src/sensors/RotatingRaySensor.cpp</title>
<polygon fill="white" stroke="none" points="-4,4 -4,-182 1861,-182 1861,4 -4,4"/>
<!-- Node1 -->
<g id="node1" class="node"><title>Node1</title>
<polygon fill="#bfbfbf" stroke="black" points="1188,-136.5 1188,-177.5 1366,-177.5 1366,-136.5 1188,-136.5"/>
<text text-anchor="start" x="1196" y="-165.5" font-family="Helvetica,sans-Serif" font-size="10.00">/media/kavonszadkowski</text>
<text text-anchor="start" x="1196" y="-154.5" font-family="Helvetica,sans-Serif" font-size="10.00">/work/marsdocs/mars/sim</text>
<text text-anchor="middle" x="1277" y="-143.5" font-family="Helvetica,sans-Serif" font-size="10.00">/src/sensors/RotatingRaySensor.cpp</text>
</g>
<!-- Node2 -->
<g id="node2" class="node"><title>Node2</title>
<g id="a_node2"><a xlink:href="../../d3/d4f/_rotating_ray_sensor_8h.html" target="_top" xlink:title="RotatingRaySensor.h">
<polygon fill="white" stroke="black" points="523,-74.5 523,-93.5 633,-93.5 633,-74.5 523,-74.5"/>
<text text-anchor="middle" x="578" y="-81.5" font-family="Helvetica,sans-Serif" font-size="10.00">RotatingRaySensor.h</text>
</a>
</g>
</g>
<!-- Node1&#45;&gt;Node2 -->
<g id="edge1" class="edge"><title>Node1&#45;&gt;Node2</title>
<path fill="none" stroke="midnightblue" d="M1187.8,-152.027C1064.65,-145.655 835.889,-130.624 643,-100 635.765,-98.8514 628.138,-97.3547 620.753,-95.7521"/>
<polygon fill="midnightblue" stroke="midnightblue" points="621.419,-92.3144 610.893,-93.5237 619.876,-99.1422 621.419,-92.3144"/>
</g>
<!-- Node12 -->
<g id="node12" class="node"><title>Node12</title>
<polygon fill="white" stroke="#bfbfbf" points="651.5,-69 651.5,-99 778.5,-99 778.5,-69 651.5,-69"/>
<text text-anchor="start" x="659.5" y="-87" font-family="Helvetica,sans-Serif" font-size="10.00">mars/interfaces/sim</text>
<text text-anchor="middle" x="715" y="-76" font-family="Helvetica,sans-Serif" font-size="10.00">/NodeManagerInterface.h</text>
</g>
<!-- Node1&#45;&gt;Node12 -->
<g id="edge11" class="edge"><title>Node1&#45;&gt;Node12</title>
<path fill="none" stroke="midnightblue" d="M1187.89,-148.188C1091.84,-139.224 934.291,-122.95 788.659,-100.014"/>
<polygon fill="midnightblue" stroke="midnightblue" points="789.066,-96.5351 778.64,-98.4228 787.967,-103.448 789.066,-96.5351"/>
</g>
<!-- Node13 -->
<g id="node13" class="node"><title>Node13</title>
<polygon fill="white" stroke="#bfbfbf" points="796.5,-69 796.5,-99 903.5,-99 903.5,-69 796.5,-69"/>
<text text-anchor="start" x="804.5" y="-87" font-family="Helvetica,sans-Serif" font-size="10.00">mars/interfaces/sim</text>
<text text-anchor="middle" x="850" y="-76" font-family="Helvetica,sans-Serif" font-size="10.00">/SimulatorInterface.h</text>
</g>
<!-- Node1&#45;&gt;Node13 -->
<g id="edge12" class="edge"><title>Node1&#45;&gt;Node13</title>
<path fill="none" stroke="midnightblue" d="M1187.64,-144.313C1116.12,-134.481 1013.08,-119.25 913.488,-99.9991"/>
<polygon fill="midnightblue" stroke="midnightblue" points="914.037,-96.5402 903.552,-98.0626 912.698,-103.411 914.037,-96.5402"/>
</g>
<!-- Node14 -->
<g id="node14" class="node"><title>Node14</title>
<polygon fill="white" stroke="#bfbfbf" points="921.5,-69 921.5,-99 1024.5,-99 1024.5,-69 921.5,-69"/>
<text text-anchor="start" x="929.5" y="-87" font-family="Helvetica,sans-Serif" font-size="10.00">mars/interfaces/sim</text>
<text text-anchor="middle" x="973" y="-76" font-family="Helvetica,sans-Serif" font-size="10.00">/LoadCenter.h</text>
</g>
<!-- Node1&#45;&gt;Node14 -->
<g id="edge13" class="edge"><title>Node1&#45;&gt;Node14</title>
<path fill="none" stroke="midnightblue" d="M1190.9,-136.479C1146.94,-126.437 1092.36,-113.852 1034.62,-100.13"/>
<polygon fill="midnightblue" stroke="midnightblue" points="1035.11,-96.6487 1024.57,-97.7377 1033.49,-103.458 1035.11,-96.6487"/>
</g>
<!-- Node15 -->
<g id="node15" class="node"><title>Node15</title>
<polygon fill="white" stroke="#bfbfbf" points="1042.5,-69 1042.5,-99 1187.5,-99 1187.5,-69 1042.5,-69"/>
<text text-anchor="start" x="1050.5" y="-87" font-family="Helvetica,sans-Serif" font-size="10.00">mars/data_broker/DataBroker</text>
<text text-anchor="middle" x="1115" y="-76" font-family="Helvetica,sans-Serif" font-size="10.00">Interface.h</text>
</g>
<!-- Node1&#45;&gt;Node15 -->
<g id="edge14" class="edge"><title>Node1&#45;&gt;Node15</title>
<path fill="none" stroke="midnightblue" d="M1232.3,-136.411C1208.52,-125.985 1179.46,-113.251 1156.22,-103.064"/>
<polygon fill="midnightblue" stroke="midnightblue" points="1157.53,-99.8203 1146.97,-99.0117 1154.72,-106.232 1157.53,-99.8203"/>
</g>
<!-- Node16 -->
<g id="node16" class="node"><title>Node16</title>
<polygon fill="white" stroke="#bfbfbf" points="1205.5,-69 1205.5,-99 1348.5,-99 1348.5,-69 1205.5,-69"/>
<text text-anchor="start" x="1213.5" y="-87" font-family="Helvetica,sans-Serif" font-size="10.00">mars/interfaces/graphics</text>
<text text-anchor="middle" x="1277" y="-76" font-family="Helvetica,sans-Serif" font-size="10.00">/GraphicsManagerInterface.h</text>
</g>
<!-- Node1&#45;&gt;Node16 -->
<g id="edge15" class="edge"><title>Node1&#45;&gt;Node16</title>
<path fill="none" stroke="midnightblue" d="M1277,-136.223C1277,-127.821 1277,-117.948 1277,-109.123"/>
<polygon fill="midnightblue" stroke="midnightblue" points="1280.5,-109.048 1277,-99.0485 1273.5,-109.049 1280.5,-109.048"/>
</g>
<!-- Node17 -->
<g id="node17" class="node"><title>Node17</title>
<polygon fill="white" stroke="#bfbfbf" points="1366.5,-69 1366.5,-99 1525.5,-99 1525.5,-69 1366.5,-69"/>
<text text-anchor="start" x="1374.5" y="-87" font-family="Helvetica,sans-Serif" font-size="10.00">mars/cfg_manager/CFGManager</text>
<text text-anchor="middle" x="1446" y="-76" font-family="Helvetica,sans-Serif" font-size="10.00">Interface.h</text>
</g>
<!-- Node1&#45;&gt;Node17 -->
<g id="edge16" class="edge"><title>Node1&#45;&gt;Node17</title>
<path fill="none" stroke="midnightblue" d="M1323.63,-136.411C1348.55,-125.939 1379.02,-113.138 1403.32,-102.929"/>
<polygon fill="midnightblue" stroke="midnightblue" points="1404.78,-106.112 1412.65,-99.0117 1402.07,-99.6583 1404.78,-106.112"/>
</g>
<!-- Node18 -->
<g id="node18" class="node"><title>Node18</title>
<polygon fill="white" stroke="#bfbfbf" points="1543.5,-74.5 1543.5,-93.5 1670.5,-93.5 1670.5,-74.5 1543.5,-74.5"/>
<text text-anchor="middle" x="1607" y="-81.5" font-family="Helvetica,sans-Serif" font-size="10.00">mars/utils/MutexLocker.h</text>
</g>
<!-- Node1&#45;&gt;Node18 -->
<g id="edge17" class="edge"><title>Node1&#45;&gt;Node18</title>
<path fill="none" stroke="midnightblue" d="M1366.3,-136.786C1427.73,-123.569 1507.04,-106.507 1557.47,-95.6558"/>
<polygon fill="midnightblue" stroke="midnightblue" points="1558.43,-99.0299 1567.47,-93.5047 1556.96,-92.1865 1558.43,-99.0299"/>
</g>
<!-- Node19 -->
<g id="node19" class="node"><title>Node19</title>
<polygon fill="white" stroke="#bfbfbf" points="1689,-74.5 1689,-93.5 1733,-93.5 1733,-74.5 1689,-74.5"/>
<text text-anchor="middle" x="1711" y="-81.5" font-family="Helvetica,sans-Serif" font-size="10.00">cmath</text>
</g>
<!-- Node1&#45;&gt;Node19 -->
<g id="edge18" class="edge"><title>Node1&#45;&gt;Node19</title>
<path fill="none" stroke="midnightblue" d="M1366.05,-151.263C1448.6,-145.084 1574.12,-131.112 1679,-100 1681.28,-99.3227 1683.61,-98.5061 1685.91,-97.6078"/>
<polygon fill="midnightblue" stroke="midnightblue" points="1687.32,-100.811 1695.09,-93.6041 1684.53,-94.3947 1687.32,-100.811"/>
</g>
<!-- Node20 -->
<g id="node20" class="node"><title>Node20</title>
<polygon fill="white" stroke="#bfbfbf" points="1751.5,-74.5 1751.5,-93.5 1794.5,-93.5 1794.5,-74.5 1751.5,-74.5"/>
<text text-anchor="middle" x="1773" y="-81.5" font-family="Helvetica,sans-Serif" font-size="10.00">cstdio</text>
</g>
<!-- Node1&#45;&gt;Node20 -->
<g id="edge19" class="edge"><title>Node1&#45;&gt;Node20</title>
<path fill="none" stroke="midnightblue" d="M1366.32,-153.61C1460.99,-149.148 1614.06,-136.396 1741,-100 1743.34,-99.3294 1745.72,-98.5066 1748.08,-97.5949"/>
<polygon fill="midnightblue" stroke="midnightblue" points="1749.67,-100.718 1757.44,-93.5084 1746.87,-94.3027 1749.67,-100.718"/>
</g>
<!-- Node21 -->
<g id="node21" class="node"><title>Node21</title>
<polygon fill="white" stroke="#bfbfbf" points="1812.5,-74.5 1812.5,-93.5 1857.5,-93.5 1857.5,-74.5 1812.5,-74.5"/>
<text text-anchor="middle" x="1835" y="-81.5" font-family="Helvetica,sans-Serif" font-size="10.00">cstdlib</text>
</g>
<!-- Node1&#45;&gt;Node21 -->
<g id="edge20" class="edge"><title>Node1&#45;&gt;Node21</title>
<path fill="none" stroke="midnightblue" d="M1366.16,-155.45C1472.16,-152.766 1653.51,-141.726 1803,-100 1805.34,-99.3458 1807.73,-98.5344 1810.09,-97.6301"/>
<polygon fill="midnightblue" stroke="midnightblue" points="1811.68,-100.755 1819.45,-93.5552 1808.88,-94.3372 1811.68,-100.755"/>
</g>
<!-- Node3 -->
<g id="node3" class="node"><title>Node3</title>
<polygon fill="white" stroke="#bfbfbf" points="-0.5,-1 -0.5,-31 102.5,-31 102.5,-1 -0.5,-1"/>
<text text-anchor="start" x="7.5" y="-19" font-family="Helvetica,sans-Serif" font-size="10.00">mars/interfaces/sim</text>
<text text-anchor="middle" x="51" y="-8" font-family="Helvetica,sans-Serif" font-size="10.00">/SensorInterface.h</text>
</g>
<!-- Node2&#45;&gt;Node3 -->
<g id="edge2" class="edge"><title>Node2&#45;&gt;Node3</title>
<path fill="none" stroke="midnightblue" d="M522.787,-79.3302C437.086,-73.1137 266.78,-58.6841 112.924,-32.01"/>
<polygon fill="midnightblue" stroke="midnightblue" points="113.27,-28.5172 102.815,-30.2353 112.059,-35.4118 113.27,-28.5172"/>
</g>
<!-- Node4 -->
<g id="node4" class="node"><title>Node4</title>
<polygon fill="white" stroke="#bfbfbf" points="121,-1 121,-31 255,-31 255,-1 121,-1"/>
<text text-anchor="start" x="129" y="-19" font-family="Helvetica,sans-Serif" font-size="10.00">mars/data_broker/Receiver</text>
<text text-anchor="middle" x="188" y="-8" font-family="Helvetica,sans-Serif" font-size="10.00">Interface.h</text>
</g>
<!-- Node2&#45;&gt;Node4 -->
<g id="edge3" class="edge"><title>Node2&#45;&gt;Node4</title>
<path fill="none" stroke="midnightblue" d="M522.884,-74.6261C462.19,-65.2752 361.469,-49.376 265.032,-32.153"/>
<polygon fill="midnightblue" stroke="midnightblue" points="265.574,-28.6944 255.113,-30.374 264.339,-35.5845 265.574,-28.6944"/>
</g>
<!-- Node5 -->
<g id="node5" class="node"><title>Node5</title>
<polygon fill="white" stroke="#bfbfbf" points="273.5,-6.5 273.5,-25.5 372.5,-25.5 372.5,-6.5 273.5,-6.5"/>
<text text-anchor="middle" x="323" y="-13.5" font-family="Helvetica,sans-Serif" font-size="10.00">mars/utils/Vector.h</text>
</g>
<!-- Node2&#45;&gt;Node5 -->
<g id="edge4" class="edge"><title>Node2&#45;&gt;Node5</title>
<path fill="none" stroke="midnightblue" d="M544.925,-74.4393C499.16,-62.5943 416.47,-41.1921 365.973,-28.1223"/>
<polygon fill="midnightblue" stroke="midnightblue" points="366.575,-24.6629 356.017,-25.5455 364.821,-31.4396 366.575,-24.6629"/>
</g>
<!-- Node6 -->
<g id="node6" class="node"><title>Node6</title>
<polygon fill="white" stroke="#bfbfbf" points="391,-6.5 391,-25.5 509,-25.5 509,-6.5 391,-6.5"/>
<text text-anchor="middle" x="450" y="-13.5" font-family="Helvetica,sans-Serif" font-size="10.00">mars/utils/Quaternion.h</text>
</g>
<!-- Node2&#45;&gt;Node6 -->
<g id="edge5" class="edge"><title>Node2&#45;&gt;Node6</title>
<path fill="none" stroke="midnightblue" d="M561.266,-74.3717C539.514,-63.1557 501.303,-43.4532 475.82,-30.3136"/>
<polygon fill="midnightblue" stroke="midnightblue" points="477.23,-27.1026 466.738,-25.6305 474.022,-33.3242 477.23,-27.1026"/>
</g>
<!-- Node7 -->
<g id="node7" class="node"><title>Node7</title>
<polygon fill="white" stroke="#bfbfbf" points="527.5,-6.5 527.5,-25.5 628.5,-25.5 628.5,-6.5 527.5,-6.5"/>
<text text-anchor="middle" x="578" y="-13.5" font-family="Helvetica,sans-Serif" font-size="10.00">mars/utils/Thread.h</text>
</g>
<!-- Node2&#45;&gt;Node7 -->
<g id="edge6" class="edge"><title>Node2&#45;&gt;Node7</title>
<path fill="none" stroke="midnightblue" d="M578,-74.3717C578,-64.6426 578,-48.528 578,-35.8504"/>
<polygon fill="midnightblue" stroke="midnightblue" points="581.5,-35.8411 578,-25.8411 574.5,-35.8412 581.5,-35.8411"/>
</g>
<!-- Node8 -->
<g id="node8" class="node"><title>Node8</title>
<polygon fill="white" stroke="#bfbfbf" points="646.5,-6.5 646.5,-25.5 759.5,-25.5 759.5,-6.5 646.5,-6.5"/>
<text text-anchor="middle" x="703" y="-13.5" font-family="Helvetica,sans-Serif" font-size="10.00">mars/utils/mathUtils.h</text>
</g>
<!-- Node2&#45;&gt;Node8 -->
<g id="edge7" class="edge"><title>Node2&#45;&gt;Node8</title>
<path fill="none" stroke="midnightblue" d="M594.342,-74.3717C615.584,-63.1557 652.899,-43.4532 677.785,-30.3136"/>
<polygon fill="midnightblue" stroke="midnightblue" points="679.446,-33.3947 686.654,-25.6305 676.177,-27.2046 679.446,-33.3947"/>
</g>
<!-- Node9 -->
<g id="node9" class="node"><title>Node9</title>
<polygon fill="white" stroke="#bfbfbf" points="778,-6.5 778,-25.5 876,-25.5 876,-6.5 778,-6.5"/>
<text text-anchor="middle" x="827" y="-13.5" font-family="Helvetica,sans-Serif" font-size="10.00">mars/utils/Mutex.h</text>
</g>
<!-- Node2&#45;&gt;Node9 -->
<g id="edge8" class="edge"><title>Node2&#45;&gt;Node9</title>
<path fill="none" stroke="midnightblue" d="M610.297,-74.4393C654.985,-62.5943 735.73,-41.1921 785.039,-28.1223"/>
<polygon fill="midnightblue" stroke="midnightblue" points="785.991,-31.4909 794.76,-25.5455 784.197,-24.7245 785.991,-31.4909"/>
</g>
<!-- Node10 -->
<g id="node10" class="node"><title>Node10</title>
<polygon fill="white" stroke="#bfbfbf" points="894,-1 894,-31 1018,-31 1018,-1 894,-1"/>
<text text-anchor="start" x="902" y="-19" font-family="Helvetica,sans-Serif" font-size="10.00">mars/interfaces/graphics</text>
<text text-anchor="middle" x="956" y="-8" font-family="Helvetica,sans-Serif" font-size="10.00">/draw_structs.h</text>
</g>
<!-- Node2&#45;&gt;Node10 -->
<g id="edge9" class="edge"><title>Node2&#45;&gt;Node10</title>
<path fill="none" stroke="midnightblue" d="M612.639,-74.4758C622.423,-72.2127 633.101,-69.8785 643,-68 749.401,-47.8084 777.389,-51.0518 884,-32 884.102,-31.9817 884.204,-31.9635 884.307,-31.9451"/>
<polygon fill="midnightblue" stroke="midnightblue" points="884.795,-35.4143 893.991,-30.153 883.521,-28.5312 884.795,-35.4143"/>
</g>
<!-- Node11 -->
<g id="node11" class="node"><title>Node11</title>
<polygon fill="white" stroke="#bfbfbf" points="1036,-6.5 1036,-25.5 1118,-25.5 1118,-6.5 1036,-6.5"/>
<text text-anchor="middle" x="1077" y="-13.5" font-family="Helvetica,sans-Serif" font-size="10.00">base/Pose.hpp</text>
</g>
<!-- Node2&#45;&gt;Node11 -->
<g id="edge10" class="edge"><title>Node2&#45;&gt;Node11</title>
<path fill="none" stroke="midnightblue" d="M611.233,-74.4345C621.375,-72.0632 632.596,-69.6817 643,-68 811.782,-40.7172 858.101,-64.2704 1026,-32 1031.14,-31.0128 1036.5,-29.7276 1041.73,-28.3247"/>
<polygon fill="midnightblue" stroke="midnightblue" points="1042.89,-31.6335 1051.55,-25.5292 1040.98,-24.901 1042.89,-31.6335"/>
</g>
</g>
</svg>
