<?xml version="1.0" encoding="UTF-8" standalone="no"?>
<!DOCTYPE svg PUBLIC "-//W3C//DTD SVG 1.1//EN"
 "http://www.w3.org/Graphics/SVG/1.1/DTD/svg11.dtd">
<!-- Generated by graphviz version 2.26.3 (20100126.1600)
 -->
<!-- Title: /home/kavonszadkowski/limes&#45;dev/simulation/mars/sim/src/sensors/RotatingRaySensor.cpp Pages: 1 -->
<svg width="1724pt" height="214pt"
 viewBox="0.00 0.00 1724.00 214.00" xmlns="http://www.w3.org/2000/svg" xmlns:xlink="http://www.w3.org/1999/xlink">
<g id="graph1" class="graph" transform="scale(1 1) rotate(0) translate(4 210)">
<title>/home/kavonszadkowski/limes&#45;dev/simulation/mars/sim/src/sensors/RotatingRaySensor.cpp</title>
<polygon fill="white" stroke="white" points="-4,5 -4,-210 1721,-210 1721,5 -4,5"/>
<!-- Node1 -->
<g id="node1" class="node"><title>Node1</title>
<polygon fill="#bfbfbf" stroke="black" points="1078.5,-145 1078.5,-205 1203.5,-205 1203.5,-145 1078.5,-145"/>
<text text-anchor="start" x="1086.5" y="-192" font-family="Helvetica,sans-Serif" font-size="10.00">/home/kavonszadkowski</text>
<text text-anchor="start" x="1086.5" y="-179" font-family="Helvetica,sans-Serif" font-size="10.00">/limes&#45;dev/simulation</text>
<text text-anchor="start" x="1086.5" y="-166" font-family="Helvetica,sans-Serif" font-size="10.00">/mars/sim/src/sensors</text>
<text text-anchor="middle" x="1141" y="-153" font-family="Helvetica,sans-Serif" font-size="10.00">/RotatingRaySensor.cpp</text>
</g>
<!-- Node2 -->
<g id="node3" class="node"><title>Node2</title>
<a xlink:href="../../d3/d4f/_rotating_ray_sensor_8h.html" target="_top" xlink:title="RotatingRaySensor.h">
<polygon fill="white" stroke="black" points="392,-79.5 392,-100.5 502,-100.5 502,-79.5 392,-79.5"/>
<text text-anchor="middle" x="447" y="-87.5" font-family="Helvetica,sans-Serif" font-size="10.00">RotatingRaySensor.h</text>
</a>
</g>
<!-- Node1&#45;&gt;Node2 -->
<g id="edge2" class="edge"><title>Node1&#45;&gt;Node2</title>
<path fill="none" stroke="midnightblue" d="M1078.34,-171.835C964.5,-165.31 716.491,-147.533 511,-108 504.222,-106.696 497.119,-105.019 490.212,-103.215"/>
<polygon fill="midnightblue" stroke="midnightblue" points="490.863,-99.7644 480.294,-100.508 489.02,-106.518 490.863,-99.7644"/>
</g>
<!-- Node10 -->
<g id="node19" class="node"><title>Node10</title>
<polygon fill="white" stroke="#bfbfbf" points="519.5,-73 519.5,-107 646.5,-107 646.5,-73 519.5,-73"/>
<text text-anchor="start" x="527.5" y="-94" font-family="Helvetica,sans-Serif" font-size="10.00">mars/interfaces/sim</text>
<text text-anchor="middle" x="583" y="-81" font-family="Helvetica,sans-Serif" font-size="10.00">/NodeManagerInterface.h</text>
</g>
<!-- Node1&#45;&gt;Node10 -->
<g id="edge18" class="edge"><title>Node1&#45;&gt;Node10</title>
<path fill="none" stroke="midnightblue" d="M1078.12,-168.528C987.14,-158.679 813.402,-138.054 656.809,-108.252"/>
<polygon fill="midnightblue" stroke="midnightblue" points="657.001,-104.725 646.52,-106.275 655.68,-111.599 657.001,-104.725"/>
</g>
<!-- Node11 -->
<g id="node21" class="node"><title>Node11</title>
<polygon fill="white" stroke="#bfbfbf" points="663.5,-73 663.5,-107 770.5,-107 770.5,-73 663.5,-73"/>
<text text-anchor="start" x="671.5" y="-94" font-family="Helvetica,sans-Serif" font-size="10.00">mars/interfaces/sim</text>
<text text-anchor="middle" x="717" y="-81" font-family="Helvetica,sans-Serif" font-size="10.00">/SimulatorInterface.h</text>
</g>
<!-- Node1&#45;&gt;Node11 -->
<g id="edge20" class="edge"><title>Node1&#45;&gt;Node11</title>
<path fill="none" stroke="midnightblue" d="M1078.47,-165.369C1008.12,-154.099 890.323,-133.923 780.593,-108.277"/>
<polygon fill="midnightblue" stroke="midnightblue" points="781.218,-104.828 770.682,-105.94 779.612,-111.641 781.218,-104.828"/>
</g>
<!-- Node12 -->
<g id="node23" class="node"><title>Node12</title>
<polygon fill="white" stroke="#bfbfbf" points="787.5,-73 787.5,-107 890.5,-107 890.5,-73 787.5,-73"/>
<text text-anchor="start" x="795.5" y="-94" font-family="Helvetica,sans-Serif" font-size="10.00">mars/interfaces/sim</text>
<text text-anchor="middle" x="839" y="-81" font-family="Helvetica,sans-Serif" font-size="10.00">/LoadCenter.h</text>
</g>
<!-- Node1&#45;&gt;Node12 -->
<g id="edge22" class="edge"><title>Node1&#45;&gt;Node12</title>
<path fill="none" stroke="midnightblue" d="M1078.47,-158.083C1031.84,-145.375 966.331,-127.334 900.416,-108.385"/>
<polygon fill="midnightblue" stroke="midnightblue" points="901.268,-104.988 890.69,-105.583 899.33,-111.715 901.268,-104.988"/>
</g>
<!-- Node13 -->
<g id="node25" class="node"><title>Node13</title>
<polygon fill="white" stroke="#bfbfbf" points="907.5,-73 907.5,-107 1052.5,-107 1052.5,-73 907.5,-73"/>
<text text-anchor="start" x="915.5" y="-94" font-family="Helvetica,sans-Serif" font-size="10.00">mars/data_broker/DataBroker</text>
<text text-anchor="middle" x="980" y="-81" font-family="Helvetica,sans-Serif" font-size="10.00">Interface.h</text>
</g>
<!-- Node1&#45;&gt;Node13 -->
<g id="edge24" class="edge"><title>Node1&#45;&gt;Node13</title>
<path fill="none" stroke="midnightblue" d="M1083.78,-144.793C1063.12,-133.885 1040.22,-121.795 1021.2,-111.753"/>
<polygon fill="midnightblue" stroke="midnightblue" points="1022.68,-108.575 1012.2,-107.002 1019.41,-114.765 1022.68,-108.575"/>
</g>
<!-- Node14 -->
<g id="node27" class="node"><title>Node14</title>
<polygon fill="white" stroke="#bfbfbf" points="1069.5,-73 1069.5,-107 1212.5,-107 1212.5,-73 1069.5,-73"/>
<text text-anchor="start" x="1077.5" y="-94" font-family="Helvetica,sans-Serif" font-size="10.00">mars/interfaces/graphics</text>
<text text-anchor="middle" x="1141" y="-81" font-family="Helvetica,sans-Serif" font-size="10.00">/GraphicsManagerInterface.h</text>
</g>
<!-- Node1&#45;&gt;Node14 -->
<g id="edge26" class="edge"><title>Node1&#45;&gt;Node14</title>
<path fill="none" stroke="midnightblue" d="M1141,-144.793C1141,-135.837 1141,-126.084 1141,-117.322"/>
<polygon fill="midnightblue" stroke="midnightblue" points="1144.5,-117.246 1141,-107.246 1137.5,-117.246 1144.5,-117.246"/>
</g>
<!-- Node15 -->
<g id="node29" class="node"><title>Node15</title>
<polygon fill="white" stroke="#bfbfbf" points="1229.5,-73 1229.5,-107 1388.5,-107 1388.5,-73 1229.5,-73"/>
<text text-anchor="start" x="1237.5" y="-94" font-family="Helvetica,sans-Serif" font-size="10.00">mars/cfg_manager/CFGManager</text>
<text text-anchor="middle" x="1309" y="-81" font-family="Helvetica,sans-Serif" font-size="10.00">Interface.h</text>
</g>
<!-- Node1&#45;&gt;Node15 -->
<g id="edge28" class="edge"><title>Node1&#45;&gt;Node15</title>
<path fill="none" stroke="midnightblue" d="M1200.7,-144.793C1222.36,-133.835 1246.38,-121.685 1266.28,-111.616"/>
<polygon fill="midnightblue" stroke="midnightblue" points="1268.05,-114.639 1275.4,-107.002 1264.89,-108.393 1268.05,-114.639"/>
</g>
<!-- Node16 -->
<g id="node31" class="node"><title>Node16</title>
<polygon fill="white" stroke="#bfbfbf" points="1405.5,-79.5 1405.5,-100.5 1532.5,-100.5 1532.5,-79.5 1405.5,-79.5"/>
<text text-anchor="middle" x="1469" y="-87.5" font-family="Helvetica,sans-Serif" font-size="10.00">mars/utils/MutexLocker.h</text>
</g>
<!-- Node1&#45;&gt;Node16 -->
<g id="edge30" class="edge"><title>Node1&#45;&gt;Node16</title>
<path fill="none" stroke="midnightblue" d="M1203.85,-158.712C1266.15,-142.568 1360.39,-118.146 1418.13,-103.182"/>
<polygon fill="midnightblue" stroke="midnightblue" points="1419.32,-106.49 1428.12,-100.593 1417.57,-99.7135 1419.32,-106.49"/>
</g>
<!-- Node17 -->
<g id="node33" class="node"><title>Node17</title>
<polygon fill="white" stroke="#bfbfbf" points="1550,-79.5 1550,-100.5 1594,-100.5 1594,-79.5 1550,-79.5"/>
<text text-anchor="middle" x="1572" y="-87.5" font-family="Helvetica,sans-Serif" font-size="10.00">cmath</text>
</g>
<!-- Node1&#45;&gt;Node17 -->
<g id="edge32" class="edge"><title>Node1&#45;&gt;Node17</title>
<path fill="none" stroke="midnightblue" d="M1203.74,-171.466C1284.02,-165.386 1426.41,-149.313 1541,-108 1543.09,-107.245 1545.21,-106.351 1547.29,-105.369"/>
<polygon fill="midnightblue" stroke="midnightblue" points="1548.93,-108.461 1556.13,-100.682 1545.65,-102.277 1548.93,-108.461"/>
</g>
<!-- Node18 -->
<g id="node35" class="node"><title>Node18</title>
<polygon fill="white" stroke="#bfbfbf" points="1611.5,-79.5 1611.5,-100.5 1654.5,-100.5 1654.5,-79.5 1611.5,-79.5"/>
<text text-anchor="middle" x="1633" y="-87.5" font-family="Helvetica,sans-Serif" font-size="10.00">cstdio</text>
</g>
<!-- Node1&#45;&gt;Node18 -->
<g id="edge34" class="edge"><title>Node1&#45;&gt;Node18</title>
<path fill="none" stroke="midnightblue" d="M1203.68,-169.002C1312.27,-158.101 1530.66,-133.77 1603,-108 1604.93,-107.312 1606.87,-106.493 1608.79,-105.588"/>
<polygon fill="midnightblue" stroke="midnightblue" points="1610.9,-108.428 1618.01,-100.576 1607.55,-102.278 1610.9,-108.428"/>
</g>
<!-- Node19 -->
<g id="node37" class="node"><title>Node19</title>
<polygon fill="white" stroke="#bfbfbf" points="1671.5,-79.5 1671.5,-100.5 1716.5,-100.5 1716.5,-79.5 1671.5,-79.5"/>
<text text-anchor="middle" x="1694" y="-87.5" font-family="Helvetica,sans-Serif" font-size="10.00">cstdlib</text>
</g>
<!-- Node1&#45;&gt;Node19 -->
<g id="edge36" class="edge"><title>Node1&#45;&gt;Node19</title>
<path fill="none" stroke="midnightblue" d="M1203.72,-170.083C1323.23,-160.199 1579.17,-136.419 1663,-108 1665.15,-107.269 1667.33,-106.38 1669.47,-105.393"/>
<polygon fill="midnightblue" stroke="midnightblue" points="1671.29,-108.39 1678.49,-100.622 1668.02,-102.201 1671.29,-108.39"/>
</g>
<!-- Node3 -->
<g id="node5" class="node"><title>Node3</title>
<polygon fill="white" stroke="#bfbfbf" points="-0.5,-1 -0.5,-35 102.5,-35 102.5,-1 -0.5,-1"/>
<text text-anchor="start" x="7.5" y="-22" font-family="Helvetica,sans-Serif" font-size="10.00">mars/interfaces/sim</text>
<text text-anchor="middle" x="51" y="-9" font-family="Helvetica,sans-Serif" font-size="10.00">/SensorInterface.h</text>
</g>
<!-- Node2&#45;&gt;Node3 -->
<g id="edge4" class="edge"><title>Node2&#45;&gt;Node3</title>
<path fill="none" stroke="midnightblue" d="M391.865,-83.4122C327.036,-75.1614 216.103,-59.4684 112.588,-36.2234"/>
<polygon fill="midnightblue" stroke="midnightblue" points="113.122,-32.7557 102.595,-33.9504 111.57,-39.5813 113.122,-32.7557"/>
</g>
<!-- Node4 -->
<g id="node7" class="node"><title>Node4</title>
<polygon fill="white" stroke="#bfbfbf" points="120,-1 120,-35 254,-35 254,-1 120,-1"/>
<text text-anchor="start" x="128" y="-22" font-family="Helvetica,sans-Serif" font-size="10.00">mars/data_broker/Receiver</text>
<text text-anchor="middle" x="187" y="-9" font-family="Helvetica,sans-Serif" font-size="10.00">Interface.h</text>
</g>
<!-- Node2&#45;&gt;Node4 -->
<g id="edge6" class="edge"><title>Node2&#45;&gt;Node4</title>
<path fill="none" stroke="midnightblue" d="M408.915,-79.4535C369.526,-68.5456 307.086,-51.2546 258.459,-37.7886"/>
<polygon fill="midnightblue" stroke="midnightblue" points="259.189,-34.3591 248.617,-35.0633 257.321,-41.1052 259.189,-34.3591"/>
</g>
<!-- Node5 -->
<g id="node9" class="node"><title>Node5</title>
<polygon fill="white" stroke="#bfbfbf" points="271.5,-7.5 271.5,-28.5 370.5,-28.5 370.5,-7.5 271.5,-7.5"/>
<text text-anchor="middle" x="321" y="-15.5" font-family="Helvetica,sans-Serif" font-size="10.00">mars/utils/Vector.h</text>
</g>
<!-- Node2&#45;&gt;Node5 -->
<g id="edge8" class="edge"><title>Node2&#45;&gt;Node5</title>
<path fill="none" stroke="midnightblue" d="M428.408,-79.3762C407.285,-67.3054 372.608,-47.4905 348.388,-33.6506"/>
<polygon fill="midnightblue" stroke="midnightblue" points="350.087,-30.59 339.668,-28.6674 346.614,-36.6677 350.087,-30.59"/>
</g>
<!-- Node6 -->
<g id="node11" class="node"><title>Node6</title>
<polygon fill="white" stroke="#bfbfbf" points="388,-7.5 388,-28.5 506,-28.5 506,-7.5 388,-7.5"/>
<text text-anchor="middle" x="447" y="-15.5" font-family="Helvetica,sans-Serif" font-size="10.00">mars/utils/Quaternion.h</text>
</g>
<!-- Node2&#45;&gt;Node6 -->
<g id="edge10" class="edge"><title>Node2&#45;&gt;Node6</title>
<path fill="none" stroke="midnightblue" d="M447,-79.3762C447,-68.7412 447,-52.0946 447,-38.8195"/>
<polygon fill="midnightblue" stroke="midnightblue" points="450.5,-38.6674 447,-28.6674 443.5,-38.6675 450.5,-38.6674"/>
</g>
<!-- Node7 -->
<g id="node13" class="node"><title>Node7</title>
<polygon fill="white" stroke="#bfbfbf" points="523.5,-7.5 523.5,-28.5 636.5,-28.5 636.5,-7.5 523.5,-7.5"/>
<text text-anchor="middle" x="580" y="-15.5" font-family="Helvetica,sans-Serif" font-size="10.00">mars/utils/mathUtils.h</text>
</g>
<!-- Node2&#45;&gt;Node7 -->
<g id="edge12" class="edge"><title>Node2&#45;&gt;Node7</title>
<path fill="none" stroke="midnightblue" d="M466.625,-79.3762C489.02,-67.2523 525.847,-47.3157 551.427,-33.468"/>
<polygon fill="midnightblue" stroke="midnightblue" points="553.167,-36.5061 560.295,-28.6674 549.835,-30.3503 553.167,-36.5061"/>
</g>
<!-- Node8 -->
<g id="node15" class="node"><title>Node8</title>
<polygon fill="white" stroke="#bfbfbf" points="654,-7.5 654,-28.5 752,-28.5 752,-7.5 654,-7.5"/>
<text text-anchor="middle" x="703" y="-15.5" font-family="Helvetica,sans-Serif" font-size="10.00">mars/utils/Mutex.h</text>
</g>
<!-- Node2&#45;&gt;Node8 -->
<g id="edge14" class="edge"><title>Node2&#45;&gt;Node8</title>
<path fill="none" stroke="midnightblue" d="M484.206,-79.4564C492.987,-76.9901 502.319,-74.3867 511,-72 570.461,-55.6516 585.763,-53.1422 645,-36 649.937,-34.5712 655.097,-33.0339 660.216,-31.4811"/>
<polygon fill="midnightblue" stroke="midnightblue" points="661.405,-34.7775 669.941,-28.5006 659.354,-28.0848 661.405,-34.7775"/>
</g>
<!-- Node9 -->
<g id="node17" class="node"><title>Node9</title>
<polygon fill="white" stroke="#bfbfbf" points="770,-1 770,-35 894,-35 894,-1 770,-1"/>
<text text-anchor="start" x="778" y="-22" font-family="Helvetica,sans-Serif" font-size="10.00">mars/interfaces/graphics</text>
<text text-anchor="middle" x="832" y="-9" font-family="Helvetica,sans-Serif" font-size="10.00">/draw_structs.h</text>
</g>
<!-- Node2&#45;&gt;Node9 -->
<g id="edge16" class="edge"><title>Node2&#45;&gt;Node9</title>
<path fill="none" stroke="midnightblue" d="M481.338,-79.4487C490.88,-76.7614 501.289,-74.0556 511,-72 617.714,-49.4118 649.118,-57.3358 759.857,-36.109"/>
<polygon fill="midnightblue" stroke="midnightblue" points="760.603,-39.5296 769.746,-34.1772 759.261,-32.6595 760.603,-39.5296"/>
</g>
</g>
</svg>
