<?xml version="1.0" encoding="UTF-8" standalone="no"?>
<!DOCTYPE svg PUBLIC "-//W3C//DTD SVG 1.1//EN"
 "http://www.w3.org/Graphics/SVG/1.1/DTD/svg11.dtd">
<!-- Generated by graphviz version 2.36.0 (20140111.2315)
 -->
<!-- Title: /media/kavonszadkowski/work/marsdocs/mars/graphics/src/3d_objects/TerrainDrawObject.h Pages: 1 -->
<svg width="1880pt" height="230pt"
 viewBox="0.00 0.00 1880.00 230.00" xmlns="http://www.w3.org/2000/svg" xmlns:xlink="http://www.w3.org/1999/xlink">
<g id="graph0" class="graph" transform="scale(1 1) rotate(0) translate(4 226)">
<title>/media/kavonszadkowski/work/marsdocs/mars/graphics/src/3d_objects/TerrainDrawObject.h</title>
<polygon fill="white" stroke="none" points="-4,4 -4,-226 1876,-226 1876,4 -4,4"/>
<!-- Node1 -->
<g id="node1" class="node"><title>Node1</title>
<polygon fill="#bfbfbf" stroke="black" points="1493,-180.5 1493,-221.5 1669,-221.5 1669,-180.5 1493,-180.5"/>
<text text-anchor="start" x="1501" y="-209.5" font-family="Helvetica,sans-Serif" font-size="10.00">/media/kavonszadkowski</text>
<text text-anchor="start" x="1501" y="-198.5" font-family="Helvetica,sans-Serif" font-size="10.00">/work/marsdocs/mars/graphics</text>
<text text-anchor="middle" x="1581" y="-187.5" font-family="Helvetica,sans-Serif" font-size="10.00">/src/3d_objects/TerrainDrawObject.h</text>
</g>
<!-- Node2 -->
<g id="node2" class="node"><title>Node2</title>
<g id="a_node2"><a xlink:href="../../db/d56/_load_draw_object_8h.html" target="_top" xlink:title="LoadDrawObject.h">
<polygon fill="white" stroke="black" points="591,-124.5 591,-143.5 689,-143.5 689,-124.5 591,-124.5"/>
<text text-anchor="middle" x="640" y="-131.5" font-family="Helvetica,sans-Serif" font-size="10.00">LoadDrawObject.h</text>
</a>
</g>
</g>
<!-- Node1&#45;&gt;Node2 -->
<g id="edge1" class="edge"><title>Node1&#45;&gt;Node2</title>
<path fill="none" stroke="midnightblue" d="M1492.87,-196.131C1335.6,-188.824 996.33,-171.241 711,-144 707.144,-143.632 703.175,-143.22 699.177,-142.78"/>
<polygon fill="midnightblue" stroke="midnightblue" points="699.561,-139.302 689.227,-141.64 698.764,-146.256 699.561,-139.302"/>
</g>
<!-- Node4 -->
<g id="node4" class="node"><title>Node4</title>
<polygon fill="white" stroke="#bfbfbf" points="1470,-6.5 1470,-25.5 1616,-25.5 1616,-6.5 1470,-6.5"/>
<text text-anchor="middle" x="1543" y="-13.5" font-family="Helvetica,sans-Serif" font-size="10.00">mars/interfaces/MARSDefs.h</text>
</g>
<!-- Node1&#45;&gt;Node4 -->
<g id="edge24" class="edge"><title>Node1&#45;&gt;Node4</title>
<path fill="none" stroke="midnightblue" d="M1576.93,-180.416C1569.57,-144.96 1554.13,-70.5856 1546.89,-35.7503"/>
<polygon fill="midnightblue" stroke="midnightblue" points="1550.24,-34.6453 1544.78,-25.5658 1543.38,-36.0685 1550.24,-34.6453"/>
</g>
<!-- Node5 -->
<g id="node5" class="node"><title>Node5</title>
<polygon fill="white" stroke="#bfbfbf" points="1634.5,-6.5 1634.5,-25.5 1733.5,-25.5 1733.5,-6.5 1634.5,-6.5"/>
<text text-anchor="middle" x="1684" y="-13.5" font-family="Helvetica,sans-Serif" font-size="10.00">mars/utils/Vector.h</text>
</g>
<!-- Node1&#45;&gt;Node5 -->
<g id="edge25" class="edge"><title>Node1&#45;&gt;Node5</title>
<path fill="none" stroke="midnightblue" d="M1588.47,-180.459C1598.95,-154.015 1619.4,-105.799 1643,-68 1650.72,-55.6275 1661.01,-42.8373 1669.35,-33.1604"/>
<polygon fill="midnightblue" stroke="midnightblue" points="1672.08,-35.3626 1676.06,-25.5467 1666.83,-30.7335 1672.08,-35.3626"/>
</g>
<!-- Node9 -->
<g id="node9" class="node"><title>Node9</title>
<polygon fill="white" stroke="#bfbfbf" points="-0.5,-6.5 -0.5,-25.5 40.5,-25.5 40.5,-6.5 -0.5,-6.5"/>
<text text-anchor="middle" x="20" y="-13.5" font-family="Helvetica,sans-Serif" font-size="10.00">string</text>
</g>
<!-- Node1&#45;&gt;Node9 -->
<g id="edge27" class="edge"><title>Node1&#45;&gt;Node9</title>
<path fill="none" stroke="midnightblue" d="M1492.99,-197.664C1224.83,-189.817 421.099,-160.696 171,-88 123.515,-74.1976 72.217,-47.2333 43.3046,-30.7971"/>
<polygon fill="midnightblue" stroke="midnightblue" points="44.8071,-27.6233 34.3956,-25.6609 41.3109,-33.6877 44.8071,-27.6233"/>
</g>
<!-- Node10 -->
<g id="node10" class="node"><title>Node10</title>
<polygon fill="white" stroke="#bfbfbf" points="1752,-6.5 1752,-25.5 1796,-25.5 1796,-6.5 1752,-6.5"/>
<text text-anchor="middle" x="1774" y="-13.5" font-family="Helvetica,sans-Serif" font-size="10.00">vector</text>
</g>
<!-- Node1&#45;&gt;Node10 -->
<g id="edge28" class="edge"><title>Node1&#45;&gt;Node10</title>
<path fill="none" stroke="midnightblue" d="M1595.71,-180.364C1622.87,-144.141 1678.37,-70.2659 1681,-68 1691.84,-58.6416 1723.85,-41.8239 1747.3,-30.0686"/>
<polygon fill="midnightblue" stroke="midnightblue" points="1749.03,-33.1173 1756.42,-25.5307 1745.91,-26.8495 1749.03,-33.1173"/>
</g>
<!-- Node11 -->
<g id="node11" class="node"><title>Node11</title>
<polygon fill="white" stroke="#bfbfbf" points="58.5,-6.5 58.5,-25.5 87.5,-25.5 87.5,-6.5 58.5,-6.5"/>
<text text-anchor="middle" x="73" y="-13.5" font-family="Helvetica,sans-Serif" font-size="10.00">list</text>
</g>
<!-- Node1&#45;&gt;Node11 -->
<g id="edge29" class="edge"><title>Node1&#45;&gt;Node11</title>
<path fill="none" stroke="midnightblue" d="M1492.95,-198.292C1337.96,-193.091 1007.81,-172.143 744,-88 725.817,-82.2006 724.385,-73.123 706,-68 444.812,4.78147 355.312,-114.409 97,-32 95.7361,-31.5968 94.4718,-31.1118 93.2214,-30.5667"/>
<polygon fill="midnightblue" stroke="midnightblue" points="94.5892,-27.3246 84.14,-25.5738 91.2167,-33.4587 94.5892,-27.3246"/>
</g>
<!-- Node12 -->
<g id="node12" class="node"><title>Node12</title>
<polygon fill="white" stroke="#bfbfbf" points="1814.5,-6.5 1814.5,-25.5 1849.5,-25.5 1849.5,-6.5 1814.5,-6.5"/>
<text text-anchor="middle" x="1832" y="-13.5" font-family="Helvetica,sans-Serif" font-size="10.00">map</text>
</g>
<!-- Node1&#45;&gt;Node12 -->
<g id="edge30" class="edge"><title>Node1&#45;&gt;Node12</title>
<path fill="none" stroke="midnightblue" d="M1607.86,-180.416C1658.5,-143.496 1767.02,-64.3752 1811.92,-31.6417"/>
<polygon fill="midnightblue" stroke="midnightblue" points="1814.23,-34.2852 1820.25,-25.5658 1810.11,-28.629 1814.23,-34.2852"/>
</g>
<!-- Node22 -->
<g id="node22" class="node"><title>Node22</title>
<polygon fill="white" stroke="#bfbfbf" points="1722.5,-124.5 1722.5,-143.5 1871.5,-143.5 1871.5,-124.5 1722.5,-124.5"/>
<text text-anchor="middle" x="1797" y="-131.5" font-family="Helvetica,sans-Serif" font-size="10.00">mars/interfaces/terrainStruct.h</text>
</g>
<!-- Node1&#45;&gt;Node22 -->
<g id="edge26" class="edge"><title>Node1&#45;&gt;Node22</title>
<path fill="none" stroke="midnightblue" d="M1645.81,-180.498C1682.7,-169.396 1727.64,-155.872 1758.89,-146.468"/>
<polygon fill="midnightblue" stroke="midnightblue" points="1759.96,-149.8 1768.53,-143.567 1757.95,-143.097 1759.96,-149.8"/>
</g>
<!-- Node3 -->
<g id="node3" class="node"><title>Node3</title>
<g id="a_node3"><a xlink:href="../../d4/d4b/_draw_object_8h.html" target="_top" xlink:title="DrawObject.h">
<polygon fill="white" stroke="black" points="753.5,-68.5 753.5,-87.5 830.5,-87.5 830.5,-68.5 753.5,-68.5"/>
<text text-anchor="middle" x="792" y="-75.5" font-family="Helvetica,sans-Serif" font-size="10.00">DrawObject.h</text>
</a>
</g>
</g>
<!-- Node2&#45;&gt;Node3 -->
<g id="edge2" class="edge"><title>Node2&#45;&gt;Node3</title>
<path fill="none" stroke="midnightblue" d="M664.085,-124.444C689.545,-115.399 729.894,-101.064 758.459,-90.9158"/>
<polygon fill="midnightblue" stroke="midnightblue" points="759.777,-94.1622 768.028,-87.5164 757.433,-87.5661 759.777,-94.1622"/>
</g>
<!-- Node2&#45;&gt;Node5 -->
<g id="edge20" class="edge"><title>Node2&#45;&gt;Node5</title>
<path fill="none" stroke="midnightblue" d="M689.035,-130.525C833.406,-122.69 1269.13,-95.1309 1625,-32 1631.21,-30.8975 1637.74,-29.4932 1644.09,-27.9877"/>
<polygon fill="midnightblue" stroke="midnightblue" points="1645,-31.3688 1653.87,-25.5677 1643.32,-24.574 1645,-31.3688"/>
</g>
<!-- Node2&#45;&gt;Node9 -->
<g id="edge22" class="edge"><title>Node2&#45;&gt;Node9</title>
<path fill="none" stroke="midnightblue" d="M590.809,-129.958C487.755,-122.435 242.707,-98.489 49,-32 47.3413,-31.4307 45.6601,-30.7799 43.9858,-30.0756"/>
<polygon fill="midnightblue" stroke="midnightblue" points="45.215,-26.7847 34.6808,-25.6525 42.2098,-33.1068 45.215,-26.7847"/>
</g>
<!-- Node2&#45;&gt;Node11 -->
<g id="edge23" class="edge"><title>Node2&#45;&gt;Node11</title>
<path fill="none" stroke="midnightblue" d="M605.806,-124.412C551.753,-111.046 443.134,-85.036 350,-68 238.277,-47.5637 203.692,-70.9423 97,-32 95.9384,-31.6125 94.8738,-31.1736 93.8154,-30.6956"/>
<polygon fill="midnightblue" stroke="midnightblue" points="95.1482,-27.4338 84.7008,-25.6724 91.7695,-33.5644 95.1482,-27.4338"/>
</g>
<!-- Node21 -->
<g id="node21" class="node"><title>Node21</title>
<polygon fill="white" stroke="#bfbfbf" points="569,-68.5 569,-87.5 697,-87.5 697,-68.5 569,-68.5"/>
<text text-anchor="middle" x="633" y="-75.5" font-family="Helvetica,sans-Serif" font-size="10.00">configmaps/ConfigData.h</text>
</g>
<!-- Node2&#45;&gt;Node21 -->
<g id="edge21" class="edge"><title>Node2&#45;&gt;Node21</title>
<path fill="none" stroke="midnightblue" d="M638.844,-124.083C637.916,-116.927 636.582,-106.635 635.423,-97.6911"/>
<polygon fill="midnightblue" stroke="midnightblue" points="638.891,-97.2181 634.134,-87.7511 631.949,-98.1181 638.891,-97.2181"/>
</g>
<!-- Node3&#45;&gt;Node4 -->
<g id="edge3" class="edge"><title>Node3&#45;&gt;Node4</title>
<path fill="none" stroke="midnightblue" d="M830.61,-75.9392C933.456,-72.7819 1222.46,-61.7419 1461,-32 1470.91,-30.7645 1481.43,-29.1053 1491.52,-27.3405"/>
<polygon fill="midnightblue" stroke="midnightblue" points="1492.21,-30.7735 1501.43,-25.5524 1490.96,-23.8849 1492.21,-30.7735"/>
</g>
<!-- Node3&#45;&gt;Node5 -->
<g id="edge4" class="edge"><title>Node3&#45;&gt;Node5</title>
<path fill="none" stroke="midnightblue" d="M830.887,-77.5789C950.278,-78.7847 1321.84,-78.2734 1625,-32 1631.51,-31.0058 1638.35,-29.6062 1644.98,-28.0577"/>
<polygon fill="midnightblue" stroke="midnightblue" points="1646.26,-31.3451 1655.12,-25.5385 1644.57,-24.5513 1646.26,-31.3451"/>
</g>
<!-- Node6 -->
<g id="node6" class="node"><title>Node6</title>
<polygon fill="white" stroke="#bfbfbf" points="1038,-6.5 1038,-25.5 1156,-25.5 1156,-6.5 1038,-6.5"/>
<text text-anchor="middle" x="1097" y="-13.5" font-family="Helvetica,sans-Serif" font-size="10.00">mars/utils/Quaternion.h</text>
</g>
<!-- Node3&#45;&gt;Node6 -->
<g id="edge5" class="edge"><title>Node3&#45;&gt;Node6</title>
<path fill="none" stroke="midnightblue" d="M830.656,-70.0218C877.628,-61.4589 959.255,-46.3105 1029,-32 1035.6,-30.6449 1042.56,-29.1685 1049.4,-27.6878"/>
<polygon fill="midnightblue" stroke="midnightblue" points="1050.25,-31.0829 1059.28,-25.529 1048.76,-24.2443 1050.25,-31.0829"/>
</g>
<!-- Node7 -->
<g id="node7" class="node"><title>Node7</title>
<polygon fill="white" stroke="#bfbfbf" points="1174.5,-6.5 1174.5,-25.5 1311.5,-25.5 1311.5,-6.5 1174.5,-6.5"/>
<text text-anchor="middle" x="1243" y="-13.5" font-family="Helvetica,sans-Serif" font-size="10.00">mars/interfaces/LightData.h</text>
</g>
<!-- Node3&#45;&gt;Node7 -->
<g id="edge6" class="edge"><title>Node3&#45;&gt;Node7</title>
<path fill="none" stroke="midnightblue" d="M830.515,-73.2509C898.323,-66.4503 1043.36,-51.0096 1165,-32 1173.61,-30.6541 1182.73,-29.0583 1191.57,-27.4181"/>
<polygon fill="midnightblue" stroke="midnightblue" points="1192.22,-30.8566 1201.4,-25.5584 1190.92,-23.9786 1192.22,-30.8566"/>
</g>
<!-- Node8 -->
<g id="node8" class="node"><title>Node8</title>
<polygon fill="white" stroke="#bfbfbf" points="1330,-1 1330,-31 1452,-31 1452,-1 1330,-1"/>
<text text-anchor="start" x="1338" y="-19" font-family="Helvetica,sans-Serif" font-size="10.00">mars/interfaces/Material</text>
<text text-anchor="middle" x="1391" y="-8" font-family="Helvetica,sans-Serif" font-size="10.00">Data.h</text>
</g>
<!-- Node3&#45;&gt;Node8 -->
<g id="edge7" class="edge"><title>Node3&#45;&gt;Node8</title>
<path fill="none" stroke="midnightblue" d="M830.613,-75.3409C918.099,-71.2259 1137.98,-58.8801 1320,-32 1320.1,-31.985 1320.2,-31.97 1320.3,-31.955"/>
<polygon fill="midnightblue" stroke="midnightblue" points="1320.58,-35.4558 1329.9,-30.4085 1319.47,-28.545 1320.58,-35.4558"/>
</g>
<!-- Node3&#45;&gt;Node9 -->
<g id="edge8" class="edge"><title>Node3&#45;&gt;Node9</title>
<path fill="none" stroke="midnightblue" d="M753.079,-72.5144C738.346,-70.9248 721.414,-69.2281 706,-68 560.243,-56.387 190.075,-70.4432 49,-32 47.0312,-31.4635 45.0426,-30.7812 43.0788,-30.0049"/>
<polygon fill="midnightblue" stroke="midnightblue" points="44.2101,-26.6691 33.6717,-25.5773 41.2291,-33.0027 44.2101,-26.6691"/>
</g>
<!-- Node3&#45;&gt;Node10 -->
<g id="edge9" class="edge"><title>Node3&#45;&gt;Node10</title>
<path fill="none" stroke="midnightblue" d="M830.749,-77.1673C986.238,-77.5307 1565,-75.8469 1742,-32 1744.5,-31.3804 1747.04,-30.5603 1749.55,-29.6222"/>
<polygon fill="midnightblue" stroke="midnightblue" points="1751.05,-32.7865 1758.83,-25.5941 1748.26,-26.3653 1751.05,-32.7865"/>
</g>
<!-- Node3&#45;&gt;Node11 -->
<g id="edge10" class="edge"><title>Node3&#45;&gt;Node11</title>
<path fill="none" stroke="midnightblue" d="M753.284,-69.91C748.485,-69.1835 743.637,-68.5221 739,-68 597.006,-52.0138 233.197,-75.2235 97,-32 95.7355,-31.5987 94.4708,-31.1152 93.2199,-30.5713"/>
<polygon fill="midnightblue" stroke="midnightblue" points="94.5873,-27.3291 84.1375,-25.5818 91.2168,-33.4643 94.5873,-27.3291"/>
</g>
<!-- Node3&#45;&gt;Node12 -->
<g id="edge11" class="edge"><title>Node3&#45;&gt;Node12</title>
<path fill="none" stroke="midnightblue" d="M830.741,-76.295C1004.66,-72.9925 1708.98,-58.1057 1804,-32 1805.91,-31.4741 1807.84,-30.7994 1809.75,-30.0283"/>
<polygon fill="midnightblue" stroke="midnightblue" points="1811.38,-33.128 1818.84,-25.6103 1808.32,-26.8315 1811.38,-33.128"/>
</g>
<!-- Node13 -->
<g id="node13" class="node"><title>Node13</title>
<polygon fill="white" stroke="#bfbfbf" points="106,-6.5 106,-25.5 176,-25.5 176,-6.5 106,-6.5"/>
<text text-anchor="middle" x="141" y="-13.5" font-family="Helvetica,sans-Serif" font-size="10.00">osg/Material</text>
</g>
<!-- Node3&#45;&gt;Node13 -->
<g id="edge12" class="edge"><title>Node3&#45;&gt;Node13</title>
<path fill="none" stroke="midnightblue" d="M753.279,-69.95C748.481,-69.2167 743.635,-68.5427 739,-68 493.932,-39.3076 426.983,-80.227 185,-32 180.815,-31.1659 176.482,-30.0365 172.24,-28.7693"/>
<polygon fill="midnightblue" stroke="midnightblue" points="173.214,-25.4055 162.621,-25.6366 171.046,-32.0614 173.214,-25.4055"/>
</g>
<!-- Node14 -->
<g id="node14" class="node"><title>Node14</title>
<polygon fill="white" stroke="#bfbfbf" points="194,-6.5 194,-25.5 256,-25.5 256,-6.5 194,-6.5"/>
<text text-anchor="middle" x="225" y="-13.5" font-family="Helvetica,sans-Serif" font-size="10.00">osg/Group</text>
</g>
<!-- Node3&#45;&gt;Node14 -->
<g id="edge13" class="edge"><title>Node3&#45;&gt;Node14</title>
<path fill="none" stroke="midnightblue" d="M753.273,-69.9984C748.476,-69.2567 743.632,-68.5676 739,-68 528.855,-42.2502 470.548,-78.494 264,-32 260.57,-31.2278 257.04,-30.2104 253.572,-29.0682"/>
<polygon fill="midnightblue" stroke="midnightblue" points="254.689,-25.7499 244.095,-25.619 252.295,-32.3278 254.689,-25.7499"/>
</g>
<!-- Node15 -->
<g id="node15" class="node"><title>Node15</title>
<polygon fill="white" stroke="#bfbfbf" points="273.5,-6.5 273.5,-25.5 422.5,-25.5 422.5,-6.5 273.5,-6.5"/>
<text text-anchor="middle" x="348" y="-13.5" font-family="Helvetica,sans-Serif" font-size="10.00">osg/PositionAttitudeTransform</text>
</g>
<!-- Node3&#45;&gt;Node15 -->
<g id="edge14" class="edge"><title>Node3&#45;&gt;Node15</title>
<path fill="none" stroke="midnightblue" d="M753.249,-70.1813C748.456,-69.4083 743.619,-68.6617 739,-68 602.572,-48.4568 567.323,-52.265 431,-32 421.648,-30.6097 411.733,-28.9665 402.134,-27.2864"/>
<polygon fill="midnightblue" stroke="midnightblue" points="402.742,-23.8396 392.283,-25.5312 401.514,-30.731 402.742,-23.8396"/>
</g>
<!-- Node16 -->
<g id="node16" class="node"><title>Node16</title>
<polygon fill="white" stroke="#bfbfbf" points="440.5,-6.5 440.5,-25.5 547.5,-25.5 547.5,-6.5 440.5,-6.5"/>
<text text-anchor="middle" x="494" y="-13.5" font-family="Helvetica,sans-Serif" font-size="10.00">osg/MatrixTransform</text>
</g>
<!-- Node3&#45;&gt;Node16 -->
<g id="edge15" class="edge"><title>Node3&#45;&gt;Node16</title>
<path fill="none" stroke="midnightblue" d="M753.22,-70.1209C706.543,-61.7148 625.842,-46.779 557,-32 551.085,-30.7301 544.872,-29.3312 538.749,-27.9138"/>
<polygon fill="midnightblue" stroke="midnightblue" points="539.133,-24.4087 528.597,-25.5303 537.533,-31.2234 539.133,-24.4087"/>
</g>
<!-- Node17 -->
<g id="node17" class="node"><title>Node17</title>
<polygon fill="white" stroke="#bfbfbf" points="566,-6.5 566,-25.5 630,-25.5 630,-6.5 566,-6.5"/>
<text text-anchor="middle" x="598" y="-13.5" font-family="Helvetica,sans-Serif" font-size="10.00">osg/Geode</text>
</g>
<!-- Node3&#45;&gt;Node17 -->
<g id="edge16" class="edge"><title>Node3&#45;&gt;Node17</title>
<path fill="none" stroke="midnightblue" d="M760.756,-68.4496C729.706,-59.8024 680.811,-45.7809 639,-32 636.071,-31.0346 633.038,-29.9972 630.007,-28.935"/>
<polygon fill="midnightblue" stroke="midnightblue" points="631.06,-25.5945 620.465,-25.5158 628.698,-32.1842 631.06,-25.5945"/>
</g>
<!-- Node18 -->
<g id="node18" class="node"><title>Node18</title>
<polygon fill="white" stroke="#bfbfbf" points="648,-6.5 648,-25.5 704,-25.5 704,-6.5 648,-6.5"/>
<text text-anchor="middle" x="676" y="-13.5" font-family="Helvetica,sans-Serif" font-size="10.00">osg/LOD</text>
</g>
<!-- Node3&#45;&gt;Node18 -->
<g id="edge17" class="edge"><title>Node3&#45;&gt;Node18</title>
<path fill="none" stroke="midnightblue" d="M775.38,-68.4035C756.085,-58.4232 724.041,-41.8487 701.569,-30.2253"/>
<polygon fill="midnightblue" stroke="midnightblue" points="703.079,-27.0661 692.589,-25.5806 699.863,-33.2836 703.079,-27.0661"/>
</g>
<!-- Node19 -->
<g id="node19" class="node"><title>Node19</title>
<polygon fill="white" stroke="#bfbfbf" points="722,-1 722,-31 862,-31 862,-1 722,-1"/>
<text text-anchor="start" x="730" y="-19" font-family="Helvetica,sans-Serif" font-size="10.00">mars/osg_material_manager</text>
<text text-anchor="middle" x="792" y="-8" font-family="Helvetica,sans-Serif" font-size="10.00">/OsgMaterial.h</text>
</g>
<!-- Node3&#45;&gt;Node19 -->
<g id="edge18" class="edge"><title>Node3&#45;&gt;Node19</title>
<path fill="none" stroke="midnightblue" d="M792,-68.4035C792,-61.3405 792,-50.975 792,-41.399"/>
<polygon fill="midnightblue" stroke="midnightblue" points="795.5,-41.1408 792,-31.1408 788.5,-41.1408 795.5,-41.1408"/>
</g>
<!-- Node20 -->
<g id="node20" class="node"><title>Node20</title>
<polygon fill="white" stroke="#bfbfbf" points="880,-1 880,-31 1020,-31 1020,-1 880,-1"/>
<text text-anchor="start" x="888" y="-19" font-family="Helvetica,sans-Serif" font-size="10.00">mars/osg_material_manager</text>
<text text-anchor="middle" x="950" y="-8" font-family="Helvetica,sans-Serif" font-size="10.00">/MaterialNode.h</text>
</g>
<!-- Node3&#45;&gt;Node20 -->
<g id="edge19" class="edge"><title>Node3&#45;&gt;Node20</title>
<path fill="none" stroke="midnightblue" d="M814.638,-68.4035C837.713,-59.6406 874.175,-45.7942 903.446,-34.6789"/>
<polygon fill="midnightblue" stroke="midnightblue" points="904.961,-37.8475 913.067,-31.0253 902.475,-31.3035 904.961,-37.8475"/>
</g>
</g>
</svg>
