<?xml version="1.0" encoding="UTF-8" standalone="no"?>
<!DOCTYPE svg PUBLIC "-//W3C//DTD SVG 1.1//EN"
 "http://www.w3.org/Graphics/SVG/1.1/DTD/svg11.dtd">
<!-- Generated by graphviz version 2.26.3 (20100126.1600)
 -->
<!-- Title: mars::app::MARS Pages: 1 -->
<svg width="928pt" height="632pt"
 viewBox="0.00 0.00 928.00 632.00" xmlns="http://www.w3.org/2000/svg" xmlns:xlink="http://www.w3.org/1999/xlink">
<g id="graph1" class="graph" transform="scale(1 1) rotate(0) translate(4 628)">
<title>mars::app::MARS</title>
<polygon fill="white" stroke="white" points="-4,5 -4,-628 925,-628 925,5 -4,5"/>
<!-- Node1 -->
<g id="node1" class="node"><title>Node1</title>
<polygon fill="#bfbfbf" stroke="black" points="824.5,-508.5 824.5,-529.5 919.5,-529.5 919.5,-508.5 824.5,-508.5"/>
<text text-anchor="middle" x="872" y="-516.5" font-family="Helvetica,sans-Serif" font-size="10.00">mars::app::MARS</text>
</g>
<!-- Node2 -->
<g id="node2" class="node"><title>Node2</title>
<a xlink:href="../../d5/d1a/classmars_1_1interfaces_1_1_mars_gui_interface.html" target="_top" xlink:title="Sets up the main gui of the simulation and handles various generic gui options. ">
<polygon fill="white" stroke="black" points="442,-590 442,-624 572,-624 572,-590 442,-590"/>
<text text-anchor="start" x="450" y="-611" font-family="Helvetica,sans-Serif" font-size="10.00">mars::interfaces::MarsGui</text>
<text text-anchor="middle" x="507" y="-598" font-family="Helvetica,sans-Serif" font-size="10.00">Interface</text>
</a>
</g>
<!-- Node2&#45;&gt;Node1 -->
<g id="edge2" class="edge"><title>Node2&#45;&gt;Node1</title>
<path fill="none" stroke="#9a32cd" stroke-dasharray="5,2" d="M582.013,-598.015C643.285,-589.419 731.603,-574.139 806,-550 822.376,-544.687 839.98,-536.27 852.885,-529.546"/>
<polygon fill="#9a32cd" stroke="#9a32cd" points="581.467,-594.557 572.038,-599.389 582.422,-601.491 581.467,-594.557"/>
<text text-anchor="middle" x="655" y="-600" font-family="Helvetica,sans-Serif" font-size="10.00"> marsGui</text>
</g>
<!-- Node3 -->
<g id="node4" class="node"><title>Node3</title>
<polygon fill="white" stroke="#bfbfbf" points="47,-384.5 47,-405.5 115,-405.5 115,-384.5 47,-384.5"/>
<text text-anchor="middle" x="81" y="-392.5" font-family="Helvetica,sans-Serif" font-size="10.00">LibInterface</text>
</g>
<!-- Node3&#45;&gt;Node2 -->
<g id="edge4" class="edge"><title>Node3&#45;&gt;Node2</title>
<path fill="none" stroke="midnightblue" d="M92.4149,-414.47C117.843,-455.747 183.615,-551.492 268,-591 322.611,-616.568 392.033,-618.305 441.968,-615.005"/>
<polygon fill="midnightblue" stroke="midnightblue" points="95.2539,-412.401 87.0882,-405.65 89.2618,-416.019 95.2539,-412.401"/>
</g>
<!-- Node6 -->
<g id="node10" class="node"><title>Node6</title>
<a xlink:href="../../d1/d93/classmars_1_1interfaces_1_1_graphics_manager_interface.html" target="_top" xlink:title="mars::interfaces::Graphics\lManagerInterface">
<polygon fill="white" stroke="black" points="280,-456 280,-490 412,-490 412,-456 280,-456"/>
<text text-anchor="start" x="288" y="-477" font-family="Helvetica,sans-Serif" font-size="10.00">mars::interfaces::Graphics</text>
<text text-anchor="middle" x="346" y="-464" font-family="Helvetica,sans-Serif" font-size="10.00">ManagerInterface</text>
</a>
</g>
<!-- Node3&#45;&gt;Node6 -->
<g id="edge12" class="edge"><title>Node3&#45;&gt;Node6</title>
<path fill="none" stroke="midnightblue" d="M124.782,-407.887C169.41,-421.023 238.88,-441.47 288.047,-455.942"/>
<polygon fill="midnightblue" stroke="midnightblue" points="125.683,-404.504 115.102,-405.037 123.706,-411.219 125.683,-404.504"/>
</g>
<!-- Node13 -->
<g id="node26" class="node"><title>Node13</title>
<a xlink:href="../../d4/da6/classmars_1_1cfg__manager_1_1_c_f_g_manager_interface.html" target="_top" xlink:title="mars::cfg_manager::\lCFGManagerInterface">
<polygon fill="white" stroke="black" points="289.5,-92 289.5,-126 402.5,-126 402.5,-92 289.5,-92"/>
<text text-anchor="start" x="297.5" y="-113" font-family="Helvetica,sans-Serif" font-size="10.00">mars::cfg_manager::</text>
<text text-anchor="middle" x="346" y="-100" font-family="Helvetica,sans-Serif" font-size="10.00">CFGManagerInterface</text>
</a>
</g>
<!-- Node3&#45;&gt;Node13 -->
<g id="edge30" class="edge"><title>Node3&#45;&gt;Node13</title>
<path fill="none" stroke="midnightblue" d="M89.8631,-375.16C112.444,-326.833 176.864,-202.081 268,-135 274.438,-130.262 281.791,-126.352 289.352,-123.135"/>
<polygon fill="midnightblue" stroke="midnightblue" points="86.675,-373.715 85.685,-384.264 93.037,-376.635 86.675,-373.715"/>
</g>
<!-- Node14 -->
<g id="node29" class="node"><title>Node14</title>
<a xlink:href="../../d6/d2e/classmars_1_1data__broker_1_1_data_broker_interface.html" target="_top" xlink:title="The interface every DataBroker should implement. ">
<polygon fill="white" stroke="black" points="294,-248 294,-282 398,-282 398,-248 294,-248"/>
<text text-anchor="start" x="302" y="-269" font-family="Helvetica,sans-Serif" font-size="10.00">mars::data_broker::</text>
<text text-anchor="middle" x="346" y="-256" font-family="Helvetica,sans-Serif" font-size="10.00">DataBrokerInterface</text>
</a>
</g>
<!-- Node3&#45;&gt;Node14 -->
<g id="edge34" class="edge"><title>Node3&#45;&gt;Node14</title>
<path fill="none" stroke="midnightblue" d="M106.14,-379.031C141.337,-357.141 207.762,-317.515 268,-291 276.231,-287.377 285.134,-283.963 293.881,-280.874"/>
<polygon fill="midnightblue" stroke="midnightblue" points="104.098,-376.18 97.4789,-384.453 107.812,-382.113 104.098,-376.18"/>
</g>
<!-- Node4 -->
<g id="node6" class="node"><title>Node4</title>
<a xlink:href="../../d2/dd0/classmars_1_1app_1_1_graphics_timer.html" target="_top" xlink:title="mars::app::GraphicsTimer">
<polygon fill="white" stroke="black" points="590,-533.5 590,-554.5 720,-554.5 720,-533.5 590,-533.5"/>
<text text-anchor="middle" x="655" y="-541.5" font-family="Helvetica,sans-Serif" font-size="10.00">mars::app::GraphicsTimer</text>
</a>
</g>
<!-- Node4&#45;&gt;Node1 -->
<g id="edge6" class="edge"><title>Node4&#45;&gt;Node1</title>
<path fill="none" stroke="#9a32cd" stroke-dasharray="5,2" d="M730.083,-535.35C761.296,-531.754 796.599,-527.687 824.185,-524.509"/>
<polygon fill="#9a32cd" stroke="#9a32cd" points="729.641,-531.878 720.107,-536.499 730.442,-538.832 729.641,-531.878"/>
<text text-anchor="middle" x="772" y="-537" font-family="Helvetica,sans-Serif" font-size="10.00"> graphicsTimer</text>
</g>
<!-- Node5 -->
<g id="node8" class="node"><title>Node5</title>
<polygon fill="white" stroke="#bfbfbf" points="319.5,-560.5 319.5,-581.5 372.5,-581.5 372.5,-560.5 319.5,-560.5"/>
<text text-anchor="middle" x="346" y="-568.5" font-family="Helvetica,sans-Serif" font-size="10.00">QObject</text>
</g>
<!-- Node5&#45;&gt;Node4 -->
<g id="edge8" class="edge"><title>Node5&#45;&gt;Node4</title>
<path fill="none" stroke="midnightblue" d="M382.95,-569.079C427.751,-566.589 505.521,-561.752 572,-555 577.785,-554.412 583.788,-553.74 589.8,-553.023"/>
<polygon fill="midnightblue" stroke="midnightblue" points="382.627,-565.591 372.833,-569.632 383.01,-572.58 382.627,-565.591"/>
</g>
<!-- Node6&#45;&gt;Node4 -->
<g id="edge10" class="edge"><title>Node6&#45;&gt;Node4</title>
<path fill="none" stroke="#9a32cd" stroke-dasharray="5,2" d="M422.441,-464.235C478.248,-459.44 548.14,-457.267 572,-473 588.955,-484.18 575.746,-500.534 590,-515 597.892,-523.01 608.387,-528.989 618.637,-533.37"/>
<polygon fill="#9a32cd" stroke="#9a32cd" points="421.845,-460.775 412.199,-465.157 422.473,-467.746 421.845,-460.775"/>
<text text-anchor="middle" x="507" y="-477" font-family="Helvetica,sans-Serif" font-size="10.00"> graphics</text>
</g>
<!-- Node9 -->
<g id="node17" class="node"><title>Node9</title>
<a xlink:href="../../d7/d4e/classmars_1_1interfaces_1_1_control_center.html" target="_top" xlink:title="The declaration of the ControlCenter. ">
<polygon fill="white" stroke="black" points="592.5,-274 592.5,-308 717.5,-308 717.5,-274 592.5,-274"/>
<text text-anchor="start" x="600.5" y="-295" font-family="Helvetica,sans-Serif" font-size="10.00">mars::interfaces::Control</text>
<text text-anchor="middle" x="655" y="-282" font-family="Helvetica,sans-Serif" font-size="10.00">Center</text>
</a>
</g>
<!-- Node6&#45;&gt;Node9 -->
<g id="edge20" class="edge"><title>Node6&#45;&gt;Node9</title>
<path fill="none" stroke="#9a32cd" stroke-dasharray="5,2" d="M409.855,-453.064C420.553,-449.91 431.566,-446.777 442,-444 499.302,-428.751 523.127,-447.579 572,-414 611.068,-387.158 636.854,-335.359 648.268,-308.346"/>
<polygon fill="#9a32cd" stroke="#9a32cd" points="408.728,-449.747 400.144,-455.957 410.727,-456.456 408.728,-449.747"/>
<text text-anchor="middle" x="507" y="-448" font-family="Helvetica,sans-Serif" font-size="10.00"> graphics</text>
</g>
<!-- Node7 -->
<g id="node13" class="node"><title>Node7</title>
<a xlink:href="../../dc/de5/classmars_1_1interfaces_1_1_simulator_interface.html" target="_top" xlink:title="mars::interfaces::Simulator\lInterface">
<polygon fill="white" stroke="black" points="279,-508 279,-542 413,-542 413,-508 279,-508"/>
<text text-anchor="start" x="287" y="-529" font-family="Helvetica,sans-Serif" font-size="10.00">mars::interfaces::Simulator</text>
<text text-anchor="middle" x="346" y="-516" font-family="Helvetica,sans-Serif" font-size="10.00">Interface</text>
</a>
</g>
<!-- Node7&#45;&gt;Node4 -->
<g id="edge14" class="edge"><title>Node7&#45;&gt;Node4</title>
<path fill="none" stroke="#9a32cd" stroke-dasharray="5,2" d="M423.108,-529.741C474.482,-532.9 541.246,-537.005 589.936,-539.999"/>
<polygon fill="#9a32cd" stroke="#9a32cd" points="423.244,-526.243 413.048,-529.123 422.815,-533.23 423.244,-526.243"/>
<text text-anchor="middle" x="507" y="-542" font-family="Helvetica,sans-Serif" font-size="10.00"> sim</text>
</g>
<!-- Node7&#45;&gt;Node9 -->
<g id="edge48" class="edge"><title>Node7&#45;&gt;Node9</title>
<path fill="none" stroke="#9a32cd" stroke-dasharray="5,2" d="M423.102,-515.384C483.854,-507.198 560.227,-495.32 572,-486 629.84,-440.211 647.992,-346.532 653.144,-308.065"/>
<polygon fill="#9a32cd" stroke="#9a32cd" points="422.564,-511.924 413.115,-516.715 423.49,-518.863 422.564,-511.924"/>
<text text-anchor="middle" x="507" y="-516" font-family="Helvetica,sans-Serif" font-size="10.00"> sim</text>
</g>
<!-- Node8 -->
<g id="node15" class="node"><title>Node8</title>
<polygon fill="white" stroke="#bfbfbf" points="634.5,-484.5 634.5,-505.5 675.5,-505.5 675.5,-484.5 634.5,-484.5"/>
<text text-anchor="middle" x="655" y="-492.5" font-family="Helvetica,sans-Serif" font-size="10.00">string</text>
</g>
<!-- Node8&#45;&gt;Node1 -->
<g id="edge16" class="edge"><title>Node8&#45;&gt;Node1</title>
<path fill="none" stroke="#9a32cd" stroke-dasharray="5,2" d="M685.786,-492.276C716.485,-490.244 764.866,-488.898 806,-496 820.229,-498.457 835.491,-503.599 847.751,-508.4"/>
<polygon fill="#9a32cd" stroke="#9a32cd" points="685.424,-488.793 675.705,-493.011 685.933,-495.774 685.424,-488.793"/>
<text text-anchor="middle" x="772" y="-513" font-family="Helvetica,sans-Serif" font-size="10.00"> coreConfigFile</text>
<text text-anchor="middle" x="772" y="-500" font-family="Helvetica,sans-Serif" font-size="10.00">configDir</text>
</g>
<!-- Node9&#45;&gt;Node1 -->
<g id="edge18" class="edge"><title>Node9&#45;&gt;Node1</title>
<path fill="none" stroke="#9a32cd" stroke-dasharray="5,2" d="M678.327,-315.509C725.224,-364.784 829.24,-474.073 861.951,-508.441"/>
<polygon fill="#9a32cd" stroke="#9a32cd" points="680.74,-312.968 671.31,-308.137 675.669,-317.794 680.74,-312.968"/>
<text text-anchor="middle" x="772" y="-450" font-family="Helvetica,sans-Serif" font-size="10.00"> control</text>
</g>
<!-- Node10 -->
<g id="node20" class="node"><title>Node10</title>
<a xlink:href="../../d2/da9/classmars_1_1interfaces_1_1_controller_manager_interface.html" target="_top" xlink:title="&quot;ControllerManagerInterface&quot; declares the interfaces for all controller operations that are used for ...">
<polygon fill="white" stroke="black" points="278.5,-0 278.5,-34 413.5,-34 413.5,-0 278.5,-0"/>
<text text-anchor="start" x="286.5" y="-21" font-family="Helvetica,sans-Serif" font-size="10.00">mars::interfaces::Controller</text>
<text text-anchor="middle" x="346" y="-8" font-family="Helvetica,sans-Serif" font-size="10.00">ManagerInterface</text>
</a>
</g>
<!-- Node10&#45;&gt;Node9 -->
<g id="edge22" class="edge"><title>Node10&#45;&gt;Node9</title>
<path fill="none" stroke="#9a32cd" stroke-dasharray="5,2" d="M423.715,-4.27465C471.385,-0.913078 530.943,-5.25607 572,-38 610.309,-68.5523 642.089,-222.007 651.882,-273.855"/>
<polygon fill="#9a32cd" stroke="#9a32cd" points="423.411,-0.787736 413.735,-5.10147 423.989,-7.76384 423.411,-0.787736"/>
<text text-anchor="middle" x="507" y="-42" font-family="Helvetica,sans-Serif" font-size="10.00"> controllers</text>
</g>
<!-- Node11 -->
<g id="node22" class="node"><title>Node11</title>
<a xlink:href="../../d6/d60/classmars_1_1interfaces_1_1_joint_manager_interface.html" target="_top" xlink:title="Interface class for the node organization. ">
<polygon fill="white" stroke="black" points="270,-404 270,-438 422,-438 422,-404 270,-404"/>
<text text-anchor="start" x="278" y="-425" font-family="Helvetica,sans-Serif" font-size="10.00">mars::interfaces::JointManager</text>
<text text-anchor="middle" x="346" y="-412" font-family="Helvetica,sans-Serif" font-size="10.00">Interface</text>
</a>
</g>
<!-- Node11&#45;&gt;Node9 -->
<g id="edge24" class="edge"><title>Node11&#45;&gt;Node9</title>
<path fill="none" stroke="#9a32cd" stroke-dasharray="5,2" d="M432.093,-402.9C494.585,-389.672 568.748,-373.748 572,-372 601.437,-356.171 627.597,-326.812 642.353,-308.126"/>
<polygon fill="#9a32cd" stroke="#9a32cd" points="431.236,-399.504 422.177,-404.997 432.685,-406.352 431.236,-399.504"/>
<text text-anchor="middle" x="507" y="-405" font-family="Helvetica,sans-Serif" font-size="10.00"> joints</text>
</g>
<!-- Node12 -->
<g id="node24" class="node"><title>Node12</title>
<a xlink:href="../../df/d82/classmars_1_1interfaces_1_1_entity_manager_interface.html" target="_top" xlink:title="mars::interfaces::Entity\lManagerInterface">
<polygon fill="white" stroke="black" points="286.5,-352 286.5,-386 405.5,-386 405.5,-352 286.5,-352"/>
<text text-anchor="start" x="294.5" y="-373" font-family="Helvetica,sans-Serif" font-size="10.00">mars::interfaces::Entity</text>
<text text-anchor="middle" x="346" y="-360" font-family="Helvetica,sans-Serif" font-size="10.00">ManagerInterface</text>
</a>
</g>
<!-- Node12&#45;&gt;Node9 -->
<g id="edge26" class="edge"><title>Node12&#45;&gt;Node9</title>
<path fill="none" stroke="#9a32cd" stroke-dasharray="5,2" d="M415.813,-359.615C460.948,-352.597 520.64,-341.525 572,-326 587.868,-321.204 604.825,-314.379 619.249,-308.027"/>
<polygon fill="#9a32cd" stroke="#9a32cd" points="415.189,-356.169 405.832,-361.138 416.245,-363.089 415.189,-356.169"/>
<text text-anchor="middle" x="507" y="-359" font-family="Helvetica,sans-Serif" font-size="10.00"> entities</text>
</g>
<!-- Node13&#45;&gt;Node9 -->
<g id="edge28" class="edge"><title>Node13&#45;&gt;Node9</title>
<path fill="none" stroke="#9a32cd" stroke-dasharray="5,2" d="M412.537,-106.479C460.779,-107.84 525.453,-116.571 572,-149 616.516,-180.015 640.674,-243.212 650.171,-273.736"/>
<polygon fill="#9a32cd" stroke="#9a32cd" points="412.567,-102.979 402.504,-106.294 412.438,-109.978 412.567,-102.979"/>
<text text-anchor="middle" x="507" y="-153" font-family="Helvetica,sans-Serif" font-size="10.00"> cfg</text>
</g>
<!-- Node14&#45;&gt;Node9 -->
<g id="edge32" class="edge"><title>Node14&#45;&gt;Node9</title>
<path fill="none" stroke="#9a32cd" stroke-dasharray="5,2" d="M408.365,-262.083C453.925,-260.926 517.076,-261.35 572,-269 580.416,-270.172 589.199,-271.913 597.768,-273.911"/>
<polygon fill="#9a32cd" stroke="#9a32cd" points="408.236,-258.585 398.341,-262.37 408.437,-265.582 408.236,-258.585"/>
<text text-anchor="middle" x="507" y="-286" font-family="Helvetica,sans-Serif" font-size="10.00"> dataBroker</text>
<text text-anchor="middle" x="507" y="-273" font-family="Helvetica,sans-Serif" font-size="10.00">theDataBroker</text>
</g>
<!-- Node15 -->
<g id="node32" class="node"><title>Node15</title>
<a xlink:href="../../db/da9/classmars_1_1interfaces_1_1_sensor_manager_interface.html" target="_top" xlink:title="&quot;SensorManagerInterface&quot; declares the interfaces for all sensor operations that are used for the comm...">
<polygon fill="white" stroke="black" points="284,-300 284,-334 408,-334 408,-300 284,-300"/>
<text text-anchor="start" x="292" y="-321" font-family="Helvetica,sans-Serif" font-size="10.00">mars::interfaces::Sensor</text>
<text text-anchor="middle" x="346" y="-308" font-family="Helvetica,sans-Serif" font-size="10.00">ManagerInterface</text>
</a>
</g>
<!-- Node15&#45;&gt;Node9 -->
<g id="edge36" class="edge"><title>Node15&#45;&gt;Node9</title>
<path fill="none" stroke="#9a32cd" stroke-dasharray="5,2" d="M418.138,-310.93C470.971,-306.485 541.962,-300.511 592.411,-296.266"/>
<polygon fill="#9a32cd" stroke="#9a32cd" points="417.83,-307.444 408.159,-311.77 418.417,-314.419 417.83,-307.444"/>
<text text-anchor="middle" x="507" y="-313" font-family="Helvetica,sans-Serif" font-size="10.00"> sensors</text>
</g>
<!-- Node16 -->
<g id="node34" class="node"><title>Node16</title>
<a xlink:href="../../db/de9/classmars_1_1interfaces_1_1_motor_manager_interface.html" target="_top" xlink:title="&quot;MotorManagerInterface&quot; declares the interfaces for all motor operations that are used for the commun...">
<polygon fill="white" stroke="black" points="268.5,-144 268.5,-178 423.5,-178 423.5,-144 268.5,-144"/>
<text text-anchor="start" x="276.5" y="-165" font-family="Helvetica,sans-Serif" font-size="10.00">mars::interfaces::MotorManager</text>
<text text-anchor="middle" x="346" y="-152" font-family="Helvetica,sans-Serif" font-size="10.00">Interface</text>
</a>
</g>
<!-- Node16&#45;&gt;Node9 -->
<g id="edge38" class="edge"><title>Node16&#45;&gt;Node9</title>
<path fill="none" stroke="#9a32cd" stroke-dasharray="5,2" d="M433.573,-164.511C477.343,-169.347 529.823,-180.003 572,-203 603.345,-220.091 629.661,-253.289 643.805,-273.665"/>
<polygon fill="#9a32cd" stroke="#9a32cd" points="433.816,-161.017 423.512,-163.483 433.105,-167.981 433.816,-161.017"/>
<text text-anchor="middle" x="507" y="-207" font-family="Helvetica,sans-Serif" font-size="10.00"> motors</text>
</g>
<!-- Node17 -->
<g id="node36" class="node"><title>Node17</title>
<a xlink:href="../../d9/d6a/classmars_1_1interfaces_1_1_load_center.html" target="_top" xlink:title="mars::interfaces::LoadCenter">
<polygon fill="white" stroke="black" points="274.5,-52.5 274.5,-73.5 417.5,-73.5 417.5,-52.5 274.5,-52.5"/>
<text text-anchor="middle" x="346" y="-60.5" font-family="Helvetica,sans-Serif" font-size="10.00">mars::interfaces::LoadCenter</text>
</a>
</g>
<!-- Node17&#45;&gt;Node9 -->
<g id="edge40" class="edge"><title>Node17&#45;&gt;Node9</title>
<path fill="none" stroke="#9a32cd" stroke-dasharray="5,2" d="M427.685,-54.4802C474.329,-53.9257 531.417,-61.0435 572,-92 631.823,-137.633 648.872,-234.285 653.437,-273.71"/>
<polygon fill="#9a32cd" stroke="#9a32cd" points="427.51,-50.9832 417.596,-54.7198 427.677,-57.9813 427.51,-50.9832"/>
<text text-anchor="middle" x="507" y="-96" font-family="Helvetica,sans-Serif" font-size="10.00"> loadCenter</text>
</g>
<!-- Node18 -->
<g id="node38" class="node"><title>Node18</title>
<a xlink:href="../../d1/d51/classmars_1_1interfaces_1_1_load_heightmap_interface.html" target="_top" xlink:title="mars::interfaces::LoadHeightmap\lInterface">
<polygon fill="white" stroke="black" points="0.5,-72 0.5,-106 161.5,-106 161.5,-72 0.5,-72"/>
<text text-anchor="start" x="8.5" y="-93" font-family="Helvetica,sans-Serif" font-size="10.00">mars::interfaces::LoadHeightmap</text>
<text text-anchor="middle" x="81" y="-80" font-family="Helvetica,sans-Serif" font-size="10.00">Interface</text>
</a>
</g>
<!-- Node18&#45;&gt;Node17 -->
<g id="edge42" class="edge"><title>Node18&#45;&gt;Node17</title>
<path fill="none" stroke="#9a32cd" stroke-dasharray="5,2" d="M171.844,-80.087C205.335,-76.8011 242.778,-73.1274 274.339,-70.0309"/>
<polygon fill="#9a32cd" stroke="#9a32cd" points="171.198,-76.6334 161.588,-81.0932 171.882,-83.6 171.198,-76.6334"/>
<text text-anchor="middle" x="215" y="-84" font-family="Helvetica,sans-Serif" font-size="10.00"> loadHeightmap</text>
</g>
<!-- Node19 -->
<g id="node40" class="node"><title>Node19</title>
<a xlink:href="../../d7/d02/classmars_1_1interfaces_1_1_load_mesh_interface.html" target="_top" xlink:title="mars::interfaces::LoadMesh\lInterface">
<polygon fill="white" stroke="black" points="12,-20 12,-54 150,-54 150,-20 12,-20"/>
<text text-anchor="start" x="20" y="-41" font-family="Helvetica,sans-Serif" font-size="10.00">mars::interfaces::LoadMesh</text>
<text text-anchor="middle" x="81" y="-28" font-family="Helvetica,sans-Serif" font-size="10.00">Interface</text>
</a>
</g>
<!-- Node19&#45;&gt;Node17 -->
<g id="edge44" class="edge"><title>Node19&#45;&gt;Node17</title>
<path fill="none" stroke="#9a32cd" stroke-dasharray="5,2" d="M160.315,-44.7819C196.535,-48.3356 239.113,-52.5129 274.353,-55.9705"/>
<polygon fill="#9a32cd" stroke="#9a32cd" points="160.573,-41.2905 150.279,-43.7972 159.89,-48.257 160.573,-41.2905"/>
<text text-anchor="middle" x="215" y="-58" font-family="Helvetica,sans-Serif" font-size="10.00"> loadMesh</text>
</g>
<!-- Node20 -->
<g id="node42" class="node"><title>Node20</title>
<a xlink:href="../../d7/d4c/classmars_1_1interfaces_1_1_node_manager_interface.html" target="_top" xlink:title="&quot;NodeManagerInterface&quot; declares the interfaces for all NodeOperations that are used for the communica...">
<polygon fill="white" stroke="black" points="269,-196 269,-230 423,-230 423,-196 269,-196"/>
<text text-anchor="start" x="277" y="-217" font-family="Helvetica,sans-Serif" font-size="10.00">mars::interfaces::NodeManager</text>
<text text-anchor="middle" x="346" y="-204" font-family="Helvetica,sans-Serif" font-size="10.00">Interface</text>
</a>
</g>
<!-- Node20&#45;&gt;Node9 -->
<g id="edge46" class="edge"><title>Node20&#45;&gt;Node9</title>
<path fill="none" stroke="#9a32cd" stroke-dasharray="5,2" d="M433.273,-217.889C475.948,-222.146 527.562,-230.108 572,-245 592.62,-251.91 614.042,-263.924 629.958,-273.942"/>
<polygon fill="#9a32cd" stroke="#9a32cd" points="433.475,-214.393 423.19,-216.935 432.816,-221.361 433.475,-214.393"/>
<text text-anchor="middle" x="507" y="-249" font-family="Helvetica,sans-Serif" font-size="10.00"> nodes</text>
</g>
</g>
</svg>
