<?xml version="1.0" encoding="UTF-8" standalone="no"?>
<!DOCTYPE svg PUBLIC "-//W3C//DTD SVG 1.1//EN"
 "http://www.w3.org/Graphics/SVG/1.1/DTD/svg11.dtd">
<!-- Generated by graphviz version 2.26.3 (20100126.1600)
 -->
<!-- Title: /home/kavonszadkowski/limes&#45;dev/simulation/mars/plugins/mars_plugin_collection/cave_movie_control/src/MySock.cpp Pages: 1 -->
<svg width="704pt" height="198pt"
 viewBox="0.00 0.00 704.00 198.00" xmlns="http://www.w3.org/2000/svg" xmlns:xlink="http://www.w3.org/1999/xlink">
<g id="graph1" class="graph" transform="scale(1 1) rotate(0) translate(4 194)">
<title>/home/kavonszadkowski/limes&#45;dev/simulation/mars/plugins/mars_plugin_collection/cave_movie_control/src/MySock.cpp</title>
<polygon fill="white" stroke="white" points="-4,5 -4,-194 701,-194 701,5 -4,5"/>
<!-- Node1 -->
<g id="node1" class="node"><title>Node1</title>
<polygon fill="#bfbfbf" stroke="black" points="344.5,-116.5 344.5,-189.5 497.5,-189.5 497.5,-116.5 344.5,-116.5"/>
<text text-anchor="start" x="352.5" y="-176.5" font-family="Helvetica,sans-Serif" font-size="10.00">/home/kavonszadkowski</text>
<text text-anchor="start" x="352.5" y="-163.5" font-family="Helvetica,sans-Serif" font-size="10.00">/limes&#45;dev/simulation</text>
<text text-anchor="start" x="352.5" y="-150.5" font-family="Helvetica,sans-Serif" font-size="10.00">/mars/plugins/mars_plugin</text>
<text text-anchor="start" x="352.5" y="-137.5" font-family="Helvetica,sans-Serif" font-size="10.00">_collection/cave_movie_control</text>
<text text-anchor="middle" x="421" y="-124.5" font-family="Helvetica,sans-Serif" font-size="10.00">/src/MySock.cpp</text>
</g>
<!-- Node2 -->
<g id="node3" class="node"><title>Node2</title>
<a xlink:href="../../db/d17/cave__movie__control_2src_2_my_sock_8h.html" target="_top" xlink:title="MySock.h">
<polygon fill="white" stroke="black" points="349.5,-58.5 349.5,-79.5 410.5,-79.5 410.5,-58.5 349.5,-58.5"/>
<text text-anchor="middle" x="380" y="-66.5" font-family="Helvetica,sans-Serif" font-size="10.00">MySock.h</text>
</a>
</g>
<!-- Node1&#45;&gt;Node2 -->
<g id="edge2" class="edge"><title>Node1&#45;&gt;Node2</title>
<path fill="none" stroke="midnightblue" d="M403.136,-116.401C398.534,-106.971 393.751,-97.1725 389.737,-88.9483"/>
<polygon fill="midnightblue" stroke="midnightblue" points="392.817,-87.2797 385.285,-79.8283 386.526,-90.3502 392.817,-87.2797"/>
</g>
<!-- Node13 -->
<g id="node25" class="node"><title>Node13</title>
<polygon fill="white" stroke="#bfbfbf" points="427.5,-58.5 427.5,-79.5 498.5,-79.5 498.5,-58.5 427.5,-58.5"/>
<text text-anchor="middle" x="463" y="-66.5" font-family="Helvetica,sans-Serif" font-size="10.00">netinet/tcp.h</text>
</g>
<!-- Node1&#45;&gt;Node13 -->
<g id="edge24" class="edge"><title>Node1&#45;&gt;Node13</title>
<path fill="none" stroke="midnightblue" d="M439.3,-116.401C444.014,-106.971 448.914,-97.1725 453.026,-88.9483"/>
<polygon fill="midnightblue" stroke="midnightblue" points="456.244,-90.3379 457.586,-79.8283 449.983,-87.2073 456.244,-90.3379"/>
</g>
<!-- Node3 -->
<g id="node5" class="node"><title>Node3</title>
<polygon fill="white" stroke="#bfbfbf" points="0,-0.5 0,-21.5 46,-21.5 46,-0.5 0,-0.5"/>
<text text-anchor="middle" x="23" y="-8.5" font-family="Helvetica,sans-Serif" font-size="10.00">dlfcn.h</text>
</g>
<!-- Node2&#45;&gt;Node3 -->
<g id="edge4" class="edge"><title>Node2&#45;&gt;Node3</title>
<path fill="none" stroke="midnightblue" d="M349.167,-66.4821C292.655,-61.4531 168.676,-48.4998 56.0826,-21.9221"/>
<polygon fill="midnightblue" stroke="midnightblue" points="56.8098,-18.4973 46.2688,-19.5634 55.1739,-25.3035 56.8098,-18.4973"/>
</g>
<!-- Node4 -->
<g id="node7" class="node"><title>Node4</title>
<polygon fill="white" stroke="#bfbfbf" points="64,-0.5 64,-21.5 132,-21.5 132,-0.5 64,-0.5"/>
<text text-anchor="middle" x="98" y="-8.5" font-family="Helvetica,sans-Serif" font-size="10.00">sys/types.h</text>
</g>
<!-- Node2&#45;&gt;Node4 -->
<g id="edge6" class="edge"><title>Node2&#45;&gt;Node4</title>
<path fill="none" stroke="midnightblue" d="M349.325,-63.5386C305.511,-55.6141 222.283,-40.1029 141.999,-22.1424"/>
<polygon fill="midnightblue" stroke="midnightblue" points="142.75,-18.7241 132.226,-19.9403 141.212,-25.5529 142.75,-18.7241"/>
</g>
<!-- Node5 -->
<g id="node9" class="node"><title>Node5</title>
<polygon fill="white" stroke="#bfbfbf" points="149.5,-0.5 149.5,-21.5 222.5,-21.5 222.5,-0.5 149.5,-0.5"/>
<text text-anchor="middle" x="186" y="-8.5" font-family="Helvetica,sans-Serif" font-size="10.00">sys/socket.h</text>
</g>
<!-- Node2&#45;&gt;Node5 -->
<g id="edge8" class="edge"><title>Node2&#45;&gt;Node5</title>
<path fill="none" stroke="midnightblue" d="M349.26,-59.8097C317.423,-50.2914 267.344,-35.3194 231.041,-24.4658"/>
<polygon fill="midnightblue" stroke="midnightblue" points="231.777,-21.0329 221.193,-21.5217 229.772,-27.7396 231.777,-21.0329"/>
</g>
<!-- Node6 -->
<g id="node11" class="node"><title>Node6</title>
<polygon fill="white" stroke="#bfbfbf" points="239.5,-0.5 239.5,-21.5 304.5,-21.5 304.5,-0.5 239.5,-0.5"/>
<text text-anchor="middle" x="272" y="-8.5" font-family="Helvetica,sans-Serif" font-size="10.00">netinet/in.h</text>
</g>
<!-- Node2&#45;&gt;Node6 -->
<g id="edge10" class="edge"><title>Node2&#45;&gt;Node6</title>
<path fill="none" stroke="midnightblue" d="M360.442,-58.4966C343.802,-49.5602 319.673,-36.602 300.82,-26.4772"/>
<polygon fill="midnightblue" stroke="midnightblue" points="302.243,-23.2691 291.777,-21.6212 298.931,-29.436 302.243,-23.2691"/>
</g>
<!-- Node7 -->
<g id="node13" class="node"><title>Node7</title>
<polygon fill="white" stroke="#bfbfbf" points="321.5,-0.5 321.5,-21.5 372.5,-21.5 372.5,-0.5 321.5,-0.5"/>
<text text-anchor="middle" x="347" y="-8.5" font-family="Helvetica,sans-Serif" font-size="10.00">unistd.h</text>
</g>
<!-- Node2&#45;&gt;Node7 -->
<g id="edge12" class="edge"><title>Node2&#45;&gt;Node7</title>
<path fill="none" stroke="midnightblue" d="M373.947,-58.3619C369.528,-50.5949 363.41,-39.8426 358.121,-30.5458"/>
<polygon fill="midnightblue" stroke="midnightblue" points="361.002,-28.5315 353.014,-21.5707 354.918,-31.9932 361.002,-28.5315"/>
</g>
<!-- Node8 -->
<g id="node15" class="node"><title>Node8</title>
<polygon fill="white" stroke="#bfbfbf" points="389.5,-0.5 389.5,-21.5 438.5,-21.5 438.5,-0.5 389.5,-0.5"/>
<text text-anchor="middle" x="414" y="-8.5" font-family="Helvetica,sans-Serif" font-size="10.00">netdb.h</text>
</g>
<!-- Node2&#45;&gt;Node8 -->
<g id="edge14" class="edge"><title>Node2&#45;&gt;Node8</title>
<path fill="none" stroke="midnightblue" d="M386.236,-58.3619C390.837,-50.5131 397.225,-39.6159 402.714,-30.2527"/>
<polygon fill="midnightblue" stroke="midnightblue" points="405.766,-31.9677 407.803,-21.5707 399.727,-28.4276 405.766,-31.9677"/>
</g>
<!-- Node9 -->
<g id="node17" class="node"><title>Node9</title>
<polygon fill="white" stroke="#bfbfbf" points="456,-0.5 456,-21.5 500,-21.5 500,-0.5 456,-0.5"/>
<text text-anchor="middle" x="478" y="-8.5" font-family="Helvetica,sans-Serif" font-size="10.00">fcntl.h</text>
</g>
<!-- Node2&#45;&gt;Node9 -->
<g id="edge16" class="edge"><title>Node2&#45;&gt;Node9</title>
<path fill="none" stroke="midnightblue" d="M397.975,-58.3619C412.894,-49.532 434.333,-36.844 451.266,-26.8224"/>
<polygon fill="midnightblue" stroke="midnightblue" points="453.316,-29.6759 460.139,-21.5707 449.751,-23.6519 453.316,-29.6759"/>
</g>
<!-- Node10 -->
<g id="node19" class="node"><title>Node10</title>
<polygon fill="white" stroke="#bfbfbf" points="517.5,-0.5 517.5,-21.5 566.5,-21.5 566.5,-0.5 517.5,-0.5"/>
<text text-anchor="middle" x="542" y="-8.5" font-family="Helvetica,sans-Serif" font-size="10.00">string.h</text>
</g>
<!-- Node2&#45;&gt;Node10 -->
<g id="edge18" class="edge"><title>Node2&#45;&gt;Node10</title>
<path fill="none" stroke="midnightblue" d="M409.337,-58.4966C436.987,-48.5973 478.421,-33.7628 507.612,-23.3117"/>
<polygon fill="midnightblue" stroke="midnightblue" points="509.149,-26.4791 517.384,-19.8131 506.789,-19.8888 509.149,-26.4791"/>
</g>
<!-- Node11 -->
<g id="node21" class="node"><title>Node11</title>
<polygon fill="white" stroke="#bfbfbf" points="584,-0.5 584,-21.5 632,-21.5 632,-0.5 584,-0.5"/>
<text text-anchor="middle" x="608" y="-8.5" font-family="Helvetica,sans-Serif" font-size="10.00">stdlib.h</text>
</g>
<!-- Node2&#45;&gt;Node11 -->
<g id="edge20" class="edge"><title>Node2&#45;&gt;Node11</title>
<path fill="none" stroke="midnightblue" d="M410.619,-60.2136C413.448,-59.4473 416.274,-58.6985 419,-58 484.967,-41.0959 504.815,-41.2263 574.268,-22.0231"/>
<polygon fill="midnightblue" stroke="midnightblue" points="575.246,-25.3839 583.931,-19.3164 573.358,-18.6433 575.246,-25.3839"/>
</g>
<!-- Node12 -->
<g id="node23" class="node"><title>Node12</title>
<polygon fill="white" stroke="#bfbfbf" points="650,-0.5 650,-21.5 696,-21.5 696,-0.5 650,-0.5"/>
<text text-anchor="middle" x="673" y="-8.5" font-family="Helvetica,sans-Serif" font-size="10.00">stdio.h</text>
</g>
<!-- Node2&#45;&gt;Node12 -->
<g id="edge22" class="edge"><title>Node2&#45;&gt;Node12</title>
<path fill="none" stroke="midnightblue" d="M410.573,-60.0206C413.411,-59.2948 416.253,-58.6082 419,-58 513.448,-37.094 542.209,-45.7272 639.742,-21.9965"/>
<polygon fill="midnightblue" stroke="midnightblue" points="640.859,-25.3254 649.72,-19.5159 639.17,-18.5322 640.859,-25.3254"/>
</g>
</g>
</svg>
