<?xml version="1.0" encoding="UTF-8" standalone="no"?>
<!DOCTYPE svg PUBLIC "-//W3C//DTD SVG 1.1//EN"
 "http://www.w3.org/Graphics/SVG/1.1/DTD/svg11.dtd">
<!-- Generated by graphviz version 2.36.0 (20140111.2315)
 -->
<!-- Title: /media/kavonszadkowski/work/marsdocs/mars/common/gui/data_broker_gui/src/DataWidget.cpp Pages: 1 -->
<svg width="1166pt" height="198pt"
 viewBox="0.00 0.00 1166.00 198.00" xmlns="http://www.w3.org/2000/svg" xmlns:xlink="http://www.w3.org/1999/xlink">
<g id="graph0" class="graph" transform="scale(1 1) rotate(0) translate(4 194)">
<title>/media/kavonszadkowski/work/marsdocs/mars/common/gui/data_broker_gui/src/DataWidget.cpp</title>
<polygon fill="white" stroke="none" points="-4,4 -4,-194 1162,-194 1162,4 -4,4"/>
<!-- Node1 -->
<g id="node1" class="node"><title>Node1</title>
<polygon fill="#bfbfbf" stroke="black" points="909,-137 909,-189 1061,-189 1061,-137 909,-137"/>
<text text-anchor="start" x="917" y="-177" font-family="Helvetica,sans-Serif" font-size="10.00">/media/kavonszadkowski</text>
<text text-anchor="start" x="917" y="-166" font-family="Helvetica,sans-Serif" font-size="10.00">/work/marsdocs/mars/common</text>
<text text-anchor="start" x="917" y="-155" font-family="Helvetica,sans-Serif" font-size="10.00">/gui/data_broker_gui/src</text>
<text text-anchor="middle" x="985" y="-144" font-family="Helvetica,sans-Serif" font-size="10.00">/DataWidget.cpp</text>
</g>
<!-- Node2 -->
<g id="node2" class="node"><title>Node2</title>
<g id="a_node2"><a xlink:href="../../d1/da4/data__broker__gui_2src_2_data_widget_8h.html" target="_top" xlink:title="DataWidget.h">
<polygon fill="white" stroke="black" points="753.5,-74.5 753.5,-93.5 830.5,-93.5 830.5,-74.5 753.5,-74.5"/>
<text text-anchor="middle" x="792" y="-81.5" font-family="Helvetica,sans-Serif" font-size="10.00">DataWidget.h</text>
</a>
</g>
</g>
<!-- Node1&#45;&gt;Node2 -->
<g id="edge1" class="edge"><title>Node1&#45;&gt;Node2</title>
<path fill="none" stroke="midnightblue" d="M922.072,-136.894C888.908,-123.663 849.7,-108.02 823.066,-97.3942"/>
<polygon fill="midnightblue" stroke="midnightblue" points="824.097,-94.0375 813.512,-93.5826 821.503,-100.539 824.097,-94.0375"/>
</g>
<!-- Node13 -->
<g id="node13" class="node"><title>Node13</title>
<polygon fill="white" stroke="#bfbfbf" points="848.5,-69 848.5,-99 993.5,-99 993.5,-69 848.5,-69"/>
<text text-anchor="start" x="856.5" y="-87" font-family="Helvetica,sans-Serif" font-size="10.00">mars/data_broker/DataBroker</text>
<text text-anchor="middle" x="921" y="-76" font-family="Helvetica,sans-Serif" font-size="10.00">Interface.h</text>
</g>
<!-- Node1&#45;&gt;Node13 -->
<g id="edge12" class="edge"><title>Node1&#45;&gt;Node13</title>
<path fill="none" stroke="midnightblue" d="M964.044,-136.787C956.036,-127.153 946.977,-116.254 939.242,-106.948"/>
<polygon fill="midnightblue" stroke="midnightblue" points="941.93,-104.705 932.846,-99.252 936.546,-109.18 941.93,-104.705"/>
</g>
<!-- Node14 -->
<g id="node14" class="node"><title>Node14</title>
<polygon fill="white" stroke="#bfbfbf" points="1011.5,-74.5 1011.5,-93.5 1088.5,-93.5 1088.5,-74.5 1011.5,-74.5"/>
<text text-anchor="middle" x="1050" y="-81.5" font-family="Helvetica,sans-Serif" font-size="10.00">QVBoxLayout</text>
</g>
<!-- Node1&#45;&gt;Node14 -->
<g id="edge13" class="edge"><title>Node1&#45;&gt;Node14</title>
<path fill="none" stroke="midnightblue" d="M1006.28,-136.787C1016.12,-125.137 1027.51,-111.636 1036.21,-101.341"/>
<polygon fill="midnightblue" stroke="midnightblue" points="1039,-103.457 1042.78,-93.5577 1033.65,-98.9414 1039,-103.457"/>
</g>
<!-- Node15 -->
<g id="node15" class="node"><title>Node15</title>
<polygon fill="white" stroke="#bfbfbf" points="1106.5,-74.5 1106.5,-93.5 1155.5,-93.5 1155.5,-74.5 1106.5,-74.5"/>
<text text-anchor="middle" x="1131" y="-81.5" font-family="Helvetica,sans-Serif" font-size="10.00">cassert</text>
</g>
<!-- Node1&#45;&gt;Node15 -->
<g id="edge14" class="edge"><title>Node1&#45;&gt;Node15</title>
<path fill="none" stroke="midnightblue" d="M1032.81,-136.787C1057.11,-123.972 1085.65,-108.918 1105.68,-98.3535"/>
<polygon fill="midnightblue" stroke="midnightblue" points="1107.56,-101.319 1114.77,-93.5577 1104.3,-95.1269 1107.56,-101.319"/>
</g>
<!-- Node3 -->
<g id="node3" class="node"><title>Node3</title>
<polygon fill="white" stroke="#bfbfbf" points="0,-6.5 0,-25.5 156,-25.5 156,-6.5 0,-6.5"/>
<text text-anchor="middle" x="78" y="-13.5" font-family="Helvetica,sans-Serif" font-size="10.00">mars/main_gui/PropertyDialog.h</text>
</g>
<!-- Node2&#45;&gt;Node3 -->
<g id="edge2" class="edge"><title>Node2&#45;&gt;Node3</title>
<path fill="none" stroke="midnightblue" d="M753.348,-81.0638C654.908,-75.8708 386.844,-60.0895 165,-32 154.629,-30.6869 143.609,-29.0088 133.022,-27.2533"/>
<polygon fill="midnightblue" stroke="midnightblue" points="133.485,-23.7818 123.039,-25.556 132.311,-30.6828 133.485,-23.7818"/>
</g>
<!-- Node4 -->
<g id="node4" class="node"><title>Node4</title>
<polygon fill="white" stroke="#bfbfbf" points="174.5,-6.5 174.5,-25.5 319.5,-25.5 319.5,-6.5 174.5,-6.5"/>
<text text-anchor="middle" x="247" y="-13.5" font-family="Helvetica,sans-Serif" font-size="10.00">mars/main_gui/BaseWidget.h</text>
</g>
<!-- Node2&#45;&gt;Node4 -->
<g id="edge3" class="edge"><title>Node2&#45;&gt;Node4</title>
<path fill="none" stroke="midnightblue" d="M753.467,-79.6911C673.917,-72.6541 485.831,-54.9521 329,-32 319.746,-30.6457 309.938,-29.0192 300.447,-27.3443"/>
<polygon fill="midnightblue" stroke="midnightblue" points="300.774,-23.8471 290.312,-25.5185 299.533,-30.7362 300.774,-23.8471"/>
</g>
<!-- Node5 -->
<g id="node5" class="node"><title>Node5</title>
<polygon fill="white" stroke="#bfbfbf" points="338,-1 338,-31 472,-31 472,-1 338,-1"/>
<text text-anchor="start" x="346" y="-19" font-family="Helvetica,sans-Serif" font-size="10.00">mars/data_broker/Receiver</text>
<text text-anchor="middle" x="405" y="-8" font-family="Helvetica,sans-Serif" font-size="10.00">Interface.h</text>
</g>
<!-- Node2&#45;&gt;Node5 -->
<g id="edge4" class="edge"><title>Node2&#45;&gt;Node5</title>
<path fill="none" stroke="midnightblue" d="M753.143,-77.0412C696.048,-68.195 585.887,-50.7841 482.133,-32.173"/>
<polygon fill="midnightblue" stroke="midnightblue" points="482.577,-28.6966 472.114,-30.3684 481.336,-35.5858 482.577,-28.6966"/>
</g>
<!-- Node6 -->
<g id="node6" class="node"><title>Node6</title>
<polygon fill="white" stroke="#bfbfbf" points="490.5,-6.5 490.5,-25.5 631.5,-25.5 631.5,-6.5 490.5,-6.5"/>
<text text-anchor="middle" x="561" y="-13.5" font-family="Helvetica,sans-Serif" font-size="10.00">mars/data_broker/DataInfo.h</text>
</g>
<!-- Node2&#45;&gt;Node6 -->
<g id="edge5" class="edge"><title>Node2&#45;&gt;Node6</title>
<path fill="none" stroke="midnightblue" d="M761.801,-74.3717C720.529,-62.5797 646.425,-41.4071 600.701,-28.3432"/>
<polygon fill="midnightblue" stroke="midnightblue" points="601.417,-24.9078 590.841,-25.5259 599.494,-31.6385 601.417,-24.9078"/>
</g>
<!-- Node7 -->
<g id="node7" class="node"><title>Node7</title>
<polygon fill="white" stroke="#bfbfbf" points="649.5,-6.5 649.5,-25.5 812.5,-25.5 812.5,-6.5 649.5,-6.5"/>
<text text-anchor="middle" x="731" y="-13.5" font-family="Helvetica,sans-Serif" font-size="10.00">mars/data_broker/DataPackage.h</text>
</g>
<!-- Node2&#45;&gt;Node7 -->
<g id="edge6" class="edge"><title>Node2&#45;&gt;Node7</title>
<path fill="none" stroke="midnightblue" d="M784.025,-74.3717C774.398,-63.9547 758.004,-46.2173 745.988,-33.2162"/>
<polygon fill="midnightblue" stroke="midnightblue" points="748.529,-30.8093 739.171,-25.8411 743.388,-35.5605 748.529,-30.8093"/>
</g>
<!-- Node8 -->
<g id="node8" class="node"><title>Node8</title>
<polygon fill="white" stroke="#bfbfbf" points="831,-6.5 831,-25.5 875,-25.5 875,-6.5 831,-6.5"/>
<text text-anchor="middle" x="853" y="-13.5" font-family="Helvetica,sans-Serif" font-size="10.00">vector</text>
</g>
<!-- Node2&#45;&gt;Node8 -->
<g id="edge7" class="edge"><title>Node2&#45;&gt;Node8</title>
<path fill="none" stroke="midnightblue" d="M799.975,-74.3717C809.602,-63.9547 825.996,-46.2173 838.012,-33.2162"/>
<polygon fill="midnightblue" stroke="midnightblue" points="840.612,-35.5605 844.829,-25.8411 835.471,-30.8093 840.612,-35.5605"/>
</g>
<!-- Node9 -->
<g id="node9" class="node"><title>Node9</title>
<polygon fill="white" stroke="#bfbfbf" points="893,-6.5 893,-25.5 923,-25.5 923,-6.5 893,-6.5"/>
<text text-anchor="middle" x="908" y="-13.5" font-family="Helvetica,sans-Serif" font-size="10.00">set</text>
</g>
<!-- Node2&#45;&gt;Node9 -->
<g id="edge8" class="edge"><title>Node2&#45;&gt;Node9</title>
<path fill="none" stroke="midnightblue" d="M807.536,-74.4757C825.716,-64.4593 856.681,-47.2661 883,-32 883.657,-31.6191 884.322,-31.2312 884.994,-30.8387"/>
<polygon fill="midnightblue" stroke="midnightblue" points="886.947,-33.7496 893.765,-25.6401 883.378,-27.7278 886.947,-33.7496"/>
</g>
<!-- Node10 -->
<g id="node10" class="node"><title>Node10</title>
<polygon fill="white" stroke="#bfbfbf" points="941.5,-6.5 941.5,-25.5 996.5,-25.5 996.5,-6.5 941.5,-6.5"/>
<text text-anchor="middle" x="969" y="-13.5" font-family="Helvetica,sans-Serif" font-size="10.00">QWidget</text>
</g>
<!-- Node2&#45;&gt;Node10 -->
<g id="edge9" class="edge"><title>Node2&#45;&gt;Node10</title>
<path fill="none" stroke="midnightblue" d="M815.924,-74.422C843.673,-64.4262 890.762,-47.3208 931,-32 933.378,-31.0946 935.836,-30.1484 938.304,-29.1905"/>
<polygon fill="midnightblue" stroke="midnightblue" points="939.695,-32.4047 947.732,-25.5007 937.144,-25.8862 939.695,-32.4047"/>
</g>
<!-- Node11 -->
<g id="node11" class="node"><title>Node11</title>
<polygon fill="white" stroke="#bfbfbf" points="1014.5,-6.5 1014.5,-25.5 1089.5,-25.5 1089.5,-6.5 1014.5,-6.5"/>
<text text-anchor="middle" x="1052" y="-13.5" font-family="Helvetica,sans-Serif" font-size="10.00">QCloseEvent</text>
</g>
<!-- Node2&#45;&gt;Node11 -->
<g id="edge10" class="edge"><title>Node2&#45;&gt;Node11</title>
<path fill="none" stroke="midnightblue" d="M817.786,-74.4837C824.943,-72.2454 832.742,-69.9219 840,-68 912.558,-48.7873 932.5,-51.4319 1005,-32 1008.89,-30.9571 1012.94,-29.7911 1016.95,-28.5825"/>
<polygon fill="midnightblue" stroke="midnightblue" points="1018.25,-31.8451 1026.76,-25.5361 1016.17,-25.1601 1018.25,-31.8451"/>
</g>
<!-- Node12 -->
<g id="node12" class="node"><title>Node12</title>
<polygon fill="white" stroke="#bfbfbf" points="1107.5,-6.5 1107.5,-25.5 1158.5,-25.5 1158.5,-6.5 1107.5,-6.5"/>
<text text-anchor="middle" x="1133" y="-13.5" font-family="Helvetica,sans-Serif" font-size="10.00">QMutex</text>
</g>
<!-- Node2&#45;&gt;Node12 -->
<g id="edge11" class="edge"><title>Node2&#45;&gt;Node12</title>
<path fill="none" stroke="midnightblue" d="M816.702,-74.4287C824.124,-72.0854 832.333,-69.7206 840,-68 952.968,-42.6478 986.472,-63.0785 1098,-32 1100.65,-31.2602 1103.37,-30.3636 1106.06,-29.3809"/>
<polygon fill="midnightblue" stroke="midnightblue" points="1107.56,-32.5529 1115.53,-25.5706 1104.94,-26.0596 1107.56,-32.5529"/>
</g>
</g>
</svg>
