<?xml version="1.0" encoding="UTF-8" standalone="no"?>
<!DOCTYPE svg PUBLIC "-//W3C//DTD SVG 1.1//EN"
 "http://www.w3.org/Graphics/SVG/1.1/DTD/svg11.dtd">
<!-- Generated by graphviz version 2.36.0 (20140111.2315)
 -->
<!-- Title: /media/kavonszadkowski/work/marsdocs/mars/gui/src/dialogs/CaptureWindow/ImageProcess.cpp Pages: 1 -->
<svg width="390pt" height="174pt"
 viewBox="0.00 0.00 390.00 174.00" xmlns="http://www.w3.org/2000/svg" xmlns:xlink="http://www.w3.org/1999/xlink">
<g id="graph0" class="graph" transform="scale(1 1) rotate(0) translate(4 170)">
<title>/media/kavonszadkowski/work/marsdocs/mars/gui/src/dialogs/CaptureWindow/ImageProcess.cpp</title>
<polygon fill="white" stroke="none" points="-4,4 -4,-170 386,-170 386,4 -4,4"/>
<!-- Node1 -->
<g id="node1" class="node"><title>Node1</title>
<polygon fill="#bfbfbf" stroke="black" points="136,-113 136,-165 276,-165 276,-113 136,-113"/>
<text text-anchor="start" x="144" y="-153" font-family="Helvetica,sans-Serif" font-size="10.00">/media/kavonszadkowski</text>
<text text-anchor="start" x="144" y="-142" font-family="Helvetica,sans-Serif" font-size="10.00">/work/marsdocs/mars/gui</text>
<text text-anchor="start" x="144" y="-131" font-family="Helvetica,sans-Serif" font-size="10.00">/src/dialogs/CaptureWindow</text>
<text text-anchor="middle" x="206" y="-120" font-family="Helvetica,sans-Serif" font-size="10.00">/ImageProcess.cpp</text>
</g>
<!-- Node2 -->
<g id="node2" class="node"><title>Node2</title>
<g id="a_node2"><a xlink:href="../../d9/d5d/_image_process_8h.html" target="_top" xlink:title="ImageProcess.h">
<polygon fill="white" stroke="black" points="120,-56.5 120,-75.5 208,-75.5 208,-56.5 120,-56.5"/>
<text text-anchor="middle" x="164" y="-63.5" font-family="Helvetica,sans-Serif" font-size="10.00">ImageProcess.h</text>
</a>
</g>
</g>
<!-- Node1&#45;&gt;Node2 -->
<g id="edge1" class="edge"><title>Node1&#45;&gt;Node2</title>
<path fill="none" stroke="midnightblue" d="M191.074,-112.768C185.524,-103.385 179.354,-92.9553 174.307,-84.4245"/>
<polygon fill="midnightblue" stroke="midnightblue" points="177.284,-82.582 169.18,-75.7572 171.259,-86.146 177.284,-82.582"/>
</g>
<!-- Node8 -->
<g id="node8" class="node"><title>Node8</title>
<polygon fill="white" stroke="#bfbfbf" points="226.5,-56.5 226.5,-75.5 269.5,-75.5 269.5,-56.5 226.5,-56.5"/>
<text text-anchor="middle" x="248" y="-63.5" font-family="Helvetica,sans-Serif" font-size="10.00">cstdio</text>
</g>
<!-- Node1&#45;&gt;Node8 -->
<g id="edge7" class="edge"><title>Node1&#45;&gt;Node8</title>
<path fill="none" stroke="midnightblue" d="M220.926,-112.768C226.476,-103.385 232.646,-92.9553 237.693,-84.4245"/>
<polygon fill="midnightblue" stroke="midnightblue" points="240.741,-86.146 242.82,-75.7572 234.716,-82.582 240.741,-86.146"/>
</g>
<!-- Node3 -->
<g id="node3" class="node"><title>Node3</title>
<polygon fill="white" stroke="#bfbfbf" points="0,-0.5 0,-19.5 54,-19.5 54,-0.5 0,-0.5"/>
<text text-anchor="middle" x="27" y="-7.5" font-family="Helvetica,sans-Serif" font-size="10.00">QThread</text>
</g>
<!-- Node2&#45;&gt;Node3 -->
<g id="edge2" class="edge"><title>Node2&#45;&gt;Node3</title>
<path fill="none" stroke="midnightblue" d="M142.292,-56.4435C119.645,-47.5171 83.9279,-33.4387 58.2482,-23.3168"/>
<polygon fill="midnightblue" stroke="midnightblue" points="59.1934,-19.9273 48.6065,-19.5164 56.6264,-26.4397 59.1934,-19.9273"/>
</g>
<!-- Node4 -->
<g id="node4" class="node"><title>Node4</title>
<polygon fill="white" stroke="#bfbfbf" points="72.5,-0.5 72.5,-19.5 123.5,-19.5 123.5,-0.5 72.5,-0.5"/>
<text text-anchor="middle" x="98" y="-7.5" font-family="Helvetica,sans-Serif" font-size="10.00">QMutex</text>
</g>
<!-- Node2&#45;&gt;Node4 -->
<g id="edge3" class="edge"><title>Node2&#45;&gt;Node4</title>
<path fill="none" stroke="midnightblue" d="M153.396,-56.324C143.544,-48.2631 128.649,-36.0765 116.785,-26.3695"/>
<polygon fill="midnightblue" stroke="midnightblue" points="118.753,-23.4575 108.797,-19.8339 114.32,-28.8752 118.753,-23.4575"/>
</g>
<!-- Node5 -->
<g id="node5" class="node"><title>Node5</title>
<polygon fill="white" stroke="#bfbfbf" points="142,-0.5 142,-19.5 186,-19.5 186,-0.5 142,-0.5"/>
<text text-anchor="middle" x="164" y="-7.5" font-family="Helvetica,sans-Serif" font-size="10.00">vector</text>
</g>
<!-- Node2&#45;&gt;Node5 -->
<g id="edge4" class="edge"><title>Node2&#45;&gt;Node5</title>
<path fill="none" stroke="midnightblue" d="M164,-56.083C164,-49.0059 164,-38.8611 164,-29.9865"/>
<polygon fill="midnightblue" stroke="midnightblue" points="167.5,-29.751 164,-19.7511 160.5,-29.7511 167.5,-29.751"/>
</g>
<!-- Node6 -->
<g id="node6" class="node"><title>Node6</title>
<polygon fill="white" stroke="#bfbfbf" points="204,-0.5 204,-19.5 274,-19.5 274,-0.5 204,-0.5"/>
<text text-anchor="middle" x="239" y="-7.5" font-family="Helvetica,sans-Serif" font-size="10.00">opencv/cv.h</text>
</g>
<!-- Node2&#45;&gt;Node6 -->
<g id="edge5" class="edge"><title>Node2&#45;&gt;Node6</title>
<path fill="none" stroke="midnightblue" d="M176.05,-56.324C187.463,-48.1066 204.831,-35.6017 218.435,-25.8069"/>
<polygon fill="midnightblue" stroke="midnightblue" points="220.66,-28.5174 226.731,-19.8339 216.57,-22.8366 220.66,-28.5174"/>
</g>
<!-- Node7 -->
<g id="node7" class="node"><title>Node7</title>
<polygon fill="white" stroke="#bfbfbf" points="292,-0.5 292,-19.5 382,-19.5 382,-0.5 292,-0.5"/>
<text text-anchor="middle" x="337" y="-7.5" font-family="Helvetica,sans-Serif" font-size="10.00">opencv/highgui.h</text>
</g>
<!-- Node2&#45;&gt;Node7 -->
<g id="edge6" class="edge"><title>Node2&#45;&gt;Node7</title>
<path fill="none" stroke="midnightblue" d="M191.412,-56.4435C220.769,-47.2801 267.519,-32.6876 300.096,-22.5192"/>
<polygon fill="midnightblue" stroke="midnightblue" points="301.213,-25.8371 309.716,-19.5164 299.127,-19.1551 301.213,-25.8371"/>
</g>
</g>
</svg>
