<?xml version="1.0" encoding="UTF-8" standalone="no"?>
<!DOCTYPE svg PUBLIC "-//W3C//DTD SVG 1.1//EN"
 "http://www.w3.org/Graphics/SVG/1.1/DTD/svg11.dtd">
<!-- Generated by graphviz version 2.36.0 (20140111.2315)
 -->
<!-- Title: /media/kavonszadkowski/work/marsdocs/mars/plugins/SkyDomePlugin/src/SkyDome.h Pages: 1 -->
<svg width="438pt" height="162pt"
 viewBox="0.00 0.00 438.00 162.00" xmlns="http://www.w3.org/2000/svg" xmlns:xlink="http://www.w3.org/1999/xlink">
<g id="graph0" class="graph" transform="scale(1 1) rotate(0) translate(4 158)">
<title>/media/kavonszadkowski/work/marsdocs/mars/plugins/SkyDomePlugin/src/SkyDome.h</title>
<polygon fill="white" stroke="none" points="-4,4 -4,-158 434,-158 434,4 -4,4"/>
<!-- Node1 -->
<g id="node1" class="node"><title>Node1</title>
<polygon fill="#bfbfbf" stroke="black" points="141.5,-112.5 141.5,-153.5 302.5,-153.5 302.5,-112.5 141.5,-112.5"/>
<text text-anchor="start" x="149.5" y="-141.5" font-family="Helvetica,sans-Serif" font-size="10.00">/media/kavonszadkowski</text>
<text text-anchor="start" x="149.5" y="-130.5" font-family="Helvetica,sans-Serif" font-size="10.00">/work/marsdocs/mars/plugins</text>
<text text-anchor="middle" x="222" y="-119.5" font-family="Helvetica,sans-Serif" font-size="10.00">/SkyDomePlugin/src/SkyDome.h</text>
</g>
<!-- Node2 -->
<g id="node2" class="node"><title>Node2</title>
<g id="a_node2"><a xlink:href="../../d8/d98/_sphere_segment_8h.html" target="_top" xlink:title="SphereSegment.h">
<polygon fill="white" stroke="black" points="28.5,-56.5 28.5,-75.5 123.5,-75.5 123.5,-56.5 28.5,-56.5"/>
<text text-anchor="middle" x="76" y="-63.5" font-family="Helvetica,sans-Serif" font-size="10.00">SphereSegment.h</text>
</a>
</g>
</g>
<!-- Node1&#45;&gt;Node2 -->
<g id="edge1" class="edge"><title>Node1&#45;&gt;Node2</title>
<path fill="none" stroke="midnightblue" d="M178.195,-112.498C154.412,-101.909 125.678,-89.1169 104.744,-79.7968"/>
<polygon fill="midnightblue" stroke="midnightblue" points="105.994,-76.5223 95.4348,-75.6525 103.147,-82.9172 105.994,-76.5223"/>
</g>
<!-- Node5 -->
<g id="node5" class="node"><title>Node5</title>
<polygon fill="white" stroke="#bfbfbf" points="142,-56.5 142,-75.5 214,-75.5 214,-56.5 142,-56.5"/>
<text text-anchor="middle" x="178" y="-63.5" font-family="Helvetica,sans-Serif" font-size="10.00">osg/Program</text>
</g>
<!-- Node1&#45;&gt;Node5 -->
<g id="edge4" class="edge"><title>Node1&#45;&gt;Node5</title>
<path fill="none" stroke="midnightblue" d="M208.799,-112.498C202.701,-103.49 195.524,-92.8881 189.633,-84.1852"/>
<polygon fill="midnightblue" stroke="midnightblue" points="192.361,-81.9716 183.857,-75.6525 186.564,-85.8956 192.361,-81.9716"/>
</g>
<!-- Node6 -->
<g id="node6" class="node"><title>Node6</title>
<polygon fill="white" stroke="#bfbfbf" points="232,-56.5 232,-75.5 302,-75.5 302,-56.5 232,-56.5"/>
<text text-anchor="middle" x="267" y="-63.5" font-family="Helvetica,sans-Serif" font-size="10.00">osg/Uniform</text>
</g>
<!-- Node1&#45;&gt;Node6 -->
<g id="edge5" class="edge"><title>Node1&#45;&gt;Node6</title>
<path fill="none" stroke="midnightblue" d="M235.501,-112.498C241.804,-103.395 249.234,-92.6623 255.294,-83.9081"/>
<polygon fill="midnightblue" stroke="midnightblue" points="258.195,-85.8667 261.01,-75.6525 252.44,-81.8822 258.195,-85.8667"/>
</g>
<!-- Node7 -->
<g id="node7" class="node"><title>Node7</title>
<polygon fill="white" stroke="#bfbfbf" points="320,-56.5 320,-75.5 430,-75.5 430,-56.5 320,-56.5"/>
<text text-anchor="middle" x="375" y="-63.5" font-family="Helvetica,sans-Serif" font-size="10.00">osg/TextureCubeMap</text>
</g>
<!-- Node1&#45;&gt;Node7 -->
<g id="edge6" class="edge"><title>Node1&#45;&gt;Node7</title>
<path fill="none" stroke="midnightblue" d="M267.905,-112.498C292.942,-101.861 323.213,-89.001 345.176,-79.6705"/>
<polygon fill="midnightblue" stroke="midnightblue" points="346.798,-82.784 354.633,-75.6525 344.061,-76.3413 346.798,-82.784"/>
</g>
<!-- Node3 -->
<g id="node3" class="node"><title>Node3</title>
<polygon fill="white" stroke="#bfbfbf" points="0,-0.5 0,-19.5 64,-19.5 64,-0.5 0,-0.5"/>
<text text-anchor="middle" x="32" y="-7.5" font-family="Helvetica,sans-Serif" font-size="10.00">osg/Geode</text>
</g>
<!-- Node2&#45;&gt;Node3 -->
<g id="edge2" class="edge"><title>Node2&#45;&gt;Node3</title>
<path fill="none" stroke="midnightblue" d="M68.7343,-56.083C62.4552,-48.3768 53.2124,-37.0333 45.5692,-27.6531"/>
<polygon fill="midnightblue" stroke="midnightblue" points="48.1606,-25.2926 39.1305,-19.7511 42.7339,-29.7143 48.1606,-25.2926"/>
</g>
<!-- Node4 -->
<g id="node4" class="node"><title>Node4</title>
<polygon fill="white" stroke="#bfbfbf" points="82,-0.5 82,-19.5 160,-19.5 160,-0.5 82,-0.5"/>
<text text-anchor="middle" x="121" y="-7.5" font-family="Helvetica,sans-Serif" font-size="10.00">osg/Geometry</text>
</g>
<!-- Node2&#45;&gt;Node4 -->
<g id="edge3" class="edge"><title>Node2&#45;&gt;Node4</title>
<path fill="none" stroke="midnightblue" d="M83.4308,-56.083C89.8527,-48.3768 99.3056,-37.0333 107.122,-27.6531"/>
<polygon fill="midnightblue" stroke="midnightblue" points="109.994,-29.674 113.707,-19.7511 104.617,-25.1927 109.994,-29.674"/>
</g>
</g>
</svg>
