<?xml version="1.0" encoding="UTF-8" standalone="no"?>
<!DOCTYPE svg PUBLIC "-//W3C//DTD SVG 1.1//EN"
 "http://www.w3.org/Graphics/SVG/1.1/DTD/svg11.dtd">
<!-- Generated by graphviz version 2.26.3 (20100126.1600)
 -->
<!-- Title: /home/kavonszadkowski/limes&#45;dev/simulation/mars/gui/src/SelectionDialog.h Pages: 1 -->
<svg width="655pt" height="420pt"
 viewBox="0.00 0.00 655.00 420.00" xmlns="http://www.w3.org/2000/svg" xmlns:xlink="http://www.w3.org/1999/xlink">
<g id="graph1" class="graph" transform="scale(1 1) rotate(0) translate(4 416)">
<title>/home/kavonszadkowski/limes&#45;dev/simulation/mars/gui/src/SelectionDialog.h</title>
<polygon fill="white" stroke="white" points="-4,5 -4,-416 652,-416 652,5 -4,5"/>
<!-- Node1 -->
<g id="node1" class="node"><title>Node1</title>
<polygon fill="#bfbfbf" stroke="black" points="244.5,-364.5 244.5,-411.5 397.5,-411.5 397.5,-364.5 244.5,-364.5"/>
<text text-anchor="start" x="252.5" y="-398.5" font-family="Helvetica,sans-Serif" font-size="10.00">/home/kavonszadkowski</text>
<text text-anchor="start" x="252.5" y="-385.5" font-family="Helvetica,sans-Serif" font-size="10.00">/limes&#45;dev/simulation</text>
<text text-anchor="middle" x="321" y="-372.5" font-family="Helvetica,sans-Serif" font-size="10.00">/mars/gui/src/SelectionDialog.h</text>
</g>
<!-- Node2 -->
<g id="node3" class="node"><title>Node2</title>
<a xlink:href="../../d0/dfb/_controller_handler_8h.html" target="_top" xlink:title="/home/kavonszadkowski\l/limes&#45;dev/simulation\l/mars/gui/src/ControllerHandler.h">
<polygon fill="white" stroke="black" points="60.5,-280.5 60.5,-327.5 221.5,-327.5 221.5,-280.5 60.5,-280.5"/>
<text text-anchor="start" x="68.5" y="-314.5" font-family="Helvetica,sans-Serif" font-size="10.00">/home/kavonszadkowski</text>
<text text-anchor="start" x="68.5" y="-301.5" font-family="Helvetica,sans-Serif" font-size="10.00">/limes&#45;dev/simulation</text>
<text text-anchor="middle" x="141" y="-288.5" font-family="Helvetica,sans-Serif" font-size="10.00">/mars/gui/src/ControllerHandler.h</text>
</a>
</g>
<!-- Node1&#45;&gt;Node2 -->
<g id="edge2" class="edge"><title>Node1&#45;&gt;Node2</title>
<path fill="none" stroke="midnightblue" d="M261.23,-360.107C238.652,-349.571 213.203,-337.695 191.551,-327.59"/>
<polygon fill="midnightblue" stroke="midnightblue" points="259.839,-363.321 270.381,-364.378 262.799,-356.977 259.839,-363.321"/>
</g>
<!-- Node9 -->
<g id="node17" class="node"><title>Node9</title>
<a xlink:href="../../d7/dae/_selection_dialog_8cpp.html" target="_top" xlink:title="/home/kavonszadkowski\l/limes&#45;dev/simulation\l/mars/gui/src/SelectionDialog.cpp">
<polygon fill="white" stroke="black" points="239,-280.5 239,-327.5 403,-327.5 403,-280.5 239,-280.5"/>
<text text-anchor="start" x="247" y="-314.5" font-family="Helvetica,sans-Serif" font-size="10.00">/home/kavonszadkowski</text>
<text text-anchor="start" x="247" y="-301.5" font-family="Helvetica,sans-Serif" font-size="10.00">/limes&#45;dev/simulation</text>
<text text-anchor="middle" x="321" y="-288.5" font-family="Helvetica,sans-Serif" font-size="10.00">/mars/gui/src/SelectionDialog.cpp</text>
</a>
</g>
<!-- Node1&#45;&gt;Node9 -->
<g id="edge16" class="edge"><title>Node1&#45;&gt;Node9</title>
<path fill="none" stroke="midnightblue" d="M321,-354.066C321,-345.193 321,-335.821 321,-327.615"/>
<polygon fill="midnightblue" stroke="midnightblue" points="317.5,-354.154 321,-364.154 324.5,-354.154 317.5,-354.154"/>
</g>
<!-- Node10 -->
<g id="node19" class="node"><title>Node10</title>
<a xlink:href="../../d4/df0/_sensor_handler_8h.html" target="_top" xlink:title="/home/kavonszadkowski\l/limes&#45;dev/simulation\l/mars/gui/src/SensorHandler.h">
<polygon fill="white" stroke="black" points="420.5,-280.5 420.5,-327.5 569.5,-327.5 569.5,-280.5 420.5,-280.5"/>
<text text-anchor="start" x="428.5" y="-314.5" font-family="Helvetica,sans-Serif" font-size="10.00">/home/kavonszadkowski</text>
<text text-anchor="start" x="428.5" y="-301.5" font-family="Helvetica,sans-Serif" font-size="10.00">/limes&#45;dev/simulation</text>
<text text-anchor="middle" x="495" y="-288.5" font-family="Helvetica,sans-Serif" font-size="10.00">/mars/gui/src/SensorHandler.h</text>
</a>
</g>
<!-- Node1&#45;&gt;Node10 -->
<g id="edge18" class="edge"><title>Node1&#45;&gt;Node10</title>
<path fill="none" stroke="midnightblue" d="M379.069,-359.967C400.822,-349.465 425.297,-337.65 446.134,-327.59"/>
<polygon fill="midnightblue" stroke="midnightblue" points="377.416,-356.878 369.932,-364.378 380.459,-363.182 377.416,-356.878"/>
</g>
<!-- Node3 -->
<g id="node5" class="node"><title>Node3</title>
<a xlink:href="../../d5/d58/_controller_handler_8cpp.html" target="_top" xlink:title="/home/kavonszadkowski\l/limes&#45;dev/simulation\l/mars/gui/src/ControllerHandler.cpp">
<polygon fill="white" stroke="black" points="-0.5,-189.5 -0.5,-236.5 170.5,-236.5 170.5,-189.5 -0.5,-189.5"/>
<text text-anchor="start" x="7.5" y="-223.5" font-family="Helvetica,sans-Serif" font-size="10.00">/home/kavonszadkowski</text>
<text text-anchor="start" x="7.5" y="-210.5" font-family="Helvetica,sans-Serif" font-size="10.00">/limes&#45;dev/simulation</text>
<text text-anchor="middle" x="85" y="-197.5" font-family="Helvetica,sans-Serif" font-size="10.00">/mars/gui/src/ControllerHandler.cpp</text>
</a>
</g>
<!-- Node2&#45;&gt;Node3 -->
<g id="edge4" class="edge"><title>Node2&#45;&gt;Node3</title>
<path fill="none" stroke="midnightblue" d="M120.849,-271.255C113.831,-259.851 106.097,-247.283 99.6151,-236.749"/>
<polygon fill="midnightblue" stroke="midnightblue" points="118.065,-273.409 126.287,-280.091 124.026,-269.74 118.065,-273.409"/>
</g>
<!-- Node4 -->
<g id="node7" class="node"><title>Node4</title>
<a xlink:href="../../dd/d7e/_dialog_controllers_8h.html" target="_top" xlink:title="A controller tree widget holding all controllers as properties. ">
<polygon fill="white" stroke="black" points="187.5,-183 187.5,-243 312.5,-243 312.5,-183 187.5,-183"/>
<text text-anchor="start" x="195.5" y="-230" font-family="Helvetica,sans-Serif" font-size="10.00">/home/kavonszadkowski</text>
<text text-anchor="start" x="195.5" y="-217" font-family="Helvetica,sans-Serif" font-size="10.00">/limes&#45;dev/simulation</text>
<text text-anchor="start" x="195.5" y="-204" font-family="Helvetica,sans-Serif" font-size="10.00">/mars/gui/src/dialogs</text>
<text text-anchor="middle" x="250" y="-191" font-family="Helvetica,sans-Serif" font-size="10.00">/DialogControllers.h</text>
</a>
</g>
<!-- Node2&#45;&gt;Node4 -->
<g id="edge6" class="edge"><title>Node2&#45;&gt;Node4</title>
<path fill="none" stroke="midnightblue" d="M177.287,-273.705C189.09,-263.851 202.18,-252.923 213.965,-243.085"/>
<polygon fill="midnightblue" stroke="midnightblue" points="174.787,-271.233 169.354,-280.328 179.273,-276.606 174.787,-271.233"/>
</g>
<!-- Node5 -->
<g id="node9" class="node"><title>Node5</title>
<a xlink:href="../../db/d21/_dialog_controllers_8cpp.html" target="_top" xlink:title="/home/kavonszadkowski\l/limes&#45;dev/simulation\l/mars/gui/src/dialogs\l/DialogControllers.cpp">
<polygon fill="white" stroke="black" points="92.5,-85 92.5,-145 217.5,-145 217.5,-85 92.5,-85"/>
<text text-anchor="start" x="100.5" y="-132" font-family="Helvetica,sans-Serif" font-size="10.00">/home/kavonszadkowski</text>
<text text-anchor="start" x="100.5" y="-119" font-family="Helvetica,sans-Serif" font-size="10.00">/limes&#45;dev/simulation</text>
<text text-anchor="start" x="100.5" y="-106" font-family="Helvetica,sans-Serif" font-size="10.00">/mars/gui/src/dialogs</text>
<text text-anchor="middle" x="155" y="-93" font-family="Helvetica,sans-Serif" font-size="10.00">/DialogControllers.cpp</text>
</a>
</g>
<!-- Node4&#45;&gt;Node5 -->
<g id="edge8" class="edge"><title>Node4&#45;&gt;Node5</title>
<path fill="none" stroke="midnightblue" d="M213.497,-175.344C203.849,-165.392 193.561,-154.778 184.345,-145.272"/>
<polygon fill="midnightblue" stroke="midnightblue" points="211.248,-178.053 220.722,-182.797 216.274,-173.181 211.248,-178.053"/>
</g>
<!-- Node6 -->
<g id="node11" class="node"><title>Node6</title>
<a xlink:href="../../d3/d92/_menu_simulation_8h.html" target="_top" xlink:title="Provides the Simulation and Control menu entries. ">
<polygon fill="white" stroke="black" points="234.5,-91.5 234.5,-138.5 421.5,-138.5 421.5,-91.5 234.5,-91.5"/>
<text text-anchor="start" x="242.5" y="-125.5" font-family="Helvetica,sans-Serif" font-size="10.00">/home/kavonszadkowski</text>
<text text-anchor="start" x="242.5" y="-112.5" font-family="Helvetica,sans-Serif" font-size="10.00">/limes&#45;dev/simulation</text>
<text text-anchor="middle" x="328" y="-99.5" font-family="Helvetica,sans-Serif" font-size="10.00">/mars/gui/src/menus/MenuSimulation.h</text>
</a>
</g>
<!-- Node4&#45;&gt;Node6 -->
<g id="edge10" class="edge"><title>Node4&#45;&gt;Node6</title>
<path fill="none" stroke="midnightblue" d="M280.283,-174.952C289.993,-162.752 300.462,-149.599 309.114,-138.729"/>
<polygon fill="midnightblue" stroke="midnightblue" points="277.528,-172.793 274.039,-182.797 283.005,-177.152 277.528,-172.793"/>
</g>
<!-- Node7 -->
<g id="node13" class="node"><title>Node7</title>
<a xlink:href="../../da/d1e/_mars_gui_8cpp.html" target="_top" xlink:title="/home/kavonszadkowski\l/limes&#45;dev/simulation\l/mars/gui/src/MarsGui.cpp">
<polygon fill="white" stroke="black" points="171,-0.5 171,-47.5 303,-47.5 303,-0.5 171,-0.5"/>
<text text-anchor="start" x="179" y="-34.5" font-family="Helvetica,sans-Serif" font-size="10.00">/home/kavonszadkowski</text>
<text text-anchor="start" x="179" y="-21.5" font-family="Helvetica,sans-Serif" font-size="10.00">/limes&#45;dev/simulation</text>
<text text-anchor="middle" x="237" y="-8.5" font-family="Helvetica,sans-Serif" font-size="10.00">/mars/gui/src/MarsGui.cpp</text>
</a>
</g>
<!-- Node6&#45;&gt;Node7 -->
<g id="edge12" class="edge"><title>Node6&#45;&gt;Node7</title>
<path fill="none" stroke="midnightblue" d="M296.94,-83.9399C285.1,-72.1 271.805,-58.8047 260.749,-47.7495"/>
<polygon fill="midnightblue" stroke="midnightblue" points="294.545,-86.4946 304.091,-91.0908 299.495,-81.5448 294.545,-86.4946"/>
</g>
<!-- Node8 -->
<g id="node15" class="node"><title>Node8</title>
<a xlink:href="../../d9/d82/_menu_simulation_8cpp.html" target="_top" xlink:title="/home/kavonszadkowski\l/limes&#45;dev/simulation\l/mars/gui/src/menus/MenuSimulation.cpp">
<polygon fill="white" stroke="black" points="320.5,-0.5 320.5,-47.5 517.5,-47.5 517.5,-0.5 320.5,-0.5"/>
<text text-anchor="start" x="328.5" y="-34.5" font-family="Helvetica,sans-Serif" font-size="10.00">/home/kavonszadkowski</text>
<text text-anchor="start" x="328.5" y="-21.5" font-family="Helvetica,sans-Serif" font-size="10.00">/limes&#45;dev/simulation</text>
<text text-anchor="middle" x="419" y="-8.5" font-family="Helvetica,sans-Serif" font-size="10.00">/mars/gui/src/menus/MenuSimulation.cpp</text>
</a>
</g>
<!-- Node6&#45;&gt;Node8 -->
<g id="edge14" class="edge"><title>Node6&#45;&gt;Node8</title>
<path fill="none" stroke="midnightblue" d="M359.06,-83.9399C370.9,-72.1 384.195,-58.8047 395.251,-47.7495"/>
<polygon fill="midnightblue" stroke="midnightblue" points="356.505,-81.5448 351.909,-91.0908 361.455,-86.4946 356.505,-81.5448"/>
</g>
<!-- Node11 -->
<g id="node21" class="node"><title>Node11</title>
<a xlink:href="../../d8/d59/_dialog_sensors_8h.html" target="_top" xlink:title="/home/kavonszadkowski\l/limes&#45;dev/simulation\l/mars/gui/src/dialogs\l/DialogSensors.h">
<polygon fill="white" stroke="black" points="344.5,-183 344.5,-243 469.5,-243 469.5,-183 344.5,-183"/>
<text text-anchor="start" x="352.5" y="-230" font-family="Helvetica,sans-Serif" font-size="10.00">/home/kavonszadkowski</text>
<text text-anchor="start" x="352.5" y="-217" font-family="Helvetica,sans-Serif" font-size="10.00">/limes&#45;dev/simulation</text>
<text text-anchor="start" x="352.5" y="-204" font-family="Helvetica,sans-Serif" font-size="10.00">/mars/gui/src/dialogs</text>
<text text-anchor="middle" x="407" y="-191" font-family="Helvetica,sans-Serif" font-size="10.00">/DialogSensors.h</text>
</a>
</g>
<!-- Node10&#45;&gt;Node11 -->
<g id="edge20" class="edge"><title>Node10&#45;&gt;Node11</title>
<path fill="none" stroke="midnightblue" d="M464.721,-272.689C455.514,-263.168 445.416,-252.726 436.276,-243.274"/>
<polygon fill="midnightblue" stroke="midnightblue" points="462.411,-275.335 471.879,-280.091 467.443,-270.469 462.411,-275.335"/>
</g>
<!-- Node13 -->
<g id="node26" class="node"><title>Node13</title>
<a xlink:href="../../d0/d18/_sensor_handler_8cpp.html" target="_top" xlink:title="/home/kavonszadkowski\l/limes&#45;dev/simulation\l/mars/gui/src/SensorHandler.cpp">
<polygon fill="white" stroke="black" points="487,-189.5 487,-236.5 647,-236.5 647,-189.5 487,-189.5"/>
<text text-anchor="start" x="495" y="-223.5" font-family="Helvetica,sans-Serif" font-size="10.00">/home/kavonszadkowski</text>
<text text-anchor="start" x="495" y="-210.5" font-family="Helvetica,sans-Serif" font-size="10.00">/limes&#45;dev/simulation</text>
<text text-anchor="middle" x="567" y="-197.5" font-family="Helvetica,sans-Serif" font-size="10.00">/mars/gui/src/SensorHandler.cpp</text>
</a>
</g>
<!-- Node10&#45;&gt;Node13 -->
<g id="edge26" class="edge"><title>Node10&#45;&gt;Node13</title>
<path fill="none" stroke="midnightblue" d="M520.373,-271.931C529.537,-260.349 539.71,-247.492 548.209,-236.749"/>
<polygon fill="midnightblue" stroke="midnightblue" points="517.377,-270.077 513.917,-280.091 522.867,-274.42 517.377,-270.077"/>
</g>
<!-- Node11&#45;&gt;Node6 -->
<g id="edge24" class="edge"><title>Node11&#45;&gt;Node6</title>
<path fill="none" stroke="midnightblue" d="M376.329,-174.952C366.494,-162.752 355.891,-149.599 347.128,-138.729"/>
<polygon fill="midnightblue" stroke="midnightblue" points="373.652,-177.208 382.653,-182.797 379.102,-172.815 373.652,-177.208"/>
</g>
<!-- Node12 -->
<g id="node23" class="node"><title>Node12</title>
<a xlink:href="../../dc/d71/_dialog_sensors_8cpp.html" target="_top" xlink:title="/home/kavonszadkowski\l/limes&#45;dev/simulation\l/mars/gui/src/dialogs\l/DialogSensors.cpp">
<polygon fill="white" stroke="black" points="438.5,-85 438.5,-145 563.5,-145 563.5,-85 438.5,-85"/>
<text text-anchor="start" x="446.5" y="-132" font-family="Helvetica,sans-Serif" font-size="10.00">/home/kavonszadkowski</text>
<text text-anchor="start" x="446.5" y="-119" font-family="Helvetica,sans-Serif" font-size="10.00">/limes&#45;dev/simulation</text>
<text text-anchor="start" x="446.5" y="-106" font-family="Helvetica,sans-Serif" font-size="10.00">/mars/gui/src/dialogs</text>
<text text-anchor="middle" x="501" y="-93" font-family="Helvetica,sans-Serif" font-size="10.00">/DialogSensors.cpp</text>
</a>
</g>
<!-- Node11&#45;&gt;Node12 -->
<g id="edge22" class="edge"><title>Node11&#45;&gt;Node12</title>
<path fill="none" stroke="midnightblue" d="M443.119,-175.344C452.665,-165.392 462.845,-154.778 471.964,-145.272"/>
<polygon fill="midnightblue" stroke="midnightblue" points="440.366,-173.157 435.97,-182.797 445.418,-178.003 440.366,-173.157"/>
</g>
</g>
</svg>
