<?xml version="1.0" encoding="UTF-8" standalone="no"?>
<!DOCTYPE svg PUBLIC "-//W3C//DTD SVG 1.1//EN"
 "http://www.w3.org/Graphics/SVG/1.1/DTD/svg11.dtd">
<!-- Generated by graphviz version 2.26.3 (20100126.1600)
 -->
<!-- Title: /home/kavonszadkowski/limes&#45;dev/simulation/mars/sim/src/sensors/JointArraySensor.cpp Pages: 1 -->
<svg width="1097pt" height="286pt"
 viewBox="0.00 0.00 1097.00 286.00" xmlns="http://www.w3.org/2000/svg" xmlns:xlink="http://www.w3.org/1999/xlink">
<g id="graph1" class="graph" transform="scale(1 1) rotate(0) translate(4 282)">
<title>/home/kavonszadkowski/limes&#45;dev/simulation/mars/sim/src/sensors/JointArraySensor.cpp</title>
<polygon fill="white" stroke="white" points="-4,5 -4,-282 1094,-282 1094,5 -4,5"/>
<!-- Node1 -->
<g id="node1" class="node"><title>Node1</title>
<polygon fill="#bfbfbf" stroke="black" points="756.5,-217 756.5,-277 881.5,-277 881.5,-217 756.5,-217"/>
<text text-anchor="start" x="764.5" y="-264" font-family="Helvetica,sans-Serif" font-size="10.00">/home/kavonszadkowski</text>
<text text-anchor="start" x="764.5" y="-251" font-family="Helvetica,sans-Serif" font-size="10.00">/limes&#45;dev/simulation</text>
<text text-anchor="start" x="764.5" y="-238" font-family="Helvetica,sans-Serif" font-size="10.00">/mars/sim/src/sensors</text>
<text text-anchor="middle" x="819" y="-225" font-family="Helvetica,sans-Serif" font-size="10.00">/JointArraySensor.cpp</text>
</g>
<!-- Node2 -->
<g id="node3" class="node"><title>Node2</title>
<a xlink:href="../../d9/de3/_joint_array_sensor_8h.html" target="_top" xlink:title="JointArraySensor.h">
<polygon fill="white" stroke="black" points="284,-151.5 284,-172.5 384,-172.5 384,-151.5 284,-151.5"/>
<text text-anchor="middle" x="334" y="-159.5" font-family="Helvetica,sans-Serif" font-size="10.00">JointArraySensor.h</text>
</a>
</g>
<!-- Node1&#45;&gt;Node2 -->
<g id="edge2" class="edge"><title>Node1&#45;&gt;Node2</title>
<path fill="none" stroke="midnightblue" d="M756.092,-235.975C662.215,-219.522 486.644,-188.752 394.304,-172.569"/>
<polygon fill="midnightblue" stroke="midnightblue" points="394.733,-169.091 384.279,-170.812 393.524,-175.986 394.733,-169.091"/>
</g>
<!-- Node9 -->
<g id="node17" class="node"><title>Node9</title>
<polygon fill="white" stroke="#bfbfbf" points="628.5,-1 628.5,-35 735.5,-35 735.5,-1 628.5,-1"/>
<text text-anchor="start" x="636.5" y="-22" font-family="Helvetica,sans-Serif" font-size="10.00">mars/interfaces/sim</text>
<text text-anchor="middle" x="682" y="-9" font-family="Helvetica,sans-Serif" font-size="10.00">/SimulatorInterface.h</text>
</g>
<!-- Node1&#45;&gt;Node9 -->
<g id="edge26" class="edge"><title>Node1&#45;&gt;Node9</title>
<path fill="none" stroke="midnightblue" d="M756.307,-235.032C725.325,-225.614 690.662,-209.014 672,-180 645.615,-138.977 659.482,-79.3671 671.231,-45.0596"/>
<polygon fill="midnightblue" stroke="midnightblue" points="674.66,-45.8677 674.762,-35.2734 668.076,-43.4917 674.66,-45.8677"/>
</g>
<!-- Node12 -->
<g id="node24" class="node"><title>Node12</title>
<polygon fill="white" stroke="#bfbfbf" points="680.5,-145 680.5,-179 805.5,-179 805.5,-145 680.5,-145"/>
<text text-anchor="start" x="688.5" y="-166" font-family="Helvetica,sans-Serif" font-size="10.00">mars/interfaces/sim</text>
<text text-anchor="middle" x="743" y="-153" font-family="Helvetica,sans-Serif" font-size="10.00">/JointManagerInterface.h</text>
</g>
<!-- Node1&#45;&gt;Node12 -->
<g id="edge24" class="edge"><title>Node1&#45;&gt;Node12</title>
<path fill="none" stroke="midnightblue" d="M791.991,-216.793C783.192,-206.951 773.531,-196.147 765.132,-186.753"/>
<polygon fill="midnightblue" stroke="midnightblue" points="767.694,-184.368 758.42,-179.246 762.476,-189.033 767.694,-184.368"/>
</g>
<!-- Node13 -->
<g id="node27" class="node"><title>Node13</title>
<polygon fill="white" stroke="#bfbfbf" points="822.5,-145 822.5,-179 967.5,-179 967.5,-145 822.5,-145"/>
<text text-anchor="start" x="830.5" y="-166" font-family="Helvetica,sans-Serif" font-size="10.00">mars/data_broker/DataBroker</text>
<text text-anchor="middle" x="895" y="-153" font-family="Helvetica,sans-Serif" font-size="10.00">Interface.h</text>
</g>
<!-- Node1&#45;&gt;Node13 -->
<g id="edge28" class="edge"><title>Node1&#45;&gt;Node13</title>
<path fill="none" stroke="midnightblue" d="M846.009,-216.793C854.808,-206.951 864.469,-196.147 872.868,-186.753"/>
<polygon fill="midnightblue" stroke="midnightblue" points="875.524,-189.033 879.58,-179.246 870.306,-184.368 875.524,-189.033"/>
</g>
<!-- Node14 -->
<g id="node29" class="node"><title>Node14</title>
<polygon fill="white" stroke="#bfbfbf" points="984.5,-151.5 984.5,-172.5 1029.5,-172.5 1029.5,-151.5 984.5,-151.5"/>
<text text-anchor="middle" x="1007" y="-159.5" font-family="Helvetica,sans-Serif" font-size="10.00">cstdlib</text>
</g>
<!-- Node1&#45;&gt;Node14 -->
<g id="edge30" class="edge"><title>Node1&#45;&gt;Node14</title>
<path fill="none" stroke="midnightblue" d="M881.691,-222.314C910.757,-210.345 945.534,-195.274 976,-180 977.53,-179.233 979.089,-178.423 980.653,-177.588"/>
<polygon fill="midnightblue" stroke="midnightblue" points="982.467,-180.584 989.501,-172.661 979.061,-174.469 982.467,-180.584"/>
</g>
<!-- Node15 -->
<g id="node31" class="node"><title>Node15</title>
<polygon fill="white" stroke="#bfbfbf" points="1046.5,-151.5 1046.5,-172.5 1089.5,-172.5 1089.5,-151.5 1046.5,-151.5"/>
<text text-anchor="middle" x="1068" y="-159.5" font-family="Helvetica,sans-Serif" font-size="10.00">cstdio</text>
</g>
<!-- Node1&#45;&gt;Node15 -->
<g id="edge32" class="edge"><title>Node1&#45;&gt;Node15</title>
<path fill="none" stroke="midnightblue" d="M881.82,-232.136C926.414,-220.546 987.143,-202.629 1038,-180 1039.6,-179.287 1041.22,-178.506 1042.84,-177.681"/>
<polygon fill="midnightblue" stroke="midnightblue" points="1044.85,-180.571 1051.88,-172.649 1041.44,-174.454 1044.85,-180.571"/>
</g>
<!-- Node3 -->
<g id="node5" class="node"><title>Node3</title>
<polygon fill="white" stroke="#bfbfbf" points="0,-79.5 0,-100.5 128,-100.5 128,-79.5 0,-79.5"/>
<text text-anchor="middle" x="64" y="-87.5" font-family="Helvetica,sans-Serif" font-size="10.00">configmaps/ConfigData.h</text>
</g>
<!-- Node2&#45;&gt;Node3 -->
<g id="edge4" class="edge"><title>Node2&#45;&gt;Node3</title>
<path fill="none" stroke="midnightblue" d="M294.451,-151.453C246.426,-138.647 165.407,-117.042 113.344,-103.158"/>
<polygon fill="midnightblue" stroke="midnightblue" points="114.219,-99.7696 103.655,-100.575 112.416,-106.533 114.219,-99.7696"/>
</g>
<!-- Node4 -->
<g id="node7" class="node"><title>Node4</title>
<polygon fill="white" stroke="#bfbfbf" points="104.5,-1 104.5,-35 207.5,-35 207.5,-1 104.5,-1"/>
<text text-anchor="start" x="112.5" y="-22" font-family="Helvetica,sans-Serif" font-size="10.00">mars/interfaces/sim</text>
<text text-anchor="middle" x="156" y="-9" font-family="Helvetica,sans-Serif" font-size="10.00">/SensorInterface.h</text>
</g>
<!-- Node2&#45;&gt;Node4 -->
<g id="edge6" class="edge"><title>Node2&#45;&gt;Node4</title>
<path fill="none" stroke="midnightblue" d="M286.681,-151.406C245.476,-141.236 190.043,-124.955 175,-108 159.887,-90.9666 155.715,-64.9856 154.985,-45.3094"/>
<polygon fill="midnightblue" stroke="midnightblue" points="158.483,-45.089 154.886,-35.1237 151.483,-45.1574 158.483,-45.089"/>
</g>
<!-- Node5 -->
<g id="node9" class="node"><title>Node5</title>
<polygon fill="white" stroke="#bfbfbf" points="184,-73 184,-107 318,-107 318,-73 184,-73"/>
<text text-anchor="start" x="192" y="-94" font-family="Helvetica,sans-Serif" font-size="10.00">mars/data_broker/Receiver</text>
<text text-anchor="middle" x="251" y="-81" font-family="Helvetica,sans-Serif" font-size="10.00">Interface.h</text>
</g>
<!-- Node2&#45;&gt;Node5 -->
<g id="edge8" class="edge"><title>Node2&#45;&gt;Node5</title>
<path fill="none" stroke="midnightblue" d="M321.753,-151.376C310.415,-141.541 293.149,-126.563 278.513,-113.866"/>
<polygon fill="midnightblue" stroke="midnightblue" points="280.553,-111.003 270.706,-107.094 275.966,-116.291 280.553,-111.003"/>
</g>
<!-- Node6 -->
<g id="node11" class="node"><title>Node6</title>
<polygon fill="white" stroke="#bfbfbf" points="335.5,-79.5 335.5,-100.5 498.5,-100.5 498.5,-79.5 335.5,-79.5"/>
<text text-anchor="middle" x="417" y="-87.5" font-family="Helvetica,sans-Serif" font-size="10.00">mars/data_broker/DataPackage.h</text>
</g>
<!-- Node2&#45;&gt;Node6 -->
<g id="edge10" class="edge"><title>Node2&#45;&gt;Node6</title>
<path fill="none" stroke="midnightblue" d="M346.247,-151.376C359.61,-139.784 381.207,-121.05 397.029,-107.324"/>
<polygon fill="midnightblue" stroke="midnightblue" points="399.442,-109.864 404.703,-100.667 394.855,-104.576 399.442,-109.864"/>
</g>
<!-- Node7 -->
<g id="node13" class="node"><title>Node7</title>
<a xlink:href="../../d5/df7/_i_d_list_config_8h.html" target="_top" xlink:title="IDListConfig.h">
<polygon fill="white" stroke="black" points="516,-79.5 516,-100.5 596,-100.5 596,-79.5 516,-79.5"/>
<text text-anchor="middle" x="556" y="-87.5" font-family="Helvetica,sans-Serif" font-size="10.00">IDListConfig.h</text>
</a>
</g>
<!-- Node2&#45;&gt;Node7 -->
<g id="edge12" class="edge"><title>Node2&#45;&gt;Node7</title>
<path fill="none" stroke="midnightblue" d="M369.619,-151.445C404.713,-140.912 459.777,-124.033 507,-108 510.754,-106.725 514.657,-105.361 518.547,-103.974"/>
<polygon fill="midnightblue" stroke="midnightblue" points="519.885,-107.212 528.1,-100.52 517.505,-100.629 519.885,-107.212"/>
</g>
<!-- Node7&#45;&gt;Node4 -->
<g id="edge22" class="edge"><title>Node7&#45;&gt;Node4</title>
<path fill="none" stroke="midnightblue" d="M530.657,-79.4373C523.15,-76.6521 514.839,-73.8982 507,-72 383.557,-42.1098 345.457,-61.7609 217.736,-36.1658"/>
<polygon fill="midnightblue" stroke="midnightblue" points="218.069,-32.661 207.568,-34.0716 216.657,-39.5171 218.069,-32.661"/>
</g>
<!-- Node8 -->
<g id="node15" class="node"><title>Node8</title>
<polygon fill="white" stroke="#bfbfbf" points="225,-7.5 225,-28.5 371,-28.5 371,-7.5 225,-7.5"/>
<text text-anchor="middle" x="298" y="-15.5" font-family="Helvetica,sans-Serif" font-size="10.00">mars/interfaces/MARSDefs.h</text>
</g>
<!-- Node7&#45;&gt;Node8 -->
<g id="edge14" class="edge"><title>Node7&#45;&gt;Node8</title>
<path fill="none" stroke="midnightblue" d="M528.694,-79.425C521.671,-76.8558 514.094,-74.2135 507,-72 455.664,-55.9823 396.212,-40.9549 353.872,-30.8403"/>
<polygon fill="midnightblue" stroke="midnightblue" points="354.57,-27.4088 344.032,-28.5044 352.953,-34.2195 354.57,-27.4088"/>
</g>
<!-- Node7&#45;&gt;Node9 -->
<g id="edge16" class="edge"><title>Node7&#45;&gt;Node9</title>
<path fill="none" stroke="midnightblue" d="M574.592,-79.3762C592.601,-69.0853 620.46,-53.1655 643.293,-40.1184"/>
<polygon fill="midnightblue" stroke="midnightblue" points="645.139,-43.0947 652.085,-35.0944 641.666,-37.017 645.139,-43.0947"/>
</g>
<!-- Node10 -->
<g id="node19" class="node"><title>Node10</title>
<polygon fill="white" stroke="#bfbfbf" points="388.5,-1 388.5,-35 491.5,-35 491.5,-1 388.5,-1"/>
<text text-anchor="start" x="396.5" y="-22" font-family="Helvetica,sans-Serif" font-size="10.00">mars/interfaces/sim</text>
<text text-anchor="middle" x="440" y="-9" font-family="Helvetica,sans-Serif" font-size="10.00">/ControlCenter.h</text>
</g>
<!-- Node7&#45;&gt;Node10 -->
<g id="edge18" class="edge"><title>Node7&#45;&gt;Node10</title>
<path fill="none" stroke="midnightblue" d="M538.884,-79.3762C522.451,-69.1763 497.109,-53.4469 476.194,-40.4655"/>
<polygon fill="midnightblue" stroke="midnightblue" points="477.883,-37.3943 467.541,-35.0944 474.192,-43.3418 477.883,-37.3943"/>
</g>
<!-- Node11 -->
<g id="node21" class="node"><title>Node11</title>
<polygon fill="white" stroke="#bfbfbf" points="508.5,-1 508.5,-35 611.5,-35 611.5,-1 508.5,-1"/>
<text text-anchor="start" x="516.5" y="-22" font-family="Helvetica,sans-Serif" font-size="10.00">mars/interfaces/sim</text>
<text text-anchor="middle" x="560" y="-9" font-family="Helvetica,sans-Serif" font-size="10.00">/LoadCenter.h</text>
</g>
<!-- Node7&#45;&gt;Node11 -->
<g id="edge20" class="edge"><title>Node7&#45;&gt;Node11</title>
<path fill="none" stroke="midnightblue" d="M556.59,-79.3762C557.091,-70.3602 557.832,-57.0239 558.495,-45.0839"/>
<polygon fill="midnightblue" stroke="midnightblue" points="561.99,-45.2732 559.05,-35.0944 555.001,-44.8848 561.99,-45.2732"/>
</g>
</g>
</svg>
