<?xml version="1.0" encoding="UTF-8" standalone="no"?>
<!DOCTYPE svg PUBLIC "-//W3C//DTD SVG 1.1//EN"
 "http://www.w3.org/Graphics/SVG/1.1/DTD/svg11.dtd">
<!-- Generated by graphviz version 2.36.0 (20140111.2315)
 -->
<!-- Title: /media/kavonszadkowski/work/marsdocs/mars/sim/src/sensors/JointArraySensor.cpp Pages: 1 -->
<svg width="1105pt" height="254pt"
 viewBox="0.00 0.00 1105.00 254.00" xmlns="http://www.w3.org/2000/svg" xmlns:xlink="http://www.w3.org/1999/xlink">
<g id="graph0" class="graph" transform="scale(1 1) rotate(0) translate(4 250)">
<title>/media/kavonszadkowski/work/marsdocs/mars/sim/src/sensors/JointArraySensor.cpp</title>
<polygon fill="white" stroke="none" points="-4,4 -4,-250 1101,-250 1101,4 -4,4"/>
<!-- Node1 -->
<g id="node1" class="node"><title>Node1</title>
<polygon fill="#bfbfbf" stroke="black" points="739.5,-204.5 739.5,-245.5 906.5,-245.5 906.5,-204.5 739.5,-204.5"/>
<text text-anchor="start" x="747.5" y="-233.5" font-family="Helvetica,sans-Serif" font-size="10.00">/media/kavonszadkowski</text>
<text text-anchor="start" x="747.5" y="-222.5" font-family="Helvetica,sans-Serif" font-size="10.00">/work/marsdocs/mars/sim</text>
<text text-anchor="middle" x="823" y="-211.5" font-family="Helvetica,sans-Serif" font-size="10.00">/src/sensors/JointArraySensor.cpp</text>
</g>
<!-- Node2 -->
<g id="node2" class="node"><title>Node2</title>
<g id="a_node2"><a xlink:href="../../d9/de3/_joint_array_sensor_8h.html" target="_top" xlink:title="JointArraySensor.h">
<polygon fill="white" stroke="black" points="284,-142.5 284,-161.5 384,-161.5 384,-142.5 284,-142.5"/>
<text text-anchor="middle" x="334" y="-149.5" font-family="Helvetica,sans-Serif" font-size="10.00">JointArraySensor.h</text>
</a>
</g>
</g>
<!-- Node1&#45;&gt;Node2 -->
<g id="edge1" class="edge"><title>Node1&#45;&gt;Node2</title>
<path fill="none" stroke="midnightblue" d="M739.494,-211.875C641.359,-197.627 480.934,-174.334 394.206,-161.742"/>
<polygon fill="midnightblue" stroke="midnightblue" points="394.659,-158.271 384.26,-160.297 393.653,-165.198 394.659,-158.271"/>
</g>
<!-- Node9 -->
<g id="node9" class="node"><title>Node9</title>
<polygon fill="white" stroke="#bfbfbf" points="632.5,-1 632.5,-31 739.5,-31 739.5,-1 632.5,-1"/>
<text text-anchor="start" x="640.5" y="-19" font-family="Helvetica,sans-Serif" font-size="10.00">mars/interfaces/sim</text>
<text text-anchor="middle" x="686" y="-8" font-family="Helvetica,sans-Serif" font-size="10.00">/SimulatorInterface.h</text>
</g>
<!-- Node1&#45;&gt;Node9 -->
<g id="edge13" class="edge"><title>Node1&#45;&gt;Node9</title>
<path fill="none" stroke="midnightblue" d="M739.395,-211.147C714.55,-202.999 689.99,-189.699 675,-168 648.578,-129.752 663.914,-72.282 675.921,-40.4045"/>
<polygon fill="midnightblue" stroke="midnightblue" points="679.213,-41.5967 679.645,-31.0107 672.706,-39.0168 679.213,-41.5967"/>
</g>
<!-- Node12 -->
<g id="node12" class="node"><title>Node12</title>
<polygon fill="white" stroke="#bfbfbf" points="684.5,-137 684.5,-167 809.5,-167 809.5,-137 684.5,-137"/>
<text text-anchor="start" x="692.5" y="-155" font-family="Helvetica,sans-Serif" font-size="10.00">mars/interfaces/sim</text>
<text text-anchor="middle" x="747" y="-144" font-family="Helvetica,sans-Serif" font-size="10.00">/JointManagerInterface.h</text>
</g>
<!-- Node1&#45;&gt;Node12 -->
<g id="edge12" class="edge"><title>Node1&#45;&gt;Node12</title>
<path fill="none" stroke="midnightblue" d="M801.83,-204.223C791.75,-194.806 779.69,-183.539 769.45,-173.973"/>
<polygon fill="midnightblue" stroke="midnightblue" points="771.735,-171.318 762.038,-167.049 766.956,-176.433 771.735,-171.318"/>
</g>
<!-- Node13 -->
<g id="node13" class="node"><title>Node13</title>
<polygon fill="white" stroke="#bfbfbf" points="827.5,-137 827.5,-167 972.5,-167 972.5,-137 827.5,-137"/>
<text text-anchor="start" x="835.5" y="-155" font-family="Helvetica,sans-Serif" font-size="10.00">mars/data_broker/DataBroker</text>
<text text-anchor="middle" x="900" y="-144" font-family="Helvetica,sans-Serif" font-size="10.00">Interface.h</text>
</g>
<!-- Node1&#45;&gt;Node13 -->
<g id="edge14" class="edge"><title>Node1&#45;&gt;Node13</title>
<path fill="none" stroke="midnightblue" d="M844.449,-204.223C854.661,-194.806 866.88,-183.539 877.254,-173.973"/>
<polygon fill="midnightblue" stroke="midnightblue" points="879.785,-176.4 884.764,-167.049 875.04,-171.254 879.785,-176.4"/>
</g>
<!-- Node14 -->
<g id="node14" class="node"><title>Node14</title>
<polygon fill="white" stroke="#bfbfbf" points="990.5,-142.5 990.5,-161.5 1035.5,-161.5 1035.5,-142.5 990.5,-142.5"/>
<text text-anchor="middle" x="1013" y="-149.5" font-family="Helvetica,sans-Serif" font-size="10.00">cstdlib</text>
</g>
<!-- Node1&#45;&gt;Node14 -->
<g id="edge15" class="edge"><title>Node1&#45;&gt;Node14</title>
<path fill="none" stroke="midnightblue" d="M882.417,-204.478C912.262,-194.284 948.827,-181.205 981,-168 982.639,-167.327 984.315,-166.616 986,-165.882"/>
<polygon fill="midnightblue" stroke="midnightblue" points="987.867,-168.879 995.532,-161.565 984.979,-162.502 987.867,-168.879"/>
</g>
<!-- Node15 -->
<g id="node15" class="node"><title>Node15</title>
<polygon fill="white" stroke="#bfbfbf" points="1053.5,-142.5 1053.5,-161.5 1096.5,-161.5 1096.5,-142.5 1053.5,-142.5"/>
<text text-anchor="middle" x="1075" y="-149.5" font-family="Helvetica,sans-Serif" font-size="10.00">cstdio</text>
</g>
<!-- Node1&#45;&gt;Node15 -->
<g id="edge16" class="edge"><title>Node1&#45;&gt;Node15</title>
<path fill="none" stroke="midnightblue" d="M906.586,-207.026C948.452,-197.47 999.559,-184.193 1044,-168 1045.85,-167.325 1047.74,-166.574 1049.63,-165.779"/>
<polygon fill="midnightblue" stroke="midnightblue" points="1051.21,-168.906 1058.86,-161.574 1048.31,-162.537 1051.21,-168.906"/>
</g>
<!-- Node3 -->
<g id="node3" class="node"><title>Node3</title>
<polygon fill="white" stroke="#bfbfbf" points="0,-74.5 0,-93.5 128,-93.5 128,-74.5 0,-74.5"/>
<text text-anchor="middle" x="64" y="-81.5" font-family="Helvetica,sans-Serif" font-size="10.00">configmaps/ConfigData.h</text>
</g>
<!-- Node2&#45;&gt;Node3 -->
<g id="edge2" class="edge"><title>Node2&#45;&gt;Node3</title>
<path fill="none" stroke="midnightblue" d="M298.979,-142.439C250.32,-130.545 162.236,-109.013 108.832,-95.959"/>
<polygon fill="midnightblue" stroke="midnightblue" points="109.504,-92.5202 98.9589,-93.5455 107.842,-99.32 109.504,-92.5202"/>
</g>
<!-- Node4 -->
<g id="node4" class="node"><title>Node4</title>
<polygon fill="white" stroke="#bfbfbf" points="104.5,-1 104.5,-31 207.5,-31 207.5,-1 104.5,-1"/>
<text text-anchor="start" x="112.5" y="-19" font-family="Helvetica,sans-Serif" font-size="10.00">mars/interfaces/sim</text>
<text text-anchor="middle" x="156" y="-8" font-family="Helvetica,sans-Serif" font-size="10.00">/SensorInterface.h</text>
</g>
<!-- Node2&#45;&gt;Node4 -->
<g id="edge3" class="edge"><title>Node2&#45;&gt;Node4</title>
<path fill="none" stroke="midnightblue" d="M283.679,-147.653C248.393,-142.611 202.742,-130.217 175,-100 160.527,-84.2353 156.347,-59.7566 155.447,-41.4615"/>
<polygon fill="midnightblue" stroke="midnightblue" points="158.942,-41.1889 155.245,-31.26 151.944,-41.3273 158.942,-41.1889"/>
</g>
<!-- Node5 -->
<g id="node5" class="node"><title>Node5</title>
<polygon fill="white" stroke="#bfbfbf" points="184,-69 184,-99 318,-99 318,-69 184,-69"/>
<text text-anchor="start" x="192" y="-87" font-family="Helvetica,sans-Serif" font-size="10.00">mars/data_broker/Receiver</text>
<text text-anchor="middle" x="251" y="-76" font-family="Helvetica,sans-Serif" font-size="10.00">Interface.h</text>
</g>
<!-- Node2&#45;&gt;Node5 -->
<g id="edge4" class="edge"><title>Node2&#45;&gt;Node5</title>
<path fill="none" stroke="midnightblue" d="M323.149,-142.372C311.507,-133.114 292.595,-118.076 277.054,-105.718"/>
<polygon fill="midnightblue" stroke="midnightblue" points="278.84,-102.666 268.834,-99.1815 274.483,-108.145 278.84,-102.666"/>
</g>
<!-- Node6 -->
<g id="node6" class="node"><title>Node6</title>
<polygon fill="white" stroke="#bfbfbf" points="336.5,-74.5 336.5,-93.5 499.5,-93.5 499.5,-74.5 336.5,-74.5"/>
<text text-anchor="middle" x="418" y="-81.5" font-family="Helvetica,sans-Serif" font-size="10.00">mars/data_broker/DataPackage.h</text>
</g>
<!-- Node2&#45;&gt;Node6 -->
<g id="edge5" class="edge"><title>Node2&#45;&gt;Node6</title>
<path fill="none" stroke="midnightblue" d="M344.982,-142.372C358.69,-131.6 382.361,-113.002 399.028,-99.9065"/>
<polygon fill="midnightblue" stroke="midnightblue" points="401.315,-102.561 407.016,-93.6305 396.99,-97.0566 401.315,-102.561"/>
</g>
<!-- Node7 -->
<g id="node7" class="node"><title>Node7</title>
<g id="a_node7"><a xlink:href="../../d5/df7/_i_d_list_config_8h.html" target="_top" xlink:title="IDListConfig.h">
<polygon fill="white" stroke="black" points="518,-74.5 518,-93.5 598,-93.5 598,-74.5 518,-74.5"/>
<text text-anchor="middle" x="558" y="-81.5" font-family="Helvetica,sans-Serif" font-size="10.00">IDListConfig.h</text>
</a>
</g>
</g>
<!-- Node2&#45;&gt;Node7 -->
<g id="edge6" class="edge"><title>Node2&#45;&gt;Node7</title>
<path fill="none" stroke="midnightblue" d="M363.264,-142.484C397.855,-132.404 457.147,-115.081 508,-100 511.849,-98.8586 515.863,-97.6631 519.869,-96.4664"/>
<polygon fill="midnightblue" stroke="midnightblue" points="521.139,-99.7398 529.716,-93.5193 519.132,-93.0338 521.139,-99.7398"/>
</g>
<!-- Node7&#45;&gt;Node4 -->
<g id="edge11" class="edge"><title>Node7&#45;&gt;Node4</title>
<path fill="none" stroke="midnightblue" d="M532.52,-74.4537C524.721,-72.0831 516.071,-69.6972 508,-68 383.584,-41.8363 346.943,-54.921 217.704,-31.9764"/>
<polygon fill="midnightblue" stroke="midnightblue" points="218.288,-28.5254 207.824,-30.185 217.039,-35.4131 218.288,-28.5254"/>
</g>
<!-- Node8 -->
<g id="node8" class="node"><title>Node8</title>
<polygon fill="white" stroke="#bfbfbf" points="226,-6.5 226,-25.5 372,-25.5 372,-6.5 226,-6.5"/>
<text text-anchor="middle" x="299" y="-13.5" font-family="Helvetica,sans-Serif" font-size="10.00">mars/interfaces/MARSDefs.h</text>
</g>
<!-- Node7&#45;&gt;Node8 -->
<g id="edge7" class="edge"><title>Node7&#45;&gt;Node8</title>
<path fill="none" stroke="midnightblue" d="M530.566,-74.4893C523.255,-72.2982 515.346,-69.9968 508,-68 452.778,-52.99 388.792,-37.6786 346.313,-27.8032"/>
<polygon fill="midnightblue" stroke="midnightblue" points="347.059,-24.3834 336.527,-25.5359 345.479,-31.2027 347.059,-24.3834"/>
</g>
<!-- Node7&#45;&gt;Node9 -->
<g id="edge8" class="edge"><title>Node7&#45;&gt;Node9</title>
<path fill="none" stroke="midnightblue" d="M574.734,-74.3717C593.602,-64.6429 624.853,-48.5289 649.44,-35.8515"/>
<polygon fill="midnightblue" stroke="midnightblue" points="651.213,-38.8752 658.497,-31.1815 648.005,-32.6536 651.213,-38.8752"/>
</g>
<!-- Node10 -->
<g id="node10" class="node"><title>Node10</title>
<polygon fill="white" stroke="#bfbfbf" points="390.5,-1 390.5,-31 493.5,-31 493.5,-1 390.5,-1"/>
<text text-anchor="start" x="398.5" y="-19" font-family="Helvetica,sans-Serif" font-size="10.00">mars/interfaces/sim</text>
<text text-anchor="middle" x="442" y="-8" font-family="Helvetica,sans-Serif" font-size="10.00">/ControlCenter.h</text>
</g>
<!-- Node7&#45;&gt;Node10 -->
<g id="edge9" class="edge"><title>Node7&#45;&gt;Node10</title>
<path fill="none" stroke="midnightblue" d="M542.835,-74.3717C525.887,-64.7286 497.913,-48.8124 475.723,-36.1874"/>
<polygon fill="midnightblue" stroke="midnightblue" points="477.347,-33.0847 466.925,-31.1815 473.886,-39.1688 477.347,-33.0847"/>
</g>
<!-- Node11 -->
<g id="node11" class="node"><title>Node11</title>
<polygon fill="white" stroke="#bfbfbf" points="511.5,-1 511.5,-31 614.5,-31 614.5,-1 511.5,-1"/>
<text text-anchor="start" x="519.5" y="-19" font-family="Helvetica,sans-Serif" font-size="10.00">mars/interfaces/sim</text>
<text text-anchor="middle" x="563" y="-8" font-family="Helvetica,sans-Serif" font-size="10.00">/LoadCenter.h</text>
</g>
<!-- Node7&#45;&gt;Node11 -->
<g id="edge10" class="edge"><title>Node7&#45;&gt;Node11</title>
<path fill="none" stroke="midnightblue" d="M558.654,-74.3717C559.29,-65.9715 560.287,-52.811 561.166,-41.2126"/>
<polygon fill="midnightblue" stroke="midnightblue" points="564.66,-41.4173 561.926,-31.1815 557.68,-40.8885 564.66,-41.4173"/>
</g>
</g>
</svg>
