<?xml version="1.0" encoding="UTF-8" standalone="no"?>
<!DOCTYPE svg PUBLIC "-//W3C//DTD SVG 1.1//EN"
 "http://www.w3.org/Graphics/SVG/1.1/DTD/svg11.dtd">
<!-- Generated by graphviz version 2.36.0 (20140111.2315)
 -->
<!-- Title: /media/kavonszadkowski/work/marsdocs/mars/common/graphics/osg_text/src/Text.cpp Pages: 1 -->
<svg width="630pt" height="218pt"
 viewBox="0.00 0.00 630.00 218.00" xmlns="http://www.w3.org/2000/svg" xmlns:xlink="http://www.w3.org/1999/xlink">
<g id="graph0" class="graph" transform="scale(1 1) rotate(0) translate(4 214)">
<title>/media/kavonszadkowski/work/marsdocs/mars/common/graphics/osg_text/src/Text.cpp</title>
<polygon fill="white" stroke="none" points="-4,4 -4,-214 626,-214 626,4 -4,4"/>
<!-- Node1 -->
<g id="node1" class="node"><title>Node1</title>
<polygon fill="#bfbfbf" stroke="black" points="277.5,-168.5 277.5,-209.5 432.5,-209.5 432.5,-168.5 277.5,-168.5"/>
<text text-anchor="start" x="285.5" y="-197.5" font-family="Helvetica,sans-Serif" font-size="10.00">/media/kavonszadkowski</text>
<text text-anchor="start" x="285.5" y="-186.5" font-family="Helvetica,sans-Serif" font-size="10.00">/work/marsdocs/mars/common</text>
<text text-anchor="middle" x="355" y="-175.5" font-family="Helvetica,sans-Serif" font-size="10.00">/graphics/osg_text/src/Text.cpp</text>
</g>
<!-- Node2 -->
<g id="node2" class="node"><title>Node2</title>
<g id="a_node2"><a xlink:href="../../d4/dcf/_text_8h.html" target="_top" xlink:title="This library wraps the osgText lib and adds the possiblity to use an background color and border for ...">
<polygon fill="white" stroke="black" points="171,-112.5 171,-131.5 215,-131.5 215,-112.5 171,-112.5"/>
<text text-anchor="middle" x="193" y="-119.5" font-family="Helvetica,sans-Serif" font-size="10.00">Text.h</text>
</a>
</g>
</g>
<!-- Node1&#45;&gt;Node2 -->
<g id="edge1" class="edge"><title>Node1&#45;&gt;Node2</title>
<path fill="none" stroke="midnightblue" d="M306.395,-168.498C279.646,-157.766 247.255,-144.769 223.952,-135.419"/>
<polygon fill="midnightblue" stroke="midnightblue" points="225.149,-132.128 214.565,-131.652 222.542,-138.625 225.149,-132.128"/>
</g>
<!-- Node8 -->
<g id="node8" class="node"><title>Node8</title>
<polygon fill="white" stroke="#bfbfbf" points="233,-112.5 233,-131.5 297,-131.5 297,-112.5 233,-112.5"/>
<text text-anchor="middle" x="265" y="-119.5" font-family="Helvetica,sans-Serif" font-size="10.00">osg/Geode</text>
</g>
<!-- Node1&#45;&gt;Node8 -->
<g id="edge8" class="edge"><title>Node1&#45;&gt;Node8</title>
<path fill="none" stroke="midnightblue" d="M327.997,-168.498C314.331,-158.628 298.014,-146.843 285.41,-137.741"/>
<polygon fill="midnightblue" stroke="midnightblue" points="287.136,-134.67 276.98,-131.652 283.038,-140.345 287.136,-134.67"/>
</g>
<!-- Node9 -->
<g id="node9" class="node"><title>Node9</title>
<polygon fill="white" stroke="#bfbfbf" points="315.5,-112.5 315.5,-131.5 394.5,-131.5 394.5,-112.5 315.5,-112.5"/>
<text text-anchor="middle" x="355" y="-119.5" font-family="Helvetica,sans-Serif" font-size="10.00">osg/LineWidth</text>
</g>
<!-- Node1&#45;&gt;Node9 -->
<g id="edge9" class="edge"><title>Node1&#45;&gt;Node9</title>
<path fill="none" stroke="midnightblue" d="M355,-168.498C355,-160.065 355,-150.235 355,-141.874"/>
<polygon fill="midnightblue" stroke="midnightblue" points="358.5,-141.652 355,-131.652 351.5,-141.653 358.5,-141.652"/>
</g>
<!-- Node10 -->
<g id="node10" class="node"><title>Node10</title>
<polygon fill="white" stroke="#bfbfbf" points="412.5,-112.5 412.5,-131.5 561.5,-131.5 561.5,-112.5 412.5,-112.5"/>
<text text-anchor="middle" x="487" y="-119.5" font-family="Helvetica,sans-Serif" font-size="10.00">osg/PositionAttitudeTransform</text>
</g>
<!-- Node1&#45;&gt;Node10 -->
<g id="edge10" class="edge"><title>Node1&#45;&gt;Node10</title>
<path fill="none" stroke="midnightblue" d="M394.604,-168.498C415.815,-158.053 441.381,-145.464 460.238,-136.178"/>
<polygon fill="midnightblue" stroke="midnightblue" points="462.004,-139.21 469.429,-131.652 458.911,-132.93 462.004,-139.21"/>
</g>
<!-- Node11 -->
<g id="node11" class="node"><title>Node11</title>
<polygon fill="white" stroke="#bfbfbf" points="579.5,-112.5 579.5,-131.5 622.5,-131.5 622.5,-112.5 579.5,-112.5"/>
<text text-anchor="middle" x="601" y="-119.5" font-family="Helvetica,sans-Serif" font-size="10.00">cstdio</text>
</g>
<!-- Node1&#45;&gt;Node11 -->
<g id="edge11" class="edge"><title>Node1&#45;&gt;Node11</title>
<path fill="none" stroke="midnightblue" d="M432.008,-168.494C470.563,-158.597 518.177,-146.18 569.395,-132.111"/>
<polygon fill="midnightblue" stroke="midnightblue" points="570.63,-135.402 579.342,-129.371 568.771,-128.653 570.63,-135.402"/>
</g>
<!-- Node3 -->
<g id="node3" class="node"><title>Node3</title>
<g id="a_node3"><a xlink:href="../../dc/d37/_text_interface_8h.html" target="_top" xlink:title="This library wraps the osgText lib and adds the possiblity to use an background color and border for ...">
<polygon fill="white" stroke="black" points="-0.5,-56.5 -0.5,-75.5 82.5,-75.5 82.5,-56.5 -0.5,-56.5"/>
<text text-anchor="middle" x="41" y="-63.5" font-family="Helvetica,sans-Serif" font-size="10.00">TextInterface.h</text>
</a>
</g>
</g>
<!-- Node2&#45;&gt;Node3 -->
<g id="edge2" class="edge"><title>Node2&#45;&gt;Node3</title>
<path fill="none" stroke="midnightblue" d="M170.898,-113.148C145.598,-104.16 103.882,-89.3395 74.5641,-78.9241"/>
<polygon fill="midnightblue" stroke="midnightblue" points="75.7334,-75.6252 65.1386,-75.5756 73.39,-82.2213 75.7334,-75.6252"/>
</g>
<!-- Node4 -->
<g id="node4" class="node"><title>Node4</title>
<polygon fill="white" stroke="#bfbfbf" points="55.5,-0.5 55.5,-19.5 96.5,-19.5 96.5,-0.5 55.5,-0.5"/>
<text text-anchor="middle" x="76" y="-7.5" font-family="Helvetica,sans-Serif" font-size="10.00">string</text>
</g>
<!-- Node2&#45;&gt;Node4 -->
<g id="edge7" class="edge"><title>Node2&#45;&gt;Node4</title>
<path fill="none" stroke="midnightblue" d="M178.971,-112.227C165.903,-103.738 146.207,-90.1154 131,-76 114.825,-60.9857 98.8097,-41.3765 88.2696,-27.6384"/>
<polygon fill="midnightblue" stroke="midnightblue" points="91.0002,-25.4462 82.1872,-19.5656 85.4095,-29.6586 91.0002,-25.4462"/>
</g>
<!-- Node5 -->
<g id="node5" class="node"><title>Node5</title>
<polygon fill="white" stroke="#bfbfbf" points="139.5,-56.5 139.5,-75.5 246.5,-75.5 246.5,-56.5 139.5,-56.5"/>
<text text-anchor="middle" x="193" y="-63.5" font-family="Helvetica,sans-Serif" font-size="10.00">osg/MatrixTransform</text>
</g>
<!-- Node2&#45;&gt;Node5 -->
<g id="edge4" class="edge"><title>Node2&#45;&gt;Node5</title>
<path fill="none" stroke="midnightblue" d="M193,-112.083C193,-105.006 193,-94.8611 193,-85.9865"/>
<polygon fill="midnightblue" stroke="midnightblue" points="196.5,-85.751 193,-75.7511 189.5,-85.7511 196.5,-85.751"/>
</g>
<!-- Node6 -->
<g id="node6" class="node"><title>Node6</title>
<polygon fill="white" stroke="#bfbfbf" points="265,-56.5 265,-75.5 343,-75.5 343,-56.5 265,-56.5"/>
<text text-anchor="middle" x="304" y="-63.5" font-family="Helvetica,sans-Serif" font-size="10.00">osg/Geometry</text>
</g>
<!-- Node2&#45;&gt;Node6 -->
<g id="edge5" class="edge"><title>Node2&#45;&gt;Node6</title>
<path fill="none" stroke="midnightblue" d="M210.834,-112.324C228.716,-103.625 256.475,-90.1202 277.046,-80.113"/>
<polygon fill="midnightblue" stroke="midnightblue" points="278.749,-83.1765 286.21,-75.6545 275.687,-76.8819 278.749,-83.1765"/>
</g>
<!-- Node7 -->
<g id="node7" class="node"><title>Node7</title>
<polygon fill="white" stroke="#bfbfbf" points="361,-56.5 361,-75.5 435,-75.5 435,-56.5 361,-56.5"/>
<text text-anchor="middle" x="398" y="-63.5" font-family="Helvetica,sans-Serif" font-size="10.00">osgText/Text</text>
</g>
<!-- Node2&#45;&gt;Node7 -->
<g id="edge6" class="edge"><title>Node2&#45;&gt;Node7</title>
<path fill="none" stroke="midnightblue" d="M215.329,-114.432C218.242,-113.6 221.19,-112.771 224,-112 267.955,-99.9383 318.403,-86.9894 353.622,-78.0933"/>
<polygon fill="midnightblue" stroke="midnightblue" points="354.744,-81.42 363.585,-75.5821 353.033,-74.6323 354.744,-81.42"/>
</g>
<!-- Node3&#45;&gt;Node4 -->
<g id="edge3" class="edge"><title>Node3&#45;&gt;Node4</title>
<path fill="none" stroke="midnightblue" d="M46.7795,-56.083C51.6724,-48.5341 58.8274,-37.4948 64.8326,-28.2298"/>
<polygon fill="midnightblue" stroke="midnightblue" points="67.826,-30.0463 70.328,-19.7511 61.952,-26.239 67.826,-30.0463"/>
</g>
</g>
</svg>
