<?xml version="1.0" encoding="UTF-8" standalone="no"?>
<!DOCTYPE svg PUBLIC "-//W3C//DTD SVG 1.1//EN"
 "http://www.w3.org/Graphics/SVG/1.1/DTD/svg11.dtd">
<!-- Generated by graphviz version 2.26.3 (20100126.1600)
 -->
<!-- Title: mars::gui::CameraConfiguratorGUI Pages: 1 -->
<svg width="1008pt" height="874pt"
 viewBox="0.00 0.00 1008.00 874.00" xmlns="http://www.w3.org/2000/svg" xmlns:xlink="http://www.w3.org/1999/xlink">
<g id="graph1" class="graph" transform="scale(1 1) rotate(0) translate(4 870)">
<title>mars::gui::CameraConfiguratorGUI</title>
<polygon fill="white" stroke="white" points="-4,5 -4,-870 1005,-870 1005,5 -4,5"/>
<!-- Node1 -->
<g id="node1" class="node"><title>Node1</title>
<polygon fill="#bfbfbf" stroke="black" points="830.5,-346.5 830.5,-367.5 999.5,-367.5 999.5,-346.5 830.5,-346.5"/>
<text text-anchor="middle" x="915" y="-354.5" font-family="Helvetica,sans-Serif" font-size="10.00">mars::gui::CameraConfiguratorGUI</text>
</g>
<!-- Node2 -->
<g id="node2" class="node"><title>Node2</title>
<a xlink:href="../../d4/dcf/classmars_1_1main__gui_1_1_base_widget.html" target="_top" xlink:title="mars::main_gui::BaseWidget">
<polygon fill="white" stroke="black" points="612.5,-716.5 612.5,-737.5 755.5,-737.5 755.5,-716.5 612.5,-716.5"/>
<text text-anchor="middle" x="684" y="-724.5" font-family="Helvetica,sans-Serif" font-size="10.00">mars::main_gui::BaseWidget</text>
</a>
</g>
<!-- Node2&#45;&gt;Node1 -->
<g id="edge2" class="edge"><title>Node2&#45;&gt;Node1</title>
<path fill="none" stroke="midnightblue" d="M698.41,-708.025C722.906,-675.447 773.73,-606.44 812,-545 852.73,-479.61 894.936,-397.049 909.601,-367.839"/>
<polygon fill="midnightblue" stroke="midnightblue" points="695.462,-706.121 692.231,-716.211 701.049,-710.338 695.462,-706.121"/>
</g>
<!-- Node3 -->
<g id="node4" class="node"><title>Node3</title>
<polygon fill="white" stroke="#bfbfbf" points="318.5,-844.5 318.5,-865.5 373.5,-865.5 373.5,-844.5 318.5,-844.5"/>
<text text-anchor="middle" x="346" y="-852.5" font-family="Helvetica,sans-Serif" font-size="10.00">QWidget</text>
</g>
<!-- Node3&#45;&gt;Node2 -->
<g id="edge4" class="edge"><title>Node3&#45;&gt;Node2</title>
<path fill="none" stroke="midnightblue" d="M383.951,-852.82C434.276,-848.671 524.793,-836.771 594,-803 627.818,-786.498 659.517,-754.456 674.672,-737.738"/>
<polygon fill="midnightblue" stroke="midnightblue" points="383.548,-849.34 373.844,-853.593 384.082,-856.32 383.548,-849.34"/>
</g>
<!-- Node4 -->
<g id="node6" class="node"><title>Node4</title>
<a xlink:href="../../d4/d1a/classmars_1_1cfg__manager_1_1_c_f_g_client.html" target="_top" xlink:title="mars::cfg_manager::\lCFGClient">
<polygon fill="white" stroke="black" points="292.5,-792 292.5,-826 399.5,-826 399.5,-792 292.5,-792"/>
<text text-anchor="start" x="300.5" y="-813" font-family="Helvetica,sans-Serif" font-size="10.00">mars::cfg_manager::</text>
<text text-anchor="middle" x="346" y="-800" font-family="Helvetica,sans-Serif" font-size="10.00">CFGClient</text>
</a>
</g>
<!-- Node4&#45;&gt;Node2 -->
<g id="edge6" class="edge"><title>Node4&#45;&gt;Node2</title>
<path fill="none" stroke="midnightblue" d="M410.149,-806.417C461.052,-802.9 533.465,-794.598 594,-775 621.63,-766.055 650.795,-748.871 668.189,-737.676"/>
<polygon fill="midnightblue" stroke="midnightblue" points="409.699,-802.939 399.946,-807.078 410.151,-809.924 409.699,-802.939"/>
</g>
<!-- Node5 -->
<g id="node8" class="node"><title>Node5</title>
<a xlink:href="../../dc/dc3/structmars_1_1cfg__manager_1_1cfg_property_struct.html" target="_top" xlink:title="mars::cfg_manager::\lcfgPropertyStruct">
<polygon fill="white" stroke="black" points="292.5,-690 292.5,-724 399.5,-724 399.5,-690 292.5,-690"/>
<text text-anchor="start" x="300.5" y="-711" font-family="Helvetica,sans-Serif" font-size="10.00">mars::cfg_manager::</text>
<text text-anchor="middle" x="346" y="-698" font-family="Helvetica,sans-Serif" font-size="10.00">cfgPropertyStruct</text>
</a>
</g>
<!-- Node5&#45;&gt;Node2 -->
<g id="edge8" class="edge"><title>Node5&#45;&gt;Node2</title>
<path fill="none" stroke="#9a32cd" stroke-dasharray="5,2" d="M409.721,-696.325C460.093,-689.706 532.004,-684.306 594,-695 617.696,-699.087 643.422,-708.811 661.277,-716.474"/>
<polygon fill="#9a32cd" stroke="#9a32cd" points="409.061,-692.882 399.627,-697.705 410.009,-699.818 409.061,-692.882"/>
<text text-anchor="middle" x="518" y="-738" font-family="Helvetica,sans-Serif" font-size="10.00"> wTop</text>
<text text-anchor="middle" x="518" y="-725" font-family="Helvetica,sans-Serif" font-size="10.00">wWidth</text>
<text text-anchor="middle" x="518" y="-712" font-family="Helvetica,sans-Serif" font-size="10.00">wHeight</text>
<text text-anchor="middle" x="518" y="-699" font-family="Helvetica,sans-Serif" font-size="10.00">wLeft</text>
</g>
<!-- Node6 -->
<g id="node10" class="node"><title>Node6</title>
<polygon fill="white" stroke="#bfbfbf" points="60.5,-696.5 60.5,-717.5 101.5,-717.5 101.5,-696.5 60.5,-696.5"/>
<text text-anchor="middle" x="81" y="-704.5" font-family="Helvetica,sans-Serif" font-size="10.00">string</text>
</g>
<!-- Node6&#45;&gt;Node2 -->
<g id="edge16" class="edge"><title>Node6&#45;&gt;Node2</title>
<path fill="none" stroke="#9a32cd" stroke-dasharray="5,2" d="M111.65,-712.818C131.165,-716.384 157.006,-720.854 180,-724 362.582,-748.983 410.817,-767.108 594,-747 611.024,-745.131 629.54,-741.331 645.327,-737.54"/>
<polygon fill="#9a32cd" stroke="#9a32cd" points="112.265,-709.372 101.795,-710.995 110.992,-716.256 112.265,-709.372"/>
<text text-anchor="middle" x="346" y="-758" font-family="Helvetica,sans-Serif" font-size="10.00"> widgetName</text>
</g>
<!-- Node6&#45;&gt;Node5 -->
<g id="edge10" class="edge"><title>Node6&#45;&gt;Node5</title>
<path fill="none" stroke="#9a32cd" stroke-dasharray="5,2" d="M111.937,-707C156.205,-707 238.251,-707 292.488,-707"/>
<polygon fill="#9a32cd" stroke="#9a32cd" points="111.794,-703.5 101.794,-707 111.794,-710.5 111.794,-703.5"/>
<text text-anchor="middle" x="215" y="-711" font-family="Helvetica,sans-Serif" font-size="10.00"> sValue</text>
</g>
<!-- Node12 -->
<g id="node24" class="node"><title>Node12</title>
<a xlink:href="../../d4/d6b/structmars_1_1gui_1_1_camera_configurator_g_u_i_1_1_node_elem.html" target="_top" xlink:title="mars::gui::CameraConfigurator\lGUI::NodeElem">
<polygon fill="white" stroke="black" points="442.5,-637 442.5,-671 593.5,-671 593.5,-637 442.5,-637"/>
<text text-anchor="start" x="450.5" y="-658" font-family="Helvetica,sans-Serif" font-size="10.00">mars::gui::CameraConfigurator</text>
<text text-anchor="middle" x="518" y="-645" font-family="Helvetica,sans-Serif" font-size="10.00">GUI::NodeElem</text>
</a>
</g>
<!-- Node6&#45;&gt;Node12 -->
<g id="edge28" class="edge"><title>Node6&#45;&gt;Node12</title>
<path fill="none" stroke="#9a32cd" stroke-dasharray="5,2" d="M111.655,-701.215C131.171,-697.662 157.013,-693.195 180,-690 269.868,-677.511 373.707,-667.038 442.319,-660.665"/>
<polygon fill="#9a32cd" stroke="#9a32cd" points="111,-697.777 101.799,-703.03 112.267,-704.661 111,-697.777"/>
<text text-anchor="middle" x="215" y="-694" font-family="Helvetica,sans-Serif" font-size="10.00"> name</text>
</g>
<!-- Node7 -->
<g id="node12" class="node"><title>Node7</title>
<a xlink:href="../../d4/da6/classmars_1_1cfg__manager_1_1_c_f_g_manager_interface.html" target="_top" xlink:title="mars::cfg_manager::\lCFGManagerInterface">
<polygon fill="white" stroke="black" points="289.5,-600 289.5,-634 402.5,-634 402.5,-600 289.5,-600"/>
<text text-anchor="start" x="297.5" y="-621" font-family="Helvetica,sans-Serif" font-size="10.00">mars::cfg_manager::</text>
<text text-anchor="middle" x="346" y="-608" font-family="Helvetica,sans-Serif" font-size="10.00">CFGManagerInterface</text>
</a>
</g>
<!-- Node7&#45;&gt;Node2 -->
<g id="edge12" class="edge"><title>Node7&#45;&gt;Node2</title>
<path fill="none" stroke="#9a32cd" stroke-dasharray="5,2" d="M412.917,-610.303C475.285,-605.209 563.165,-601.304 594,-616 638.792,-637.348 668.528,-693.089 679.394,-716.454"/>
<polygon fill="#9a32cd" stroke="#9a32cd" points="412.423,-606.832 402.753,-611.162 413.012,-613.808 412.423,-606.832"/>
<text text-anchor="middle" x="518" y="-620" font-family="Helvetica,sans-Serif" font-size="10.00"> cfg</text>
</g>
<!-- Node13 -->
<g id="node27" class="node"><title>Node13</title>
<a xlink:href="../../d7/d4e/classmars_1_1interfaces_1_1_control_center.html" target="_top" xlink:title="The declaration of the ControlCenter. ">
<polygon fill="white" stroke="black" points="621.5,-340 621.5,-374 746.5,-374 746.5,-340 621.5,-340"/>
<text text-anchor="start" x="629.5" y="-361" font-family="Helvetica,sans-Serif" font-size="10.00">mars::interfaces::Control</text>
<text text-anchor="middle" x="684" y="-348" font-family="Helvetica,sans-Serif" font-size="10.00">Center</text>
</a>
</g>
<!-- Node7&#45;&gt;Node13 -->
<g id="edge42" class="edge"><title>Node7&#45;&gt;Node13</title>
<path fill="none" stroke="#9a32cd" stroke-dasharray="5,2" d="M408.211,-597.047C419.398,-593.792 430.998,-590.629 442,-588 508.734,-572.052 541.818,-605.551 594,-561 612.6,-545.12 602.751,-531.64 612,-509 632.428,-458.992 660.932,-401.882 675.171,-374.05"/>
<polygon fill="#9a32cd" stroke="#9a32cd" points="407.105,-593.725 398.512,-599.921 409.094,-600.436 407.105,-593.725"/>
<text text-anchor="middle" x="518" y="-592" font-family="Helvetica,sans-Serif" font-size="10.00"> cfg</text>
</g>
<!-- Node8 -->
<g id="node14" class="node"><title>Node8</title>
<polygon fill="white" stroke="#bfbfbf" points="47,-294.5 47,-315.5 115,-315.5 115,-294.5 47,-294.5"/>
<text text-anchor="middle" x="81" y="-302.5" font-family="Helvetica,sans-Serif" font-size="10.00">LibInterface</text>
</g>
<!-- Node8&#45;&gt;Node7 -->
<g id="edge14" class="edge"><title>Node8&#45;&gt;Node7</title>
<path fill="none" stroke="midnightblue" d="M88.5914,-325.065C109.214,-376.907 171.297,-516.453 268,-591 274.331,-595.88 281.624,-599.87 289.156,-603.124"/>
<polygon fill="midnightblue" stroke="midnightblue" points="91.8141,-323.696 84.9217,-315.649 85.2919,-326.238 91.8141,-323.696"/>
</g>
<!-- Node14 -->
<g id="node29" class="node"><title>Node14</title>
<a xlink:href="../../d1/d93/classmars_1_1interfaces_1_1_graphics_manager_interface.html" target="_top" xlink:title="mars::interfaces::Graphics\lManagerInterface">
<polygon fill="white" stroke="black" points="280,-184 280,-218 412,-218 412,-184 280,-184"/>
<text text-anchor="start" x="288" y="-205" font-family="Helvetica,sans-Serif" font-size="10.00">mars::interfaces::Graphics</text>
<text text-anchor="middle" x="346" y="-192" font-family="Helvetica,sans-Serif" font-size="10.00">ManagerInterface</text>
</a>
</g>
<!-- Node8&#45;&gt;Node14 -->
<g id="edge34" class="edge"><title>Node8&#45;&gt;Node14</title>
<path fill="none" stroke="midnightblue" d="M114.017,-290.363C151.155,-274.102 213.42,-247.448 268,-227 276.02,-223.995 284.565,-220.971 292.949,-218.101"/>
<polygon fill="midnightblue" stroke="midnightblue" points="112.435,-287.235 104.687,-294.461 115.25,-293.644 112.435,-287.235"/>
</g>
<!-- Node18 -->
<g id="node39" class="node"><title>Node18</title>
<a xlink:href="../../d6/d2e/classmars_1_1data__broker_1_1_data_broker_interface.html" target="_top" xlink:title="The interface every DataBroker should implement. ">
<polygon fill="white" stroke="black" points="294,-288 294,-322 398,-322 398,-288 294,-288"/>
<text text-anchor="start" x="302" y="-309" font-family="Helvetica,sans-Serif" font-size="10.00">mars::data_broker::</text>
<text text-anchor="middle" x="346" y="-296" font-family="Helvetica,sans-Serif" font-size="10.00">DataBrokerInterface</text>
</a>
</g>
<!-- Node8&#45;&gt;Node18 -->
<g id="edge46" class="edge"><title>Node8&#45;&gt;Node18</title>
<path fill="none" stroke="midnightblue" d="M125.155,-305C171.569,-305 244.55,-305 293.788,-305"/>
<polygon fill="midnightblue" stroke="midnightblue" points="125.102,-301.5 115.102,-305 125.102,-308.5 125.102,-301.5"/>
</g>
<!-- Node9 -->
<g id="node17" class="node"><title>Node9</title>
<a xlink:href="../../dd/d38/classmars_1_1main__gui_1_1_property_callback.html" target="_top" xlink:title="Introduced for Windows compatibility. ">
<polygon fill="white" stroke="black" points="283,-40 283,-74 409,-74 409,-40 283,-40"/>
<text text-anchor="start" x="291" y="-61" font-family="Helvetica,sans-Serif" font-size="10.00">mars::main_gui::Property</text>
<text text-anchor="middle" x="346" y="-48" font-family="Helvetica,sans-Serif" font-size="10.00">Callback</text>
</a>
</g>
<!-- Node9&#45;&gt;Node1 -->
<g id="edge18" class="edge"><title>Node9&#45;&gt;Node1</title>
<path fill="none" stroke="midnightblue" d="M419.206,-68.4257C486.504,-79.2314 578.172,-94.8286 594,-102 735.653,-166.179 869.345,-306.567 905.473,-346.319"/>
<polygon fill="midnightblue" stroke="midnightblue" points="419.475,-64.9243 409.048,-66.8012 418.37,-71.8365 419.475,-64.9243"/>
</g>
<!-- Node10 -->
<g id="node19" class="node"><title>Node10</title>
<a xlink:href="../../de/d11/classmars_1_1main__gui_1_1_property_dialog.html" target="_top" xlink:title="The PropertyDialog provides the QtProperty functionality. ">
<polygon fill="white" stroke="black" points="621,-26 621,-60 747,-60 747,-26 621,-26"/>
<text text-anchor="start" x="629" y="-47" font-family="Helvetica,sans-Serif" font-size="10.00">mars::main_gui::Property</text>
<text text-anchor="middle" x="684" y="-34" font-family="Helvetica,sans-Serif" font-size="10.00">Dialog</text>
</a>
</g>
<!-- Node9&#45;&gt;Node10 -->
<g id="edge24" class="edge"><title>Node9&#45;&gt;Node10</title>
<path fill="none" stroke="#9a32cd" stroke-dasharray="5,2" d="M419.362,-53.9613C479.486,-51.471 563.685,-47.9835 620.845,-45.6159"/>
<polygon fill="#9a32cd" stroke="#9a32cd" points="419.025,-50.4722 409.179,-54.3831 419.315,-57.4662 419.025,-50.4722"/>
<text text-anchor="middle" x="518" y="-57" font-family="Helvetica,sans-Serif" font-size="10.00"> propertyCallback</text>
</g>
<!-- Node10&#45;&gt;Node1 -->
<g id="edge20" class="edge"><title>Node10&#45;&gt;Node1</title>
<path fill="none" stroke="#9a32cd" stroke-dasharray="5,2" d="M757.219,-39.8718C776.787,-42.3994 796.718,-48.4435 812,-61 859.19,-99.7747 902.825,-298.18 912.849,-346.419"/>
<polygon fill="#9a32cd" stroke="#9a32cd" points="757.345,-36.367 747.046,-38.8548 756.648,-43.3323 757.345,-36.367"/>
<text text-anchor="middle" x="793" y="-65" font-family="Helvetica,sans-Serif" font-size="10.00"> pDialog</text>
</g>
<!-- Node11 -->
<g id="node21" class="node"><title>Node11</title>
<polygon fill="white" stroke="#bfbfbf" points="320,-0.5 320,-21.5 372,-21.5 372,-0.5 320,-0.5"/>
<text text-anchor="middle" x="346" y="-8.5" font-family="Helvetica,sans-Serif" font-size="10.00">QDialog</text>
</g>
<!-- Node11&#45;&gt;Node10 -->
<g id="edge22" class="edge"><title>Node11&#45;&gt;Node10</title>
<path fill="none" stroke="midnightblue" d="M382.23,-14.43C439.231,-19.8266 550.592,-30.3697 620.931,-37.0289"/>
<polygon fill="midnightblue" stroke="midnightblue" points="382.526,-10.9426 372.241,-13.4844 381.867,-17.9114 382.526,-10.9426"/>
</g>
<!-- Node12&#45;&gt;Node1 -->
<g id="edge26" class="edge"><title>Node12&#45;&gt;Node1</title>
<path fill="none" stroke="#9a32cd" stroke-dasharray="5,2" d="M594.557,-632.232C741.557,-551.329 871.274,-407.65 905.966,-367.603"/>
<polygon fill="#9a32cd" stroke="#9a32cd" points="592.885,-629.157 585.752,-636.99 596.213,-635.315 592.885,-629.157"/>
<text text-anchor="middle" x="684" y="-625" font-family="Helvetica,sans-Serif" font-size="10.00"> nodeElem</text>
</g>
<!-- Node13&#45;&gt;Node1 -->
<g id="edge30" class="edge"><title>Node13&#45;&gt;Node1</title>
<path fill="none" stroke="#9a32cd" stroke-dasharray="5,2" d="M756.694,-357C780.066,-357 806.162,-357 830.318,-357"/>
<polygon fill="#9a32cd" stroke="#9a32cd" points="756.512,-353.5 746.512,-357 756.512,-360.5 756.512,-353.5"/>
<text text-anchor="middle" x="793" y="-361" font-family="Helvetica,sans-Serif" font-size="10.00"> control</text>
</g>
<!-- Node14&#45;&gt;Node13 -->
<g id="edge32" class="edge"><title>Node14&#45;&gt;Node13</title>
<path fill="none" stroke="#9a32cd" stroke-dasharray="5,2" d="M422.213,-198.645C473.972,-200.335 542.169,-209.244 594,-240 634.331,-263.932 662.992,-313.436 676.057,-339.723"/>
<polygon fill="#9a32cd" stroke="#9a32cd" points="422.172,-195.144 412.09,-198.399 422.002,-202.141 422.172,-195.144"/>
<text text-anchor="middle" x="518" y="-244" font-family="Helvetica,sans-Serif" font-size="10.00"> graphics</text>
</g>
<!-- Node15 -->
<g id="node32" class="node"><title>Node15</title>
<a xlink:href="../../d2/da9/classmars_1_1interfaces_1_1_controller_manager_interface.html" target="_top" xlink:title="&quot;ControllerManagerInterface&quot; declares the interfaces for all controller operations that are used for ...">
<polygon fill="white" stroke="black" points="278.5,-92 278.5,-126 413.5,-126 413.5,-92 278.5,-92"/>
<text text-anchor="start" x="286.5" y="-113" font-family="Helvetica,sans-Serif" font-size="10.00">mars::interfaces::Controller</text>
<text text-anchor="middle" x="346" y="-100" font-family="Helvetica,sans-Serif" font-size="10.00">ManagerInterface</text>
</a>
</g>
<!-- Node15&#45;&gt;Node13 -->
<g id="edge36" class="edge"><title>Node15&#45;&gt;Node13</title>
<path fill="none" stroke="#9a32cd" stroke-dasharray="5,2" d="M423.88,-105.839C486.354,-104.881 567.789,-107.682 594,-127 664.933,-179.278 679.98,-295.833 683.156,-339.784"/>
<polygon fill="#9a32cd" stroke="#9a32cd" points="423.568,-102.344 413.636,-106.031 423.7,-109.343 423.568,-102.344"/>
<text text-anchor="middle" x="518" y="-131" font-family="Helvetica,sans-Serif" font-size="10.00"> controllers</text>
</g>
<!-- Node16 -->
<g id="node34" class="node"><title>Node16</title>
<a xlink:href="../../d6/d60/classmars_1_1interfaces_1_1_joint_manager_interface.html" target="_top" xlink:title="Interface class for the node organization. ">
<polygon fill="white" stroke="black" points="270,-548 270,-582 422,-582 422,-548 270,-548"/>
<text text-anchor="start" x="278" y="-569" font-family="Helvetica,sans-Serif" font-size="10.00">mars::interfaces::JointManager</text>
<text text-anchor="middle" x="346" y="-556" font-family="Helvetica,sans-Serif" font-size="10.00">Interface</text>
</a>
</g>
<!-- Node16&#45;&gt;Node13 -->
<g id="edge38" class="edge"><title>Node16&#45;&gt;Node13</title>
<path fill="none" stroke="#9a32cd" stroke-dasharray="5,2" d="M432.204,-549.628C435.51,-549.072 438.785,-548.528 442,-548 509.422,-536.931 538.178,-564.397 594,-525 621.169,-505.825 661.156,-413.194 677.085,-374.276"/>
<polygon fill="#9a32cd" stroke="#9a32cd" points="431.487,-546.2 422.214,-551.324 432.659,-553.101 431.487,-546.2"/>
<text text-anchor="middle" x="518" y="-552" font-family="Helvetica,sans-Serif" font-size="10.00"> joints</text>
</g>
<!-- Node17 -->
<g id="node36" class="node"><title>Node17</title>
<a xlink:href="../../df/d82/classmars_1_1interfaces_1_1_entity_manager_interface.html" target="_top" xlink:title="mars::interfaces::Entity\lManagerInterface">
<polygon fill="white" stroke="black" points="286.5,-496 286.5,-530 405.5,-530 405.5,-496 286.5,-496"/>
<text text-anchor="start" x="294.5" y="-517" font-family="Helvetica,sans-Serif" font-size="10.00">mars::interfaces::Entity</text>
<text text-anchor="middle" x="346" y="-504" font-family="Helvetica,sans-Serif" font-size="10.00">ManagerInterface</text>
</a>
</g>
<!-- Node17&#45;&gt;Node13 -->
<g id="edge40" class="edge"><title>Node17&#45;&gt;Node13</title>
<path fill="none" stroke="#9a32cd" stroke-dasharray="5,2" d="M415.782,-512.318C468.095,-508.958 539.715,-498.094 594,-466 632.025,-443.519 661.072,-398.764 674.967,-374.172"/>
<polygon fill="#9a32cd" stroke="#9a32cd" points="415.374,-508.835 405.587,-512.894 415.769,-515.824 415.374,-508.835"/>
<text text-anchor="middle" x="518" y="-513" font-family="Helvetica,sans-Serif" font-size="10.00"> entities</text>
</g>
<!-- Node18&#45;&gt;Node13 -->
<g id="edge44" class="edge"><title>Node18&#45;&gt;Node13</title>
<path fill="none" stroke="#9a32cd" stroke-dasharray="5,2" d="M408.401,-306.515C458.909,-308.7 531.644,-314.027 594,-327 609.157,-330.153 625.318,-335.036 639.701,-339.952"/>
<polygon fill="#9a32cd" stroke="#9a32cd" points="408.423,-303.013 398.29,-306.106 408.14,-310.007 408.423,-303.013"/>
<text text-anchor="middle" x="518" y="-344" font-family="Helvetica,sans-Serif" font-size="10.00"> dataBroker</text>
<text text-anchor="middle" x="518" y="-331" font-family="Helvetica,sans-Serif" font-size="10.00">theDataBroker</text>
</g>
<!-- Node19 -->
<g id="node42" class="node"><title>Node19</title>
<a xlink:href="../../db/da9/classmars_1_1interfaces_1_1_sensor_manager_interface.html" target="_top" xlink:title="&quot;SensorManagerInterface&quot; declares the interfaces for all sensor operations that are used for the comm...">
<polygon fill="white" stroke="black" points="284,-444 284,-478 408,-478 408,-444 284,-444"/>
<text text-anchor="start" x="292" y="-465" font-family="Helvetica,sans-Serif" font-size="10.00">mars::interfaces::Sensor</text>
<text text-anchor="middle" x="346" y="-452" font-family="Helvetica,sans-Serif" font-size="10.00">ManagerInterface</text>
</a>
</g>
<!-- Node19&#45;&gt;Node13 -->
<g id="edge48" class="edge"><title>Node19&#45;&gt;Node13</title>
<path fill="none" stroke="#9a32cd" stroke-dasharray="5,2" d="M418.263,-453.562C468.775,-446.734 537.098,-434.189 594,-412 618.396,-402.487 643.62,-386.44 661.134,-374.127"/>
<polygon fill="#9a32cd" stroke="#9a32cd" points="417.547,-450.126 408.086,-454.894 418.455,-457.067 417.547,-450.126"/>
<text text-anchor="middle" x="518" y="-453" font-family="Helvetica,sans-Serif" font-size="10.00"> sensors</text>
</g>
<!-- Node20 -->
<g id="node44" class="node"><title>Node20</title>
<a xlink:href="../../db/de9/classmars_1_1interfaces_1_1_motor_manager_interface.html" target="_top" xlink:title="&quot;MotorManagerInterface&quot; declares the interfaces for all motor operations that are used for the commun...">
<polygon fill="white" stroke="black" points="268.5,-392 268.5,-426 423.5,-426 423.5,-392 268.5,-392"/>
<text text-anchor="start" x="276.5" y="-413" font-family="Helvetica,sans-Serif" font-size="10.00">mars::interfaces::MotorManager</text>
<text text-anchor="middle" x="346" y="-400" font-family="Helvetica,sans-Serif" font-size="10.00">Interface</text>
</a>
</g>
<!-- Node20&#45;&gt;Node13 -->
<g id="edge50" class="edge"><title>Node20&#45;&gt;Node13</title>
<path fill="none" stroke="#9a32cd" stroke-dasharray="5,2" d="M433.723,-397.631C481.241,-391.218 540.929,-382.752 594,-374 602.786,-372.551 612.035,-370.923 621.124,-369.262"/>
<polygon fill="#9a32cd" stroke="#9a32cd" points="433.219,-394.167 423.774,-398.968 434.151,-401.105 433.219,-394.167"/>
<text text-anchor="middle" x="518" y="-399" font-family="Helvetica,sans-Serif" font-size="10.00"> motors</text>
</g>
<!-- Node21 -->
<g id="node46" class="node"><title>Node21</title>
<a xlink:href="../../d9/d6a/classmars_1_1interfaces_1_1_load_center.html" target="_top" xlink:title="mars::interfaces::LoadCenter">
<polygon fill="white" stroke="black" points="274.5,-144.5 274.5,-165.5 417.5,-165.5 417.5,-144.5 274.5,-144.5"/>
<text text-anchor="middle" x="346" y="-152.5" font-family="Helvetica,sans-Serif" font-size="10.00">mars::interfaces::LoadCenter</text>
</a>
</g>
<!-- Node21&#45;&gt;Node13 -->
<g id="edge52" class="edge"><title>Node21&#45;&gt;Node13</title>
<path fill="none" stroke="#9a32cd" stroke-dasharray="5,2" d="M427.814,-145.189C479.713,-143.207 545.897,-148.942 594,-182 649.608,-220.217 672.982,-303.624 680.76,-339.748"/>
<polygon fill="#9a32cd" stroke="#9a32cd" points="427.453,-141.702 417.634,-145.682 427.792,-148.694 427.453,-141.702"/>
<text text-anchor="middle" x="518" y="-186" font-family="Helvetica,sans-Serif" font-size="10.00"> loadCenter</text>
</g>
<!-- Node22 -->
<g id="node48" class="node"><title>Node22</title>
<a xlink:href="../../d1/d51/classmars_1_1interfaces_1_1_load_heightmap_interface.html" target="_top" xlink:title="mars::interfaces::LoadHeightmap\lInterface">
<polygon fill="white" stroke="black" points="0.5,-164 0.5,-198 161.5,-198 161.5,-164 0.5,-164"/>
<text text-anchor="start" x="8.5" y="-185" font-family="Helvetica,sans-Serif" font-size="10.00">mars::interfaces::LoadHeightmap</text>
<text text-anchor="middle" x="81" y="-172" font-family="Helvetica,sans-Serif" font-size="10.00">Interface</text>
</a>
</g>
<!-- Node22&#45;&gt;Node21 -->
<g id="edge54" class="edge"><title>Node22&#45;&gt;Node21</title>
<path fill="none" stroke="#9a32cd" stroke-dasharray="5,2" d="M171.844,-172.087C205.335,-168.801 242.778,-165.127 274.339,-162.031"/>
<polygon fill="#9a32cd" stroke="#9a32cd" points="171.198,-168.633 161.588,-173.093 171.882,-175.6 171.198,-168.633"/>
<text text-anchor="middle" x="215" y="-175" font-family="Helvetica,sans-Serif" font-size="10.00"> loadHeightmap</text>
</g>
<!-- Node23 -->
<g id="node50" class="node"><title>Node23</title>
<a xlink:href="../../d7/d02/classmars_1_1interfaces_1_1_load_mesh_interface.html" target="_top" xlink:title="mars::interfaces::LoadMesh\lInterface">
<polygon fill="white" stroke="black" points="12,-112 12,-146 150,-146 150,-112 12,-112"/>
<text text-anchor="start" x="20" y="-133" font-family="Helvetica,sans-Serif" font-size="10.00">mars::interfaces::LoadMesh</text>
<text text-anchor="middle" x="81" y="-120" font-family="Helvetica,sans-Serif" font-size="10.00">Interface</text>
</a>
</g>
<!-- Node23&#45;&gt;Node21 -->
<g id="edge56" class="edge"><title>Node23&#45;&gt;Node21</title>
<path fill="none" stroke="#9a32cd" stroke-dasharray="5,2" d="M160.315,-136.782C196.535,-140.336 239.113,-144.513 274.353,-147.971"/>
<polygon fill="#9a32cd" stroke="#9a32cd" points="160.573,-133.29 150.279,-135.797 159.89,-140.257 160.573,-133.29"/>
<text text-anchor="middle" x="215" y="-149" font-family="Helvetica,sans-Serif" font-size="10.00"> loadMesh</text>
</g>
<!-- Node24 -->
<g id="node52" class="node"><title>Node24</title>
<a xlink:href="../../d7/d4c/classmars_1_1interfaces_1_1_node_manager_interface.html" target="_top" xlink:title="&quot;NodeManagerInterface&quot; declares the interfaces for all NodeOperations that are used for the communica...">
<polygon fill="white" stroke="black" points="269,-340 269,-374 423,-374 423,-340 269,-340"/>
<text text-anchor="start" x="277" y="-361" font-family="Helvetica,sans-Serif" font-size="10.00">mars::interfaces::NodeManager</text>
<text text-anchor="middle" x="346" y="-348" font-family="Helvetica,sans-Serif" font-size="10.00">Interface</text>
</a>
</g>
<!-- Node24&#45;&gt;Node13 -->
<g id="edge58" class="edge"><title>Node24&#45;&gt;Node13</title>
<path fill="none" stroke="#9a32cd" stroke-dasharray="5,2" d="M433.157,-357C492.045,-357 568.409,-357 621.337,-357"/>
<polygon fill="#9a32cd" stroke="#9a32cd" points="433.12,-353.5 423.12,-357 433.12,-360.5 433.12,-353.5"/>
<text text-anchor="middle" x="518" y="-361" font-family="Helvetica,sans-Serif" font-size="10.00"> nodes</text>
</g>
<!-- Node25 -->
<g id="node54" class="node"><title>Node25</title>
<a xlink:href="../../dc/de5/classmars_1_1interfaces_1_1_simulator_interface.html" target="_top" xlink:title="mars::interfaces::Simulator\lInterface">
<polygon fill="white" stroke="black" points="279,-236 279,-270 413,-270 413,-236 279,-236"/>
<text text-anchor="start" x="287" y="-257" font-family="Helvetica,sans-Serif" font-size="10.00">mars::interfaces::Simulator</text>
<text text-anchor="middle" x="346" y="-244" font-family="Helvetica,sans-Serif" font-size="10.00">Interface</text>
</a>
</g>
<!-- Node25&#45;&gt;Node13 -->
<g id="edge60" class="edge"><title>Node25&#45;&gt;Node13</title>
<path fill="none" stroke="#9a32cd" stroke-dasharray="5,2" d="M423.215,-255.356C473.488,-259.15 539.591,-268.482 594,-291 621.929,-302.559 649.24,-324.539 666.315,-339.947"/>
<polygon fill="#9a32cd" stroke="#9a32cd" points="423.278,-251.852 413.059,-254.649 422.791,-258.835 423.278,-251.852"/>
<text text-anchor="middle" x="518" y="-295" font-family="Helvetica,sans-Serif" font-size="10.00"> sim</text>
</g>
</g>
</svg>
