<?xml version="1.0" encoding="UTF-8" standalone="no"?>
<!DOCTYPE svg PUBLIC "-//W3C//DTD SVG 1.1//EN"
 "http://www.w3.org/Graphics/SVG/1.1/DTD/svg11.dtd">
<!-- Generated by graphviz version 2.26.3 (20100126.1600)
 -->
<!-- Title: /home/kavonszadkowski/limes&#45;dev/simulation/mars/common/data_broker/src/DataPackage.h Pages: 1 -->
<svg width="499pt" height="364pt"
 viewBox="0.00 0.00 499.00 364.00" xmlns="http://www.w3.org/2000/svg" xmlns:xlink="http://www.w3.org/1999/xlink">
<g id="graph1" class="graph" transform="scale(1 1) rotate(0) translate(4 360)">
<title>/home/kavonszadkowski/limes&#45;dev/simulation/mars/common/data_broker/src/DataPackage.h</title>
<polygon fill="white" stroke="white" points="-4,5 -4,-360 496,-360 496,5 -4,5"/>
<!-- Node1 -->
<g id="node1" class="node"><title>Node1</title>
<polygon fill="#bfbfbf" stroke="black" points="144,-295 144,-355 280,-355 280,-295 144,-295"/>
<text text-anchor="start" x="152" y="-342" font-family="Helvetica,sans-Serif" font-size="10.00">/home/kavonszadkowski</text>
<text text-anchor="start" x="152" y="-329" font-family="Helvetica,sans-Serif" font-size="10.00">/limes&#45;dev/simulation</text>
<text text-anchor="start" x="152" y="-316" font-family="Helvetica,sans-Serif" font-size="10.00">/mars/common/data_broker</text>
<text text-anchor="middle" x="212" y="-303" font-family="Helvetica,sans-Serif" font-size="10.00">/src/DataPackage.h</text>
</g>
<!-- Node2 -->
<g id="node3" class="node"><title>Node2</title>
<a xlink:href="../../dc/d63/_data_broker_interface_8h.html" target="_top" xlink:title="DataBroker A small library to manage data communication within a software framework. ">
<polygon fill="white" stroke="black" points="0,-197 0,-257 136,-257 136,-197 0,-197"/>
<text text-anchor="start" x="8" y="-244" font-family="Helvetica,sans-Serif" font-size="10.00">/home/kavonszadkowski</text>
<text text-anchor="start" x="8" y="-231" font-family="Helvetica,sans-Serif" font-size="10.00">/limes&#45;dev/simulation</text>
<text text-anchor="start" x="8" y="-218" font-family="Helvetica,sans-Serif" font-size="10.00">/mars/common/data_broker</text>
<text text-anchor="middle" x="68" y="-205" font-family="Helvetica,sans-Serif" font-size="10.00">/src/DataBrokerInterface.h</text>
</a>
</g>
<!-- Node1&#45;&gt;Node2 -->
<g id="edge2" class="edge"><title>Node1&#45;&gt;Node2</title>
<path fill="none" stroke="midnightblue" d="M159.239,-289.093C143.885,-278.644 127.271,-267.337 112.481,-257.272"/>
<polygon fill="midnightblue" stroke="midnightblue" points="157.384,-292.064 167.62,-294.797 161.322,-286.277 157.384,-292.064"/>
</g>
<!-- Node3 -->
<g id="node5" class="node"><title>Node3</title>
<a xlink:href="../../d8/daf/_data_broker_8h.html" target="_top" xlink:title="DataBroker A small library to manage data communication within a software framework. ">
<polygon fill="white" stroke="black" points="48,-99 48,-159 184,-159 184,-99 48,-99"/>
<text text-anchor="start" x="56" y="-146" font-family="Helvetica,sans-Serif" font-size="10.00">/home/kavonszadkowski</text>
<text text-anchor="start" x="56" y="-133" font-family="Helvetica,sans-Serif" font-size="10.00">/limes&#45;dev/simulation</text>
<text text-anchor="start" x="56" y="-120" font-family="Helvetica,sans-Serif" font-size="10.00">/mars/common/data_broker</text>
<text text-anchor="middle" x="116" y="-107" font-family="Helvetica,sans-Serif" font-size="10.00">/src/DataBroker.h</text>
</a>
</g>
<!-- Node1&#45;&gt;Node3 -->
<g id="edge8" class="edge"><title>Node1&#45;&gt;Node3</title>
<path fill="none" stroke="midnightblue" d="M192.769,-285.737C174.508,-248.454 147.444,-193.199 130.806,-159.23"/>
<polygon fill="midnightblue" stroke="midnightblue" points="189.668,-287.363 197.21,-294.805 195.955,-284.284 189.668,-287.363"/>
</g>
<!-- Node5 -->
<g id="node10" class="node"><title>Node5</title>
<a xlink:href="../../da/db4/_data_package_8cpp.html" target="_top" xlink:title="/home/kavonszadkowski\l/limes&#45;dev/simulation\l/mars/common/data_broker\l/src/DataPackage.cpp">
<polygon fill="white" stroke="black" points="192,-197 192,-257 328,-257 328,-197 192,-197"/>
<text text-anchor="start" x="200" y="-244" font-family="Helvetica,sans-Serif" font-size="10.00">/home/kavonszadkowski</text>
<text text-anchor="start" x="200" y="-231" font-family="Helvetica,sans-Serif" font-size="10.00">/limes&#45;dev/simulation</text>
<text text-anchor="start" x="200" y="-218" font-family="Helvetica,sans-Serif" font-size="10.00">/mars/common/data_broker</text>
<text text-anchor="middle" x="260" y="-205" font-family="Helvetica,sans-Serif" font-size="10.00">/src/DataPackage.cpp</text>
</a>
</g>
<!-- Node1&#45;&gt;Node5 -->
<g id="edge10" class="edge"><title>Node1&#45;&gt;Node5</title>
<path fill="none" stroke="midnightblue" d="M231.307,-285.581C235.928,-276.147 240.791,-266.219 245.173,-257.272"/>
<polygon fill="midnightblue" stroke="midnightblue" points="228.049,-284.277 226.793,-294.797 234.335,-287.356 228.049,-284.277"/>
</g>
<!-- Node6 -->
<g id="node12" class="node"><title>Node6</title>
<a xlink:href="../../d6/dda/_data_package_mapping_8h.html" target="_top" xlink:title="/home/kavonszadkowski\l/limes&#45;dev/simulation\l/mars/common/data_broker\l/src/DataPackageMapping.h">
<polygon fill="white" stroke="black" points="346,-197 346,-257 486,-257 486,-197 346,-197"/>
<text text-anchor="start" x="354" y="-244" font-family="Helvetica,sans-Serif" font-size="10.00">/home/kavonszadkowski</text>
<text text-anchor="start" x="354" y="-231" font-family="Helvetica,sans-Serif" font-size="10.00">/limes&#45;dev/simulation</text>
<text text-anchor="start" x="354" y="-218" font-family="Helvetica,sans-Serif" font-size="10.00">/mars/common/data_broker</text>
<text text-anchor="middle" x="416" y="-205" font-family="Helvetica,sans-Serif" font-size="10.00">/src/DataPackageMapping.h</text>
</a>
</g>
<!-- Node1&#45;&gt;Node6 -->
<g id="edge12" class="edge"><title>Node1&#45;&gt;Node6</title>
<path fill="none" stroke="midnightblue" d="M283.85,-290.484C306.581,-279.564 331.507,-267.59 353.525,-257.012"/>
<polygon fill="midnightblue" stroke="midnightblue" points="282.091,-287.446 274.593,-294.931 285.123,-293.755 282.091,-287.446"/>
</g>
<!-- Node2&#45;&gt;Node3 -->
<g id="edge4" class="edge"><title>Node2&#45;&gt;Node3</title>
<path fill="none" stroke="midnightblue" d="M87.307,-187.581C91.9281,-178.147 96.7907,-168.219 101.173,-159.272"/>
<polygon fill="midnightblue" stroke="midnightblue" points="84.0488,-186.277 82.7932,-196.797 90.3352,-189.356 84.0488,-186.277"/>
</g>
<!-- Node4 -->
<g id="node7" class="node"><title>Node4</title>
<a xlink:href="../../d4/ddc/_data_broker_8cpp.html" target="_top" xlink:title="/home/kavonszadkowski\l/limes&#45;dev/simulation\l/mars/common/data_broker\l/src/DataBroker.cpp">
<polygon fill="white" stroke="black" points="48,-1 48,-61 184,-61 184,-1 48,-1"/>
<text text-anchor="start" x="56" y="-48" font-family="Helvetica,sans-Serif" font-size="10.00">/home/kavonszadkowski</text>
<text text-anchor="start" x="56" y="-35" font-family="Helvetica,sans-Serif" font-size="10.00">/limes&#45;dev/simulation</text>
<text text-anchor="start" x="56" y="-22" font-family="Helvetica,sans-Serif" font-size="10.00">/mars/common/data_broker</text>
<text text-anchor="middle" x="116" y="-9" font-family="Helvetica,sans-Serif" font-size="10.00">/src/DataBroker.cpp</text>
</a>
</g>
<!-- Node3&#45;&gt;Node4 -->
<g id="edge6" class="edge"><title>Node3&#45;&gt;Node4</title>
<path fill="none" stroke="midnightblue" d="M116,-88.6956C116,-79.5273 116,-69.9394 116,-61.2718"/>
<polygon fill="midnightblue" stroke="midnightblue" points="112.5,-88.7971 116,-98.7971 119.5,-88.7972 112.5,-88.7971"/>
</g>
<!-- Node7 -->
<g id="node14" class="node"><title>Node7</title>
<a xlink:href="../../db/d27/_data_package_mapping_8cpp.html" target="_top" xlink:title="/home/kavonszadkowski\l/limes&#45;dev/simulation\l/mars/common/data_broker\l/src/DataPackageMapping.cpp">
<polygon fill="white" stroke="black" points="340.5,-99 340.5,-159 491.5,-159 491.5,-99 340.5,-99"/>
<text text-anchor="start" x="348.5" y="-146" font-family="Helvetica,sans-Serif" font-size="10.00">/home/kavonszadkowski</text>
<text text-anchor="start" x="348.5" y="-133" font-family="Helvetica,sans-Serif" font-size="10.00">/limes&#45;dev/simulation</text>
<text text-anchor="start" x="348.5" y="-120" font-family="Helvetica,sans-Serif" font-size="10.00">/mars/common/data_broker</text>
<text text-anchor="middle" x="416" y="-107" font-family="Helvetica,sans-Serif" font-size="10.00">/src/DataPackageMapping.cpp</text>
</a>
</g>
<!-- Node6&#45;&gt;Node7 -->
<g id="edge14" class="edge"><title>Node6&#45;&gt;Node7</title>
<path fill="none" stroke="midnightblue" d="M416,-186.696C416,-177.527 416,-167.939 416,-159.272"/>
<polygon fill="midnightblue" stroke="midnightblue" points="412.5,-186.797 416,-196.797 419.5,-186.797 412.5,-186.797"/>
</g>
</g>
</svg>
