<?xml version="1.0" encoding="UTF-8" standalone="no"?>
<!DOCTYPE svg PUBLIC "-//W3C//DTD SVG 1.1//EN"
 "http://www.w3.org/Graphics/SVG/1.1/DTD/svg11.dtd">
<!-- Generated by graphviz version 2.36.0 (20140111.2315)
 -->
<!-- Title: /media/kavonszadkowski/work/marsdocs/mars/common/data_broker/src/DataPackage.h Pages: 1 -->
<svg width="635pt" height="284pt"
 viewBox="0.00 0.00 635.00 284.00" xmlns="http://www.w3.org/2000/svg" xmlns:xlink="http://www.w3.org/1999/xlink">
<g id="graph0" class="graph" transform="scale(1 1) rotate(0) translate(4 280)">
<title>/media/kavonszadkowski/work/marsdocs/mars/common/data_broker/src/DataPackage.h</title>
<polygon fill="white" stroke="none" points="-4,4 -4,-280 631,-280 631,4 -4,4"/>
<!-- Node1 -->
<g id="node1" class="node"><title>Node1</title>
<polygon fill="#bfbfbf" stroke="black" points="191,-234.5 191,-275.5 349,-275.5 349,-234.5 191,-234.5"/>
<text text-anchor="start" x="199" y="-263.5" font-family="Helvetica,sans-Serif" font-size="10.00">/media/kavonszadkowski</text>
<text text-anchor="start" x="199" y="-252.5" font-family="Helvetica,sans-Serif" font-size="10.00">/work/marsdocs/mars/common</text>
<text text-anchor="middle" x="270" y="-241.5" font-family="Helvetica,sans-Serif" font-size="10.00">/data_broker/src/DataPackage.h</text>
</g>
<!-- Node2 -->
<g id="node2" class="node"><title>Node2</title>
<g id="a_node2"><a xlink:href="../../dc/d63/_data_broker_interface_8h.html" target="_top" xlink:title="DataBroker A small library to manage data communication within a software framework. ">
<polygon fill="white" stroke="black" points="0,-156.5 0,-197.5 186,-197.5 186,-156.5 0,-156.5"/>
<text text-anchor="start" x="8" y="-185.5" font-family="Helvetica,sans-Serif" font-size="10.00">/media/kavonszadkowski</text>
<text text-anchor="start" x="8" y="-174.5" font-family="Helvetica,sans-Serif" font-size="10.00">/work/marsdocs/mars/common</text>
<text text-anchor="middle" x="93" y="-163.5" font-family="Helvetica,sans-Serif" font-size="10.00">/data_broker/src/DataBrokerInterface.h</text>
</a>
</g>
</g>
<!-- Node1&#45;&gt;Node2 -->
<g id="edge1" class="edge"><title>Node1&#45;&gt;Node2</title>
<path fill="none" stroke="midnightblue" d="M215.197,-230.469C190.565,-219.892 161.837,-207.557 138.427,-197.506"/>
<polygon fill="midnightblue" stroke="midnightblue" points="213.848,-233.699 224.418,-234.428 216.61,-227.267 213.848,-233.699"/>
</g>
<!-- Node3 -->
<g id="node3" class="node"><title>Node3</title>
<g id="a_node3"><a xlink:href="../../d8/daf/_data_broker_8h.html" target="_top" xlink:title="DataBroker A small library to manage data communication within a software framework. ">
<polygon fill="white" stroke="black" points="77,-78.5 77,-119.5 229,-119.5 229,-78.5 77,-78.5"/>
<text text-anchor="start" x="85" y="-107.5" font-family="Helvetica,sans-Serif" font-size="10.00">/media/kavonszadkowski</text>
<text text-anchor="start" x="85" y="-96.5" font-family="Helvetica,sans-Serif" font-size="10.00">/work/marsdocs/mars/common</text>
<text text-anchor="middle" x="153" y="-85.5" font-family="Helvetica,sans-Serif" font-size="10.00">/data_broker/src/DataBroker.h</text>
</a>
</g>
</g>
<!-- Node1&#45;&gt;Node3 -->
<g id="edge4" class="edge"><title>Node1&#45;&gt;Node3</title>
<path fill="none" stroke="midnightblue" d="M248.997,-226.355C225.691,-195.679 188.66,-146.937 168.067,-119.832"/>
<polygon fill="midnightblue" stroke="midnightblue" points="246.345,-228.651 255.182,-234.496 251.919,-224.416 246.345,-228.651"/>
</g>
<!-- Node5 -->
<g id="node5" class="node"><title>Node5</title>
<g id="a_node5"><a xlink:href="../../da/db4/_data_package_8cpp.html" target="_top" xlink:title="/media/kavonszadkowski\l/work/marsdocs/mars/common\l/data_broker/src/DataPackage.cpp">
<polygon fill="white" stroke="black" points="242,-156.5 242,-197.5 410,-197.5 410,-156.5 242,-156.5"/>
<text text-anchor="start" x="250" y="-185.5" font-family="Helvetica,sans-Serif" font-size="10.00">/media/kavonszadkowski</text>
<text text-anchor="start" x="250" y="-174.5" font-family="Helvetica,sans-Serif" font-size="10.00">/work/marsdocs/mars/common</text>
<text text-anchor="middle" x="326" y="-163.5" font-family="Helvetica,sans-Serif" font-size="10.00">/data_broker/src/DataPackage.cpp</text>
</a>
</g>
</g>
<!-- Node1&#45;&gt;Node5 -->
<g id="edge5" class="edge"><title>Node1&#45;&gt;Node5</title>
<path fill="none" stroke="midnightblue" d="M290.383,-226.338C297.427,-216.778 305.167,-206.273 311.627,-197.506"/>
<polygon fill="midnightblue" stroke="midnightblue" points="287.536,-224.301 284.421,-234.428 293.171,-228.454 287.536,-224.301"/>
</g>
<!-- Node6 -->
<g id="node6" class="node"><title>Node6</title>
<g id="a_node6"><a xlink:href="../../d6/dda/_data_package_mapping_8h.html" target="_top" xlink:title="/media/kavonszadkowski\l/work/marsdocs/mars/common\l/data_broker/src/DataPackageMapping.h">
<polygon fill="white" stroke="black" points="428,-156.5 428,-197.5 622,-197.5 622,-156.5 428,-156.5"/>
<text text-anchor="start" x="436" y="-185.5" font-family="Helvetica,sans-Serif" font-size="10.00">/media/kavonszadkowski</text>
<text text-anchor="start" x="436" y="-174.5" font-family="Helvetica,sans-Serif" font-size="10.00">/work/marsdocs/mars/common</text>
<text text-anchor="middle" x="525" y="-163.5" font-family="Helvetica,sans-Serif" font-size="10.00">/data_broker/src/DataPackageMapping.h</text>
</a>
</g>
</g>
<!-- Node1&#45;&gt;Node6 -->
<g id="edge6" class="edge"><title>Node1&#45;&gt;Node6</title>
<path fill="none" stroke="midnightblue" d="M345.687,-231.442C381.881,-220.655 424.788,-207.867 459.554,-197.506"/>
<polygon fill="midnightblue" stroke="midnightblue" points="344.253,-228.218 335.669,-234.428 346.252,-234.926 344.253,-228.218"/>
</g>
<!-- Node2&#45;&gt;Node3 -->
<g id="edge2" class="edge"><title>Node2&#45;&gt;Node3</title>
<path fill="none" stroke="midnightblue" d="M114.839,-148.338C122.386,-138.778 130.679,-128.273 137.601,-119.506"/>
<polygon fill="midnightblue" stroke="midnightblue" points="111.901,-146.41 108.451,-156.428 117.395,-150.748 111.901,-146.41"/>
</g>
<!-- Node4 -->
<g id="node4" class="node"><title>Node4</title>
<g id="a_node4"><a xlink:href="../../d4/ddc/_data_broker_8cpp.html" target="_top" xlink:title="/media/kavonszadkowski\l/work/marsdocs/mars/common\l/data_broker/src/DataBroker.cpp">
<polygon fill="white" stroke="black" points="74,-0.5 74,-41.5 232,-41.5 232,-0.5 74,-0.5"/>
<text text-anchor="start" x="82" y="-29.5" font-family="Helvetica,sans-Serif" font-size="10.00">/media/kavonszadkowski</text>
<text text-anchor="start" x="82" y="-18.5" font-family="Helvetica,sans-Serif" font-size="10.00">/work/marsdocs/mars/common</text>
<text text-anchor="middle" x="153" y="-7.5" font-family="Helvetica,sans-Serif" font-size="10.00">/data_broker/src/DataBroker.cpp</text>
</a>
</g>
</g>
<!-- Node3&#45;&gt;Node4 -->
<g id="edge3" class="edge"><title>Node3&#45;&gt;Node4</title>
<path fill="none" stroke="midnightblue" d="M153,-68.2965C153,-59.3009 153,-49.6532 153,-41.5056"/>
<polygon fill="midnightblue" stroke="midnightblue" points="149.5,-68.4281 153,-78.4281 156.5,-68.4281 149.5,-68.4281"/>
</g>
<!-- Node7 -->
<g id="node7" class="node"><title>Node7</title>
<g id="a_node7"><a xlink:href="../../db/d27/_data_package_mapping_8cpp.html" target="_top" xlink:title="/media/kavonszadkowski\l/work/marsdocs/mars/common\l/data_broker/src/DataPackageMapping.cpp">
<polygon fill="white" stroke="black" points="422.5,-78.5 422.5,-119.5 627.5,-119.5 627.5,-78.5 422.5,-78.5"/>
<text text-anchor="start" x="430.5" y="-107.5" font-family="Helvetica,sans-Serif" font-size="10.00">/media/kavonszadkowski</text>
<text text-anchor="start" x="430.5" y="-96.5" font-family="Helvetica,sans-Serif" font-size="10.00">/work/marsdocs/mars/common</text>
<text text-anchor="middle" x="525" y="-85.5" font-family="Helvetica,sans-Serif" font-size="10.00">/data_broker/src/DataPackageMapping.cpp</text>
</a>
</g>
</g>
<!-- Node6&#45;&gt;Node7 -->
<g id="edge7" class="edge"><title>Node6&#45;&gt;Node7</title>
<path fill="none" stroke="midnightblue" d="M525,-146.297C525,-137.301 525,-127.653 525,-119.506"/>
<polygon fill="midnightblue" stroke="midnightblue" points="521.5,-146.428 525,-156.428 528.5,-146.428 521.5,-146.428"/>
</g>
</g>
</svg>
