<?xml version="1.0" encoding="UTF-8" standalone="no"?>
<!DOCTYPE svg PUBLIC "-//W3C//DTD SVG 1.1//EN"
 "http://www.w3.org/Graphics/SVG/1.1/DTD/svg11.dtd">
<!-- Generated by graphviz version 2.26.3 (20100126.1600)
 -->
<!-- Title: /home/kavonszadkowski/limes&#45;dev/simulation/mars/interfaces/src/sim/NodeInterface.h Pages: 1 -->
<svg width="912pt" height="244pt"
 viewBox="0.00 0.00 912.11 244.00" xmlns="http://www.w3.org/2000/svg" xmlns:xlink="http://www.w3.org/1999/xlink">
<g id="graph1" class="graph" transform="scale(1 1) rotate(0) translate(4 240)">
<title>/home/kavonszadkowski/limes&#45;dev/simulation/mars/interfaces/src/sim/NodeInterface.h</title>
<polygon fill="white" stroke="white" points="-4,5 -4,-240 909.112,-240 909.112,5 -4,5"/>
<!-- Node1 -->
<g id="node1" class="node"><title>Node1</title>
<polygon fill="#bfbfbf" stroke="black" points="475.5,-175 475.5,-235 600.5,-235 600.5,-175 475.5,-175"/>
<text text-anchor="start" x="483.5" y="-222" font-family="Helvetica,sans-Serif" font-size="10.00">/home/kavonszadkowski</text>
<text text-anchor="start" x="483.5" y="-209" font-family="Helvetica,sans-Serif" font-size="10.00">/limes&#45;dev/simulation</text>
<text text-anchor="start" x="483.5" y="-196" font-family="Helvetica,sans-Serif" font-size="10.00">/mars/interfaces/src/sim</text>
<text text-anchor="middle" x="538" y="-183" font-family="Helvetica,sans-Serif" font-size="10.00">/NodeInterface.h</text>
</g>
<!-- Node2 -->
<g id="node3" class="node"><title>Node2</title>
<a xlink:href="../../d7/d1b/_node_data_8h.html" target="_top" xlink:title="../NodeData.h">
<polygon fill="white" stroke="black" points="310,-116.5 310,-137.5 388,-137.5 388,-116.5 310,-116.5"/>
<text text-anchor="middle" x="349" y="-124.5" font-family="Helvetica,sans-Serif" font-size="10.00">../NodeData.h</text>
</a>
</g>
<!-- Node1&#45;&gt;Node2 -->
<g id="edge2" class="edge"><title>Node1&#45;&gt;Node2</title>
<path fill="none" stroke="midnightblue" d="M475.328,-179.135C444.838,-166.552 409.343,-151.904 383.755,-141.344"/>
<polygon fill="midnightblue" stroke="midnightblue" points="385.044,-138.089 374.465,-137.509 382.373,-144.56 385.044,-138.089"/>
</g>
<!-- Node13 -->
<g id="node29" class="node"><title>Node13</title>
<a xlink:href="../../d5/dd6/sensor__bases_8h.html" target="_top" xlink:title="../sensor_bases.h">
<polygon fill="white" stroke="black" points="644.5,-116.5 644.5,-137.5 739.5,-137.5 739.5,-116.5 644.5,-116.5"/>
<text text-anchor="middle" x="692" y="-124.5" font-family="Helvetica,sans-Serif" font-size="10.00">../sensor_bases.h</text>
</a>
</g>
<!-- Node1&#45;&gt;Node13 -->
<g id="edge32" class="edge"><title>Node1&#45;&gt;Node13</title>
<path fill="none" stroke="midnightblue" d="M597.54,-174.843C619.596,-163.672 643.668,-151.48 661.992,-142.199"/>
<polygon fill="midnightblue" stroke="midnightblue" points="663.67,-145.273 671.009,-137.632 660.507,-139.028 663.67,-145.273"/>
</g>
<!-- Node17 -->
<g id="node44" class="node"><title>Node17</title>
<a xlink:href="../../d7/dec/_physics_interface_8h.html" target="_top" xlink:title="&quot;PhysicsInterface&quot; includes the methods to handle the physically world. ">
<polygon fill="white" stroke="black" points="489,-116.5 489,-137.5 587,-137.5 587,-116.5 489,-116.5"/>
<text text-anchor="middle" x="538" y="-124.5" font-family="Helvetica,sans-Serif" font-size="10.00">PhysicsInterface.h</text>
</a>
</g>
<!-- Node1&#45;&gt;Node17 -->
<g id="edge54" class="edge"><title>Node1&#45;&gt;Node17</title>
<path fill="none" stroke="midnightblue" d="M538,-174.62C538,-165.68 538,-156.103 538,-147.9"/>
<polygon fill="midnightblue" stroke="midnightblue" points="541.5,-147.753 538,-137.753 534.5,-147.753 541.5,-147.753"/>
</g>
<!-- Node3 -->
<g id="node5" class="node"><title>Node3</title>
<a xlink:href="../../d7/dc4/snmesh_8h.html" target="_top" xlink:title="snmesh.h">
<polygon fill="white" stroke="black" points="97.5,-58.5 97.5,-79.5 156.5,-79.5 156.5,-58.5 97.5,-58.5"/>
<text text-anchor="middle" x="127" y="-66.5" font-family="Helvetica,sans-Serif" font-size="10.00">snmesh.h</text>
</a>
</g>
<!-- Node2&#45;&gt;Node3 -->
<g id="edge4" class="edge"><title>Node2&#45;&gt;Node3</title>
<path fill="none" stroke="midnightblue" d="M309.822,-116.764C269.429,-106.211 206.8,-89.8487 166.346,-79.2796"/>
<polygon fill="midnightblue" stroke="midnightblue" points="167.126,-75.8659 156.566,-76.7244 165.356,-82.6386 167.126,-75.8659"/>
</g>
<!-- Node4 -->
<g id="node7" class="node"><title>Node4</title>
<a xlink:href="../../dd/d9e/_m_a_r_s_defs_8h.html" target="_top" xlink:title="MARSDefs.h">
<polygon fill="white" stroke="black" points="311.5,-0.5 311.5,-21.5 386.5,-21.5 386.5,-0.5 311.5,-0.5"/>
<text text-anchor="middle" x="349" y="-8.5" font-family="Helvetica,sans-Serif" font-size="10.00">MARSDefs.h</text>
</a>
</g>
<!-- Node2&#45;&gt;Node4 -->
<g id="edge22" class="edge"><title>Node2&#45;&gt;Node4</title>
<path fill="none" stroke="midnightblue" d="M309.898,-119.769C271.134,-111.711 215.741,-97.4861 203,-80 197.242,-72.0974 197.242,-65.9026 203,-58 214.84,-41.7507 263.511,-28.3179 301.443,-20.0328"/>
<polygon fill="midnightblue" stroke="midnightblue" points="302.266,-23.4363 311.321,-17.9366 300.813,-16.5888 302.266,-23.4363"/>
</g>
<!-- Node6 -->
<g id="node11" class="node"><title>Node6</title>
<a xlink:href="../../de/d75/_material_data_8h.html" target="_top" xlink:title="MaterialData.h">
<polygon fill="white" stroke="black" points="0,-58.5 0,-79.5 80,-79.5 80,-58.5 0,-58.5"/>
<text text-anchor="middle" x="40" y="-66.5" font-family="Helvetica,sans-Serif" font-size="10.00">MaterialData.h</text>
</a>
</g>
<!-- Node2&#45;&gt;Node6 -->
<g id="edge10" class="edge"><title>Node2&#45;&gt;Node6</title>
<path fill="none" stroke="midnightblue" d="M309.699,-120.425C260.641,-112.1 173.927,-97.0042 90.0315,-80.1516"/>
<polygon fill="midnightblue" stroke="midnightblue" points="90.5771,-76.6912 80.082,-78.1419 89.1911,-83.5526 90.5771,-76.6912"/>
</g>
<!-- Node8 -->
<g id="node16" class="node"><title>Node8</title>
<a xlink:href="../../dd/d54/contact__params_8h.html" target="_top" xlink:title="contact_params.h">
<polygon fill="white" stroke="black" points="301.5,-58.5 301.5,-79.5 396.5,-79.5 396.5,-58.5 301.5,-58.5"/>
<text text-anchor="middle" x="349" y="-66.5" font-family="Helvetica,sans-Serif" font-size="10.00">contact_params.h</text>
</a>
</g>
<!-- Node2&#45;&gt;Node8 -->
<g id="edge16" class="edge"><title>Node2&#45;&gt;Node8</title>
<path fill="none" stroke="midnightblue" d="M349,-116.362C349,-108.922 349,-98.7427 349,-89.7276"/>
<polygon fill="midnightblue" stroke="midnightblue" points="352.5,-89.5706 349,-79.5707 345.5,-89.5707 352.5,-89.5706"/>
</g>
<!-- Node9 -->
<g id="node19" class="node"><title>Node9</title>
<polygon fill="white" stroke="#bfbfbf" points="499.5,-0.5 499.5,-21.5 598.5,-21.5 598.5,-0.5 499.5,-0.5"/>
<text text-anchor="middle" x="549" y="-8.5" font-family="Helvetica,sans-Serif" font-size="10.00">mars/utils/Vector.h</text>
</g>
<!-- Node2&#45;&gt;Node9 -->
<g id="edge24" class="edge"><title>Node2&#45;&gt;Node9</title>
<path fill="none" stroke="midnightblue" d="M367.457,-116.295C402.969,-95.6981 480.931,-50.4799 522.181,-26.5548"/>
<polygon fill="midnightblue" stroke="midnightblue" points="523.982,-29.5565 530.876,-21.5117 520.47,-23.5013 523.982,-29.5565"/>
</g>
<!-- Node10 -->
<g id="node23" class="node"><title>Node10</title>
<polygon fill="white" stroke="#bfbfbf" points="763,-0.5 763,-21.5 881,-21.5 881,-0.5 763,-0.5"/>
<text text-anchor="middle" x="822" y="-8.5" font-family="Helvetica,sans-Serif" font-size="10.00">mars/utils/Quaternion.h</text>
</g>
<!-- Node2&#45;&gt;Node10 -->
<g id="edge26" class="edge"><title>Node2&#45;&gt;Node10</title>
<path fill="none" stroke="midnightblue" d="M388.159,-123.376C488.573,-113.976 748.524,-88.9248 765,-80 785.786,-68.7408 801.998,-46.494 811.731,-30.2962"/>
<polygon fill="midnightblue" stroke="midnightblue" points="814.784,-32.0074 816.698,-21.5869 808.703,-28.5392 814.784,-32.0074"/>
</g>
<!-- Node11 -->
<g id="node25" class="node"><title>Node11</title>
<polygon fill="white" stroke="#bfbfbf" points="441.5,-0.5 441.5,-21.5 482.5,-21.5 482.5,-0.5 441.5,-0.5"/>
<text text-anchor="middle" x="462" y="-8.5" font-family="Helvetica,sans-Serif" font-size="10.00">string</text>
</g>
<!-- Node2&#45;&gt;Node11 -->
<g id="edge28" class="edge"><title>Node2&#45;&gt;Node11</title>
<path fill="none" stroke="midnightblue" d="M362.955,-116.45C374.669,-107.328 391.59,-93.5149 405,-80 420.77,-64.1069 436.846,-44.2447 447.887,-29.9168"/>
<polygon fill="midnightblue" stroke="midnightblue" points="450.795,-31.8741 454.063,-21.7958 445.224,-27.6366 450.795,-31.8741"/>
</g>
<!-- Node12 -->
<g id="node27" class="node"><title>Node12</title>
<polygon fill="white" stroke="#bfbfbf" points="211.5,-58.5 211.5,-79.5 246.5,-79.5 246.5,-58.5 211.5,-58.5"/>
<text text-anchor="middle" x="229" y="-66.5" font-family="Helvetica,sans-Serif" font-size="10.00">map</text>
</g>
<!-- Node2&#45;&gt;Node12 -->
<g id="edge30" class="edge"><title>Node2&#45;&gt;Node12</title>
<path fill="none" stroke="midnightblue" d="M327.269,-116.497C307.238,-106.815 277.44,-92.4128 255.912,-82.0074"/>
<polygon fill="midnightblue" stroke="midnightblue" points="257.194,-78.7396 246.667,-77.5391 254.148,-85.0421 257.194,-78.7396"/>
</g>
<!-- Node3&#45;&gt;Node4 -->
<g id="edge6" class="edge"><title>Node3&#45;&gt;Node4</title>
<path fill="none" stroke="midnightblue" d="M156.94,-61.1779C194.052,-51.4819 257.746,-34.841 301.542,-23.399"/>
<polygon fill="midnightblue" stroke="midnightblue" points="302.601,-26.7398 311.392,-20.8256 300.832,-19.9671 302.601,-26.7398"/>
</g>
<!-- Node5 -->
<g id="node9" class="node"><title>Node5</title>
<polygon fill="white" stroke="#bfbfbf" points="8,-0.5 8,-21.5 102,-21.5 102,-0.5 8,-0.5"/>
<text text-anchor="middle" x="55" y="-8.5" font-family="Helvetica,sans-Serif" font-size="10.00">mars/utils/Color.h</text>
</g>
<!-- Node3&#45;&gt;Node5 -->
<g id="edge8" class="edge"><title>Node3&#45;&gt;Node5</title>
<path fill="none" stroke="midnightblue" d="M113.794,-58.3619C103.239,-49.859 88.2423,-37.7785 76.0371,-27.9466"/>
<polygon fill="midnightblue" stroke="midnightblue" points="78.1054,-25.1183 68.1222,-21.5707 73.7141,-30.5696 78.1054,-25.1183"/>
</g>
<!-- Node6&#45;&gt;Node5 -->
<g id="edge12" class="edge"><title>Node6&#45;&gt;Node5</title>
<path fill="none" stroke="midnightblue" d="M42.7512,-58.3619C44.6965,-50.8401 47.3659,-40.5187 49.7162,-31.4308"/>
<polygon fill="midnightblue" stroke="midnightblue" points="53.1508,-32.1285 52.2662,-21.5707 46.3738,-30.3758 53.1508,-32.1285"/>
</g>
<!-- Node7 -->
<g id="node14" class="node"><title>Node7</title>
<polygon fill="white" stroke="#bfbfbf" points="150,-0.5 150,-21.5 278,-21.5 278,-0.5 150,-0.5"/>
<text text-anchor="middle" x="214" y="-8.5" font-family="Helvetica,sans-Serif" font-size="10.00">configmaps/ConfigData.h</text>
</g>
<!-- Node6&#45;&gt;Node7 -->
<g id="edge14" class="edge"><title>Node6&#45;&gt;Node7</title>
<path fill="none" stroke="midnightblue" d="M71.5101,-58.4966C99.8768,-49.0411 141.751,-35.0829 172.772,-24.7428"/>
<polygon fill="midnightblue" stroke="midnightblue" points="174.051,-28.0058 182.431,-21.5231 171.837,-21.365 174.051,-28.0058"/>
</g>
<!-- Node8&#45;&gt;Node4 -->
<g id="edge18" class="edge"><title>Node8&#45;&gt;Node4</title>
<path fill="none" stroke="midnightblue" d="M349,-58.3619C349,-50.9219 349,-40.7427 349,-31.7276"/>
<polygon fill="midnightblue" stroke="midnightblue" points="352.5,-31.5706 349,-21.5707 345.5,-31.5707 352.5,-31.5706"/>
</g>
<!-- Node8&#45;&gt;Node9 -->
<g id="edge20" class="edge"><title>Node8&#45;&gt;Node9</title>
<path fill="none" stroke="midnightblue" d="M385.218,-58.4966C418.247,-48.9183 467.208,-34.7196 502.994,-24.3418"/>
<polygon fill="midnightblue" stroke="midnightblue" points="504.084,-27.6699 512.714,-21.5231 502.134,-20.9469 504.084,-27.6699"/>
</g>
<!-- Node13&#45;&gt;Node7 -->
<g id="edge44" class="edge"><title>Node13&#45;&gt;Node7</title>
<path fill="none" stroke="midnightblue" d="M644.153,-121.456C538.615,-109.214 294.997,-80.8862 293,-80 267.202,-68.5539 243.686,-45.6771 229.144,-29.4053"/>
<polygon fill="midnightblue" stroke="midnightblue" points="231.58,-26.8712 222.393,-21.5938 226.284,-31.4484 231.58,-26.8712"/>
</g>
<!-- Node13&#45;&gt;Node9 -->
<g id="edge48" class="edge"><title>Node13&#45;&gt;Node9</title>
<path fill="none" stroke="midnightblue" d="M717.97,-116.461C745.755,-103.669 783.492,-80.9486 765,-58 745.663,-34.003 665.573,-21.6171 608.57,-15.7184"/>
<polygon fill="midnightblue" stroke="midnightblue" points="608.867,-12.2308 598.57,-14.725 608.175,-19.1965 608.867,-12.2308"/>
</g>
<!-- Node13&#45;&gt;Node10 -->
<g id="edge46" class="edge"><title>Node13&#45;&gt;Node10</title>
<path fill="none" stroke="midnightblue" d="M739.77,-122.939C794.586,-117.173 879.456,-104.479 899,-80 915.831,-58.9191 886.366,-38.8105 859.16,-25.7974"/>
<polygon fill="midnightblue" stroke="midnightblue" points="860.262,-22.4539 849.71,-21.5005 857.365,-28.826 860.262,-22.4539"/>
</g>
<!-- Node14 -->
<g id="node31" class="node"><title>Node14</title>
<a xlink:href="../../df/db0/core__objects__exchange_8h.html" target="_top" xlink:title="core_objects_exchange.h">
<polygon fill="white" stroke="black" points="628,-58.5 628,-79.5 756,-79.5 756,-58.5 628,-58.5"/>
<text text-anchor="middle" x="692" y="-66.5" font-family="Helvetica,sans-Serif" font-size="10.00">core_objects_exchange.h</text>
</a>
</g>
<!-- Node13&#45;&gt;Node14 -->
<g id="edge34" class="edge"><title>Node13&#45;&gt;Node14</title>
<path fill="none" stroke="midnightblue" d="M692,-116.362C692,-108.922 692,-98.7427 692,-89.7276"/>
<polygon fill="midnightblue" stroke="midnightblue" points="695.5,-89.5706 692,-79.5707 688.5,-89.5707 695.5,-89.5706"/>
</g>
<!-- Node15 -->
<g id="node40" class="node"><title>Node15</title>
<polygon fill="white" stroke="#bfbfbf" points="566,-58.5 566,-79.5 610,-79.5 610,-58.5 566,-58.5"/>
<text text-anchor="middle" x="588" y="-66.5" font-family="Helvetica,sans-Serif" font-size="10.00">vector</text>
</g>
<!-- Node13&#45;&gt;Node15 -->
<g id="edge50" class="edge"><title>Node13&#45;&gt;Node15</title>
<path fill="none" stroke="midnightblue" d="M672.925,-116.362C656.945,-107.45 633.919,-94.6087 615.873,-84.5447"/>
<polygon fill="midnightblue" stroke="midnightblue" points="617.393,-81.3846 606.954,-79.5707 613.983,-87.4982 617.393,-81.3846"/>
</g>
<!-- Node16 -->
<g id="node42" class="node"><title>Node16</title>
<polygon fill="white" stroke="#bfbfbf" points="850,-58.5 850,-79.5 890,-79.5 890,-58.5 850,-58.5"/>
<text text-anchor="middle" x="870" y="-66.5" font-family="Helvetica,sans-Serif" font-size="10.00">limits</text>
</g>
<!-- Node13&#45;&gt;Node16 -->
<g id="edge52" class="edge"><title>Node13&#45;&gt;Node16</title>
<path fill="none" stroke="midnightblue" d="M724.234,-116.497C757.231,-105.745 808.094,-89.1717 840.183,-78.7157"/>
<polygon fill="midnightblue" stroke="midnightblue" points="841.472,-81.9769 849.895,-75.5509 839.303,-75.3213 841.472,-81.9769"/>
</g>
<!-- Node14&#45;&gt;Node4 -->
<g id="edge36" class="edge"><title>Node14&#45;&gt;Node4</title>
<path fill="none" stroke="midnightblue" d="M629.885,-58.4966C562.909,-47.1713 457.734,-29.3865 396.878,-19.0959"/>
<polygon fill="midnightblue" stroke="midnightblue" points="397.22,-15.6043 386.777,-17.3879 396.053,-22.5063 397.22,-15.6043"/>
</g>
<!-- Node14&#45;&gt;Node9 -->
<g id="edge38" class="edge"><title>Node14&#45;&gt;Node9</title>
<path fill="none" stroke="midnightblue" d="M666.104,-58.4966C643.367,-49.2746 610.07,-35.7695 584.788,-25.5153"/>
<polygon fill="midnightblue" stroke="midnightblue" points="585.769,-22.1365 575.187,-21.6212 583.138,-28.6232 585.769,-22.1365"/>
</g>
<!-- Node14&#45;&gt;Node10 -->
<g id="edge40" class="edge"><title>Node14&#45;&gt;Node10</title>
<path fill="none" stroke="midnightblue" d="M715.542,-58.4966C736.029,-49.3562 765.947,-36.0082 788.854,-25.7883"/>
<polygon fill="midnightblue" stroke="midnightblue" points="790.488,-28.892 798.194,-21.6212 787.635,-22.4994 790.488,-28.892"/>
</g>
<!-- Node14&#45;&gt;Node11 -->
<g id="edge42" class="edge"><title>Node14&#45;&gt;Node11</title>
<path fill="none" stroke="midnightblue" d="M638.163,-58.4421C599.698,-50.4383 546.615,-38.4597 492.542,-22.2347"/>
<polygon fill="midnightblue" stroke="midnightblue" points="493.38,-18.8314 482.794,-19.2662 491.341,-25.5277 493.38,-18.8314"/>
</g>
<!-- Node17&#45;&gt;Node4 -->
<g id="edge56" class="edge"><title>Node17&#45;&gt;Node4</title>
<path fill="none" stroke="midnightblue" d="M520.558,-116.295C487.141,-95.7846 413.943,-50.8594 374.837,-26.8575"/>
<polygon fill="midnightblue" stroke="midnightblue" points="376.48,-23.7596 366.127,-21.5117 372.819,-29.7256 376.48,-23.7596"/>
</g>
<!-- Node17&#45;&gt;Node9 -->
<g id="edge58" class="edge"><title>Node17&#45;&gt;Node9</title>
<path fill="none" stroke="midnightblue" d="M539.015,-116.295C540.832,-97.1314 544.671,-56.654 547.023,-31.8434"/>
<polygon fill="midnightblue" stroke="midnightblue" points="550.528,-31.965 547.987,-21.6792 543.559,-31.3041 550.528,-31.965"/>
</g>
<!-- Node17&#45;&gt;Node15 -->
<g id="edge60" class="edge"><title>Node17&#45;&gt;Node15</title>
<path fill="none" stroke="midnightblue" d="M547.171,-116.362C554.148,-108.268 563.921,-96.9318 572.156,-87.3796"/>
<polygon fill="midnightblue" stroke="midnightblue" points="575.009,-89.4301 578.887,-79.5707 569.707,-84.8595 575.009,-89.4301"/>
</g>
</g>
</svg>
