<?xml version="1.0" encoding="UTF-8" standalone="no"?>
<!DOCTYPE svg PUBLIC "-//W3C//DTD SVG 1.1//EN"
 "http://www.w3.org/Graphics/SVG/1.1/DTD/svg11.dtd">
<!-- Generated by graphviz version 2.26.3 (20100126.1600)
 -->
<!-- Title: JoystickPlugin Pages: 1 -->
<svg width="766pt" height="318pt"
 viewBox="0.00 0.00 766.00 318.00" xmlns="http://www.w3.org/2000/svg" xmlns:xlink="http://www.w3.org/1999/xlink">
<g id="graph1" class="graph" transform="scale(1 1) rotate(0) translate(4 314)">
<title>JoystickPlugin</title>
<polygon fill="white" stroke="white" points="-4,5 -4,-314 763,-314 763,5 -4,5"/>
<!-- Node1 -->
<g id="node1" class="node"><title>Node1</title>
<polygon fill="#bfbfbf" stroke="black" points="678,-132.5 678,-153.5 758,-153.5 758,-132.5 678,-132.5"/>
<text text-anchor="middle" x="718" y="-140.5" font-family="Helvetica,sans-Serif" font-size="10.00">JoystickPlugin</text>
</g>
<!-- Node2 -->
<g id="node2" class="node"><title>Node2</title>
<polygon fill="white" stroke="#bfbfbf" points="461.5,-276 461.5,-310 564.5,-310 564.5,-276 461.5,-276"/>
<text text-anchor="start" x="469.5" y="-297" font-family="Helvetica,sans-Serif" font-size="10.00">mars::lib_manager::</text>
<text text-anchor="middle" x="513" y="-284" font-family="Helvetica,sans-Serif" font-size="10.00">LibInterface</text>
</g>
<!-- Node2&#45;&gt;Node1 -->
<g id="edge2" class="edge"><title>Node2&#45;&gt;Node1</title>
<path fill="none" stroke="midnightblue" d="M565.261,-271.583C568.248,-270.094 571.181,-268.562 574,-267 614.764,-244.41 625.019,-237.796 660,-207 679.359,-189.958 698.886,-166.925 709.617,-153.645"/>
<polygon fill="midnightblue" stroke="midnightblue" points="563.713,-268.444 556.195,-275.91 566.728,-274.761 563.713,-268.444"/>
</g>
<!-- Node3 -->
<g id="node4" class="node"><title>Node3</title>
<a xlink:href="../../d1/db0/classmars_1_1data__broker_1_1_producer_interface.html" target="_top" xlink:title="Interface for classes producing data to broadcast via a DataBroker. ">
<polygon fill="white" stroke="black" points="462.5,-224 462.5,-258 563.5,-258 563.5,-224 462.5,-224"/>
<text text-anchor="start" x="470.5" y="-245" font-family="Helvetica,sans-Serif" font-size="10.00">mars::data_broker::</text>
<text text-anchor="middle" x="513" y="-232" font-family="Helvetica,sans-Serif" font-size="10.00">ProducerInterface</text>
</a>
</g>
<!-- Node3&#45;&gt;Node1 -->
<g id="edge4" class="edge"><title>Node3&#45;&gt;Node1</title>
<path fill="none" stroke="midnightblue" d="M566.458,-220.191C594.709,-208.671 629.713,-193.561 660,-178 674.436,-170.583 690.162,-160.992 701.593,-153.726"/>
<polygon fill="midnightblue" stroke="midnightblue" points="565.11,-216.961 557.153,-223.956 567.735,-223.45 565.11,-216.961"/>
</g>
<!-- Node4 -->
<g id="node6" class="node"><title>Node4</title>
<a xlink:href="../../d0/d0e/classmars_1_1data__broker_1_1_receiver_interface.html" target="_top" xlink:title="Interface for classes that want to receive data from the DataBroker. ">
<polygon fill="white" stroke="black" points="462.5,-172 462.5,-206 563.5,-206 563.5,-172 462.5,-172"/>
<text text-anchor="start" x="470.5" y="-193" font-family="Helvetica,sans-Serif" font-size="10.00">mars::data_broker::</text>
<text text-anchor="middle" x="513" y="-180" font-family="Helvetica,sans-Serif" font-size="10.00">ReceiverInterface</text>
</a>
</g>
<!-- Node4&#45;&gt;Node1 -->
<g id="edge6" class="edge"><title>Node4&#45;&gt;Node1</title>
<path fill="none" stroke="midnightblue" d="M573.658,-176.116C600.193,-170.398 631.671,-163.502 660,-157 665.755,-155.679 671.822,-154.253 677.778,-152.833"/>
<polygon fill="midnightblue" stroke="midnightblue" points="572.788,-172.723 563.747,-178.247 574.259,-179.567 572.788,-172.723"/>
</g>
<!-- Node5 -->
<g id="node8" class="node"><title>Node5</title>
<a xlink:href="../../d0/d76/classmars_1_1utils_1_1_thread.html" target="_top" xlink:title="mars::utils::Thread">
<polygon fill="white" stroke="black" points="464,-132.5 464,-153.5 562,-153.5 562,-132.5 464,-132.5"/>
<text text-anchor="middle" x="513" y="-140.5" font-family="Helvetica,sans-Serif" font-size="10.00">mars::utils::Thread</text>
</a>
</g>
<!-- Node5&#45;&gt;Node1 -->
<g id="edge8" class="edge"><title>Node5&#45;&gt;Node1</title>
<path fill="none" stroke="midnightblue" d="M572.354,-143C606.25,-143 647.846,-143 677.895,-143"/>
<polygon fill="midnightblue" stroke="midnightblue" points="572.103,-139.5 562.103,-143 572.103,-146.5 572.103,-139.5"/>
</g>
<!-- Node6 -->
<g id="node10" class="node"><title>Node6</title>
<a xlink:href="../../db/de7/structmars_1_1utils_1_1_pthread_thread_wrapper.html" target="_top" xlink:title="mars::utils::PthreadThread\lWrapper">
<polygon fill="white" stroke="black" points="210,-169 210,-203 342,-203 342,-169 210,-169"/>
<text text-anchor="start" x="218" y="-190" font-family="Helvetica,sans-Serif" font-size="10.00">mars::utils::PthreadThread</text>
<text text-anchor="middle" x="276" y="-177" font-family="Helvetica,sans-Serif" font-size="10.00">Wrapper</text>
</a>
</g>
<!-- Node6&#45;&gt;Node5 -->
<g id="edge10" class="edge"><title>Node6&#45;&gt;Node5</title>
<path fill="none" stroke="#9a32cd" stroke-dasharray="5,2" d="M352.292,-172.674C378.235,-168.091 407.392,-162.884 434,-158 443.612,-156.236 453.874,-154.315 463.712,-152.455"/>
<polygon fill="#9a32cd" stroke="#9a32cd" points="351.384,-169.28 342.144,-174.464 352.6,-176.174 351.384,-169.28"/>
<text text-anchor="middle" x="397" y="-175" font-family="Helvetica,sans-Serif" font-size="10.00"> myThread</text>
</g>
<!-- Node7 -->
<g id="node12" class="node"><title>Node7</title>
<a xlink:href="../../d6/d90/classmars_1_1utils_1_1_mutex.html" target="_top" xlink:title="mars::utils::Mutex">
<polygon fill="white" stroke="black" points="228.5,-129.5 228.5,-150.5 323.5,-150.5 323.5,-129.5 228.5,-129.5"/>
<text text-anchor="middle" x="276" y="-137.5" font-family="Helvetica,sans-Serif" font-size="10.00">mars::utils::Mutex</text>
</a>
</g>
<!-- Node7&#45;&gt;Node5 -->
<g id="edge12" class="edge"><title>Node7&#45;&gt;Node5</title>
<path fill="none" stroke="#9a32cd" stroke-dasharray="5,2" d="M333.77,-140.731C373.586,-141.235 425.937,-141.898 463.77,-142.377"/>
<polygon fill="#9a32cd" stroke="#9a32cd" points="333.719,-137.23 323.675,-140.603 333.63,-144.23 333.719,-137.23"/>
<text text-anchor="middle" x="397" y="-145" font-family="Helvetica,sans-Serif" font-size="10.00"> threadListMutex</text>
</g>
<!-- Node8 -->
<g id="node14" class="node"><title>Node8</title>
<a xlink:href="../../d6/d9e/structmars_1_1utils_1_1_pthread_mutex_wrapper.html" target="_top" xlink:title="mars::utils::PthreadMutex\lWrapper">
<polygon fill="white" stroke="black" points="0.5,-123 0.5,-157 129.5,-157 129.5,-123 0.5,-123"/>
<text text-anchor="start" x="8.5" y="-144" font-family="Helvetica,sans-Serif" font-size="10.00">mars::utils::PthreadMutex</text>
<text text-anchor="middle" x="65" y="-131" font-family="Helvetica,sans-Serif" font-size="10.00">Wrapper</text>
</a>
</g>
<!-- Node8&#45;&gt;Node7 -->
<g id="edge14" class="edge"><title>Node8&#45;&gt;Node7</title>
<path fill="none" stroke="#9a32cd" stroke-dasharray="5,2" d="M140,-140C169.462,-140 202.396,-140 228.475,-140"/>
<polygon fill="#9a32cd" stroke="#9a32cd" points="139.741,-136.5 129.741,-140 139.741,-143.5 139.741,-136.5"/>
<text text-anchor="middle" x="170" y="-144" font-family="Helvetica,sans-Serif" font-size="10.00"> myMutex</text>
</g>
<!-- Node9 -->
<g id="node16" class="node"><title>Node9</title>
<a xlink:href="../../d6/d2e/classmars_1_1data__broker_1_1_data_broker_interface.html" target="_top" xlink:title="The interface every DataBroker should implement. ">
<polygon fill="white" stroke="black" points="461,-80 461,-114 565,-114 565,-80 461,-80"/>
<text text-anchor="start" x="469" y="-101" font-family="Helvetica,sans-Serif" font-size="10.00">mars::data_broker::</text>
<text text-anchor="middle" x="513" y="-88" font-family="Helvetica,sans-Serif" font-size="10.00">DataBrokerInterface</text>
</a>
</g>
<!-- Node9&#45;&gt;Node1 -->
<g id="edge16" class="edge"><title>Node9&#45;&gt;Node1</title>
<path fill="none" stroke="#9a32cd" stroke-dasharray="5,2" d="M575.134,-107.97C601.433,-112.946 632.33,-119.23 660,-126 667.746,-127.895 676.005,-130.163 683.789,-132.416"/>
<polygon fill="#9a32cd" stroke="#9a32cd" points="575.769,-104.528 565.296,-106.129 574.481,-111.409 575.769,-104.528"/>
<text text-anchor="middle" x="626" y="-130" font-family="Helvetica,sans-Serif" font-size="10.00"> dataBroker</text>
</g>
<!-- Node10 -->
<g id="node18" class="node"><title>Node10</title>
<polygon fill="white" stroke="#bfbfbf" points="242,-86.5 242,-107.5 310,-107.5 310,-86.5 242,-86.5"/>
<text text-anchor="middle" x="276" y="-94.5" font-family="Helvetica,sans-Serif" font-size="10.00">LibInterface</text>
</g>
<!-- Node10&#45;&gt;Node9 -->
<g id="edge18" class="edge"><title>Node10&#45;&gt;Node9</title>
<path fill="none" stroke="midnightblue" d="M320.422,-97C360.283,-97 418.815,-97 460.877,-97"/>
<polygon fill="midnightblue" stroke="midnightblue" points="320.209,-93.5001 310.209,-97 320.209,-100.5 320.209,-93.5001"/>
</g>
<!-- Node11 -->
<g id="node20" class="node"><title>Node11</title>
<polygon fill="white" stroke="#bfbfbf" points="492.5,-40.5 492.5,-61.5 533.5,-61.5 533.5,-40.5 492.5,-40.5"/>
<text text-anchor="middle" x="513" y="-48.5" font-family="Helvetica,sans-Serif" font-size="10.00">string</text>
</g>
<!-- Node11&#45;&gt;Node1 -->
<g id="edge20" class="edge"><title>Node11&#45;&gt;Node1</title>
<path fill="none" stroke="#9a32cd" stroke-dasharray="5,2" d="M543.836,-51.8866C574.956,-53.9752 623.5,-60.5823 660,-81 682.64,-93.6645 701.564,-118.22 711.181,-132.33"/>
<polygon fill="#9a32cd" stroke="#9a32cd" points="543.782,-48.3783 533.604,-51.321 543.396,-55.3677 543.782,-48.3783"/>
<text text-anchor="middle" x="626" y="-98" font-family="Helvetica,sans-Serif" font-size="10.00"> producerName</text>
<text text-anchor="middle" x="626" y="-85" font-family="Helvetica,sans-Serif" font-size="10.00">libName</text>
</g>
<!-- Node12 -->
<g id="node22" class="node"><title>Node12</title>
<a xlink:href="../../d8/d0a/class_game_controller_manager.html" target="_top" xlink:title="GameControllerManager">
<polygon fill="white" stroke="black" points="452,-0.5 452,-21.5 574,-21.5 574,-0.5 452,-0.5"/>
<text text-anchor="middle" x="513" y="-8.5" font-family="Helvetica,sans-Serif" font-size="10.00">GameControllerManager</text>
</a>
</g>
<!-- Node12&#45;&gt;Node1 -->
<g id="edge22" class="edge"><title>Node12&#45;&gt;Node1</title>
<path fill="none" stroke="#9a32cd" stroke-dasharray="5,2" d="M584.259,-14.02C610.074,-18.0522 638.211,-26.1572 660,-42 691.891,-65.1876 708.85,-111.652 715.122,-132.479"/>
<polygon fill="#9a32cd" stroke="#9a32cd" points="584.506,-10.5211 574.122,-12.621 583.549,-17.4553 584.506,-10.5211"/>
<text text-anchor="middle" x="626" y="-46" font-family="Helvetica,sans-Serif" font-size="10.00"> gcManager</text>
</g>
<!-- Node13 -->
<g id="node24" class="node"><title>Node13</title>
<a xlink:href="../../d7/db1/class_g_c_manager_interface.html" target="_top" xlink:title="GCManagerInterface">
<polygon fill="white" stroke="black" points="222.5,-0.5 222.5,-21.5 329.5,-21.5 329.5,-0.5 222.5,-0.5"/>
<text text-anchor="middle" x="276" y="-8.5" font-family="Helvetica,sans-Serif" font-size="10.00">GCManagerInterface</text>
</a>
</g>
<!-- Node13&#45;&gt;Node12 -->
<g id="edge24" class="edge"><title>Node13&#45;&gt;Node12</title>
<path fill="none" stroke="#9a32cd" stroke-dasharray="5,2" d="M339.838,-11C374.656,-11 417.535,-11 451.914,-11"/>
<polygon fill="#9a32cd" stroke="#9a32cd" points="339.779,-7.5001 329.779,-11 339.779,-14.5001 339.779,-7.5001"/>
<text text-anchor="middle" x="397" y="-15" font-family="Helvetica,sans-Serif" font-size="10.00"> myGCManager</text>
</g>
</g>
</svg>
