<?xml version="1.0" encoding="UTF-8" standalone="no"?>
<!DOCTYPE svg PUBLIC "-//W3C//DTD SVG 1.1//EN"
 "http://www.w3.org/Graphics/SVG/1.1/DTD/svg11.dtd">
<!-- Generated by graphviz version 2.36.0 (20140111.2315)
 -->
<!-- Title: /media/kavonszadkowski/work/marsdocs/mars/sim/src/core/Controller.cpp Pages: 1 -->
<svg width="3341pt" height="322pt"
 viewBox="0.00 0.00 3341.00 322.00" xmlns="http://www.w3.org/2000/svg" xmlns:xlink="http://www.w3.org/1999/xlink">
<g id="graph0" class="graph" transform="scale(1 1) rotate(0) translate(4 318)">
<title>/media/kavonszadkowski/work/marsdocs/mars/sim/src/core/Controller.cpp</title>
<polygon fill="white" stroke="none" points="-4,4 -4,-318 3337,-318 3337,4 -4,4"/>
<!-- Node1 -->
<g id="node1" class="node"><title>Node1</title>
<polygon fill="#bfbfbf" stroke="black" points="2467,-272.5 2467,-313.5 2597,-313.5 2597,-272.5 2467,-272.5"/>
<text text-anchor="start" x="2475" y="-301.5" font-family="Helvetica,sans-Serif" font-size="10.00">/media/kavonszadkowski</text>
<text text-anchor="start" x="2475" y="-290.5" font-family="Helvetica,sans-Serif" font-size="10.00">/work/marsdocs/mars/sim</text>
<text text-anchor="middle" x="2532" y="-279.5" font-family="Helvetica,sans-Serif" font-size="10.00">/src/core/Controller.cpp</text>
</g>
<!-- Node2 -->
<g id="node2" class="node"><title>Node2</title>
<g id="a_node2"><a xlink:href="../../d2/d94/_controller_8h.html" target="_top" xlink:title="&quot;Controller&quot; provides an architecture to log all relevant data from the simulation in file...">
<polygon fill="white" stroke="black" points="1046.5,-210.5 1046.5,-229.5 1113.5,-229.5 1113.5,-210.5 1046.5,-210.5"/>
<text text-anchor="middle" x="1080" y="-217.5" font-family="Helvetica,sans-Serif" font-size="10.00">Controller.h</text>
</a>
</g>
</g>
<!-- Node1&#45;&gt;Node2 -->
<g id="edge1" class="edge"><title>Node1&#45;&gt;Node2</title>
<path fill="none" stroke="midnightblue" d="M2466.79,-288.811C2217.97,-276.644 1331.81,-233.313 1123.89,-223.146"/>
<polygon fill="midnightblue" stroke="midnightblue" points="1123.83,-219.639 1113.67,-222.646 1123.48,-226.631 1123.83,-219.639"/>
</g>
<!-- Node11 -->
<g id="node11" class="node"><title>Node11</title>
<polygon fill="white" stroke="#bfbfbf" points="1332.5,-74.5 1332.5,-93.5 1445.5,-93.5 1445.5,-74.5 1332.5,-74.5"/>
<text text-anchor="middle" x="1389" y="-81.5" font-family="Helvetica,sans-Serif" font-size="10.00">mars/utils/mathUtils.h</text>
</g>
<!-- Node1&#45;&gt;Node11 -->
<g id="edge33" class="edge"><title>Node1&#45;&gt;Node11</title>
<path fill="none" stroke="midnightblue" d="M2466.99,-290.149C2314.03,-285.248 1940.83,-269.921 1896,-236 1858.09,-207.312 1895.62,-165.075 1858,-136 1826.87,-111.94 1578.25,-95.2659 1456.16,-88.4451"/>
<polygon fill="midnightblue" stroke="midnightblue" points="1456,-84.9307 1445.82,-87.8738 1455.61,-91.92 1456,-84.9307"/>
</g>
<!-- Node27 -->
<g id="node27" class="node"><title>Node27</title>
<polygon fill="white" stroke="#bfbfbf" points="1905.5,-205 1905.5,-235 2032.5,-235 2032.5,-205 1905.5,-205"/>
<text text-anchor="start" x="1913.5" y="-223" font-family="Helvetica,sans-Serif" font-size="10.00">mars/interfaces/sim</text>
<text text-anchor="middle" x="1969" y="-212" font-family="Helvetica,sans-Serif" font-size="10.00">/NodeManagerInterface.h</text>
</g>
<!-- Node1&#45;&gt;Node27 -->
<g id="edge27" class="edge"><title>Node1&#45;&gt;Node27</title>
<path fill="none" stroke="midnightblue" d="M2466.61,-286.468C2374.29,-278.231 2200.3,-261.143 2042.89,-236.221"/>
<polygon fill="midnightblue" stroke="midnightblue" points="2042.97,-232.69 2032.54,-234.569 2041.87,-239.603 2042.97,-232.69"/>
</g>
<!-- Node28 -->
<g id="node28" class="node"><title>Node28</title>
<polygon fill="white" stroke="#bfbfbf" points="2050.5,-205 2050.5,-235 2157.5,-235 2157.5,-205 2050.5,-205"/>
<text text-anchor="start" x="2058.5" y="-223" font-family="Helvetica,sans-Serif" font-size="10.00">mars/interfaces/sim</text>
<text text-anchor="middle" x="2104" y="-212" font-family="Helvetica,sans-Serif" font-size="10.00">/SimulatorInterface.h</text>
</g>
<!-- Node1&#45;&gt;Node28 -->
<g id="edge28" class="edge"><title>Node1&#45;&gt;Node28</title>
<path fill="none" stroke="midnightblue" d="M2466.92,-283.753C2395.66,-274.339 2277.85,-257.649 2167.66,-236.242"/>
<polygon fill="midnightblue" stroke="midnightblue" points="2168.19,-232.78 2157.71,-234.291 2166.85,-239.649 2168.19,-232.78"/>
</g>
<!-- Node29 -->
<g id="node29" class="node"><title>Node29</title>
<polygon fill="white" stroke="#bfbfbf" points="2175.5,-205 2175.5,-235 2300.5,-235 2300.5,-205 2175.5,-205"/>
<text text-anchor="start" x="2183.5" y="-223" font-family="Helvetica,sans-Serif" font-size="10.00">mars/interfaces/sim</text>
<text text-anchor="middle" x="2238" y="-212" font-family="Helvetica,sans-Serif" font-size="10.00">/JointManagerInterface.h</text>
</g>
<!-- Node1&#45;&gt;Node29 -->
<g id="edge29" class="edge"><title>Node1&#45;&gt;Node29</title>
<path fill="none" stroke="midnightblue" d="M2466.75,-276.243C2418.96,-264.7 2354.25,-249.074 2305.86,-237.387"/>
<polygon fill="midnightblue" stroke="midnightblue" points="2306.64,-233.975 2296.1,-235.03 2304.99,-240.78 2306.64,-233.975"/>
</g>
<!-- Node30 -->
<g id="node30" class="node"><title>Node30</title>
<polygon fill="white" stroke="#bfbfbf" points="2319,-205 2319,-235 2447,-235 2447,-205 2319,-205"/>
<text text-anchor="start" x="2327" y="-223" font-family="Helvetica,sans-Serif" font-size="10.00">mars/interfaces/sim</text>
<text text-anchor="middle" x="2383" y="-212" font-family="Helvetica,sans-Serif" font-size="10.00">/MotorManagerInterface.h</text>
</g>
<!-- Node1&#45;&gt;Node30 -->
<g id="edge30" class="edge"><title>Node1&#45;&gt;Node30</title>
<path fill="none" stroke="midnightblue" d="M2490.89,-272.411C2469.28,-262.114 2442.94,-249.564 2421.7,-239.442"/>
<polygon fill="midnightblue" stroke="midnightblue" points="2423.17,-236.265 2412.64,-235.123 2420.16,-242.584 2423.17,-236.265"/>
</g>
<!-- Node31 -->
<g id="node31" class="node"><title>Node31</title>
<polygon fill="white" stroke="#bfbfbf" points="2465,-205 2465,-235 2599,-235 2599,-205 2465,-205"/>
<text text-anchor="start" x="2473" y="-223" font-family="Helvetica,sans-Serif" font-size="10.00">mars/interfaces/sim</text>
<text text-anchor="middle" x="2532" y="-212" font-family="Helvetica,sans-Serif" font-size="10.00">/SensorManagerInterface.h</text>
</g>
<!-- Node1&#45;&gt;Node31 -->
<g id="edge31" class="edge"><title>Node1&#45;&gt;Node31</title>
<path fill="none" stroke="midnightblue" d="M2532,-272.223C2532,-263.821 2532,-253.948 2532,-245.123"/>
<polygon fill="midnightblue" stroke="midnightblue" points="2535.5,-245.048 2532,-235.049 2528.5,-245.049 2535.5,-245.048"/>
</g>
<!-- Node32 -->
<g id="node32" class="node"><title>Node32</title>
<polygon fill="white" stroke="#bfbfbf" points="2617,-210.5 2617,-229.5 2709,-229.5 2709,-210.5 2617,-210.5"/>
<text text-anchor="middle" x="2663" y="-217.5" font-family="Helvetica,sans-Serif" font-size="10.00">mars/utils/misc.h</text>
</g>
<!-- Node1&#45;&gt;Node32 -->
<g id="edge32" class="edge"><title>Node1&#45;&gt;Node32</title>
<path fill="none" stroke="midnightblue" d="M2568.14,-272.411C2590.4,-260.347 2618.36,-245.193 2638.14,-234.471"/>
<polygon fill="midnightblue" stroke="midnightblue" points="2640.01,-237.439 2647.14,-229.597 2636.68,-231.285 2640.01,-237.439"/>
</g>
<!-- Node33 -->
<g id="node33" class="node"><title>Node33</title>
<polygon fill="white" stroke="#bfbfbf" points="2727,-210.5 2727,-229.5 2867,-229.5 2867,-210.5 2727,-210.5"/>
<text text-anchor="middle" x="2797" y="-217.5" font-family="Helvetica,sans-Serif" font-size="10.00">mars/interfaces/Logging.hpp</text>
</g>
<!-- Node1&#45;&gt;Node33 -->
<g id="edge34" class="edge"><title>Node1&#45;&gt;Node33</title>
<path fill="none" stroke="midnightblue" d="M2597.17,-274.541C2646.54,-261.312 2712.9,-243.532 2755.32,-232.167"/>
<polygon fill="midnightblue" stroke="midnightblue" points="2756.29,-235.531 2765.04,-229.563 2754.48,-228.77 2756.29,-235.531"/>
</g>
<!-- Node34 -->
<g id="node34" class="node"><title>Node34</title>
<polygon fill="white" stroke="#bfbfbf" points="2885.5,-205 2885.5,-235 3030.5,-235 3030.5,-205 2885.5,-205"/>
<text text-anchor="start" x="2893.5" y="-223" font-family="Helvetica,sans-Serif" font-size="10.00">mars/data_broker/DataBroker</text>
<text text-anchor="middle" x="2958" y="-212" font-family="Helvetica,sans-Serif" font-size="10.00">Interface.h</text>
</g>
<!-- Node1&#45;&gt;Node34 -->
<g id="edge35" class="edge"><title>Node1&#45;&gt;Node34</title>
<path fill="none" stroke="midnightblue" d="M2597.05,-281.798C2664.11,-271.194 2771.96,-253.895 2875.16,-236.126"/>
<polygon fill="midnightblue" stroke="midnightblue" points="2875.88,-239.555 2885.14,-234.405 2874.69,-232.657 2875.88,-239.555"/>
</g>
<!-- Node35 -->
<g id="node35" class="node"><title>Node35</title>
<polygon fill="white" stroke="#bfbfbf" points="3048.5,-205 3048.5,-235 3207.5,-235 3207.5,-205 3048.5,-205"/>
<text text-anchor="start" x="3056.5" y="-223" font-family="Helvetica,sans-Serif" font-size="10.00">mars/cfg_manager/CFGManager</text>
<text text-anchor="middle" x="3128" y="-212" font-family="Helvetica,sans-Serif" font-size="10.00">Interface.h</text>
</g>
<!-- Node1&#45;&gt;Node35 -->
<g id="edge36" class="edge"><title>Node1&#45;&gt;Node35</title>
<path fill="none" stroke="midnightblue" d="M2597.38,-285.98C2692.11,-276.991 2873.28,-258.801 3038.13,-236.07"/>
<polygon fill="midnightblue" stroke="midnightblue" points="3039.03,-239.478 3048.46,-234.637 3038.07,-232.544 3039.03,-239.478"/>
</g>
<!-- Node36 -->
<g id="node36" class="node"><title>Node36</title>
<polygon fill="white" stroke="#bfbfbf" points="3225,-210.5 3225,-229.5 3269,-229.5 3269,-210.5 3225,-210.5"/>
<text text-anchor="middle" x="3247" y="-217.5" font-family="Helvetica,sans-Serif" font-size="10.00">cmath</text>
</g>
<!-- Node1&#45;&gt;Node36 -->
<g id="edge37" class="edge"><title>Node1&#45;&gt;Node36</title>
<path fill="none" stroke="midnightblue" d="M2597.15,-289.718C2744.69,-284.056 3100.47,-267.498 3216,-236 3218.2,-235.399 3220.44,-234.644 3222.65,-233.794"/>
<polygon fill="midnightblue" stroke="midnightblue" points="3224.27,-236.904 3231.98,-229.642 3221.42,-230.508 3224.27,-236.904"/>
</g>
<!-- Node37 -->
<g id="node37" class="node"><title>Node37</title>
<polygon fill="white" stroke="#bfbfbf" points="3287,-210.5 3287,-229.5 3333,-229.5 3333,-210.5 3287,-210.5"/>
<text text-anchor="middle" x="3310" y="-217.5" font-family="Helvetica,sans-Serif" font-size="10.00">cstring</text>
</g>
<!-- Node1&#45;&gt;Node37 -->
<g id="edge38" class="edge"><title>Node1&#45;&gt;Node37</title>
<path fill="none" stroke="midnightblue" d="M2597.02,-290.033C2753.8,-284.822 3149.15,-268.757 3277,-236 3279.51,-235.358 3282.06,-234.535 3284.58,-233.605"/>
<polygon fill="midnightblue" stroke="midnightblue" points="3286.11,-236.76 3293.96,-229.654 3283.39,-230.309 3286.11,-236.76"/>
</g>
<!-- Node3 -->
<g id="node3" class="node"><title>Node3</title>
<g id="a_node3"><a xlink:href="../../d6/de5/_sim_motor_8h.html" target="_top" xlink:title="SimMotor.h">
<polygon fill="white" stroke="black" points="479.5,-142.5 479.5,-161.5 546.5,-161.5 546.5,-142.5 479.5,-142.5"/>
<text text-anchor="middle" x="513" y="-149.5" font-family="Helvetica,sans-Serif" font-size="10.00">SimMotor.h</text>
</a>
</g>
</g>
<!-- Node2&#45;&gt;Node3 -->
<g id="edge2" class="edge"><title>Node2&#45;&gt;Node3</title>
<path fill="none" stroke="midnightblue" d="M1046.46,-218.496C962.729,-216.645 738.114,-208.023 556,-168 552.03,-167.128 547.921,-166.001 543.888,-164.757"/>
<polygon fill="midnightblue" stroke="midnightblue" points="544.738,-161.351 534.144,-161.502 542.52,-167.99 544.738,-161.351"/>
</g>
<!-- Node13 -->
<g id="node13" class="node"><title>Node13</title>
<polygon fill="white" stroke="#bfbfbf" points="565,-142.5 565,-161.5 611,-161.5 611,-142.5 565,-142.5"/>
<text text-anchor="middle" x="588" y="-149.5" font-family="Helvetica,sans-Serif" font-size="10.00">dlfcn.h</text>
</g>
<!-- Node2&#45;&gt;Node13 -->
<g id="edge13" class="edge"><title>Node2&#45;&gt;Node13</title>
<path fill="none" stroke="midnightblue" d="M1046.38,-219.003C969.407,-218.21 775.076,-211.65 620,-168 617.658,-167.341 615.273,-166.526 612.916,-165.619"/>
<polygon fill="midnightblue" stroke="midnightblue" points="614.121,-162.326 603.555,-161.541 611.325,-168.744 614.121,-162.326"/>
</g>
<!-- Node14 -->
<g id="node14" class="node"><title>Node14</title>
<polygon fill="white" stroke="#bfbfbf" points="629,-142.5 629,-161.5 697,-161.5 697,-142.5 629,-142.5"/>
<text text-anchor="middle" x="663" y="-149.5" font-family="Helvetica,sans-Serif" font-size="10.00">sys/types.h</text>
</g>
<!-- Node2&#45;&gt;Node14 -->
<g id="edge14" class="edge"><title>Node2&#45;&gt;Node14</title>
<path fill="none" stroke="midnightblue" d="M1046.31,-216.677C980.27,-211.625 829.46,-197.635 706,-168 702.324,-167.118 698.521,-166.042 694.767,-164.875"/>
<polygon fill="midnightblue" stroke="midnightblue" points="695.658,-161.483 685.065,-161.647 693.448,-168.125 695.658,-161.483"/>
</g>
<!-- Node15 -->
<g id="node15" class="node"><title>Node15</title>
<polygon fill="white" stroke="#bfbfbf" points="715.5,-142.5 715.5,-161.5 788.5,-161.5 788.5,-142.5 715.5,-142.5"/>
<text text-anchor="middle" x="752" y="-149.5" font-family="Helvetica,sans-Serif" font-size="10.00">sys/socket.h</text>
</g>
<!-- Node2&#45;&gt;Node15 -->
<g id="edge15" class="edge"><title>Node2&#45;&gt;Node15</title>
<path fill="none" stroke="midnightblue" d="M1046.12,-214.499C992.68,-207.042 885.761,-190.667 797,-168 793.16,-167.019 789.174,-165.877 785.231,-164.669"/>
<polygon fill="midnightblue" stroke="midnightblue" points="786.223,-161.312 775.632,-161.585 784.081,-167.976 786.223,-161.312"/>
</g>
<!-- Node16 -->
<g id="node16" class="node"><title>Node16</title>
<polygon fill="white" stroke="#bfbfbf" points="806.5,-142.5 806.5,-161.5 871.5,-161.5 871.5,-142.5 806.5,-142.5"/>
<text text-anchor="middle" x="839" y="-149.5" font-family="Helvetica,sans-Serif" font-size="10.00">netinet/in.h</text>
</g>
<!-- Node2&#45;&gt;Node16 -->
<g id="edge16" class="edge"><title>Node2&#45;&gt;Node16</title>
<path fill="none" stroke="midnightblue" d="M1046.45,-211.538C1006.48,-202.398 937.85,-185.908 880,-168 876.887,-167.036 873.662,-165.973 870.452,-164.871"/>
<polygon fill="midnightblue" stroke="midnightblue" points="871.585,-161.559 860.99,-161.509 869.241,-168.155 871.585,-161.559"/>
</g>
<!-- Node17 -->
<g id="node17" class="node"><title>Node17</title>
<polygon fill="white" stroke="#bfbfbf" points="889.5,-142.5 889.5,-161.5 940.5,-161.5 940.5,-142.5 889.5,-142.5"/>
<text text-anchor="middle" x="915" y="-149.5" font-family="Helvetica,sans-Serif" font-size="10.00">unistd.h</text>
</g>
<!-- Node2&#45;&gt;Node17 -->
<g id="edge17" class="edge"><title>Node2&#45;&gt;Node17</title>
<path fill="none" stroke="midnightblue" d="M1057.16,-210.458C1030.92,-200.566 986.645,-183.623 949,-168 947.168,-167.24 945.285,-166.445 943.39,-165.637"/>
<polygon fill="midnightblue" stroke="midnightblue" points="944.564,-162.331 933.997,-161.558 941.776,-168.751 944.564,-162.331"/>
</g>
<!-- Node18 -->
<g id="node18" class="node"><title>Node18</title>
<polygon fill="white" stroke="#bfbfbf" points="958.5,-142.5 958.5,-161.5 1007.5,-161.5 1007.5,-142.5 958.5,-142.5"/>
<text text-anchor="middle" x="983" y="-149.5" font-family="Helvetica,sans-Serif" font-size="10.00">netdb.h</text>
</g>
<!-- Node2&#45;&gt;Node18 -->
<g id="edge18" class="edge"><title>Node2&#45;&gt;Node18</title>
<path fill="none" stroke="midnightblue" d="M1067.32,-210.372C1051.27,-199.452 1023.4,-180.489 1004.12,-167.369"/>
<polygon fill="midnightblue" stroke="midnightblue" points="1005.92,-164.362 995.684,-161.63 1001.98,-170.15 1005.92,-164.362"/>
</g>
<!-- Node19 -->
<g id="node19" class="node"><title>Node19</title>
<polygon fill="white" stroke="#bfbfbf" points="1026,-142.5 1026,-161.5 1070,-161.5 1070,-142.5 1026,-142.5"/>
<text text-anchor="middle" x="1048" y="-149.5" font-family="Helvetica,sans-Serif" font-size="10.00">fcntl.h</text>
</g>
<!-- Node2&#45;&gt;Node19 -->
<g id="edge19" class="edge"><title>Node2&#45;&gt;Node19</title>
<path fill="none" stroke="midnightblue" d="M1075.82,-210.372C1071,-200.446 1062.97,-183.874 1056.77,-171.086"/>
<polygon fill="midnightblue" stroke="midnightblue" points="1059.8,-169.312 1052.29,-161.841 1053.5,-172.366 1059.8,-169.312"/>
</g>
<!-- Node20 -->
<g id="node20" class="node"><title>Node20</title>
<polygon fill="white" stroke="#bfbfbf" points="1088,-142.5 1088,-161.5 1136,-161.5 1136,-142.5 1088,-142.5"/>
<text text-anchor="middle" x="1112" y="-149.5" font-family="Helvetica,sans-Serif" font-size="10.00">stdlib.h</text>
</g>
<!-- Node2&#45;&gt;Node20 -->
<g id="edge20" class="edge"><title>Node2&#45;&gt;Node20</title>
<path fill="none" stroke="midnightblue" d="M1084.18,-210.372C1089,-200.446 1097.03,-183.874 1103.23,-171.086"/>
<polygon fill="midnightblue" stroke="midnightblue" points="1106.5,-172.366 1107.71,-161.841 1100.2,-169.312 1106.5,-172.366"/>
</g>
<!-- Node21 -->
<g id="node21" class="node"><title>Node21</title>
<polygon fill="white" stroke="#bfbfbf" points="1154,-142.5 1154,-161.5 1200,-161.5 1200,-142.5 1154,-142.5"/>
<text text-anchor="middle" x="1177" y="-149.5" font-family="Helvetica,sans-Serif" font-size="10.00">stdio.h</text>
</g>
<!-- Node2&#45;&gt;Node21 -->
<g id="edge21" class="edge"><title>Node2&#45;&gt;Node21</title>
<path fill="none" stroke="midnightblue" d="M1092.68,-210.372C1108.73,-199.452 1136.6,-180.489 1155.88,-167.369"/>
<polygon fill="midnightblue" stroke="midnightblue" points="1158.02,-170.15 1164.32,-161.63 1154.08,-164.362 1158.02,-170.15"/>
</g>
<!-- Node22 -->
<g id="node22" class="node"><title>Node22</title>
<polygon fill="white" stroke="#bfbfbf" points="1218.5,-137 1218.5,-167 1321.5,-167 1321.5,-137 1218.5,-137"/>
<text text-anchor="start" x="1226.5" y="-155" font-family="Helvetica,sans-Serif" font-size="10.00">mars/interfaces/sim</text>
<text text-anchor="middle" x="1270" y="-144" font-family="Helvetica,sans-Serif" font-size="10.00">/ControlCenter.h</text>
</g>
<!-- Node2&#45;&gt;Node22 -->
<g id="edge22" class="edge"><title>Node2&#45;&gt;Node22</title>
<path fill="none" stroke="midnightblue" d="M1104.84,-210.372C1133.93,-200.268 1182.84,-183.277 1219.9,-170.402"/>
<polygon fill="midnightblue" stroke="midnightblue" points="1221.24,-173.644 1229.54,-167.056 1218.94,-167.031 1221.24,-173.644"/>
</g>
<!-- Node23 -->
<g id="node23" class="node"><title>Node23</title>
<polygon fill="white" stroke="#bfbfbf" points="1339.5,-142.5 1339.5,-161.5 1440.5,-161.5 1440.5,-142.5 1339.5,-142.5"/>
<text text-anchor="middle" x="1390" y="-149.5" font-family="Helvetica,sans-Serif" font-size="10.00">mars/utils/Thread.h</text>
</g>
<!-- Node2&#45;&gt;Node23 -->
<g id="edge23" class="edge"><title>Node2&#45;&gt;Node23</title>
<path fill="none" stroke="midnightblue" d="M1113.66,-212.618C1161.77,-203.388 1252.89,-185.495 1330,-168 1335.5,-166.753 1341.26,-165.386 1346.96,-164.002"/>
<polygon fill="midnightblue" stroke="midnightblue" points="1348.18,-167.305 1357.05,-161.512 1346.5,-160.508 1348.18,-167.305"/>
</g>
<!-- Node24 -->
<g id="node24" class="node"><title>Node24</title>
<polygon fill="white" stroke="#bfbfbf" points="1459,-137 1459,-167 1575,-167 1575,-137 1459,-137"/>
<text text-anchor="start" x="1467" y="-155" font-family="Helvetica,sans-Serif" font-size="10.00">mars/interfaces/sensor</text>
<text text-anchor="middle" x="1517" y="-144" font-family="Helvetica,sans-Serif" font-size="10.00">_bases.h</text>
</g>
<!-- Node2&#45;&gt;Node24 -->
<g id="edge24" class="edge"><title>Node2&#45;&gt;Node24</title>
<path fill="none" stroke="midnightblue" d="M1113.72,-215.252C1177.15,-208.006 1318.71,-190.903 1448.69,-167.958"/>
<polygon fill="midnightblue" stroke="midnightblue" points="1449.59,-171.353 1458.82,-166.153 1448.36,-164.461 1449.59,-171.353"/>
</g>
<!-- Node25 -->
<g id="node25" class="node"><title>Node25</title>
<polygon fill="white" stroke="#bfbfbf" points="1593.5,-137 1593.5,-167 1722.5,-167 1722.5,-137 1593.5,-137"/>
<text text-anchor="start" x="1601.5" y="-155" font-family="Helvetica,sans-Serif" font-size="10.00">mars/interfaces/Controller</text>
<text text-anchor="middle" x="1658" y="-144" font-family="Helvetica,sans-Serif" font-size="10.00">Data.h</text>
</g>
<!-- Node2&#45;&gt;Node25 -->
<g id="edge25" class="edge"><title>Node2&#45;&gt;Node25</title>
<path fill="none" stroke="midnightblue" d="M1113.69,-216.711C1194.8,-210.956 1407.23,-194.425 1583,-168 1583.11,-167.984 1583.21,-167.968 1583.32,-167.952"/>
<polygon fill="midnightblue" stroke="midnightblue" points="1584.11,-171.369 1593.43,-166.324 1583,-164.458 1584.11,-171.369"/>
</g>
<!-- Node26 -->
<g id="node26" class="node"><title>Node26</title>
<polygon fill="white" stroke="#bfbfbf" points="1741,-137 1741,-167 1849,-167 1849,-137 1741,-137"/>
<text text-anchor="start" x="1749" y="-155" font-family="Helvetica,sans-Serif" font-size="10.00">mars/interfaces/sim</text>
<text text-anchor="middle" x="1795" y="-144" font-family="Helvetica,sans-Serif" font-size="10.00">/ControllerInterface.h</text>
</g>
<!-- Node2&#45;&gt;Node26 -->
<g id="edge26" class="edge"><title>Node2&#45;&gt;Node26</title>
<path fill="none" stroke="midnightblue" d="M1113.75,-218.164C1210.44,-215.381 1496.59,-204.435 1731,-168 1731.1,-167.984 1731.2,-167.968 1731.31,-167.952"/>
<polygon fill="midnightblue" stroke="midnightblue" points="1731.74,-171.429 1740.99,-166.267 1730.54,-164.533 1731.74,-171.429"/>
</g>
<!-- Node4 -->
<g id="node4" class="node"><title>Node4</title>
<g id="a_node4"><a xlink:href="../../d0/ddc/_sim_joint_8h.html" target="_top" xlink:title="SimJoint.h">
<polygon fill="white" stroke="black" points="192.5,-74.5 192.5,-93.5 255.5,-93.5 255.5,-74.5 192.5,-74.5"/>
<text text-anchor="middle" x="224" y="-81.5" font-family="Helvetica,sans-Serif" font-size="10.00">SimJoint.h</text>
</a>
</g>
</g>
<!-- Node3&#45;&gt;Node4 -->
<g id="edge3" class="edge"><title>Node3&#45;&gt;Node4</title>
<path fill="none" stroke="midnightblue" d="M479.282,-143.3C426.187,-131.174 323.222,-107.66 265.606,-94.5018"/>
<polygon fill="midnightblue" stroke="midnightblue" points="266.268,-91.0628 255.74,-92.2485 264.709,-97.8871 266.268,-91.0628"/>
</g>
<!-- Node6 -->
<g id="node6" class="node"><title>Node6</title>
<polygon fill="white" stroke="#bfbfbf" points="294,-1 294,-31 428,-31 428,-1 294,-1"/>
<text text-anchor="start" x="302" y="-19" font-family="Helvetica,sans-Serif" font-size="10.00">mars/data_broker/Producer</text>
<text text-anchor="middle" x="361" y="-8" font-family="Helvetica,sans-Serif" font-size="10.00">Interface.h</text>
</g>
<!-- Node3&#45;&gt;Node6 -->
<g id="edge7" class="edge"><title>Node3&#45;&gt;Node6</title>
<path fill="none" stroke="midnightblue" d="M479.391,-150.994C441.853,-148.957 382.615,-139.23 354,-100 341.618,-83.0254 345.546,-58.5832 351.258,-40.6177"/>
<polygon fill="midnightblue" stroke="midnightblue" points="354.575,-41.7378 354.62,-31.143 347.978,-39.3968 354.575,-41.7378"/>
</g>
<!-- Node8 -->
<g id="node8" class="node"><title>Node8</title>
<polygon fill="white" stroke="#bfbfbf" points="363,-69 363,-99 497,-99 497,-69 363,-69"/>
<text text-anchor="start" x="371" y="-87" font-family="Helvetica,sans-Serif" font-size="10.00">mars/data_broker/Receiver</text>
<text text-anchor="middle" x="430" y="-76" font-family="Helvetica,sans-Serif" font-size="10.00">Interface.h</text>
</g>
<!-- Node3&#45;&gt;Node8 -->
<g id="edge8" class="edge"><title>Node3&#45;&gt;Node8</title>
<path fill="none" stroke="midnightblue" d="M502.149,-142.372C490.507,-133.114 471.595,-118.076 456.054,-105.718"/>
<polygon fill="midnightblue" stroke="midnightblue" points="457.84,-102.666 447.834,-99.1815 453.483,-108.145 457.84,-102.666"/>
</g>
<!-- Node9 -->
<g id="node9" class="node"><title>Node9</title>
<polygon fill="white" stroke="#bfbfbf" points="515.5,-74.5 515.5,-93.5 678.5,-93.5 678.5,-74.5 515.5,-74.5"/>
<text text-anchor="middle" x="597" y="-81.5" font-family="Helvetica,sans-Serif" font-size="10.00">mars/data_broker/DataPackage.h</text>
</g>
<!-- Node3&#45;&gt;Node9 -->
<g id="edge9" class="edge"><title>Node3&#45;&gt;Node9</title>
<path fill="none" stroke="midnightblue" d="M523.982,-142.372C537.69,-131.6 561.361,-113.002 578.028,-99.9065"/>
<polygon fill="midnightblue" stroke="midnightblue" points="580.315,-102.561 586.016,-93.6305 575.99,-97.0566 580.315,-102.561"/>
</g>
<!-- Node10 -->
<g id="node10" class="node"><title>Node10</title>
<polygon fill="white" stroke="#bfbfbf" points="696.5,-74.5 696.5,-93.5 837.5,-93.5 837.5,-74.5 696.5,-74.5"/>
<text text-anchor="middle" x="767" y="-81.5" font-family="Helvetica,sans-Serif" font-size="10.00">mars/interfaces/MotorData.h</text>
</g>
<!-- Node3&#45;&gt;Node10 -->
<g id="edge10" class="edge"><title>Node3&#45;&gt;Node10</title>
<path fill="none" stroke="midnightblue" d="M536.073,-142.482C542.484,-140.244 549.477,-137.921 556,-136 610.386,-119.983 673.718,-105.179 716.7,-95.6933"/>
<polygon fill="midnightblue" stroke="midnightblue" points="717.612,-99.0767 726.63,-93.5166 716.113,-92.2391 717.612,-99.0767"/>
</g>
<!-- Node3&#45;&gt;Node11 -->
<g id="edge11" class="edge"><title>Node3&#45;&gt;Node11</title>
<path fill="none" stroke="midnightblue" d="M533.674,-142.499C540.651,-139.979 548.559,-137.496 556,-136 702.163,-106.616 1151.65,-91.5167 1322.32,-86.7246"/>
<polygon fill="midnightblue" stroke="midnightblue" points="1322.53,-90.2203 1332.43,-86.4438 1322.33,-83.223 1322.53,-90.2203"/>
</g>
<!-- Node12 -->
<g id="node12" class="node"><title>Node12</title>
<polygon fill="white" stroke="#bfbfbf" points="856,-74.5 856,-93.5 910,-93.5 910,-74.5 856,-74.5"/>
<text text-anchor="middle" x="883" y="-81.5" font-family="Helvetica,sans-Serif" font-size="10.00">iostream</text>
</g>
<!-- Node3&#45;&gt;Node12 -->
<g id="edge12" class="edge"><title>Node3&#45;&gt;Node12</title>
<path fill="none" stroke="midnightblue" d="M534.61,-142.457C541.371,-140.058 548.917,-137.655 556,-136 682.471,-106.445 720.3,-132.677 846,-100 848.989,-99.2229 852.059,-98.2618 855.091,-97.2043"/>
<polygon fill="midnightblue" stroke="midnightblue" points="856.41,-100.447 864.5,-93.6053 853.909,-93.909 856.41,-100.447"/>
</g>
<!-- Node5 -->
<g id="node5" class="node"><title>Node5</title>
<polygon fill="white" stroke="#bfbfbf" points="-0.5,-1 -0.5,-31 102.5,-31 102.5,-1 -0.5,-1"/>
<text text-anchor="start" x="7.5" y="-19" font-family="Helvetica,sans-Serif" font-size="10.00">mars/interfaces/sim</text>
<text text-anchor="middle" x="51" y="-8" font-family="Helvetica,sans-Serif" font-size="10.00">/JointInterface.h</text>
</g>
<!-- Node4&#45;&gt;Node5 -->
<g id="edge4" class="edge"><title>Node4&#45;&gt;Node5</title>
<path fill="none" stroke="midnightblue" d="M201.383,-74.3717C175.125,-64.3539 131.12,-47.5661 97.4773,-34.7312"/>
<polygon fill="midnightblue" stroke="midnightblue" points="98.4351,-31.3506 87.8443,-31.0562 95.9399,-37.8908 98.4351,-31.3506"/>
</g>
<!-- Node4&#45;&gt;Node6 -->
<g id="edge5" class="edge"><title>Node4&#45;&gt;Node6</title>
<path fill="none" stroke="midnightblue" d="M241.91,-74.3717C262.258,-64.5689 296.063,-48.2835 322.468,-35.5629"/>
<polygon fill="midnightblue" stroke="midnightblue" points="324.333,-38.5496 331.823,-31.0562 321.295,-32.2432 324.333,-38.5496"/>
</g>
<!-- Node7 -->
<g id="node7" class="node"><title>Node7</title>
<polygon fill="white" stroke="#bfbfbf" points="120.5,-1 120.5,-31 275.5,-31 275.5,-1 120.5,-1"/>
<text text-anchor="start" x="128.5" y="-19" font-family="Helvetica,sans-Serif" font-size="10.00">mars/data_broker/DataPackage</text>
<text text-anchor="middle" x="198" y="-8" font-family="Helvetica,sans-Serif" font-size="10.00">Mapping.h</text>
</g>
<!-- Node4&#45;&gt;Node7 -->
<g id="edge6" class="edge"><title>Node4&#45;&gt;Node7</title>
<path fill="none" stroke="midnightblue" d="M220.601,-74.3717C217.224,-65.8 211.895,-52.2719 207.259,-40.5045"/>
<polygon fill="midnightblue" stroke="midnightblue" points="210.508,-39.2027 203.587,-31.1815 203.996,-41.7684 210.508,-39.2027"/>
</g>
</g>
</svg>
