<?xml version="1.0" encoding="UTF-8" standalone="no"?>
<!DOCTYPE svg PUBLIC "-//W3C//DTD SVG 1.1//EN"
 "http://www.w3.org/Graphics/SVG/1.1/DTD/svg11.dtd">
<!-- Generated by graphviz version 2.26.3 (20100126.1600)
 -->
<!-- Title: /home/kavonszadkowski/limes&#45;dev/simulation/mars/plugins/Plot3D/src/MotorPlotConfig.cpp Pages: 1 -->
<svg width="1294pt" height="214pt"
 viewBox="0.00 0.00 1294.00 214.00" xmlns="http://www.w3.org/2000/svg" xmlns:xlink="http://www.w3.org/1999/xlink">
<g id="graph1" class="graph" transform="scale(1 1) rotate(0) translate(4 210)">
<title>/home/kavonszadkowski/limes&#45;dev/simulation/mars/plugins/Plot3D/src/MotorPlotConfig.cpp</title>
<polygon fill="white" stroke="white" points="-4,5 -4,-210 1291,-210 1291,5 -4,5"/>
<!-- Node1 -->
<g id="node1" class="node"><title>Node1</title>
<polygon fill="#bfbfbf" stroke="black" points="588.5,-145 588.5,-205 713.5,-205 713.5,-145 588.5,-145"/>
<text text-anchor="start" x="596.5" y="-192" font-family="Helvetica,sans-Serif" font-size="10.00">/home/kavonszadkowski</text>
<text text-anchor="start" x="596.5" y="-179" font-family="Helvetica,sans-Serif" font-size="10.00">/limes&#45;dev/simulation</text>
<text text-anchor="start" x="596.5" y="-166" font-family="Helvetica,sans-Serif" font-size="10.00">/mars/plugins/Plot3D/src</text>
<text text-anchor="middle" x="651" y="-153" font-family="Helvetica,sans-Serif" font-size="10.00">/MotorPlotConfig.cpp</text>
</g>
<!-- Node2 -->
<g id="node3" class="node"><title>Node2</title>
<a xlink:href="../../dd/db3/_motor_plot_config_8h.html" target="_top" xlink:title="MotorPlotConfig.h">
<polygon fill="white" stroke="black" points="127.5,-79.5 127.5,-100.5 222.5,-100.5 222.5,-79.5 127.5,-79.5"/>
<text text-anchor="middle" x="175" y="-87.5" font-family="Helvetica,sans-Serif" font-size="10.00">MotorPlotConfig.h</text>
</a>
</g>
<!-- Node1&#45;&gt;Node2 -->
<g id="edge2" class="edge"><title>Node1&#45;&gt;Node2</title>
<path fill="none" stroke="midnightblue" d="M588.149,-168.016C505.511,-158.143 356.14,-137.908 231,-108 225.661,-106.724 220.096,-105.19 214.634,-103.564"/>
<polygon fill="midnightblue" stroke="midnightblue" points="215.574,-100.191 204.986,-100.57 213.5,-106.876 215.574,-100.191"/>
</g>
<!-- Node7 -->
<g id="node13" class="node"><title>Node7</title>
<polygon fill="white" stroke="#bfbfbf" points="239.5,-79.5 239.5,-100.5 310.5,-100.5 310.5,-79.5 239.5,-79.5"/>
<text text-anchor="middle" x="275" y="-87.5" font-family="Helvetica,sans-Serif" font-size="10.00">QGridLayout</text>
</g>
<!-- Node1&#45;&gt;Node7 -->
<g id="edge12" class="edge"><title>Node1&#45;&gt;Node7</title>
<path fill="none" stroke="midnightblue" d="M588.331,-165.981C520.924,-155.444 411.022,-135.834 319,-108 315.391,-106.908 311.668,-105.633 307.988,-104.274"/>
<polygon fill="midnightblue" stroke="midnightblue" points="309.04,-100.928 298.452,-100.552 306.495,-107.449 309.04,-100.928"/>
</g>
<!-- Node8 -->
<g id="node15" class="node"><title>Node8</title>
<polygon fill="white" stroke="#bfbfbf" points="327.5,-79.5 327.5,-100.5 404.5,-100.5 404.5,-79.5 327.5,-79.5"/>
<text text-anchor="middle" x="366" y="-87.5" font-family="Helvetica,sans-Serif" font-size="10.00">QVBoxLayout</text>
</g>
<!-- Node1&#45;&gt;Node8 -->
<g id="edge14" class="edge"><title>Node1&#45;&gt;Node8</title>
<path fill="none" stroke="midnightblue" d="M588.389,-159.048C540.116,-146.347 471.877,-127.516 413,-108 409.281,-106.767 405.422,-105.414 401.588,-104.02"/>
<polygon fill="midnightblue" stroke="midnightblue" points="402.79,-100.733 392.197,-100.518 400.344,-107.292 402.79,-100.733"/>
</g>
<!-- Node9 -->
<g id="node17" class="node"><title>Node9</title>
<polygon fill="white" stroke="#bfbfbf" points="421.5,-79.5 421.5,-100.5 496.5,-100.5 496.5,-79.5 421.5,-79.5"/>
<text text-anchor="middle" x="459" y="-87.5" font-family="Helvetica,sans-Serif" font-size="10.00">QPushButton</text>
</g>
<!-- Node1&#45;&gt;Node9 -->
<g id="edge16" class="edge"><title>Node1&#45;&gt;Node9</title>
<path fill="none" stroke="midnightblue" d="M588.398,-147.285C556.235,-133.047 518.359,-116.279 491.926,-104.577"/>
<polygon fill="midnightblue" stroke="midnightblue" points="493.299,-101.357 482.738,-100.509 490.465,-107.758 493.299,-101.357"/>
</g>
<!-- Node10 -->
<g id="node19" class="node"><title>Node10</title>
<polygon fill="white" stroke="#bfbfbf" points="513.5,-79.5 513.5,-100.5 572.5,-100.5 572.5,-79.5 513.5,-79.5"/>
<text text-anchor="middle" x="543" y="-87.5" font-family="Helvetica,sans-Serif" font-size="10.00">QLineEdit</text>
</g>
<!-- Node1&#45;&gt;Node10 -->
<g id="edge18" class="edge"><title>Node1&#45;&gt;Node10</title>
<path fill="none" stroke="midnightblue" d="M612.619,-144.793C596.452,-132.069 578.241,-117.736 564.5,-106.922"/>
<polygon fill="midnightblue" stroke="midnightblue" points="566.604,-104.123 556.581,-100.689 562.274,-109.624 566.604,-104.123"/>
</g>
<!-- Node11 -->
<g id="node21" class="node"><title>Node11</title>
<polygon fill="white" stroke="#bfbfbf" points="589.5,-79.5 589.5,-100.5 636.5,-100.5 636.5,-79.5 589.5,-79.5"/>
<text text-anchor="middle" x="613" y="-87.5" font-family="Helvetica,sans-Serif" font-size="10.00">QLabel</text>
</g>
<!-- Node1&#45;&gt;Node11 -->
<g id="edge20" class="edge"><title>Node1&#45;&gt;Node11</title>
<path fill="none" stroke="midnightblue" d="M637.496,-144.793C632.376,-133.341 626.673,-120.585 622.06,-110.265"/>
<polygon fill="midnightblue" stroke="midnightblue" points="625.147,-108.596 617.871,-100.895 618.757,-111.453 625.147,-108.596"/>
</g>
<!-- Node12 -->
<g id="node23" class="node"><title>Node12</title>
<polygon fill="white" stroke="#bfbfbf" points="653.5,-79.5 653.5,-100.5 726.5,-100.5 726.5,-79.5 653.5,-79.5"/>
<text text-anchor="middle" x="690" y="-87.5" font-family="Helvetica,sans-Serif" font-size="10.00">QComboBox</text>
</g>
<!-- Node1&#45;&gt;Node12 -->
<g id="edge22" class="edge"><title>Node1&#45;&gt;Node12</title>
<path fill="none" stroke="midnightblue" d="M664.86,-144.793C670.114,-133.341 675.967,-120.585 680.702,-110.265"/>
<polygon fill="midnightblue" stroke="midnightblue" points="684.012,-111.443 685.001,-100.895 677.65,-108.524 684.012,-111.443"/>
</g>
<!-- Node13 -->
<g id="node25" class="node"><title>Node13</title>
<polygon fill="white" stroke="#bfbfbf" points="743.5,-79.5 743.5,-100.5 794.5,-100.5 794.5,-79.5 743.5,-79.5"/>
<text text-anchor="middle" x="769" y="-87.5" font-family="Helvetica,sans-Serif" font-size="10.00">QMutex</text>
</g>
<!-- Node1&#45;&gt;Node13 -->
<g id="edge24" class="edge"><title>Node1&#45;&gt;Node13</title>
<path fill="none" stroke="midnightblue" d="M692.935,-144.793C710.765,-131.949 730.872,-117.465 745.932,-106.616"/>
<polygon fill="midnightblue" stroke="midnightblue" points="748.093,-109.373 754.162,-100.689 744.002,-103.694 748.093,-109.373"/>
</g>
<!-- Node14 -->
<g id="node27" class="node"><title>Node14</title>
<polygon fill="white" stroke="#bfbfbf" points="811.5,-73 811.5,-107 954.5,-107 954.5,-73 811.5,-73"/>
<text text-anchor="start" x="819.5" y="-94" font-family="Helvetica,sans-Serif" font-size="10.00">mars/interfaces/graphics</text>
<text text-anchor="middle" x="883" y="-81" font-family="Helvetica,sans-Serif" font-size="10.00">/GraphicsManagerInterface.h</text>
</g>
<!-- Node1&#45;&gt;Node14 -->
<g id="edge26" class="edge"><title>Node1&#45;&gt;Node14</title>
<path fill="none" stroke="midnightblue" d="M713.783,-151.998C748.958,-139.11 792.47,-123.168 826.562,-110.678"/>
<polygon fill="midnightblue" stroke="midnightblue" points="828.18,-113.813 836.365,-107.086 825.772,-107.24 828.18,-113.813"/>
</g>
<!-- Node15 -->
<g id="node29" class="node"><title>Node15</title>
<polygon fill="white" stroke="#bfbfbf" points="972,-73 972,-107 1100,-107 1100,-73 972,-73"/>
<text text-anchor="start" x="980" y="-94" font-family="Helvetica,sans-Serif" font-size="10.00">mars/interfaces/sim</text>
<text text-anchor="middle" x="1036" y="-81" font-family="Helvetica,sans-Serif" font-size="10.00">/MotorManagerInterface.h</text>
</g>
<!-- Node1&#45;&gt;Node15 -->
<g id="edge28" class="edge"><title>Node1&#45;&gt;Node15</title>
<path fill="none" stroke="midnightblue" d="M713.575,-162.142C774.501,-149.492 869.96,-129.324 962.158,-108.164"/>
<polygon fill="midnightblue" stroke="midnightblue" points="962.972,-111.568 971.932,-105.914 961.402,-104.746 962.972,-111.568"/>
</g>
<!-- Node16 -->
<g id="node31" class="node"><title>Node16</title>
<polygon fill="white" stroke="#bfbfbf" points="1117.5,-73 1117.5,-107 1226.5,-107 1226.5,-73 1117.5,-73"/>
<text text-anchor="start" x="1125.5" y="-94" font-family="Helvetica,sans-Serif" font-size="10.00">mars/interfaces/core</text>
<text text-anchor="middle" x="1172" y="-81" font-family="Helvetica,sans-Serif" font-size="10.00">_objects_exchange.h</text>
</g>
<!-- Node1&#45;&gt;Node16 -->
<g id="edge30" class="edge"><title>Node1&#45;&gt;Node16</title>
<path fill="none" stroke="midnightblue" d="M713.698,-168.504C800.366,-158.934 961.701,-138.989 1107.46,-108.198"/>
<polygon fill="midnightblue" stroke="midnightblue" points="1108.43,-111.569 1117.48,-106.058 1106.97,-104.724 1108.43,-111.569"/>
</g>
<!-- Node17 -->
<g id="node33" class="node"><title>Node17</title>
<polygon fill="white" stroke="#bfbfbf" points="1243.5,-79.5 1243.5,-100.5 1286.5,-100.5 1286.5,-79.5 1243.5,-79.5"/>
<text text-anchor="middle" x="1265" y="-87.5" font-family="Helvetica,sans-Serif" font-size="10.00">cstdio</text>
</g>
<!-- Node1&#45;&gt;Node17 -->
<g id="edge32" class="edge"><title>Node1&#45;&gt;Node17</title>
<path fill="none" stroke="midnightblue" d="M713.601,-171.179C843.797,-162.686 1139.57,-140.401 1235,-108 1236.94,-107.341 1238.89,-106.543 1240.82,-105.654"/>
<polygon fill="midnightblue" stroke="midnightblue" points="1242.91,-108.502 1250.05,-100.673 1239.58,-102.342 1242.91,-108.502"/>
</g>
<!-- Node3 -->
<g id="node5" class="node"><title>Node3</title>
<polygon fill="white" stroke="#bfbfbf" points="-0.5,-1 -0.5,-35 102.5,-35 102.5,-1 -0.5,-1"/>
<text text-anchor="start" x="7.5" y="-22" font-family="Helvetica,sans-Serif" font-size="10.00">mars/interfaces/sim</text>
<text text-anchor="middle" x="51" y="-9" font-family="Helvetica,sans-Serif" font-size="10.00">/ControlCenter.h</text>
</g>
<!-- Node2&#45;&gt;Node3 -->
<g id="edge4" class="edge"><title>Node2&#45;&gt;Node3</title>
<path fill="none" stroke="midnightblue" d="M156.703,-79.3762C138.98,-69.0853 111.563,-53.1655 89.0928,-40.1184"/>
<polygon fill="midnightblue" stroke="midnightblue" points="90.8457,-37.089 80.4403,-35.0944 87.3307,-43.1425 90.8457,-37.089"/>
</g>
<!-- Node4 -->
<g id="node7" class="node"><title>Node4</title>
<polygon fill="white" stroke="#bfbfbf" points="120,-7.5 120,-28.5 164,-28.5 164,-7.5 120,-7.5"/>
<text text-anchor="middle" x="142" y="-15.5" font-family="Helvetica,sans-Serif" font-size="10.00">vector</text>
</g>
<!-- Node2&#45;&gt;Node4 -->
<g id="edge6" class="edge"><title>Node2&#45;&gt;Node4</title>
<path fill="none" stroke="midnightblue" d="M170.131,-79.3762C165.159,-68.5285 157.32,-51.4263 151.179,-38.0271"/>
<polygon fill="midnightblue" stroke="midnightblue" points="154.238,-36.2998 146.889,-28.6674 147.874,-39.2164 154.238,-36.2998"/>
</g>
<!-- Node5 -->
<g id="node9" class="node"><title>Node5</title>
<polygon fill="white" stroke="#bfbfbf" points="181.5,-7.5 181.5,-28.5 236.5,-28.5 236.5,-7.5 181.5,-7.5"/>
<text text-anchor="middle" x="209" y="-15.5" font-family="Helvetica,sans-Serif" font-size="10.00">QWidget</text>
</g>
<!-- Node2&#45;&gt;Node5 -->
<g id="edge8" class="edge"><title>Node2&#45;&gt;Node5</title>
<path fill="none" stroke="midnightblue" d="M180.017,-79.3762C185.139,-68.5285 193.215,-51.4263 199.543,-38.0271"/>
<polygon fill="midnightblue" stroke="midnightblue" points="202.857,-39.2045 203.963,-28.6674 196.528,-36.2154 202.857,-39.2045"/>
</g>
<!-- Node6 -->
<g id="node11" class="node"><title>Node6</title>
<polygon fill="white" stroke="#bfbfbf" points="254,-7.5 254,-28.5 304,-28.5 304,-7.5 254,-7.5"/>
<text text-anchor="middle" x="279" y="-15.5" font-family="Helvetica,sans-Serif" font-size="10.00">QString</text>
</g>
<!-- Node2&#45;&gt;Node6 -->
<g id="edge10" class="edge"><title>Node2&#45;&gt;Node6</title>
<path fill="none" stroke="midnightblue" d="M190.346,-79.3762C207.474,-67.5181 235.397,-48.1864 255.329,-34.3877"/>
<polygon fill="midnightblue" stroke="midnightblue" points="257.362,-37.2373 263.591,-28.6674 253.377,-31.4819 257.362,-37.2373"/>
</g>
</g>
</svg>
