<?xml version="1.0" encoding="UTF-8" standalone="no"?>
<!DOCTYPE svg PUBLIC "-//W3C//DTD SVG 1.1//EN"
 "http://www.w3.org/Graphics/SVG/1.1/DTD/svg11.dtd">
<!-- Generated by graphviz version 2.36.0 (20140111.2315)
 -->
<!-- Title: /media/kavonszadkowski/work/marsdocs/mars/plugins/Plot3D/src/MotorPlotConfig.cpp Pages: 1 -->
<svg width="1307pt" height="186pt"
 viewBox="0.00 0.00 1307.00 186.00" xmlns="http://www.w3.org/2000/svg" xmlns:xlink="http://www.w3.org/1999/xlink">
<g id="graph0" class="graph" transform="scale(1 1) rotate(0) translate(4 182)">
<title>/media/kavonszadkowski/work/marsdocs/mars/plugins/Plot3D/src/MotorPlotConfig.cpp</title>
<polygon fill="white" stroke="none" points="-4,4 -4,-182 1303,-182 1303,4 -4,4"/>
<!-- Node1 -->
<g id="node1" class="node"><title>Node1</title>
<polygon fill="#bfbfbf" stroke="black" points="580,-136.5 580,-177.5 738,-177.5 738,-136.5 580,-136.5"/>
<text text-anchor="start" x="588" y="-165.5" font-family="Helvetica,sans-Serif" font-size="10.00">/media/kavonszadkowski</text>
<text text-anchor="start" x="588" y="-154.5" font-family="Helvetica,sans-Serif" font-size="10.00">/work/marsdocs/mars/plugins</text>
<text text-anchor="middle" x="659" y="-143.5" font-family="Helvetica,sans-Serif" font-size="10.00">/Plot3D/src/MotorPlotConfig.cpp</text>
</g>
<!-- Node2 -->
<g id="node2" class="node"><title>Node2</title>
<g id="a_node2"><a xlink:href="../../dd/db3/_motor_plot_config_8h.html" target="_top" xlink:title="MotorPlotConfig.h">
<polygon fill="white" stroke="black" points="129.5,-74.5 129.5,-93.5 224.5,-93.5 224.5,-74.5 129.5,-74.5"/>
<text text-anchor="middle" x="177" y="-81.5" font-family="Helvetica,sans-Serif" font-size="10.00">MotorPlotConfig.h</text>
</a>
</g>
</g>
<!-- Node1&#45;&gt;Node2 -->
<g id="edge1" class="edge"><title>Node1&#45;&gt;Node2</title>
<path fill="none" stroke="midnightblue" d="M579.793,-148.586C494.068,-139.859 353.577,-123.514 234,-100 228.211,-98.8616 222.138,-97.4752 216.203,-96.0101"/>
<polygon fill="midnightblue" stroke="midnightblue" points="216.976,-92.595 206.42,-93.5002 215.236,-99.3755 216.976,-92.595"/>
</g>
<!-- Node7 -->
<g id="node7" class="node"><title>Node7</title>
<polygon fill="white" stroke="#bfbfbf" points="242.5,-74.5 242.5,-93.5 313.5,-93.5 313.5,-74.5 242.5,-74.5"/>
<text text-anchor="middle" x="278" y="-81.5" font-family="Helvetica,sans-Serif" font-size="10.00">QGridLayout</text>
</g>
<!-- Node1&#45;&gt;Node7 -->
<g id="edge6" class="edge"><title>Node1&#45;&gt;Node7</title>
<path fill="none" stroke="midnightblue" d="M579.873,-146.375C511.328,-137.193 409.809,-121.561 323,-100 319.154,-99.0447 315.163,-97.9184 311.219,-96.7193"/>
<polygon fill="midnightblue" stroke="midnightblue" points="312.208,-93.361 301.617,-93.6442 310.073,-100.027 312.208,-93.361"/>
</g>
<!-- Node8 -->
<g id="node8" class="node"><title>Node8</title>
<polygon fill="white" stroke="#bfbfbf" points="331.5,-74.5 331.5,-93.5 408.5,-93.5 408.5,-74.5 331.5,-74.5"/>
<text text-anchor="middle" x="370" y="-81.5" font-family="Helvetica,sans-Serif" font-size="10.00">QVBoxLayout</text>
</g>
<!-- Node1&#45;&gt;Node8 -->
<g id="edge7" class="edge"><title>Node1&#45;&gt;Node8</title>
<path fill="none" stroke="midnightblue" d="M579.937,-139.188C532.718,-128.76 471.676,-114.601 418,-100 414.084,-98.9347 410.007,-97.7617 405.958,-96.5553"/>
<polygon fill="midnightblue" stroke="midnightblue" points="406.64,-93.1041 396.054,-93.5297 404.595,-99.7986 406.64,-93.1041"/>
</g>
<!-- Node9 -->
<g id="node9" class="node"><title>Node9</title>
<polygon fill="white" stroke="#bfbfbf" points="426.5,-74.5 426.5,-93.5 501.5,-93.5 501.5,-74.5 426.5,-74.5"/>
<text text-anchor="middle" x="464" y="-81.5" font-family="Helvetica,sans-Serif" font-size="10.00">QPushButton</text>
</g>
<!-- Node1&#45;&gt;Node9 -->
<g id="edge8" class="edge"><title>Node1&#45;&gt;Node9</title>
<path fill="none" stroke="midnightblue" d="M605.199,-136.411C570.459,-123.762 526.387,-107.715 496.801,-96.9429"/>
<polygon fill="midnightblue" stroke="midnightblue" points="497.951,-93.637 487.357,-93.5045 495.556,-100.215 497.951,-93.637"/>
</g>
<!-- Node10 -->
<g id="node10" class="node"><title>Node10</title>
<polygon fill="white" stroke="#bfbfbf" points="519.5,-74.5 519.5,-93.5 578.5,-93.5 578.5,-74.5 519.5,-74.5"/>
<text text-anchor="middle" x="549" y="-81.5" font-family="Helvetica,sans-Serif" font-size="10.00">QLineEdit</text>
</g>
<!-- Node1&#45;&gt;Node10 -->
<g id="edge9" class="edge"><title>Node1&#45;&gt;Node10</title>
<path fill="none" stroke="midnightblue" d="M628.651,-136.411C610.3,-124.567 587.334,-109.743 570.784,-99.0603"/>
<polygon fill="midnightblue" stroke="midnightblue" points="572.619,-96.0792 562.319,-93.5968 568.823,-101.961 572.619,-96.0792"/>
</g>
<!-- Node11 -->
<g id="node11" class="node"><title>Node11</title>
<polygon fill="white" stroke="#bfbfbf" points="596.5,-74.5 596.5,-93.5 643.5,-93.5 643.5,-74.5 596.5,-74.5"/>
<text text-anchor="middle" x="620" y="-81.5" font-family="Helvetica,sans-Serif" font-size="10.00">QLabel</text>
</g>
<!-- Node1&#45;&gt;Node11 -->
<g id="edge10" class="edge"><title>Node1&#45;&gt;Node11</title>
<path fill="none" stroke="midnightblue" d="M648.136,-136.223C642.329,-125.65 635.241,-112.747 629.632,-102.536"/>
<polygon fill="midnightblue" stroke="midnightblue" points="632.68,-100.815 624.798,-93.7349 626.545,-104.185 632.68,-100.815"/>
</g>
<!-- Node12 -->
<g id="node12" class="node"><title>Node12</title>
<polygon fill="white" stroke="#bfbfbf" points="661.5,-74.5 661.5,-93.5 734.5,-93.5 734.5,-74.5 661.5,-74.5"/>
<text text-anchor="middle" x="698" y="-81.5" font-family="Helvetica,sans-Serif" font-size="10.00">QComboBox</text>
</g>
<!-- Node1&#45;&gt;Node12 -->
<g id="edge11" class="edge"><title>Node1&#45;&gt;Node12</title>
<path fill="none" stroke="midnightblue" d="M669.864,-136.223C675.671,-125.65 682.759,-112.747 688.368,-102.536"/>
<polygon fill="midnightblue" stroke="midnightblue" points="691.455,-104.185 693.202,-93.7349 685.32,-100.815 691.455,-104.185"/>
</g>
<!-- Node13 -->
<g id="node13" class="node"><title>Node13</title>
<polygon fill="white" stroke="#bfbfbf" points="752.5,-74.5 752.5,-93.5 803.5,-93.5 803.5,-74.5 752.5,-74.5"/>
<text text-anchor="middle" x="778" y="-81.5" font-family="Helvetica,sans-Serif" font-size="10.00">QMutex</text>
</g>
<!-- Node1&#45;&gt;Node13 -->
<g id="edge12" class="edge"><title>Node1&#45;&gt;Node13</title>
<path fill="none" stroke="midnightblue" d="M691.832,-136.411C711.868,-124.457 736.99,-109.468 754.93,-98.7646"/>
<polygon fill="midnightblue" stroke="midnightblue" points="756.797,-101.726 763.591,-93.5968 753.21,-95.7149 756.797,-101.726"/>
</g>
<!-- Node14 -->
<g id="node14" class="node"><title>Node14</title>
<polygon fill="white" stroke="#bfbfbf" points="821.5,-69 821.5,-99 964.5,-99 964.5,-69 821.5,-69"/>
<text text-anchor="start" x="829.5" y="-87" font-family="Helvetica,sans-Serif" font-size="10.00">mars/interfaces/graphics</text>
<text text-anchor="middle" x="893" y="-76" font-family="Helvetica,sans-Serif" font-size="10.00">/GraphicsManagerInterface.h</text>
</g>
<!-- Node1&#45;&gt;Node14 -->
<g id="edge13" class="edge"><title>Node1&#45;&gt;Node14</title>
<path fill="none" stroke="midnightblue" d="M723.561,-136.411C759.144,-125.614 802.886,-112.342 837.012,-101.988"/>
<polygon fill="midnightblue" stroke="midnightblue" points="838.267,-105.265 846.82,-99.0117 836.235,-98.5661 838.267,-105.265"/>
</g>
<!-- Node15 -->
<g id="node15" class="node"><title>Node15</title>
<polygon fill="white" stroke="#bfbfbf" points="983,-69 983,-99 1111,-99 1111,-69 983,-69"/>
<text text-anchor="start" x="991" y="-87" font-family="Helvetica,sans-Serif" font-size="10.00">mars/interfaces/sim</text>
<text text-anchor="middle" x="1047" y="-76" font-family="Helvetica,sans-Serif" font-size="10.00">/MotorManagerInterface.h</text>
</g>
<!-- Node1&#45;&gt;Node15 -->
<g id="edge14" class="edge"><title>Node1&#45;&gt;Node15</title>
<path fill="none" stroke="midnightblue" d="M738.135,-142.417C801.685,-131.381 893.174,-115.207 973,-100 973.101,-99.9808 973.201,-99.9616 973.302,-99.9424"/>
<polygon fill="midnightblue" stroke="midnightblue" points="973.687,-103.433 982.843,-98.1008 972.361,-96.5596 973.687,-103.433"/>
</g>
<!-- Node16 -->
<g id="node16" class="node"><title>Node16</title>
<polygon fill="white" stroke="#bfbfbf" points="1129.5,-69 1129.5,-99 1238.5,-99 1238.5,-69 1129.5,-69"/>
<text text-anchor="start" x="1137.5" y="-87" font-family="Helvetica,sans-Serif" font-size="10.00">mars/interfaces/core</text>
<text text-anchor="middle" x="1184" y="-76" font-family="Helvetica,sans-Serif" font-size="10.00">_objects_exchange.h</text>
</g>
<!-- Node1&#45;&gt;Node16 -->
<g id="edge15" class="edge"><title>Node1&#45;&gt;Node16</title>
<path fill="none" stroke="midnightblue" d="M738.105,-149.045C828.083,-140.535 979.529,-124.4 1119.23,-100.013"/>
<polygon fill="midnightblue" stroke="midnightblue" points="1120.03,-103.426 1129.27,-98.2428 1118.81,-96.5328 1120.03,-103.426"/>
</g>
<!-- Node17 -->
<g id="node17" class="node"><title>Node17</title>
<polygon fill="white" stroke="#bfbfbf" points="1256.5,-74.5 1256.5,-93.5 1299.5,-93.5 1299.5,-74.5 1256.5,-74.5"/>
<text text-anchor="middle" x="1278" y="-81.5" font-family="Helvetica,sans-Serif" font-size="10.00">cstdio</text>
</g>
<!-- Node1&#45;&gt;Node17 -->
<g id="edge16" class="edge"><title>Node1&#45;&gt;Node17</title>
<path fill="none" stroke="midnightblue" d="M738.204,-151.941C875.83,-144.31 1153.37,-126.196 1247,-100 1249.2,-99.3848 1251.43,-98.6194 1253.64,-97.7623"/>
<polygon fill="midnightblue" stroke="midnightblue" points="1255.27,-100.869 1262.97,-93.5988 1252.41,-94.4766 1255.27,-100.869"/>
</g>
<!-- Node3 -->
<g id="node3" class="node"><title>Node3</title>
<polygon fill="white" stroke="#bfbfbf" points="-0.5,-1 -0.5,-31 102.5,-31 102.5,-1 -0.5,-1"/>
<text text-anchor="start" x="7.5" y="-19" font-family="Helvetica,sans-Serif" font-size="10.00">mars/interfaces/sim</text>
<text text-anchor="middle" x="51" y="-8" font-family="Helvetica,sans-Serif" font-size="10.00">/ControlCenter.h</text>
</g>
<!-- Node2&#45;&gt;Node3 -->
<g id="edge2" class="edge"><title>Node2&#45;&gt;Node3</title>
<path fill="none" stroke="midnightblue" d="M160.528,-74.3717C141.955,-64.6429 111.192,-48.5289 86.9892,-35.8515"/>
<polygon fill="midnightblue" stroke="midnightblue" points="88.556,-32.7212 78.0737,-31.1815 85.308,-38.922 88.556,-32.7212"/>
</g>
<!-- Node4 -->
<g id="node4" class="node"><title>Node4</title>
<polygon fill="white" stroke="#bfbfbf" points="121,-6.5 121,-25.5 165,-25.5 165,-6.5 121,-6.5"/>
<text text-anchor="middle" x="143" y="-13.5" font-family="Helvetica,sans-Serif" font-size="10.00">vector</text>
</g>
<!-- Node2&#45;&gt;Node4 -->
<g id="edge3" class="edge"><title>Node2&#45;&gt;Node4</title>
<path fill="none" stroke="midnightblue" d="M172.555,-74.3717C167.442,-64.4461 158.905,-47.8743 152.317,-35.0864"/>
<polygon fill="midnightblue" stroke="midnightblue" points="155.246,-33.128 147.555,-25.8411 149.023,-36.3337 155.246,-33.128"/>
</g>
<!-- Node5 -->
<g id="node5" class="node"><title>Node5</title>
<polygon fill="white" stroke="#bfbfbf" points="183.5,-6.5 183.5,-25.5 238.5,-25.5 238.5,-6.5 183.5,-6.5"/>
<text text-anchor="middle" x="211" y="-13.5" font-family="Helvetica,sans-Serif" font-size="10.00">QWidget</text>
</g>
<!-- Node2&#45;&gt;Node5 -->
<g id="edge4" class="edge"><title>Node2&#45;&gt;Node5</title>
<path fill="none" stroke="midnightblue" d="M181.445,-74.3717C186.558,-64.4461 195.095,-47.8743 201.683,-35.0864"/>
<polygon fill="midnightblue" stroke="midnightblue" points="204.977,-36.3337 206.445,-25.8411 198.754,-33.128 204.977,-36.3337"/>
</g>
<!-- Node6 -->
<g id="node6" class="node"><title>Node6</title>
<polygon fill="white" stroke="#bfbfbf" points="257,-6.5 257,-25.5 307,-25.5 307,-6.5 257,-6.5"/>
<text text-anchor="middle" x="282" y="-13.5" font-family="Helvetica,sans-Serif" font-size="10.00">QString</text>
</g>
<!-- Node2&#45;&gt;Node6 -->
<g id="edge5" class="edge"><title>Node2&#45;&gt;Node6</title>
<path fill="none" stroke="midnightblue" d="M190.727,-74.3717C208.256,-63.3533 238.815,-44.1449 259.705,-31.0142"/>
<polygon fill="midnightblue" stroke="midnightblue" points="261.666,-33.9155 268.27,-25.6305 257.941,-27.989 261.666,-33.9155"/>
</g>
</g>
</svg>
