<?xml version="1.0" encoding="UTF-8" standalone="no"?>
<!DOCTYPE svg PUBLIC "-//W3C//DTD SVG 1.1//EN"
 "http://www.w3.org/Graphics/SVG/1.1/DTD/svg11.dtd">
<!-- Generated by graphviz version 2.36.0 (20140111.2315)
 -->
<!-- Title: mars::graphics::nodeFileStruct Pages: 1 -->
<svg width="130pt" height="108pt"
 viewBox="0.00 0.00 130.00 108.00" xmlns="http://www.w3.org/2000/svg" xmlns:xlink="http://www.w3.org/1999/xlink">
<g id="graph0" class="graph" transform="scale(1 1) rotate(0) translate(4 104)">
<title>mars::graphics::nodeFileStruct</title>
<polygon fill="white" stroke="none" points="-4,4 -4,-104 126,-104 126,4 -4,4"/>
<!-- Node1 -->
<g id="node1" class="node"><title>Node1</title>
<polygon fill="#bfbfbf" stroke="black" points="-1,-1 -1,-31 123,-31 123,-1 -1,-1"/>
<text text-anchor="start" x="7" y="-19" font-family="Helvetica,sans-Serif" font-size="10.00">mars::graphics::nodeFile</text>
<text text-anchor="middle" x="61" y="-8" font-family="Helvetica,sans-Serif" font-size="10.00">Struct</text>
</g>
<!-- Node2 -->
<g id="node2" class="node"><title>Node2</title>
<polygon fill="white" stroke="#bfbfbf" points="40.5,-80.5 40.5,-99.5 81.5,-99.5 81.5,-80.5 40.5,-80.5"/>
<text text-anchor="middle" x="61" y="-87.5" font-family="Helvetica,sans-Serif" font-size="10.00">string</text>
</g>
<!-- Node2&#45;&gt;Node1 -->
<g id="edge1" class="edge"><title>Node2&#45;&gt;Node1</title>
<path fill="none" stroke="#9a32cd" stroke-dasharray="5,2" d="M61,-70.0846C61,-57.9148 61,-42.3538 61,-31.2316"/>
<polygon fill="#9a32cd" stroke="#9a32cd" points="57.5001,-70.4579 61,-80.4579 64.5001,-70.4579 57.5001,-70.4579"/>
<text text-anchor="middle" x="82.5" y="-53.5" font-family="Helvetica,sans-Serif" font-size="10.00"> fileName</text>
</g>
</g>
</svg>
