<?xml version="1.0" encoding="UTF-8" standalone="no"?>
<!DOCTYPE svg PUBLIC "-//W3C//DTD SVG 1.1//EN"
 "http://www.w3.org/Graphics/SVG/1.1/DTD/svg11.dtd">
<!-- Generated by graphviz version 2.36.0 (20140111.2315)
 -->
<!-- Title: /media/kavonszadkowski/work/marsdocs/mars/interfaces/src/sim/ControllerInterface.h Pages: 1 -->
<svg width="526pt" height="218pt"
 viewBox="0.00 0.00 526.00 218.00" xmlns="http://www.w3.org/2000/svg" xmlns:xlink="http://www.w3.org/1999/xlink">
<g id="graph0" class="graph" transform="scale(1 1) rotate(0) translate(4 214)">
<title>/media/kavonszadkowski/work/marsdocs/mars/interfaces/src/sim/ControllerInterface.h</title>
<polygon fill="white" stroke="none" points="-4,4 -4,-214 522,-214 522,4 -4,4"/>
<!-- Node1 -->
<g id="node1" class="node"><title>Node1</title>
<polygon fill="#bfbfbf" stroke="black" points="246.5,-168.5 246.5,-209.5 403.5,-209.5 403.5,-168.5 246.5,-168.5"/>
<text text-anchor="start" x="254.5" y="-197.5" font-family="Helvetica,sans-Serif" font-size="10.00">/media/kavonszadkowski</text>
<text text-anchor="start" x="254.5" y="-186.5" font-family="Helvetica,sans-Serif" font-size="10.00">/work/marsdocs/mars/interfaces</text>
<text text-anchor="middle" x="325" y="-175.5" font-family="Helvetica,sans-Serif" font-size="10.00">/src/sim/ControllerInterface.h</text>
</g>
<!-- Node2 -->
<g id="node2" class="node"><title>Node2</title>
<g id="a_node2"><a xlink:href="../../dc/d3b/sim__common_8h.html" target="_top" xlink:title="../sim_common.h">
<polygon fill="white" stroke="black" points="240,-112.5 240,-131.5 332,-131.5 332,-112.5 240,-112.5"/>
<text text-anchor="middle" x="286" y="-119.5" font-family="Helvetica,sans-Serif" font-size="10.00">../sim_common.h</text>
</a>
</g>
</g>
<!-- Node1&#45;&gt;Node2 -->
<g id="edge1" class="edge"><title>Node1&#45;&gt;Node2</title>
<path fill="none" stroke="midnightblue" d="M313.299,-168.498C307.952,-159.586 301.668,-149.113 296.478,-140.464"/>
<polygon fill="midnightblue" stroke="midnightblue" points="299.338,-138.427 291.191,-131.652 293.335,-142.028 299.338,-138.427"/>
</g>
<!-- Node10 -->
<g id="node10" class="node"><title>Node10</title>
<polygon fill="white" stroke="#bfbfbf" points="350.5,-112.5 350.5,-131.5 379.5,-131.5 379.5,-112.5 350.5,-112.5"/>
<text text-anchor="middle" x="365" y="-119.5" font-family="Helvetica,sans-Serif" font-size="10.00">list</text>
</g>
<!-- Node1&#45;&gt;Node10 -->
<g id="edge14" class="edge"><title>Node1&#45;&gt;Node10</title>
<path fill="none" stroke="midnightblue" d="M337.001,-168.498C342.544,-159.49 349.069,-148.888 354.424,-140.185"/>
<polygon fill="midnightblue" stroke="midnightblue" points="357.415,-142.003 359.675,-131.652 351.454,-138.335 357.415,-142.003"/>
</g>
<!-- Node3 -->
<g id="node3" class="node"><title>Node3</title>
<g id="a_node3"><a xlink:href="../../dd/d9e/_m_a_r_s_defs_8h.html" target="_top" xlink:title="MARSDefs.h">
<polygon fill="white" stroke="black" points="324.5,-0.5 324.5,-19.5 399.5,-19.5 399.5,-0.5 324.5,-0.5"/>
<text text-anchor="middle" x="362" y="-7.5" font-family="Helvetica,sans-Serif" font-size="10.00">MARSDefs.h</text>
</a>
</g>
</g>
<!-- Node2&#45;&gt;Node3 -->
<g id="edge2" class="edge"><title>Node2&#45;&gt;Node3</title>
<path fill="none" stroke="midnightblue" d="M301.197,-112.364C313.842,-104.44 331.425,-91.584 342,-76 351.426,-62.1084 356.551,-43.5962 359.245,-29.8816"/>
<polygon fill="midnightblue" stroke="midnightblue" points="362.751,-30.1417 360.977,-19.6965 355.85,-28.9681 362.751,-30.1417"/>
</g>
<!-- Node4 -->
<g id="node4" class="node"><title>Node4</title>
<polygon fill="white" stroke="#bfbfbf" points="-0.5,-0.5 -0.5,-19.5 98.5,-19.5 98.5,-0.5 -0.5,-0.5"/>
<text text-anchor="middle" x="49" y="-7.5" font-family="Helvetica,sans-Serif" font-size="10.00">mars/utils/Vector.h</text>
</g>
<!-- Node2&#45;&gt;Node4 -->
<g id="edge3" class="edge"><title>Node2&#45;&gt;Node4</title>
<path fill="none" stroke="midnightblue" d="M239.988,-120.561C168.194,-118.791 34.6505,-110.777 5,-76 -8.75221,-59.8703 10.4515,-39.3446 27.6398,-25.7198"/>
<polygon fill="midnightblue" stroke="midnightblue" points="29.8575,-28.4317 35.7626,-19.6351 25.6607,-22.8293 29.8575,-28.4317"/>
</g>
<!-- Node5 -->
<g id="node5" class="node"><title>Node5</title>
<polygon fill="white" stroke="#bfbfbf" points="102,-56.5 102,-75.5 220,-75.5 220,-56.5 102,-56.5"/>
<text text-anchor="middle" x="161" y="-63.5" font-family="Helvetica,sans-Serif" font-size="10.00">mars/utils/Quaternion.h</text>
</g>
<!-- Node2&#45;&gt;Node5 -->
<g id="edge4" class="edge"><title>Node2&#45;&gt;Node5</title>
<path fill="none" stroke="midnightblue" d="M266.193,-112.444C245.713,-103.596 213.517,-89.6875 190.135,-79.5865"/>
<polygon fill="midnightblue" stroke="midnightblue" points="191.282,-76.2692 180.714,-75.5164 188.506,-82.6953 191.282,-76.2692"/>
</g>
<!-- Node6 -->
<g id="node6" class="node"><title>Node6</title>
<polygon fill="white" stroke="#bfbfbf" points="424,-0.5 424,-19.5 518,-19.5 518,-0.5 424,-0.5"/>
<text text-anchor="middle" x="471" y="-7.5" font-family="Helvetica,sans-Serif" font-size="10.00">mars/utils/Color.h</text>
</g>
<!-- Node2&#45;&gt;Node6 -->
<g id="edge5" class="edge"><title>Node2&#45;&gt;Node6</title>
<path fill="none" stroke="midnightblue" d="M327.721,-112.497C375.675,-102.354 448.973,-85.5713 458,-76 469.464,-63.8449 472.106,-44.57 472.245,-30.1608"/>
<polygon fill="midnightblue" stroke="midnightblue" points="475.735,-29.7692 471.941,-19.8771 468.738,-29.9762 475.735,-29.7692"/>
</g>
<!-- Node7 -->
<g id="node7" class="node"><title>Node7</title>
<g id="a_node7"><a xlink:href="../../d1/d98/node_state_8h.html" target="_top" xlink:title="nodeState.h">
<polygon fill="white" stroke="black" points="14.5,-56.5 14.5,-75.5 83.5,-75.5 83.5,-56.5 14.5,-56.5"/>
<text text-anchor="middle" x="49" y="-63.5" font-family="Helvetica,sans-Serif" font-size="10.00">nodeState.h</text>
</a>
</g>
</g>
<!-- Node2&#45;&gt;Node7 -->
<g id="edge6" class="edge"><title>Node2&#45;&gt;Node7</title>
<path fill="none" stroke="midnightblue" d="M248.447,-112.444C206.428,-102.87 138.4,-87.3697 93.6814,-77.1806"/>
<polygon fill="midnightblue" stroke="midnightblue" points="94.2066,-73.7106 83.6789,-74.9015 92.6515,-80.5357 94.2066,-73.7106"/>
</g>
<!-- Node8 -->
<g id="node8" class="node"><title>Node8</title>
<g id="a_node8"><a xlink:href="../../dd/d54/contact__params_8h.html" target="_top" xlink:title="contact_params.h">
<polygon fill="white" stroke="black" points="238.5,-56.5 238.5,-75.5 333.5,-75.5 333.5,-56.5 238.5,-56.5"/>
<text text-anchor="middle" x="286" y="-63.5" font-family="Helvetica,sans-Serif" font-size="10.00">contact_params.h</text>
</a>
</g>
</g>
<!-- Node2&#45;&gt;Node8 -->
<g id="edge8" class="edge"><title>Node2&#45;&gt;Node8</title>
<path fill="none" stroke="midnightblue" d="M286,-112.083C286,-105.006 286,-94.8611 286,-85.9865"/>
<polygon fill="midnightblue" stroke="midnightblue" points="289.5,-85.751 286,-75.7511 282.5,-85.7511 289.5,-85.751"/>
</g>
<!-- Node9 -->
<g id="node9" class="node"><title>Node9</title>
<g id="a_node9"><a xlink:href="../../d7/dc4/snmesh_8h.html" target="_top" xlink:title="snmesh.h">
<polygon fill="white" stroke="black" points="390.5,-56.5 390.5,-75.5 449.5,-75.5 449.5,-56.5 390.5,-56.5"/>
<text text-anchor="middle" x="420" y="-63.5" font-family="Helvetica,sans-Serif" font-size="10.00">snmesh.h</text>
</a>
</g>
</g>
<!-- Node2&#45;&gt;Node9 -->
<g id="edge11" class="edge"><title>Node2&#45;&gt;Node9</title>
<path fill="none" stroke="midnightblue" d="M307.233,-112.444C329.384,-103.517 364.319,-89.4387 389.436,-79.3168"/>
<polygon fill="midnightblue" stroke="midnightblue" points="390.9,-82.5006 398.867,-75.5164 388.283,-76.0079 390.9,-82.5006"/>
</g>
<!-- Node7&#45;&gt;Node4 -->
<g id="edge7" class="edge"><title>Node7&#45;&gt;Node4</title>
<path fill="none" stroke="midnightblue" d="M49,-56.083C49,-49.0059 49,-38.8611 49,-29.9865"/>
<polygon fill="midnightblue" stroke="midnightblue" points="52.5001,-29.751 49,-19.7511 45.5001,-29.7511 52.5001,-29.751"/>
</g>
<!-- Node8&#45;&gt;Node3 -->
<g id="edge9" class="edge"><title>Node8&#45;&gt;Node3</title>
<path fill="none" stroke="midnightblue" d="M298.211,-56.324C309.776,-48.1066 327.375,-35.6017 341.161,-25.8069"/>
<polygon fill="midnightblue" stroke="midnightblue" points="343.443,-28.4791 349.567,-19.8339 339.388,-22.7729 343.443,-28.4791"/>
</g>
<!-- Node8&#45;&gt;Node4 -->
<g id="edge10" class="edge"><title>Node8&#45;&gt;Node4</title>
<path fill="none" stroke="midnightblue" d="M248.447,-56.4435C207.189,-47.0431 140.856,-31.9291 96.1336,-21.7393"/>
<polygon fill="midnightblue" stroke="midnightblue" points="96.9053,-18.3255 86.3777,-19.5164 95.3502,-25.1506 96.9053,-18.3255"/>
</g>
<!-- Node9&#45;&gt;Node3 -->
<g id="edge12" class="edge"><title>Node9&#45;&gt;Node3</title>
<path fill="none" stroke="midnightblue" d="M410.681,-56.324C402.107,-48.3414 389.188,-36.3128 378.812,-26.6529"/>
<polygon fill="midnightblue" stroke="midnightblue" points="381.192,-24.0865 371.488,-19.8339 376.422,-29.2098 381.192,-24.0865"/>
</g>
<!-- Node9&#45;&gt;Node6 -->
<g id="edge13" class="edge"><title>Node9&#45;&gt;Node6</title>
<path fill="none" stroke="midnightblue" d="M428.422,-56.083C435.848,-48.2195 446.852,-36.5688 455.812,-27.0813"/>
<polygon fill="midnightblue" stroke="midnightblue" points="458.413,-29.4244 462.735,-19.7511 453.324,-24.618 458.413,-29.4244"/>
</g>
</g>
</svg>
