<?xml version="1.0" encoding="UTF-8" standalone="no"?>
<!DOCTYPE svg PUBLIC "-//W3C//DTD SVG 1.1//EN"
 "http://www.w3.org/Graphics/SVG/1.1/DTD/svg11.dtd">
<!-- Generated by graphviz version 2.36.0 (20140111.2315)
 -->
<!-- Title: mars::plugins::Plot3D::Plot3D Pages: 1 -->
<svg width="1402pt" height="609pt"
 viewBox="0.00 0.00 1402.00 609.28" xmlns="http://www.w3.org/2000/svg" xmlns:xlink="http://www.w3.org/1999/xlink">
<g id="graph0" class="graph" transform="scale(1 1) rotate(0) translate(4 605.275)">
<title>mars::plugins::Plot3D::Plot3D</title>
<polygon fill="white" stroke="none" points="-4,4 -4,-605.275 1398,-605.275 1398,4 -4,4"/>
<!-- Node1 -->
<g id="node1" class="node"><title>Node1</title>
<polygon fill="#bfbfbf" stroke="black" points="1282.5,-395.275 1282.5,-425.275 1393.5,-425.275 1393.5,-395.275 1282.5,-395.275"/>
<text text-anchor="start" x="1290.5" y="-413.275" font-family="Helvetica,sans-Serif" font-size="10.00">mars::plugins::Plot3D</text>
<text text-anchor="middle" x="1338" y="-402.275" font-family="Helvetica,sans-Serif" font-size="10.00">::Plot3D</text>
</g>
<!-- Node2 -->
<g id="node2" class="node"><title>Node2</title>
<polygon fill="white" stroke="#bfbfbf" points="1069.5,-581.775 1069.5,-600.775 1122.5,-600.775 1122.5,-581.775 1069.5,-581.775"/>
<text text-anchor="middle" x="1096" y="-588.775" font-family="Helvetica,sans-Serif" font-size="10.00">QObject</text>
</g>
<!-- Node2&#45;&gt;Node1 -->
<g id="edge1" class="edge"><title>Node2&#45;&gt;Node1</title>
<path fill="none" stroke="midnightblue" d="M1132.61,-584.455C1145.37,-581.322 1159.65,-577.001 1172,-571.275 1217.19,-550.321 1228.13,-541.832 1264,-507.275 1290.56,-481.686 1314.92,-445.754 1327.68,-425.577"/>
<polygon fill="midnightblue" stroke="midnightblue" points="1131.73,-581.067 1122.76,-586.718 1133.29,-587.889 1131.73,-581.067"/>
</g>
<!-- Node3 -->
<g id="node3" class="node"><title>Node3</title>
<g id="a_node3"><a xlink:href="../../da/df1/classmars_1_1interfaces_1_1_mars_plugin_template_g_u_i.html" target="_top" xlink:title="mars::interfaces::MarsPlugin\lTemplateGUI">
<polygon fill="white" stroke="black" points="1025,-532.275 1025,-562.275 1167,-562.275 1167,-532.275 1025,-532.275"/>
<text text-anchor="start" x="1033" y="-550.275" font-family="Helvetica,sans-Serif" font-size="10.00">mars::interfaces::MarsPlugin</text>
<text text-anchor="middle" x="1096" y="-539.275" font-family="Helvetica,sans-Serif" font-size="10.00">TemplateGUI</text>
</a>
</g>
</g>
<!-- Node3&#45;&gt;Node1 -->
<g id="edge2" class="edge"><title>Node3&#45;&gt;Node1</title>
<path fill="none" stroke="midnightblue" d="M1156.07,-528.681C1161.51,-526.643 1166.89,-524.497 1172,-522.275 1214.68,-503.734 1225.62,-498.589 1264,-472.275 1284.98,-457.89 1306.96,-438.554 1321.25,-425.323"/>
<polygon fill="midnightblue" stroke="midnightblue" points="1154.49,-525.531 1146.29,-532.228 1156.88,-532.112 1154.49,-525.531"/>
</g>
<!-- Node4 -->
<g id="node4" class="node"><title>Node4</title>
<polygon fill="white" stroke="#bfbfbf" points="47,-446.775 47,-465.775 115,-465.775 115,-446.775 47,-446.775"/>
<text text-anchor="middle" x="81" y="-453.775" font-family="Helvetica,sans-Serif" font-size="10.00">LibInterface</text>
</g>
<!-- Node4&#45;&gt;Node3 -->
<g id="edge3" class="edge"><title>Node4&#45;&gt;Node3</title>
<path fill="none" stroke="midnightblue" d="M100.3,-472.943C141.024,-508.232 243.563,-587.275 345,-587.275 345,-587.275 345,-587.275 861,-587.275 922.615,-587.275 992.069,-573.634 1039.19,-562.284"/>
<polygon fill="midnightblue" stroke="midnightblue" points="102.385,-470.115 92.5714,-466.122 97.7527,-475.363 102.385,-470.115"/>
</g>
<!-- Node7 -->
<g id="node7" class="node"><title>Node7</title>
<g id="a_node7"><a xlink:href="../../d1/d93/classmars_1_1interfaces_1_1_graphics_manager_interface.html" target="_top" xlink:title="mars::interfaces::Graphics\lManagerInterface">
<polygon fill="white" stroke="black" points="280,-441.275 280,-471.275 412,-471.275 412,-441.275 280,-441.275"/>
<text text-anchor="start" x="288" y="-459.275" font-family="Helvetica,sans-Serif" font-size="10.00">mars::interfaces::Graphics</text>
<text text-anchor="middle" x="346" y="-448.275" font-family="Helvetica,sans-Serif" font-size="10.00">ManagerInterface</text>
</a>
</g>
</g>
<!-- Node4&#45;&gt;Node7 -->
<g id="edge7" class="edge"><title>Node4&#45;&gt;Node7</title>
<path fill="none" stroke="midnightblue" d="M125.223,-456.275C167.253,-456.275 231.637,-456.275 279.873,-456.275"/>
<polygon fill="midnightblue" stroke="midnightblue" points="125.043,-452.775 115.043,-456.275 125.043,-459.775 125.043,-452.775"/>
</g>
<!-- Node11 -->
<g id="node11" class="node"><title>Node11</title>
<g id="a_node11"><a xlink:href="../../d4/da6/classmars_1_1cfg__manager_1_1_c_f_g_manager_interface.html" target="_top" xlink:title="mars::cfg_manager::\lCFGManagerInterface">
<polygon fill="white" stroke="black" points="289.5,-392.275 289.5,-422.275 402.5,-422.275 402.5,-392.275 289.5,-392.275"/>
<text text-anchor="start" x="297.5" y="-410.275" font-family="Helvetica,sans-Serif" font-size="10.00">mars::cfg_manager::</text>
<text text-anchor="middle" x="346" y="-399.275" font-family="Helvetica,sans-Serif" font-size="10.00">CFGManagerInterface</text>
</a>
</g>
</g>
<!-- Node4&#45;&gt;Node11 -->
<g id="edge12" class="edge"><title>Node4&#45;&gt;Node11</title>
<path fill="none" stroke="midnightblue" d="M125.035,-448.257C169.881,-439.902 240.327,-426.777 289.371,-417.64"/>
<polygon fill="midnightblue" stroke="midnightblue" points="124.233,-444.847 115.043,-450.119 125.515,-451.728 124.233,-444.847"/>
</g>
<!-- Node12 -->
<g id="node12" class="node"><title>Node12</title>
<g id="a_node12"><a xlink:href="../../d6/d2e/classmars_1_1data__broker_1_1_data_broker_interface.html" target="_top" xlink:title="The interface every DataBroker should implement. ">
<polygon fill="white" stroke="black" points="294,-294.275 294,-324.275 398,-324.275 398,-294.275 294,-294.275"/>
<text text-anchor="start" x="302" y="-312.275" font-family="Helvetica,sans-Serif" font-size="10.00">mars::data_broker::</text>
<text text-anchor="middle" x="346" y="-301.275" font-family="Helvetica,sans-Serif" font-size="10.00">DataBrokerInterface</text>
</a>
</g>
</g>
<!-- Node4&#45;&gt;Node12 -->
<g id="edge14" class="edge"><title>Node4&#45;&gt;Node12</title>
<path fill="none" stroke="midnightblue" d="M101.826,-440.406C134.659,-414.781 203.149,-364.06 268,-333.275 276.096,-329.432 284.956,-326.011 293.693,-323.04"/>
<polygon fill="midnightblue" stroke="midnightblue" points="99.5978,-437.706 93.9065,-446.642 103.928,-443.205 99.5978,-437.706"/>
</g>
<!-- Node21 -->
<g id="node21" class="node"><title>Node21</title>
<g id="a_node21"><a xlink:href="../../d7/df2/classmars_1_1main__gui_1_1_gui_interface.html" target="_top" xlink:title="The abstract GuiInterface class provides the menu and docking functionality of the GUI...">
<polygon fill="white" stroke="black" points="442.5,-539.775 442.5,-558.775 585.5,-558.775 585.5,-539.775 442.5,-539.775"/>
<text text-anchor="middle" x="514" y="-546.775" font-family="Helvetica,sans-Serif" font-size="10.00">mars::main_gui::GuiInterface</text>
</a>
</g>
</g>
<!-- Node4&#45;&gt;Node21 -->
<g id="edge24" class="edge"><title>Node4&#45;&gt;Node21</title>
<path fill="none" stroke="midnightblue" d="M110.259,-470.392C146.008,-487.533 209.927,-515.817 268,-529.275 325.788,-542.668 393.052,-547.413 442.464,-548.953"/>
<polygon fill="midnightblue" stroke="midnightblue" points="111.475,-467.092 100.951,-465.874 108.419,-473.39 111.475,-467.092"/>
</g>
<!-- Node5 -->
<g id="node5" class="node"><title>Node5</title>
<g id="a_node5"><a xlink:href="../../d1/d70/classmars_1_1interfaces_1_1_plugin_interface.html" target="_top" xlink:title="The interface to load plugin dynamically into the simulation. ">
<polygon fill="white" stroke="black" points="800,-293.275 800,-323.275 920,-323.275 920,-293.275 800,-293.275"/>
<text text-anchor="start" x="808" y="-311.275" font-family="Helvetica,sans-Serif" font-size="10.00">mars::interfaces::Plugin</text>
<text text-anchor="middle" x="860" y="-300.275" font-family="Helvetica,sans-Serif" font-size="10.00">Interface</text>
</a>
</g>
</g>
<!-- Node5&#45;&gt;Node3 -->
<g id="edge4" class="edge"><title>Node5&#45;&gt;Node3</title>
<path fill="none" stroke="midnightblue" d="M930.175,-314.409C956.537,-320.359 984.435,-331.731 1002,-353.275 1049.73,-411.82 972.646,-463.426 1020,-522.275 1023.1,-526.125 1026.81,-529.386 1030.9,-532.148"/>
<polygon fill="midnightblue" stroke="midnightblue" points="930.667,-310.938 920.171,-312.385 929.278,-317.799 930.667,-310.938"/>
</g>
<!-- Node6 -->
<g id="node6" class="node"><title>Node6</title>
<g id="a_node6"><a xlink:href="../../d7/d4e/classmars_1_1interfaces_1_1_control_center.html" target="_top" xlink:title="The declaration of the ControlCenter. ">
<polygon fill="white" stroke="black" points="604.5,-245.275 604.5,-275.275 729.5,-275.275 729.5,-245.275 604.5,-245.275"/>
<text text-anchor="start" x="612.5" y="-263.275" font-family="Helvetica,sans-Serif" font-size="10.00">mars::interfaces::Control</text>
<text text-anchor="middle" x="667" y="-252.275" font-family="Helvetica,sans-Serif" font-size="10.00">Center</text>
</a>
</g>
</g>
<!-- Node6&#45;&gt;Node5 -->
<g id="edge5" class="edge"><title>Node6&#45;&gt;Node5</title>
<path fill="none" stroke="#9a32cd" stroke-dasharray="5,2" d="M737.774,-277.81C758.183,-282.939 780.285,-288.493 799.958,-293.437"/>
<polygon fill="#9a32cd" stroke="#9a32cd" points="738.461,-274.374 727.91,-275.331 736.755,-281.163 738.461,-274.374"/>
<text text-anchor="middle" x="765" y="-292.275" font-family="Helvetica,sans-Serif" font-size="10.00"> control</text>
</g>
<!-- Node28 -->
<g id="node28" class="node"><title>Node28</title>
<g id="a_node28"><a xlink:href="../../d2/d83/classmars_1_1plugins_1_1_plot3_d_1_1_motor_plot_config.html" target="_top" xlink:title="mars::plugins::Plot3D\l::MotorPlotConfig">
<polygon fill="white" stroke="black" points="804.5,-203.275 804.5,-233.275 915.5,-233.275 915.5,-203.275 804.5,-203.275"/>
<text text-anchor="start" x="812.5" y="-221.275" font-family="Helvetica,sans-Serif" font-size="10.00">mars::plugins::Plot3D</text>
<text text-anchor="middle" x="860" y="-210.275" font-family="Helvetica,sans-Serif" font-size="10.00">::MotorPlotConfig</text>
</a>
</g>
</g>
<!-- Node6&#45;&gt;Node28 -->
<g id="edge35" class="edge"><title>Node6&#45;&gt;Node28</title>
<path fill="none" stroke="#9a32cd" stroke-dasharray="5,2" d="M739.747,-244.498C761.1,-239.803 784.143,-234.736 804.229,-230.319"/>
<polygon fill="#9a32cd" stroke="#9a32cd" points="738.763,-241.131 729.748,-246.697 740.267,-247.968 738.763,-241.131"/>
<text text-anchor="middle" x="765" y="-245.275" font-family="Helvetica,sans-Serif" font-size="10.00"> control</text>
</g>
<!-- Node7&#45;&gt;Node6 -->
<g id="edge6" class="edge"><title>Node7&#45;&gt;Node6</title>
<path fill="none" stroke="#9a32cd" stroke-dasharray="5,2" d="M422.265,-448.777C487.268,-441.728 572.789,-430.858 586,-421.275 636.026,-384.99 656.524,-308.522 663.245,-275.736"/>
<polygon fill="#9a32cd" stroke="#9a32cd" points="421.593,-445.329 412.023,-449.875 422.339,-452.289 421.593,-445.329"/>
<text text-anchor="middle" x="514" y="-449.275" font-family="Helvetica,sans-Serif" font-size="10.00"> graphics</text>
</g>
<!-- Node8 -->
<g id="node8" class="node"><title>Node8</title>
<g id="a_node8"><a xlink:href="../../d2/da9/classmars_1_1interfaces_1_1_controller_manager_interface.html" target="_top" xlink:title="&quot;ControllerManagerInterface&quot; declares the interfaces for all controller operations that are used for ...">
<polygon fill="white" stroke="black" points="278.5,-245.275 278.5,-275.275 413.5,-275.275 413.5,-245.275 278.5,-245.275"/>
<text text-anchor="start" x="286.5" y="-263.275" font-family="Helvetica,sans-Serif" font-size="10.00">mars::interfaces::Controller</text>
<text text-anchor="middle" x="346" y="-252.275" font-family="Helvetica,sans-Serif" font-size="10.00">ManagerInterface</text>
</a>
</g>
</g>
<!-- Node8&#45;&gt;Node6 -->
<g id="edge8" class="edge"><title>Node8&#45;&gt;Node6</title>
<path fill="none" stroke="#9a32cd" stroke-dasharray="5,2" d="M423.98,-260.275C479.299,-260.275 552.896,-260.275 604.351,-260.275"/>
<polygon fill="#9a32cd" stroke="#9a32cd" points="423.873,-256.775 413.873,-260.275 423.873,-263.775 423.873,-256.775"/>
<text text-anchor="middle" x="514" y="-263.275" font-family="Helvetica,sans-Serif" font-size="10.00"> controllers</text>
</g>
<!-- Node9 -->
<g id="node9" class="node"><title>Node9</title>
<g id="a_node9"><a xlink:href="../../d6/d60/classmars_1_1interfaces_1_1_joint_manager_interface.html" target="_top" xlink:title="Interface class for the node organization. ">
<polygon fill="white" stroke="black" points="270,-196.275 270,-226.275 422,-226.275 422,-196.275 270,-196.275"/>
<text text-anchor="start" x="278" y="-214.275" font-family="Helvetica,sans-Serif" font-size="10.00">mars::interfaces::JointManager</text>
<text text-anchor="middle" x="346" y="-203.275" font-family="Helvetica,sans-Serif" font-size="10.00">Interface</text>
</a>
</g>
</g>
<!-- Node9&#45;&gt;Node6 -->
<g id="edge9" class="edge"><title>Node9&#45;&gt;Node6</title>
<path fill="none" stroke="#9a32cd" stroke-dasharray="5,2" d="M432.366,-222.491C478.021,-228.723 535.156,-236.896 586,-245.275 591.995,-246.263 598.234,-247.343 604.464,-248.455"/>
<polygon fill="#9a32cd" stroke="#9a32cd" points="432.592,-218.989 422.212,-221.111 431.65,-225.926 432.592,-218.989"/>
<text text-anchor="middle" x="514" y="-248.275" font-family="Helvetica,sans-Serif" font-size="10.00"> joints</text>
</g>
<!-- Node10 -->
<g id="node10" class="node"><title>Node10</title>
<g id="a_node10"><a xlink:href="../../df/d82/classmars_1_1interfaces_1_1_entity_manager_interface.html" target="_top" xlink:title="mars::interfaces::Entity\lManagerInterface">
<polygon fill="white" stroke="black" points="286.5,-147.275 286.5,-177.275 405.5,-177.275 405.5,-147.275 286.5,-147.275"/>
<text text-anchor="start" x="294.5" y="-165.275" font-family="Helvetica,sans-Serif" font-size="10.00">mars::interfaces::Entity</text>
<text text-anchor="middle" x="346" y="-154.275" font-family="Helvetica,sans-Serif" font-size="10.00">ManagerInterface</text>
</a>
</g>
</g>
<!-- Node10&#45;&gt;Node6 -->
<g id="edge10" class="edge"><title>Node10&#45;&gt;Node6</title>
<path fill="none" stroke="#9a32cd" stroke-dasharray="5,2" d="M415.871,-162.292C466.629,-165.346 535.359,-176.118 586,-209.275 597.758,-216.974 593.021,-226.501 604,-235.275 608.714,-239.043 614.072,-242.312 619.616,-245.129"/>
<polygon fill="#9a32cd" stroke="#9a32cd" points="415.815,-158.785 405.648,-161.766 415.455,-165.775 415.815,-158.785"/>
<text text-anchor="middle" x="514" y="-212.275" font-family="Helvetica,sans-Serif" font-size="10.00"> entities</text>
</g>
<!-- Node11&#45;&gt;Node6 -->
<g id="edge11" class="edge"><title>Node11&#45;&gt;Node6</title>
<path fill="none" stroke="#9a32cd" stroke-dasharray="5,2" d="M413.019,-410.329C463.795,-409.692 533.856,-402.087 586,-370.275 623.495,-347.401 648.736,-299.697 659.737,-275.32"/>
<polygon fill="#9a32cd" stroke="#9a32cd" points="412.799,-406.83 402.812,-410.367 412.825,-413.83 412.799,-406.83"/>
<text text-anchor="middle" x="514" y="-412.275" font-family="Helvetica,sans-Serif" font-size="10.00"> cfg</text>
</g>
<!-- Node12&#45;&gt;Node6 -->
<g id="edge13" class="edge"><title>Node12&#45;&gt;Node6</title>
<path fill="none" stroke="#9a32cd" stroke-dasharray="5,2" d="M408.375,-301.301C456.719,-294.837 525.773,-285.2 586,-275.275 591.995,-274.287 598.234,-273.208 604.464,-272.096"/>
<polygon fill="#9a32cd" stroke="#9a32cd" points="407.834,-297.842 398.384,-302.631 408.758,-304.781 407.834,-297.842"/>
<text text-anchor="middle" x="514" y="-311.275" font-family="Helvetica,sans-Serif" font-size="10.00"> dataBroker</text>
<text text-anchor="middle" x="514" y="-300.275" font-family="Helvetica,sans-Serif" font-size="10.00">theDataBroker</text>
</g>
<!-- Node13 -->
<g id="node13" class="node"><title>Node13</title>
<g id="a_node13"><a xlink:href="../../db/da9/classmars_1_1interfaces_1_1_sensor_manager_interface.html" target="_top" xlink:title="&quot;SensorManagerInterface&quot; declares the interfaces for all sensor operations that are used for the comm...">
<polygon fill="white" stroke="black" points="284,-10.2752 284,-40.2752 408,-40.2752 408,-10.2752 284,-10.2752"/>
<text text-anchor="start" x="292" y="-28.2752" font-family="Helvetica,sans-Serif" font-size="10.00">mars::interfaces::Sensor</text>
<text text-anchor="middle" x="346" y="-17.2752" font-family="Helvetica,sans-Serif" font-size="10.00">ManagerInterface</text>
</a>
</g>
</g>
<!-- Node13&#45;&gt;Node6 -->
<g id="edge15" class="edge"><title>Node13&#45;&gt;Node6</title>
<path fill="none" stroke="#9a32cd" stroke-dasharray="5,2" d="M408.167,-8.14601C462.288,2.91798 539.662,8.05748 586,-36.2752 618.084,-66.971 577.524,-199.63 604,-235.275 606.837,-239.095 610.356,-242.333 614.265,-245.077"/>
<polygon fill="#9a32cd" stroke="#9a32cd" points="407.378,-4.73546 398.344,-10.2702 408.858,-11.5773 407.378,-4.73546"/>
<text text-anchor="middle" x="514" y="-39.2752" font-family="Helvetica,sans-Serif" font-size="10.00"> sensors</text>
</g>
<!-- Node14 -->
<g id="node14" class="node"><title>Node14</title>
<g id="a_node14"><a xlink:href="../../db/de9/classmars_1_1interfaces_1_1_motor_manager_interface.html" target="_top" xlink:title="&quot;MotorManagerInterface&quot; declares the interfaces for all motor operations that are used for the commun...">
<polygon fill="white" stroke="black" points="268.5,-343.275 268.5,-373.275 423.5,-373.275 423.5,-343.275 268.5,-343.275"/>
<text text-anchor="start" x="276.5" y="-361.275" font-family="Helvetica,sans-Serif" font-size="10.00">mars::interfaces::MotorManager</text>
<text text-anchor="middle" x="346" y="-350.275" font-family="Helvetica,sans-Serif" font-size="10.00">Interface</text>
</a>
</g>
</g>
<!-- Node14&#45;&gt;Node6 -->
<g id="edge16" class="edge"><title>Node14&#45;&gt;Node6</title>
<path fill="none" stroke="#9a32cd" stroke-dasharray="5,2" d="M433.84,-356.357C480.534,-352.698 538.178,-343.847 586,-323.275 611.984,-312.098 636.738,-290.283 651.649,-275.493"/>
<polygon fill="#9a32cd" stroke="#9a32cd" points="433.471,-352.875 423.747,-357.082 433.972,-359.857 433.471,-352.875"/>
<text text-anchor="middle" x="514" y="-358.275" font-family="Helvetica,sans-Serif" font-size="10.00"> motors</text>
</g>
<!-- Node15 -->
<g id="node15" class="node"><title>Node15</title>
<g id="a_node15"><a xlink:href="../../d9/d6a/classmars_1_1interfaces_1_1_load_center.html" target="_top" xlink:title="mars::interfaces::LoadCenter">
<polygon fill="white" stroke="black" points="274.5,-59.7752 274.5,-78.7752 417.5,-78.7752 417.5,-59.7752 274.5,-59.7752"/>
<text text-anchor="middle" x="346" y="-66.7752" font-family="Helvetica,sans-Serif" font-size="10.00">mars::interfaces::LoadCenter</text>
</a>
</g>
</g>
<!-- Node15&#45;&gt;Node6 -->
<g id="edge17" class="edge"><title>Node15&#45;&gt;Node6</title>
<path fill="none" stroke="#9a32cd" stroke-dasharray="5,2" d="M393.826,-57.6683C447.749,-47.3784 535.387,-40.6078 586,-89.2752 633.128,-134.592 564.168,-183.429 604,-235.275 606.97,-239.141 610.634,-242.411 614.685,-245.177"/>
<polygon fill="#9a32cd" stroke="#9a32cd" points="392.947,-54.2751 383.839,-59.6877 394.334,-61.1362 392.947,-54.2751"/>
<text text-anchor="middle" x="514" y="-92.2752" font-family="Helvetica,sans-Serif" font-size="10.00"> loadCenter</text>
</g>
<!-- Node16 -->
<g id="node16" class="node"><title>Node16</title>
<g id="a_node16"><a xlink:href="../../d1/d51/classmars_1_1interfaces_1_1_load_heightmap_interface.html" target="_top" xlink:title="mars::interfaces::LoadHeightmap\lInterface">
<polygon fill="white" stroke="black" points="0.5,-79.2752 0.5,-109.275 161.5,-109.275 161.5,-79.2752 0.5,-79.2752"/>
<text text-anchor="start" x="8.5" y="-97.2752" font-family="Helvetica,sans-Serif" font-size="10.00">mars::interfaces::LoadHeightmap</text>
<text text-anchor="middle" x="81" y="-86.2752" font-family="Helvetica,sans-Serif" font-size="10.00">Interface</text>
</a>
</g>
</g>
<!-- Node16&#45;&gt;Node15 -->
<g id="edge18" class="edge"><title>Node16&#45;&gt;Node15</title>
<path fill="none" stroke="#9a32cd" stroke-dasharray="5,2" d="M171.85,-85.7343C205.256,-82.5589 242.661,-79.0033 274.133,-76.0117"/>
<polygon fill="#9a32cd" stroke="#9a32cd" points="171.246,-82.2759 161.622,-86.7066 171.909,-89.2445 171.246,-82.2759"/>
<text text-anchor="middle" x="215" y="-88.2752" font-family="Helvetica,sans-Serif" font-size="10.00"> loadHeightmap</text>
</g>
<!-- Node17 -->
<g id="node17" class="node"><title>Node17</title>
<g id="a_node17"><a xlink:href="../../d7/d02/classmars_1_1interfaces_1_1_load_mesh_interface.html" target="_top" xlink:title="mars::interfaces::LoadMesh\lInterface">
<polygon fill="white" stroke="black" points="12,-30.2752 12,-60.2752 150,-60.2752 150,-30.2752 12,-30.2752"/>
<text text-anchor="start" x="20" y="-48.2752" font-family="Helvetica,sans-Serif" font-size="10.00">mars::interfaces::LoadMesh</text>
<text text-anchor="middle" x="81" y="-37.2752" font-family="Helvetica,sans-Serif" font-size="10.00">Interface</text>
</a>
</g>
</g>
<!-- Node17&#45;&gt;Node15 -->
<g id="edge19" class="edge"><title>Node17&#45;&gt;Node15</title>
<path fill="none" stroke="#9a32cd" stroke-dasharray="5,2" d="M160.116,-52.4037C196.387,-55.7136 239.183,-59.619 274.462,-62.8383"/>
<polygon fill="#9a32cd" stroke="#9a32cd" points="160.348,-48.9104 150.071,-51.487 159.712,-55.8814 160.348,-48.9104"/>
<text text-anchor="middle" x="215" y="-63.2752" font-family="Helvetica,sans-Serif" font-size="10.00"> loadMesh</text>
</g>
<!-- Node18 -->
<g id="node18" class="node"><title>Node18</title>
<g id="a_node18"><a xlink:href="../../d7/d4c/classmars_1_1interfaces_1_1_node_manager_interface.html" target="_top" xlink:title="&quot;NodeManagerInterface&quot; declares the interfaces for all NodeOperations that are used for the communica...">
<polygon fill="white" stroke="black" points="269,-98.2752 269,-128.275 423,-128.275 423,-98.2752 269,-98.2752"/>
<text text-anchor="start" x="277" y="-116.275" font-family="Helvetica,sans-Serif" font-size="10.00">mars::interfaces::NodeManager</text>
<text text-anchor="middle" x="346" y="-105.275" font-family="Helvetica,sans-Serif" font-size="10.00">Interface</text>
</a>
</g>
</g>
<!-- Node18&#45;&gt;Node6 -->
<g id="edge20" class="edge"><title>Node18&#45;&gt;Node6</title>
<path fill="none" stroke="#9a32cd" stroke-dasharray="5,2" d="M433.164,-104.088C483.947,-103.601 545.903,-112.328 586,-150.275 614.047,-176.818 579.179,-205.693 604,-235.275 607.208,-239.098 611.087,-242.342 615.322,-245.094"/>
<polygon fill="#9a32cd" stroke="#9a32cd" points="433.088,-100.589 423.166,-104.302 433.239,-107.587 433.088,-100.589"/>
<text text-anchor="middle" x="514" y="-153.275" font-family="Helvetica,sans-Serif" font-size="10.00"> nodes</text>
</g>
<!-- Node19 -->
<g id="node19" class="node"><title>Node19</title>
<g id="a_node19"><a xlink:href="../../dc/de5/classmars_1_1interfaces_1_1_simulator_interface.html" target="_top" xlink:title="mars::interfaces::Simulator\lInterface">
<polygon fill="white" stroke="black" points="279,-490.275 279,-520.275 413,-520.275 413,-490.275 279,-490.275"/>
<text text-anchor="start" x="287" y="-508.275" font-family="Helvetica,sans-Serif" font-size="10.00">mars::interfaces::Simulator</text>
<text text-anchor="middle" x="346" y="-497.275" font-family="Helvetica,sans-Serif" font-size="10.00">Interface</text>
</a>
</g>
</g>
<!-- Node19&#45;&gt;Node3 -->
<g id="edge25" class="edge"><title>Node19&#45;&gt;Node3</title>
<path fill="none" stroke="#9a32cd" stroke-dasharray="5,2" d="M423.233,-509.556C568.784,-517.728 884.268,-535.443 1024.9,-543.339"/>
<polygon fill="#9a32cd" stroke="#9a32cd" points="423.232,-506.05 413.052,-508.984 422.84,-513.039 423.232,-506.05"/>
<text text-anchor="middle" x="765" y="-533.275" font-family="Helvetica,sans-Serif" font-size="10.00"> mars</text>
</g>
<!-- Node19&#45;&gt;Node6 -->
<g id="edge21" class="edge"><title>Node19&#45;&gt;Node6</title>
<path fill="none" stroke="#9a32cd" stroke-dasharray="5,2" d="M415.951,-487.963C424.698,-485.949 433.544,-484.001 442,-482.275 505.572,-469.3 535.385,-498.87 586,-458.275 645.145,-410.839 660.847,-312.84 664.771,-275.331"/>
<polygon fill="#9a32cd" stroke="#9a32cd" points="415.084,-484.571 406.144,-490.256 416.678,-491.387 415.084,-484.571"/>
<text text-anchor="middle" x="514" y="-485.275" font-family="Helvetica,sans-Serif" font-size="10.00"> sim</text>
</g>
<!-- Node20 -->
<g id="node20" class="node"><title>Node20</title>
<polygon fill="white" stroke="#bfbfbf" points="839.5,-412.775 839.5,-431.775 880.5,-431.775 880.5,-412.775 839.5,-412.775"/>
<text text-anchor="middle" x="860" y="-419.775" font-family="Helvetica,sans-Serif" font-size="10.00">string</text>
</g>
<!-- Node20&#45;&gt;Node3 -->
<g id="edge22" class="edge"><title>Node20&#45;&gt;Node3</title>
<path fill="none" stroke="#9a32cd" stroke-dasharray="5,2" d="M890.631,-425.062C922.232,-429.559 971.799,-441.22 1002,-471.275 1019.04,-488.231 1002.85,-505.428 1020,-522.275 1023.92,-526.123 1028.44,-529.379 1033.28,-532.134"/>
<polygon fill="#9a32cd" stroke="#9a32cd" points="891.018,-421.583 880.657,-423.795 890.136,-428.527 891.018,-421.583"/>
<text text-anchor="middle" x="970" y="-485.275" font-family="Helvetica,sans-Serif" font-size="10.00"> configPath</text>
<text text-anchor="middle" x="970" y="-474.275" font-family="Helvetica,sans-Serif" font-size="10.00">resourcesPath</text>
</g>
<!-- Node26 -->
<g id="node26" class="node"><title>Node26</title>
<g id="a_node26"><a xlink:href="../../dc/dc3/structmars_1_1cfg__manager_1_1cfg_property_struct.html" target="_top" xlink:title="mars::cfg_manager::\lcfgPropertyStruct">
<polygon fill="white" stroke="black" points="1042.5,-297.275 1042.5,-327.275 1149.5,-327.275 1149.5,-297.275 1042.5,-297.275"/>
<text text-anchor="start" x="1050.5" y="-315.275" font-family="Helvetica,sans-Serif" font-size="10.00">mars::cfg_manager::</text>
<text text-anchor="middle" x="1096" y="-304.275" font-family="Helvetica,sans-Serif" font-size="10.00">cfgPropertyStruct</text>
</a>
</g>
</g>
<!-- Node20&#45;&gt;Node26 -->
<g id="edge31" class="edge"><title>Node20&#45;&gt;Node26</title>
<path fill="none" stroke="#9a32cd" stroke-dasharray="5,2" d="M884.982,-407.468C915.516,-389.05 970.286,-357.456 1020,-336.275 1027.55,-333.06 1035.68,-330.034 1043.7,-327.284"/>
<polygon fill="#9a32cd" stroke="#9a32cd" points="883.045,-404.55 876.317,-412.734 886.68,-410.532 883.045,-404.55"/>
<text text-anchor="middle" x="970" y="-379.275" font-family="Helvetica,sans-Serif" font-size="10.00"> sValue</text>
</g>
<!-- Node21&#45;&gt;Node3 -->
<g id="edge23" class="edge"><title>Node21&#45;&gt;Node3</title>
<path fill="none" stroke="#9a32cd" stroke-dasharray="5,2" d="M595.621,-548.997C709.826,-548.603 916.819,-547.89 1024.95,-547.517"/>
<polygon fill="#9a32cd" stroke="#9a32cd" points="595.527,-545.497 585.54,-549.032 595.552,-552.497 595.527,-545.497"/>
<text text-anchor="middle" x="765" y="-552.275" font-family="Helvetica,sans-Serif" font-size="10.00"> gui</text>
</g>
<!-- Node22 -->
<g id="node22" class="node"><title>Node22</title>
<g id="a_node22"><a xlink:href="../../d0/d0e/classmars_1_1data__broker_1_1_receiver_interface.html" target="_top" xlink:title="Interface for classes that want to receive data from the DataBroker. ">
<polygon fill="white" stroke="black" points="1045.5,-483.275 1045.5,-513.275 1146.5,-513.275 1146.5,-483.275 1045.5,-483.275"/>
<text text-anchor="start" x="1053.5" y="-501.275" font-family="Helvetica,sans-Serif" font-size="10.00">mars::data_broker::</text>
<text text-anchor="middle" x="1096" y="-490.275" font-family="Helvetica,sans-Serif" font-size="10.00">ReceiverInterface</text>
</a>
</g>
</g>
<!-- Node22&#45;&gt;Node1 -->
<g id="edge26" class="edge"><title>Node22&#45;&gt;Node1</title>
<path fill="none" stroke="midnightblue" d="M1156.32,-481.65C1188.55,-472.069 1228.89,-459.185 1264,-445.275 1278.77,-439.426 1294.72,-431.921 1307.94,-425.362"/>
<polygon fill="midnightblue" stroke="midnightblue" points="1155.2,-478.333 1146.59,-484.515 1157.17,-485.048 1155.2,-478.333"/>
</g>
<!-- Node23 -->
<g id="node23" class="node"><title>Node23</title>
<g id="a_node23"><a xlink:href="../../d3/d52/classmars_1_1main__gui_1_1_menu_interface.html" target="_top" xlink:title="Provides the menuAction function. ">
<polygon fill="white" stroke="black" points="1020,-444.775 1020,-463.775 1172,-463.775 1172,-444.775 1020,-444.775"/>
<text text-anchor="middle" x="1096" y="-451.775" font-family="Helvetica,sans-Serif" font-size="10.00">mars::main_gui::MenuInterface</text>
</a>
</g>
</g>
<!-- Node23&#45;&gt;Node1 -->
<g id="edge27" class="edge"><title>Node23&#45;&gt;Node1</title>
<path fill="none" stroke="midnightblue" d="M1160.67,-443.019C1191.83,-437.463 1229.9,-430.609 1264,-424.275 1269.96,-423.168 1276.2,-421.995 1282.4,-420.819"/>
<polygon fill="midnightblue" stroke="midnightblue" points="1160.04,-439.576 1150.8,-444.775 1161.26,-446.468 1160.04,-439.576"/>
</g>
<!-- Node24 -->
<g id="node24" class="node"><title>Node24</title>
<g id="a_node24"><a xlink:href="../../d4/d1a/classmars_1_1cfg__manager_1_1_c_f_g_client.html" target="_top" xlink:title="mars::cfg_manager::\lCFGClient">
<polygon fill="white" stroke="black" points="1042.5,-395.275 1042.5,-425.275 1149.5,-425.275 1149.5,-395.275 1042.5,-395.275"/>
<text text-anchor="start" x="1050.5" y="-413.275" font-family="Helvetica,sans-Serif" font-size="10.00">mars::cfg_manager::</text>
<text text-anchor="middle" x="1096" y="-402.275" font-family="Helvetica,sans-Serif" font-size="10.00">CFGClient</text>
</a>
</g>
</g>
<!-- Node24&#45;&gt;Node1 -->
<g id="edge28" class="edge"><title>Node24&#45;&gt;Node1</title>
<path fill="none" stroke="midnightblue" d="M1160.11,-410.275C1198.1,-410.275 1246,-410.275 1282.37,-410.275"/>
<polygon fill="midnightblue" stroke="midnightblue" points="1159.67,-406.775 1149.67,-410.275 1159.67,-413.775 1159.67,-406.775"/>
</g>
<!-- Node25 -->
<g id="node25" class="node"><title>Node25</title>
<g id="a_node25"><a xlink:href="../../d8/d6e/classmars_1_1interfaces_1_1_graphics_update_interface.html" target="_top" xlink:title="The Interface to load controller dynamically into the simulation. ">
<polygon fill="white" stroke="black" points="1030,-346.275 1030,-376.275 1162,-376.275 1162,-346.275 1030,-346.275"/>
<text text-anchor="start" x="1038" y="-364.275" font-family="Helvetica,sans-Serif" font-size="10.00">mars::interfaces::Graphics</text>
<text text-anchor="middle" x="1096" y="-353.275" font-family="Helvetica,sans-Serif" font-size="10.00">UpdateInterface</text>
</a>
</g>
</g>
<!-- Node25&#45;&gt;Node1 -->
<g id="edge29" class="edge"><title>Node25&#45;&gt;Node1</title>
<path fill="none" stroke="midnightblue" d="M1172.15,-376.619C1207.83,-383.904 1249.7,-392.451 1282.31,-399.108"/>
<polygon fill="midnightblue" stroke="midnightblue" points="1172.76,-373.171 1162.26,-374.6 1171.36,-380.03 1172.76,-373.171"/>
</g>
<!-- Node26&#45;&gt;Node1 -->
<g id="edge30" class="edge"><title>Node26&#45;&gt;Node1</title>
<path fill="none" stroke="#9a32cd" stroke-dasharray="5,2" d="M1159.33,-329.224C1191.27,-338.799 1230.41,-351.925 1264,-367.275 1281.53,-375.284 1300.23,-386.356 1314.32,-395.26"/>
<polygon fill="#9a32cd" stroke="#9a32cd" points="1160.24,-325.845 1149.66,-326.368 1158.26,-332.558 1160.24,-325.845"/>
<text text-anchor="middle" x="1227" y="-370.275" font-family="Helvetica,sans-Serif" font-size="10.00"> example</text>
</g>
<!-- Node27 -->
<g id="node27" class="node"><title>Node27</title>
<g id="a_node27"><a xlink:href="../../d9/d68/classmars_1_1data__broker_1_1_data_package_mapping.html" target="_top" xlink:title="A DataPackageMapping can be used by a Receiver &#160;to more conveniently retrieve values from a DataPacka...">
<polygon fill="white" stroke="black" points="1039.5,-248.275 1039.5,-278.275 1152.5,-278.275 1152.5,-248.275 1039.5,-248.275"/>
<text text-anchor="start" x="1047.5" y="-266.275" font-family="Helvetica,sans-Serif" font-size="10.00">mars::data_broker::</text>
<text text-anchor="middle" x="1096" y="-255.275" font-family="Helvetica,sans-Serif" font-size="10.00">DataPackageMapping</text>
</a>
</g>
</g>
<!-- Node27&#45;&gt;Node1 -->
<g id="edge32" class="edge"><title>Node27&#45;&gt;Node1</title>
<path fill="none" stroke="#9a32cd" stroke-dasharray="5,2" d="M1162.61,-273.457C1195.25,-280.863 1234.02,-293.387 1264,-314.275 1294.75,-335.7 1318.19,-374.099 1329.51,-395.26"/>
<polygon fill="#9a32cd" stroke="#9a32cd" points="1163.21,-270.006 1152.7,-271.319 1161.74,-276.849 1163.21,-270.006"/>
<text text-anchor="middle" x="1227" y="-328.275" font-family="Helvetica,sans-Serif" font-size="10.00"> dbNodeMapping</text>
<text text-anchor="middle" x="1227" y="-317.275" font-family="Helvetica,sans-Serif" font-size="10.00">dbTimeMapping</text>
</g>
<!-- Node28&#45;&gt;Node1 -->
<g id="edge33" class="edge"><title>Node28&#45;&gt;Node1</title>
<path fill="none" stroke="#9a32cd" stroke-dasharray="5,2" d="M926.086,-211.492C989.905,-206.846 1089.37,-204.996 1172,-227.275 1216.93,-239.391 1231.02,-244.437 1264,-277.275 1299.27,-312.403 1322.25,-368.155 1331.87,-394.932"/>
<polygon fill="#9a32cd" stroke="#9a32cd" points="925.468,-208.029 915.768,-212.29 926.008,-215.008 925.468,-208.029"/>
<text text-anchor="middle" x="1096" y="-230.275" font-family="Helvetica,sans-Serif" font-size="10.00"> myWidget</text>
</g>
<!-- Node29 -->
<g id="node29" class="node"><title>Node29</title>
<polygon fill="white" stroke="#bfbfbf" points="639.5,-206.775 639.5,-225.775 694.5,-225.775 694.5,-206.775 639.5,-206.775"/>
<text text-anchor="middle" x="667" y="-213.775" font-family="Helvetica,sans-Serif" font-size="10.00">QWidget</text>
</g>
<!-- Node29&#45;&gt;Node28 -->
<g id="edge34" class="edge"><title>Node29&#45;&gt;Node28</title>
<path fill="none" stroke="midnightblue" d="M704.799,-216.661C733.051,-216.956 772.502,-217.37 804.427,-217.704"/>
<polygon fill="midnightblue" stroke="midnightblue" points="704.594,-213.158 694.558,-216.553 704.521,-220.158 704.594,-213.158"/>
</g>
</g>
</svg>
