<?xml version="1.0" encoding="UTF-8" standalone="no"?>
<!DOCTYPE svg PUBLIC "-//W3C//DTD SVG 1.1//EN"
 "http://www.w3.org/Graphics/SVG/1.1/DTD/svg11.dtd">
<!-- Generated by graphviz version 2.26.3 (20100126.1600)
 -->
<!-- Title: /home/kavonszadkowski/limes&#45;dev/simulation/mars/plugins/mars_plugin_collection/db_to_cfg/src/DbToCfg.h Pages: 1 -->
<svg width="790pt" height="154pt"
 viewBox="0.00 0.00 790.00 154.00" xmlns="http://www.w3.org/2000/svg" xmlns:xlink="http://www.w3.org/1999/xlink">
<g id="graph1" class="graph" transform="scale(1 1) rotate(0) translate(4 150)">
<title>/home/kavonszadkowski/limes&#45;dev/simulation/mars/plugins/mars_plugin_collection/db_to_cfg/src/DbToCfg.h</title>
<polygon fill="white" stroke="white" points="-4,5 -4,-150 787,-150 787,5 -4,5"/>
<!-- Node1 -->
<g id="node1" class="node"><title>Node1</title>
<polygon fill="#bfbfbf" stroke="black" points="381.5,-72.5 381.5,-145.5 512.5,-145.5 512.5,-72.5 381.5,-72.5"/>
<text text-anchor="start" x="389.5" y="-132.5" font-family="Helvetica,sans-Serif" font-size="10.00">/home/kavonszadkowski</text>
<text text-anchor="start" x="389.5" y="-119.5" font-family="Helvetica,sans-Serif" font-size="10.00">/limes&#45;dev/simulation</text>
<text text-anchor="start" x="389.5" y="-106.5" font-family="Helvetica,sans-Serif" font-size="10.00">/mars/plugins/mars_plugin</text>
<text text-anchor="start" x="389.5" y="-93.5" font-family="Helvetica,sans-Serif" font-size="10.00">_collection/db_to_cfg/src</text>
<text text-anchor="middle" x="447" y="-80.5" font-family="Helvetica,sans-Serif" font-size="10.00">/DbToCfg.h</text>
</g>
<!-- Node2 -->
<g id="node3" class="node"><title>Node2</title>
<polygon fill="white" stroke="#bfbfbf" points="-0.5,-1 -0.5,-35 116.5,-35 116.5,-1 -0.5,-1"/>
<text text-anchor="start" x="7.5" y="-22" font-family="Helvetica,sans-Serif" font-size="10.00">mars/interfaces/sim</text>
<text text-anchor="middle" x="58" y="-9" font-family="Helvetica,sans-Serif" font-size="10.00">/MarsPluginTemplate.h</text>
</g>
<!-- Node1&#45;&gt;Node2 -->
<g id="edge2" class="edge"><title>Node1&#45;&gt;Node2</title>
<path fill="none" stroke="midnightblue" d="M381.45,-94.9345C318.486,-81.2435 220.452,-59.4556 126.725,-36.3892"/>
<polygon fill="midnightblue" stroke="midnightblue" points="127.34,-32.9358 116.792,-33.9357 125.661,-39.7316 127.34,-32.9358"/>
</g>
<!-- Node3 -->
<g id="node5" class="node"><title>Node3</title>
<polygon fill="white" stroke="#bfbfbf" points="134,-7.5 134,-28.5 280,-28.5 280,-7.5 134,-7.5"/>
<text text-anchor="middle" x="207" y="-15.5" font-family="Helvetica,sans-Serif" font-size="10.00">mars/interfaces/MARSDefs.h</text>
</g>
<!-- Node1&#45;&gt;Node3 -->
<g id="edge4" class="edge"><title>Node1&#45;&gt;Node3</title>
<path fill="none" stroke="midnightblue" d="M381.419,-84.1339C337.525,-67.4907 281.307,-46.1746 244.738,-32.309"/>
<polygon fill="midnightblue" stroke="midnightblue" points="245.563,-28.8786 234.971,-28.6058 243.081,-35.4239 245.563,-28.8786"/>
</g>
<!-- Node4 -->
<g id="node7" class="node"><title>Node4</title>
<polygon fill="white" stroke="#bfbfbf" points="298,-1 298,-35 432,-35 432,-1 298,-1"/>
<text text-anchor="start" x="306" y="-22" font-family="Helvetica,sans-Serif" font-size="10.00">mars/data_broker/Receiver</text>
<text text-anchor="middle" x="365" y="-9" font-family="Helvetica,sans-Serif" font-size="10.00">Interface.h</text>
</g>
<!-- Node1&#45;&gt;Node4 -->
<g id="edge6" class="edge"><title>Node1&#45;&gt;Node4</title>
<path fill="none" stroke="midnightblue" d="M413.884,-72.2491C404.945,-62.3296 395.487,-51.8335 387.297,-42.744"/>
<polygon fill="midnightblue" stroke="midnightblue" points="389.765,-40.2541 380.47,-35.1682 384.564,-44.9401 389.765,-40.2541"/>
</g>
<!-- Node5 -->
<g id="node9" class="node"><title>Node5</title>
<polygon fill="white" stroke="#bfbfbf" points="449.5,-1 449.5,-35 608.5,-35 608.5,-1 449.5,-1"/>
<text text-anchor="start" x="457.5" y="-22" font-family="Helvetica,sans-Serif" font-size="10.00">mars/cfg_manager/CFGManager</text>
<text text-anchor="middle" x="529" y="-9" font-family="Helvetica,sans-Serif" font-size="10.00">Interface.h</text>
</g>
<!-- Node1&#45;&gt;Node5 -->
<g id="edge8" class="edge"><title>Node1&#45;&gt;Node5</title>
<path fill="none" stroke="midnightblue" d="M480.116,-72.2491C489.055,-62.3296 498.513,-51.8335 506.703,-42.744"/>
<polygon fill="midnightblue" stroke="midnightblue" points="509.436,-44.9401 513.53,-35.1682 504.235,-40.2541 509.436,-44.9401"/>
</g>
<!-- Node6 -->
<g id="node11" class="node"><title>Node6</title>
<polygon fill="white" stroke="#bfbfbf" points="626,-7.5 626,-28.5 724,-28.5 724,-7.5 626,-7.5"/>
<text text-anchor="middle" x="675" y="-15.5" font-family="Helvetica,sans-Serif" font-size="10.00">mars/utils/Mutex.h</text>
</g>
<!-- Node1&#45;&gt;Node6 -->
<g id="edge10" class="edge"><title>Node1&#45;&gt;Node6</title>
<path fill="none" stroke="midnightblue" d="M512.641,-82.8011C553.83,-66.3617 605.357,-45.796 639.177,-32.2979"/>
<polygon fill="midnightblue" stroke="midnightblue" points="640.657,-35.4756 648.647,-28.518 638.062,-28.9743 640.657,-35.4756"/>
</g>
<!-- Node7 -->
<g id="node13" class="node"><title>Node7</title>
<polygon fill="white" stroke="#bfbfbf" points="741.5,-7.5 741.5,-28.5 782.5,-28.5 782.5,-7.5 741.5,-7.5"/>
<text text-anchor="middle" x="762" y="-15.5" font-family="Helvetica,sans-Serif" font-size="10.00">string</text>
</g>
<!-- Node1&#45;&gt;Node7 -->
<g id="edge12" class="edge"><title>Node1&#45;&gt;Node7</title>
<path fill="none" stroke="midnightblue" d="M512.739,-98.1435C571.935,-86.9973 660.514,-66.8777 733,-36 734.612,-35.3135 736.238,-34.5455 737.854,-33.7239"/>
<polygon fill="midnightblue" stroke="midnightblue" points="739.856,-36.6117 746.822,-28.6286 736.398,-30.5254 739.856,-36.6117"/>
</g>
</g>
</svg>
