<?xml version="1.0" encoding="UTF-8" standalone="no"?>
<!DOCTYPE svg PUBLIC "-//W3C//DTD SVG 1.1//EN"
 "http://www.w3.org/Graphics/SVG/1.1/DTD/svg11.dtd">
<!-- Generated by graphviz version 2.36.0 (20140111.2315)
 -->
<!-- Title: /media/kavonszadkowski/work/marsdocs/mars/common/utils/src/mathUtils.h Pages: 1 -->
<svg width="303pt" height="162pt"
 viewBox="0.00 0.00 303.00 162.00" xmlns="http://www.w3.org/2000/svg" xmlns:xlink="http://www.w3.org/1999/xlink">
<g id="graph0" class="graph" transform="scale(1 1) rotate(0) translate(4 158)">
<title>/media/kavonszadkowski/work/marsdocs/mars/common/utils/src/mathUtils.h</title>
<polygon fill="white" stroke="none" points="-4,4 -4,-158 299,-158 299,4 -4,4"/>
<!-- Node1 -->
<g id="node1" class="node"><title>Node1</title>
<polygon fill="#bfbfbf" stroke="black" points="37,-112.5 37,-153.5 189,-153.5 189,-112.5 37,-112.5"/>
<text text-anchor="start" x="45" y="-141.5" font-family="Helvetica,sans-Serif" font-size="10.00">/media/kavonszadkowski</text>
<text text-anchor="start" x="45" y="-130.5" font-family="Helvetica,sans-Serif" font-size="10.00">/work/marsdocs/mars/common</text>
<text text-anchor="middle" x="113" y="-119.5" font-family="Helvetica,sans-Serif" font-size="10.00">/utils/src/mathUtils.h</text>
</g>
<!-- Node2 -->
<g id="node2" class="node"><title>Node2</title>
<g id="a_node2"><a xlink:href="../../d4/d7f/_vector_8h.html" target="_top" xlink:title="Vector.h">
<polygon fill="white" stroke="black" points="5.5,-56.5 5.5,-75.5 58.5,-75.5 58.5,-56.5 5.5,-56.5"/>
<text text-anchor="middle" x="32" y="-63.5" font-family="Helvetica,sans-Serif" font-size="10.00">Vector.h</text>
</a>
</g>
</g>
<!-- Node1&#45;&gt;Node2 -->
<g id="edge1" class="edge"><title>Node1&#45;&gt;Node2</title>
<path fill="none" stroke="midnightblue" d="M88.6973,-112.498C76.5173,-102.724 61.9973,-91.0719 50.7005,-82.0066"/>
<polygon fill="midnightblue" stroke="midnightblue" points="52.7722,-79.1815 42.7823,-75.6525 48.3911,-84.641 52.7722,-79.1815"/>
</g>
<!-- Node4 -->
<g id="node4" class="node"><title>Node4</title>
<g id="a_node4"><a xlink:href="../../df/d7d/_quaternion_8h.html" target="_top" xlink:title="Quaternion.h">
<polygon fill="white" stroke="black" points="77,-56.5 77,-75.5 149,-75.5 149,-56.5 77,-56.5"/>
<text text-anchor="middle" x="113" y="-63.5" font-family="Helvetica,sans-Serif" font-size="10.00">Quaternion.h</text>
</a>
</g>
</g>
<!-- Node1&#45;&gt;Node4 -->
<g id="edge3" class="edge"><title>Node1&#45;&gt;Node4</title>
<path fill="none" stroke="midnightblue" d="M113,-112.498C113,-104.065 113,-94.2351 113,-85.874"/>
<polygon fill="midnightblue" stroke="midnightblue" points="116.5,-85.6525 113,-75.6525 109.5,-85.6525 116.5,-85.6525"/>
</g>
<!-- Node6 -->
<g id="node6" class="node"><title>Node6</title>
<polygon fill="white" stroke="#bfbfbf" points="167,-56.5 167,-75.5 295,-75.5 295,-56.5 167,-56.5"/>
<text text-anchor="middle" x="231" y="-63.5" font-family="Helvetica,sans-Serif" font-size="10.00">configmaps/ConfigData.h</text>
</g>
<!-- Node1&#45;&gt;Node6 -->
<g id="edge6" class="edge"><title>Node1&#45;&gt;Node6</title>
<path fill="none" stroke="midnightblue" d="M148.404,-112.498C167.017,-102.245 189.382,-89.925 206.143,-80.6927"/>
<polygon fill="midnightblue" stroke="midnightblue" points="208.222,-83.5431 215.292,-75.6525 204.845,-77.4118 208.222,-83.5431"/>
</g>
<!-- Node3 -->
<g id="node3" class="node"><title>Node3</title>
<polygon fill="white" stroke="#bfbfbf" points="-0.5,-0.5 -0.5,-19.5 64.5,-19.5 64.5,-0.5 -0.5,-0.5"/>
<text text-anchor="middle" x="32" y="-7.5" font-family="Helvetica,sans-Serif" font-size="10.00">Eigen/Core</text>
</g>
<!-- Node2&#45;&gt;Node3 -->
<g id="edge2" class="edge"><title>Node2&#45;&gt;Node3</title>
<path fill="none" stroke="midnightblue" d="M32,-56.083C32,-49.0059 32,-38.8611 32,-29.9865"/>
<polygon fill="midnightblue" stroke="midnightblue" points="35.5001,-29.751 32,-19.7511 28.5001,-29.7511 35.5001,-29.751"/>
</g>
<!-- Node4&#45;&gt;Node3 -->
<g id="edge4" class="edge"><title>Node4&#45;&gt;Node3</title>
<path fill="none" stroke="midnightblue" d="M99.9859,-56.324C87.4684,-47.979 68.3183,-35.2122 53.5286,-25.3524"/>
<polygon fill="midnightblue" stroke="midnightblue" points="55.2437,-22.2894 44.9818,-19.6545 51.3608,-28.1137 55.2437,-22.2894"/>
</g>
<!-- Node5 -->
<g id="node5" class="node"><title>Node5</title>
<polygon fill="white" stroke="#bfbfbf" points="82.5,-0.5 82.5,-19.5 169.5,-19.5 169.5,-0.5 82.5,-0.5"/>
<text text-anchor="middle" x="126" y="-7.5" font-family="Helvetica,sans-Serif" font-size="10.00">Eigen/Geometry</text>
</g>
<!-- Node4&#45;&gt;Node5 -->
<g id="edge5" class="edge"><title>Node4&#45;&gt;Node5</title>
<path fill="none" stroke="midnightblue" d="M115.147,-56.083C116.869,-48.9272 119.347,-38.6353 121.5,-29.6911"/>
<polygon fill="midnightblue" stroke="midnightblue" points="124.955,-30.2925 123.893,-19.7511 118.15,-28.6541 124.955,-30.2925"/>
</g>
</g>
</svg>
