<?xml version="1.0" encoding="UTF-8" standalone="no"?>
<!DOCTYPE svg PUBLIC "-//W3C//DTD SVG 1.1//EN"
 "http://www.w3.org/Graphics/SVG/1.1/DTD/svg11.dtd">
<!-- Generated by graphviz version 2.36.0 (20140111.2315)
 -->
<!-- Title: mars::plugins::Text3D::TextData Pages: 1 -->
<svg width="185pt" height="118pt"
 viewBox="0.00 0.00 185.00 118.00" xmlns="http://www.w3.org/2000/svg" xmlns:xlink="http://www.w3.org/1999/xlink">
<g id="graph0" class="graph" transform="scale(1 1) rotate(0) translate(4 114)">
<title>mars::plugins::Text3D::TextData</title>
<polygon fill="white" stroke="none" points="-4,4 -4,-114 181,-114 181,4 -4,4"/>
<!-- Node1 -->
<g id="node1" class="node"><title>Node1</title>
<polygon fill="#bfbfbf" stroke="black" points="51.5,-1 51.5,-31 164.5,-31 164.5,-1 51.5,-1"/>
<text text-anchor="start" x="59.5" y="-19" font-family="Helvetica,sans-Serif" font-size="10.00">mars::plugins::Text3D</text>
<text text-anchor="middle" x="108" y="-8" font-family="Helvetica,sans-Serif" font-size="10.00">::TextData</text>
</g>
<!-- Node2 -->
<g id="node2" class="node"><title>Node2</title>
<g id="a_node2"><a xlink:href="../../d7/d02/classosg__text_1_1_text_interface.html" target="_top" xlink:title="osg_text::TextInterface">
<polygon fill="white" stroke="black" points="0,-90.5 0,-109.5 118,-109.5 118,-90.5 0,-90.5"/>
<text text-anchor="middle" x="59" y="-97.5" font-family="Helvetica,sans-Serif" font-size="10.00">osg_text::TextInterface</text>
</a>
</g>
</g>
<!-- Node2&#45;&gt;Node1 -->
<g id="edge1" class="edge"><title>Node2&#45;&gt;Node1</title>
<path fill="none" stroke="#9a32cd" stroke-dasharray="5,2" d="M69.5082,-81.4149C78.4732,-66.4123 91.198,-45.1177 99.5243,-31.1839"/>
<polygon fill="#9a32cd" stroke="#9a32cd" points="66.369,-79.845 64.2439,-90.2246 72.3779,-83.4358 66.369,-79.845"/>
<text text-anchor="middle" x="98" y="-58.5" font-family="Helvetica,sans-Serif" font-size="10.00"> text</text>
</g>
<!-- Node3 -->
<g id="node3" class="node"><title>Node3</title>
<polygon fill="white" stroke="#bfbfbf" points="136.5,-90.5 136.5,-109.5 177.5,-109.5 177.5,-90.5 136.5,-90.5"/>
<text text-anchor="middle" x="157" y="-97.5" font-family="Helvetica,sans-Serif" font-size="10.00">string</text>
</g>
<!-- Node3&#45;&gt;Node1 -->
<g id="edge2" class="edge"><title>Node3&#45;&gt;Node1</title>
<path fill="none" stroke="#9a32cd" stroke-dasharray="5,2" d="M146.492,-81.4149C137.527,-66.4123 124.802,-45.1177 116.476,-31.1839"/>
<polygon fill="#9a32cd" stroke="#9a32cd" points="143.622,-83.4358 151.756,-90.2246 149.631,-79.845 143.622,-83.4358"/>
<text text-anchor="middle" x="153.5" y="-64" font-family="Helvetica,sans-Serif" font-size="10.00"> value</text>
<text text-anchor="middle" x="153.5" y="-53" font-family="Helvetica,sans-Serif" font-size="10.00">name</text>
</g>
</g>
</svg>
