<?xml version="1.0" encoding="UTF-8" standalone="no"?>
<!DOCTYPE svg PUBLIC "-//W3C//DTD SVG 1.1//EN"
 "http://www.w3.org/Graphics/SVG/1.1/DTD/svg11.dtd">
<!-- Generated by graphviz version 2.26.3 (20100126.1600)
 -->
<!-- Title: /home/kavonszadkowski/limes&#45;dev/simulation/mars/plugins/Plot3D/src/Plot3D.cpp Pages: 1 -->
<svg width="1610pt" height="286pt"
 viewBox="0.00 0.00 1610.00 286.00" xmlns="http://www.w3.org/2000/svg" xmlns:xlink="http://www.w3.org/1999/xlink">
<g id="graph1" class="graph" transform="scale(1 1) rotate(0) translate(4 282)">
<title>/home/kavonszadkowski/limes&#45;dev/simulation/mars/plugins/Plot3D/src/Plot3D.cpp</title>
<polygon fill="white" stroke="white" points="-4,5 -4,-282 1607,-282 1607,5 -4,5"/>
<!-- Node1 -->
<g id="node1" class="node"><title>Node1</title>
<polygon fill="#bfbfbf" stroke="black" points="1033.5,-217 1033.5,-277 1158.5,-277 1158.5,-217 1033.5,-217"/>
<text text-anchor="start" x="1041.5" y="-264" font-family="Helvetica,sans-Serif" font-size="10.00">/home/kavonszadkowski</text>
<text text-anchor="start" x="1041.5" y="-251" font-family="Helvetica,sans-Serif" font-size="10.00">/limes&#45;dev/simulation</text>
<text text-anchor="start" x="1041.5" y="-238" font-family="Helvetica,sans-Serif" font-size="10.00">/mars/plugins/Plot3D/src</text>
<text text-anchor="middle" x="1096" y="-225" font-family="Helvetica,sans-Serif" font-size="10.00">/Plot3D.cpp</text>
</g>
<!-- Node2 -->
<g id="node3" class="node"><title>Node2</title>
<a xlink:href="../../d7/d56/_plot3_d_8h.html" target="_top" xlink:title="A. ">
<polygon fill="white" stroke="black" points="780.5,-151.5 780.5,-172.5 835.5,-172.5 835.5,-151.5 780.5,-151.5"/>
<text text-anchor="middle" x="808" y="-159.5" font-family="Helvetica,sans-Serif" font-size="10.00">Plot3D.h</text>
</a>
</g>
<!-- Node1&#45;&gt;Node2 -->
<g id="edge2" class="edge"><title>Node1&#45;&gt;Node2</title>
<path fill="none" stroke="midnightblue" d="M1033.27,-234.065C981.601,-222.527 906.875,-203.792 844,-180 841.598,-179.091 839.144,-178.072 836.702,-176.994"/>
<polygon fill="midnightblue" stroke="midnightblue" points="838.019,-173.745 827.481,-172.645 835.033,-180.076 838.019,-173.745"/>
</g>
<!-- Node23 -->
<g id="node60" class="node"><title>Node23</title>
<polygon fill="white" stroke="#bfbfbf" points="852.5,-145 852.5,-179 997.5,-179 997.5,-145 852.5,-145"/>
<text text-anchor="start" x="860.5" y="-166" font-family="Helvetica,sans-Serif" font-size="10.00">mars/data_broker/DataBroker</text>
<text text-anchor="middle" x="925" y="-153" font-family="Helvetica,sans-Serif" font-size="10.00">Interface.h</text>
</g>
<!-- Node1&#45;&gt;Node23 -->
<g id="edge74" class="edge"><title>Node1&#45;&gt;Node23</title>
<path fill="none" stroke="midnightblue" d="M1035.23,-216.793C1013.09,-205.786 988.521,-193.575 968.211,-183.479"/>
<polygon fill="midnightblue" stroke="midnightblue" points="969.716,-180.319 959.203,-179.002 966.6,-186.587 969.716,-180.319"/>
</g>
<!-- Node24 -->
<g id="node62" class="node"><title>Node24</title>
<polygon fill="white" stroke="#bfbfbf" points="1014.5,-151.5 1014.5,-172.5 1177.5,-172.5 1177.5,-151.5 1014.5,-151.5"/>
<text text-anchor="middle" x="1096" y="-159.5" font-family="Helvetica,sans-Serif" font-size="10.00">mars/data_broker/DataPackage.h</text>
</g>
<!-- Node1&#45;&gt;Node24 -->
<g id="edge76" class="edge"><title>Node1&#45;&gt;Node24</title>
<path fill="none" stroke="midnightblue" d="M1096,-216.793C1096,-205.579 1096,-193.116 1096,-182.913"/>
<polygon fill="midnightblue" stroke="midnightblue" points="1099.5,-182.895 1096,-172.895 1092.5,-182.895 1099.5,-182.895"/>
</g>
<!-- Node25 -->
<g id="node64" class="node"><title>Node25</title>
<polygon fill="white" stroke="#bfbfbf" points="1194.5,-145 1194.5,-179 1337.5,-179 1337.5,-145 1194.5,-145"/>
<text text-anchor="start" x="1202.5" y="-166" font-family="Helvetica,sans-Serif" font-size="10.00">mars/interfaces/graphics</text>
<text text-anchor="middle" x="1266" y="-153" font-family="Helvetica,sans-Serif" font-size="10.00">/GraphicsManagerInterface.h</text>
</g>
<!-- Node1&#45;&gt;Node25 -->
<g id="edge78" class="edge"><title>Node1&#45;&gt;Node25</title>
<path fill="none" stroke="midnightblue" d="M1156.41,-216.793C1178.43,-205.786 1202.85,-193.575 1223.04,-183.479"/>
<polygon fill="midnightblue" stroke="midnightblue" points="1224.62,-186.604 1232,-179.002 1221.49,-180.343 1224.62,-186.604"/>
</g>
<!-- Node26 -->
<g id="node66" class="node"><title>Node26</title>
<polygon fill="white" stroke="#bfbfbf" points="1354.5,-145 1354.5,-179 1481.5,-179 1481.5,-145 1354.5,-145"/>
<text text-anchor="start" x="1362.5" y="-166" font-family="Helvetica,sans-Serif" font-size="10.00">mars/interfaces/sim</text>
<text text-anchor="middle" x="1418" y="-153" font-family="Helvetica,sans-Serif" font-size="10.00">/NodeManagerInterface.h</text>
</g>
<!-- Node1&#45;&gt;Node26 -->
<g id="edge80" class="edge"><title>Node1&#45;&gt;Node26</title>
<path fill="none" stroke="midnightblue" d="M1158.85,-230.409C1212.11,-216.349 1288.56,-196.17 1344.62,-181.371"/>
<polygon fill="midnightblue" stroke="midnightblue" points="1345.71,-184.703 1354.48,-178.767 1343.92,-177.935 1345.71,-184.703"/>
</g>
<!-- Node3 -->
<g id="node5" class="node"><title>Node3</title>
<polygon fill="white" stroke="#bfbfbf" points="437.5,-73 437.5,-107 554.5,-107 554.5,-73 437.5,-73"/>
<text text-anchor="start" x="445.5" y="-94" font-family="Helvetica,sans-Serif" font-size="10.00">mars/interfaces/sim</text>
<text text-anchor="middle" x="496" y="-81" font-family="Helvetica,sans-Serif" font-size="10.00">/MarsPluginTemplate.h</text>
</g>
<!-- Node2&#45;&gt;Node3 -->
<g id="edge4" class="edge"><title>Node2&#45;&gt;Node3</title>
<path fill="none" stroke="midnightblue" d="M780.234,-155.976C735.484,-146.218 644.665,-126.205 568,-108 566.766,-107.707 565.52,-107.41 564.266,-107.109"/>
<polygon fill="midnightblue" stroke="midnightblue" points="565.063,-103.701 554.521,-104.753 563.418,-110.505 565.063,-103.701"/>
</g>
<!-- Node4 -->
<g id="node7" class="node"><title>Node4</title>
<polygon fill="white" stroke="#bfbfbf" points="152,-7.5 152,-28.5 298,-28.5 298,-7.5 152,-7.5"/>
<text text-anchor="middle" x="225" y="-15.5" font-family="Helvetica,sans-Serif" font-size="10.00">mars/interfaces/MARSDefs.h</text>
</g>
<!-- Node2&#45;&gt;Node4 -->
<g id="edge6" class="edge"><title>Node2&#45;&gt;Node4</title>
<path fill="none" stroke="midnightblue" d="M780.498,-157.487C744.81,-150.76 681.495,-135.806 634,-108 613.923,-96.2461 617.037,-81.9335 596,-72 478.955,-16.7326 434.571,-57.8994 307,-36 298.033,-34.4607 288.564,-32.6019 279.37,-30.6709"/>
<polygon fill="midnightblue" stroke="midnightblue" points="280.051,-27.2374 269.539,-28.5589 278.581,-34.0812 280.051,-27.2374"/>
</g>
<!-- Node5 -->
<g id="node9" class="node"><title>Node5</title>
<polygon fill="white" stroke="#bfbfbf" points="0,-1 0,-35 134,-35 134,-1 0,-1"/>
<text text-anchor="start" x="8" y="-22" font-family="Helvetica,sans-Serif" font-size="10.00">mars/data_broker/Receiver</text>
<text text-anchor="middle" x="67" y="-9" font-family="Helvetica,sans-Serif" font-size="10.00">Interface.h</text>
</g>
<!-- Node2&#45;&gt;Node5 -->
<g id="edge8" class="edge"><title>Node2&#45;&gt;Node5</title>
<path fill="none" stroke="midnightblue" d="M780.318,-160.002C737.897,-155.877 655.483,-143.586 596,-108 577.374,-96.8568 582.476,-81.581 563,-72 481.571,-31.9422 250.554,-49.6332 143.949,-35.8728"/>
<polygon fill="midnightblue" stroke="midnightblue" points="144.427,-32.4057 134.03,-34.4399 143.427,-39.3338 144.427,-32.4057"/>
</g>
<!-- Node6 -->
<g id="node11" class="node"><title>Node6</title>
<polygon fill="white" stroke="#bfbfbf" points="1373.5,-73 1373.5,-107 1532.5,-107 1532.5,-73 1373.5,-73"/>
<text text-anchor="start" x="1381.5" y="-94" font-family="Helvetica,sans-Serif" font-size="10.00">mars/cfg_manager/CFGManager</text>
<text text-anchor="middle" x="1453" y="-81" font-family="Helvetica,sans-Serif" font-size="10.00">Interface.h</text>
</g>
<!-- Node2&#45;&gt;Node6 -->
<g id="edge10" class="edge"><title>Node2&#45;&gt;Node6</title>
<path fill="none" stroke="midnightblue" d="M825.758,-151.386C831.404,-148.492 837.798,-145.692 844,-144 1064.75,-83.7787 1133.08,-137.752 1363.43,-108.094"/>
<polygon fill="midnightblue" stroke="midnightblue" points="1364,-111.548 1373.46,-106.763 1363.08,-104.609 1364,-111.548"/>
</g>
<!-- Node7 -->
<g id="node13" class="node"><title>Node7</title>
<polygon fill="white" stroke="#bfbfbf" points="315.5,-1 315.5,-35 452.5,-35 452.5,-1 315.5,-1"/>
<text text-anchor="start" x="323.5" y="-22" font-family="Helvetica,sans-Serif" font-size="10.00">mars/interfaces/graphics</text>
<text text-anchor="middle" x="384" y="-9" font-family="Helvetica,sans-Serif" font-size="10.00">/GraphicsUpdateInterface.h</text>
</g>
<!-- Node2&#45;&gt;Node7 -->
<g id="edge12" class="edge"><title>Node2&#45;&gt;Node7</title>
<path fill="none" stroke="midnightblue" d="M780.147,-151.423C754.941,-141.446 717.112,-125.448 686,-108 661.483,-94.2502 659.831,-83.0847 634,-72 564.789,-42.3 539.748,-52.035 462.971,-36.3365"/>
<polygon fill="midnightblue" stroke="midnightblue" points="463.338,-32.8363 452.828,-34.1776 461.88,-39.6829 463.338,-32.8363"/>
</g>
<!-- Node8 -->
<g id="node15" class="node"><title>Node8</title>
<polygon fill="white" stroke="#bfbfbf" points="641.5,-7.5 641.5,-28.5 682.5,-28.5 682.5,-7.5 641.5,-7.5"/>
<text text-anchor="middle" x="662" y="-15.5" font-family="Helvetica,sans-Serif" font-size="10.00">string</text>
</g>
<!-- Node2&#45;&gt;Node8 -->
<g id="edge14" class="edge"><title>Node2&#45;&gt;Node8</title>
<path fill="none" stroke="midnightblue" d="M782.365,-151.49C762.241,-142.28 734.466,-127.347 715,-108 694.41,-87.536 678.845,-57.4695 670.073,-37.8138"/>
<polygon fill="midnightblue" stroke="midnightblue" points="673.274,-36.399 666.114,-28.5901 666.842,-39.1599 673.274,-36.399"/>
</g>
<!-- Node9 -->
<g id="node17" class="node"><title>Node9</title>
<polygon fill="white" stroke="#bfbfbf" points="934,-7.5 934,-28.5 1016,-28.5 1016,-7.5 934,-7.5"/>
<text text-anchor="middle" x="975" y="-15.5" font-family="Helvetica,sans-Serif" font-size="10.00">osg_plot/Plot.h</text>
</g>
<!-- Node2&#45;&gt;Node9 -->
<g id="edge16" class="edge"><title>Node2&#45;&gt;Node9</title>
<path fill="none" stroke="midnightblue" d="M828.59,-151.363C855.624,-137.306 900.439,-113.657 907,-108 930.962,-87.3392 951.763,-56.9103 963.849,-37.2718"/>
<polygon fill="midnightblue" stroke="midnightblue" points="966.915,-38.9639 969.057,-28.5879 960.912,-35.3633 966.915,-38.9639"/>
</g>
<!-- Node10 -->
<g id="node19" class="node"><title>Node10</title>
<polygon fill="white" stroke="#bfbfbf" points="1033.5,-7.5 1033.5,-28.5 1124.5,-28.5 1124.5,-7.5 1033.5,-7.5"/>
<text text-anchor="middle" x="1079" y="-15.5" font-family="Helvetica,sans-Serif" font-size="10.00">osg_plot/Curve.h</text>
</g>
<!-- Node2&#45;&gt;Node10 -->
<g id="edge18" class="edge"><title>Node2&#45;&gt;Node10</title>
<path fill="none" stroke="midnightblue" d="M828.407,-151.395C833.461,-148.88 838.892,-146.271 844,-144 884.122,-126.164 896.801,-127.782 936,-108 980.19,-85.6996 1028.25,-53.6959 1055.88,-34.4691"/>
<polygon fill="midnightblue" stroke="midnightblue" points="1057.93,-37.3106 1064.11,-28.704 1053.91,-31.579 1057.93,-37.3106"/>
</g>
<!-- Node11 -->
<g id="node21" class="node"><title>Node11</title>
<polygon fill="white" stroke="#bfbfbf" points="1549.5,-79.5 1549.5,-100.5 1602.5,-100.5 1602.5,-79.5 1549.5,-79.5"/>
<text text-anchor="middle" x="1576" y="-87.5" font-family="Helvetica,sans-Serif" font-size="10.00">QObject</text>
</g>
<!-- Node2&#45;&gt;Node11 -->
<g id="edge20" class="edge"><title>Node2&#45;&gt;Node11</title>
<path fill="none" stroke="midnightblue" d="M825.74,-151.32C831.386,-148.423 837.783,-145.638 844,-144 1143.95,-64.9679 1241.5,-188.735 1541,-108 1543.85,-107.233 1546.72,-106.214 1549.55,-105.049"/>
<polygon fill="midnightblue" stroke="midnightblue" points="1551.24,-108.12 1558.78,-100.682 1548.25,-101.791 1551.24,-108.12"/>
</g>
<!-- Node12 -->
<g id="node23" class="node"><title>Node12</title>
<a xlink:href="../../dd/db3/_motor_plot_config_8h.html" target="_top" xlink:title="MotorPlotConfig.h">
<polygon fill="white" stroke="black" points="1261.5,-79.5 1261.5,-100.5 1356.5,-100.5 1356.5,-79.5 1261.5,-79.5"/>
<text text-anchor="middle" x="1309" y="-87.5" font-family="Helvetica,sans-Serif" font-size="10.00">MotorPlotConfig.h</text>
</a>
</g>
<!-- Node2&#45;&gt;Node12 -->
<g id="edge22" class="edge"><title>Node2&#45;&gt;Node12</title>
<path fill="none" stroke="midnightblue" d="M826.178,-151.376C831.734,-148.554 837.973,-145.796 844,-144 918.981,-121.655 1144.21,-102.376 1251.27,-94.1905"/>
<polygon fill="midnightblue" stroke="midnightblue" points="1251.54,-97.6797 1261.25,-93.4333 1251.01,-90.6998 1251.54,-97.6797"/>
</g>
<!-- Node17 -->
<g id="node33" class="node"><title>Node17</title>
<a xlink:href="../../dd/d70/_motor_plot_8h.html" target="_top" xlink:title="A. ">
<polygon fill="white" stroke="black" points="723.5,-79.5 723.5,-100.5 790.5,-100.5 790.5,-79.5 723.5,-79.5"/>
<text text-anchor="middle" x="757" y="-87.5" font-family="Helvetica,sans-Serif" font-size="10.00">MotorPlot.h</text>
</a>
</g>
<!-- Node2&#45;&gt;Node17 -->
<g id="edge32" class="edge"><title>Node2&#45;&gt;Node17</title>
<path fill="none" stroke="midnightblue" d="M800.475,-151.376C792.565,-140.209 779.961,-122.415 770.355,-108.855"/>
<polygon fill="midnightblue" stroke="midnightblue" points="773.192,-106.805 764.556,-100.667 767.48,-110.851 773.192,-106.805"/>
</g>
<!-- Node21 -->
<g id="node48" class="node"><title>Node21</title>
<a xlink:href="../../db/ddb/_general_plot_8h.html" target="_top" xlink:title="A. ">
<polygon fill="white" stroke="black" points="822,-79.5 822,-100.5 898,-100.5 898,-79.5 822,-79.5"/>
<text text-anchor="middle" x="860" y="-87.5" font-family="Helvetica,sans-Serif" font-size="10.00">GeneralPlot.h</text>
</a>
</g>
<!-- Node2&#45;&gt;Node21 -->
<g id="edge54" class="edge"><title>Node2&#45;&gt;Node21</title>
<path fill="none" stroke="midnightblue" d="M815.673,-151.376C823.738,-140.209 836.589,-122.415 846.383,-108.855"/>
<polygon fill="midnightblue" stroke="midnightblue" points="849.278,-110.823 852.296,-100.667 843.603,-106.725 849.278,-110.823"/>
</g>
<!-- Node13 -->
<g id="node25" class="node"><title>Node13</title>
<polygon fill="white" stroke="#bfbfbf" points="1257.5,-1 1257.5,-35 1360.5,-35 1360.5,-1 1257.5,-1"/>
<text text-anchor="start" x="1265.5" y="-22" font-family="Helvetica,sans-Serif" font-size="10.00">mars/interfaces/sim</text>
<text text-anchor="middle" x="1309" y="-9" font-family="Helvetica,sans-Serif" font-size="10.00">/ControlCenter.h</text>
</g>
<!-- Node12&#45;&gt;Node13 -->
<g id="edge24" class="edge"><title>Node12&#45;&gt;Node13</title>
<path fill="none" stroke="midnightblue" d="M1309,-79.3762C1309,-70.4513 1309,-57.2928 1309,-45.4461"/>
<polygon fill="midnightblue" stroke="midnightblue" points="1312.5,-45.0943 1309,-35.0944 1305.5,-45.0944 1312.5,-45.0943"/>
</g>
<!-- Node14 -->
<g id="node27" class="node"><title>Node14</title>
<polygon fill="white" stroke="#bfbfbf" points="1378,-7.5 1378,-28.5 1422,-28.5 1422,-7.5 1378,-7.5"/>
<text text-anchor="middle" x="1400" y="-15.5" font-family="Helvetica,sans-Serif" font-size="10.00">vector</text>
</g>
<!-- Node12&#45;&gt;Node14 -->
<g id="edge26" class="edge"><title>Node12&#45;&gt;Node14</title>
<path fill="none" stroke="midnightblue" d="M1322.43,-79.3762C1337.21,-67.6777 1361.19,-48.7052 1378.58,-34.9475"/>
<polygon fill="midnightblue" stroke="midnightblue" points="1380.85,-37.6171 1386.52,-28.6674 1376.5,-32.1275 1380.85,-37.6171"/>
</g>
<!-- Node15 -->
<g id="node29" class="node"><title>Node15</title>
<polygon fill="white" stroke="#bfbfbf" points="1439.5,-7.5 1439.5,-28.5 1494.5,-28.5 1494.5,-7.5 1439.5,-7.5"/>
<text text-anchor="middle" x="1467" y="-15.5" font-family="Helvetica,sans-Serif" font-size="10.00">QWidget</text>
</g>
<!-- Node12&#45;&gt;Node15 -->
<g id="edge28" class="edge"><title>Node12&#45;&gt;Node15</title>
<path fill="none" stroke="midnightblue" d="M1333.92,-79.3758C1358.69,-68.7229 1397.68,-51.6926 1431,-36 1433,-35.0565 1435.06,-34.0708 1437.13,-33.0678"/>
<polygon fill="midnightblue" stroke="midnightblue" points="1438.71,-36.191 1446.14,-28.6368 1435.62,-29.9096 1438.71,-36.191"/>
</g>
<!-- Node16 -->
<g id="node31" class="node"><title>Node16</title>
<polygon fill="white" stroke="#bfbfbf" points="1512,-7.5 1512,-28.5 1562,-28.5 1562,-7.5 1512,-7.5"/>
<text text-anchor="middle" x="1537" y="-15.5" font-family="Helvetica,sans-Serif" font-size="10.00">QString</text>
</g>
<!-- Node12&#45;&gt;Node16 -->
<g id="edge30" class="edge"><title>Node12&#45;&gt;Node16</title>
<path fill="none" stroke="midnightblue" d="M1340.89,-79.4106C1348.75,-76.8956 1357.16,-74.282 1365,-72 1425.86,-54.2948 1443.93,-58.9828 1503,-36 1505.26,-35.1214 1507.56,-34.1303 1509.85,-33.0762"/>
<polygon fill="midnightblue" stroke="midnightblue" points="1511.62,-36.1028 1519.01,-28.5155 1508.5,-29.8353 1511.62,-36.1028"/>
</g>
<!-- Node17&#45;&gt;Node4 -->
<g id="edge34" class="edge"><title>Node17&#45;&gt;Node4</title>
<path fill="none" stroke="midnightblue" d="M723.372,-84.7486C698.674,-80.9722 664.29,-75.8824 634,-72 488.975,-53.4114 451.277,-59.708 307,-36 297.917,-34.5074 288.324,-32.6557 279.027,-30.713"/>
<polygon fill="midnightblue" stroke="midnightblue" points="279.604,-27.2572 269.092,-28.5819 278.136,-34.1015 279.604,-27.2572"/>
</g>
<!-- Node17&#45;&gt;Node5 -->
<g id="edge36" class="edge"><title>Node17&#45;&gt;Node5</title>
<path fill="none" stroke="midnightblue" d="M723.421,-85.9288C690.874,-82.0577 640.097,-76.2161 596,-72 398.188,-53.087 344.246,-66.9041 143.984,-36.0167"/>
<polygon fill="midnightblue" stroke="midnightblue" points="144.446,-32.5465 134.026,-34.4628 143.367,-39.4628 144.446,-32.5465"/>
</g>
<!-- Node17&#45;&gt;Node7 -->
<g id="edge38" class="edge"><title>Node17&#45;&gt;Node7</title>
<path fill="none" stroke="midnightblue" d="M723.145,-82.5088C707.593,-79.1505 688.89,-75.2279 672,-72 581.661,-54.7351 555.94,-54.8105 462.657,-36.2782"/>
<polygon fill="midnightblue" stroke="midnightblue" points="463.295,-32.8365 452.802,-34.3015 461.918,-39.6998 463.295,-32.8365"/>
</g>
<!-- Node17&#45;&gt;Node8 -->
<g id="edge46" class="edge"><title>Node17&#45;&gt;Node8</title>
<path fill="none" stroke="midnightblue" d="M742.982,-79.3762C727.547,-67.6777 702.514,-48.7052 684.361,-34.9475"/>
<polygon fill="midnightblue" stroke="midnightblue" points="686.159,-31.9183 676.075,-28.6674 681.931,-37.4971 686.159,-31.9183"/>
</g>
<!-- Node17&#45;&gt;Node9 -->
<g id="edge48" class="edge"><title>Node17&#45;&gt;Node9</title>
<path fill="none" stroke="midnightblue" d="M789.989,-79.4002C838.679,-63.7552 924.171,-36.2824 925,-36 928.773,-34.7149 932.697,-33.3509 936.612,-31.9712"/>
<polygon fill="midnightblue" stroke="midnightblue" points="937.992,-35.1953 946.24,-28.5455 935.646,-28.6004 937.992,-35.1953"/>
</g>
<!-- Node17&#45;&gt;Node10 -->
<g id="edge50" class="edge"><title>Node17&#45;&gt;Node10</title>
<path fill="none" stroke="midnightblue" d="M787,-79.4866C795.349,-76.7995 804.468,-74.0842 813,-72 905.841,-49.3194 932.282,-59.1794 1025,-36 1030.02,-34.7439 1035.25,-33.2478 1040.4,-31.6626"/>
<polygon fill="midnightblue" stroke="midnightblue" points="1041.65,-34.9369 1050.1,-28.5438 1039.5,-28.2729 1041.65,-34.9369"/>
</g>
<!-- Node17&#45;&gt;Node13 -->
<g id="edge40" class="edge"><title>Node17&#45;&gt;Node13</title>
<path fill="none" stroke="midnightblue" d="M785.444,-79.4697C794.176,-76.6155 803.886,-73.8161 813,-72 1000.43,-34.6516 1056.06,-70.8518 1247.36,-36.0868"/>
<polygon fill="midnightblue" stroke="midnightblue" points="1248.27,-39.4774 1257.46,-34.2083 1246.99,-32.5954 1248.27,-39.4774"/>
</g>
<!-- Node18 -->
<g id="node39" class="node"><title>Node18</title>
<polygon fill="white" stroke="#bfbfbf" points="817.5,-7.5 817.5,-28.5 916.5,-28.5 916.5,-7.5 817.5,-7.5"/>
<text text-anchor="middle" x="867" y="-15.5" font-family="Helvetica,sans-Serif" font-size="10.00">mars/utils/Vector.h</text>
</g>
<!-- Node17&#45;&gt;Node18 -->
<g id="edge42" class="edge"><title>Node17&#45;&gt;Node18</title>
<path fill="none" stroke="midnightblue" d="M773.231,-79.3762C791.429,-67.465 821.147,-48.0129 842.246,-34.2024"/>
<polygon fill="midnightblue" stroke="midnightblue" points="844.252,-37.0725 850.703,-28.6674 840.419,-31.2156 844.252,-37.0725"/>
</g>
<!-- Node19 -->
<g id="node41" class="node"><title>Node19</title>
<polygon fill="white" stroke="#bfbfbf" points="469.5,-1 469.5,-35 624.5,-35 624.5,-1 469.5,-1"/>
<text text-anchor="start" x="477.5" y="-22" font-family="Helvetica,sans-Serif" font-size="10.00">mars/data_broker/DataPackage</text>
<text text-anchor="middle" x="547" y="-9" font-family="Helvetica,sans-Serif" font-size="10.00">Mapping.h</text>
</g>
<!-- Node17&#45;&gt;Node19 -->
<g id="edge44" class="edge"><title>Node17&#45;&gt;Node19</title>
<path fill="none" stroke="midnightblue" d="M726.014,-79.3762C694.671,-68.6299 645.425,-51.7457 606.512,-38.4041"/>
<polygon fill="midnightblue" stroke="midnightblue" points="607.453,-35.0269 596.859,-35.0944 605.183,-41.6485 607.453,-35.0269"/>
</g>
<!-- Node20 -->
<g id="node46" class="node"><title>Node20</title>
<polygon fill="white" stroke="#bfbfbf" points="700,-7.5 700,-28.5 800,-28.5 800,-7.5 700,-7.5"/>
<text text-anchor="middle" x="750" y="-15.5" font-family="Helvetica,sans-Serif" font-size="10.00">osg/AutoTransform</text>
</g>
<!-- Node17&#45;&gt;Node20 -->
<g id="edge52" class="edge"><title>Node17&#45;&gt;Node20</title>
<path fill="none" stroke="midnightblue" d="M755.967,-79.3762C754.933,-68.7412 753.315,-52.0946 752.024,-38.8195"/>
<polygon fill="midnightblue" stroke="midnightblue" points="755.488,-38.2818 751.037,-28.6674 748.521,-38.9592 755.488,-38.2818"/>
</g>
<!-- Node21&#45;&gt;Node4 -->
<g id="edge56" class="edge"><title>Node21&#45;&gt;Node4</title>
<path fill="none" stroke="midnightblue" d="M828.964,-79.4481C819.451,-76.5932 808.886,-73.7988 799,-72 583.291,-32.7498 523.964,-67.5853 307,-36 297.366,-34.5975 287.177,-32.7014 277.378,-30.6648"/>
<polygon fill="midnightblue" stroke="midnightblue" points="277.86,-27.1885 267.347,-28.5064 276.387,-34.0318 277.86,-27.1885"/>
</g>
<!-- Node21&#45;&gt;Node7 -->
<g id="edge58" class="edge"><title>Node21&#45;&gt;Node7</title>
<path fill="none" stroke="midnightblue" d="M828.296,-79.4637C818.947,-76.6791 808.638,-73.9189 799,-72 654.019,-43.1353 611.755,-60.4593 462.734,-36.1784"/>
<polygon fill="midnightblue" stroke="midnightblue" points="463.201,-32.708 452.762,-34.5179 462.051,-39.6129 463.201,-32.708"/>
</g>
<!-- Node21&#45;&gt;Node8 -->
<g id="edge66" class="edge"><title>Node21&#45;&gt;Node8</title>
<path fill="none" stroke="midnightblue" d="M825.574,-79.497C779.857,-65.4729 703.41,-41.7275 691,-36 689.446,-35.283 687.874,-34.4988 686.308,-33.6715"/>
<polygon fill="midnightblue" stroke="midnightblue" points="687.974,-30.5921 677.562,-28.6332 684.48,-36.6576 687.974,-30.5921"/>
</g>
<!-- Node21&#45;&gt;Node9 -->
<g id="edge68" class="edge"><title>Node21&#45;&gt;Node9</title>
<path fill="none" stroke="midnightblue" d="M876.969,-79.3762C896.078,-67.4118 927.34,-47.839 949.416,-34.0177"/>
<polygon fill="midnightblue" stroke="midnightblue" points="951.343,-36.9406 957.962,-28.6674 947.629,-31.0075 951.343,-36.9406"/>
</g>
<!-- Node21&#45;&gt;Node10 -->
<g id="edge70" class="edge"><title>Node21&#45;&gt;Node10</title>
<path fill="none" stroke="midnightblue" d="M892.266,-79.4978C925.54,-68.6541 978.922,-51.2197 1025,-36 1029.06,-34.6576 1033.3,-33.2542 1037.53,-31.8488"/>
<polygon fill="midnightblue" stroke="midnightblue" points="1038.93,-35.0715 1047.31,-28.5939 1036.72,-28.4294 1038.93,-35.0715"/>
</g>
<!-- Node21&#45;&gt;Node13 -->
<g id="edge60" class="edge"><title>Node21&#45;&gt;Node13</title>
<path fill="none" stroke="midnightblue" d="M898.166,-86.6643C966.539,-80.266 1114.47,-64.5037 1247.47,-36.1725"/>
<polygon fill="midnightblue" stroke="midnightblue" points="1248.39,-39.5547 1257.42,-34.0219 1246.91,-32.7126 1248.39,-39.5547"/>
</g>
<!-- Node21&#45;&gt;Node18 -->
<g id="edge62" class="edge"><title>Node21&#45;&gt;Node18</title>
<path fill="none" stroke="midnightblue" d="M861.033,-79.3762C862.067,-68.7412 863.685,-52.0946 864.976,-38.8195"/>
<polygon fill="midnightblue" stroke="midnightblue" points="868.479,-38.9592 865.963,-28.6674 861.512,-38.2818 868.479,-38.9592"/>
</g>
<!-- Node21&#45;&gt;Node20 -->
<g id="edge72" class="edge"><title>Node21&#45;&gt;Node20</title>
<path fill="none" stroke="midnightblue" d="M843.769,-79.3762C825.571,-67.465 795.853,-48.0129 774.754,-34.2024"/>
<polygon fill="midnightblue" stroke="midnightblue" points="776.581,-31.2156 766.297,-28.6674 772.748,-37.0725 776.581,-31.2156"/>
</g>
<!-- Node22 -->
<g id="node54" class="node"><title>Node22</title>
<polygon fill="white" stroke="#bfbfbf" points="1142,-7.5 1142,-28.5 1240,-28.5 1240,-7.5 1142,-7.5"/>
<text text-anchor="middle" x="1191" y="-15.5" font-family="Helvetica,sans-Serif" font-size="10.00">mars/utils/Mutex.h</text>
</g>
<!-- Node21&#45;&gt;Node22 -->
<g id="edge64" class="edge"><title>Node21&#45;&gt;Node22</title>
<path fill="none" stroke="midnightblue" d="M898.265,-83.7459C951.331,-74.775 1050.1,-56.9996 1133,-36 1138.37,-34.6408 1143.97,-33.082 1149.49,-31.4627"/>
<polygon fill="midnightblue" stroke="midnightblue" points="1150.7,-34.7532 1159.26,-28.5126 1148.68,-28.0518 1150.7,-34.7532"/>
</g>
</g>
</svg>
