<?xml version="1.0" encoding="UTF-8" standalone="no"?>
<!DOCTYPE svg PUBLIC "-//W3C//DTD SVG 1.1//EN"
 "http://www.w3.org/Graphics/SVG/1.1/DTD/svg11.dtd">
<!-- Generated by graphviz version 2.26.3 (20100126.1600)
 -->
<!-- Title: mars::data_broker_gui::DataWidget Pages: 1 -->
<svg width="446pt" height="157pt"
 viewBox="0.00 0.00 446.00 157.00" xmlns="http://www.w3.org/2000/svg" xmlns:xlink="http://www.w3.org/1999/xlink">
<g id="graph1" class="graph" transform="scale(1 1) rotate(0) translate(4 153)">
<title>mars::data_broker_gui::DataWidget</title>
<polygon fill="white" stroke="white" points="-4,5 -4,-153 443,-153 443,5 -4,5"/>
<!-- Node1 -->
<g id="node1" class="node"><title>Node1</title>
<polygon fill="#bfbfbf" stroke="black" points="324.5,-52 324.5,-86 437.5,-86 437.5,-52 324.5,-52"/>
<text text-anchor="start" x="332.5" y="-73" font-family="Helvetica,sans-Serif" font-size="10.00">mars::data_broker_gui</text>
<text text-anchor="middle" x="381" y="-60" font-family="Helvetica,sans-Serif" font-size="10.00">::DataWidget</text>
</g>
<!-- Node2 -->
<g id="node2" class="node"><title>Node2</title>
<a xlink:href="../../d4/dcf/classmars_1_1main__gui_1_1_base_widget.html" target="_top" xlink:title="mars::main_gui::BaseWidget">
<polygon fill="white" stroke="black" points="144.5,-104.5 144.5,-125.5 287.5,-125.5 287.5,-104.5 144.5,-104.5"/>
<text text-anchor="middle" x="216" y="-112.5" font-family="Helvetica,sans-Serif" font-size="10.00">mars::main_gui::BaseWidget</text>
</a>
</g>
<!-- Node2&#45;&gt;Node1 -->
<g id="edge2" class="edge"><title>Node2&#45;&gt;Node1</title>
<path fill="none" stroke="midnightblue" d="M263.809,-101.732C271.884,-99.4872 280.181,-97.1788 288,-95 299.789,-91.7147 312.417,-88.1888 324.447,-84.8268"/>
<polygon fill="midnightblue" stroke="midnightblue" points="262.815,-98.3752 254.117,-104.425 264.689,-105.12 262.815,-98.3752"/>
</g>
<!-- Node3 -->
<g id="node4" class="node"><title>Node3</title>
<polygon fill="white" stroke="#bfbfbf" points="26.5,-127.5 26.5,-148.5 81.5,-148.5 81.5,-127.5 26.5,-127.5"/>
<text text-anchor="middle" x="54" y="-135.5" font-family="Helvetica,sans-Serif" font-size="10.00">QWidget</text>
</g>
<!-- Node3&#45;&gt;Node2 -->
<g id="edge4" class="edge"><title>Node3&#45;&gt;Node2</title>
<path fill="none" stroke="midnightblue" d="M92.1332,-132.586C107.741,-130.37 126.331,-127.731 144.302,-125.179"/>
<polygon fill="midnightblue" stroke="midnightblue" points="91.2575,-129.175 81.8488,-134.046 92.2415,-136.106 91.2575,-129.175"/>
</g>
<!-- Node4 -->
<g id="node6" class="node"><title>Node4</title>
<a xlink:href="../../d4/d1a/classmars_1_1cfg__manager_1_1_c_f_g_client.html" target="_top" xlink:title="mars::cfg_manager::\lCFGClient">
<polygon fill="white" stroke="black" points="0.5,-75 0.5,-109 107.5,-109 107.5,-75 0.5,-75"/>
<text text-anchor="start" x="8.5" y="-96" font-family="Helvetica,sans-Serif" font-size="10.00">mars::cfg_manager::</text>
<text text-anchor="middle" x="54" y="-83" font-family="Helvetica,sans-Serif" font-size="10.00">CFGClient</text>
</a>
</g>
<!-- Node4&#45;&gt;Node2 -->
<g id="edge6" class="edge"><title>Node4&#45;&gt;Node2</title>
<path fill="none" stroke="midnightblue" d="M117.983,-101.084C126.663,-102.316 135.617,-103.588 144.419,-104.837"/>
<polygon fill="midnightblue" stroke="midnightblue" points="118.336,-97.5992 107.944,-99.6587 117.352,-104.53 118.336,-97.5992"/>
</g>
<!-- Node5 -->
<g id="node8" class="node"><title>Node5</title>
<a xlink:href="../../d0/d0e/classmars_1_1data__broker_1_1_receiver_interface.html" target="_top" xlink:title="Interface for classes that want to receive data from the DataBroker. ">
<polygon fill="white" stroke="black" points="165.5,-52 165.5,-86 266.5,-86 266.5,-52 165.5,-52"/>
<text text-anchor="start" x="173.5" y="-73" font-family="Helvetica,sans-Serif" font-size="10.00">mars::data_broker::</text>
<text text-anchor="middle" x="216" y="-60" font-family="Helvetica,sans-Serif" font-size="10.00">ReceiverInterface</text>
</a>
</g>
<!-- Node5&#45;&gt;Node1 -->
<g id="edge8" class="edge"><title>Node5&#45;&gt;Node1</title>
<path fill="none" stroke="midnightblue" d="M276.861,-69C292.371,-69 308.98,-69 324.274,-69"/>
<polygon fill="midnightblue" stroke="midnightblue" points="276.852,-65.5001 266.852,-69 276.852,-72.5001 276.852,-65.5001"/>
</g>
<!-- Node6 -->
<g id="node10" class="node"><title>Node6</title>
<a xlink:href="../../dd/d38/classmars_1_1main__gui_1_1_property_callback.html" target="_top" xlink:title="Introduced for Windows compatibility. ">
<polygon fill="white" stroke="black" points="153,-0 153,-34 279,-34 279,-0 153,-0"/>
<text text-anchor="start" x="161" y="-21" font-family="Helvetica,sans-Serif" font-size="10.00">mars::main_gui::Property</text>
<text text-anchor="middle" x="216" y="-8" font-family="Helvetica,sans-Serif" font-size="10.00">Callback</text>
</a>
</g>
<!-- Node6&#45;&gt;Node1 -->
<g id="edge10" class="edge"><title>Node6&#45;&gt;Node1</title>
<path fill="none" stroke="midnightblue" d="M279.595,-37.042C295.193,-41.9578 311.744,-47.1739 326.851,-51.935"/>
<polygon fill="midnightblue" stroke="midnightblue" points="280.617,-33.6944 270.027,-34.0267 278.513,-40.3707 280.617,-33.6944"/>
</g>
</g>
</svg>
