<?xml version="1.0" encoding="UTF-8" standalone="no"?>
<!DOCTYPE svg PUBLIC "-//W3C//DTD SVG 1.1//EN"
 "http://www.w3.org/Graphics/SVG/1.1/DTD/svg11.dtd">
<!-- Generated by graphviz version 2.26.3 (20100126.1600)
 -->
<!-- Title: /home/kavonszadkowski/limes&#45;dev/simulation/mars/graphics/src/3d_objects/DrawObject.cpp Pages: 1 -->
<svg width="2912pt" height="330pt"
 viewBox="0.00 0.00 2912.00 330.00" xmlns="http://www.w3.org/2000/svg" xmlns:xlink="http://www.w3.org/1999/xlink">
<g id="graph1" class="graph" transform="scale(1 1) rotate(0) translate(4 326)">
<title>/home/kavonszadkowski/limes&#45;dev/simulation/mars/graphics/src/3d_objects/DrawObject.cpp</title>
<polygon fill="white" stroke="white" points="-4,5 -4,-326 2909,-326 2909,5 -4,5"/>
<!-- Node1 -->
<g id="node1" class="node"><title>Node1</title>
<polygon fill="#bfbfbf" stroke="black" points="1913.5,-261 1913.5,-321 2040.5,-321 2040.5,-261 1913.5,-261"/>
<text text-anchor="start" x="1921.5" y="-308" font-family="Helvetica,sans-Serif" font-size="10.00">/home/kavonszadkowski</text>
<text text-anchor="start" x="1921.5" y="-295" font-family="Helvetica,sans-Serif" font-size="10.00">/limes&#45;dev/simulation</text>
<text text-anchor="start" x="1921.5" y="-282" font-family="Helvetica,sans-Serif" font-size="10.00">/mars/graphics/src/3d</text>
<text text-anchor="middle" x="1977" y="-269" font-family="Helvetica,sans-Serif" font-size="10.00">_objects/DrawObject.cpp</text>
</g>
<!-- Node2 -->
<g id="node3" class="node"><title>Node2</title>
<a xlink:href="../../d4/d4b/_draw_object_8h.html" target="_top" xlink:title="DrawObject.h">
<polygon fill="white" stroke="black" points="714.5,-144.5 714.5,-165.5 791.5,-165.5 791.5,-144.5 714.5,-144.5"/>
<text text-anchor="middle" x="753" y="-152.5" font-family="Helvetica,sans-Serif" font-size="10.00">DrawObject.h</text>
</a>
</g>
<!-- Node1&#45;&gt;Node2 -->
<g id="edge2" class="edge"><title>Node1&#45;&gt;Node2</title>
<path fill="none" stroke="midnightblue" d="M1913.43,-288.269C1726.52,-279.977 1180.84,-253.829 1005,-224 928.853,-211.082 842.52,-184.824 793.236,-168.686"/>
<polygon fill="midnightblue" stroke="midnightblue" points="794.186,-165.314 783.593,-165.502 791.992,-171.961 794.186,-165.314"/>
</g>
<!-- Node20 -->
<g id="node39" class="node"><title>Node20</title>
<a xlink:href="../../d7/da2/gui__helper__functions_8h.html" target="_top" xlink:title="gui_helper_functions.h">
<polygon fill="white" stroke="black" points="708,-79.5 708,-100.5 822,-100.5 822,-79.5 708,-79.5"/>
<text text-anchor="middle" x="765" y="-87.5" font-family="Helvetica,sans-Serif" font-size="10.00">gui_helper_functions.h</text>
</a>
</g>
<!-- Node1&#45;&gt;Node20 -->
<g id="edge38" class="edge"><title>Node1&#45;&gt;Node20</title>
<path fill="none" stroke="midnightblue" d="M1913.12,-283.858C1813.27,-272.488 1614.19,-248.987 1446,-224 1294.8,-201.538 1256.99,-195.477 1107,-166 1004.82,-145.918 886.342,-118.704 819.071,-102.88"/>
<polygon fill="midnightblue" stroke="midnightblue" points="819.662,-99.423 809.125,-100.535 818.055,-106.236 819.662,-99.423"/>
</g>
<!-- Node28 -->
<g id="node60" class="node"><title>Node28</title>
<a xlink:href="../../de/de8/_o_s_g_material_struct_8h.html" target="_top" xlink:title="../wrapper/OSGMaterialStruct.h">
<polygon fill="white" stroke="black" points="72,-144.5 72,-165.5 226,-165.5 226,-144.5 72,-144.5"/>
<text text-anchor="middle" x="149" y="-152.5" font-family="Helvetica,sans-Serif" font-size="10.00">../wrapper/OSGMaterialStruct.h</text>
</a>
</g>
<!-- Node1&#45;&gt;Node28 -->
<g id="edge64" class="edge"><title>Node1&#45;&gt;Node28</title>
<path fill="none" stroke="midnightblue" d="M1913.4,-287.677C1747.21,-278.854 1286.25,-253.484 903,-224 661.339,-205.409 376.642,-177.803 236.269,-163.813"/>
<polygon fill="midnightblue" stroke="midnightblue" points="236.302,-160.299 226.004,-162.789 235.607,-167.265 236.302,-160.299"/>
</g>
<!-- Node29 -->
<g id="node64" class="node"><title>Node29</title>
<a xlink:href="../../d3/d70/shader-generator_8h.html" target="_top" xlink:title="../shader/shader&#45;generator.h">
<polygon fill="white" stroke="black" points="1793.5,-202.5 1793.5,-223.5 1932.5,-223.5 1932.5,-202.5 1793.5,-202.5"/>
<text text-anchor="middle" x="1863" y="-210.5" font-family="Helvetica,sans-Serif" font-size="10.00">../shader/shader&#45;generator.h</text>
</a>
</g>
<!-- Node1&#45;&gt;Node29 -->
<g id="edge70" class="edge"><title>Node1&#45;&gt;Node29</title>
<path fill="none" stroke="midnightblue" d="M1932.92,-260.843C1917.35,-250.185 1900.41,-238.596 1887.11,-229.494"/>
<polygon fill="midnightblue" stroke="midnightblue" points="1888.77,-226.39 1878.54,-223.632 1884.82,-232.167 1888.77,-226.39"/>
</g>
<!-- Node30 -->
<g id="node66" class="node"><title>Node30</title>
<a xlink:href="../../dc/d90/shader-function_8h.html" target="_top" xlink:title="shader&#45;function.h">
<polygon fill="white" stroke="black" points="1817,-144.5 1817,-165.5 1909,-165.5 1909,-144.5 1817,-144.5"/>
<text text-anchor="middle" x="1863" y="-152.5" font-family="Helvetica,sans-Serif" font-size="10.00">shader&#45;function.h</text>
</a>
</g>
<!-- Node1&#45;&gt;Node30 -->
<g id="edge104" class="edge"><title>Node1&#45;&gt;Node30</title>
<path fill="none" stroke="midnightblue" d="M1913.39,-277.155C1863.61,-264.88 1800.33,-245.588 1785,-224 1769.46,-202.111 1798.19,-182.4 1825.06,-169.705"/>
<polygon fill="midnightblue" stroke="midnightblue" points="1826.72,-172.798 1834.41,-165.515 1823.86,-166.409 1826.72,-172.798"/>
</g>
<!-- Node38 -->
<g id="node91" class="node"><title>Node38</title>
<a xlink:href="../../dc/db6/bumpmapping_8h.html" target="_top" xlink:title="../shader/bumpmapping.h">
<polygon fill="white" stroke="black" points="1489.5,-202.5 1489.5,-223.5 1616.5,-223.5 1616.5,-202.5 1489.5,-202.5"/>
<text text-anchor="middle" x="1553" y="-210.5" font-family="Helvetica,sans-Serif" font-size="10.00">../shader/bumpmapping.h</text>
</a>
</g>
<!-- Node1&#45;&gt;Node38 -->
<g id="edge106" class="edge"><title>Node1&#45;&gt;Node38</title>
<path fill="none" stroke="midnightblue" d="M1913.06,-279.238C1834.19,-264.729 1700.72,-240.174 1620.32,-225.385"/>
<polygon fill="midnightblue" stroke="midnightblue" points="1620.77,-221.909 1610.31,-223.542 1619.51,-228.794 1620.77,-221.909"/>
</g>
<!-- Node40 -->
<g id="node96" class="node"><title>Node40</title>
<polygon fill="white" stroke="#bfbfbf" points="1332,-79.5 1332,-100.5 1406,-100.5 1406,-79.5 1332,-79.5"/>
<text text-anchor="middle" x="1369" y="-87.5" font-family="Helvetica,sans-Serif" font-size="10.00">osg/CullFace</text>
</g>
<!-- Node1&#45;&gt;Node40 -->
<g id="edge144" class="edge"><title>Node1&#45;&gt;Node40</title>
<path fill="none" stroke="midnightblue" d="M1913.19,-288.091C1796.51,-281.846 1554.03,-264.316 1481,-224 1432.35,-197.142 1395.95,-140.057 1379.2,-109.793"/>
<polygon fill="midnightblue" stroke="midnightblue" points="1382.1,-107.793 1374.28,-100.64 1375.93,-111.106 1382.1,-107.793"/>
</g>
<!-- Node41 -->
<g id="node107" class="node"><title>Node41</title>
<a xlink:href="../../d0/d27/pixellight_8h.html" target="_top" xlink:title="../shader/pixellight.h">
<polygon fill="white" stroke="black" points="1634,-202.5 1634,-223.5 1738,-223.5 1738,-202.5 1634,-202.5"/>
<text text-anchor="middle" x="1686" y="-210.5" font-family="Helvetica,sans-Serif" font-size="10.00">../shader/pixellight.h</text>
</a>
</g>
<!-- Node1&#45;&gt;Node41 -->
<g id="edge132" class="edge"><title>Node1&#45;&gt;Node41</title>
<path fill="none" stroke="midnightblue" d="M1913.5,-273.979C1859.83,-259.595 1784.07,-239.288 1735,-226.133"/>
<polygon fill="midnightblue" stroke="midnightblue" points="1735.81,-222.728 1725.25,-223.52 1734,-229.49 1735.81,-222.728"/>
</g>
<!-- Node42 -->
<g id="node113" class="node"><title>Node42</title>
<polygon fill="white" stroke="#bfbfbf" points="1950,-202.5 1950,-223.5 2004,-223.5 2004,-202.5 1950,-202.5"/>
<text text-anchor="middle" x="1977" y="-210.5" font-family="Helvetica,sans-Serif" font-size="10.00">iostream</text>
</g>
<!-- Node1&#45;&gt;Node42 -->
<g id="edge142" class="edge"><title>Node1&#45;&gt;Node42</title>
<path fill="none" stroke="midnightblue" d="M1977,-260.62C1977,-251.68 1977,-242.103 1977,-233.9"/>
<polygon fill="midnightblue" stroke="midnightblue" points="1980.5,-233.753 1977,-223.753 1973.5,-233.753 1980.5,-233.753"/>
</g>
<!-- Node43 -->
<g id="node116" class="node"><title>Node43</title>
<polygon fill="white" stroke="#bfbfbf" points="2021.5,-202.5 2021.5,-223.5 2116.5,-223.5 2116.5,-202.5 2021.5,-202.5"/>
<text text-anchor="middle" x="2069" y="-210.5" font-family="Helvetica,sans-Serif" font-size="10.00">osg/PolygonMode</text>
</g>
<!-- Node1&#45;&gt;Node43 -->
<g id="edge146" class="edge"><title>Node1&#45;&gt;Node43</title>
<path fill="none" stroke="midnightblue" d="M2012.57,-260.843C2024.7,-250.56 2037.85,-239.411 2048.4,-230.464"/>
<polygon fill="midnightblue" stroke="midnightblue" points="2050.87,-232.956 2056.24,-223.82 2046.35,-227.617 2050.87,-232.956"/>
</g>
<!-- Node44 -->
<g id="node118" class="node"><title>Node44</title>
<polygon fill="white" stroke="#bfbfbf" points="2134,-202.5 2134,-223.5 2196,-223.5 2196,-202.5 2134,-202.5"/>
<text text-anchor="middle" x="2165" y="-210.5" font-family="Helvetica,sans-Serif" font-size="10.00">osg/Depth</text>
</g>
<!-- Node1&#45;&gt;Node44 -->
<g id="edge148" class="edge"><title>Node1&#45;&gt;Node44</title>
<path fill="none" stroke="midnightblue" d="M2040.65,-264.593C2070.55,-252.185 2105.05,-237.873 2130.11,-227.475"/>
<polygon fill="midnightblue" stroke="midnightblue" points="2131.66,-230.62 2139.56,-223.555 2128.98,-224.154 2131.66,-230.62"/>
</g>
<!-- Node45 -->
<g id="node120" class="node"><title>Node45</title>
<polygon fill="white" stroke="#bfbfbf" points="2214,-202.5 2214,-223.5 2350,-223.5 2350,-202.5 2214,-202.5"/>
<text text-anchor="middle" x="2282" y="-210.5" font-family="Helvetica,sans-Serif" font-size="10.00">osg/ComputeBoundsVisitor</text>
</g>
<!-- Node1&#45;&gt;Node45 -->
<g id="edge150" class="edge"><title>Node1&#45;&gt;Node45</title>
<path fill="none" stroke="midnightblue" d="M2040.57,-274.744C2097.15,-260.273 2178.85,-239.381 2231.18,-225.996"/>
<polygon fill="midnightblue" stroke="midnightblue" points="2232.1,-229.374 2240.92,-223.505 2230.37,-222.592 2232.1,-229.374"/>
</g>
<!-- Node46 -->
<g id="node122" class="node"><title>Node46</title>
<polygon fill="white" stroke="#bfbfbf" points="2368,-202.5 2368,-223.5 2436,-223.5 2436,-202.5 2368,-202.5"/>
<text text-anchor="middle" x="2402" y="-210.5" font-family="Helvetica,sans-Serif" font-size="10.00">osg/TexMat</text>
</g>
<!-- Node1&#45;&gt;Node46 -->
<g id="edge152" class="edge"><title>Node1&#45;&gt;Node46</title>
<path fill="none" stroke="midnightblue" d="M2040.83,-281.342C2114.83,-269.8 2240.64,-249.117 2357.92,-224.122"/>
<polygon fill="midnightblue" stroke="midnightblue" points="2358.75,-227.525 2367.79,-222.004 2357.28,-220.681 2358.75,-227.525"/>
</g>
<!-- Node47 -->
<g id="node124" class="node"><title>Node47</title>
<polygon fill="white" stroke="#bfbfbf" points="2454,-202.5 2454,-223.5 2610,-223.5 2610,-202.5 2454,-202.5"/>
<text text-anchor="middle" x="2532" y="-210.5" font-family="Helvetica,sans-Serif" font-size="10.00">osgUtil/TangentSpaceGenerator</text>
</g>
<!-- Node1&#45;&gt;Node47 -->
<g id="edge154" class="edge"><title>Node1&#45;&gt;Node47</title>
<path fill="none" stroke="midnightblue" d="M2040.67,-282.052C2140.75,-267.986 2335.01,-240.685 2446.95,-224.953"/>
<polygon fill="midnightblue" stroke="midnightblue" points="2447.78,-228.371 2457.19,-223.514 2446.8,-221.44 2447.78,-228.371"/>
</g>
<!-- Node48 -->
<g id="node126" class="node"><title>Node48</title>
<polygon fill="white" stroke="#bfbfbf" points="2627.5,-202.5 2627.5,-223.5 2716.5,-223.5 2716.5,-202.5 2627.5,-202.5"/>
<text text-anchor="middle" x="2672" y="-210.5" font-family="Helvetica,sans-Serif" font-size="10.00">osgDB/WriteFile</text>
</g>
<!-- Node1&#45;&gt;Node48 -->
<g id="edge156" class="edge"><title>Node1&#45;&gt;Node48</title>
<path fill="none" stroke="midnightblue" d="M2040.6,-286.496C2154.46,-277.967 2400.73,-257.404 2617.28,-224.162"/>
<polygon fill="midnightblue" stroke="midnightblue" points="2617.89,-227.609 2627.24,-222.62 2616.82,-220.691 2617.89,-227.609"/>
</g>
<!-- Node49 -->
<g id="node128" class="node"><title>Node49</title>
<polygon fill="white" stroke="#bfbfbf" points="2733.5,-202.5 2733.5,-223.5 2822.5,-223.5 2822.5,-202.5 2733.5,-202.5"/>
<text text-anchor="middle" x="2778" y="-210.5" font-family="Helvetica,sans-Serif" font-size="10.00">osgDB/ReadFile</text>
</g>
<!-- Node1&#45;&gt;Node49 -->
<g id="edge158" class="edge"><title>Node1&#45;&gt;Node49</title>
<path fill="none" stroke="midnightblue" d="M2040.83,-287.77C2168.72,-280.76 2465.52,-261.774 2723.32,-224.128"/>
<polygon fill="midnightblue" stroke="midnightblue" points="2723.86,-227.587 2733.25,-222.667 2722.84,-220.661 2723.86,-227.587"/>
</g>
<!-- Node50 -->
<g id="node130" class="node"><title>Node50</title>
<polygon fill="white" stroke="#bfbfbf" points="2840,-202.5 2840,-223.5 2904,-223.5 2904,-202.5 2840,-202.5"/>
<text text-anchor="middle" x="2872" y="-210.5" font-family="Helvetica,sans-Serif" font-size="10.00">osg/Export</text>
</g>
<!-- Node1&#45;&gt;Node50 -->
<g id="edge160" class="edge"><title>Node1&#45;&gt;Node50</title>
<path fill="none" stroke="midnightblue" d="M2040.7,-289.994C2181.69,-286.908 2530.64,-274.538 2829.72,-223.95"/>
<polygon fill="midnightblue" stroke="midnightblue" points="2830.63,-227.347 2839.9,-222.212 2829.45,-220.447 2830.63,-227.347"/>
</g>
<!-- Node3 -->
<g id="node5" class="node"><title>Node3</title>
<polygon fill="white" stroke="#bfbfbf" points="1168,-79.5 1168,-100.5 1314,-100.5 1314,-79.5 1168,-79.5"/>
<text text-anchor="middle" x="1241" y="-87.5" font-family="Helvetica,sans-Serif" font-size="10.00">mars/interfaces/MARSDefs.h</text>
</g>
<!-- Node2&#45;&gt;Node3 -->
<g id="edge4" class="edge"><title>Node2&#45;&gt;Node3</title>
<path fill="none" stroke="midnightblue" d="M791.525,-151.845C863.859,-145.631 1024.8,-130.438 1159,-108 1168.08,-106.482 1177.67,-104.617 1186.97,-102.67"/>
<polygon fill="midnightblue" stroke="midnightblue" points="1187.86,-106.058 1196.9,-100.536 1186.39,-99.2141 1187.86,-106.058"/>
</g>
<!-- Node4 -->
<g id="node7" class="node"><title>Node4</title>
<polygon fill="white" stroke="#bfbfbf" points="915.5,-79.5 915.5,-100.5 1014.5,-100.5 1014.5,-79.5 915.5,-79.5"/>
<text text-anchor="middle" x="965" y="-87.5" font-family="Helvetica,sans-Serif" font-size="10.00">mars/utils/Vector.h</text>
</g>
<!-- Node2&#45;&gt;Node4 -->
<g id="edge6" class="edge"><title>Node2&#45;&gt;Node4</title>
<path fill="none" stroke="midnightblue" d="M787.533,-144.412C823.876,-133.269 881.199,-115.694 920.815,-103.547"/>
<polygon fill="midnightblue" stroke="midnightblue" points="921.947,-106.861 930.481,-100.584 919.895,-100.169 921.947,-106.861"/>
</g>
<!-- Node5 -->
<g id="node9" class="node"><title>Node5</title>
<polygon fill="white" stroke="#bfbfbf" points="1032,-79.5 1032,-100.5 1150,-100.5 1150,-79.5 1032,-79.5"/>
<text text-anchor="middle" x="1091" y="-87.5" font-family="Helvetica,sans-Serif" font-size="10.00">mars/utils/Quaternion.h</text>
</g>
<!-- Node2&#45;&gt;Node5 -->
<g id="edge8" class="edge"><title>Node2&#45;&gt;Node5</title>
<path fill="none" stroke="midnightblue" d="M791.656,-149.347C844.256,-141.41 941.197,-125.912 1023,-108 1029.65,-106.543 1036.63,-104.867 1043.48,-103.136"/>
<polygon fill="midnightblue" stroke="midnightblue" points="1044.57,-106.471 1053.37,-100.58 1042.82,-99.6938 1044.57,-106.471"/>
</g>
<!-- Node6 -->
<g id="node11" class="node"><title>Node6</title>
<polygon fill="white" stroke="#bfbfbf" points="1423.5,-79.5 1423.5,-100.5 1560.5,-100.5 1560.5,-79.5 1423.5,-79.5"/>
<text text-anchor="middle" x="1492" y="-87.5" font-family="Helvetica,sans-Serif" font-size="10.00">mars/interfaces/LightData.h</text>
</g>
<!-- Node2&#45;&gt;Node6 -->
<g id="edge10" class="edge"><title>Node2&#45;&gt;Node6</title>
<path fill="none" stroke="midnightblue" d="M791.666,-154.395C893.976,-152.334 1180.04,-143.574 1415,-108 1423.88,-106.656 1433.24,-104.824 1442.27,-102.842"/>
<polygon fill="midnightblue" stroke="midnightblue" points="1443.3,-106.196 1452.27,-100.557 1441.74,-99.3719 1443.3,-106.196"/>
</g>
<!-- Node7 -->
<g id="node13" class="node"><title>Node7</title>
<polygon fill="white" stroke="#bfbfbf" points="88,-73 88,-107 210,-107 210,-73 88,-73"/>
<text text-anchor="start" x="96" y="-94" font-family="Helvetica,sans-Serif" font-size="10.00">mars/interfaces/Material</text>
<text text-anchor="middle" x="149" y="-81" font-family="Helvetica,sans-Serif" font-size="10.00">Data.h</text>
</g>
<!-- Node2&#45;&gt;Node7 -->
<g id="edge12" class="edge"><title>Node2&#45;&gt;Node7</title>
<path fill="none" stroke="midnightblue" d="M714.259,-153.509C626.495,-149.705 405.987,-137.757 224,-108 222.736,-107.793 221.462,-107.577 220.181,-107.352"/>
<polygon fill="midnightblue" stroke="midnightblue" points="220.722,-103.892 210.246,-105.474 219.422,-110.771 220.722,-103.892"/>
</g>
<!-- Node8 -->
<g id="node15" class="node"><title>Node8</title>
<polygon fill="white" stroke="#bfbfbf" points="1791.5,-7.5 1791.5,-28.5 1832.5,-28.5 1832.5,-7.5 1791.5,-7.5"/>
<text text-anchor="middle" x="1812" y="-15.5" font-family="Helvetica,sans-Serif" font-size="10.00">string</text>
</g>
<!-- Node2&#45;&gt;Node8 -->
<g id="edge14" class="edge"><title>Node2&#45;&gt;Node8</title>
<path fill="none" stroke="midnightblue" d="M786.891,-144.457C810.374,-136.349 841.819,-123.855 867,-108 887.24,-95.2562 884.88,-81.0962 907,-72 984.981,-39.933 1580.98,-43.1289 1665,-36 1705.16,-32.5924 1751.25,-26.6093 1780.96,-22.4822"/>
<polygon fill="midnightblue" stroke="midnightblue" points="1781.7,-25.912 1791.12,-21.0539 1780.73,-18.9801 1781.7,-25.912"/>
</g>
<!-- Node9 -->
<g id="node17" class="node"><title>Node9</title>
<polygon fill="white" stroke="#bfbfbf" points="1612,-7.5 1612,-28.5 1656,-28.5 1656,-7.5 1612,-7.5"/>
<text text-anchor="middle" x="1634" y="-15.5" font-family="Helvetica,sans-Serif" font-size="10.00">vector</text>
</g>
<!-- Node2&#45;&gt;Node9 -->
<g id="edge16" class="edge"><title>Node2&#45;&gt;Node9</title>
<path fill="none" stroke="midnightblue" d="M772.438,-144.401C788.546,-135.358 811.823,-121.681 831,-108 851.29,-93.5248 850.89,-81.337 874,-72 878.295,-70.2646 1457.68,-30.1723 1601.82,-20.2202"/>
<polygon fill="midnightblue" stroke="midnightblue" points="1602.07,-23.7112 1611.81,-19.5308 1601.59,-16.7278 1602.07,-23.7112"/>
</g>
<!-- Node10 -->
<g id="node19" class="node"><title>Node10</title>
<polygon fill="white" stroke="#bfbfbf" points="1577.5,-79.5 1577.5,-100.5 1606.5,-100.5 1606.5,-79.5 1577.5,-79.5"/>
<text text-anchor="middle" x="1592" y="-87.5" font-family="Helvetica,sans-Serif" font-size="10.00">list</text>
</g>
<!-- Node2&#45;&gt;Node10 -->
<g id="edge18" class="edge"><title>Node2&#45;&gt;Node10</title>
<path fill="none" stroke="midnightblue" d="M791.728,-153.414C948.869,-146.896 1532.26,-121.862 1569,-108 1570.23,-107.537 1571.44,-106.983 1572.63,-106.363"/>
<polygon fill="midnightblue" stroke="midnightblue" points="1574.78,-109.137 1581.15,-100.669 1570.89,-103.317 1574.78,-109.137"/>
</g>
<!-- Node11 -->
<g id="node21" class="node"><title>Node11</title>
<polygon fill="white" stroke="#bfbfbf" points="1775.5,-79.5 1775.5,-100.5 1810.5,-100.5 1810.5,-79.5 1775.5,-79.5"/>
<text text-anchor="middle" x="1793" y="-87.5" font-family="Helvetica,sans-Serif" font-size="10.00">map</text>
</g>
<!-- Node2&#45;&gt;Node11 -->
<g id="edge20" class="edge"><title>Node2&#45;&gt;Node11</title>
<path fill="none" stroke="midnightblue" d="M791.704,-153.529C913.147,-148.778 1297.47,-132.698 1615,-108 1668.32,-103.853 1730.44,-97.1411 1765.4,-93.1911"/>
<polygon fill="midnightblue" stroke="midnightblue" points="1765.8,-96.6685 1775.34,-92.0598 1765.01,-89.7134 1765.8,-96.6685"/>
</g>
<!-- Node12 -->
<g id="node23" class="node"><title>Node12</title>
<polygon fill="white" stroke="#bfbfbf" points="0,-79.5 0,-100.5 70,-100.5 70,-79.5 0,-79.5"/>
<text text-anchor="middle" x="35" y="-87.5" font-family="Helvetica,sans-Serif" font-size="10.00">osg/Material</text>
</g>
<!-- Node2&#45;&gt;Node12 -->
<g id="edge22" class="edge"><title>Node2&#45;&gt;Node12</title>
<path fill="none" stroke="midnightblue" d="M714.398,-153.92C590.093,-150.191 201.233,-136.487 79,-108 74.8403,-107.031 70.5644,-105.718 66.3892,-104.239"/>
<polygon fill="midnightblue" stroke="midnightblue" points="67.521,-100.924 56.9319,-100.575 64.9918,-107.452 67.521,-100.924"/>
</g>
<!-- Node13 -->
<g id="node25" class="node"><title>Node13</title>
<polygon fill="white" stroke="#bfbfbf" points="243,-7.5 243,-28.5 305,-28.5 305,-7.5 243,-7.5"/>
<text text-anchor="middle" x="274" y="-15.5" font-family="Helvetica,sans-Serif" font-size="10.00">osg/Group</text>
</g>
<!-- Node2&#45;&gt;Node13 -->
<g id="edge24" class="edge"><title>Node2&#45;&gt;Node13</title>
<path fill="none" stroke="midnightblue" d="M714.373,-154.119C625.936,-151.532 411.571,-141.853 349,-108 319.215,-91.8853 296.448,-58.6616 284.17,-37.4006"/>
<polygon fill="midnightblue" stroke="midnightblue" points="287.189,-35.6271 279.279,-28.5782 281.066,-39.0212 287.189,-35.6271"/>
</g>
<!-- Node14 -->
<g id="node27" class="node"><title>Node14</title>
<polygon fill="white" stroke="#bfbfbf" points="322.5,-7.5 322.5,-28.5 471.5,-28.5 471.5,-7.5 322.5,-7.5"/>
<text text-anchor="middle" x="397" y="-15.5" font-family="Helvetica,sans-Serif" font-size="10.00">osg/PositionAttitudeTransform</text>
</g>
<!-- Node2&#45;&gt;Node14 -->
<g id="edge26" class="edge"><title>Node2&#45;&gt;Node14</title>
<path fill="none" stroke="midnightblue" d="M714.169,-153.232C619.587,-148.528 383.291,-134.243 360,-108 341.47,-87.1224 362.275,-55.7014 379.357,-36.0451"/>
<polygon fill="midnightblue" stroke="midnightblue" points="381.947,-38.3989 386.093,-28.6488 376.772,-33.6856 381.947,-38.3989"/>
</g>
<!-- Node15 -->
<g id="node29" class="node"><title>Node15</title>
<polygon fill="white" stroke="#bfbfbf" points="379.5,-79.5 379.5,-100.5 486.5,-100.5 486.5,-79.5 379.5,-79.5"/>
<text text-anchor="middle" x="433" y="-87.5" font-family="Helvetica,sans-Serif" font-size="10.00">osg/MatrixTransform</text>
</g>
<!-- Node2&#45;&gt;Node15 -->
<g id="edge28" class="edge"><title>Node2&#45;&gt;Node15</title>
<path fill="none" stroke="midnightblue" d="M714.28,-149.214C663.588,-141.351 572.109,-126.166 495,-108 489.129,-106.617 482.987,-105.02 476.947,-103.36"/>
<polygon fill="midnightblue" stroke="midnightblue" points="477.519,-99.8848 466.944,-100.534 475.616,-106.621 477.519,-99.8848"/>
</g>
<!-- Node16 -->
<g id="node31" class="node"><title>Node16</title>
<polygon fill="white" stroke="#bfbfbf" points="504,-79.5 504,-100.5 602,-100.5 602,-79.5 504,-79.5"/>
<text text-anchor="middle" x="553" y="-87.5" font-family="Helvetica,sans-Serif" font-size="10.00">osg/BlendEquation</text>
</g>
<!-- Node2&#45;&gt;Node16 -->
<g id="edge30" class="edge"><title>Node2&#45;&gt;Node16</title>
<path fill="none" stroke="midnightblue" d="M720.421,-144.412C686.281,-133.316 632.516,-115.843 595.16,-103.702"/>
<polygon fill="midnightblue" stroke="midnightblue" points="596.157,-100.346 585.565,-100.584 593.993,-107.003 596.157,-100.346"/>
</g>
<!-- Node17 -->
<g id="node33" class="node"><title>Node17</title>
<polygon fill="white" stroke="#bfbfbf" points="620,-79.5 620,-100.5 690,-100.5 690,-79.5 620,-79.5"/>
<text text-anchor="middle" x="655" y="-87.5" font-family="Helvetica,sans-Serif" font-size="10.00">osg/Uniform</text>
</g>
<!-- Node2&#45;&gt;Node17 -->
<g id="edge32" class="edge"><title>Node2&#45;&gt;Node17</title>
<path fill="none" stroke="midnightblue" d="M736.817,-144.267C721.262,-133.949 697.541,-118.216 679.639,-106.342"/>
<polygon fill="midnightblue" stroke="midnightblue" points="681.15,-103.144 670.882,-100.534 677.281,-108.978 681.15,-103.144"/>
</g>
<!-- Node18 -->
<g id="node35" class="node"><title>Node18</title>
<polygon fill="white" stroke="#bfbfbf" points="489,-7.5 489,-28.5 553,-28.5 553,-7.5 489,-7.5"/>
<text text-anchor="middle" x="521" y="-15.5" font-family="Helvetica,sans-Serif" font-size="10.00">osg/Geode</text>
</g>
<!-- Node2&#45;&gt;Node18 -->
<g id="edge34" class="edge"><title>Node2&#45;&gt;Node18</title>
<path fill="none" stroke="midnightblue" d="M714.234,-153.093C621.624,-148.143 393.522,-133.463 371,-108 360.4,-96.0154 361.627,-84.967 371,-72 400.888,-30.653 432.367,-54.2749 480,-36 482.722,-34.9558 485.526,-33.8312 488.33,-32.6723"/>
<polygon fill="midnightblue" stroke="midnightblue" points="489.912,-35.8029 497.743,-28.6664 487.171,-29.3619 489.912,-35.8029"/>
</g>
<!-- Node19 -->
<g id="node37" class="node"><title>Node19</title>
<polygon fill="white" stroke="#bfbfbf" points="144.5,-7.5 144.5,-28.5 225.5,-28.5 225.5,-7.5 144.5,-7.5"/>
<text text-anchor="middle" x="185" y="-15.5" font-family="Helvetica,sans-Serif" font-size="10.00">osg/Texture2D</text>
</g>
<!-- Node2&#45;&gt;Node19 -->
<g id="edge36" class="edge"><title>Node2&#45;&gt;Node19</title>
<path fill="none" stroke="midnightblue" d="M714.247,-153.578C619.65,-149.685 379.254,-137.144 305,-108 263.547,-91.7303 223.931,-57.0395 202.193,-35.7963"/>
<polygon fill="midnightblue" stroke="midnightblue" points="204.573,-33.2261 195.023,-28.6373 199.627,-38.1797 204.573,-33.2261"/>
</g>
<!-- Node20&#45;&gt;Node9 -->
<g id="edge52" class="edge"><title>Node20&#45;&gt;Node9</title>
<path fill="none" stroke="midnightblue" d="M801.221,-79.4727C812.297,-76.6186 824.572,-73.8185 836,-72 1070.92,-34.6189 1132.67,-52.0905 1370,-36 1453.48,-30.3401 1551.81,-23.6225 1601.6,-20.2172"/>
<polygon fill="midnightblue" stroke="midnightblue" points="1602.01,-23.6972 1611.75,-19.5229 1601.53,-16.7135 1602.01,-23.6972"/>
</g>
<!-- Node20&#45;&gt;Node13 -->
<g id="edge40" class="edge"><title>Node20&#45;&gt;Node13</title>
<path fill="none" stroke="midnightblue" d="M730.662,-79.4266C720.546,-76.6411 709.4,-73.8897 699,-72 529.911,-41.2758 480.167,-79.8564 314,-36 310.583,-35.0982 307.091,-33.9318 303.662,-32.6265"/>
<polygon fill="midnightblue" stroke="midnightblue" points="304.86,-29.3336 294.286,-28.6839 302.147,-35.7864 304.86,-29.3336"/>
</g>
<!-- Node20&#45;&gt;Node14 -->
<g id="edge50" class="edge"><title>Node20&#45;&gt;Node14</title>
<path fill="none" stroke="midnightblue" d="M728.855,-79.4192C719.204,-76.7927 708.748,-74.1245 699,-72 602.623,-50.9951 576.897,-54.4588 480,-36 471.371,-34.3561 462.262,-32.5025 453.365,-30.6257"/>
<polygon fill="midnightblue" stroke="midnightblue" points="453.958,-27.1734 443.447,-28.507 452.495,-34.0189 453.958,-27.1734"/>
</g>
<!-- Node20&#45;&gt;Node18 -->
<g id="edge44" class="edge"><title>Node20&#45;&gt;Node18</title>
<path fill="none" stroke="midnightblue" d="M726.627,-79.4698C717.571,-77.0029 707.949,-74.396 699,-72 638.186,-55.7174 621.45,-56.7174 562,-36 558.917,-34.9256 555.742,-33.7192 552.588,-32.4531"/>
<polygon fill="midnightblue" stroke="midnightblue" points="553.878,-29.1987 543.303,-28.5477 551.164,-35.6512 553.878,-29.1987"/>
</g>
<!-- Node20&#45;&gt;Node19 -->
<g id="edge48" class="edge"><title>Node20&#45;&gt;Node19</title>
<path fill="none" stroke="midnightblue" d="M731.021,-79.4145C720.816,-76.594 709.532,-73.8269 699,-72 494.765,-36.5718 436.528,-80.1538 234,-36 229.163,-34.9455 224.159,-33.5214 219.28,-31.9336"/>
<polygon fill="midnightblue" stroke="midnightblue" points="220.128,-28.5219 209.534,-28.5101 217.809,-35.1264 220.128,-28.5219"/>
</g>
<!-- Node21 -->
<g id="node42" class="node"><title>Node21</title>
<polygon fill="white" stroke="#bfbfbf" points="1136.5,-7.5 1136.5,-28.5 1195.5,-28.5 1195.5,-7.5 1136.5,-7.5"/>
<text text-anchor="middle" x="1166" y="-15.5" font-family="Helvetica,sans-Serif" font-size="10.00">osg/Node</text>
</g>
<!-- Node20&#45;&gt;Node21 -->
<g id="edge42" class="edge"><title>Node20&#45;&gt;Node21</title>
<path fill="none" stroke="midnightblue" d="M802.757,-79.4911C813.444,-76.7727 825.127,-74.0403 836,-72 964.518,-47.8855 1002.42,-72.4531 1128,-36 1131.15,-35.0842 1134.37,-33.9342 1137.54,-32.6606"/>
<polygon fill="midnightblue" stroke="midnightblue" points="1139.02,-35.8316 1146.75,-28.5797 1136.19,-29.432 1139.02,-35.8316"/>
</g>
<!-- Node22 -->
<g id="node45" class="node"><title>Node22</title>
<polygon fill="white" stroke="#bfbfbf" points="1213,-7.5 1213,-28.5 1291,-28.5 1291,-7.5 1213,-7.5"/>
<text text-anchor="middle" x="1252" y="-15.5" font-family="Helvetica,sans-Serif" font-size="10.00">osg/Geometry</text>
</g>
<!-- Node20&#45;&gt;Node22 -->
<g id="edge46" class="edge"><title>Node20&#45;&gt;Node22</title>
<path fill="none" stroke="midnightblue" d="M801.989,-79.4998C812.873,-76.7159 824.851,-73.9471 836,-72 997.886,-43.7271 1043.92,-73.1678 1204,-36 1208.51,-34.9527 1213.17,-33.5875 1217.73,-32.0769"/>
<polygon fill="midnightblue" stroke="midnightblue" points="1219.23,-35.2607 1227.47,-28.6049 1216.87,-28.6675 1219.23,-35.2607"/>
</g>
<!-- Node23 -->
<g id="node50" class="node"><title>Node23</title>
<polygon fill="white" stroke="#bfbfbf" points="1309,-7.5 1309,-28.5 1361,-28.5 1361,-7.5 1309,-7.5"/>
<text text-anchor="middle" x="1335" y="-15.5" font-family="Helvetica,sans-Serif" font-size="10.00">sstream</text>
</g>
<!-- Node20&#45;&gt;Node23 -->
<g id="edge54" class="edge"><title>Node20&#45;&gt;Node23</title>
<path fill="none" stroke="midnightblue" d="M801.599,-79.4507C812.579,-76.6313 824.707,-73.8557 836,-72 1040.1,-38.4623 1101,-92.4103 1300,-36 1302.83,-35.1964 1305.71,-34.1527 1308.53,-32.9727"/>
<polygon fill="midnightblue" stroke="midnightblue" points="1310.23,-36.039 1317.76,-28.586 1307.22,-29.7164 1310.23,-36.039"/>
</g>
<!-- Node24 -->
<g id="node52" class="node"><title>Node24</title>
<polygon fill="white" stroke="#bfbfbf" points="570.5,-1 570.5,-35 673.5,-35 673.5,-1 570.5,-1"/>
<text text-anchor="start" x="578.5" y="-22" font-family="Helvetica,sans-Serif" font-size="10.00">mars/interfaces/sim</text>
<text text-anchor="middle" x="622" y="-9" font-family="Helvetica,sans-Serif" font-size="10.00">_common.h</text>
</g>
<!-- Node20&#45;&gt;Node24 -->
<g id="edge56" class="edge"><title>Node20&#45;&gt;Node24</title>
<path fill="none" stroke="midnightblue" d="M743.9,-79.3762C723.19,-68.9487 691.001,-52.7419 664.901,-39.6004"/>
<polygon fill="midnightblue" stroke="midnightblue" points="666.457,-36.4654 655.951,-35.0944 663.309,-42.7176 666.457,-36.4654"/>
</g>
<!-- Node25 -->
<g id="node54" class="node"><title>Node25</title>
<polygon fill="white" stroke="#bfbfbf" points="690.5,-7.5 690.5,-28.5 839.5,-28.5 839.5,-7.5 690.5,-7.5"/>
<text text-anchor="middle" x="765" y="-15.5" font-family="Helvetica,sans-Serif" font-size="10.00">mars/interfaces/terrainStruct.h</text>
</g>
<!-- Node20&#45;&gt;Node25 -->
<g id="edge58" class="edge"><title>Node20&#45;&gt;Node25</title>
<path fill="none" stroke="midnightblue" d="M765,-79.3762C765,-68.7412 765,-52.0946 765,-38.8195"/>
<polygon fill="midnightblue" stroke="midnightblue" points="768.5,-38.6674 765,-28.6674 761.5,-38.6675 768.5,-38.6674"/>
</g>
<!-- Node26 -->
<g id="node56" class="node"><title>Node26</title>
<polygon fill="white" stroke="#bfbfbf" points="856.5,-1 856.5,-35 959.5,-35 959.5,-1 856.5,-1"/>
<text text-anchor="start" x="864.5" y="-22" font-family="Helvetica,sans-Serif" font-size="10.00">mars/interfaces/sim</text>
<text text-anchor="middle" x="908" y="-9" font-family="Helvetica,sans-Serif" font-size="10.00">/LoadCenter.h</text>
</g>
<!-- Node20&#45;&gt;Node26 -->
<g id="edge60" class="edge"><title>Node20&#45;&gt;Node26</title>
<path fill="none" stroke="midnightblue" d="M786.1,-79.3762C806.81,-68.9487 838.999,-52.7419 865.099,-39.6004"/>
<polygon fill="midnightblue" stroke="midnightblue" points="866.691,-42.7176 874.049,-35.0944 863.543,-36.4654 866.691,-42.7176"/>
</g>
<!-- Node27 -->
<g id="node58" class="node"><title>Node27</title>
<polygon fill="white" stroke="#bfbfbf" points="976.5,-1 976.5,-35 1119.5,-35 1119.5,-1 976.5,-1"/>
<text text-anchor="start" x="984.5" y="-22" font-family="Helvetica,sans-Serif" font-size="10.00">mars/interfaces/graphics</text>
<text text-anchor="middle" x="1048" y="-9" font-family="Helvetica,sans-Serif" font-size="10.00">/GraphicsManagerInterface.h</text>
</g>
<!-- Node20&#45;&gt;Node27 -->
<g id="edge62" class="edge"><title>Node20&#45;&gt;Node27</title>
<path fill="none" stroke="midnightblue" d="M806.454,-79.4535C849.596,-68.4772 918.143,-51.0377 971.212,-37.5361"/>
<polygon fill="midnightblue" stroke="midnightblue" points="972.104,-40.9209 980.932,-35.0633 970.378,-34.137 972.104,-40.9209"/>
</g>
<!-- Node28&#45;&gt;Node7 -->
<g id="edge68" class="edge"><title>Node28&#45;&gt;Node7</title>
<path fill="none" stroke="midnightblue" d="M149,-144.267C149,-136.931 149,-126.857 149,-117.38"/>
<polygon fill="midnightblue" stroke="midnightblue" points="152.5,-117.11 149,-107.11 145.5,-117.11 152.5,-117.11"/>
</g>
<!-- Node28&#45;&gt;Node12 -->
<g id="edge66" class="edge"><title>Node28&#45;&gt;Node12</title>
<path fill="none" stroke="midnightblue" d="M130.43,-144.412C111.964,-133.883 83.4247,-117.611 62.3636,-105.602"/>
<polygon fill="midnightblue" stroke="midnightblue" points="63.9826,-102.496 53.5618,-100.584 60.5153,-108.577 63.9826,-102.496"/>
</g>
<!-- Node29&#45;&gt;Node3 -->
<g id="edge102" class="edge"><title>Node29&#45;&gt;Node3</title>
<path fill="none" stroke="midnightblue" d="M1806.55,-202.486C1708.19,-184.063 1499.06,-144.435 1323,-108 1314.98,-106.341 1306.54,-104.544 1298.24,-102.748"/>
<polygon fill="midnightblue" stroke="midnightblue" points="1298.74,-99.2756 1288.22,-100.569 1297.25,-106.115 1298.74,-99.2756"/>
</g>
<!-- Node29&#45;&gt;Node8 -->
<g id="edge98" class="edge"><title>Node29&#45;&gt;Node8</title>
<path fill="none" stroke="midnightblue" d="M1891.77,-202.33C1952.41,-179.563 2088.76,-126.775 2101,-108 2109.74,-94.596 2111.22,-84.3089 2101,-72 2068.42,-32.7702 1910.64,-21.8823 1842.95,-18.9927"/>
<polygon fill="midnightblue" stroke="midnightblue" points="1843.02,-15.4929 1832.89,-18.5945 1842.74,-22.4874 1843.02,-15.4929"/>
</g>
<!-- Node29&#45;&gt;Node11 -->
<g id="edge100" class="edge"><title>Node29&#45;&gt;Node11</title>
<path fill="none" stroke="midnightblue" d="M1845.35,-202.499C1832.94,-194.172 1817.01,-181.395 1808,-166 1798.16,-149.185 1794.66,-127.068 1793.47,-111.032"/>
<polygon fill="midnightblue" stroke="midnightblue" points="1796.94,-110.408 1792.95,-100.593 1789.95,-110.753 1796.94,-110.408"/>
</g>
<!-- Node29&#45;&gt;Node30 -->
<g id="edge72" class="edge"><title>Node29&#45;&gt;Node30</title>
<path fill="none" stroke="midnightblue" d="M1863,-202.362C1863,-194.922 1863,-184.743 1863,-175.728"/>
<polygon fill="midnightblue" stroke="midnightblue" points="1866.5,-175.571 1863,-165.571 1859.5,-175.571 1866.5,-175.571"/>
</g>
<!-- Node35 -->
<g id="node81" class="node"><title>Node35</title>
<polygon fill="white" stroke="#bfbfbf" points="2056,-144.5 2056,-165.5 2104,-165.5 2104,-144.5 2056,-144.5"/>
<text text-anchor="middle" x="2080" y="-152.5" font-family="Helvetica,sans-Serif" font-size="10.00">GL/gl.h</text>
</g>
<!-- Node29&#45;&gt;Node35 -->
<g id="edge92" class="edge"><title>Node29&#45;&gt;Node35</title>
<path fill="none" stroke="midnightblue" d="M1904.31,-202.465C1940.65,-193.126 1994.92,-178.992 2042,-166 2043.27,-165.651 2044.56,-165.292 2045.86,-164.927"/>
<polygon fill="midnightblue" stroke="midnightblue" points="2047.24,-168.173 2055.9,-162.074 2045.33,-161.44 2047.24,-168.173"/>
</g>
<!-- Node36 -->
<g id="node83" class="node"><title>Node36</title>
<polygon fill="white" stroke="#bfbfbf" points="2122,-144.5 2122,-165.5 2188,-165.5 2188,-144.5 2122,-144.5"/>
<text text-anchor="middle" x="2155" y="-152.5" font-family="Helvetica,sans-Serif" font-size="10.00">osg/Shader</text>
</g>
<!-- Node29&#45;&gt;Node36 -->
<g id="edge94" class="edge"><title>Node29&#45;&gt;Node36</title>
<path fill="none" stroke="midnightblue" d="M1925.66,-202.478C1974,-194.074 2042.74,-181.501 2111.45,-166.249"/>
<polygon fill="midnightblue" stroke="midnightblue" points="2112.59,-169.58 2121.58,-163.979 2111.06,-162.749 2112.59,-169.58"/>
</g>
<!-- Node37 -->
<g id="node85" class="node"><title>Node37</title>
<polygon fill="white" stroke="#bfbfbf" points="2206,-144.5 2206,-165.5 2278,-165.5 2278,-144.5 2206,-144.5"/>
<text text-anchor="middle" x="2242" y="-152.5" font-family="Helvetica,sans-Serif" font-size="10.00">osg/Program</text>
</g>
<!-- Node29&#45;&gt;Node37 -->
<g id="edge96" class="edge"><title>Node29&#45;&gt;Node37</title>
<path fill="none" stroke="midnightblue" d="M1932.74,-203.163C1935.53,-202.77 1938.29,-202.381 1941,-202 2051.55,-186.431 2082.43,-187.587 2195.61,-166.133"/>
<polygon fill="midnightblue" stroke="midnightblue" points="2196.56,-169.516 2205.72,-164.199 2195.24,-162.641 2196.56,-169.516"/>
</g>
<!-- Node30&#45;&gt;Node8 -->
<g id="edge82" class="edge"><title>Node30&#45;&gt;Node8</title>
<path fill="none" stroke="midnightblue" d="M1863.26,-144.351C1863.3,-128.128 1861.93,-96.5219 1852,-72 1846.66,-58.82 1837.34,-45.9504 1829.04,-36.0829"/>
<polygon fill="midnightblue" stroke="midnightblue" points="1831.65,-33.7514 1822.42,-28.5593 1826.4,-38.3775 1831.65,-33.7514"/>
</g>
<!-- Node30&#45;&gt;Node9 -->
<g id="edge84" class="edge"><title>Node30&#45;&gt;Node9</title>
<path fill="none" stroke="midnightblue" d="M1860.29,-144.36C1855.22,-126.672 1842.64,-91.2641 1819,-72 1795.49,-52.8434 1712.5,-33.7382 1666.07,-24.2184"/>
<polygon fill="midnightblue" stroke="midnightblue" points="1666.69,-20.7746 1656.2,-22.2271 1665.31,-27.6363 1666.69,-20.7746"/>
</g>
<!-- Node30&#45;&gt;Node10 -->
<g id="edge78" class="edge"><title>Node30&#45;&gt;Node10</title>
<path fill="none" stroke="midnightblue" d="M1819.16,-144.484C1761.6,-130.68 1662.52,-106.914 1616.64,-95.9091"/>
<polygon fill="midnightblue" stroke="midnightblue" points="1617.22,-92.4491 1606.68,-93.5202 1615.58,-99.2561 1617.22,-92.4491"/>
</g>
<!-- Node30&#45;&gt;Node11 -->
<g id="edge80" class="edge"><title>Node30&#45;&gt;Node11</title>
<path fill="none" stroke="midnightblue" d="M1851.44,-144.267C1840.74,-134.328 1824.62,-119.363 1812.02,-107.664"/>
<polygon fill="midnightblue" stroke="midnightblue" points="1814.05,-104.773 1804.34,-100.534 1809.29,-109.903 1814.05,-104.773"/>
</g>
<!-- Node31 -->
<g id="node68" class="node"><title>Node31</title>
<polygon fill="white" stroke="#bfbfbf" points="1903.5,-79.5 1903.5,-100.5 1946.5,-100.5 1946.5,-79.5 1903.5,-79.5"/>
<text text-anchor="middle" x="1925" y="-87.5" font-family="Helvetica,sans-Serif" font-size="10.00">cstdio</text>
</g>
<!-- Node30&#45;&gt;Node31 -->
<g id="edge74" class="edge"><title>Node30&#45;&gt;Node31</title>
<path fill="none" stroke="midnightblue" d="M1873.24,-144.267C1882.63,-134.423 1896.72,-119.648 1907.83,-108"/>
<polygon fill="midnightblue" stroke="midnightblue" points="1910.58,-110.186 1914.95,-100.534 1905.52,-105.354 1910.58,-110.186"/>
</g>
<!-- Node32 -->
<g id="node70" class="node"><title>Node32</title>
<polygon fill="white" stroke="#bfbfbf" points="1964,-79.5 1964,-100.5 1994,-100.5 1994,-79.5 1964,-79.5"/>
<text text-anchor="middle" x="1979" y="-87.5" font-family="Helvetica,sans-Serif" font-size="10.00">set</text>
</g>
<!-- Node30&#45;&gt;Node32 -->
<g id="edge76" class="edge"><title>Node30&#45;&gt;Node32</title>
<path fill="none" stroke="midnightblue" d="M1886.28,-144.466C1905.25,-135.566 1932.48,-122.053 1955,-108 1955.77,-107.517 1956.55,-107.017 1957.33,-106.503"/>
<polygon fill="midnightblue" stroke="midnightblue" points="1959.42,-109.317 1965.58,-100.697 1955.39,-103.593 1959.42,-109.317"/>
</g>
<!-- Node33 -->
<g id="node76" class="node"><title>Node33</title>
<a xlink:href="../../d0/d54/shader-types_8h.html" target="_top" xlink:title="shader&#45;types.h">
<polygon fill="white" stroke="black" points="2011.5,-79.5 2011.5,-100.5 2092.5,-100.5 2092.5,-79.5 2011.5,-79.5"/>
<text text-anchor="middle" x="2052" y="-87.5" font-family="Helvetica,sans-Serif" font-size="10.00">shader&#45;types.h</text>
</a>
</g>
<!-- Node30&#45;&gt;Node33 -->
<g id="edge86" class="edge"><title>Node30&#45;&gt;Node33</title>
<path fill="none" stroke="midnightblue" d="M1895.34,-144.43C1923.77,-135.068 1966.23,-120.922 2003,-108 2006.69,-106.702 2010.54,-105.329 2014.37,-103.944"/>
<polygon fill="midnightblue" stroke="midnightblue" points="2015.61,-107.22 2023.81,-100.511 2013.21,-100.642 2015.61,-107.22"/>
</g>
<!-- Node33&#45;&gt;Node8 -->
<g id="edge88" class="edge"><title>Node33&#45;&gt;Node8</title>
<path fill="none" stroke="midnightblue" d="M2024.4,-79.4422C2017.45,-76.8999 2009.98,-74.2659 2003,-72 1946.82,-53.7706 1880.26,-35.7467 1842.39,-25.8236"/>
<polygon fill="midnightblue" stroke="midnightblue" points="1843.07,-22.3821 1832.51,-23.2461 1841.3,-29.1557 1843.07,-22.3821"/>
</g>
<!-- Node34 -->
<g id="node79" class="node"><title>Node34</title>
<polygon fill="white" stroke="#bfbfbf" points="2026,-7.5 2026,-28.5 2078,-28.5 2078,-7.5 2026,-7.5"/>
<text text-anchor="middle" x="2052" y="-15.5" font-family="Helvetica,sans-Serif" font-size="10.00">ostream</text>
</g>
<!-- Node33&#45;&gt;Node34 -->
<g id="edge90" class="edge"><title>Node33&#45;&gt;Node34</title>
<path fill="none" stroke="midnightblue" d="M2052,-79.3762C2052,-68.7412 2052,-52.0946 2052,-38.8195"/>
<polygon fill="midnightblue" stroke="midnightblue" points="2055.5,-38.6674 2052,-28.6674 2048.5,-38.6675 2055.5,-38.6674"/>
</g>
<!-- Node38&#45;&gt;Node6 -->
<g id="edge126" class="edge"><title>Node38&#45;&gt;Node6</title>
<path fill="none" stroke="midnightblue" d="M1547.59,-202.085C1537.3,-181.335 1514.78,-135.937 1501.78,-109.729"/>
<polygon fill="midnightblue" stroke="midnightblue" points="1504.89,-108.119 1497.31,-100.715 1498.62,-111.229 1504.89,-108.119"/>
</g>
<!-- Node38&#45;&gt;Node8 -->
<g id="edge130" class="edge"><title>Node38&#45;&gt;Node8</title>
<path fill="none" stroke="midnightblue" d="M1567.07,-202.375C1598.21,-178.857 1675.33,-120.631 1740,-72 1756.65,-59.4792 1775.49,-45.353 1789.72,-34.69"/>
<polygon fill="midnightblue" stroke="midnightblue" points="1792.02,-37.3407 1797.92,-28.5436 1787.82,-31.7386 1792.02,-37.3407"/>
</g>
<!-- Node38&#45;&gt;Node9 -->
<g id="edge128" class="edge"><title>Node38&#45;&gt;Node9</title>
<path fill="none" stroke="midnightblue" d="M1560.96,-202.27C1574.19,-183.917 1600.66,-144.898 1615,-108 1623.91,-85.0889 1628.97,-57.1918 1631.59,-38.5877"/>
<polygon fill="midnightblue" stroke="midnightblue" points="1635.08,-38.9419 1632.9,-28.5741 1628.14,-38.0393 1635.08,-38.9419"/>
</g>
<!-- Node38&#45;&gt;Node30 -->
<g id="edge108" class="edge"><title>Node38&#45;&gt;Node30</title>
<path fill="none" stroke="midnightblue" d="M1609.14,-202.497C1665.15,-192.017 1750.72,-176.007 1806.77,-165.521"/>
<polygon fill="midnightblue" stroke="midnightblue" points="1807.69,-168.91 1816.87,-163.63 1806.4,-162.029 1807.69,-168.91"/>
</g>
<!-- Node39 -->
<g id="node94" class="node"><title>Node39</title>
<a xlink:href="../../d9/d47/_graphics_manager_8h.html" target="_top" xlink:title="GraphicsManager.h">
<polygon fill="white" stroke="red" points="1115.5,-144.5 1115.5,-165.5 1216.5,-165.5 1216.5,-144.5 1115.5,-144.5"/>
<text text-anchor="middle" x="1166" y="-152.5" font-family="Helvetica,sans-Serif" font-size="10.00">GraphicsManager.h</text>
</a>
</g>
<!-- Node38&#45;&gt;Node39 -->
<g id="edge110" class="edge"><title>Node38&#45;&gt;Node39</title>
<path fill="none" stroke="midnightblue" d="M1489.09,-203.422C1416.35,-192.52 1298.39,-174.841 1226.91,-164.129"/>
<polygon fill="midnightblue" stroke="midnightblue" points="1227.12,-160.622 1216.71,-162.601 1226.09,-167.544 1227.12,-160.622"/>
</g>
<!-- Node39&#45;&gt;Node3 -->
<g id="edge114" class="edge"><title>Node39&#45;&gt;Node3</title>
<path fill="none" stroke="midnightblue" d="M1178.38,-144.267C1189.96,-134.233 1207.45,-119.078 1221,-107.331"/>
<polygon fill="midnightblue" stroke="midnightblue" points="1223.58,-109.728 1228.85,-100.534 1219,-104.438 1223.58,-109.728"/>
</g>
<!-- Node39&#45;&gt;Node4 -->
<g id="edge116" class="edge"><title>Node39&#45;&gt;Node4</title>
<path fill="none" stroke="midnightblue" d="M1133.26,-144.412C1098.95,-133.316 1044.91,-115.843 1007.37,-103.702"/>
<polygon fill="midnightblue" stroke="midnightblue" points="1008.32,-100.33 997.727,-100.584 1006.17,-106.991 1008.32,-100.33"/>
</g>
<!-- Node39&#45;&gt;Node5 -->
<g id="edge118" class="edge"><title>Node39&#45;&gt;Node5</title>
<path fill="none" stroke="midnightblue" d="M1153.62,-144.267C1142.04,-134.233 1124.55,-119.078 1111,-107.331"/>
<polygon fill="midnightblue" stroke="midnightblue" points="1113,-104.438 1103.15,-100.534 1108.42,-109.728 1113,-104.438"/>
</g>
<!-- Node39&#45;&gt;Node6 -->
<g id="edge120" class="edge"><title>Node39&#45;&gt;Node6</title>
<path fill="none" stroke="midnightblue" d="M1216.68,-146.095C1267.08,-137.082 1346.56,-122.451 1415,-108 1422.65,-106.385 1430.71,-104.597 1438.61,-102.794"/>
<polygon fill="midnightblue" stroke="midnightblue" points="1439.54,-106.171 1448.5,-100.513 1437.97,-99.3502 1439.54,-106.171"/>
</g>
<!-- Node39&#45;&gt;Node7 -->
<g id="edge122" class="edge"><title>Node39&#45;&gt;Node7</title>
<path fill="none" stroke="midnightblue" d="M1115.29,-152.387C989.309,-145.813 652.019,-127.697 371,-108 320.648,-104.471 263.925,-99.8606 220.42,-96.1895"/>
<polygon fill="midnightblue" stroke="midnightblue" points="220.481,-92.6823 210.222,-95.3257 219.89,-99.6573 220.481,-92.6823"/>
</g>
<!-- Node39&#45;&gt;Node20 -->
<g id="edge124" class="edge"><title>Node39&#45;&gt;Node20</title>
<path fill="none" stroke="midnightblue" d="M1115.21,-146.768C1043.36,-135.121 911.925,-113.816 832.108,-100.878"/>
<polygon fill="midnightblue" stroke="midnightblue" points="832.59,-97.4104 822.159,-99.2652 831.47,-104.32 832.59,-97.4104"/>
</g>
<!-- Node39&#45;&gt;Node40 -->
<g id="edge112" class="edge"><title>Node39&#45;&gt;Node40</title>
<path fill="none" stroke="midnightblue" d="M1204.35,-144.472C1236.31,-135.47 1282.92,-121.815 1323,-108 1326.34,-106.847 1329.81,-105.599 1333.26,-104.315"/>
<polygon fill="midnightblue" stroke="midnightblue" points="1334.77,-107.486 1342.87,-100.655 1332.28,-100.944 1334.77,-107.486"/>
</g>
<!-- Node41&#45;&gt;Node6 -->
<g id="edge136" class="edge"><title>Node41&#45;&gt;Node6</title>
<path fill="none" stroke="midnightblue" d="M1669.12,-202.3C1635,-180.664 1557.63,-131.614 1517.39,-106.098"/>
<polygon fill="midnightblue" stroke="midnightblue" points="1519.02,-102.987 1508.7,-100.588 1515.27,-108.899 1519.02,-102.987"/>
</g>
<!-- Node41&#45;&gt;Node8 -->
<g id="edge140" class="edge"><title>Node41&#45;&gt;Node8</title>
<path fill="none" stroke="midnightblue" d="M1691.3,-202.363C1703.45,-178.334 1734.74,-118.341 1767,-72 1775.61,-59.6366 1786.37,-46.6411 1795.22,-36.4976"/>
<polygon fill="midnightblue" stroke="midnightblue" points="1798.1,-38.53 1802.11,-28.7243 1792.86,-33.8876 1798.1,-38.53"/>
</g>
<!-- Node41&#45;&gt;Node9 -->
<g id="edge138" class="edge"><title>Node41&#45;&gt;Node9</title>
<path fill="none" stroke="midnightblue" d="M1683.13,-202.238C1674.8,-171.015 1650.54,-80.0103 1639.54,-38.758"/>
<polygon fill="midnightblue" stroke="midnightblue" points="1642.88,-37.7294 1636.93,-28.9689 1636.12,-39.5331 1642.88,-37.7294"/>
</g>
<!-- Node41&#45;&gt;Node30 -->
<g id="edge134" class="edge"><title>Node41&#45;&gt;Node30</title>
<path fill="none" stroke="midnightblue" d="M1718.05,-202.497C1746.91,-193.041 1789.51,-179.083 1821.06,-168.743"/>
<polygon fill="midnightblue" stroke="midnightblue" points="1822.47,-171.963 1830.89,-165.523 1820.29,-165.311 1822.47,-171.963"/>
</g>
</g>
</svg>
