<?xml version="1.0" encoding="UTF-8" standalone="no"?>
<!DOCTYPE svg PUBLIC "-//W3C//DTD SVG 1.1//EN"
 "http://www.w3.org/Graphics/SVG/1.1/DTD/svg11.dtd">
<!-- Generated by graphviz version 2.26.3 (20100126.1600)
 -->
<!-- Title: /home/kavonszadkowski/limes&#45;dev/simulation/mars/gui/src/dialogs/CameraConfig/CameraConfiguratorGUI.cpp Pages: 1 -->
<svg width="754pt" height="284pt"
 viewBox="0.00 0.00 754.00 284.00" xmlns="http://www.w3.org/2000/svg" xmlns:xlink="http://www.w3.org/1999/xlink">
<g id="graph1" class="graph" transform="scale(1 1) rotate(0) translate(4 280)">
<title>/home/kavonszadkowski/limes&#45;dev/simulation/mars/gui/src/dialogs/CameraConfig/CameraConfiguratorGUI.cpp</title>
<polygon fill="white" stroke="white" points="-4,5 -4,-280 751,-280 751,5 -4,5"/>
<!-- Node1 -->
<g id="node1" class="node"><title>Node1</title>
<polygon fill="#bfbfbf" stroke="black" points="345.5,-202.5 345.5,-275.5 518.5,-275.5 518.5,-202.5 345.5,-202.5"/>
<text text-anchor="start" x="353.5" y="-262.5" font-family="Helvetica,sans-Serif" font-size="10.00">/home/kavonszadkowski</text>
<text text-anchor="start" x="353.5" y="-249.5" font-family="Helvetica,sans-Serif" font-size="10.00">/limes&#45;dev/simulation</text>
<text text-anchor="start" x="353.5" y="-236.5" font-family="Helvetica,sans-Serif" font-size="10.00">/mars/gui/src/dialogs</text>
<text text-anchor="start" x="353.5" y="-223.5" font-family="Helvetica,sans-Serif" font-size="10.00">/CameraConfig/CameraConfigurator</text>
<text text-anchor="middle" x="432" y="-210.5" font-family="Helvetica,sans-Serif" font-size="10.00">GUI.cpp</text>
</g>
<!-- Node2 -->
<g id="node3" class="node"><title>Node2</title>
<a xlink:href="../../d3/d45/_camera_configurator_g_u_i_8h.html" target="_top" xlink:title="&quot;CameraConfiguratorGUI&quot; is a template for the widget interface of the MARS GUI ">
<polygon fill="white" stroke="black" points="256.5,-137.5 256.5,-158.5 387.5,-158.5 387.5,-137.5 256.5,-137.5"/>
<text text-anchor="middle" x="322" y="-145.5" font-family="Helvetica,sans-Serif" font-size="10.00">CameraConfiguratorGUI.h</text>
</a>
</g>
<!-- Node1&#45;&gt;Node2 -->
<g id="edge2" class="edge"><title>Node1&#45;&gt;Node2</title>
<path fill="none" stroke="midnightblue" d="M387.576,-202.249C372.073,-189.424 355.405,-175.635 342.753,-165.168"/>
<polygon fill="midnightblue" stroke="midnightblue" points="344.635,-162.183 334.699,-158.506 340.173,-167.577 344.635,-162.183"/>
</g>
<!-- Node12 -->
<g id="node24" class="node"><title>Node12</title>
<polygon fill="white" stroke="#bfbfbf" points="405,-137.5 405,-158.5 459,-158.5 459,-137.5 405,-137.5"/>
<text text-anchor="middle" x="432" y="-145.5" font-family="Helvetica,sans-Serif" font-size="10.00">iostream</text>
</g>
<!-- Node1&#45;&gt;Node12 -->
<g id="edge24" class="edge"><title>Node1&#45;&gt;Node12</title>
<path fill="none" stroke="midnightblue" d="M432,-202.249C432,-190.78 432,-178.541 432,-168.596"/>
<polygon fill="midnightblue" stroke="midnightblue" points="435.5,-168.505 432,-158.506 428.5,-168.506 435.5,-168.505"/>
</g>
<!-- Node13 -->
<g id="node26" class="node"><title>Node13</title>
<polygon fill="white" stroke="#bfbfbf" points="476.5,-131 476.5,-165 603.5,-165 603.5,-131 476.5,-131"/>
<text text-anchor="start" x="484.5" y="-152" font-family="Helvetica,sans-Serif" font-size="10.00">mars/interfaces/sim</text>
<text text-anchor="middle" x="540" y="-139" font-family="Helvetica,sans-Serif" font-size="10.00">/NodeManagerInterface.h</text>
</g>
<!-- Node1&#45;&gt;Node13 -->
<g id="edge26" class="edge"><title>Node1&#45;&gt;Node13</title>
<path fill="none" stroke="midnightblue" d="M475.616,-202.249C487.865,-191.929 500.854,-180.984 511.933,-171.649"/>
<polygon fill="midnightblue" stroke="midnightblue" points="514.233,-174.288 519.625,-165.168 509.722,-168.935 514.233,-174.288"/>
</g>
<!-- Node3 -->
<g id="node5" class="node"><title>Node3</title>
<polygon fill="white" stroke="#bfbfbf" points="-0.5,-7.5 -0.5,-28.5 50.5,-28.5 50.5,-7.5 -0.5,-7.5"/>
<text text-anchor="middle" x="25" y="-15.5" font-family="Helvetica,sans-Serif" font-size="10.00">QMutex</text>
</g>
<!-- Node2&#45;&gt;Node3 -->
<g id="edge4" class="edge"><title>Node2&#45;&gt;Node3</title>
<path fill="none" stroke="midnightblue" d="M295.166,-137.444C247.216,-118.391 143.896,-76.4606 59,-36 57.1912,-35.138 55.3395,-34.2308 53.4796,-33.3008"/>
<polygon fill="midnightblue" stroke="midnightblue" points="54.7683,-30.0278 44.2749,-28.5656 51.5661,-36.2525 54.7683,-30.0278"/>
</g>
<!-- Node4 -->
<g id="node7" class="node"><title>Node4</title>
<a xlink:href="../../da/dd0/_camera_config_8h.html" target="_top" xlink:title="&quot;CameraConfig&quot; ">
<polygon fill="white" stroke="black" points="211,-72.5 211,-93.5 299,-93.5 299,-72.5 211,-72.5"/>
<text text-anchor="middle" x="255" y="-80.5" font-family="Helvetica,sans-Serif" font-size="10.00">CameraConfig.h</text>
</a>
</g>
<!-- Node2&#45;&gt;Node4 -->
<g id="edge6" class="edge"><title>Node2&#45;&gt;Node4</title>
<path fill="none" stroke="midnightblue" d="M310.936,-137.267C300.692,-127.328 285.267,-112.363 273.208,-100.664"/>
<polygon fill="midnightblue" stroke="midnightblue" points="275.472,-97.9848 265.858,-93.5337 270.598,-103.009 275.472,-97.9848"/>
</g>
<!-- Node10 -->
<g id="node20" class="node"><title>Node10</title>
<polygon fill="white" stroke="#bfbfbf" points="316.5,-72.5 316.5,-93.5 461.5,-93.5 461.5,-72.5 316.5,-72.5"/>
<text text-anchor="middle" x="389" y="-80.5" font-family="Helvetica,sans-Serif" font-size="10.00">mars/main_gui/BaseWidget.h</text>
</g>
<!-- Node2&#45;&gt;Node10 -->
<g id="edge20" class="edge"><title>Node2&#45;&gt;Node10</title>
<path fill="none" stroke="midnightblue" d="M333.064,-137.267C343.308,-127.328 358.733,-112.363 370.792,-100.664"/>
<polygon fill="midnightblue" stroke="midnightblue" points="373.402,-103.009 378.142,-93.5337 368.528,-97.9848 373.402,-103.009"/>
</g>
<!-- Node11 -->
<g id="node22" class="node"><title>Node11</title>
<polygon fill="white" stroke="#bfbfbf" points="479,-72.5 479,-93.5 635,-93.5 635,-72.5 479,-72.5"/>
<text text-anchor="middle" x="557" y="-80.5" font-family="Helvetica,sans-Serif" font-size="10.00">mars/main_gui/PropertyDialog.h</text>
</g>
<!-- Node2&#45;&gt;Node11 -->
<g id="edge22" class="edge"><title>Node2&#45;&gt;Node11</title>
<path fill="none" stroke="midnightblue" d="M360.018,-137.484C400.632,-126.251 465.095,-108.421 509.137,-96.2386"/>
<polygon fill="midnightblue" stroke="midnightblue" points="510.332,-99.5398 519.037,-93.5005 508.465,-92.7931 510.332,-99.5398"/>
</g>
<!-- Node4&#45;&gt;Node3 -->
<g id="edge18" class="edge"><title>Node4&#45;&gt;Node3</title>
<path fill="none" stroke="midnightblue" d="M210.851,-75.7021C170.495,-68.2662 109.576,-55.1021 59,-36 56.7331,-35.1438 54.4258,-34.1688 52.1352,-33.1258"/>
<polygon fill="midnightblue" stroke="midnightblue" points="53.4734,-29.8829 42.9582,-28.5858 50.3694,-36.1572 53.4734,-29.8829"/>
</g>
<!-- Node5 -->
<g id="node9" class="node"><title>Node5</title>
<polygon fill="white" stroke="#bfbfbf" points="67.5,-1 67.5,-35 170.5,-35 170.5,-1 67.5,-1"/>
<text text-anchor="start" x="75.5" y="-22" font-family="Helvetica,sans-Serif" font-size="10.00">mars/interfaces/sim</text>
<text text-anchor="middle" x="119" y="-9" font-family="Helvetica,sans-Serif" font-size="10.00">/ControlCenter.h</text>
</g>
<!-- Node4&#45;&gt;Node5 -->
<g id="edge8" class="edge"><title>Node4&#45;&gt;Node5</title>
<path fill="none" stroke="midnightblue" d="M232.847,-72.412C214.257,-63.5274 187.112,-50.5536 163.991,-39.5028"/>
<polygon fill="midnightblue" stroke="midnightblue" points="165.227,-36.2148 154.696,-35.0604 162.209,-42.5305 165.227,-36.2148"/>
</g>
<!-- Node6 -->
<g id="node11" class="node"><title>Node6</title>
<polygon fill="white" stroke="#bfbfbf" points="188,-1 188,-35 322,-35 322,-1 188,-1"/>
<text text-anchor="start" x="196" y="-22" font-family="Helvetica,sans-Serif" font-size="10.00">mars/data_broker/Receiver</text>
<text text-anchor="middle" x="255" y="-9" font-family="Helvetica,sans-Serif" font-size="10.00">Interface.h</text>
</g>
<!-- Node4&#45;&gt;Node6 -->
<g id="edge10" class="edge"><title>Node4&#45;&gt;Node6</title>
<path fill="none" stroke="midnightblue" d="M255,-72.2666C255,-64.931 255,-54.8573 255,-45.3796"/>
<polygon fill="midnightblue" stroke="midnightblue" points="258.5,-45.1098 255,-35.1099 251.5,-45.1099 258.5,-45.1098"/>
</g>
<!-- Node7 -->
<g id="node13" class="node"><title>Node7</title>
<polygon fill="white" stroke="#bfbfbf" points="339.5,-1 339.5,-35 494.5,-35 494.5,-1 339.5,-1"/>
<text text-anchor="start" x="347.5" y="-22" font-family="Helvetica,sans-Serif" font-size="10.00">mars/data_broker/DataPackage</text>
<text text-anchor="middle" x="417" y="-9" font-family="Helvetica,sans-Serif" font-size="10.00">Mapping.h</text>
</g>
<!-- Node4&#45;&gt;Node7 -->
<g id="edge12" class="edge"><title>Node4&#45;&gt;Node7</title>
<path fill="none" stroke="midnightblue" d="M281.389,-72.412C303.925,-63.3695 337.019,-50.091 364.873,-38.9153"/>
<polygon fill="midnightblue" stroke="midnightblue" points="366.503,-42.0325 374.48,-35.0604 363.896,-35.536 366.503,-42.0325"/>
</g>
<!-- Node8 -->
<g id="node15" class="node"><title>Node8</title>
<polygon fill="white" stroke="#bfbfbf" points="511.5,-7.5 511.5,-28.5 610.5,-28.5 610.5,-7.5 511.5,-7.5"/>
<text text-anchor="middle" x="561" y="-15.5" font-family="Helvetica,sans-Serif" font-size="10.00">mars/utils/Vector.h</text>
</g>
<!-- Node4&#45;&gt;Node8 -->
<g id="edge14" class="edge"><title>Node4&#45;&gt;Node8</title>
<path fill="none" stroke="midnightblue" d="M299.232,-73.7437C302.198,-73.1465 305.141,-72.5605 308,-72 394.485,-55.0441 417.431,-57.0979 503,-36 508.374,-34.6749 513.984,-33.1363 519.505,-31.5275"/>
<polygon fill="midnightblue" stroke="midnightblue" points="520.713,-34.8192 529.281,-28.5867 518.696,-28.116 520.713,-34.8192"/>
</g>
<!-- Node9 -->
<g id="node17" class="node"><title>Node9</title>
<polygon fill="white" stroke="#bfbfbf" points="628,-7.5 628,-28.5 746,-28.5 746,-7.5 628,-7.5"/>
<text text-anchor="middle" x="687" y="-15.5" font-family="Helvetica,sans-Serif" font-size="10.00">mars/utils/Quaternion.h</text>
</g>
<!-- Node4&#45;&gt;Node9 -->
<g id="edge16" class="edge"><title>Node4&#45;&gt;Node9</title>
<path fill="none" stroke="midnightblue" d="M299.192,-73.52C302.167,-72.9769 305.124,-72.464 308,-72 445.369,-49.8396 482.281,-61.8697 619,-36 626.26,-34.6264 633.886,-32.8967 641.3,-31.0559"/>
<polygon fill="midnightblue" stroke="midnightblue" points="642.413,-34.3835 651.224,-28.5 640.667,-27.6047 642.413,-34.3835"/>
</g>
</g>
</svg>
