<?xml version="1.0" encoding="UTF-8" standalone="no"?>
<!DOCTYPE svg PUBLIC "-//W3C//DTD SVG 1.1//EN"
 "http://www.w3.org/Graphics/SVG/1.1/DTD/svg11.dtd">
<!-- Generated by graphviz version 2.36.0 (20140111.2315)
 -->
<!-- Title: mars::interfaces::MarsPluginTemplate Pages: 1 -->
<svg width="1090pt" height="579pt"
 viewBox="0.00 0.00 1090.00 579.00" xmlns="http://www.w3.org/2000/svg" xmlns:xlink="http://www.w3.org/1999/xlink">
<g id="graph0" class="graph" transform="scale(1 1) rotate(0) translate(4 575)">
<title>mars::interfaces::MarsPluginTemplate</title>
<polygon fill="white" stroke="none" points="-4,4 -4,-575 1086,-575 1086,4 -4,4"/>
<!-- Node1 -->
<g id="node1" class="node"><title>Node1</title>
<polygon fill="#bfbfbf" stroke="black" points="940,-65 940,-95 1082,-95 1082,-65 940,-65"/>
<text text-anchor="start" x="948" y="-83" font-family="Helvetica,sans-Serif" font-size="10.00">mars::interfaces::MarsPlugin</text>
<text text-anchor="middle" x="1011" y="-72" font-family="Helvetica,sans-Serif" font-size="10.00">Template</text>
</g>
<!-- Node2 -->
<g id="node2" class="node"><title>Node2</title>
<polygon fill="white" stroke="#bfbfbf" points="47,-498.5 47,-517.5 115,-517.5 115,-498.5 47,-498.5"/>
<text text-anchor="middle" x="81" y="-505.5" font-family="Helvetica,sans-Serif" font-size="10.00">LibInterface</text>
</g>
<!-- Node2&#45;&gt;Node1 -->
<g id="edge1" class="edge"><title>Node2&#45;&gt;Node1</title>
<path fill="none" stroke="midnightblue" d="M114.97,-521.188C164.201,-539.659 260.224,-571 345,-571 345,-571 345,-571 781,-571 996.394,-571 1009.68,-178.109 1010.08,-95.2331"/>
<polygon fill="midnightblue" stroke="midnightblue" points="116.071,-517.862 105.48,-517.568 113.576,-524.403 116.071,-517.862"/>
</g>
<!-- Node5 -->
<g id="node5" class="node"><title>Node5</title>
<g id="a_node5"><a xlink:href="../../d1/d93/classmars_1_1interfaces_1_1_graphics_manager_interface.html" target="_top" xlink:title="mars::interfaces::Graphics\lManagerInterface">
<polygon fill="white" stroke="black" points="280,-512 280,-542 412,-542 412,-512 280,-512"/>
<text text-anchor="start" x="288" y="-530" font-family="Helvetica,sans-Serif" font-size="10.00">mars::interfaces::Graphics</text>
<text text-anchor="middle" x="346" y="-519" font-family="Helvetica,sans-Serif" font-size="10.00">ManagerInterface</text>
</a>
</g>
</g>
<!-- Node2&#45;&gt;Node5 -->
<g id="edge5" class="edge"><title>Node2&#45;&gt;Node5</title>
<path fill="none" stroke="midnightblue" d="M125.223,-511.123C167.253,-514.159 231.637,-518.81 279.873,-522.295"/>
<polygon fill="midnightblue" stroke="midnightblue" points="125.269,-507.617 115.043,-510.387 124.765,-514.599 125.269,-507.617"/>
</g>
<!-- Node9 -->
<g id="node9" class="node"><title>Node9</title>
<g id="a_node9"><a xlink:href="../../d4/da6/classmars_1_1cfg__manager_1_1_c_f_g_manager_interface.html" target="_top" xlink:title="mars::cfg_manager::\lCFGManagerInterface">
<polygon fill="white" stroke="black" points="289.5,-463 289.5,-493 402.5,-493 402.5,-463 289.5,-463"/>
<text text-anchor="start" x="297.5" y="-481" font-family="Helvetica,sans-Serif" font-size="10.00">mars::cfg_manager::</text>
<text text-anchor="middle" x="346" y="-470" font-family="Helvetica,sans-Serif" font-size="10.00">CFGManagerInterface</text>
</a>
</g>
</g>
<!-- Node2&#45;&gt;Node9 -->
<g id="edge10" class="edge"><title>Node2&#45;&gt;Node9</title>
<path fill="none" stroke="midnightblue" d="M125.035,-503.091C169.881,-497.976 240.327,-489.94 289.371,-484.346"/>
<polygon fill="midnightblue" stroke="midnightblue" points="124.582,-499.62 115.043,-504.231 125.375,-506.575 124.582,-499.62"/>
</g>
<!-- Node10 -->
<g id="node10" class="node"><title>Node10</title>
<g id="a_node10"><a xlink:href="../../d6/d2e/classmars_1_1data__broker_1_1_data_broker_interface.html" target="_top" xlink:title="The interface every DataBroker should implement. ">
<polygon fill="white" stroke="black" points="294,-414 294,-444 398,-444 398,-414 294,-414"/>
<text text-anchor="start" x="302" y="-432" font-family="Helvetica,sans-Serif" font-size="10.00">mars::data_broker::</text>
<text text-anchor="middle" x="346" y="-421" font-family="Helvetica,sans-Serif" font-size="10.00">DataBrokerInterface</text>
</a>
</g>
</g>
<!-- Node2&#45;&gt;Node10 -->
<g id="edge12" class="edge"><title>Node2&#45;&gt;Node10</title>
<path fill="none" stroke="midnightblue" d="M123.449,-495.549C169.839,-481.615 244.998,-459.039 294.71,-444.106"/>
<polygon fill="midnightblue" stroke="midnightblue" points="122.294,-492.242 113.724,-498.471 124.308,-498.946 122.294,-492.242"/>
</g>
<!-- Node3 -->
<g id="node3" class="node"><title>Node3</title>
<g id="a_node3"><a xlink:href="../../d1/d70/classmars_1_1interfaces_1_1_plugin_interface.html" target="_top" xlink:title="The interface to load plugin dynamically into the simulation. ">
<polygon fill="white" stroke="black" points="720,-137 720,-167 840,-167 840,-137 720,-137"/>
<text text-anchor="start" x="728" y="-155" font-family="Helvetica,sans-Serif" font-size="10.00">mars::interfaces::Plugin</text>
<text text-anchor="middle" x="780" y="-144" font-family="Helvetica,sans-Serif" font-size="10.00">Interface</text>
</a>
</g>
</g>
<!-- Node3&#45;&gt;Node1 -->
<g id="edge2" class="edge"><title>Node3&#45;&gt;Node1</title>
<path fill="none" stroke="midnightblue" d="M838.644,-133.876C876.706,-121.909 926,-106.41 961.941,-95.1104"/>
<polygon fill="midnightblue" stroke="midnightblue" points="837.217,-130.656 828.727,-136.994 839.317,-137.334 837.217,-130.656"/>
</g>
<!-- Node4 -->
<g id="node4" class="node"><title>Node4</title>
<g id="a_node4"><a xlink:href="../../d7/d4e/classmars_1_1interfaces_1_1_control_center.html" target="_top" xlink:title="The declaration of the ControlCenter. ">
<polygon fill="white" stroke="black" points="524.5,-242 524.5,-272 649.5,-272 649.5,-242 524.5,-242"/>
<text text-anchor="start" x="532.5" y="-260" font-family="Helvetica,sans-Serif" font-size="10.00">mars::interfaces::Control</text>
<text text-anchor="middle" x="587" y="-249" font-family="Helvetica,sans-Serif" font-size="10.00">Center</text>
</a>
</g>
</g>
<!-- Node4&#45;&gt;Node3 -->
<g id="edge3" class="edge"><title>Node4&#45;&gt;Node3</title>
<path fill="none" stroke="#9a32cd" stroke-dasharray="5,2" d="M624.351,-237.016C661.465,-216.614 718.236,-185.404 751.685,-167.016"/>
<polygon fill="#9a32cd" stroke="#9a32cd" points="622.443,-234.071 615.366,-241.956 625.815,-240.206 622.443,-234.071"/>
<text text-anchor="middle" x="685" y="-214" font-family="Helvetica,sans-Serif" font-size="10.00"> control</text>
</g>
<!-- Node5&#45;&gt;Node4 -->
<g id="edge4" class="edge"><title>Node5&#45;&gt;Node4</title>
<path fill="none" stroke="#9a32cd" stroke-dasharray="5,2" d="M422.159,-516.871C451.475,-509.526 483.396,-496.856 506,-475 565.704,-417.271 581.124,-311.29 584.869,-272.093"/>
<polygon fill="#9a32cd" stroke="#9a32cd" points="421.277,-513.483 412.334,-519.163 422.868,-520.3 421.277,-513.483"/>
<text text-anchor="middle" x="474" y="-513" font-family="Helvetica,sans-Serif" font-size="10.00"> graphics</text>
</g>
<!-- Node6 -->
<g id="node6" class="node"><title>Node6</title>
<g id="a_node6"><a xlink:href="../../d2/da9/classmars_1_1interfaces_1_1_controller_manager_interface.html" target="_top" xlink:title="&quot;ControllerManagerInterface&quot; declares the interfaces for all controller operations that are used for ...">
<polygon fill="white" stroke="black" points="278.5,-365 278.5,-395 413.5,-395 413.5,-365 278.5,-365"/>
<text text-anchor="start" x="286.5" y="-383" font-family="Helvetica,sans-Serif" font-size="10.00">mars::interfaces::Controller</text>
<text text-anchor="middle" x="346" y="-372" font-family="Helvetica,sans-Serif" font-size="10.00">ManagerInterface</text>
</a>
</g>
</g>
<!-- Node6&#45;&gt;Node4 -->
<g id="edge6" class="edge"><title>Node6&#45;&gt;Node4</title>
<path fill="none" stroke="#9a32cd" stroke-dasharray="5,2" d="M404.762,-361.796C411.277,-359.58 417.798,-357.288 424,-355 461.014,-341.342 472.038,-341.077 506,-321 529.885,-306.88 554.367,-286.203 569.849,-272.204"/>
<polygon fill="#9a32cd" stroke="#9a32cd" points="403.629,-358.484 395.259,-364.979 405.853,-365.121 403.629,-358.484"/>
<text text-anchor="middle" x="474" y="-352" font-family="Helvetica,sans-Serif" font-size="10.00"> controllers</text>
</g>
<!-- Node7 -->
<g id="node7" class="node"><title>Node7</title>
<g id="a_node7"><a xlink:href="../../d6/d60/classmars_1_1interfaces_1_1_joint_manager_interface.html" target="_top" xlink:title="Interface class for the node organization. ">
<polygon fill="white" stroke="black" points="270,-316 270,-346 422,-346 422,-316 270,-316"/>
<text text-anchor="start" x="278" y="-334" font-family="Helvetica,sans-Serif" font-size="10.00">mars::interfaces::JointManager</text>
<text text-anchor="middle" x="346" y="-323" font-family="Helvetica,sans-Serif" font-size="10.00">Interface</text>
</a>
</g>
</g>
<!-- Node7&#45;&gt;Node4 -->
<g id="edge7" class="edge"><title>Node7&#45;&gt;Node4</title>
<path fill="none" stroke="#9a32cd" stroke-dasharray="5,2" d="M416,-313.338C444.088,-305.777 476.762,-296.507 506,-287 519.824,-282.505 534.788,-277.055 547.993,-272.04"/>
<polygon fill="#9a32cd" stroke="#9a32cd" points="415.026,-309.975 406.269,-315.939 416.834,-316.738 415.026,-309.975"/>
<text text-anchor="middle" x="474" y="-309" font-family="Helvetica,sans-Serif" font-size="10.00"> joints</text>
</g>
<!-- Node8 -->
<g id="node8" class="node"><title>Node8</title>
<g id="a_node8"><a xlink:href="../../df/d82/classmars_1_1interfaces_1_1_entity_manager_interface.html" target="_top" xlink:title="mars::interfaces::Entity\lManagerInterface">
<polygon fill="white" stroke="black" points="286.5,-267 286.5,-297 405.5,-297 405.5,-267 286.5,-267"/>
<text text-anchor="start" x="294.5" y="-285" font-family="Helvetica,sans-Serif" font-size="10.00">mars::interfaces::Entity</text>
<text text-anchor="middle" x="346" y="-274" font-family="Helvetica,sans-Serif" font-size="10.00">ManagerInterface</text>
</a>
</g>
</g>
<!-- Node8&#45;&gt;Node4 -->
<g id="edge8" class="edge"><title>Node8&#45;&gt;Node4</title>
<path fill="none" stroke="#9a32cd" stroke-dasharray="5,2" d="M416.126,-274.769C450.234,-271.201 491.043,-266.933 524.114,-263.473"/>
<polygon fill="#9a32cd" stroke="#9a32cd" points="415.354,-271.331 405.772,-275.852 416.082,-278.293 415.354,-271.331"/>
<text text-anchor="middle" x="474" y="-275" font-family="Helvetica,sans-Serif" font-size="10.00"> entities</text>
</g>
<!-- Node9&#45;&gt;Node4 -->
<g id="edge9" class="edge"><title>Node9&#45;&gt;Node4</title>
<path fill="none" stroke="#9a32cd" stroke-dasharray="5,2" d="M412.527,-468.937C443.849,-461.745 480.07,-448.898 506,-426 554.421,-383.241 575.904,-304.838 583.07,-272.044"/>
<polygon fill="#9a32cd" stroke="#9a32cd" points="411.591,-465.558 402.549,-471.079 413.06,-472.402 411.591,-465.558"/>
<text text-anchor="middle" x="474" y="-463" font-family="Helvetica,sans-Serif" font-size="10.00"> cfg</text>
</g>
<!-- Node10&#45;&gt;Node4 -->
<g id="edge11" class="edge"><title>Node10&#45;&gt;Node4</title>
<path fill="none" stroke="#9a32cd" stroke-dasharray="5,2" d="M407.731,-413.708C439.499,-403.486 477.579,-387.52 506,-364 538.343,-337.234 564.943,-294.828 577.752,-272.278"/>
<polygon fill="#9a32cd" stroke="#9a32cd" points="406.606,-410.392 398.092,-416.698 408.68,-417.078 406.606,-410.392"/>
<text text-anchor="middle" x="474" y="-414" font-family="Helvetica,sans-Serif" font-size="10.00"> dataBroker</text>
<text text-anchor="middle" x="474" y="-403" font-family="Helvetica,sans-Serif" font-size="10.00">theDataBroker</text>
</g>
<!-- Node11 -->
<g id="node11" class="node"><title>Node11</title>
<g id="a_node11"><a xlink:href="../../db/da9/classmars_1_1interfaces_1_1_sensor_manager_interface.html" target="_top" xlink:title="&quot;SensorManagerInterface&quot; declares the interfaces for all sensor operations that are used for the comm...">
<polygon fill="white" stroke="black" points="284,-218 284,-248 408,-248 408,-218 284,-218"/>
<text text-anchor="start" x="292" y="-236" font-family="Helvetica,sans-Serif" font-size="10.00">mars::interfaces::Sensor</text>
<text text-anchor="middle" x="346" y="-225" font-family="Helvetica,sans-Serif" font-size="10.00">ManagerInterface</text>
</a>
</g>
</g>
<!-- Node11&#45;&gt;Node4 -->
<g id="edge13" class="edge"><title>Node11&#45;&gt;Node4</title>
<path fill="none" stroke="#9a32cd" stroke-dasharray="5,2" d="M418.46,-240.176C452.075,-243.551 491.775,-247.538 524.09,-250.783"/>
<polygon fill="#9a32cd" stroke="#9a32cd" points="418.538,-236.666 408.238,-239.149 417.838,-243.631 418.538,-236.666"/>
<text text-anchor="middle" x="474" y="-252" font-family="Helvetica,sans-Serif" font-size="10.00"> sensors</text>
</g>
<!-- Node12 -->
<g id="node12" class="node"><title>Node12</title>
<g id="a_node12"><a xlink:href="../../db/de9/classmars_1_1interfaces_1_1_motor_manager_interface.html" target="_top" xlink:title="&quot;MotorManagerInterface&quot; declares the interfaces for all motor operations that are used for the commun...">
<polygon fill="white" stroke="black" points="268.5,-169 268.5,-199 423.5,-199 423.5,-169 268.5,-169"/>
<text text-anchor="start" x="276.5" y="-187" font-family="Helvetica,sans-Serif" font-size="10.00">mars::interfaces::MotorManager</text>
<text text-anchor="middle" x="346" y="-176" font-family="Helvetica,sans-Serif" font-size="10.00">Interface</text>
</a>
</g>
</g>
<!-- Node12&#45;&gt;Node4 -->
<g id="edge14" class="edge"><title>Node12&#45;&gt;Node4</title>
<path fill="none" stroke="#9a32cd" stroke-dasharray="5,2" d="M415.246,-201.636C443.483,-209.256 476.466,-218.576 506,-228 519.23,-232.221 533.53,-237.253 546.331,-241.93"/>
<polygon fill="#9a32cd" stroke="#9a32cd" points="416.036,-198.224 405.47,-199.014 414.222,-204.985 416.036,-198.224"/>
<text text-anchor="middle" x="474" y="-231" font-family="Helvetica,sans-Serif" font-size="10.00"> motors</text>
</g>
<!-- Node13 -->
<g id="node13" class="node"><title>Node13</title>
<g id="a_node13"><a xlink:href="../../d9/d6a/classmars_1_1interfaces_1_1_load_center.html" target="_top" xlink:title="mars::interfaces::LoadCenter">
<polygon fill="white" stroke="black" points="274.5,-130.5 274.5,-149.5 417.5,-149.5 417.5,-130.5 274.5,-130.5"/>
<text text-anchor="middle" x="346" y="-137.5" font-family="Helvetica,sans-Serif" font-size="10.00">mars::interfaces::LoadCenter</text>
</a>
</g>
</g>
<!-- Node13&#45;&gt;Node4 -->
<g id="edge15" class="edge"><title>Node13&#45;&gt;Node4</title>
<path fill="none" stroke="#9a32cd" stroke-dasharray="5,2" d="M401.088,-152.097C408.84,-154.191 416.667,-156.506 424,-159 461.683,-171.815 471.79,-174.656 506,-195 529.258,-208.831 553.484,-228.458 569.097,-241.903"/>
<polygon fill="#9a32cd" stroke="#9a32cd" points="401.913,-148.695 391.354,-149.564 400.15,-155.469 401.913,-148.695"/>
<text text-anchor="middle" x="474" y="-198" font-family="Helvetica,sans-Serif" font-size="10.00"> loadCenter</text>
</g>
<!-- Node14 -->
<g id="node14" class="node"><title>Node14</title>
<g id="a_node14"><a xlink:href="../../d1/d51/classmars_1_1interfaces_1_1_load_heightmap_interface.html" target="_top" xlink:title="mars::interfaces::LoadHeightmap\lInterface">
<polygon fill="white" stroke="black" points="0.5,-150 0.5,-180 161.5,-180 161.5,-150 0.5,-150"/>
<text text-anchor="start" x="8.5" y="-168" font-family="Helvetica,sans-Serif" font-size="10.00">mars::interfaces::LoadHeightmap</text>
<text text-anchor="middle" x="81" y="-157" font-family="Helvetica,sans-Serif" font-size="10.00">Interface</text>
</a>
</g>
</g>
<!-- Node14&#45;&gt;Node13 -->
<g id="edge16" class="edge"><title>Node14&#45;&gt;Node13</title>
<path fill="none" stroke="#9a32cd" stroke-dasharray="5,2" d="M171.85,-156.459C205.256,-153.284 242.661,-149.728 274.133,-146.736"/>
<polygon fill="#9a32cd" stroke="#9a32cd" points="171.246,-153.001 161.622,-157.431 171.909,-159.969 171.246,-153.001"/>
<text text-anchor="middle" x="215" y="-159" font-family="Helvetica,sans-Serif" font-size="10.00"> loadHeightmap</text>
</g>
<!-- Node15 -->
<g id="node15" class="node"><title>Node15</title>
<g id="a_node15"><a xlink:href="../../d7/d02/classmars_1_1interfaces_1_1_load_mesh_interface.html" target="_top" xlink:title="mars::interfaces::LoadMesh\lInterface">
<polygon fill="white" stroke="black" points="12,-101 12,-131 150,-131 150,-101 12,-101"/>
<text text-anchor="start" x="20" y="-119" font-family="Helvetica,sans-Serif" font-size="10.00">mars::interfaces::LoadMesh</text>
<text text-anchor="middle" x="81" y="-108" font-family="Helvetica,sans-Serif" font-size="10.00">Interface</text>
</a>
</g>
</g>
<!-- Node15&#45;&gt;Node13 -->
<g id="edge17" class="edge"><title>Node15&#45;&gt;Node13</title>
<path fill="none" stroke="#9a32cd" stroke-dasharray="5,2" d="M160.116,-123.128C196.387,-126.438 239.183,-130.344 274.462,-133.563"/>
<polygon fill="#9a32cd" stroke="#9a32cd" points="160.348,-119.635 150.071,-122.212 159.712,-126.606 160.348,-119.635"/>
<text text-anchor="middle" x="215" y="-134" font-family="Helvetica,sans-Serif" font-size="10.00"> loadMesh</text>
</g>
<!-- Node16 -->
<g id="node16" class="node"><title>Node16</title>
<g id="a_node16"><a xlink:href="../../d7/d4c/classmars_1_1interfaces_1_1_node_manager_interface.html" target="_top" xlink:title="&quot;NodeManagerInterface&quot; declares the interfaces for all NodeOperations that are used for the communica...">
<polygon fill="white" stroke="black" points="269,-81 269,-111 423,-111 423,-81 269,-81"/>
<text text-anchor="start" x="277" y="-99" font-family="Helvetica,sans-Serif" font-size="10.00">mars::interfaces::NodeManager</text>
<text text-anchor="middle" x="346" y="-88" font-family="Helvetica,sans-Serif" font-size="10.00">Interface</text>
</a>
</g>
</g>
<!-- Node16&#45;&gt;Node4 -->
<g id="edge18" class="edge"><title>Node16&#45;&gt;Node4</title>
<path fill="none" stroke="#9a32cd" stroke-dasharray="5,2" d="M429.132,-113.991C455.365,-122.357 483.423,-134.278 506,-151 539.719,-175.975 565.929,-219.015 578.263,-241.81"/>
<polygon fill="#9a32cd" stroke="#9a32cd" points="430.15,-110.642 419.563,-111.067 428.104,-117.336 430.15,-110.642"/>
<text text-anchor="middle" x="474" y="-154" font-family="Helvetica,sans-Serif" font-size="10.00"> nodes</text>
</g>
<!-- Node17 -->
<g id="node17" class="node"><title>Node17</title>
<g id="a_node17"><a xlink:href="../../dc/de5/classmars_1_1interfaces_1_1_simulator_interface.html" target="_top" xlink:title="mars::interfaces::Simulator\lInterface">
<polygon fill="white" stroke="black" points="279,-32 279,-62 413,-62 413,-32 279,-32"/>
<text text-anchor="start" x="287" y="-50" font-family="Helvetica,sans-Serif" font-size="10.00">mars::interfaces::Simulator</text>
<text text-anchor="middle" x="346" y="-39" font-family="Helvetica,sans-Serif" font-size="10.00">Interface</text>
</a>
</g>
</g>
<!-- Node17&#45;&gt;Node1 -->
<g id="edge21" class="edge"><title>Node17&#45;&gt;Node1</title>
<path fill="none" stroke="#9a32cd" stroke-dasharray="5,2" d="M423.549,-50.8101C553.322,-57.2694 814.594,-70.2739 939.876,-76.5097"/>
<polygon fill="#9a32cd" stroke="#9a32cd" points="423.462,-47.3016 413.3,-50.3 423.114,-54.2929 423.462,-47.3016"/>
<text text-anchor="middle" x="685" y="-68" font-family="Helvetica,sans-Serif" font-size="10.00"> mars</text>
</g>
<!-- Node17&#45;&gt;Node4 -->
<g id="edge19" class="edge"><title>Node17&#45;&gt;Node4</title>
<path fill="none" stroke="#9a32cd" stroke-dasharray="5,2" d="M422.72,-61.6655C451.504,-70.3344 482.892,-83.9135 506,-105 548.954,-144.197 572.888,-211.872 581.855,-241.899"/>
<polygon fill="#9a32cd" stroke="#9a32cd" points="423.651,-58.2914 413.074,-58.9101 421.728,-65.0222 423.651,-58.2914"/>
<text text-anchor="middle" x="474" y="-108" font-family="Helvetica,sans-Serif" font-size="10.00"> sim</text>
</g>
<!-- Node18 -->
<g id="node18" class="node"><title>Node18</title>
<polygon fill="white" stroke="#bfbfbf" points="759.5,-0.5 759.5,-19.5 800.5,-19.5 800.5,-0.5 759.5,-0.5"/>
<text text-anchor="middle" x="780" y="-7.5" font-family="Helvetica,sans-Serif" font-size="10.00">string</text>
</g>
<!-- Node18&#45;&gt;Node1 -->
<g id="edge20" class="edge"><title>Node18&#45;&gt;Node1</title>
<path fill="none" stroke="#9a32cd" stroke-dasharray="5,2" d="M810.82,-5.08344C840.028,-1.4878 885.36,0.797838 922,-12 952.44,-22.6322 980.614,-48.3303 996.525,-64.9134"/>
<polygon fill="#9a32cd" stroke="#9a32cd" points="810.272,-1.62571 800.835,-6.44191 811.215,-8.56182 810.272,-1.62571"/>
<text text-anchor="middle" x="890" y="-26" font-family="Helvetica,sans-Serif" font-size="10.00"> configPath</text>
<text text-anchor="middle" x="890" y="-15" font-family="Helvetica,sans-Serif" font-size="10.00">resourcesPath</text>
</g>
</g>
</svg>
