<?xml version="1.0" encoding="UTF-8" standalone="no"?>
<!DOCTYPE svg PUBLIC "-//W3C//DTD SVG 1.1//EN"
 "http://www.w3.org/Graphics/SVG/1.1/DTD/svg11.dtd">
<!-- Generated by graphviz version 2.26.3 (20100126.1600)
 -->
<!-- Title: mars::gui::MenuFile Pages: 1 -->
<svg width="938pt" height="583pt"
 viewBox="0.00 0.00 938.00 583.00" xmlns="http://www.w3.org/2000/svg" xmlns:xlink="http://www.w3.org/1999/xlink">
<g id="graph1" class="graph" transform="scale(1 1) rotate(0) translate(4 579)">
<title>mars::gui::MenuFile</title>
<polygon fill="white" stroke="white" points="-4,5 -4,-579 935,-579 935,5 -4,5"/>
<!-- Node1 -->
<g id="node1" class="node"><title>Node1</title>
<polygon fill="#bfbfbf" stroke="black" points="826.5,-456.5 826.5,-477.5 929.5,-477.5 929.5,-456.5 826.5,-456.5"/>
<text text-anchor="middle" x="878" y="-464.5" font-family="Helvetica,sans-Serif" font-size="10.00">mars::gui::MenuFile</text>
</g>
<!-- Node2 -->
<g id="node2" class="node"><title>Node2</title>
<a xlink:href="../../d3/d52/classmars_1_1main__gui_1_1_menu_interface.html" target="_top" xlink:title="Provides the menuAction function. ">
<polygon fill="white" stroke="black" points="604,-498.5 604,-519.5 756,-519.5 756,-498.5 604,-498.5"/>
<text text-anchor="middle" x="680" y="-506.5" font-family="Helvetica,sans-Serif" font-size="10.00">mars::main_gui::MenuInterface</text>
</a>
</g>
<!-- Node2&#45;&gt;Node1 -->
<g id="edge2" class="edge"><title>Node2&#45;&gt;Node1</title>
<path fill="none" stroke="midnightblue" d="M739.494,-496.38C767.825,-490.371 801.318,-483.266 828.271,-477.548"/>
<polygon fill="midnightblue" stroke="midnightblue" points="738.764,-492.957 729.708,-498.456 740.217,-499.805 738.764,-492.957"/>
</g>
<!-- Node3 -->
<g id="node4" class="node"><title>Node3</title>
<a xlink:href="../../d7/d4e/classmars_1_1interfaces_1_1_control_center.html" target="_top" xlink:title="The declaration of the ControlCenter. ">
<polygon fill="white" stroke="black" points="617.5,-274 617.5,-308 742.5,-308 742.5,-274 617.5,-274"/>
<text text-anchor="start" x="625.5" y="-295" font-family="Helvetica,sans-Serif" font-size="10.00">mars::interfaces::Control</text>
<text text-anchor="middle" x="680" y="-282" font-family="Helvetica,sans-Serif" font-size="10.00">Center</text>
</a>
</g>
<!-- Node3&#45;&gt;Node1 -->
<g id="edge4" class="edge"><title>Node3&#45;&gt;Node1</title>
<path fill="none" stroke="#9a32cd" stroke-dasharray="5,2" d="M706.976,-314.979C750.478,-353.648 834.418,-428.26 865.782,-456.14"/>
<polygon fill="#9a32cd" stroke="#9a32cd" points="709.145,-312.224 699.346,-308.196 704.494,-317.456 709.145,-312.224"/>
<text text-anchor="middle" x="791" y="-403" font-family="Helvetica,sans-Serif" font-size="10.00"> control</text>
</g>
<!-- Node4 -->
<g id="node6" class="node"><title>Node4</title>
<a xlink:href="../../d1/d93/classmars_1_1interfaces_1_1_graphics_manager_interface.html" target="_top" xlink:title="mars::interfaces::Graphics\lManagerInterface">
<polygon fill="white" stroke="black" points="280,-404 280,-438 412,-438 412,-404 280,-404"/>
<text text-anchor="start" x="288" y="-425" font-family="Helvetica,sans-Serif" font-size="10.00">mars::interfaces::Graphics</text>
<text text-anchor="middle" x="346" y="-412" font-family="Helvetica,sans-Serif" font-size="10.00">ManagerInterface</text>
</a>
</g>
<!-- Node4&#45;&gt;Node3 -->
<g id="edge6" class="edge"><title>Node4&#45;&gt;Node3</title>
<path fill="none" stroke="#9a32cd" stroke-dasharray="5,2" d="M422.238,-415.388C471.073,-409.439 534.679,-397.193 586,-372 618.101,-356.242 648.096,-326.862 665.218,-308.152"/>
<polygon fill="#9a32cd" stroke="#9a32cd" points="421.584,-411.941 412.051,-416.565 422.387,-418.894 421.584,-411.941"/>
<text text-anchor="middle" x="514" y="-415" font-family="Helvetica,sans-Serif" font-size="10.00"> graphics</text>
</g>
<!-- Node5 -->
<g id="node8" class="node"><title>Node5</title>
<polygon fill="white" stroke="#bfbfbf" points="47,-452.5 47,-473.5 115,-473.5 115,-452.5 47,-452.5"/>
<text text-anchor="middle" x="81" y="-460.5" font-family="Helvetica,sans-Serif" font-size="10.00">LibInterface</text>
</g>
<!-- Node5&#45;&gt;Node4 -->
<g id="edge8" class="edge"><title>Node5&#45;&gt;Node4</title>
<path fill="none" stroke="midnightblue" d="M125.064,-456.016C167.239,-449.332 231.411,-439.161 279.747,-431.5"/>
<polygon fill="midnightblue" stroke="midnightblue" points="124.43,-452.573 115.102,-457.595 125.526,-459.487 124.43,-452.573"/>
</g>
<!-- Node9 -->
<g id="node16" class="node"><title>Node9</title>
<a xlink:href="../../d4/da6/classmars_1_1cfg__manager_1_1_c_f_g_manager_interface.html" target="_top" xlink:title="mars::cfg_manager::\lCFGManagerInterface">
<polygon fill="white" stroke="black" points="289.5,-352 289.5,-386 402.5,-386 402.5,-352 289.5,-352"/>
<text text-anchor="start" x="297.5" y="-373" font-family="Helvetica,sans-Serif" font-size="10.00">mars::cfg_manager::</text>
<text text-anchor="middle" x="346" y="-360" font-family="Helvetica,sans-Serif" font-size="10.00">CFGManagerInterface</text>
</a>
</g>
<!-- Node5&#45;&gt;Node9 -->
<g id="edge18" class="edge"><title>Node5&#45;&gt;Node9</title>
<path fill="none" stroke="midnightblue" d="M118.993,-448.843C156.7,-434.874 216.194,-413.05 268,-395 276.492,-392.041 285.528,-388.964 294.327,-386.006"/>
<polygon fill="midnightblue" stroke="midnightblue" points="117.586,-445.632 109.428,-452.392 120.021,-452.195 117.586,-445.632"/>
</g>
<!-- Node10 -->
<g id="node19" class="node"><title>Node10</title>
<a xlink:href="../../d6/d2e/classmars_1_1data__broker_1_1_data_broker_interface.html" target="_top" xlink:title="The interface every DataBroker should implement. ">
<polygon fill="white" stroke="black" points="294,-508 294,-542 398,-542 398,-508 294,-508"/>
<text text-anchor="start" x="302" y="-529" font-family="Helvetica,sans-Serif" font-size="10.00">mars::data_broker::</text>
<text text-anchor="middle" x="346" y="-516" font-family="Helvetica,sans-Serif" font-size="10.00">DataBrokerInterface</text>
</a>
</g>
<!-- Node5&#45;&gt;Node10 -->
<g id="edge22" class="edge"><title>Node5&#45;&gt;Node10</title>
<path fill="none" stroke="midnightblue" d="M124.863,-473.262C171.262,-484.118 244.447,-501.24 293.788,-512.784"/>
<polygon fill="midnightblue" stroke="midnightblue" points="125.636,-469.849 115.102,-470.978 124.041,-476.665 125.636,-469.849"/>
</g>
<!-- Node18 -->
<g id="node36" class="node"><title>Node18</title>
<a xlink:href="../../d7/df2/classmars_1_1main__gui_1_1_gui_interface.html" target="_top" xlink:title="The abstract GuiInterface class provides the menu and docking functionality of the GUI...">
<polygon fill="white" stroke="black" points="442.5,-553.5 442.5,-574.5 585.5,-574.5 585.5,-553.5 442.5,-553.5"/>
<text text-anchor="middle" x="514" y="-561.5" font-family="Helvetica,sans-Serif" font-size="10.00">mars::main_gui::GuiInterface</text>
</a>
</g>
<!-- Node5&#45;&gt;Node18 -->
<g id="edge40" class="edge"><title>Node5&#45;&gt;Node18</title>
<path fill="none" stroke="midnightblue" d="M106.281,-478.81C141.15,-499.681 206.67,-535.58 268,-551 325.446,-565.443 392.737,-568.064 442.406,-567.426"/>
<polygon fill="midnightblue" stroke="midnightblue" points="108.057,-475.794 97.6917,-473.6 104.427,-481.779 108.057,-475.794"/>
</g>
<!-- Node6 -->
<g id="node10" class="node"><title>Node6</title>
<a xlink:href="../../d2/da9/classmars_1_1interfaces_1_1_controller_manager_interface.html" target="_top" xlink:title="&quot;ControllerManagerInterface&quot; declares the interfaces for all controller operations that are used for ...">
<polygon fill="white" stroke="black" points="278.5,-300 278.5,-334 413.5,-334 413.5,-300 278.5,-300"/>
<text text-anchor="start" x="286.5" y="-321" font-family="Helvetica,sans-Serif" font-size="10.00">mars::interfaces::Controller</text>
<text text-anchor="middle" x="346" y="-308" font-family="Helvetica,sans-Serif" font-size="10.00">ManagerInterface</text>
</a>
</g>
<!-- Node6&#45;&gt;Node3 -->
<g id="edge10" class="edge"><title>Node6&#45;&gt;Node3</title>
<path fill="none" stroke="#9a32cd" stroke-dasharray="5,2" d="M423.592,-310.96C482.491,-306.375 562.431,-300.152 617.309,-295.88"/>
<polygon fill="#9a32cd" stroke="#9a32cd" points="423.288,-307.473 413.59,-311.739 423.831,-314.452 423.288,-307.473"/>
<text text-anchor="middle" x="514" y="-313" font-family="Helvetica,sans-Serif" font-size="10.00"> controllers</text>
</g>
<!-- Node7 -->
<g id="node12" class="node"><title>Node7</title>
<a xlink:href="../../d6/d60/classmars_1_1interfaces_1_1_joint_manager_interface.html" target="_top" xlink:title="Interface class for the node organization. ">
<polygon fill="white" stroke="black" points="270,-248 270,-282 422,-282 422,-248 270,-248"/>
<text text-anchor="start" x="278" y="-269" font-family="Helvetica,sans-Serif" font-size="10.00">mars::interfaces::JointManager</text>
<text text-anchor="middle" x="346" y="-256" font-family="Helvetica,sans-Serif" font-size="10.00">Interface</text>
</a>
</g>
<!-- Node7&#45;&gt;Node3 -->
<g id="edge12" class="edge"><title>Node7&#45;&gt;Node3</title>
<path fill="none" stroke="#9a32cd" stroke-dasharray="5,2" d="M432.426,-269.936C478.12,-272.754 535.138,-276.601 586,-281 596.137,-281.877 606.878,-282.915 617.335,-283.986"/>
<polygon fill="#9a32cd" stroke="#9a32cd" points="432.456,-266.431 422.261,-269.315 432.029,-273.418 432.456,-266.431"/>
<text text-anchor="middle" x="514" y="-285" font-family="Helvetica,sans-Serif" font-size="10.00"> joints</text>
</g>
<!-- Node8 -->
<g id="node14" class="node"><title>Node8</title>
<a xlink:href="../../df/d82/classmars_1_1interfaces_1_1_entity_manager_interface.html" target="_top" xlink:title="mars::interfaces::Entity\lManagerInterface">
<polygon fill="white" stroke="black" points="286.5,-196 286.5,-230 405.5,-230 405.5,-196 286.5,-196"/>
<text text-anchor="start" x="294.5" y="-217" font-family="Helvetica,sans-Serif" font-size="10.00">mars::interfaces::Entity</text>
<text text-anchor="middle" x="346" y="-204" font-family="Helvetica,sans-Serif" font-size="10.00">ManagerInterface</text>
</a>
</g>
<!-- Node8&#45;&gt;Node3 -->
<g id="edge14" class="edge"><title>Node8&#45;&gt;Node3</title>
<path fill="none" stroke="#9a32cd" stroke-dasharray="5,2" d="M416.023,-220.561C464.371,-226.776 529.822,-237.17 586,-253 605.315,-258.443 626.068,-266.573 643.148,-273.919"/>
<polygon fill="#9a32cd" stroke="#9a32cd" points="416.333,-217.072 405.975,-219.297 415.46,-224.017 416.333,-217.072"/>
<text text-anchor="middle" x="514" y="-257" font-family="Helvetica,sans-Serif" font-size="10.00"> entities</text>
</g>
<!-- Node9&#45;&gt;Node3 -->
<g id="edge16" class="edge"><title>Node9&#45;&gt;Node3</title>
<path fill="none" stroke="#9a32cd" stroke-dasharray="5,2" d="M412.956,-360.288C461.494,-353.181 528.438,-341.736 586,-326 603.637,-321.178 622.62,-314.424 638.877,-308.133"/>
<polygon fill="#9a32cd" stroke="#9a32cd" points="412.286,-356.849 402.888,-361.739 413.285,-363.777 412.286,-356.849"/>
<text text-anchor="middle" x="514" y="-359" font-family="Helvetica,sans-Serif" font-size="10.00"> cfg</text>
</g>
<!-- Node10&#45;&gt;Node3 -->
<g id="edge20" class="edge"><title>Node10&#45;&gt;Node3</title>
<path fill="none" stroke="#9a32cd" stroke-dasharray="5,2" d="M408.193,-518.584C474.587,-511.239 572.16,-498.823 586,-488 602.32,-475.238 595.412,-463.854 604,-445 626.865,-394.805 656.373,-336.734 670.981,-308.383"/>
<polygon fill="#9a32cd" stroke="#9a32cd" points="407.79,-515.107 398.23,-519.675 408.551,-522.066 407.79,-515.107"/>
<text text-anchor="middle" x="514" y="-531" font-family="Helvetica,sans-Serif" font-size="10.00"> dataBroker</text>
<text text-anchor="middle" x="514" y="-518" font-family="Helvetica,sans-Serif" font-size="10.00">theDataBroker</text>
</g>
<!-- Node11 -->
<g id="node22" class="node"><title>Node11</title>
<a xlink:href="../../db/da9/classmars_1_1interfaces_1_1_sensor_manager_interface.html" target="_top" xlink:title="&quot;SensorManagerInterface&quot; declares the interfaces for all sensor operations that are used for the comm...">
<polygon fill="white" stroke="black" points="284,-144 284,-178 408,-178 408,-144 284,-144"/>
<text text-anchor="start" x="292" y="-165" font-family="Helvetica,sans-Serif" font-size="10.00">mars::interfaces::Sensor</text>
<text text-anchor="middle" x="346" y="-152" font-family="Helvetica,sans-Serif" font-size="10.00">ManagerInterface</text>
</a>
</g>
<!-- Node11&#45;&gt;Node3 -->
<g id="edge24" class="edge"><title>Node11&#45;&gt;Node3</title>
<path fill="none" stroke="#9a32cd" stroke-dasharray="5,2" d="M418.023,-164.717C467.442,-169.629 533.346,-180.957 586,-207 618.958,-223.301 649.141,-254.383 665.997,-273.825"/>
<polygon fill="#9a32cd" stroke="#9a32cd" points="418.334,-161.231 408.053,-163.79 417.686,-168.201 418.334,-161.231"/>
<text text-anchor="middle" x="514" y="-211" font-family="Helvetica,sans-Serif" font-size="10.00"> sensors</text>
</g>
<!-- Node12 -->
<g id="node24" class="node"><title>Node12</title>
<a xlink:href="../../db/de9/classmars_1_1interfaces_1_1_motor_manager_interface.html" target="_top" xlink:title="&quot;MotorManagerInterface&quot; declares the interfaces for all motor operations that are used for the commun...">
<polygon fill="white" stroke="black" points="268.5,-92 268.5,-126 423.5,-126 423.5,-92 268.5,-92"/>
<text text-anchor="start" x="276.5" y="-113" font-family="Helvetica,sans-Serif" font-size="10.00">mars::interfaces::MotorManager</text>
<text text-anchor="middle" x="346" y="-100" font-family="Helvetica,sans-Serif" font-size="10.00">Interface</text>
</a>
</g>
<!-- Node12&#45;&gt;Node3 -->
<g id="edge26" class="edge"><title>Node12&#45;&gt;Node3</title>
<path fill="none" stroke="#9a32cd" stroke-dasharray="5,2" d="M433.665,-107.982C482.006,-111.241 541.135,-121.838 586,-151 632.638,-181.315 661.827,-243.749 673.778,-273.927"/>
<polygon fill="#9a32cd" stroke="#9a32cd" points="433.709,-104.479 423.523,-107.394 433.303,-111.467 433.709,-104.479"/>
<text text-anchor="middle" x="514" y="-155" font-family="Helvetica,sans-Serif" font-size="10.00"> motors</text>
</g>
<!-- Node13 -->
<g id="node26" class="node"><title>Node13</title>
<a xlink:href="../../d9/d6a/classmars_1_1interfaces_1_1_load_center.html" target="_top" xlink:title="mars::interfaces::LoadCenter">
<polygon fill="white" stroke="black" points="274.5,-52.5 274.5,-73.5 417.5,-73.5 417.5,-52.5 274.5,-52.5"/>
<text text-anchor="middle" x="346" y="-60.5" font-family="Helvetica,sans-Serif" font-size="10.00">mars::interfaces::LoadCenter</text>
</a>
</g>
<!-- Node13&#45;&gt;Node3 -->
<g id="edge28" class="edge"><title>Node13&#45;&gt;Node3</title>
<path fill="none" stroke="#9a32cd" stroke-dasharray="5,2" d="M427.792,-54.0318C477.862,-52.8087 540.78,-59.383 586,-92 648.443,-137.04 670.824,-234.466 677.523,-273.907"/>
<polygon fill="#9a32cd" stroke="#9a32cd" points="427.506,-50.5395 417.636,-54.3896 427.753,-57.5352 427.506,-50.5395"/>
<text text-anchor="middle" x="514" y="-96" font-family="Helvetica,sans-Serif" font-size="10.00"> loadCenter</text>
</g>
<!-- Node14 -->
<g id="node28" class="node"><title>Node14</title>
<a xlink:href="../../d1/d51/classmars_1_1interfaces_1_1_load_heightmap_interface.html" target="_top" xlink:title="mars::interfaces::LoadHeightmap\lInterface">
<polygon fill="white" stroke="black" points="0.5,-72 0.5,-106 161.5,-106 161.5,-72 0.5,-72"/>
<text text-anchor="start" x="8.5" y="-93" font-family="Helvetica,sans-Serif" font-size="10.00">mars::interfaces::LoadHeightmap</text>
<text text-anchor="middle" x="81" y="-80" font-family="Helvetica,sans-Serif" font-size="10.00">Interface</text>
</a>
</g>
<!-- Node14&#45;&gt;Node13 -->
<g id="edge30" class="edge"><title>Node14&#45;&gt;Node13</title>
<path fill="none" stroke="#9a32cd" stroke-dasharray="5,2" d="M171.844,-80.087C205.335,-76.8011 242.778,-73.1274 274.339,-70.0309"/>
<polygon fill="#9a32cd" stroke="#9a32cd" points="171.198,-76.6334 161.588,-81.0932 171.882,-83.6 171.198,-76.6334"/>
<text text-anchor="middle" x="215" y="-84" font-family="Helvetica,sans-Serif" font-size="10.00"> loadHeightmap</text>
</g>
<!-- Node15 -->
<g id="node30" class="node"><title>Node15</title>
<a xlink:href="../../d7/d02/classmars_1_1interfaces_1_1_load_mesh_interface.html" target="_top" xlink:title="mars::interfaces::LoadMesh\lInterface">
<polygon fill="white" stroke="black" points="12,-20 12,-54 150,-54 150,-20 12,-20"/>
<text text-anchor="start" x="20" y="-41" font-family="Helvetica,sans-Serif" font-size="10.00">mars::interfaces::LoadMesh</text>
<text text-anchor="middle" x="81" y="-28" font-family="Helvetica,sans-Serif" font-size="10.00">Interface</text>
</a>
</g>
<!-- Node15&#45;&gt;Node13 -->
<g id="edge32" class="edge"><title>Node15&#45;&gt;Node13</title>
<path fill="none" stroke="#9a32cd" stroke-dasharray="5,2" d="M160.315,-44.7819C196.535,-48.3356 239.113,-52.5129 274.353,-55.9705"/>
<polygon fill="#9a32cd" stroke="#9a32cd" points="160.573,-41.2905 150.279,-43.7972 159.89,-48.257 160.573,-41.2905"/>
<text text-anchor="middle" x="215" y="-58" font-family="Helvetica,sans-Serif" font-size="10.00"> loadMesh</text>
</g>
<!-- Node16 -->
<g id="node32" class="node"><title>Node16</title>
<a xlink:href="../../d7/d4c/classmars_1_1interfaces_1_1_node_manager_interface.html" target="_top" xlink:title="&quot;NodeManagerInterface&quot; declares the interfaces for all NodeOperations that are used for the communica...">
<polygon fill="white" stroke="black" points="269,-0 269,-34 423,-34 423,-0 269,-0"/>
<text text-anchor="start" x="277" y="-21" font-family="Helvetica,sans-Serif" font-size="10.00">mars::interfaces::NodeManager</text>
<text text-anchor="middle" x="346" y="-8" font-family="Helvetica,sans-Serif" font-size="10.00">Interface</text>
</a>
</g>
<!-- Node16&#45;&gt;Node3 -->
<g id="edge34" class="edge"><title>Node16&#45;&gt;Node3</title>
<path fill="none" stroke="#9a32cd" stroke-dasharray="5,2" d="M433.303,-2.76366C482.788,0.426727 543.174,-4.46111 586,-37 625.686,-67.1531 664.106,-221.556 676.141,-273.741"/>
<polygon fill="#9a32cd" stroke="#9a32cd" points="432.945,0.719254 423.24,-3.53168 433.478,-6.26045 432.945,0.719254"/>
<text text-anchor="middle" x="514" y="-41" font-family="Helvetica,sans-Serif" font-size="10.00"> nodes</text>
</g>
<!-- Node17 -->
<g id="node34" class="node"><title>Node17</title>
<a xlink:href="../../dc/de5/classmars_1_1interfaces_1_1_simulator_interface.html" target="_top" xlink:title="mars::interfaces::Simulator\lInterface">
<polygon fill="white" stroke="black" points="279,-456 279,-490 413,-490 413,-456 279,-456"/>
<text text-anchor="start" x="287" y="-477" font-family="Helvetica,sans-Serif" font-size="10.00">mars::interfaces::Simulator</text>
<text text-anchor="middle" x="346" y="-464" font-family="Helvetica,sans-Serif" font-size="10.00">Interface</text>
</a>
</g>
<!-- Node17&#45;&gt;Node3 -->
<g id="edge36" class="edge"><title>Node17&#45;&gt;Node3</title>
<path fill="none" stroke="#9a32cd" stroke-dasharray="5,2" d="M423.303,-473.327C473.306,-470.149 537.815,-459.39 586,-428 631.679,-398.242 661.146,-337.751 673.441,-308.125"/>
<polygon fill="#9a32cd" stroke="#9a32cd" points="422.979,-469.839 413.185,-473.88 423.361,-476.829 422.979,-469.839"/>
<text text-anchor="middle" x="514" y="-475" font-family="Helvetica,sans-Serif" font-size="10.00"> sim</text>
</g>
<!-- Node18&#45;&gt;Node1 -->
<g id="edge38" class="edge"><title>Node18&#45;&gt;Node1</title>
<path fill="none" stroke="#9a32cd" stroke-dasharray="5,2" d="M581.927,-547.66C583.353,-546.519 584.715,-545.301 586,-544 607.971,-521.759 579.543,-495.473 604,-476 673.442,-420.709 787.126,-441.202 843.735,-456.404"/>
<polygon fill="#9a32cd" stroke="#9a32cd" points="579.611,-544.991 573.141,-553.382 583.431,-550.857 579.611,-544.991"/>
<text text-anchor="middle" x="680" y="-480" font-family="Helvetica,sans-Serif" font-size="10.00"> mainGui</text>
</g>
</g>
</svg>
