<?xml version="1.0" encoding="UTF-8" standalone="no"?>
<!DOCTYPE svg PUBLIC "-//W3C//DTD SVG 1.1//EN"
 "http://www.w3.org/Graphics/SVG/1.1/DTD/svg11.dtd">
<!-- Generated by graphviz version 2.36.0 (20140111.2315)
 -->
<!-- Title: mars::sim::ScanningSonar Pages: 1 -->
<svg width="1418pt" height="990pt"
 viewBox="0.00 0.00 1418.00 990.00" xmlns="http://www.w3.org/2000/svg" xmlns:xlink="http://www.w3.org/1999/xlink">
<g id="graph0" class="graph" transform="scale(1 1) rotate(0) translate(4 986)">
<title>mars::sim::ScanningSonar</title>
<polygon fill="white" stroke="none" points="-4,4 -4,-986 1414,-986 1414,4 -4,4"/>
<!-- Node1 -->
<g id="node1" class="node"><title>Node1</title>
<polygon fill="#bfbfbf" stroke="black" points="1278,-193.5 1278,-212.5 1410,-212.5 1410,-193.5 1278,-193.5"/>
<text text-anchor="middle" x="1344" y="-200.5" font-family="Helvetica,sans-Serif" font-size="10.00">mars::sim::ScanningSonar</text>
</g>
<!-- Node2 -->
<g id="node2" class="node"><title>Node2</title>
<g id="a_node2"><a xlink:href="../../d2/d04/classmars_1_1interfaces_1_1_base_camera_sensor.html" target="_top" xlink:title="mars::interfaces::BaseCamera\lSensor\&lt; double \&gt;">
<polygon fill="white" stroke="black" points="741,-400 741,-430 891,-430 891,-400 741,-400"/>
<text text-anchor="start" x="749" y="-418" font-family="Helvetica,sans-Serif" font-size="10.00">mars::interfaces::BaseCamera</text>
<text text-anchor="middle" x="816" y="-407" font-family="Helvetica,sans-Serif" font-size="10.00">Sensor&lt; double &gt;</text>
</a>
</g>
</g>
<!-- Node2&#45;&gt;Node1 -->
<g id="edge1" class="edge"><title>Node2&#45;&gt;Node1</title>
<path fill="none" stroke="midnightblue" d="M901.367,-403.909C979.407,-391.77 1097.56,-368.561 1194,-329 1224.91,-316.319 1233.66,-313.555 1260,-293 1292.01,-268.026 1322.46,-230.219 1335.85,-212.63"/>
<polygon fill="midnightblue" stroke="midnightblue" points="900.46,-400.507 891.103,-405.478 901.517,-407.427 900.46,-400.507"/>
</g>
<!-- Node3 -->
<g id="node3" class="node"><title>Node3</title>
<g id="a_node3"><a xlink:href="../../da/da3/classmars_1_1interfaces_1_1_base_array_sensor.html" target="_top" xlink:title="mars::interfaces::BaseArray\lSensor\&lt; double \&gt;">
<polygon fill="white" stroke="black" points="526.5,-355 526.5,-385 665.5,-385 665.5,-355 526.5,-355"/>
<text text-anchor="start" x="534.5" y="-373" font-family="Helvetica,sans-Serif" font-size="10.00">mars::interfaces::BaseArray</text>
<text text-anchor="middle" x="596" y="-362" font-family="Helvetica,sans-Serif" font-size="10.00">Sensor&lt; double &gt;</text>
</a>
</g>
</g>
<!-- Node3&#45;&gt;Node2 -->
<g id="edge2" class="edge"><title>Node3&#45;&gt;Node2</title>
<path fill="none" stroke="midnightblue" d="M675.525,-386.209C697.259,-390.696 720.75,-395.545 742.146,-399.961"/>
<polygon fill="midnightblue" stroke="midnightblue" points="676.178,-382.77 665.677,-384.177 674.763,-389.626 676.178,-382.77"/>
</g>
<!-- Node30 -->
<g id="node30" class="node"><title>Node30</title>
<g id="a_node30"><a xlink:href="../../d2/d93/classmars_1_1interfaces_1_1_base_polar_intersection_sensor.html" target="_top" xlink:title="mars::interfaces::BasePolar\lIntersectionSensor">
<polygon fill="white" stroke="black" points="747,-312 747,-342 885,-342 885,-312 747,-312"/>
<text text-anchor="start" x="755" y="-330" font-family="Helvetica,sans-Serif" font-size="10.00">mars::interfaces::BasePolar</text>
<text text-anchor="middle" x="816" y="-319" font-family="Helvetica,sans-Serif" font-size="10.00">IntersectionSensor</text>
</a>
</g>
</g>
<!-- Node3&#45;&gt;Node30 -->
<g id="edge35" class="edge"><title>Node3&#45;&gt;Node30</title>
<path fill="none" stroke="midnightblue" d="M675.516,-354.513C698.795,-349.921 724.09,-344.932 746.668,-340.478"/>
<polygon fill="midnightblue" stroke="midnightblue" points="674.811,-351.084 665.677,-356.454 676.166,-357.952 674.811,-351.084"/>
</g>
<!-- Node4 -->
<g id="node4" class="node"><title>Node4</title>
<polygon fill="white" stroke="#bfbfbf" points="60.5,-317.5 60.5,-336.5 101.5,-336.5 101.5,-317.5 60.5,-317.5"/>
<text text-anchor="middle" x="81" y="-324.5" font-family="Helvetica,sans-Serif" font-size="10.00">string</text>
</g>
<!-- Node4&#45;&gt;Node2 -->
<g id="edge3" class="edge"><title>Node4&#45;&gt;Node2</title>
<path fill="none" stroke="#9a32cd" stroke-dasharray="5,2" d="M111.774,-332.339C182.843,-344.903 368.096,-376.585 524,-394 597.621,-402.223 682.098,-407.905 741,-411.265"/>
<polygon fill="#9a32cd" stroke="#9a32cd" points="112.209,-328.862 101.751,-330.56 110.986,-335.754 112.209,-328.862"/>
<text text-anchor="middle" x="474" y="-395" font-family="Helvetica,sans-Serif" font-size="10.00"> name</text>
</g>
<!-- Node6 -->
<g id="node6" class="node"><title>Node6</title>
<g id="a_node6"><a xlink:href="../../da/d73/classmars_1_1interfaces_1_1_base_sensor.html" target="_top" xlink:title="mars::interfaces::BaseSensor">
<polygon fill="white" stroke="black" points="273,-271.5 273,-290.5 419,-290.5 419,-271.5 273,-271.5"/>
<text text-anchor="middle" x="346" y="-278.5" font-family="Helvetica,sans-Serif" font-size="10.00">mars::interfaces::BaseSensor</text>
</a>
</g>
</g>
<!-- Node4&#45;&gt;Node6 -->
<g id="edge6" class="edge"><title>Node4&#45;&gt;Node6</title>
<path fill="none" stroke="#9a32cd" stroke-dasharray="5,2" d="M111.474,-318.47C130.82,-313.122 156.753,-306.427 180,-302 210.211,-296.247 243.842,-291.646 272.819,-288.234"/>
<polygon fill="#9a32cd" stroke="#9a32cd" points="110.418,-315.131 101.735,-321.202 112.308,-321.871 110.418,-315.131"/>
<text text-anchor="middle" x="215" y="-305" font-family="Helvetica,sans-Serif" font-size="10.00"> name</text>
</g>
<!-- Node28 -->
<g id="node28" class="node"><title>Node28</title>
<g id="a_node28"><a xlink:href="../../d4/d5f/classmars_1_1interfaces_1_1_base_config.html" target="_top" xlink:title="mars::interfaces::BaseConfig">
<polygon fill="white" stroke="black" points="524,-316.5 524,-335.5 668,-335.5 668,-316.5 524,-316.5"/>
<text text-anchor="middle" x="596" y="-323.5" font-family="Helvetica,sans-Serif" font-size="10.00">mars::interfaces::BaseConfig</text>
</a>
</g>
</g>
<!-- Node4&#45;&gt;Node28 -->
<g id="edge31" class="edge"><title>Node4&#45;&gt;Node28</title>
<path fill="none" stroke="#9a32cd" stroke-dasharray="5,2" d="M112.096,-326.941C191.782,-326.786 409.919,-326.361 523.745,-326.139"/>
<polygon fill="#9a32cd" stroke="#9a32cd" points="111.789,-323.442 101.796,-326.961 111.803,-330.442 111.789,-323.442"/>
<text text-anchor="middle" x="346" y="-330" font-family="Helvetica,sans-Serif" font-size="10.00"> name</text>
</g>
<!-- Node5 -->
<g id="node5" class="node"><title>Node5</title>
<g id="a_node5"><a xlink:href="../../da/d0c/classmars_1_1interfaces_1_1_base_node_sensor.html" target="_top" xlink:title="mars::interfaces::BaseNode\lSensor">
<polygon fill="white" stroke="black" points="526.5,-266 526.5,-296 665.5,-296 665.5,-266 526.5,-266"/>
<text text-anchor="start" x="534.5" y="-284" font-family="Helvetica,sans-Serif" font-size="10.00">mars::interfaces::BaseNode</text>
<text text-anchor="middle" x="596" y="-273" font-family="Helvetica,sans-Serif" font-size="10.00">Sensor</text>
</a>
</g>
</g>
<!-- Node5&#45;&gt;Node1 -->
<g id="edge4" class="edge"><title>Node5&#45;&gt;Node1</title>
<path fill="none" stroke="midnightblue" d="M620.231,-258.939C646.487,-235.563 691.637,-199.88 738,-184 943.792,-113.512 1212.34,-169.439 1307.61,-193.431"/>
<polygon fill="midnightblue" stroke="midnightblue" points="617.764,-256.452 612.709,-265.763 622.467,-261.636 617.764,-256.452"/>
</g>
<!-- Node5&#45;&gt;Node30 -->
<g id="edge34" class="edge"><title>Node5&#45;&gt;Node30</title>
<path fill="none" stroke="midnightblue" d="M675.516,-297.568C698.795,-302.48 724.09,-307.817 746.668,-312.581"/>
<polygon fill="midnightblue" stroke="midnightblue" points="676.185,-294.132 665.677,-295.492 674.739,-300.981 676.185,-294.132"/>
</g>
<!-- Node6&#45;&gt;Node5 -->
<g id="edge5" class="edge"><title>Node6&#45;&gt;Node5</title>
<path fill="none" stroke="midnightblue" d="M429.12,-281C460.568,-281 496.088,-281 526.168,-281"/>
<polygon fill="midnightblue" stroke="midnightblue" points="429.065,-277.5 419.065,-281 429.065,-284.5 429.065,-277.5"/>
</g>
<!-- Node7 -->
<g id="node7" class="node"><title>Node7</title>
<g id="a_node7"><a xlink:href="../../d3/d21/classmars_1_1interfaces_1_1_sensor_interface.html" target="_top" xlink:title="mars::interfaces::Sensor\lInterface">
<polygon fill="white" stroke="black" points="754,-449 754,-479 878,-479 878,-449 754,-449"/>
<text text-anchor="start" x="762" y="-467" font-family="Helvetica,sans-Serif" font-size="10.00">mars::interfaces::Sensor</text>
<text text-anchor="middle" x="816" y="-456" font-family="Helvetica,sans-Serif" font-size="10.00">Interface</text>
</a>
</g>
</g>
<!-- Node7&#45;&gt;Node1 -->
<g id="edge7" class="edge"><title>Node7&#45;&gt;Node1</title>
<path fill="none" stroke="midnightblue" d="M888.151,-451.933C965.623,-437.253 1092.09,-408.74 1194,-364 1225.84,-350.024 1234.9,-346.06 1260,-322 1296.37,-287.139 1326.57,-234.117 1338.04,-212.587"/>
<polygon fill="midnightblue" stroke="midnightblue" points="887.206,-448.549 878.019,-453.826 888.492,-455.429 887.206,-448.549"/>
</g>
<!-- Node29 -->
<g id="node29" class="node"><title>Node29</title>
<g id="a_node29"><a xlink:href="../../d3/dde/classmars_1_1sim_1_1_ray_sensor.html" target="_top" xlink:title="mars::sim::RaySensor">
<polygon fill="white" stroke="black" points="1070.5,-300.5 1070.5,-319.5 1185.5,-319.5 1185.5,-300.5 1070.5,-300.5"/>
<text text-anchor="middle" x="1128" y="-307.5" font-family="Helvetica,sans-Serif" font-size="10.00">mars::sim::RaySensor</text>
</a>
</g>
</g>
<!-- Node7&#45;&gt;Node29 -->
<g id="edge36" class="edge"><title>Node7&#45;&gt;Node29</title>
<path fill="none" stroke="midnightblue" d="M875.823,-445.617C881.993,-443.476 888.146,-441.251 894,-439 962.152,-412.8 981.033,-408.963 1044,-372 1071.3,-355.975 1100.29,-332.679 1115.75,-319.685"/>
<polygon fill="midnightblue" stroke="midnightblue" points="874.496,-442.371 866.154,-448.903 876.749,-448.999 874.496,-442.371"/>
</g>
<!-- Node8 -->
<g id="node8" class="node"><title>Node8</title>
<g id="a_node8"><a xlink:href="../../d7/d4e/classmars_1_1interfaces_1_1_control_center.html" target="_top" xlink:title="The declaration of the ControlCenter. ">
<polygon fill="white" stroke="black" points="533.5,-663 533.5,-693 658.5,-693 658.5,-663 533.5,-663"/>
<text text-anchor="start" x="541.5" y="-681" font-family="Helvetica,sans-Serif" font-size="10.00">mars::interfaces::Control</text>
<text text-anchor="middle" x="596" y="-670" font-family="Helvetica,sans-Serif" font-size="10.00">Center</text>
</a>
</g>
</g>
<!-- Node8&#45;&gt;Node7 -->
<g id="edge8" class="edge"><title>Node8&#45;&gt;Node7</title>
<path fill="none" stroke="#9a32cd" stroke-dasharray="5,2" d="M619.478,-655.934C663.893,-612.334 761.868,-516.157 799.688,-479.031"/>
<polygon fill="#9a32cd" stroke="#9a32cd" points="617.014,-653.449 612.329,-662.952 621.917,-658.444 617.014,-653.449"/>
<text text-anchor="middle" x="703" y="-594" font-family="Helvetica,sans-Serif" font-size="10.00"> control</text>
</g>
<!-- Node9 -->
<g id="node9" class="node"><title>Node9</title>
<g id="a_node9"><a xlink:href="../../d1/d93/classmars_1_1interfaces_1_1_graphics_manager_interface.html" target="_top" xlink:title="mars::interfaces::Graphics\lManagerInterface">
<polygon fill="white" stroke="black" points="280,-688 280,-718 412,-718 412,-688 280,-688"/>
<text text-anchor="start" x="288" y="-706" font-family="Helvetica,sans-Serif" font-size="10.00">mars::interfaces::Graphics</text>
<text text-anchor="middle" x="346" y="-695" font-family="Helvetica,sans-Serif" font-size="10.00">ManagerInterface</text>
</a>
</g>
</g>
<!-- Node9&#45;&gt;Node8 -->
<g id="edge9" class="edge"><title>Node9&#45;&gt;Node8</title>
<path fill="none" stroke="#9a32cd" stroke-dasharray="5,2" d="M422.467,-695.392C457.942,-691.816 499.71,-687.606 533.263,-684.223"/>
<polygon fill="#9a32cd" stroke="#9a32cd" points="421.758,-691.946 412.159,-696.432 422.46,-698.911 421.758,-691.946"/>
<text text-anchor="middle" x="474" y="-695" font-family="Helvetica,sans-Serif" font-size="10.00"> graphics</text>
</g>
<!-- Node10 -->
<g id="node10" class="node"><title>Node10</title>
<polygon fill="white" stroke="#bfbfbf" points="47,-742.5 47,-761.5 115,-761.5 115,-742.5 47,-742.5"/>
<text text-anchor="middle" x="81" y="-749.5" font-family="Helvetica,sans-Serif" font-size="10.00">LibInterface</text>
</g>
<!-- Node10&#45;&gt;Node9 -->
<g id="edge10" class="edge"><title>Node10&#45;&gt;Node9</title>
<path fill="none" stroke="midnightblue" d="M124.956,-743.997C166.98,-736.167 231.535,-724.14 279.873,-715.134"/>
<polygon fill="midnightblue" stroke="midnightblue" points="124.233,-740.571 115.043,-745.844 125.515,-747.453 124.233,-740.571"/>
</g>
<!-- Node14 -->
<g id="node14" class="node"><title>Node14</title>
<g id="a_node14"><a xlink:href="../../d4/da6/classmars_1_1cfg__manager_1_1_c_f_g_manager_interface.html" target="_top" xlink:title="mars::cfg_manager::\lCFGManagerInterface">
<polygon fill="white" stroke="black" points="289.5,-786 289.5,-816 402.5,-816 402.5,-786 289.5,-786"/>
<text text-anchor="start" x="297.5" y="-804" font-family="Helvetica,sans-Serif" font-size="10.00">mars::cfg_manager::</text>
<text text-anchor="middle" x="346" y="-793" font-family="Helvetica,sans-Serif" font-size="10.00">CFGManagerInterface</text>
</a>
</g>
</g>
<!-- Node10&#45;&gt;Node14 -->
<g id="edge15" class="edge"><title>Node10&#45;&gt;Node14</title>
<path fill="none" stroke="midnightblue" d="M125.035,-760.018C169.881,-768.373 240.327,-781.498 289.371,-790.636"/>
<polygon fill="midnightblue" stroke="midnightblue" points="125.515,-756.547 115.043,-758.156 124.233,-763.429 125.515,-756.547"/>
</g>
<!-- Node15 -->
<g id="node15" class="node"><title>Node15</title>
<g id="a_node15"><a xlink:href="../../d6/d2e/classmars_1_1data__broker_1_1_data_broker_interface.html" target="_top" xlink:title="The interface every DataBroker should implement. ">
<polygon fill="white" stroke="black" points="294,-737 294,-767 398,-767 398,-737 294,-737"/>
<text text-anchor="start" x="302" y="-755" font-family="Helvetica,sans-Serif" font-size="10.00">mars::data_broker::</text>
<text text-anchor="middle" x="346" y="-744" font-family="Helvetica,sans-Serif" font-size="10.00">DataBrokerInterface</text>
</a>
</g>
</g>
<!-- Node10&#45;&gt;Node15 -->
<g id="edge17" class="edge"><title>Node10&#45;&gt;Node15</title>
<path fill="none" stroke="midnightblue" d="M125.333,-752C171.569,-752 244.768,-752 293.812,-752"/>
<polygon fill="midnightblue" stroke="midnightblue" points="125.043,-748.5 115.043,-752 125.043,-755.5 125.043,-748.5"/>
</g>
<!-- Node11 -->
<g id="node11" class="node"><title>Node11</title>
<g id="a_node11"><a xlink:href="../../d2/da9/classmars_1_1interfaces_1_1_controller_manager_interface.html" target="_top" xlink:title="&quot;ControllerManagerInterface&quot; declares the interfaces for all controller operations that are used for ...">
<polygon fill="white" stroke="black" points="278.5,-639 278.5,-669 413.5,-669 413.5,-639 278.5,-639"/>
<text text-anchor="start" x="286.5" y="-657" font-family="Helvetica,sans-Serif" font-size="10.00">mars::interfaces::Controller</text>
<text text-anchor="middle" x="346" y="-646" font-family="Helvetica,sans-Serif" font-size="10.00">ManagerInterface</text>
</a>
</g>
</g>
<!-- Node11&#45;&gt;Node8 -->
<g id="edge11" class="edge"><title>Node11&#45;&gt;Node8</title>
<path fill="none" stroke="#9a32cd" stroke-dasharray="5,2" d="M423.885,-656.637C450,-657.988 479.318,-660.006 506,-663 514.876,-663.996 524.211,-665.292 533.362,-666.705"/>
<polygon fill="#9a32cd" stroke="#9a32cd" points="423.828,-653.13 413.668,-656.133 423.483,-660.121 423.828,-653.13"/>
<text text-anchor="middle" x="474" y="-666" font-family="Helvetica,sans-Serif" font-size="10.00"> controllers</text>
</g>
<!-- Node12 -->
<g id="node12" class="node"><title>Node12</title>
<g id="a_node12"><a xlink:href="../../d6/d60/classmars_1_1interfaces_1_1_joint_manager_interface.html" target="_top" xlink:title="Interface class for the node organization. ">
<polygon fill="white" stroke="black" points="270,-590 270,-620 422,-620 422,-590 270,-590"/>
<text text-anchor="start" x="278" y="-608" font-family="Helvetica,sans-Serif" font-size="10.00">mars::interfaces::JointManager</text>
<text text-anchor="middle" x="346" y="-597" font-family="Helvetica,sans-Serif" font-size="10.00">Interface</text>
</a>
</g>
</g>
<!-- Node12&#45;&gt;Node8 -->
<g id="edge12" class="edge"><title>Node12&#45;&gt;Node8</title>
<path fill="none" stroke="#9a32cd" stroke-dasharray="5,2" d="M431.921,-622.188C456.068,-627.768 482.251,-634.484 506,-642 524.592,-647.884 544.78,-655.909 561.222,-662.889"/>
<polygon fill="#9a32cd" stroke="#9a32cd" points="432.595,-618.752 422.068,-619.947 431.043,-625.578 432.595,-618.752"/>
<text text-anchor="middle" x="474" y="-645" font-family="Helvetica,sans-Serif" font-size="10.00"> joints</text>
</g>
<!-- Node13 -->
<g id="node13" class="node"><title>Node13</title>
<g id="a_node13"><a xlink:href="../../df/d82/classmars_1_1interfaces_1_1_entity_manager_interface.html" target="_top" xlink:title="mars::interfaces::Entity\lManagerInterface">
<polygon fill="white" stroke="black" points="286.5,-541 286.5,-571 405.5,-571 405.5,-541 286.5,-541"/>
<text text-anchor="start" x="294.5" y="-559" font-family="Helvetica,sans-Serif" font-size="10.00">mars::interfaces::Entity</text>
<text text-anchor="middle" x="346" y="-548" font-family="Helvetica,sans-Serif" font-size="10.00">ManagerInterface</text>
</a>
</g>
</g>
<!-- Node13&#45;&gt;Node8 -->
<g id="edge13" class="edge"><title>Node13&#45;&gt;Node8</title>
<path fill="none" stroke="#9a32cd" stroke-dasharray="5,2" d="M405.965,-574.056C412.069,-576.022 418.168,-578.026 424,-580 460.758,-592.444 471.973,-591.341 506,-610 533.28,-624.959 561.226,-647.782 578.349,-662.795"/>
<polygon fill="#9a32cd" stroke="#9a32cd" points="406.998,-570.712 396.408,-571.009 404.872,-577.382 406.998,-570.712"/>
<text text-anchor="middle" x="474" y="-613" font-family="Helvetica,sans-Serif" font-size="10.00"> entities</text>
</g>
<!-- Node14&#45;&gt;Node8 -->
<g id="edge14" class="edge"><title>Node14&#45;&gt;Node8</title>
<path fill="none" stroke="#9a32cd" stroke-dasharray="5,2" d="M412.573,-785.854C442.151,-777.56 476.898,-765.721 506,-750 534.677,-734.508 563.137,-709.317 579.889,-693.211"/>
<polygon fill="#9a32cd" stroke="#9a32cd" points="411.483,-782.523 402.756,-788.531 413.325,-789.276 411.483,-782.523"/>
<text text-anchor="middle" x="474" y="-779" font-family="Helvetica,sans-Serif" font-size="10.00"> cfg</text>
</g>
<!-- Node15&#45;&gt;Node8 -->
<g id="edge16" class="edge"><title>Node15&#45;&gt;Node8</title>
<path fill="none" stroke="#9a32cd" stroke-dasharray="5,2" d="M408.135,-735.301C437.766,-727.054 473.821,-716.792 506,-707 520.303,-702.647 535.82,-697.678 549.832,-693.097"/>
<polygon fill="#9a32cd" stroke="#9a32cd" points="407.048,-731.971 398.348,-738.017 408.919,-738.716 407.048,-731.971"/>
<text text-anchor="middle" x="474" y="-738" font-family="Helvetica,sans-Serif" font-size="10.00"> dataBroker</text>
<text text-anchor="middle" x="474" y="-727" font-family="Helvetica,sans-Serif" font-size="10.00">theDataBroker</text>
</g>
<!-- Node16 -->
<g id="node16" class="node"><title>Node16</title>
<g id="a_node16"><a xlink:href="../../db/da9/classmars_1_1interfaces_1_1_sensor_manager_interface.html" target="_top" xlink:title="&quot;SensorManagerInterface&quot; declares the interfaces for all sensor operations that are used for the comm...">
<polygon fill="white" stroke="black" points="284,-492 284,-522 408,-522 408,-492 284,-492"/>
<text text-anchor="start" x="292" y="-510" font-family="Helvetica,sans-Serif" font-size="10.00">mars::interfaces::Sensor</text>
<text text-anchor="middle" x="346" y="-499" font-family="Helvetica,sans-Serif" font-size="10.00">ManagerInterface</text>
</a>
</g>
</g>
<!-- Node16&#45;&gt;Node8 -->
<g id="edge18" class="edge"><title>Node16&#45;&gt;Node8</title>
<path fill="none" stroke="#9a32cd" stroke-dasharray="5,2" d="M414.384,-525.21C444.5,-535.59 479.171,-550.831 506,-572 540.145,-598.94 570.497,-640.774 585.351,-662.974"/>
<polygon fill="#9a32cd" stroke="#9a32cd" points="415.376,-521.852 404.782,-522.01 413.162,-528.493 415.376,-521.852"/>
<text text-anchor="middle" x="474" y="-575" font-family="Helvetica,sans-Serif" font-size="10.00"> sensors</text>
</g>
<!-- Node17 -->
<g id="node17" class="node"><title>Node17</title>
<g id="a_node17"><a xlink:href="../../db/de9/classmars_1_1interfaces_1_1_motor_manager_interface.html" target="_top" xlink:title="&quot;MotorManagerInterface&quot; declares the interfaces for all motor operations that are used for the commun...">
<polygon fill="white" stroke="black" points="268.5,-443 268.5,-473 423.5,-473 423.5,-443 268.5,-443"/>
<text text-anchor="start" x="276.5" y="-461" font-family="Helvetica,sans-Serif" font-size="10.00">mars::interfaces::MotorManager</text>
<text text-anchor="middle" x="346" y="-450" font-family="Helvetica,sans-Serif" font-size="10.00">Interface</text>
</a>
</g>
</g>
<!-- Node17&#45;&gt;Node8 -->
<g id="edge19" class="edge"><title>Node17&#45;&gt;Node8</title>
<path fill="none" stroke="#9a32cd" stroke-dasharray="5,2" d="M422.742,-476.315C451.529,-486.296 482.913,-501.205 506,-523 550,-564.537 578.608,-632.728 589.743,-662.867"/>
<polygon fill="#9a32cd" stroke="#9a32cd" points="423.688,-472.942 413.094,-473.117 421.485,-479.586 423.688,-472.942"/>
<text text-anchor="middle" x="474" y="-526" font-family="Helvetica,sans-Serif" font-size="10.00"> motors</text>
</g>
<!-- Node18 -->
<g id="node18" class="node"><title>Node18</title>
<g id="a_node18"><a xlink:href="../../d9/d6a/classmars_1_1interfaces_1_1_load_center.html" target="_top" xlink:title="mars::interfaces::LoadCenter">
<polygon fill="white" stroke="black" points="274.5,-933.5 274.5,-952.5 417.5,-952.5 417.5,-933.5 274.5,-933.5"/>
<text text-anchor="middle" x="346" y="-940.5" font-family="Helvetica,sans-Serif" font-size="10.00">mars::interfaces::LoadCenter</text>
</a>
</g>
</g>
<!-- Node18&#45;&gt;Node8 -->
<g id="edge20" class="edge"><title>Node18&#45;&gt;Node8</title>
<path fill="none" stroke="#9a32cd" stroke-dasharray="5,2" d="M427.457,-931.145C455.336,-923.469 484.863,-910.825 506,-890 564.291,-832.569 586.297,-731.172 592.751,-693.051"/>
<polygon fill="#9a32cd" stroke="#9a32cd" points="426.494,-927.779 417.681,-933.658 428.237,-934.558 426.494,-927.779"/>
<text text-anchor="middle" x="474" y="-929" font-family="Helvetica,sans-Serif" font-size="10.00"> loadCenter</text>
</g>
<!-- Node19 -->
<g id="node19" class="node"><title>Node19</title>
<g id="a_node19"><a xlink:href="../../d1/d51/classmars_1_1interfaces_1_1_load_heightmap_interface.html" target="_top" xlink:title="mars::interfaces::LoadHeightmap\lInterface">
<polygon fill="white" stroke="black" points="0.5,-952 0.5,-982 161.5,-982 161.5,-952 0.5,-952"/>
<text text-anchor="start" x="8.5" y="-970" font-family="Helvetica,sans-Serif" font-size="10.00">mars::interfaces::LoadHeightmap</text>
<text text-anchor="middle" x="81" y="-959" font-family="Helvetica,sans-Serif" font-size="10.00">Interface</text>
</a>
</g>
</g>
<!-- Node19&#45;&gt;Node18 -->
<g id="edge21" class="edge"><title>Node19&#45;&gt;Node18</title>
<path fill="none" stroke="#9a32cd" stroke-dasharray="5,2" d="M171.85,-958.801C205.256,-955.752 242.661,-952.339 274.133,-949.467"/>
<polygon fill="#9a32cd" stroke="#9a32cd" points="171.263,-955.34 161.622,-959.734 171.899,-962.311 171.263,-955.34"/>
<text text-anchor="middle" x="215" y="-960" font-family="Helvetica,sans-Serif" font-size="10.00"> loadHeightmap</text>
</g>
<!-- Node20 -->
<g id="node20" class="node"><title>Node20</title>
<g id="a_node20"><a xlink:href="../../d7/d02/classmars_1_1interfaces_1_1_load_mesh_interface.html" target="_top" xlink:title="mars::interfaces::LoadMesh\lInterface">
<polygon fill="white" stroke="black" points="12,-903 12,-933 150,-933 150,-903 12,-903"/>
<text text-anchor="start" x="20" y="-921" font-family="Helvetica,sans-Serif" font-size="10.00">mars::interfaces::LoadMesh</text>
<text text-anchor="middle" x="81" y="-910" font-family="Helvetica,sans-Serif" font-size="10.00">Interface</text>
</a>
</g>
</g>
<!-- Node20&#45;&gt;Node18 -->
<g id="edge22" class="edge"><title>Node20&#45;&gt;Node18</title>
<path fill="none" stroke="#9a32cd" stroke-dasharray="5,2" d="M160.116,-925.426C196.387,-928.873 239.183,-932.941 274.462,-936.295"/>
<polygon fill="#9a32cd" stroke="#9a32cd" points="160.357,-921.933 150.071,-924.471 159.695,-928.901 160.357,-921.933"/>
<text text-anchor="middle" x="215" y="-936" font-family="Helvetica,sans-Serif" font-size="10.00"> loadMesh</text>
</g>
<!-- Node21 -->
<g id="node21" class="node"><title>Node21</title>
<g id="a_node21"><a xlink:href="../../d7/d4c/classmars_1_1interfaces_1_1_node_manager_interface.html" target="_top" xlink:title="&quot;NodeManagerInterface&quot; declares the interfaces for all NodeOperations that are used for the communica...">
<polygon fill="white" stroke="black" points="269,-884 269,-914 423,-914 423,-884 269,-884"/>
<text text-anchor="start" x="277" y="-902" font-family="Helvetica,sans-Serif" font-size="10.00">mars::interfaces::NodeManager</text>
<text text-anchor="middle" x="346" y="-891" font-family="Helvetica,sans-Serif" font-size="10.00">Interface</text>
</a>
</g>
</g>
<!-- Node21&#45;&gt;Node8 -->
<g id="edge23" class="edge"><title>Node21&#45;&gt;Node8</title>
<path fill="none" stroke="#9a32cd" stroke-dasharray="5,2" d="M427.659,-880.875C454.982,-871.614 484.094,-857.939 506,-838 552.073,-796.064 579.767,-724.553 590.218,-693.336"/>
<polygon fill="#9a32cd" stroke="#9a32cd" points="426.523,-877.563 418.084,-883.969 428.675,-884.224 426.523,-877.563"/>
<text text-anchor="middle" x="474" y="-878" font-family="Helvetica,sans-Serif" font-size="10.00"> nodes</text>
</g>
<!-- Node22 -->
<g id="node22" class="node"><title>Node22</title>
<g id="a_node22"><a xlink:href="../../dc/de5/classmars_1_1interfaces_1_1_simulator_interface.html" target="_top" xlink:title="mars::interfaces::Simulator\lInterface">
<polygon fill="white" stroke="black" points="279,-835 279,-865 413,-865 413,-835 279,-835"/>
<text text-anchor="start" x="287" y="-853" font-family="Helvetica,sans-Serif" font-size="10.00">mars::interfaces::Simulator</text>
<text text-anchor="middle" x="346" y="-842" font-family="Helvetica,sans-Serif" font-size="10.00">Interface</text>
</a>
</g>
</g>
<!-- Node22&#45;&gt;Node8 -->
<g id="edge24" class="edge"><title>Node22&#45;&gt;Node8</title>
<path fill="none" stroke="#9a32cd" stroke-dasharray="5,2" d="M422.612,-831.913C450.649,-822.75 481.543,-809.529 506,-791 542.625,-763.252 572.579,-717.016 586.531,-693.203"/>
<polygon fill="#9a32cd" stroke="#9a32cd" points="421.32,-828.65 412.829,-834.987 423.419,-835.329 421.32,-828.65"/>
<text text-anchor="middle" x="474" y="-826" font-family="Helvetica,sans-Serif" font-size="10.00"> sim</text>
</g>
<!-- Node23 -->
<g id="node23" class="node"><title>Node23</title>
<g id="a_node23"><a xlink:href="../../d0/d0e/classmars_1_1data__broker_1_1_receiver_interface.html" target="_top" xlink:title="Interface for classes that want to receive data from the DataBroker. ">
<polygon fill="white" stroke="black" points="765.5,-224 765.5,-254 866.5,-254 866.5,-224 765.5,-224"/>
<text text-anchor="start" x="773.5" y="-242" font-family="Helvetica,sans-Serif" font-size="10.00">mars::data_broker::</text>
<text text-anchor="middle" x="816" y="-231" font-family="Helvetica,sans-Serif" font-size="10.00">ReceiverInterface</text>
</a>
</g>
</g>
<!-- Node23&#45;&gt;Node1 -->
<g id="edge25" class="edge"><title>Node23&#45;&gt;Node1</title>
<path fill="none" stroke="midnightblue" d="M876.633,-237.862C961.847,-235.791 1123.27,-230.218 1260,-216 1268.85,-215.08 1278.19,-213.86 1287.3,-212.536"/>
<polygon fill="midnightblue" stroke="midnightblue" points="876.541,-234.363 866.626,-238.097 876.705,-241.361 876.541,-234.363"/>
</g>
<!-- Node23&#45;&gt;Node29 -->
<g id="edge37" class="edge"><title>Node23&#45;&gt;Node29</title>
<path fill="none" stroke="midnightblue" d="M876.818,-251.12C922.691,-260.606 987.51,-274.424 1044,-288 1059.94,-291.832 1077.51,-296.432 1092.36,-300.434"/>
<polygon fill="midnightblue" stroke="midnightblue" points="877.248,-247.635 866.747,-249.044 875.834,-254.491 877.248,-247.635"/>
</g>
<!-- Node24 -->
<g id="node24" class="node"><title>Node24</title>
<g id="a_node24"><a xlink:href="../../d8/d6e/classmars_1_1interfaces_1_1_graphics_update_interface.html" target="_top" xlink:title="The Interface to load controller dynamically into the simulation. ">
<polygon fill="white" stroke="black" points="1062,-98 1062,-128 1194,-128 1194,-98 1062,-98"/>
<text text-anchor="start" x="1070" y="-116" font-family="Helvetica,sans-Serif" font-size="10.00">mars::interfaces::Graphics</text>
<text text-anchor="middle" x="1128" y="-105" font-family="Helvetica,sans-Serif" font-size="10.00">UpdateInterface</text>
</a>
</g>
</g>
<!-- Node24&#45;&gt;Node1 -->
<g id="edge26" class="edge"><title>Node24&#45;&gt;Node1</title>
<path fill="none" stroke="midnightblue" d="M1204.28,-124.825C1222.97,-129.215 1242.62,-135.122 1260,-143 1288.83,-156.065 1317.69,-179.969 1332.61,-193.323"/>
<polygon fill="midnightblue" stroke="midnightblue" points="1204.83,-121.362 1194.31,-122.602 1203.31,-128.195 1204.83,-121.362"/>
</g>
<!-- Node25 -->
<g id="node25" class="node"><title>Node25</title>
<g id="a_node25"><a xlink:href="../../db/dc3/classmars_1_1interfaces_1_1_graphics_camera_interface.html" target="_top" xlink:title="mars::interfaces::Graphics\lCameraInterface">
<polygon fill="white" stroke="black" points="1062,-49 1062,-79 1194,-79 1194,-49 1062,-49"/>
<text text-anchor="start" x="1070" y="-67" font-family="Helvetica,sans-Serif" font-size="10.00">mars::interfaces::Graphics</text>
<text text-anchor="middle" x="1128" y="-56" font-family="Helvetica,sans-Serif" font-size="10.00">CameraInterface</text>
</a>
</g>
</g>
<!-- Node25&#45;&gt;Node1 -->
<g id="edge27" class="edge"><title>Node25&#45;&gt;Node1</title>
<path fill="none" stroke="#9a32cd" stroke-dasharray="5,2" d="M1196.32,-82.3529C1217.73,-89.9311 1240.8,-100.037 1260,-113 1293.82,-135.839 1323.6,-175.045 1336.37,-193.22"/>
<polygon fill="#9a32cd" stroke="#9a32cd" points="1197.22,-78.9615 1186.63,-79.0478 1194.96,-85.5871 1197.22,-78.9615"/>
<text text-anchor="middle" x="1236" y="-116" font-family="Helvetica,sans-Serif" font-size="10.00"> gc</text>
</g>
<!-- Node26 -->
<g id="node26" class="node"><title>Node26</title>
<g id="a_node26"><a xlink:href="../../d9/d3b/classmars_1_1interfaces_1_1_graphics_window_interface.html" target="_top" xlink:title="mars::interfaces::Graphics\lWindowInterface">
<polygon fill="white" stroke="black" points="1062,-0 1062,-30 1194,-30 1194,-0 1062,-0"/>
<text text-anchor="start" x="1070" y="-18" font-family="Helvetica,sans-Serif" font-size="10.00">mars::interfaces::Graphics</text>
<text text-anchor="middle" x="1128" y="-7" font-family="Helvetica,sans-Serif" font-size="10.00">WindowInterface</text>
</a>
</g>
</g>
<!-- Node26&#45;&gt;Node1 -->
<g id="edge28" class="edge"><title>Node26&#45;&gt;Node1</title>
<path fill="none" stroke="#9a32cd" stroke-dasharray="5,2" d="M1191.53,-33.7417C1214.99,-43.0485 1240.63,-56.1967 1260,-74 1299.8,-110.586 1328.67,-170.264 1338.92,-193.406"/>
<polygon fill="#9a32cd" stroke="#9a32cd" points="1192.57,-30.3927 1181.97,-30.1115 1190.08,-36.936 1192.57,-30.3927"/>
<text text-anchor="middle" x="1236" y="-77" font-family="Helvetica,sans-Serif" font-size="10.00"> gw</text>
</g>
<!-- Node27 -->
<g id="node27" class="node"><title>Node27</title>
<g id="a_node27"><a xlink:href="../../dd/d9d/structmars_1_1sim_1_1_scanning_sonar_config.html" target="_top" xlink:title="mars::sim::ScanningSonar\lConfig">
<polygon fill="white" stroke="black" points="912,-184 912,-214 1044,-214 1044,-184 912,-184"/>
<text text-anchor="start" x="920" y="-202" font-family="Helvetica,sans-Serif" font-size="10.00">mars::sim::ScanningSonar</text>
<text text-anchor="middle" x="978" y="-191" font-family="Helvetica,sans-Serif" font-size="10.00">Config</text>
</a>
</g>
</g>
<!-- Node27&#45;&gt;Node1 -->
<g id="edge29" class="edge"><title>Node27&#45;&gt;Node1</title>
<path fill="none" stroke="#9a32cd" stroke-dasharray="5,2" d="M1054.4,-199.829C1120.36,-200.553 1215.16,-201.595 1277.87,-202.284"/>
<polygon fill="#9a32cd" stroke="#9a32cd" points="1054.11,-196.325 1044.08,-199.715 1054.04,-203.325 1054.11,-196.325"/>
<text text-anchor="middle" x="1128" y="-205" font-family="Helvetica,sans-Serif" font-size="10.00"> config</text>
</g>
<!-- Node28&#45;&gt;Node27 -->
<g id="edge30" class="edge"><title>Node28&#45;&gt;Node27</title>
<path fill="none" stroke="midnightblue" d="M654.207,-312.626C659.061,-310.449 663.737,-307.925 668,-305 710.075,-276.132 692.951,-237.964 738,-214 791.497,-185.542 861.548,-184.626 911.964,-189.115"/>
<polygon fill="midnightblue" stroke="midnightblue" points="652.715,-309.453 644.715,-316.399 655.301,-315.958 652.715,-309.453"/>
</g>
<!-- Node32 -->
<g id="node32" class="node"><title>Node32</title>
<g id="a_node32"><a xlink:href="../../de/d20/classmars_1_1sim_1_1_ray_config.html" target="_top" xlink:title="mars::sim::RayConfig">
<polygon fill="white" stroke="black" points="759.5,-361.5 759.5,-380.5 872.5,-380.5 872.5,-361.5 759.5,-361.5"/>
<text text-anchor="middle" x="816" y="-368.5" font-family="Helvetica,sans-Serif" font-size="10.00">mars::sim::RayConfig</text>
</a>
</g>
</g>
<!-- Node28&#45;&gt;Node32 -->
<g id="edge40" class="edge"><title>Node28&#45;&gt;Node32</title>
<path fill="none" stroke="midnightblue" d="M653.076,-337.575C688.993,-344.989 735.034,-354.493 768.834,-361.47"/>
<polygon fill="midnightblue" stroke="midnightblue" points="653.733,-334.137 643.232,-335.543 652.318,-340.993 653.733,-334.137"/>
</g>
<!-- Node29&#45;&gt;Node1 -->
<g id="edge32" class="edge"><title>Node29&#45;&gt;Node1</title>
<path fill="none" stroke="#9a32cd" stroke-dasharray="5,2" d="M1165.68,-296.881C1192.39,-286.852 1229.13,-272.055 1260,-256 1285.63,-242.667 1313.59,-223.84 1329.64,-212.583"/>
<polygon fill="#9a32cd" stroke="#9a32cd" points="1164.13,-293.724 1155.97,-300.484 1166.56,-300.287 1164.13,-293.724"/>
<text text-anchor="middle" x="1236" y="-281" font-family="Helvetica,sans-Serif" font-size="10.00"> raySensor</text>
</g>
<!-- Node30&#45;&gt;Node29 -->
<g id="edge33" class="edge"><title>Node30&#45;&gt;Node29</title>
<path fill="none" stroke="midnightblue" d="M895.347,-322.704C949.845,-319.715 1021.24,-315.8 1070.28,-313.11"/>
<polygon fill="midnightblue" stroke="midnightblue" points="894.824,-319.227 885.031,-323.269 895.207,-326.216 894.824,-319.227"/>
</g>
<!-- Node31 -->
<g id="node31" class="node"><title>Node31</title>
<g id="a_node31"><a xlink:href="../../de/ded/classmars_1_1interfaces_1_1_draw_interface.html" target="_top" xlink:title="The interface DrawInterface is used for updating draw_item structs via an update function. ">
<polygon fill="white" stroke="black" points="738.5,-273.5 738.5,-292.5 893.5,-292.5 893.5,-273.5 738.5,-273.5"/>
<text text-anchor="middle" x="816" y="-280.5" font-family="Helvetica,sans-Serif" font-size="10.00">mars::interfaces::DrawInterface</text>
</a>
</g>
</g>
<!-- Node31&#45;&gt;Node29 -->
<g id="edge38" class="edge"><title>Node31&#45;&gt;Node29</title>
<path fill="none" stroke="midnightblue" d="M903.748,-290.555C956.992,-295.193 1023.66,-301 1070.22,-305.055"/>
<polygon fill="midnightblue" stroke="midnightblue" points="903.895,-287.055 893.629,-289.674 903.288,-294.029 903.895,-287.055"/>
</g>
<!-- Node32&#45;&gt;Node29 -->
<g id="edge39" class="edge"><title>Node32&#45;&gt;Node29</title>
<path fill="none" stroke="#9a32cd" stroke-dasharray="5,2" d="M882.854,-361.835C928.354,-355.05 990.141,-344.936 1044,-333 1061.23,-329.182 1080.21,-323.997 1095.66,-319.517"/>
<polygon fill="#9a32cd" stroke="#9a32cd" points="882.202,-358.394 872.82,-363.317 883.224,-365.319 882.202,-358.394"/>
<text text-anchor="middle" x="978" y="-360" font-family="Helvetica,sans-Serif" font-size="10.00"> config</text>
</g>
</g>
</svg>
