<?xml version="1.0" encoding="UTF-8" standalone="no"?>
<!DOCTYPE svg PUBLIC "-//W3C//DTD SVG 1.1//EN"
 "http://www.w3.org/Graphics/SVG/1.1/DTD/svg11.dtd">
<!-- Generated by graphviz version 2.26.3 (20100126.1600)
 -->
<!-- Title: /home/kavonszadkowski/limes&#45;dev/simulation/mars/interfaces/src/graphics/DrawInterface.h Pages: 1 -->
<svg width="370pt" height="364pt"
 viewBox="0.00 0.00 370.00 364.00" xmlns="http://www.w3.org/2000/svg" xmlns:xlink="http://www.w3.org/1999/xlink">
<g id="graph1" class="graph" transform="scale(1 1) rotate(0) translate(4 360)">
<title>/home/kavonszadkowski/limes&#45;dev/simulation/mars/interfaces/src/graphics/DrawInterface.h</title>
<polygon fill="white" stroke="white" points="-4,5 -4,-360 367,-360 367,5 -4,5"/>
<!-- Node1 -->
<g id="node1" class="node"><title>Node1</title>
<polygon fill="#bfbfbf" stroke="black" points="74.5,-295 74.5,-355 217.5,-355 217.5,-295 74.5,-295"/>
<text text-anchor="start" x="82.5" y="-342" font-family="Helvetica,sans-Serif" font-size="10.00">/home/kavonszadkowski</text>
<text text-anchor="start" x="82.5" y="-329" font-family="Helvetica,sans-Serif" font-size="10.00">/limes&#45;dev/simulation</text>
<text text-anchor="start" x="82.5" y="-316" font-family="Helvetica,sans-Serif" font-size="10.00">/mars/interfaces/src/graphics</text>
<text text-anchor="middle" x="146" y="-303" font-family="Helvetica,sans-Serif" font-size="10.00">/DrawInterface.h</text>
</g>
<!-- Node2 -->
<g id="node3" class="node"><title>Node2</title>
<a xlink:href="../../d4/d78/draw__structs_8h.html" target="_top" xlink:title="/home/kavonszadkowski\l/limes&#45;dev/simulation\l/mars/interfaces/src/graphics\l/draw_structs.h">
<polygon fill="white" stroke="black" points="74.5,-197 74.5,-257 217.5,-257 217.5,-197 74.5,-197"/>
<text text-anchor="start" x="82.5" y="-244" font-family="Helvetica,sans-Serif" font-size="10.00">/home/kavonszadkowski</text>
<text text-anchor="start" x="82.5" y="-231" font-family="Helvetica,sans-Serif" font-size="10.00">/limes&#45;dev/simulation</text>
<text text-anchor="start" x="82.5" y="-218" font-family="Helvetica,sans-Serif" font-size="10.00">/mars/interfaces/src/graphics</text>
<text text-anchor="middle" x="146" y="-205" font-family="Helvetica,sans-Serif" font-size="10.00">/draw_structs.h</text>
</a>
</g>
<!-- Node1&#45;&gt;Node2 -->
<g id="edge2" class="edge"><title>Node1&#45;&gt;Node2</title>
<path fill="none" stroke="midnightblue" d="M139.345,-284.696C139.142,-275.527 139.263,-265.939 139.709,-257.272"/>
<polygon fill="midnightblue" stroke="midnightblue" points="135.852,-284.931 139.712,-294.797 142.847,-284.677 135.852,-284.931"/>
</g>
<!-- Node2&#45;&gt;Node1 -->
<g id="edge4" class="edge"><title>Node2&#45;&gt;Node1</title>
<path fill="none" stroke="midnightblue" d="M152.656,-267.377C152.858,-276.548 152.735,-286.134 152.288,-294.797"/>
<polygon fill="midnightblue" stroke="midnightblue" points="156.15,-267.139 152.291,-257.272 149.155,-267.392 156.15,-267.139"/>
</g>
<!-- Node3 -->
<g id="node6" class="node"><title>Node3</title>
<a xlink:href="../../d7/d84/_graphics_manager_interface_8h.html" target="_top" xlink:title="/home/kavonszadkowski\l/limes&#45;dev/simulation\l/mars/interfaces/src/graphics\l/GraphicsManagerInterface.h">
<polygon fill="white" stroke="black" points="-0.5,-99 -0.5,-159 142.5,-159 142.5,-99 -0.5,-99"/>
<text text-anchor="start" x="7.5" y="-146" font-family="Helvetica,sans-Serif" font-size="10.00">/home/kavonszadkowski</text>
<text text-anchor="start" x="7.5" y="-133" font-family="Helvetica,sans-Serif" font-size="10.00">/limes&#45;dev/simulation</text>
<text text-anchor="start" x="7.5" y="-120" font-family="Helvetica,sans-Serif" font-size="10.00">/mars/interfaces/src/graphics</text>
<text text-anchor="middle" x="71" y="-107" font-family="Helvetica,sans-Serif" font-size="10.00">/GraphicsManagerInterface.h</text>
</a>
</g>
<!-- Node2&#45;&gt;Node3 -->
<g id="edge6" class="edge"><title>Node2&#45;&gt;Node3</title>
<path fill="none" stroke="midnightblue" d="M116.733,-188.758C109.247,-178.976 101.3,-168.592 94.1672,-159.272"/>
<polygon fill="midnightblue" stroke="midnightblue" points="114.029,-190.983 122.886,-196.797 119.587,-186.729 114.029,-190.983"/>
</g>
<!-- Node4 -->
<g id="node8" class="node"><title>Node4</title>
<a xlink:href="../../d0/d74/_simulator_interface_8h.html" target="_top" xlink:title="&quot;SimulatorInterface&quot; provides an interface for using the Simulator class ">
<polygon fill="white" stroke="black" points="159.5,-99 159.5,-159 284.5,-159 284.5,-99 159.5,-99"/>
<text text-anchor="start" x="167.5" y="-146" font-family="Helvetica,sans-Serif" font-size="10.00">/home/kavonszadkowski</text>
<text text-anchor="start" x="167.5" y="-133" font-family="Helvetica,sans-Serif" font-size="10.00">/limes&#45;dev/simulation</text>
<text text-anchor="start" x="167.5" y="-120" font-family="Helvetica,sans-Serif" font-size="10.00">/mars/interfaces/src/sim</text>
<text text-anchor="middle" x="222" y="-107" font-family="Helvetica,sans-Serif" font-size="10.00">/SimulatorInterface.h</text>
</a>
</g>
<!-- Node2&#45;&gt;Node4 -->
<g id="edge8" class="edge"><title>Node2&#45;&gt;Node4</title>
<path fill="none" stroke="midnightblue" d="M175.657,-188.758C183.243,-178.976 191.296,-168.592 198.524,-159.272"/>
<polygon fill="midnightblue" stroke="midnightblue" points="172.785,-186.75 169.423,-196.797 178.317,-191.04 172.785,-186.75"/>
</g>
<!-- Node5 -->
<g id="node10" class="node"><title>Node5</title>
<a xlink:href="../../dd/d91/_mars_plugin_template_8h.html" target="_top" xlink:title="/home/kavonszadkowski\l/limes&#45;dev/simulation\l/mars/interfaces/src/sim\l/MarsPluginTemplate.h">
<polygon fill="white" stroke="black" points="85.5,-1 85.5,-61 210.5,-61 210.5,-1 85.5,-1"/>
<text text-anchor="start" x="93.5" y="-48" font-family="Helvetica,sans-Serif" font-size="10.00">/home/kavonszadkowski</text>
<text text-anchor="start" x="93.5" y="-35" font-family="Helvetica,sans-Serif" font-size="10.00">/limes&#45;dev/simulation</text>
<text text-anchor="start" x="93.5" y="-22" font-family="Helvetica,sans-Serif" font-size="10.00">/mars/interfaces/src/sim</text>
<text text-anchor="middle" x="148" y="-9" font-family="Helvetica,sans-Serif" font-size="10.00">/MarsPluginTemplate.h</text>
</a>
</g>
<!-- Node4&#45;&gt;Node5 -->
<g id="edge10" class="edge"><title>Node4&#45;&gt;Node5</title>
<path fill="none" stroke="midnightblue" d="M193.123,-90.7581C185.737,-80.9758 177.896,-70.5918 170.858,-61.2718"/>
<polygon fill="midnightblue" stroke="midnightblue" points="190.375,-92.9258 199.194,-98.7971 195.961,-88.7076 190.375,-92.9258"/>
</g>
<!-- Node6 -->
<g id="node12" class="node"><title>Node6</title>
<a xlink:href="../../d4/d96/_mars_plugin_template_g_u_i_8h.html" target="_top" xlink:title="/home/kavonszadkowski\l/limes&#45;dev/simulation\l/mars/interfaces/src/sim\l/MarsPluginTemplateGUI.h">
<polygon fill="white" stroke="black" points="227.5,-1 227.5,-61 362.5,-61 362.5,-1 227.5,-1"/>
<text text-anchor="start" x="235.5" y="-48" font-family="Helvetica,sans-Serif" font-size="10.00">/home/kavonszadkowski</text>
<text text-anchor="start" x="235.5" y="-35" font-family="Helvetica,sans-Serif" font-size="10.00">/limes&#45;dev/simulation</text>
<text text-anchor="start" x="235.5" y="-22" font-family="Helvetica,sans-Serif" font-size="10.00">/mars/interfaces/src/sim</text>
<text text-anchor="middle" x="295" y="-9" font-family="Helvetica,sans-Serif" font-size="10.00">/MarsPluginTemplateGUI.h</text>
</a>
</g>
<!-- Node4&#45;&gt;Node6 -->
<g id="edge12" class="edge"><title>Node4&#45;&gt;Node6</title>
<path fill="none" stroke="midnightblue" d="M250.486,-90.7581C257.773,-80.9758 265.508,-70.5918 272.451,-61.2718"/>
<polygon fill="midnightblue" stroke="midnightblue" points="247.665,-88.6867 244.498,-98.7971 253.279,-92.8683 247.665,-88.6867"/>
</g>
</g>
</svg>
