<?xml version="1.0" encoding="UTF-8" standalone="no"?>
<!DOCTYPE svg PUBLIC "-//W3C//DTD SVG 1.1//EN"
 "http://www.w3.org/Graphics/SVG/1.1/DTD/svg11.dtd">
<!-- Generated by graphviz version 2.26.3 (20100126.1600)
 -->
<!-- Title: /home/kavonszadkowski/limes&#45;dev/simulation/mars/plugins/mars_plugin_collection/VirtualJoystickPlugin/VirtualJoystickPlugin.h Pages: 1 -->
<svg width="721pt" height="270pt"
 viewBox="0.00 0.00 721.00 270.00" xmlns="http://www.w3.org/2000/svg" xmlns:xlink="http://www.w3.org/1999/xlink">
<g id="graph1" class="graph" transform="scale(1 1) rotate(0) translate(4 266)">
<title>/home/kavonszadkowski/limes&#45;dev/simulation/mars/plugins/mars_plugin_collection/VirtualJoystickPlugin/VirtualJoystickPlugin.h</title>
<polygon fill="white" stroke="white" points="-4,5 -4,-266 718,-266 718,5 -4,5"/>
<!-- Node1 -->
<g id="node1" class="node"><title>Node1</title>
<polygon fill="#bfbfbf" stroke="black" points="222,-188.5 222,-261.5 380,-261.5 380,-188.5 222,-188.5"/>
<text text-anchor="start" x="230" y="-248.5" font-family="Helvetica,sans-Serif" font-size="10.00">/home/kavonszadkowski</text>
<text text-anchor="start" x="230" y="-235.5" font-family="Helvetica,sans-Serif" font-size="10.00">/limes&#45;dev/simulation</text>
<text text-anchor="start" x="230" y="-222.5" font-family="Helvetica,sans-Serif" font-size="10.00">/mars/plugins/mars_plugin</text>
<text text-anchor="start" x="230" y="-209.5" font-family="Helvetica,sans-Serif" font-size="10.00">_collection/VirtualJoystickPlugin</text>
<text text-anchor="middle" x="301" y="-196.5" font-family="Helvetica,sans-Serif" font-size="10.00">/VirtualJoystickPlugin.h</text>
</g>
<!-- Node2 -->
<g id="node3" class="node"><title>Node2</title>
<polygon fill="white" stroke="#bfbfbf" points="15,-130.5 15,-151.5 57,-151.5 57,-130.5 15,-130.5"/>
<text text-anchor="middle" x="36" y="-138.5" font-family="Helvetica,sans-Serif" font-size="10.00">QtGui</text>
</g>
<!-- Node1&#45;&gt;Node2 -->
<g id="edge2" class="edge"><title>Node1&#45;&gt;Node2</title>
<path fill="none" stroke="midnightblue" d="M221.811,-201.484C178.5,-188.367 123.73,-171.366 66.7871,-152.17"/>
<polygon fill="midnightblue" stroke="midnightblue" points="67.8528,-148.836 57.2585,-148.945 65.6081,-155.466 67.8528,-148.836"/>
</g>
<!-- Node3 -->
<g id="node5" class="node"><title>Node3</title>
<a xlink:href="../../df/d0d/plugins_2mars__plugin__collection_2_virtual_joystick_plugin_2_joystick_widget_8h.html" target="_top" xlink:title="JoystickWidget.h">
<polygon fill="white" stroke="black" points="75,-130.5 75,-151.5 167,-151.5 167,-130.5 75,-130.5"/>
<text text-anchor="middle" x="121" y="-138.5" font-family="Helvetica,sans-Serif" font-size="10.00">JoystickWidget.h</text>
</a>
</g>
<!-- Node1&#45;&gt;Node3 -->
<g id="edge4" class="edge"><title>Node1&#45;&gt;Node3</title>
<path fill="none" stroke="midnightblue" d="M222.573,-188.401C198.097,-176.979 172.46,-165.015 153.065,-155.964"/>
<polygon fill="midnightblue" stroke="midnightblue" points="154.348,-152.7 143.806,-151.643 151.387,-159.043 154.348,-152.7"/>
</g>
<!-- Node12 -->
<g id="node24" class="node"><title>Node12</title>
<a xlink:href="../../dc/d43/_joystick_interface_8h.html" target="_top" xlink:title="&quot;JoystcikInterface&quot; is an interface to a plugin to get faked joystick values ">
<polygon fill="white" stroke="black" points="185,-130.5 185,-151.5 285,-151.5 285,-130.5 185,-130.5"/>
<text text-anchor="middle" x="235" y="-138.5" font-family="Helvetica,sans-Serif" font-size="10.00">JoystickInterface.h</text>
</a>
</g>
<!-- Node1&#45;&gt;Node12 -->
<g id="edge24" class="edge"><title>Node1&#45;&gt;Node12</title>
<path fill="none" stroke="midnightblue" d="M272.243,-188.401C264.509,-178.557 256.458,-168.31 249.829,-159.873"/>
<polygon fill="midnightblue" stroke="midnightblue" points="252.438,-157.529 243.508,-151.828 246.934,-161.854 252.438,-157.529"/>
</g>
<!-- Node13 -->
<g id="node26" class="node"><title>Node13</title>
<polygon fill="white" stroke="#bfbfbf" points="302.5,-130.5 302.5,-151.5 433.5,-151.5 433.5,-130.5 302.5,-130.5"/>
<text text-anchor="middle" x="368" y="-138.5" font-family="Helvetica,sans-Serif" font-size="10.00">lib_manager/LibManager.h</text>
</g>
<!-- Node1&#45;&gt;Node13 -->
<g id="edge26" class="edge"><title>Node1&#45;&gt;Node13</title>
<path fill="none" stroke="midnightblue" d="M330.192,-188.401C338.044,-178.557 346.217,-168.31 352.946,-159.873"/>
<polygon fill="midnightblue" stroke="midnightblue" points="355.864,-161.829 359.363,-151.828 350.391,-157.464 355.864,-161.829"/>
</g>
<!-- Node14 -->
<g id="node28" class="node"><title>Node14</title>
<polygon fill="white" stroke="#bfbfbf" points="451,-130.5 451,-151.5 569,-151.5 569,-130.5 451,-130.5"/>
<text text-anchor="middle" x="510" y="-138.5" font-family="Helvetica,sans-Serif" font-size="10.00">gui_core/GuiInterface.h</text>
</g>
<!-- Node1&#45;&gt;Node14 -->
<g id="edge28" class="edge"><title>Node1&#45;&gt;Node14</title>
<path fill="none" stroke="midnightblue" d="M380.014,-193.243C412.404,-180.225 448.274,-165.809 474.113,-155.423"/>
<polygon fill="midnightblue" stroke="midnightblue" points="475.523,-158.629 483.497,-151.652 472.913,-152.134 475.523,-158.629"/>
</g>
<!-- Node15 -->
<g id="node30" class="node"><title>Node15</title>
<polygon fill="white" stroke="#bfbfbf" points="586.5,-130.5 586.5,-151.5 713.5,-151.5 713.5,-130.5 586.5,-130.5"/>
<text text-anchor="middle" x="650" y="-138.5" font-family="Helvetica,sans-Serif" font-size="10.00">gui_core/MenuInterface.h</text>
</g>
<!-- Node1&#45;&gt;Node15 -->
<g id="edge30" class="edge"><title>Node1&#45;&gt;Node15</title>
<path fill="none" stroke="midnightblue" d="M380.194,-205.939C446.217,-190.048 538.497,-167.837 596.219,-153.944"/>
<polygon fill="midnightblue" stroke="midnightblue" points="597.326,-157.278 606.229,-151.535 595.688,-150.472 597.326,-157.278"/>
</g>
<!-- Node4 -->
<g id="node7" class="node"><title>Node4</title>
<polygon fill="white" stroke="#bfbfbf" points="-0.5,-7.5 -0.5,-28.5 82.5,-28.5 82.5,-7.5 -0.5,-7.5"/>
<text text-anchor="middle" x="41" y="-15.5" font-family="Helvetica,sans-Serif" font-size="10.00">QtGui/QWidget</text>
</g>
<!-- Node3&#45;&gt;Node4 -->
<g id="edge6" class="edge"><title>Node3&#45;&gt;Node4</title>
<path fill="none" stroke="midnightblue" d="M101.091,-130.441C87.534,-122.248 70.2517,-109.66 60,-94 49.1053,-77.3582 44.4576,-54.9268 42.4749,-38.7522"/>
<polygon fill="midnightblue" stroke="midnightblue" points="45.9484,-38.3104 41.4841,-28.7021 38.9822,-38.9973 45.9484,-38.3104"/>
</g>
<!-- Node5 -->
<g id="node9" class="node"><title>Node5</title>
<polygon fill="white" stroke="#bfbfbf" points="68.5,-72.5 68.5,-93.5 173.5,-93.5 173.5,-72.5 68.5,-72.5"/>
<text text-anchor="middle" x="121" y="-80.5" font-family="Helvetica,sans-Serif" font-size="10.00">ui_JoystickWidget.h</text>
</g>
<!-- Node3&#45;&gt;Node5 -->
<g id="edge8" class="edge"><title>Node3&#45;&gt;Node5</title>
<path fill="none" stroke="midnightblue" d="M121,-130.362C121,-122.922 121,-112.743 121,-103.728"/>
<polygon fill="midnightblue" stroke="midnightblue" points="124.5,-103.571 121,-93.5707 117.5,-103.571 124.5,-103.571"/>
</g>
<!-- Node6 -->
<g id="node11" class="node"><title>Node6</title>
<a xlink:href="../../d7/d81/_cross_widget_8h.html" target="_top" xlink:title="CrossWidget.h">
<polygon fill="white" stroke="black" points="191,-72.5 191,-93.5 273,-93.5 273,-72.5 191,-72.5"/>
<text text-anchor="middle" x="232" y="-80.5" font-family="Helvetica,sans-Serif" font-size="10.00">CrossWidget.h</text>
</a>
</g>
<!-- Node3&#45;&gt;Node6 -->
<g id="edge10" class="edge"><title>Node3&#45;&gt;Node6</title>
<path fill="none" stroke="midnightblue" d="M141.101,-130.497C158.282,-121.519 183.23,-108.484 202.645,-98.3387"/>
<polygon fill="midnightblue" stroke="midnightblue" points="204.431,-101.354 211.673,-93.6212 201.189,-95.1503 204.431,-101.354"/>
</g>
<!-- Node6&#45;&gt;Node4 -->
<g id="edge12" class="edge"><title>Node6&#45;&gt;Node4</title>
<path fill="none" stroke="midnightblue" d="M199.726,-72.4841C171.099,-63.0989 128.18,-48.887 91,-36 87.2816,-34.7112 83.4141,-33.3521 79.5506,-31.9819"/>
<polygon fill="midnightblue" stroke="midnightblue" points="80.6364,-28.6533 70.0417,-28.5871 78.2827,-35.2457 80.6364,-28.6533"/>
</g>
<!-- Node7 -->
<g id="node14" class="node"><title>Node7</title>
<polygon fill="white" stroke="#bfbfbf" points="100,-7.5 100,-28.5 150,-28.5 150,-7.5 100,-7.5"/>
<text text-anchor="middle" x="125" y="-15.5" font-family="Helvetica,sans-Serif" font-size="10.00">QString</text>
</g>
<!-- Node6&#45;&gt;Node7 -->
<g id="edge14" class="edge"><title>Node6&#45;&gt;Node7</title>
<path fill="none" stroke="midnightblue" d="M214.331,-72.2666C197.114,-61.8074 170.733,-45.782 151.098,-33.8541"/>
<polygon fill="midnightblue" stroke="midnightblue" points="152.704,-30.7343 142.34,-28.5337 149.07,-36.7169 152.704,-30.7343"/>
</g>
<!-- Node8 -->
<g id="node16" class="node"><title>Node8</title>
<polygon fill="white" stroke="#bfbfbf" points="168,-7.5 168,-28.5 218,-28.5 218,-7.5 168,-7.5"/>
<text text-anchor="middle" x="193" y="-15.5" font-family="Helvetica,sans-Serif" font-size="10.00">QEvent</text>
</g>
<!-- Node6&#45;&gt;Node8 -->
<g id="edge16" class="edge"><title>Node6&#45;&gt;Node8</title>
<path fill="none" stroke="midnightblue" d="M225.56,-72.2666C219.881,-62.8013 211.466,-48.7773 204.614,-37.3571"/>
<polygon fill="midnightblue" stroke="midnightblue" points="207.466,-35.3079 199.32,-28.5337 201.464,-38.9094 207.466,-35.3079"/>
</g>
<!-- Node9 -->
<g id="node18" class="node"><title>Node9</title>
<polygon fill="white" stroke="#bfbfbf" points="235.5,-7.5 235.5,-28.5 302.5,-28.5 302.5,-7.5 235.5,-7.5"/>
<text text-anchor="middle" x="269" y="-15.5" font-family="Helvetica,sans-Serif" font-size="10.00">QKeyEvent</text>
</g>
<!-- Node6&#45;&gt;Node9 -->
<g id="edge18" class="edge"><title>Node6&#45;&gt;Node9</title>
<path fill="none" stroke="midnightblue" d="M238.11,-72.2666C243.498,-62.8013 251.481,-48.7773 257.981,-37.3571"/>
<polygon fill="midnightblue" stroke="midnightblue" points="261.099,-38.9558 263.004,-28.5337 255.015,-35.4929 261.099,-38.9558"/>
</g>
<!-- Node10 -->
<g id="node20" class="node"><title>Node10</title>
<polygon fill="white" stroke="#bfbfbf" points="320,-1 320,-35 464,-35 464,-1 320,-1"/>
<text text-anchor="start" x="328" y="-22" font-family="Helvetica,sans-Serif" font-size="10.00">QtDesigner/QDesignerExport</text>
<text text-anchor="middle" x="392" y="-9" font-family="Helvetica,sans-Serif" font-size="10.00">Widget</text>
</g>
<!-- Node6&#45;&gt;Node10 -->
<g id="edge20" class="edge"><title>Node6&#45;&gt;Node10</title>
<path fill="none" stroke="midnightblue" d="M258.063,-72.412C280.321,-63.3695 313.007,-50.091 340.516,-38.9153"/>
<polygon fill="midnightblue" stroke="midnightblue" points="342.058,-42.0669 350.005,-35.0604 339.423,-35.5816 342.058,-42.0669"/>
</g>
<!-- Node11 -->
<g id="node22" class="node"><title>Node11</title>
<polygon fill="white" stroke="#bfbfbf" points="481.5,-7.5 481.5,-28.5 576.5,-28.5 576.5,-7.5 481.5,-7.5"/>
<text text-anchor="middle" x="529" y="-15.5" font-family="Helvetica,sans-Serif" font-size="10.00">ui_CrossWidget.h</text>
</g>
<!-- Node6&#45;&gt;Node11 -->
<g id="edge22" class="edge"><title>Node6&#45;&gt;Node11</title>
<path fill="none" stroke="midnightblue" d="M273.268,-76.4822C321.527,-68.5083 403.642,-53.843 473,-36 478.062,-34.6976 483.339,-33.1964 488.543,-31.628"/>
<polygon fill="midnightblue" stroke="midnightblue" points="489.875,-34.8789 498.382,-28.5635 487.793,-28.1955 489.875,-34.8789"/>
</g>
</g>
</svg>
