<?xml version="1.0" encoding="UTF-8" standalone="no"?>
<!DOCTYPE svg PUBLIC "-//W3C//DTD SVG 1.1//EN"
 "http://www.w3.org/Graphics/SVG/1.1/DTD/svg11.dtd">
<!-- Generated by graphviz version 2.36.0 (20140111.2315)
 -->
<!-- Title: /media/kavonszadkowski/work/marsdocs/mars/graphics/src/GraphicsCamera.h Pages: 1 -->
<svg width="428pt" height="118pt"
 viewBox="0.00 0.00 428.00 118.00" xmlns="http://www.w3.org/2000/svg" xmlns:xlink="http://www.w3.org/1999/xlink">
<g id="graph0" class="graph" transform="scale(1 1) rotate(0) translate(4 114)">
<title>/media/kavonszadkowski/work/marsdocs/mars/graphics/src/GraphicsCamera.h</title>
<polygon fill="white" stroke="none" points="-4,4 -4,-114 424,-114 424,4 -4,4"/>
<!-- Node1 -->
<g id="node1" class="node"><title>Node1</title>
<polygon fill="#bfbfbf" stroke="black" points="99.5,-68.5 99.5,-109.5 250.5,-109.5 250.5,-68.5 99.5,-68.5"/>
<text text-anchor="start" x="107.5" y="-97.5" font-family="Helvetica,sans-Serif" font-size="10.00">/media/kavonszadkowski</text>
<text text-anchor="start" x="107.5" y="-86.5" font-family="Helvetica,sans-Serif" font-size="10.00">/work/marsdocs/mars/graphics</text>
<text text-anchor="middle" x="175" y="-75.5" font-family="Helvetica,sans-Serif" font-size="10.00">/src/GraphicsCamera.h</text>
</g>
<!-- Node2 -->
<g id="node2" class="node"><title>Node2</title>
<polygon fill="white" stroke="#bfbfbf" points="0,-6.5 0,-25.5 70,-25.5 70,-6.5 0,-6.5"/>
<text text-anchor="middle" x="35" y="-13.5" font-family="Helvetica,sans-Serif" font-size="10.00">osg/Camera</text>
</g>
<!-- Node1&#45;&gt;Node2 -->
<g id="edge1" class="edge"><title>Node1&#45;&gt;Node2</title>
<path fill="none" stroke="midnightblue" d="M136.374,-68.411C112.37,-56.2376 82.1603,-40.917 60.9884,-30.1798"/>
<polygon fill="midnightblue" stroke="midnightblue" points="62.4533,-26.9984 51.9515,-25.5968 59.2871,-33.2415 62.4533,-26.9984"/>
</g>
<!-- Node3 -->
<g id="node3" class="node"><title>Node3</title>
<polygon fill="white" stroke="#bfbfbf" points="88,-6.5 88,-25.5 262,-25.5 262,-6.5 88,-6.5"/>
<text text-anchor="middle" x="175" y="-13.5" font-family="Helvetica,sans-Serif" font-size="10.00">osgGA/KeySwitchMatrixManipulator</text>
</g>
<!-- Node1&#45;&gt;Node3 -->
<g id="edge2" class="edge"><title>Node1&#45;&gt;Node3</title>
<path fill="none" stroke="midnightblue" d="M175,-68.2225C175,-58.0864 175,-45.8072 175,-35.8125"/>
<polygon fill="midnightblue" stroke="midnightblue" points="178.5,-35.7349 175,-25.7349 171.5,-35.7349 178.5,-35.7349"/>
</g>
<!-- Node4 -->
<g id="node4" class="node"><title>Node4</title>
<polygon fill="white" stroke="#bfbfbf" points="280,-1 280,-31 420,-31 420,-1 280,-1"/>
<text text-anchor="start" x="288" y="-19" font-family="Helvetica,sans-Serif" font-size="10.00">mars/interfaces/graphics</text>
<text text-anchor="middle" x="350" y="-8" font-family="Helvetica,sans-Serif" font-size="10.00">/GraphicsCameraInterface.h</text>
</g>
<!-- Node1&#45;&gt;Node4 -->
<g id="edge3" class="edge"><title>Node1&#45;&gt;Node4</title>
<path fill="none" stroke="midnightblue" d="M223.283,-68.411C249.209,-57.8925 280.926,-45.0242 306.143,-34.7933"/>
<polygon fill="midnightblue" stroke="midnightblue" points="307.513,-38.0146 315.464,-31.0117 304.882,-31.5281 307.513,-38.0146"/>
</g>
</g>
</svg>
