<?xml version="1.0" encoding="UTF-8" standalone="no"?>
<!DOCTYPE svg PUBLIC "-//W3C//DTD SVG 1.1//EN"
 "http://www.w3.org/Graphics/SVG/1.1/DTD/svg11.dtd">
<!-- Generated by graphviz version 2.36.0 (20140111.2315)
 -->
<!-- Title: /media/kavonszadkowski/work/marsdocs/mars/gui/src/Widget_Node_Options_ODE.h Pages: 1 -->
<svg width="530pt" height="386pt"
 viewBox="0.00 0.00 530.00 386.00" xmlns="http://www.w3.org/2000/svg" xmlns:xlink="http://www.w3.org/1999/xlink">
<g id="graph0" class="graph" transform="scale(1 1) rotate(0) translate(4 382)">
<title>/media/kavonszadkowski/work/marsdocs/mars/gui/src/Widget_Node_Options_ODE.h</title>
<polygon fill="white" stroke="none" points="-4,4 -4,-382 526,-382 526,4 -4,4"/>
<!-- Node1 -->
<g id="node1" class="node"><title>Node1</title>
<polygon fill="#bfbfbf" stroke="black" points="221,-336.5 221,-377.5 391,-377.5 391,-336.5 221,-336.5"/>
<text text-anchor="start" x="229" y="-365.5" font-family="Helvetica,sans-Serif" font-size="10.00">/media/kavonszadkowski</text>
<text text-anchor="start" x="229" y="-354.5" font-family="Helvetica,sans-Serif" font-size="10.00">/work/marsdocs/mars/gui</text>
<text text-anchor="middle" x="306" y="-343.5" font-family="Helvetica,sans-Serif" font-size="10.00">/src/Widget_Node_Options_ODE.h</text>
</g>
<!-- Node2 -->
<g id="node2" class="node"><title>Node2</title>
<g id="a_node2"><a xlink:href="../../d9/de3/_dialog___import___mesh_8h.html" target="_top" xlink:title="/media/kavonszadkowski\l/work/marsdocs/mars/gui\l/src/dialogs/Dialog_Import_Mesh.h">
<polygon fill="white" stroke="black" points="56,-252.5 56,-293.5 224,-293.5 224,-252.5 56,-252.5"/>
<text text-anchor="start" x="64" y="-281.5" font-family="Helvetica,sans-Serif" font-size="10.00">/media/kavonszadkowski</text>
<text text-anchor="start" x="64" y="-270.5" font-family="Helvetica,sans-Serif" font-size="10.00">/work/marsdocs/mars/gui</text>
<text text-anchor="middle" x="140" y="-259.5" font-family="Helvetica,sans-Serif" font-size="10.00">/src/dialogs/Dialog_Import_Mesh.h</text>
</a>
</g>
</g>
<!-- Node1&#45;&gt;Node2 -->
<g id="edge1" class="edge"><title>Node1&#45;&gt;Node2</title>
<path fill="none" stroke="midnightblue" d="M257.056,-331.823C232.418,-319.652 202.936,-305.089 179.724,-293.623"/>
<polygon fill="midnightblue" stroke="midnightblue" points="255.723,-335.068 266.239,-336.359 258.823,-328.792 255.723,-335.068"/>
</g>
<!-- Node7 -->
<g id="node7" class="node"><title>Node7</title>
<g id="a_node7"><a xlink:href="../../d7/deb/_node_handler_8h.html" target="_top" xlink:title="GUI handling creating and editing nodes in the simulation &#160;A property in the node tree dialog is crea...">
<polygon fill="white" stroke="black" points="242.5,-252.5 242.5,-293.5 369.5,-293.5 369.5,-252.5 242.5,-252.5"/>
<text text-anchor="start" x="250.5" y="-281.5" font-family="Helvetica,sans-Serif" font-size="10.00">/media/kavonszadkowski</text>
<text text-anchor="start" x="250.5" y="-270.5" font-family="Helvetica,sans-Serif" font-size="10.00">/work/marsdocs/mars/gui</text>
<text text-anchor="middle" x="306" y="-259.5" font-family="Helvetica,sans-Serif" font-size="10.00">/src/NodeHandler.h</text>
</a>
</g>
</g>
<!-- Node1&#45;&gt;Node7 -->
<g id="edge6" class="edge"><title>Node1&#45;&gt;Node7</title>
<path fill="none" stroke="midnightblue" d="M306,-325.881C306,-315.133 306,-303.309 306,-293.667"/>
<polygon fill="midnightblue" stroke="midnightblue" points="302.5,-326.15 306,-336.15 309.5,-326.15 302.5,-326.15"/>
</g>
<!-- Node11 -->
<g id="node11" class="node"><title>Node11</title>
<g id="a_node11"><a xlink:href="../../d4/d97/_widget___node___options___o_d_e_8cpp.html" target="_top" xlink:title="/media/kavonszadkowski\l/work/marsdocs/mars/gui\l/src/Widget_Node_Options\l_ODE.cpp">
<polygon fill="white" stroke="black" points="388,-247 388,-299 522,-299 522,-247 388,-247"/>
<text text-anchor="start" x="396" y="-287" font-family="Helvetica,sans-Serif" font-size="10.00">/media/kavonszadkowski</text>
<text text-anchor="start" x="396" y="-276" font-family="Helvetica,sans-Serif" font-size="10.00">/work/marsdocs/mars/gui</text>
<text text-anchor="start" x="396" y="-265" font-family="Helvetica,sans-Serif" font-size="10.00">/src/Widget_Node_Options</text>
<text text-anchor="middle" x="455" y="-254" font-family="Helvetica,sans-Serif" font-size="10.00">_ODE.cpp</text>
</a>
</g>
</g>
<!-- Node1&#45;&gt;Node11 -->
<g id="edge11" class="edge"><title>Node1&#45;&gt;Node11</title>
<path fill="none" stroke="midnightblue" d="M350.552,-331.481C369.148,-321.248 390.73,-309.37 409.432,-299.078"/>
<polygon fill="midnightblue" stroke="midnightblue" points="348.763,-328.471 341.689,-336.359 352.138,-334.604 348.763,-328.471"/>
</g>
<!-- Node3 -->
<g id="node3" class="node"><title>Node3</title>
<g id="a_node3"><a xlink:href="../../d8/d3e/_dialog___import___mesh_8cpp.html" target="_top" xlink:title="/media/kavonszadkowski\l/work/marsdocs/mars/gui\l/src/dialogs/Dialog_Import\l_Mesh.cpp">
<polygon fill="white" stroke="black" points="-0.5,-157 -0.5,-209 130.5,-209 130.5,-157 -0.5,-157"/>
<text text-anchor="start" x="7.5" y="-197" font-family="Helvetica,sans-Serif" font-size="10.00">/media/kavonszadkowski</text>
<text text-anchor="start" x="7.5" y="-186" font-family="Helvetica,sans-Serif" font-size="10.00">/work/marsdocs/mars/gui</text>
<text text-anchor="start" x="7.5" y="-175" font-family="Helvetica,sans-Serif" font-size="10.00">/src/dialogs/Dialog_Import</text>
<text text-anchor="middle" x="65" y="-164" font-family="Helvetica,sans-Serif" font-size="10.00">_Mesh.cpp</text>
</a>
</g>
</g>
<!-- Node2&#45;&gt;Node3 -->
<g id="edge2" class="edge"><title>Node2&#45;&gt;Node3</title>
<path fill="none" stroke="midnightblue" d="M116.635,-244.585C106.99,-233.268 95.8834,-220.237 86.4481,-209.166"/>
<polygon fill="midnightblue" stroke="midnightblue" points="114.205,-247.129 123.355,-252.47 119.532,-242.589 114.205,-247.129"/>
</g>
<!-- Node4 -->
<g id="node4" class="node"><title>Node4</title>
<g id="a_node4"><a xlink:href="../../d3/d92/_menu_simulation_8h.html" target="_top" xlink:title="Provides the Simulation and Control menu entries. ">
<polygon fill="white" stroke="black" points="86,-78.5 86,-119.5 232,-119.5 232,-78.5 86,-78.5"/>
<text text-anchor="start" x="94" y="-107.5" font-family="Helvetica,sans-Serif" font-size="10.00">/media/kavonszadkowski</text>
<text text-anchor="start" x="94" y="-96.5" font-family="Helvetica,sans-Serif" font-size="10.00">/work/marsdocs/mars/gui</text>
<text text-anchor="middle" x="159" y="-85.5" font-family="Helvetica,sans-Serif" font-size="10.00">/src/menus/MenuSimulation.h</text>
</a>
</g>
</g>
<!-- Node2&#45;&gt;Node4 -->
<g id="edge3" class="edge"><title>Node2&#45;&gt;Node4</title>
<path fill="none" stroke="midnightblue" d="M143.301,-242.113C147.191,-206.905 153.54,-149.428 156.846,-119.5"/>
<polygon fill="midnightblue" stroke="midnightblue" points="139.799,-241.946 142.18,-252.269 146.756,-242.714 139.799,-241.946"/>
</g>
<!-- Node5 -->
<g id="node5" class="node"><title>Node5</title>
<g id="a_node5"><a xlink:href="../../da/d1e/_mars_gui_8cpp.html" target="_top" xlink:title="/media/kavonszadkowski\l/work/marsdocs/mars/gui\l/src/MarsGui.cpp">
<polygon fill="white" stroke="black" points="15.5,-0.5 15.5,-41.5 142.5,-41.5 142.5,-0.5 15.5,-0.5"/>
<text text-anchor="start" x="23.5" y="-29.5" font-family="Helvetica,sans-Serif" font-size="10.00">/media/kavonszadkowski</text>
<text text-anchor="start" x="23.5" y="-18.5" font-family="Helvetica,sans-Serif" font-size="10.00">/work/marsdocs/mars/gui</text>
<text text-anchor="middle" x="79" y="-7.5" font-family="Helvetica,sans-Serif" font-size="10.00">/src/MarsGui.cpp</text>
</a>
</g>
</g>
<!-- Node4&#45;&gt;Node5 -->
<g id="edge4" class="edge"><title>Node4&#45;&gt;Node5</title>
<path fill="none" stroke="midnightblue" d="M131.096,-71.4916C120.715,-61.6294 109.134,-50.6273 99.5322,-41.5056"/>
<polygon fill="midnightblue" stroke="midnightblue" points="128.737,-74.0781 138.398,-78.4281 133.559,-69.0031 128.737,-74.0781"/>
</g>
<!-- Node6 -->
<g id="node6" class="node"><title>Node6</title>
<g id="a_node6"><a xlink:href="../../d9/d82/_menu_simulation_8cpp.html" target="_top" xlink:title="/media/kavonszadkowski\l/work/marsdocs/mars/gui\l/src/menus/MenuSimulation.cpp">
<polygon fill="white" stroke="black" points="160.5,-0.5 160.5,-41.5 317.5,-41.5 317.5,-0.5 160.5,-0.5"/>
<text text-anchor="start" x="168.5" y="-29.5" font-family="Helvetica,sans-Serif" font-size="10.00">/media/kavonszadkowski</text>
<text text-anchor="start" x="168.5" y="-18.5" font-family="Helvetica,sans-Serif" font-size="10.00">/work/marsdocs/mars/gui</text>
<text text-anchor="middle" x="239" y="-7.5" font-family="Helvetica,sans-Serif" font-size="10.00">/src/menus/MenuSimulation.cpp</text>
</a>
</g>
</g>
<!-- Node4&#45;&gt;Node6 -->
<g id="edge5" class="edge"><title>Node4&#45;&gt;Node6</title>
<path fill="none" stroke="midnightblue" d="M186.904,-71.4916C197.285,-61.6294 208.866,-50.6273 218.468,-41.5056"/>
<polygon fill="midnightblue" stroke="midnightblue" points="184.441,-69.0031 179.602,-78.4281 189.263,-74.0781 184.441,-69.0031"/>
</g>
<!-- Node8 -->
<g id="node8" class="node"><title>Node8</title>
<g id="a_node8"><a xlink:href="../../d7/dd0/_dialog_nodes_8h.html" target="_top" xlink:title="A node tree widget holding all nodes as properties. ">
<polygon fill="white" stroke="black" points="221,-162.5 221,-203.5 355,-203.5 355,-162.5 221,-162.5"/>
<text text-anchor="start" x="229" y="-191.5" font-family="Helvetica,sans-Serif" font-size="10.00">/media/kavonszadkowski</text>
<text text-anchor="start" x="229" y="-180.5" font-family="Helvetica,sans-Serif" font-size="10.00">/work/marsdocs/mars/gui</text>
<text text-anchor="middle" x="288" y="-169.5" font-family="Helvetica,sans-Serif" font-size="10.00">/src/dialogs/DialogNodes.h</text>
</a>
</g>
</g>
<!-- Node7&#45;&gt;Node8 -->
<g id="edge7" class="edge"><title>Node7&#45;&gt;Node8</title>
<path fill="none" stroke="midnightblue" d="M299.931,-242.33C297.333,-229.629 294.37,-215.14 292.046,-203.78"/>
<polygon fill="midnightblue" stroke="midnightblue" points="296.572,-243.374 302.005,-252.47 303.43,-241.971 296.572,-243.374"/>
</g>
<!-- Node10 -->
<g id="node10" class="node"><title>Node10</title>
<g id="a_node10"><a xlink:href="../../de/df4/_node_handler_8cpp.html" target="_top" xlink:title="/media/kavonszadkowski\l/work/marsdocs/mars/gui\l/src/NodeHandler.cpp">
<polygon fill="white" stroke="black" points="373.5,-162.5 373.5,-203.5 500.5,-203.5 500.5,-162.5 373.5,-162.5"/>
<text text-anchor="start" x="381.5" y="-191.5" font-family="Helvetica,sans-Serif" font-size="10.00">/media/kavonszadkowski</text>
<text text-anchor="start" x="381.5" y="-180.5" font-family="Helvetica,sans-Serif" font-size="10.00">/work/marsdocs/mars/gui</text>
<text text-anchor="middle" x="437" y="-169.5" font-family="Helvetica,sans-Serif" font-size="10.00">/src/NodeHandler.cpp</text>
</a>
</g>
</g>
<!-- Node7&#45;&gt;Node10 -->
<g id="edge10" class="edge"><title>Node7&#45;&gt;Node10</title>
<path fill="none" stroke="midnightblue" d="M343.489,-246.816C363.831,-233.151 388.615,-216.503 407.555,-203.78"/>
<polygon fill="midnightblue" stroke="midnightblue" points="341.422,-243.988 335.073,-252.47 345.326,-249.799 341.422,-243.988"/>
</g>
<!-- Node8&#45;&gt;Node4 -->
<g id="edge9" class="edge"><title>Node8&#45;&gt;Node4</title>
<path fill="none" stroke="midnightblue" d="M248.472,-156.874C229.717,-144.952 207.63,-130.912 190.094,-119.765"/>
<polygon fill="midnightblue" stroke="midnightblue" points="246.784,-159.948 257.101,-162.359 250.54,-154.041 246.784,-159.948"/>
</g>
<!-- Node9 -->
<g id="node9" class="node"><title>Node9</title>
<g id="a_node9"><a xlink:href="../../d7/da3/_dialog_nodes_8cpp.html" target="_top" xlink:title="/media/kavonszadkowski\l/work/marsdocs/mars/gui\l/src/dialogs/DialogNodes.cpp">
<polygon fill="white" stroke="black" points="250.5,-78.5 250.5,-119.5 395.5,-119.5 395.5,-78.5 250.5,-78.5"/>
<text text-anchor="start" x="258.5" y="-107.5" font-family="Helvetica,sans-Serif" font-size="10.00">/media/kavonszadkowski</text>
<text text-anchor="start" x="258.5" y="-96.5" font-family="Helvetica,sans-Serif" font-size="10.00">/work/marsdocs/mars/gui</text>
<text text-anchor="middle" x="323" y="-85.5" font-family="Helvetica,sans-Serif" font-size="10.00">/src/dialogs/DialogNodes.cpp</text>
</a>
</g>
</g>
<!-- Node8&#45;&gt;Node9 -->
<g id="edge8" class="edge"><title>Node8&#45;&gt;Node9</title>
<path fill="none" stroke="midnightblue" d="M300.427,-152.885C305.127,-141.874 310.361,-129.61 314.605,-119.667"/>
<polygon fill="midnightblue" stroke="midnightblue" points="297.179,-151.579 296.473,-162.15 303.617,-154.327 297.179,-151.579"/>
</g>
</g>
</svg>
