<?xml version="1.0" encoding="UTF-8" standalone="no"?>
<!DOCTYPE svg PUBLIC "-//W3C//DTD SVG 1.1//EN"
 "http://www.w3.org/Graphics/SVG/1.1/DTD/svg11.dtd">
<!-- Generated by graphviz version 2.26.3 (20100126.1600)
 -->
<!-- Title: /home/kavonszadkowski/limes&#45;dev/simulation/mars/gui/src/Widget_Node_Options_ODE.h Pages: 1 -->
<svg width="511pt" height="448pt"
 viewBox="0.00 0.00 511.00 448.00" xmlns="http://www.w3.org/2000/svg" xmlns:xlink="http://www.w3.org/1999/xlink">
<g id="graph1" class="graph" transform="scale(1 1) rotate(0) translate(4 444)">
<title>/home/kavonszadkowski/limes&#45;dev/simulation/mars/gui/src/Widget_Node_Options_ODE.h</title>
<polygon fill="white" stroke="white" points="-4,5 -4,-444 508,-444 508,5 -4,5"/>
<!-- Node1 -->
<g id="node1" class="node"><title>Node1</title>
<polygon fill="#bfbfbf" stroke="black" points="210,-379 210,-439 346,-439 346,-379 210,-379"/>
<text text-anchor="start" x="218" y="-426" font-family="Helvetica,sans-Serif" font-size="10.00">/home/kavonszadkowski</text>
<text text-anchor="start" x="218" y="-413" font-family="Helvetica,sans-Serif" font-size="10.00">/limes&#45;dev/simulation</text>
<text text-anchor="start" x="218" y="-400" font-family="Helvetica,sans-Serif" font-size="10.00">/mars/gui/src/Widget_Node</text>
<text text-anchor="middle" x="278" y="-387" font-family="Helvetica,sans-Serif" font-size="10.00">_Options_ODE.h</text>
</g>
<!-- Node2 -->
<g id="node3" class="node"><title>Node2</title>
<a xlink:href="../../d9/de3/_dialog___import___mesh_8h.html" target="_top" xlink:title="/home/kavonszadkowski\l/limes&#45;dev/simulation\l/mars/gui/src/dialogs\l/Dialog_Import_Mesh.h">
<polygon fill="white" stroke="black" points="64.5,-281 64.5,-341 189.5,-341 189.5,-281 64.5,-281"/>
<text text-anchor="start" x="72.5" y="-328" font-family="Helvetica,sans-Serif" font-size="10.00">/home/kavonszadkowski</text>
<text text-anchor="start" x="72.5" y="-315" font-family="Helvetica,sans-Serif" font-size="10.00">/limes&#45;dev/simulation</text>
<text text-anchor="start" x="72.5" y="-302" font-family="Helvetica,sans-Serif" font-size="10.00">/mars/gui/src/dialogs</text>
<text text-anchor="middle" x="127" y="-289" font-family="Helvetica,sans-Serif" font-size="10.00">/Dialog_Import_Mesh.h</text>
</a>
</g>
<!-- Node1&#45;&gt;Node2 -->
<g id="edge2" class="edge"><title>Node1&#45;&gt;Node2</title>
<path fill="none" stroke="midnightblue" d="M222.632,-373.066C206.454,-362.566 188.944,-351.202 173.383,-341.103"/>
<polygon fill="midnightblue" stroke="midnightblue" points="221.169,-376.289 231.463,-378.797 224.98,-370.417 221.169,-376.289"/>
</g>
<!-- Node7 -->
<g id="node13" class="node"><title>Node7</title>
<a xlink:href="../../d7/deb/_node_handler_8h.html" target="_top" xlink:title="GUI handling creating and editing nodes in the simulation &#160;A property in the node tree dialog is crea...">
<polygon fill="white" stroke="black" points="207,-287.5 207,-334.5 349,-334.5 349,-287.5 207,-287.5"/>
<text text-anchor="start" x="215" y="-321.5" font-family="Helvetica,sans-Serif" font-size="10.00">/home/kavonszadkowski</text>
<text text-anchor="start" x="215" y="-308.5" font-family="Helvetica,sans-Serif" font-size="10.00">/limes&#45;dev/simulation</text>
<text text-anchor="middle" x="278" y="-295.5" font-family="Helvetica,sans-Serif" font-size="10.00">/mars/gui/src/NodeHandler.h</text>
</a>
</g>
<!-- Node1&#45;&gt;Node7 -->
<g id="edge12" class="edge"><title>Node1&#45;&gt;Node7</title>
<path fill="none" stroke="midnightblue" d="M278,-368.5C278,-357.009 278,-344.874 278,-334.729"/>
<polygon fill="midnightblue" stroke="midnightblue" points="274.5,-368.797 278,-378.797 281.5,-368.797 274.5,-368.797"/>
</g>
<!-- Node11 -->
<g id="node22" class="node"><title>Node11</title>
<a xlink:href="../../d4/d97/_widget___node___options___o_d_e_8cpp.html" target="_top" xlink:title="/home/kavonszadkowski\l/limes&#45;dev/simulation\l/mars/gui/src/Widget_Node\l_Options_ODE.cpp">
<polygon fill="white" stroke="black" points="367,-281 367,-341 503,-341 503,-281 367,-281"/>
<text text-anchor="start" x="375" y="-328" font-family="Helvetica,sans-Serif" font-size="10.00">/home/kavonszadkowski</text>
<text text-anchor="start" x="375" y="-315" font-family="Helvetica,sans-Serif" font-size="10.00">/limes&#45;dev/simulation</text>
<text text-anchor="start" x="375" y="-302" font-family="Helvetica,sans-Serif" font-size="10.00">/mars/gui/src/Widget_Node</text>
<text text-anchor="middle" x="435" y="-289" font-family="Helvetica,sans-Serif" font-size="10.00">_Options_ODE.cpp</text>
</a>
</g>
<!-- Node1&#45;&gt;Node11 -->
<g id="edge22" class="edge"><title>Node1&#45;&gt;Node11</title>
<path fill="none" stroke="midnightblue" d="M335.101,-373.358C352.052,-362.776 370.445,-351.296 386.774,-341.103"/>
<polygon fill="midnightblue" stroke="midnightblue" points="333.016,-370.533 326.386,-378.797 336.723,-376.471 333.016,-370.533"/>
</g>
<!-- Node3 -->
<g id="node5" class="node"><title>Node3</title>
<a xlink:href="../../d8/d3e/_dialog___import___mesh_8cpp.html" target="_top" xlink:title="/home/kavonszadkowski\l/limes&#45;dev/simulation\l/mars/gui/src/dialogs\l/Dialog_Import_Mesh.cpp">
<polygon fill="white" stroke="black" points="1,-183 1,-243 129,-243 129,-183 1,-183"/>
<text text-anchor="start" x="9" y="-230" font-family="Helvetica,sans-Serif" font-size="10.00">/home/kavonszadkowski</text>
<text text-anchor="start" x="9" y="-217" font-family="Helvetica,sans-Serif" font-size="10.00">/limes&#45;dev/simulation</text>
<text text-anchor="start" x="9" y="-204" font-family="Helvetica,sans-Serif" font-size="10.00">/mars/gui/src/dialogs</text>
<text text-anchor="middle" x="65" y="-191" font-family="Helvetica,sans-Serif" font-size="10.00">/Dialog_Import_Mesh.cpp</text>
</a>
</g>
<!-- Node2&#45;&gt;Node3 -->
<g id="edge4" class="edge"><title>Node2&#45;&gt;Node3</title>
<path fill="none" stroke="midnightblue" d="M102.434,-272.17C96.3549,-262.561 89.93,-252.405 84.1516,-243.272"/>
<polygon fill="midnightblue" stroke="midnightblue" points="99.5878,-274.218 107.892,-280.797 105.503,-270.475 99.5878,-274.218"/>
</g>
<!-- Node4 -->
<g id="node7" class="node"><title>Node4</title>
<a xlink:href="../../d3/d92/_menu_simulation_8h.html" target="_top" xlink:title="Provides the Simulation and Control menu entries. ">
<polygon fill="white" stroke="black" points="63.5,-91.5 63.5,-138.5 250.5,-138.5 250.5,-91.5 63.5,-91.5"/>
<text text-anchor="start" x="71.5" y="-125.5" font-family="Helvetica,sans-Serif" font-size="10.00">/home/kavonszadkowski</text>
<text text-anchor="start" x="71.5" y="-112.5" font-family="Helvetica,sans-Serif" font-size="10.00">/limes&#45;dev/simulation</text>
<text text-anchor="middle" x="157" y="-99.5" font-family="Helvetica,sans-Serif" font-size="10.00">/mars/gui/src/menus/MenuSimulation.h</text>
</a>
</g>
<!-- Node2&#45;&gt;Node4 -->
<g id="edge6" class="edge"><title>Node2&#45;&gt;Node4</title>
<path fill="none" stroke="midnightblue" d="M133.695,-270.894C135.142,-262.041 136.644,-252.706 138,-244 143.712,-207.317 149.903,-164.692 153.615,-138.794"/>
<polygon fill="midnightblue" stroke="midnightblue" points="130.203,-270.564 132.034,-281 137.11,-271.7 130.203,-270.564"/>
</g>
<!-- Node5 -->
<g id="node9" class="node"><title>Node5</title>
<a xlink:href="../../da/d1e/_mars_gui_8cpp.html" target="_top" xlink:title="/home/kavonszadkowski\l/limes&#45;dev/simulation\l/mars/gui/src/MarsGui.cpp">
<polygon fill="white" stroke="black" points="0,-0.5 0,-47.5 132,-47.5 132,-0.5 0,-0.5"/>
<text text-anchor="start" x="8" y="-34.5" font-family="Helvetica,sans-Serif" font-size="10.00">/home/kavonszadkowski</text>
<text text-anchor="start" x="8" y="-21.5" font-family="Helvetica,sans-Serif" font-size="10.00">/limes&#45;dev/simulation</text>
<text text-anchor="middle" x="66" y="-8.5" font-family="Helvetica,sans-Serif" font-size="10.00">/mars/gui/src/MarsGui.cpp</text>
</a>
</g>
<!-- Node4&#45;&gt;Node5 -->
<g id="edge8" class="edge"><title>Node4&#45;&gt;Node5</title>
<path fill="none" stroke="midnightblue" d="M125.94,-83.9399C114.1,-72.1 100.805,-58.8047 89.7495,-47.7495"/>
<polygon fill="midnightblue" stroke="midnightblue" points="123.545,-86.4946 133.091,-91.0908 128.495,-81.5448 123.545,-86.4946"/>
</g>
<!-- Node6 -->
<g id="node11" class="node"><title>Node6</title>
<a xlink:href="../../d9/d82/_menu_simulation_8cpp.html" target="_top" xlink:title="/home/kavonszadkowski\l/limes&#45;dev/simulation\l/mars/gui/src/menus/MenuSimulation.cpp">
<polygon fill="white" stroke="black" points="149.5,-0.5 149.5,-47.5 346.5,-47.5 346.5,-0.5 149.5,-0.5"/>
<text text-anchor="start" x="157.5" y="-34.5" font-family="Helvetica,sans-Serif" font-size="10.00">/home/kavonszadkowski</text>
<text text-anchor="start" x="157.5" y="-21.5" font-family="Helvetica,sans-Serif" font-size="10.00">/limes&#45;dev/simulation</text>
<text text-anchor="middle" x="248" y="-8.5" font-family="Helvetica,sans-Serif" font-size="10.00">/mars/gui/src/menus/MenuSimulation.cpp</text>
</a>
</g>
<!-- Node4&#45;&gt;Node6 -->
<g id="edge10" class="edge"><title>Node4&#45;&gt;Node6</title>
<path fill="none" stroke="midnightblue" d="M188.06,-83.9399C199.9,-72.1 213.195,-58.8047 224.251,-47.7495"/>
<polygon fill="midnightblue" stroke="midnightblue" points="185.505,-81.5448 180.909,-91.0908 190.455,-86.4946 185.505,-81.5448"/>
</g>
<!-- Node8 -->
<g id="node15" class="node"><title>Node8</title>
<a xlink:href="../../d7/dd0/_dialog_nodes_8h.html" target="_top" xlink:title="A node tree widget holding all nodes as properties. ">
<polygon fill="white" stroke="black" points="200.5,-183 200.5,-243 325.5,-243 325.5,-183 200.5,-183"/>
<text text-anchor="start" x="208.5" y="-230" font-family="Helvetica,sans-Serif" font-size="10.00">/home/kavonszadkowski</text>
<text text-anchor="start" x="208.5" y="-217" font-family="Helvetica,sans-Serif" font-size="10.00">/limes&#45;dev/simulation</text>
<text text-anchor="start" x="208.5" y="-204" font-family="Helvetica,sans-Serif" font-size="10.00">/mars/gui/src/dialogs</text>
<text text-anchor="middle" x="263" y="-191" font-family="Helvetica,sans-Serif" font-size="10.00">/DialogNodes.h</text>
</a>
</g>
<!-- Node7&#45;&gt;Node8 -->
<g id="edge14" class="edge"><title>Node7&#45;&gt;Node8</title>
<path fill="none" stroke="midnightblue" d="M272.816,-277.131C271.128,-266.1 269.265,-253.934 267.621,-243.19"/>
<polygon fill="midnightblue" stroke="midnightblue" points="269.396,-277.922 274.369,-287.277 276.316,-276.862 269.396,-277.922"/>
</g>
<!-- Node10 -->
<g id="node20" class="node"><title>Node10</title>
<a xlink:href="../../de/df4/_node_handler_8cpp.html" target="_top" xlink:title="/home/kavonszadkowski\l/limes&#45;dev/simulation\l/mars/gui/src/NodeHandler.cpp">
<polygon fill="white" stroke="black" points="343,-189.5 343,-236.5 495,-236.5 495,-189.5 343,-189.5"/>
<text text-anchor="start" x="351" y="-223.5" font-family="Helvetica,sans-Serif" font-size="10.00">/home/kavonszadkowski</text>
<text text-anchor="start" x="351" y="-210.5" font-family="Helvetica,sans-Serif" font-size="10.00">/limes&#45;dev/simulation</text>
<text text-anchor="middle" x="419" y="-197.5" font-family="Helvetica,sans-Serif" font-size="10.00">/mars/gui/src/NodeHandler.cpp</text>
</a>
</g>
<!-- Node7&#45;&gt;Node10 -->
<g id="edge20" class="edge"><title>Node7&#45;&gt;Node10</title>
<path fill="none" stroke="midnightblue" d="M320.453,-281.494C341.172,-267.093 365.753,-250.008 385.182,-236.505"/>
<polygon fill="midnightblue" stroke="midnightblue" points="318.346,-278.696 312.132,-287.277 322.341,-284.444 318.346,-278.696"/>
</g>
<!-- Node8&#45;&gt;Node4 -->
<g id="edge18" class="edge"><title>Node8&#45;&gt;Node4</title>
<path fill="none" stroke="midnightblue" d="M222.974,-175.995C209.466,-163.506 194.759,-149.909 182.666,-138.729"/>
<polygon fill="midnightblue" stroke="midnightblue" points="220.613,-178.578 230.332,-182.797 225.365,-173.439 220.613,-178.578"/>
</g>
<!-- Node9 -->
<g id="node17" class="node"><title>Node9</title>
<a xlink:href="../../d7/da3/_dialog_nodes_8cpp.html" target="_top" xlink:title="/home/kavonszadkowski\l/limes&#45;dev/simulation\l/mars/gui/src/dialogs\l/DialogNodes.cpp">
<polygon fill="white" stroke="black" points="267.5,-85 267.5,-145 392.5,-145 392.5,-85 267.5,-85"/>
<text text-anchor="start" x="275.5" y="-132" font-family="Helvetica,sans-Serif" font-size="10.00">/home/kavonszadkowski</text>
<text text-anchor="start" x="275.5" y="-119" font-family="Helvetica,sans-Serif" font-size="10.00">/limes&#45;dev/simulation</text>
<text text-anchor="start" x="275.5" y="-106" font-family="Helvetica,sans-Serif" font-size="10.00">/mars/gui/src/dialogs</text>
<text text-anchor="middle" x="330" y="-93" font-family="Helvetica,sans-Serif" font-size="10.00">/DialogNodes.cpp</text>
</a>
</g>
<!-- Node8&#45;&gt;Node9 -->
<g id="edge16" class="edge"><title>Node8&#45;&gt;Node9</title>
<path fill="none" stroke="midnightblue" d="M289.346,-174.464C295.975,-164.768 302.996,-154.499 309.304,-145.272"/>
<polygon fill="midnightblue" stroke="midnightblue" points="286.403,-172.567 283.649,-182.797 292.182,-176.517 286.403,-172.567"/>
</g>
</g>
</svg>
