<?xml version="1.0" encoding="UTF-8" standalone="no"?>
<!DOCTYPE svg PUBLIC "-//W3C//DTD SVG 1.1//EN"
 "http://www.w3.org/Graphics/SVG/1.1/DTD/svg11.dtd">
<!-- Generated by graphviz version 2.36.0 (20140111.2315)
 -->
<!-- Title: data_broker_plotter::DataBrokerPlotter Pages: 1 -->
<svg width="274pt" height="176pt"
 viewBox="0.00 0.00 274.00 176.00" xmlns="http://www.w3.org/2000/svg" xmlns:xlink="http://www.w3.org/1999/xlink">
<g id="graph0" class="graph" transform="scale(1 1) rotate(0) translate(4 172)">
<title>data_broker_plotter::DataBrokerPlotter</title>
<polygon fill="white" stroke="none" points="-4,4 -4,-172 270,-172 270,4 -4,4"/>
<!-- Node1 -->
<g id="node1" class="node"><title>Node1</title>
<polygon fill="#bfbfbf" stroke="black" points="95.5,-1 95.5,-31 196.5,-31 196.5,-1 95.5,-1"/>
<text text-anchor="start" x="103.5" y="-19" font-family="Helvetica,sans-Serif" font-size="10.00">data_broker_plotter</text>
<text text-anchor="middle" x="146" y="-8" font-family="Helvetica,sans-Serif" font-size="10.00">::DataBrokerPlotter</text>
</g>
<!-- Node2 -->
<g id="node2" class="node"><title>Node2</title>
<g id="a_node2"><a xlink:href="../../d4/dcf/classmars_1_1main__gui_1_1_base_widget.html" target="_top" xlink:title="mars::main_gui::BaseWidget">
<polygon fill="white" stroke="black" points="4.5,-74.5 4.5,-93.5 147.5,-93.5 147.5,-74.5 4.5,-74.5"/>
<text text-anchor="middle" x="76" y="-81.5" font-family="Helvetica,sans-Serif" font-size="10.00">mars::main_gui::BaseWidget</text>
</a>
</g>
</g>
<!-- Node2&#45;&gt;Node1 -->
<g id="edge1" class="edge"><title>Node2&#45;&gt;Node1</title>
<path fill="none" stroke="midnightblue" d="M92.5068,-67.4365C104.159,-56.4501 119.648,-41.8464 130.959,-31.1815"/>
<polygon fill="midnightblue" stroke="midnightblue" points="90.0261,-64.9649 85.1513,-74.3717 94.8283,-70.0581 90.0261,-64.9649"/>
</g>
<!-- Node3 -->
<g id="node3" class="node"><title>Node3</title>
<polygon fill="white" stroke="#bfbfbf" points="-0.5,-142.5 -0.5,-161.5 54.5,-161.5 54.5,-142.5 -0.5,-142.5"/>
<text text-anchor="middle" x="27" y="-149.5" font-family="Helvetica,sans-Serif" font-size="10.00">QWidget</text>
</g>
<!-- Node3&#45;&gt;Node2 -->
<g id="edge2" class="edge"><title>Node3&#45;&gt;Node2</title>
<path fill="none" stroke="midnightblue" d="M39.391,-134.31C48.9433,-121.444 61.7764,-104.158 69.4361,-93.8411"/>
<polygon fill="midnightblue" stroke="midnightblue" points="36.5567,-132.256 33.4059,-142.372 42.1771,-136.429 36.5567,-132.256"/>
</g>
<!-- Node4 -->
<g id="node4" class="node"><title>Node4</title>
<g id="a_node4"><a xlink:href="../../d4/d1a/classmars_1_1cfg__manager_1_1_c_f_g_client.html" target="_top" xlink:title="mars::cfg_manager::\lCFGClient">
<polygon fill="white" stroke="black" points="72.5,-137 72.5,-167 179.5,-167 179.5,-137 72.5,-137"/>
<text text-anchor="start" x="80.5" y="-155" font-family="Helvetica,sans-Serif" font-size="10.00">mars::cfg_manager::</text>
<text text-anchor="middle" x="126" y="-144" font-family="Helvetica,sans-Serif" font-size="10.00">CFGClient</text>
</a>
</g>
</g>
<!-- Node4&#45;&gt;Node2 -->
<g id="edge3" class="edge"><title>Node4&#45;&gt;Node2</title>
<path fill="none" stroke="midnightblue" d="M108.936,-128.475C99.9214,-116.576 89.3714,-102.65 82.6881,-93.8283"/>
<polygon fill="midnightblue" stroke="midnightblue" points="106.322,-130.822 115.151,-136.679 111.902,-126.595 106.322,-130.822"/>
</g>
<!-- Node5 -->
<g id="node5" class="node"><title>Node5</title>
<g id="a_node5"><a xlink:href="../../d0/d0e/classmars_1_1data__broker_1_1_receiver_interface.html" target="_top" xlink:title="Interface for classes that want to receive data from the DataBroker. ">
<polygon fill="white" stroke="black" points="165.5,-69 165.5,-99 266.5,-99 266.5,-69 165.5,-69"/>
<text text-anchor="start" x="173.5" y="-87" font-family="Helvetica,sans-Serif" font-size="10.00">mars::data_broker::</text>
<text text-anchor="middle" x="216" y="-76" font-family="Helvetica,sans-Serif" font-size="10.00">ReceiverInterface</text>
</a>
</g>
</g>
<!-- Node5&#45;&gt;Node1 -->
<g id="edge4" class="edge"><title>Node5&#45;&gt;Node1</title>
<path fill="none" stroke="midnightblue" d="M193.49,-61.7762C182.92,-51.8105 170.601,-40.1956 161.159,-31.2931"/>
<polygon fill="midnightblue" stroke="midnightblue" points="191.134,-64.3654 200.811,-68.679 195.936,-59.2723 191.134,-64.3654"/>
</g>
</g>
</svg>
