<?xml version="1.0" encoding="UTF-8" standalone="no"?>
<!DOCTYPE svg PUBLIC "-//W3C//DTD SVG 1.1//EN"
 "http://www.w3.org/Graphics/SVG/1.1/DTD/svg11.dtd">
<!-- Generated by graphviz version 2.36.0 (20140111.2315)
 -->
<!-- Title: /media/kavonszadkowski/work/marsdocs/mars/sim/src/sensors/NodeAngularVelocitySensor.h Pages: 1 -->
<svg width="730pt" height="254pt"
 viewBox="0.00 0.00 730.00 254.00" xmlns="http://www.w3.org/2000/svg" xmlns:xlink="http://www.w3.org/1999/xlink">
<g id="graph0" class="graph" transform="scale(1 1) rotate(0) translate(4 250)">
<title>/media/kavonszadkowski/work/marsdocs/mars/sim/src/sensors/NodeAngularVelocitySensor.h</title>
<polygon fill="white" stroke="none" points="-4,4 -4,-250 726,-250 726,4 -4,4"/>
<!-- Node1 -->
<g id="node1" class="node"><title>Node1</title>
<polygon fill="#bfbfbf" stroke="black" points="120.5,-193 120.5,-245 285.5,-245 285.5,-193 120.5,-193"/>
<text text-anchor="start" x="128.5" y="-233" font-family="Helvetica,sans-Serif" font-size="10.00">/media/kavonszadkowski</text>
<text text-anchor="start" x="128.5" y="-222" font-family="Helvetica,sans-Serif" font-size="10.00">/work/marsdocs/mars/sim</text>
<text text-anchor="start" x="128.5" y="-211" font-family="Helvetica,sans-Serif" font-size="10.00">/src/sensors/NodeAngularVelocity</text>
<text text-anchor="middle" x="203" y="-200" font-family="Helvetica,sans-Serif" font-size="10.00">Sensor.h</text>
</g>
<!-- Node2 -->
<g id="node2" class="node"><title>Node2</title>
<g id="a_node2"><a xlink:href="../../d0/d9f/_node_array_sensor_8h.html" target="_top" xlink:title="NodeArraySensor.h">
<polygon fill="white" stroke="black" points="152,-136.5 152,-155.5 254,-155.5 254,-136.5 152,-136.5"/>
<text text-anchor="middle" x="203" y="-143.5" font-family="Helvetica,sans-Serif" font-size="10.00">NodeArraySensor.h</text>
</a>
</g>
</g>
<!-- Node1&#45;&gt;Node2 -->
<g id="edge1" class="edge"><title>Node1&#45;&gt;Node2</title>
<path fill="none" stroke="midnightblue" d="M203,-192.768C203,-183.89 203,-174.074 203,-165.816"/>
<polygon fill="midnightblue" stroke="midnightblue" points="206.5,-165.757 203,-155.757 199.5,-165.757 206.5,-165.757"/>
</g>
<!-- Node3 -->
<g id="node3" class="node"><title>Node3</title>
<polygon fill="white" stroke="#bfbfbf" points="0,-74.5 0,-93.5 128,-93.5 128,-74.5 0,-74.5"/>
<text text-anchor="middle" x="64" y="-81.5" font-family="Helvetica,sans-Serif" font-size="10.00">configmaps/ConfigData.h</text>
</g>
<!-- Node2&#45;&gt;Node3 -->
<g id="edge2" class="edge"><title>Node2&#45;&gt;Node3</title>
<path fill="none" stroke="midnightblue" d="M183.085,-136.403C159.551,-126.245 120.19,-109.255 93.2071,-97.6074"/>
<polygon fill="midnightblue" stroke="midnightblue" points="94.4466,-94.3303 83.8784,-93.5806 91.6724,-100.757 94.4466,-94.3303"/>
</g>
<!-- Node4 -->
<g id="node4" class="node"><title>Node4</title>
<polygon fill="white" stroke="#bfbfbf" points="87.5,-1 87.5,-31 190.5,-31 190.5,-1 87.5,-1"/>
<text text-anchor="start" x="95.5" y="-19" font-family="Helvetica,sans-Serif" font-size="10.00">mars/interfaces/sim</text>
<text text-anchor="middle" x="139" y="-8" font-family="Helvetica,sans-Serif" font-size="10.00">/SensorInterface.h</text>
</g>
<!-- Node2&#45;&gt;Node4 -->
<g id="edge3" class="edge"><title>Node2&#45;&gt;Node4</title>
<path fill="none" stroke="midnightblue" d="M197.025,-136.262C191.065,-127.357 181.837,-113.039 175,-100 164.792,-80.5317 154.986,-57.5434 148.193,-40.7023"/>
<polygon fill="midnightblue" stroke="midnightblue" points="151.322,-39.0978 144.376,-31.0971 144.817,-41.6828 151.322,-39.0978"/>
</g>
<!-- Node5 -->
<g id="node5" class="node"><title>Node5</title>
<polygon fill="white" stroke="#bfbfbf" points="184,-69 184,-99 318,-99 318,-69 184,-69"/>
<text text-anchor="start" x="192" y="-87" font-family="Helvetica,sans-Serif" font-size="10.00">mars/data_broker/Receiver</text>
<text text-anchor="middle" x="251" y="-76" font-family="Helvetica,sans-Serif" font-size="10.00">Interface.h</text>
</g>
<!-- Node2&#45;&gt;Node5 -->
<g id="edge4" class="edge"><title>Node2&#45;&gt;Node5</title>
<path fill="none" stroke="midnightblue" d="M209.877,-136.403C215.953,-128.809 225.083,-117.396 233.199,-107.252"/>
<polygon fill="midnightblue" stroke="midnightblue" points="236.173,-109.136 239.687,-99.1408 230.707,-104.763 236.173,-109.136"/>
</g>
<!-- Node6 -->
<g id="node6" class="node"><title>Node6</title>
<g id="a_node6"><a xlink:href="../../d5/df7/_i_d_list_config_8h.html" target="_top" xlink:title="IDListConfig.h">
<polygon fill="white" stroke="black" points="370,-74.5 370,-93.5 450,-93.5 450,-74.5 370,-74.5"/>
<text text-anchor="middle" x="410" y="-81.5" font-family="Helvetica,sans-Serif" font-size="10.00">IDListConfig.h</text>
</a>
</g>
</g>
<!-- Node2&#45;&gt;Node6 -->
<g id="edge5" class="edge"><title>Node2&#45;&gt;Node6</title>
<path fill="none" stroke="midnightblue" d="M232.658,-136.403C268.934,-125.889 330.464,-108.054 370.664,-96.4016"/>
<polygon fill="midnightblue" stroke="midnightblue" points="371.767,-99.7263 380.397,-93.5806 369.818,-93.003 371.767,-99.7263"/>
</g>
<!-- Node6&#45;&gt;Node4 -->
<g id="edge10" class="edge"><title>Node6&#45;&gt;Node4</title>
<path fill="none" stroke="midnightblue" d="M374.694,-74.4584C334.915,-64.8275 268.053,-48.6178 200.544,-32.1292"/>
<polygon fill="midnightblue" stroke="midnightblue" points="201.127,-28.6688 190.582,-29.6952 199.466,-35.4687 201.127,-28.6688"/>
</g>
<!-- Node7 -->
<g id="node7" class="node"><title>Node7</title>
<polygon fill="white" stroke="#bfbfbf" points="209,-6.5 209,-25.5 355,-25.5 355,-6.5 209,-6.5"/>
<text text-anchor="middle" x="282" y="-13.5" font-family="Helvetica,sans-Serif" font-size="10.00">mars/interfaces/MARSDefs.h</text>
</g>
<!-- Node6&#45;&gt;Node7 -->
<g id="edge6" class="edge"><title>Node6&#45;&gt;Node7</title>
<path fill="none" stroke="midnightblue" d="M393.266,-74.3717C371.514,-63.1557 333.303,-43.4532 307.82,-30.3136"/>
<polygon fill="midnightblue" stroke="midnightblue" points="309.23,-27.1026 298.738,-25.6305 306.022,-33.3242 309.23,-27.1026"/>
</g>
<!-- Node8 -->
<g id="node8" class="node"><title>Node8</title>
<polygon fill="white" stroke="#bfbfbf" points="373.5,-1 373.5,-31 480.5,-31 480.5,-1 373.5,-1"/>
<text text-anchor="start" x="381.5" y="-19" font-family="Helvetica,sans-Serif" font-size="10.00">mars/interfaces/sim</text>
<text text-anchor="middle" x="427" y="-8" font-family="Helvetica,sans-Serif" font-size="10.00">/SimulatorInterface.h</text>
</g>
<!-- Node6&#45;&gt;Node8 -->
<g id="edge7" class="edge"><title>Node6&#45;&gt;Node8</title>
<path fill="none" stroke="midnightblue" d="M412.222,-74.3717C414.386,-65.9715 417.776,-52.811 420.763,-41.2126"/>
<polygon fill="midnightblue" stroke="midnightblue" points="424.242,-41.7384 423.347,-31.1815 417.463,-39.9923 424.242,-41.7384"/>
</g>
<!-- Node9 -->
<g id="node9" class="node"><title>Node9</title>
<polygon fill="white" stroke="#bfbfbf" points="498.5,-1 498.5,-31 601.5,-31 601.5,-1 498.5,-1"/>
<text text-anchor="start" x="506.5" y="-19" font-family="Helvetica,sans-Serif" font-size="10.00">mars/interfaces/sim</text>
<text text-anchor="middle" x="550" y="-8" font-family="Helvetica,sans-Serif" font-size="10.00">/ControlCenter.h</text>
</g>
<!-- Node6&#45;&gt;Node9 -->
<g id="edge8" class="edge"><title>Node6&#45;&gt;Node9</title>
<path fill="none" stroke="midnightblue" d="M428.303,-74.3717C449.187,-64.5259 483.944,-48.1405 510.979,-35.3957"/>
<polygon fill="midnightblue" stroke="midnightblue" points="512.631,-38.4863 520.184,-31.0562 509.646,-32.1546 512.631,-38.4863"/>
</g>
<!-- Node10 -->
<g id="node10" class="node"><title>Node10</title>
<polygon fill="white" stroke="#bfbfbf" points="619.5,-1 619.5,-31 722.5,-31 722.5,-1 619.5,-1"/>
<text text-anchor="start" x="627.5" y="-19" font-family="Helvetica,sans-Serif" font-size="10.00">mars/interfaces/sim</text>
<text text-anchor="middle" x="671" y="-8" font-family="Helvetica,sans-Serif" font-size="10.00">/LoadCenter.h</text>
</g>
<!-- Node6&#45;&gt;Node10 -->
<g id="edge9" class="edge"><title>Node6&#45;&gt;Node10</title>
<path fill="none" stroke="midnightblue" d="M443.854,-74.4393C485.708,-63.8556 557.736,-45.6415 609.471,-32.559"/>
<polygon fill="midnightblue" stroke="midnightblue" points="610.371,-35.9418 619.208,-30.0969 608.655,-29.1554 610.371,-35.9418"/>
</g>
</g>
</svg>
