<?xml version="1.0" encoding="UTF-8" standalone="no"?>
<!DOCTYPE svg PUBLIC "-//W3C//DTD SVG 1.1//EN"
 "http://www.w3.org/Graphics/SVG/1.1/DTD/svg11.dtd">
<!-- Generated by graphviz version 2.26.3 (20100126.1600)
 -->
<!-- Title: mars::main_gui::TabPropertyDialog Pages: 1 -->
<svg width="150pt" height="174pt"
 viewBox="0.00 0.00 150.00 174.00" xmlns="http://www.w3.org/2000/svg" xmlns:xlink="http://www.w3.org/1999/xlink">
<g id="graph1" class="graph" transform="scale(1 1) rotate(0) translate(4 170)">
<title>mars::main_gui::TabPropertyDialog</title>
<polygon fill="white" stroke="white" points="-4,5 -4,-170 147,-170 147,5 -4,5"/>
<!-- Node1 -->
<g id="node1" class="node"><title>Node1</title>
<polygon fill="#bfbfbf" stroke="black" points="-0.5,-1 -0.5,-35 142.5,-35 142.5,-1 -0.5,-1"/>
<text text-anchor="start" x="7.5" y="-22" font-family="Helvetica,sans-Serif" font-size="10.00">mars::main_gui::TabProperty</text>
<text text-anchor="middle" x="71" y="-9" font-family="Helvetica,sans-Serif" font-size="10.00">Dialog</text>
</g>
<!-- Node2 -->
<g id="node2" class="node"><title>Node2</title>
<a xlink:href="../../de/d11/classmars_1_1main__gui_1_1_property_dialog.html" target="_top" xlink:title="The PropertyDialog provides the QtProperty functionality. ">
<polygon fill="white" stroke="black" points="8,-73 8,-107 134,-107 134,-73 8,-73"/>
<text text-anchor="start" x="16" y="-94" font-family="Helvetica,sans-Serif" font-size="10.00">mars::main_gui::Property</text>
<text text-anchor="middle" x="71" y="-81" font-family="Helvetica,sans-Serif" font-size="10.00">Dialog</text>
</a>
</g>
<!-- Node2&#45;&gt;Node1 -->
<g id="edge2" class="edge"><title>Node2&#45;&gt;Node1</title>
<path fill="none" stroke="midnightblue" d="M71,-62.7193C71,-53.572 71,-43.6255 71,-35.4407"/>
<polygon fill="midnightblue" stroke="midnightblue" points="67.5001,-62.937 71,-72.937 74.5001,-62.937 67.5001,-62.937"/>
</g>
<!-- Node3 -->
<g id="node4" class="node"><title>Node3</title>
<polygon fill="white" stroke="#bfbfbf" points="45,-144.5 45,-165.5 97,-165.5 97,-144.5 45,-144.5"/>
<text text-anchor="middle" x="71" y="-152.5" font-family="Helvetica,sans-Serif" font-size="10.00">QDialog</text>
</g>
<!-- Node3&#45;&gt;Node2 -->
<g id="edge4" class="edge"><title>Node3&#45;&gt;Node2</title>
<path fill="none" stroke="midnightblue" d="M71,-134.131C71,-125.405 71,-115.391 71,-107.11"/>
<polygon fill="midnightblue" stroke="midnightblue" points="67.5001,-134.267 71,-144.267 74.5001,-134.267 67.5001,-134.267"/>
</g>
</g>
</svg>
