<?xml version="1.0" encoding="UTF-8" standalone="no"?>
<!DOCTYPE svg PUBLIC "-//W3C//DTD SVG 1.1//EN"
 "http://www.w3.org/Graphics/SVG/1.1/DTD/svg11.dtd">
<!-- Generated by graphviz version 2.26.3 (20100126.1600)
 -->
<!-- Title: osg_sonar::Sonar Pages: 1 -->
<svg width="198pt" height="88pt"
 viewBox="0.00 0.00 198.00 88.00" xmlns="http://www.w3.org/2000/svg" xmlns:xlink="http://www.w3.org/1999/xlink">
<g id="graph1" class="graph" transform="scale(1 1) rotate(0) translate(4 84)">
<title>osg_sonar::Sonar</title>
<polygon fill="white" stroke="white" points="-4,5 -4,-84 195,-84 195,5 -4,5"/>
<!-- Node1 -->
<g id="node1" class="node"><title>Node1</title>
<polygon fill="#bfbfbf" stroke="black" points="70.5,-0.5 70.5,-21.5 163.5,-21.5 163.5,-0.5 70.5,-0.5"/>
<text text-anchor="middle" x="117" y="-8.5" font-family="Helvetica,sans-Serif" font-size="10.00">osg_sonar::Sonar</text>
</g>
<!-- Node2 -->
<g id="node2" class="node"><title>Node2</title>
<a xlink:href="../../de/d96/classosg__sonar_1_1_sonar_interface.html" target="_top" xlink:title="osg_sonar::SonarInterface">
<polygon fill="white" stroke="black" points="-0.5,-58.5 -0.5,-79.5 130.5,-79.5 130.5,-58.5 -0.5,-58.5"/>
<text text-anchor="middle" x="65" y="-66.5" font-family="Helvetica,sans-Serif" font-size="10.00">osg_sonar::SonarInterface</text>
</a>
</g>
<!-- Node2&#45;&gt;Node1 -->
<g id="edge2" class="edge"><title>Node2&#45;&gt;Node1</title>
<path fill="none" stroke="midnightblue" d="M81.2904,-50.8299C89.9171,-41.2078 100.209,-29.7282 107.523,-21.5707"/>
<polygon fill="midnightblue" stroke="midnightblue" points="78.6071,-48.5798 74.5376,-58.3619 83.8191,-53.2526 78.6071,-48.5798"/>
</g>
<!-- Node3 -->
<g id="node4" class="node"><title>Node3</title>
<polygon fill="white" stroke="#bfbfbf" points="147.5,-58.5 147.5,-79.5 190.5,-79.5 190.5,-58.5 147.5,-58.5"/>
<text text-anchor="middle" x="169" y="-66.5" font-family="Helvetica,sans-Serif" font-size="10.00">Group</text>
</g>
<!-- Node3&#45;&gt;Node1 -->
<g id="edge4" class="edge"><title>Node3&#45;&gt;Node1</title>
<path fill="none" stroke="midnightblue" d="M152.71,-50.8299C144.083,-41.2078 133.791,-29.7282 126.477,-21.5707"/>
<polygon fill="midnightblue" stroke="midnightblue" points="150.181,-53.2526 159.462,-58.3619 155.393,-48.5798 150.181,-53.2526"/>
</g>
</g>
</svg>
