<?xml version="1.0" encoding="UTF-8" standalone="no"?>
<!DOCTYPE svg PUBLIC "-//W3C//DTD SVG 1.1//EN"
 "http://www.w3.org/Graphics/SVG/1.1/DTD/svg11.dtd">
<!-- Generated by graphviz version 2.26.3 (20100126.1600)
 -->
<!-- Title: /home/kavonszadkowski/limes&#45;dev/simulation/mars/sim/src/sensors/MotorPositionSensor.h Pages: 1 -->
<svg width="262pt" height="142pt"
 viewBox="0.00 0.00 262.00 142.00" xmlns="http://www.w3.org/2000/svg" xmlns:xlink="http://www.w3.org/1999/xlink">
<g id="graph1" class="graph" transform="scale(1 1) rotate(0) translate(4 138)">
<title>/home/kavonszadkowski/limes&#45;dev/simulation/mars/sim/src/sensors/MotorPositionSensor.h</title>
<polygon fill="white" stroke="white" points="-4,5 -4,-138 259,-138 259,5 -4,5"/>
<!-- Node1 -->
<g id="node1" class="node"><title>Node1</title>
<polygon fill="#bfbfbf" stroke="black" points="56.5,-73 56.5,-133 181.5,-133 181.5,-73 56.5,-73"/>
<text text-anchor="start" x="64.5" y="-120" font-family="Helvetica,sans-Serif" font-size="10.00">/home/kavonszadkowski</text>
<text text-anchor="start" x="64.5" y="-107" font-family="Helvetica,sans-Serif" font-size="10.00">/limes&#45;dev/simulation</text>
<text text-anchor="start" x="64.5" y="-94" font-family="Helvetica,sans-Serif" font-size="10.00">/mars/sim/src/sensors</text>
<text text-anchor="middle" x="119" y="-81" font-family="Helvetica,sans-Serif" font-size="10.00">/MotorPositionSensor.h</text>
</g>
<!-- Node2 -->
<g id="node3" class="node"><title>Node2</title>
<polygon fill="white" stroke="#bfbfbf" points="-0.5,-1 -0.5,-35 102.5,-35 102.5,-1 -0.5,-1"/>
<text text-anchor="start" x="7.5" y="-22" font-family="Helvetica,sans-Serif" font-size="10.00">mars/interfaces/sim</text>
<text text-anchor="middle" x="51" y="-9" font-family="Helvetica,sans-Serif" font-size="10.00">/SensorInterface.h</text>
</g>
<!-- Node1&#45;&gt;Node2 -->
<g id="edge2" class="edge"><title>Node1&#45;&gt;Node2</title>
<path fill="none" stroke="midnightblue" d="M94.8343,-72.7928C87.1183,-63.1479 78.663,-52.5788 71.2547,-43.3184"/>
<polygon fill="midnightblue" stroke="midnightblue" points="73.7767,-40.8681 64.7967,-35.2458 68.3106,-45.241 73.7767,-40.8681"/>
</g>
<!-- Node3 -->
<g id="node5" class="node"><title>Node3</title>
<polygon fill="white" stroke="#bfbfbf" points="120,-1 120,-35 254,-35 254,-1 120,-1"/>
<text text-anchor="start" x="128" y="-22" font-family="Helvetica,sans-Serif" font-size="10.00">mars/data_broker/Receiver</text>
<text text-anchor="middle" x="187" y="-9" font-family="Helvetica,sans-Serif" font-size="10.00">Interface.h</text>
</g>
<!-- Node1&#45;&gt;Node3 -->
<g id="edge4" class="edge"><title>Node1&#45;&gt;Node3</title>
<path fill="none" stroke="midnightblue" d="M143.166,-72.7928C150.882,-63.1479 159.337,-52.5788 166.745,-43.3184"/>
<polygon fill="midnightblue" stroke="midnightblue" points="169.689,-45.241 173.203,-35.2458 164.223,-40.8681 169.689,-45.241"/>
</g>
</g>
</svg>
