<?xml version="1.0" encoding="UTF-8" standalone="no"?>
<!DOCTYPE svg PUBLIC "-//W3C//DTD SVG 1.1//EN"
 "http://www.w3.org/Graphics/SVG/1.1/DTD/svg11.dtd">
<!-- Generated by graphviz version 2.26.3 (20100126.1600)
 -->
<!-- Title: /home/kavonszadkowski/limes&#45;dev/simulation/mars/gui/src/SelectionDialog.h Pages: 1 -->
<svg width="230pt" height="114pt"
 viewBox="0.00 0.00 230.00 114.00" xmlns="http://www.w3.org/2000/svg" xmlns:xlink="http://www.w3.org/1999/xlink">
<g id="graph1" class="graph" transform="scale(1 1) rotate(0) translate(4 110)">
<title>/home/kavonszadkowski/limes&#45;dev/simulation/mars/gui/src/SelectionDialog.h</title>
<polygon fill="white" stroke="white" points="-4,5 -4,-110 227,-110 227,5 -4,5"/>
<!-- Node1 -->
<g id="node1" class="node"><title>Node1</title>
<polygon fill="#bfbfbf" stroke="black" points="18.5,-58.5 18.5,-105.5 171.5,-105.5 171.5,-58.5 18.5,-58.5"/>
<text text-anchor="start" x="26.5" y="-92.5" font-family="Helvetica,sans-Serif" font-size="10.00">/home/kavonszadkowski</text>
<text text-anchor="start" x="26.5" y="-79.5" font-family="Helvetica,sans-Serif" font-size="10.00">/limes&#45;dev/simulation</text>
<text text-anchor="middle" x="95" y="-66.5" font-family="Helvetica,sans-Serif" font-size="10.00">/mars/gui/src/SelectionDialog.h</text>
</g>
<!-- Node2 -->
<g id="node3" class="node"><title>Node2</title>
<polygon fill="white" stroke="#bfbfbf" points="0,-0.5 0,-21.5 42,-21.5 42,-0.5 0,-0.5"/>
<text text-anchor="middle" x="21" y="-8.5" font-family="Helvetica,sans-Serif" font-size="10.00">QtGui</text>
</g>
<!-- Node1&#45;&gt;Node2 -->
<g id="edge2" class="edge"><title>Node1&#45;&gt;Node2</title>
<path fill="none" stroke="midnightblue" d="M70.3591,-58.358C60.2422,-48.6513 48.7325,-37.6082 39.3737,-28.6289"/>
<polygon fill="midnightblue" stroke="midnightblue" points="41.7351,-26.044 32.0961,-21.6462 36.8887,-31.0951 41.7351,-26.044"/>
</g>
<!-- Node3 -->
<g id="node5" class="node"><title>Node3</title>
<polygon fill="white" stroke="#bfbfbf" points="59.5,-0.5 59.5,-21.5 130.5,-21.5 130.5,-0.5 59.5,-0.5"/>
<text text-anchor="middle" x="95" y="-8.5" font-family="Helvetica,sans-Serif" font-size="10.00">QListWidget</text>
</g>
<!-- Node1&#45;&gt;Node3 -->
<g id="edge4" class="edge"><title>Node1&#45;&gt;Node3</title>
<path fill="none" stroke="midnightblue" d="M95,-58.358C95,-49.719 95,-40.0215 95,-31.6624"/>
<polygon fill="midnightblue" stroke="midnightblue" points="98.5001,-31.6462 95,-21.6462 91.5001,-31.6463 98.5001,-31.6462"/>
</g>
<!-- Node4 -->
<g id="node7" class="node"><title>Node4</title>
<polygon fill="white" stroke="#bfbfbf" points="147.5,-0.5 147.5,-21.5 222.5,-21.5 222.5,-0.5 147.5,-0.5"/>
<text text-anchor="middle" x="185" y="-8.5" font-family="Helvetica,sans-Serif" font-size="10.00">QPushButton</text>
</g>
<!-- Node1&#45;&gt;Node4 -->
<g id="edge6" class="edge"><title>Node1&#45;&gt;Node4</title>
<path fill="none" stroke="midnightblue" d="M124.969,-58.358C137.519,-48.4571 151.832,-37.166 163.333,-28.0926"/>
<polygon fill="midnightblue" stroke="midnightblue" points="165.821,-30.5877 171.505,-21.6462 161.486,-25.092 165.821,-30.5877"/>
</g>
</g>
</svg>
