<?xml version="1.0" encoding="UTF-8" standalone="no"?>
<!DOCTYPE svg PUBLIC "-//W3C//DTD SVG 1.1//EN"
 "http://www.w3.org/Graphics/SVG/1.1/DTD/svg11.dtd">
<!-- Generated by graphviz version 2.26.3 (20100126.1600)
 -->
<!-- Title: /home/kavonszadkowski/limes&#45;dev/simulation/mars/common/gui/data_broker_plotter/src/DataBrokerPlotter.h Pages: 1 -->
<svg width="856pt" height="154pt"
 viewBox="0.00 0.00 856.00 154.00" xmlns="http://www.w3.org/2000/svg" xmlns:xlink="http://www.w3.org/1999/xlink">
<g id="graph1" class="graph" transform="scale(1 1) rotate(0) translate(4 150)">
<title>/home/kavonszadkowski/limes&#45;dev/simulation/mars/common/gui/data_broker_plotter/src/DataBrokerPlotter.h</title>
<polygon fill="white" stroke="white" points="-4,5 -4,-150 853,-150 853,5 -4,5"/>
<!-- Node1 -->
<g id="node1" class="node"><title>Node1</title>
<polygon fill="#bfbfbf" stroke="black" points="265,-72.5 265,-145.5 415,-145.5 415,-72.5 265,-72.5"/>
<text text-anchor="start" x="273" y="-132.5" font-family="Helvetica,sans-Serif" font-size="10.00">/home/kavonszadkowski</text>
<text text-anchor="start" x="273" y="-119.5" font-family="Helvetica,sans-Serif" font-size="10.00">/limes&#45;dev/simulation</text>
<text text-anchor="start" x="273" y="-106.5" font-family="Helvetica,sans-Serif" font-size="10.00">/mars/common/gui/data</text>
<text text-anchor="start" x="273" y="-93.5" font-family="Helvetica,sans-Serif" font-size="10.00">_broker_plotter/src/DataBroker</text>
<text text-anchor="middle" x="340" y="-80.5" font-family="Helvetica,sans-Serif" font-size="10.00">Plotter.h</text>
</g>
<!-- Node2 -->
<g id="node3" class="node"><title>Node2</title>
<polygon fill="white" stroke="#bfbfbf" points="0,-7.5 0,-28.5 78,-28.5 78,-7.5 0,-7.5"/>
<text text-anchor="middle" x="39" y="-15.5" font-family="Helvetica,sans-Serif" font-size="10.00">qcustomplot.h</text>
</g>
<!-- Node1&#45;&gt;Node2 -->
<g id="edge2" class="edge"><title>Node1&#45;&gt;Node2</title>
<path fill="none" stroke="midnightblue" d="M264.805,-88.9559C214.233,-75.0714 146.237,-55.6199 87,-36 83.2575,-34.7604 79.373,-33.4109 75.5077,-32.0266"/>
<polygon fill="midnightblue" stroke="midnightblue" points="76.6246,-28.7084 66.0309,-28.5567 74.2178,-35.2816 76.6246,-28.7084"/>
</g>
<!-- Node3 -->
<g id="node5" class="node"><title>Node3</title>
<polygon fill="white" stroke="#bfbfbf" points="95.5,-7.5 95.5,-28.5 150.5,-28.5 150.5,-7.5 95.5,-7.5"/>
<text text-anchor="middle" x="123" y="-15.5" font-family="Helvetica,sans-Serif" font-size="10.00">QPainter</text>
</g>
<!-- Node1&#45;&gt;Node3 -->
<g id="edge4" class="edge"><title>Node1&#45;&gt;Node3</title>
<path fill="none" stroke="midnightblue" d="M264.577,-80.1471C231.87,-67.2332 193.288,-51.4562 159,-36 156.93,-35.0667 154.805,-34.0803 152.672,-33.0693"/>
<polygon fill="midnightblue" stroke="midnightblue" points="153.947,-29.7972 143.424,-28.5677 150.884,-36.0912 153.947,-29.7972"/>
</g>
<!-- Node4 -->
<g id="node7" class="node"><title>Node4</title>
<polygon fill="white" stroke="#bfbfbf" points="167.5,-7.5 167.5,-28.5 242.5,-28.5 242.5,-7.5 167.5,-7.5"/>
<text text-anchor="middle" x="205" y="-15.5" font-family="Helvetica,sans-Serif" font-size="10.00">QCloseEvent</text>
</g>
<!-- Node1&#45;&gt;Node4 -->
<g id="edge6" class="edge"><title>Node1&#45;&gt;Node4</title>
<path fill="none" stroke="midnightblue" d="M285.479,-72.2491C265.904,-59.0539 244.815,-44.8385 229.138,-34.2708"/>
<polygon fill="midnightblue" stroke="midnightblue" points="230.833,-31.1928 220.585,-28.5055 226.921,-36.9972 230.833,-31.1928"/>
</g>
<!-- Node5 -->
<g id="node9" class="node"><title>Node5</title>
<polygon fill="white" stroke="#bfbfbf" points="259.5,-7.5 259.5,-28.5 310.5,-28.5 310.5,-7.5 259.5,-7.5"/>
<text text-anchor="middle" x="285" y="-15.5" font-family="Helvetica,sans-Serif" font-size="10.00">QMutex</text>
</g>
<!-- Node1&#45;&gt;Node5 -->
<g id="edge8" class="edge"><title>Node1&#45;&gt;Node5</title>
<path fill="none" stroke="midnightblue" d="M317.788,-72.2491C310.558,-60.2871 302.822,-47.4867 296.68,-37.3255"/>
<polygon fill="midnightblue" stroke="midnightblue" points="299.518,-35.2534 291.349,-28.5055 293.527,-38.8742 299.518,-35.2534"/>
</g>
<!-- Node6 -->
<g id="node11" class="node"><title>Node6</title>
<polygon fill="white" stroke="#bfbfbf" points="328,-1 328,-35 462,-35 462,-1 328,-1"/>
<text text-anchor="start" x="336" y="-22" font-family="Helvetica,sans-Serif" font-size="10.00">mars/data_broker/Receiver</text>
<text text-anchor="middle" x="395" y="-9" font-family="Helvetica,sans-Serif" font-size="10.00">Interface.h</text>
</g>
<!-- Node1&#45;&gt;Node6 -->
<g id="edge10" class="edge"><title>Node1&#45;&gt;Node6</title>
<path fill="none" stroke="midnightblue" d="M362.212,-72.2491C367.965,-62.7304 374.039,-52.6808 379.375,-43.8525"/>
<polygon fill="midnightblue" stroke="midnightblue" points="382.446,-45.5369 384.624,-35.1682 376.456,-41.9161 382.446,-45.5369"/>
</g>
<!-- Node7 -->
<g id="node13" class="node"><title>Node7</title>
<polygon fill="white" stroke="#bfbfbf" points="479.5,-1 479.5,-35 624.5,-35 624.5,-1 479.5,-1"/>
<text text-anchor="start" x="487.5" y="-22" font-family="Helvetica,sans-Serif" font-size="10.00">mars/data_broker/DataBroker</text>
<text text-anchor="middle" x="552" y="-9" font-family="Helvetica,sans-Serif" font-size="10.00">Interface.h</text>
</g>
<!-- Node1&#45;&gt;Node7 -->
<g id="edge12" class="edge"><title>Node1&#45;&gt;Node7</title>
<path fill="none" stroke="midnightblue" d="M415.042,-76.7887C444.215,-64.2662 476.818,-50.2716 502.893,-39.0789"/>
<polygon fill="midnightblue" stroke="midnightblue" points="504.378,-42.2506 512.186,-35.0899 501.616,-35.8182 504.378,-42.2506"/>
</g>
<!-- Node8 -->
<g id="node15" class="node"><title>Node8</title>
<polygon fill="white" stroke="#bfbfbf" points="641.5,-7.5 641.5,-28.5 786.5,-28.5 786.5,-7.5 641.5,-7.5"/>
<text text-anchor="middle" x="714" y="-15.5" font-family="Helvetica,sans-Serif" font-size="10.00">mars/main_gui/BaseWidget.h</text>
</g>
<!-- Node1&#45;&gt;Node8 -->
<g id="edge14" class="edge"><title>Node1&#45;&gt;Node8</title>
<path fill="none" stroke="midnightblue" d="M415.235,-90.6943C488.025,-72.9832 596.502,-46.5891 660.762,-30.9537"/>
<polygon fill="midnightblue" stroke="midnightblue" points="661.794,-34.3047 670.683,-28.5397 660.139,-27.5031 661.794,-34.3047"/>
</g>
<!-- Node9 -->
<g id="node17" class="node"><title>Node9</title>
<polygon fill="white" stroke="#bfbfbf" points="804,-7.5 804,-28.5 848,-28.5 848,-7.5 804,-7.5"/>
<text text-anchor="middle" x="826" y="-15.5" font-family="Helvetica,sans-Serif" font-size="10.00">vector</text>
</g>
<!-- Node1&#45;&gt;Node9 -->
<g id="edge16" class="edge"><title>Node1&#45;&gt;Node9</title>
<path fill="none" stroke="midnightblue" d="M415.364,-105.344C507.352,-98.9878 666.521,-81.8205 795,-36 797.143,-35.2356 799.307,-34.3225 801.441,-33.3185"/>
<polygon fill="midnightblue" stroke="midnightblue" points="803.275,-36.3072 810.455,-28.5167 799.984,-30.1291 803.275,-36.3072"/>
</g>
</g>
</svg>
