<?xml version="1.0" encoding="UTF-8" standalone="no"?>
<!DOCTYPE svg PUBLIC "-//W3C//DTD SVG 1.1//EN"
 "http://www.w3.org/Graphics/SVG/1.1/DTD/svg11.dtd">
<!-- Generated by graphviz version 2.36.0 (20140111.2315)
 -->
<!-- Title: mars::gui::MotorHandler Pages: 1 -->
<svg width="886pt" height="708pt"
 viewBox="0.00 0.00 886.00 708.00" xmlns="http://www.w3.org/2000/svg" xmlns:xlink="http://www.w3.org/1999/xlink">
<g id="graph0" class="graph" transform="scale(1 1) rotate(0) translate(4 704)">
<title>mars::gui::MotorHandler</title>
<polygon fill="white" stroke="none" points="-4,4 -4,-704 882,-704 882,4 -4,4"/>
<!-- Node1 -->
<g id="node1" class="node"><title>Node1</title>
<polygon fill="#bfbfbf" stroke="black" points="756,-584.5 756,-603.5 878,-603.5 878,-584.5 756,-584.5"/>
<text text-anchor="middle" x="817" y="-591.5" font-family="Helvetica,sans-Serif" font-size="10.00">mars::gui::MotorHandler</text>
</g>
<!-- Node2 -->
<g id="node2" class="node"><title>Node2</title>
<polygon fill="white" stroke="#bfbfbf" points="581.5,-680.5 581.5,-699.5 634.5,-699.5 634.5,-680.5 581.5,-680.5"/>
<text text-anchor="middle" x="608" y="-687.5" font-family="Helvetica,sans-Serif" font-size="10.00">QObject</text>
</g>
<!-- Node2&#45;&gt;Node1 -->
<g id="edge1" class="edge"><title>Node2&#45;&gt;Node1</title>
<path fill="none" stroke="midnightblue" d="M644.824,-683.848C671.49,-678.369 708.261,-668.879 738,-654 765.196,-640.393 792.283,-616.7 806.264,-603.526"/>
<polygon fill="midnightblue" stroke="midnightblue" points="643.918,-680.459 634.78,-685.821 645.267,-687.328 643.918,-680.459"/>
</g>
<!-- Node3 -->
<g id="node3" class="node"><title>Node3</title>
<g id="a_node3"><a xlink:href="../../d9/ddf/classmars_1_1interfaces_1_1_motor_data.html" target="_top" xlink:title="MotorData is a struct to exchange motor information between the GUI and the simulation. ">
<polygon fill="white" stroke="black" points="538.5,-584.5 538.5,-603.5 677.5,-603.5 677.5,-584.5 538.5,-584.5"/>
<text text-anchor="middle" x="608" y="-591.5" font-family="Helvetica,sans-Serif" font-size="10.00">mars::interfaces::MotorData</text>
</a>
</g>
</g>
<!-- Node3&#45;&gt;Node1 -->
<g id="edge2" class="edge"><title>Node3&#45;&gt;Node1</title>
<path fill="none" stroke="#9a32cd" stroke-dasharray="5,2" d="M687.872,-594C710.43,-594 734.646,-594 755.885,-594"/>
<polygon fill="#9a32cd" stroke="#9a32cd" points="687.641,-590.5 677.64,-594 687.64,-597.5 687.641,-590.5"/>
<text text-anchor="middle" x="717" y="-597" font-family="Helvetica,sans-Serif" font-size="10.00"> myMotor</text>
</g>
<!-- Node4 -->
<g id="node4" class="node"><title>Node4</title>
<polygon fill="white" stroke="#bfbfbf" points="325.5,-626.5 325.5,-645.5 366.5,-645.5 366.5,-626.5 325.5,-626.5"/>
<text text-anchor="middle" x="346" y="-633.5" font-family="Helvetica,sans-Serif" font-size="10.00">string</text>
</g>
<!-- Node4&#45;&gt;Node1 -->
<g id="edge4" class="edge"><title>Node4&#45;&gt;Node1</title>
<path fill="none" stroke="#9a32cd" stroke-dasharray="5,2" d="M376.635,-635.267C442.095,-633.361 603.855,-627.071 738,-609 748.796,-607.546 760.357,-605.56 771.183,-603.51"/>
<polygon fill="#9a32cd" stroke="#9a32cd" points="376.518,-631.769 366.619,-635.546 376.713,-638.766 376.518,-631.769"/>
<text text-anchor="middle" x="608" y="-641" font-family="Helvetica,sans-Serif" font-size="10.00"> actualName</text>
<text text-anchor="middle" x="608" y="-630" font-family="Helvetica,sans-Serif" font-size="10.00">motorName</text>
</g>
<!-- Node4&#45;&gt;Node3 -->
<g id="edge3" class="edge"><title>Node4&#45;&gt;Node3</title>
<path fill="none" stroke="#9a32cd" stroke-dasharray="5,2" d="M376.518,-628.749C395.203,-624.339 419.917,-618.838 442,-615 473.438,-609.536 508.478,-604.877 538.153,-601.345"/>
<polygon fill="#9a32cd" stroke="#9a32cd" points="375.459,-625.403 366.547,-631.133 377.087,-632.211 375.459,-625.403"/>
<text text-anchor="middle" x="481" y="-618" font-family="Helvetica,sans-Serif" font-size="10.00"> name</text>
</g>
<!-- Node5 -->
<g id="node5" class="node"><title>Node5</title>
<g id="a_node5"><a xlink:href="../../de/d11/classmars_1_1main__gui_1_1_property_dialog.html" target="_top" xlink:title="The PropertyDialog provides the QtProperty functionality. ">
<polygon fill="white" stroke="black" points="545,-535 545,-565 671,-565 671,-535 545,-535"/>
<text text-anchor="start" x="553" y="-553" font-family="Helvetica,sans-Serif" font-size="10.00">mars::main_gui::Property</text>
<text text-anchor="middle" x="608" y="-542" font-family="Helvetica,sans-Serif" font-size="10.00">Dialog</text>
</a>
</g>
</g>
<!-- Node5&#45;&gt;Node1 -->
<g id="edge5" class="edge"><title>Node5&#45;&gt;Node1</title>
<path fill="none" stroke="#9a32cd" stroke-dasharray="5,2" d="M681.085,-565.322C710.992,-571.68 744.766,-578.858 771.04,-584.443"/>
<polygon fill="#9a32cd" stroke="#9a32cd" points="681.616,-561.857 671.107,-563.201 680.161,-568.704 681.616,-561.857"/>
<text text-anchor="middle" x="717" y="-580" font-family="Helvetica,sans-Serif" font-size="10.00"> pDialog</text>
</g>
<!-- Node6 -->
<g id="node6" class="node"><title>Node6</title>
<polygon fill="white" stroke="#bfbfbf" points="320,-578.5 320,-597.5 372,-597.5 372,-578.5 320,-578.5"/>
<text text-anchor="middle" x="346" y="-585.5" font-family="Helvetica,sans-Serif" font-size="10.00">QDialog</text>
</g>
<!-- Node6&#45;&gt;Node5 -->
<g id="edge6" class="edge"><title>Node6&#45;&gt;Node5</title>
<path fill="none" stroke="midnightblue" d="M382.355,-582.833C424.009,-576.745 493.965,-566.52 544.762,-559.096"/>
<polygon fill="midnightblue" stroke="midnightblue" points="381.792,-579.378 372.403,-584.287 382.804,-586.304 381.792,-579.378"/>
</g>
<!-- Node7 -->
<g id="node7" class="node"><title>Node7</title>
<g id="a_node7"><a xlink:href="../../dd/d38/classmars_1_1main__gui_1_1_property_callback.html" target="_top" xlink:title="Introduced for Windows compatibility. ">
<polygon fill="white" stroke="black" points="283,-529 283,-559 409,-559 409,-529 283,-529"/>
<text text-anchor="start" x="291" y="-547" font-family="Helvetica,sans-Serif" font-size="10.00">mars::main_gui::Property</text>
<text text-anchor="middle" x="346" y="-536" font-family="Helvetica,sans-Serif" font-size="10.00">Callback</text>
</a>
</g>
</g>
<!-- Node7&#45;&gt;Node5 -->
<g id="edge7" class="edge"><title>Node7&#45;&gt;Node5</title>
<path fill="none" stroke="#9a32cd" stroke-dasharray="5,2" d="M419.356,-545.67C458.776,-546.579 507.063,-547.694 544.782,-548.564"/>
<polygon fill="#9a32cd" stroke="#9a32cd" points="419.355,-542.169 409.276,-545.437 419.193,-549.167 419.355,-542.169"/>
<text text-anchor="middle" x="481" y="-550" font-family="Helvetica,sans-Serif" font-size="10.00"> propertyCallback</text>
</g>
<!-- Node8 -->
<g id="node8" class="node"><title>Node8</title>
<g id="a_node8"><a xlink:href="../../d7/d4e/classmars_1_1interfaces_1_1_control_center.html" target="_top" xlink:title="The declaration of the ControlCenter. ">
<polygon fill="white" stroke="black" points="545.5,-259 545.5,-289 670.5,-289 670.5,-259 545.5,-259"/>
<text text-anchor="start" x="553.5" y="-277" font-family="Helvetica,sans-Serif" font-size="10.00">mars::interfaces::Control</text>
<text text-anchor="middle" x="608" y="-266" font-family="Helvetica,sans-Serif" font-size="10.00">Center</text>
</a>
</g>
</g>
<!-- Node8&#45;&gt;Node1 -->
<g id="edge8" class="edge"><title>Node8&#45;&gt;Node1</title>
<path fill="none" stroke="#9a32cd" stroke-dasharray="5,2" d="M624.347,-297.725C666.321,-362.612 781.758,-541.066 809.801,-584.417"/>
<polygon fill="#9a32cd" stroke="#9a32cd" points="627.077,-295.5 618.706,-289.005 621.199,-299.302 627.077,-295.5"/>
<text text-anchor="middle" x="717" y="-476" font-family="Helvetica,sans-Serif" font-size="10.00"> control</text>
</g>
<!-- Node9 -->
<g id="node9" class="node"><title>Node9</title>
<g id="a_node9"><a xlink:href="../../d1/d93/classmars_1_1interfaces_1_1_graphics_manager_interface.html" target="_top" xlink:title="mars::interfaces::Graphics\lManagerInterface">
<polygon fill="white" stroke="black" points="280,-480 280,-510 412,-510 412,-480 280,-480"/>
<text text-anchor="start" x="288" y="-498" font-family="Helvetica,sans-Serif" font-size="10.00">mars::interfaces::Graphics</text>
<text text-anchor="middle" x="346" y="-487" font-family="Helvetica,sans-Serif" font-size="10.00">ManagerInterface</text>
</a>
</g>
</g>
<!-- Node9&#45;&gt;Node8 -->
<g id="edge9" class="edge"><title>Node9&#45;&gt;Node8</title>
<path fill="none" stroke="#9a32cd" stroke-dasharray="5,2" d="M422.13,-487.93C455.112,-481.581 492.499,-469.593 520,-447 571.953,-404.318 595.83,-322.736 603.79,-289.086"/>
<polygon fill="#9a32cd" stroke="#9a32cd" points="421.283,-484.525 412.051,-489.724 422.51,-491.417 421.283,-484.525"/>
<text text-anchor="middle" x="481" y="-486" font-family="Helvetica,sans-Serif" font-size="10.00"> graphics</text>
</g>
<!-- Node10 -->
<g id="node10" class="node"><title>Node10</title>
<polygon fill="white" stroke="#bfbfbf" points="47,-436.5 47,-455.5 115,-455.5 115,-436.5 47,-436.5"/>
<text text-anchor="middle" x="81" y="-443.5" font-family="Helvetica,sans-Serif" font-size="10.00">LibInterface</text>
</g>
<!-- Node10&#45;&gt;Node9 -->
<g id="edge10" class="edge"><title>Node10&#45;&gt;Node9</title>
<path fill="none" stroke="midnightblue" d="M124.956,-454.003C166.98,-461.833 231.535,-473.86 279.873,-482.866"/>
<polygon fill="midnightblue" stroke="midnightblue" points="125.515,-450.547 115.043,-452.156 124.233,-457.429 125.515,-450.547"/>
</g>
<!-- Node14 -->
<g id="node14" class="node"><title>Node14</title>
<g id="a_node14"><a xlink:href="../../d4/da6/classmars_1_1cfg__manager_1_1_c_f_g_manager_interface.html" target="_top" xlink:title="mars::cfg_manager::\lCFGManagerInterface">
<polygon fill="white" stroke="black" points="289.5,-431 289.5,-461 402.5,-461 402.5,-431 289.5,-431"/>
<text text-anchor="start" x="297.5" y="-449" font-family="Helvetica,sans-Serif" font-size="10.00">mars::cfg_manager::</text>
<text text-anchor="middle" x="346" y="-438" font-family="Helvetica,sans-Serif" font-size="10.00">CFGManagerInterface</text>
</a>
</g>
</g>
<!-- Node10&#45;&gt;Node14 -->
<g id="edge15" class="edge"><title>Node10&#45;&gt;Node14</title>
<path fill="none" stroke="midnightblue" d="M125.318,-446C170.178,-446 240.43,-446 289.371,-446"/>
<polygon fill="midnightblue" stroke="midnightblue" points="125.043,-442.5 115.043,-446 125.043,-449.5 125.043,-442.5"/>
</g>
<!-- Node15 -->
<g id="node15" class="node"><title>Node15</title>
<g id="a_node15"><a xlink:href="../../d6/d2e/classmars_1_1data__broker_1_1_data_broker_interface.html" target="_top" xlink:title="The interface every DataBroker should implement. ">
<polygon fill="white" stroke="black" points="294,-382 294,-412 398,-412 398,-382 294,-382"/>
<text text-anchor="start" x="302" y="-400" font-family="Helvetica,sans-Serif" font-size="10.00">mars::data_broker::</text>
<text text-anchor="middle" x="346" y="-389" font-family="Helvetica,sans-Serif" font-size="10.00">DataBrokerInterface</text>
</a>
</g>
</g>
<!-- Node10&#45;&gt;Node15 -->
<g id="edge17" class="edge"><title>Node10&#45;&gt;Node15</title>
<path fill="none" stroke="midnightblue" d="M125.041,-437.981C171.26,-429.37 244.664,-415.694 293.812,-406.537"/>
<polygon fill="midnightblue" stroke="midnightblue" points="124.233,-434.571 115.043,-439.844 125.515,-441.453 124.233,-434.571"/>
</g>
<!-- Node11 -->
<g id="node11" class="node"><title>Node11</title>
<g id="a_node11"><a xlink:href="../../d2/da9/classmars_1_1interfaces_1_1_controller_manager_interface.html" target="_top" xlink:title="&quot;ControllerManagerInterface&quot; declares the interfaces for all controller operations that are used for ...">
<polygon fill="white" stroke="black" points="278.5,-333 278.5,-363 413.5,-363 413.5,-333 278.5,-333"/>
<text text-anchor="start" x="286.5" y="-351" font-family="Helvetica,sans-Serif" font-size="10.00">mars::interfaces::Controller</text>
<text text-anchor="middle" x="346" y="-340" font-family="Helvetica,sans-Serif" font-size="10.00">ManagerInterface</text>
</a>
</g>
</g>
<!-- Node11&#45;&gt;Node8 -->
<g id="edge11" class="edge"><title>Node11&#45;&gt;Node8</title>
<path fill="none" stroke="#9a32cd" stroke-dasharray="5,2" d="M423.604,-330.68C453.82,-323.401 488.721,-314.435 520,-305 535.658,-300.277 552.65,-294.396 567.427,-289.03"/>
<polygon fill="#9a32cd" stroke="#9a32cd" points="422.462,-327.354 413.549,-333.082 424.088,-334.162 422.462,-327.354"/>
<text text-anchor="middle" x="481" y="-329" font-family="Helvetica,sans-Serif" font-size="10.00"> controllers</text>
</g>
<!-- Node12 -->
<g id="node12" class="node"><title>Node12</title>
<g id="a_node12"><a xlink:href="../../d6/d60/classmars_1_1interfaces_1_1_joint_manager_interface.html" target="_top" xlink:title="Interface class for the node organization. ">
<polygon fill="white" stroke="black" points="270,-284 270,-314 422,-314 422,-284 270,-284"/>
<text text-anchor="start" x="278" y="-302" font-family="Helvetica,sans-Serif" font-size="10.00">mars::interfaces::JointManager</text>
<text text-anchor="middle" x="346" y="-291" font-family="Helvetica,sans-Serif" font-size="10.00">Interface</text>
</a>
</g>
</g>
<!-- Node12&#45;&gt;Node8 -->
<g id="edge12" class="edge"><title>Node12&#45;&gt;Node8</title>
<path fill="none" stroke="#9a32cd" stroke-dasharray="5,2" d="M432.423,-290.786C469.207,-287.249 511.41,-283.191 545.105,-279.951"/>
<polygon fill="#9a32cd" stroke="#9a32cd" points="431.822,-287.328 422.203,-291.769 432.492,-294.296 431.822,-287.328"/>
<text text-anchor="middle" x="481" y="-293" font-family="Helvetica,sans-Serif" font-size="10.00"> joints</text>
</g>
<!-- Node13 -->
<g id="node13" class="node"><title>Node13</title>
<g id="a_node13"><a xlink:href="../../df/d82/classmars_1_1interfaces_1_1_entity_manager_interface.html" target="_top" xlink:title="mars::interfaces::Entity\lManagerInterface">
<polygon fill="white" stroke="black" points="286.5,-235 286.5,-265 405.5,-265 405.5,-235 286.5,-235"/>
<text text-anchor="start" x="294.5" y="-253" font-family="Helvetica,sans-Serif" font-size="10.00">mars::interfaces::Entity</text>
<text text-anchor="middle" x="346" y="-242" font-family="Helvetica,sans-Serif" font-size="10.00">ManagerInterface</text>
</a>
</g>
</g>
<!-- Node13&#45;&gt;Node8 -->
<g id="edge13" class="edge"><title>Node13&#45;&gt;Node8</title>
<path fill="none" stroke="#9a32cd" stroke-dasharray="5,2" d="M415.678,-256.339C455.943,-260.056 506.39,-264.713 545.372,-268.311"/>
<polygon fill="#9a32cd" stroke="#9a32cd" points="415.953,-252.85 405.673,-255.416 415.309,-259.82 415.953,-252.85"/>
<text text-anchor="middle" x="481" y="-269" font-family="Helvetica,sans-Serif" font-size="10.00"> entities</text>
</g>
<!-- Node14&#45;&gt;Node8 -->
<g id="edge14" class="edge"><title>Node14&#45;&gt;Node8</title>
<path fill="none" stroke="#9a32cd" stroke-dasharray="5,2" d="M412.554,-438.623C446.999,-432.21 488.483,-420.254 520,-398 560.601,-369.331 588.672,-315.406 600.585,-289.144"/>
<polygon fill="#9a32cd" stroke="#9a32cd" points="411.824,-435.197 402.575,-440.365 413.028,-442.093 411.824,-435.197"/>
<text text-anchor="middle" x="481" y="-435" font-family="Helvetica,sans-Serif" font-size="10.00"> cfg</text>
</g>
<!-- Node15&#45;&gt;Node8 -->
<g id="edge16" class="edge"><title>Node15&#45;&gt;Node8</title>
<path fill="none" stroke="#9a32cd" stroke-dasharray="5,2" d="M407.884,-382.794C442,-373.5 484.661,-359.607 520,-341 546.99,-326.789 574.227,-304.17 590.859,-289.204"/>
<polygon fill="#9a32cd" stroke="#9a32cd" points="406.81,-379.458 398.046,-385.412 408.61,-386.222 406.81,-379.458"/>
<text text-anchor="middle" x="481" y="-386" font-family="Helvetica,sans-Serif" font-size="10.00"> dataBroker</text>
<text text-anchor="middle" x="481" y="-375" font-family="Helvetica,sans-Serif" font-size="10.00">theDataBroker</text>
</g>
<!-- Node16 -->
<g id="node16" class="node"><title>Node16</title>
<g id="a_node16"><a xlink:href="../../db/da9/classmars_1_1interfaces_1_1_sensor_manager_interface.html" target="_top" xlink:title="&quot;SensorManagerInterface&quot; declares the interfaces for all sensor operations that are used for the comm...">
<polygon fill="white" stroke="black" points="284,-186 284,-216 408,-216 408,-186 284,-186"/>
<text text-anchor="start" x="292" y="-204" font-family="Helvetica,sans-Serif" font-size="10.00">mars::interfaces::Sensor</text>
<text text-anchor="middle" x="346" y="-193" font-family="Helvetica,sans-Serif" font-size="10.00">ManagerInterface</text>
</a>
</g>
</g>
<!-- Node16&#45;&gt;Node8 -->
<g id="edge18" class="edge"><title>Node16&#45;&gt;Node8</title>
<path fill="none" stroke="#9a32cd" stroke-dasharray="5,2" d="M418.112,-217.85C449.491,-225.603 486.727,-235.237 520,-245 534.361,-249.214 549.905,-254.243 563.828,-258.921"/>
<polygon fill="#9a32cd" stroke="#9a32cd" points="418.688,-214.388 408.142,-215.401 417.019,-221.186 418.688,-214.388"/>
<text text-anchor="middle" x="481" y="-248" font-family="Helvetica,sans-Serif" font-size="10.00"> sensors</text>
</g>
<!-- Node17 -->
<g id="node17" class="node"><title>Node17</title>
<g id="a_node17"><a xlink:href="../../db/de9/classmars_1_1interfaces_1_1_motor_manager_interface.html" target="_top" xlink:title="&quot;MotorManagerInterface&quot; declares the interfaces for all motor operations that are used for the commun...">
<polygon fill="white" stroke="black" points="268.5,-137 268.5,-167 423.5,-167 423.5,-137 268.5,-137"/>
<text text-anchor="start" x="276.5" y="-155" font-family="Helvetica,sans-Serif" font-size="10.00">mars::interfaces::MotorManager</text>
<text text-anchor="middle" x="346" y="-144" font-family="Helvetica,sans-Serif" font-size="10.00">Interface</text>
</a>
</g>
</g>
<!-- Node17&#45;&gt;Node8 -->
<g id="edge19" class="edge"><title>Node17&#45;&gt;Node8</title>
<path fill="none" stroke="#9a32cd" stroke-dasharray="5,2" d="M405.944,-170.118C412.052,-172.072 418.158,-174.056 424,-176 466.948,-190.293 480.005,-188.805 520,-210 546.012,-223.785 572.841,-244.733 589.701,-258.874"/>
<polygon fill="#9a32cd" stroke="#9a32cd" points="406.973,-166.773 396.382,-167.085 404.856,-173.445 406.973,-166.773"/>
<text text-anchor="middle" x="481" y="-213" font-family="Helvetica,sans-Serif" font-size="10.00"> motors</text>
</g>
<!-- Node18 -->
<g id="node18" class="node"><title>Node18</title>
<g id="a_node18"><a xlink:href="../../d9/d6a/classmars_1_1interfaces_1_1_load_center.html" target="_top" xlink:title="mars::interfaces::LoadCenter">
<polygon fill="white" stroke="black" points="274.5,-98.5 274.5,-117.5 417.5,-117.5 417.5,-98.5 274.5,-98.5"/>
<text text-anchor="middle" x="346" y="-105.5" font-family="Helvetica,sans-Serif" font-size="10.00">mars::interfaces::LoadCenter</text>
</a>
</g>
</g>
<!-- Node18&#45;&gt;Node8 -->
<g id="edge20" class="edge"><title>Node18&#45;&gt;Node8</title>
<path fill="none" stroke="#9a32cd" stroke-dasharray="5,2" d="M411.83,-119.956C446.434,-128.714 488.297,-143.323 520,-167 554.913,-193.073 584.157,-236.155 598.146,-258.883"/>
<polygon fill="#9a32cd" stroke="#9a32cd" points="412.355,-116.482 401.812,-117.531 410.708,-123.286 412.355,-116.482"/>
<text text-anchor="middle" x="481" y="-170" font-family="Helvetica,sans-Serif" font-size="10.00"> loadCenter</text>
</g>
<!-- Node19 -->
<g id="node19" class="node"><title>Node19</title>
<g id="a_node19"><a xlink:href="../../d1/d51/classmars_1_1interfaces_1_1_load_heightmap_interface.html" target="_top" xlink:title="mars::interfaces::LoadHeightmap\lInterface">
<polygon fill="white" stroke="black" points="0.5,-118 0.5,-148 161.5,-148 161.5,-118 0.5,-118"/>
<text text-anchor="start" x="8.5" y="-136" font-family="Helvetica,sans-Serif" font-size="10.00">mars::interfaces::LoadHeightmap</text>
<text text-anchor="middle" x="81" y="-125" font-family="Helvetica,sans-Serif" font-size="10.00">Interface</text>
</a>
</g>
</g>
<!-- Node19&#45;&gt;Node18 -->
<g id="edge21" class="edge"><title>Node19&#45;&gt;Node18</title>
<path fill="none" stroke="#9a32cd" stroke-dasharray="5,2" d="M171.85,-124.459C205.256,-121.284 242.661,-117.728 274.133,-114.736"/>
<polygon fill="#9a32cd" stroke="#9a32cd" points="171.246,-121.001 161.622,-125.431 171.909,-127.969 171.246,-121.001"/>
<text text-anchor="middle" x="215" y="-127" font-family="Helvetica,sans-Serif" font-size="10.00"> loadHeightmap</text>
</g>
<!-- Node20 -->
<g id="node20" class="node"><title>Node20</title>
<g id="a_node20"><a xlink:href="../../d7/d02/classmars_1_1interfaces_1_1_load_mesh_interface.html" target="_top" xlink:title="mars::interfaces::LoadMesh\lInterface">
<polygon fill="white" stroke="black" points="12,-69 12,-99 150,-99 150,-69 12,-69"/>
<text text-anchor="start" x="20" y="-87" font-family="Helvetica,sans-Serif" font-size="10.00">mars::interfaces::LoadMesh</text>
<text text-anchor="middle" x="81" y="-76" font-family="Helvetica,sans-Serif" font-size="10.00">Interface</text>
</a>
</g>
</g>
<!-- Node20&#45;&gt;Node18 -->
<g id="edge22" class="edge"><title>Node20&#45;&gt;Node18</title>
<path fill="none" stroke="#9a32cd" stroke-dasharray="5,2" d="M160.116,-91.1285C196.387,-94.4383 239.183,-98.3437 274.462,-101.563"/>
<polygon fill="#9a32cd" stroke="#9a32cd" points="160.348,-87.6352 150.071,-90.2118 159.712,-94.6062 160.348,-87.6352"/>
<text text-anchor="middle" x="215" y="-102" font-family="Helvetica,sans-Serif" font-size="10.00"> loadMesh</text>
</g>
<!-- Node21 -->
<g id="node21" class="node"><title>Node21</title>
<g id="a_node21"><a xlink:href="../../d7/d4c/classmars_1_1interfaces_1_1_node_manager_interface.html" target="_top" xlink:title="&quot;NodeManagerInterface&quot; declares the interfaces for all NodeOperations that are used for the communica...">
<polygon fill="white" stroke="black" points="269,-49 269,-79 423,-79 423,-49 269,-49"/>
<text text-anchor="start" x="277" y="-67" font-family="Helvetica,sans-Serif" font-size="10.00">mars::interfaces::NodeManager</text>
<text text-anchor="middle" x="346" y="-56" font-family="Helvetica,sans-Serif" font-size="10.00">Interface</text>
</a>
</g>
</g>
<!-- Node21&#45;&gt;Node8 -->
<g id="edge23" class="edge"><title>Node21&#45;&gt;Node8</title>
<path fill="none" stroke="#9a32cd" stroke-dasharray="5,2" d="M433.317,-75.6054C463.208,-83.0106 495.359,-95.1387 520,-115 568.263,-153.901 593.766,-227.087 602.957,-258.755"/>
<polygon fill="#9a32cd" stroke="#9a32cd" points="433.815,-72.1276 423.282,-73.2707 432.229,-78.9456 433.815,-72.1276"/>
<text text-anchor="middle" x="481" y="-118" font-family="Helvetica,sans-Serif" font-size="10.00"> nodes</text>
</g>
<!-- Node22 -->
<g id="node22" class="node"><title>Node22</title>
<g id="a_node22"><a xlink:href="../../dc/de5/classmars_1_1interfaces_1_1_simulator_interface.html" target="_top" xlink:title="mars::interfaces::Simulator\lInterface">
<polygon fill="white" stroke="black" points="279,-0 279,-30 413,-30 413,-0 279,-0"/>
<text text-anchor="start" x="287" y="-18" font-family="Helvetica,sans-Serif" font-size="10.00">mars::interfaces::Simulator</text>
<text text-anchor="middle" x="346" y="-7" font-family="Helvetica,sans-Serif" font-size="10.00">Interface</text>
</a>
</g>
</g>
<!-- Node22&#45;&gt;Node8 -->
<g id="edge24" class="edge"><title>Node22&#45;&gt;Node8</title>
<path fill="none" stroke="#9a32cd" stroke-dasharray="5,2" d="M423.324,-21.7161C456.37,-28.1011 493.473,-40.4026 520,-64 580.445,-117.77 599.872,-220.086 605.214,-258.719"/>
<polygon fill="#9a32cd" stroke="#9a32cd" points="423.673,-18.2233 413.215,-19.9185 422.448,-25.1152 423.673,-18.2233"/>
<text text-anchor="middle" x="481" y="-67" font-family="Helvetica,sans-Serif" font-size="10.00"> sim</text>
</g>
</g>
</svg>
