<?xml version="1.0" encoding="UTF-8" standalone="no"?>
<!DOCTYPE svg PUBLIC "-//W3C//DTD SVG 1.1//EN"
 "http://www.w3.org/Graphics/SVG/1.1/DTD/svg11.dtd">
<!-- Generated by graphviz version 2.26.3 (20100126.1600)
 -->
<!-- Title: mars::sim::CameraSensor Pages: 1 -->
<svg width="1106pt" height="771pt"
 viewBox="0.00 0.00 1106.00 771.00" xmlns="http://www.w3.org/2000/svg" xmlns:xlink="http://www.w3.org/1999/xlink">
<g id="graph1" class="graph" transform="scale(1 1) rotate(0) translate(4 767)">
<title>mars::sim::CameraSensor</title>
<polygon fill="white" stroke="white" points="-4,5 -4,-767 1103,-767 1103,5 -4,5"/>
<!-- Node1 -->
<g id="node1" class="node"><title>Node1</title>
<polygon fill="#bfbfbf" stroke="black" points="966.5,-215.5 966.5,-236.5 1097.5,-236.5 1097.5,-215.5 966.5,-215.5"/>
<text text-anchor="middle" x="1032" y="-223.5" font-family="Helvetica,sans-Serif" font-size="10.00">mars::sim::CameraSensor</text>
</g>
<!-- Node2 -->
<g id="node2" class="node"><title>Node2</title>
<a xlink:href="../../da/d0c/classmars_1_1interfaces_1_1_base_node_sensor.html" target="_top" xlink:title="mars::interfaces::BaseNode\lSensor">
<polygon fill="white" stroke="black" points="752.5,-157 752.5,-191 891.5,-191 891.5,-157 752.5,-157"/>
<text text-anchor="start" x="760.5" y="-178" font-family="Helvetica,sans-Serif" font-size="10.00">mars::interfaces::BaseNode</text>
<text text-anchor="middle" x="822" y="-165" font-family="Helvetica,sans-Serif" font-size="10.00">Sensor</text>
</a>
</g>
<!-- Node2&#45;&gt;Node1 -->
<g id="edge2" class="edge"><title>Node2&#45;&gt;Node1</title>
<path fill="none" stroke="midnightblue" d="M900.823,-193.518C930.884,-200.962 964.001,-209.162 989.44,-215.461"/>
<polygon fill="midnightblue" stroke="midnightblue" points="901.31,-190.033 890.762,-191.027 899.627,-196.828 901.31,-190.033"/>
</g>
<!-- Node3 -->
<g id="node4" class="node"><title>Node3</title>
<a xlink:href="../../da/d73/classmars_1_1interfaces_1_1_base_sensor.html" target="_top" xlink:title="mars::interfaces::BaseSensor">
<polygon fill="white" stroke="black" points="526,-163.5 526,-184.5 672,-184.5 672,-163.5 526,-163.5"/>
<text text-anchor="middle" x="599" y="-171.5" font-family="Helvetica,sans-Serif" font-size="10.00">mars::interfaces::BaseSensor</text>
</a>
</g>
<!-- Node3&#45;&gt;Node2 -->
<g id="edge4" class="edge"><title>Node3&#45;&gt;Node2</title>
<path fill="none" stroke="midnightblue" d="M682.132,-174C705.203,-174 730.008,-174 752.23,-174"/>
<polygon fill="midnightblue" stroke="midnightblue" points="682.019,-170.5 672.019,-174 682.019,-177.5 682.019,-170.5"/>
</g>
<!-- Node4 -->
<g id="node6" class="node"><title>Node4</title>
<polygon fill="white" stroke="#bfbfbf" points="325.5,-145.5 325.5,-166.5 366.5,-166.5 366.5,-145.5 325.5,-145.5"/>
<text text-anchor="middle" x="346" y="-153.5" font-family="Helvetica,sans-Serif" font-size="10.00">string</text>
</g>
<!-- Node4&#45;&gt;Node3 -->
<g id="edge6" class="edge"><title>Node4&#45;&gt;Node3</title>
<path fill="none" stroke="#9a32cd" stroke-dasharray="5,2" d="M376.813,-158.192C413.648,-160.813 476.517,-165.286 525.998,-168.806"/>
<polygon fill="#9a32cd" stroke="#9a32cd" points="376.927,-154.692 366.704,-157.473 376.43,-161.674 376.927,-154.692"/>
<text text-anchor="middle" x="474" y="-172" font-family="Helvetica,sans-Serif" font-size="10.00"> name</text>
</g>
<!-- Node24 -->
<g id="node48" class="node"><title>Node24</title>
<a xlink:href="../../d2/d04/classmars_1_1interfaces_1_1_base_camera_sensor.html" target="_top" xlink:title="mars::interfaces::BaseCamera\lSensor\&lt; char * \&gt;">
<polygon fill="white" stroke="black" points="524,-58 524,-92 674,-92 674,-58 524,-58"/>
<text text-anchor="start" x="532" y="-79" font-family="Helvetica,sans-Serif" font-size="10.00">mars::interfaces::BaseCamera</text>
<text text-anchor="middle" x="599" y="-66" font-family="Helvetica,sans-Serif" font-size="10.00">Sensor&lt; char * &gt;</text>
</a>
</g>
<!-- Node4&#45;&gt;Node24 -->
<g id="edge54" class="edge"><title>Node4&#45;&gt;Node24</title>
<path fill="none" stroke="#9a32cd" stroke-dasharray="5,2" d="M376.331,-150.029C408.845,-143.256 461.761,-131.158 506,-116 525.697,-109.251 546.995,-100.013 564.233,-92.0139"/>
<polygon fill="#9a32cd" stroke="#9a32cd" points="375.622,-146.601 366.528,-152.037 377.027,-153.459 375.622,-146.601"/>
<text text-anchor="middle" x="474" y="-138" font-family="Helvetica,sans-Serif" font-size="10.00"> name</text>
</g>
<!-- Node27 -->
<g id="node55" class="node"><title>Node27</title>
<a xlink:href="../../d2/d04/classmars_1_1interfaces_1_1_base_camera_sensor.html" target="_top" xlink:title="mars::interfaces::BaseCamera\lSensor\&lt; double \&gt;">
<polygon fill="white" stroke="black" points="524,-6 524,-40 674,-40 674,-6 524,-6"/>
<text text-anchor="start" x="532" y="-27" font-family="Helvetica,sans-Serif" font-size="10.00">mars::interfaces::BaseCamera</text>
<text text-anchor="middle" x="599" y="-14" font-family="Helvetica,sans-Serif" font-size="10.00">Sensor&lt; double &gt;</text>
</a>
</g>
<!-- Node4&#45;&gt;Node27 -->
<g id="edge62" class="edge"><title>Node4&#45;&gt;Node27</title>
<path fill="none" stroke="#9a32cd" stroke-dasharray="5,2" d="M369.69,-139.57C402.996,-116.989 466.083,-76.0875 524,-49 530.741,-45.8473 537.975,-42.8677 545.195,-40.1286"/>
<polygon fill="#9a32cd" stroke="#9a32cd" points="367.399,-136.896 361.115,-145.426 371.347,-142.677 367.399,-136.896"/>
<text text-anchor="middle" x="474" y="-97" font-family="Helvetica,sans-Serif" font-size="10.00"> name</text>
</g>
<!-- Node30 -->
<g id="node62" class="node"><title>Node30</title>
<a xlink:href="../../d4/d5f/classmars_1_1interfaces_1_1_base_config.html" target="_top" xlink:title="mars::interfaces::BaseConfig">
<polygon fill="white" stroke="black" points="527,-243.5 527,-264.5 671,-264.5 671,-243.5 527,-243.5"/>
<text text-anchor="middle" x="599" y="-251.5" font-family="Helvetica,sans-Serif" font-size="10.00">mars::interfaces::BaseConfig</text>
</a>
</g>
<!-- Node4&#45;&gt;Node30 -->
<g id="edge68" class="edge"><title>Node4&#45;&gt;Node30</title>
<path fill="none" stroke="#9a32cd" stroke-dasharray="5,2" d="M376.492,-165.458C408.938,-175.759 461.609,-193.162 506,-211 531.088,-221.081 559.17,-234.35 577.846,-243.468"/>
<polygon fill="#9a32cd" stroke="#9a32cd" points="377.294,-162.041 366.704,-162.371 375.189,-168.717 377.294,-162.041"/>
<text text-anchor="middle" x="474" y="-215" font-family="Helvetica,sans-Serif" font-size="10.00"> name</text>
</g>
<!-- Node5 -->
<g id="node8" class="node"><title>Node5</title>
<a xlink:href="../../d3/d21/classmars_1_1interfaces_1_1_sensor_interface.html" target="_top" xlink:title="mars::interfaces::Sensor\lInterface">
<polygon fill="white" stroke="black" points="760,-440 760,-474 884,-474 884,-440 760,-440"/>
<text text-anchor="start" x="768" y="-461" font-family="Helvetica,sans-Serif" font-size="10.00">mars::interfaces::Sensor</text>
<text text-anchor="middle" x="822" y="-448" font-family="Helvetica,sans-Serif" font-size="10.00">Interface</text>
</a>
</g>
<!-- Node5&#45;&gt;Node1 -->
<g id="edge8" class="edge"><title>Node5&#45;&gt;Node1</title>
<path fill="none" stroke="midnightblue" d="M857.647,-434.257C884.487,-416.017 921.124,-388.639 948,-359 984.506,-318.74 1015.01,-260.705 1026.79,-236.857"/>
<polygon fill="midnightblue" stroke="midnightblue" points="855.661,-431.375 849.302,-439.85 859.558,-437.19 855.661,-431.375"/>
</g>
<!-- Node6 -->
<g id="node10" class="node"><title>Node6</title>
<a xlink:href="../../d7/d4e/classmars_1_1interfaces_1_1_control_center.html" target="_top" xlink:title="The declaration of the ControlCenter. ">
<polygon fill="white" stroke="black" points="536.5,-443 536.5,-477 661.5,-477 661.5,-443 536.5,-443"/>
<text text-anchor="start" x="544.5" y="-464" font-family="Helvetica,sans-Serif" font-size="10.00">mars::interfaces::Control</text>
<text text-anchor="middle" x="599" y="-451" font-family="Helvetica,sans-Serif" font-size="10.00">Center</text>
</a>
</g>
<!-- Node6&#45;&gt;Node5 -->
<g id="edge10" class="edge"><title>Node6&#45;&gt;Node5</title>
<path fill="none" stroke="#9a32cd" stroke-dasharray="5,2" d="M671.976,-459.018C700.345,-458.637 732.509,-458.204 759.759,-457.837"/>
<polygon fill="#9a32cd" stroke="#9a32cd" points="671.663,-455.522 661.711,-459.156 671.758,-462.521 671.663,-455.522"/>
<text text-anchor="middle" x="709" y="-462" font-family="Helvetica,sans-Serif" font-size="10.00"> control</text>
</g>
<!-- Node7 -->
<g id="node12" class="node"><title>Node7</title>
<a xlink:href="../../d1/d93/classmars_1_1interfaces_1_1_graphics_manager_interface.html" target="_top" xlink:title="mars::interfaces::Graphics\lManagerInterface">
<polygon fill="white" stroke="black" points="280,-521 280,-555 412,-555 412,-521 280,-521"/>
<text text-anchor="start" x="288" y="-542" font-family="Helvetica,sans-Serif" font-size="10.00">mars::interfaces::Graphics</text>
<text text-anchor="middle" x="346" y="-529" font-family="Helvetica,sans-Serif" font-size="10.00">ManagerInterface</text>
</a>
</g>
<!-- Node7&#45;&gt;Node6 -->
<g id="edge12" class="edge"><title>Node7&#45;&gt;Node6</title>
<path fill="none" stroke="#9a32cd" stroke-dasharray="5,2" d="M420.32,-518.209C447.407,-510.704 478.2,-501.831 506,-493 521.348,-488.124 537.964,-482.38 552.847,-477.062"/>
<polygon fill="#9a32cd" stroke="#9a32cd" points="419.231,-514.879 410.521,-520.91 421.091,-521.627 419.231,-514.879"/>
<text text-anchor="middle" x="474" y="-515" font-family="Helvetica,sans-Serif" font-size="10.00"> graphics</text>
</g>
<!-- Node8 -->
<g id="node14" class="node"><title>Node8</title>
<polygon fill="white" stroke="#bfbfbf" points="47,-683.5 47,-704.5 115,-704.5 115,-683.5 47,-683.5"/>
<text text-anchor="middle" x="81" y="-691.5" font-family="Helvetica,sans-Serif" font-size="10.00">LibInterface</text>
</g>
<!-- Node8&#45;&gt;Node7 -->
<g id="edge14" class="edge"><title>Node8&#45;&gt;Node7</title>
<path fill="none" stroke="midnightblue" d="M101.841,-676.49C135.111,-649.262 203.103,-596.527 268,-564 274.508,-560.738 281.519,-557.744 288.574,-555.04"/>
<polygon fill="midnightblue" stroke="midnightblue" points="99.2634,-674.08 93.7811,-683.146 103.721,-679.478 99.2634,-674.08"/>
</g>
<!-- Node12 -->
<g id="node22" class="node"><title>Node12</title>
<a xlink:href="../../d4/da6/classmars_1_1cfg__manager_1_1_c_f_g_manager_interface.html" target="_top" xlink:title="mars::cfg_manager::\lCFGManagerInterface">
<polygon fill="white" stroke="black" points="289.5,-729 289.5,-763 402.5,-763 402.5,-729 289.5,-729"/>
<text text-anchor="start" x="297.5" y="-750" font-family="Helvetica,sans-Serif" font-size="10.00">mars::cfg_manager::</text>
<text text-anchor="middle" x="346" y="-737" font-family="Helvetica,sans-Serif" font-size="10.00">CFGManagerInterface</text>
</a>
</g>
<!-- Node8&#45;&gt;Node12 -->
<g id="edge24" class="edge"><title>Node8&#45;&gt;Node12</title>
<path fill="none" stroke="midnightblue" d="M125.147,-702.663C170.173,-711.498 240.21,-725.241 289.312,-734.876"/>
<polygon fill="midnightblue" stroke="midnightblue" points="125.588,-699.183 115.102,-700.692 124.241,-706.052 125.588,-699.183"/>
</g>
<!-- Node13 -->
<g id="node25" class="node"><title>Node13</title>
<a xlink:href="../../d6/d2e/classmars_1_1data__broker_1_1_data_broker_interface.html" target="_top" xlink:title="The interface every DataBroker should implement. ">
<polygon fill="white" stroke="black" points="294,-677 294,-711 398,-711 398,-677 294,-677"/>
<text text-anchor="start" x="302" y="-698" font-family="Helvetica,sans-Serif" font-size="10.00">mars::data_broker::</text>
<text text-anchor="middle" x="346" y="-685" font-family="Helvetica,sans-Serif" font-size="10.00">DataBrokerInterface</text>
</a>
</g>
<!-- Node8&#45;&gt;Node13 -->
<g id="edge28" class="edge"><title>Node8&#45;&gt;Node13</title>
<path fill="none" stroke="midnightblue" d="M125.155,-694C171.569,-694 244.55,-694 293.788,-694"/>
<polygon fill="midnightblue" stroke="midnightblue" points="125.102,-690.5 115.102,-694 125.102,-697.5 125.102,-690.5"/>
</g>
<!-- Node9 -->
<g id="node16" class="node"><title>Node9</title>
<a xlink:href="../../d2/da9/classmars_1_1interfaces_1_1_controller_manager_interface.html" target="_top" xlink:title="&quot;ControllerManagerInterface&quot; declares the interfaces for all controller operations that are used for ...">
<polygon fill="white" stroke="black" points="278.5,-325 278.5,-359 413.5,-359 413.5,-325 278.5,-325"/>
<text text-anchor="start" x="286.5" y="-346" font-family="Helvetica,sans-Serif" font-size="10.00">mars::interfaces::Controller</text>
<text text-anchor="middle" x="346" y="-333" font-family="Helvetica,sans-Serif" font-size="10.00">ManagerInterface</text>
</a>
</g>
<!-- Node9&#45;&gt;Node6 -->
<g id="edge16" class="edge"><title>Node9&#45;&gt;Node6</title>
<path fill="none" stroke="#9a32cd" stroke-dasharray="5,2" d="M423.448,-360.639C450.335,-368.545 480.196,-378.986 506,-392 533.502,-405.871 561.571,-427.661 579.571,-442.823"/>
<polygon fill="#9a32cd" stroke="#9a32cd" points="424.267,-357.232 413.69,-357.84 422.338,-363.961 424.267,-357.232"/>
<text text-anchor="middle" x="474" y="-396" font-family="Helvetica,sans-Serif" font-size="10.00"> controllers</text>
</g>
<!-- Node10 -->
<g id="node18" class="node"><title>Node10</title>
<a xlink:href="../../d6/d60/classmars_1_1interfaces_1_1_joint_manager_interface.html" target="_top" xlink:title="Interface class for the node organization. ">
<polygon fill="white" stroke="black" points="270,-273 270,-307 422,-307 422,-273 270,-273"/>
<text text-anchor="start" x="278" y="-294" font-family="Helvetica,sans-Serif" font-size="10.00">mars::interfaces::JointManager</text>
<text text-anchor="middle" x="346" y="-281" font-family="Helvetica,sans-Serif" font-size="10.00">Interface</text>
</a>
</g>
<!-- Node10&#45;&gt;Node6 -->
<g id="edge18" class="edge"><title>Node10&#45;&gt;Node6</title>
<path fill="none" stroke="#9a32cd" stroke-dasharray="5,2" d="M426.806,-310.21C453.59,-319.32 482.529,-331.959 506,-349 542.212,-375.292 573.028,-418.686 588.445,-442.688"/>
<polygon fill="#9a32cd" stroke="#9a32cd" points="427.642,-306.801 417.049,-307.011 425.461,-313.452 427.642,-306.801"/>
<text text-anchor="middle" x="474" y="-353" font-family="Helvetica,sans-Serif" font-size="10.00"> joints</text>
</g>
<!-- Node11 -->
<g id="node20" class="node"><title>Node11</title>
<a xlink:href="../../df/d82/classmars_1_1interfaces_1_1_entity_manager_interface.html" target="_top" xlink:title="mars::interfaces::Entity\lManagerInterface">
<polygon fill="white" stroke="black" points="286.5,-221 286.5,-255 405.5,-255 405.5,-221 286.5,-221"/>
<text text-anchor="start" x="294.5" y="-242" font-family="Helvetica,sans-Serif" font-size="10.00">mars::interfaces::Entity</text>
<text text-anchor="middle" x="346" y="-229" font-family="Helvetica,sans-Serif" font-size="10.00">ManagerInterface</text>
</a>
</g>
<!-- Node11&#45;&gt;Node6 -->
<g id="edge20" class="edge"><title>Node11&#45;&gt;Node6</title>
<path fill="none" stroke="#9a32cd" stroke-dasharray="5,2" d="M415.575,-253.149C446.082,-262.571 480.638,-277.349 506,-300 552.01,-341.091 581.318,-410.546 593.096,-442.705"/>
<polygon fill="#9a32cd" stroke="#9a32cd" points="416.41,-249.746 405.829,-250.274 414.43,-256.46 416.41,-249.746"/>
<text text-anchor="middle" x="474" y="-304" font-family="Helvetica,sans-Serif" font-size="10.00"> entities</text>
</g>
<!-- Node12&#45;&gt;Node6 -->
<g id="edge22" class="edge"><title>Node12&#45;&gt;Node6</title>
<path fill="none" stroke="#9a32cd" stroke-dasharray="5,2" d="M412.908,-738.574C444.493,-731.976 480.713,-719.517 506,-696 572.109,-634.518 591.977,-520.168 597.269,-477.047"/>
<polygon fill="#9a32cd" stroke="#9a32cd" points="411.991,-735.187 402.835,-740.518 413.317,-742.06 411.991,-735.187"/>
<text text-anchor="middle" x="474" y="-734" font-family="Helvetica,sans-Serif" font-size="10.00"> cfg</text>
</g>
<!-- Node13&#45;&gt;Node6 -->
<g id="edge26" class="edge"><title>Node13&#45;&gt;Node6</title>
<path fill="none" stroke="#9a32cd" stroke-dasharray="5,2" d="M408.128,-679.157C440.568,-668.774 479.013,-651.999 506,-626 551.915,-581.767 581.458,-509.879 593.217,-477.175"/>
<polygon fill="#9a32cd" stroke="#9a32cd" points="406.808,-675.9 398.272,-682.177 408.859,-682.593 406.808,-675.9"/>
<text text-anchor="middle" x="474" y="-683" font-family="Helvetica,sans-Serif" font-size="10.00"> dataBroker</text>
<text text-anchor="middle" x="474" y="-670" font-family="Helvetica,sans-Serif" font-size="10.00">theDataBroker</text>
</g>
<!-- Node14 -->
<g id="node28" class="node"><title>Node14</title>
<a xlink:href="../../db/da9/classmars_1_1interfaces_1_1_sensor_manager_interface.html" target="_top" xlink:title="&quot;SensorManagerInterface&quot; declares the interfaces for all sensor operations that are used for the comm...">
<polygon fill="white" stroke="black" points="284,-625 284,-659 408,-659 408,-625 284,-625"/>
<text text-anchor="start" x="292" y="-646" font-family="Helvetica,sans-Serif" font-size="10.00">mars::interfaces::Sensor</text>
<text text-anchor="middle" x="346" y="-633" font-family="Helvetica,sans-Serif" font-size="10.00">ManagerInterface</text>
</a>
</g>
<!-- Node14&#45;&gt;Node6 -->
<g id="edge30" class="edge"><title>Node14&#45;&gt;Node6</title>
<path fill="none" stroke="#9a32cd" stroke-dasharray="5,2" d="M415.694,-621.453C445.592,-610.347 479.63,-594.437 506,-573 541.093,-544.472 572.347,-500.985 588.134,-477.133"/>
<polygon fill="#9a32cd" stroke="#9a32cd" points="414.37,-618.21 406.147,-624.891 416.742,-624.796 414.37,-618.21"/>
<text text-anchor="middle" x="474" y="-613" font-family="Helvetica,sans-Serif" font-size="10.00"> sensors</text>
</g>
<!-- Node15 -->
<g id="node30" class="node"><title>Node15</title>
<a xlink:href="../../db/de9/classmars_1_1interfaces_1_1_motor_manager_interface.html" target="_top" xlink:title="&quot;MotorManagerInterface&quot; declares the interfaces for all motor operations that are used for the commun...">
<polygon fill="white" stroke="black" points="268.5,-573 268.5,-607 423.5,-607 423.5,-573 268.5,-573"/>
<text text-anchor="start" x="276.5" y="-594" font-family="Helvetica,sans-Serif" font-size="10.00">mars::interfaces::MotorManager</text>
<text text-anchor="middle" x="346" y="-581" font-family="Helvetica,sans-Serif" font-size="10.00">Interface</text>
</a>
</g>
<!-- Node15&#45;&gt;Node6 -->
<g id="edge32" class="edge"><title>Node15&#45;&gt;Node6</title>
<path fill="none" stroke="#9a32cd" stroke-dasharray="5,2" d="M409.202,-569.484C414.229,-567.684 419.211,-565.845 424,-564 461.141,-549.692 471.509,-547.864 506,-528 532.346,-512.827 560.192,-491.7 578.469,-477.037"/>
<polygon fill="#9a32cd" stroke="#9a32cd" points="407.794,-566.269 399.519,-572.885 410.114,-572.873 407.794,-566.269"/>
<text text-anchor="middle" x="474" y="-560" font-family="Helvetica,sans-Serif" font-size="10.00"> motors</text>
</g>
<!-- Node16 -->
<g id="node32" class="node"><title>Node16</title>
<a xlink:href="../../d9/d6a/classmars_1_1interfaces_1_1_load_center.html" target="_top" xlink:title="mars::interfaces::LoadCenter">
<polygon fill="white" stroke="black" points="274.5,-377.5 274.5,-398.5 417.5,-398.5 417.5,-377.5 274.5,-377.5"/>
<text text-anchor="middle" x="346" y="-385.5" font-family="Helvetica,sans-Serif" font-size="10.00">mars::interfaces::LoadCenter</text>
</a>
</g>
<!-- Node16&#45;&gt;Node6 -->
<g id="edge34" class="edge"><title>Node16&#45;&gt;Node6</title>
<path fill="none" stroke="#9a32cd" stroke-dasharray="5,2" d="M407.118,-400.747C437.131,-407.455 473.695,-416.295 506,-426 522.299,-430.897 539.901,-437.091 555.359,-442.847"/>
<polygon fill="#9a32cd" stroke="#9a32cd" points="407.727,-397.298 397.207,-398.556 406.216,-404.133 407.727,-397.298"/>
<text text-anchor="middle" x="474" y="-430" font-family="Helvetica,sans-Serif" font-size="10.00"> loadCenter</text>
</g>
<!-- Node17 -->
<g id="node34" class="node"><title>Node17</title>
<a xlink:href="../../d1/d51/classmars_1_1interfaces_1_1_load_heightmap_interface.html" target="_top" xlink:title="mars::interfaces::LoadHeightmap\lInterface">
<polygon fill="white" stroke="black" points="0.5,-345 0.5,-379 161.5,-379 161.5,-345 0.5,-345"/>
<text text-anchor="start" x="8.5" y="-366" font-family="Helvetica,sans-Serif" font-size="10.00">mars::interfaces::LoadHeightmap</text>
<text text-anchor="middle" x="81" y="-353" font-family="Helvetica,sans-Serif" font-size="10.00">Interface</text>
</a>
</g>
<!-- Node17&#45;&gt;Node16 -->
<g id="edge36" class="edge"><title>Node17&#45;&gt;Node16</title>
<path fill="none" stroke="#9a32cd" stroke-dasharray="5,2" d="M171.844,-370.913C205.335,-374.199 242.778,-377.873 274.339,-380.969"/>
<polygon fill="#9a32cd" stroke="#9a32cd" points="171.882,-367.4 161.588,-369.907 171.198,-374.367 171.882,-367.4"/>
<text text-anchor="middle" x="215" y="-382" font-family="Helvetica,sans-Serif" font-size="10.00"> loadHeightmap</text>
</g>
<!-- Node18 -->
<g id="node36" class="node"><title>Node18</title>
<a xlink:href="../../d7/d02/classmars_1_1interfaces_1_1_load_mesh_interface.html" target="_top" xlink:title="mars::interfaces::LoadMesh\lInterface">
<polygon fill="white" stroke="black" points="12,-397 12,-431 150,-431 150,-397 12,-397"/>
<text text-anchor="start" x="20" y="-418" font-family="Helvetica,sans-Serif" font-size="10.00">mars::interfaces::LoadMesh</text>
<text text-anchor="middle" x="81" y="-405" font-family="Helvetica,sans-Serif" font-size="10.00">Interface</text>
</a>
</g>
<!-- Node18&#45;&gt;Node16 -->
<g id="edge38" class="edge"><title>Node18&#45;&gt;Node16</title>
<path fill="none" stroke="#9a32cd" stroke-dasharray="5,2" d="M160.315,-406.218C196.535,-402.664 239.113,-398.487 274.353,-395.029"/>
<polygon fill="#9a32cd" stroke="#9a32cd" points="159.89,-402.743 150.279,-407.203 160.573,-409.71 159.89,-402.743"/>
<text text-anchor="middle" x="215" y="-408" font-family="Helvetica,sans-Serif" font-size="10.00"> loadMesh</text>
</g>
<!-- Node19 -->
<g id="node38" class="node"><title>Node19</title>
<a xlink:href="../../d7/d4c/classmars_1_1interfaces_1_1_node_manager_interface.html" target="_top" xlink:title="&quot;NodeManagerInterface&quot; declares the interfaces for all NodeOperations that are used for the communica...">
<polygon fill="white" stroke="black" points="269,-469 269,-503 423,-503 423,-469 269,-469"/>
<text text-anchor="start" x="277" y="-490" font-family="Helvetica,sans-Serif" font-size="10.00">mars::interfaces::NodeManager</text>
<text text-anchor="middle" x="346" y="-477" font-family="Helvetica,sans-Serif" font-size="10.00">Interface</text>
</a>
</g>
<!-- Node19&#45;&gt;Node6 -->
<g id="edge40" class="edge"><title>Node19&#45;&gt;Node6</title>
<path fill="none" stroke="#9a32cd" stroke-dasharray="5,2" d="M433.616,-476.996C467.371,-473.527 505.219,-469.638 536.181,-466.456"/>
<polygon fill="#9a32cd" stroke="#9a32cd" points="432.873,-473.554 423.283,-478.058 433.589,-480.517 432.873,-473.554"/>
<text text-anchor="middle" x="474" y="-480" font-family="Helvetica,sans-Serif" font-size="10.00"> nodes</text>
</g>
<!-- Node20 -->
<g id="node40" class="node"><title>Node20</title>
<a xlink:href="../../dc/de5/classmars_1_1interfaces_1_1_simulator_interface.html" target="_top" xlink:title="mars::interfaces::Simulator\lInterface">
<polygon fill="white" stroke="black" points="279,-417 279,-451 413,-451 413,-417 279,-417"/>
<text text-anchor="start" x="287" y="-438" font-family="Helvetica,sans-Serif" font-size="10.00">mars::interfaces::Simulator</text>
<text text-anchor="middle" x="346" y="-425" font-family="Helvetica,sans-Serif" font-size="10.00">Interface</text>
</a>
</g>
<!-- Node20&#45;&gt;Node6 -->
<g id="edge42" class="edge"><title>Node20&#45;&gt;Node6</title>
<path fill="none" stroke="#9a32cd" stroke-dasharray="5,2" d="M423.18,-441.932C459.442,-445.658 502.114,-450.043 536.338,-453.56"/>
<polygon fill="#9a32cd" stroke="#9a32cd" points="423.441,-438.44 413.135,-440.899 422.725,-445.403 423.441,-438.44"/>
<text text-anchor="middle" x="474" y="-454" font-family="Helvetica,sans-Serif" font-size="10.00"> sim</text>
</g>
<!-- Node21 -->
<g id="node42" class="node"><title>Node21</title>
<a xlink:href="../../d0/d0e/classmars_1_1data__broker_1_1_receiver_interface.html" target="_top" xlink:title="Interface for classes that want to receive data from the DataBroker. ">
<polygon fill="white" stroke="black" points="771.5,-313 771.5,-347 872.5,-347 872.5,-313 771.5,-313"/>
<text text-anchor="start" x="779.5" y="-334" font-family="Helvetica,sans-Serif" font-size="10.00">mars::data_broker::</text>
<text text-anchor="middle" x="822" y="-321" font-family="Helvetica,sans-Serif" font-size="10.00">ReceiverInterface</text>
</a>
</g>
<!-- Node21&#45;&gt;Node1 -->
<g id="edge44" class="edge"><title>Node21&#45;&gt;Node1</title>
<path fill="none" stroke="midnightblue" d="M882.135,-311.395C888.239,-309.079 894.289,-306.603 900,-304 944.081,-283.904 992.202,-252.959 1016.34,-236.747"/>
<polygon fill="midnightblue" stroke="midnightblue" points="880.733,-308.181 872.539,-314.897 883.133,-314.757 880.733,-308.181"/>
</g>
<!-- Node22 -->
<g id="node44" class="node"><title>Node22</title>
<a xlink:href="../../d8/d6e/classmars_1_1interfaces_1_1_graphics_update_interface.html" target="_top" xlink:title="The Interface to load controller dynamically into the simulation. ">
<polygon fill="white" stroke="black" points="756,-261 756,-295 888,-295 888,-261 756,-261"/>
<text text-anchor="start" x="764" y="-282" font-family="Helvetica,sans-Serif" font-size="10.00">mars::interfaces::Graphics</text>
<text text-anchor="middle" x="822" y="-269" font-family="Helvetica,sans-Serif" font-size="10.00">UpdateInterface</text>
</a>
</g>
<!-- Node22&#45;&gt;Node1 -->
<g id="edge46" class="edge"><title>Node22&#45;&gt;Node1</title>
<path fill="none" stroke="midnightblue" d="M897.999,-259.181C928.749,-251.567 963.1,-243.061 989.323,-236.568"/>
<polygon fill="midnightblue" stroke="midnightblue" points="897.023,-255.817 888.157,-261.618 898.705,-262.612 897.023,-255.817"/>
</g>
<!-- Node23 -->
<g id="node46" class="node"><title>Node23</title>
<a xlink:href="../../db/dc3/classmars_1_1interfaces_1_1_graphics_camera_interface.html" target="_top" xlink:title="mars::interfaces::Graphics\lCameraInterface">
<polygon fill="white" stroke="black" points="756,-209 756,-243 888,-243 888,-209 756,-209"/>
<text text-anchor="start" x="764" y="-230" font-family="Helvetica,sans-Serif" font-size="10.00">mars::interfaces::Graphics</text>
<text text-anchor="middle" x="822" y="-217" font-family="Helvetica,sans-Serif" font-size="10.00">CameraInterface</text>
</a>
</g>
<!-- Node23&#45;&gt;Node1 -->
<g id="edge48" class="edge"><title>Node23&#45;&gt;Node1</title>
<path fill="none" stroke="#9a32cd" stroke-dasharray="5,2" d="M898.236,-226C920.494,-226 944.62,-226 966.175,-226"/>
<polygon fill="#9a32cd" stroke="#9a32cd" points="898.157,-222.5 888.157,-226 898.157,-229.5 898.157,-222.5"/>
<text text-anchor="middle" x="933" y="-230" font-family="Helvetica,sans-Serif" font-size="10.00"> gc</text>
</g>
<!-- Node24&#45;&gt;Node1 -->
<g id="edge50" class="edge"><title>Node24&#45;&gt;Node1</title>
<path fill="none" stroke="#9a32cd" stroke-dasharray="5,2" d="M684.262,-60.1463C746.793,-53.2248 832.247,-52.2566 900,-83 963.688,-111.899 1010.69,-187.56 1026.34,-215.465"/>
<polygon fill="#9a32cd" stroke="#9a32cd" points="683.559,-56.7049 674.039,-61.3532 684.38,-63.6566 683.559,-56.7049"/>
<text text-anchor="middle" x="822" y="-87" font-family="Helvetica,sans-Serif" font-size="10.00"> imageCamera</text>
</g>
<!-- Node25 -->
<g id="node50" class="node"><title>Node25</title>
<a xlink:href="../../da/da3/classmars_1_1interfaces_1_1_base_array_sensor.html" target="_top" xlink:title="mars::interfaces::BaseArray\lSensor\&lt; char * \&gt;">
<polygon fill="white" stroke="black" points="276.5,-52 276.5,-86 415.5,-86 415.5,-52 276.5,-52"/>
<text text-anchor="start" x="284.5" y="-73" font-family="Helvetica,sans-Serif" font-size="10.00">mars::interfaces::BaseArray</text>
<text text-anchor="middle" x="346" y="-60" font-family="Helvetica,sans-Serif" font-size="10.00">Sensor&lt; char * &gt;</text>
</a>
</g>
<!-- Node25&#45;&gt;Node24 -->
<g id="edge52" class="edge"><title>Node25&#45;&gt;Node24</title>
<path fill="none" stroke="midnightblue" d="M426.202,-70.902C457.397,-71.6418 492.95,-72.485 523.663,-73.2134"/>
<polygon fill="midnightblue" stroke="midnightblue" points="425.883,-67.3936 415.803,-70.6554 425.717,-74.3916 425.883,-67.3936"/>
</g>
<!-- Node26 -->
<g id="node53" class="node"><title>Node26</title>
<a xlink:href="../../d9/d3b/classmars_1_1interfaces_1_1_graphics_window_interface.html" target="_top" xlink:title="mars::interfaces::Graphics\lWindowInterface">
<polygon fill="white" stroke="black" points="756,-105 756,-139 888,-139 888,-105 756,-105"/>
<text text-anchor="start" x="764" y="-126" font-family="Helvetica,sans-Serif" font-size="10.00">mars::interfaces::Graphics</text>
<text text-anchor="middle" x="822" y="-113" font-family="Helvetica,sans-Serif" font-size="10.00">WindowInterface</text>
</a>
</g>
<!-- Node26&#45;&gt;Node1 -->
<g id="edge56" class="edge"><title>Node26&#45;&gt;Node1</title>
<path fill="none" stroke="#9a32cd" stroke-dasharray="5,2" d="M887.425,-142.659C891.719,-144.367 895.945,-146.152 900,-148 944.081,-168.096 992.202,-199.041 1016.34,-215.253"/>
<polygon fill="#9a32cd" stroke="#9a32cd" points="888.543,-139.34 877.952,-139.045 886.048,-145.88 888.543,-139.34"/>
<text text-anchor="middle" x="933" y="-176" font-family="Helvetica,sans-Serif" font-size="10.00"> gw</text>
</g>
<!-- Node27&#45;&gt;Node1 -->
<g id="edge58" class="edge"><title>Node27&#45;&gt;Node1</title>
<path fill="none" stroke="#9a32cd" stroke-dasharray="5,2" d="M684.398,-11.4679C746.997,-6.80318 832.477,-8.53615 900,-40 976.449,-75.6232 1017.06,-180.73 1028.55,-215.035"/>
<polygon fill="#9a32cd" stroke="#9a32cd" points="683.845,-8.00119 674.163,-12.3024 684.414,-14.978 683.845,-8.00119"/>
<text text-anchor="middle" x="822" y="-44" font-family="Helvetica,sans-Serif" font-size="10.00"> depthCamera</text>
</g>
<!-- Node28 -->
<g id="node57" class="node"><title>Node28</title>
<a xlink:href="../../da/da3/classmars_1_1interfaces_1_1_base_array_sensor.html" target="_top" xlink:title="mars::interfaces::BaseArray\lSensor\&lt; double \&gt;">
<polygon fill="white" stroke="black" points="276.5,-0 276.5,-34 415.5,-34 415.5,-0 276.5,-0"/>
<text text-anchor="start" x="284.5" y="-21" font-family="Helvetica,sans-Serif" font-size="10.00">mars::interfaces::BaseArray</text>
<text text-anchor="middle" x="346" y="-8" font-family="Helvetica,sans-Serif" font-size="10.00">Sensor&lt; double &gt;</text>
</a>
</g>
<!-- Node28&#45;&gt;Node27 -->
<g id="edge60" class="edge"><title>Node28&#45;&gt;Node27</title>
<path fill="none" stroke="midnightblue" d="M426.202,-18.902C457.397,-19.6418 492.95,-20.485 523.663,-21.2134"/>
<polygon fill="midnightblue" stroke="midnightblue" points="425.883,-15.3936 415.803,-18.6554 425.717,-22.3916 425.883,-15.3936"/>
</g>
<!-- Node29 -->
<g id="node60" class="node"><title>Node29</title>
<a xlink:href="../../de/d94/structmars_1_1sim_1_1_camera_config_struct.html" target="_top" xlink:title="mars::sim::CameraConfigStruct">
<polygon fill="white" stroke="black" points="744.5,-365.5 744.5,-386.5 899.5,-386.5 899.5,-365.5 744.5,-365.5"/>
<text text-anchor="middle" x="822" y="-373.5" font-family="Helvetica,sans-Serif" font-size="10.00">mars::sim::CameraConfigStruct</text>
</a>
</g>
<!-- Node29&#45;&gt;Node1 -->
<g id="edge64" class="edge"><title>Node29&#45;&gt;Node1</title>
<path fill="none" stroke="#9a32cd" stroke-dasharray="5,2" d="M887.784,-361.881C892.018,-360.139 896.13,-358.187 900,-356 956.565,-324.034 1006.05,-261.574 1024.41,-236.646"/>
<polygon fill="#9a32cd" stroke="#9a32cd" points="886.528,-358.614 878.366,-365.369 888.959,-365.178 886.528,-358.614"/>
<text text-anchor="middle" x="933" y="-346" font-family="Helvetica,sans-Serif" font-size="10.00"> config</text>
</g>
<!-- Node30&#45;&gt;Node29 -->
<g id="edge66" class="edge"><title>Node30&#45;&gt;Node29</title>
<path fill="none" stroke="midnightblue" d="M618.648,-271.378C645.258,-294.039 695.072,-333.441 744,-356 752.125,-359.746 761.062,-362.869 769.898,-365.447"/>
<polygon fill="midnightblue" stroke="midnightblue" points="620.711,-268.536 610.854,-264.651 616.137,-273.835 620.711,-268.536"/>
</g>
</g>
</svg>
