<?xml version="1.0" encoding="UTF-8" standalone="no"?>
<!DOCTYPE svg PUBLIC "-//W3C//DTD SVG 1.1//EN"
 "http://www.w3.org/Graphics/SVG/1.1/DTD/svg11.dtd">
<!-- Generated by graphviz version 2.26.3 (20100126.1600)
 -->
<!-- Title: /home/kavonszadkowski/limes&#45;dev/simulation/mars/viz/src/MyApp.h Pages: 1 -->
<svg width="152pt" height="114pt"
 viewBox="0.00 0.00 152.00 114.00" xmlns="http://www.w3.org/2000/svg" xmlns:xlink="http://www.w3.org/1999/xlink">
<g id="graph1" class="graph" transform="scale(1 1) rotate(0) translate(4 110)">
<title>/home/kavonszadkowski/limes&#45;dev/simulation/mars/viz/src/MyApp.h</title>
<polygon fill="white" stroke="white" points="-4,5 -4,-110 149,-110 149,5 -4,5"/>
<!-- Node1 -->
<g id="node1" class="node"><title>Node1</title>
<polygon fill="#bfbfbf" stroke="black" points="13.5,-58.5 13.5,-105.5 138.5,-105.5 138.5,-58.5 13.5,-58.5"/>
<text text-anchor="start" x="21.5" y="-92.5" font-family="Helvetica,sans-Serif" font-size="10.00">/home/kavonszadkowski</text>
<text text-anchor="start" x="21.5" y="-79.5" font-family="Helvetica,sans-Serif" font-size="10.00">/limes&#45;dev/simulation</text>
<text text-anchor="middle" x="76" y="-66.5" font-family="Helvetica,sans-Serif" font-size="10.00">/mars/viz/src/MyApp.h</text>
</g>
<!-- Node2 -->
<g id="node3" class="node"><title>Node2</title>
<polygon fill="white" stroke="#bfbfbf" points="0,-0.5 0,-21.5 72,-21.5 72,-0.5 0,-0.5"/>
<text text-anchor="middle" x="36" y="-8.5" font-family="Helvetica,sans-Serif" font-size="10.00">QApplication</text>
</g>
<!-- Node1&#45;&gt;Node2 -->
<g id="edge2" class="edge"><title>Node1&#45;&gt;Node2</title>
<path fill="none" stroke="midnightblue" d="M62.6806,-58.358C57.5948,-49.3308 51.8579,-39.1477 47.0105,-30.5437"/>
<polygon fill="midnightblue" stroke="midnightblue" points="49.9557,-28.6407 41.9979,-21.6462 43.857,-32.0767 49.9557,-28.6407"/>
</g>
<!-- Node3 -->
<g id="node5" class="node"><title>Node3</title>
<polygon fill="white" stroke="#bfbfbf" points="90,-0.5 90,-21.5 144,-21.5 144,-0.5 90,-0.5"/>
<text text-anchor="middle" x="117" y="-8.5" font-family="Helvetica,sans-Serif" font-size="10.00">iostream</text>
</g>
<!-- Node1&#45;&gt;Node3 -->
<g id="edge4" class="edge"><title>Node1&#45;&gt;Node3</title>
<path fill="none" stroke="midnightblue" d="M89.6524,-58.358C94.8653,-49.3308 100.746,-39.1477 105.714,-30.5437"/>
<polygon fill="midnightblue" stroke="midnightblue" points="108.882,-32.0563 110.852,-21.6462 102.82,-28.5558 108.882,-32.0563"/>
</g>
</g>
</svg>
